<?xml version="1.0" encoding="utf-8"?>
<svg xmlns="http://www.w3.org/2000/svg" xmlns:xlink="http://www.w3.org/1999/xlink" width="800" height="400" viewBox="0 0 3200 1600">
<defs>
  <clipPath id="clip830">
    <rect x="0" y="0" width="3200" height="1600"/>
  </clipPath>
</defs>
<path clip-path="url(#clip830)" d="M0 1600 L3200 1600 L3200 0 L0 0  Z" fill="#ffffff" fill-rule="evenodd" fill-opacity="1"/>
<defs>
  <clipPath id="clip831">
    <rect x="640" y="0" width="2241" height="1600"/>
  </clipPath>
</defs>
<path clip-path="url(#clip830)" d="M228.509 1495.09 L3152.76 1495.09 L3152.76 108.352 L228.509 108.352  Z" fill="#ffffff" fill-rule="evenodd" fill-opacity="1"/>
<defs>
  <clipPath id="clip832">
    <rect x="228" y="108" width="2925" height="1388"/>
  </clipPath>
</defs>
<polyline clip-path="url(#clip832)" style="stroke:#000000; stroke-linecap:round; stroke-linejoin:round; stroke-width:2; stroke-opacity:0.1; fill:none" points="283.405,1495.09 283.405,108.352 "/>
<polyline clip-path="url(#clip832)" style="stroke:#000000; stroke-linecap:round; stroke-linejoin:round; stroke-width:2; stroke-opacity:0.1; fill:none" points="980.052,1495.09 980.052,108.352 "/>
<polyline clip-path="url(#clip832)" style="stroke:#000000; stroke-linecap:round; stroke-linejoin:round; stroke-width:2; stroke-opacity:0.1; fill:none" points="1676.7,1495.09 1676.7,108.352 "/>
<polyline clip-path="url(#clip832)" style="stroke:#000000; stroke-linecap:round; stroke-linejoin:round; stroke-width:2; stroke-opacity:0.1; fill:none" points="2373.35,1495.09 2373.35,108.352 "/>
<polyline clip-path="url(#clip832)" style="stroke:#000000; stroke-linecap:round; stroke-linejoin:round; stroke-width:2; stroke-opacity:0.1; fill:none" points="3069.99,1495.09 3069.99,108.352 "/>
<polyline clip-path="url(#clip830)" style="stroke:#000000; stroke-linecap:round; stroke-linejoin:round; stroke-width:4; stroke-opacity:1; fill:none" points="228.509,1495.09 3152.76,1495.09 "/>
<polyline clip-path="url(#clip830)" style="stroke:#000000; stroke-linecap:round; stroke-linejoin:round; stroke-width:4; stroke-opacity:1; fill:none" points="283.405,1495.09 283.405,1476.19 "/>
<polyline clip-path="url(#clip830)" style="stroke:#000000; stroke-linecap:round; stroke-linejoin:round; stroke-width:4; stroke-opacity:1; fill:none" points="980.052,1495.09 980.052,1476.19 "/>
<polyline clip-path="url(#clip830)" style="stroke:#000000; stroke-linecap:round; stroke-linejoin:round; stroke-width:4; stroke-opacity:1; fill:none" points="1676.7,1495.09 1676.7,1476.19 "/>
<polyline clip-path="url(#clip830)" style="stroke:#000000; stroke-linecap:round; stroke-linejoin:round; stroke-width:4; stroke-opacity:1; fill:none" points="2373.35,1495.09 2373.35,1476.19 "/>
<polyline clip-path="url(#clip830)" style="stroke:#000000; stroke-linecap:round; stroke-linejoin:round; stroke-width:4; stroke-opacity:1; fill:none" points="3069.99,1495.09 3069.99,1476.19 "/>
<path clip-path="url(#clip830)" d="M283.405 1532.41 Q279.794 1532.41 277.965 1535.97 Q276.16 1539.51 276.16 1546.64 Q276.16 1553.75 277.965 1557.31 Q279.794 1560.86 283.405 1560.86 Q287.039 1560.86 288.845 1557.31 Q290.674 1553.75 290.674 1546.64 Q290.674 1539.51 288.845 1535.97 Q287.039 1532.41 283.405 1532.41 M283.405 1528.7 Q289.215 1528.7 292.271 1533.31 Q295.35 1537.89 295.35 1546.64 Q295.35 1555.37 292.271 1559.98 Q289.215 1564.56 283.405 1564.56 Q277.595 1564.56 274.516 1559.98 Q271.461 1555.37 271.461 1546.64 Q271.461 1537.89 274.516 1533.31 Q277.595 1528.7 283.405 1528.7 Z" fill="#000000" fill-rule="nonzero" fill-opacity="1" /><path clip-path="url(#clip830)" d="M959.323 1559.95 L975.643 1559.95 L975.643 1563.89 L953.698 1563.89 L953.698 1559.95 Q956.36 1557.2 960.944 1552.57 Q965.55 1547.92 966.731 1546.57 Q968.976 1544.05 969.856 1542.31 Q970.758 1540.55 970.758 1538.86 Q970.758 1536.11 968.814 1534.37 Q966.893 1532.64 963.791 1532.64 Q961.592 1532.64 959.138 1533.4 Q956.708 1534.17 953.93 1535.72 L953.93 1530.99 Q956.754 1529.86 959.208 1529.28 Q961.661 1528.7 963.698 1528.7 Q969.069 1528.7 972.263 1531.39 Q975.458 1534.07 975.458 1538.56 Q975.458 1540.69 974.647 1542.61 Q973.86 1544.51 971.754 1547.11 Q971.175 1547.78 968.073 1550.99 Q964.971 1554.19 959.323 1559.95 Z" fill="#000000" fill-rule="nonzero" fill-opacity="1" /><path clip-path="url(#clip830)" d="M985.504 1529.33 L1003.86 1529.33 L1003.86 1533.26 L989.786 1533.26 L989.786 1541.74 Q990.805 1541.39 991.823 1541.23 Q992.842 1541.04 993.86 1541.04 Q999.647 1541.04 1003.03 1544.21 Q1006.41 1547.38 1006.41 1552.8 Q1006.41 1558.38 1002.93 1561.48 Q999.462 1564.56 993.143 1564.56 Q990.967 1564.56 988.698 1564.19 Q986.453 1563.82 984.045 1563.08 L984.045 1558.38 Q986.129 1559.51 988.351 1560.07 Q990.573 1560.62 993.05 1560.62 Q997.055 1560.62 999.393 1558.52 Q1001.73 1556.41 1001.73 1552.8 Q1001.73 1549.19 999.393 1547.08 Q997.055 1544.98 993.05 1544.98 Q991.175 1544.98 989.3 1545.39 Q987.448 1545.81 985.504 1546.69 L985.504 1529.33 Z" fill="#000000" fill-rule="nonzero" fill-opacity="1" /><path clip-path="url(#clip830)" d="M1651.4 1529.33 L1669.76 1529.33 L1669.76 1533.26 L1655.68 1533.26 L1655.68 1541.74 Q1656.7 1541.39 1657.72 1541.23 Q1658.74 1541.04 1659.76 1541.04 Q1665.54 1541.04 1668.92 1544.21 Q1672.3 1547.38 1672.3 1552.8 Q1672.3 1558.38 1668.83 1561.48 Q1665.36 1564.56 1659.04 1564.56 Q1656.86 1564.56 1654.59 1564.19 Q1652.35 1563.82 1649.94 1563.08 L1649.94 1558.38 Q1652.02 1559.51 1654.25 1560.07 Q1656.47 1560.62 1658.95 1560.62 Q1662.95 1560.62 1665.29 1558.52 Q1667.63 1556.41 1667.63 1552.8 Q1667.63 1549.19 1665.29 1547.08 Q1662.95 1544.98 1658.95 1544.98 Q1657.07 1544.98 1655.2 1545.39 Q1653.34 1545.81 1651.4 1546.69 L1651.4 1529.33 Z" fill="#000000" fill-rule="nonzero" fill-opacity="1" /><path clip-path="url(#clip830)" d="M1691.51 1532.41 Q1687.9 1532.41 1686.07 1535.97 Q1684.27 1539.51 1684.27 1546.64 Q1684.27 1553.75 1686.07 1557.31 Q1687.9 1560.86 1691.51 1560.86 Q1695.15 1560.86 1696.95 1557.31 Q1698.78 1553.75 1698.78 1546.64 Q1698.78 1539.51 1696.95 1535.97 Q1695.15 1532.41 1691.51 1532.41 M1691.51 1528.7 Q1697.32 1528.7 1700.38 1533.31 Q1703.46 1537.89 1703.46 1546.64 Q1703.46 1555.37 1700.38 1559.98 Q1697.32 1564.56 1691.51 1564.56 Q1685.7 1564.56 1682.63 1559.98 Q1679.57 1555.37 1679.57 1546.64 Q1679.57 1537.89 1682.63 1533.31 Q1685.7 1528.7 1691.51 1528.7 Z" fill="#000000" fill-rule="nonzero" fill-opacity="1" /><path clip-path="url(#clip830)" d="M2347.2 1529.33 L2369.42 1529.33 L2369.42 1531.32 L2356.88 1563.89 L2351.99 1563.89 L2363.8 1533.26 L2347.2 1533.26 L2347.2 1529.33 Z" fill="#000000" fill-rule="nonzero" fill-opacity="1" /><path clip-path="url(#clip830)" d="M2378.59 1529.33 L2396.95 1529.33 L2396.95 1533.26 L2382.87 1533.26 L2382.87 1541.74 Q2383.89 1541.39 2384.91 1541.23 Q2385.93 1541.04 2386.95 1541.04 Q2392.73 1541.04 2396.11 1544.21 Q2399.49 1547.38 2399.49 1552.8 Q2399.49 1558.38 2396.02 1561.48 Q2392.55 1564.56 2386.23 1564.56 Q2384.05 1564.56 2381.78 1564.19 Q2379.54 1563.82 2377.13 1563.08 L2377.13 1558.38 Q2379.21 1559.51 2381.44 1560.07 Q2383.66 1560.62 2386.14 1560.62 Q2390.14 1560.62 2392.48 1558.52 Q2394.82 1556.41 2394.82 1552.8 Q2394.82 1549.19 2392.48 1547.08 Q2390.14 1544.98 2386.14 1544.98 Q2384.26 1544.98 2382.39 1545.39 Q2380.53 1545.81 2378.59 1546.69 L2378.59 1529.33 Z" fill="#000000" fill-rule="nonzero" fill-opacity="1" /><path clip-path="url(#clip830)" d="M3029.6 1559.95 L3037.24 1559.95 L3037.24 1533.59 L3028.93 1535.25 L3028.93 1530.99 L3037.19 1529.33 L3041.87 1529.33 L3041.87 1559.95 L3049.51 1559.95 L3049.51 1563.89 L3029.6 1563.89 L3029.6 1559.95 Z" fill="#000000" fill-rule="nonzero" fill-opacity="1" /><path clip-path="url(#clip830)" d="M3068.95 1532.41 Q3065.34 1532.41 3063.51 1535.97 Q3061.71 1539.51 3061.71 1546.64 Q3061.71 1553.75 3063.51 1557.31 Q3065.34 1560.86 3068.95 1560.86 Q3072.59 1560.86 3074.39 1557.31 Q3076.22 1553.75 3076.22 1546.64 Q3076.22 1539.51 3074.39 1535.97 Q3072.59 1532.41 3068.95 1532.41 M3068.95 1528.7 Q3074.76 1528.7 3077.82 1533.31 Q3080.9 1537.89 3080.9 1546.64 Q3080.9 1555.37 3077.82 1559.98 Q3074.76 1564.56 3068.95 1564.56 Q3063.14 1564.56 3060.06 1559.98 Q3057.01 1555.37 3057.01 1546.64 Q3057.01 1537.89 3060.06 1533.31 Q3063.14 1528.7 3068.95 1528.7 Z" fill="#000000" fill-rule="nonzero" fill-opacity="1" /><path clip-path="url(#clip830)" d="M3099.11 1532.41 Q3095.5 1532.41 3093.67 1535.97 Q3091.87 1539.51 3091.87 1546.64 Q3091.87 1553.75 3093.67 1557.31 Q3095.5 1560.86 3099.11 1560.86 Q3102.75 1560.86 3104.55 1557.31 Q3106.38 1553.75 3106.38 1546.64 Q3106.38 1539.51 3104.55 1535.97 Q3102.75 1532.41 3099.11 1532.41 M3099.11 1528.7 Q3104.92 1528.7 3107.98 1533.31 Q3111.06 1537.89 3111.06 1546.64 Q3111.06 1555.37 3107.98 1559.98 Q3104.92 1564.56 3099.11 1564.56 Q3093.3 1564.56 3090.23 1559.98 Q3087.17 1555.37 3087.17 1546.64 Q3087.17 1537.89 3090.23 1533.31 Q3093.3 1528.7 3099.11 1528.7 Z" fill="#000000" fill-rule="nonzero" fill-opacity="1" /><polyline clip-path="url(#clip832)" style="stroke:#000000; stroke-linecap:round; stroke-linejoin:round; stroke-width:2; stroke-opacity:0.1; fill:none" points="228.509,1455.84 3152.76,1455.84 "/>
<polyline clip-path="url(#clip832)" style="stroke:#000000; stroke-linecap:round; stroke-linejoin:round; stroke-width:2; stroke-opacity:0.1; fill:none" points="228.509,1257.62 3152.76,1257.62 "/>
<polyline clip-path="url(#clip832)" style="stroke:#000000; stroke-linecap:round; stroke-linejoin:round; stroke-width:2; stroke-opacity:0.1; fill:none" points="228.509,1059.4 3152.76,1059.4 "/>
<polyline clip-path="url(#clip832)" style="stroke:#000000; stroke-linecap:round; stroke-linejoin:round; stroke-width:2; stroke-opacity:0.1; fill:none" points="228.509,861.186 3152.76,861.186 "/>
<polyline clip-path="url(#clip832)" style="stroke:#000000; stroke-linecap:round; stroke-linejoin:round; stroke-width:2; stroke-opacity:0.1; fill:none" points="228.509,662.967 3152.76,662.967 "/>
<polyline clip-path="url(#clip832)" style="stroke:#000000; stroke-linecap:round; stroke-linejoin:round; stroke-width:2; stroke-opacity:0.1; fill:none" points="228.509,464.749 3152.76,464.749 "/>
<polyline clip-path="url(#clip832)" style="stroke:#000000; stroke-linecap:round; stroke-linejoin:round; stroke-width:2; stroke-opacity:0.1; fill:none" points="228.509,266.53 3152.76,266.53 "/>
<polyline clip-path="url(#clip830)" style="stroke:#000000; stroke-linecap:round; stroke-linejoin:round; stroke-width:4; stroke-opacity:1; fill:none" points="228.509,1495.09 228.509,108.352 "/>
<polyline clip-path="url(#clip830)" style="stroke:#000000; stroke-linecap:round; stroke-linejoin:round; stroke-width:4; stroke-opacity:1; fill:none" points="228.509,1455.84 247.407,1455.84 "/>
<polyline clip-path="url(#clip830)" style="stroke:#000000; stroke-linecap:round; stroke-linejoin:round; stroke-width:4; stroke-opacity:1; fill:none" points="228.509,1257.62 247.407,1257.62 "/>
<polyline clip-path="url(#clip830)" style="stroke:#000000; stroke-linecap:round; stroke-linejoin:round; stroke-width:4; stroke-opacity:1; fill:none" points="228.509,1059.4 247.407,1059.4 "/>
<polyline clip-path="url(#clip830)" style="stroke:#000000; stroke-linecap:round; stroke-linejoin:round; stroke-width:4; stroke-opacity:1; fill:none" points="228.509,861.186 247.407,861.186 "/>
<polyline clip-path="url(#clip830)" style="stroke:#000000; stroke-linecap:round; stroke-linejoin:round; stroke-width:4; stroke-opacity:1; fill:none" points="228.509,662.967 247.407,662.967 "/>
<polyline clip-path="url(#clip830)" style="stroke:#000000; stroke-linecap:round; stroke-linejoin:round; stroke-width:4; stroke-opacity:1; fill:none" points="228.509,464.749 247.407,464.749 "/>
<polyline clip-path="url(#clip830)" style="stroke:#000000; stroke-linecap:round; stroke-linejoin:round; stroke-width:4; stroke-opacity:1; fill:none" points="228.509,266.53 247.407,266.53 "/>
<path clip-path="url(#clip830)" d="M168.565 1441.64 Q164.954 1441.64 163.125 1445.2 Q161.32 1448.75 161.32 1455.88 Q161.32 1462.98 163.125 1466.55 Q164.954 1470.09 168.565 1470.09 Q172.199 1470.09 174.005 1466.55 Q175.833 1462.98 175.833 1455.88 Q175.833 1448.75 174.005 1445.2 Q172.199 1441.64 168.565 1441.64 M168.565 1437.94 Q174.375 1437.94 177.431 1442.54 Q180.509 1447.13 180.509 1455.88 Q180.509 1464.6 177.431 1469.21 Q174.375 1473.79 168.565 1473.79 Q162.755 1473.79 159.676 1469.21 Q156.621 1464.6 156.621 1455.88 Q156.621 1447.13 159.676 1442.54 Q162.755 1437.94 168.565 1437.94 Z" fill="#000000" fill-rule="nonzero" fill-opacity="1" /><path clip-path="url(#clip830)" d="M132.431 1270.97 L148.75 1270.97 L148.75 1274.9 L126.806 1274.9 L126.806 1270.97 Q129.468 1268.21 134.051 1263.58 Q138.658 1258.93 139.838 1257.59 Q142.084 1255.06 142.963 1253.33 Q143.866 1251.57 143.866 1249.88 Q143.866 1247.12 141.922 1245.39 Q140 1243.65 136.898 1243.65 Q134.699 1243.65 132.246 1244.42 Q129.815 1245.18 127.037 1246.73 L127.037 1242.01 Q129.861 1240.87 132.315 1240.3 Q134.769 1239.72 136.806 1239.72 Q142.176 1239.72 145.371 1242.4 Q148.565 1245.09 148.565 1249.58 Q148.565 1251.71 147.755 1253.63 Q146.968 1255.53 144.861 1258.12 Q144.283 1258.79 141.181 1262.01 Q138.079 1265.2 132.431 1270.97 Z" fill="#000000" fill-rule="nonzero" fill-opacity="1" /><path clip-path="url(#clip830)" d="M168.565 1243.42 Q164.954 1243.42 163.125 1246.99 Q161.32 1250.53 161.32 1257.66 Q161.32 1264.76 163.125 1268.33 Q164.954 1271.87 168.565 1271.87 Q172.199 1271.87 174.005 1268.33 Q175.833 1264.76 175.833 1257.66 Q175.833 1250.53 174.005 1246.99 Q172.199 1243.42 168.565 1243.42 M168.565 1239.72 Q174.375 1239.72 177.431 1244.32 Q180.509 1248.91 180.509 1257.66 Q180.509 1266.38 177.431 1270.99 Q174.375 1275.57 168.565 1275.57 Q162.755 1275.57 159.676 1270.99 Q156.621 1266.38 156.621 1257.66 Q156.621 1248.91 159.676 1244.32 Q162.755 1239.72 168.565 1239.72 Z" fill="#000000" fill-rule="nonzero" fill-opacity="1" /><path clip-path="url(#clip830)" d="M141.25 1046.2 L129.445 1064.65 L141.25 1064.65 L141.25 1046.2 M140.023 1042.12 L145.903 1042.12 L145.903 1064.65 L150.834 1064.65 L150.834 1068.54 L145.903 1068.54 L145.903 1076.68 L141.25 1076.68 L141.25 1068.54 L125.649 1068.54 L125.649 1064.02 L140.023 1042.12 Z" fill="#000000" fill-rule="nonzero" fill-opacity="1" /><path clip-path="url(#clip830)" d="M168.565 1045.2 Q164.954 1045.2 163.125 1048.77 Q161.32 1052.31 161.32 1059.44 Q161.32 1066.55 163.125 1070.11 Q164.954 1073.65 168.565 1073.65 Q172.199 1073.65 174.005 1070.11 Q175.833 1066.55 175.833 1059.44 Q175.833 1052.31 174.005 1048.77 Q172.199 1045.2 168.565 1045.2 M168.565 1041.5 Q174.375 1041.5 177.431 1046.11 Q180.509 1050.69 180.509 1059.44 Q180.509 1068.17 177.431 1072.77 Q174.375 1077.36 168.565 1077.36 Q162.755 1077.36 159.676 1072.77 Q156.621 1068.17 156.621 1059.44 Q156.621 1050.69 159.676 1046.11 Q162.755 1041.5 168.565 1041.5 Z" fill="#000000" fill-rule="nonzero" fill-opacity="1" /><path clip-path="url(#clip830)" d="M138.982 859.322 Q135.834 859.322 133.982 861.475 Q132.153 863.628 132.153 867.378 Q132.153 871.104 133.982 873.28 Q135.834 875.433 138.982 875.433 Q142.13 875.433 143.959 873.28 Q145.81 871.104 145.81 867.378 Q145.81 863.628 143.959 861.475 Q142.13 859.322 138.982 859.322 M148.264 844.669 L148.264 848.929 Q146.505 848.095 144.699 847.655 Q142.917 847.216 141.158 847.216 Q136.528 847.216 134.074 850.341 Q131.644 853.466 131.297 859.785 Q132.662 857.771 134.723 856.706 Q136.783 855.618 139.26 855.618 Q144.468 855.618 147.477 858.79 Q150.51 861.938 150.51 867.378 Q150.51 872.702 147.361 875.919 Q144.213 879.137 138.982 879.137 Q132.986 879.137 129.815 874.553 Q126.644 869.947 126.644 861.22 Q126.644 853.026 130.533 848.165 Q134.422 843.281 140.973 843.281 Q142.732 843.281 144.514 843.628 Q146.32 843.975 148.264 844.669 Z" fill="#000000" fill-rule="nonzero" fill-opacity="1" /><path clip-path="url(#clip830)" d="M168.565 846.984 Q164.954 846.984 163.125 850.549 Q161.32 854.091 161.32 861.22 Q161.32 868.327 163.125 871.891 Q164.954 875.433 168.565 875.433 Q172.199 875.433 174.005 871.891 Q175.833 868.327 175.833 861.22 Q175.833 854.091 174.005 850.549 Q172.199 846.984 168.565 846.984 M168.565 843.281 Q174.375 843.281 177.431 847.887 Q180.509 852.47 180.509 861.22 Q180.509 869.947 177.431 874.553 Q174.375 879.137 168.565 879.137 Q162.755 879.137 159.676 874.553 Q156.621 869.947 156.621 861.22 Q156.621 852.47 159.676 847.887 Q162.755 843.281 168.565 843.281 Z" fill="#000000" fill-rule="nonzero" fill-opacity="1" /><path clip-path="url(#clip830)" d="M138.403 663.835 Q135.07 663.835 133.148 665.618 Q131.25 667.4 131.25 670.525 Q131.25 673.65 133.148 675.432 Q135.07 677.215 138.403 677.215 Q141.736 677.215 143.658 675.432 Q145.579 673.627 145.579 670.525 Q145.579 667.4 143.658 665.618 Q141.76 663.835 138.403 663.835 M133.727 661.844 Q130.718 661.104 129.028 659.044 Q127.361 656.983 127.361 654.02 Q127.361 649.877 130.301 647.47 Q133.264 645.062 138.403 645.062 Q143.565 645.062 146.505 647.47 Q149.445 649.877 149.445 654.02 Q149.445 656.983 147.755 659.044 Q146.088 661.104 143.102 661.844 Q146.482 662.631 148.357 664.923 Q150.255 667.215 150.255 670.525 Q150.255 675.548 147.176 678.233 Q144.121 680.918 138.403 680.918 Q132.686 680.918 129.607 678.233 Q126.551 675.548 126.551 670.525 Q126.551 667.215 128.449 664.923 Q130.348 662.631 133.727 661.844 M132.014 654.46 Q132.014 657.145 133.681 658.65 Q135.371 660.155 138.403 660.155 Q141.412 660.155 143.102 658.65 Q144.815 657.145 144.815 654.46 Q144.815 651.775 143.102 650.27 Q141.412 648.766 138.403 648.766 Q135.371 648.766 133.681 650.27 Q132.014 651.775 132.014 654.46 Z" fill="#000000" fill-rule="nonzero" fill-opacity="1" /><path clip-path="url(#clip830)" d="M168.565 648.766 Q164.954 648.766 163.125 652.331 Q161.32 655.872 161.32 663.002 Q161.32 670.108 163.125 673.673 Q164.954 677.215 168.565 677.215 Q172.199 677.215 174.005 673.673 Q175.833 670.108 175.833 663.002 Q175.833 655.872 174.005 652.331 Q172.199 648.766 168.565 648.766 M168.565 645.062 Q174.375 645.062 177.431 649.669 Q180.509 654.252 180.509 663.002 Q180.509 671.729 177.431 676.335 Q174.375 680.918 168.565 680.918 Q162.755 680.918 159.676 676.335 Q156.621 671.729 156.621 663.002 Q156.621 654.252 159.676 649.669 Q162.755 645.062 168.565 645.062 Z" fill="#000000" fill-rule="nonzero" fill-opacity="1" /><path clip-path="url(#clip830)" d="M99.0515 478.094 L106.69 478.094 L106.69 451.728 L98.3802 453.395 L98.3802 449.135 L106.644 447.469 L111.32 447.469 L111.32 478.094 L118.959 478.094 L118.959 482.029 L99.0515 482.029 L99.0515 478.094 Z" fill="#000000" fill-rule="nonzero" fill-opacity="1" /><path clip-path="url(#clip830)" d="M138.403 450.547 Q134.792 450.547 132.963 454.112 Q131.158 457.654 131.158 464.783 Q131.158 471.89 132.963 475.455 Q134.792 478.996 138.403 478.996 Q142.037 478.996 143.843 475.455 Q145.672 471.89 145.672 464.783 Q145.672 457.654 143.843 454.112 Q142.037 450.547 138.403 450.547 M138.403 446.844 Q144.213 446.844 147.269 451.45 Q150.347 456.034 150.347 464.783 Q150.347 473.51 147.269 478.117 Q144.213 482.7 138.403 482.7 Q132.593 482.7 129.514 478.117 Q126.459 473.51 126.459 464.783 Q126.459 456.034 129.514 451.45 Q132.593 446.844 138.403 446.844 Z" fill="#000000" fill-rule="nonzero" fill-opacity="1" /><path clip-path="url(#clip830)" d="M168.565 450.547 Q164.954 450.547 163.125 454.112 Q161.32 457.654 161.32 464.783 Q161.32 471.89 163.125 475.455 Q164.954 478.996 168.565 478.996 Q172.199 478.996 174.005 475.455 Q175.833 471.89 175.833 464.783 Q175.833 457.654 174.005 454.112 Q172.199 450.547 168.565 450.547 M168.565 446.844 Q174.375 446.844 177.431 451.45 Q180.509 456.034 180.509 464.783 Q180.509 473.51 177.431 478.117 Q174.375 482.7 168.565 482.7 Q162.755 482.7 159.676 478.117 Q156.621 473.51 156.621 464.783 Q156.621 456.034 159.676 451.45 Q162.755 446.844 168.565 446.844 Z" fill="#000000" fill-rule="nonzero" fill-opacity="1" /><path clip-path="url(#clip830)" d="M99.0515 279.875 L106.69 279.875 L106.69 253.51 L98.3802 255.176 L98.3802 250.917 L106.644 249.25 L111.32 249.25 L111.32 279.875 L118.959 279.875 L118.959 283.81 L99.0515 283.81 L99.0515 279.875 Z" fill="#000000" fill-rule="nonzero" fill-opacity="1" /><path clip-path="url(#clip830)" d="M132.431 279.875 L148.75 279.875 L148.75 283.81 L126.806 283.81 L126.806 279.875 Q129.468 277.121 134.051 272.491 Q138.658 267.838 139.838 266.496 Q142.084 263.973 142.963 262.236 Q143.866 260.477 143.866 258.787 Q143.866 256.033 141.922 254.297 Q140 252.561 136.898 252.561 Q134.699 252.561 132.246 253.324 Q129.815 254.088 127.037 255.639 L127.037 250.917 Q129.861 249.783 132.315 249.204 Q134.769 248.625 136.806 248.625 Q142.176 248.625 145.371 251.311 Q148.565 253.996 148.565 258.486 Q148.565 260.616 147.755 262.537 Q146.968 264.435 144.861 267.028 Q144.283 267.699 141.181 270.917 Q138.079 274.111 132.431 279.875 Z" fill="#000000" fill-rule="nonzero" fill-opacity="1" /><path clip-path="url(#clip830)" d="M168.565 252.329 Q164.954 252.329 163.125 255.894 Q161.32 259.436 161.32 266.565 Q161.32 273.672 163.125 277.236 Q164.954 280.778 168.565 280.778 Q172.199 280.778 174.005 277.236 Q175.833 273.672 175.833 266.565 Q175.833 259.436 174.005 255.894 Q172.199 252.329 168.565 252.329 M168.565 248.625 Q174.375 248.625 177.431 253.232 Q180.509 257.815 180.509 266.565 Q180.509 275.292 177.431 279.898 Q174.375 284.482 168.565 284.482 Q162.755 284.482 159.676 279.898 Q156.621 275.292 156.621 266.565 Q156.621 257.815 159.676 253.232 Q162.755 248.625 168.565 248.625 Z" fill="#000000" fill-rule="nonzero" fill-opacity="1" /><path clip-path="url(#clip830)" d="M-11.3958 956.057 L-11.3958 949.627 L36.1242 949.627 L36.1242 956.057 L-11.3958 956.057 Z" fill="#000000" fill-rule="nonzero" fill-opacity="1" /><path clip-path="url(#clip830)" d="M14.6081 907.454 L36.1242 907.454 L36.1242 913.311 L14.799 913.311 Q9.7383 913.311 7.22385 915.284 Q4.7094 917.258 4.7094 921.204 Q4.7094 925.947 7.73311 928.684 Q10.7568 931.421 15.9767 931.421 L36.1242 931.421 L36.1242 937.31 L0.4762 937.31 L0.4762 931.421 L6.01437 931.421 Q2.79968 929.321 1.20826 926.488 Q-0.38317 923.623 -0.38317 919.899 Q-0.38317 913.756 3.43625 910.605 Q7.22385 907.454 14.6081 907.454 Z" fill="#000000" fill-rule="nonzero" fill-opacity="1" /><path clip-path="url(#clip830)" d="M-13.401 877.727 L-8.53127 877.727 L-8.53127 883.328 Q-8.53127 886.479 -7.25813 887.721 Q-5.98499 888.93 -2.67482 888.93 L0.4762 888.93 L0.4762 879.286 L5.02768 879.286 L5.02768 888.93 L36.1242 888.93 L36.1242 894.818 L5.02768 894.818 L5.02768 900.42 L0.4762 900.42 L0.4762 894.818 L-2.00643 894.818 Q-7.95836 894.818 -10.6638 892.049 Q-13.401 889.28 -13.401 883.265 L-13.401 877.727 Z" fill="#000000" fill-rule="nonzero" fill-opacity="1" /><path clip-path="url(#clip830)" d="M16.8361 842.333 L19.7006 842.333 L19.7006 869.26 Q25.7481 868.878 28.9309 865.632 Q32.0819 862.353 32.0819 856.529 Q32.0819 853.155 31.2544 850.004 Q30.4269 846.821 28.7718 843.702 L34.3099 843.702 Q35.6467 846.853 36.347 850.163 Q37.0472 853.473 37.0472 856.879 Q37.0472 865.409 32.0819 870.406 Q27.1167 875.371 18.6503 875.371 Q9.89745 875.371 4.77305 870.661 Q-0.38317 865.918 -0.38317 857.897 Q-0.38317 850.704 4.2638 846.535 Q8.87893 842.333 16.8361 842.333 M15.1173 848.19 Q10.3112 848.253 7.44665 850.895 Q4.58208 853.505 4.58208 857.834 Q4.58208 862.735 7.35116 865.695 Q10.1202 868.624 15.1492 869.069 L15.1173 848.19 Z" fill="#000000" fill-rule="nonzero" fill-opacity="1" /><path clip-path="url(#clip830)" d="M1.84483 807.067 L7.31933 807.067 Q5.95071 809.55 5.28231 812.064 Q4.58208 814.547 4.58208 817.093 Q4.58208 822.79 8.21053 825.942 Q11.8072 829.093 18.332 829.093 Q24.8569 829.093 28.4853 825.942 Q32.0819 822.79 32.0819 817.093 Q32.0819 814.547 31.4135 812.064 Q30.7133 809.55 29.3447 807.067 L34.7555 807.067 Q35.9014 809.518 36.4743 812.16 Q37.0472 814.77 37.0472 817.73 Q37.0472 825.782 31.9864 830.525 Q26.9257 835.267 18.332 835.267 Q9.61099 835.267 4.61391 830.493 Q-0.38317 825.687 -0.38317 817.348 Q-0.38317 814.642 0.189744 812.064 Q0.730829 809.486 1.84483 807.067 Z" fill="#000000" fill-rule="nonzero" fill-opacity="1" /><path clip-path="url(#clip830)" d="M-9.64527 791.089 L0.4762 791.089 L0.4762 779.026 L5.02768 779.026 L5.02768 791.089 L24.3794 791.089 Q28.7399 791.089 29.9813 789.912 Q31.2226 788.702 31.2226 785.042 L31.2226 779.026 L36.1242 779.026 L36.1242 785.042 Q36.1242 791.821 33.6097 794.399 Q31.0634 796.978 24.3794 796.978 L5.02768 796.978 L5.02768 801.274 L0.4762 801.274 L0.4762 796.978 L-9.64527 796.978 L-9.64527 791.089 Z" fill="#000000" fill-rule="nonzero" fill-opacity="1" /><path clip-path="url(#clip830)" d="M0.4762 771.324 L0.4762 765.467 L36.1242 765.467 L36.1242 771.324 L0.4762 771.324 M-13.401 771.324 L-13.401 765.467 L-5.98499 765.467 L-5.98499 771.324 L-13.401 771.324 Z" fill="#000000" fill-rule="nonzero" fill-opacity="1" /><path clip-path="url(#clip830)" d="M4.58208 739.4 Q4.58208 744.11 8.27419 746.848 Q11.9345 749.585 18.332 749.585 Q24.7295 749.585 28.4217 746.879 Q32.0819 744.142 32.0819 739.4 Q32.0819 734.721 28.3898 731.984 Q24.6977 729.246 18.332 729.246 Q11.9981 729.246 8.30602 731.984 Q4.58208 734.721 4.58208 739.4 M-0.38317 739.4 Q-0.38317 731.761 4.58208 727.4 Q9.54733 723.04 18.332 723.04 Q27.0849 723.04 32.0819 727.4 Q37.0472 731.761 37.0472 739.4 Q37.0472 747.07 32.0819 751.431 Q27.0849 755.76 18.332 755.76 Q9.54733 755.76 4.58208 751.431 Q-0.38317 747.07 -0.38317 739.4 Z" fill="#000000" fill-rule="nonzero" fill-opacity="1" /><path clip-path="url(#clip830)" d="M14.6081 683.7 L36.1242 683.7 L36.1242 689.556 L14.799 689.556 Q9.7383 689.556 7.22385 691.53 Q4.7094 693.503 4.7094 697.45 Q4.7094 702.192 7.73311 704.929 Q10.7568 707.667 15.9767 707.667 L36.1242 707.667 L36.1242 713.555 L0.4762 713.555 L0.4762 707.667 L6.01437 707.667 Q2.79968 705.566 1.20826 702.733 Q-0.38317 699.869 -0.38317 696.145 Q-0.38317 690.002 3.43625 686.851 Q7.22385 683.7 14.6081 683.7 Z" fill="#000000" fill-rule="nonzero" fill-opacity="1" /><path clip-path="url(#clip830)" d="M1.52654 649.293 L7.06471 649.293 Q5.79157 651.776 5.15499 654.449 Q4.51842 657.123 4.51842 659.988 Q4.51842 664.348 5.85522 666.544 Q7.19202 668.709 9.86562 668.709 Q11.9026 668.709 13.0803 667.149 Q14.2261 665.589 15.2765 660.879 L15.7221 658.874 Q17.0589 652.635 19.5097 650.025 Q21.9286 647.383 26.2891 647.383 Q31.2544 647.383 34.1508 651.33 Q37.0472 655.245 37.0472 662.12 Q37.0472 664.985 36.4743 668.104 Q35.9332 671.191 34.8192 674.629 L28.7718 674.629 Q30.4587 671.382 31.318 668.231 Q32.1456 665.08 32.1456 661.993 Q32.1456 657.855 30.7451 655.627 Q29.3129 653.399 26.7347 653.399 Q24.3476 653.399 23.0745 655.022 Q21.8013 656.614 20.6237 662.056 L20.1462 664.093 Q19.0004 669.536 16.6451 671.955 Q14.258 674.374 10.1202 674.374 Q5.09134 674.374 2.35408 670.809 Q-0.38317 667.244 -0.38317 660.688 Q-0.38317 657.441 0.0942579 654.577 Q0.571686 651.712 1.52654 649.293 Z" fill="#000000" fill-rule="nonzero" fill-opacity="1" /><path clip-path="url(#clip830)" d="M715.62 43.6931 L715.62 65.8515 L728.745 65.8515 Q735.348 65.8515 738.508 63.1374 Q741.708 60.3828 741.708 54.752 Q741.708 49.0808 738.508 46.4072 Q735.348 43.6931 728.745 43.6931 L715.62 43.6931 M715.62 18.8205 L715.62 37.0496 L727.733 37.0496 Q733.728 37.0496 736.645 34.8216 Q739.602 32.5531 739.602 27.935 Q739.602 23.3575 736.645 21.089 Q733.728 18.8205 727.733 18.8205 L715.62 18.8205 M707.438 12.096 L728.34 12.096 Q737.698 12.096 742.762 15.9849 Q747.825 19.8737 747.825 27.0438 Q747.825 32.5936 745.233 35.8748 Q742.64 39.156 737.617 39.9662 Q743.653 41.2625 746.974 45.3944 Q750.337 49.4858 750.337 55.6432 Q750.337 63.745 744.828 68.1605 Q739.318 72.576 729.151 72.576 L707.438 72.576 L707.438 12.096 Z" fill="#000000" fill-rule="nonzero" fill-opacity="1" /><path clip-path="url(#clip830)" d="M764.029 27.2059 L771.482 27.2059 L771.482 72.576 L764.029 72.576 L764.029 27.2059 M764.029 9.54393 L771.482 9.54393 L771.482 18.9825 L764.029 18.9825 L764.029 9.54393 Z" fill="#000000" fill-rule="nonzero" fill-opacity="1" /><path clip-path="url(#clip830)" d="M824.792 45.1919 L824.792 72.576 L817.339 72.576 L817.339 45.4349 Q817.339 38.994 814.827 35.7938 Q812.316 32.5936 807.292 32.5936 Q801.257 32.5936 797.773 36.4419 Q794.289 40.2903 794.289 46.9338 L794.289 72.576 L786.795 72.576 L786.795 27.2059 L794.289 27.2059 L794.289 34.2544 Q796.963 30.163 800.568 28.1376 Q804.214 26.1121 808.953 26.1121 Q816.772 26.1121 820.782 30.9732 Q824.792 35.7938 824.792 45.1919 Z" fill="#000000" fill-rule="nonzero" fill-opacity="1" /><path clip-path="url(#clip830)" d="M857.24 32.4315 Q851.245 32.4315 847.761 37.1306 Q844.277 41.7891 844.277 49.9314 Q844.277 58.0738 847.72 62.7728 Q851.204 67.4314 857.24 67.4314 Q863.195 67.4314 866.679 62.7323 Q870.162 58.0333 870.162 49.9314 Q870.162 41.8701 866.679 37.1711 Q863.195 32.4315 857.24 32.4315 M857.24 26.1121 Q866.962 26.1121 872.512 32.4315 Q878.062 38.7509 878.062 49.9314 Q878.062 61.0714 872.512 67.4314 Q866.962 73.7508 857.24 73.7508 Q847.477 73.7508 841.928 67.4314 Q836.418 61.0714 836.418 49.9314 Q836.418 38.7509 841.928 32.4315 Q847.477 26.1121 857.24 26.1121 Z" fill="#000000" fill-rule="nonzero" fill-opacity="1" /><path clip-path="url(#clip830)" d="M925.741 35.9153 Q928.536 30.8922 932.425 28.5022 Q936.314 26.1121 941.58 26.1121 Q948.669 26.1121 952.517 31.0947 Q956.366 36.0368 956.366 45.1919 L956.366 72.576 L948.872 72.576 L948.872 45.4349 Q948.872 38.913 946.563 35.7533 Q944.254 32.5936 939.514 32.5936 Q933.721 32.5936 930.359 36.4419 Q926.997 40.2903 926.997 46.9338 L926.997 72.576 L919.502 72.576 L919.502 45.4349 Q919.502 38.8725 917.193 35.7533 Q914.884 32.5936 910.064 32.5936 Q904.352 32.5936 900.99 36.4824 Q897.628 40.3308 897.628 46.9338 L897.628 72.576 L890.133 72.576 L890.133 27.2059 L897.628 27.2059 L897.628 34.2544 Q900.18 30.082 903.744 28.0971 Q907.309 26.1121 912.211 26.1121 Q917.153 26.1121 920.596 28.6237 Q924.08 31.1352 925.741 35.9153 Z" fill="#000000" fill-rule="nonzero" fill-opacity="1" /><path clip-path="url(#clip830)" d="M971.233 27.2059 L978.686 27.2059 L978.686 72.576 L971.233 72.576 L971.233 27.2059 M971.233 9.54393 L978.686 9.54393 L978.686 18.9825 L971.233 18.9825 L971.233 9.54393 Z" fill="#000000" fill-rule="nonzero" fill-opacity="1" /><path clip-path="url(#clip830)" d="M1014.9 49.7694 Q1005.87 49.7694 1002.38 51.8354 Q998.9 53.9013 998.9 58.8839 Q998.9 62.8538 1001.49 65.2034 Q1004.13 67.5124 1008.62 67.5124 Q1014.82 67.5124 1018.55 63.1374 Q1022.31 58.7219 1022.31 51.4303 L1022.31 49.7694 L1014.9 49.7694 M1029.77 46.6907 L1029.77 72.576 L1022.31 72.576 L1022.31 65.6895 Q1019.76 69.8214 1015.95 71.8063 Q1012.15 73.7508 1006.64 73.7508 Q999.67 73.7508 995.538 69.8619 Q991.447 65.9325 991.447 59.3701 Q991.447 51.7138 996.551 47.825 Q1001.7 43.9361 1011.86 43.9361 L1022.31 43.9361 L1022.31 43.2069 Q1022.31 38.0623 1018.91 35.2672 Q1015.55 32.4315 1009.43 32.4315 Q1005.54 32.4315 1001.86 33.3632 Q998.171 34.295 994.768 36.1584 L994.768 29.2718 Q998.86 27.692 1002.71 26.9223 Q1006.56 26.1121 1010.2 26.1121 Q1020.05 26.1121 1024.91 31.2163 Q1029.77 36.3204 1029.77 46.6907 Z" fill="#000000" fill-rule="nonzero" fill-opacity="1" /><path clip-path="url(#clip830)" d="M1045.12 9.54393 L1052.57 9.54393 L1052.57 72.576 L1045.12 72.576 L1045.12 9.54393 Z" fill="#000000" fill-rule="nonzero" fill-opacity="1" /><path clip-path="url(#clip830)" d="M1120.83 34.1734 Q1119.58 33.4443 1118.08 33.1202 Q1116.62 32.7556 1114.84 32.7556 Q1108.52 32.7556 1105.11 36.8875 Q1101.75 40.9789 1101.75 48.6757 L1101.75 72.576 L1094.26 72.576 L1094.26 27.2059 L1101.75 27.2059 L1101.75 34.2544 Q1104.1 30.1225 1107.87 28.1376 Q1111.64 26.1121 1117.02 26.1121 Q1117.79 26.1121 1118.73 26.2337 Q1119.66 26.3147 1120.79 26.5172 L1120.83 34.1734 Z" fill="#000000" fill-rule="nonzero" fill-opacity="1" /><path clip-path="url(#clip830)" d="M1165.64 48.0275 L1165.64 51.6733 L1131.36 51.6733 Q1131.85 59.3701 1135.98 63.421 Q1140.16 67.4314 1147.57 67.4314 Q1151.86 67.4314 1155.87 66.3781 Q1159.92 65.3249 1163.89 63.2184 L1163.89 70.267 Q1159.88 71.9684 1155.67 72.8596 Q1151.46 73.7508 1147.12 73.7508 Q1136.27 73.7508 1129.91 67.4314 Q1123.59 61.1119 1123.59 50.3365 Q1123.59 39.1965 1129.58 32.6746 Q1135.62 26.1121 1145.83 26.1121 Q1154.98 26.1121 1160.29 32.0264 Q1165.64 37.9003 1165.64 48.0275 M1158.18 45.84 Q1158.1 39.7232 1154.74 36.0774 Q1151.42 32.4315 1145.91 32.4315 Q1139.67 32.4315 1135.9 35.9558 Q1132.17 39.4801 1131.61 45.8805 L1158.18 45.84 Z" fill="#000000" fill-rule="nonzero" fill-opacity="1" /><path clip-path="url(#clip830)" d="M1185.08 65.7705 L1185.08 89.8329 L1177.59 89.8329 L1177.59 27.2059 L1185.08 27.2059 L1185.08 34.0924 Q1187.43 30.0415 1190.99 28.0971 Q1194.6 26.1121 1199.58 26.1121 Q1207.85 26.1121 1212.99 32.6746 Q1218.18 39.2371 1218.18 49.9314 Q1218.18 60.6258 1212.99 67.1883 Q1207.85 73.7508 1199.58 73.7508 Q1194.6 73.7508 1190.99 71.8063 Q1187.43 69.8214 1185.08 65.7705 M1210.44 49.9314 Q1210.44 41.7081 1207.04 37.0496 Q1203.67 32.3505 1197.76 32.3505 Q1191.84 32.3505 1188.44 37.0496 Q1185.08 41.7081 1185.08 49.9314 Q1185.08 58.1548 1188.44 62.8538 Q1191.84 67.5124 1197.76 67.5124 Q1203.67 67.5124 1207.04 62.8538 Q1210.44 58.1548 1210.44 49.9314 Z" fill="#000000" fill-rule="nonzero" fill-opacity="1" /><path clip-path="url(#clip830)" d="M1248.11 32.4315 Q1242.12 32.4315 1238.63 37.1306 Q1235.15 41.7891 1235.15 49.9314 Q1235.15 58.0738 1238.59 62.7728 Q1242.08 67.4314 1248.11 67.4314 Q1254.07 67.4314 1257.55 62.7323 Q1261.03 58.0333 1261.03 49.9314 Q1261.03 41.8701 1257.55 37.1711 Q1254.07 32.4315 1248.11 32.4315 M1248.11 26.1121 Q1257.83 26.1121 1263.38 32.4315 Q1268.93 38.7509 1268.93 49.9314 Q1268.93 61.0714 1263.38 67.4314 Q1257.83 73.7508 1248.11 73.7508 Q1238.35 73.7508 1232.8 67.4314 Q1227.29 61.0714 1227.29 49.9314 Q1227.29 38.7509 1232.8 32.4315 Q1238.35 26.1121 1248.11 26.1121 Z" fill="#000000" fill-rule="nonzero" fill-opacity="1" /><path clip-path="url(#clip830)" d="M1307.58 34.1734 Q1306.32 33.4443 1304.82 33.1202 Q1303.37 32.7556 1301.58 32.7556 Q1295.26 32.7556 1291.86 36.8875 Q1288.5 40.9789 1288.5 48.6757 L1288.5 72.576 L1281.01 72.576 L1281.01 27.2059 L1288.5 27.2059 L1288.5 34.2544 Q1290.85 30.1225 1294.62 28.1376 Q1298.38 26.1121 1303.77 26.1121 Q1304.54 26.1121 1305.47 26.2337 Q1306.4 26.3147 1307.54 26.5172 L1307.58 34.1734 Z" fill="#000000" fill-rule="nonzero" fill-opacity="1" /><path clip-path="url(#clip830)" d="M1322.77 14.324 L1322.77 27.2059 L1338.12 27.2059 L1338.12 32.9987 L1322.77 32.9987 L1322.77 57.6282 Q1322.77 63.1779 1324.27 64.7578 Q1325.81 66.3376 1330.47 66.3376 L1338.12 66.3376 L1338.12 72.576 L1330.47 72.576 Q1321.84 72.576 1318.56 69.3758 Q1315.28 66.1351 1315.28 57.6282 L1315.28 32.9987 L1309.81 32.9987 L1309.81 27.2059 L1315.28 27.2059 L1315.28 14.324 L1322.77 14.324 Z" fill="#000000" fill-rule="nonzero" fill-opacity="1" /><path clip-path="url(#clip830)" d="M1347.93 27.2059 L1355.38 27.2059 L1355.38 72.576 L1347.93 72.576 L1347.93 27.2059 M1347.93 9.54393 L1355.38 9.54393 L1355.38 18.9825 L1347.93 18.9825 L1347.93 9.54393 Z" fill="#000000" fill-rule="nonzero" fill-opacity="1" /><path clip-path="url(#clip830)" d="M1408.69 45.1919 L1408.69 72.576 L1401.24 72.576 L1401.24 45.4349 Q1401.24 38.994 1398.72 35.7938 Q1396.21 32.5936 1391.19 32.5936 Q1385.15 32.5936 1381.67 36.4419 Q1378.19 40.2903 1378.19 46.9338 L1378.19 72.576 L1370.69 72.576 L1370.69 27.2059 L1378.19 27.2059 L1378.19 34.2544 Q1380.86 30.163 1384.47 28.1376 Q1388.11 26.1121 1392.85 26.1121 Q1400.67 26.1121 1404.68 30.9732 Q1408.69 35.7938 1408.69 45.1919 Z" fill="#000000" fill-rule="nonzero" fill-opacity="1" /><path clip-path="url(#clip830)" d="M1453.41 49.3643 Q1453.41 41.2625 1450.05 36.8065 Q1446.73 32.3505 1440.69 32.3505 Q1434.7 32.3505 1431.33 36.8065 Q1428.01 41.2625 1428.01 49.3643 Q1428.01 57.4256 1431.33 61.8816 Q1434.7 66.3376 1440.69 66.3376 Q1446.73 66.3376 1450.05 61.8816 Q1453.41 57.4256 1453.41 49.3643 M1460.87 66.9452 Q1460.87 78.5308 1455.72 84.1616 Q1450.58 89.8329 1439.96 89.8329 Q1436.03 89.8329 1432.55 89.2252 Q1429.07 88.6581 1425.78 87.4428 L1425.78 80.1917 Q1429.07 81.9741 1432.27 82.8248 Q1435.47 83.6755 1438.79 83.6755 Q1446.12 83.6755 1449.77 79.8271 Q1453.41 76.0193 1453.41 68.282 L1453.41 64.5957 Q1451.1 68.6061 1447.5 70.5911 Q1443.89 72.576 1438.87 72.576 Q1430.52 72.576 1425.42 66.2161 Q1420.32 59.8562 1420.32 49.3643 Q1420.32 38.832 1425.42 32.472 Q1430.52 26.1121 1438.87 26.1121 Q1443.89 26.1121 1447.5 28.0971 Q1451.1 30.082 1453.41 34.0924 L1453.41 27.2059 L1460.87 27.2059 L1460.87 66.9452 Z" fill="#000000" fill-rule="nonzero" fill-opacity="1" /><path clip-path="url(#clip830)" d="M1523.21 49.7694 Q1514.18 49.7694 1510.69 51.8354 Q1507.21 53.9013 1507.21 58.8839 Q1507.21 62.8538 1509.8 65.2034 Q1512.43 67.5124 1516.93 67.5124 Q1523.13 67.5124 1526.85 63.1374 Q1530.62 58.7219 1530.62 51.4303 L1530.62 49.7694 L1523.21 49.7694 M1538.08 46.6907 L1538.08 72.576 L1530.62 72.576 L1530.62 65.6895 Q1528.07 69.8214 1524.26 71.8063 Q1520.45 73.7508 1514.94 73.7508 Q1507.98 73.7508 1503.85 69.8619 Q1499.75 65.9325 1499.75 59.3701 Q1499.75 51.7138 1504.86 47.825 Q1510 43.9361 1520.17 43.9361 L1530.62 43.9361 L1530.62 43.2069 Q1530.62 38.0623 1527.22 35.2672 Q1523.86 32.4315 1517.74 32.4315 Q1513.85 32.4315 1510.16 33.3632 Q1506.48 34.295 1503.08 36.1584 L1503.08 29.2718 Q1507.17 27.692 1511.02 26.9223 Q1514.86 26.1121 1518.51 26.1121 Q1528.35 26.1121 1533.21 31.2163 Q1538.08 36.3204 1538.08 46.6907 Z" fill="#000000" fill-rule="nonzero" fill-opacity="1" /><path clip-path="url(#clip830)" d="M1591.14 45.1919 L1591.14 72.576 L1583.69 72.576 L1583.69 45.4349 Q1583.69 38.994 1581.18 35.7938 Q1578.67 32.5936 1573.64 32.5936 Q1567.61 32.5936 1564.12 36.4419 Q1560.64 40.2903 1560.64 46.9338 L1560.64 72.576 L1553.14 72.576 L1553.14 27.2059 L1560.64 27.2059 L1560.64 34.2544 Q1563.31 30.163 1566.92 28.1376 Q1570.56 26.1121 1575.3 26.1121 Q1583.12 26.1121 1587.13 30.9732 Q1591.14 35.7938 1591.14 45.1919 Z" fill="#000000" fill-rule="nonzero" fill-opacity="1" /><path clip-path="url(#clip830)" d="M1635.86 34.0924 L1635.86 9.54393 L1643.32 9.54393 L1643.32 72.576 L1635.86 72.576 L1635.86 65.7705 Q1633.51 69.8214 1629.91 71.8063 Q1626.34 73.7508 1621.32 73.7508 Q1613.1 73.7508 1607.91 67.1883 Q1602.77 60.6258 1602.77 49.9314 Q1602.77 39.2371 1607.91 32.6746 Q1613.1 26.1121 1621.32 26.1121 Q1626.34 26.1121 1629.91 28.0971 Q1633.51 30.0415 1635.86 34.0924 M1610.47 49.9314 Q1610.47 58.1548 1613.83 62.8538 Q1617.23 67.5124 1623.14 67.5124 Q1629.06 67.5124 1632.46 62.8538 Q1635.86 58.1548 1635.86 49.9314 Q1635.86 41.7081 1632.46 37.0496 Q1629.06 32.3505 1623.14 32.3505 Q1617.23 32.3505 1613.83 37.0496 Q1610.47 41.7081 1610.47 49.9314 Z" fill="#000000" fill-rule="nonzero" fill-opacity="1" /><path clip-path="url(#clip830)" d="M1722.76 45.1919 L1722.76 72.576 L1715.3 72.576 L1715.3 45.4349 Q1715.3 38.994 1712.79 35.7938 Q1710.28 32.5936 1705.26 32.5936 Q1699.22 32.5936 1695.74 36.4419 Q1692.25 40.2903 1692.25 46.9338 L1692.25 72.576 L1684.76 72.576 L1684.76 27.2059 L1692.25 27.2059 L1692.25 34.2544 Q1694.93 30.163 1698.53 28.1376 Q1702.18 26.1121 1706.92 26.1121 Q1714.74 26.1121 1718.75 30.9732 Q1722.76 35.7938 1722.76 45.1919 Z" fill="#000000" fill-rule="nonzero" fill-opacity="1" /><path clip-path="url(#clip830)" d="M1776.43 48.0275 L1776.43 51.6733 L1742.16 51.6733 Q1742.65 59.3701 1746.78 63.421 Q1750.95 67.4314 1758.36 67.4314 Q1762.66 67.4314 1766.67 66.3781 Q1770.72 65.3249 1774.69 63.2184 L1774.69 70.267 Q1770.68 71.9684 1766.47 72.8596 Q1762.25 73.7508 1757.92 73.7508 Q1747.06 73.7508 1740.7 67.4314 Q1734.38 61.1119 1734.38 50.3365 Q1734.38 39.1965 1740.38 32.6746 Q1746.41 26.1121 1756.62 26.1121 Q1765.78 26.1121 1771.08 32.0264 Q1776.43 37.9003 1776.43 48.0275 M1768.98 45.84 Q1768.9 39.7232 1765.53 36.0774 Q1762.21 32.4315 1756.7 32.4315 Q1750.46 32.4315 1746.7 35.9558 Q1742.97 39.4801 1742.4 45.8805 L1768.98 45.84 Z" fill="#000000" fill-rule="nonzero" fill-opacity="1" /><path clip-path="url(#clip830)" d="M1818.52 49.3643 Q1818.52 41.2625 1815.16 36.8065 Q1811.84 32.3505 1805.8 32.3505 Q1799.8 32.3505 1796.44 36.8065 Q1793.12 41.2625 1793.12 49.3643 Q1793.12 57.4256 1796.44 61.8816 Q1799.8 66.3376 1805.8 66.3376 Q1811.84 66.3376 1815.16 61.8816 Q1818.52 57.4256 1818.52 49.3643 M1825.97 66.9452 Q1825.97 78.5308 1820.83 84.1616 Q1815.68 89.8329 1805.07 89.8329 Q1801.14 89.8329 1797.66 89.2252 Q1794.17 88.6581 1790.89 87.4428 L1790.89 80.1917 Q1794.17 81.9741 1797.37 82.8248 Q1800.57 83.6755 1803.9 83.6755 Q1811.23 83.6755 1814.87 79.8271 Q1818.52 76.0193 1818.52 68.282 L1818.52 64.5957 Q1816.21 68.6061 1812.61 70.5911 Q1809 72.576 1803.98 72.576 Q1795.63 72.576 1790.53 66.2161 Q1785.42 59.8562 1785.42 49.3643 Q1785.42 38.832 1790.53 32.472 Q1795.63 26.1121 1803.98 26.1121 Q1809 26.1121 1812.61 28.0971 Q1816.21 30.082 1818.52 34.0924 L1818.52 27.2059 L1825.97 27.2059 L1825.97 66.9452 Z" fill="#000000" fill-rule="nonzero" fill-opacity="1" /><path clip-path="url(#clip830)" d="M1861.95 49.7694 Q1852.91 49.7694 1849.43 51.8354 Q1845.94 53.9013 1845.94 58.8839 Q1845.94 62.8538 1848.54 65.2034 Q1851.17 67.5124 1855.67 67.5124 Q1861.86 67.5124 1865.59 63.1374 Q1869.36 58.7219 1869.36 51.4303 L1869.36 49.7694 L1861.95 49.7694 M1876.81 46.6907 L1876.81 72.576 L1869.36 72.576 L1869.36 65.6895 Q1866.81 69.8214 1863 71.8063 Q1859.19 73.7508 1853.68 73.7508 Q1846.71 73.7508 1842.58 69.8619 Q1838.49 65.9325 1838.49 59.3701 Q1838.49 51.7138 1843.59 47.825 Q1848.74 43.9361 1858.91 43.9361 L1869.36 43.9361 L1869.36 43.2069 Q1869.36 38.0623 1865.96 35.2672 Q1862.59 32.4315 1856.48 32.4315 Q1852.59 32.4315 1848.9 33.3632 Q1845.22 34.295 1841.81 36.1584 L1841.81 29.2718 Q1845.9 27.692 1849.75 26.9223 Q1853.6 26.1121 1857.25 26.1121 Q1867.09 26.1121 1871.95 31.2163 Q1876.81 36.3204 1876.81 46.6907 Z" fill="#000000" fill-rule="nonzero" fill-opacity="1" /><path clip-path="url(#clip830)" d="M1899.54 14.324 L1899.54 27.2059 L1914.89 27.2059 L1914.89 32.9987 L1899.54 32.9987 L1899.54 57.6282 Q1899.54 63.1779 1901.04 64.7578 Q1902.58 66.3376 1907.23 66.3376 L1914.89 66.3376 L1914.89 72.576 L1907.23 72.576 Q1898.61 72.576 1895.32 69.3758 Q1892.04 66.1351 1892.04 57.6282 L1892.04 32.9987 L1886.57 32.9987 L1886.57 27.2059 L1892.04 27.2059 L1892.04 14.324 L1899.54 14.324 Z" fill="#000000" fill-rule="nonzero" fill-opacity="1" /><path clip-path="url(#clip830)" d="M1924.69 27.2059 L1932.15 27.2059 L1932.15 72.576 L1924.69 72.576 L1924.69 27.2059 M1924.69 9.54393 L1932.15 9.54393 L1932.15 18.9825 L1924.69 18.9825 L1924.69 9.54393 Z" fill="#000000" fill-rule="nonzero" fill-opacity="1" /><path clip-path="url(#clip830)" d="M1942.4 27.2059 L1950.3 27.2059 L1964.47 65.2844 L1978.65 27.2059 L1986.55 27.2059 L1969.54 72.576 L1959.41 72.576 L1942.4 27.2059 Z" fill="#000000" fill-rule="nonzero" fill-opacity="1" /><path clip-path="url(#clip830)" d="M2035.65 48.0275 L2035.65 51.6733 L2001.38 51.6733 Q2001.86 59.3701 2006 63.421 Q2010.17 67.4314 2017.58 67.4314 Q2021.88 67.4314 2025.89 66.3781 Q2029.94 65.3249 2033.91 63.2184 L2033.91 70.267 Q2029.9 71.9684 2025.68 72.8596 Q2021.47 73.7508 2017.14 73.7508 Q2006.28 73.7508 1999.92 67.4314 Q1993.6 61.1119 1993.6 50.3365 Q1993.6 39.1965 1999.6 32.6746 Q2005.63 26.1121 2015.84 26.1121 Q2024.99 26.1121 2030.3 32.0264 Q2035.65 37.9003 2035.65 48.0275 M2028.19 45.84 Q2028.11 39.7232 2024.75 36.0774 Q2021.43 32.4315 2015.92 32.4315 Q2009.68 32.4315 2005.91 35.9558 Q2002.19 39.4801 2001.62 45.8805 L2028.19 45.84 Z" fill="#000000" fill-rule="nonzero" fill-opacity="1" /><path clip-path="url(#clip830)" d="M2106.82 49.9314 Q2106.82 41.7081 2103.42 37.0496 Q2100.06 32.3505 2094.14 32.3505 Q2088.23 32.3505 2084.83 37.0496 Q2081.46 41.7081 2081.46 49.9314 Q2081.46 58.1548 2084.83 62.8538 Q2088.23 67.5124 2094.14 67.5124 Q2100.06 67.5124 2103.42 62.8538 Q2106.82 58.1548 2106.82 49.9314 M2081.46 34.0924 Q2083.81 30.0415 2087.38 28.0971 Q2090.98 26.1121 2095.97 26.1121 Q2104.23 26.1121 2109.37 32.6746 Q2114.56 39.2371 2114.56 49.9314 Q2114.56 60.6258 2109.37 67.1883 Q2104.23 73.7508 2095.97 73.7508 Q2090.98 73.7508 2087.38 71.8063 Q2083.81 69.8214 2081.46 65.7705 L2081.46 72.576 L2073.97 72.576 L2073.97 9.54393 L2081.46 9.54393 L2081.46 34.0924 Z" fill="#000000" fill-rule="nonzero" fill-opacity="1" /><path clip-path="url(#clip830)" d="M2126.92 27.2059 L2134.37 27.2059 L2134.37 72.576 L2126.92 72.576 L2126.92 27.2059 M2126.92 9.54393 L2134.37 9.54393 L2134.37 18.9825 L2126.92 18.9825 L2126.92 9.54393 Z" fill="#000000" fill-rule="nonzero" fill-opacity="1" /><path clip-path="url(#clip830)" d="M2187.68 45.1919 L2187.68 72.576 L2180.22 72.576 L2180.22 45.4349 Q2180.22 38.994 2177.71 35.7938 Q2175.2 32.5936 2170.18 32.5936 Q2164.14 32.5936 2160.66 36.4419 Q2157.18 40.2903 2157.18 46.9338 L2157.18 72.576 L2149.68 72.576 L2149.68 27.2059 L2157.18 27.2059 L2157.18 34.2544 Q2159.85 30.163 2163.45 28.1376 Q2167.1 26.1121 2171.84 26.1121 Q2179.66 26.1121 2183.67 30.9732 Q2187.68 35.7938 2187.68 45.1919 Z" fill="#000000" fill-rule="nonzero" fill-opacity="1" /><path clip-path="url(#clip830)" d="M2220.13 32.4315 Q2214.13 32.4315 2210.65 37.1306 Q2207.16 41.7891 2207.16 49.9314 Q2207.16 58.0738 2210.61 62.7728 Q2214.09 67.4314 2220.13 67.4314 Q2226.08 67.4314 2229.56 62.7323 Q2233.05 58.0333 2233.05 49.9314 Q2233.05 41.8701 2229.56 37.1711 Q2226.08 32.4315 2220.13 32.4315 M2220.13 26.1121 Q2229.85 26.1121 2235.4 32.4315 Q2240.95 38.7509 2240.95 49.9314 Q2240.95 61.0714 2235.4 67.4314 Q2229.85 73.7508 2220.13 73.7508 Q2210.36 73.7508 2204.81 67.4314 Q2199.3 61.0714 2199.3 49.9314 Q2199.3 38.7509 2204.81 32.4315 Q2210.36 26.1121 2220.13 26.1121 Z" fill="#000000" fill-rule="nonzero" fill-opacity="1" /><path clip-path="url(#clip830)" d="M2288.63 35.9153 Q2291.42 30.8922 2295.31 28.5022 Q2299.2 26.1121 2304.47 26.1121 Q2311.56 26.1121 2315.4 31.0947 Q2319.25 36.0368 2319.25 45.1919 L2319.25 72.576 L2311.76 72.576 L2311.76 45.4349 Q2311.76 38.913 2309.45 35.7533 Q2307.14 32.5936 2302.4 32.5936 Q2296.61 32.5936 2293.25 36.4419 Q2289.88 40.2903 2289.88 46.9338 L2289.88 72.576 L2282.39 72.576 L2282.39 45.4349 Q2282.39 38.8725 2280.08 35.7533 Q2277.77 32.5936 2272.95 32.5936 Q2267.24 32.5936 2263.88 36.4824 Q2260.51 40.3308 2260.51 46.9338 L2260.51 72.576 L2253.02 72.576 L2253.02 27.2059 L2260.51 27.2059 L2260.51 34.2544 Q2263.07 30.082 2266.63 28.0971 Q2270.2 26.1121 2275.1 26.1121 Q2280.04 26.1121 2283.48 28.6237 Q2286.97 31.1352 2288.63 35.9153 Z" fill="#000000" fill-rule="nonzero" fill-opacity="1" /><path clip-path="url(#clip830)" d="M2334.12 27.2059 L2341.57 27.2059 L2341.57 72.576 L2334.12 72.576 L2334.12 27.2059 M2334.12 9.54393 L2341.57 9.54393 L2341.57 18.9825 L2334.12 18.9825 L2334.12 9.54393 Z" fill="#000000" fill-rule="nonzero" fill-opacity="1" /><path clip-path="url(#clip830)" d="M2377.79 49.7694 Q2368.75 49.7694 2365.27 51.8354 Q2361.79 53.9013 2361.79 58.8839 Q2361.79 62.8538 2364.38 65.2034 Q2367.01 67.5124 2371.51 67.5124 Q2377.71 67.5124 2381.43 63.1374 Q2385.2 58.7219 2385.2 51.4303 L2385.2 49.7694 L2377.79 49.7694 M2392.65 46.6907 L2392.65 72.576 L2385.2 72.576 L2385.2 65.6895 Q2382.65 69.8214 2378.84 71.8063 Q2375.03 73.7508 2369.52 73.7508 Q2362.56 73.7508 2358.42 69.8619 Q2354.33 65.9325 2354.33 59.3701 Q2354.33 51.7138 2359.44 47.825 Q2364.58 43.9361 2374.75 43.9361 L2385.2 43.9361 L2385.2 43.2069 Q2385.2 38.0623 2381.8 35.2672 Q2378.44 32.4315 2372.32 32.4315 Q2368.43 32.4315 2364.74 33.3632 Q2361.06 34.295 2357.65 36.1584 L2357.65 29.2718 Q2361.75 27.692 2365.59 26.9223 Q2369.44 26.1121 2373.09 26.1121 Q2382.93 26.1121 2387.79 31.2163 Q2392.65 36.3204 2392.65 46.6907 Z" fill="#000000" fill-rule="nonzero" fill-opacity="1" /><path clip-path="url(#clip830)" d="M2408.01 9.54393 L2415.46 9.54393 L2415.46 72.576 L2408.01 72.576 L2408.01 9.54393 Z" fill="#000000" fill-rule="nonzero" fill-opacity="1" /><path clip-path="url(#clip830)" d="M2487.28 34.0924 L2487.28 9.54393 L2494.74 9.54393 L2494.74 72.576 L2487.28 72.576 L2487.28 65.7705 Q2484.93 69.8214 2481.33 71.8063 Q2477.76 73.7508 2472.74 73.7508 Q2464.52 73.7508 2459.33 67.1883 Q2454.19 60.6258 2454.19 49.9314 Q2454.19 39.2371 2459.33 32.6746 Q2464.52 26.1121 2472.74 26.1121 Q2477.76 26.1121 2481.33 28.0971 Q2484.93 30.0415 2487.28 34.0924 M2461.88 49.9314 Q2461.88 58.1548 2465.25 62.8538 Q2468.65 67.5124 2474.56 67.5124 Q2480.48 67.5124 2483.88 62.8538 Q2487.28 58.1548 2487.28 49.9314 Q2487.28 41.7081 2483.88 37.0496 Q2480.48 32.3505 2474.56 32.3505 Q2468.65 32.3505 2465.25 37.0496 Q2461.88 41.7081 2461.88 49.9314 Z" fill="#000000" fill-rule="nonzero" fill-opacity="1" /><path clip-path="url(#clip830)" d="M2548.9 48.0275 L2548.9 51.6733 L2514.63 51.6733 Q2515.11 59.3701 2519.25 63.421 Q2523.42 67.4314 2530.83 67.4314 Q2535.12 67.4314 2539.14 66.3781 Q2543.19 65.3249 2547.16 63.2184 L2547.16 70.267 Q2543.15 71.9684 2538.93 72.8596 Q2534.72 73.7508 2530.39 73.7508 Q2519.53 73.7508 2513.17 67.4314 Q2506.85 61.1119 2506.85 50.3365 Q2506.85 39.1965 2512.84 32.6746 Q2518.88 26.1121 2529.09 26.1121 Q2538.24 26.1121 2543.55 32.0264 Q2548.9 37.9003 2548.9 48.0275 M2541.44 45.84 Q2541.36 39.7232 2538 36.0774 Q2534.68 32.4315 2529.17 32.4315 Q2522.93 32.4315 2519.16 35.9558 Q2515.44 39.4801 2514.87 45.8805 L2541.44 45.84 Z" fill="#000000" fill-rule="nonzero" fill-opacity="1" /><path clip-path="url(#clip830)" d="M2561.13 9.54393 L2568.59 9.54393 L2568.59 72.576 L2561.13 72.576 L2561.13 9.54393 Z" fill="#000000" fill-rule="nonzero" fill-opacity="1" /><path clip-path="url(#clip830)" d="M2604.8 49.7694 Q2595.77 49.7694 2592.28 51.8354 Q2588.8 53.9013 2588.8 58.8839 Q2588.8 62.8538 2591.39 65.2034 Q2594.02 67.5124 2598.52 67.5124 Q2604.72 67.5124 2608.45 63.1374 Q2612.21 58.7219 2612.21 51.4303 L2612.21 49.7694 L2604.8 49.7694 M2619.67 46.6907 L2619.67 72.576 L2612.21 72.576 L2612.21 65.6895 Q2609.66 69.8214 2605.85 71.8063 Q2602.05 73.7508 2596.54 73.7508 Q2589.57 73.7508 2585.44 69.8619 Q2581.35 65.9325 2581.35 59.3701 Q2581.35 51.7138 2586.45 47.825 Q2591.59 43.9361 2601.76 43.9361 L2612.21 43.9361 L2612.21 43.2069 Q2612.21 38.0623 2608.81 35.2672 Q2605.45 32.4315 2599.33 32.4315 Q2595.44 32.4315 2591.76 33.3632 Q2588.07 34.295 2584.67 36.1584 L2584.67 29.2718 Q2588.76 27.692 2592.61 26.9223 Q2596.46 26.1121 2600.1 26.1121 Q2609.94 26.1121 2614.81 31.2163 Q2619.67 36.3204 2619.67 46.6907 Z" fill="#000000" fill-rule="nonzero" fill-opacity="1" /><path clip-path="url(#clip830)" d="M2653.9 76.7889 Q2650.74 84.8907 2647.74 87.3618 Q2644.74 89.8329 2639.72 89.8329 L2633.76 89.8329 L2633.76 83.5945 L2638.14 83.5945 Q2641.22 83.5945 2642.92 82.1361 Q2644.62 80.6778 2646.69 75.2496 L2648.02 71.8468 L2629.67 27.2059 L2637.57 27.2059 L2651.75 62.6918 L2665.93 27.2059 L2673.83 27.2059 L2653.9 76.7889 Z" fill="#000000" fill-rule="nonzero" fill-opacity="1" /><polyline clip-path="url(#clip832)" style="stroke:#009af9; stroke-linecap:round; stroke-linejoin:round; stroke-width:4; stroke-opacity:1; fill:none" points="311.271,1356.73 339.137,1445.93 367.003,1426.11 394.869,1426.11 422.735,1436.02 450.6,1376.55 478.466,1396.38 506.332,1346.82 534.198,1366.64 562.064,1297.27 589.93,1247.71 617.796,1158.51 645.662,1148.6 673.528,1198.16 701.394,1148.6 729.259,1188.25 757.125,1168.42 784.991,1138.69 812.857,1099.05 840.723,1039.58 868.589,1118.87 896.455,1108.96 924.321,1069.31 952.187,990.027 980.052,1029.67 1007.92,940.473 1035.78,791.809 1063.65,801.72 1091.52,692.7 1119.38,682.789 1147.25,593.591 1175.11,712.522 1202.98,613.413 1230.85,435.016 1258.71,494.482 1286.58,177.332 1314.44,385.461 1342.31,167.421 1370.17,276.441 1398.04,385.461 1425.91,266.53 1453.77,147.599 1481.64,325.996 1509.5,504.392 1537.37,464.749 1565.24,702.611 1593.1,563.858 1620.97,771.987 1648.83,890.918 1676.7,930.562 1704.57,1029.67 1732.43,1009.85 1760.3,1059.4 1788.16,1138.69 1816.03,1247.71 1843.9,1118.87 1871.76,1217.98 1899.63,1317.09 1927.49,1336.91 1955.36,1346.82 1983.22,1366.64 2011.09,1416.2 2038.96,1396.38 2066.82,1416.2 2094.69,1396.38 2122.55,1396.38 2150.42,1396.38 2178.29,1396.38 2206.15,1406.29 2234.02,1455.84 2261.88,1416.2 2289.75,1386.46 2317.62,1436.02 2345.48,1455.84 2373.35,1426.11 2401.21,1455.84 2429.08,1426.11 2456.94,1436.02 2484.81,1455.84 2512.68,1436.02 2540.54,1445.93 2568.41,1436.02 2596.27,1436.02 2624.14,1445.93 2652.01,1455.84 2679.87,1455.84 2707.74,1445.93 2735.6,1436.02 2763.47,1426.11 2791.34,1436.02 2819.2,1455.84 2847.07,1436.02 2874.93,1455.84 2902.8,1455.84 2930.66,1455.84 2958.53,1445.93 2986.4,1455.84 3014.26,1455.84 3042.13,1455.84 3069.99,1445.93 "/>
<polyline clip-path="url(#clip832)" style="stroke:#e26f46; stroke-linecap:round; stroke-linejoin:round; stroke-width:4; stroke-opacity:1; fill:none" points="311.271,1455.84 339.137,1445.93 367.003,1445.93 394.869,1445.93 422.735,1436.02 450.6,1436.02 478.466,1426.11 506.332,1436.02 534.198,1416.2 562.064,1416.2 589.93,1426.11 617.796,1376.55 645.662,1376.55 673.528,1336.91 701.394,1346.82 729.259,1297.27 757.125,1267.53 784.991,1287.36 812.857,1217.98 840.723,1247.71 868.589,1208.07 896.455,1227.89 924.321,1188.25 952.187,1188.25 980.052,1188.25 1007.92,1128.78 1035.78,1198.16 1063.65,1128.78 1091.52,1089.14 1119.38,1079.23 1147.25,1049.49 1175.11,980.117 1202.98,960.295 1230.85,930.562 1258.71,900.829 1286.58,851.275 1314.44,791.809 1342.31,702.611 1370.17,781.898 1398.04,662.967 1425.91,623.323 1453.77,583.68 1481.64,643.145 1509.5,603.502 1537.37,514.303 1565.24,484.571 1593.1,643.145 1620.97,573.769 1648.83,623.323 1676.7,653.056 1704.57,732.344 1732.43,762.076 1760.3,881.007 1788.16,970.206 1816.03,970.206 1843.9,1029.67 1871.76,1099.05 1899.63,1128.78 1927.49,1128.78 1955.36,1168.42 1983.22,1208.07 2011.09,1267.53 2038.96,1277.44 2066.82,1317.09 2094.69,1366.64 2122.55,1376.55 2150.42,1376.55 2178.29,1376.55 2206.15,1386.46 2234.02,1396.38 2261.88,1436.02 2289.75,1416.2 2317.62,1416.2 2345.48,1436.02 2373.35,1426.11 2401.21,1426.11 2429.08,1426.11 2456.94,1426.11 2484.81,1436.02 2512.68,1445.93 2540.54,1436.02 2568.41,1436.02 2596.27,1436.02 2624.14,1436.02 2652.01,1445.93 2679.87,1445.93 2707.74,1455.84 2735.6,1445.93 2763.47,1445.93 2791.34,1445.93 2819.2,1455.84 2847.07,1445.93 2874.93,1445.93 2902.8,1445.93 2930.66,1445.93 2958.53,1445.93 2986.4,1455.84 3014.26,1455.84 3042.13,1445.93 3069.99,1455.84 "/>
<path clip-path="url(#clip830)" d="M2404.66 310.097 L3055.28 310.097 L3055.28 154.577 L2404.66 154.577  Z" fill="#ffffff" fill-rule="evenodd" fill-opacity="1"/>
<polyline clip-path="url(#clip830)" style="stroke:#000000; stroke-linecap:round; stroke-linejoin:round; stroke-width:4; stroke-opacity:1; fill:none" points="2404.66,310.097 3055.28,310.097 3055.28,154.577 2404.66,154.577 2404.66,310.097 "/>
<polyline clip-path="url(#clip830)" style="stroke:#009af9; stroke-linecap:round; stroke-linejoin:round; stroke-width:4; stroke-opacity:1; fill:none" points="2437.16,206.417 2632.11,206.417 "/>
<path clip-path="url(#clip830)" d="M2664.6 189.137 L2693.83 189.137 L2693.83 193.072 L2681.56 193.072 L2681.56 223.697 L2676.87 223.697 L2676.87 193.072 L2664.6 193.072 L2664.6 189.137 Z" fill="#000000" fill-rule="nonzero" fill-opacity="1" /><path clip-path="url(#clip830)" d="M2706.22 201.752 Q2705.5 201.336 2704.64 201.15 Q2703.81 200.942 2702.79 200.942 Q2699.18 200.942 2697.24 203.303 Q2695.31 205.641 2695.31 210.039 L2695.31 223.697 L2691.03 223.697 L2691.03 197.771 L2695.31 197.771 L2695.31 201.799 Q2696.66 199.438 2698.81 198.303 Q2700.96 197.146 2704.04 197.146 Q2704.48 197.146 2705.01 197.215 Q2705.55 197.262 2706.19 197.377 L2706.22 201.752 Z" fill="#000000" fill-rule="nonzero" fill-opacity="1" /><path clip-path="url(#clip830)" d="M2710.24 213.465 L2710.24 197.771 L2714.5 197.771 L2714.5 213.303 Q2714.5 216.984 2715.94 218.836 Q2717.37 220.664 2720.24 220.664 Q2723.69 220.664 2725.68 218.465 Q2727.7 216.266 2727.7 212.47 L2727.7 197.771 L2731.96 197.771 L2731.96 223.697 L2727.7 223.697 L2727.7 219.715 Q2726.15 222.076 2724.09 223.234 Q2722.05 224.368 2719.34 224.368 Q2714.87 224.368 2712.56 221.59 Q2710.24 218.812 2710.24 213.465 M2720.96 197.146 L2720.96 197.146 Z" fill="#000000" fill-rule="nonzero" fill-opacity="1" /><path clip-path="url(#clip830)" d="M2762.91 209.669 L2762.91 211.752 L2743.32 211.752 Q2743.6 216.15 2745.96 218.465 Q2748.35 220.757 2752.58 220.757 Q2755.04 220.757 2757.33 220.155 Q2759.64 219.553 2761.91 218.349 L2761.91 222.377 Q2759.62 223.349 2757.21 223.859 Q2754.8 224.368 2752.33 224.368 Q2746.12 224.368 2742.49 220.757 Q2738.88 217.146 2738.88 210.988 Q2738.88 204.623 2742.3 200.896 Q2745.75 197.146 2751.59 197.146 Q2756.82 197.146 2759.85 200.525 Q2762.91 203.882 2762.91 209.669 M2758.65 208.419 Q2758.6 204.924 2756.68 202.84 Q2754.78 200.757 2751.63 200.757 Q2748.07 200.757 2745.92 202.771 Q2743.79 204.785 2743.46 208.442 L2758.65 208.419 Z" fill="#000000" fill-rule="nonzero" fill-opacity="1" /><path clip-path="url(#clip830)" d="M2784.97 197.771 L2789.23 197.771 L2789.23 223.697 L2784.97 223.697 L2784.97 197.771 M2784.97 187.678 L2789.23 187.678 L2789.23 193.072 L2784.97 193.072 L2784.97 187.678 Z" fill="#000000" fill-rule="nonzero" fill-opacity="1" /><path clip-path="url(#clip830)" d="M2819.69 208.049 L2819.69 223.697 L2815.43 223.697 L2815.43 208.187 Q2815.43 204.507 2813.99 202.678 Q2812.56 200.85 2809.69 200.85 Q2806.24 200.85 2804.25 203.049 Q2802.26 205.248 2802.26 209.044 L2802.26 223.697 L2797.98 223.697 L2797.98 197.771 L2802.26 197.771 L2802.26 201.799 Q2803.79 199.461 2805.85 198.303 Q2807.93 197.146 2810.64 197.146 Q2815.11 197.146 2817.4 199.924 Q2819.69 202.678 2819.69 208.049 Z" fill="#000000" fill-rule="nonzero" fill-opacity="1" /><path clip-path="url(#clip830)" d="M2841.31 187.678 L2841.31 191.22 L2837.23 191.22 Q2834.94 191.22 2834.04 192.146 Q2833.16 193.072 2833.16 195.479 L2833.16 197.771 L2840.17 197.771 L2840.17 201.081 L2833.16 201.081 L2833.16 223.697 L2828.88 223.697 L2828.88 201.081 L2824.8 201.081 L2824.8 197.771 L2828.88 197.771 L2828.88 195.965 Q2828.88 191.637 2830.89 189.669 Q2832.91 187.678 2837.28 187.678 L2841.31 187.678 Z" fill="#000000" fill-rule="nonzero" fill-opacity="1" /><path clip-path="url(#clip830)" d="M2867.05 209.669 L2867.05 211.752 L2847.47 211.752 Q2847.74 216.15 2850.11 218.465 Q2852.49 220.757 2856.73 220.757 Q2859.18 220.757 2861.47 220.155 Q2863.79 219.553 2866.05 218.349 L2866.05 222.377 Q2863.76 223.349 2861.36 223.859 Q2858.95 224.368 2856.47 224.368 Q2850.27 224.368 2846.63 220.757 Q2843.02 217.146 2843.02 210.988 Q2843.02 204.623 2846.45 200.896 Q2849.9 197.146 2855.73 197.146 Q2860.96 197.146 2863.99 200.525 Q2867.05 203.882 2867.05 209.669 M2862.79 208.419 Q2862.74 204.924 2860.82 202.84 Q2858.92 200.757 2855.78 200.757 Q2852.21 200.757 2850.06 202.771 Q2847.93 204.785 2847.61 208.442 L2862.79 208.419 Z" fill="#000000" fill-rule="nonzero" fill-opacity="1" /><path clip-path="url(#clip830)" d="M2892.7 198.766 L2892.7 202.748 Q2890.89 201.752 2889.06 201.266 Q2887.26 200.757 2885.41 200.757 Q2881.26 200.757 2878.97 203.396 Q2876.68 206.012 2876.68 210.757 Q2876.68 215.502 2878.97 218.141 Q2881.26 220.757 2885.41 220.757 Q2887.26 220.757 2889.06 220.271 Q2890.89 219.761 2892.7 218.766 L2892.7 222.701 Q2890.92 223.535 2888.99 223.951 Q2887.1 224.368 2884.94 224.368 Q2879.09 224.368 2875.64 220.687 Q2872.19 217.007 2872.19 210.757 Q2872.19 204.414 2875.66 200.78 Q2879.16 197.146 2885.22 197.146 Q2887.19 197.146 2889.06 197.563 Q2890.94 197.956 2892.7 198.766 Z" fill="#000000" fill-rule="nonzero" fill-opacity="1" /><path clip-path="url(#clip830)" d="M2904.32 190.41 L2904.32 197.771 L2913.09 197.771 L2913.09 201.081 L2904.32 201.081 L2904.32 215.155 Q2904.32 218.326 2905.17 219.229 Q2906.05 220.132 2908.72 220.132 L2913.09 220.132 L2913.09 223.697 L2908.72 223.697 Q2903.79 223.697 2901.91 221.868 Q2900.04 220.016 2900.04 215.155 L2900.04 201.081 L2896.91 201.081 L2896.91 197.771 L2900.04 197.771 L2900.04 190.41 L2904.32 190.41 Z" fill="#000000" fill-rule="nonzero" fill-opacity="1" /><path clip-path="url(#clip830)" d="M2918.69 197.771 L2922.95 197.771 L2922.95 223.697 L2918.69 223.697 L2918.69 197.771 M2918.69 187.678 L2922.95 187.678 L2922.95 193.072 L2918.69 193.072 L2918.69 187.678 Z" fill="#000000" fill-rule="nonzero" fill-opacity="1" /><path clip-path="url(#clip830)" d="M2941.91 200.757 Q2938.48 200.757 2936.49 203.442 Q2934.5 206.104 2934.5 210.757 Q2934.5 215.41 2936.47 218.095 Q2938.46 220.757 2941.91 220.757 Q2945.31 220.757 2947.3 218.072 Q2949.29 215.387 2949.29 210.757 Q2949.29 206.15 2947.3 203.465 Q2945.31 200.757 2941.91 200.757 M2941.91 197.146 Q2947.47 197.146 2950.64 200.757 Q2953.81 204.368 2953.81 210.757 Q2953.81 217.123 2950.64 220.757 Q2947.47 224.368 2941.91 224.368 Q2936.33 224.368 2933.16 220.757 Q2930.01 217.123 2930.01 210.757 Q2930.01 204.368 2933.16 200.757 Q2936.33 197.146 2941.91 197.146 Z" fill="#000000" fill-rule="nonzero" fill-opacity="1" /><path clip-path="url(#clip830)" d="M2982.42 208.049 L2982.42 223.697 L2978.16 223.697 L2978.16 208.187 Q2978.16 204.507 2976.72 202.678 Q2975.29 200.85 2972.42 200.85 Q2968.97 200.85 2966.98 203.049 Q2964.99 205.248 2964.99 209.044 L2964.99 223.697 L2960.71 223.697 L2960.71 197.771 L2964.99 197.771 L2964.99 201.799 Q2966.52 199.461 2968.58 198.303 Q2970.66 197.146 2973.37 197.146 Q2977.84 197.146 2980.13 199.924 Q2982.42 202.678 2982.42 208.049 Z" fill="#000000" fill-rule="nonzero" fill-opacity="1" /><path clip-path="url(#clip830)" d="M3007.44 198.535 L3007.44 202.563 Q3005.64 201.637 3003.69 201.174 Q3001.75 200.711 2999.66 200.711 Q2996.49 200.711 2994.9 201.683 Q2993.32 202.655 2993.32 204.6 Q2993.32 206.081 2994.46 206.937 Q2995.59 207.771 2999.02 208.535 L3000.47 208.859 Q3005.01 209.831 3006.91 211.613 Q3008.83 213.373 3008.83 216.544 Q3008.83 220.155 3005.96 222.261 Q3003.11 224.368 2998.11 224.368 Q2996.03 224.368 2993.76 223.951 Q2991.52 223.558 2989.02 222.748 L2989.02 218.349 Q2991.38 219.576 2993.67 220.201 Q2995.96 220.803 2998.21 220.803 Q3001.22 220.803 3002.84 219.785 Q3004.46 218.743 3004.46 216.868 Q3004.46 215.132 3003.28 214.206 Q3002.12 213.28 2998.16 212.424 L2996.68 212.076 Q2992.72 211.243 2990.96 209.53 Q2989.2 207.794 2989.2 204.785 Q2989.2 201.127 2991.79 199.137 Q2994.39 197.146 2999.16 197.146 Q3001.52 197.146 3003.6 197.493 Q3005.68 197.84 3007.44 198.535 Z" fill="#000000" fill-rule="nonzero" fill-opacity="1" /><polyline clip-path="url(#clip830)" style="stroke:#e26f46; stroke-linecap:round; stroke-linejoin:round; stroke-width:4; stroke-opacity:1; fill:none" points="2437.16,258.257 2632.11,258.257 "/>
<path clip-path="url(#clip830)" d="M2680.99 259.333 Q2682.49 259.842 2683.9 261.509 Q2685.34 263.176 2686.77 266.092 L2691.52 275.537 L2686.49 275.537 L2682.07 266.671 Q2680.36 263.199 2678.74 262.065 Q2677.14 260.93 2674.37 260.93 L2669.27 260.93 L2669.27 275.537 L2664.6 275.537 L2664.6 240.977 L2675.15 240.977 Q2681.08 240.977 2683.99 243.453 Q2686.91 245.93 2686.91 250.93 Q2686.91 254.194 2685.38 256.347 Q2683.88 258.5 2680.99 259.333 M2669.27 244.819 L2669.27 257.088 L2675.15 257.088 Q2678.53 257.088 2680.24 255.537 Q2681.98 253.963 2681.98 250.93 Q2681.98 247.898 2680.24 246.37 Q2678.53 244.819 2675.15 244.819 L2669.27 244.819 Z" fill="#000000" fill-rule="nonzero" fill-opacity="1" /><path clip-path="url(#clip830)" d="M2717.4 261.509 L2717.4 263.592 L2697.81 263.592 Q2698.09 267.99 2700.45 270.305 Q2702.84 272.597 2707.07 272.597 Q2709.53 272.597 2711.82 271.995 Q2714.13 271.393 2716.4 270.189 L2716.4 274.217 Q2714.11 275.189 2711.7 275.699 Q2709.3 276.208 2706.82 276.208 Q2700.62 276.208 2696.98 272.597 Q2693.37 268.986 2693.37 262.828 Q2693.37 256.463 2696.8 252.736 Q2700.24 248.986 2706.08 248.986 Q2711.31 248.986 2714.34 252.365 Q2717.4 255.722 2717.4 261.509 M2713.14 260.259 Q2713.09 256.764 2711.17 254.68 Q2709.27 252.597 2706.12 252.597 Q2702.56 252.597 2700.41 254.611 Q2698.28 256.625 2697.95 260.282 L2713.14 260.259 Z" fill="#000000" fill-rule="nonzero" fill-opacity="1" /><path clip-path="url(#clip830)" d="M2728.51 271.648 L2728.51 285.398 L2724.23 285.398 L2724.23 249.611 L2728.51 249.611 L2728.51 253.546 Q2729.85 251.231 2731.89 250.12 Q2733.95 248.986 2736.8 248.986 Q2741.52 248.986 2744.46 252.736 Q2747.42 256.486 2747.42 262.597 Q2747.42 268.708 2744.46 272.458 Q2741.52 276.208 2736.8 276.208 Q2733.95 276.208 2731.89 275.097 Q2729.85 273.963 2728.51 271.648 M2743 262.597 Q2743 257.898 2741.05 255.236 Q2739.13 252.551 2735.75 252.551 Q2732.37 252.551 2730.43 255.236 Q2728.51 257.898 2728.51 262.597 Q2728.51 267.296 2730.43 269.981 Q2732.37 272.643 2735.75 272.643 Q2739.13 272.643 2741.05 269.981 Q2743 267.296 2743 262.597 Z" fill="#000000" fill-rule="nonzero" fill-opacity="1" /><path clip-path="url(#clip830)" d="M2764.53 252.597 Q2761.1 252.597 2759.11 255.282 Q2757.12 257.944 2757.12 262.597 Q2757.12 267.25 2759.09 269.935 Q2761.08 272.597 2764.53 272.597 Q2767.93 272.597 2769.92 269.912 Q2771.91 267.227 2771.91 262.597 Q2771.91 257.99 2769.92 255.305 Q2767.93 252.597 2764.53 252.597 M2764.53 248.986 Q2770.08 248.986 2773.25 252.597 Q2776.42 256.208 2776.42 262.597 Q2776.42 268.963 2773.25 272.597 Q2770.08 276.208 2764.53 276.208 Q2758.95 276.208 2755.78 272.597 Q2752.63 268.963 2752.63 262.597 Q2752.63 256.208 2755.78 252.597 Q2758.95 248.986 2764.53 248.986 Z" fill="#000000" fill-rule="nonzero" fill-opacity="1" /><path clip-path="url(#clip830)" d="M2798.51 253.592 Q2797.79 253.176 2796.93 252.99 Q2796.1 252.782 2795.08 252.782 Q2791.47 252.782 2789.53 255.143 Q2787.61 257.481 2787.61 261.879 L2787.61 275.537 L2783.32 275.537 L2783.32 249.611 L2787.61 249.611 L2787.61 253.639 Q2788.95 251.278 2791.1 250.143 Q2793.25 248.986 2796.33 248.986 Q2796.77 248.986 2797.3 249.055 Q2797.84 249.102 2798.49 249.217 L2798.51 253.592 Z" fill="#000000" fill-rule="nonzero" fill-opacity="1" /><path clip-path="url(#clip830)" d="M2807.19 242.25 L2807.19 249.611 L2815.96 249.611 L2815.96 252.921 L2807.19 252.921 L2807.19 266.995 Q2807.19 270.166 2808.05 271.069 Q2808.92 271.972 2811.59 271.972 L2815.96 271.972 L2815.96 275.537 L2811.59 275.537 Q2806.66 275.537 2804.78 273.708 Q2802.91 271.856 2802.91 266.995 L2802.91 252.921 L2799.78 252.921 L2799.78 249.611 L2802.91 249.611 L2802.91 242.25 L2807.19 242.25 Z" fill="#000000" fill-rule="nonzero" fill-opacity="1" /><path clip-path="url(#clip830)" d="M2843.74 261.509 L2843.74 263.592 L2824.16 263.592 Q2824.43 267.99 2826.8 270.305 Q2829.18 272.597 2833.42 272.597 Q2835.87 272.597 2838.16 271.995 Q2840.48 271.393 2842.74 270.189 L2842.74 274.217 Q2840.45 275.189 2838.05 275.699 Q2835.64 276.208 2833.16 276.208 Q2826.96 276.208 2823.32 272.597 Q2819.71 268.986 2819.71 262.828 Q2819.71 256.463 2823.14 252.736 Q2826.59 248.986 2832.42 248.986 Q2837.65 248.986 2840.68 252.365 Q2843.74 255.722 2843.74 261.509 M2839.48 260.259 Q2839.43 256.764 2837.51 254.68 Q2835.61 252.597 2832.47 252.597 Q2828.9 252.597 2826.75 254.611 Q2824.62 256.625 2824.3 260.282 L2839.48 260.259 Z" fill="#000000" fill-rule="nonzero" fill-opacity="1" /><path clip-path="url(#clip830)" d="M2867.79 253.546 L2867.79 239.518 L2872.05 239.518 L2872.05 275.537 L2867.79 275.537 L2867.79 271.648 Q2866.45 273.963 2864.39 275.097 Q2862.35 276.208 2859.48 276.208 Q2854.78 276.208 2851.82 272.458 Q2848.88 268.708 2848.88 262.597 Q2848.88 256.486 2851.82 252.736 Q2854.78 248.986 2859.48 248.986 Q2862.35 248.986 2864.39 250.12 Q2866.45 251.231 2867.79 253.546 M2853.28 262.597 Q2853.28 267.296 2855.2 269.981 Q2857.14 272.643 2860.52 272.643 Q2863.9 272.643 2865.85 269.981 Q2867.79 267.296 2867.79 262.597 Q2867.79 257.898 2865.85 255.236 Q2863.9 252.551 2860.52 252.551 Q2857.14 252.551 2855.2 255.236 Q2853.28 257.898 2853.28 262.597 Z" fill="#000000" fill-rule="nonzero" fill-opacity="1" /><path clip-path="url(#clip830)" d="M2914.55 250.606 L2914.55 254.588 Q2912.74 253.592 2910.91 253.106 Q2909.11 252.597 2907.26 252.597 Q2903.11 252.597 2900.82 255.236 Q2898.53 257.852 2898.53 262.597 Q2898.53 267.342 2900.82 269.981 Q2903.11 272.597 2907.26 272.597 Q2909.11 272.597 2910.91 272.111 Q2912.74 271.601 2914.55 270.606 L2914.55 274.541 Q2912.77 275.375 2910.85 275.791 Q2908.95 276.208 2906.79 276.208 Q2900.94 276.208 2897.49 272.527 Q2894.04 268.847 2894.04 262.597 Q2894.04 256.254 2897.51 252.62 Q2901.01 248.986 2907.07 248.986 Q2909.04 248.986 2910.91 249.403 Q2912.79 249.796 2914.55 250.606 Z" fill="#000000" fill-rule="nonzero" fill-opacity="1" /><path clip-path="url(#clip830)" d="M2933.74 262.504 Q2928.58 262.504 2926.59 263.685 Q2924.6 264.865 2924.6 267.713 Q2924.6 269.981 2926.08 271.324 Q2927.58 272.643 2930.15 272.643 Q2933.69 272.643 2935.82 270.143 Q2937.98 267.62 2937.98 263.453 L2937.98 262.504 L2933.74 262.504 M2942.23 260.745 L2942.23 275.537 L2937.98 275.537 L2937.98 271.601 Q2936.52 273.963 2934.34 275.097 Q2932.16 276.208 2929.02 276.208 Q2925.04 276.208 2922.67 273.986 Q2920.34 271.74 2920.34 267.99 Q2920.34 263.615 2923.25 261.393 Q2926.19 259.171 2932 259.171 L2937.98 259.171 L2937.98 258.754 Q2937.98 255.815 2936.03 254.217 Q2934.11 252.597 2930.61 252.597 Q2928.39 252.597 2926.29 253.129 Q2924.18 253.662 2922.23 254.727 L2922.23 250.791 Q2924.57 249.889 2926.77 249.449 Q2928.97 248.986 2931.05 248.986 Q2936.68 248.986 2939.46 251.903 Q2942.23 254.819 2942.23 260.745 Z" fill="#000000" fill-rule="nonzero" fill-opacity="1" /><path clip-path="url(#clip830)" d="M2967.54 250.375 L2967.54 254.403 Q2965.73 253.477 2963.79 253.014 Q2961.84 252.551 2959.76 252.551 Q2956.59 252.551 2954.99 253.523 Q2953.41 254.495 2953.41 256.44 Q2953.41 257.921 2954.55 258.777 Q2955.68 259.611 2959.11 260.375 L2960.57 260.699 Q2965.1 261.671 2967 263.453 Q2968.92 265.213 2968.92 268.384 Q2968.92 271.995 2966.05 274.101 Q2963.21 276.208 2958.21 276.208 Q2956.12 276.208 2953.85 275.791 Q2951.61 275.398 2949.11 274.588 L2949.11 270.189 Q2951.47 271.416 2953.76 272.041 Q2956.05 272.643 2958.3 272.643 Q2961.31 272.643 2962.93 271.625 Q2964.55 270.583 2964.55 268.708 Q2964.55 266.972 2963.37 266.046 Q2962.21 265.12 2958.25 264.264 L2956.77 263.916 Q2952.81 263.083 2951.05 261.37 Q2949.29 259.634 2949.29 256.625 Q2949.29 252.967 2951.89 250.977 Q2954.48 248.986 2959.25 248.986 Q2961.61 248.986 2963.69 249.333 Q2965.78 249.68 2967.54 250.375 Z" fill="#000000" fill-rule="nonzero" fill-opacity="1" /><path clip-path="url(#clip830)" d="M2997.88 261.509 L2997.88 263.592 L2978.3 263.592 Q2978.58 267.99 2980.94 270.305 Q2983.32 272.597 2987.56 272.597 Q2990.01 272.597 2992.3 271.995 Q2994.62 271.393 2996.89 270.189 L2996.89 274.217 Q2994.6 275.189 2992.19 275.699 Q2989.78 276.208 2987.3 276.208 Q2981.1 276.208 2977.47 272.597 Q2973.85 268.986 2973.85 262.828 Q2973.85 256.463 2977.28 252.736 Q2980.73 248.986 2986.56 248.986 Q2991.79 248.986 2994.83 252.365 Q2997.88 255.722 2997.88 261.509 M2993.62 260.259 Q2993.58 256.764 2991.66 254.68 Q2989.76 252.597 2986.61 252.597 Q2983.04 252.597 2980.89 254.611 Q2978.76 256.625 2978.44 260.282 L2993.62 260.259 Z" fill="#000000" fill-rule="nonzero" fill-opacity="1" /><path clip-path="url(#clip830)" d="M3021.4 250.375 L3021.4 254.403 Q3019.59 253.477 3017.65 253.014 Q3015.71 252.551 3013.62 252.551 Q3010.45 252.551 3008.85 253.523 Q3007.28 254.495 3007.28 256.44 Q3007.28 257.921 3008.41 258.777 Q3009.55 259.611 3012.97 260.375 L3014.43 260.699 Q3018.97 261.671 3020.87 263.453 Q3022.79 265.213 3022.79 268.384 Q3022.79 271.995 3019.92 274.101 Q3017.07 276.208 3012.07 276.208 Q3009.99 276.208 3007.72 275.791 Q3005.47 275.398 3002.97 274.588 L3002.97 270.189 Q3005.34 271.416 3007.63 272.041 Q3009.92 272.643 3012.16 272.643 Q3015.17 272.643 3016.79 271.625 Q3018.41 270.583 3018.41 268.708 Q3018.41 266.972 3017.23 266.046 Q3016.08 265.12 3012.12 264.264 L3010.64 263.916 Q3006.68 263.083 3004.92 261.37 Q3003.16 259.634 3003.16 256.625 Q3003.16 252.967 3005.75 250.977 Q3008.35 248.986 3013.11 248.986 Q3015.47 248.986 3017.56 249.333 Q3019.64 249.68 3021.4 250.375 Z" fill="#000000" fill-rule="nonzero" fill-opacity="1" /></svg>
