<?xml version="1.0" encoding="utf-8"?>
<svg xmlns="http://www.w3.org/2000/svg" xmlns:xlink="http://www.w3.org/1999/xlink" width="672" height="480" viewBox="0 0 2688 1920">
<defs>
  <clipPath id="clip750">
    <rect x="0" y="0" width="2688" height="1920"/>
  </clipPath>
</defs>
<path clip-path="url(#clip750)" d="M0 1920 L2688 1920 L2688 -4.26326e-14 L0 -4.26326e-14  Z" fill="#ffffff" fill-rule="evenodd" fill-opacity="1"/>
<defs>
  <clipPath id="clip751">
    <rect x="537" y="0" width="1883" height="1883"/>
  </clipPath>
</defs>
<path clip-path="url(#clip750)" d="M238.664 840.779 L2640.76 840.779 L2640.76 47.2441 L238.664 47.2441  Z" fill="#ffffff" fill-rule="evenodd" fill-opacity="1"/>
<defs>
  <clipPath id="clip752">
    <rect x="238" y="47" width="2403" height="795"/>
  </clipPath>
</defs>
<polyline clip-path="url(#clip752)" style="stroke:#000000; stroke-linecap:round; stroke-linejoin:round; stroke-width:2; stroke-opacity:0.1; fill:none" points="283.757,840.779 283.757,47.2441 "/>
<polyline clip-path="url(#clip752)" style="stroke:#000000; stroke-linecap:round; stroke-linejoin:round; stroke-width:2; stroke-opacity:0.1; fill:none" points="856.011,840.779 856.011,47.2441 "/>
<polyline clip-path="url(#clip752)" style="stroke:#000000; stroke-linecap:round; stroke-linejoin:round; stroke-width:2; stroke-opacity:0.1; fill:none" points="1428.26,840.779 1428.26,47.2441 "/>
<polyline clip-path="url(#clip752)" style="stroke:#000000; stroke-linecap:round; stroke-linejoin:round; stroke-width:2; stroke-opacity:0.1; fill:none" points="2000.52,840.779 2000.52,47.2441 "/>
<polyline clip-path="url(#clip752)" style="stroke:#000000; stroke-linecap:round; stroke-linejoin:round; stroke-width:2; stroke-opacity:0.1; fill:none" points="2572.77,840.779 2572.77,47.2441 "/>
<polyline clip-path="url(#clip750)" style="stroke:#000000; stroke-linecap:round; stroke-linejoin:round; stroke-width:4; stroke-opacity:1; fill:none" points="238.664,840.779 2640.76,840.779 "/>
<polyline clip-path="url(#clip750)" style="stroke:#000000; stroke-linecap:round; stroke-linejoin:round; stroke-width:4; stroke-opacity:1; fill:none" points="283.757,840.779 283.757,821.882 "/>
<polyline clip-path="url(#clip750)" style="stroke:#000000; stroke-linecap:round; stroke-linejoin:round; stroke-width:4; stroke-opacity:1; fill:none" points="856.011,840.779 856.011,821.882 "/>
<polyline clip-path="url(#clip750)" style="stroke:#000000; stroke-linecap:round; stroke-linejoin:round; stroke-width:4; stroke-opacity:1; fill:none" points="1428.26,840.779 1428.26,821.882 "/>
<polyline clip-path="url(#clip750)" style="stroke:#000000; stroke-linecap:round; stroke-linejoin:round; stroke-width:4; stroke-opacity:1; fill:none" points="2000.52,840.779 2000.52,821.882 "/>
<polyline clip-path="url(#clip750)" style="stroke:#000000; stroke-linecap:round; stroke-linejoin:round; stroke-width:4; stroke-opacity:1; fill:none" points="2572.77,840.779 2572.77,821.882 "/>
<path clip-path="url(#clip750)" d="M283.757 874.002 Q280.146 874.002 278.317 877.567 Q276.512 881.108 276.512 888.238 Q276.512 895.344 278.317 898.909 Q280.146 902.451 283.757 902.451 Q287.391 902.451 289.197 898.909 Q291.026 895.344 291.026 888.238 Q291.026 881.108 289.197 877.567 Q287.391 874.002 283.757 874.002 M283.757 870.298 Q289.567 870.298 292.623 874.905 Q295.702 879.488 295.702 888.238 Q295.702 896.965 292.623 901.571 Q289.567 906.155 283.757 906.155 Q277.947 906.155 274.868 901.571 Q271.813 896.965 271.813 888.238 Q271.813 879.488 274.868 874.905 Q277.947 870.298 283.757 870.298 Z" fill="#000000" fill-rule="nonzero" fill-opacity="1" /><path clip-path="url(#clip750)" d="M835.282 901.548 L851.601 901.548 L851.601 905.483 L829.657 905.483 L829.657 901.548 Q832.319 898.794 836.902 894.164 Q841.509 889.511 842.689 888.169 Q844.935 885.645 845.814 883.909 Q846.717 882.15 846.717 880.46 Q846.717 877.706 844.773 875.97 Q842.851 874.233 839.749 874.233 Q837.55 874.233 835.097 874.997 Q832.666 875.761 829.888 877.312 L829.888 872.59 Q832.712 871.456 835.166 870.877 Q837.62 870.298 839.657 870.298 Q845.027 870.298 848.222 872.983 Q851.416 875.669 851.416 880.159 Q851.416 882.289 850.606 884.21 Q849.819 886.108 847.712 888.701 Q847.134 889.372 844.032 892.59 Q840.93 895.784 835.282 901.548 Z" fill="#000000" fill-rule="nonzero" fill-opacity="1" /><path clip-path="url(#clip750)" d="M861.462 870.923 L879.819 870.923 L879.819 874.858 L865.745 874.858 L865.745 883.331 Q866.763 882.983 867.782 882.821 Q868.8 882.636 869.819 882.636 Q875.606 882.636 878.985 885.807 Q882.365 888.979 882.365 894.395 Q882.365 899.974 878.893 903.076 Q875.421 906.155 869.101 906.155 Q866.925 906.155 864.657 905.784 Q862.411 905.414 860.004 904.673 L860.004 899.974 Q862.087 901.108 864.31 901.664 Q866.532 902.219 869.009 902.219 Q873.013 902.219 875.351 900.113 Q877.689 898.006 877.689 894.395 Q877.689 890.784 875.351 888.678 Q873.013 886.571 869.009 886.571 Q867.134 886.571 865.259 886.988 Q863.407 887.405 861.462 888.284 L861.462 870.923 Z" fill="#000000" fill-rule="nonzero" fill-opacity="1" /><path clip-path="url(#clip750)" d="M1402.96 870.923 L1421.32 870.923 L1421.32 874.858 L1407.25 874.858 L1407.25 883.331 Q1408.26 882.983 1409.28 882.821 Q1410.3 882.636 1411.32 882.636 Q1417.11 882.636 1420.49 885.807 Q1423.87 888.979 1423.87 894.395 Q1423.87 899.974 1420.39 903.076 Q1416.92 906.155 1410.6 906.155 Q1408.43 906.155 1406.16 905.784 Q1403.91 905.414 1401.51 904.673 L1401.51 899.974 Q1403.59 901.108 1405.81 901.664 Q1408.03 902.219 1410.51 902.219 Q1414.51 902.219 1416.85 900.113 Q1419.19 898.006 1419.19 894.395 Q1419.19 890.784 1416.85 888.678 Q1414.51 886.571 1410.51 886.571 Q1408.64 886.571 1406.76 886.988 Q1404.91 887.405 1402.96 888.284 L1402.96 870.923 Z" fill="#000000" fill-rule="nonzero" fill-opacity="1" /><path clip-path="url(#clip750)" d="M1443.08 874.002 Q1439.47 874.002 1437.64 877.567 Q1435.83 881.108 1435.83 888.238 Q1435.83 895.344 1437.64 898.909 Q1439.47 902.451 1443.08 902.451 Q1446.71 902.451 1448.52 898.909 Q1450.35 895.344 1450.35 888.238 Q1450.35 881.108 1448.52 877.567 Q1446.71 874.002 1443.08 874.002 M1443.08 870.298 Q1448.89 870.298 1451.95 874.905 Q1455.02 879.488 1455.02 888.238 Q1455.02 896.965 1451.95 901.571 Q1448.89 906.155 1443.08 906.155 Q1437.27 906.155 1434.19 901.571 Q1431.14 896.965 1431.14 888.238 Q1431.14 879.488 1434.19 874.905 Q1437.27 870.298 1443.08 870.298 Z" fill="#000000" fill-rule="nonzero" fill-opacity="1" /><path clip-path="url(#clip750)" d="M1974.37 870.923 L1996.59 870.923 L1996.59 872.914 L1984.05 905.483 L1979.16 905.483 L1990.97 874.858 L1974.37 874.858 L1974.37 870.923 Z" fill="#000000" fill-rule="nonzero" fill-opacity="1" /><path clip-path="url(#clip750)" d="M2005.76 870.923 L2024.12 870.923 L2024.12 874.858 L2010.04 874.858 L2010.04 883.331 Q2011.06 882.983 2012.08 882.821 Q2013.1 882.636 2014.12 882.636 Q2019.9 882.636 2023.28 885.807 Q2026.66 888.979 2026.66 894.395 Q2026.66 899.974 2023.19 903.076 Q2019.72 906.155 2013.4 906.155 Q2011.22 906.155 2008.96 905.784 Q2006.71 905.414 2004.3 904.673 L2004.3 899.974 Q2006.39 901.108 2008.61 901.664 Q2010.83 902.219 2013.31 902.219 Q2017.31 902.219 2019.65 900.113 Q2021.99 898.006 2021.99 894.395 Q2021.99 890.784 2019.65 888.678 Q2017.31 886.571 2013.31 886.571 Q2011.43 886.571 2009.56 886.988 Q2007.71 887.405 2005.76 888.284 L2005.76 870.923 Z" fill="#000000" fill-rule="nonzero" fill-opacity="1" /><path clip-path="url(#clip750)" d="M2532.38 901.548 L2540.02 901.548 L2540.02 875.183 L2531.71 876.849 L2531.71 872.59 L2539.97 870.923 L2544.65 870.923 L2544.65 901.548 L2552.29 901.548 L2552.29 905.483 L2532.38 905.483 L2532.38 901.548 Z" fill="#000000" fill-rule="nonzero" fill-opacity="1" /><path clip-path="url(#clip750)" d="M2571.73 874.002 Q2568.12 874.002 2566.29 877.567 Q2564.49 881.108 2564.49 888.238 Q2564.49 895.344 2566.29 898.909 Q2568.12 902.451 2571.73 902.451 Q2575.36 902.451 2577.17 898.909 Q2579 895.344 2579 888.238 Q2579 881.108 2577.17 877.567 Q2575.36 874.002 2571.73 874.002 M2571.73 870.298 Q2577.54 870.298 2580.6 874.905 Q2583.67 879.488 2583.67 888.238 Q2583.67 896.965 2580.6 901.571 Q2577.54 906.155 2571.73 906.155 Q2565.92 906.155 2562.84 901.571 Q2559.79 896.965 2559.79 888.238 Q2559.79 879.488 2562.84 874.905 Q2565.92 870.298 2571.73 870.298 Z" fill="#000000" fill-rule="nonzero" fill-opacity="1" /><path clip-path="url(#clip750)" d="M2601.89 874.002 Q2598.28 874.002 2596.45 877.567 Q2594.65 881.108 2594.65 888.238 Q2594.65 895.344 2596.45 898.909 Q2598.28 902.451 2601.89 902.451 Q2605.53 902.451 2607.33 898.909 Q2609.16 895.344 2609.16 888.238 Q2609.16 881.108 2607.33 877.567 Q2605.53 874.002 2601.89 874.002 M2601.89 870.298 Q2607.7 870.298 2610.76 874.905 Q2613.84 879.488 2613.84 888.238 Q2613.84 896.965 2610.76 901.571 Q2607.7 906.155 2601.89 906.155 Q2596.08 906.155 2593 901.571 Q2589.95 896.965 2589.95 888.238 Q2589.95 879.488 2593 874.905 Q2596.08 870.298 2601.89 870.298 Z" fill="#000000" fill-rule="nonzero" fill-opacity="1" /><polyline clip-path="url(#clip752)" style="stroke:#000000; stroke-linecap:round; stroke-linejoin:round; stroke-width:2; stroke-opacity:0.1; fill:none" points="238.664,771.878 2640.76,771.878 "/>
<polyline clip-path="url(#clip752)" style="stroke:#000000; stroke-linecap:round; stroke-linejoin:round; stroke-width:2; stroke-opacity:0.1; fill:none" points="238.664,654.937 2640.76,654.937 "/>
<polyline clip-path="url(#clip752)" style="stroke:#000000; stroke-linecap:round; stroke-linejoin:round; stroke-width:2; stroke-opacity:0.1; fill:none" points="238.664,537.997 2640.76,537.997 "/>
<polyline clip-path="url(#clip752)" style="stroke:#000000; stroke-linecap:round; stroke-linejoin:round; stroke-width:2; stroke-opacity:0.1; fill:none" points="238.664,421.056 2640.76,421.056 "/>
<polyline clip-path="url(#clip752)" style="stroke:#000000; stroke-linecap:round; stroke-linejoin:round; stroke-width:2; stroke-opacity:0.1; fill:none" points="238.664,304.115 2640.76,304.115 "/>
<polyline clip-path="url(#clip752)" style="stroke:#000000; stroke-linecap:round; stroke-linejoin:round; stroke-width:2; stroke-opacity:0.1; fill:none" points="238.664,187.175 2640.76,187.175 "/>
<polyline clip-path="url(#clip752)" style="stroke:#000000; stroke-linecap:round; stroke-linejoin:round; stroke-width:2; stroke-opacity:0.1; fill:none" points="238.664,70.2342 2640.76,70.2342 "/>
<polyline clip-path="url(#clip750)" style="stroke:#000000; stroke-linecap:round; stroke-linejoin:round; stroke-width:4; stroke-opacity:1; fill:none" points="238.664,840.779 238.664,47.2441 "/>
<polyline clip-path="url(#clip750)" style="stroke:#000000; stroke-linecap:round; stroke-linejoin:round; stroke-width:4; stroke-opacity:1; fill:none" points="238.664,771.878 257.561,771.878 "/>
<polyline clip-path="url(#clip750)" style="stroke:#000000; stroke-linecap:round; stroke-linejoin:round; stroke-width:4; stroke-opacity:1; fill:none" points="238.664,654.937 257.561,654.937 "/>
<polyline clip-path="url(#clip750)" style="stroke:#000000; stroke-linecap:round; stroke-linejoin:round; stroke-width:4; stroke-opacity:1; fill:none" points="238.664,537.997 257.561,537.997 "/>
<polyline clip-path="url(#clip750)" style="stroke:#000000; stroke-linecap:round; stroke-linejoin:round; stroke-width:4; stroke-opacity:1; fill:none" points="238.664,421.056 257.561,421.056 "/>
<polyline clip-path="url(#clip750)" style="stroke:#000000; stroke-linecap:round; stroke-linejoin:round; stroke-width:4; stroke-opacity:1; fill:none" points="238.664,304.115 257.561,304.115 "/>
<polyline clip-path="url(#clip750)" style="stroke:#000000; stroke-linecap:round; stroke-linejoin:round; stroke-width:4; stroke-opacity:1; fill:none" points="238.664,187.175 257.561,187.175 "/>
<polyline clip-path="url(#clip750)" style="stroke:#000000; stroke-linecap:round; stroke-linejoin:round; stroke-width:4; stroke-opacity:1; fill:none" points="238.664,70.2342 257.561,70.2342 "/>
<path clip-path="url(#clip750)" d="M142.163 757.677 Q138.552 757.677 136.724 761.241 Q134.918 764.783 134.918 771.913 Q134.918 779.019 136.724 782.584 Q138.552 786.126 142.163 786.126 Q145.798 786.126 147.603 782.584 Q149.432 779.019 149.432 771.913 Q149.432 764.783 147.603 761.241 Q145.798 757.677 142.163 757.677 M142.163 753.973 Q147.974 753.973 151.029 758.579 Q154.108 763.163 154.108 771.913 Q154.108 780.64 151.029 785.246 Q147.974 789.829 142.163 789.829 Q136.353 789.829 133.275 785.246 Q130.219 780.64 130.219 771.913 Q130.219 763.163 133.275 758.579 Q136.353 753.973 142.163 753.973 Z" fill="#000000" fill-rule="nonzero" fill-opacity="1" /><path clip-path="url(#clip750)" d="M162.325 783.278 L167.21 783.278 L167.21 789.158 L162.325 789.158 L162.325 783.278 Z" fill="#000000" fill-rule="nonzero" fill-opacity="1" /><path clip-path="url(#clip750)" d="M177.441 754.598 L195.797 754.598 L195.797 758.533 L181.723 758.533 L181.723 767.005 Q182.742 766.658 183.76 766.496 Q184.779 766.311 185.797 766.311 Q191.584 766.311 194.964 769.482 Q198.344 772.653 198.344 778.07 Q198.344 783.649 194.871 786.751 Q191.399 789.829 185.08 789.829 Q182.904 789.829 180.635 789.459 Q178.39 789.089 175.983 788.348 L175.983 783.649 Q178.066 784.783 180.288 785.339 Q182.51 785.894 184.987 785.894 Q188.992 785.894 191.33 783.788 Q193.668 781.681 193.668 778.07 Q193.668 774.459 191.33 772.353 Q188.992 770.246 184.987 770.246 Q183.112 770.246 181.237 770.663 Q179.385 771.079 177.441 771.959 L177.441 754.598 Z" fill="#000000" fill-rule="nonzero" fill-opacity="1" /><path clip-path="url(#clip750)" d="M131.978 668.282 L139.617 668.282 L139.617 641.917 L131.307 643.583 L131.307 639.324 L139.571 637.657 L144.247 637.657 L144.247 668.282 L151.886 668.282 L151.886 672.217 L131.978 672.217 L131.978 668.282 Z" fill="#000000" fill-rule="nonzero" fill-opacity="1" /><path clip-path="url(#clip750)" d="M161.33 666.338 L166.214 666.338 L166.214 672.217 L161.33 672.217 L161.33 666.338 Z" fill="#000000" fill-rule="nonzero" fill-opacity="1" /><path clip-path="url(#clip750)" d="M186.399 640.736 Q182.788 640.736 180.959 644.301 Q179.154 647.842 179.154 654.972 Q179.154 662.079 180.959 665.643 Q182.788 669.185 186.399 669.185 Q190.033 669.185 191.839 665.643 Q193.668 662.079 193.668 654.972 Q193.668 647.842 191.839 644.301 Q190.033 640.736 186.399 640.736 M186.399 637.032 Q192.209 637.032 195.265 641.639 Q198.344 646.222 198.344 654.972 Q198.344 663.699 195.265 668.305 Q192.209 672.889 186.399 672.889 Q180.589 672.889 177.51 668.305 Q174.455 663.699 174.455 654.972 Q174.455 646.222 177.51 641.639 Q180.589 637.032 186.399 637.032 Z" fill="#000000" fill-rule="nonzero" fill-opacity="1" /><path clip-path="url(#clip750)" d="M132.974 551.342 L140.612 551.342 L140.612 524.976 L132.302 526.643 L132.302 522.383 L140.566 520.717 L145.242 520.717 L145.242 551.342 L152.881 551.342 L152.881 555.277 L132.974 555.277 L132.974 551.342 Z" fill="#000000" fill-rule="nonzero" fill-opacity="1" /><path clip-path="url(#clip750)" d="M162.325 549.397 L167.21 549.397 L167.21 555.277 L162.325 555.277 L162.325 549.397 Z" fill="#000000" fill-rule="nonzero" fill-opacity="1" /><path clip-path="url(#clip750)" d="M177.441 520.717 L195.797 520.717 L195.797 524.652 L181.723 524.652 L181.723 533.124 Q182.742 532.777 183.76 532.615 Q184.779 532.43 185.797 532.43 Q191.584 532.43 194.964 535.601 Q198.344 538.772 198.344 544.189 Q198.344 549.767 194.871 552.869 Q191.399 555.948 185.08 555.948 Q182.904 555.948 180.635 555.578 Q178.39 555.207 175.983 554.467 L175.983 549.767 Q178.066 550.902 180.288 551.457 Q182.51 552.013 184.987 552.013 Q188.992 552.013 191.33 549.906 Q193.668 547.8 193.668 544.189 Q193.668 540.578 191.33 538.471 Q188.992 536.365 184.987 536.365 Q183.112 536.365 181.237 536.781 Q179.385 537.198 177.441 538.078 L177.441 520.717 Z" fill="#000000" fill-rule="nonzero" fill-opacity="1" /><path clip-path="url(#clip750)" d="M135.196 434.401 L151.515 434.401 L151.515 438.336 L129.571 438.336 L129.571 434.401 Q132.233 431.646 136.816 427.017 Q141.423 422.364 142.603 421.021 Q144.849 418.498 145.728 416.762 Q146.631 415.003 146.631 413.313 Q146.631 410.558 144.687 408.822 Q142.765 407.086 139.663 407.086 Q137.464 407.086 135.011 407.85 Q132.58 408.614 129.802 410.165 L129.802 405.443 Q132.626 404.309 135.08 403.73 Q137.534 403.151 139.571 403.151 Q144.941 403.151 148.136 405.836 Q151.33 408.521 151.33 413.012 Q151.33 415.142 150.52 417.063 Q149.733 418.961 147.626 421.554 Q147.048 422.225 143.946 425.443 Q140.844 428.637 135.196 434.401 Z" fill="#000000" fill-rule="nonzero" fill-opacity="1" /><path clip-path="url(#clip750)" d="M161.33 432.457 L166.214 432.457 L166.214 438.336 L161.33 438.336 L161.33 432.457 Z" fill="#000000" fill-rule="nonzero" fill-opacity="1" /><path clip-path="url(#clip750)" d="M186.399 406.855 Q182.788 406.855 180.959 410.42 Q179.154 413.961 179.154 421.091 Q179.154 428.197 180.959 431.762 Q182.788 435.304 186.399 435.304 Q190.033 435.304 191.839 431.762 Q193.668 428.197 193.668 421.091 Q193.668 413.961 191.839 410.42 Q190.033 406.855 186.399 406.855 M186.399 403.151 Q192.209 403.151 195.265 407.758 Q198.344 412.341 198.344 421.091 Q198.344 429.818 195.265 434.424 Q192.209 439.007 186.399 439.007 Q180.589 439.007 177.51 434.424 Q174.455 429.818 174.455 421.091 Q174.455 412.341 177.51 407.758 Q180.589 403.151 186.399 403.151 Z" fill="#000000" fill-rule="nonzero" fill-opacity="1" /><path clip-path="url(#clip750)" d="M136.191 317.46 L152.511 317.46 L152.511 321.395 L130.566 321.395 L130.566 317.46 Q133.228 314.706 137.812 310.076 Q142.418 305.423 143.599 304.081 Q145.844 301.558 146.724 299.822 Q147.626 298.062 147.626 296.372 Q147.626 293.618 145.682 291.882 Q143.761 290.146 140.659 290.146 Q138.46 290.146 136.006 290.91 Q133.575 291.673 130.798 293.224 L130.798 288.502 Q133.622 287.368 136.075 286.789 Q138.529 286.21 140.566 286.21 Q145.937 286.21 149.131 288.896 Q152.325 291.581 152.325 296.072 Q152.325 298.201 151.515 300.122 Q150.728 302.021 148.622 304.613 Q148.043 305.284 144.941 308.502 Q141.839 311.696 136.191 317.46 Z" fill="#000000" fill-rule="nonzero" fill-opacity="1" /><path clip-path="url(#clip750)" d="M162.325 315.516 L167.21 315.516 L167.21 321.395 L162.325 321.395 L162.325 315.516 Z" fill="#000000" fill-rule="nonzero" fill-opacity="1" /><path clip-path="url(#clip750)" d="M177.441 286.835 L195.797 286.835 L195.797 290.771 L181.723 290.771 L181.723 299.243 Q182.742 298.896 183.76 298.734 Q184.779 298.548 185.797 298.548 Q191.584 298.548 194.964 301.72 Q198.344 304.891 198.344 310.308 Q198.344 315.886 194.871 318.988 Q191.399 322.067 185.08 322.067 Q182.904 322.067 180.635 321.696 Q178.39 321.326 175.983 320.585 L175.983 315.886 Q178.066 317.02 180.288 317.576 Q182.51 318.132 184.987 318.132 Q188.992 318.132 191.33 316.025 Q193.668 313.919 193.668 310.308 Q193.668 306.696 191.33 304.59 Q188.992 302.484 184.987 302.484 Q183.112 302.484 181.237 302.9 Q179.385 303.317 177.441 304.196 L177.441 286.835 Z" fill="#000000" fill-rule="nonzero" fill-opacity="1" /><path clip-path="url(#clip750)" d="M145.335 185.821 Q148.691 186.538 150.566 188.807 Q152.464 191.075 152.464 194.409 Q152.464 199.524 148.946 202.325 Q145.427 205.126 138.946 205.126 Q136.77 205.126 134.455 204.686 Q132.163 204.27 129.71 203.413 L129.71 198.899 Q131.654 200.034 133.969 200.612 Q136.284 201.191 138.807 201.191 Q143.205 201.191 145.497 199.455 Q147.811 197.719 147.811 194.409 Q147.811 191.353 145.659 189.64 Q143.529 187.904 139.71 187.904 L135.682 187.904 L135.682 184.061 L139.895 184.061 Q143.344 184.061 145.173 182.696 Q147.001 181.307 147.001 178.714 Q147.001 176.052 145.103 174.64 Q143.228 173.205 139.71 173.205 Q137.788 173.205 135.589 173.622 Q133.39 174.038 130.751 174.918 L130.751 170.751 Q133.413 170.011 135.728 169.64 Q138.066 169.27 140.126 169.27 Q145.45 169.27 148.552 171.7 Q151.654 174.108 151.654 178.228 Q151.654 181.098 150.011 183.089 Q148.367 185.057 145.335 185.821 Z" fill="#000000" fill-rule="nonzero" fill-opacity="1" /><path clip-path="url(#clip750)" d="M161.33 198.575 L166.214 198.575 L166.214 204.455 L161.33 204.455 L161.33 198.575 Z" fill="#000000" fill-rule="nonzero" fill-opacity="1" /><path clip-path="url(#clip750)" d="M186.399 172.974 Q182.788 172.974 180.959 176.538 Q179.154 180.08 179.154 187.21 Q179.154 194.316 180.959 197.881 Q182.788 201.422 186.399 201.422 Q190.033 201.422 191.839 197.881 Q193.668 194.316 193.668 187.21 Q193.668 180.08 191.839 176.538 Q190.033 172.974 186.399 172.974 M186.399 169.27 Q192.209 169.27 195.265 173.876 Q198.344 178.46 198.344 187.21 Q198.344 195.936 195.265 200.543 Q192.209 205.126 186.399 205.126 Q180.589 205.126 177.51 200.543 Q174.455 195.936 174.455 187.21 Q174.455 178.46 177.51 173.876 Q180.589 169.27 186.399 169.27 Z" fill="#000000" fill-rule="nonzero" fill-opacity="1" /><path clip-path="url(#clip750)" d="M146.33 68.8801 Q149.686 69.5976 151.561 71.8661 Q153.46 74.1347 153.46 77.468 Q153.46 82.5837 149.941 85.3846 Q146.423 88.1855 139.941 88.1855 Q137.765 88.1855 135.45 87.7457 Q133.159 87.329 130.705 86.4726 L130.705 81.9587 Q132.65 83.0929 134.964 83.6716 Q137.279 84.2503 139.802 84.2503 Q144.2 84.2503 146.492 82.5142 Q148.807 80.7781 148.807 77.468 Q148.807 74.4124 146.654 72.6995 Q144.524 70.9634 140.705 70.9634 L136.677 70.9634 L136.677 67.1208 L140.89 67.1208 Q144.339 67.1208 146.168 65.7551 Q147.997 64.3662 147.997 61.7736 Q147.997 59.1116 146.099 57.6996 Q144.224 56.2644 140.705 56.2644 Q138.784 56.2644 136.585 56.681 Q134.386 57.0977 131.747 57.9773 L131.747 53.8107 Q134.409 53.07 136.724 52.6996 Q139.062 52.3292 141.122 52.3292 Q146.446 52.3292 149.548 54.7598 Q152.649 57.1672 152.649 61.2875 Q152.649 64.1579 151.006 66.1486 Q149.362 68.1162 146.33 68.8801 Z" fill="#000000" fill-rule="nonzero" fill-opacity="1" /><path clip-path="url(#clip750)" d="M162.325 81.6346 L167.21 81.6346 L167.21 87.5142 L162.325 87.5142 L162.325 81.6346 Z" fill="#000000" fill-rule="nonzero" fill-opacity="1" /><path clip-path="url(#clip750)" d="M177.441 52.9542 L195.797 52.9542 L195.797 56.8894 L181.723 56.8894 L181.723 65.3616 Q182.742 65.0143 183.76 64.8523 Q184.779 64.6671 185.797 64.6671 Q191.584 64.6671 194.964 67.8384 Q198.344 71.0097 198.344 76.4263 Q198.344 82.005 194.871 85.1068 Q191.399 88.1855 185.08 88.1855 Q182.904 88.1855 180.635 87.8151 Q178.39 87.4448 175.983 86.704 L175.983 82.005 Q178.066 83.1392 180.288 83.6948 Q182.51 84.2503 184.987 84.2503 Q188.992 84.2503 191.33 82.1439 Q193.668 80.0374 193.668 76.4263 Q193.668 72.8152 191.33 70.7087 Q188.992 68.6023 184.987 68.6023 Q183.112 68.6023 181.237 69.0189 Q179.385 69.4356 177.441 70.3152 L177.441 52.9542 Z" fill="#000000" fill-rule="nonzero" fill-opacity="1" /><path clip-path="url(#clip750)" d="M52.7149 772.084 Q53.4151 770.015 55.7068 768.074 Q57.9984 766.101 62.0088 764.127 L74.9949 757.602 L74.9949 764.509 L62.8045 770.588 Q58.0302 772.944 56.4706 775.172 Q54.911 777.368 54.911 781.187 L54.911 788.19 L74.9949 788.19 L74.9949 794.619 L27.4749 794.619 L27.4749 780.105 Q27.4749 771.957 30.8805 767.947 Q34.2862 763.936 41.1611 763.936 Q45.6489 763.936 48.609 766.037 Q51.5691 768.106 52.7149 772.084 M32.7584 788.19 L49.6275 788.19 L49.6275 780.105 Q49.6275 775.458 47.495 773.103 Q45.3307 770.716 41.1611 770.716 Q36.9916 770.716 34.8909 773.103 Q32.7584 775.458 32.7584 780.105 L32.7584 788.19 Z" fill="#000000" fill-rule="nonzero" fill-opacity="1" /><path clip-path="url(#clip750)" d="M55.7068 722.018 L58.5713 722.018 L58.5713 748.945 Q64.6188 748.563 67.8016 745.317 Q70.9526 742.038 70.9526 736.214 Q70.9526 732.84 70.1251 729.689 Q69.2975 726.506 67.6425 723.387 L73.1806 723.387 Q74.5174 726.538 75.2177 729.848 Q75.9179 733.158 75.9179 736.564 Q75.9179 745.094 70.9526 750.091 Q65.9874 755.056 57.521 755.056 Q48.7681 755.056 43.6437 750.345 Q38.4875 745.603 38.4875 737.582 Q38.4875 730.389 43.1345 726.219 Q47.7496 722.018 55.7068 722.018 M53.988 727.874 Q49.1819 727.938 46.3173 730.58 Q43.4528 733.19 43.4528 737.519 Q43.4528 742.42 46.2219 745.38 Q48.9909 748.308 54.0198 748.754 L53.988 727.874 Z" fill="#000000" fill-rule="nonzero" fill-opacity="1" /><path clip-path="url(#clip750)" d="M69.6477 706.74 L88.5538 706.74 L88.5538 712.629 L39.3469 712.629 L39.3469 706.74 L44.7577 706.74 Q41.5749 704.894 40.0471 702.093 Q38.4875 699.261 38.4875 695.346 Q38.4875 688.853 43.6437 684.81 Q48.8 680.736 57.2027 680.736 Q65.6054 680.736 70.7617 684.81 Q75.9179 688.853 75.9179 695.346 Q75.9179 699.261 74.3901 702.093 Q72.8305 704.894 69.6477 706.74 M57.2027 686.816 Q50.7415 686.816 47.0812 689.489 Q43.3891 692.131 43.3891 696.778 Q43.3891 701.425 47.0812 704.099 Q50.7415 706.74 57.2027 706.74 Q63.6639 706.74 67.356 704.099 Q71.0163 701.425 71.0163 696.778 Q71.0163 692.131 67.356 689.489 Q63.6639 686.816 57.2027 686.816 Z" fill="#000000" fill-rule="nonzero" fill-opacity="1" /><path clip-path="url(#clip750)" d="M44.8214 650.372 Q44.2485 651.359 43.9939 652.536 Q43.7074 653.682 43.7074 655.083 Q43.7074 660.048 46.9539 662.721 Q50.1686 665.363 56.216 665.363 L74.9949 665.363 L74.9949 671.252 L39.3469 671.252 L39.3469 665.363 L44.8851 665.363 Q41.6386 663.517 40.079 660.557 Q38.4875 657.597 38.4875 653.364 Q38.4875 652.759 38.583 652.027 Q38.6467 651.295 38.8058 650.404 L44.8214 650.372 Z" fill="#000000" fill-rule="nonzero" fill-opacity="1" /><path clip-path="url(#clip750)" d="M43.4528 631.848 Q43.4528 636.558 47.1449 639.296 Q50.8052 642.033 57.2027 642.033 Q63.6002 642.033 67.2923 639.327 Q70.9526 636.59 70.9526 631.848 Q70.9526 627.169 67.2605 624.432 Q63.5684 621.694 57.2027 621.694 Q50.8688 621.694 47.1767 624.432 Q43.4528 627.169 43.4528 631.848 M38.4875 631.848 Q38.4875 624.209 43.4528 619.848 Q48.418 615.488 57.2027 615.488 Q65.9555 615.488 70.9526 619.848 Q75.9179 624.209 75.9179 631.848 Q75.9179 639.518 70.9526 643.879 Q65.9555 648.208 57.2027 648.208 Q48.418 648.208 43.4528 643.879 Q38.4875 639.518 38.4875 631.848 Z" fill="#000000" fill-rule="nonzero" fill-opacity="1" /><path clip-path="url(#clip750)" d="M44.7577 582.323 L25.4697 582.323 L25.4697 576.466 L74.9949 576.466 L74.9949 582.323 L69.6477 582.323 Q72.8305 584.169 74.3901 587.001 Q75.9179 589.802 75.9179 593.749 Q75.9179 600.21 70.7617 604.284 Q65.6054 608.327 57.2027 608.327 Q48.8 608.327 43.6437 604.284 Q38.4875 600.21 38.4875 593.749 Q38.4875 589.802 40.0471 587.001 Q41.5749 584.169 44.7577 582.323 M57.2027 602.279 Q63.6639 602.279 67.356 599.637 Q71.0163 596.964 71.0163 592.317 Q71.0163 587.67 67.356 584.996 Q63.6639 582.323 57.2027 582.323 Q50.7415 582.323 47.0812 584.996 Q43.3891 587.67 43.3891 592.317 Q43.3891 596.964 47.0812 599.637 Q50.7415 602.279 57.2027 602.279 Z" fill="#000000" fill-rule="nonzero" fill-opacity="1" /><path clip-path="url(#clip750)" d="M60.9266 565.008 L39.3469 565.008 L39.3469 559.151 L60.7038 559.151 Q65.7646 559.151 68.3109 557.178 Q70.8253 555.205 70.8253 551.258 Q70.8253 546.515 67.8016 543.778 Q64.7779 541.009 59.558 541.009 L39.3469 541.009 L39.3469 535.153 L74.9949 535.153 L74.9949 541.009 L69.5203 541.009 Q72.7669 543.142 74.3583 545.974 Q75.9179 548.775 75.9179 552.499 Q75.9179 558.642 72.0985 561.825 Q68.279 565.008 60.9266 565.008 M38.4875 550.271 L38.4875 550.271 Z" fill="#000000" fill-rule="nonzero" fill-opacity="1" /><path clip-path="url(#clip750)" d="M40.7155 497.436 L46.19 497.436 Q44.8214 499.919 44.153 502.433 Q43.4528 504.916 43.4528 507.462 Q43.4528 513.159 47.0812 516.31 Q50.6779 519.461 57.2027 519.461 Q63.7276 519.461 67.356 516.31 Q70.9526 513.159 70.9526 507.462 Q70.9526 504.916 70.2842 502.433 Q69.584 499.919 68.2154 497.436 L73.6262 497.436 Q74.7721 499.887 75.345 502.528 Q75.9179 505.138 75.9179 508.098 Q75.9179 516.151 70.8571 520.894 Q65.7964 525.636 57.2027 525.636 Q48.4817 525.636 43.4846 520.862 Q38.4875 516.056 38.4875 507.717 Q38.4875 505.011 39.0604 502.433 Q39.6015 499.855 40.7155 497.436 Z" fill="#000000" fill-rule="nonzero" fill-opacity="1" /><path clip-path="url(#clip750)" d="M29.2254 481.458 L39.3469 481.458 L39.3469 469.395 L43.8984 469.395 L43.8984 481.458 L63.2501 481.458 Q67.6106 481.458 68.8519 480.28 Q70.0933 479.071 70.0933 475.411 L70.0933 469.395 L74.9949 469.395 L74.9949 475.411 Q74.9949 482.19 72.4804 484.768 Q69.9341 487.346 63.2501 487.346 L43.8984 487.346 L43.8984 491.643 L39.3469 491.643 L39.3469 487.346 L29.2254 487.346 L29.2254 481.458 Z" fill="#000000" fill-rule="nonzero" fill-opacity="1" /><path clip-path="url(#clip750)" d="M39.3469 461.692 L39.3469 455.836 L74.9949 455.836 L74.9949 461.692 L39.3469 461.692 M25.4697 461.692 L25.4697 455.836 L32.8857 455.836 L32.8857 461.692 L25.4697 461.692 Z" fill="#000000" fill-rule="nonzero" fill-opacity="1" /><path clip-path="url(#clip750)" d="M43.4528 429.768 Q43.4528 434.479 47.1449 437.216 Q50.8052 439.954 57.2027 439.954 Q63.6002 439.954 67.2923 437.248 Q70.9526 434.511 70.9526 429.768 Q70.9526 425.09 67.2605 422.352 Q63.5684 419.615 57.2027 419.615 Q50.8688 419.615 47.1767 422.352 Q43.4528 425.09 43.4528 429.768 M38.4875 429.768 Q38.4875 422.13 43.4528 417.769 Q48.418 413.409 57.2027 413.409 Q65.9555 413.409 70.9526 417.769 Q75.9179 422.13 75.9179 429.768 Q75.9179 437.439 70.9526 441.8 Q65.9555 446.128 57.2027 446.128 Q48.418 446.128 43.4528 441.8 Q38.4875 437.439 38.4875 429.768 Z" fill="#000000" fill-rule="nonzero" fill-opacity="1" /><path clip-path="url(#clip750)" d="M53.4788 374.068 L74.9949 374.068 L74.9949 379.925 L53.6697 379.925 Q48.609 379.925 46.0945 381.898 Q43.5801 383.872 43.5801 387.818 Q43.5801 392.561 46.6038 395.298 Q49.6275 398.035 54.8474 398.035 L74.9949 398.035 L74.9949 403.924 L39.3469 403.924 L39.3469 398.035 L44.8851 398.035 Q41.6704 395.935 40.079 393.102 Q38.4875 390.237 38.4875 386.513 Q38.4875 380.371 42.3069 377.22 Q46.0945 374.068 53.4788 374.068 Z" fill="#000000" fill-rule="nonzero" fill-opacity="1" /><path clip-path="url(#clip750)" d="M53.4788 312.035 L74.9949 312.035 L74.9949 317.891 L53.6697 317.891 Q48.609 317.891 46.0945 319.865 Q43.5801 321.838 43.5801 325.785 Q43.5801 330.527 46.6038 333.264 Q49.6275 336.002 54.8474 336.002 L74.9949 336.002 L74.9949 341.89 L39.3469 341.89 L39.3469 336.002 L44.8851 336.002 Q41.6704 333.901 40.079 331.068 Q38.4875 328.204 38.4875 324.48 Q38.4875 318.337 42.3069 315.186 Q46.0945 312.035 53.4788 312.035 Z" fill="#000000" fill-rule="nonzero" fill-opacity="1" /><path clip-path="url(#clip750)" d="M60.9266 300.958 L39.3469 300.958 L39.3469 295.102 L60.7038 295.102 Q65.7646 295.102 68.3109 293.129 Q70.8253 291.155 70.8253 287.208 Q70.8253 282.466 67.8016 279.729 Q64.7779 276.96 59.558 276.96 L39.3469 276.96 L39.3469 271.103 L74.9949 271.103 L74.9949 276.96 L69.5203 276.96 Q72.7669 279.092 74.3583 281.925 Q75.9179 284.726 75.9179 288.45 Q75.9179 294.593 72.0985 297.776 Q68.279 300.958 60.9266 300.958 M38.4875 286.222 L38.4875 286.222 Z" fill="#000000" fill-rule="nonzero" fill-opacity="1" /><path clip-path="url(#clip750)" d="M46.19 231.286 Q42.2433 229.09 40.3654 226.034 Q38.4875 222.978 38.4875 218.841 Q38.4875 213.271 42.4024 210.247 Q46.2855 207.223 53.4788 207.223 L74.9949 207.223 L74.9949 213.112 L53.6697 213.112 Q48.5453 213.112 46.0627 214.926 Q43.5801 216.74 43.5801 220.464 Q43.5801 225.015 46.6038 227.657 Q49.6275 230.299 54.8474 230.299 L74.9949 230.299 L74.9949 236.187 L53.6697 236.187 Q48.5135 236.187 46.0627 238.002 Q43.5801 239.816 43.5801 243.603 Q43.5801 248.091 46.6356 250.733 Q49.6593 253.375 54.8474 253.375 L74.9949 253.375 L74.9949 259.263 L39.3469 259.263 L39.3469 253.375 L44.8851 253.375 Q41.6067 251.37 40.0471 248.569 Q38.4875 245.768 38.4875 241.916 Q38.4875 238.033 40.4609 235.328 Q42.4343 232.591 46.19 231.286 Z" fill="#000000" fill-rule="nonzero" fill-opacity="1" /><path clip-path="url(#clip750)" d="M57.2027 169.952 Q50.7415 169.952 47.0812 172.626 Q43.3891 175.267 43.3891 179.914 Q43.3891 184.561 47.0812 187.235 Q50.7415 189.877 57.2027 189.877 Q63.6639 189.877 67.356 187.235 Q71.0163 184.561 71.0163 179.914 Q71.0163 175.267 67.356 172.626 Q63.6639 169.952 57.2027 169.952 M44.7577 189.877 Q41.5749 188.031 40.0471 185.23 Q38.4875 182.397 38.4875 178.482 Q38.4875 171.989 43.6437 167.947 Q48.8 163.873 57.2027 163.873 Q65.6054 163.873 70.7617 167.947 Q75.9179 171.989 75.9179 178.482 Q75.9179 182.397 74.3901 185.23 Q72.8305 188.031 69.6477 189.877 L74.9949 189.877 L74.9949 195.765 L25.4697 195.765 L25.4697 189.877 L44.7577 189.877 Z" fill="#000000" fill-rule="nonzero" fill-opacity="1" /><path clip-path="url(#clip750)" d="M55.7068 123.673 L58.5713 123.673 L58.5713 150.6 Q64.6188 150.218 67.8016 146.972 Q70.9526 143.694 70.9526 137.869 Q70.9526 134.495 70.1251 131.344 Q69.2975 128.161 67.6425 125.042 L73.1806 125.042 Q74.5174 128.193 75.2177 131.503 Q75.9179 134.813 75.9179 138.219 Q75.9179 146.749 70.9526 151.746 Q65.9874 156.711 57.521 156.711 Q48.7681 156.711 43.6437 152.001 Q38.4875 147.258 38.4875 139.238 Q38.4875 132.044 43.1345 127.875 Q47.7496 123.673 55.7068 123.673 M53.988 129.53 Q49.1819 129.594 46.3173 132.235 Q43.4528 134.845 43.4528 139.174 Q43.4528 144.076 46.2219 147.036 Q48.9909 149.964 54.0198 150.409 L53.988 129.53 Z" fill="#000000" fill-rule="nonzero" fill-opacity="1" /><path clip-path="url(#clip750)" d="M44.8214 93.4045 Q44.2485 94.3912 43.9939 95.5688 Q43.7074 96.7147 43.7074 98.1151 Q43.7074 103.08 46.9539 105.754 Q50.1686 108.396 56.216 108.396 L74.9949 108.396 L74.9949 114.284 L39.3469 114.284 L39.3469 108.396 L44.8851 108.396 Q41.6386 106.55 40.079 103.59 Q38.4875 100.63 38.4875 96.3964 Q38.4875 95.7916 38.583 95.0596 Q38.6467 94.3275 38.8058 93.4363 L44.8214 93.4045 Z" fill="#000000" fill-rule="nonzero" fill-opacity="1" /><polyline clip-path="url(#clip752)" style="stroke:#009af9; stroke-linecap:round; stroke-linejoin:round; stroke-width:4; stroke-opacity:1; fill:none" points="306.647,421.056 329.538,402.094 352.428,429.895 375.318,371.269 398.208,349.667 421.098,207.508 443.988,69.7026 466.878,114.919 489.769,168.72 512.659,219.378 535.549,233.941 558.439,238.156 581.329,265.328 604.219,323.545 627.109,422.485 650,495.268 672.89,458.59 695.78,502.104 718.67,547.125 741.56,579.548 764.45,616.586 787.341,561.691 810.231,549.902 833.121,601.452 856.011,592.204 878.901,546.066 901.791,513.955 924.681,526.035 947.572,486.483 970.462,518.81 993.352,501.27 1016.24,548.827 1039.13,549.43 1062.02,550.981 1084.91,574.515 1107.8,505.29 1130.69,548.325 1153.58,549.444 1176.47,545.743 1199.36,599.346 1222.25,597.848 1245.14,610.087 1268.03,664.129 1290.92,699.631 1313.81,710.853 1336.7,702.998 1359.59,718.811 1382.48,719.445 1405.37,739.727 1428.26,749.014 1451.15,745.916 1474.04,755.068 1496.94,765.999 1519.83,782.781 1542.72,792.614 1565.61,791.57 1588.5,797.976 1611.39,796.529 1634.28,803.787 1657.17,814.618 1680.06,813.84 1702.95,818.321 1725.84,817.544 1748.73,813.519 1771.62,813.681 1794.51,794.442 1817.4,789.464 1840.29,789.64 1863.18,797.159 1886.07,787.255 1908.96,755.448 1931.85,760.009 1954.74,765.767 1977.63,780.239 2000.52,760.375 2023.41,744.645 2046.3,742.755 2069.19,761.863 2092.08,767.992 2114.97,753.625 2137.86,770.905 2160.75,749.556 2183.64,721.39 2206.53,759.867 2229.42,767.381 2252.31,776.847 2275.2,759.837 2298.09,748.548 2320.98,776.424 2343.87,752.319 2366.76,738.682 2389.65,748.421 2412.54,731.341 2435.43,738.704 2458.32,738.529 2481.21,770.334 2504.1,784.093 2526.99,780.679 2549.88,794.557 2572.77,790.384 "/>
<path clip-path="url(#clip750)" d="M238.664 1800.78 L2640.76 1800.78 L2640.76 1007.24 L238.664 1007.24  Z" fill="#ffffff" fill-rule="evenodd" fill-opacity="1"/>
<defs>
  <clipPath id="clip753">
    <rect x="238" y="1007" width="2403" height="795"/>
  </clipPath>
</defs>
<polyline clip-path="url(#clip753)" style="stroke:#000000; stroke-linecap:round; stroke-linejoin:round; stroke-width:2; stroke-opacity:0.1; fill:none" points="283.757,1800.78 283.757,1007.24 "/>
<polyline clip-path="url(#clip753)" style="stroke:#000000; stroke-linecap:round; stroke-linejoin:round; stroke-width:2; stroke-opacity:0.1; fill:none" points="856.011,1800.78 856.011,1007.24 "/>
<polyline clip-path="url(#clip753)" style="stroke:#000000; stroke-linecap:round; stroke-linejoin:round; stroke-width:2; stroke-opacity:0.1; fill:none" points="1428.26,1800.78 1428.26,1007.24 "/>
<polyline clip-path="url(#clip753)" style="stroke:#000000; stroke-linecap:round; stroke-linejoin:round; stroke-width:2; stroke-opacity:0.1; fill:none" points="2000.52,1800.78 2000.52,1007.24 "/>
<polyline clip-path="url(#clip753)" style="stroke:#000000; stroke-linecap:round; stroke-linejoin:round; stroke-width:2; stroke-opacity:0.1; fill:none" points="2572.77,1800.78 2572.77,1007.24 "/>
<polyline clip-path="url(#clip750)" style="stroke:#000000; stroke-linecap:round; stroke-linejoin:round; stroke-width:4; stroke-opacity:1; fill:none" points="238.664,1800.78 2640.76,1800.78 "/>
<polyline clip-path="url(#clip750)" style="stroke:#000000; stroke-linecap:round; stroke-linejoin:round; stroke-width:4; stroke-opacity:1; fill:none" points="283.757,1800.78 283.757,1781.88 "/>
<polyline clip-path="url(#clip750)" style="stroke:#000000; stroke-linecap:round; stroke-linejoin:round; stroke-width:4; stroke-opacity:1; fill:none" points="856.011,1800.78 856.011,1781.88 "/>
<polyline clip-path="url(#clip750)" style="stroke:#000000; stroke-linecap:round; stroke-linejoin:round; stroke-width:4; stroke-opacity:1; fill:none" points="1428.26,1800.78 1428.26,1781.88 "/>
<polyline clip-path="url(#clip750)" style="stroke:#000000; stroke-linecap:round; stroke-linejoin:round; stroke-width:4; stroke-opacity:1; fill:none" points="2000.52,1800.78 2000.52,1781.88 "/>
<polyline clip-path="url(#clip750)" style="stroke:#000000; stroke-linecap:round; stroke-linejoin:round; stroke-width:4; stroke-opacity:1; fill:none" points="2572.77,1800.78 2572.77,1781.88 "/>
<path clip-path="url(#clip750)" d="M283.757 1834 Q280.146 1834 278.317 1837.57 Q276.512 1841.11 276.512 1848.24 Q276.512 1855.34 278.317 1858.91 Q280.146 1862.45 283.757 1862.45 Q287.391 1862.45 289.197 1858.91 Q291.026 1855.34 291.026 1848.24 Q291.026 1841.11 289.197 1837.57 Q287.391 1834 283.757 1834 M283.757 1830.3 Q289.567 1830.3 292.623 1834.9 Q295.702 1839.49 295.702 1848.24 Q295.702 1856.96 292.623 1861.57 Q289.567 1866.15 283.757 1866.15 Q277.947 1866.15 274.868 1861.57 Q271.813 1856.96 271.813 1848.24 Q271.813 1839.49 274.868 1834.9 Q277.947 1830.3 283.757 1830.3 Z" fill="#000000" fill-rule="nonzero" fill-opacity="1" /><path clip-path="url(#clip750)" d="M835.282 1861.55 L851.601 1861.55 L851.601 1865.48 L829.657 1865.48 L829.657 1861.55 Q832.319 1858.79 836.902 1854.16 Q841.509 1849.51 842.689 1848.17 Q844.935 1845.65 845.814 1843.91 Q846.717 1842.15 846.717 1840.46 Q846.717 1837.71 844.773 1835.97 Q842.851 1834.23 839.749 1834.23 Q837.55 1834.23 835.097 1835 Q832.666 1835.76 829.888 1837.31 L829.888 1832.59 Q832.712 1831.46 835.166 1830.88 Q837.62 1830.3 839.657 1830.3 Q845.027 1830.3 848.222 1832.98 Q851.416 1835.67 851.416 1840.16 Q851.416 1842.29 850.606 1844.21 Q849.819 1846.11 847.712 1848.7 Q847.134 1849.37 844.032 1852.59 Q840.93 1855.78 835.282 1861.55 Z" fill="#000000" fill-rule="nonzero" fill-opacity="1" /><path clip-path="url(#clip750)" d="M861.462 1830.92 L879.819 1830.92 L879.819 1834.86 L865.745 1834.86 L865.745 1843.33 Q866.763 1842.98 867.782 1842.82 Q868.8 1842.64 869.819 1842.64 Q875.606 1842.64 878.985 1845.81 Q882.365 1848.98 882.365 1854.4 Q882.365 1859.97 878.893 1863.08 Q875.421 1866.15 869.101 1866.15 Q866.925 1866.15 864.657 1865.78 Q862.411 1865.41 860.004 1864.67 L860.004 1859.97 Q862.087 1861.11 864.31 1861.66 Q866.532 1862.22 869.009 1862.22 Q873.013 1862.22 875.351 1860.11 Q877.689 1858.01 877.689 1854.4 Q877.689 1850.78 875.351 1848.68 Q873.013 1846.57 869.009 1846.57 Q867.134 1846.57 865.259 1846.99 Q863.407 1847.4 861.462 1848.28 L861.462 1830.92 Z" fill="#000000" fill-rule="nonzero" fill-opacity="1" /><path clip-path="url(#clip750)" d="M1402.96 1830.92 L1421.32 1830.92 L1421.32 1834.86 L1407.25 1834.86 L1407.25 1843.33 Q1408.26 1842.98 1409.28 1842.82 Q1410.3 1842.64 1411.32 1842.64 Q1417.11 1842.64 1420.49 1845.81 Q1423.87 1848.98 1423.87 1854.4 Q1423.87 1859.97 1420.39 1863.08 Q1416.92 1866.15 1410.6 1866.15 Q1408.43 1866.15 1406.16 1865.78 Q1403.91 1865.41 1401.51 1864.67 L1401.51 1859.97 Q1403.59 1861.11 1405.81 1861.66 Q1408.03 1862.22 1410.51 1862.22 Q1414.51 1862.22 1416.85 1860.11 Q1419.19 1858.01 1419.19 1854.4 Q1419.19 1850.78 1416.85 1848.68 Q1414.51 1846.57 1410.51 1846.57 Q1408.64 1846.57 1406.76 1846.99 Q1404.91 1847.4 1402.96 1848.28 L1402.96 1830.92 Z" fill="#000000" fill-rule="nonzero" fill-opacity="1" /><path clip-path="url(#clip750)" d="M1443.08 1834 Q1439.47 1834 1437.64 1837.57 Q1435.83 1841.11 1435.83 1848.24 Q1435.83 1855.34 1437.64 1858.91 Q1439.47 1862.45 1443.08 1862.45 Q1446.71 1862.45 1448.52 1858.91 Q1450.35 1855.34 1450.35 1848.24 Q1450.35 1841.11 1448.52 1837.57 Q1446.71 1834 1443.08 1834 M1443.08 1830.3 Q1448.89 1830.3 1451.95 1834.9 Q1455.02 1839.49 1455.02 1848.24 Q1455.02 1856.96 1451.95 1861.57 Q1448.89 1866.15 1443.08 1866.15 Q1437.27 1866.15 1434.19 1861.57 Q1431.14 1856.96 1431.14 1848.24 Q1431.14 1839.49 1434.19 1834.9 Q1437.27 1830.3 1443.08 1830.3 Z" fill="#000000" fill-rule="nonzero" fill-opacity="1" /><path clip-path="url(#clip750)" d="M1974.37 1830.92 L1996.59 1830.92 L1996.59 1832.91 L1984.05 1865.48 L1979.16 1865.48 L1990.97 1834.86 L1974.37 1834.86 L1974.37 1830.92 Z" fill="#000000" fill-rule="nonzero" fill-opacity="1" /><path clip-path="url(#clip750)" d="M2005.76 1830.92 L2024.12 1830.92 L2024.12 1834.86 L2010.04 1834.86 L2010.04 1843.33 Q2011.06 1842.98 2012.08 1842.82 Q2013.1 1842.64 2014.12 1842.64 Q2019.9 1842.64 2023.28 1845.81 Q2026.66 1848.98 2026.66 1854.4 Q2026.66 1859.97 2023.19 1863.08 Q2019.72 1866.15 2013.4 1866.15 Q2011.22 1866.15 2008.96 1865.78 Q2006.71 1865.41 2004.3 1864.67 L2004.3 1859.97 Q2006.39 1861.11 2008.61 1861.66 Q2010.83 1862.22 2013.31 1862.22 Q2017.31 1862.22 2019.65 1860.11 Q2021.99 1858.01 2021.99 1854.4 Q2021.99 1850.78 2019.65 1848.68 Q2017.31 1846.57 2013.31 1846.57 Q2011.43 1846.57 2009.56 1846.99 Q2007.71 1847.4 2005.76 1848.28 L2005.76 1830.92 Z" fill="#000000" fill-rule="nonzero" fill-opacity="1" /><path clip-path="url(#clip750)" d="M2532.38 1861.55 L2540.02 1861.55 L2540.02 1835.18 L2531.71 1836.85 L2531.71 1832.59 L2539.97 1830.92 L2544.65 1830.92 L2544.65 1861.55 L2552.29 1861.55 L2552.29 1865.48 L2532.38 1865.48 L2532.38 1861.55 Z" fill="#000000" fill-rule="nonzero" fill-opacity="1" /><path clip-path="url(#clip750)" d="M2571.73 1834 Q2568.12 1834 2566.29 1837.57 Q2564.49 1841.11 2564.49 1848.24 Q2564.49 1855.34 2566.29 1858.91 Q2568.12 1862.45 2571.73 1862.45 Q2575.36 1862.45 2577.17 1858.91 Q2579 1855.34 2579 1848.24 Q2579 1841.11 2577.17 1837.57 Q2575.36 1834 2571.73 1834 M2571.73 1830.3 Q2577.54 1830.3 2580.6 1834.9 Q2583.67 1839.49 2583.67 1848.24 Q2583.67 1856.96 2580.6 1861.57 Q2577.54 1866.15 2571.73 1866.15 Q2565.92 1866.15 2562.84 1861.57 Q2559.79 1856.96 2559.79 1848.24 Q2559.79 1839.49 2562.84 1834.9 Q2565.92 1830.3 2571.73 1830.3 Z" fill="#000000" fill-rule="nonzero" fill-opacity="1" /><path clip-path="url(#clip750)" d="M2601.89 1834 Q2598.28 1834 2596.45 1837.57 Q2594.65 1841.11 2594.65 1848.24 Q2594.65 1855.34 2596.45 1858.91 Q2598.28 1862.45 2601.89 1862.45 Q2605.53 1862.45 2607.33 1858.91 Q2609.16 1855.34 2609.16 1848.24 Q2609.16 1841.11 2607.33 1837.57 Q2605.53 1834 2601.89 1834 M2601.89 1830.3 Q2607.7 1830.3 2610.76 1834.9 Q2613.84 1839.49 2613.84 1848.24 Q2613.84 1856.96 2610.76 1861.57 Q2607.7 1866.15 2601.89 1866.15 Q2596.08 1866.15 2593 1861.57 Q2589.95 1856.96 2589.95 1848.24 Q2589.95 1839.49 2593 1834.9 Q2596.08 1830.3 2601.89 1830.3 Z" fill="#000000" fill-rule="nonzero" fill-opacity="1" /><polyline clip-path="url(#clip753)" style="stroke:#000000; stroke-linecap:round; stroke-linejoin:round; stroke-width:2; stroke-opacity:0.1; fill:none" points="238.664,1778.32 2640.76,1778.32 "/>
<polyline clip-path="url(#clip753)" style="stroke:#000000; stroke-linecap:round; stroke-linejoin:round; stroke-width:2; stroke-opacity:0.1; fill:none" points="238.664,1664.89 2640.76,1664.89 "/>
<polyline clip-path="url(#clip753)" style="stroke:#000000; stroke-linecap:round; stroke-linejoin:round; stroke-width:2; stroke-opacity:0.1; fill:none" points="238.664,1551.47 2640.76,1551.47 "/>
<polyline clip-path="url(#clip753)" style="stroke:#000000; stroke-linecap:round; stroke-linejoin:round; stroke-width:2; stroke-opacity:0.1; fill:none" points="238.664,1438.04 2640.76,1438.04 "/>
<polyline clip-path="url(#clip753)" style="stroke:#000000; stroke-linecap:round; stroke-linejoin:round; stroke-width:2; stroke-opacity:0.1; fill:none" points="238.664,1324.61 2640.76,1324.61 "/>
<polyline clip-path="url(#clip753)" style="stroke:#000000; stroke-linecap:round; stroke-linejoin:round; stroke-width:2; stroke-opacity:0.1; fill:none" points="238.664,1211.19 2640.76,1211.19 "/>
<polyline clip-path="url(#clip753)" style="stroke:#000000; stroke-linecap:round; stroke-linejoin:round; stroke-width:2; stroke-opacity:0.1; fill:none" points="238.664,1097.76 2640.76,1097.76 "/>
<polyline clip-path="url(#clip750)" style="stroke:#000000; stroke-linecap:round; stroke-linejoin:round; stroke-width:4; stroke-opacity:1; fill:none" points="238.664,1800.78 238.664,1007.24 "/>
<polyline clip-path="url(#clip750)" style="stroke:#000000; stroke-linecap:round; stroke-linejoin:round; stroke-width:4; stroke-opacity:1; fill:none" points="238.664,1778.32 257.561,1778.32 "/>
<polyline clip-path="url(#clip750)" style="stroke:#000000; stroke-linecap:round; stroke-linejoin:round; stroke-width:4; stroke-opacity:1; fill:none" points="238.664,1664.89 257.561,1664.89 "/>
<polyline clip-path="url(#clip750)" style="stroke:#000000; stroke-linecap:round; stroke-linejoin:round; stroke-width:4; stroke-opacity:1; fill:none" points="238.664,1551.47 257.561,1551.47 "/>
<polyline clip-path="url(#clip750)" style="stroke:#000000; stroke-linecap:round; stroke-linejoin:round; stroke-width:4; stroke-opacity:1; fill:none" points="238.664,1438.04 257.561,1438.04 "/>
<polyline clip-path="url(#clip750)" style="stroke:#000000; stroke-linecap:round; stroke-linejoin:round; stroke-width:4; stroke-opacity:1; fill:none" points="238.664,1324.61 257.561,1324.61 "/>
<polyline clip-path="url(#clip750)" style="stroke:#000000; stroke-linecap:round; stroke-linejoin:round; stroke-width:4; stroke-opacity:1; fill:none" points="238.664,1211.19 257.561,1211.19 "/>
<polyline clip-path="url(#clip750)" style="stroke:#000000; stroke-linecap:round; stroke-linejoin:round; stroke-width:4; stroke-opacity:1; fill:none" points="238.664,1097.76 257.561,1097.76 "/>
<path clip-path="url(#clip750)" d="M186.399 1764.12 Q182.788 1764.12 180.959 1767.68 Q179.154 1771.23 179.154 1778.36 Q179.154 1785.46 180.959 1789.03 Q182.788 1792.57 186.399 1792.57 Q190.033 1792.57 191.839 1789.03 Q193.668 1785.46 193.668 1778.36 Q193.668 1771.23 191.839 1767.68 Q190.033 1764.12 186.399 1764.12 M186.399 1760.42 Q192.209 1760.42 195.265 1765.02 Q198.344 1769.61 198.344 1778.36 Q198.344 1787.08 195.265 1791.69 Q192.209 1796.27 186.399 1796.27 Q180.589 1796.27 177.51 1791.69 Q174.455 1787.08 174.455 1778.36 Q174.455 1769.61 177.51 1765.02 Q180.589 1760.42 186.399 1760.42 Z" fill="#000000" fill-rule="nonzero" fill-opacity="1" /><path clip-path="url(#clip750)" d="M150.265 1678.24 L166.585 1678.24 L166.585 1682.17 L144.64 1682.17 L144.64 1678.24 Q147.302 1675.48 151.886 1670.85 Q156.492 1666.2 157.673 1664.86 Q159.918 1662.34 160.798 1660.6 Q161.7 1658.84 161.7 1657.15 Q161.7 1654.4 159.756 1652.66 Q157.835 1650.92 154.733 1650.92 Q152.534 1650.92 150.08 1651.69 Q147.649 1652.45 144.872 1654 L144.872 1649.28 Q147.696 1648.15 150.149 1647.57 Q152.603 1646.99 154.64 1646.99 Q160.011 1646.99 163.205 1649.67 Q166.399 1652.36 166.399 1656.85 Q166.399 1658.98 165.589 1660.9 Q164.802 1662.8 162.696 1665.39 Q162.117 1666.06 159.015 1669.28 Q155.913 1672.47 150.265 1678.24 Z" fill="#000000" fill-rule="nonzero" fill-opacity="1" /><path clip-path="url(#clip750)" d="M186.399 1650.69 Q182.788 1650.69 180.959 1654.26 Q179.154 1657.8 179.154 1664.93 Q179.154 1672.03 180.959 1675.6 Q182.788 1679.14 186.399 1679.14 Q190.033 1679.14 191.839 1675.6 Q193.668 1672.03 193.668 1664.93 Q193.668 1657.8 191.839 1654.26 Q190.033 1650.69 186.399 1650.69 M186.399 1646.99 Q192.209 1646.99 195.265 1651.6 Q198.344 1656.18 198.344 1664.93 Q198.344 1673.66 195.265 1678.26 Q192.209 1682.85 186.399 1682.85 Q180.589 1682.85 177.51 1678.26 Q174.455 1673.66 174.455 1664.93 Q174.455 1656.18 177.51 1651.6 Q180.589 1646.99 186.399 1646.99 Z" fill="#000000" fill-rule="nonzero" fill-opacity="1" /><path clip-path="url(#clip750)" d="M159.085 1538.26 L147.279 1556.71 L159.085 1556.71 L159.085 1538.26 M157.858 1534.19 L163.737 1534.19 L163.737 1556.71 L168.668 1556.71 L168.668 1560.6 L163.737 1560.6 L163.737 1568.75 L159.085 1568.75 L159.085 1560.6 L143.483 1560.6 L143.483 1556.08 L157.858 1534.19 Z" fill="#000000" fill-rule="nonzero" fill-opacity="1" /><path clip-path="url(#clip750)" d="M186.399 1537.27 Q182.788 1537.27 180.959 1540.83 Q179.154 1544.37 179.154 1551.5 Q179.154 1558.61 180.959 1562.17 Q182.788 1565.71 186.399 1565.71 Q190.033 1565.71 191.839 1562.17 Q193.668 1558.61 193.668 1551.5 Q193.668 1544.37 191.839 1540.83 Q190.033 1537.27 186.399 1537.27 M186.399 1533.56 Q192.209 1533.56 195.265 1538.17 Q198.344 1542.75 198.344 1551.5 Q198.344 1560.23 195.265 1564.83 Q192.209 1569.42 186.399 1569.42 Q180.589 1569.42 177.51 1564.83 Q174.455 1560.23 174.455 1551.5 Q174.455 1542.75 177.51 1538.17 Q180.589 1533.56 186.399 1533.56 Z" fill="#000000" fill-rule="nonzero" fill-opacity="1" /><path clip-path="url(#clip750)" d="M156.816 1436.18 Q153.668 1436.18 151.816 1438.33 Q149.987 1440.48 149.987 1444.23 Q149.987 1447.96 151.816 1450.13 Q153.668 1452.29 156.816 1452.29 Q159.964 1452.29 161.793 1450.13 Q163.645 1447.96 163.645 1444.23 Q163.645 1440.48 161.793 1438.33 Q159.964 1436.18 156.816 1436.18 M166.098 1421.52 L166.098 1425.78 Q164.339 1424.95 162.534 1424.51 Q160.751 1424.07 158.992 1424.07 Q154.362 1424.07 151.909 1427.19 Q149.478 1430.32 149.131 1436.64 Q150.497 1434.63 152.557 1433.56 Q154.617 1432.47 157.094 1432.47 Q162.302 1432.47 165.311 1435.64 Q168.344 1438.79 168.344 1444.23 Q168.344 1449.56 165.196 1452.77 Q162.048 1455.99 156.816 1455.99 Q150.821 1455.99 147.649 1451.41 Q144.478 1446.8 144.478 1438.07 Q144.478 1429.88 148.367 1425.02 Q152.256 1420.13 158.807 1420.13 Q160.566 1420.13 162.348 1420.48 Q164.154 1420.83 166.098 1421.52 Z" fill="#000000" fill-rule="nonzero" fill-opacity="1" /><path clip-path="url(#clip750)" d="M186.399 1423.84 Q182.788 1423.84 180.959 1427.4 Q179.154 1430.94 179.154 1438.07 Q179.154 1445.18 180.959 1448.75 Q182.788 1452.29 186.399 1452.29 Q190.033 1452.29 191.839 1448.75 Q193.668 1445.18 193.668 1438.07 Q193.668 1430.94 191.839 1427.4 Q190.033 1423.84 186.399 1423.84 M186.399 1420.13 Q192.209 1420.13 195.265 1424.74 Q198.344 1429.32 198.344 1438.07 Q198.344 1446.8 195.265 1451.41 Q192.209 1455.99 186.399 1455.99 Q180.589 1455.99 177.51 1451.41 Q174.455 1446.8 174.455 1438.07 Q174.455 1429.32 177.51 1424.74 Q180.589 1420.13 186.399 1420.13 Z" fill="#000000" fill-rule="nonzero" fill-opacity="1" /><path clip-path="url(#clip750)" d="M156.237 1325.48 Q152.904 1325.48 150.983 1327.26 Q149.085 1329.05 149.085 1332.17 Q149.085 1335.3 150.983 1337.08 Q152.904 1338.86 156.237 1338.86 Q159.571 1338.86 161.492 1337.08 Q163.413 1335.27 163.413 1332.17 Q163.413 1329.05 161.492 1327.26 Q159.594 1325.48 156.237 1325.48 M151.561 1323.49 Q148.552 1322.75 146.862 1320.69 Q145.196 1318.63 145.196 1315.67 Q145.196 1311.52 148.136 1309.12 Q151.099 1306.71 156.237 1306.71 Q161.399 1306.71 164.339 1309.12 Q167.279 1311.52 167.279 1315.67 Q167.279 1318.63 165.589 1320.69 Q163.923 1322.75 160.936 1323.49 Q164.316 1324.28 166.191 1326.57 Q168.089 1328.86 168.089 1332.17 Q168.089 1337.19 165.01 1339.88 Q161.955 1342.56 156.237 1342.56 Q150.52 1342.56 147.441 1339.88 Q144.386 1337.19 144.386 1332.17 Q144.386 1328.86 146.284 1326.57 Q148.182 1324.28 151.561 1323.49 M149.849 1316.11 Q149.849 1318.79 151.515 1320.3 Q153.205 1321.8 156.237 1321.8 Q159.247 1321.8 160.936 1320.3 Q162.649 1318.79 162.649 1316.11 Q162.649 1313.42 160.936 1311.92 Q159.247 1310.41 156.237 1310.41 Q153.205 1310.41 151.515 1311.92 Q149.849 1313.42 149.849 1316.11 Z" fill="#000000" fill-rule="nonzero" fill-opacity="1" /><path clip-path="url(#clip750)" d="M186.399 1310.41 Q182.788 1310.41 180.959 1313.98 Q179.154 1317.52 179.154 1324.65 Q179.154 1331.75 180.959 1335.32 Q182.788 1338.86 186.399 1338.86 Q190.033 1338.86 191.839 1335.32 Q193.668 1331.75 193.668 1324.65 Q193.668 1317.52 191.839 1313.98 Q190.033 1310.41 186.399 1310.41 M186.399 1306.71 Q192.209 1306.71 195.265 1311.31 Q198.344 1315.9 198.344 1324.65 Q198.344 1333.37 195.265 1337.98 Q192.209 1342.56 186.399 1342.56 Q180.589 1342.56 177.51 1337.98 Q174.455 1333.37 174.455 1324.65 Q174.455 1315.9 177.51 1311.31 Q180.589 1306.71 186.399 1306.71 Z" fill="#000000" fill-rule="nonzero" fill-opacity="1" /><path clip-path="url(#clip750)" d="M116.886 1224.53 L124.525 1224.53 L124.525 1198.17 L116.214 1199.83 L116.214 1195.57 L124.478 1193.91 L129.154 1193.91 L129.154 1224.53 L136.793 1224.53 L136.793 1228.47 L116.886 1228.47 L116.886 1224.53 Z" fill="#000000" fill-rule="nonzero" fill-opacity="1" /><path clip-path="url(#clip750)" d="M156.237 1196.98 Q152.626 1196.98 150.798 1200.55 Q148.992 1204.09 148.992 1211.22 Q148.992 1218.33 150.798 1221.89 Q152.626 1225.43 156.237 1225.43 Q159.872 1225.43 161.677 1221.89 Q163.506 1218.33 163.506 1211.22 Q163.506 1204.09 161.677 1200.55 Q159.872 1196.98 156.237 1196.98 M156.237 1193.28 Q162.048 1193.28 165.103 1197.89 Q168.182 1202.47 168.182 1211.22 Q168.182 1219.95 165.103 1224.55 Q162.048 1229.14 156.237 1229.14 Q150.427 1229.14 147.349 1224.55 Q144.293 1219.95 144.293 1211.22 Q144.293 1202.47 147.349 1197.89 Q150.427 1193.28 156.237 1193.28 Z" fill="#000000" fill-rule="nonzero" fill-opacity="1" /><path clip-path="url(#clip750)" d="M186.399 1196.98 Q182.788 1196.98 180.959 1200.55 Q179.154 1204.09 179.154 1211.22 Q179.154 1218.33 180.959 1221.89 Q182.788 1225.43 186.399 1225.43 Q190.033 1225.43 191.839 1221.89 Q193.668 1218.33 193.668 1211.22 Q193.668 1204.09 191.839 1200.55 Q190.033 1196.98 186.399 1196.98 M186.399 1193.28 Q192.209 1193.28 195.265 1197.89 Q198.344 1202.47 198.344 1211.22 Q198.344 1219.95 195.265 1224.55 Q192.209 1229.14 186.399 1229.14 Q180.589 1229.14 177.51 1224.55 Q174.455 1219.95 174.455 1211.22 Q174.455 1202.47 177.51 1197.89 Q180.589 1193.28 186.399 1193.28 Z" fill="#000000" fill-rule="nonzero" fill-opacity="1" /><path clip-path="url(#clip750)" d="M116.886 1111.1 L124.525 1111.1 L124.525 1084.74 L116.214 1086.4 L116.214 1082.15 L124.478 1080.48 L129.154 1080.48 L129.154 1111.1 L136.793 1111.1 L136.793 1115.04 L116.886 1115.04 L116.886 1111.1 Z" fill="#000000" fill-rule="nonzero" fill-opacity="1" /><path clip-path="url(#clip750)" d="M150.265 1111.1 L166.585 1111.1 L166.585 1115.04 L144.64 1115.04 L144.64 1111.1 Q147.302 1108.35 151.886 1103.72 Q156.492 1099.07 157.673 1097.72 Q159.918 1095.2 160.798 1093.46 Q161.7 1091.71 161.7 1090.02 Q161.7 1087.26 159.756 1085.53 Q157.835 1083.79 154.733 1083.79 Q152.534 1083.79 150.08 1084.55 Q147.649 1085.32 144.872 1086.87 L144.872 1082.15 Q147.696 1081.01 150.149 1080.43 Q152.603 1079.85 154.64 1079.85 Q160.011 1079.85 163.205 1082.54 Q166.399 1085.22 166.399 1089.71 Q166.399 1091.84 165.589 1093.77 Q164.802 1095.66 162.696 1098.26 Q162.117 1098.93 159.015 1102.15 Q155.913 1105.34 150.265 1111.1 Z" fill="#000000" fill-rule="nonzero" fill-opacity="1" /><path clip-path="url(#clip750)" d="M186.399 1083.56 Q182.788 1083.56 180.959 1087.12 Q179.154 1090.66 179.154 1097.79 Q179.154 1104.9 180.959 1108.46 Q182.788 1112.01 186.399 1112.01 Q190.033 1112.01 191.839 1108.46 Q193.668 1104.9 193.668 1097.79 Q193.668 1090.66 191.839 1087.12 Q190.033 1083.56 186.399 1083.56 M186.399 1079.85 Q192.209 1079.85 195.265 1084.46 Q198.344 1089.04 198.344 1097.79 Q198.344 1106.52 195.265 1111.13 Q192.209 1115.71 186.399 1115.71 Q180.589 1115.71 177.51 1111.13 Q174.455 1106.52 174.455 1097.79 Q174.455 1089.04 177.51 1084.46 Q180.589 1079.85 186.399 1079.85 Z" fill="#000000" fill-rule="nonzero" fill-opacity="1" /><path clip-path="url(#clip750)" d="M14.1184 1558.35 L14.1184 1551.92 L61.6384 1551.92 L61.6384 1558.35 L14.1184 1558.35 Z" fill="#000000" fill-rule="nonzero" fill-opacity="1" /><path clip-path="url(#clip750)" d="M40.1224 1509.75 L61.6384 1509.75 L61.6384 1515.6 L40.3133 1515.6 Q35.2526 1515.6 32.7381 1517.58 Q30.2237 1519.55 30.2237 1523.5 Q30.2237 1528.24 33.2474 1530.98 Q36.2711 1533.71 41.491 1533.71 L61.6384 1533.71 L61.6384 1539.6 L25.9905 1539.6 L25.9905 1533.71 L31.5287 1533.71 Q28.314 1531.61 26.7225 1528.78 Q25.1311 1525.91 25.1311 1522.19 Q25.1311 1516.05 28.9505 1512.9 Q32.7381 1509.75 40.1224 1509.75 Z" fill="#000000" fill-rule="nonzero" fill-opacity="1" /><path clip-path="url(#clip750)" d="M12.1132 1480.02 L16.983 1480.02 L16.983 1485.62 Q16.983 1488.77 18.2562 1490.01 Q19.5293 1491.22 22.8395 1491.22 L25.9905 1491.22 L25.9905 1481.58 L30.542 1481.58 L30.542 1491.22 L61.6384 1491.22 L61.6384 1497.11 L30.542 1497.11 L30.542 1502.71 L25.9905 1502.71 L25.9905 1497.11 L23.5079 1497.11 Q17.5559 1497.11 14.8505 1494.34 Q12.1132 1491.57 12.1132 1485.56 L12.1132 1480.02 Z" fill="#000000" fill-rule="nonzero" fill-opacity="1" /><path clip-path="url(#clip750)" d="M42.3504 1444.62 L45.2149 1444.62 L45.2149 1471.55 Q51.2623 1471.17 54.4452 1467.92 Q57.5962 1464.65 57.5962 1458.82 Q57.5962 1455.45 56.7687 1452.3 Q55.9411 1449.11 54.2861 1445.99 L59.8242 1445.99 Q61.161 1449.14 61.8612 1452.45 Q62.5615 1455.76 62.5615 1459.17 Q62.5615 1467.7 57.5962 1472.7 Q52.631 1477.66 44.1646 1477.66 Q35.4117 1477.66 30.2873 1472.95 Q25.1311 1468.21 25.1311 1460.19 Q25.1311 1453 29.7781 1448.83 Q34.3932 1444.62 42.3504 1444.62 M40.6316 1450.48 Q35.8255 1450.55 32.9609 1453.19 Q30.0964 1455.8 30.0964 1460.13 Q30.0964 1465.03 32.8654 1467.99 Q35.6345 1470.92 40.6634 1471.36 L40.6316 1450.48 Z" fill="#000000" fill-rule="nonzero" fill-opacity="1" /><path clip-path="url(#clip750)" d="M27.3591 1409.36 L32.8336 1409.36 Q31.465 1411.84 30.7966 1414.36 Q30.0964 1416.84 30.0964 1419.38 Q30.0964 1425.08 33.7248 1428.23 Q37.3214 1431.38 43.8463 1431.38 Q50.3711 1431.38 53.9996 1428.23 Q57.5962 1425.08 57.5962 1419.38 Q57.5962 1416.84 56.9278 1414.36 Q56.2276 1411.84 54.859 1409.36 L60.2698 1409.36 Q61.4156 1411.81 61.9886 1414.45 Q62.5615 1417.06 62.5615 1420.02 Q62.5615 1428.07 57.5007 1432.82 Q52.44 1437.56 43.8463 1437.56 Q35.1253 1437.56 30.1282 1432.78 Q25.1311 1427.98 25.1311 1419.64 Q25.1311 1416.93 25.704 1414.36 Q26.2451 1411.78 27.3591 1409.36 Z" fill="#000000" fill-rule="nonzero" fill-opacity="1" /><path clip-path="url(#clip750)" d="M15.869 1393.38 L25.9905 1393.38 L25.9905 1381.32 L30.542 1381.32 L30.542 1393.38 L49.8937 1393.38 Q54.2542 1393.38 55.4955 1392.2 Q56.7368 1390.99 56.7368 1387.33 L56.7368 1381.32 L61.6384 1381.32 L61.6384 1387.33 Q61.6384 1394.11 59.124 1396.69 Q56.5777 1399.27 49.8937 1399.27 L30.542 1399.27 L30.542 1403.57 L25.9905 1403.57 L25.9905 1399.27 L15.869 1399.27 L15.869 1393.38 Z" fill="#000000" fill-rule="nonzero" fill-opacity="1" /><path clip-path="url(#clip750)" d="M25.9905 1373.62 L25.9905 1367.76 L61.6384 1367.76 L61.6384 1373.62 L25.9905 1373.62 M12.1132 1373.62 L12.1132 1367.76 L19.5293 1367.76 L19.5293 1373.62 L12.1132 1373.62 Z" fill="#000000" fill-rule="nonzero" fill-opacity="1" /><path clip-path="url(#clip750)" d="M30.0964 1341.69 Q30.0964 1346.4 33.7885 1349.14 Q37.4488 1351.88 43.8463 1351.88 Q50.2438 1351.88 53.9359 1349.17 Q57.5962 1346.43 57.5962 1341.69 Q57.5962 1337.01 53.9041 1334.28 Q50.212 1331.54 43.8463 1331.54 Q37.5124 1331.54 33.8203 1334.28 Q30.0964 1337.01 30.0964 1341.69 M25.1311 1341.69 Q25.1311 1334.05 30.0964 1329.69 Q35.0616 1325.33 43.8463 1325.33 Q52.5991 1325.33 57.5962 1329.69 Q62.5615 1334.05 62.5615 1341.69 Q62.5615 1349.36 57.5962 1353.72 Q52.5991 1358.05 43.8463 1358.05 Q35.0616 1358.05 30.0964 1353.72 Q25.1311 1349.36 25.1311 1341.69 Z" fill="#000000" fill-rule="nonzero" fill-opacity="1" /><path clip-path="url(#clip750)" d="M40.1224 1285.99 L61.6384 1285.99 L61.6384 1291.85 L40.3133 1291.85 Q35.2526 1291.85 32.7381 1293.82 Q30.2237 1295.79 30.2237 1299.74 Q30.2237 1304.48 33.2474 1307.22 Q36.2711 1309.96 41.491 1309.96 L61.6384 1309.96 L61.6384 1315.85 L25.9905 1315.85 L25.9905 1309.96 L31.5287 1309.96 Q28.314 1307.86 26.7225 1305.02 Q25.1311 1302.16 25.1311 1298.44 Q25.1311 1292.29 28.9505 1289.14 Q32.7381 1285.99 40.1224 1285.99 Z" fill="#000000" fill-rule="nonzero" fill-opacity="1" /><path clip-path="url(#clip750)" d="M27.0408 1251.58 L32.579 1251.58 Q31.3059 1254.07 30.6693 1256.74 Q30.0327 1259.41 30.0327 1262.28 Q30.0327 1266.64 31.3695 1268.84 Q32.7063 1271 35.3799 1271 Q37.4169 1271 38.5946 1269.44 Q39.7404 1267.88 40.7908 1263.17 L41.2364 1261.17 Q42.5732 1254.93 45.0239 1252.32 Q47.4429 1249.68 51.8034 1249.68 Q56.7687 1249.68 59.6651 1253.62 Q62.5615 1257.54 62.5615 1264.41 Q62.5615 1267.28 61.9886 1270.4 Q61.4475 1273.48 60.3335 1276.92 L54.2861 1276.92 Q55.973 1273.67 56.8323 1270.52 Q57.6599 1267.37 57.6599 1264.28 Q57.6599 1260.15 56.2594 1257.92 Q54.8271 1255.69 52.249 1255.69 Q49.8619 1255.69 48.5887 1257.31 Q47.3156 1258.91 46.1379 1264.35 L45.6605 1266.39 Q44.5147 1271.83 42.1594 1274.25 Q39.7722 1276.67 35.6345 1276.67 Q30.6056 1276.67 27.8684 1273.1 Q25.1311 1269.54 25.1311 1262.98 Q25.1311 1259.73 25.6085 1256.87 Q26.086 1254 27.0408 1251.58 Z" fill="#000000" fill-rule="nonzero" fill-opacity="1" /><polyline clip-path="url(#clip753)" style="stroke:#009af9; stroke-linecap:round; stroke-linejoin:round; stroke-width:4; stroke-opacity:1; fill:none" points="306.647,1721.61 329.538,1772.65 352.428,1761.31 375.318,1761.31 398.208,1766.98 421.098,1732.95 443.988,1744.29 466.878,1715.94 489.769,1727.28 512.659,1687.58 535.549,1659.22 558.439,1608.18 581.329,1602.51 604.219,1630.87 627.109,1602.51 650,1625.19 672.89,1613.85 695.78,1596.84 718.67,1574.15 741.56,1540.12 764.45,1585.49 787.341,1579.82 810.231,1557.14 833.121,1511.77 856.011,1534.45 878.901,1483.41 901.791,1398.34 924.681,1404.01 947.572,1341.63 970.462,1335.96 993.352,1284.91 1016.24,1352.97 1039.13,1296.26 1062.02,1194.17 1084.91,1228.2 1107.8,1046.72 1130.69,1165.82 1153.58,1041.05 1176.47,1103.43 1199.36,1165.82 1222.25,1097.76 1245.14,1029.7 1268.03,1131.79 1290.92,1233.87 1313.81,1211.19 1336.7,1347.3 1359.59,1267.9 1382.48,1387 1405.37,1455.05 1428.26,1477.74 1451.15,1534.45 1474.04,1523.11 1496.94,1551.47 1519.83,1596.84 1542.72,1659.22 1565.61,1585.49 1588.5,1642.21 1611.39,1698.92 1634.28,1710.26 1657.17,1715.94 1680.06,1727.28 1702.95,1755.64 1725.84,1744.29 1748.73,1755.64 1771.62,1744.29 1794.51,1744.29 1817.4,1744.29 1840.29,1744.29 1863.18,1749.96 1886.07,1778.32 1908.96,1755.64 1931.85,1738.62 1954.74,1766.98 1977.63,1778.32 2000.52,1761.31 2023.41,1778.32 2046.3,1761.31 2069.19,1766.98 2092.08,1778.32 2114.97,1766.98 2137.86,1772.65 2160.75,1766.98 2183.64,1766.98 2206.53,1772.65 2229.42,1778.32 2252.31,1778.32 2275.2,1772.65 2298.09,1766.98 2320.98,1761.31 2343.87,1766.98 2366.76,1778.32 2389.65,1766.98 2412.54,1778.32 2435.43,1778.32 2458.32,1778.32 2481.21,1772.65 2504.1,1778.32 2526.99,1778.32 2549.88,1778.32 2572.77,1772.65 "/>
</svg>
