<?xml version="1.0" encoding="utf-8"?>
<svg xmlns="http://www.w3.org/2000/svg" xmlns:xlink="http://www.w3.org/1999/xlink" width="800" height="300" viewBox="0 0 3200 1200">
<defs>
  <clipPath id="clip880">
    <rect x="0" y="0" width="3200" height="1200"/>
  </clipPath>
</defs>
<path clip-path="url(#clip880)" d="M0 1200 L3200 1200 L3200 0 L0 0  Z" fill="#ffffff" fill-rule="evenodd" fill-opacity="1"/>
<defs>
  <clipPath id="clip881">
    <rect x="640" y="0" width="2241" height="1200"/>
  </clipPath>
</defs>
<path clip-path="url(#clip880)" d="M268.248 1031.59 L3121.26 1031.59 L3121.26 78.7402 L268.248 78.7402  Z" fill="#ffffff" fill-rule="evenodd" fill-opacity="1"/>
<defs>
  <clipPath id="clip882">
    <rect x="268" y="78" width="2854" height="954"/>
  </clipPath>
</defs>
<polyline clip-path="url(#clip882)" style="stroke:#000000; stroke-linecap:round; stroke-linejoin:round; stroke-width:2; stroke-opacity:0.1; fill:none" points="425.169,1031.59 425.169,78.7402 "/>
<polyline clip-path="url(#clip882)" style="stroke:#000000; stroke-linecap:round; stroke-linejoin:round; stroke-width:2; stroke-opacity:0.1; fill:none" points="1035.55,1031.59 1035.55,78.7402 "/>
<polyline clip-path="url(#clip882)" style="stroke:#000000; stroke-linecap:round; stroke-linejoin:round; stroke-width:2; stroke-opacity:0.1; fill:none" points="1645.92,1031.59 1645.92,78.7402 "/>
<polyline clip-path="url(#clip882)" style="stroke:#000000; stroke-linecap:round; stroke-linejoin:round; stroke-width:2; stroke-opacity:0.1; fill:none" points="2256.3,1031.59 2256.3,78.7402 "/>
<polyline clip-path="url(#clip882)" style="stroke:#000000; stroke-linecap:round; stroke-linejoin:round; stroke-width:2; stroke-opacity:0.1; fill:none" points="2866.68,1031.59 2866.68,78.7402 "/>
<polyline clip-path="url(#clip880)" style="stroke:#000000; stroke-linecap:round; stroke-linejoin:round; stroke-width:4; stroke-opacity:1; fill:none" points="268.248,1031.59 3121.26,1031.59 "/>
<polyline clip-path="url(#clip880)" style="stroke:#000000; stroke-linecap:round; stroke-linejoin:round; stroke-width:4; stroke-opacity:1; fill:none" points="425.169,1031.59 425.169,1012.7 "/>
<polyline clip-path="url(#clip880)" style="stroke:#000000; stroke-linecap:round; stroke-linejoin:round; stroke-width:4; stroke-opacity:1; fill:none" points="1035.55,1031.59 1035.55,1012.7 "/>
<polyline clip-path="url(#clip880)" style="stroke:#000000; stroke-linecap:round; stroke-linejoin:round; stroke-width:4; stroke-opacity:1; fill:none" points="1645.92,1031.59 1645.92,1012.7 "/>
<polyline clip-path="url(#clip880)" style="stroke:#000000; stroke-linecap:round; stroke-linejoin:round; stroke-width:4; stroke-opacity:1; fill:none" points="2256.3,1031.59 2256.3,1012.7 "/>
<polyline clip-path="url(#clip880)" style="stroke:#000000; stroke-linecap:round; stroke-linejoin:round; stroke-width:4; stroke-opacity:1; fill:none" points="2866.68,1031.59 2866.68,1012.7 "/>
<path clip-path="url(#clip880)" d="M387.472 1068.91 Q383.861 1068.91 382.032 1072.48 Q380.227 1076.02 380.227 1083.15 Q380.227 1090.25 382.032 1093.82 Q383.861 1097.36 387.472 1097.36 Q391.107 1097.36 392.912 1093.82 Q394.741 1090.25 394.741 1083.15 Q394.741 1076.02 392.912 1072.48 Q391.107 1068.91 387.472 1068.91 M387.472 1065.21 Q393.282 1065.21 396.338 1069.82 Q399.417 1074.4 399.417 1083.15 Q399.417 1091.88 396.338 1096.48 Q393.282 1101.07 387.472 1101.07 Q381.662 1101.07 378.583 1096.48 Q375.528 1091.88 375.528 1083.15 Q375.528 1074.4 378.583 1069.82 Q381.662 1065.21 387.472 1065.21 Z" fill="#000000" fill-rule="nonzero" fill-opacity="1" /><path clip-path="url(#clip880)" d="M407.634 1094.51 L412.518 1094.51 L412.518 1100.39 L407.634 1100.39 L407.634 1094.51 Z" fill="#000000" fill-rule="nonzero" fill-opacity="1" /><path clip-path="url(#clip880)" d="M432.704 1068.91 Q429.092 1068.91 427.264 1072.48 Q425.458 1076.02 425.458 1083.15 Q425.458 1090.25 427.264 1093.82 Q429.092 1097.36 432.704 1097.36 Q436.338 1097.36 438.143 1093.82 Q439.972 1090.25 439.972 1083.15 Q439.972 1076.02 438.143 1072.48 Q436.338 1068.91 432.704 1068.91 M432.704 1065.21 Q438.514 1065.21 441.569 1069.82 Q444.648 1074.4 444.648 1083.15 Q444.648 1091.88 441.569 1096.48 Q438.514 1101.07 432.704 1101.07 Q426.893 1101.07 423.815 1096.48 Q420.759 1091.88 420.759 1083.15 Q420.759 1074.4 423.815 1069.82 Q426.893 1065.21 432.704 1065.21 Z" fill="#000000" fill-rule="nonzero" fill-opacity="1" /><path clip-path="url(#clip880)" d="M462.865 1068.91 Q459.254 1068.91 457.426 1072.48 Q455.62 1076.02 455.62 1083.15 Q455.62 1090.25 457.426 1093.82 Q459.254 1097.36 462.865 1097.36 Q466.5 1097.36 468.305 1093.82 Q470.134 1090.25 470.134 1083.15 Q470.134 1076.02 468.305 1072.48 Q466.5 1068.91 462.865 1068.91 M462.865 1065.21 Q468.676 1065.21 471.731 1069.82 Q474.81 1074.4 474.81 1083.15 Q474.81 1091.88 471.731 1096.48 Q468.676 1101.07 462.865 1101.07 Q457.055 1101.07 453.977 1096.48 Q450.921 1091.88 450.921 1083.15 Q450.921 1074.4 453.977 1069.82 Q457.055 1065.21 462.865 1065.21 Z" fill="#000000" fill-rule="nonzero" fill-opacity="1" /><path clip-path="url(#clip880)" d="M998.347 1068.91 Q994.736 1068.91 992.908 1072.48 Q991.102 1076.02 991.102 1083.15 Q991.102 1090.25 992.908 1093.82 Q994.736 1097.36 998.347 1097.36 Q1001.98 1097.36 1003.79 1093.82 Q1005.62 1090.25 1005.62 1083.15 Q1005.62 1076.02 1003.79 1072.48 Q1001.98 1068.91 998.347 1068.91 M998.347 1065.21 Q1004.16 1065.21 1007.21 1069.82 Q1010.29 1074.4 1010.29 1083.15 Q1010.29 1091.88 1007.21 1096.48 Q1004.16 1101.07 998.347 1101.07 Q992.537 1101.07 989.459 1096.48 Q986.403 1091.88 986.403 1083.15 Q986.403 1074.4 989.459 1069.82 Q992.537 1065.21 998.347 1065.21 Z" fill="#000000" fill-rule="nonzero" fill-opacity="1" /><path clip-path="url(#clip880)" d="M1018.51 1094.51 L1023.39 1094.51 L1023.39 1100.39 L1018.51 1100.39 L1018.51 1094.51 Z" fill="#000000" fill-rule="nonzero" fill-opacity="1" /><path clip-path="url(#clip880)" d="M1037.61 1096.46 L1053.93 1096.46 L1053.93 1100.39 L1031.98 1100.39 L1031.98 1096.46 Q1034.64 1093.7 1039.23 1089.07 Q1043.83 1084.42 1045.01 1083.08 Q1047.26 1080.56 1048.14 1078.82 Q1049.04 1077.06 1049.04 1075.37 Q1049.04 1072.62 1047.1 1070.88 Q1045.18 1069.14 1042.07 1069.14 Q1039.87 1069.14 1037.42 1069.91 Q1034.99 1070.67 1032.21 1072.22 L1032.21 1067.5 Q1035.04 1066.37 1037.49 1065.79 Q1039.94 1065.21 1041.98 1065.21 Q1047.35 1065.21 1050.55 1067.89 Q1053.74 1070.58 1053.74 1075.07 Q1053.74 1077.2 1052.93 1079.12 Q1052.14 1081.02 1050.04 1083.61 Q1049.46 1084.28 1046.36 1087.5 Q1043.25 1090.69 1037.61 1096.46 Z" fill="#000000" fill-rule="nonzero" fill-opacity="1" /><path clip-path="url(#clip880)" d="M1063.79 1065.83 L1082.14 1065.83 L1082.14 1069.77 L1068.07 1069.77 L1068.07 1078.24 Q1069.09 1077.89 1070.11 1077.73 Q1071.12 1077.55 1072.14 1077.55 Q1077.93 1077.55 1081.31 1080.72 Q1084.69 1083.89 1084.69 1089.31 Q1084.69 1094.88 1081.22 1097.99 Q1077.75 1101.07 1071.43 1101.07 Q1069.25 1101.07 1066.98 1100.69 Q1064.74 1100.32 1062.33 1099.58 L1062.33 1094.88 Q1064.41 1096.02 1066.63 1096.57 Q1068.86 1097.13 1071.33 1097.13 Q1075.34 1097.13 1077.68 1095.02 Q1080.01 1092.92 1080.01 1089.31 Q1080.01 1085.69 1077.68 1083.59 Q1075.34 1081.48 1071.33 1081.48 Q1069.46 1081.48 1067.58 1081.9 Q1065.73 1082.32 1063.79 1083.19 L1063.79 1065.83 Z" fill="#000000" fill-rule="nonzero" fill-opacity="1" /><path clip-path="url(#clip880)" d="M1608.23 1068.91 Q1604.62 1068.91 1602.79 1072.48 Q1600.98 1076.02 1600.98 1083.15 Q1600.98 1090.25 1602.79 1093.82 Q1604.62 1097.36 1608.23 1097.36 Q1611.86 1097.36 1613.67 1093.82 Q1615.5 1090.25 1615.5 1083.15 Q1615.5 1076.02 1613.67 1072.48 Q1611.86 1068.91 1608.23 1068.91 M1608.23 1065.21 Q1614.04 1065.21 1617.09 1069.82 Q1620.17 1074.4 1620.17 1083.15 Q1620.17 1091.88 1617.09 1096.48 Q1614.04 1101.07 1608.23 1101.07 Q1602.42 1101.07 1599.34 1096.48 Q1596.28 1091.88 1596.28 1083.15 Q1596.28 1074.4 1599.34 1069.82 Q1602.42 1065.21 1608.23 1065.21 Z" fill="#000000" fill-rule="nonzero" fill-opacity="1" /><path clip-path="url(#clip880)" d="M1628.39 1094.51 L1633.27 1094.51 L1633.27 1100.39 L1628.39 1100.39 L1628.39 1094.51 Z" fill="#000000" fill-rule="nonzero" fill-opacity="1" /><path clip-path="url(#clip880)" d="M1643.5 1065.83 L1661.86 1065.83 L1661.86 1069.77 L1647.79 1069.77 L1647.79 1078.24 Q1648.81 1077.89 1649.82 1077.73 Q1650.84 1077.55 1651.86 1077.55 Q1657.65 1077.55 1661.03 1080.72 Q1664.41 1083.89 1664.41 1089.31 Q1664.41 1094.88 1660.94 1097.99 Q1657.46 1101.07 1651.14 1101.07 Q1648.97 1101.07 1646.7 1100.69 Q1644.45 1100.32 1642.05 1099.58 L1642.05 1094.88 Q1644.13 1096.02 1646.35 1096.57 Q1648.57 1097.13 1651.05 1097.13 Q1655.06 1097.13 1657.39 1095.02 Q1659.73 1092.92 1659.73 1089.31 Q1659.73 1085.69 1657.39 1083.59 Q1655.06 1081.48 1651.05 1081.48 Q1649.18 1081.48 1647.3 1081.9 Q1645.45 1082.32 1643.5 1083.19 L1643.5 1065.83 Z" fill="#000000" fill-rule="nonzero" fill-opacity="1" /><path clip-path="url(#clip880)" d="M1683.62 1068.91 Q1680.01 1068.91 1678.18 1072.48 Q1676.37 1076.02 1676.37 1083.15 Q1676.37 1090.25 1678.18 1093.82 Q1680.01 1097.36 1683.62 1097.36 Q1687.25 1097.36 1689.06 1093.82 Q1690.89 1090.25 1690.89 1083.15 Q1690.89 1076.02 1689.06 1072.48 Q1687.25 1068.91 1683.62 1068.91 M1683.62 1065.21 Q1689.43 1065.21 1692.49 1069.82 Q1695.56 1074.4 1695.56 1083.15 Q1695.56 1091.88 1692.49 1096.48 Q1689.43 1101.07 1683.62 1101.07 Q1677.81 1101.07 1674.73 1096.48 Q1671.68 1091.88 1671.68 1083.15 Q1671.68 1074.4 1674.73 1069.82 Q1677.81 1065.21 1683.62 1065.21 Z" fill="#000000" fill-rule="nonzero" fill-opacity="1" /><path clip-path="url(#clip880)" d="M2219.1 1068.91 Q2215.49 1068.91 2213.66 1072.48 Q2211.86 1076.02 2211.86 1083.15 Q2211.86 1090.25 2213.66 1093.82 Q2215.49 1097.36 2219.1 1097.36 Q2222.74 1097.36 2224.54 1093.82 Q2226.37 1090.25 2226.37 1083.15 Q2226.37 1076.02 2224.54 1072.48 Q2222.74 1068.91 2219.1 1068.91 M2219.1 1065.21 Q2224.91 1065.21 2227.97 1069.82 Q2231.05 1074.4 2231.05 1083.15 Q2231.05 1091.88 2227.97 1096.48 Q2224.91 1101.07 2219.1 1101.07 Q2213.29 1101.07 2210.21 1096.48 Q2207.16 1091.88 2207.16 1083.15 Q2207.16 1074.4 2210.21 1069.82 Q2213.29 1065.21 2219.1 1065.21 Z" fill="#000000" fill-rule="nonzero" fill-opacity="1" /><path clip-path="url(#clip880)" d="M2239.26 1094.51 L2244.15 1094.51 L2244.15 1100.39 L2239.26 1100.39 L2239.26 1094.51 Z" fill="#000000" fill-rule="nonzero" fill-opacity="1" /><path clip-path="url(#clip880)" d="M2253.15 1065.83 L2275.38 1065.83 L2275.38 1067.82 L2262.83 1100.39 L2257.94 1100.39 L2269.75 1069.77 L2253.15 1069.77 L2253.15 1065.83 Z" fill="#000000" fill-rule="nonzero" fill-opacity="1" /><path clip-path="url(#clip880)" d="M2284.54 1065.83 L2302.9 1065.83 L2302.9 1069.77 L2288.82 1069.77 L2288.82 1078.24 Q2289.84 1077.89 2290.86 1077.73 Q2291.88 1077.55 2292.9 1077.55 Q2298.69 1077.55 2302.06 1080.72 Q2305.44 1083.89 2305.44 1089.31 Q2305.44 1094.88 2301.97 1097.99 Q2298.5 1101.07 2292.18 1101.07 Q2290 1101.07 2287.74 1100.69 Q2285.49 1100.32 2283.08 1099.58 L2283.08 1094.88 Q2285.17 1096.02 2287.39 1096.57 Q2289.61 1097.13 2292.09 1097.13 Q2296.09 1097.13 2298.43 1095.02 Q2300.77 1092.92 2300.77 1089.31 Q2300.77 1085.69 2298.43 1083.59 Q2296.09 1081.48 2292.09 1081.48 Q2290.21 1081.48 2288.34 1081.9 Q2286.49 1082.32 2284.54 1083.19 L2284.54 1065.83 Z" fill="#000000" fill-rule="nonzero" fill-opacity="1" /><path clip-path="url(#clip880)" d="M2818.75 1096.46 L2826.39 1096.46 L2826.39 1070.09 L2818.08 1071.76 L2818.08 1067.5 L2826.34 1065.83 L2831.02 1065.83 L2831.02 1096.46 L2838.66 1096.46 L2838.66 1100.39 L2818.75 1100.39 L2818.75 1096.46 Z" fill="#000000" fill-rule="nonzero" fill-opacity="1" /><path clip-path="url(#clip880)" d="M2848.1 1094.51 L2852.99 1094.51 L2852.99 1100.39 L2848.1 1100.39 L2848.1 1094.51 Z" fill="#000000" fill-rule="nonzero" fill-opacity="1" /><path clip-path="url(#clip880)" d="M2873.17 1068.91 Q2869.56 1068.91 2867.73 1072.48 Q2865.93 1076.02 2865.93 1083.15 Q2865.93 1090.25 2867.73 1093.82 Q2869.56 1097.36 2873.17 1097.36 Q2876.81 1097.36 2878.61 1093.82 Q2880.44 1090.25 2880.44 1083.15 Q2880.44 1076.02 2878.61 1072.48 Q2876.81 1068.91 2873.17 1068.91 M2873.17 1065.21 Q2878.98 1065.21 2882.04 1069.82 Q2885.12 1074.4 2885.12 1083.15 Q2885.12 1091.88 2882.04 1096.48 Q2878.98 1101.07 2873.17 1101.07 Q2867.36 1101.07 2864.28 1096.48 Q2861.23 1091.88 2861.23 1083.15 Q2861.23 1074.4 2864.28 1069.82 Q2867.36 1065.21 2873.17 1065.21 Z" fill="#000000" fill-rule="nonzero" fill-opacity="1" /><path clip-path="url(#clip880)" d="M2903.33 1068.91 Q2899.72 1068.91 2897.89 1072.48 Q2896.09 1076.02 2896.09 1083.15 Q2896.09 1090.25 2897.89 1093.82 Q2899.72 1097.36 2903.33 1097.36 Q2906.97 1097.36 2908.77 1093.82 Q2910.6 1090.25 2910.6 1083.15 Q2910.6 1076.02 2908.77 1072.48 Q2906.97 1068.91 2903.33 1068.91 M2903.33 1065.21 Q2909.14 1065.21 2912.2 1069.82 Q2915.28 1074.4 2915.28 1083.15 Q2915.28 1091.88 2912.2 1096.48 Q2909.14 1101.07 2903.33 1101.07 Q2897.52 1101.07 2894.44 1096.48 Q2891.39 1091.88 2891.39 1083.15 Q2891.39 1074.4 2894.44 1069.82 Q2897.52 1065.21 2903.33 1065.21 Z" fill="#000000" fill-rule="nonzero" fill-opacity="1" /><path clip-path="url(#clip880)" d="M1678.94 1138.93 L1684.82 1138.93 L1684.82 1168.18 L1702.3 1152.81 L1709.78 1152.81 L1690.87 1169.49 L1710.57 1188.46 L1702.93 1188.46 L1684.82 1171.05 L1684.82 1188.46 L1678.94 1188.46 L1678.94 1138.93 Z" fill="#000000" fill-rule="nonzero" fill-opacity="1" /><polyline clip-path="url(#clip882)" style="stroke:#000000; stroke-linecap:round; stroke-linejoin:round; stroke-width:2; stroke-opacity:0.1; fill:none" points="268.248,1031.59 3121.26,1031.59 "/>
<polyline clip-path="url(#clip882)" style="stroke:#000000; stroke-linecap:round; stroke-linejoin:round; stroke-width:2; stroke-opacity:0.1; fill:none" points="268.248,744.59 3121.26,744.59 "/>
<polyline clip-path="url(#clip882)" style="stroke:#000000; stroke-linecap:round; stroke-linejoin:round; stroke-width:2; stroke-opacity:0.1; fill:none" points="268.248,457.586 3121.26,457.586 "/>
<polyline clip-path="url(#clip882)" style="stroke:#000000; stroke-linecap:round; stroke-linejoin:round; stroke-width:2; stroke-opacity:0.1; fill:none" points="268.248,170.581 3121.26,170.581 "/>
<polyline clip-path="url(#clip880)" style="stroke:#000000; stroke-linecap:round; stroke-linejoin:round; stroke-width:4; stroke-opacity:1; fill:none" points="268.248,1031.59 268.248,78.7402 "/>
<polyline clip-path="url(#clip880)" style="stroke:#000000; stroke-linecap:round; stroke-linejoin:round; stroke-width:4; stroke-opacity:1; fill:none" points="268.248,1031.59 287.146,1031.59 "/>
<polyline clip-path="url(#clip880)" style="stroke:#000000; stroke-linecap:round; stroke-linejoin:round; stroke-width:4; stroke-opacity:1; fill:none" points="268.248,744.59 287.146,744.59 "/>
<polyline clip-path="url(#clip880)" style="stroke:#000000; stroke-linecap:round; stroke-linejoin:round; stroke-width:4; stroke-opacity:1; fill:none" points="268.248,457.586 287.146,457.586 "/>
<polyline clip-path="url(#clip880)" style="stroke:#000000; stroke-linecap:round; stroke-linejoin:round; stroke-width:4; stroke-opacity:1; fill:none" points="268.248,170.581 287.146,170.581 "/>
<path clip-path="url(#clip880)" d="M132.911 1017.39 Q129.3 1017.39 127.471 1020.96 Q125.665 1024.5 125.665 1031.63 Q125.665 1038.73 127.471 1042.3 Q129.3 1045.84 132.911 1045.84 Q136.545 1045.84 138.35 1042.3 Q140.179 1038.73 140.179 1031.63 Q140.179 1024.5 138.35 1020.96 Q136.545 1017.39 132.911 1017.39 M132.911 1013.69 Q138.721 1013.69 141.776 1018.3 Q144.855 1022.88 144.855 1031.63 Q144.855 1040.36 141.776 1044.96 Q138.721 1049.55 132.911 1049.55 Q127.1 1049.55 124.022 1044.96 Q120.966 1040.36 120.966 1031.63 Q120.966 1022.88 124.022 1018.3 Q127.1 1013.69 132.911 1013.69 Z" fill="#000000" fill-rule="nonzero" fill-opacity="1" /><path clip-path="url(#clip880)" d="M153.073 1042.99 L157.957 1042.99 L157.957 1048.87 L153.073 1048.87 L153.073 1042.99 Z" fill="#000000" fill-rule="nonzero" fill-opacity="1" /><path clip-path="url(#clip880)" d="M178.142 1017.39 Q174.531 1017.39 172.702 1020.96 Q170.897 1024.5 170.897 1031.63 Q170.897 1038.73 172.702 1042.3 Q174.531 1045.84 178.142 1045.84 Q181.776 1045.84 183.582 1042.3 Q185.41 1038.73 185.41 1031.63 Q185.41 1024.5 183.582 1020.96 Q181.776 1017.39 178.142 1017.39 M178.142 1013.69 Q183.952 1013.69 187.008 1018.3 Q190.086 1022.88 190.086 1031.63 Q190.086 1040.36 187.008 1044.96 Q183.952 1049.55 178.142 1049.55 Q172.332 1049.55 169.253 1044.96 Q166.197 1040.36 166.197 1031.63 Q166.197 1022.88 169.253 1018.3 Q172.332 1013.69 178.142 1013.69 Z" fill="#000000" fill-rule="nonzero" fill-opacity="1" /><path clip-path="url(#clip880)" d="M208.304 1017.39 Q204.693 1017.39 202.864 1020.96 Q201.058 1024.5 201.058 1031.63 Q201.058 1038.73 202.864 1042.3 Q204.693 1045.84 208.304 1045.84 Q211.938 1045.84 213.744 1042.3 Q215.572 1038.73 215.572 1031.63 Q215.572 1024.5 213.744 1020.96 Q211.938 1017.39 208.304 1017.39 M208.304 1013.69 Q214.114 1013.69 217.169 1018.3 Q220.248 1022.88 220.248 1031.63 Q220.248 1040.36 217.169 1044.96 Q214.114 1049.55 208.304 1049.55 Q202.494 1049.55 199.415 1044.96 Q196.359 1040.36 196.359 1031.63 Q196.359 1022.88 199.415 1018.3 Q202.494 1013.69 208.304 1013.69 Z" fill="#000000" fill-rule="nonzero" fill-opacity="1" /><path clip-path="url(#clip880)" d="M133.906 730.388 Q130.295 730.388 128.466 733.953 Q126.661 737.495 126.661 744.624 Q126.661 751.731 128.466 755.296 Q130.295 758.837 133.906 758.837 Q137.54 758.837 139.346 755.296 Q141.174 751.731 141.174 744.624 Q141.174 737.495 139.346 733.953 Q137.54 730.388 133.906 730.388 M133.906 726.685 Q139.716 726.685 142.772 731.291 Q145.85 735.874 145.85 744.624 Q145.85 753.351 142.772 757.958 Q139.716 762.541 133.906 762.541 Q128.096 762.541 125.017 757.958 Q121.962 753.351 121.962 744.624 Q121.962 735.874 125.017 731.291 Q128.096 726.685 133.906 726.685 Z" fill="#000000" fill-rule="nonzero" fill-opacity="1" /><path clip-path="url(#clip880)" d="M154.068 755.99 L158.952 755.99 L158.952 761.87 L154.068 761.87 L154.068 755.99 Z" fill="#000000" fill-rule="nonzero" fill-opacity="1" /><path clip-path="url(#clip880)" d="M179.137 730.388 Q175.526 730.388 173.697 733.953 Q171.892 737.495 171.892 744.624 Q171.892 751.731 173.697 755.296 Q175.526 758.837 179.137 758.837 Q182.771 758.837 184.577 755.296 Q186.406 751.731 186.406 744.624 Q186.406 737.495 184.577 733.953 Q182.771 730.388 179.137 730.388 M179.137 726.685 Q184.947 726.685 188.003 731.291 Q191.082 735.874 191.082 744.624 Q191.082 753.351 188.003 757.958 Q184.947 762.541 179.137 762.541 Q173.327 762.541 170.248 757.958 Q167.193 753.351 167.193 744.624 Q167.193 735.874 170.248 731.291 Q173.327 726.685 179.137 726.685 Z" fill="#000000" fill-rule="nonzero" fill-opacity="1" /><path clip-path="url(#clip880)" d="M199.345 727.31 L217.702 727.31 L217.702 731.245 L203.628 731.245 L203.628 739.717 Q204.646 739.37 205.665 739.208 Q206.683 739.023 207.702 739.023 Q213.489 739.023 216.868 742.194 Q220.248 745.365 220.248 750.782 Q220.248 756.36 216.776 759.462 Q213.304 762.541 206.984 762.541 Q204.808 762.541 202.54 762.171 Q200.294 761.8 197.887 761.059 L197.887 756.36 Q199.97 757.495 202.193 758.05 Q204.415 758.606 206.892 758.606 Q210.896 758.606 213.234 756.499 Q215.572 754.393 215.572 750.782 Q215.572 747.171 213.234 745.064 Q210.896 742.958 206.892 742.958 Q205.017 742.958 203.142 743.374 Q201.29 743.791 199.345 744.671 L199.345 727.31 Z" fill="#000000" fill-rule="nonzero" fill-opacity="1" /><path clip-path="url(#clip880)" d="M132.911 443.384 Q129.3 443.384 127.471 446.949 Q125.665 450.491 125.665 457.62 Q125.665 464.727 127.471 468.292 Q129.3 471.833 132.911 471.833 Q136.545 471.833 138.35 468.292 Q140.179 464.727 140.179 457.62 Q140.179 450.491 138.35 446.949 Q136.545 443.384 132.911 443.384 M132.911 439.681 Q138.721 439.681 141.776 444.287 Q144.855 448.87 144.855 457.62 Q144.855 466.347 141.776 470.954 Q138.721 475.537 132.911 475.537 Q127.1 475.537 124.022 470.954 Q120.966 466.347 120.966 457.62 Q120.966 448.87 124.022 444.287 Q127.1 439.681 132.911 439.681 Z" fill="#000000" fill-rule="nonzero" fill-opacity="1" /><path clip-path="url(#clip880)" d="M153.073 468.986 L157.957 468.986 L157.957 474.866 L153.073 474.866 L153.073 468.986 Z" fill="#000000" fill-rule="nonzero" fill-opacity="1" /><path clip-path="url(#clip880)" d="M168.952 470.93 L176.591 470.93 L176.591 444.565 L168.281 446.231 L168.281 441.972 L176.545 440.306 L181.221 440.306 L181.221 470.93 L188.859 470.93 L188.859 474.866 L168.952 474.866 L168.952 470.93 Z" fill="#000000" fill-rule="nonzero" fill-opacity="1" /><path clip-path="url(#clip880)" d="M208.304 443.384 Q204.693 443.384 202.864 446.949 Q201.058 450.491 201.058 457.62 Q201.058 464.727 202.864 468.292 Q204.693 471.833 208.304 471.833 Q211.938 471.833 213.744 468.292 Q215.572 464.727 215.572 457.62 Q215.572 450.491 213.744 446.949 Q211.938 443.384 208.304 443.384 M208.304 439.681 Q214.114 439.681 217.169 444.287 Q220.248 448.87 220.248 457.62 Q220.248 466.347 217.169 470.954 Q214.114 475.537 208.304 475.537 Q202.494 475.537 199.415 470.954 Q196.359 466.347 196.359 457.62 Q196.359 448.87 199.415 444.287 Q202.494 439.681 208.304 439.681 Z" fill="#000000" fill-rule="nonzero" fill-opacity="1" /><path clip-path="url(#clip880)" d="M133.906 156.38 Q130.295 156.38 128.466 159.945 Q126.661 163.487 126.661 170.616 Q126.661 177.723 128.466 181.287 Q130.295 184.829 133.906 184.829 Q137.54 184.829 139.346 181.287 Q141.174 177.723 141.174 170.616 Q141.174 163.487 139.346 159.945 Q137.54 156.38 133.906 156.38 M133.906 152.676 Q139.716 152.676 142.772 157.283 Q145.85 161.866 145.85 170.616 Q145.85 179.343 142.772 183.949 Q139.716 188.533 133.906 188.533 Q128.096 188.533 125.017 183.949 Q121.962 179.343 121.962 170.616 Q121.962 161.866 125.017 157.283 Q128.096 152.676 133.906 152.676 Z" fill="#000000" fill-rule="nonzero" fill-opacity="1" /><path clip-path="url(#clip880)" d="M154.068 181.982 L158.952 181.982 L158.952 187.861 L154.068 187.861 L154.068 181.982 Z" fill="#000000" fill-rule="nonzero" fill-opacity="1" /><path clip-path="url(#clip880)" d="M169.947 183.926 L177.586 183.926 L177.586 157.561 L169.276 159.227 L169.276 154.968 L177.54 153.301 L182.216 153.301 L182.216 183.926 L189.855 183.926 L189.855 187.861 L169.947 187.861 L169.947 183.926 Z" fill="#000000" fill-rule="nonzero" fill-opacity="1" /><path clip-path="url(#clip880)" d="M199.345 153.301 L217.702 153.301 L217.702 157.237 L203.628 157.237 L203.628 165.709 Q204.646 165.362 205.665 165.2 Q206.683 165.014 207.702 165.014 Q213.489 165.014 216.868 168.186 Q220.248 171.357 220.248 176.774 Q220.248 182.352 216.776 185.454 Q213.304 188.533 206.984 188.533 Q204.808 188.533 202.54 188.162 Q200.294 187.792 197.887 187.051 L197.887 182.352 Q199.97 183.486 202.193 184.042 Q204.415 184.598 206.892 184.598 Q210.896 184.598 213.234 182.491 Q215.572 180.385 215.572 176.774 Q215.572 173.162 213.234 171.056 Q210.896 168.95 206.892 168.95 Q205.017 168.95 203.142 169.366 Q201.29 169.783 199.345 170.662 L199.345 153.301 Z" fill="#000000" fill-rule="nonzero" fill-opacity="1" /><path clip-path="url(#clip880)" d="M16.4738 899.727 L34.3296 899.727 L34.3296 891.642 Q34.3296 887.154 32.0061 884.704 Q29.6826 882.253 25.3857 882.253 Q21.1207 882.253 18.7972 884.704 Q16.4738 887.154 16.4738 891.642 L16.4738 899.727 M11.1902 906.156 L11.1902 891.642 Q11.1902 883.653 14.8187 879.579 Q18.4153 875.473 25.3857 875.473 Q32.4199 875.473 36.0165 879.579 Q39.6131 883.653 39.6131 891.642 L39.6131 899.727 L58.7102 899.727 L58.7102 906.156 L11.1902 906.156 Z" fill="#000000" fill-rule="nonzero" fill-opacity="1" /><path clip-path="url(#clip880)" d="M28.5368 847.592 Q27.9639 848.578 27.7092 849.756 Q27.4228 850.902 27.4228 852.302 Q27.4228 857.267 30.6693 859.941 Q33.884 862.583 39.9314 862.583 L58.7102 862.583 L58.7102 868.471 L23.0623 868.471 L23.0623 862.583 L28.6004 862.583 Q25.3539 860.737 23.7943 857.777 Q22.2029 854.817 22.2029 850.583 Q22.2029 849.979 22.2984 849.247 Q22.362 848.515 22.5212 847.623 L28.5368 847.592 Z" fill="#000000" fill-rule="nonzero" fill-opacity="1" /><path clip-path="url(#clip880)" d="M27.1681 829.067 Q27.1681 833.778 30.8603 836.515 Q34.5205 839.253 40.9181 839.253 Q47.3156 839.253 51.0077 836.547 Q54.668 833.81 54.668 829.067 Q54.668 824.389 50.9759 821.651 Q47.2838 818.914 40.9181 818.914 Q34.5842 818.914 30.8921 821.651 Q27.1681 824.389 27.1681 829.067 M22.2029 829.067 Q22.2029 821.429 27.1681 817.068 Q32.1334 812.708 40.9181 812.708 Q49.6709 812.708 54.668 817.068 Q59.6332 821.429 59.6332 829.067 Q59.6332 836.738 54.668 841.099 Q49.6709 845.427 40.9181 845.427 Q32.1334 845.427 27.1681 841.099 Q22.2029 836.738 22.2029 829.067 Z" fill="#000000" fill-rule="nonzero" fill-opacity="1" /><path clip-path="url(#clip880)" d="M53.363 797.334 L72.2692 797.334 L72.2692 803.223 L23.0623 803.223 L23.0623 797.334 L28.4731 797.334 Q25.2903 795.488 23.7625 792.687 Q22.2029 789.855 22.2029 785.94 Q22.2029 779.447 27.3591 775.405 Q32.5153 771.33 40.9181 771.33 Q49.3208 771.33 54.477 775.405 Q59.6332 779.447 59.6332 785.94 Q59.6332 789.855 58.1055 792.687 Q56.5459 795.488 53.363 797.334 M40.9181 777.41 Q34.4569 777.41 30.7966 780.083 Q27.1045 782.725 27.1045 787.372 Q27.1045 792.019 30.7966 794.693 Q34.4569 797.334 40.9181 797.334 Q47.3793 797.334 51.0714 794.693 Q54.7317 792.019 54.7317 787.372 Q54.7317 782.725 51.0714 780.083 Q47.3793 777.41 40.9181 777.41 Z" fill="#000000" fill-rule="nonzero" fill-opacity="1" /><path clip-path="url(#clip880)" d="M27.1681 747.809 Q27.1681 752.52 30.8603 755.257 Q34.5205 757.994 40.9181 757.994 Q47.3156 757.994 51.0077 755.289 Q54.668 752.552 54.668 747.809 Q54.668 743.13 50.9759 740.393 Q47.2838 737.656 40.9181 737.656 Q34.5842 737.656 30.8921 740.393 Q27.1681 743.13 27.1681 747.809 M22.2029 747.809 Q22.2029 740.17 27.1681 735.81 Q32.1334 731.449 40.9181 731.449 Q49.6709 731.449 54.668 735.81 Q59.6332 740.17 59.6332 747.809 Q59.6332 755.48 54.668 759.84 Q49.6709 764.169 40.9181 764.169 Q32.1334 764.169 27.1681 759.84 Q22.2029 755.48 22.2029 747.809 Z" fill="#000000" fill-rule="nonzero" fill-opacity="1" /><path clip-path="url(#clip880)" d="M28.5368 701.085 Q27.9639 702.072 27.7092 703.249 Q27.4228 704.395 27.4228 705.796 Q27.4228 710.761 30.6693 713.434 Q33.884 716.076 39.9314 716.076 L58.7102 716.076 L58.7102 721.964 L23.0623 721.964 L23.0623 716.076 L28.6004 716.076 Q25.3539 714.23 23.7943 711.27 Q22.2029 708.31 22.2029 704.077 Q22.2029 703.472 22.2984 702.74 Q22.362 702.008 22.5212 701.117 L28.5368 701.085 Z" fill="#000000" fill-rule="nonzero" fill-opacity="1" /><path clip-path="url(#clip880)" d="M12.9408 689.149 L23.0623 689.149 L23.0623 677.086 L27.6137 677.086 L27.6137 689.149 L46.9655 689.149 Q51.326 689.149 52.5673 687.972 Q53.8086 686.762 53.8086 683.102 L53.8086 677.086 L58.7102 677.086 L58.7102 683.102 Q58.7102 689.881 56.1958 692.459 Q53.6495 695.037 46.9655 695.037 L27.6137 695.037 L27.6137 699.334 L23.0623 699.334 L23.0623 695.037 L12.9408 695.037 L12.9408 689.149 Z" fill="#000000" fill-rule="nonzero" fill-opacity="1" /><path clip-path="url(#clip880)" d="M23.0623 669.384 L23.0623 663.527 L58.7102 663.527 L58.7102 669.384 L23.0623 669.384 M9.18502 669.384 L9.18502 663.527 L16.6011 663.527 L16.6011 669.384 L9.18502 669.384 Z" fill="#000000" fill-rule="nonzero" fill-opacity="1" /><path clip-path="url(#clip880)" d="M27.1681 637.46 Q27.1681 642.17 30.8603 644.908 Q34.5205 647.645 40.9181 647.645 Q47.3156 647.645 51.0077 644.939 Q54.668 642.202 54.668 637.46 Q54.668 632.781 50.9759 630.044 Q47.2838 627.306 40.9181 627.306 Q34.5842 627.306 30.8921 630.044 Q27.1681 632.781 27.1681 637.46 M22.2029 637.46 Q22.2029 629.821 27.1681 625.46 Q32.1334 621.1 40.9181 621.1 Q49.6709 621.1 54.668 625.46 Q59.6332 629.821 59.6332 637.46 Q59.6332 645.13 54.668 649.491 Q49.6709 653.82 40.9181 653.82 Q32.1334 653.82 27.1681 649.491 Q22.2029 645.13 22.2029 637.46 Z" fill="#000000" fill-rule="nonzero" fill-opacity="1" /><path clip-path="url(#clip880)" d="M37.1941 581.76 L58.7102 581.76 L58.7102 587.616 L37.3851 587.616 Q32.3244 587.616 29.8099 589.59 Q27.2955 591.563 27.2955 595.51 Q27.2955 600.252 30.3192 602.989 Q33.3429 605.727 38.5628 605.727 L58.7102 605.727 L58.7102 611.615 L23.0623 611.615 L23.0623 605.727 L28.6004 605.727 Q25.3857 603.626 23.7943 600.793 Q22.2029 597.929 22.2029 594.205 Q22.2029 588.062 26.0223 584.911 Q29.8099 581.76 37.1941 581.76 Z" fill="#000000" fill-rule="nonzero" fill-opacity="1" /><path clip-path="url(#clip880)" d="M27.1681 535.545 Q27.1681 540.255 30.8603 542.993 Q34.5205 545.73 40.9181 545.73 Q47.3156 545.73 51.0077 543.024 Q54.668 540.287 54.668 535.545 Q54.668 530.866 50.9759 528.129 Q47.2838 525.391 40.9181 525.391 Q34.5842 525.391 30.8921 528.129 Q27.1681 530.866 27.1681 535.545 M22.2029 535.545 Q22.2029 527.906 27.1681 523.545 Q32.1334 519.185 40.9181 519.185 Q49.6709 519.185 54.668 523.545 Q59.6332 527.906 59.6332 535.545 Q59.6332 543.215 54.668 547.576 Q49.6709 551.905 40.9181 551.905 Q32.1334 551.905 27.1681 547.576 Q22.2029 543.215 22.2029 535.545 Z" fill="#000000" fill-rule="nonzero" fill-opacity="1" /><path clip-path="url(#clip880)" d="M9.18502 491.43 L14.0548 491.43 L14.0548 497.032 Q14.0548 500.183 15.3279 501.424 Q16.6011 502.634 19.9112 502.634 L23.0623 502.634 L23.0623 492.99 L27.6137 492.99 L27.6137 502.634 L58.7102 502.634 L58.7102 508.522 L27.6137 508.522 L27.6137 514.124 L23.0623 514.124 L23.0623 508.522 L20.5796 508.522 Q14.6277 508.522 11.9223 505.753 Q9.18502 502.984 9.18502 496.968 L9.18502 491.43 Z" fill="#000000" fill-rule="nonzero" fill-opacity="1" /><path clip-path="url(#clip880)" d="M24.1126 443.083 L29.6508 443.083 Q28.3776 445.565 27.7411 448.239 Q27.1045 450.913 27.1045 453.777 Q27.1045 458.138 28.4413 460.334 Q29.7781 462.498 32.4517 462.498 Q34.4887 462.498 35.6664 460.939 Q36.8122 459.379 37.8625 454.668 L38.3081 452.663 Q39.6449 446.425 42.0957 443.815 Q44.5147 441.173 48.8752 441.173 Q53.8405 441.173 56.7369 445.12 Q59.6332 449.035 59.6332 455.91 Q59.6332 458.774 59.0603 461.893 Q58.5192 464.981 57.4053 468.418 L51.3578 468.418 Q53.0447 465.172 53.9041 462.021 Q54.7317 458.87 54.7317 455.782 Q54.7317 451.645 53.3312 449.417 Q51.8989 447.189 49.3208 447.189 Q46.9337 447.189 45.6605 448.812 Q44.3874 450.403 43.2097 455.846 L42.7323 457.883 Q41.5865 463.326 39.2312 465.745 Q36.844 468.164 32.7063 468.164 Q27.6774 468.164 24.9401 464.599 Q22.2029 461.034 22.2029 454.477 Q22.2029 451.231 22.6803 448.366 Q23.1577 445.502 24.1126 443.083 Z" fill="#000000" fill-rule="nonzero" fill-opacity="1" /><path clip-path="url(#clip880)" d="M40.7908 415.647 Q40.7908 422.744 42.414 425.482 Q44.0373 428.219 47.9522 428.219 Q51.0714 428.219 52.9174 426.182 Q54.7317 424.113 54.7317 420.58 Q54.7317 415.71 51.2942 412.782 Q47.8249 409.822 42.0957 409.822 L40.7908 409.822 L40.7908 415.647 M38.3718 403.966 L58.7102 403.966 L58.7102 409.822 L53.2994 409.822 Q56.5459 411.827 58.1055 414.819 Q59.6332 417.811 59.6332 422.14 Q59.6332 427.614 56.5777 430.861 Q53.4903 434.075 48.3341 434.075 Q42.3185 434.075 39.263 430.065 Q36.2074 426.023 36.2074 418.034 L36.2074 409.822 L35.6345 409.822 Q31.5923 409.822 29.3961 412.496 Q27.1681 415.137 27.1681 419.943 Q27.1681 422.999 27.9002 425.895 Q28.6323 428.792 30.0964 431.465 L24.6855 431.465 Q23.4442 428.251 22.8395 425.227 Q22.2029 422.203 22.2029 419.339 Q22.2029 411.604 26.2133 407.785 Q30.2237 403.966 38.3718 403.966 Z" fill="#000000" fill-rule="nonzero" fill-opacity="1" /><path clip-path="url(#clip880)" d="M29.9054 364.148 Q25.9587 361.952 24.0808 358.896 Q22.2029 355.841 22.2029 351.703 Q22.2029 346.133 26.1178 343.109 Q30.0009 340.086 37.1941 340.086 L58.7102 340.086 L58.7102 345.974 L37.3851 345.974 Q32.2607 345.974 29.7781 347.788 Q27.2955 349.602 27.2955 353.326 Q27.2955 357.878 30.3192 360.52 Q33.3429 363.161 38.5628 363.161 L58.7102 363.161 L58.7102 369.05 L37.3851 369.05 Q32.2289 369.05 29.7781 370.864 Q27.2955 372.678 27.2955 376.466 Q27.2955 380.953 30.351 383.595 Q33.3747 386.237 38.5628 386.237 L58.7102 386.237 L58.7102 392.125 L23.0623 392.125 L23.0623 386.237 L28.6004 386.237 Q25.3221 384.232 23.7625 381.431 Q22.2029 378.63 22.2029 374.779 Q22.2029 370.896 24.1763 368.19 Q26.1496 365.453 29.9054 364.148 Z" fill="#000000" fill-rule="nonzero" fill-opacity="1" /><path clip-path="url(#clip880)" d="M53.363 322.739 L72.2692 322.739 L72.2692 328.627 L23.0623 328.627 L23.0623 322.739 L28.4731 322.739 Q25.2903 320.893 23.7625 318.092 Q22.2029 315.259 22.2029 311.344 Q22.2029 304.851 27.3591 300.809 Q32.5153 296.735 40.9181 296.735 Q49.3208 296.735 54.477 300.809 Q59.6332 304.851 59.6332 311.344 Q59.6332 315.259 58.1055 318.092 Q56.5459 320.893 53.363 322.739 M40.9181 302.814 Q34.4569 302.814 30.7966 305.488 Q27.1045 308.13 27.1045 312.777 Q27.1045 317.424 30.7966 320.097 Q34.4569 322.739 40.9181 322.739 Q47.3793 322.739 51.0714 320.097 Q54.7317 317.424 54.7317 312.777 Q54.7317 308.13 51.0714 305.488 Q47.3793 302.814 40.9181 302.814 Z" fill="#000000" fill-rule="nonzero" fill-opacity="1" /><path clip-path="url(#clip880)" d="M9.18502 287.027 L9.18502 281.171 L58.7102 281.171 L58.7102 287.027 L9.18502 287.027 Z" fill="#000000" fill-rule="nonzero" fill-opacity="1" /><path clip-path="url(#clip880)" d="M39.4221 238.425 L42.2867 238.425 L42.2867 265.352 Q48.3341 264.97 51.517 261.724 Q54.668 258.445 54.668 252.621 Q54.668 249.247 53.8405 246.096 Q53.0129 242.913 51.3578 239.794 L56.896 239.794 Q58.2328 242.945 58.933 246.255 Q59.6332 249.565 59.6332 252.971 Q59.6332 261.501 54.668 266.498 Q49.7027 271.463 41.2364 271.463 Q32.4835 271.463 27.3591 266.753 Q22.2029 262.01 22.2029 253.989 Q22.2029 246.796 26.8499 242.627 Q31.465 238.425 39.4221 238.425 M37.7034 244.282 Q32.8973 244.345 30.0327 246.987 Q27.1681 249.597 27.1681 253.926 Q27.1681 258.827 29.9372 261.787 Q32.7063 264.716 37.7352 265.161 L37.7034 244.282 Z" fill="#000000" fill-rule="nonzero" fill-opacity="1" /><path clip-path="url(#clip880)" d="M24.1126 206.088 L29.6508 206.088 Q28.3776 208.57 27.7411 211.244 Q27.1045 213.917 27.1045 216.782 Q27.1045 221.142 28.4413 223.339 Q29.7781 225.503 32.4517 225.503 Q34.4887 225.503 35.6664 223.943 Q36.8122 222.384 37.8625 217.673 L38.3081 215.668 Q39.6449 209.43 42.0957 206.82 Q44.5147 204.178 48.8752 204.178 Q53.8405 204.178 56.7369 208.125 Q59.6332 212.039 59.6332 218.914 Q59.6332 221.779 59.0603 224.898 Q58.5192 227.986 57.4053 231.423 L51.3578 231.423 Q53.0447 228.177 53.9041 225.026 Q54.7317 221.874 54.7317 218.787 Q54.7317 214.649 53.3312 212.421 Q51.8989 210.193 49.3208 210.193 Q46.9337 210.193 45.6605 211.817 Q44.3874 213.408 43.2097 218.851 L42.7323 220.888 Q41.5865 226.33 39.2312 228.749 Q36.844 231.168 32.7063 231.168 Q27.6774 231.168 24.9401 227.604 Q22.2029 224.039 22.2029 217.482 Q22.2029 214.236 22.6803 211.371 Q23.1577 208.506 24.1126 206.088 Z" fill="#000000" fill-rule="nonzero" fill-opacity="1" /><path clip-path="url(#clip882)" d="M425.169 243.289 L425.169 1031.59 L473.999 1031.59 L473.999 243.289 L425.169 243.289 L425.169 243.289  Z" fill="#ff8c00" fill-rule="evenodd" fill-opacity="1"/>
<polyline clip-path="url(#clip882)" style="stroke:#000000; stroke-linecap:round; stroke-linejoin:round; stroke-width:4; stroke-opacity:1; fill:none" points="425.169,243.289 425.169,1031.59 473.999,1031.59 473.999,243.289 425.169,243.289 "/>
<path clip-path="url(#clip882)" d="M473.999 78.7402 L473.999 1031.59 L522.829 1031.59 L522.829 78.7402 L473.999 78.7402 L473.999 78.7402  Z" fill="#ff8c00" fill-rule="evenodd" fill-opacity="1"/>
<polyline clip-path="url(#clip882)" style="stroke:#000000; stroke-linecap:round; stroke-linejoin:round; stroke-width:4; stroke-opacity:1; fill:none" points="473.999,78.7402 473.999,1031.59 522.829,1031.59 522.829,78.7402 473.999,78.7402 "/>
<path clip-path="url(#clip882)" d="M522.829 411.665 L522.829 1031.59 L571.659 1031.59 L571.659 411.665 L522.829 411.665 L522.829 411.665  Z" fill="#ff8c00" fill-rule="evenodd" fill-opacity="1"/>
<polyline clip-path="url(#clip882)" style="stroke:#000000; stroke-linecap:round; stroke-linejoin:round; stroke-width:4; stroke-opacity:1; fill:none" points="522.829,411.665 522.829,1031.59 571.659,1031.59 571.659,411.665 522.829,411.665 "/>
<path clip-path="url(#clip882)" d="M571.659 691.016 L571.659 1031.59 L620.49 1031.59 L620.49 691.016 L571.659 691.016 L571.659 691.016  Z" fill="#ff8c00" fill-rule="evenodd" fill-opacity="1"/>
<polyline clip-path="url(#clip882)" style="stroke:#000000; stroke-linecap:round; stroke-linejoin:round; stroke-width:4; stroke-opacity:1; fill:none" points="571.659,691.016 571.659,1031.59 620.49,1031.59 620.49,691.016 571.659,691.016 "/>
<path clip-path="url(#clip882)" d="M620.49 537.947 L620.49 1031.59 L669.32 1031.59 L669.32 537.947 L620.49 537.947 L620.49 537.947  Z" fill="#ff8c00" fill-rule="evenodd" fill-opacity="1"/>
<polyline clip-path="url(#clip882)" style="stroke:#000000; stroke-linecap:round; stroke-linejoin:round; stroke-width:4; stroke-opacity:1; fill:none" points="620.49,537.947 620.49,1031.59 669.32,1031.59 669.32,537.947 620.49,537.947 "/>
<path clip-path="url(#clip882)" d="M669.32 725.456 L669.32 1031.59 L718.15 1031.59 L718.15 725.456 L669.32 725.456 L669.32 725.456  Z" fill="#ff8c00" fill-rule="evenodd" fill-opacity="1"/>
<polyline clip-path="url(#clip882)" style="stroke:#000000; stroke-linecap:round; stroke-linejoin:round; stroke-width:4; stroke-opacity:1; fill:none" points="669.32,725.456 669.32,1031.59 718.15,1031.59 718.15,725.456 669.32,725.456 "/>
<path clip-path="url(#clip882)" d="M718.15 752.243 L718.15 1031.59 L766.98 1031.59 L766.98 752.243 L718.15 752.243 L718.15 752.243  Z" fill="#ff8c00" fill-rule="evenodd" fill-opacity="1"/>
<polyline clip-path="url(#clip882)" style="stroke:#000000; stroke-linecap:round; stroke-linejoin:round; stroke-width:4; stroke-opacity:1; fill:none" points="718.15,752.243 718.15,1031.59 766.98,1031.59 766.98,752.243 718.15,752.243 "/>
<path clip-path="url(#clip882)" d="M766.98 847.911 L766.98 1031.59 L815.81 1031.59 L815.81 847.911 L766.98 847.911 L766.98 847.911  Z" fill="#ff8c00" fill-rule="evenodd" fill-opacity="1"/>
<polyline clip-path="url(#clip882)" style="stroke:#000000; stroke-linecap:round; stroke-linejoin:round; stroke-width:4; stroke-opacity:1; fill:none" points="766.98,847.911 766.98,1031.59 815.81,1031.59 815.81,847.911 766.98,847.911 "/>
<path clip-path="url(#clip882)" d="M815.81 867.045 L815.81 1031.59 L864.641 1031.59 L864.641 867.045 L815.81 867.045 L815.81 867.045  Z" fill="#ff8c00" fill-rule="evenodd" fill-opacity="1"/>
<polyline clip-path="url(#clip882)" style="stroke:#000000; stroke-linecap:round; stroke-linejoin:round; stroke-width:4; stroke-opacity:1; fill:none" points="815.81,867.045 815.81,1031.59 864.641,1031.59 864.641,867.045 815.81,867.045 "/>
<path clip-path="url(#clip882)" d="M864.641 890.005 L864.641 1031.59 L913.471 1031.59 L913.471 890.005 L864.641 890.005 L864.641 890.005  Z" fill="#ff8c00" fill-rule="evenodd" fill-opacity="1"/>
<polyline clip-path="url(#clip882)" style="stroke:#000000; stroke-linecap:round; stroke-linejoin:round; stroke-width:4; stroke-opacity:1; fill:none" points="864.641,890.005 864.641,1031.59 913.471,1031.59 913.471,890.005 864.641,890.005 "/>
<path clip-path="url(#clip882)" d="M913.471 706.322 L913.471 1031.59 L962.301 1031.59 L962.301 706.322 L913.471 706.322 L913.471 706.322  Z" fill="#ff8c00" fill-rule="evenodd" fill-opacity="1"/>
<polyline clip-path="url(#clip882)" style="stroke:#000000; stroke-linecap:round; stroke-linejoin:round; stroke-width:4; stroke-opacity:1; fill:none" points="913.471,706.322 913.471,1031.59 962.301,1031.59 962.301,706.322 913.471,706.322 "/>
<path clip-path="url(#clip882)" d="M962.301 897.659 L962.301 1031.59 L1011.13 1031.59 L1011.13 897.659 L962.301 897.659 L962.301 897.659  Z" fill="#ff8c00" fill-rule="evenodd" fill-opacity="1"/>
<polyline clip-path="url(#clip882)" style="stroke:#000000; stroke-linecap:round; stroke-linejoin:round; stroke-width:4; stroke-opacity:1; fill:none" points="962.301,897.659 962.301,1031.59 1011.13,1031.59 1011.13,897.659 962.301,897.659 "/>
<path clip-path="url(#clip882)" d="M1011.13 985.673 L1011.13 1031.59 L1059.96 1031.59 L1059.96 985.673 L1011.13 985.673 L1011.13 985.673  Z" fill="#ff8c00" fill-rule="evenodd" fill-opacity="1"/>
<polyline clip-path="url(#clip882)" style="stroke:#000000; stroke-linecap:round; stroke-linejoin:round; stroke-width:4; stroke-opacity:1; fill:none" points="1011.13,985.673 1011.13,1031.59 1059.96,1031.59 1059.96,985.673 1011.13,985.673 "/>
<path clip-path="url(#clip882)" d="M1059.96 893.832 L1059.96 1031.59 L1108.79 1031.59 L1108.79 893.832 L1059.96 893.832 L1059.96 893.832  Z" fill="#ff8c00" fill-rule="evenodd" fill-opacity="1"/>
<polyline clip-path="url(#clip882)" style="stroke:#000000; stroke-linecap:round; stroke-linejoin:round; stroke-width:4; stroke-opacity:1; fill:none" points="1059.96,893.832 1059.96,1031.59 1108.79,1031.59 1108.79,893.832 1059.96,893.832 "/>
<path clip-path="url(#clip882)" d="M1108.79 912.965 L1108.79 1031.59 L1157.62 1031.59 L1157.62 912.965 L1108.79 912.965 L1108.79 912.965  Z" fill="#ff8c00" fill-rule="evenodd" fill-opacity="1"/>
<polyline clip-path="url(#clip882)" style="stroke:#000000; stroke-linecap:round; stroke-linejoin:round; stroke-width:4; stroke-opacity:1; fill:none" points="1108.79,912.965 1108.79,1031.59 1157.62,1031.59 1157.62,912.965 1108.79,912.965 "/>
<path clip-path="url(#clip882)" d="M1157.62 928.272 L1157.62 1031.59 L1206.45 1031.59 L1206.45 928.272 L1157.62 928.272 L1157.62 928.272  Z" fill="#ff8c00" fill-rule="evenodd" fill-opacity="1"/>
<polyline clip-path="url(#clip882)" style="stroke:#000000; stroke-linecap:round; stroke-linejoin:round; stroke-width:4; stroke-opacity:1; fill:none" points="1157.62,928.272 1157.62,1031.59 1206.45,1031.59 1206.45,928.272 1157.62,928.272 "/>
<path clip-path="url(#clip882)" d="M1206.45 1004.81 L1206.45 1031.59 L1255.28 1031.59 L1255.28 1004.81 L1206.45 1004.81 L1206.45 1004.81  Z" fill="#ff8c00" fill-rule="evenodd" fill-opacity="1"/>
<polyline clip-path="url(#clip882)" style="stroke:#000000; stroke-linecap:round; stroke-linejoin:round; stroke-width:4; stroke-opacity:1; fill:none" points="1206.45,1004.81 1206.45,1031.59 1255.28,1031.59 1255.28,1004.81 1206.45,1004.81 "/>
<path clip-path="url(#clip882)" d="M1255.28 1008.63 L1255.28 1031.59 L1304.11 1031.59 L1304.11 1008.63 L1255.28 1008.63 L1255.28 1008.63  Z" fill="#ff8c00" fill-rule="evenodd" fill-opacity="1"/>
<polyline clip-path="url(#clip882)" style="stroke:#000000; stroke-linecap:round; stroke-linejoin:round; stroke-width:4; stroke-opacity:1; fill:none" points="1255.28,1008.63 1255.28,1031.59 1304.11,1031.59 1304.11,1008.63 1255.28,1008.63 "/>
<path clip-path="url(#clip882)" d="M1304.11 993.327 L1304.11 1031.59 L1352.94 1031.59 L1352.94 993.327 L1304.11 993.327 L1304.11 993.327  Z" fill="#ff8c00" fill-rule="evenodd" fill-opacity="1"/>
<polyline clip-path="url(#clip882)" style="stroke:#000000; stroke-linecap:round; stroke-linejoin:round; stroke-width:4; stroke-opacity:1; fill:none" points="1304.11,993.327 1304.11,1031.59 1352.94,1031.59 1352.94,993.327 1304.11,993.327 "/>
<path clip-path="url(#clip882)" d="M1352.94 974.193 L1352.94 1031.59 L1401.77 1031.59 L1401.77 974.193 L1352.94 974.193 L1352.94 974.193  Z" fill="#ff8c00" fill-rule="evenodd" fill-opacity="1"/>
<polyline clip-path="url(#clip882)" style="stroke:#000000; stroke-linecap:round; stroke-linejoin:round; stroke-width:4; stroke-opacity:1; fill:none" points="1352.94,974.193 1352.94,1031.59 1401.77,1031.59 1401.77,974.193 1352.94,974.193 "/>
<path clip-path="url(#clip882)" d="M1401.77 935.926 L1401.77 1031.59 L1450.6 1031.59 L1450.6 935.926 L1401.77 935.926 L1401.77 935.926  Z" fill="#ff8c00" fill-rule="evenodd" fill-opacity="1"/>
<polyline clip-path="url(#clip882)" style="stroke:#000000; stroke-linecap:round; stroke-linejoin:round; stroke-width:4; stroke-opacity:1; fill:none" points="1401.77,935.926 1401.77,1031.59 1450.6,1031.59 1450.6,935.926 1401.77,935.926 "/>
<path clip-path="url(#clip882)" d="M1450.6 1000.98 L1450.6 1031.59 L1499.43 1031.59 L1499.43 1000.98 L1450.6 1000.98 L1450.6 1000.98  Z" fill="#ff8c00" fill-rule="evenodd" fill-opacity="1"/>
<polyline clip-path="url(#clip882)" style="stroke:#000000; stroke-linecap:round; stroke-linejoin:round; stroke-width:4; stroke-opacity:1; fill:none" points="1450.6,1000.98 1450.6,1031.59 1499.43,1031.59 1499.43,1000.98 1450.6,1000.98 "/>
<path clip-path="url(#clip882)" d="M1499.43 1031.59 L1499.43 1031.59 L1548.26 1031.59 L1548.26 1031.59 L1499.43 1031.59 L1499.43 1031.59  Z" fill="#ff8c00" fill-rule="evenodd" fill-opacity="1"/>
<polyline clip-path="url(#clip882)" style="stroke:#000000; stroke-linecap:round; stroke-linejoin:round; stroke-width:4; stroke-opacity:1; fill:none" points="1499.43,1031.59 1499.43,1031.59 1548.26,1031.59 1499.43,1031.59 "/>
<path clip-path="url(#clip882)" d="M1548.26 1008.63 L1548.26 1031.59 L1597.09 1031.59 L1597.09 1008.63 L1548.26 1008.63 L1548.26 1008.63  Z" fill="#ff8c00" fill-rule="evenodd" fill-opacity="1"/>
<polyline clip-path="url(#clip882)" style="stroke:#000000; stroke-linecap:round; stroke-linejoin:round; stroke-width:4; stroke-opacity:1; fill:none" points="1548.26,1008.63 1548.26,1031.59 1597.09,1031.59 1597.09,1008.63 1548.26,1008.63 "/>
<path clip-path="url(#clip882)" d="M1597.09 1020.11 L1597.09 1031.59 L1645.92 1031.59 L1645.92 1020.11 L1597.09 1020.11 L1597.09 1020.11  Z" fill="#ff8c00" fill-rule="evenodd" fill-opacity="1"/>
<polyline clip-path="url(#clip882)" style="stroke:#000000; stroke-linecap:round; stroke-linejoin:round; stroke-width:4; stroke-opacity:1; fill:none" points="1597.09,1020.11 1597.09,1031.59 1645.92,1031.59 1645.92,1020.11 1597.09,1020.11 "/>
<path clip-path="url(#clip882)" d="M1645.92 1000.98 L1645.92 1031.59 L1694.75 1031.59 L1694.75 1000.98 L1645.92 1000.98 L1645.92 1000.98  Z" fill="#ff8c00" fill-rule="evenodd" fill-opacity="1"/>
<polyline clip-path="url(#clip882)" style="stroke:#000000; stroke-linecap:round; stroke-linejoin:round; stroke-width:4; stroke-opacity:1; fill:none" points="1645.92,1000.98 1645.92,1031.59 1694.75,1031.59 1694.75,1000.98 1645.92,1000.98 "/>
<path clip-path="url(#clip882)" d="M1694.75 1023.94 L1694.75 1031.59 L1743.58 1031.59 L1743.58 1023.94 L1694.75 1023.94 L1694.75 1023.94  Z" fill="#ff8c00" fill-rule="evenodd" fill-opacity="1"/>
<polyline clip-path="url(#clip882)" style="stroke:#000000; stroke-linecap:round; stroke-linejoin:round; stroke-width:4; stroke-opacity:1; fill:none" points="1694.75,1023.94 1694.75,1031.59 1743.58,1031.59 1743.58,1023.94 1694.75,1023.94 "/>
<path clip-path="url(#clip882)" d="M1743.58 974.193 L1743.58 1031.59 L1792.41 1031.59 L1792.41 974.193 L1743.58 974.193 L1743.58 974.193  Z" fill="#ff8c00" fill-rule="evenodd" fill-opacity="1"/>
<polyline clip-path="url(#clip882)" style="stroke:#000000; stroke-linecap:round; stroke-linejoin:round; stroke-width:4; stroke-opacity:1; fill:none" points="1743.58,974.193 1743.58,1031.59 1792.41,1031.59 1792.41,974.193 1743.58,974.193 "/>
<path clip-path="url(#clip882)" d="M1792.41 985.673 L1792.41 1031.59 L1841.24 1031.59 L1841.24 985.673 L1792.41 985.673 L1792.41 985.673  Z" fill="#ff8c00" fill-rule="evenodd" fill-opacity="1"/>
<polyline clip-path="url(#clip882)" style="stroke:#000000; stroke-linecap:round; stroke-linejoin:round; stroke-width:4; stroke-opacity:1; fill:none" points="1792.41,985.673 1792.41,1031.59 1841.24,1031.59 1841.24,985.673 1792.41,985.673 "/>
<path clip-path="url(#clip882)" d="M1841.24 1000.98 L1841.24 1031.59 L1890.07 1031.59 L1890.07 1000.98 L1841.24 1000.98 L1841.24 1000.98  Z" fill="#ff8c00" fill-rule="evenodd" fill-opacity="1"/>
<polyline clip-path="url(#clip882)" style="stroke:#000000; stroke-linecap:round; stroke-linejoin:round; stroke-width:4; stroke-opacity:1; fill:none" points="1841.24,1000.98 1841.24,1031.59 1890.07,1031.59 1890.07,1000.98 1841.24,1000.98 "/>
<path clip-path="url(#clip882)" d="M1890.07 1023.94 L1890.07 1031.59 L1938.9 1031.59 L1938.9 1023.94 L1890.07 1023.94 L1890.07 1023.94  Z" fill="#ff8c00" fill-rule="evenodd" fill-opacity="1"/>
<polyline clip-path="url(#clip882)" style="stroke:#000000; stroke-linecap:round; stroke-linejoin:round; stroke-width:4; stroke-opacity:1; fill:none" points="1890.07,1023.94 1890.07,1031.59 1938.9,1031.59 1938.9,1023.94 1890.07,1023.94 "/>
<path clip-path="url(#clip882)" d="M1938.9 1027.77 L1938.9 1031.59 L1987.74 1031.59 L1987.74 1027.77 L1938.9 1027.77 L1938.9 1027.77  Z" fill="#ff8c00" fill-rule="evenodd" fill-opacity="1"/>
<polyline clip-path="url(#clip882)" style="stroke:#000000; stroke-linecap:round; stroke-linejoin:round; stroke-width:4; stroke-opacity:1; fill:none" points="1938.9,1027.77 1938.9,1031.59 1987.74,1031.59 1987.74,1027.77 1938.9,1027.77 "/>
<path clip-path="url(#clip882)" d="M1987.74 1023.94 L1987.74 1031.59 L2036.57 1031.59 L2036.57 1023.94 L1987.74 1023.94 L1987.74 1023.94  Z" fill="#ff8c00" fill-rule="evenodd" fill-opacity="1"/>
<polyline clip-path="url(#clip882)" style="stroke:#000000; stroke-linecap:round; stroke-linejoin:round; stroke-width:4; stroke-opacity:1; fill:none" points="1987.74,1023.94 1987.74,1031.59 2036.57,1031.59 2036.57,1023.94 1987.74,1023.94 "/>
<path clip-path="url(#clip882)" d="M2036.57 1031.59 L2036.57 1031.59 L2085.4 1031.59 L2085.4 1031.59 L2036.57 1031.59 L2036.57 1031.59  Z" fill="#ff8c00" fill-rule="evenodd" fill-opacity="1"/>
<polyline clip-path="url(#clip882)" style="stroke:#000000; stroke-linecap:round; stroke-linejoin:round; stroke-width:4; stroke-opacity:1; fill:none" points="2036.57,1031.59 2036.57,1031.59 2085.4,1031.59 2036.57,1031.59 "/>
<path clip-path="url(#clip882)" d="M2085.4 1031.59 L2085.4 1031.59 L2134.23 1031.59 L2134.23 1031.59 L2085.4 1031.59 L2085.4 1031.59  Z" fill="#ff8c00" fill-rule="evenodd" fill-opacity="1"/>
<polyline clip-path="url(#clip882)" style="stroke:#000000; stroke-linecap:round; stroke-linejoin:round; stroke-width:4; stroke-opacity:1; fill:none" points="2085.4,1031.59 2085.4,1031.59 2134.23,1031.59 2085.4,1031.59 "/>
<path clip-path="url(#clip882)" d="M2134.23 1012.46 L2134.23 1031.59 L2183.06 1031.59 L2183.06 1012.46 L2134.23 1012.46 L2134.23 1012.46  Z" fill="#ff8c00" fill-rule="evenodd" fill-opacity="1"/>
<polyline clip-path="url(#clip882)" style="stroke:#000000; stroke-linecap:round; stroke-linejoin:round; stroke-width:4; stroke-opacity:1; fill:none" points="2134.23,1012.46 2134.23,1031.59 2183.06,1031.59 2183.06,1012.46 2134.23,1012.46 "/>
<path clip-path="url(#clip882)" d="M2183.06 1031.59 L2183.06 1031.59 L2231.89 1031.59 L2231.89 1031.59 L2183.06 1031.59 L2183.06 1031.59  Z" fill="#ff8c00" fill-rule="evenodd" fill-opacity="1"/>
<polyline clip-path="url(#clip882)" style="stroke:#000000; stroke-linecap:round; stroke-linejoin:round; stroke-width:4; stroke-opacity:1; fill:none" points="2183.06,1031.59 2183.06,1031.59 2231.89,1031.59 2183.06,1031.59 "/>
<path clip-path="url(#clip882)" d="M2231.89 1008.63 L2231.89 1031.59 L2280.72 1031.59 L2280.72 1008.63 L2231.89 1008.63 L2231.89 1008.63  Z" fill="#ff8c00" fill-rule="evenodd" fill-opacity="1"/>
<polyline clip-path="url(#clip882)" style="stroke:#000000; stroke-linecap:round; stroke-linejoin:round; stroke-width:4; stroke-opacity:1; fill:none" points="2231.89,1008.63 2231.89,1031.59 2280.72,1031.59 2280.72,1008.63 2231.89,1008.63 "/>
<path clip-path="url(#clip882)" d="M2280.72 1012.46 L2280.72 1031.59 L2329.55 1031.59 L2329.55 1012.46 L2280.72 1012.46 L2280.72 1012.46  Z" fill="#ff8c00" fill-rule="evenodd" fill-opacity="1"/>
<polyline clip-path="url(#clip882)" style="stroke:#000000; stroke-linecap:round; stroke-linejoin:round; stroke-width:4; stroke-opacity:1; fill:none" points="2280.72,1012.46 2280.72,1031.59 2329.55,1031.59 2329.55,1012.46 2280.72,1012.46 "/>
<path clip-path="url(#clip882)" d="M2329.55 1031.59 L2329.55 1031.59 L2378.38 1031.59 L2378.38 1031.59 L2329.55 1031.59 L2329.55 1031.59  Z" fill="#ff8c00" fill-rule="evenodd" fill-opacity="1"/>
<polyline clip-path="url(#clip882)" style="stroke:#000000; stroke-linecap:round; stroke-linejoin:round; stroke-width:4; stroke-opacity:1; fill:none" points="2329.55,1031.59 2329.55,1031.59 2378.38,1031.59 2329.55,1031.59 "/>
<path clip-path="url(#clip882)" d="M2378.38 1031.59 L2378.38 1031.59 L2427.21 1031.59 L2427.21 1031.59 L2378.38 1031.59 L2378.38 1031.59  Z" fill="#ff8c00" fill-rule="evenodd" fill-opacity="1"/>
<polyline clip-path="url(#clip882)" style="stroke:#000000; stroke-linecap:round; stroke-linejoin:round; stroke-width:4; stroke-opacity:1; fill:none" points="2378.38,1031.59 2378.38,1031.59 2427.21,1031.59 2378.38,1031.59 "/>
<path clip-path="url(#clip882)" d="M2427.21 1016.29 L2427.21 1031.59 L2476.04 1031.59 L2476.04 1016.29 L2427.21 1016.29 L2427.21 1016.29  Z" fill="#ff8c00" fill-rule="evenodd" fill-opacity="1"/>
<polyline clip-path="url(#clip882)" style="stroke:#000000; stroke-linecap:round; stroke-linejoin:round; stroke-width:4; stroke-opacity:1; fill:none" points="2427.21,1016.29 2427.21,1031.59 2476.04,1031.59 2476.04,1016.29 2427.21,1016.29 "/>
<path clip-path="url(#clip882)" d="M2476.04 1027.77 L2476.04 1031.59 L2524.87 1031.59 L2524.87 1027.77 L2476.04 1027.77 L2476.04 1027.77  Z" fill="#ff8c00" fill-rule="evenodd" fill-opacity="1"/>
<polyline clip-path="url(#clip882)" style="stroke:#000000; stroke-linecap:round; stroke-linejoin:round; stroke-width:4; stroke-opacity:1; fill:none" points="2476.04,1027.77 2476.04,1031.59 2524.87,1031.59 2524.87,1027.77 2476.04,1027.77 "/>
<path clip-path="url(#clip882)" d="M2524.87 1027.77 L2524.87 1031.59 L2573.7 1031.59 L2573.7 1027.77 L2524.87 1027.77 L2524.87 1027.77  Z" fill="#ff8c00" fill-rule="evenodd" fill-opacity="1"/>
<polyline clip-path="url(#clip882)" style="stroke:#000000; stroke-linecap:round; stroke-linejoin:round; stroke-width:4; stroke-opacity:1; fill:none" points="2524.87,1027.77 2524.87,1031.59 2573.7,1031.59 2573.7,1027.77 2524.87,1027.77 "/>
<path clip-path="url(#clip882)" d="M2573.7 1031.59 L2573.7 1031.59 L2622.53 1031.59 L2622.53 1031.59 L2573.7 1031.59 L2573.7 1031.59  Z" fill="#ff8c00" fill-rule="evenodd" fill-opacity="1"/>
<polyline clip-path="url(#clip882)" style="stroke:#000000; stroke-linecap:round; stroke-linejoin:round; stroke-width:4; stroke-opacity:1; fill:none" points="2573.7,1031.59 2573.7,1031.59 2622.53,1031.59 2573.7,1031.59 "/>
<path clip-path="url(#clip882)" d="M2622.53 1031.59 L2622.53 1031.59 L2671.36 1031.59 L2671.36 1031.59 L2622.53 1031.59 L2622.53 1031.59  Z" fill="#ff8c00" fill-rule="evenodd" fill-opacity="1"/>
<polyline clip-path="url(#clip882)" style="stroke:#000000; stroke-linecap:round; stroke-linejoin:round; stroke-width:4; stroke-opacity:1; fill:none" points="2622.53,1031.59 2622.53,1031.59 2671.36,1031.59 2622.53,1031.59 "/>
<path clip-path="url(#clip882)" d="M2671.36 1031.59 L2671.36 1031.59 L2720.19 1031.59 L2720.19 1031.59 L2671.36 1031.59 L2671.36 1031.59  Z" fill="#ff8c00" fill-rule="evenodd" fill-opacity="1"/>
<polyline clip-path="url(#clip882)" style="stroke:#000000; stroke-linecap:round; stroke-linejoin:round; stroke-width:4; stroke-opacity:1; fill:none" points="2671.36,1031.59 2671.36,1031.59 2720.19,1031.59 2671.36,1031.59 "/>
<path clip-path="url(#clip882)" d="M2720.19 1027.77 L2720.19 1031.59 L2769.02 1031.59 L2769.02 1027.77 L2720.19 1027.77 L2720.19 1027.77  Z" fill="#ff8c00" fill-rule="evenodd" fill-opacity="1"/>
<polyline clip-path="url(#clip882)" style="stroke:#000000; stroke-linecap:round; stroke-linejoin:round; stroke-width:4; stroke-opacity:1; fill:none" points="2720.19,1027.77 2720.19,1031.59 2769.02,1031.59 2769.02,1027.77 2720.19,1027.77 "/>
<path clip-path="url(#clip882)" d="M2769.02 1031.59 L2769.02 1031.59 L2817.85 1031.59 L2817.85 1031.59 L2769.02 1031.59 L2769.02 1031.59  Z" fill="#ff8c00" fill-rule="evenodd" fill-opacity="1"/>
<polyline clip-path="url(#clip882)" style="stroke:#000000; stroke-linecap:round; stroke-linejoin:round; stroke-width:4; stroke-opacity:1; fill:none" points="2769.02,1031.59 2769.02,1031.59 2817.85,1031.59 2769.02,1031.59 "/>
<path clip-path="url(#clip882)" d="M2817.85 1031.59 L2817.85 1031.59 L2866.68 1031.59 L2866.68 1031.59 L2817.85 1031.59 L2817.85 1031.59  Z" fill="#ff8c00" fill-rule="evenodd" fill-opacity="1"/>
<polyline clip-path="url(#clip882)" style="stroke:#000000; stroke-linecap:round; stroke-linejoin:round; stroke-width:4; stroke-opacity:1; fill:none" points="2817.85,1031.59 2817.85,1031.59 2866.68,1031.59 2817.85,1031.59 "/>
<path clip-path="url(#clip882)" d="M2866.68 1031.59 L2866.68 1031.59 L2915.51 1031.59 L2915.51 1031.59 L2866.68 1031.59 L2866.68 1031.59  Z" fill="#ff8c00" fill-rule="evenodd" fill-opacity="1"/>
<polyline clip-path="url(#clip882)" style="stroke:#000000; stroke-linecap:round; stroke-linejoin:round; stroke-width:4; stroke-opacity:1; fill:none" points="2866.68,1031.59 2866.68,1031.59 2915.51,1031.59 2866.68,1031.59 "/>
<path clip-path="url(#clip882)" d="M2915.51 1012.46 L2915.51 1031.59 L2964.34 1031.59 L2964.34 1012.46 L2915.51 1012.46 L2915.51 1012.46  Z" fill="#ff8c00" fill-rule="evenodd" fill-opacity="1"/>
<polyline clip-path="url(#clip882)" style="stroke:#000000; stroke-linecap:round; stroke-linejoin:round; stroke-width:4; stroke-opacity:1; fill:none" points="2915.51,1012.46 2915.51,1031.59 2964.34,1031.59 2964.34,1012.46 2915.51,1012.46 "/>
<circle clip-path="url(#clip882)" style="fill:#ff8c00; stroke:none; fill-opacity:0" cx="449.584" cy="243.289" r="2"/>
<circle clip-path="url(#clip882)" style="fill:#ff8c00; stroke:none; fill-opacity:0" cx="498.414" cy="78.7402" r="2"/>
<circle clip-path="url(#clip882)" style="fill:#ff8c00; stroke:none; fill-opacity:0" cx="547.244" cy="411.665" r="2"/>
<circle clip-path="url(#clip882)" style="fill:#ff8c00; stroke:none; fill-opacity:0" cx="596.075" cy="691.016" r="2"/>
<circle clip-path="url(#clip882)" style="fill:#ff8c00; stroke:none; fill-opacity:0" cx="644.905" cy="537.947" r="2"/>
<circle clip-path="url(#clip882)" style="fill:#ff8c00; stroke:none; fill-opacity:0" cx="693.735" cy="725.456" r="2"/>
<circle clip-path="url(#clip882)" style="fill:#ff8c00; stroke:none; fill-opacity:0" cx="742.565" cy="752.243" r="2"/>
<circle clip-path="url(#clip882)" style="fill:#ff8c00; stroke:none; fill-opacity:0" cx="791.395" cy="847.911" r="2"/>
<circle clip-path="url(#clip882)" style="fill:#ff8c00; stroke:none; fill-opacity:0" cx="840.226" cy="867.045" r="2"/>
<circle clip-path="url(#clip882)" style="fill:#ff8c00; stroke:none; fill-opacity:0" cx="889.056" cy="890.005" r="2"/>
<circle clip-path="url(#clip882)" style="fill:#ff8c00; stroke:none; fill-opacity:0" cx="937.886" cy="706.322" r="2"/>
<circle clip-path="url(#clip882)" style="fill:#ff8c00; stroke:none; fill-opacity:0" cx="986.716" cy="897.659" r="2"/>
<circle clip-path="url(#clip882)" style="fill:#ff8c00; stroke:none; fill-opacity:0" cx="1035.55" cy="985.673" r="2"/>
<circle clip-path="url(#clip882)" style="fill:#ff8c00; stroke:none; fill-opacity:0" cx="1084.38" cy="893.832" r="2"/>
<circle clip-path="url(#clip882)" style="fill:#ff8c00; stroke:none; fill-opacity:0" cx="1133.21" cy="912.965" r="2"/>
<circle clip-path="url(#clip882)" style="fill:#ff8c00; stroke:none; fill-opacity:0" cx="1182.04" cy="928.272" r="2"/>
<circle clip-path="url(#clip882)" style="fill:#ff8c00; stroke:none; fill-opacity:0" cx="1230.87" cy="1004.81" r="2"/>
<circle clip-path="url(#clip882)" style="fill:#ff8c00; stroke:none; fill-opacity:0" cx="1279.7" cy="1008.63" r="2"/>
<circle clip-path="url(#clip882)" style="fill:#ff8c00; stroke:none; fill-opacity:0" cx="1328.53" cy="993.327" r="2"/>
<circle clip-path="url(#clip882)" style="fill:#ff8c00; stroke:none; fill-opacity:0" cx="1377.36" cy="974.193" r="2"/>
<circle clip-path="url(#clip882)" style="fill:#ff8c00; stroke:none; fill-opacity:0" cx="1426.19" cy="935.926" r="2"/>
<circle clip-path="url(#clip882)" style="fill:#ff8c00; stroke:none; fill-opacity:0" cx="1475.02" cy="1000.98" r="2"/>
<circle clip-path="url(#clip882)" style="fill:#ff8c00; stroke:none; fill-opacity:0" cx="1523.85" cy="1031.59" r="2"/>
<circle clip-path="url(#clip882)" style="fill:#ff8c00; stroke:none; fill-opacity:0" cx="1572.68" cy="1008.63" r="2"/>
<circle clip-path="url(#clip882)" style="fill:#ff8c00; stroke:none; fill-opacity:0" cx="1621.51" cy="1020.11" r="2"/>
<circle clip-path="url(#clip882)" style="fill:#ff8c00; stroke:none; fill-opacity:0" cx="1670.34" cy="1000.98" r="2"/>
<circle clip-path="url(#clip882)" style="fill:#ff8c00; stroke:none; fill-opacity:0" cx="1719.17" cy="1023.94" r="2"/>
<circle clip-path="url(#clip882)" style="fill:#ff8c00; stroke:none; fill-opacity:0" cx="1768" cy="974.193" r="2"/>
<circle clip-path="url(#clip882)" style="fill:#ff8c00; stroke:none; fill-opacity:0" cx="1816.83" cy="985.673" r="2"/>
<circle clip-path="url(#clip882)" style="fill:#ff8c00; stroke:none; fill-opacity:0" cx="1865.66" cy="1000.98" r="2"/>
<circle clip-path="url(#clip882)" style="fill:#ff8c00; stroke:none; fill-opacity:0" cx="1914.49" cy="1023.94" r="2"/>
<circle clip-path="url(#clip882)" style="fill:#ff8c00; stroke:none; fill-opacity:0" cx="1963.32" cy="1027.77" r="2"/>
<circle clip-path="url(#clip882)" style="fill:#ff8c00; stroke:none; fill-opacity:0" cx="2012.15" cy="1023.94" r="2"/>
<circle clip-path="url(#clip882)" style="fill:#ff8c00; stroke:none; fill-opacity:0" cx="2060.98" cy="1031.59" r="2"/>
<circle clip-path="url(#clip882)" style="fill:#ff8c00; stroke:none; fill-opacity:0" cx="2109.81" cy="1031.59" r="2"/>
<circle clip-path="url(#clip882)" style="fill:#ff8c00; stroke:none; fill-opacity:0" cx="2158.64" cy="1012.46" r="2"/>
<circle clip-path="url(#clip882)" style="fill:#ff8c00; stroke:none; fill-opacity:0" cx="2207.47" cy="1031.59" r="2"/>
<circle clip-path="url(#clip882)" style="fill:#ff8c00; stroke:none; fill-opacity:0" cx="2256.3" cy="1008.63" r="2"/>
<circle clip-path="url(#clip882)" style="fill:#ff8c00; stroke:none; fill-opacity:0" cx="2305.13" cy="1012.46" r="2"/>
<circle clip-path="url(#clip882)" style="fill:#ff8c00; stroke:none; fill-opacity:0" cx="2353.96" cy="1031.59" r="2"/>
<circle clip-path="url(#clip882)" style="fill:#ff8c00; stroke:none; fill-opacity:0" cx="2402.79" cy="1031.59" r="2"/>
<circle clip-path="url(#clip882)" style="fill:#ff8c00; stroke:none; fill-opacity:0" cx="2451.62" cy="1016.29" r="2"/>
<circle clip-path="url(#clip882)" style="fill:#ff8c00; stroke:none; fill-opacity:0" cx="2500.45" cy="1027.77" r="2"/>
<circle clip-path="url(#clip882)" style="fill:#ff8c00; stroke:none; fill-opacity:0" cx="2549.28" cy="1027.77" r="2"/>
<circle clip-path="url(#clip882)" style="fill:#ff8c00; stroke:none; fill-opacity:0" cx="2598.11" cy="1031.59" r="2"/>
<circle clip-path="url(#clip882)" style="fill:#ff8c00; stroke:none; fill-opacity:0" cx="2646.94" cy="1031.59" r="2"/>
<circle clip-path="url(#clip882)" style="fill:#ff8c00; stroke:none; fill-opacity:0" cx="2695.77" cy="1031.59" r="2"/>
<circle clip-path="url(#clip882)" style="fill:#ff8c00; stroke:none; fill-opacity:0" cx="2744.6" cy="1027.77" r="2"/>
<circle clip-path="url(#clip882)" style="fill:#ff8c00; stroke:none; fill-opacity:0" cx="2793.43" cy="1031.59" r="2"/>
<circle clip-path="url(#clip882)" style="fill:#ff8c00; stroke:none; fill-opacity:0" cx="2842.26" cy="1031.59" r="2"/>
<circle clip-path="url(#clip882)" style="fill:#ff8c00; stroke:none; fill-opacity:0" cx="2891.09" cy="1031.59" r="2"/>
<circle clip-path="url(#clip882)" style="fill:#ff8c00; stroke:none; fill-opacity:0" cx="2939.92" cy="1012.46" r="2"/>
</svg>
