<?xml version="1.0" encoding="utf-8"?>
<svg xmlns="http://www.w3.org/2000/svg" xmlns:xlink="http://www.w3.org/1999/xlink" width="600" height="400" viewBox="0 0 2400 1600">
<defs>
  <clipPath id="clip800">
    <rect x="0" y="0" width="2400" height="1600"/>
  </clipPath>
</defs>
<path clip-path="url(#clip800)" d="M0 1600 L2400 1600 L2400 8.88178e-14 L0 8.88178e-14  Z" fill="#ffffff" fill-rule="evenodd" fill-opacity="1"/>
<defs>
  <clipPath id="clip801">
    <rect x="480" y="0" width="1681" height="1600"/>
  </clipPath>
</defs>
<path clip-path="url(#clip800)" d="M311.2 1391.68 L2321.26 1391.68 L2321.26 78.7402 L311.2 78.7402  Z" fill="#ffffff" fill-rule="evenodd" fill-opacity="1"/>
<defs>
  <clipPath id="clip802">
    <rect x="311" y="78" width="2011" height="1314"/>
  </clipPath>
</defs>
<polyline clip-path="url(#clip802)" style="stroke:#000000; stroke-linecap:round; stroke-linejoin:round; stroke-width:2; stroke-opacity:0.1; fill:none" points="421.757,1391.68 421.757,78.7402 "/>
<polyline clip-path="url(#clip802)" style="stroke:#000000; stroke-linecap:round; stroke-linejoin:round; stroke-width:2; stroke-opacity:0.1; fill:none" points="860.224,1391.68 860.224,78.7402 "/>
<polyline clip-path="url(#clip802)" style="stroke:#000000; stroke-linecap:round; stroke-linejoin:round; stroke-width:2; stroke-opacity:0.1; fill:none" points="1298.69,1391.68 1298.69,78.7402 "/>
<polyline clip-path="url(#clip802)" style="stroke:#000000; stroke-linecap:round; stroke-linejoin:round; stroke-width:2; stroke-opacity:0.1; fill:none" points="1737.16,1391.68 1737.16,78.7402 "/>
<polyline clip-path="url(#clip802)" style="stroke:#000000; stroke-linecap:round; stroke-linejoin:round; stroke-width:2; stroke-opacity:0.1; fill:none" points="2175.63,1391.68 2175.63,78.7402 "/>
<polyline clip-path="url(#clip800)" style="stroke:#000000; stroke-linecap:round; stroke-linejoin:round; stroke-width:4; stroke-opacity:1; fill:none" points="311.2,1391.68 2321.26,1391.68 "/>
<polyline clip-path="url(#clip800)" style="stroke:#000000; stroke-linecap:round; stroke-linejoin:round; stroke-width:4; stroke-opacity:1; fill:none" points="421.757,1391.68 421.757,1372.79 "/>
<polyline clip-path="url(#clip800)" style="stroke:#000000; stroke-linecap:round; stroke-linejoin:round; stroke-width:4; stroke-opacity:1; fill:none" points="860.224,1391.68 860.224,1372.79 "/>
<polyline clip-path="url(#clip800)" style="stroke:#000000; stroke-linecap:round; stroke-linejoin:round; stroke-width:4; stroke-opacity:1; fill:none" points="1298.69,1391.68 1298.69,1372.79 "/>
<polyline clip-path="url(#clip800)" style="stroke:#000000; stroke-linecap:round; stroke-linejoin:round; stroke-width:4; stroke-opacity:1; fill:none" points="1737.16,1391.68 1737.16,1372.79 "/>
<polyline clip-path="url(#clip800)" style="stroke:#000000; stroke-linecap:round; stroke-linejoin:round; stroke-width:4; stroke-opacity:1; fill:none" points="2175.63,1391.68 2175.63,1372.79 "/>
<path clip-path="url(#clip800)" d="M368.979 1422.6 Q365.368 1422.6 363.54 1426.17 Q361.734 1429.71 361.734 1436.84 Q361.734 1443.94 363.54 1447.51 Q365.368 1451.05 368.979 1451.05 Q372.614 1451.05 374.419 1447.51 Q376.248 1443.94 376.248 1436.84 Q376.248 1429.71 374.419 1426.17 Q372.614 1422.6 368.979 1422.6 M368.979 1418.9 Q374.79 1418.9 377.845 1423.51 Q380.924 1428.09 380.924 1436.84 Q380.924 1445.57 377.845 1450.17 Q374.79 1454.76 368.979 1454.76 Q363.169 1454.76 360.091 1450.17 Q357.035 1445.57 357.035 1436.84 Q357.035 1428.09 360.091 1423.51 Q363.169 1418.9 368.979 1418.9 Z" fill="#000000" fill-rule="nonzero" fill-opacity="1" /><path clip-path="url(#clip800)" d="M389.141 1448.2 L394.026 1448.2 L394.026 1454.08 L389.141 1454.08 L389.141 1448.2 Z" fill="#000000" fill-rule="nonzero" fill-opacity="1" /><path clip-path="url(#clip800)" d="M414.211 1422.6 Q410.599 1422.6 408.771 1426.17 Q406.965 1429.71 406.965 1436.84 Q406.965 1443.94 408.771 1447.51 Q410.599 1451.05 414.211 1451.05 Q417.845 1451.05 419.65 1447.51 Q421.479 1443.94 421.479 1436.84 Q421.479 1429.71 419.65 1426.17 Q417.845 1422.6 414.211 1422.6 M414.211 1418.9 Q420.021 1418.9 423.076 1423.51 Q426.155 1428.09 426.155 1436.84 Q426.155 1445.57 423.076 1450.17 Q420.021 1454.76 414.211 1454.76 Q408.4 1454.76 405.322 1450.17 Q402.266 1445.57 402.266 1436.84 Q402.266 1428.09 405.322 1423.51 Q408.4 1418.9 414.211 1418.9 Z" fill="#000000" fill-rule="nonzero" fill-opacity="1" /><path clip-path="url(#clip800)" d="M444.372 1422.6 Q440.761 1422.6 438.933 1426.17 Q437.127 1429.71 437.127 1436.84 Q437.127 1443.94 438.933 1447.51 Q440.761 1451.05 444.372 1451.05 Q448.007 1451.05 449.812 1447.51 Q451.641 1443.94 451.641 1436.84 Q451.641 1429.71 449.812 1426.17 Q448.007 1422.6 444.372 1422.6 M444.372 1418.9 Q450.183 1418.9 453.238 1423.51 Q456.317 1428.09 456.317 1436.84 Q456.317 1445.57 453.238 1450.17 Q450.183 1454.76 444.372 1454.76 Q438.562 1454.76 435.484 1450.17 Q432.428 1445.57 432.428 1436.84 Q432.428 1428.09 435.484 1423.51 Q438.562 1418.9 444.372 1418.9 Z" fill="#000000" fill-rule="nonzero" fill-opacity="1" /><path clip-path="url(#clip800)" d="M474.534 1422.6 Q470.923 1422.6 469.095 1426.17 Q467.289 1429.71 467.289 1436.84 Q467.289 1443.94 469.095 1447.51 Q470.923 1451.05 474.534 1451.05 Q478.169 1451.05 479.974 1447.51 Q481.803 1443.94 481.803 1436.84 Q481.803 1429.71 479.974 1426.17 Q478.169 1422.6 474.534 1422.6 M474.534 1418.9 Q480.344 1418.9 483.4 1423.51 Q486.479 1428.09 486.479 1436.84 Q486.479 1445.57 483.4 1450.17 Q480.344 1454.76 474.534 1454.76 Q468.724 1454.76 465.645 1450.17 Q462.59 1445.57 462.59 1436.84 Q462.59 1428.09 465.645 1423.51 Q468.724 1418.9 474.534 1418.9 Z" fill="#000000" fill-rule="nonzero" fill-opacity="1" /><path clip-path="url(#clip800)" d="M807.944 1422.6 Q804.333 1422.6 802.504 1426.17 Q800.699 1429.71 800.699 1436.84 Q800.699 1443.94 802.504 1447.51 Q804.333 1451.05 807.944 1451.05 Q811.578 1451.05 813.384 1447.51 Q815.213 1443.94 815.213 1436.84 Q815.213 1429.71 813.384 1426.17 Q811.578 1422.6 807.944 1422.6 M807.944 1418.9 Q813.754 1418.9 816.81 1423.51 Q819.889 1428.09 819.889 1436.84 Q819.889 1445.57 816.81 1450.17 Q813.754 1454.76 807.944 1454.76 Q802.134 1454.76 799.055 1450.17 Q796 1445.57 796 1436.84 Q796 1428.09 799.055 1423.51 Q802.134 1418.9 807.944 1418.9 Z" fill="#000000" fill-rule="nonzero" fill-opacity="1" /><path clip-path="url(#clip800)" d="M828.106 1448.2 L832.99 1448.2 L832.99 1454.08 L828.106 1454.08 L828.106 1448.2 Z" fill="#000000" fill-rule="nonzero" fill-opacity="1" /><path clip-path="url(#clip800)" d="M853.175 1422.6 Q849.564 1422.6 847.736 1426.17 Q845.93 1429.71 845.93 1436.84 Q845.93 1443.94 847.736 1447.51 Q849.564 1451.05 853.175 1451.05 Q856.81 1451.05 858.615 1447.51 Q860.444 1443.94 860.444 1436.84 Q860.444 1429.71 858.615 1426.17 Q856.81 1422.6 853.175 1422.6 M853.175 1418.9 Q858.986 1418.9 862.041 1423.51 Q865.12 1428.09 865.12 1436.84 Q865.12 1445.57 862.041 1450.17 Q858.986 1454.76 853.175 1454.76 Q847.365 1454.76 844.287 1450.17 Q841.231 1445.57 841.231 1436.84 Q841.231 1428.09 844.287 1423.51 Q847.365 1418.9 853.175 1418.9 Z" fill="#000000" fill-rule="nonzero" fill-opacity="1" /><path clip-path="url(#clip800)" d="M877.365 1450.15 L893.684 1450.15 L893.684 1454.08 L871.74 1454.08 L871.74 1450.15 Q874.402 1447.39 878.986 1442.76 Q883.592 1438.11 884.773 1436.77 Q887.018 1434.25 887.897 1432.51 Q888.8 1430.75 888.8 1429.06 Q888.8 1426.31 886.856 1424.57 Q884.935 1422.83 881.833 1422.83 Q879.634 1422.83 877.18 1423.6 Q874.749 1424.36 871.972 1425.91 L871.972 1421.19 Q874.796 1420.06 877.249 1419.48 Q879.703 1418.9 881.74 1418.9 Q887.11 1418.9 890.305 1421.58 Q893.499 1424.27 893.499 1428.76 Q893.499 1430.89 892.689 1432.81 Q891.902 1434.71 889.796 1437.3 Q889.217 1437.97 886.115 1441.19 Q883.013 1444.38 877.365 1450.15 Z" fill="#000000" fill-rule="nonzero" fill-opacity="1" /><path clip-path="url(#clip800)" d="M903.546 1419.52 L921.902 1419.52 L921.902 1423.46 L907.828 1423.46 L907.828 1431.93 Q908.846 1431.58 909.865 1431.42 Q910.883 1431.24 911.902 1431.24 Q917.689 1431.24 921.069 1434.41 Q924.448 1437.58 924.448 1443 Q924.448 1448.57 920.976 1451.68 Q917.504 1454.76 911.184 1454.76 Q909.008 1454.76 906.74 1454.38 Q904.495 1454.01 902.087 1453.27 L902.087 1448.57 Q904.171 1449.71 906.393 1450.26 Q908.615 1450.82 911.092 1450.82 Q915.096 1450.82 917.434 1448.71 Q919.772 1446.61 919.772 1443 Q919.772 1439.38 917.434 1437.28 Q915.096 1435.17 911.092 1435.17 Q909.217 1435.17 907.342 1435.59 Q905.49 1436.01 903.546 1436.88 L903.546 1419.52 Z" fill="#000000" fill-rule="nonzero" fill-opacity="1" /><path clip-path="url(#clip800)" d="M1245.91 1422.6 Q1242.3 1422.6 1240.47 1426.17 Q1238.67 1429.71 1238.67 1436.84 Q1238.67 1443.94 1240.47 1447.51 Q1242.3 1451.05 1245.91 1451.05 Q1249.55 1451.05 1251.35 1447.51 Q1253.18 1443.94 1253.18 1436.84 Q1253.18 1429.71 1251.35 1426.17 Q1249.55 1422.6 1245.91 1422.6 M1245.91 1418.9 Q1251.72 1418.9 1254.78 1423.51 Q1257.86 1428.09 1257.86 1436.84 Q1257.86 1445.57 1254.78 1450.17 Q1251.72 1454.76 1245.91 1454.76 Q1240.1 1454.76 1237.02 1450.17 Q1233.97 1445.57 1233.97 1436.84 Q1233.97 1428.09 1237.02 1423.51 Q1240.1 1418.9 1245.91 1418.9 Z" fill="#000000" fill-rule="nonzero" fill-opacity="1" /><path clip-path="url(#clip800)" d="M1266.08 1448.2 L1270.96 1448.2 L1270.96 1454.08 L1266.08 1454.08 L1266.08 1448.2 Z" fill="#000000" fill-rule="nonzero" fill-opacity="1" /><path clip-path="url(#clip800)" d="M1291.14 1422.6 Q1287.53 1422.6 1285.71 1426.17 Q1283.9 1429.71 1283.9 1436.84 Q1283.9 1443.94 1285.71 1447.51 Q1287.53 1451.05 1291.14 1451.05 Q1294.78 1451.05 1296.58 1447.51 Q1298.41 1443.94 1298.41 1436.84 Q1298.41 1429.71 1296.58 1426.17 Q1294.78 1422.6 1291.14 1422.6 M1291.14 1418.9 Q1296.96 1418.9 1300.01 1423.51 Q1303.09 1428.09 1303.09 1436.84 Q1303.09 1445.57 1300.01 1450.17 Q1296.96 1454.76 1291.14 1454.76 Q1285.33 1454.76 1282.26 1450.17 Q1279.2 1445.57 1279.2 1436.84 Q1279.2 1428.09 1282.26 1423.51 Q1285.33 1418.9 1291.14 1418.9 Z" fill="#000000" fill-rule="nonzero" fill-opacity="1" /><path clip-path="url(#clip800)" d="M1311.35 1419.52 L1329.71 1419.52 L1329.71 1423.46 L1315.64 1423.46 L1315.64 1431.93 Q1316.65 1431.58 1317.67 1431.42 Q1318.69 1431.24 1319.71 1431.24 Q1325.5 1431.24 1328.88 1434.41 Q1332.26 1437.58 1332.26 1443 Q1332.26 1448.57 1328.78 1451.68 Q1325.31 1454.76 1318.99 1454.76 Q1316.82 1454.76 1314.55 1454.38 Q1312.3 1454.01 1309.89 1453.27 L1309.89 1448.57 Q1311.98 1449.71 1314.2 1450.26 Q1316.42 1450.82 1318.9 1450.82 Q1322.9 1450.82 1325.24 1448.71 Q1327.58 1446.61 1327.58 1443 Q1327.58 1439.38 1325.24 1437.28 Q1322.9 1435.17 1318.9 1435.17 Q1317.02 1435.17 1315.15 1435.59 Q1313.3 1436.01 1311.35 1436.88 L1311.35 1419.52 Z" fill="#000000" fill-rule="nonzero" fill-opacity="1" /><path clip-path="url(#clip800)" d="M1351.47 1422.6 Q1347.86 1422.6 1346.03 1426.17 Q1344.22 1429.71 1344.22 1436.84 Q1344.22 1443.94 1346.03 1447.51 Q1347.86 1451.05 1351.47 1451.05 Q1355.1 1451.05 1356.91 1447.51 Q1358.74 1443.94 1358.74 1436.84 Q1358.74 1429.71 1356.91 1426.17 Q1355.1 1422.6 1351.47 1422.6 M1351.47 1418.9 Q1357.28 1418.9 1360.33 1423.51 Q1363.41 1428.09 1363.41 1436.84 Q1363.41 1445.57 1360.33 1450.17 Q1357.28 1454.76 1351.47 1454.76 Q1345.66 1454.76 1342.58 1450.17 Q1339.52 1445.57 1339.52 1436.84 Q1339.52 1428.09 1342.58 1423.51 Q1345.66 1418.9 1351.47 1418.9 Z" fill="#000000" fill-rule="nonzero" fill-opacity="1" /><path clip-path="url(#clip800)" d="M1684.88 1422.6 Q1681.27 1422.6 1679.44 1426.17 Q1677.63 1429.71 1677.63 1436.84 Q1677.63 1443.94 1679.44 1447.51 Q1681.27 1451.05 1684.88 1451.05 Q1688.51 1451.05 1690.32 1447.51 Q1692.15 1443.94 1692.15 1436.84 Q1692.15 1429.71 1690.32 1426.17 Q1688.51 1422.6 1684.88 1422.6 M1684.88 1418.9 Q1690.69 1418.9 1693.74 1423.51 Q1696.82 1428.09 1696.82 1436.84 Q1696.82 1445.57 1693.74 1450.17 Q1690.69 1454.76 1684.88 1454.76 Q1679.07 1454.76 1675.99 1450.17 Q1672.93 1445.57 1672.93 1436.84 Q1672.93 1428.09 1675.99 1423.51 Q1679.07 1418.9 1684.88 1418.9 Z" fill="#000000" fill-rule="nonzero" fill-opacity="1" /><path clip-path="url(#clip800)" d="M1705.04 1448.2 L1709.92 1448.2 L1709.92 1454.08 L1705.04 1454.08 L1705.04 1448.2 Z" fill="#000000" fill-rule="nonzero" fill-opacity="1" /><path clip-path="url(#clip800)" d="M1730.11 1422.6 Q1726.5 1422.6 1724.67 1426.17 Q1722.86 1429.71 1722.86 1436.84 Q1722.86 1443.94 1724.67 1447.51 Q1726.5 1451.05 1730.11 1451.05 Q1733.74 1451.05 1735.55 1447.51 Q1737.38 1443.94 1737.38 1436.84 Q1737.38 1429.71 1735.55 1426.17 Q1733.74 1422.6 1730.11 1422.6 M1730.11 1418.9 Q1735.92 1418.9 1738.98 1423.51 Q1742.05 1428.09 1742.05 1436.84 Q1742.05 1445.57 1738.98 1450.17 Q1735.92 1454.76 1730.11 1454.76 Q1724.3 1454.76 1721.22 1450.17 Q1718.17 1445.57 1718.17 1436.84 Q1718.17 1428.09 1721.22 1423.51 Q1724.3 1418.9 1730.11 1418.9 Z" fill="#000000" fill-rule="nonzero" fill-opacity="1" /><path clip-path="url(#clip800)" d="M1749.09 1419.52 L1771.31 1419.52 L1771.31 1421.51 L1758.77 1454.08 L1753.88 1454.08 L1765.69 1423.46 L1749.09 1423.46 L1749.09 1419.52 Z" fill="#000000" fill-rule="nonzero" fill-opacity="1" /><path clip-path="url(#clip800)" d="M1780.48 1419.52 L1798.84 1419.52 L1798.84 1423.46 L1784.76 1423.46 L1784.76 1431.93 Q1785.78 1431.58 1786.8 1431.42 Q1787.82 1431.24 1788.84 1431.24 Q1794.62 1431.24 1798 1434.41 Q1801.38 1437.58 1801.38 1443 Q1801.38 1448.57 1797.91 1451.68 Q1794.44 1454.76 1788.12 1454.76 Q1785.94 1454.76 1783.67 1454.38 Q1781.43 1454.01 1779.02 1453.27 L1779.02 1448.57 Q1781.1 1449.71 1783.33 1450.26 Q1785.55 1450.82 1788.03 1450.82 Q1792.03 1450.82 1794.37 1448.71 Q1796.71 1446.61 1796.71 1443 Q1796.71 1439.38 1794.37 1437.28 Q1792.03 1435.17 1788.03 1435.17 Q1786.15 1435.17 1784.28 1435.59 Q1782.42 1436.01 1780.48 1436.88 L1780.48 1419.52 Z" fill="#000000" fill-rule="nonzero" fill-opacity="1" /><path clip-path="url(#clip800)" d="M2122.85 1422.6 Q2119.24 1422.6 2117.41 1426.17 Q2115.6 1429.71 2115.6 1436.84 Q2115.6 1443.94 2117.41 1447.51 Q2119.24 1451.05 2122.85 1451.05 Q2126.48 1451.05 2128.29 1447.51 Q2130.12 1443.94 2130.12 1436.84 Q2130.12 1429.71 2128.29 1426.17 Q2126.48 1422.6 2122.85 1422.6 M2122.85 1418.9 Q2128.66 1418.9 2131.71 1423.51 Q2134.79 1428.09 2134.79 1436.84 Q2134.79 1445.57 2131.71 1450.17 Q2128.66 1454.76 2122.85 1454.76 Q2117.04 1454.76 2113.96 1450.17 Q2110.9 1445.57 2110.9 1436.84 Q2110.9 1428.09 2113.96 1423.51 Q2117.04 1418.9 2122.85 1418.9 Z" fill="#000000" fill-rule="nonzero" fill-opacity="1" /><path clip-path="url(#clip800)" d="M2143.01 1448.2 L2147.89 1448.2 L2147.89 1454.08 L2143.01 1454.08 L2143.01 1448.2 Z" fill="#000000" fill-rule="nonzero" fill-opacity="1" /><path clip-path="url(#clip800)" d="M2158.89 1450.15 L2166.53 1450.15 L2166.53 1423.78 L2158.22 1425.45 L2158.22 1421.19 L2166.48 1419.52 L2171.16 1419.52 L2171.16 1450.15 L2178.8 1450.15 L2178.8 1454.08 L2158.89 1454.08 L2158.89 1450.15 Z" fill="#000000" fill-rule="nonzero" fill-opacity="1" /><path clip-path="url(#clip800)" d="M2198.24 1422.6 Q2194.63 1422.6 2192.8 1426.17 Q2191 1429.71 2191 1436.84 Q2191 1443.94 2192.8 1447.51 Q2194.63 1451.05 2198.24 1451.05 Q2201.88 1451.05 2203.68 1447.51 Q2205.51 1443.94 2205.51 1436.84 Q2205.51 1429.71 2203.68 1426.17 Q2201.88 1422.6 2198.24 1422.6 M2198.24 1418.9 Q2204.05 1418.9 2207.11 1423.51 Q2210.19 1428.09 2210.19 1436.84 Q2210.19 1445.57 2207.11 1450.17 Q2204.05 1454.76 2198.24 1454.76 Q2192.43 1454.76 2189.35 1450.17 Q2186.3 1445.57 2186.3 1436.84 Q2186.3 1428.09 2189.35 1423.51 Q2192.43 1418.9 2198.24 1418.9 Z" fill="#000000" fill-rule="nonzero" fill-opacity="1" /><path clip-path="url(#clip800)" d="M2228.4 1422.6 Q2224.79 1422.6 2222.96 1426.17 Q2221.16 1429.71 2221.16 1436.84 Q2221.16 1443.94 2222.96 1447.51 Q2224.79 1451.05 2228.4 1451.05 Q2232.04 1451.05 2233.84 1447.51 Q2235.67 1443.94 2235.67 1436.84 Q2235.67 1429.71 2233.84 1426.17 Q2232.04 1422.6 2228.4 1422.6 M2228.4 1418.9 Q2234.21 1418.9 2237.27 1423.51 Q2240.35 1428.09 2240.35 1436.84 Q2240.35 1445.57 2237.27 1450.17 Q2234.21 1454.76 2228.4 1454.76 Q2222.59 1454.76 2219.51 1450.17 Q2216.46 1445.57 2216.46 1436.84 Q2216.46 1428.09 2219.51 1423.51 Q2222.59 1418.9 2228.4 1418.9 Z" fill="#000000" fill-rule="nonzero" fill-opacity="1" /><path clip-path="url(#clip800)" d="M1319.14 1487.02 L1319.14 1500.17 Q1325.48 1500.17 1329.71 1505.04 Q1334.07 1510 1334.07 1518.76 Q1334.07 1527.51 1329.71 1532.47 Q1325.48 1537.34 1319.14 1537.34 L1319.14 1550.11 L1313.32 1550.11 L1313.32 1537.34 Q1306.98 1537.34 1302.72 1532.47 Q1298.39 1527.51 1298.39 1518.76 Q1298.39 1510 1302.72 1505.04 Q1306.98 1500.17 1313.32 1500.17 L1313.32 1487.02 L1319.14 1487.02 M1319.14 1532.12 Q1322.74 1532.12 1325.19 1528.85 Q1327.86 1525.18 1327.9 1518.76 Q1327.93 1512.39 1325.19 1508.67 Q1322.74 1505.39 1319.14 1505.39 L1319.14 1532.12 M1313.32 1532.12 L1313.32 1505.39 Q1309.72 1505.39 1307.3 1508.67 Q1304.53 1512.39 1304.56 1518.76 Q1304.6 1525.18 1307.3 1528.85 Q1309.72 1532.12 1313.32 1532.12 Z" fill="#000000" fill-rule="nonzero" fill-opacity="1" /><polyline clip-path="url(#clip802)" style="stroke:#000000; stroke-linecap:round; stroke-linejoin:round; stroke-width:2; stroke-opacity:0.1; fill:none" points="311.2,1391.68 2321.26,1391.68 "/>
<polyline clip-path="url(#clip802)" style="stroke:#000000; stroke-linecap:round; stroke-linejoin:round; stroke-width:2; stroke-opacity:0.1; fill:none" points="311.2,1167.32 2321.26,1167.32 "/>
<polyline clip-path="url(#clip802)" style="stroke:#000000; stroke-linecap:round; stroke-linejoin:round; stroke-width:2; stroke-opacity:0.1; fill:none" points="311.2,942.956 2321.26,942.956 "/>
<polyline clip-path="url(#clip802)" style="stroke:#000000; stroke-linecap:round; stroke-linejoin:round; stroke-width:2; stroke-opacity:0.1; fill:none" points="311.2,718.592 2321.26,718.592 "/>
<polyline clip-path="url(#clip802)" style="stroke:#000000; stroke-linecap:round; stroke-linejoin:round; stroke-width:2; stroke-opacity:0.1; fill:none" points="311.2,494.229 2321.26,494.229 "/>
<polyline clip-path="url(#clip802)" style="stroke:#000000; stroke-linecap:round; stroke-linejoin:round; stroke-width:2; stroke-opacity:0.1; fill:none" points="311.2,269.865 2321.26,269.865 "/>
<polyline clip-path="url(#clip800)" style="stroke:#000000; stroke-linecap:round; stroke-linejoin:round; stroke-width:4; stroke-opacity:1; fill:none" points="311.2,1391.68 311.2,78.7402 "/>
<polyline clip-path="url(#clip800)" style="stroke:#000000; stroke-linecap:round; stroke-linejoin:round; stroke-width:4; stroke-opacity:1; fill:none" points="311.2,1391.68 330.098,1391.68 "/>
<polyline clip-path="url(#clip800)" style="stroke:#000000; stroke-linecap:round; stroke-linejoin:round; stroke-width:4; stroke-opacity:1; fill:none" points="311.2,1167.32 330.098,1167.32 "/>
<polyline clip-path="url(#clip800)" style="stroke:#000000; stroke-linecap:round; stroke-linejoin:round; stroke-width:4; stroke-opacity:1; fill:none" points="311.2,942.956 330.098,942.956 "/>
<polyline clip-path="url(#clip800)" style="stroke:#000000; stroke-linecap:round; stroke-linejoin:round; stroke-width:4; stroke-opacity:1; fill:none" points="311.2,718.592 330.098,718.592 "/>
<polyline clip-path="url(#clip800)" style="stroke:#000000; stroke-linecap:round; stroke-linejoin:round; stroke-width:4; stroke-opacity:1; fill:none" points="311.2,494.229 330.098,494.229 "/>
<polyline clip-path="url(#clip800)" style="stroke:#000000; stroke-linecap:round; stroke-linejoin:round; stroke-width:4; stroke-opacity:1; fill:none" points="311.2,269.865 330.098,269.865 "/>
<path clip-path="url(#clip800)" d="M157.701 1377.48 Q154.09 1377.48 152.261 1381.05 Q150.455 1384.59 150.455 1391.72 Q150.455 1398.82 152.261 1402.39 Q154.09 1405.93 157.701 1405.93 Q161.335 1405.93 163.14 1402.39 Q164.969 1398.82 164.969 1391.72 Q164.969 1384.59 163.14 1381.05 Q161.335 1377.48 157.701 1377.48 M157.701 1373.78 Q163.511 1373.78 166.566 1378.39 Q169.645 1382.97 169.645 1391.72 Q169.645 1400.45 166.566 1405.05 Q163.511 1409.64 157.701 1409.64 Q151.89 1409.64 148.812 1405.05 Q145.756 1400.45 145.756 1391.72 Q145.756 1382.97 148.812 1378.39 Q151.89 1373.78 157.701 1373.78 Z" fill="#000000" fill-rule="nonzero" fill-opacity="1" /><path clip-path="url(#clip800)" d="M177.863 1403.08 L182.747 1403.08 L182.747 1408.96 L177.863 1408.96 L177.863 1403.08 Z" fill="#000000" fill-rule="nonzero" fill-opacity="1" /><path clip-path="url(#clip800)" d="M202.932 1377.48 Q199.321 1377.48 197.492 1381.05 Q195.687 1384.59 195.687 1391.72 Q195.687 1398.82 197.492 1402.39 Q199.321 1405.93 202.932 1405.93 Q206.566 1405.93 208.372 1402.39 Q210.2 1398.82 210.2 1391.72 Q210.2 1384.59 208.372 1381.05 Q206.566 1377.48 202.932 1377.48 M202.932 1373.78 Q208.742 1373.78 211.798 1378.39 Q214.876 1382.97 214.876 1391.72 Q214.876 1400.45 211.798 1405.05 Q208.742 1409.64 202.932 1409.64 Q197.122 1409.64 194.043 1405.05 Q190.987 1400.45 190.987 1391.72 Q190.987 1382.97 194.043 1378.39 Q197.122 1373.78 202.932 1373.78 Z" fill="#000000" fill-rule="nonzero" fill-opacity="1" /><path clip-path="url(#clip800)" d="M233.094 1377.48 Q229.483 1377.48 227.654 1381.05 Q225.848 1384.59 225.848 1391.72 Q225.848 1398.82 227.654 1402.39 Q229.483 1405.93 233.094 1405.93 Q236.728 1405.93 238.534 1402.39 Q240.362 1398.82 240.362 1391.72 Q240.362 1384.59 238.534 1381.05 Q236.728 1377.48 233.094 1377.48 M233.094 1373.78 Q238.904 1373.78 241.959 1378.39 Q245.038 1382.97 245.038 1391.72 Q245.038 1400.45 241.959 1405.05 Q238.904 1409.64 233.094 1409.64 Q227.284 1409.64 224.205 1405.05 Q221.149 1400.45 221.149 1391.72 Q221.149 1382.97 224.205 1378.39 Q227.284 1373.78 233.094 1373.78 Z" fill="#000000" fill-rule="nonzero" fill-opacity="1" /><path clip-path="url(#clip800)" d="M263.256 1377.48 Q259.644 1377.48 257.816 1381.05 Q256.01 1384.59 256.01 1391.72 Q256.01 1398.82 257.816 1402.39 Q259.644 1405.93 263.256 1405.93 Q266.89 1405.93 268.695 1402.39 Q270.524 1398.82 270.524 1391.72 Q270.524 1384.59 268.695 1381.05 Q266.89 1377.48 263.256 1377.48 M263.256 1373.78 Q269.066 1373.78 272.121 1378.39 Q275.2 1382.97 275.2 1391.72 Q275.2 1400.45 272.121 1405.05 Q269.066 1409.64 263.256 1409.64 Q257.445 1409.64 254.367 1405.05 Q251.311 1400.45 251.311 1391.72 Q251.311 1382.97 254.367 1378.39 Q257.445 1373.78 263.256 1373.78 Z" fill="#000000" fill-rule="nonzero" fill-opacity="1" /><path clip-path="url(#clip800)" d="M158.696 1153.12 Q155.085 1153.12 153.256 1156.68 Q151.451 1160.23 151.451 1167.35 Q151.451 1174.46 153.256 1178.03 Q155.085 1181.57 158.696 1181.57 Q162.33 1181.57 164.136 1178.03 Q165.964 1174.46 165.964 1167.35 Q165.964 1160.23 164.136 1156.68 Q162.33 1153.12 158.696 1153.12 M158.696 1149.41 Q164.506 1149.41 167.562 1154.02 Q170.64 1158.6 170.64 1167.35 Q170.64 1176.08 167.562 1180.69 Q164.506 1185.27 158.696 1185.27 Q152.886 1185.27 149.807 1180.69 Q146.752 1176.08 146.752 1167.35 Q146.752 1158.6 149.807 1154.02 Q152.886 1149.41 158.696 1149.41 Z" fill="#000000" fill-rule="nonzero" fill-opacity="1" /><path clip-path="url(#clip800)" d="M178.858 1178.72 L183.742 1178.72 L183.742 1184.6 L178.858 1184.6 L178.858 1178.72 Z" fill="#000000" fill-rule="nonzero" fill-opacity="1" /><path clip-path="url(#clip800)" d="M203.927 1153.12 Q200.316 1153.12 198.487 1156.68 Q196.682 1160.23 196.682 1167.35 Q196.682 1174.46 198.487 1178.03 Q200.316 1181.57 203.927 1181.57 Q207.561 1181.57 209.367 1178.03 Q211.196 1174.46 211.196 1167.35 Q211.196 1160.23 209.367 1156.68 Q207.561 1153.12 203.927 1153.12 M203.927 1149.41 Q209.737 1149.41 212.793 1154.02 Q215.872 1158.6 215.872 1167.35 Q215.872 1176.08 212.793 1180.69 Q209.737 1185.27 203.927 1185.27 Q198.117 1185.27 195.038 1180.69 Q191.983 1176.08 191.983 1167.35 Q191.983 1158.6 195.038 1154.02 Q198.117 1149.41 203.927 1149.41 Z" fill="#000000" fill-rule="nonzero" fill-opacity="1" /><path clip-path="url(#clip800)" d="M228.117 1180.66 L244.436 1180.66 L244.436 1184.6 L222.492 1184.6 L222.492 1180.66 Q225.154 1177.91 229.737 1173.28 Q234.344 1168.63 235.524 1167.29 Q237.77 1164.76 238.649 1163.03 Q239.552 1161.27 239.552 1159.58 Q239.552 1156.82 237.608 1155.09 Q235.686 1153.35 232.584 1153.35 Q230.385 1153.35 227.932 1154.11 Q225.501 1154.88 222.723 1156.43 L222.723 1151.71 Q225.547 1150.57 228.001 1149.99 Q230.455 1149.41 232.492 1149.41 Q237.862 1149.41 241.057 1152.1 Q244.251 1154.79 244.251 1159.28 Q244.251 1161.41 243.441 1163.33 Q242.654 1165.23 240.547 1167.82 Q239.969 1168.49 236.867 1171.71 Q233.765 1174.9 228.117 1180.66 Z" fill="#000000" fill-rule="nonzero" fill-opacity="1" /><path clip-path="url(#clip800)" d="M254.297 1150.04 L272.654 1150.04 L272.654 1153.98 L258.58 1153.98 L258.58 1162.45 Q259.598 1162.1 260.617 1161.94 Q261.635 1161.75 262.654 1161.75 Q268.441 1161.75 271.82 1164.92 Q275.2 1168.1 275.2 1173.51 Q275.2 1179.09 271.728 1182.19 Q268.256 1185.27 261.936 1185.27 Q259.76 1185.27 257.492 1184.9 Q255.246 1184.53 252.839 1183.79 L252.839 1179.09 Q254.922 1180.23 257.145 1180.78 Q259.367 1181.34 261.844 1181.34 Q265.848 1181.34 268.186 1179.23 Q270.524 1177.12 270.524 1173.51 Q270.524 1169.9 268.186 1167.79 Q265.848 1165.69 261.844 1165.69 Q259.969 1165.69 258.094 1166.1 Q256.242 1166.52 254.297 1167.4 L254.297 1150.04 Z" fill="#000000" fill-rule="nonzero" fill-opacity="1" /><path clip-path="url(#clip800)" d="M157.701 928.755 Q154.09 928.755 152.261 932.32 Q150.455 935.861 150.455 942.991 Q150.455 950.097 152.261 953.662 Q154.09 957.204 157.701 957.204 Q161.335 957.204 163.14 953.662 Q164.969 950.097 164.969 942.991 Q164.969 935.861 163.14 932.32 Q161.335 928.755 157.701 928.755 M157.701 925.051 Q163.511 925.051 166.566 929.658 Q169.645 934.241 169.645 942.991 Q169.645 951.718 166.566 956.324 Q163.511 960.908 157.701 960.908 Q151.89 960.908 148.812 956.324 Q145.756 951.718 145.756 942.991 Q145.756 934.241 148.812 929.658 Q151.89 925.051 157.701 925.051 Z" fill="#000000" fill-rule="nonzero" fill-opacity="1" /><path clip-path="url(#clip800)" d="M177.863 954.357 L182.747 954.357 L182.747 960.236 L177.863 960.236 L177.863 954.357 Z" fill="#000000" fill-rule="nonzero" fill-opacity="1" /><path clip-path="url(#clip800)" d="M202.932 928.755 Q199.321 928.755 197.492 932.32 Q195.687 935.861 195.687 942.991 Q195.687 950.097 197.492 953.662 Q199.321 957.204 202.932 957.204 Q206.566 957.204 208.372 953.662 Q210.2 950.097 210.2 942.991 Q210.2 935.861 208.372 932.32 Q206.566 928.755 202.932 928.755 M202.932 925.051 Q208.742 925.051 211.798 929.658 Q214.876 934.241 214.876 942.991 Q214.876 951.718 211.798 956.324 Q208.742 960.908 202.932 960.908 Q197.122 960.908 194.043 956.324 Q190.987 951.718 190.987 942.991 Q190.987 934.241 194.043 929.658 Q197.122 925.051 202.932 925.051 Z" fill="#000000" fill-rule="nonzero" fill-opacity="1" /><path clip-path="url(#clip800)" d="M223.14 925.676 L241.496 925.676 L241.496 929.611 L227.422 929.611 L227.422 938.084 Q228.441 937.736 229.459 937.574 Q230.478 937.389 231.497 937.389 Q237.284 937.389 240.663 940.56 Q244.043 943.732 244.043 949.148 Q244.043 954.727 240.571 957.829 Q237.098 960.908 230.779 960.908 Q228.603 960.908 226.334 960.537 Q224.089 960.167 221.682 959.426 L221.682 954.727 Q223.765 955.861 225.987 956.417 Q228.209 956.972 230.686 956.972 Q234.691 956.972 237.029 954.866 Q239.367 952.759 239.367 949.148 Q239.367 945.537 237.029 943.431 Q234.691 941.324 230.686 941.324 Q228.811 941.324 226.936 941.741 Q225.084 942.158 223.14 943.037 L223.14 925.676 Z" fill="#000000" fill-rule="nonzero" fill-opacity="1" /><path clip-path="url(#clip800)" d="M263.256 928.755 Q259.644 928.755 257.816 932.32 Q256.01 935.861 256.01 942.991 Q256.01 950.097 257.816 953.662 Q259.644 957.204 263.256 957.204 Q266.89 957.204 268.695 953.662 Q270.524 950.097 270.524 942.991 Q270.524 935.861 268.695 932.32 Q266.89 928.755 263.256 928.755 M263.256 925.051 Q269.066 925.051 272.121 929.658 Q275.2 934.241 275.2 942.991 Q275.2 951.718 272.121 956.324 Q269.066 960.908 263.256 960.908 Q257.445 960.908 254.367 956.324 Q251.311 951.718 251.311 942.991 Q251.311 934.241 254.367 929.658 Q257.445 925.051 263.256 925.051 Z" fill="#000000" fill-rule="nonzero" fill-opacity="1" /><path clip-path="url(#clip800)" d="M158.696 704.391 Q155.085 704.391 153.256 707.956 Q151.451 711.498 151.451 718.627 Q151.451 725.734 153.256 729.298 Q155.085 732.84 158.696 732.84 Q162.33 732.84 164.136 729.298 Q165.964 725.734 165.964 718.627 Q165.964 711.498 164.136 707.956 Q162.33 704.391 158.696 704.391 M158.696 700.687 Q164.506 700.687 167.562 705.294 Q170.64 709.877 170.64 718.627 Q170.64 727.354 167.562 731.96 Q164.506 736.544 158.696 736.544 Q152.886 736.544 149.807 731.96 Q146.752 727.354 146.752 718.627 Q146.752 709.877 149.807 705.294 Q152.886 700.687 158.696 700.687 Z" fill="#000000" fill-rule="nonzero" fill-opacity="1" /><path clip-path="url(#clip800)" d="M178.858 729.993 L183.742 729.993 L183.742 735.872 L178.858 735.872 L178.858 729.993 Z" fill="#000000" fill-rule="nonzero" fill-opacity="1" /><path clip-path="url(#clip800)" d="M203.927 704.391 Q200.316 704.391 198.487 707.956 Q196.682 711.498 196.682 718.627 Q196.682 725.734 198.487 729.298 Q200.316 732.84 203.927 732.84 Q207.561 732.84 209.367 729.298 Q211.196 725.734 211.196 718.627 Q211.196 711.498 209.367 707.956 Q207.561 704.391 203.927 704.391 M203.927 700.687 Q209.737 700.687 212.793 705.294 Q215.872 709.877 215.872 718.627 Q215.872 727.354 212.793 731.96 Q209.737 736.544 203.927 736.544 Q198.117 736.544 195.038 731.96 Q191.983 727.354 191.983 718.627 Q191.983 709.877 195.038 705.294 Q198.117 700.687 203.927 700.687 Z" fill="#000000" fill-rule="nonzero" fill-opacity="1" /><path clip-path="url(#clip800)" d="M222.909 701.312 L245.131 701.312 L245.131 703.303 L232.584 735.872 L227.7 735.872 L239.506 705.248 L222.909 705.248 L222.909 701.312 Z" fill="#000000" fill-rule="nonzero" fill-opacity="1" /><path clip-path="url(#clip800)" d="M254.297 701.312 L272.654 701.312 L272.654 705.248 L258.58 705.248 L258.58 713.72 Q259.598 713.373 260.617 713.211 Q261.635 713.025 262.654 713.025 Q268.441 713.025 271.82 716.197 Q275.2 719.368 275.2 724.785 Q275.2 730.363 271.728 733.465 Q268.256 736.544 261.936 736.544 Q259.76 736.544 257.492 736.173 Q255.246 735.803 252.839 735.062 L252.839 730.363 Q254.922 731.497 257.145 732.053 Q259.367 732.609 261.844 732.609 Q265.848 732.609 268.186 730.502 Q270.524 728.396 270.524 724.785 Q270.524 721.173 268.186 719.067 Q265.848 716.96 261.844 716.96 Q259.969 716.96 258.094 717.377 Q256.242 717.794 254.297 718.673 L254.297 701.312 Z" fill="#000000" fill-rule="nonzero" fill-opacity="1" /><path clip-path="url(#clip800)" d="M157.701 480.027 Q154.09 480.027 152.261 483.592 Q150.455 487.134 150.455 494.263 Q150.455 501.37 152.261 504.935 Q154.09 508.476 157.701 508.476 Q161.335 508.476 163.14 504.935 Q164.969 501.37 164.969 494.263 Q164.969 487.134 163.14 483.592 Q161.335 480.027 157.701 480.027 M157.701 476.324 Q163.511 476.324 166.566 480.93 Q169.645 485.513 169.645 494.263 Q169.645 502.99 166.566 507.597 Q163.511 512.18 157.701 512.18 Q151.89 512.18 148.812 507.597 Q145.756 502.99 145.756 494.263 Q145.756 485.513 148.812 480.93 Q151.89 476.324 157.701 476.324 Z" fill="#000000" fill-rule="nonzero" fill-opacity="1" /><path clip-path="url(#clip800)" d="M177.863 505.629 L182.747 505.629 L182.747 511.509 L177.863 511.509 L177.863 505.629 Z" fill="#000000" fill-rule="nonzero" fill-opacity="1" /><path clip-path="url(#clip800)" d="M193.742 507.573 L201.381 507.573 L201.381 481.208 L193.071 482.875 L193.071 478.615 L201.335 476.949 L206.011 476.949 L206.011 507.573 L213.649 507.573 L213.649 511.509 L193.742 511.509 L193.742 507.573 Z" fill="#000000" fill-rule="nonzero" fill-opacity="1" /><path clip-path="url(#clip800)" d="M233.094 480.027 Q229.483 480.027 227.654 483.592 Q225.848 487.134 225.848 494.263 Q225.848 501.37 227.654 504.935 Q229.483 508.476 233.094 508.476 Q236.728 508.476 238.534 504.935 Q240.362 501.37 240.362 494.263 Q240.362 487.134 238.534 483.592 Q236.728 480.027 233.094 480.027 M233.094 476.324 Q238.904 476.324 241.959 480.93 Q245.038 485.513 245.038 494.263 Q245.038 502.99 241.959 507.597 Q238.904 512.18 233.094 512.18 Q227.284 512.18 224.205 507.597 Q221.149 502.99 221.149 494.263 Q221.149 485.513 224.205 480.93 Q227.284 476.324 233.094 476.324 Z" fill="#000000" fill-rule="nonzero" fill-opacity="1" /><path clip-path="url(#clip800)" d="M263.256 480.027 Q259.644 480.027 257.816 483.592 Q256.01 487.134 256.01 494.263 Q256.01 501.37 257.816 504.935 Q259.644 508.476 263.256 508.476 Q266.89 508.476 268.695 504.935 Q270.524 501.37 270.524 494.263 Q270.524 487.134 268.695 483.592 Q266.89 480.027 263.256 480.027 M263.256 476.324 Q269.066 476.324 272.121 480.93 Q275.2 485.513 275.2 494.263 Q275.2 502.99 272.121 507.597 Q269.066 512.18 263.256 512.18 Q257.445 512.18 254.367 507.597 Q251.311 502.99 251.311 494.263 Q251.311 485.513 254.367 480.93 Q257.445 476.324 263.256 476.324 Z" fill="#000000" fill-rule="nonzero" fill-opacity="1" /><path clip-path="url(#clip800)" d="M158.696 255.664 Q155.085 255.664 153.256 259.228 Q151.451 262.77 151.451 269.9 Q151.451 277.006 153.256 280.571 Q155.085 284.112 158.696 284.112 Q162.33 284.112 164.136 280.571 Q165.964 277.006 165.964 269.9 Q165.964 262.77 164.136 259.228 Q162.33 255.664 158.696 255.664 M158.696 251.96 Q164.506 251.96 167.562 256.566 Q170.64 261.15 170.64 269.9 Q170.64 278.626 167.562 283.233 Q164.506 287.816 158.696 287.816 Q152.886 287.816 149.807 283.233 Q146.752 278.626 146.752 269.9 Q146.752 261.15 149.807 256.566 Q152.886 251.96 158.696 251.96 Z" fill="#000000" fill-rule="nonzero" fill-opacity="1" /><path clip-path="url(#clip800)" d="M178.858 281.265 L183.742 281.265 L183.742 287.145 L178.858 287.145 L178.858 281.265 Z" fill="#000000" fill-rule="nonzero" fill-opacity="1" /><path clip-path="url(#clip800)" d="M194.737 283.21 L202.376 283.21 L202.376 256.844 L194.066 258.511 L194.066 254.252 L202.33 252.585 L207.006 252.585 L207.006 283.21 L214.645 283.21 L214.645 287.145 L194.737 287.145 L194.737 283.21 Z" fill="#000000" fill-rule="nonzero" fill-opacity="1" /><path clip-path="url(#clip800)" d="M228.117 283.21 L244.436 283.21 L244.436 287.145 L222.492 287.145 L222.492 283.21 Q225.154 280.455 229.737 275.825 Q234.344 271.173 235.524 269.83 Q237.77 267.307 238.649 265.571 Q239.552 263.812 239.552 262.122 Q239.552 259.367 237.608 257.631 Q235.686 255.895 232.584 255.895 Q230.385 255.895 227.932 256.659 Q225.501 257.423 222.723 258.974 L222.723 254.252 Q225.547 253.117 228.001 252.539 Q230.455 251.96 232.492 251.96 Q237.862 251.96 241.057 254.645 Q244.251 257.33 244.251 261.821 Q244.251 263.951 243.441 265.872 Q242.654 267.77 240.547 270.363 Q239.969 271.034 236.867 274.251 Q233.765 277.446 228.117 283.21 Z" fill="#000000" fill-rule="nonzero" fill-opacity="1" /><path clip-path="url(#clip800)" d="M254.297 252.585 L272.654 252.585 L272.654 256.52 L258.58 256.52 L258.58 264.992 Q259.598 264.645 260.617 264.483 Q261.635 264.298 262.654 264.298 Q268.441 264.298 271.82 267.469 Q275.2 270.64 275.2 276.057 Q275.2 281.636 271.728 284.737 Q268.256 287.816 261.936 287.816 Q259.76 287.816 257.492 287.446 Q255.246 287.075 252.839 286.335 L252.839 281.636 Q254.922 282.77 257.145 283.325 Q259.367 283.881 261.844 283.881 Q265.848 283.881 268.186 281.775 Q270.524 279.668 270.524 276.057 Q270.524 272.446 268.186 270.339 Q265.848 268.233 261.844 268.233 Q259.969 268.233 258.094 268.65 Q256.242 269.066 254.297 269.946 L254.297 252.585 Z" fill="#000000" fill-rule="nonzero" fill-opacity="1" /><path clip-path="url(#clip800)" d="M53.2638 1079.77 L71.1196 1079.77 L71.1196 1071.69 Q71.1196 1067.2 68.7961 1064.75 Q66.4726 1062.3 62.1757 1062.3 Q57.9107 1062.3 55.5872 1064.75 Q53.2638 1067.2 53.2638 1071.69 L53.2638 1079.77 M47.9802 1086.2 L47.9802 1071.69 Q47.9802 1063.7 51.6087 1059.62 Q55.2053 1055.52 62.1757 1055.52 Q69.2099 1055.52 72.8065 1059.62 Q76.4031 1063.7 76.4031 1071.69 L76.4031 1079.77 L95.5002 1079.77 L95.5002 1086.2 L47.9802 1086.2 Z" fill="#000000" fill-rule="nonzero" fill-opacity="1" /><path clip-path="url(#clip800)" d="M65.3268 1027.64 Q64.7539 1028.62 64.4992 1029.8 Q64.2128 1030.95 64.2128 1032.35 Q64.2128 1037.31 67.4593 1039.99 Q70.674 1042.63 76.7214 1042.63 L95.5002 1042.63 L95.5002 1048.52 L59.8523 1048.52 L59.8523 1042.63 L65.3904 1042.63 Q62.1439 1040.78 60.5843 1037.82 Q58.9929 1034.86 58.9929 1030.63 Q58.9929 1030.02 59.0884 1029.29 Q59.152 1028.56 59.3112 1027.67 L65.3268 1027.64 Z" fill="#000000" fill-rule="nonzero" fill-opacity="1" /><path clip-path="url(#clip800)" d="M63.9581 1009.11 Q63.9581 1013.82 67.6503 1016.56 Q71.3105 1019.3 77.7081 1019.3 Q84.1056 1019.3 87.7977 1016.59 Q91.458 1013.85 91.458 1009.11 Q91.458 1004.43 87.7659 1001.7 Q84.0738 998.959 77.7081 998.959 Q71.3742 998.959 67.6821 1001.7 Q63.9581 1004.43 63.9581 1009.11 M58.9929 1009.11 Q58.9929 1001.47 63.9581 997.113 Q68.9234 992.753 77.7081 992.753 Q86.4609 992.753 91.458 997.113 Q96.4232 1001.47 96.4232 1009.11 Q96.4232 1016.78 91.458 1021.14 Q86.4609 1025.47 77.7081 1025.47 Q68.9234 1025.47 63.9581 1021.14 Q58.9929 1016.78 58.9929 1009.11 Z" fill="#000000" fill-rule="nonzero" fill-opacity="1" /><path clip-path="url(#clip800)" d="M90.153 977.379 L109.059 977.379 L109.059 983.268 L59.8523 983.268 L59.8523 977.379 L65.2631 977.379 Q62.0803 975.533 60.5525 972.732 Q58.9929 969.9 58.9929 965.985 Q58.9929 959.492 64.1491 955.45 Q69.3053 951.375 77.7081 951.375 Q86.1108 951.375 91.267 955.45 Q96.4232 959.492 96.4232 965.985 Q96.4232 969.9 94.8955 972.732 Q93.3359 975.533 90.153 977.379 M77.7081 957.455 Q71.2469 957.455 67.5866 960.128 Q63.8945 962.77 63.8945 967.417 Q63.8945 972.064 67.5866 974.738 Q71.2469 977.379 77.7081 977.379 Q84.1693 977.379 87.8614 974.738 Q91.5217 972.064 91.5217 967.417 Q91.5217 962.77 87.8614 960.128 Q84.1693 957.455 77.7081 957.455 Z" fill="#000000" fill-rule="nonzero" fill-opacity="1" /><path clip-path="url(#clip800)" d="M63.9581 927.854 Q63.9581 932.565 67.6503 935.302 Q71.3105 938.039 77.7081 938.039 Q84.1056 938.039 87.7977 935.334 Q91.458 932.597 91.458 927.854 Q91.458 923.175 87.7659 920.438 Q84.0738 917.701 77.7081 917.701 Q71.3742 917.701 67.6821 920.438 Q63.9581 923.175 63.9581 927.854 M58.9929 927.854 Q58.9929 920.215 63.9581 915.855 Q68.9234 911.494 77.7081 911.494 Q86.4609 911.494 91.458 915.855 Q96.4232 920.215 96.4232 927.854 Q96.4232 935.525 91.458 939.885 Q86.4609 944.214 77.7081 944.214 Q68.9234 944.214 63.9581 939.885 Q58.9929 935.525 58.9929 927.854 Z" fill="#000000" fill-rule="nonzero" fill-opacity="1" /><path clip-path="url(#clip800)" d="M65.3268 881.13 Q64.7539 882.117 64.4992 883.294 Q64.2128 884.44 64.2128 885.841 Q64.2128 890.806 67.4593 893.479 Q70.674 896.121 76.7214 896.121 L95.5002 896.121 L95.5002 902.009 L59.8523 902.009 L59.8523 896.121 L65.3904 896.121 Q62.1439 894.275 60.5843 891.315 Q58.9929 888.355 58.9929 884.122 Q58.9929 883.517 59.0884 882.785 Q59.152 882.053 59.3112 881.162 L65.3268 881.13 Z" fill="#000000" fill-rule="nonzero" fill-opacity="1" /><path clip-path="url(#clip800)" d="M49.7308 869.194 L59.8523 869.194 L59.8523 857.131 L64.4037 857.131 L64.4037 869.194 L83.7555 869.194 Q88.116 869.194 89.3573 868.017 Q90.5986 866.807 90.5986 863.147 L90.5986 857.131 L95.5002 857.131 L95.5002 863.147 Q95.5002 869.926 92.9858 872.504 Q90.4395 875.082 83.7555 875.082 L64.4037 875.082 L64.4037 879.379 L59.8523 879.379 L59.8523 875.082 L49.7308 875.082 L49.7308 869.194 Z" fill="#000000" fill-rule="nonzero" fill-opacity="1" /><path clip-path="url(#clip800)" d="M59.8523 849.429 L59.8523 843.572 L95.5002 843.572 L95.5002 849.429 L59.8523 849.429 M45.975 849.429 L45.975 843.572 L53.3911 843.572 L53.3911 849.429 L45.975 849.429 Z" fill="#000000" fill-rule="nonzero" fill-opacity="1" /><path clip-path="url(#clip800)" d="M63.9581 817.505 Q63.9581 822.215 67.6503 824.953 Q71.3105 827.69 77.7081 827.69 Q84.1056 827.69 87.7977 824.984 Q91.458 822.247 91.458 817.505 Q91.458 812.826 87.7659 810.089 Q84.0738 807.351 77.7081 807.351 Q71.3742 807.351 67.6821 810.089 Q63.9581 812.826 63.9581 817.505 M58.9929 817.505 Q58.9929 809.866 63.9581 805.505 Q68.9234 801.145 77.7081 801.145 Q86.4609 801.145 91.458 805.505 Q96.4232 809.866 96.4232 817.505 Q96.4232 825.175 91.458 829.536 Q86.4609 833.865 77.7081 833.865 Q68.9234 833.865 63.9581 829.536 Q58.9929 825.175 58.9929 817.505 Z" fill="#000000" fill-rule="nonzero" fill-opacity="1" /><path clip-path="url(#clip800)" d="M73.9841 761.805 L95.5002 761.805 L95.5002 767.661 L74.1751 767.661 Q69.1144 767.661 66.5999 769.635 Q64.0855 771.608 64.0855 775.555 Q64.0855 780.297 67.1092 783.034 Q70.1329 785.772 75.3528 785.772 L95.5002 785.772 L95.5002 791.66 L59.8523 791.66 L59.8523 785.772 L65.3904 785.772 Q62.1757 783.671 60.5843 780.838 Q58.9929 777.974 58.9929 774.25 Q58.9929 768.107 62.8123 764.956 Q66.5999 761.805 73.9841 761.805 Z" fill="#000000" fill-rule="nonzero" fill-opacity="1" /><path clip-path="url(#clip800)" d="M63.9581 715.59 Q63.9581 720.3 67.6503 723.038 Q71.3105 725.775 77.7081 725.775 Q84.1056 725.775 87.7977 723.069 Q91.458 720.332 91.458 715.59 Q91.458 710.911 87.7659 708.174 Q84.0738 705.436 77.7081 705.436 Q71.3742 705.436 67.6821 708.174 Q63.9581 710.911 63.9581 715.59 M58.9929 715.59 Q58.9929 707.951 63.9581 703.59 Q68.9234 699.23 77.7081 699.23 Q86.4609 699.23 91.458 703.59 Q96.4232 707.951 96.4232 715.59 Q96.4232 723.26 91.458 727.621 Q86.4609 731.95 77.7081 731.95 Q68.9234 731.95 63.9581 727.621 Q58.9929 723.26 58.9929 715.59 Z" fill="#000000" fill-rule="nonzero" fill-opacity="1" /><path clip-path="url(#clip800)" d="M45.975 671.475 L50.8448 671.475 L50.8448 677.077 Q50.8448 680.228 52.1179 681.469 Q53.3911 682.679 56.7012 682.679 L59.8523 682.679 L59.8523 673.035 L64.4037 673.035 L64.4037 682.679 L95.5002 682.679 L95.5002 688.567 L64.4037 688.567 L64.4037 694.169 L59.8523 694.169 L59.8523 688.567 L57.3696 688.567 Q51.4177 688.567 48.7123 685.798 Q45.975 683.029 45.975 677.013 L45.975 671.475 Z" fill="#000000" fill-rule="nonzero" fill-opacity="1" /><path clip-path="url(#clip800)" d="M60.9026 623.128 L66.4408 623.128 Q65.1676 625.61 64.5311 628.284 Q63.8945 630.958 63.8945 633.822 Q63.8945 638.183 65.2313 640.379 Q66.5681 642.543 69.2417 642.543 Q71.2787 642.543 72.4564 640.984 Q73.6022 639.424 74.6525 634.713 L75.0981 632.708 Q76.4349 626.47 78.8857 623.86 Q81.3047 621.218 85.6652 621.218 Q90.6305 621.218 93.5269 625.165 Q96.4232 629.08 96.4232 635.955 Q96.4232 638.819 95.8503 641.938 Q95.3092 645.026 94.1953 648.463 L88.1478 648.463 Q89.8347 645.217 90.6941 642.066 Q91.5217 638.915 91.5217 635.827 Q91.5217 631.69 90.1212 629.462 Q88.6889 627.234 86.1108 627.234 Q83.7237 627.234 82.4505 628.857 Q81.1774 630.448 79.9997 635.891 L79.5223 637.928 Q78.3765 643.371 76.0212 645.79 Q73.634 648.209 69.4963 648.209 Q64.4674 648.209 61.7301 644.644 Q58.9929 641.079 58.9929 634.522 Q58.9929 631.276 59.4703 628.411 Q59.9477 625.547 60.9026 623.128 Z" fill="#000000" fill-rule="nonzero" fill-opacity="1" /><path clip-path="url(#clip800)" d="M77.5808 595.692 Q77.5808 602.789 79.204 605.527 Q80.8273 608.264 84.7422 608.264 Q87.8614 608.264 89.7074 606.227 Q91.5217 604.158 91.5217 600.625 Q91.5217 595.755 88.0842 592.827 Q84.6149 589.867 78.8857 589.867 L77.5808 589.867 L77.5808 595.692 M75.1618 584.011 L95.5002 584.011 L95.5002 589.867 L90.0894 589.867 Q93.3359 591.872 94.8955 594.864 Q96.4232 597.856 96.4232 602.185 Q96.4232 607.659 93.3677 610.906 Q90.2803 614.12 85.1241 614.12 Q79.1085 614.12 76.053 610.11 Q72.9974 606.068 72.9974 598.079 L72.9974 589.867 L72.4245 589.867 Q68.3823 589.867 66.1861 592.541 Q63.9581 595.182 63.9581 599.988 Q63.9581 603.044 64.6902 605.94 Q65.4223 608.837 66.8864 611.51 L61.4755 611.51 Q60.2342 608.296 59.6295 605.272 Q58.9929 602.248 58.9929 599.384 Q58.9929 591.649 63.0033 587.83 Q67.0137 584.011 75.1618 584.011 Z" fill="#000000" fill-rule="nonzero" fill-opacity="1" /><path clip-path="url(#clip800)" d="M66.6954 544.193 Q62.7487 541.997 60.8708 538.941 Q58.9929 535.886 58.9929 531.748 Q58.9929 526.178 62.9078 523.154 Q66.7909 520.131 73.9841 520.131 L95.5002 520.131 L95.5002 526.019 L74.1751 526.019 Q69.0507 526.019 66.5681 527.833 Q64.0855 529.647 64.0855 533.371 Q64.0855 537.923 67.1092 540.565 Q70.1329 543.206 75.3528 543.206 L95.5002 543.206 L95.5002 549.095 L74.1751 549.095 Q69.0189 549.095 66.5681 550.909 Q64.0855 552.723 64.0855 556.511 Q64.0855 560.998 67.141 563.64 Q70.1647 566.282 75.3528 566.282 L95.5002 566.282 L95.5002 572.17 L59.8523 572.17 L59.8523 566.282 L65.3904 566.282 Q62.1121 564.277 60.5525 561.476 Q58.9929 558.675 58.9929 554.824 Q58.9929 550.941 60.9663 548.235 Q62.9396 545.498 66.6954 544.193 Z" fill="#000000" fill-rule="nonzero" fill-opacity="1" /><path clip-path="url(#clip800)" d="M90.153 502.784 L109.059 502.784 L109.059 508.672 L59.8523 508.672 L59.8523 502.784 L65.2631 502.784 Q62.0803 500.938 60.5525 498.137 Q58.9929 495.304 58.9929 491.389 Q58.9929 484.896 64.1491 480.854 Q69.3053 476.78 77.7081 476.78 Q86.1108 476.78 91.267 480.854 Q96.4232 484.896 96.4232 491.389 Q96.4232 495.304 94.8955 498.137 Q93.3359 500.938 90.153 502.784 M77.7081 482.859 Q71.2469 482.859 67.5866 485.533 Q63.8945 488.175 63.8945 492.822 Q63.8945 497.469 67.5866 500.142 Q71.2469 502.784 77.7081 502.784 Q84.1693 502.784 87.8614 500.142 Q91.5217 497.469 91.5217 492.822 Q91.5217 488.175 87.8614 485.533 Q84.1693 482.859 77.7081 482.859 Z" fill="#000000" fill-rule="nonzero" fill-opacity="1" /><path clip-path="url(#clip800)" d="M45.975 467.072 L45.975 461.216 L95.5002 461.216 L95.5002 467.072 L45.975 467.072 Z" fill="#000000" fill-rule="nonzero" fill-opacity="1" /><path clip-path="url(#clip800)" d="M76.2121 418.47 L79.0767 418.47 L79.0767 445.397 Q85.1241 445.015 88.307 441.769 Q91.458 438.49 91.458 432.666 Q91.458 429.292 90.6305 426.141 Q89.8029 422.958 88.1478 419.839 L93.686 419.839 Q95.0228 422.99 95.723 426.3 Q96.4232 429.61 96.4232 433.016 Q96.4232 441.546 91.458 446.543 Q86.4927 451.508 78.0264 451.508 Q69.2735 451.508 64.1491 446.798 Q58.9929 442.055 58.9929 434.034 Q58.9929 426.841 63.6399 422.672 Q68.255 418.47 76.2121 418.47 M74.4934 424.327 Q69.6873 424.39 66.8227 427.032 Q63.9581 429.642 63.9581 433.971 Q63.9581 438.872 66.7272 441.832 Q69.4963 444.761 74.5252 445.206 L74.4934 424.327 Z" fill="#000000" fill-rule="nonzero" fill-opacity="1" /><path clip-path="url(#clip800)" d="M60.9026 386.133 L66.4408 386.133 Q65.1676 388.615 64.5311 391.289 Q63.8945 393.962 63.8945 396.827 Q63.8945 401.187 65.2313 403.384 Q66.5681 405.548 69.2417 405.548 Q71.2787 405.548 72.4564 403.988 Q73.6022 402.429 74.6525 397.718 L75.0981 395.713 Q76.4349 389.475 78.8857 386.865 Q81.3047 384.223 85.6652 384.223 Q90.6305 384.223 93.5269 388.17 Q96.4232 392.084 96.4232 398.959 Q96.4232 401.824 95.8503 404.943 Q95.3092 408.031 94.1953 411.468 L88.1478 411.468 Q89.8347 408.222 90.6941 405.071 Q91.5217 401.919 91.5217 398.832 Q91.5217 394.694 90.1212 392.466 Q88.6889 390.238 86.1108 390.238 Q83.7237 390.238 82.4505 391.862 Q81.1774 393.453 79.9997 398.896 L79.5223 400.933 Q78.3765 406.375 76.0212 408.794 Q73.634 411.213 69.4963 411.213 Q64.4674 411.213 61.7301 407.649 Q58.9929 404.084 58.9929 397.527 Q58.9929 394.281 59.4703 391.416 Q59.9477 388.551 60.9026 386.133 Z" fill="#000000" fill-rule="nonzero" fill-opacity="1" /><path clip-path="url(#clip802)" d="M421.757 78.7402 L421.757 1391.68 L456.834 1391.68 L456.834 78.7402 L421.757 78.7402 L421.757 78.7402  Z" fill="#ff8c00" fill-rule="evenodd" fill-opacity="1"/>
<polyline clip-path="url(#clip802)" style="stroke:#000000; stroke-linecap:round; stroke-linejoin:round; stroke-width:4; stroke-opacity:1; fill:none" points="421.757,78.7402 421.757,1391.68 456.834,1391.68 456.834,78.7402 421.757,78.7402 "/>
<path clip-path="url(#clip802)" d="M456.834 477.609 L456.834 1391.68 L491.912 1391.68 L491.912 477.609 L456.834 477.609 L456.834 477.609  Z" fill="#ff8c00" fill-rule="evenodd" fill-opacity="1"/>
<polyline clip-path="url(#clip802)" style="stroke:#000000; stroke-linecap:round; stroke-linejoin:round; stroke-width:4; stroke-opacity:1; fill:none" points="456.834,477.609 456.834,1391.68 491.912,1391.68 491.912,477.609 456.834,477.609 "/>
<path clip-path="url(#clip802)" d="M491.912 826.619 L491.912 1391.68 L526.989 1391.68 L526.989 826.619 L491.912 826.619 L491.912 826.619  Z" fill="#ff8c00" fill-rule="evenodd" fill-opacity="1"/>
<polyline clip-path="url(#clip802)" style="stroke:#000000; stroke-linecap:round; stroke-linejoin:round; stroke-width:4; stroke-opacity:1; fill:none" points="491.912,826.619 491.912,1391.68 526.989,1391.68 526.989,826.619 491.912,826.619 "/>
<path clip-path="url(#clip802)" d="M526.989 583.974 L526.989 1391.68 L562.066 1391.68 L562.066 583.974 L526.989 583.974 L526.989 583.974  Z" fill="#ff8c00" fill-rule="evenodd" fill-opacity="1"/>
<polyline clip-path="url(#clip802)" style="stroke:#000000; stroke-linecap:round; stroke-linejoin:round; stroke-width:4; stroke-opacity:1; fill:none" points="526.989,583.974 526.989,1391.68 562.066,1391.68 562.066,583.974 526.989,583.974 "/>
<path clip-path="url(#clip802)" d="M562.066 603.918 L562.066 1391.68 L597.144 1391.68 L597.144 603.918 L562.066 603.918 L562.066 603.918  Z" fill="#ff8c00" fill-rule="evenodd" fill-opacity="1"/>
<polyline clip-path="url(#clip802)" style="stroke:#000000; stroke-linecap:round; stroke-linejoin:round; stroke-width:4; stroke-opacity:1; fill:none" points="562.066,603.918 562.066,1391.68 597.144,1391.68 597.144,603.918 562.066,603.918 "/>
<path clip-path="url(#clip802)" d="M597.144 916.365 L597.144 1391.68 L632.221 1391.68 L632.221 916.365 L597.144 916.365 L597.144 916.365  Z" fill="#ff8c00" fill-rule="evenodd" fill-opacity="1"/>
<polyline clip-path="url(#clip802)" style="stroke:#000000; stroke-linecap:round; stroke-linejoin:round; stroke-width:4; stroke-opacity:1; fill:none" points="597.144,916.365 597.144,1391.68 632.221,1391.68 632.221,916.365 597.144,916.365 "/>
<path clip-path="url(#clip802)" d="M632.221 986.167 L632.221 1391.68 L667.298 1391.68 L667.298 986.167 L632.221 986.167 L632.221 986.167  Z" fill="#ff8c00" fill-rule="evenodd" fill-opacity="1"/>
<polyline clip-path="url(#clip802)" style="stroke:#000000; stroke-linecap:round; stroke-linejoin:round; stroke-width:4; stroke-opacity:1; fill:none" points="632.221,986.167 632.221,1391.68 667.298,1391.68 667.298,986.167 632.221,986.167 "/>
<path clip-path="url(#clip802)" d="M667.298 1039.35 L667.298 1391.68 L702.376 1391.68 L702.376 1039.35 L667.298 1039.35 L667.298 1039.35  Z" fill="#ff8c00" fill-rule="evenodd" fill-opacity="1"/>
<polyline clip-path="url(#clip802)" style="stroke:#000000; stroke-linecap:round; stroke-linejoin:round; stroke-width:4; stroke-opacity:1; fill:none" points="667.298,1039.35 667.298,1391.68 702.376,1391.68 702.376,1039.35 667.298,1039.35 "/>
<path clip-path="url(#clip802)" d="M702.376 853.211 L702.376 1391.68 L737.453 1391.68 L737.453 853.211 L702.376 853.211 L702.376 853.211  Z" fill="#ff8c00" fill-rule="evenodd" fill-opacity="1"/>
<polyline clip-path="url(#clip802)" style="stroke:#000000; stroke-linecap:round; stroke-linejoin:round; stroke-width:4; stroke-opacity:1; fill:none" points="702.376,853.211 702.376,1391.68 737.453,1391.68 737.453,853.211 702.376,853.211 "/>
<path clip-path="url(#clip802)" d="M737.453 932.984 L737.453 1391.68 L772.531 1391.68 L772.531 932.984 L737.453 932.984 L737.453 932.984  Z" fill="#ff8c00" fill-rule="evenodd" fill-opacity="1"/>
<polyline clip-path="url(#clip802)" style="stroke:#000000; stroke-linecap:round; stroke-linejoin:round; stroke-width:4; stroke-opacity:1; fill:none" points="737.453,932.984 737.453,1391.68 772.531,1391.68 772.531,932.984 737.453,932.984 "/>
<path clip-path="url(#clip802)" d="M772.531 996.139 L772.531 1391.68 L807.608 1391.68 L807.608 996.139 L772.531 996.139 L772.531 996.139  Z" fill="#ff8c00" fill-rule="evenodd" fill-opacity="1"/>
<polyline clip-path="url(#clip802)" style="stroke:#000000; stroke-linecap:round; stroke-linejoin:round; stroke-width:4; stroke-opacity:1; fill:none" points="772.531,996.139 772.531,1391.68 807.608,1391.68 807.608,996.139 772.531,996.139 "/>
<path clip-path="url(#clip802)" d="M807.608 1208.87 L807.608 1391.68 L842.685 1391.68 L842.685 1208.87 L807.608 1208.87 L807.608 1208.87  Z" fill="#ff8c00" fill-rule="evenodd" fill-opacity="1"/>
<polyline clip-path="url(#clip802)" style="stroke:#000000; stroke-linecap:round; stroke-linejoin:round; stroke-width:4; stroke-opacity:1; fill:none" points="807.608,1208.87 807.608,1391.68 842.685,1391.68 842.685,1208.87 807.608,1208.87 "/>
<path clip-path="url(#clip802)" d="M842.685 1308.59 L842.685 1391.68 L877.763 1391.68 L877.763 1308.59 L842.685 1308.59 L842.685 1308.59  Z" fill="#ff8c00" fill-rule="evenodd" fill-opacity="1"/>
<polyline clip-path="url(#clip802)" style="stroke:#000000; stroke-linecap:round; stroke-linejoin:round; stroke-width:4; stroke-opacity:1; fill:none" points="842.685,1308.59 842.685,1391.68 877.763,1391.68 877.763,1308.59 842.685,1308.59 "/>
<path clip-path="url(#clip802)" d="M877.763 1235.46 L877.763 1391.68 L912.84 1391.68 L912.84 1235.46 L877.763 1235.46 L877.763 1235.46  Z" fill="#ff8c00" fill-rule="evenodd" fill-opacity="1"/>
<polyline clip-path="url(#clip802)" style="stroke:#000000; stroke-linecap:round; stroke-linejoin:round; stroke-width:4; stroke-opacity:1; fill:none" points="877.763,1235.46 877.763,1391.68 912.84,1391.68 912.84,1235.46 877.763,1235.46 "/>
<path clip-path="url(#clip802)" d="M912.84 1212.19 L912.84 1391.68 L947.917 1391.68 L947.917 1212.19 L912.84 1212.19 L912.84 1212.19  Z" fill="#ff8c00" fill-rule="evenodd" fill-opacity="1"/>
<polyline clip-path="url(#clip802)" style="stroke:#000000; stroke-linecap:round; stroke-linejoin:round; stroke-width:4; stroke-opacity:1; fill:none" points="912.84,1212.19 912.84,1391.68 947.917,1391.68 947.917,1212.19 912.84,1212.19 "/>
<path clip-path="url(#clip802)" d="M947.917 1192.25 L947.917 1391.68 L982.995 1391.68 L982.995 1192.25 L947.917 1192.25 L947.917 1192.25  Z" fill="#ff8c00" fill-rule="evenodd" fill-opacity="1"/>
<polyline clip-path="url(#clip802)" style="stroke:#000000; stroke-linecap:round; stroke-linejoin:round; stroke-width:4; stroke-opacity:1; fill:none" points="947.917,1192.25 947.917,1391.68 982.995,1391.68 982.995,1192.25 947.917,1192.25 "/>
<path clip-path="url(#clip802)" d="M982.995 1162.33 L982.995 1391.68 L1018.07 1391.68 L1018.07 1162.33 L982.995 1162.33 L982.995 1162.33  Z" fill="#ff8c00" fill-rule="evenodd" fill-opacity="1"/>
<polyline clip-path="url(#clip802)" style="stroke:#000000; stroke-linecap:round; stroke-linejoin:round; stroke-width:4; stroke-opacity:1; fill:none" points="982.995,1162.33 982.995,1391.68 1018.07,1391.68 1018.07,1162.33 982.995,1162.33 "/>
<path clip-path="url(#clip802)" d="M1018.07 1255.4 L1018.07 1391.68 L1053.15 1391.68 L1053.15 1255.4 L1018.07 1255.4 L1018.07 1255.4  Z" fill="#ff8c00" fill-rule="evenodd" fill-opacity="1"/>
<polyline clip-path="url(#clip802)" style="stroke:#000000; stroke-linecap:round; stroke-linejoin:round; stroke-width:4; stroke-opacity:1; fill:none" points="1018.07,1255.4 1018.07,1391.68 1053.15,1391.68 1053.15,1255.4 1018.07,1255.4 "/>
<path clip-path="url(#clip802)" d="M1053.15 1321.88 L1053.15 1391.68 L1088.23 1391.68 L1088.23 1321.88 L1053.15 1321.88 L1053.15 1321.88  Z" fill="#ff8c00" fill-rule="evenodd" fill-opacity="1"/>
<polyline clip-path="url(#clip802)" style="stroke:#000000; stroke-linecap:round; stroke-linejoin:round; stroke-width:4; stroke-opacity:1; fill:none" points="1053.15,1321.88 1053.15,1391.68 1088.23,1391.68 1088.23,1321.88 1053.15,1321.88 "/>
<path clip-path="url(#clip802)" d="M1088.23 1255.4 L1088.23 1391.68 L1123.3 1391.68 L1123.3 1255.4 L1088.23 1255.4 L1088.23 1255.4  Z" fill="#ff8c00" fill-rule="evenodd" fill-opacity="1"/>
<polyline clip-path="url(#clip802)" style="stroke:#000000; stroke-linecap:round; stroke-linejoin:round; stroke-width:4; stroke-opacity:1; fill:none" points="1088.23,1255.4 1088.23,1391.68 1123.3,1391.68 1123.3,1255.4 1088.23,1255.4 "/>
<path clip-path="url(#clip802)" d="M1123.3 1285.32 L1123.3 1391.68 L1158.38 1391.68 L1158.38 1285.32 L1123.3 1285.32 L1123.3 1285.32  Z" fill="#ff8c00" fill-rule="evenodd" fill-opacity="1"/>
<polyline clip-path="url(#clip802)" style="stroke:#000000; stroke-linecap:round; stroke-linejoin:round; stroke-width:4; stroke-opacity:1; fill:none" points="1123.3,1285.32 1123.3,1391.68 1158.38,1391.68 1158.38,1285.32 1123.3,1285.32 "/>
<path clip-path="url(#clip802)" d="M1158.38 1368.42 L1158.38 1391.68 L1193.46 1391.68 L1193.46 1368.42 L1158.38 1368.42 L1158.38 1368.42  Z" fill="#ff8c00" fill-rule="evenodd" fill-opacity="1"/>
<polyline clip-path="url(#clip802)" style="stroke:#000000; stroke-linecap:round; stroke-linejoin:round; stroke-width:4; stroke-opacity:1; fill:none" points="1158.38,1368.42 1158.38,1391.68 1193.46,1391.68 1193.46,1368.42 1158.38,1368.42 "/>
<path clip-path="url(#clip802)" d="M1193.46 1265.38 L1193.46 1391.68 L1228.54 1391.68 L1228.54 1265.38 L1193.46 1265.38 L1193.46 1265.38  Z" fill="#ff8c00" fill-rule="evenodd" fill-opacity="1"/>
<polyline clip-path="url(#clip802)" style="stroke:#000000; stroke-linecap:round; stroke-linejoin:round; stroke-width:4; stroke-opacity:1; fill:none" points="1193.46,1265.38 1193.46,1391.68 1228.54,1391.68 1228.54,1265.38 1193.46,1265.38 "/>
<path clip-path="url(#clip802)" d="M1228.54 1358.44 L1228.54 1391.68 L1263.61 1391.68 L1263.61 1358.44 L1228.54 1358.44 L1228.54 1358.44  Z" fill="#ff8c00" fill-rule="evenodd" fill-opacity="1"/>
<polyline clip-path="url(#clip802)" style="stroke:#000000; stroke-linecap:round; stroke-linejoin:round; stroke-width:4; stroke-opacity:1; fill:none" points="1228.54,1358.44 1228.54,1391.68 1263.61,1391.68 1263.61,1358.44 1228.54,1358.44 "/>
<path clip-path="url(#clip802)" d="M1263.61 1318.56 L1263.61 1391.68 L1298.69 1391.68 L1298.69 1318.56 L1263.61 1318.56 L1263.61 1318.56  Z" fill="#ff8c00" fill-rule="evenodd" fill-opacity="1"/>
<polyline clip-path="url(#clip802)" style="stroke:#000000; stroke-linecap:round; stroke-linejoin:round; stroke-width:4; stroke-opacity:1; fill:none" points="1263.61,1318.56 1263.61,1391.68 1298.69,1391.68 1298.69,1318.56 1263.61,1318.56 "/>
<path clip-path="url(#clip802)" d="M1298.69 1325.21 L1298.69 1391.68 L1333.77 1391.68 L1333.77 1325.21 L1298.69 1325.21 L1298.69 1325.21  Z" fill="#ff8c00" fill-rule="evenodd" fill-opacity="1"/>
<polyline clip-path="url(#clip802)" style="stroke:#000000; stroke-linecap:round; stroke-linejoin:round; stroke-width:4; stroke-opacity:1; fill:none" points="1298.69,1325.21 1298.69,1391.68 1333.77,1391.68 1333.77,1325.21 1298.69,1325.21 "/>
<path clip-path="url(#clip802)" d="M1333.77 1328.53 L1333.77 1391.68 L1368.85 1391.68 L1368.85 1328.53 L1333.77 1328.53 L1333.77 1328.53  Z" fill="#ff8c00" fill-rule="evenodd" fill-opacity="1"/>
<polyline clip-path="url(#clip802)" style="stroke:#000000; stroke-linecap:round; stroke-linejoin:round; stroke-width:4; stroke-opacity:1; fill:none" points="1333.77,1328.53 1333.77,1391.68 1368.85,1391.68 1368.85,1328.53 1333.77,1328.53 "/>
<path clip-path="url(#clip802)" d="M1368.85 1391.68 L1368.85 1391.68 L1403.92 1391.68 L1403.92 1391.68 L1368.85 1391.68 L1368.85 1391.68  Z" fill="#ff8c00" fill-rule="evenodd" fill-opacity="1"/>
<polyline clip-path="url(#clip802)" style="stroke:#000000; stroke-linecap:round; stroke-linejoin:round; stroke-width:4; stroke-opacity:1; fill:none" points="1368.85,1391.68 1368.85,1391.68 1403.92,1391.68 1368.85,1391.68 "/>
<path clip-path="url(#clip802)" d="M1403.92 1385.04 L1403.92 1391.68 L1439 1391.68 L1439 1385.04 L1403.92 1385.04 L1403.92 1385.04  Z" fill="#ff8c00" fill-rule="evenodd" fill-opacity="1"/>
<polyline clip-path="url(#clip802)" style="stroke:#000000; stroke-linecap:round; stroke-linejoin:round; stroke-width:4; stroke-opacity:1; fill:none" points="1403.92,1385.04 1403.92,1391.68 1439,1391.68 1439,1385.04 1403.92,1385.04 "/>
<path clip-path="url(#clip802)" d="M1439 1385.04 L1439 1391.68 L1474.08 1391.68 L1474.08 1385.04 L1439 1385.04 L1439 1385.04  Z" fill="#ff8c00" fill-rule="evenodd" fill-opacity="1"/>
<polyline clip-path="url(#clip802)" style="stroke:#000000; stroke-linecap:round; stroke-linejoin:round; stroke-width:4; stroke-opacity:1; fill:none" points="1439,1385.04 1439,1391.68 1474.08,1391.68 1474.08,1385.04 1439,1385.04 "/>
<path clip-path="url(#clip802)" d="M1474.08 1375.06 L1474.08 1391.68 L1509.16 1391.68 L1509.16 1375.06 L1474.08 1375.06 L1474.08 1375.06  Z" fill="#ff8c00" fill-rule="evenodd" fill-opacity="1"/>
<polyline clip-path="url(#clip802)" style="stroke:#000000; stroke-linecap:round; stroke-linejoin:round; stroke-width:4; stroke-opacity:1; fill:none" points="1474.08,1375.06 1474.08,1391.68 1509.16,1391.68 1509.16,1375.06 1474.08,1375.06 "/>
<path clip-path="url(#clip802)" d="M1509.16 1361.77 L1509.16 1391.68 L1544.23 1391.68 L1544.23 1361.77 L1509.16 1361.77 L1509.16 1361.77  Z" fill="#ff8c00" fill-rule="evenodd" fill-opacity="1"/>
<polyline clip-path="url(#clip802)" style="stroke:#000000; stroke-linecap:round; stroke-linejoin:round; stroke-width:4; stroke-opacity:1; fill:none" points="1509.16,1361.77 1509.16,1391.68 1544.23,1391.68 1544.23,1361.77 1509.16,1361.77 "/>
<path clip-path="url(#clip802)" d="M1544.23 1391.68 L1544.23 1391.68 L1579.31 1391.68 L1579.31 1391.68 L1544.23 1391.68 L1544.23 1391.68  Z" fill="#ff8c00" fill-rule="evenodd" fill-opacity="1"/>
<polyline clip-path="url(#clip802)" style="stroke:#000000; stroke-linecap:round; stroke-linejoin:round; stroke-width:4; stroke-opacity:1; fill:none" points="1544.23,1391.68 1544.23,1391.68 1579.31,1391.68 1544.23,1391.68 "/>
<path clip-path="url(#clip802)" d="M1579.31 1388.36 L1579.31 1391.68 L1614.39 1391.68 L1614.39 1388.36 L1579.31 1388.36 L1579.31 1388.36  Z" fill="#ff8c00" fill-rule="evenodd" fill-opacity="1"/>
<polyline clip-path="url(#clip802)" style="stroke:#000000; stroke-linecap:round; stroke-linejoin:round; stroke-width:4; stroke-opacity:1; fill:none" points="1579.31,1388.36 1579.31,1391.68 1614.39,1391.68 1614.39,1388.36 1579.31,1388.36 "/>
<path clip-path="url(#clip802)" d="M1614.39 1375.06 L1614.39 1391.68 L1649.46 1391.68 L1649.46 1375.06 L1614.39 1375.06 L1614.39 1375.06  Z" fill="#ff8c00" fill-rule="evenodd" fill-opacity="1"/>
<polyline clip-path="url(#clip802)" style="stroke:#000000; stroke-linecap:round; stroke-linejoin:round; stroke-width:4; stroke-opacity:1; fill:none" points="1614.39,1375.06 1614.39,1391.68 1649.46,1391.68 1649.46,1375.06 1614.39,1375.06 "/>
<path clip-path="url(#clip802)" d="M1649.46 1388.36 L1649.46 1391.68 L1684.54 1391.68 L1684.54 1388.36 L1649.46 1388.36 L1649.46 1388.36  Z" fill="#ff8c00" fill-rule="evenodd" fill-opacity="1"/>
<polyline clip-path="url(#clip802)" style="stroke:#000000; stroke-linecap:round; stroke-linejoin:round; stroke-width:4; stroke-opacity:1; fill:none" points="1649.46,1388.36 1649.46,1391.68 1684.54,1391.68 1684.54,1388.36 1649.46,1388.36 "/>
<path clip-path="url(#clip802)" d="M1684.54 1391.68 L1684.54 1391.68 L1719.62 1391.68 L1719.62 1391.68 L1684.54 1391.68 L1684.54 1391.68  Z" fill="#ff8c00" fill-rule="evenodd" fill-opacity="1"/>
<polyline clip-path="url(#clip802)" style="stroke:#000000; stroke-linecap:round; stroke-linejoin:round; stroke-width:4; stroke-opacity:1; fill:none" points="1684.54,1391.68 1684.54,1391.68 1719.62,1391.68 1684.54,1391.68 "/>
<path clip-path="url(#clip802)" d="M1719.62 1391.68 L1719.62 1391.68 L1754.7 1391.68 L1754.7 1391.68 L1719.62 1391.68 L1719.62 1391.68  Z" fill="#ff8c00" fill-rule="evenodd" fill-opacity="1"/>
<polyline clip-path="url(#clip802)" style="stroke:#000000; stroke-linecap:round; stroke-linejoin:round; stroke-width:4; stroke-opacity:1; fill:none" points="1719.62,1391.68 1719.62,1391.68 1754.7,1391.68 1719.62,1391.68 "/>
<path clip-path="url(#clip802)" d="M1754.7 1391.68 L1754.7 1391.68 L1789.77 1391.68 L1789.77 1391.68 L1754.7 1391.68 L1754.7 1391.68  Z" fill="#ff8c00" fill-rule="evenodd" fill-opacity="1"/>
<polyline clip-path="url(#clip802)" style="stroke:#000000; stroke-linecap:round; stroke-linejoin:round; stroke-width:4; stroke-opacity:1; fill:none" points="1754.7,1391.68 1754.7,1391.68 1789.77,1391.68 1754.7,1391.68 "/>
<path clip-path="url(#clip802)" d="M1789.77 1391.68 L1789.77 1391.68 L1824.85 1391.68 L1824.85 1391.68 L1789.77 1391.68 L1789.77 1391.68  Z" fill="#ff8c00" fill-rule="evenodd" fill-opacity="1"/>
<polyline clip-path="url(#clip802)" style="stroke:#000000; stroke-linecap:round; stroke-linejoin:round; stroke-width:4; stroke-opacity:1; fill:none" points="1789.77,1391.68 1789.77,1391.68 1824.85,1391.68 1789.77,1391.68 "/>
<path clip-path="url(#clip802)" d="M1824.85 1391.68 L1824.85 1391.68 L1859.93 1391.68 L1859.93 1391.68 L1824.85 1391.68 L1824.85 1391.68  Z" fill="#ff8c00" fill-rule="evenodd" fill-opacity="1"/>
<polyline clip-path="url(#clip802)" style="stroke:#000000; stroke-linecap:round; stroke-linejoin:round; stroke-width:4; stroke-opacity:1; fill:none" points="1824.85,1391.68 1824.85,1391.68 1859.93,1391.68 1824.85,1391.68 "/>
<path clip-path="url(#clip802)" d="M1859.93 1391.68 L1859.93 1391.68 L1895.01 1391.68 L1895.01 1391.68 L1859.93 1391.68 L1859.93 1391.68  Z" fill="#ff8c00" fill-rule="evenodd" fill-opacity="1"/>
<polyline clip-path="url(#clip802)" style="stroke:#000000; stroke-linecap:round; stroke-linejoin:round; stroke-width:4; stroke-opacity:1; fill:none" points="1859.93,1391.68 1859.93,1391.68 1895.01,1391.68 1859.93,1391.68 "/>
<path clip-path="url(#clip802)" d="M1895.01 1391.68 L1895.01 1391.68 L1930.08 1391.68 L1930.08 1391.68 L1895.01 1391.68 L1895.01 1391.68  Z" fill="#ff8c00" fill-rule="evenodd" fill-opacity="1"/>
<polyline clip-path="url(#clip802)" style="stroke:#000000; stroke-linecap:round; stroke-linejoin:round; stroke-width:4; stroke-opacity:1; fill:none" points="1895.01,1391.68 1895.01,1391.68 1930.08,1391.68 1895.01,1391.68 "/>
<path clip-path="url(#clip802)" d="M1930.08 1388.36 L1930.08 1391.68 L1965.16 1391.68 L1965.16 1388.36 L1930.08 1388.36 L1930.08 1388.36  Z" fill="#ff8c00" fill-rule="evenodd" fill-opacity="1"/>
<polyline clip-path="url(#clip802)" style="stroke:#000000; stroke-linecap:round; stroke-linejoin:round; stroke-width:4; stroke-opacity:1; fill:none" points="1930.08,1388.36 1930.08,1391.68 1965.16,1391.68 1965.16,1388.36 1930.08,1388.36 "/>
<path clip-path="url(#clip802)" d="M1965.16 1391.68 L1965.16 1391.68 L2000.24 1391.68 L2000.24 1391.68 L1965.16 1391.68 L1965.16 1391.68  Z" fill="#ff8c00" fill-rule="evenodd" fill-opacity="1"/>
<polyline clip-path="url(#clip802)" style="stroke:#000000; stroke-linecap:round; stroke-linejoin:round; stroke-width:4; stroke-opacity:1; fill:none" points="1965.16,1391.68 1965.16,1391.68 2000.24,1391.68 1965.16,1391.68 "/>
<path clip-path="url(#clip802)" d="M2000.24 1391.68 L2000.24 1391.68 L2035.32 1391.68 L2035.32 1391.68 L2000.24 1391.68 L2000.24 1391.68  Z" fill="#ff8c00" fill-rule="evenodd" fill-opacity="1"/>
<polyline clip-path="url(#clip802)" style="stroke:#000000; stroke-linecap:round; stroke-linejoin:round; stroke-width:4; stroke-opacity:1; fill:none" points="2000.24,1391.68 2000.24,1391.68 2035.32,1391.68 2000.24,1391.68 "/>
<path clip-path="url(#clip802)" d="M2035.32 1391.68 L2035.32 1391.68 L2070.39 1391.68 L2070.39 1391.68 L2035.32 1391.68 L2035.32 1391.68  Z" fill="#ff8c00" fill-rule="evenodd" fill-opacity="1"/>
<polyline clip-path="url(#clip802)" style="stroke:#000000; stroke-linecap:round; stroke-linejoin:round; stroke-width:4; stroke-opacity:1; fill:none" points="2035.32,1391.68 2035.32,1391.68 2070.39,1391.68 2035.32,1391.68 "/>
<path clip-path="url(#clip802)" d="M2070.39 1391.68 L2070.39 1391.68 L2105.47 1391.68 L2105.47 1391.68 L2070.39 1391.68 L2070.39 1391.68  Z" fill="#ff8c00" fill-rule="evenodd" fill-opacity="1"/>
<polyline clip-path="url(#clip802)" style="stroke:#000000; stroke-linecap:round; stroke-linejoin:round; stroke-width:4; stroke-opacity:1; fill:none" points="2070.39,1391.68 2070.39,1391.68 2105.47,1391.68 2070.39,1391.68 "/>
<path clip-path="url(#clip802)" d="M2105.47 1388.36 L2105.47 1391.68 L2140.55 1391.68 L2140.55 1388.36 L2105.47 1388.36 L2105.47 1388.36  Z" fill="#ff8c00" fill-rule="evenodd" fill-opacity="1"/>
<polyline clip-path="url(#clip802)" style="stroke:#000000; stroke-linecap:round; stroke-linejoin:round; stroke-width:4; stroke-opacity:1; fill:none" points="2105.47,1388.36 2105.47,1391.68 2140.55,1391.68 2140.55,1388.36 2105.47,1388.36 "/>
<path clip-path="url(#clip802)" d="M2140.55 1391.68 L2140.55 1391.68 L2175.63 1391.68 L2175.63 1391.68 L2140.55 1391.68 L2140.55 1391.68  Z" fill="#ff8c00" fill-rule="evenodd" fill-opacity="1"/>
<polyline clip-path="url(#clip802)" style="stroke:#000000; stroke-linecap:round; stroke-linejoin:round; stroke-width:4; stroke-opacity:1; fill:none" points="2140.55,1391.68 2140.55,1391.68 2175.63,1391.68 2140.55,1391.68 "/>
<path clip-path="url(#clip802)" d="M2175.63 1385.04 L2175.63 1391.68 L2210.7 1391.68 L2210.7 1385.04 L2175.63 1385.04 L2175.63 1385.04  Z" fill="#ff8c00" fill-rule="evenodd" fill-opacity="1"/>
<polyline clip-path="url(#clip802)" style="stroke:#000000; stroke-linecap:round; stroke-linejoin:round; stroke-width:4; stroke-opacity:1; fill:none" points="2175.63,1385.04 2175.63,1391.68 2210.7,1391.68 2210.7,1385.04 2175.63,1385.04 "/>
<circle clip-path="url(#clip802)" style="fill:#ff8c00; stroke:none; fill-opacity:0" cx="439.296" cy="78.7402" r="2"/>
<circle clip-path="url(#clip802)" style="fill:#ff8c00; stroke:none; fill-opacity:0" cx="474.373" cy="477.609" r="2"/>
<circle clip-path="url(#clip802)" style="fill:#ff8c00; stroke:none; fill-opacity:0" cx="509.45" cy="826.619" r="2"/>
<circle clip-path="url(#clip802)" style="fill:#ff8c00; stroke:none; fill-opacity:0" cx="544.528" cy="583.974" r="2"/>
<circle clip-path="url(#clip802)" style="fill:#ff8c00; stroke:none; fill-opacity:0" cx="579.605" cy="603.918" r="2"/>
<circle clip-path="url(#clip802)" style="fill:#ff8c00; stroke:none; fill-opacity:0" cx="614.682" cy="916.365" r="2"/>
<circle clip-path="url(#clip802)" style="fill:#ff8c00; stroke:none; fill-opacity:0" cx="649.76" cy="986.167" r="2"/>
<circle clip-path="url(#clip802)" style="fill:#ff8c00; stroke:none; fill-opacity:0" cx="684.837" cy="1039.35" r="2"/>
<circle clip-path="url(#clip802)" style="fill:#ff8c00; stroke:none; fill-opacity:0" cx="719.915" cy="853.211" r="2"/>
<circle clip-path="url(#clip802)" style="fill:#ff8c00; stroke:none; fill-opacity:0" cx="754.992" cy="932.984" r="2"/>
<circle clip-path="url(#clip802)" style="fill:#ff8c00; stroke:none; fill-opacity:0" cx="790.069" cy="996.139" r="2"/>
<circle clip-path="url(#clip802)" style="fill:#ff8c00; stroke:none; fill-opacity:0" cx="825.147" cy="1208.87" r="2"/>
<circle clip-path="url(#clip802)" style="fill:#ff8c00; stroke:none; fill-opacity:0" cx="860.224" cy="1308.59" r="2"/>
<circle clip-path="url(#clip802)" style="fill:#ff8c00; stroke:none; fill-opacity:0" cx="895.301" cy="1235.46" r="2"/>
<circle clip-path="url(#clip802)" style="fill:#ff8c00; stroke:none; fill-opacity:0" cx="930.379" cy="1212.19" r="2"/>
<circle clip-path="url(#clip802)" style="fill:#ff8c00; stroke:none; fill-opacity:0" cx="965.456" cy="1192.25" r="2"/>
<circle clip-path="url(#clip802)" style="fill:#ff8c00; stroke:none; fill-opacity:0" cx="1000.53" cy="1162.33" r="2"/>
<circle clip-path="url(#clip802)" style="fill:#ff8c00; stroke:none; fill-opacity:0" cx="1035.61" cy="1255.4" r="2"/>
<circle clip-path="url(#clip802)" style="fill:#ff8c00; stroke:none; fill-opacity:0" cx="1070.69" cy="1321.88" r="2"/>
<circle clip-path="url(#clip802)" style="fill:#ff8c00; stroke:none; fill-opacity:0" cx="1105.77" cy="1255.4" r="2"/>
<circle clip-path="url(#clip802)" style="fill:#ff8c00; stroke:none; fill-opacity:0" cx="1140.84" cy="1285.32" r="2"/>
<circle clip-path="url(#clip802)" style="fill:#ff8c00; stroke:none; fill-opacity:0" cx="1175.92" cy="1368.42" r="2"/>
<circle clip-path="url(#clip802)" style="fill:#ff8c00; stroke:none; fill-opacity:0" cx="1211" cy="1265.38" r="2"/>
<circle clip-path="url(#clip802)" style="fill:#ff8c00; stroke:none; fill-opacity:0" cx="1246.08" cy="1358.44" r="2"/>
<circle clip-path="url(#clip802)" style="fill:#ff8c00; stroke:none; fill-opacity:0" cx="1281.15" cy="1318.56" r="2"/>
<circle clip-path="url(#clip802)" style="fill:#ff8c00; stroke:none; fill-opacity:0" cx="1316.23" cy="1325.21" r="2"/>
<circle clip-path="url(#clip802)" style="fill:#ff8c00; stroke:none; fill-opacity:0" cx="1351.31" cy="1328.53" r="2"/>
<circle clip-path="url(#clip802)" style="fill:#ff8c00; stroke:none; fill-opacity:0" cx="1386.38" cy="1391.68" r="2"/>
<circle clip-path="url(#clip802)" style="fill:#ff8c00; stroke:none; fill-opacity:0" cx="1421.46" cy="1385.04" r="2"/>
<circle clip-path="url(#clip802)" style="fill:#ff8c00; stroke:none; fill-opacity:0" cx="1456.54" cy="1385.04" r="2"/>
<circle clip-path="url(#clip802)" style="fill:#ff8c00; stroke:none; fill-opacity:0" cx="1491.62" cy="1375.06" r="2"/>
<circle clip-path="url(#clip802)" style="fill:#ff8c00; stroke:none; fill-opacity:0" cx="1526.69" cy="1361.77" r="2"/>
<circle clip-path="url(#clip802)" style="fill:#ff8c00; stroke:none; fill-opacity:0" cx="1561.77" cy="1391.68" r="2"/>
<circle clip-path="url(#clip802)" style="fill:#ff8c00; stroke:none; fill-opacity:0" cx="1596.85" cy="1388.36" r="2"/>
<circle clip-path="url(#clip802)" style="fill:#ff8c00; stroke:none; fill-opacity:0" cx="1631.93" cy="1375.06" r="2"/>
<circle clip-path="url(#clip802)" style="fill:#ff8c00; stroke:none; fill-opacity:0" cx="1667" cy="1388.36" r="2"/>
<circle clip-path="url(#clip802)" style="fill:#ff8c00; stroke:none; fill-opacity:0" cx="1702.08" cy="1391.68" r="2"/>
<circle clip-path="url(#clip802)" style="fill:#ff8c00; stroke:none; fill-opacity:0" cx="1737.16" cy="1391.68" r="2"/>
<circle clip-path="url(#clip802)" style="fill:#ff8c00; stroke:none; fill-opacity:0" cx="1772.24" cy="1391.68" r="2"/>
<circle clip-path="url(#clip802)" style="fill:#ff8c00; stroke:none; fill-opacity:0" cx="1807.31" cy="1391.68" r="2"/>
<circle clip-path="url(#clip802)" style="fill:#ff8c00; stroke:none; fill-opacity:0" cx="1842.39" cy="1391.68" r="2"/>
<circle clip-path="url(#clip802)" style="fill:#ff8c00; stroke:none; fill-opacity:0" cx="1877.47" cy="1391.68" r="2"/>
<circle clip-path="url(#clip802)" style="fill:#ff8c00; stroke:none; fill-opacity:0" cx="1912.55" cy="1391.68" r="2"/>
<circle clip-path="url(#clip802)" style="fill:#ff8c00; stroke:none; fill-opacity:0" cx="1947.62" cy="1388.36" r="2"/>
<circle clip-path="url(#clip802)" style="fill:#ff8c00; stroke:none; fill-opacity:0" cx="1982.7" cy="1391.68" r="2"/>
<circle clip-path="url(#clip802)" style="fill:#ff8c00; stroke:none; fill-opacity:0" cx="2017.78" cy="1391.68" r="2"/>
<circle clip-path="url(#clip802)" style="fill:#ff8c00; stroke:none; fill-opacity:0" cx="2052.85" cy="1391.68" r="2"/>
<circle clip-path="url(#clip802)" style="fill:#ff8c00; stroke:none; fill-opacity:0" cx="2087.93" cy="1391.68" r="2"/>
<circle clip-path="url(#clip802)" style="fill:#ff8c00; stroke:none; fill-opacity:0" cx="2123.01" cy="1388.36" r="2"/>
<circle clip-path="url(#clip802)" style="fill:#ff8c00; stroke:none; fill-opacity:0" cx="2158.09" cy="1391.68" r="2"/>
<circle clip-path="url(#clip802)" style="fill:#ff8c00; stroke:none; fill-opacity:0" cx="2193.16" cy="1385.04" r="2"/>
</svg>
