<?xml version="1.0" encoding="utf-8"?>
<svg xmlns="http://www.w3.org/2000/svg" xmlns:xlink="http://www.w3.org/1999/xlink" width="600" height="400" viewBox="0 0 2400 1600">
<defs>
  <clipPath id="clip040">
    <rect x="0" y="0" width="2400" height="1600"/>
  </clipPath>
</defs>
<path clip-path="url(#clip040)" d="M0 1600 L2400 1600 L2400 8.88178e-14 L0 8.88178e-14  Z" fill="#ffffff" fill-rule="evenodd" fill-opacity="1"/>
<defs>
  <clipPath id="clip041">
    <rect x="480" y="0" width="1681" height="1600"/>
  </clipPath>
</defs>
<path clip-path="url(#clip040)" d="M281.524 1391.68 L2321.26 1391.68 L2321.26 78.7402 L281.524 78.7402  Z" fill="#ffffff" fill-rule="evenodd" fill-opacity="1"/>
<defs>
  <clipPath id="clip042">
    <rect x="281" y="78" width="2041" height="1314"/>
  </clipPath>
</defs>
<polyline clip-path="url(#clip042)" style="stroke:#000000; stroke-linecap:round; stroke-linejoin:round; stroke-width:2; stroke-opacity:0.1; fill:none" points="393.713,1391.68 393.713,78.7402 "/>
<polyline clip-path="url(#clip042)" style="stroke:#000000; stroke-linecap:round; stroke-linejoin:round; stroke-width:2; stroke-opacity:0.1; fill:none" points="847.553,1391.68 847.553,78.7402 "/>
<polyline clip-path="url(#clip042)" style="stroke:#000000; stroke-linecap:round; stroke-linejoin:round; stroke-width:2; stroke-opacity:0.1; fill:none" points="1301.39,1391.68 1301.39,78.7402 "/>
<polyline clip-path="url(#clip042)" style="stroke:#000000; stroke-linecap:round; stroke-linejoin:round; stroke-width:2; stroke-opacity:0.1; fill:none" points="1755.23,1391.68 1755.23,78.7402 "/>
<polyline clip-path="url(#clip042)" style="stroke:#000000; stroke-linecap:round; stroke-linejoin:round; stroke-width:2; stroke-opacity:0.1; fill:none" points="2209.07,1391.68 2209.07,78.7402 "/>
<polyline clip-path="url(#clip040)" style="stroke:#000000; stroke-linecap:round; stroke-linejoin:round; stroke-width:4; stroke-opacity:1; fill:none" points="281.524,1391.68 2321.26,1391.68 "/>
<polyline clip-path="url(#clip040)" style="stroke:#000000; stroke-linecap:round; stroke-linejoin:round; stroke-width:4; stroke-opacity:1; fill:none" points="393.713,1391.68 393.713,1372.79 "/>
<polyline clip-path="url(#clip040)" style="stroke:#000000; stroke-linecap:round; stroke-linejoin:round; stroke-width:4; stroke-opacity:1; fill:none" points="847.553,1391.68 847.553,1372.79 "/>
<polyline clip-path="url(#clip040)" style="stroke:#000000; stroke-linecap:round; stroke-linejoin:round; stroke-width:4; stroke-opacity:1; fill:none" points="1301.39,1391.68 1301.39,1372.79 "/>
<polyline clip-path="url(#clip040)" style="stroke:#000000; stroke-linecap:round; stroke-linejoin:round; stroke-width:4; stroke-opacity:1; fill:none" points="1755.23,1391.68 1755.23,1372.79 "/>
<polyline clip-path="url(#clip040)" style="stroke:#000000; stroke-linecap:round; stroke-linejoin:round; stroke-width:4; stroke-opacity:1; fill:none" points="2209.07,1391.68 2209.07,1372.79 "/>
<path clip-path="url(#clip040)" d="M356.017 1422.6 Q352.406 1422.6 350.577 1426.17 Q348.771 1429.71 348.771 1436.84 Q348.771 1443.94 350.577 1447.51 Q352.406 1451.05 356.017 1451.05 Q359.651 1451.05 361.457 1447.51 Q363.285 1443.94 363.285 1436.84 Q363.285 1429.71 361.457 1426.17 Q359.651 1422.6 356.017 1422.6 M356.017 1418.9 Q361.827 1418.9 364.882 1423.51 Q367.961 1428.09 367.961 1436.84 Q367.961 1445.57 364.882 1450.17 Q361.827 1454.76 356.017 1454.76 Q350.207 1454.76 347.128 1450.17 Q344.072 1445.57 344.072 1436.84 Q344.072 1428.09 347.128 1423.51 Q350.207 1418.9 356.017 1418.9 Z" fill="#000000" fill-rule="nonzero" fill-opacity="1" /><path clip-path="url(#clip040)" d="M376.179 1448.2 L381.063 1448.2 L381.063 1454.08 L376.179 1454.08 L376.179 1448.2 Z" fill="#000000" fill-rule="nonzero" fill-opacity="1" /><path clip-path="url(#clip040)" d="M401.248 1422.6 Q397.637 1422.6 395.808 1426.17 Q394.003 1429.71 394.003 1436.84 Q394.003 1443.94 395.808 1447.51 Q397.637 1451.05 401.248 1451.05 Q404.882 1451.05 406.688 1447.51 Q408.516 1443.94 408.516 1436.84 Q408.516 1429.71 406.688 1426.17 Q404.882 1422.6 401.248 1422.6 M401.248 1418.9 Q407.058 1418.9 410.114 1423.51 Q413.192 1428.09 413.192 1436.84 Q413.192 1445.57 410.114 1450.17 Q407.058 1454.76 401.248 1454.76 Q395.438 1454.76 392.359 1450.17 Q389.304 1445.57 389.304 1436.84 Q389.304 1428.09 392.359 1423.51 Q395.438 1418.9 401.248 1418.9 Z" fill="#000000" fill-rule="nonzero" fill-opacity="1" /><path clip-path="url(#clip040)" d="M431.41 1422.6 Q427.799 1422.6 425.97 1426.17 Q424.165 1429.71 424.165 1436.84 Q424.165 1443.94 425.97 1447.51 Q427.799 1451.05 431.41 1451.05 Q435.044 1451.05 436.85 1447.51 Q438.678 1443.94 438.678 1436.84 Q438.678 1429.71 436.85 1426.17 Q435.044 1422.6 431.41 1422.6 M431.41 1418.9 Q437.22 1418.9 440.276 1423.51 Q443.354 1428.09 443.354 1436.84 Q443.354 1445.57 440.276 1450.17 Q437.22 1454.76 431.41 1454.76 Q425.6 1454.76 422.521 1450.17 Q419.465 1445.57 419.465 1436.84 Q419.465 1428.09 422.521 1423.51 Q425.6 1418.9 431.41 1418.9 Z" fill="#000000" fill-rule="nonzero" fill-opacity="1" /><path clip-path="url(#clip040)" d="M810.354 1422.6 Q806.743 1422.6 804.914 1426.17 Q803.108 1429.71 803.108 1436.84 Q803.108 1443.94 804.914 1447.51 Q806.743 1451.05 810.354 1451.05 Q813.988 1451.05 815.794 1447.51 Q817.622 1443.94 817.622 1436.84 Q817.622 1429.71 815.794 1426.17 Q813.988 1422.6 810.354 1422.6 M810.354 1418.9 Q816.164 1418.9 819.219 1423.51 Q822.298 1428.09 822.298 1436.84 Q822.298 1445.57 819.219 1450.17 Q816.164 1454.76 810.354 1454.76 Q804.544 1454.76 801.465 1450.17 Q798.409 1445.57 798.409 1436.84 Q798.409 1428.09 801.465 1423.51 Q804.544 1418.9 810.354 1418.9 Z" fill="#000000" fill-rule="nonzero" fill-opacity="1" /><path clip-path="url(#clip040)" d="M830.516 1448.2 L835.4 1448.2 L835.4 1454.08 L830.516 1454.08 L830.516 1448.2 Z" fill="#000000" fill-rule="nonzero" fill-opacity="1" /><path clip-path="url(#clip040)" d="M849.613 1450.15 L865.932 1450.15 L865.932 1454.08 L843.988 1454.08 L843.988 1450.15 Q846.65 1447.39 851.233 1442.76 Q855.84 1438.11 857.02 1436.77 Q859.266 1434.25 860.145 1432.51 Q861.048 1430.75 861.048 1429.06 Q861.048 1426.31 859.104 1424.57 Q857.182 1422.83 854.08 1422.83 Q851.881 1422.83 849.428 1423.6 Q846.997 1424.36 844.219 1425.91 L844.219 1421.19 Q847.043 1420.06 849.497 1419.48 Q851.951 1418.9 853.988 1418.9 Q859.358 1418.9 862.553 1421.58 Q865.747 1424.27 865.747 1428.76 Q865.747 1430.89 864.937 1432.81 Q864.15 1434.71 862.043 1437.3 Q861.465 1437.97 858.363 1441.19 Q855.261 1444.38 849.613 1450.15 Z" fill="#000000" fill-rule="nonzero" fill-opacity="1" /><path clip-path="url(#clip040)" d="M875.793 1419.52 L894.15 1419.52 L894.15 1423.46 L880.076 1423.46 L880.076 1431.93 Q881.094 1431.58 882.113 1431.42 Q883.131 1431.24 884.15 1431.24 Q889.937 1431.24 893.316 1434.41 Q896.696 1437.58 896.696 1443 Q896.696 1448.57 893.224 1451.68 Q889.752 1454.76 883.432 1454.76 Q881.256 1454.76 878.988 1454.38 Q876.742 1454.01 874.335 1453.27 L874.335 1448.57 Q876.418 1449.71 878.64 1450.26 Q880.863 1450.82 883.34 1450.82 Q887.344 1450.82 889.682 1448.71 Q892.02 1446.61 892.02 1443 Q892.02 1439.38 889.682 1437.28 Q887.344 1435.17 883.34 1435.17 Q881.465 1435.17 879.59 1435.59 Q877.738 1436.01 875.793 1436.88 L875.793 1419.52 Z" fill="#000000" fill-rule="nonzero" fill-opacity="1" /><path clip-path="url(#clip040)" d="M1263.7 1422.6 Q1260.08 1422.6 1258.26 1426.17 Q1256.45 1429.71 1256.45 1436.84 Q1256.45 1443.94 1258.26 1447.51 Q1260.08 1451.05 1263.7 1451.05 Q1267.33 1451.05 1269.14 1447.51 Q1270.96 1443.94 1270.96 1436.84 Q1270.96 1429.71 1269.14 1426.17 Q1267.33 1422.6 1263.7 1422.6 M1263.7 1418.9 Q1269.51 1418.9 1272.56 1423.51 Q1275.64 1428.09 1275.64 1436.84 Q1275.64 1445.57 1272.56 1450.17 Q1269.51 1454.76 1263.7 1454.76 Q1257.89 1454.76 1254.81 1450.17 Q1251.75 1445.57 1251.75 1436.84 Q1251.75 1428.09 1254.81 1423.51 Q1257.89 1418.9 1263.7 1418.9 Z" fill="#000000" fill-rule="nonzero" fill-opacity="1" /><path clip-path="url(#clip040)" d="M1283.86 1448.2 L1288.74 1448.2 L1288.74 1454.08 L1283.86 1454.08 L1283.86 1448.2 Z" fill="#000000" fill-rule="nonzero" fill-opacity="1" /><path clip-path="url(#clip040)" d="M1298.97 1419.52 L1317.33 1419.52 L1317.33 1423.46 L1303.26 1423.46 L1303.26 1431.93 Q1304.27 1431.58 1305.29 1431.42 Q1306.31 1431.24 1307.33 1431.24 Q1313.12 1431.24 1316.5 1434.41 Q1319.88 1437.58 1319.88 1443 Q1319.88 1448.57 1316.4 1451.68 Q1312.93 1454.76 1306.61 1454.76 Q1304.44 1454.76 1302.17 1454.38 Q1299.92 1454.01 1297.51 1453.27 L1297.51 1448.57 Q1299.6 1449.71 1301.82 1450.26 Q1304.04 1450.82 1306.52 1450.82 Q1310.52 1450.82 1312.86 1448.71 Q1315.2 1446.61 1315.2 1443 Q1315.2 1439.38 1312.86 1437.28 Q1310.52 1435.17 1306.52 1435.17 Q1304.64 1435.17 1302.77 1435.59 Q1300.92 1436.01 1298.97 1436.88 L1298.97 1419.52 Z" fill="#000000" fill-rule="nonzero" fill-opacity="1" /><path clip-path="url(#clip040)" d="M1339.09 1422.6 Q1335.48 1422.6 1333.65 1426.17 Q1331.84 1429.71 1331.84 1436.84 Q1331.84 1443.94 1333.65 1447.51 Q1335.48 1451.05 1339.09 1451.05 Q1342.72 1451.05 1344.53 1447.51 Q1346.36 1443.94 1346.36 1436.84 Q1346.36 1429.71 1344.53 1426.17 Q1342.72 1422.6 1339.09 1422.6 M1339.09 1418.9 Q1344.9 1418.9 1347.95 1423.51 Q1351.03 1428.09 1351.03 1436.84 Q1351.03 1445.57 1347.95 1450.17 Q1344.9 1454.76 1339.09 1454.76 Q1333.28 1454.76 1330.2 1450.17 Q1327.14 1445.57 1327.14 1436.84 Q1327.14 1428.09 1330.2 1423.51 Q1333.28 1418.9 1339.09 1418.9 Z" fill="#000000" fill-rule="nonzero" fill-opacity="1" /><path clip-path="url(#clip040)" d="M1718.03 1422.6 Q1714.42 1422.6 1712.59 1426.17 Q1710.79 1429.71 1710.79 1436.84 Q1710.79 1443.94 1712.59 1447.51 Q1714.42 1451.05 1718.03 1451.05 Q1721.67 1451.05 1723.47 1447.51 Q1725.3 1443.94 1725.3 1436.84 Q1725.3 1429.71 1723.47 1426.17 Q1721.67 1422.6 1718.03 1422.6 M1718.03 1418.9 Q1723.84 1418.9 1726.9 1423.51 Q1729.98 1428.09 1729.98 1436.84 Q1729.98 1445.57 1726.9 1450.17 Q1723.84 1454.76 1718.03 1454.76 Q1712.22 1454.76 1709.14 1450.17 Q1706.09 1445.57 1706.09 1436.84 Q1706.09 1428.09 1709.14 1423.51 Q1712.22 1418.9 1718.03 1418.9 Z" fill="#000000" fill-rule="nonzero" fill-opacity="1" /><path clip-path="url(#clip040)" d="M1738.19 1448.2 L1743.08 1448.2 L1743.08 1454.08 L1738.19 1454.08 L1738.19 1448.2 Z" fill="#000000" fill-rule="nonzero" fill-opacity="1" /><path clip-path="url(#clip040)" d="M1752.08 1419.52 L1774.31 1419.52 L1774.31 1421.51 L1761.76 1454.08 L1756.87 1454.08 L1768.68 1423.46 L1752.08 1423.46 L1752.08 1419.52 Z" fill="#000000" fill-rule="nonzero" fill-opacity="1" /><path clip-path="url(#clip040)" d="M1783.47 1419.52 L1801.83 1419.52 L1801.83 1423.46 L1787.75 1423.46 L1787.75 1431.93 Q1788.77 1431.58 1789.79 1431.42 Q1790.81 1431.24 1791.83 1431.24 Q1797.62 1431.24 1801 1434.41 Q1804.37 1437.58 1804.37 1443 Q1804.37 1448.57 1800.9 1451.68 Q1797.43 1454.76 1791.11 1454.76 Q1788.93 1454.76 1786.67 1454.38 Q1784.42 1454.01 1782.01 1453.27 L1782.01 1448.57 Q1784.1 1449.71 1786.32 1450.26 Q1788.54 1450.82 1791.02 1450.82 Q1795.02 1450.82 1797.36 1448.71 Q1799.7 1446.61 1799.7 1443 Q1799.7 1439.38 1797.36 1437.28 Q1795.02 1435.17 1791.02 1435.17 Q1789.14 1435.17 1787.27 1435.59 Q1785.42 1436.01 1783.47 1436.88 L1783.47 1419.52 Z" fill="#000000" fill-rule="nonzero" fill-opacity="1" /><path clip-path="url(#clip040)" d="M2161.14 1450.15 L2168.78 1450.15 L2168.78 1423.78 L2160.47 1425.45 L2160.47 1421.19 L2168.74 1419.52 L2173.41 1419.52 L2173.41 1450.15 L2181.05 1450.15 L2181.05 1454.08 L2161.14 1454.08 L2161.14 1450.15 Z" fill="#000000" fill-rule="nonzero" fill-opacity="1" /><path clip-path="url(#clip040)" d="M2190.49 1448.2 L2195.38 1448.2 L2195.38 1454.08 L2190.49 1454.08 L2190.49 1448.2 Z" fill="#000000" fill-rule="nonzero" fill-opacity="1" /><path clip-path="url(#clip040)" d="M2215.56 1422.6 Q2211.95 1422.6 2210.12 1426.17 Q2208.32 1429.71 2208.32 1436.84 Q2208.32 1443.94 2210.12 1447.51 Q2211.95 1451.05 2215.56 1451.05 Q2219.2 1451.05 2221 1447.51 Q2222.83 1443.94 2222.83 1436.84 Q2222.83 1429.71 2221 1426.17 Q2219.2 1422.6 2215.56 1422.6 M2215.56 1418.9 Q2221.37 1418.9 2224.43 1423.51 Q2227.51 1428.09 2227.51 1436.84 Q2227.51 1445.57 2224.43 1450.17 Q2221.37 1454.76 2215.56 1454.76 Q2209.75 1454.76 2206.67 1450.17 Q2203.62 1445.57 2203.62 1436.84 Q2203.62 1428.09 2206.67 1423.51 Q2209.75 1418.9 2215.56 1418.9 Z" fill="#000000" fill-rule="nonzero" fill-opacity="1" /><path clip-path="url(#clip040)" d="M2245.73 1422.6 Q2242.11 1422.6 2240.29 1426.17 Q2238.48 1429.71 2238.48 1436.84 Q2238.48 1443.94 2240.29 1447.51 Q2242.11 1451.05 2245.73 1451.05 Q2249.36 1451.05 2251.17 1447.51 Q2252.99 1443.94 2252.99 1436.84 Q2252.99 1429.71 2251.17 1426.17 Q2249.36 1422.6 2245.73 1422.6 M2245.73 1418.9 Q2251.54 1418.9 2254.59 1423.51 Q2257.67 1428.09 2257.67 1436.84 Q2257.67 1445.57 2254.59 1450.17 Q2251.54 1454.76 2245.73 1454.76 Q2239.92 1454.76 2236.84 1450.17 Q2233.78 1445.57 2233.78 1436.84 Q2233.78 1428.09 2236.84 1423.51 Q2239.92 1418.9 2245.73 1418.9 Z" fill="#000000" fill-rule="nonzero" fill-opacity="1" /><path clip-path="url(#clip040)" d="M1288.31 1507.27 Q1290.25 1504.02 1295.06 1501.15 Q1296.94 1500.04 1302.73 1500.04 Q1309.22 1500.04 1313.26 1505.2 Q1317.34 1510.35 1317.34 1518.76 Q1317.34 1527.16 1313.26 1532.31 Q1309.22 1537.47 1302.73 1537.47 Q1298.81 1537.47 1295.98 1535.94 Q1293.18 1534.38 1291.33 1531.2 L1291.33 1550.11 L1285.45 1550.11 L1285.45 1519.07 Q1285.45 1511.72 1288.31 1507.27 M1311.26 1518.76 Q1311.26 1512.29 1308.59 1508.63 Q1305.94 1504.94 1301.3 1504.94 Q1296.65 1504.94 1293.98 1508.63 Q1291.33 1512.29 1291.33 1518.76 Q1291.33 1525.22 1293.98 1528.91 Q1296.65 1532.57 1301.3 1532.57 Q1305.94 1532.57 1308.59 1528.91 Q1311.26 1525.22 1311.26 1518.76 Z" fill="#000000" fill-rule="nonzero" fill-opacity="1" /><polyline clip-path="url(#clip042)" style="stroke:#000000; stroke-linecap:round; stroke-linejoin:round; stroke-width:2; stroke-opacity:0.1; fill:none" points="281.524,1391.68 2321.26,1391.68 "/>
<polyline clip-path="url(#clip042)" style="stroke:#000000; stroke-linecap:round; stroke-linejoin:round; stroke-width:2; stroke-opacity:0.1; fill:none" points="281.524,1169.68 2321.26,1169.68 "/>
<polyline clip-path="url(#clip042)" style="stroke:#000000; stroke-linecap:round; stroke-linejoin:round; stroke-width:2; stroke-opacity:0.1; fill:none" points="281.524,947.67 2321.26,947.67 "/>
<polyline clip-path="url(#clip042)" style="stroke:#000000; stroke-linecap:round; stroke-linejoin:round; stroke-width:2; stroke-opacity:0.1; fill:none" points="281.524,725.663 2321.26,725.663 "/>
<polyline clip-path="url(#clip042)" style="stroke:#000000; stroke-linecap:round; stroke-linejoin:round; stroke-width:2; stroke-opacity:0.1; fill:none" points="281.524,503.656 2321.26,503.656 "/>
<polyline clip-path="url(#clip042)" style="stroke:#000000; stroke-linecap:round; stroke-linejoin:round; stroke-width:2; stroke-opacity:0.1; fill:none" points="281.524,281.65 2321.26,281.65 "/>
<polyline clip-path="url(#clip040)" style="stroke:#000000; stroke-linecap:round; stroke-linejoin:round; stroke-width:4; stroke-opacity:1; fill:none" points="281.524,1391.68 281.524,78.7402 "/>
<polyline clip-path="url(#clip040)" style="stroke:#000000; stroke-linecap:round; stroke-linejoin:round; stroke-width:4; stroke-opacity:1; fill:none" points="281.524,1391.68 300.422,1391.68 "/>
<polyline clip-path="url(#clip040)" style="stroke:#000000; stroke-linecap:round; stroke-linejoin:round; stroke-width:4; stroke-opacity:1; fill:none" points="281.524,1169.68 300.422,1169.68 "/>
<polyline clip-path="url(#clip040)" style="stroke:#000000; stroke-linecap:round; stroke-linejoin:round; stroke-width:4; stroke-opacity:1; fill:none" points="281.524,947.67 300.422,947.67 "/>
<polyline clip-path="url(#clip040)" style="stroke:#000000; stroke-linecap:round; stroke-linejoin:round; stroke-width:4; stroke-opacity:1; fill:none" points="281.524,725.663 300.422,725.663 "/>
<polyline clip-path="url(#clip040)" style="stroke:#000000; stroke-linecap:round; stroke-linejoin:round; stroke-width:4; stroke-opacity:1; fill:none" points="281.524,503.656 300.422,503.656 "/>
<polyline clip-path="url(#clip040)" style="stroke:#000000; stroke-linecap:round; stroke-linejoin:round; stroke-width:4; stroke-opacity:1; fill:none" points="281.524,281.65 300.422,281.65 "/>
<path clip-path="url(#clip040)" d="M158.187 1377.48 Q154.576 1377.48 152.747 1381.05 Q150.941 1384.59 150.941 1391.72 Q150.941 1398.82 152.747 1402.39 Q154.576 1405.93 158.187 1405.93 Q161.821 1405.93 163.626 1402.39 Q165.455 1398.82 165.455 1391.72 Q165.455 1384.59 163.626 1381.05 Q161.821 1377.48 158.187 1377.48 M158.187 1373.78 Q163.997 1373.78 167.052 1378.39 Q170.131 1382.97 170.131 1391.72 Q170.131 1400.45 167.052 1405.05 Q163.997 1409.64 158.187 1409.64 Q152.377 1409.64 149.298 1405.05 Q146.242 1400.45 146.242 1391.72 Q146.242 1382.97 149.298 1378.39 Q152.377 1373.78 158.187 1373.78 Z" fill="#000000" fill-rule="nonzero" fill-opacity="1" /><path clip-path="url(#clip040)" d="M178.349 1403.08 L183.233 1403.08 L183.233 1408.96 L178.349 1408.96 L178.349 1403.08 Z" fill="#000000" fill-rule="nonzero" fill-opacity="1" /><path clip-path="url(#clip040)" d="M203.418 1377.48 Q199.807 1377.48 197.978 1381.05 Q196.173 1384.59 196.173 1391.72 Q196.173 1398.82 197.978 1402.39 Q199.807 1405.93 203.418 1405.93 Q207.052 1405.93 208.858 1402.39 Q210.686 1398.82 210.686 1391.72 Q210.686 1384.59 208.858 1381.05 Q207.052 1377.48 203.418 1377.48 M203.418 1373.78 Q209.228 1373.78 212.284 1378.39 Q215.362 1382.97 215.362 1391.72 Q215.362 1400.45 212.284 1405.05 Q209.228 1409.64 203.418 1409.64 Q197.608 1409.64 194.529 1405.05 Q191.474 1400.45 191.474 1391.72 Q191.474 1382.97 194.529 1378.39 Q197.608 1373.78 203.418 1373.78 Z" fill="#000000" fill-rule="nonzero" fill-opacity="1" /><path clip-path="url(#clip040)" d="M233.58 1377.48 Q229.969 1377.48 228.14 1381.05 Q226.334 1384.59 226.334 1391.72 Q226.334 1398.82 228.14 1402.39 Q229.969 1405.93 233.58 1405.93 Q237.214 1405.93 239.02 1402.39 Q240.848 1398.82 240.848 1391.72 Q240.848 1384.59 239.02 1381.05 Q237.214 1377.48 233.58 1377.48 M233.58 1373.78 Q239.39 1373.78 242.446 1378.39 Q245.524 1382.97 245.524 1391.72 Q245.524 1400.45 242.446 1405.05 Q239.39 1409.64 233.58 1409.64 Q227.77 1409.64 224.691 1405.05 Q221.635 1400.45 221.635 1391.72 Q221.635 1382.97 224.691 1378.39 Q227.77 1373.78 233.58 1373.78 Z" fill="#000000" fill-rule="nonzero" fill-opacity="1" /><path clip-path="url(#clip040)" d="M159.414 1155.48 Q155.802 1155.48 153.974 1159.04 Q152.168 1162.58 152.168 1169.71 Q152.168 1176.82 153.974 1180.38 Q155.802 1183.92 159.414 1183.92 Q163.048 1183.92 164.853 1180.38 Q166.682 1176.82 166.682 1169.71 Q166.682 1162.58 164.853 1159.04 Q163.048 1155.48 159.414 1155.48 M159.414 1151.77 Q165.224 1151.77 168.279 1156.38 Q171.358 1160.96 171.358 1169.71 Q171.358 1178.44 168.279 1183.04 Q165.224 1187.63 159.414 1187.63 Q153.603 1187.63 150.525 1183.04 Q147.469 1178.44 147.469 1169.71 Q147.469 1160.96 150.525 1156.38 Q153.603 1151.77 159.414 1151.77 Z" fill="#000000" fill-rule="nonzero" fill-opacity="1" /><path clip-path="url(#clip040)" d="M179.575 1181.08 L184.46 1181.08 L184.46 1186.96 L179.575 1186.96 L179.575 1181.08 Z" fill="#000000" fill-rule="nonzero" fill-opacity="1" /><path clip-path="url(#clip040)" d="M204.645 1155.48 Q201.034 1155.48 199.205 1159.04 Q197.399 1162.58 197.399 1169.71 Q197.399 1176.82 199.205 1180.38 Q201.034 1183.92 204.645 1183.92 Q208.279 1183.92 210.085 1180.38 Q211.913 1176.82 211.913 1169.71 Q211.913 1162.58 210.085 1159.04 Q208.279 1155.48 204.645 1155.48 M204.645 1151.77 Q210.455 1151.77 213.51 1156.38 Q216.589 1160.96 216.589 1169.71 Q216.589 1178.44 213.51 1183.04 Q210.455 1187.63 204.645 1187.63 Q198.835 1187.63 195.756 1183.04 Q192.7 1178.44 192.7 1169.71 Q192.7 1160.96 195.756 1156.38 Q198.835 1151.77 204.645 1151.77 Z" fill="#000000" fill-rule="nonzero" fill-opacity="1" /><path clip-path="url(#clip040)" d="M225.617 1183.02 L233.256 1183.02 L233.256 1156.66 L224.946 1158.32 L224.946 1154.06 L233.209 1152.4 L237.885 1152.4 L237.885 1183.02 L245.524 1183.02 L245.524 1186.96 L225.617 1186.96 L225.617 1183.02 Z" fill="#000000" fill-rule="nonzero" fill-opacity="1" /><path clip-path="url(#clip040)" d="M159.784 933.469 Q156.173 933.469 154.344 937.034 Q152.539 940.575 152.539 947.705 Q152.539 954.811 154.344 958.376 Q156.173 961.918 159.784 961.918 Q163.418 961.918 165.224 958.376 Q167.052 954.811 167.052 947.705 Q167.052 940.575 165.224 937.034 Q163.418 933.469 159.784 933.469 M159.784 929.765 Q165.594 929.765 168.65 934.372 Q171.728 938.955 171.728 947.705 Q171.728 956.432 168.65 961.038 Q165.594 965.621 159.784 965.621 Q153.974 965.621 150.895 961.038 Q147.84 956.432 147.84 947.705 Q147.84 938.955 150.895 934.372 Q153.974 929.765 159.784 929.765 Z" fill="#000000" fill-rule="nonzero" fill-opacity="1" /><path clip-path="url(#clip040)" d="M179.946 959.071 L184.83 959.071 L184.83 964.95 L179.946 964.95 L179.946 959.071 Z" fill="#000000" fill-rule="nonzero" fill-opacity="1" /><path clip-path="url(#clip040)" d="M205.015 933.469 Q201.404 933.469 199.575 937.034 Q197.77 940.575 197.77 947.705 Q197.77 954.811 199.575 958.376 Q201.404 961.918 205.015 961.918 Q208.649 961.918 210.455 958.376 Q212.284 954.811 212.284 947.705 Q212.284 940.575 210.455 937.034 Q208.649 933.469 205.015 933.469 M205.015 929.765 Q210.825 929.765 213.881 934.372 Q216.96 938.955 216.96 947.705 Q216.96 956.432 213.881 961.038 Q210.825 965.621 205.015 965.621 Q199.205 965.621 196.126 961.038 Q193.071 956.432 193.071 947.705 Q193.071 938.955 196.126 934.372 Q199.205 929.765 205.015 929.765 Z" fill="#000000" fill-rule="nonzero" fill-opacity="1" /><path clip-path="url(#clip040)" d="M229.205 961.015 L245.524 961.015 L245.524 964.95 L223.58 964.95 L223.58 961.015 Q226.242 958.26 230.825 953.631 Q235.432 948.978 236.612 947.635 Q238.858 945.112 239.737 943.376 Q240.64 941.617 240.64 939.927 Q240.64 937.172 238.696 935.436 Q236.774 933.7 233.672 933.7 Q231.473 933.7 229.02 934.464 Q226.589 935.228 223.811 936.779 L223.811 932.057 Q226.635 930.923 229.089 930.344 Q231.543 929.765 233.58 929.765 Q238.95 929.765 242.145 932.45 Q245.339 935.135 245.339 939.626 Q245.339 941.756 244.529 943.677 Q243.742 945.575 241.635 948.168 Q241.057 948.839 237.955 952.057 Q234.853 955.251 229.205 961.015 Z" fill="#000000" fill-rule="nonzero" fill-opacity="1" /><path clip-path="url(#clip040)" d="M158.835 711.462 Q155.224 711.462 153.395 715.027 Q151.59 718.568 151.59 725.698 Q151.59 732.804 153.395 736.369 Q155.224 739.911 158.835 739.911 Q162.469 739.911 164.275 736.369 Q166.103 732.804 166.103 725.698 Q166.103 718.568 164.275 715.027 Q162.469 711.462 158.835 711.462 M158.835 707.758 Q164.645 707.758 167.701 712.365 Q170.779 716.948 170.779 725.698 Q170.779 734.425 167.701 739.031 Q164.645 743.615 158.835 743.615 Q153.025 743.615 149.946 739.031 Q146.89 734.425 146.89 725.698 Q146.89 716.948 149.946 712.365 Q153.025 707.758 158.835 707.758 Z" fill="#000000" fill-rule="nonzero" fill-opacity="1" /><path clip-path="url(#clip040)" d="M178.997 737.064 L183.881 737.064 L183.881 742.943 L178.997 742.943 L178.997 737.064 Z" fill="#000000" fill-rule="nonzero" fill-opacity="1" /><path clip-path="url(#clip040)" d="M204.066 711.462 Q200.455 711.462 198.626 715.027 Q196.821 718.568 196.821 725.698 Q196.821 732.804 198.626 736.369 Q200.455 739.911 204.066 739.911 Q207.7 739.911 209.506 736.369 Q211.335 732.804 211.335 725.698 Q211.335 718.568 209.506 715.027 Q207.7 711.462 204.066 711.462 M204.066 707.758 Q209.876 707.758 212.932 712.365 Q216.01 716.948 216.01 725.698 Q216.01 734.425 212.932 739.031 Q209.876 743.615 204.066 743.615 Q198.256 743.615 195.177 739.031 Q192.122 734.425 192.122 725.698 Q192.122 716.948 195.177 712.365 Q198.256 707.758 204.066 707.758 Z" fill="#000000" fill-rule="nonzero" fill-opacity="1" /><path clip-path="url(#clip040)" d="M238.395 724.309 Q241.751 725.027 243.626 727.295 Q245.524 729.564 245.524 732.897 Q245.524 738.013 242.006 740.814 Q238.487 743.615 232.006 743.615 Q229.83 743.615 227.515 743.175 Q225.223 742.758 222.77 741.902 L222.77 737.388 Q224.714 738.522 227.029 739.101 Q229.344 739.679 231.867 739.679 Q236.265 739.679 238.557 737.943 Q240.871 736.207 240.871 732.897 Q240.871 729.842 238.719 728.129 Q236.589 726.392 232.77 726.392 L228.742 726.392 L228.742 722.55 L232.955 722.55 Q236.404 722.55 238.233 721.184 Q240.061 719.795 240.061 717.203 Q240.061 714.541 238.163 713.129 Q236.288 711.693 232.77 711.693 Q230.848 711.693 228.649 712.11 Q226.45 712.527 223.811 713.406 L223.811 709.24 Q226.473 708.499 228.788 708.129 Q231.126 707.758 233.186 707.758 Q238.51 707.758 241.612 710.189 Q244.714 712.596 244.714 716.717 Q244.714 719.587 243.071 721.578 Q241.427 723.545 238.395 724.309 Z" fill="#000000" fill-rule="nonzero" fill-opacity="1" /><path clip-path="url(#clip040)" d="M157.701 489.455 Q154.09 489.455 152.261 493.02 Q150.455 496.562 150.455 503.691 Q150.455 510.798 152.261 514.362 Q154.09 517.904 157.701 517.904 Q161.335 517.904 163.14 514.362 Q164.969 510.798 164.969 503.691 Q164.969 496.562 163.14 493.02 Q161.335 489.455 157.701 489.455 M157.701 485.751 Q163.511 485.751 166.566 490.358 Q169.645 494.941 169.645 503.691 Q169.645 512.418 166.566 517.024 Q163.511 521.608 157.701 521.608 Q151.89 521.608 148.812 517.024 Q145.756 512.418 145.756 503.691 Q145.756 494.941 148.812 490.358 Q151.89 485.751 157.701 485.751 Z" fill="#000000" fill-rule="nonzero" fill-opacity="1" /><path clip-path="url(#clip040)" d="M177.863 515.057 L182.747 515.057 L182.747 520.936 L177.863 520.936 L177.863 515.057 Z" fill="#000000" fill-rule="nonzero" fill-opacity="1" /><path clip-path="url(#clip040)" d="M202.932 489.455 Q199.321 489.455 197.492 493.02 Q195.687 496.562 195.687 503.691 Q195.687 510.798 197.492 514.362 Q199.321 517.904 202.932 517.904 Q206.566 517.904 208.372 514.362 Q210.2 510.798 210.2 503.691 Q210.2 496.562 208.372 493.02 Q206.566 489.455 202.932 489.455 M202.932 485.751 Q208.742 485.751 211.798 490.358 Q214.876 494.941 214.876 503.691 Q214.876 512.418 211.798 517.024 Q208.742 521.608 202.932 521.608 Q197.122 521.608 194.043 517.024 Q190.987 512.418 190.987 503.691 Q190.987 494.941 194.043 490.358 Q197.122 485.751 202.932 485.751 Z" fill="#000000" fill-rule="nonzero" fill-opacity="1" /><path clip-path="url(#clip040)" d="M235.941 490.451 L224.135 508.899 L235.941 508.899 L235.941 490.451 M234.714 486.376 L240.594 486.376 L240.594 508.899 L245.524 508.899 L245.524 512.788 L240.594 512.788 L240.594 520.936 L235.941 520.936 L235.941 512.788 L220.339 512.788 L220.339 508.274 L234.714 486.376 Z" fill="#000000" fill-rule="nonzero" fill-opacity="1" /><path clip-path="url(#clip040)" d="M159.182 267.448 Q155.571 267.448 153.742 271.013 Q151.937 274.555 151.937 281.684 Q151.937 288.791 153.742 292.356 Q155.571 295.897 159.182 295.897 Q162.816 295.897 164.622 292.356 Q166.451 288.791 166.451 281.684 Q166.451 274.555 164.622 271.013 Q162.816 267.448 159.182 267.448 M159.182 263.745 Q164.992 263.745 168.048 268.351 Q171.126 272.934 171.126 281.684 Q171.126 290.411 168.048 295.018 Q164.992 299.601 159.182 299.601 Q153.372 299.601 150.293 295.018 Q147.238 290.411 147.238 281.684 Q147.238 272.934 150.293 268.351 Q153.372 263.745 159.182 263.745 Z" fill="#000000" fill-rule="nonzero" fill-opacity="1" /><path clip-path="url(#clip040)" d="M179.344 293.05 L184.228 293.05 L184.228 298.93 L179.344 298.93 L179.344 293.05 Z" fill="#000000" fill-rule="nonzero" fill-opacity="1" /><path clip-path="url(#clip040)" d="M204.413 267.448 Q200.802 267.448 198.974 271.013 Q197.168 274.555 197.168 281.684 Q197.168 288.791 198.974 292.356 Q200.802 295.897 204.413 295.897 Q208.048 295.897 209.853 292.356 Q211.682 288.791 211.682 281.684 Q211.682 274.555 209.853 271.013 Q208.048 267.448 204.413 267.448 M204.413 263.745 Q210.223 263.745 213.279 268.351 Q216.358 272.934 216.358 281.684 Q216.358 290.411 213.279 295.018 Q210.223 299.601 204.413 299.601 Q198.603 299.601 195.524 295.018 Q192.469 290.411 192.469 281.684 Q192.469 272.934 195.524 268.351 Q198.603 263.745 204.413 263.745 Z" fill="#000000" fill-rule="nonzero" fill-opacity="1" /><path clip-path="url(#clip040)" d="M224.622 264.37 L242.978 264.37 L242.978 268.305 L228.904 268.305 L228.904 276.777 Q229.922 276.43 230.941 276.268 Q231.959 276.083 232.978 276.083 Q238.765 276.083 242.145 279.254 Q245.524 282.425 245.524 287.842 Q245.524 293.42 242.052 296.522 Q238.58 299.601 232.26 299.601 Q230.084 299.601 227.816 299.231 Q225.571 298.86 223.163 298.119 L223.163 293.42 Q225.247 294.555 227.469 295.11 Q229.691 295.666 232.168 295.666 Q236.172 295.666 238.51 293.559 Q240.848 291.453 240.848 287.842 Q240.848 284.231 238.51 282.124 Q236.172 280.018 232.168 280.018 Q230.293 280.018 228.418 280.434 Q226.566 280.851 224.622 281.731 L224.622 264.37 Z" fill="#000000" fill-rule="nonzero" fill-opacity="1" /><path clip-path="url(#clip040)" d="M53.2638 1079.77 L71.1196 1079.77 L71.1196 1071.69 Q71.1196 1067.2 68.7961 1064.75 Q66.4726 1062.3 62.1757 1062.3 Q57.9107 1062.3 55.5872 1064.75 Q53.2638 1067.2 53.2638 1071.69 L53.2638 1079.77 M47.9802 1086.2 L47.9802 1071.69 Q47.9802 1063.7 51.6087 1059.62 Q55.2053 1055.52 62.1757 1055.52 Q69.2099 1055.52 72.8065 1059.62 Q76.4031 1063.7 76.4031 1071.69 L76.4031 1079.77 L95.5002 1079.77 L95.5002 1086.2 L47.9802 1086.2 Z" fill="#000000" fill-rule="nonzero" fill-opacity="1" /><path clip-path="url(#clip040)" d="M65.3268 1027.64 Q64.7539 1028.62 64.4992 1029.8 Q64.2128 1030.95 64.2128 1032.35 Q64.2128 1037.31 67.4593 1039.99 Q70.674 1042.63 76.7214 1042.63 L95.5002 1042.63 L95.5002 1048.52 L59.8523 1048.52 L59.8523 1042.63 L65.3904 1042.63 Q62.1439 1040.78 60.5843 1037.82 Q58.9929 1034.86 58.9929 1030.63 Q58.9929 1030.02 59.0884 1029.29 Q59.152 1028.56 59.3112 1027.67 L65.3268 1027.64 Z" fill="#000000" fill-rule="nonzero" fill-opacity="1" /><path clip-path="url(#clip040)" d="M63.9581 1009.11 Q63.9581 1013.82 67.6503 1016.56 Q71.3105 1019.3 77.7081 1019.3 Q84.1056 1019.3 87.7977 1016.59 Q91.458 1013.85 91.458 1009.11 Q91.458 1004.43 87.7659 1001.7 Q84.0738 998.959 77.7081 998.959 Q71.3742 998.959 67.6821 1001.7 Q63.9581 1004.43 63.9581 1009.11 M58.9929 1009.11 Q58.9929 1001.47 63.9581 997.113 Q68.9234 992.753 77.7081 992.753 Q86.4609 992.753 91.458 997.113 Q96.4232 1001.47 96.4232 1009.11 Q96.4232 1016.78 91.458 1021.14 Q86.4609 1025.47 77.7081 1025.47 Q68.9234 1025.47 63.9581 1021.14 Q58.9929 1016.78 58.9929 1009.11 Z" fill="#000000" fill-rule="nonzero" fill-opacity="1" /><path clip-path="url(#clip040)" d="M90.153 977.379 L109.059 977.379 L109.059 983.268 L59.8523 983.268 L59.8523 977.379 L65.2631 977.379 Q62.0803 975.533 60.5525 972.732 Q58.9929 969.9 58.9929 965.985 Q58.9929 959.492 64.1491 955.45 Q69.3053 951.375 77.7081 951.375 Q86.1108 951.375 91.267 955.45 Q96.4232 959.492 96.4232 965.985 Q96.4232 969.9 94.8955 972.732 Q93.3359 975.533 90.153 977.379 M77.7081 957.455 Q71.2469 957.455 67.5866 960.128 Q63.8945 962.77 63.8945 967.417 Q63.8945 972.064 67.5866 974.738 Q71.2469 977.379 77.7081 977.379 Q84.1693 977.379 87.8614 974.738 Q91.5217 972.064 91.5217 967.417 Q91.5217 962.77 87.8614 960.128 Q84.1693 957.455 77.7081 957.455 Z" fill="#000000" fill-rule="nonzero" fill-opacity="1" /><path clip-path="url(#clip040)" d="M63.9581 927.854 Q63.9581 932.565 67.6503 935.302 Q71.3105 938.039 77.7081 938.039 Q84.1056 938.039 87.7977 935.334 Q91.458 932.597 91.458 927.854 Q91.458 923.175 87.7659 920.438 Q84.0738 917.701 77.7081 917.701 Q71.3742 917.701 67.6821 920.438 Q63.9581 923.175 63.9581 927.854 M58.9929 927.854 Q58.9929 920.215 63.9581 915.855 Q68.9234 911.494 77.7081 911.494 Q86.4609 911.494 91.458 915.855 Q96.4232 920.215 96.4232 927.854 Q96.4232 935.525 91.458 939.885 Q86.4609 944.214 77.7081 944.214 Q68.9234 944.214 63.9581 939.885 Q58.9929 935.525 58.9929 927.854 Z" fill="#000000" fill-rule="nonzero" fill-opacity="1" /><path clip-path="url(#clip040)" d="M65.3268 881.13 Q64.7539 882.117 64.4992 883.294 Q64.2128 884.44 64.2128 885.841 Q64.2128 890.806 67.4593 893.479 Q70.674 896.121 76.7214 896.121 L95.5002 896.121 L95.5002 902.009 L59.8523 902.009 L59.8523 896.121 L65.3904 896.121 Q62.1439 894.275 60.5843 891.315 Q58.9929 888.355 58.9929 884.122 Q58.9929 883.517 59.0884 882.785 Q59.152 882.053 59.3112 881.162 L65.3268 881.13 Z" fill="#000000" fill-rule="nonzero" fill-opacity="1" /><path clip-path="url(#clip040)" d="M49.7308 869.194 L59.8523 869.194 L59.8523 857.131 L64.4037 857.131 L64.4037 869.194 L83.7555 869.194 Q88.116 869.194 89.3573 868.017 Q90.5986 866.807 90.5986 863.147 L90.5986 857.131 L95.5002 857.131 L95.5002 863.147 Q95.5002 869.926 92.9858 872.504 Q90.4395 875.082 83.7555 875.082 L64.4037 875.082 L64.4037 879.379 L59.8523 879.379 L59.8523 875.082 L49.7308 875.082 L49.7308 869.194 Z" fill="#000000" fill-rule="nonzero" fill-opacity="1" /><path clip-path="url(#clip040)" d="M59.8523 849.429 L59.8523 843.572 L95.5002 843.572 L95.5002 849.429 L59.8523 849.429 M45.975 849.429 L45.975 843.572 L53.3911 843.572 L53.3911 849.429 L45.975 849.429 Z" fill="#000000" fill-rule="nonzero" fill-opacity="1" /><path clip-path="url(#clip040)" d="M63.9581 817.505 Q63.9581 822.215 67.6503 824.953 Q71.3105 827.69 77.7081 827.69 Q84.1056 827.69 87.7977 824.984 Q91.458 822.247 91.458 817.505 Q91.458 812.826 87.7659 810.089 Q84.0738 807.351 77.7081 807.351 Q71.3742 807.351 67.6821 810.089 Q63.9581 812.826 63.9581 817.505 M58.9929 817.505 Q58.9929 809.866 63.9581 805.505 Q68.9234 801.145 77.7081 801.145 Q86.4609 801.145 91.458 805.505 Q96.4232 809.866 96.4232 817.505 Q96.4232 825.175 91.458 829.536 Q86.4609 833.865 77.7081 833.865 Q68.9234 833.865 63.9581 829.536 Q58.9929 825.175 58.9929 817.505 Z" fill="#000000" fill-rule="nonzero" fill-opacity="1" /><path clip-path="url(#clip040)" d="M73.9841 761.805 L95.5002 761.805 L95.5002 767.661 L74.1751 767.661 Q69.1144 767.661 66.5999 769.635 Q64.0855 771.608 64.0855 775.555 Q64.0855 780.297 67.1092 783.034 Q70.1329 785.772 75.3528 785.772 L95.5002 785.772 L95.5002 791.66 L59.8523 791.66 L59.8523 785.772 L65.3904 785.772 Q62.1757 783.671 60.5843 780.838 Q58.9929 777.974 58.9929 774.25 Q58.9929 768.107 62.8123 764.956 Q66.5999 761.805 73.9841 761.805 Z" fill="#000000" fill-rule="nonzero" fill-opacity="1" /><path clip-path="url(#clip040)" d="M63.9581 715.59 Q63.9581 720.3 67.6503 723.038 Q71.3105 725.775 77.7081 725.775 Q84.1056 725.775 87.7977 723.069 Q91.458 720.332 91.458 715.59 Q91.458 710.911 87.7659 708.174 Q84.0738 705.436 77.7081 705.436 Q71.3742 705.436 67.6821 708.174 Q63.9581 710.911 63.9581 715.59 M58.9929 715.59 Q58.9929 707.951 63.9581 703.59 Q68.9234 699.23 77.7081 699.23 Q86.4609 699.23 91.458 703.59 Q96.4232 707.951 96.4232 715.59 Q96.4232 723.26 91.458 727.621 Q86.4609 731.95 77.7081 731.95 Q68.9234 731.95 63.9581 727.621 Q58.9929 723.26 58.9929 715.59 Z" fill="#000000" fill-rule="nonzero" fill-opacity="1" /><path clip-path="url(#clip040)" d="M45.975 671.475 L50.8448 671.475 L50.8448 677.077 Q50.8448 680.228 52.1179 681.469 Q53.3911 682.679 56.7012 682.679 L59.8523 682.679 L59.8523 673.035 L64.4037 673.035 L64.4037 682.679 L95.5002 682.679 L95.5002 688.567 L64.4037 688.567 L64.4037 694.169 L59.8523 694.169 L59.8523 688.567 L57.3696 688.567 Q51.4177 688.567 48.7123 685.798 Q45.975 683.029 45.975 677.013 L45.975 671.475 Z" fill="#000000" fill-rule="nonzero" fill-opacity="1" /><path clip-path="url(#clip040)" d="M60.9026 623.128 L66.4408 623.128 Q65.1676 625.61 64.5311 628.284 Q63.8945 630.958 63.8945 633.822 Q63.8945 638.183 65.2313 640.379 Q66.5681 642.543 69.2417 642.543 Q71.2787 642.543 72.4564 640.984 Q73.6022 639.424 74.6525 634.713 L75.0981 632.708 Q76.4349 626.47 78.8857 623.86 Q81.3047 621.218 85.6652 621.218 Q90.6305 621.218 93.5269 625.165 Q96.4232 629.08 96.4232 635.955 Q96.4232 638.819 95.8503 641.938 Q95.3092 645.026 94.1953 648.463 L88.1478 648.463 Q89.8347 645.217 90.6941 642.066 Q91.5217 638.915 91.5217 635.827 Q91.5217 631.69 90.1212 629.462 Q88.6889 627.234 86.1108 627.234 Q83.7237 627.234 82.4505 628.857 Q81.1774 630.448 79.9997 635.891 L79.5223 637.928 Q78.3765 643.371 76.0212 645.79 Q73.634 648.209 69.4963 648.209 Q64.4674 648.209 61.7301 644.644 Q58.9929 641.079 58.9929 634.522 Q58.9929 631.276 59.4703 628.411 Q59.9477 625.547 60.9026 623.128 Z" fill="#000000" fill-rule="nonzero" fill-opacity="1" /><path clip-path="url(#clip040)" d="M77.5808 595.692 Q77.5808 602.789 79.204 605.527 Q80.8273 608.264 84.7422 608.264 Q87.8614 608.264 89.7074 606.227 Q91.5217 604.158 91.5217 600.625 Q91.5217 595.755 88.0842 592.827 Q84.6149 589.867 78.8857 589.867 L77.5808 589.867 L77.5808 595.692 M75.1618 584.011 L95.5002 584.011 L95.5002 589.867 L90.0894 589.867 Q93.3359 591.872 94.8955 594.864 Q96.4232 597.856 96.4232 602.185 Q96.4232 607.659 93.3677 610.906 Q90.2803 614.12 85.1241 614.12 Q79.1085 614.12 76.053 610.11 Q72.9974 606.068 72.9974 598.079 L72.9974 589.867 L72.4245 589.867 Q68.3823 589.867 66.1861 592.541 Q63.9581 595.182 63.9581 599.988 Q63.9581 603.044 64.6902 605.94 Q65.4223 608.837 66.8864 611.51 L61.4755 611.51 Q60.2342 608.296 59.6295 605.272 Q58.9929 602.248 58.9929 599.384 Q58.9929 591.649 63.0033 587.83 Q67.0137 584.011 75.1618 584.011 Z" fill="#000000" fill-rule="nonzero" fill-opacity="1" /><path clip-path="url(#clip040)" d="M66.6954 544.193 Q62.7487 541.997 60.8708 538.941 Q58.9929 535.886 58.9929 531.748 Q58.9929 526.178 62.9078 523.154 Q66.7909 520.131 73.9841 520.131 L95.5002 520.131 L95.5002 526.019 L74.1751 526.019 Q69.0507 526.019 66.5681 527.833 Q64.0855 529.647 64.0855 533.371 Q64.0855 537.923 67.1092 540.565 Q70.1329 543.206 75.3528 543.206 L95.5002 543.206 L95.5002 549.095 L74.1751 549.095 Q69.0189 549.095 66.5681 550.909 Q64.0855 552.723 64.0855 556.511 Q64.0855 560.998 67.141 563.64 Q70.1647 566.282 75.3528 566.282 L95.5002 566.282 L95.5002 572.17 L59.8523 572.17 L59.8523 566.282 L65.3904 566.282 Q62.1121 564.277 60.5525 561.476 Q58.9929 558.675 58.9929 554.824 Q58.9929 550.941 60.9663 548.235 Q62.9396 545.498 66.6954 544.193 Z" fill="#000000" fill-rule="nonzero" fill-opacity="1" /><path clip-path="url(#clip040)" d="M90.153 502.784 L109.059 502.784 L109.059 508.672 L59.8523 508.672 L59.8523 502.784 L65.2631 502.784 Q62.0803 500.938 60.5525 498.137 Q58.9929 495.304 58.9929 491.389 Q58.9929 484.896 64.1491 480.854 Q69.3053 476.78 77.7081 476.78 Q86.1108 476.78 91.267 480.854 Q96.4232 484.896 96.4232 491.389 Q96.4232 495.304 94.8955 498.137 Q93.3359 500.938 90.153 502.784 M77.7081 482.859 Q71.2469 482.859 67.5866 485.533 Q63.8945 488.175 63.8945 492.822 Q63.8945 497.469 67.5866 500.142 Q71.2469 502.784 77.7081 502.784 Q84.1693 502.784 87.8614 500.142 Q91.5217 497.469 91.5217 492.822 Q91.5217 488.175 87.8614 485.533 Q84.1693 482.859 77.7081 482.859 Z" fill="#000000" fill-rule="nonzero" fill-opacity="1" /><path clip-path="url(#clip040)" d="M45.975 467.072 L45.975 461.216 L95.5002 461.216 L95.5002 467.072 L45.975 467.072 Z" fill="#000000" fill-rule="nonzero" fill-opacity="1" /><path clip-path="url(#clip040)" d="M76.2121 418.47 L79.0767 418.47 L79.0767 445.397 Q85.1241 445.015 88.307 441.769 Q91.458 438.49 91.458 432.666 Q91.458 429.292 90.6305 426.141 Q89.8029 422.958 88.1478 419.839 L93.686 419.839 Q95.0228 422.99 95.723 426.3 Q96.4232 429.61 96.4232 433.016 Q96.4232 441.546 91.458 446.543 Q86.4927 451.508 78.0264 451.508 Q69.2735 451.508 64.1491 446.798 Q58.9929 442.055 58.9929 434.034 Q58.9929 426.841 63.6399 422.672 Q68.255 418.47 76.2121 418.47 M74.4934 424.327 Q69.6873 424.39 66.8227 427.032 Q63.9581 429.642 63.9581 433.971 Q63.9581 438.872 66.7272 441.832 Q69.4963 444.761 74.5252 445.206 L74.4934 424.327 Z" fill="#000000" fill-rule="nonzero" fill-opacity="1" /><path clip-path="url(#clip040)" d="M60.9026 386.133 L66.4408 386.133 Q65.1676 388.615 64.5311 391.289 Q63.8945 393.962 63.8945 396.827 Q63.8945 401.187 65.2313 403.384 Q66.5681 405.548 69.2417 405.548 Q71.2787 405.548 72.4564 403.988 Q73.6022 402.429 74.6525 397.718 L75.0981 395.713 Q76.4349 389.475 78.8857 386.865 Q81.3047 384.223 85.6652 384.223 Q90.6305 384.223 93.5269 388.17 Q96.4232 392.084 96.4232 398.959 Q96.4232 401.824 95.8503 404.943 Q95.3092 408.031 94.1953 411.468 L88.1478 411.468 Q89.8347 408.222 90.6941 405.071 Q91.5217 401.919 91.5217 398.832 Q91.5217 394.694 90.1212 392.466 Q88.6889 390.238 86.1108 390.238 Q83.7237 390.238 82.4505 391.862 Q81.1774 393.453 79.9997 398.896 L79.5223 400.933 Q78.3765 406.375 76.0212 408.794 Q73.634 411.213 69.4963 411.213 Q64.4674 411.213 61.7301 407.649 Q58.9929 404.084 58.9929 397.527 Q58.9929 394.281 59.4703 391.416 Q59.9477 388.551 60.9026 386.133 Z" fill="#000000" fill-rule="nonzero" fill-opacity="1" /><path clip-path="url(#clip042)" d="M393.713 1265.16 L393.713 1391.68 L430.02 1391.68 L430.02 1265.16 L393.713 1265.16 L393.713 1265.16  Z" fill="#ff8c00" fill-rule="evenodd" fill-opacity="1"/>
<polyline clip-path="url(#clip042)" style="stroke:#000000; stroke-linecap:round; stroke-linejoin:round; stroke-width:4; stroke-opacity:1; fill:none" points="393.713,1265.16 393.713,1391.68 430.02,1391.68 430.02,1265.16 393.713,1265.16 "/>
<path clip-path="url(#clip042)" d="M430.02 751.922 L430.02 1391.68 L466.328 1391.68 L466.328 751.922 L430.02 751.922 L430.02 751.922  Z" fill="#ff8c00" fill-rule="evenodd" fill-opacity="1"/>
<polyline clip-path="url(#clip042)" style="stroke:#000000; stroke-linecap:round; stroke-linejoin:round; stroke-width:4; stroke-opacity:1; fill:none" points="430.02,751.922 430.02,1391.68 466.328,1391.68 466.328,751.922 430.02,751.922 "/>
<path clip-path="url(#clip042)" d="M466.328 331.78 L466.328 1391.68 L502.635 1391.68 L502.635 331.78 L466.328 331.78 L466.328 331.78  Z" fill="#ff8c00" fill-rule="evenodd" fill-opacity="1"/>
<polyline clip-path="url(#clip042)" style="stroke:#000000; stroke-linecap:round; stroke-linejoin:round; stroke-width:4; stroke-opacity:1; fill:none" points="466.328,331.78 466.328,1391.68 502.635,1391.68 502.635,331.78 466.328,331.78 "/>
<path clip-path="url(#clip042)" d="M502.635 78.7402 L502.635 1391.68 L538.942 1391.68 L538.942 78.7402 L502.635 78.7402 L502.635 78.7402  Z" fill="#ff8c00" fill-rule="evenodd" fill-opacity="1"/>
<polyline clip-path="url(#clip042)" style="stroke:#000000; stroke-linecap:round; stroke-linejoin:round; stroke-width:4; stroke-opacity:1; fill:none" points="502.635,78.7402 502.635,1391.68 538.942,1391.68 538.942,78.7402 502.635,78.7402 "/>
<path clip-path="url(#clip042)" d="M538.942 284.037 L538.942 1391.68 L575.249 1391.68 L575.249 284.037 L538.942 284.037 L538.942 284.037  Z" fill="#ff8c00" fill-rule="evenodd" fill-opacity="1"/>
<polyline clip-path="url(#clip042)" style="stroke:#000000; stroke-linecap:round; stroke-linejoin:round; stroke-width:4; stroke-opacity:1; fill:none" points="538.942,284.037 538.942,1391.68 575.249,1391.68 575.249,284.037 538.942,284.037 "/>
<path clip-path="url(#clip042)" d="M575.249 372.362 L575.249 1391.68 L611.556 1391.68 L611.556 372.362 L575.249 372.362 L575.249 372.362  Z" fill="#ff8c00" fill-rule="evenodd" fill-opacity="1"/>
<polyline clip-path="url(#clip042)" style="stroke:#000000; stroke-linecap:round; stroke-linejoin:round; stroke-width:4; stroke-opacity:1; fill:none" points="575.249,372.362 575.249,1391.68 611.556,1391.68 611.556,372.362 575.249,372.362 "/>
<path clip-path="url(#clip042)" d="M611.556 236.293 L611.556 1391.68 L647.863 1391.68 L647.863 236.293 L611.556 236.293 L611.556 236.293  Z" fill="#ff8c00" fill-rule="evenodd" fill-opacity="1"/>
<polyline clip-path="url(#clip042)" style="stroke:#000000; stroke-linecap:round; stroke-linejoin:round; stroke-width:4; stroke-opacity:1; fill:none" points="611.556,236.293 611.556,1391.68 647.863,1391.68 647.863,236.293 611.556,236.293 "/>
<path clip-path="url(#clip042)" d="M647.863 704.179 L647.863 1391.68 L684.17 1391.68 L684.17 704.179 L647.863 704.179 L647.863 704.179  Z" fill="#ff8c00" fill-rule="evenodd" fill-opacity="1"/>
<polyline clip-path="url(#clip042)" style="stroke:#000000; stroke-linecap:round; stroke-linejoin:round; stroke-width:4; stroke-opacity:1; fill:none" points="647.863,704.179 647.863,1391.68 684.17,1391.68 684.17,704.179 647.863,704.179 "/>
<path clip-path="url(#clip042)" d="M684.17 331.78 L684.17 1391.68 L720.478 1391.68 L720.478 331.78 L684.17 331.78 L684.17 331.78  Z" fill="#ff8c00" fill-rule="evenodd" fill-opacity="1"/>
<polyline clip-path="url(#clip042)" style="stroke:#000000; stroke-linecap:round; stroke-linejoin:round; stroke-width:4; stroke-opacity:1; fill:none" points="684.17,331.78 684.17,1391.68 720.478,1391.68 720.478,331.78 684.17,331.78 "/>
<path clip-path="url(#clip042)" d="M720.478 353.265 L720.478 1391.68 L756.785 1391.68 L756.785 353.265 L720.478 353.265 L720.478 353.265  Z" fill="#ff8c00" fill-rule="evenodd" fill-opacity="1"/>
<polyline clip-path="url(#clip042)" style="stroke:#000000; stroke-linecap:round; stroke-linejoin:round; stroke-width:4; stroke-opacity:1; fill:none" points="720.478,353.265 720.478,1391.68 756.785,1391.68 756.785,353.265 720.478,353.265 "/>
<path clip-path="url(#clip042)" d="M756.785 279.262 L756.785 1391.68 L793.092 1391.68 L793.092 279.262 L756.785 279.262 L756.785 279.262  Z" fill="#ff8c00" fill-rule="evenodd" fill-opacity="1"/>
<polyline clip-path="url(#clip042)" style="stroke:#000000; stroke-linecap:round; stroke-linejoin:round; stroke-width:4; stroke-opacity:1; fill:none" points="756.785,279.262 756.785,1391.68 793.092,1391.68 793.092,279.262 756.785,279.262 "/>
<path clip-path="url(#clip042)" d="M793.092 897.54 L793.092 1391.68 L829.399 1391.68 L829.399 897.54 L793.092 897.54 L793.092 897.54  Z" fill="#ff8c00" fill-rule="evenodd" fill-opacity="1"/>
<polyline clip-path="url(#clip042)" style="stroke:#000000; stroke-linecap:round; stroke-linejoin:round; stroke-width:4; stroke-opacity:1; fill:none" points="793.092,897.54 793.092,1391.68 829.399,1391.68 829.399,897.54 793.092,897.54 "/>
<path clip-path="url(#clip042)" d="M829.399 766.245 L829.399 1391.68 L865.706 1391.68 L865.706 766.245 L829.399 766.245 L829.399 766.245  Z" fill="#ff8c00" fill-rule="evenodd" fill-opacity="1"/>
<polyline clip-path="url(#clip042)" style="stroke:#000000; stroke-linecap:round; stroke-linejoin:round; stroke-width:4; stroke-opacity:1; fill:none" points="829.399,766.245 829.399,1391.68 865.706,1391.68 865.706,766.245 829.399,766.245 "/>
<path clip-path="url(#clip042)" d="M865.706 546.626 L865.706 1391.68 L902.013 1391.68 L902.013 546.626 L865.706 546.626 L865.706 546.626  Z" fill="#ff8c00" fill-rule="evenodd" fill-opacity="1"/>
<polyline clip-path="url(#clip042)" style="stroke:#000000; stroke-linecap:round; stroke-linejoin:round; stroke-width:4; stroke-opacity:1; fill:none" points="865.706,546.626 865.706,1391.68 902.013,1391.68 902.013,546.626 865.706,546.626 "/>
<path clip-path="url(#clip042)" d="M902.013 594.369 L902.013 1391.68 L938.321 1391.68 L938.321 594.369 L902.013 594.369 L902.013 594.369  Z" fill="#ff8c00" fill-rule="evenodd" fill-opacity="1"/>
<polyline clip-path="url(#clip042)" style="stroke:#000000; stroke-linecap:round; stroke-linejoin:round; stroke-width:4; stroke-opacity:1; fill:none" points="902.013,594.369 902.013,1391.68 938.321,1391.68 938.321,594.369 902.013,594.369 "/>
<path clip-path="url(#clip042)" d="M938.321 799.666 L938.321 1391.68 L974.628 1391.68 L974.628 799.666 L938.321 799.666 L938.321 799.666  Z" fill="#ff8c00" fill-rule="evenodd" fill-opacity="1"/>
<polyline clip-path="url(#clip042)" style="stroke:#000000; stroke-linecap:round; stroke-linejoin:round; stroke-width:4; stroke-opacity:1; fill:none" points="938.321,799.666 938.321,1391.68 974.628,1391.68 974.628,799.666 938.321,799.666 "/>
<path clip-path="url(#clip042)" d="M974.628 959.606 L974.628 1391.68 L1010.93 1391.68 L1010.93 959.606 L974.628 959.606 L974.628 959.606  Z" fill="#ff8c00" fill-rule="evenodd" fill-opacity="1"/>
<polyline clip-path="url(#clip042)" style="stroke:#000000; stroke-linecap:round; stroke-linejoin:round; stroke-width:4; stroke-opacity:1; fill:none" points="974.628,959.606 974.628,1391.68 1010.93,1391.68 1010.93,959.606 974.628,959.606 "/>
<path clip-path="url(#clip042)" d="M1010.93 911.863 L1010.93 1391.68 L1047.24 1391.68 L1047.24 911.863 L1010.93 911.863 L1010.93 911.863  Z" fill="#ff8c00" fill-rule="evenodd" fill-opacity="1"/>
<polyline clip-path="url(#clip042)" style="stroke:#000000; stroke-linecap:round; stroke-linejoin:round; stroke-width:4; stroke-opacity:1; fill:none" points="1010.93,911.863 1010.93,1391.68 1047.24,1391.68 1047.24,911.863 1010.93,911.863 "/>
<path clip-path="url(#clip042)" d="M1047.24 768.632 L1047.24 1391.68 L1083.55 1391.68 L1083.55 768.632 L1047.24 768.632 L1047.24 768.632  Z" fill="#ff8c00" fill-rule="evenodd" fill-opacity="1"/>
<polyline clip-path="url(#clip042)" style="stroke:#000000; stroke-linecap:round; stroke-linejoin:round; stroke-width:4; stroke-opacity:1; fill:none" points="1047.24,768.632 1047.24,1391.68 1083.55,1391.68 1083.55,768.632 1047.24,768.632 "/>
<path clip-path="url(#clip042)" d="M1083.55 1024.06 L1083.55 1391.68 L1119.86 1391.68 L1119.86 1024.06 L1083.55 1024.06 L1083.55 1024.06  Z" fill="#ff8c00" fill-rule="evenodd" fill-opacity="1"/>
<polyline clip-path="url(#clip042)" style="stroke:#000000; stroke-linecap:round; stroke-linejoin:round; stroke-width:4; stroke-opacity:1; fill:none" points="1083.55,1024.06 1083.55,1391.68 1119.86,1391.68 1119.86,1024.06 1083.55,1024.06 "/>
<path clip-path="url(#clip042)" d="M1119.86 973.929 L1119.86 1391.68 L1156.16 1391.68 L1156.16 973.929 L1119.86 973.929 L1119.86 973.929  Z" fill="#ff8c00" fill-rule="evenodd" fill-opacity="1"/>
<polyline clip-path="url(#clip042)" style="stroke:#000000; stroke-linecap:round; stroke-linejoin:round; stroke-width:4; stroke-opacity:1; fill:none" points="1119.86,973.929 1119.86,1391.68 1156.16,1391.68 1156.16,973.929 1119.86,973.929 "/>
<path clip-path="url(#clip042)" d="M1156.16 964.38 L1156.16 1391.68 L1192.47 1391.68 L1192.47 964.38 L1156.16 964.38 L1156.16 964.38  Z" fill="#ff8c00" fill-rule="evenodd" fill-opacity="1"/>
<polyline clip-path="url(#clip042)" style="stroke:#000000; stroke-linecap:round; stroke-linejoin:round; stroke-width:4; stroke-opacity:1; fill:none" points="1156.16,964.38 1156.16,1391.68 1192.47,1391.68 1192.47,964.38 1156.16,964.38 "/>
<path clip-path="url(#clip042)" d="M1192.47 930.96 L1192.47 1391.68 L1228.78 1391.68 L1228.78 930.96 L1192.47 930.96 L1192.47 930.96  Z" fill="#ff8c00" fill-rule="evenodd" fill-opacity="1"/>
<polyline clip-path="url(#clip042)" style="stroke:#000000; stroke-linecap:round; stroke-linejoin:round; stroke-width:4; stroke-opacity:1; fill:none" points="1192.47,930.96 1192.47,1391.68 1228.78,1391.68 1228.78,930.96 1192.47,930.96 "/>
<path clip-path="url(#clip042)" d="M1228.78 704.179 L1228.78 1391.68 L1265.08 1391.68 L1265.08 704.179 L1228.78 704.179 L1228.78 704.179  Z" fill="#ff8c00" fill-rule="evenodd" fill-opacity="1"/>
<polyline clip-path="url(#clip042)" style="stroke:#000000; stroke-linecap:round; stroke-linejoin:round; stroke-width:4; stroke-opacity:1; fill:none" points="1228.78,704.179 1228.78,1391.68 1265.08,1391.68 1265.08,704.179 1228.78,704.179 "/>
<path clip-path="url(#clip042)" d="M1265.08 1069.42 L1265.08 1391.68 L1301.39 1391.68 L1301.39 1069.42 L1265.08 1069.42 L1265.08 1069.42  Z" fill="#ff8c00" fill-rule="evenodd" fill-opacity="1"/>
<polyline clip-path="url(#clip042)" style="stroke:#000000; stroke-linecap:round; stroke-linejoin:round; stroke-width:4; stroke-opacity:1; fill:none" points="1265.08,1069.42 1265.08,1391.68 1301.39,1391.68 1301.39,1069.42 1265.08,1069.42 "/>
<path clip-path="url(#clip042)" d="M1301.39 933.347 L1301.39 1391.68 L1337.7 1391.68 L1337.7 933.347 L1301.39 933.347 L1301.39 933.347  Z" fill="#ff8c00" fill-rule="evenodd" fill-opacity="1"/>
<polyline clip-path="url(#clip042)" style="stroke:#000000; stroke-linecap:round; stroke-linejoin:round; stroke-width:4; stroke-opacity:1; fill:none" points="1301.39,933.347 1301.39,1391.68 1337.7,1391.68 1337.7,933.347 1301.39,933.347 "/>
<path clip-path="url(#clip042)" d="M1337.7 1078.96 L1337.7 1391.68 L1374.01 1391.68 L1374.01 1078.96 L1337.7 1078.96 L1337.7 1078.96  Z" fill="#ff8c00" fill-rule="evenodd" fill-opacity="1"/>
<polyline clip-path="url(#clip042)" style="stroke:#000000; stroke-linecap:round; stroke-linejoin:round; stroke-width:4; stroke-opacity:1; fill:none" points="1337.7,1078.96 1337.7,1391.68 1374.01,1391.68 1374.01,1078.96 1337.7,1078.96 "/>
<path clip-path="url(#clip042)" d="M1374.01 978.703 L1374.01 1391.68 L1410.31 1391.68 L1410.31 978.703 L1374.01 978.703 L1374.01 978.703  Z" fill="#ff8c00" fill-rule="evenodd" fill-opacity="1"/>
<polyline clip-path="url(#clip042)" style="stroke:#000000; stroke-linecap:round; stroke-linejoin:round; stroke-width:4; stroke-opacity:1; fill:none" points="1374.01,978.703 1374.01,1391.68 1410.31,1391.68 1410.31,978.703 1374.01,978.703 "/>
<path clip-path="url(#clip042)" d="M1410.31 1121.93 L1410.31 1391.68 L1446.62 1391.68 L1446.62 1121.93 L1410.31 1121.93 L1410.31 1121.93  Z" fill="#ff8c00" fill-rule="evenodd" fill-opacity="1"/>
<polyline clip-path="url(#clip042)" style="stroke:#000000; stroke-linecap:round; stroke-linejoin:round; stroke-width:4; stroke-opacity:1; fill:none" points="1410.31,1121.93 1410.31,1391.68 1446.62,1391.68 1446.62,1121.93 1410.31,1121.93 "/>
<path clip-path="url(#clip042)" d="M1446.62 1174.45 L1446.62 1391.68 L1482.93 1391.68 L1482.93 1174.45 L1446.62 1174.45 L1446.62 1174.45  Z" fill="#ff8c00" fill-rule="evenodd" fill-opacity="1"/>
<polyline clip-path="url(#clip042)" style="stroke:#000000; stroke-linecap:round; stroke-linejoin:round; stroke-width:4; stroke-opacity:1; fill:none" points="1446.62,1174.45 1446.62,1391.68 1482.93,1391.68 1482.93,1174.45 1446.62,1174.45 "/>
<path clip-path="url(#clip042)" d="M1482.93 1117.16 L1482.93 1391.68 L1519.23 1391.68 L1519.23 1117.16 L1482.93 1117.16 L1482.93 1117.16  Z" fill="#ff8c00" fill-rule="evenodd" fill-opacity="1"/>
<polyline clip-path="url(#clip042)" style="stroke:#000000; stroke-linecap:round; stroke-linejoin:round; stroke-width:4; stroke-opacity:1; fill:none" points="1482.93,1117.16 1482.93,1391.68 1519.23,1391.68 1519.23,1117.16 1482.93,1117.16 "/>
<path clip-path="url(#clip042)" d="M1519.23 1243.68 L1519.23 1391.68 L1555.54 1391.68 L1555.54 1243.68 L1519.23 1243.68 L1519.23 1243.68  Z" fill="#ff8c00" fill-rule="evenodd" fill-opacity="1"/>
<polyline clip-path="url(#clip042)" style="stroke:#000000; stroke-linecap:round; stroke-linejoin:round; stroke-width:4; stroke-opacity:1; fill:none" points="1519.23,1243.68 1519.23,1391.68 1555.54,1391.68 1555.54,1243.68 1519.23,1243.68 "/>
<path clip-path="url(#clip042)" d="M1555.54 1107.61 L1555.54 1391.68 L1591.85 1391.68 L1591.85 1107.61 L1555.54 1107.61 L1555.54 1107.61  Z" fill="#ff8c00" fill-rule="evenodd" fill-opacity="1"/>
<polyline clip-path="url(#clip042)" style="stroke:#000000; stroke-linecap:round; stroke-linejoin:round; stroke-width:4; stroke-opacity:1; fill:none" points="1555.54,1107.61 1555.54,1391.68 1591.85,1391.68 1591.85,1107.61 1555.54,1107.61 "/>
<path clip-path="url(#clip042)" d="M1591.85 1246.07 L1591.85 1391.68 L1628.16 1391.68 L1628.16 1246.07 L1591.85 1246.07 L1591.85 1246.07  Z" fill="#ff8c00" fill-rule="evenodd" fill-opacity="1"/>
<polyline clip-path="url(#clip042)" style="stroke:#000000; stroke-linecap:round; stroke-linejoin:round; stroke-width:4; stroke-opacity:1; fill:none" points="1591.85,1246.07 1591.85,1391.68 1628.16,1391.68 1628.16,1246.07 1591.85,1246.07 "/>
<path clip-path="url(#clip042)" d="M1628.16 1155.35 L1628.16 1391.68 L1664.46 1391.68 L1664.46 1155.35 L1628.16 1155.35 L1628.16 1155.35  Z" fill="#ff8c00" fill-rule="evenodd" fill-opacity="1"/>
<polyline clip-path="url(#clip042)" style="stroke:#000000; stroke-linecap:round; stroke-linejoin:round; stroke-width:4; stroke-opacity:1; fill:none" points="1628.16,1155.35 1628.16,1391.68 1664.46,1391.68 1664.46,1155.35 1628.16,1155.35 "/>
<path clip-path="url(#clip042)" d="M1664.46 1272.33 L1664.46 1391.68 L1700.77 1391.68 L1700.77 1272.33 L1664.46 1272.33 L1664.46 1272.33  Z" fill="#ff8c00" fill-rule="evenodd" fill-opacity="1"/>
<polyline clip-path="url(#clip042)" style="stroke:#000000; stroke-linecap:round; stroke-linejoin:round; stroke-width:4; stroke-opacity:1; fill:none" points="1664.46,1272.33 1664.46,1391.68 1700.77,1391.68 1700.77,1272.33 1664.46,1272.33 "/>
<path clip-path="url(#clip042)" d="M1700.77 1231.74 L1700.77 1391.68 L1737.08 1391.68 L1737.08 1231.74 L1700.77 1231.74 L1700.77 1231.74  Z" fill="#ff8c00" fill-rule="evenodd" fill-opacity="1"/>
<polyline clip-path="url(#clip042)" style="stroke:#000000; stroke-linecap:round; stroke-linejoin:round; stroke-width:4; stroke-opacity:1; fill:none" points="1700.77,1231.74 1700.77,1391.68 1737.08,1391.68 1737.08,1231.74 1700.77,1231.74 "/>
<path clip-path="url(#clip042)" d="M1737.08 1300.97 L1737.08 1391.68 L1773.38 1391.68 L1773.38 1300.97 L1737.08 1300.97 L1737.08 1300.97  Z" fill="#ff8c00" fill-rule="evenodd" fill-opacity="1"/>
<polyline clip-path="url(#clip042)" style="stroke:#000000; stroke-linecap:round; stroke-linejoin:round; stroke-width:4; stroke-opacity:1; fill:none" points="1737.08,1300.97 1737.08,1391.68 1773.38,1391.68 1773.38,1300.97 1737.08,1300.97 "/>
<path clip-path="url(#clip042)" d="M1773.38 1305.75 L1773.38 1391.68 L1809.69 1391.68 L1809.69 1305.75 L1773.38 1305.75 L1773.38 1305.75  Z" fill="#ff8c00" fill-rule="evenodd" fill-opacity="1"/>
<polyline clip-path="url(#clip042)" style="stroke:#000000; stroke-linecap:round; stroke-linejoin:round; stroke-width:4; stroke-opacity:1; fill:none" points="1773.38,1305.75 1773.38,1391.68 1809.69,1391.68 1809.69,1305.75 1773.38,1305.75 "/>
<path clip-path="url(#clip042)" d="M1809.69 1205.48 L1809.69 1391.68 L1846 1391.68 L1846 1205.48 L1809.69 1205.48 L1809.69 1205.48  Z" fill="#ff8c00" fill-rule="evenodd" fill-opacity="1"/>
<polyline clip-path="url(#clip042)" style="stroke:#000000; stroke-linecap:round; stroke-linejoin:round; stroke-width:4; stroke-opacity:1; fill:none" points="1809.69,1205.48 1809.69,1391.68 1846,1391.68 1846,1205.48 1809.69,1205.48 "/>
<path clip-path="url(#clip042)" d="M1846 1367.81 L1846 1391.68 L1882.31 1391.68 L1882.31 1367.81 L1846 1367.81 L1846 1367.81  Z" fill="#ff8c00" fill-rule="evenodd" fill-opacity="1"/>
<polyline clip-path="url(#clip042)" style="stroke:#000000; stroke-linecap:round; stroke-linejoin:round; stroke-width:4; stroke-opacity:1; fill:none" points="1846,1367.81 1846,1391.68 1882.31,1391.68 1882.31,1367.81 1846,1367.81 "/>
<path clip-path="url(#clip042)" d="M1882.31 1253.23 L1882.31 1391.68 L1918.61 1391.68 L1918.61 1253.23 L1882.31 1253.23 L1882.31 1253.23  Z" fill="#ff8c00" fill-rule="evenodd" fill-opacity="1"/>
<polyline clip-path="url(#clip042)" style="stroke:#000000; stroke-linecap:round; stroke-linejoin:round; stroke-width:4; stroke-opacity:1; fill:none" points="1882.31,1253.23 1882.31,1391.68 1918.61,1391.68 1918.61,1253.23 1882.31,1253.23 "/>
<path clip-path="url(#clip042)" d="M1918.61 1222.19 L1918.61 1391.68 L1954.92 1391.68 L1954.92 1222.19 L1918.61 1222.19 L1918.61 1222.19  Z" fill="#ff8c00" fill-rule="evenodd" fill-opacity="1"/>
<polyline clip-path="url(#clip042)" style="stroke:#000000; stroke-linecap:round; stroke-linejoin:round; stroke-width:4; stroke-opacity:1; fill:none" points="1918.61,1222.19 1918.61,1391.68 1954.92,1391.68 1954.92,1222.19 1918.61,1222.19 "/>
<path clip-path="url(#clip042)" d="M1954.92 1269.94 L1954.92 1391.68 L1991.23 1391.68 L1991.23 1269.94 L1954.92 1269.94 L1954.92 1269.94  Z" fill="#ff8c00" fill-rule="evenodd" fill-opacity="1"/>
<polyline clip-path="url(#clip042)" style="stroke:#000000; stroke-linecap:round; stroke-linejoin:round; stroke-width:4; stroke-opacity:1; fill:none" points="1954.92,1269.94 1954.92,1391.68 1991.23,1391.68 1991.23,1269.94 1954.92,1269.94 "/>
<path clip-path="url(#clip042)" d="M1991.23 1346.33 L1991.23 1391.68 L2027.54 1391.68 L2027.54 1346.33 L1991.23 1346.33 L1991.23 1346.33  Z" fill="#ff8c00" fill-rule="evenodd" fill-opacity="1"/>
<polyline clip-path="url(#clip042)" style="stroke:#000000; stroke-linecap:round; stroke-linejoin:round; stroke-width:4; stroke-opacity:1; fill:none" points="1991.23,1346.33 1991.23,1391.68 2027.54,1391.68 2027.54,1346.33 1991.23,1346.33 "/>
<path clip-path="url(#clip042)" d="M2027.54 1172.06 L2027.54 1391.68 L2063.84 1391.68 L2063.84 1172.06 L2027.54 1172.06 L2027.54 1172.06  Z" fill="#ff8c00" fill-rule="evenodd" fill-opacity="1"/>
<polyline clip-path="url(#clip042)" style="stroke:#000000; stroke-linecap:round; stroke-linejoin:round; stroke-width:4; stroke-opacity:1; fill:none" points="2027.54,1172.06 2027.54,1391.68 2063.84,1391.68 2063.84,1172.06 2027.54,1172.06 "/>
<path clip-path="url(#clip042)" d="M2063.84 1348.71 L2063.84 1391.68 L2100.15 1391.68 L2100.15 1348.71 L2063.84 1348.71 L2063.84 1348.71  Z" fill="#ff8c00" fill-rule="evenodd" fill-opacity="1"/>
<polyline clip-path="url(#clip042)" style="stroke:#000000; stroke-linecap:round; stroke-linejoin:round; stroke-width:4; stroke-opacity:1; fill:none" points="2063.84,1348.71 2063.84,1391.68 2100.15,1391.68 2100.15,1348.71 2063.84,1348.71 "/>
<path clip-path="url(#clip042)" d="M2100.15 1341.55 L2100.15 1391.68 L2136.46 1391.68 L2136.46 1341.55 L2100.15 1341.55 L2100.15 1341.55  Z" fill="#ff8c00" fill-rule="evenodd" fill-opacity="1"/>
<polyline clip-path="url(#clip042)" style="stroke:#000000; stroke-linecap:round; stroke-linejoin:round; stroke-width:4; stroke-opacity:1; fill:none" points="2100.15,1341.55 2100.15,1391.68 2136.46,1391.68 2136.46,1341.55 2100.15,1341.55 "/>
<path clip-path="url(#clip042)" d="M2136.46 1363.04 L2136.46 1391.68 L2172.76 1391.68 L2172.76 1363.04 L2136.46 1363.04 L2136.46 1363.04  Z" fill="#ff8c00" fill-rule="evenodd" fill-opacity="1"/>
<polyline clip-path="url(#clip042)" style="stroke:#000000; stroke-linecap:round; stroke-linejoin:round; stroke-width:4; stroke-opacity:1; fill:none" points="2136.46,1363.04 2136.46,1391.68 2172.76,1391.68 2172.76,1363.04 2136.46,1363.04 "/>
<path clip-path="url(#clip042)" d="M2172.76 1324.84 L2172.76 1391.68 L2209.07 1391.68 L2209.07 1324.84 L2172.76 1324.84 L2172.76 1324.84  Z" fill="#ff8c00" fill-rule="evenodd" fill-opacity="1"/>
<polyline clip-path="url(#clip042)" style="stroke:#000000; stroke-linecap:round; stroke-linejoin:round; stroke-width:4; stroke-opacity:1; fill:none" points="2172.76,1324.84 2172.76,1391.68 2209.07,1391.68 2209.07,1324.84 2172.76,1324.84 "/>
<circle clip-path="url(#clip042)" style="fill:#ff8c00; stroke:none; fill-opacity:0" cx="411.867" cy="1265.16" r="2"/>
<circle clip-path="url(#clip042)" style="fill:#ff8c00; stroke:none; fill-opacity:0" cx="448.174" cy="751.922" r="2"/>
<circle clip-path="url(#clip042)" style="fill:#ff8c00; stroke:none; fill-opacity:0" cx="484.481" cy="331.78" r="2"/>
<circle clip-path="url(#clip042)" style="fill:#ff8c00; stroke:none; fill-opacity:0" cx="520.788" cy="78.7402" r="2"/>
<circle clip-path="url(#clip042)" style="fill:#ff8c00; stroke:none; fill-opacity:0" cx="557.095" cy="284.037" r="2"/>
<circle clip-path="url(#clip042)" style="fill:#ff8c00; stroke:none; fill-opacity:0" cx="593.403" cy="372.362" r="2"/>
<circle clip-path="url(#clip042)" style="fill:#ff8c00; stroke:none; fill-opacity:0" cx="629.71" cy="236.293" r="2"/>
<circle clip-path="url(#clip042)" style="fill:#ff8c00; stroke:none; fill-opacity:0" cx="666.017" cy="704.179" r="2"/>
<circle clip-path="url(#clip042)" style="fill:#ff8c00; stroke:none; fill-opacity:0" cx="702.324" cy="331.78" r="2"/>
<circle clip-path="url(#clip042)" style="fill:#ff8c00; stroke:none; fill-opacity:0" cx="738.631" cy="353.265" r="2"/>
<circle clip-path="url(#clip042)" style="fill:#ff8c00; stroke:none; fill-opacity:0" cx="774.938" cy="279.262" r="2"/>
<circle clip-path="url(#clip042)" style="fill:#ff8c00; stroke:none; fill-opacity:0" cx="811.246" cy="897.54" r="2"/>
<circle clip-path="url(#clip042)" style="fill:#ff8c00; stroke:none; fill-opacity:0" cx="847.553" cy="766.245" r="2"/>
<circle clip-path="url(#clip042)" style="fill:#ff8c00; stroke:none; fill-opacity:0" cx="883.86" cy="546.626" r="2"/>
<circle clip-path="url(#clip042)" style="fill:#ff8c00; stroke:none; fill-opacity:0" cx="920.167" cy="594.369" r="2"/>
<circle clip-path="url(#clip042)" style="fill:#ff8c00; stroke:none; fill-opacity:0" cx="956.474" cy="799.666" r="2"/>
<circle clip-path="url(#clip042)" style="fill:#ff8c00; stroke:none; fill-opacity:0" cx="992.781" cy="959.606" r="2"/>
<circle clip-path="url(#clip042)" style="fill:#ff8c00; stroke:none; fill-opacity:0" cx="1029.09" cy="911.863" r="2"/>
<circle clip-path="url(#clip042)" style="fill:#ff8c00; stroke:none; fill-opacity:0" cx="1065.4" cy="768.632" r="2"/>
<circle clip-path="url(#clip042)" style="fill:#ff8c00; stroke:none; fill-opacity:0" cx="1101.7" cy="1024.06" r="2"/>
<circle clip-path="url(#clip042)" style="fill:#ff8c00; stroke:none; fill-opacity:0" cx="1138.01" cy="973.929" r="2"/>
<circle clip-path="url(#clip042)" style="fill:#ff8c00; stroke:none; fill-opacity:0" cx="1174.32" cy="964.38" r="2"/>
<circle clip-path="url(#clip042)" style="fill:#ff8c00; stroke:none; fill-opacity:0" cx="1210.62" cy="930.96" r="2"/>
<circle clip-path="url(#clip042)" style="fill:#ff8c00; stroke:none; fill-opacity:0" cx="1246.93" cy="704.179" r="2"/>
<circle clip-path="url(#clip042)" style="fill:#ff8c00; stroke:none; fill-opacity:0" cx="1283.24" cy="1069.42" r="2"/>
<circle clip-path="url(#clip042)" style="fill:#ff8c00; stroke:none; fill-opacity:0" cx="1319.55" cy="933.347" r="2"/>
<circle clip-path="url(#clip042)" style="fill:#ff8c00; stroke:none; fill-opacity:0" cx="1355.85" cy="1078.96" r="2"/>
<circle clip-path="url(#clip042)" style="fill:#ff8c00; stroke:none; fill-opacity:0" cx="1392.16" cy="978.703" r="2"/>
<circle clip-path="url(#clip042)" style="fill:#ff8c00; stroke:none; fill-opacity:0" cx="1428.47" cy="1121.93" r="2"/>
<circle clip-path="url(#clip042)" style="fill:#ff8c00; stroke:none; fill-opacity:0" cx="1464.77" cy="1174.45" r="2"/>
<circle clip-path="url(#clip042)" style="fill:#ff8c00; stroke:none; fill-opacity:0" cx="1501.08" cy="1117.16" r="2"/>
<circle clip-path="url(#clip042)" style="fill:#ff8c00; stroke:none; fill-opacity:0" cx="1537.39" cy="1243.68" r="2"/>
<circle clip-path="url(#clip042)" style="fill:#ff8c00; stroke:none; fill-opacity:0" cx="1573.7" cy="1107.61" r="2"/>
<circle clip-path="url(#clip042)" style="fill:#ff8c00; stroke:none; fill-opacity:0" cx="1610" cy="1246.07" r="2"/>
<circle clip-path="url(#clip042)" style="fill:#ff8c00; stroke:none; fill-opacity:0" cx="1646.31" cy="1155.35" r="2"/>
<circle clip-path="url(#clip042)" style="fill:#ff8c00; stroke:none; fill-opacity:0" cx="1682.62" cy="1272.33" r="2"/>
<circle clip-path="url(#clip042)" style="fill:#ff8c00; stroke:none; fill-opacity:0" cx="1718.92" cy="1231.74" r="2"/>
<circle clip-path="url(#clip042)" style="fill:#ff8c00; stroke:none; fill-opacity:0" cx="1755.23" cy="1300.97" r="2"/>
<circle clip-path="url(#clip042)" style="fill:#ff8c00; stroke:none; fill-opacity:0" cx="1791.54" cy="1305.75" r="2"/>
<circle clip-path="url(#clip042)" style="fill:#ff8c00; stroke:none; fill-opacity:0" cx="1827.85" cy="1205.48" r="2"/>
<circle clip-path="url(#clip042)" style="fill:#ff8c00; stroke:none; fill-opacity:0" cx="1864.15" cy="1367.81" r="2"/>
<circle clip-path="url(#clip042)" style="fill:#ff8c00; stroke:none; fill-opacity:0" cx="1900.46" cy="1253.23" r="2"/>
<circle clip-path="url(#clip042)" style="fill:#ff8c00; stroke:none; fill-opacity:0" cx="1936.77" cy="1222.19" r="2"/>
<circle clip-path="url(#clip042)" style="fill:#ff8c00; stroke:none; fill-opacity:0" cx="1973.07" cy="1269.94" r="2"/>
<circle clip-path="url(#clip042)" style="fill:#ff8c00; stroke:none; fill-opacity:0" cx="2009.38" cy="1346.33" r="2"/>
<circle clip-path="url(#clip042)" style="fill:#ff8c00; stroke:none; fill-opacity:0" cx="2045.69" cy="1172.06" r="2"/>
<circle clip-path="url(#clip042)" style="fill:#ff8c00; stroke:none; fill-opacity:0" cx="2082" cy="1348.71" r="2"/>
<circle clip-path="url(#clip042)" style="fill:#ff8c00; stroke:none; fill-opacity:0" cx="2118.3" cy="1341.55" r="2"/>
<circle clip-path="url(#clip042)" style="fill:#ff8c00; stroke:none; fill-opacity:0" cx="2154.61" cy="1363.04" r="2"/>
<circle clip-path="url(#clip042)" style="fill:#ff8c00; stroke:none; fill-opacity:0" cx="2190.92" cy="1324.84" r="2"/>
</svg>
