<?xml version="1.0" encoding="utf-8"?>
<svg xmlns="http://www.w3.org/2000/svg" xmlns:xlink="http://www.w3.org/1999/xlink" width="800" height="300" viewBox="0 0 3200 1200">
<defs>
  <clipPath id="clip920">
    <rect x="0" y="0" width="3200" height="1200"/>
  </clipPath>
</defs>
<path clip-path="url(#clip920)" d="M0 1200 L3200 1200 L3200 0 L0 0  Z" fill="#ffffff" fill-rule="evenodd" fill-opacity="1"/>
<defs>
  <clipPath id="clip921">
    <rect x="640" y="0" width="2241" height="1200"/>
  </clipPath>
</defs>
<path clip-path="url(#clip920)" d="M194.151 1031.59 L3121.26 1031.59 L3121.26 78.7402 L194.151 78.7402  Z" fill="#ffffff" fill-rule="evenodd" fill-opacity="1"/>
<defs>
  <clipPath id="clip922">
    <rect x="194" y="78" width="2928" height="954"/>
  </clipPath>
</defs>
<polyline clip-path="url(#clip922)" style="stroke:#000000; stroke-linecap:round; stroke-linejoin:round; stroke-width:2; stroke-opacity:0.1; fill:none" points="388.567,1031.59 388.567,78.7402 "/>
<polyline clip-path="url(#clip922)" style="stroke:#000000; stroke-linecap:round; stroke-linejoin:round; stroke-width:2; stroke-opacity:0.1; fill:none" points="1253.25,1031.59 1253.25,78.7402 "/>
<polyline clip-path="url(#clip922)" style="stroke:#000000; stroke-linecap:round; stroke-linejoin:round; stroke-width:2; stroke-opacity:0.1; fill:none" points="2090.05,1031.59 2090.05,78.7402 "/>
<polyline clip-path="url(#clip922)" style="stroke:#000000; stroke-linecap:round; stroke-linejoin:round; stroke-width:2; stroke-opacity:0.1; fill:none" points="2954.74,1031.59 2954.74,78.7402 "/>
<polyline clip-path="url(#clip920)" style="stroke:#000000; stroke-linecap:round; stroke-linejoin:round; stroke-width:4; stroke-opacity:1; fill:none" points="194.151,1031.59 3121.26,1031.59 "/>
<polyline clip-path="url(#clip920)" style="stroke:#000000; stroke-linecap:round; stroke-linejoin:round; stroke-width:4; stroke-opacity:1; fill:none" points="388.567,1031.59 388.567,1012.7 "/>
<polyline clip-path="url(#clip920)" style="stroke:#000000; stroke-linecap:round; stroke-linejoin:round; stroke-width:4; stroke-opacity:1; fill:none" points="1253.25,1031.59 1253.25,1012.7 "/>
<polyline clip-path="url(#clip920)" style="stroke:#000000; stroke-linecap:round; stroke-linejoin:round; stroke-width:4; stroke-opacity:1; fill:none" points="2090.05,1031.59 2090.05,1012.7 "/>
<polyline clip-path="url(#clip920)" style="stroke:#000000; stroke-linecap:round; stroke-linejoin:round; stroke-width:4; stroke-opacity:1; fill:none" points="2954.74,1031.59 2954.74,1012.7 "/>
<path clip-path="url(#clip920)" d="M260.361 1096.46 L276.681 1096.46 L276.681 1100.39 L254.736 1100.39 L254.736 1096.46 Q257.398 1093.7 261.982 1089.07 Q266.588 1084.42 267.769 1083.08 Q270.014 1080.56 270.894 1078.82 Q271.796 1077.06 271.796 1075.37 Q271.796 1072.62 269.852 1070.88 Q267.931 1069.14 264.829 1069.14 Q262.63 1069.14 260.176 1069.91 Q257.746 1070.67 254.968 1072.22 L254.968 1067.5 Q257.792 1066.37 260.246 1065.79 Q262.699 1065.21 264.736 1065.21 Q270.107 1065.21 273.301 1067.89 Q276.495 1070.58 276.495 1075.07 Q276.495 1077.2 275.685 1079.12 Q274.898 1081.02 272.792 1083.61 Q272.213 1084.28 269.111 1087.5 Q266.009 1090.69 260.361 1096.46 Z" fill="#000000" fill-rule="nonzero" fill-opacity="1" /><path clip-path="url(#clip920)" d="M296.495 1068.91 Q292.884 1068.91 291.056 1072.48 Q289.25 1076.02 289.25 1083.15 Q289.25 1090.25 291.056 1093.82 Q292.884 1097.36 296.495 1097.36 Q300.13 1097.36 301.935 1093.82 Q303.764 1090.25 303.764 1083.15 Q303.764 1076.02 301.935 1072.48 Q300.13 1068.91 296.495 1068.91 M296.495 1065.21 Q302.306 1065.21 305.361 1069.82 Q308.44 1074.4 308.44 1083.15 Q308.44 1091.88 305.361 1096.48 Q302.306 1101.07 296.495 1101.07 Q290.685 1101.07 287.607 1096.48 Q284.551 1091.88 284.551 1083.15 Q284.551 1074.4 287.607 1069.82 Q290.685 1065.21 296.495 1065.21 Z" fill="#000000" fill-rule="nonzero" fill-opacity="1" /><path clip-path="url(#clip920)" d="M320.685 1096.46 L337.004 1096.46 L337.004 1100.39 L315.06 1100.39 L315.06 1096.46 Q317.722 1093.7 322.305 1089.07 Q326.912 1084.42 328.092 1083.08 Q330.338 1080.56 331.217 1078.82 Q332.12 1077.06 332.12 1075.37 Q332.12 1072.62 330.176 1070.88 Q328.254 1069.14 325.153 1069.14 Q322.954 1069.14 320.5 1069.91 Q318.069 1070.67 315.292 1072.22 L315.292 1067.5 Q318.116 1066.37 320.569 1065.79 Q323.023 1065.21 325.06 1065.21 Q330.43 1065.21 333.625 1067.89 Q336.819 1070.58 336.819 1075.07 Q336.819 1077.2 336.009 1079.12 Q335.222 1081.02 333.116 1083.61 Q332.537 1084.28 329.435 1087.5 Q326.333 1090.69 320.685 1096.46 Z" fill="#000000" fill-rule="nonzero" fill-opacity="1" /><path clip-path="url(#clip920)" d="M356.819 1068.91 Q353.208 1068.91 351.379 1072.48 Q349.574 1076.02 349.574 1083.15 Q349.574 1090.25 351.379 1093.82 Q353.208 1097.36 356.819 1097.36 Q360.453 1097.36 362.259 1093.82 Q364.088 1090.25 364.088 1083.15 Q364.088 1076.02 362.259 1072.48 Q360.453 1068.91 356.819 1068.91 M356.819 1065.21 Q362.629 1065.21 365.685 1069.82 Q368.763 1074.4 368.763 1083.15 Q368.763 1091.88 365.685 1096.48 Q362.629 1101.07 356.819 1101.07 Q351.009 1101.07 347.93 1096.48 Q344.875 1091.88 344.875 1083.15 Q344.875 1074.4 347.93 1069.82 Q351.009 1065.21 356.819 1065.21 Z" fill="#000000" fill-rule="nonzero" fill-opacity="1" /><path clip-path="url(#clip920)" d="M374.226 1085.51 L386.703 1085.51 L386.703 1089.31 L374.226 1089.31 L374.226 1085.51 Z" fill="#000000" fill-rule="nonzero" fill-opacity="1" /><path clip-path="url(#clip920)" d="M404.087 1068.91 Q400.476 1068.91 398.648 1072.48 Q396.842 1076.02 396.842 1083.15 Q396.842 1090.25 398.648 1093.82 Q400.476 1097.36 404.087 1097.36 Q407.722 1097.36 409.527 1093.82 Q411.356 1090.25 411.356 1083.15 Q411.356 1076.02 409.527 1072.48 Q407.722 1068.91 404.087 1068.91 M404.087 1065.21 Q409.898 1065.21 412.953 1069.82 Q416.032 1074.4 416.032 1083.15 Q416.032 1091.88 412.953 1096.48 Q409.898 1101.07 404.087 1101.07 Q398.277 1101.07 395.199 1096.48 Q392.143 1091.88 392.143 1083.15 Q392.143 1074.4 395.199 1069.82 Q398.277 1065.21 404.087 1065.21 Z" fill="#000000" fill-rule="nonzero" fill-opacity="1" /><path clip-path="url(#clip920)" d="M438.416 1081.76 Q441.772 1082.48 443.647 1084.75 Q445.545 1087.01 445.545 1090.35 Q445.545 1095.46 442.027 1098.26 Q438.508 1101.07 432.027 1101.07 Q429.851 1101.07 427.536 1100.63 Q425.245 1100.21 422.791 1099.35 L422.791 1094.84 Q424.735 1095.97 427.05 1096.55 Q429.365 1097.13 431.888 1097.13 Q436.286 1097.13 438.578 1095.39 Q440.893 1093.66 440.893 1090.35 Q440.893 1087.29 438.74 1085.58 Q436.61 1083.84 432.791 1083.84 L428.763 1083.84 L428.763 1080 L432.976 1080 Q436.425 1080 438.254 1078.63 Q440.083 1077.25 440.083 1074.65 Q440.083 1071.99 438.184 1070.58 Q436.309 1069.14 432.791 1069.14 Q430.87 1069.14 428.671 1069.56 Q426.472 1069.98 423.833 1070.86 L423.833 1066.69 Q426.495 1065.95 428.809 1065.58 Q431.147 1065.21 433.208 1065.21 Q438.532 1065.21 441.633 1067.64 Q444.735 1070.05 444.735 1074.17 Q444.735 1077.04 443.092 1079.03 Q441.448 1081 438.416 1081.76 Z" fill="#000000" fill-rule="nonzero" fill-opacity="1" /><path clip-path="url(#clip920)" d="M451.657 1085.51 L464.133 1085.51 L464.133 1089.31 L451.657 1089.31 L451.657 1085.51 Z" fill="#000000" fill-rule="nonzero" fill-opacity="1" /><path clip-path="url(#clip920)" d="M481.518 1068.91 Q477.906 1068.91 476.078 1072.48 Q474.272 1076.02 474.272 1083.15 Q474.272 1090.25 476.078 1093.82 Q477.906 1097.36 481.518 1097.36 Q485.152 1097.36 486.957 1093.82 Q488.786 1090.25 488.786 1083.15 Q488.786 1076.02 486.957 1072.48 Q485.152 1068.91 481.518 1068.91 M481.518 1065.21 Q487.328 1065.21 490.383 1069.82 Q493.462 1074.4 493.462 1083.15 Q493.462 1091.88 490.383 1096.48 Q487.328 1101.07 481.518 1101.07 Q475.707 1101.07 472.629 1096.48 Q469.573 1091.88 469.573 1083.15 Q469.573 1074.4 472.629 1069.82 Q475.707 1065.21 481.518 1065.21 Z" fill="#000000" fill-rule="nonzero" fill-opacity="1" /><path clip-path="url(#clip920)" d="M502.49 1096.46 L510.128 1096.46 L510.128 1070.09 L501.818 1071.76 L501.818 1067.5 L510.082 1065.83 L514.758 1065.83 L514.758 1096.46 L522.397 1096.46 L522.397 1100.39 L502.49 1100.39 L502.49 1096.46 Z" fill="#000000" fill-rule="nonzero" fill-opacity="1" /><path clip-path="url(#clip920)" d="M1125.05 1096.46 L1141.37 1096.46 L1141.37 1100.39 L1119.42 1100.39 L1119.42 1096.46 Q1122.09 1093.7 1126.67 1089.07 Q1131.28 1084.42 1132.46 1083.08 Q1134.7 1080.56 1135.58 1078.82 Q1136.48 1077.06 1136.48 1075.37 Q1136.48 1072.62 1134.54 1070.88 Q1132.62 1069.14 1129.52 1069.14 Q1127.32 1069.14 1124.86 1069.91 Q1122.43 1070.67 1119.66 1072.22 L1119.66 1067.5 Q1122.48 1066.37 1124.93 1065.79 Q1127.39 1065.21 1129.42 1065.21 Q1134.79 1065.21 1137.99 1067.89 Q1141.18 1070.58 1141.18 1075.07 Q1141.18 1077.2 1140.37 1079.12 Q1139.59 1081.02 1137.48 1083.61 Q1136.9 1084.28 1133.8 1087.5 Q1130.7 1090.69 1125.05 1096.46 Z" fill="#000000" fill-rule="nonzero" fill-opacity="1" /><path clip-path="url(#clip920)" d="M1161.18 1068.91 Q1157.57 1068.91 1155.74 1072.48 Q1153.94 1076.02 1153.94 1083.15 Q1153.94 1090.25 1155.74 1093.82 Q1157.57 1097.36 1161.18 1097.36 Q1164.82 1097.36 1166.62 1093.82 Q1168.45 1090.25 1168.45 1083.15 Q1168.45 1076.02 1166.62 1072.48 Q1164.82 1068.91 1161.18 1068.91 M1161.18 1065.21 Q1166.99 1065.21 1170.05 1069.82 Q1173.13 1074.4 1173.13 1083.15 Q1173.13 1091.88 1170.05 1096.48 Q1166.99 1101.07 1161.18 1101.07 Q1155.37 1101.07 1152.29 1096.48 Q1149.24 1091.88 1149.24 1083.15 Q1149.24 1074.4 1152.29 1069.82 Q1155.37 1065.21 1161.18 1065.21 Z" fill="#000000" fill-rule="nonzero" fill-opacity="1" /><path clip-path="url(#clip920)" d="M1185.37 1096.46 L1201.69 1096.46 L1201.69 1100.39 L1179.75 1100.39 L1179.75 1096.46 Q1182.41 1093.7 1186.99 1089.07 Q1191.6 1084.42 1192.78 1083.08 Q1195.03 1080.56 1195.91 1078.82 Q1196.81 1077.06 1196.81 1075.37 Q1196.81 1072.62 1194.86 1070.88 Q1192.94 1069.14 1189.84 1069.14 Q1187.64 1069.14 1185.19 1069.91 Q1182.76 1070.67 1179.98 1072.22 L1179.98 1067.5 Q1182.8 1066.37 1185.26 1065.79 Q1187.71 1065.21 1189.75 1065.21 Q1195.12 1065.21 1198.31 1067.89 Q1201.51 1070.58 1201.51 1075.07 Q1201.51 1077.2 1200.7 1079.12 Q1199.91 1081.02 1197.8 1083.61 Q1197.22 1084.28 1194.12 1087.5 Q1191.02 1090.69 1185.37 1096.46 Z" fill="#000000" fill-rule="nonzero" fill-opacity="1" /><path clip-path="url(#clip920)" d="M1221.51 1068.91 Q1217.9 1068.91 1216.07 1072.48 Q1214.26 1076.02 1214.26 1083.15 Q1214.26 1090.25 1216.07 1093.82 Q1217.9 1097.36 1221.51 1097.36 Q1225.14 1097.36 1226.95 1093.82 Q1228.78 1090.25 1228.78 1083.15 Q1228.78 1076.02 1226.95 1072.48 Q1225.14 1068.91 1221.51 1068.91 M1221.51 1065.21 Q1227.32 1065.21 1230.37 1069.82 Q1233.45 1074.4 1233.45 1083.15 Q1233.45 1091.88 1230.37 1096.48 Q1227.32 1101.07 1221.51 1101.07 Q1215.7 1101.07 1212.62 1096.48 Q1209.56 1091.88 1209.56 1083.15 Q1209.56 1074.4 1212.62 1069.82 Q1215.7 1065.21 1221.51 1065.21 Z" fill="#000000" fill-rule="nonzero" fill-opacity="1" /><path clip-path="url(#clip920)" d="M1238.91 1085.51 L1251.39 1085.51 L1251.39 1089.31 L1238.91 1089.31 L1238.91 1085.51 Z" fill="#000000" fill-rule="nonzero" fill-opacity="1" /><path clip-path="url(#clip920)" d="M1268.78 1068.91 Q1265.16 1068.91 1263.34 1072.48 Q1261.53 1076.02 1261.53 1083.15 Q1261.53 1090.25 1263.34 1093.82 Q1265.16 1097.36 1268.78 1097.36 Q1272.41 1097.36 1274.22 1093.82 Q1276.04 1090.25 1276.04 1083.15 Q1276.04 1076.02 1274.22 1072.48 Q1272.41 1068.91 1268.78 1068.91 M1268.78 1065.21 Q1274.59 1065.21 1277.64 1069.82 Q1280.72 1074.4 1280.72 1083.15 Q1280.72 1091.88 1277.64 1096.48 Q1274.59 1101.07 1268.78 1101.07 Q1262.97 1101.07 1259.89 1096.48 Q1256.83 1091.88 1256.83 1083.15 Q1256.83 1074.4 1259.89 1069.82 Q1262.97 1065.21 1268.78 1065.21 Z" fill="#000000" fill-rule="nonzero" fill-opacity="1" /><path clip-path="url(#clip920)" d="M1301.78 1069.91 L1289.98 1088.36 L1301.78 1088.36 L1301.78 1069.91 M1300.56 1065.83 L1306.44 1065.83 L1306.44 1088.36 L1311.37 1088.36 L1311.37 1092.25 L1306.44 1092.25 L1306.44 1100.39 L1301.78 1100.39 L1301.78 1092.25 L1286.18 1092.25 L1286.18 1087.73 L1300.56 1065.83 Z" fill="#000000" fill-rule="nonzero" fill-opacity="1" /><path clip-path="url(#clip920)" d="M1316.34 1085.51 L1328.82 1085.51 L1328.82 1089.31 L1316.34 1089.31 L1316.34 1085.51 Z" fill="#000000" fill-rule="nonzero" fill-opacity="1" /><path clip-path="url(#clip920)" d="M1346.21 1068.91 Q1342.59 1068.91 1340.77 1072.48 Q1338.96 1076.02 1338.96 1083.15 Q1338.96 1090.25 1340.77 1093.82 Q1342.59 1097.36 1346.21 1097.36 Q1349.84 1097.36 1351.65 1093.82 Q1353.47 1090.25 1353.47 1083.15 Q1353.47 1076.02 1351.65 1072.48 Q1349.84 1068.91 1346.21 1068.91 M1346.21 1065.21 Q1352.02 1065.21 1355.07 1069.82 Q1358.15 1074.4 1358.15 1083.15 Q1358.15 1091.88 1355.07 1096.48 Q1352.02 1101.07 1346.21 1101.07 Q1340.4 1101.07 1337.32 1096.48 Q1334.26 1091.88 1334.26 1083.15 Q1334.26 1074.4 1337.32 1069.82 Q1340.4 1065.21 1346.21 1065.21 Z" fill="#000000" fill-rule="nonzero" fill-opacity="1" /><path clip-path="url(#clip920)" d="M1367.18 1096.46 L1374.82 1096.46 L1374.82 1070.09 L1366.51 1071.76 L1366.51 1067.5 L1374.77 1065.83 L1379.45 1065.83 L1379.45 1096.46 L1387.08 1096.46 L1387.08 1100.39 L1367.18 1100.39 L1367.18 1096.46 Z" fill="#000000" fill-rule="nonzero" fill-opacity="1" /><path clip-path="url(#clip920)" d="M1961.84 1096.46 L1978.16 1096.46 L1978.16 1100.39 L1956.22 1100.39 L1956.22 1096.46 Q1958.88 1093.7 1963.46 1089.07 Q1968.07 1084.42 1969.25 1083.08 Q1971.5 1080.56 1972.38 1078.82 Q1973.28 1077.06 1973.28 1075.37 Q1973.28 1072.62 1971.33 1070.88 Q1969.41 1069.14 1966.31 1069.14 Q1964.11 1069.14 1961.66 1069.91 Q1959.23 1070.67 1956.45 1072.22 L1956.45 1067.5 Q1959.27 1066.37 1961.73 1065.79 Q1964.18 1065.21 1966.22 1065.21 Q1971.59 1065.21 1974.78 1067.89 Q1977.98 1070.58 1977.98 1075.07 Q1977.98 1077.2 1977.17 1079.12 Q1976.38 1081.02 1974.27 1083.61 Q1973.7 1084.28 1970.59 1087.5 Q1967.49 1090.69 1961.84 1096.46 Z" fill="#000000" fill-rule="nonzero" fill-opacity="1" /><path clip-path="url(#clip920)" d="M1997.98 1068.91 Q1994.37 1068.91 1992.54 1072.48 Q1990.73 1076.02 1990.73 1083.15 Q1990.73 1090.25 1992.54 1093.82 Q1994.37 1097.36 1997.98 1097.36 Q2001.61 1097.36 2003.42 1093.82 Q2005.25 1090.25 2005.25 1083.15 Q2005.25 1076.02 2003.42 1072.48 Q2001.61 1068.91 1997.98 1068.91 M1997.98 1065.21 Q2003.79 1065.21 2006.84 1069.82 Q2009.92 1074.4 2009.92 1083.15 Q2009.92 1091.88 2006.84 1096.48 Q2003.79 1101.07 1997.98 1101.07 Q1992.17 1101.07 1989.09 1096.48 Q1986.03 1091.88 1986.03 1083.15 Q1986.03 1074.4 1989.09 1069.82 Q1992.17 1065.21 1997.98 1065.21 Z" fill="#000000" fill-rule="nonzero" fill-opacity="1" /><path clip-path="url(#clip920)" d="M2022.17 1096.46 L2038.49 1096.46 L2038.49 1100.39 L2016.54 1100.39 L2016.54 1096.46 Q2019.21 1093.7 2023.79 1089.07 Q2028.39 1084.42 2029.58 1083.08 Q2031.82 1080.56 2032.7 1078.82 Q2033.6 1077.06 2033.6 1075.37 Q2033.6 1072.62 2031.66 1070.88 Q2029.74 1069.14 2026.64 1069.14 Q2024.44 1069.14 2021.98 1069.91 Q2019.55 1070.67 2016.77 1072.22 L2016.77 1067.5 Q2019.6 1066.37 2022.05 1065.79 Q2024.51 1065.21 2026.54 1065.21 Q2031.91 1065.21 2035.11 1067.89 Q2038.3 1070.58 2038.3 1075.07 Q2038.3 1077.2 2037.49 1079.12 Q2036.7 1081.02 2034.6 1083.61 Q2034.02 1084.28 2030.92 1087.5 Q2027.82 1090.69 2022.17 1096.46 Z" fill="#000000" fill-rule="nonzero" fill-opacity="1" /><path clip-path="url(#clip920)" d="M2058.3 1068.91 Q2054.69 1068.91 2052.86 1072.48 Q2051.06 1076.02 2051.06 1083.15 Q2051.06 1090.25 2052.86 1093.82 Q2054.69 1097.36 2058.3 1097.36 Q2061.94 1097.36 2063.74 1093.82 Q2065.57 1090.25 2065.57 1083.15 Q2065.57 1076.02 2063.74 1072.48 Q2061.94 1068.91 2058.3 1068.91 M2058.3 1065.21 Q2064.11 1065.21 2067.17 1069.82 Q2070.25 1074.4 2070.25 1083.15 Q2070.25 1091.88 2067.17 1096.48 Q2064.11 1101.07 2058.3 1101.07 Q2052.49 1101.07 2049.41 1096.48 Q2046.36 1091.88 2046.36 1083.15 Q2046.36 1074.4 2049.41 1069.82 Q2052.49 1065.21 2058.3 1065.21 Z" fill="#000000" fill-rule="nonzero" fill-opacity="1" /><path clip-path="url(#clip920)" d="M2075.71 1085.51 L2088.19 1085.51 L2088.19 1089.31 L2075.71 1089.31 L2075.71 1085.51 Z" fill="#000000" fill-rule="nonzero" fill-opacity="1" /><path clip-path="url(#clip920)" d="M2105.57 1068.91 Q2101.96 1068.91 2100.13 1072.48 Q2098.33 1076.02 2098.33 1083.15 Q2098.33 1090.25 2100.13 1093.82 Q2101.96 1097.36 2105.57 1097.36 Q2109.2 1097.36 2111.01 1093.82 Q2112.84 1090.25 2112.84 1083.15 Q2112.84 1076.02 2111.01 1072.48 Q2109.2 1068.91 2105.57 1068.91 M2105.57 1065.21 Q2111.38 1065.21 2114.44 1069.82 Q2117.51 1074.4 2117.51 1083.15 Q2117.51 1091.88 2114.44 1096.48 Q2111.38 1101.07 2105.57 1101.07 Q2099.76 1101.07 2096.68 1096.48 Q2093.63 1091.88 2093.63 1083.15 Q2093.63 1074.4 2096.68 1069.82 Q2099.76 1065.21 2105.57 1065.21 Z" fill="#000000" fill-rule="nonzero" fill-opacity="1" /><path clip-path="url(#clip920)" d="M2125.78 1065.83 L2144.13 1065.83 L2144.13 1069.77 L2130.06 1069.77 L2130.06 1078.24 Q2131.08 1077.89 2132.1 1077.73 Q2133.12 1077.55 2134.14 1077.55 Q2139.92 1077.55 2143.3 1080.72 Q2146.68 1083.89 2146.68 1089.31 Q2146.68 1094.88 2143.21 1097.99 Q2139.74 1101.07 2133.42 1101.07 Q2131.24 1101.07 2128.97 1100.69 Q2126.73 1100.32 2124.32 1099.58 L2124.32 1094.88 Q2126.4 1096.02 2128.63 1096.57 Q2130.85 1097.13 2133.32 1097.13 Q2137.33 1097.13 2139.67 1095.02 Q2142.01 1092.92 2142.01 1089.31 Q2142.01 1085.69 2139.67 1083.59 Q2137.33 1081.48 2133.32 1081.48 Q2131.45 1081.48 2129.57 1081.9 Q2127.72 1082.32 2125.78 1083.19 L2125.78 1065.83 Z" fill="#000000" fill-rule="nonzero" fill-opacity="1" /><path clip-path="url(#clip920)" d="M2153.14 1085.51 L2165.62 1085.51 L2165.62 1089.31 L2153.14 1089.31 L2153.14 1085.51 Z" fill="#000000" fill-rule="nonzero" fill-opacity="1" /><path clip-path="url(#clip920)" d="M2183 1068.91 Q2179.39 1068.91 2177.56 1072.48 Q2175.76 1076.02 2175.76 1083.15 Q2175.76 1090.25 2177.56 1093.82 Q2179.39 1097.36 2183 1097.36 Q2186.63 1097.36 2188.44 1093.82 Q2190.27 1090.25 2190.27 1083.15 Q2190.27 1076.02 2188.44 1072.48 Q2186.63 1068.91 2183 1068.91 M2183 1065.21 Q2188.81 1065.21 2191.87 1069.82 Q2194.94 1074.4 2194.94 1083.15 Q2194.94 1091.88 2191.87 1096.48 Q2188.81 1101.07 2183 1101.07 Q2177.19 1101.07 2174.11 1096.48 Q2171.06 1091.88 2171.06 1083.15 Q2171.06 1074.4 2174.11 1069.82 Q2177.19 1065.21 2183 1065.21 Z" fill="#000000" fill-rule="nonzero" fill-opacity="1" /><path clip-path="url(#clip920)" d="M2203.97 1096.46 L2211.61 1096.46 L2211.61 1070.09 L2203.3 1071.76 L2203.3 1067.5 L2211.57 1065.83 L2216.24 1065.83 L2216.24 1096.46 L2223.88 1096.46 L2223.88 1100.39 L2203.97 1100.39 L2203.97 1096.46 Z" fill="#000000" fill-rule="nonzero" fill-opacity="1" /><path clip-path="url(#clip920)" d="M2826.53 1096.46 L2842.85 1096.46 L2842.85 1100.39 L2820.91 1100.39 L2820.91 1096.46 Q2823.57 1093.7 2828.15 1089.07 Q2832.76 1084.42 2833.94 1083.08 Q2836.19 1080.56 2837.06 1078.82 Q2837.97 1077.06 2837.97 1075.37 Q2837.97 1072.62 2836.02 1070.88 Q2834.1 1069.14 2831 1069.14 Q2828.8 1069.14 2826.35 1069.91 Q2823.92 1070.67 2821.14 1072.22 L2821.14 1067.5 Q2823.96 1066.37 2826.42 1065.79 Q2828.87 1065.21 2830.91 1065.21 Q2836.28 1065.21 2839.47 1067.89 Q2842.67 1070.58 2842.67 1075.07 Q2842.67 1077.2 2841.86 1079.12 Q2841.07 1081.02 2838.96 1083.61 Q2838.38 1084.28 2835.28 1087.5 Q2832.18 1090.69 2826.53 1096.46 Z" fill="#000000" fill-rule="nonzero" fill-opacity="1" /><path clip-path="url(#clip920)" d="M2862.67 1068.91 Q2859.06 1068.91 2857.23 1072.48 Q2855.42 1076.02 2855.42 1083.15 Q2855.42 1090.25 2857.23 1093.82 Q2859.06 1097.36 2862.67 1097.36 Q2866.3 1097.36 2868.11 1093.82 Q2869.93 1090.25 2869.93 1083.15 Q2869.93 1076.02 2868.11 1072.48 Q2866.3 1068.91 2862.67 1068.91 M2862.67 1065.21 Q2868.48 1065.21 2871.53 1069.82 Q2874.61 1074.4 2874.61 1083.15 Q2874.61 1091.88 2871.53 1096.48 Q2868.48 1101.07 2862.67 1101.07 Q2856.86 1101.07 2853.78 1096.48 Q2850.72 1091.88 2850.72 1083.15 Q2850.72 1074.4 2853.78 1069.82 Q2856.86 1065.21 2862.67 1065.21 Z" fill="#000000" fill-rule="nonzero" fill-opacity="1" /><path clip-path="url(#clip920)" d="M2886.86 1096.46 L2903.18 1096.46 L2903.18 1100.39 L2881.23 1100.39 L2881.23 1096.46 Q2883.89 1093.7 2888.48 1089.07 Q2893.08 1084.42 2894.26 1083.08 Q2896.51 1080.56 2897.39 1078.82 Q2898.29 1077.06 2898.29 1075.37 Q2898.29 1072.62 2896.35 1070.88 Q2894.43 1069.14 2891.32 1069.14 Q2889.12 1069.14 2886.67 1069.91 Q2884.24 1070.67 2881.46 1072.22 L2881.46 1067.5 Q2884.29 1066.37 2886.74 1065.79 Q2889.19 1065.21 2891.23 1065.21 Q2896.6 1065.21 2899.8 1067.89 Q2902.99 1070.58 2902.99 1075.07 Q2902.99 1077.2 2902.18 1079.12 Q2901.39 1081.02 2899.29 1083.61 Q2898.71 1084.28 2895.61 1087.5 Q2892.5 1090.69 2886.86 1096.46 Z" fill="#000000" fill-rule="nonzero" fill-opacity="1" /><path clip-path="url(#clip920)" d="M2922.99 1068.91 Q2919.38 1068.91 2917.55 1072.48 Q2915.74 1076.02 2915.74 1083.15 Q2915.74 1090.25 2917.55 1093.82 Q2919.38 1097.36 2922.99 1097.36 Q2926.62 1097.36 2928.43 1093.82 Q2930.26 1090.25 2930.26 1083.15 Q2930.26 1076.02 2928.43 1072.48 Q2926.62 1068.91 2922.99 1068.91 M2922.99 1065.21 Q2928.8 1065.21 2931.86 1069.82 Q2934.93 1074.4 2934.93 1083.15 Q2934.93 1091.88 2931.86 1096.48 Q2928.8 1101.07 2922.99 1101.07 Q2917.18 1101.07 2914.1 1096.48 Q2911.05 1091.88 2911.05 1083.15 Q2911.05 1074.4 2914.1 1069.82 Q2917.18 1065.21 2922.99 1065.21 Z" fill="#000000" fill-rule="nonzero" fill-opacity="1" /><path clip-path="url(#clip920)" d="M2940.4 1085.51 L2952.87 1085.51 L2952.87 1089.31 L2940.4 1089.31 L2940.4 1085.51 Z" fill="#000000" fill-rule="nonzero" fill-opacity="1" /><path clip-path="url(#clip920)" d="M2970.26 1068.91 Q2966.65 1068.91 2964.82 1072.48 Q2963.01 1076.02 2963.01 1083.15 Q2963.01 1090.25 2964.82 1093.82 Q2966.65 1097.36 2970.26 1097.36 Q2973.89 1097.36 2975.7 1093.82 Q2977.53 1090.25 2977.53 1083.15 Q2977.53 1076.02 2975.7 1072.48 Q2973.89 1068.91 2970.26 1068.91 M2970.26 1065.21 Q2976.07 1065.21 2979.12 1069.82 Q2982.2 1074.4 2982.2 1083.15 Q2982.2 1091.88 2979.12 1096.48 Q2976.07 1101.07 2970.26 1101.07 Q2964.45 1101.07 2961.37 1096.48 Q2958.31 1091.88 2958.31 1083.15 Q2958.31 1074.4 2961.37 1069.82 Q2964.45 1065.21 2970.26 1065.21 Z" fill="#000000" fill-rule="nonzero" fill-opacity="1" /><path clip-path="url(#clip920)" d="M3001 1081.25 Q2997.85 1081.25 2996 1083.4 Q2994.17 1085.56 2994.17 1089.31 Q2994.17 1093.03 2996 1095.21 Q2997.85 1097.36 3001 1097.36 Q3004.15 1097.36 3005.98 1095.21 Q3007.83 1093.03 3007.83 1089.31 Q3007.83 1085.56 3005.98 1083.4 Q3004.15 1081.25 3001 1081.25 M3010.28 1066.6 L3010.28 1070.86 Q3008.52 1070.02 3006.72 1069.58 Q3004.93 1069.14 3003.17 1069.14 Q2998.55 1069.14 2996.09 1072.27 Q2993.66 1075.39 2993.31 1081.71 Q2994.68 1079.7 2996.74 1078.63 Q2998.8 1077.55 3001.28 1077.55 Q3006.49 1077.55 3009.49 1080.72 Q3012.53 1083.87 3012.53 1089.31 Q3012.53 1094.63 3009.38 1097.85 Q3006.23 1101.07 3001 1101.07 Q2995 1101.07 2991.83 1096.48 Q2988.66 1091.88 2988.66 1083.15 Q2988.66 1074.95 2992.55 1070.09 Q2996.44 1065.21 3002.99 1065.21 Q3004.75 1065.21 3006.53 1065.56 Q3008.34 1065.9 3010.28 1066.6 Z" fill="#000000" fill-rule="nonzero" fill-opacity="1" /><path clip-path="url(#clip920)" d="M3017.83 1085.51 L3030.3 1085.51 L3030.3 1089.31 L3017.83 1089.31 L3017.83 1085.51 Z" fill="#000000" fill-rule="nonzero" fill-opacity="1" /><path clip-path="url(#clip920)" d="M3047.69 1068.91 Q3044.08 1068.91 3042.25 1072.48 Q3040.44 1076.02 3040.44 1083.15 Q3040.44 1090.25 3042.25 1093.82 Q3044.08 1097.36 3047.69 1097.36 Q3051.32 1097.36 3053.13 1093.82 Q3054.96 1090.25 3054.96 1083.15 Q3054.96 1076.02 3053.13 1072.48 Q3051.32 1068.91 3047.69 1068.91 M3047.69 1065.21 Q3053.5 1065.21 3056.55 1069.82 Q3059.63 1074.4 3059.63 1083.15 Q3059.63 1091.88 3056.55 1096.48 Q3053.5 1101.07 3047.69 1101.07 Q3041.88 1101.07 3038.8 1096.48 Q3035.74 1091.88 3035.74 1083.15 Q3035.74 1074.4 3038.8 1069.82 Q3041.88 1065.21 3047.69 1065.21 Z" fill="#000000" fill-rule="nonzero" fill-opacity="1" /><path clip-path="url(#clip920)" d="M3068.66 1096.46 L3076.3 1096.46 L3076.3 1070.09 L3067.99 1071.76 L3067.99 1067.5 L3076.25 1065.83 L3080.93 1065.83 L3080.93 1096.46 L3088.57 1096.46 L3088.57 1100.39 L3068.66 1100.39 L3068.66 1096.46 Z" fill="#000000" fill-rule="nonzero" fill-opacity="1" /><path clip-path="url(#clip920)" d="M1591.17 1146.22 L1591.17 1183.17 L1598.93 1183.17 Q1608.77 1183.17 1613.32 1178.72 Q1617.9 1174.26 1617.9 1164.65 Q1617.9 1155.1 1613.32 1150.68 Q1608.77 1146.22 1598.93 1146.22 L1591.17 1146.22 M1584.74 1140.94 L1597.95 1140.94 Q1611.76 1140.94 1618.22 1146.7 Q1624.68 1152.43 1624.68 1164.65 Q1624.68 1176.94 1618.19 1182.7 Q1611.7 1188.46 1597.95 1188.46 L1584.74 1188.46 L1584.74 1140.94 Z" fill="#000000" fill-rule="nonzero" fill-opacity="1" /><path clip-path="url(#clip920)" d="M1650.88 1170.54 Q1643.78 1170.54 1641.04 1172.16 Q1638.31 1173.78 1638.31 1177.7 Q1638.31 1180.82 1640.34 1182.66 Q1642.41 1184.48 1645.94 1184.48 Q1650.81 1184.48 1653.74 1181.04 Q1656.7 1177.57 1656.7 1171.84 L1656.7 1170.54 L1650.88 1170.54 M1662.56 1168.12 L1662.56 1188.46 L1656.7 1188.46 L1656.7 1183.05 Q1654.7 1186.29 1651.71 1187.85 Q1648.71 1189.38 1644.39 1189.38 Q1638.91 1189.38 1635.66 1186.33 Q1632.45 1183.24 1632.45 1178.08 Q1632.45 1172.07 1636.46 1169.01 Q1640.5 1165.96 1648.49 1165.96 L1656.7 1165.96 L1656.7 1165.38 Q1656.7 1161.34 1654.03 1159.14 Q1651.39 1156.92 1646.58 1156.92 Q1643.53 1156.92 1640.63 1157.65 Q1637.73 1158.38 1635.06 1159.84 L1635.06 1154.43 Q1638.27 1153.19 1641.3 1152.59 Q1644.32 1151.95 1647.19 1151.95 Q1654.92 1151.95 1658.74 1155.96 Q1662.56 1159.97 1662.56 1168.12 Z" fill="#000000" fill-rule="nonzero" fill-opacity="1" /><path clip-path="url(#clip920)" d="M1680.42 1142.69 L1680.42 1152.81 L1692.48 1152.81 L1692.48 1157.36 L1680.42 1157.36 L1680.42 1176.71 Q1680.42 1181.07 1681.59 1182.31 Q1682.8 1183.56 1686.46 1183.56 L1692.48 1183.56 L1692.48 1188.46 L1686.46 1188.46 Q1679.68 1188.46 1677.11 1185.94 Q1674.53 1183.4 1674.53 1176.71 L1674.53 1157.36 L1670.23 1157.36 L1670.23 1152.81 L1674.53 1152.81 L1674.53 1142.69 L1680.42 1142.69 Z" fill="#000000" fill-rule="nonzero" fill-opacity="1" /><path clip-path="url(#clip920)" d="M1730.67 1169.17 L1730.67 1172.03 L1703.75 1172.03 Q1704.13 1178.08 1707.37 1181.26 Q1710.65 1184.42 1716.48 1184.42 Q1719.85 1184.42 1723 1183.59 Q1726.18 1182.76 1729.3 1181.11 L1729.3 1186.64 Q1726.15 1187.98 1722.84 1188.68 Q1719.53 1189.38 1716.13 1189.38 Q1707.6 1189.38 1702.6 1184.42 Q1697.63 1179.45 1697.63 1170.98 Q1697.63 1162.23 1702.35 1157.11 Q1707.09 1151.95 1715.11 1151.95 Q1722.3 1151.95 1726.47 1156.6 Q1730.67 1161.21 1730.67 1169.17 M1724.82 1167.45 Q1724.75 1162.64 1722.11 1159.78 Q1719.5 1156.92 1715.17 1156.92 Q1710.27 1156.92 1707.31 1159.68 Q1704.38 1162.45 1703.94 1167.48 L1724.82 1167.45 Z" fill="#000000" fill-rule="nonzero" fill-opacity="1" /><polyline clip-path="url(#clip922)" style="stroke:#000000; stroke-linecap:round; stroke-linejoin:round; stroke-width:2; stroke-opacity:0.1; fill:none" points="194.151,1010.96 3121.26,1010.96 "/>
<polyline clip-path="url(#clip922)" style="stroke:#000000; stroke-linecap:round; stroke-linejoin:round; stroke-width:2; stroke-opacity:0.1; fill:none" points="194.151,756.079 3121.26,756.079 "/>
<polyline clip-path="url(#clip922)" style="stroke:#000000; stroke-linecap:round; stroke-linejoin:round; stroke-width:2; stroke-opacity:0.1; fill:none" points="194.151,501.195 3121.26,501.195 "/>
<polyline clip-path="url(#clip922)" style="stroke:#000000; stroke-linecap:round; stroke-linejoin:round; stroke-width:2; stroke-opacity:0.1; fill:none" points="194.151,246.312 3121.26,246.312 "/>
<polyline clip-path="url(#clip920)" style="stroke:#000000; stroke-linecap:round; stroke-linejoin:round; stroke-width:4; stroke-opacity:1; fill:none" points="194.151,1031.59 194.151,78.7402 "/>
<polyline clip-path="url(#clip920)" style="stroke:#000000; stroke-linecap:round; stroke-linejoin:round; stroke-width:4; stroke-opacity:1; fill:none" points="194.151,1010.96 213.049,1010.96 "/>
<polyline clip-path="url(#clip920)" style="stroke:#000000; stroke-linecap:round; stroke-linejoin:round; stroke-width:4; stroke-opacity:1; fill:none" points="194.151,756.079 213.049,756.079 "/>
<polyline clip-path="url(#clip920)" style="stroke:#000000; stroke-linecap:round; stroke-linejoin:round; stroke-width:4; stroke-opacity:1; fill:none" points="194.151,501.195 213.049,501.195 "/>
<polyline clip-path="url(#clip920)" style="stroke:#000000; stroke-linecap:round; stroke-linejoin:round; stroke-width:4; stroke-opacity:1; fill:none" points="194.151,246.312 213.049,246.312 "/>
<path clip-path="url(#clip920)" d="M134.207 996.762 Q130.596 996.762 128.767 1000.33 Q126.962 1003.87 126.962 1011 Q126.962 1018.1 128.767 1021.67 Q130.596 1025.21 134.207 1025.21 Q137.841 1025.21 139.647 1021.67 Q141.475 1018.1 141.475 1011 Q141.475 1003.87 139.647 1000.33 Q137.841 996.762 134.207 996.762 M134.207 993.058 Q140.017 993.058 143.073 997.665 Q146.151 1002.25 146.151 1011 Q146.151 1019.72 143.073 1024.33 Q140.017 1028.91 134.207 1028.91 Q128.397 1028.91 125.318 1024.33 Q122.263 1019.72 122.263 1011 Q122.263 1002.25 125.318 997.665 Q128.397 993.058 134.207 993.058 Z" fill="#000000" fill-rule="nonzero" fill-opacity="1" /><path clip-path="url(#clip920)" d="M129.832 769.424 L146.151 769.424 L146.151 773.359 L124.207 773.359 L124.207 769.424 Q126.869 766.67 131.452 762.04 Q136.059 757.387 137.239 756.045 Q139.485 753.522 140.364 751.785 Q141.267 750.026 141.267 748.336 Q141.267 745.582 139.323 743.846 Q137.401 742.11 134.299 742.11 Q132.1 742.11 129.647 742.873 Q127.216 743.637 124.438 745.188 L124.438 740.466 Q127.262 739.332 129.716 738.753 Q132.17 738.174 134.207 738.174 Q139.577 738.174 142.772 740.86 Q145.966 743.545 145.966 748.035 Q145.966 750.165 145.156 752.086 Q144.369 753.984 142.262 756.577 Q141.684 757.248 138.582 760.466 Q135.48 763.66 129.832 769.424 Z" fill="#000000" fill-rule="nonzero" fill-opacity="1" /><path clip-path="url(#clip920)" d="M136.568 487.99 L124.762 506.439 L136.568 506.439 L136.568 487.99 M135.341 483.915 L141.221 483.915 L141.221 506.439 L146.151 506.439 L146.151 510.327 L141.221 510.327 L141.221 518.475 L136.568 518.475 L136.568 510.327 L120.966 510.327 L120.966 505.814 L135.341 483.915 Z" fill="#000000" fill-rule="nonzero" fill-opacity="1" /><path clip-path="url(#clip920)" d="M134.624 244.448 Q131.475 244.448 129.624 246.601 Q127.795 248.754 127.795 252.504 Q127.795 256.231 129.624 258.406 Q131.475 260.559 134.624 260.559 Q137.772 260.559 139.6 258.406 Q141.452 256.231 141.452 252.504 Q141.452 248.754 139.6 246.601 Q137.772 244.448 134.624 244.448 M143.906 229.795 L143.906 234.055 Q142.147 233.221 140.341 232.782 Q138.559 232.342 136.799 232.342 Q132.17 232.342 129.716 235.467 Q127.286 238.592 126.938 244.911 Q128.304 242.897 130.364 241.832 Q132.424 240.744 134.901 240.744 Q140.11 240.744 143.119 243.916 Q146.151 247.064 146.151 252.504 Q146.151 257.828 143.003 261.045 Q139.855 264.263 134.624 264.263 Q128.628 264.263 125.457 259.68 Q122.286 255.073 122.286 246.346 Q122.286 238.152 126.175 233.291 Q130.063 228.407 136.614 228.407 Q138.374 228.407 140.156 228.754 Q141.961 229.101 143.906 229.795 Z" fill="#000000" fill-rule="nonzero" fill-opacity="1" /><path clip-path="url(#clip920)" d="M36.4302 883.24 Q37.1305 881.171 39.4221 879.229 Q41.7138 877.256 45.7242 875.282 L58.7102 868.758 L58.7102 875.664 L46.5199 881.744 Q41.7456 884.099 40.186 886.327 Q38.6264 888.523 38.6264 892.343 L38.6264 899.345 L58.7102 899.345 L58.7102 905.774 L11.1902 905.774 L11.1902 891.26 Q11.1902 883.112 14.5959 879.102 Q18.0015 875.091 24.8765 875.091 Q29.3643 875.091 32.3244 877.192 Q35.2844 879.261 36.4302 883.24 M16.4738 899.345 L33.3429 899.345 L33.3429 891.26 Q33.3429 886.613 31.2104 884.258 Q29.046 881.871 24.8765 881.871 Q20.707 881.871 18.6063 884.258 Q16.4738 886.613 16.4738 891.26 L16.4738 899.345 Z" fill="#000000" fill-rule="nonzero" fill-opacity="1" /><path clip-path="url(#clip920)" d="M39.4221 833.173 L42.2867 833.173 L42.2867 860.1 Q48.3341 859.718 51.517 856.472 Q54.668 853.193 54.668 847.369 Q54.668 843.995 53.8405 840.844 Q53.0129 837.661 51.3578 834.542 L56.896 834.542 Q58.2328 837.693 58.933 841.003 Q59.6332 844.313 59.6332 847.719 Q59.6332 856.249 54.668 861.246 Q49.7027 866.211 41.2364 866.211 Q32.4835 866.211 27.3591 861.501 Q22.2029 856.758 22.2029 848.737 Q22.2029 841.544 26.8499 837.375 Q31.465 833.173 39.4221 833.173 M37.7034 839.03 Q32.8973 839.093 30.0327 841.735 Q27.1681 844.345 27.1681 848.674 Q27.1681 853.575 29.9372 856.535 Q32.7063 859.464 37.7352 859.909 L37.7034 839.03 Z" fill="#000000" fill-rule="nonzero" fill-opacity="1" /><path clip-path="url(#clip920)" d="M53.363 817.896 L72.2692 817.896 L72.2692 823.784 L23.0623 823.784 L23.0623 817.896 L28.4731 817.896 Q25.2903 816.05 23.7625 813.249 Q22.2029 810.416 22.2029 806.501 Q22.2029 800.008 27.3591 795.966 Q32.5153 791.892 40.9181 791.892 Q49.3208 791.892 54.477 795.966 Q59.6332 800.008 59.6332 806.501 Q59.6332 810.416 58.1055 813.249 Q56.5459 816.05 53.363 817.896 M40.9181 797.971 Q34.4569 797.971 30.7966 800.645 Q27.1045 803.286 27.1045 807.933 Q27.1045 812.58 30.7966 815.254 Q34.4569 817.896 40.9181 817.896 Q47.3793 817.896 51.0714 815.254 Q54.7317 812.58 54.7317 807.933 Q54.7317 803.286 51.0714 800.645 Q47.3793 797.971 40.9181 797.971 Z" fill="#000000" fill-rule="nonzero" fill-opacity="1" /><path clip-path="url(#clip920)" d="M28.5368 761.527 Q27.9639 762.514 27.7092 763.692 Q27.4228 764.837 27.4228 766.238 Q27.4228 771.203 30.6693 773.877 Q33.884 776.519 39.9314 776.519 L58.7102 776.519 L58.7102 782.407 L23.0623 782.407 L23.0623 776.519 L28.6004 776.519 Q25.3539 774.672 23.7943 771.712 Q22.2029 768.752 22.2029 764.519 Q22.2029 763.914 22.2984 763.182 Q22.362 762.45 22.5212 761.559 L28.5368 761.527 Z" fill="#000000" fill-rule="nonzero" fill-opacity="1" /><path clip-path="url(#clip920)" d="M27.1681 743.003 Q27.1681 747.714 30.8603 750.451 Q34.5205 753.188 40.9181 753.188 Q47.3156 753.188 51.0077 750.483 Q54.668 747.746 54.668 743.003 Q54.668 738.324 50.9759 735.587 Q47.2838 732.85 40.9181 732.85 Q34.5842 732.85 30.8921 735.587 Q27.1681 738.324 27.1681 743.003 M22.2029 743.003 Q22.2029 735.364 27.1681 731.004 Q32.1334 726.643 40.9181 726.643 Q49.6709 726.643 54.668 731.004 Q59.6332 735.364 59.6332 743.003 Q59.6332 750.674 54.668 755.034 Q49.6709 759.363 40.9181 759.363 Q32.1334 759.363 27.1681 755.034 Q22.2029 750.674 22.2029 743.003 Z" fill="#000000" fill-rule="nonzero" fill-opacity="1" /><path clip-path="url(#clip920)" d="M28.4731 693.478 L9.18502 693.478 L9.18502 687.621 L58.7102 687.621 L58.7102 693.478 L53.363 693.478 Q56.5459 695.324 58.1055 698.157 Q59.6332 700.958 59.6332 704.904 Q59.6332 711.365 54.477 715.44 Q49.3208 719.482 40.9181 719.482 Q32.5153 719.482 27.3591 715.44 Q22.2029 711.365 22.2029 704.904 Q22.2029 700.958 23.7625 698.157 Q25.2903 695.324 28.4731 693.478 M40.9181 713.434 Q47.3793 713.434 51.0714 710.793 Q54.7317 708.119 54.7317 703.472 Q54.7317 698.825 51.0714 696.151 Q47.3793 693.478 40.9181 693.478 Q34.4569 693.478 30.7966 696.151 Q27.1045 698.825 27.1045 703.472 Q27.1045 708.119 30.7966 710.793 Q34.4569 713.434 40.9181 713.434 Z" fill="#000000" fill-rule="nonzero" fill-opacity="1" /><path clip-path="url(#clip920)" d="M44.642 676.163 L23.0623 676.163 L23.0623 670.307 L44.4192 670.307 Q49.4799 670.307 52.0262 668.333 Q54.5407 666.36 54.5407 662.413 Q54.5407 657.671 51.517 654.934 Q48.4933 652.164 43.2734 652.164 L23.0623 652.164 L23.0623 646.308 L58.7102 646.308 L58.7102 652.164 L53.2357 652.164 Q56.4822 654.297 58.0736 657.13 Q59.6332 659.931 59.6332 663.655 Q59.6332 669.797 55.8138 672.98 Q51.9944 676.163 44.642 676.163 M22.2029 661.427 L22.2029 661.427 Z" fill="#000000" fill-rule="nonzero" fill-opacity="1" /><path clip-path="url(#clip920)" d="M24.4309 608.591 L29.9054 608.591 Q28.5368 611.074 27.8684 613.588 Q27.1681 616.071 27.1681 618.617 Q27.1681 624.314 30.7966 627.465 Q34.3932 630.617 40.9181 630.617 Q47.4429 630.617 51.0714 627.465 Q54.668 624.314 54.668 618.617 Q54.668 616.071 53.9996 613.588 Q53.2994 611.074 51.9307 608.591 L57.3416 608.591 Q58.4874 611.042 59.0603 613.684 Q59.6332 616.294 59.6332 619.254 Q59.6332 627.306 54.5725 632.049 Q49.5118 636.791 40.9181 636.791 Q32.1971 636.791 27.2 632.017 Q22.2029 627.211 22.2029 618.872 Q22.2029 616.166 22.7758 613.588 Q23.3169 611.01 24.4309 608.591 Z" fill="#000000" fill-rule="nonzero" fill-opacity="1" /><path clip-path="url(#clip920)" d="M12.9408 592.613 L23.0623 592.613 L23.0623 580.55 L27.6137 580.55 L27.6137 592.613 L46.9655 592.613 Q51.326 592.613 52.5673 591.436 Q53.8086 590.226 53.8086 586.566 L53.8086 580.55 L58.7102 580.55 L58.7102 586.566 Q58.7102 593.345 56.1958 595.923 Q53.6495 598.502 46.9655 598.502 L27.6137 598.502 L27.6137 602.798 L23.0623 602.798 L23.0623 598.502 L12.9408 598.502 L12.9408 592.613 Z" fill="#000000" fill-rule="nonzero" fill-opacity="1" /><path clip-path="url(#clip920)" d="M23.0623 572.848 L23.0623 566.991 L58.7102 566.991 L58.7102 572.848 L23.0623 572.848 M9.18502 572.848 L9.18502 566.991 L16.6011 566.991 L16.6011 572.848 L9.18502 572.848 Z" fill="#000000" fill-rule="nonzero" fill-opacity="1" /><path clip-path="url(#clip920)" d="M27.1681 540.924 Q27.1681 545.634 30.8603 548.372 Q34.5205 551.109 40.9181 551.109 Q47.3156 551.109 51.0077 548.403 Q54.668 545.666 54.668 540.924 Q54.668 536.245 50.9759 533.508 Q47.2838 530.77 40.9181 530.77 Q34.5842 530.77 30.8921 533.508 Q27.1681 536.245 27.1681 540.924 M22.2029 540.924 Q22.2029 533.285 27.1681 528.924 Q32.1334 524.564 40.9181 524.564 Q49.6709 524.564 54.668 528.924 Q59.6332 533.285 59.6332 540.924 Q59.6332 548.594 54.668 552.955 Q49.6709 557.284 40.9181 557.284 Q32.1334 557.284 27.1681 552.955 Q22.2029 548.594 22.2029 540.924 Z" fill="#000000" fill-rule="nonzero" fill-opacity="1" /><path clip-path="url(#clip920)" d="M37.1941 485.224 L58.7102 485.224 L58.7102 491.08 L37.3851 491.08 Q32.3244 491.08 29.8099 493.054 Q27.2955 495.027 27.2955 498.974 Q27.2955 503.716 30.3192 506.453 Q33.3429 509.191 38.5628 509.191 L58.7102 509.191 L58.7102 515.079 L23.0623 515.079 L23.0623 509.191 L28.6004 509.191 Q25.3857 507.09 23.7943 504.257 Q22.2029 501.393 22.2029 497.669 Q22.2029 491.526 26.0223 488.375 Q29.8099 485.224 37.1941 485.224 Z" fill="#000000" fill-rule="nonzero" fill-opacity="1" /><path clip-path="url(#clip920)" d="M37.1941 423.19 L58.7102 423.19 L58.7102 429.046 L37.3851 429.046 Q32.3244 429.046 29.8099 431.02 Q27.2955 432.993 27.2955 436.94 Q27.2955 441.682 30.3192 444.42 Q33.3429 447.157 38.5628 447.157 L58.7102 447.157 L58.7102 453.045 L23.0623 453.045 L23.0623 447.157 L28.6004 447.157 Q25.3857 445.056 23.7943 442.223 Q22.2029 439.359 22.2029 435.635 Q22.2029 429.492 26.0223 426.341 Q29.8099 423.19 37.1941 423.19 Z" fill="#000000" fill-rule="nonzero" fill-opacity="1" /><path clip-path="url(#clip920)" d="M44.642 412.114 L23.0623 412.114 L23.0623 406.257 L44.4192 406.257 Q49.4799 406.257 52.0262 404.284 Q54.5407 402.31 54.5407 398.364 Q54.5407 393.621 51.517 390.884 Q48.4933 388.115 43.2734 388.115 L23.0623 388.115 L23.0623 382.258 L58.7102 382.258 L58.7102 388.115 L53.2357 388.115 Q56.4822 390.247 58.0736 393.08 Q59.6332 395.881 59.6332 399.605 Q59.6332 405.748 55.8138 408.931 Q51.9944 412.114 44.642 412.114 M22.2029 397.377 L22.2029 397.377 Z" fill="#000000" fill-rule="nonzero" fill-opacity="1" /><path clip-path="url(#clip920)" d="M29.9054 342.441 Q25.9587 340.245 24.0808 337.189 Q22.2029 334.134 22.2029 329.996 Q22.2029 324.426 26.1178 321.402 Q30.0009 318.379 37.1941 318.379 L58.7102 318.379 L58.7102 324.267 L37.3851 324.267 Q32.2607 324.267 29.7781 326.081 Q27.2955 327.895 27.2955 331.619 Q27.2955 336.171 30.3192 338.813 Q33.3429 341.454 38.5628 341.454 L58.7102 341.454 L58.7102 347.343 L37.3851 347.343 Q32.2289 347.343 29.7781 349.157 Q27.2955 350.971 27.2955 354.759 Q27.2955 359.246 30.351 361.888 Q33.3747 364.53 38.5628 364.53 L58.7102 364.53 L58.7102 370.418 L23.0623 370.418 L23.0623 364.53 L28.6004 364.53 Q25.3221 362.525 23.7625 359.724 Q22.2029 356.923 22.2029 353.072 Q22.2029 349.189 24.1763 346.483 Q26.1496 343.746 29.9054 342.441 Z" fill="#000000" fill-rule="nonzero" fill-opacity="1" /><path clip-path="url(#clip920)" d="M40.9181 281.107 Q34.4569 281.107 30.7966 283.781 Q27.1045 286.423 27.1045 291.07 Q27.1045 295.717 30.7966 298.39 Q34.4569 301.032 40.9181 301.032 Q47.3793 301.032 51.0714 298.39 Q54.7317 295.717 54.7317 291.07 Q54.7317 286.423 51.0714 283.781 Q47.3793 281.107 40.9181 281.107 M28.4731 301.032 Q25.2903 299.186 23.7625 296.385 Q22.2029 293.552 22.2029 289.637 Q22.2029 283.144 27.3591 279.102 Q32.5153 275.028 40.9181 275.028 Q49.3208 275.028 54.477 279.102 Q59.6332 283.144 59.6332 289.637 Q59.6332 293.552 58.1055 296.385 Q56.5459 299.186 53.363 301.032 L58.7102 301.032 L58.7102 306.92 L9.18502 306.92 L9.18502 301.032 L28.4731 301.032 Z" fill="#000000" fill-rule="nonzero" fill-opacity="1" /><path clip-path="url(#clip920)" d="M39.4221 234.829 L42.2867 234.829 L42.2867 261.756 Q48.3341 261.374 51.517 258.127 Q54.668 254.849 54.668 249.024 Q54.668 245.65 53.8405 242.499 Q53.0129 239.317 51.3578 236.197 L56.896 236.197 Q58.2328 239.348 58.933 242.659 Q59.6332 245.969 59.6332 249.374 Q59.6332 257.904 54.668 262.901 Q49.7027 267.867 41.2364 267.867 Q32.4835 267.867 27.3591 263.156 Q22.2029 258.414 22.2029 250.393 Q22.2029 243.2 26.8499 239.03 Q31.465 234.829 39.4221 234.829 M37.7034 240.685 Q32.8973 240.749 30.0327 243.391 Q27.1681 246.001 27.1681 250.329 Q27.1681 255.231 29.9372 258.191 Q32.7063 261.119 37.7352 261.565 L37.7034 240.685 Z" fill="#000000" fill-rule="nonzero" fill-opacity="1" /><path clip-path="url(#clip920)" d="M28.5368 204.56 Q27.9639 205.546 27.7092 206.724 Q27.4228 207.87 27.4228 209.27 Q27.4228 214.236 30.6693 216.909 Q33.884 219.551 39.9314 219.551 L58.7102 219.551 L58.7102 225.439 L23.0623 225.439 L23.0623 219.551 L28.6004 219.551 Q25.3539 217.705 23.7943 214.745 Q22.2029 211.785 22.2029 207.552 Q22.2029 206.947 22.2984 206.215 Q22.362 205.483 22.5212 204.592 L28.5368 204.56 Z" fill="#000000" fill-rule="nonzero" fill-opacity="1" /><path clip-path="url(#clip922)" d="M276.994 934.164 L304.887 931.286 L332.78 926.637 L360.673 926.283 L388.567 921.256 L416.46 917.233 L444.353 913.042 L472.246 910.631 L500.139 908.513 L528.032 906.219 L555.926 906.824 L583.819 906.662 L611.712 899.917 L639.605 888.774 L667.498 873.636 L695.391 850.817 L723.285 826.337 L751.178 796.32 L779.071 762.008 L806.964 715.357 L834.857 678.74 L862.75 670.858 L890.644 638.509 L918.537 648.214 L946.43 619.415 L974.323 585.781 L1002.22 624.959 L1030.11 635.41 L1058 653.884 L1085.9 724.724 L1113.79 786.333 L1141.68 832.266 L1169.58 859.762 L1197.47 889.209 L1225.36 882.795 L1253.25 886.359 L1281.15 885.591 L1309.04 895.726 L1336.93 904.113 L1364.83 919.002 L1392.72 937.054 L1420.61 953.353 L1448.51 961.327 L1476.4 959.632 L1504.29 966.232 L1532.19 971.128 L1560.08 975.871 L1587.97 979.503 L1615.87 979.016 L1643.76 979.01 L1671.65 976.682 L1699.55 977.433 L1727.44 979.279 L1755.33 980.534 L1783.22 982.595 L1811.12 982.741 L1839.01 982.03 L1866.9 981.287 L1894.8 980.19 L1922.69 980.253 L1950.58 981.316 L1978.48 981.837 L2006.37 982.831 L2034.26 981.929 L2062.16 981.813 L2090.05 980.822 L2117.94 982.929 L2145.84 983.258 L2173.73 983.286 L2201.62 982.785 L2229.52 981.887 L2257.41 982.24 L2285.3 982.213 L2313.19 983.172 L2341.09 983.969 L2368.98 985.99 L2396.87 987.305 L2424.77 988.114 L2452.66 988.798 L2480.55 989.755 L2508.45 991.441 L2536.34 992.866 L2564.23 993.954 L2592.13 994.997 L2620.02 995.778 L2647.91 996.534 L2675.81 997.242 L2703.7 998.092 L2731.59 999.068 L2759.49 999.87 L2787.38 1000.69 L2815.27 1001.26 L2843.17 1001.83 L2871.06 1002.28 L2898.95 1002.82 L2926.84 1003.26 L2954.74 1003.68 L2982.63 1004.01 L3010.52 1004.34 L3038.42 1004.63 L3038.42 842.73 L3010.52 850.233 L2982.63 858.978 L2954.74 865.137 L2926.84 871.652 L2898.95 877.858 L2871.06 882.446 L2843.17 887.501 L2815.27 891.423 L2787.38 895.208 L2759.49 897.043 L2731.59 898.228 L2703.7 899.328 L2675.81 899.318 L2647.91 904.808 L2620.02 907.708 L2592.13 909.528 L2564.23 911.207 L2536.34 909.778 L2508.45 908.75 L2480.55 907.372 L2452.66 907.685 L2424.77 909.579 L2396.87 908.889 L2368.98 905.082 L2341.09 901.35 L2313.19 901.37 L2285.3 902.562 L2257.41 904.934 L2229.52 907.874 L2201.62 911.033 L2173.73 918.213 L2145.84 920.565 L2117.94 921.089 L2090.05 918.001 L2062.16 919.893 L2034.26 925.262 L2006.37 929.242 L1978.48 928.826 L1950.58 928.618 L1922.69 929.014 L1894.8 930.928 L1866.9 934.7 L1839.01 938.426 L1811.12 941.068 L1783.22 944.464 L1755.33 940.752 L1727.44 939.323 L1699.55 937.866 L1671.65 938.381 L1643.76 942.886 L1615.87 945.088 L1587.97 946.613 L1560.08 940.745 L1532.19 934.866 L1504.29 928.797 L1476.4 918.417 L1448.51 921.358 L1420.61 909.892 L1392.72 886.049 L1364.83 858.177 L1336.93 837.194 L1309.04 825.435 L1281.15 809.808 L1253.25 809.736 L1225.36 802.227 L1197.47 808.45 L1169.58 763.558 L1141.68 715.058 L1113.79 646.357 L1085.9 538.945 L1058 401.158 L1030.11 359.217 L1002.22 304.874 L974.323 200.515 L946.43 226.485 L918.537 257.274 L890.644 190.879 L862.75 219.509 L834.857 166.658 L806.964 205.79 L779.071 312.902 L751.178 360.551 L723.285 412.485 L695.391 461.523 L667.498 525.392 L639.605 553.848 L611.712 557.49 L583.819 566.852 L555.926 547.177 L528.032 536.461 L500.139 501.342 L472.246 453.06 L444.353 421.87 L416.46 397.005 L388.567 360.106 L360.673 336.79 L332.78 308.019 L304.887 227.036 L276.994 105.708  Z" fill="#006400" fill-rule="evenodd" fill-opacity="0.5"/>
<polyline clip-path="url(#clip922)" style="stroke:#006400; stroke-linecap:round; stroke-linejoin:round; stroke-width:4; stroke-opacity:1; fill:none" points="276.994,688.131 304.887,707.544 332.78,720.911 360.673,728.596 388.567,733.725 416.46,733.102 444.353,736.32 472.246,738.158 500.139,745.001 528.032,756.027 555.926,766.259 583.819,770.849 611.712,765.001 639.605,752.681 667.498,730.716 695.391,694.844 723.285,659.718 751.178,620.54 779.071,576.324 806.964,509.687 834.857,464.36 862.75,479.252 890.644,449.878 918.537,477.482 946.43,446.248 974.323,417.233 1002.22,481.377 1030.11,510.696 1058,539.039 1085.9,638.297 1113.79,721.369 1141.68,778.218 1169.58,815.308 1197.47,851.224 1225.36,844.432 1253.25,850.54 1281.15,851.095 1309.04,863.146 1336.93,872.981 1364.83,890.883 1392.72,914.441 1420.61,933.279 1448.51,942.729 1476.4,940.611 1504.29,949.098 1532.19,954.621 1560.08,959.946 1587.97,964.33 1615.87,963.418 1643.76,963.055 1671.65,959.959 1699.55,960.571 1727.44,961.729 1755.33,963.202 1783.22,965.756 1811.12,964.658 1839.01,963.316 1866.9,961.486 1894.8,959.368 1922.69,958.563 1950.58,959.41 1978.48,959.892 2006.37,960.186 2034.26,958.622 2062.16,956.621 2090.05,955.253 2117.94,957.535 2145.84,957.183 2173.73,956.55 2201.62,953.68 2229.52,951.88 2257.41,951.204 2285.3,950.985 2313.19,951.113 2341.09,952.186 2368.98,955.34 2396.87,957.149 2424.77,957.752 2452.66,957.448 2480.55,958.26 2508.45,960.453 2536.34,962.028 2564.23,963.135 2592.13,963.636 2620.02,963.728 2647.91,963.408 2675.81,962.799 2703.7,963.826 2731.59,964.561 2759.49,965.07 2787.38,965.34 2815.27,965.418 2843.17,965.409 2871.06,965.103 2898.95,964.821 2926.84,964.254 2954.74,963.631 2982.63,962.936 3010.52,962.121 3038.42,961.207 "/>
</svg>
