<?xml version="1.0" encoding="utf-8"?>
<svg xmlns="http://www.w3.org/2000/svg" xmlns:xlink="http://www.w3.org/1999/xlink" width="800" height="400" viewBox="0 0 3200 1600">
<defs>
  <clipPath id="clip960">
    <rect x="0" y="0" width="3200" height="1600"/>
  </clipPath>
</defs>
<path clip-path="url(#clip960)" d="M0 1600 L3200 1600 L3200 0 L0 0  Z" fill="#ffffff" fill-rule="evenodd" fill-opacity="1"/>
<defs>
  <clipPath id="clip961">
    <rect x="640" y="0" width="2241" height="1600"/>
  </clipPath>
</defs>
<path clip-path="url(#clip960)" d="M275.075 1412.2 L3121.26 1412.2 L3121.26 78.7402 L275.075 78.7402  Z" fill="#ffffff" fill-rule="evenodd" fill-opacity="1"/>
<defs>
  <clipPath id="clip962">
    <rect x="275" y="78" width="2847" height="1334"/>
  </clipPath>
</defs>
<polyline clip-path="url(#clip962)" style="stroke:#000000; stroke-linecap:round; stroke-linejoin:round; stroke-width:2; stroke-opacity:0.1; fill:none" points="464.115,1412.2 464.115,78.7402 "/>
<polyline clip-path="url(#clip962)" style="stroke:#000000; stroke-linecap:round; stroke-linejoin:round; stroke-width:2; stroke-opacity:0.1; fill:none" points="1304.9,1412.2 1304.9,78.7402 "/>
<polyline clip-path="url(#clip962)" style="stroke:#000000; stroke-linecap:round; stroke-linejoin:round; stroke-width:2; stroke-opacity:0.1; fill:none" points="2118.56,1412.2 2118.56,78.7402 "/>
<polyline clip-path="url(#clip962)" style="stroke:#000000; stroke-linecap:round; stroke-linejoin:round; stroke-width:2; stroke-opacity:0.1; fill:none" points="2959.34,1412.2 2959.34,78.7402 "/>
<polyline clip-path="url(#clip960)" style="stroke:#000000; stroke-linecap:round; stroke-linejoin:round; stroke-width:4; stroke-opacity:1; fill:none" points="275.075,1412.2 3121.26,1412.2 "/>
<polyline clip-path="url(#clip960)" style="stroke:#000000; stroke-linecap:round; stroke-linejoin:round; stroke-width:4; stroke-opacity:1; fill:none" points="464.115,1412.2 464.115,1393.31 "/>
<polyline clip-path="url(#clip960)" style="stroke:#000000; stroke-linecap:round; stroke-linejoin:round; stroke-width:4; stroke-opacity:1; fill:none" points="1304.9,1412.2 1304.9,1393.31 "/>
<polyline clip-path="url(#clip960)" style="stroke:#000000; stroke-linecap:round; stroke-linejoin:round; stroke-width:4; stroke-opacity:1; fill:none" points="2118.56,1412.2 2118.56,1393.31 "/>
<polyline clip-path="url(#clip960)" style="stroke:#000000; stroke-linecap:round; stroke-linejoin:round; stroke-width:4; stroke-opacity:1; fill:none" points="2959.34,1412.2 2959.34,1393.31 "/>
<path clip-path="url(#clip960)" d="M335.91 1477.07 L352.229 1477.07 L352.229 1481 L330.285 1481 L330.285 1477.07 Q332.947 1474.31 337.53 1469.68 Q342.137 1465.03 343.317 1463.69 Q345.563 1461.17 346.442 1459.43 Q347.345 1457.67 347.345 1455.98 Q347.345 1453.23 345.401 1451.49 Q343.479 1449.75 340.378 1449.75 Q338.178 1449.75 335.725 1450.52 Q333.294 1451.28 330.516 1452.83 L330.516 1448.11 Q333.341 1446.98 335.794 1446.4 Q338.248 1445.82 340.285 1445.82 Q345.655 1445.82 348.85 1448.5 Q352.044 1451.19 352.044 1455.68 Q352.044 1457.81 351.234 1459.73 Q350.447 1461.63 348.34 1464.22 Q347.762 1464.89 344.66 1468.11 Q341.558 1471.3 335.91 1477.07 Z" fill="#000000" fill-rule="nonzero" fill-opacity="1" /><path clip-path="url(#clip960)" d="M372.044 1449.52 Q368.433 1449.52 366.604 1453.09 Q364.799 1456.63 364.799 1463.76 Q364.799 1470.86 366.604 1474.43 Q368.433 1477.97 372.044 1477.97 Q375.678 1477.97 377.484 1474.43 Q379.312 1470.86 379.312 1463.76 Q379.312 1456.63 377.484 1453.09 Q375.678 1449.52 372.044 1449.52 M372.044 1445.82 Q377.854 1445.82 380.91 1450.43 Q383.988 1455.01 383.988 1463.76 Q383.988 1472.49 380.91 1477.09 Q377.854 1481.68 372.044 1481.68 Q366.234 1481.68 363.155 1477.09 Q360.1 1472.49 360.1 1463.76 Q360.1 1455.01 363.155 1450.43 Q366.234 1445.82 372.044 1445.82 Z" fill="#000000" fill-rule="nonzero" fill-opacity="1" /><path clip-path="url(#clip960)" d="M396.234 1477.07 L412.553 1477.07 L412.553 1481 L390.609 1481 L390.609 1477.07 Q393.271 1474.31 397.854 1469.68 Q402.461 1465.03 403.641 1463.69 Q405.886 1461.17 406.766 1459.43 Q407.669 1457.67 407.669 1455.98 Q407.669 1453.23 405.724 1451.49 Q403.803 1449.75 400.701 1449.75 Q398.502 1449.75 396.049 1450.52 Q393.618 1451.28 390.84 1452.83 L390.84 1448.11 Q393.664 1446.98 396.118 1446.4 Q398.572 1445.82 400.609 1445.82 Q405.979 1445.82 409.173 1448.5 Q412.368 1451.19 412.368 1455.68 Q412.368 1457.81 411.558 1459.73 Q410.771 1461.63 408.664 1464.22 Q408.085 1464.89 404.984 1468.11 Q401.882 1471.3 396.234 1477.07 Z" fill="#000000" fill-rule="nonzero" fill-opacity="1" /><path clip-path="url(#clip960)" d="M432.368 1449.52 Q428.757 1449.52 426.928 1453.09 Q425.122 1456.63 425.122 1463.76 Q425.122 1470.86 426.928 1474.43 Q428.757 1477.97 432.368 1477.97 Q436.002 1477.97 437.808 1474.43 Q439.636 1470.86 439.636 1463.76 Q439.636 1456.63 437.808 1453.09 Q436.002 1449.52 432.368 1449.52 M432.368 1445.82 Q438.178 1445.82 441.233 1450.43 Q444.312 1455.01 444.312 1463.76 Q444.312 1472.49 441.233 1477.09 Q438.178 1481.68 432.368 1481.68 Q426.558 1481.68 423.479 1477.09 Q420.423 1472.49 420.423 1463.76 Q420.423 1455.01 423.479 1450.43 Q426.558 1445.82 432.368 1445.82 Z" fill="#000000" fill-rule="nonzero" fill-opacity="1" /><path clip-path="url(#clip960)" d="M449.775 1466.12 L462.252 1466.12 L462.252 1469.92 L449.775 1469.92 L449.775 1466.12 Z" fill="#000000" fill-rule="nonzero" fill-opacity="1" /><path clip-path="url(#clip960)" d="M479.636 1449.52 Q476.025 1449.52 474.196 1453.09 Q472.391 1456.63 472.391 1463.76 Q472.391 1470.86 474.196 1474.43 Q476.025 1477.97 479.636 1477.97 Q483.27 1477.97 485.076 1474.43 Q486.905 1470.86 486.905 1463.76 Q486.905 1456.63 485.076 1453.09 Q483.27 1449.52 479.636 1449.52 M479.636 1445.82 Q485.446 1445.82 488.502 1450.43 Q491.58 1455.01 491.58 1463.76 Q491.58 1472.49 488.502 1477.09 Q485.446 1481.68 479.636 1481.68 Q473.826 1481.68 470.747 1477.09 Q467.692 1472.49 467.692 1463.76 Q467.692 1455.01 470.747 1450.43 Q473.826 1445.82 479.636 1445.82 Z" fill="#000000" fill-rule="nonzero" fill-opacity="1" /><path clip-path="url(#clip960)" d="M513.965 1462.37 Q517.321 1463.09 519.196 1465.36 Q521.094 1467.62 521.094 1470.96 Q521.094 1476.07 517.576 1478.87 Q514.057 1481.68 507.576 1481.68 Q505.4 1481.68 503.085 1481.24 Q500.793 1480.82 498.34 1479.96 L498.34 1475.45 Q500.284 1476.58 502.599 1477.16 Q504.914 1477.74 507.437 1477.74 Q511.835 1477.74 514.127 1476 Q516.441 1474.27 516.441 1470.96 Q516.441 1467.9 514.289 1466.19 Q512.159 1464.45 508.34 1464.45 L504.312 1464.45 L504.312 1460.61 L508.525 1460.61 Q511.974 1460.61 513.803 1459.24 Q515.631 1457.86 515.631 1455.26 Q515.631 1452.6 513.733 1451.19 Q511.858 1449.75 508.34 1449.75 Q506.418 1449.75 504.219 1450.17 Q502.02 1450.59 499.381 1451.47 L499.381 1447.3 Q502.043 1446.56 504.358 1446.19 Q506.696 1445.82 508.756 1445.82 Q514.08 1445.82 517.182 1448.25 Q520.284 1450.66 520.284 1454.78 Q520.284 1457.65 518.64 1459.64 Q516.997 1461.61 513.965 1462.37 Z" fill="#000000" fill-rule="nonzero" fill-opacity="1" /><path clip-path="url(#clip960)" d="M527.205 1466.12 L539.682 1466.12 L539.682 1469.92 L527.205 1469.92 L527.205 1466.12 Z" fill="#000000" fill-rule="nonzero" fill-opacity="1" /><path clip-path="url(#clip960)" d="M557.066 1449.52 Q553.455 1449.52 551.626 1453.09 Q549.821 1456.63 549.821 1463.76 Q549.821 1470.86 551.626 1474.43 Q553.455 1477.97 557.066 1477.97 Q560.7 1477.97 562.506 1474.43 Q564.335 1470.86 564.335 1463.76 Q564.335 1456.63 562.506 1453.09 Q560.7 1449.52 557.066 1449.52 M557.066 1445.82 Q562.876 1445.82 565.932 1450.43 Q569.011 1455.01 569.011 1463.76 Q569.011 1472.49 565.932 1477.09 Q562.876 1481.68 557.066 1481.68 Q551.256 1481.68 548.177 1477.09 Q545.122 1472.49 545.122 1463.76 Q545.122 1455.01 548.177 1450.43 Q551.256 1445.82 557.066 1445.82 Z" fill="#000000" fill-rule="nonzero" fill-opacity="1" /><path clip-path="url(#clip960)" d="M578.038 1477.07 L585.677 1477.07 L585.677 1450.7 L577.367 1452.37 L577.367 1448.11 L585.631 1446.44 L590.307 1446.44 L590.307 1477.07 L597.946 1477.07 L597.946 1481 L578.038 1481 L578.038 1477.07 Z" fill="#000000" fill-rule="nonzero" fill-opacity="1" /><path clip-path="url(#clip960)" d="M1176.69 1477.07 L1193.01 1477.07 L1193.01 1481 L1171.07 1481 L1171.07 1477.07 Q1173.73 1474.31 1178.31 1469.68 Q1182.92 1465.03 1184.1 1463.69 Q1186.35 1461.17 1187.22 1459.43 Q1188.13 1457.67 1188.13 1455.98 Q1188.13 1453.23 1186.18 1451.49 Q1184.26 1449.75 1181.16 1449.75 Q1178.96 1449.75 1176.51 1450.52 Q1174.08 1451.28 1171.3 1452.83 L1171.3 1448.11 Q1174.12 1446.98 1176.58 1446.4 Q1179.03 1445.82 1181.07 1445.82 Q1186.44 1445.82 1189.63 1448.5 Q1192.83 1451.19 1192.83 1455.68 Q1192.83 1457.81 1192.02 1459.73 Q1191.23 1461.63 1189.12 1464.22 Q1188.54 1464.89 1185.44 1468.11 Q1182.34 1471.3 1176.69 1477.07 Z" fill="#000000" fill-rule="nonzero" fill-opacity="1" /><path clip-path="url(#clip960)" d="M1212.83 1449.52 Q1209.22 1449.52 1207.39 1453.09 Q1205.58 1456.63 1205.58 1463.76 Q1205.58 1470.86 1207.39 1474.43 Q1209.22 1477.97 1212.83 1477.97 Q1216.46 1477.97 1218.27 1474.43 Q1220.1 1470.86 1220.1 1463.76 Q1220.1 1456.63 1218.27 1453.09 Q1216.46 1449.52 1212.83 1449.52 M1212.83 1445.82 Q1218.64 1445.82 1221.69 1450.43 Q1224.77 1455.01 1224.77 1463.76 Q1224.77 1472.49 1221.69 1477.09 Q1218.64 1481.68 1212.83 1481.68 Q1207.02 1481.68 1203.94 1477.09 Q1200.88 1472.49 1200.88 1463.76 Q1200.88 1455.01 1203.94 1450.43 Q1207.02 1445.82 1212.83 1445.82 Z" fill="#000000" fill-rule="nonzero" fill-opacity="1" /><path clip-path="url(#clip960)" d="M1237.02 1477.07 L1253.34 1477.07 L1253.34 1481 L1231.39 1481 L1231.39 1477.07 Q1234.05 1474.31 1238.64 1469.68 Q1243.24 1465.03 1244.42 1463.69 Q1246.67 1461.17 1247.55 1459.43 Q1248.45 1457.67 1248.45 1455.98 Q1248.45 1453.23 1246.51 1451.49 Q1244.59 1449.75 1241.48 1449.75 Q1239.28 1449.75 1236.83 1450.52 Q1234.4 1451.28 1231.62 1452.83 L1231.62 1448.11 Q1234.45 1446.98 1236.9 1446.4 Q1239.35 1445.82 1241.39 1445.82 Q1246.76 1445.82 1249.96 1448.5 Q1253.15 1451.19 1253.15 1455.68 Q1253.15 1457.81 1252.34 1459.73 Q1251.55 1461.63 1249.45 1464.22 Q1248.87 1464.89 1245.77 1468.11 Q1242.66 1471.3 1237.02 1477.07 Z" fill="#000000" fill-rule="nonzero" fill-opacity="1" /><path clip-path="url(#clip960)" d="M1273.15 1449.52 Q1269.54 1449.52 1267.71 1453.09 Q1265.91 1456.63 1265.91 1463.76 Q1265.91 1470.86 1267.71 1474.43 Q1269.54 1477.97 1273.15 1477.97 Q1276.78 1477.97 1278.59 1474.43 Q1280.42 1470.86 1280.42 1463.76 Q1280.42 1456.63 1278.59 1453.09 Q1276.78 1449.52 1273.15 1449.52 M1273.15 1445.82 Q1278.96 1445.82 1282.02 1450.43 Q1285.09 1455.01 1285.09 1463.76 Q1285.09 1472.49 1282.02 1477.09 Q1278.96 1481.68 1273.15 1481.68 Q1267.34 1481.68 1264.26 1477.09 Q1261.21 1472.49 1261.21 1463.76 Q1261.21 1455.01 1264.26 1450.43 Q1267.34 1445.82 1273.15 1445.82 Z" fill="#000000" fill-rule="nonzero" fill-opacity="1" /><path clip-path="url(#clip960)" d="M1290.56 1466.12 L1303.03 1466.12 L1303.03 1469.92 L1290.56 1469.92 L1290.56 1466.12 Z" fill="#000000" fill-rule="nonzero" fill-opacity="1" /><path clip-path="url(#clip960)" d="M1320.42 1449.52 Q1316.81 1449.52 1314.98 1453.09 Q1313.17 1456.63 1313.17 1463.76 Q1313.17 1470.86 1314.98 1474.43 Q1316.81 1477.97 1320.42 1477.97 Q1324.05 1477.97 1325.86 1474.43 Q1327.69 1470.86 1327.69 1463.76 Q1327.69 1456.63 1325.86 1453.09 Q1324.05 1449.52 1320.42 1449.52 M1320.42 1445.82 Q1326.23 1445.82 1329.28 1450.43 Q1332.36 1455.01 1332.36 1463.76 Q1332.36 1472.49 1329.28 1477.09 Q1326.23 1481.68 1320.42 1481.68 Q1314.61 1481.68 1311.53 1477.09 Q1308.47 1472.49 1308.47 1463.76 Q1308.47 1455.01 1311.53 1450.43 Q1314.61 1445.82 1320.42 1445.82 Z" fill="#000000" fill-rule="nonzero" fill-opacity="1" /><path clip-path="url(#clip960)" d="M1353.43 1450.52 L1341.62 1468.97 L1353.43 1468.97 L1353.43 1450.52 M1352.2 1446.44 L1358.08 1446.44 L1358.08 1468.97 L1363.01 1468.97 L1363.01 1472.86 L1358.08 1472.86 L1358.08 1481 L1353.43 1481 L1353.43 1472.86 L1337.83 1472.86 L1337.83 1468.34 L1352.2 1446.44 Z" fill="#000000" fill-rule="nonzero" fill-opacity="1" /><path clip-path="url(#clip960)" d="M1367.99 1466.12 L1380.46 1466.12 L1380.46 1469.92 L1367.99 1469.92 L1367.99 1466.12 Z" fill="#000000" fill-rule="nonzero" fill-opacity="1" /><path clip-path="url(#clip960)" d="M1397.85 1449.52 Q1394.24 1449.52 1392.41 1453.09 Q1390.6 1456.63 1390.6 1463.76 Q1390.6 1470.86 1392.41 1474.43 Q1394.24 1477.97 1397.85 1477.97 Q1401.48 1477.97 1403.29 1474.43 Q1405.12 1470.86 1405.12 1463.76 Q1405.12 1456.63 1403.29 1453.09 Q1401.48 1449.52 1397.85 1449.52 M1397.85 1445.82 Q1403.66 1445.82 1406.71 1450.43 Q1409.79 1455.01 1409.79 1463.76 Q1409.79 1472.49 1406.71 1477.09 Q1403.66 1481.68 1397.85 1481.68 Q1392.04 1481.68 1388.96 1477.09 Q1385.9 1472.49 1385.9 1463.76 Q1385.9 1455.01 1388.96 1450.43 Q1392.04 1445.82 1397.85 1445.82 Z" fill="#000000" fill-rule="nonzero" fill-opacity="1" /><path clip-path="url(#clip960)" d="M1418.82 1477.07 L1426.46 1477.07 L1426.46 1450.7 L1418.15 1452.37 L1418.15 1448.11 L1426.41 1446.44 L1431.09 1446.44 L1431.09 1477.07 L1438.73 1477.07 L1438.73 1481 L1418.82 1481 L1418.82 1477.07 Z" fill="#000000" fill-rule="nonzero" fill-opacity="1" /><path clip-path="url(#clip960)" d="M1990.35 1477.07 L2006.67 1477.07 L2006.67 1481 L1984.73 1481 L1984.73 1477.07 Q1987.39 1474.31 1991.97 1469.68 Q1996.58 1465.03 1997.76 1463.69 Q2000.01 1461.17 2000.89 1459.43 Q2001.79 1457.67 2001.79 1455.98 Q2001.79 1453.23 1999.84 1451.49 Q1997.92 1449.75 1994.82 1449.75 Q1992.62 1449.75 1990.17 1450.52 Q1987.74 1451.28 1984.96 1452.83 L1984.96 1448.11 Q1987.78 1446.98 1990.24 1446.4 Q1992.69 1445.82 1994.73 1445.82 Q2000.1 1445.82 2003.29 1448.5 Q2006.49 1451.19 2006.49 1455.68 Q2006.49 1457.81 2005.68 1459.73 Q2004.89 1461.63 2002.78 1464.22 Q2002.21 1464.89 1999.1 1468.11 Q1996 1471.3 1990.35 1477.07 Z" fill="#000000" fill-rule="nonzero" fill-opacity="1" /><path clip-path="url(#clip960)" d="M2026.49 1449.52 Q2022.88 1449.52 2021.05 1453.09 Q2019.24 1456.63 2019.24 1463.76 Q2019.24 1470.86 2021.05 1474.43 Q2022.88 1477.97 2026.49 1477.97 Q2030.12 1477.97 2031.93 1474.43 Q2033.76 1470.86 2033.76 1463.76 Q2033.76 1456.63 2031.93 1453.09 Q2030.12 1449.52 2026.49 1449.52 M2026.49 1445.82 Q2032.3 1445.82 2035.35 1450.43 Q2038.43 1455.01 2038.43 1463.76 Q2038.43 1472.49 2035.35 1477.09 Q2032.3 1481.68 2026.49 1481.68 Q2020.68 1481.68 2017.6 1477.09 Q2014.54 1472.49 2014.54 1463.76 Q2014.54 1455.01 2017.6 1450.43 Q2020.68 1445.82 2026.49 1445.82 Z" fill="#000000" fill-rule="nonzero" fill-opacity="1" /><path clip-path="url(#clip960)" d="M2050.68 1477.07 L2067 1477.07 L2067 1481 L2045.05 1481 L2045.05 1477.07 Q2047.71 1474.31 2052.3 1469.68 Q2056.9 1465.03 2058.08 1463.69 Q2060.33 1461.17 2061.21 1459.43 Q2062.11 1457.67 2062.11 1455.98 Q2062.11 1453.23 2060.17 1451.49 Q2058.25 1449.75 2055.14 1449.75 Q2052.95 1449.75 2050.49 1450.52 Q2048.06 1451.28 2045.28 1452.83 L2045.28 1448.11 Q2048.11 1446.98 2050.56 1446.4 Q2053.02 1445.82 2055.05 1445.82 Q2060.42 1445.82 2063.62 1448.5 Q2066.81 1451.19 2066.81 1455.68 Q2066.81 1457.81 2066 1459.73 Q2065.21 1461.63 2063.11 1464.22 Q2062.53 1464.89 2059.43 1468.11 Q2056.33 1471.3 2050.68 1477.07 Z" fill="#000000" fill-rule="nonzero" fill-opacity="1" /><path clip-path="url(#clip960)" d="M2086.81 1449.52 Q2083.2 1449.52 2081.37 1453.09 Q2079.57 1456.63 2079.57 1463.76 Q2079.57 1470.86 2081.37 1474.43 Q2083.2 1477.97 2086.81 1477.97 Q2090.45 1477.97 2092.25 1474.43 Q2094.08 1470.86 2094.08 1463.76 Q2094.08 1456.63 2092.25 1453.09 Q2090.45 1449.52 2086.81 1449.52 M2086.81 1445.82 Q2092.62 1445.82 2095.68 1450.43 Q2098.76 1455.01 2098.76 1463.76 Q2098.76 1472.49 2095.68 1477.09 Q2092.62 1481.68 2086.81 1481.68 Q2081 1481.68 2077.92 1477.09 Q2074.87 1472.49 2074.87 1463.76 Q2074.87 1455.01 2077.92 1450.43 Q2081 1445.82 2086.81 1445.82 Z" fill="#000000" fill-rule="nonzero" fill-opacity="1" /><path clip-path="url(#clip960)" d="M2104.22 1466.12 L2116.7 1466.12 L2116.7 1469.92 L2104.22 1469.92 L2104.22 1466.12 Z" fill="#000000" fill-rule="nonzero" fill-opacity="1" /><path clip-path="url(#clip960)" d="M2134.08 1449.52 Q2130.47 1449.52 2128.64 1453.09 Q2126.83 1456.63 2126.83 1463.76 Q2126.83 1470.86 2128.64 1474.43 Q2130.47 1477.97 2134.08 1477.97 Q2137.71 1477.97 2139.52 1474.43 Q2141.35 1470.86 2141.35 1463.76 Q2141.35 1456.63 2139.52 1453.09 Q2137.71 1449.52 2134.08 1449.52 M2134.08 1445.82 Q2139.89 1445.82 2142.95 1450.43 Q2146.02 1455.01 2146.02 1463.76 Q2146.02 1472.49 2142.95 1477.09 Q2139.89 1481.68 2134.08 1481.68 Q2128.27 1481.68 2125.19 1477.09 Q2122.14 1472.49 2122.14 1463.76 Q2122.14 1455.01 2125.19 1450.43 Q2128.27 1445.82 2134.08 1445.82 Z" fill="#000000" fill-rule="nonzero" fill-opacity="1" /><path clip-path="url(#clip960)" d="M2154.29 1446.44 L2172.64 1446.44 L2172.64 1450.38 L2158.57 1450.38 L2158.57 1458.85 Q2159.59 1458.5 2160.61 1458.34 Q2161.63 1458.16 2162.64 1458.16 Q2168.43 1458.16 2171.81 1461.33 Q2175.19 1464.5 2175.19 1469.92 Q2175.19 1475.49 2171.72 1478.6 Q2168.25 1481.68 2161.93 1481.68 Q2159.75 1481.68 2157.48 1481.3 Q2155.24 1480.93 2152.83 1480.19 L2152.83 1475.49 Q2154.91 1476.63 2157.13 1477.18 Q2159.36 1477.74 2161.83 1477.74 Q2165.84 1477.74 2168.18 1475.63 Q2170.51 1473.53 2170.51 1469.92 Q2170.51 1466.3 2168.18 1464.2 Q2165.84 1462.09 2161.83 1462.09 Q2159.96 1462.09 2158.08 1462.51 Q2156.23 1462.93 2154.29 1463.8 L2154.29 1446.44 Z" fill="#000000" fill-rule="nonzero" fill-opacity="1" /><path clip-path="url(#clip960)" d="M2181.65 1466.12 L2194.13 1466.12 L2194.13 1469.92 L2181.65 1469.92 L2181.65 1466.12 Z" fill="#000000" fill-rule="nonzero" fill-opacity="1" /><path clip-path="url(#clip960)" d="M2211.51 1449.52 Q2207.9 1449.52 2206.07 1453.09 Q2204.26 1456.63 2204.26 1463.76 Q2204.26 1470.86 2206.07 1474.43 Q2207.9 1477.97 2211.51 1477.97 Q2215.14 1477.97 2216.95 1474.43 Q2218.78 1470.86 2218.78 1463.76 Q2218.78 1456.63 2216.95 1453.09 Q2215.14 1449.52 2211.51 1449.52 M2211.51 1445.82 Q2217.32 1445.82 2220.38 1450.43 Q2223.45 1455.01 2223.45 1463.76 Q2223.45 1472.49 2220.38 1477.09 Q2217.32 1481.68 2211.51 1481.68 Q2205.7 1481.68 2202.62 1477.09 Q2199.57 1472.49 2199.57 1463.76 Q2199.57 1455.01 2202.62 1450.43 Q2205.7 1445.82 2211.51 1445.82 Z" fill="#000000" fill-rule="nonzero" fill-opacity="1" /><path clip-path="url(#clip960)" d="M2232.48 1477.07 L2240.12 1477.07 L2240.12 1450.7 L2231.81 1452.37 L2231.81 1448.11 L2240.07 1446.44 L2244.75 1446.44 L2244.75 1477.07 L2252.39 1477.07 L2252.39 1481 L2232.48 1481 L2232.48 1477.07 Z" fill="#000000" fill-rule="nonzero" fill-opacity="1" /><path clip-path="url(#clip960)" d="M2831.14 1477.07 L2847.46 1477.07 L2847.46 1481 L2825.51 1481 L2825.51 1477.07 Q2828.17 1474.31 2832.76 1469.68 Q2837.36 1465.03 2838.54 1463.69 Q2840.79 1461.17 2841.67 1459.43 Q2842.57 1457.67 2842.57 1455.98 Q2842.57 1453.23 2840.63 1451.49 Q2838.71 1449.75 2835.6 1449.75 Q2833.4 1449.75 2830.95 1450.52 Q2828.52 1451.28 2825.74 1452.83 L2825.74 1448.11 Q2828.57 1446.98 2831.02 1446.4 Q2833.47 1445.82 2835.51 1445.82 Q2840.88 1445.82 2844.08 1448.5 Q2847.27 1451.19 2847.27 1455.68 Q2847.27 1457.81 2846.46 1459.73 Q2845.67 1461.63 2843.57 1464.22 Q2842.99 1464.89 2839.89 1468.11 Q2836.78 1471.3 2831.14 1477.07 Z" fill="#000000" fill-rule="nonzero" fill-opacity="1" /><path clip-path="url(#clip960)" d="M2867.27 1449.52 Q2863.66 1449.52 2861.83 1453.09 Q2860.02 1456.63 2860.02 1463.76 Q2860.02 1470.86 2861.83 1474.43 Q2863.66 1477.97 2867.27 1477.97 Q2870.9 1477.97 2872.71 1474.43 Q2874.54 1470.86 2874.54 1463.76 Q2874.54 1456.63 2872.71 1453.09 Q2870.9 1449.52 2867.27 1449.52 M2867.27 1445.82 Q2873.08 1445.82 2876.14 1450.43 Q2879.21 1455.01 2879.21 1463.76 Q2879.21 1472.49 2876.14 1477.09 Q2873.08 1481.68 2867.27 1481.68 Q2861.46 1481.68 2858.38 1477.09 Q2855.33 1472.49 2855.33 1463.76 Q2855.33 1455.01 2858.38 1450.43 Q2861.46 1445.82 2867.27 1445.82 Z" fill="#000000" fill-rule="nonzero" fill-opacity="1" /><path clip-path="url(#clip960)" d="M2891.46 1477.07 L2907.78 1477.07 L2907.78 1481 L2885.83 1481 L2885.83 1477.07 Q2888.5 1474.31 2893.08 1469.68 Q2897.69 1465.03 2898.87 1463.69 Q2901.11 1461.17 2901.99 1459.43 Q2902.89 1457.67 2902.89 1455.98 Q2902.89 1453.23 2900.95 1451.49 Q2899.03 1449.75 2895.93 1449.75 Q2893.73 1449.75 2891.27 1450.52 Q2888.84 1451.28 2886.07 1452.83 L2886.07 1448.11 Q2888.89 1446.98 2891.34 1446.4 Q2893.8 1445.82 2895.83 1445.82 Q2901.21 1445.82 2904.4 1448.5 Q2907.59 1451.19 2907.59 1455.68 Q2907.59 1457.81 2906.78 1459.73 Q2906 1461.63 2903.89 1464.22 Q2903.31 1464.89 2900.21 1468.11 Q2897.11 1471.3 2891.46 1477.07 Z" fill="#000000" fill-rule="nonzero" fill-opacity="1" /><path clip-path="url(#clip960)" d="M2927.59 1449.52 Q2923.98 1449.52 2922.15 1453.09 Q2920.35 1456.63 2920.35 1463.76 Q2920.35 1470.86 2922.15 1474.43 Q2923.98 1477.97 2927.59 1477.97 Q2931.23 1477.97 2933.03 1474.43 Q2934.86 1470.86 2934.86 1463.76 Q2934.86 1456.63 2933.03 1453.09 Q2931.23 1449.52 2927.59 1449.52 M2927.59 1445.82 Q2933.4 1445.82 2936.46 1450.43 Q2939.54 1455.01 2939.54 1463.76 Q2939.54 1472.49 2936.46 1477.09 Q2933.4 1481.68 2927.59 1481.68 Q2921.78 1481.68 2918.71 1477.09 Q2915.65 1472.49 2915.65 1463.76 Q2915.65 1455.01 2918.71 1450.43 Q2921.78 1445.82 2927.59 1445.82 Z" fill="#000000" fill-rule="nonzero" fill-opacity="1" /><path clip-path="url(#clip960)" d="M2945 1466.12 L2957.48 1466.12 L2957.48 1469.92 L2945 1469.92 L2945 1466.12 Z" fill="#000000" fill-rule="nonzero" fill-opacity="1" /><path clip-path="url(#clip960)" d="M2974.86 1449.52 Q2971.25 1449.52 2969.42 1453.09 Q2967.62 1456.63 2967.62 1463.76 Q2967.62 1470.86 2969.42 1474.43 Q2971.25 1477.97 2974.86 1477.97 Q2978.5 1477.97 2980.3 1474.43 Q2982.13 1470.86 2982.13 1463.76 Q2982.13 1456.63 2980.3 1453.09 Q2978.5 1449.52 2974.86 1449.52 M2974.86 1445.82 Q2980.67 1445.82 2983.73 1450.43 Q2986.81 1455.01 2986.81 1463.76 Q2986.81 1472.49 2983.73 1477.09 Q2980.67 1481.68 2974.86 1481.68 Q2969.05 1481.68 2965.97 1477.09 Q2962.92 1472.49 2962.92 1463.76 Q2962.92 1455.01 2965.97 1450.43 Q2969.05 1445.82 2974.86 1445.82 Z" fill="#000000" fill-rule="nonzero" fill-opacity="1" /><path clip-path="url(#clip960)" d="M3005.6 1461.86 Q3002.45 1461.86 3000.6 1464.01 Q2998.77 1466.17 2998.77 1469.92 Q2998.77 1473.64 3000.6 1475.82 Q3002.45 1477.97 3005.6 1477.97 Q3008.75 1477.97 3010.58 1475.82 Q3012.43 1473.64 3012.43 1469.92 Q3012.43 1466.17 3010.58 1464.01 Q3008.75 1461.86 3005.6 1461.86 M3014.89 1447.21 L3014.89 1451.47 Q3013.13 1450.63 3011.32 1450.19 Q3009.54 1449.75 3007.78 1449.75 Q3003.15 1449.75 3000.7 1452.88 Q2998.26 1456 2997.92 1462.32 Q2999.28 1460.31 3001.34 1459.24 Q3003.4 1458.16 3005.88 1458.16 Q3011.09 1458.16 3014.1 1461.33 Q3017.13 1464.48 3017.13 1469.92 Q3017.13 1475.24 3013.98 1478.46 Q3010.83 1481.68 3005.6 1481.68 Q2999.61 1481.68 2996.44 1477.09 Q2993.26 1472.49 2993.26 1463.76 Q2993.26 1455.56 2997.15 1450.7 Q3001.04 1445.82 3007.59 1445.82 Q3009.35 1445.82 3011.14 1446.17 Q3012.94 1446.51 3014.89 1447.21 Z" fill="#000000" fill-rule="nonzero" fill-opacity="1" /><path clip-path="url(#clip960)" d="M3022.43 1466.12 L3034.91 1466.12 L3034.91 1469.92 L3022.43 1469.92 L3022.43 1466.12 Z" fill="#000000" fill-rule="nonzero" fill-opacity="1" /><path clip-path="url(#clip960)" d="M3052.29 1449.52 Q3048.68 1449.52 3046.85 1453.09 Q3045.05 1456.63 3045.05 1463.76 Q3045.05 1470.86 3046.85 1474.43 Q3048.68 1477.97 3052.29 1477.97 Q3055.93 1477.97 3057.73 1474.43 Q3059.56 1470.86 3059.56 1463.76 Q3059.56 1456.63 3057.73 1453.09 Q3055.93 1449.52 3052.29 1449.52 M3052.29 1445.82 Q3058.1 1445.82 3061.16 1450.43 Q3064.24 1455.01 3064.24 1463.76 Q3064.24 1472.49 3061.16 1477.09 Q3058.1 1481.68 3052.29 1481.68 Q3046.48 1481.68 3043.4 1477.09 Q3040.35 1472.49 3040.35 1463.76 Q3040.35 1455.01 3043.4 1450.43 Q3046.48 1445.82 3052.29 1445.82 Z" fill="#000000" fill-rule="nonzero" fill-opacity="1" /><path clip-path="url(#clip960)" d="M3073.26 1477.07 L3080.9 1477.07 L3080.9 1450.7 L3072.59 1452.37 L3072.59 1448.11 L3080.86 1446.44 L3085.53 1446.44 L3085.53 1477.07 L3093.17 1477.07 L3093.17 1481 L3073.26 1481 L3073.26 1477.07 Z" fill="#000000" fill-rule="nonzero" fill-opacity="1" /><path clip-path="url(#clip960)" d="M1631.63 1526.83 L1631.63 1563.78 L1639.4 1563.78 Q1649.23 1563.78 1653.78 1559.33 Q1658.37 1554.87 1658.37 1545.26 Q1658.37 1535.71 1653.78 1531.29 Q1649.23 1526.83 1639.4 1526.83 L1631.63 1526.83 M1625.2 1521.55 L1638.41 1521.55 Q1652.22 1521.55 1658.68 1527.31 Q1665.15 1533.04 1665.15 1545.26 Q1665.15 1557.55 1658.65 1563.31 Q1652.16 1569.07 1638.41 1569.07 L1625.2 1569.07 L1625.2 1521.55 Z" fill="#000000" fill-rule="nonzero" fill-opacity="1" /><path clip-path="url(#clip960)" d="M1691.34 1551.15 Q1684.24 1551.15 1681.51 1552.77 Q1678.77 1554.39 1678.77 1558.31 Q1678.77 1561.43 1680.8 1563.27 Q1682.87 1565.09 1686.41 1565.09 Q1691.28 1565.09 1694.2 1561.65 Q1697.16 1558.18 1697.16 1552.45 L1697.16 1551.15 L1691.34 1551.15 M1703.02 1548.73 L1703.02 1569.07 L1697.16 1569.07 L1697.16 1563.66 Q1695.16 1566.9 1692.17 1568.46 Q1689.18 1569.99 1684.85 1569.99 Q1679.37 1569.99 1676.13 1566.94 Q1672.91 1563.85 1672.91 1558.69 Q1672.91 1552.68 1676.92 1549.62 Q1680.96 1546.57 1688.95 1546.57 L1697.16 1546.57 L1697.16 1545.99 Q1697.16 1541.95 1694.49 1539.75 Q1691.85 1537.53 1687.04 1537.53 Q1683.99 1537.53 1681.09 1538.26 Q1678.19 1538.99 1675.52 1540.45 L1675.52 1535.04 Q1678.74 1533.8 1681.76 1533.2 Q1684.78 1532.56 1687.65 1532.56 Q1695.38 1532.56 1699.2 1536.57 Q1703.02 1540.58 1703.02 1548.73 Z" fill="#000000" fill-rule="nonzero" fill-opacity="1" /><path clip-path="url(#clip960)" d="M1720.88 1523.3 L1720.88 1533.42 L1732.94 1533.42 L1732.94 1537.97 L1720.88 1537.97 L1720.88 1557.32 Q1720.88 1561.68 1722.05 1562.92 Q1723.26 1564.17 1726.92 1564.17 L1732.94 1564.17 L1732.94 1569.07 L1726.92 1569.07 Q1720.14 1569.07 1717.57 1566.55 Q1714.99 1564.01 1714.99 1557.32 L1714.99 1537.97 L1710.69 1537.97 L1710.69 1533.42 L1714.99 1533.42 L1714.99 1523.3 L1720.88 1523.3 Z" fill="#000000" fill-rule="nonzero" fill-opacity="1" /><path clip-path="url(#clip960)" d="M1771.13 1549.78 L1771.13 1552.64 L1744.21 1552.64 Q1744.59 1558.69 1747.84 1561.87 Q1751.11 1565.03 1756.94 1565.03 Q1760.31 1565.03 1763.46 1564.2 Q1766.65 1563.37 1769.77 1561.72 L1769.77 1567.25 Q1766.61 1568.59 1763.3 1569.29 Q1759.99 1569.99 1756.59 1569.99 Q1748.06 1569.99 1743.06 1565.03 Q1738.1 1560.06 1738.1 1551.59 Q1738.1 1542.84 1742.81 1537.72 Q1747.55 1532.56 1755.57 1532.56 Q1762.76 1532.56 1766.93 1537.21 Q1771.13 1541.82 1771.13 1549.78 M1765.28 1548.06 Q1765.21 1543.25 1762.57 1540.39 Q1759.96 1537.53 1755.63 1537.53 Q1750.73 1537.53 1747.77 1540.29 Q1744.84 1543.06 1744.4 1548.09 L1765.28 1548.06 Z" fill="#000000" fill-rule="nonzero" fill-opacity="1" /><polyline clip-path="url(#clip962)" style="stroke:#000000; stroke-linecap:round; stroke-linejoin:round; stroke-width:2; stroke-opacity:0.1; fill:none" points="275.075,1374.94 3121.26,1374.94 "/>
<polyline clip-path="url(#clip962)" style="stroke:#000000; stroke-linecap:round; stroke-linejoin:round; stroke-width:2; stroke-opacity:0.1; fill:none" points="275.075,1108.1 3121.26,1108.1 "/>
<polyline clip-path="url(#clip962)" style="stroke:#000000; stroke-linecap:round; stroke-linejoin:round; stroke-width:2; stroke-opacity:0.1; fill:none" points="275.075,841.263 3121.26,841.263 "/>
<polyline clip-path="url(#clip962)" style="stroke:#000000; stroke-linecap:round; stroke-linejoin:round; stroke-width:2; stroke-opacity:0.1; fill:none" points="275.075,574.424 3121.26,574.424 "/>
<polyline clip-path="url(#clip962)" style="stroke:#000000; stroke-linecap:round; stroke-linejoin:round; stroke-width:2; stroke-opacity:0.1; fill:none" points="275.075,307.585 3121.26,307.585 "/>
<polyline clip-path="url(#clip960)" style="stroke:#000000; stroke-linecap:round; stroke-linejoin:round; stroke-width:4; stroke-opacity:1; fill:none" points="275.075,1412.2 275.075,78.7402 "/>
<polyline clip-path="url(#clip960)" style="stroke:#000000; stroke-linecap:round; stroke-linejoin:round; stroke-width:4; stroke-opacity:1; fill:none" points="275.075,1374.94 293.972,1374.94 "/>
<polyline clip-path="url(#clip960)" style="stroke:#000000; stroke-linecap:round; stroke-linejoin:round; stroke-width:4; stroke-opacity:1; fill:none" points="275.075,1108.1 293.972,1108.1 "/>
<polyline clip-path="url(#clip960)" style="stroke:#000000; stroke-linecap:round; stroke-linejoin:round; stroke-width:4; stroke-opacity:1; fill:none" points="275.075,841.263 293.972,841.263 "/>
<polyline clip-path="url(#clip960)" style="stroke:#000000; stroke-linecap:round; stroke-linejoin:round; stroke-width:4; stroke-opacity:1; fill:none" points="275.075,574.424 293.972,574.424 "/>
<polyline clip-path="url(#clip960)" style="stroke:#000000; stroke-linecap:round; stroke-linejoin:round; stroke-width:4; stroke-opacity:1; fill:none" points="275.075,307.585 293.972,307.585 "/>
<path clip-path="url(#clip960)" d="M169.899 1360.74 Q166.288 1360.74 164.459 1364.3 Q162.654 1367.85 162.654 1374.98 Q162.654 1382.08 164.459 1385.65 Q166.288 1389.19 169.899 1389.19 Q173.533 1389.19 175.339 1385.65 Q177.168 1382.08 177.168 1374.98 Q177.168 1367.85 175.339 1364.3 Q173.533 1360.74 169.899 1360.74 M169.899 1357.04 Q175.709 1357.04 178.765 1361.64 Q181.844 1366.23 181.844 1374.98 Q181.844 1383.7 178.765 1388.31 Q175.709 1392.89 169.899 1392.89 Q164.089 1392.89 161.01 1388.31 Q157.955 1383.7 157.955 1374.98 Q157.955 1366.23 161.01 1361.64 Q164.089 1357.04 169.899 1357.04 Z" fill="#000000" fill-rule="nonzero" fill-opacity="1" /><path clip-path="url(#clip960)" d="M190.061 1386.34 L194.945 1386.34 L194.945 1392.22 L190.061 1392.22 L190.061 1386.34 Z" fill="#000000" fill-rule="nonzero" fill-opacity="1" /><path clip-path="url(#clip960)" d="M215.13 1360.74 Q211.519 1360.74 209.691 1364.3 Q207.885 1367.85 207.885 1374.98 Q207.885 1382.08 209.691 1385.65 Q211.519 1389.19 215.13 1389.19 Q218.765 1389.19 220.57 1385.65 Q222.399 1382.08 222.399 1374.98 Q222.399 1367.85 220.57 1364.3 Q218.765 1360.74 215.13 1360.74 M215.13 1357.04 Q220.941 1357.04 223.996 1361.64 Q227.075 1366.23 227.075 1374.98 Q227.075 1383.7 223.996 1388.31 Q220.941 1392.89 215.13 1392.89 Q209.32 1392.89 206.242 1388.31 Q203.186 1383.7 203.186 1374.98 Q203.186 1366.23 206.242 1361.64 Q209.32 1357.04 215.13 1357.04 Z" fill="#000000" fill-rule="nonzero" fill-opacity="1" /><path clip-path="url(#clip960)" d="M164.922 1121.45 L181.242 1121.45 L181.242 1125.38 L159.297 1125.38 L159.297 1121.45 Q161.959 1118.69 166.543 1114.06 Q171.149 1109.41 172.33 1108.07 Q174.575 1105.54 175.455 1103.81 Q176.357 1102.05 176.357 1100.36 Q176.357 1097.6 174.413 1095.87 Q172.492 1094.13 169.39 1094.13 Q167.191 1094.13 164.737 1094.9 Q162.307 1095.66 159.529 1097.21 L159.529 1092.49 Q162.353 1091.35 164.807 1090.78 Q167.26 1090.2 169.297 1090.2 Q174.668 1090.2 177.862 1092.88 Q181.057 1095.57 181.057 1100.06 Q181.057 1102.19 180.246 1104.11 Q179.459 1106.01 177.353 1108.6 Q176.774 1109.27 173.672 1112.49 Q170.57 1115.68 164.922 1121.45 Z" fill="#000000" fill-rule="nonzero" fill-opacity="1" /><path clip-path="url(#clip960)" d="M191.056 1119.5 L195.941 1119.5 L195.941 1125.38 L191.056 1125.38 L191.056 1119.5 Z" fill="#000000" fill-rule="nonzero" fill-opacity="1" /><path clip-path="url(#clip960)" d="M206.172 1090.82 L224.528 1090.82 L224.528 1094.76 L210.454 1094.76 L210.454 1103.23 Q211.473 1102.88 212.492 1102.72 Q213.51 1102.54 214.529 1102.54 Q220.316 1102.54 223.695 1105.71 Q227.075 1108.88 227.075 1114.29 Q227.075 1119.87 223.603 1122.97 Q220.13 1126.05 213.811 1126.05 Q211.635 1126.05 209.367 1125.68 Q207.121 1125.31 204.714 1124.57 L204.714 1119.87 Q206.797 1121.01 209.019 1121.56 Q211.242 1122.12 213.718 1122.12 Q217.723 1122.12 220.061 1120.01 Q222.399 1117.91 222.399 1114.29 Q222.399 1110.68 220.061 1108.58 Q217.723 1106.47 213.718 1106.47 Q211.843 1106.47 209.968 1106.89 Q208.117 1107.3 206.172 1108.18 L206.172 1090.82 Z" fill="#000000" fill-rule="nonzero" fill-opacity="1" /><path clip-path="url(#clip960)" d="M159.946 823.983 L178.302 823.983 L178.302 827.918 L164.228 827.918 L164.228 836.39 Q165.246 836.043 166.265 835.881 Q167.283 835.696 168.302 835.696 Q174.089 835.696 177.469 838.867 Q180.848 842.039 180.848 847.455 Q180.848 853.034 177.376 856.136 Q173.904 859.214 167.584 859.214 Q165.408 859.214 163.14 858.844 Q160.895 858.474 158.487 857.733 L158.487 853.034 Q160.571 854.168 162.793 854.724 Q165.015 855.279 167.492 855.279 Q171.496 855.279 173.834 853.173 Q176.172 851.066 176.172 847.455 Q176.172 843.844 173.834 841.738 Q171.496 839.631 167.492 839.631 Q165.617 839.631 163.742 840.048 Q161.89 840.465 159.946 841.344 L159.946 823.983 Z" fill="#000000" fill-rule="nonzero" fill-opacity="1" /><path clip-path="url(#clip960)" d="M190.061 852.664 L194.945 852.664 L194.945 858.543 L190.061 858.543 L190.061 852.664 Z" fill="#000000" fill-rule="nonzero" fill-opacity="1" /><path clip-path="url(#clip960)" d="M215.13 827.062 Q211.519 827.062 209.691 830.627 Q207.885 834.168 207.885 841.298 Q207.885 848.404 209.691 851.969 Q211.519 855.511 215.13 855.511 Q218.765 855.511 220.57 851.969 Q222.399 848.404 222.399 841.298 Q222.399 834.168 220.57 830.627 Q218.765 827.062 215.13 827.062 M215.13 823.358 Q220.941 823.358 223.996 827.965 Q227.075 832.548 227.075 841.298 Q227.075 850.025 223.996 854.631 Q220.941 859.214 215.13 859.214 Q209.32 859.214 206.242 854.631 Q203.186 850.025 203.186 841.298 Q203.186 832.548 206.242 827.965 Q209.32 823.358 215.13 823.358 Z" fill="#000000" fill-rule="nonzero" fill-opacity="1" /><path clip-path="url(#clip960)" d="M159.714 557.144 L181.936 557.144 L181.936 559.135 L169.39 591.704 L164.506 591.704 L176.311 561.079 L159.714 561.079 L159.714 557.144 Z" fill="#000000" fill-rule="nonzero" fill-opacity="1" /><path clip-path="url(#clip960)" d="M191.056 585.824 L195.941 585.824 L195.941 591.704 L191.056 591.704 L191.056 585.824 Z" fill="#000000" fill-rule="nonzero" fill-opacity="1" /><path clip-path="url(#clip960)" d="M206.172 557.144 L224.528 557.144 L224.528 561.079 L210.454 561.079 L210.454 569.551 Q211.473 569.204 212.492 569.042 Q213.51 568.857 214.529 568.857 Q220.316 568.857 223.695 572.028 Q227.075 575.199 227.075 580.616 Q227.075 586.195 223.603 589.297 Q220.13 592.375 213.811 592.375 Q211.635 592.375 209.367 592.005 Q207.121 591.635 204.714 590.894 L204.714 586.195 Q206.797 587.329 209.019 587.885 Q211.242 588.44 213.718 588.44 Q217.723 588.44 220.061 586.334 Q222.399 584.227 222.399 580.616 Q222.399 577.005 220.061 574.898 Q217.723 572.792 213.718 572.792 Q211.843 572.792 209.968 573.209 Q208.117 573.625 206.172 574.505 L206.172 557.144 Z" fill="#000000" fill-rule="nonzero" fill-opacity="1" /><path clip-path="url(#clip960)" d="M130.548 320.93 L138.186 320.93 L138.186 294.564 L129.876 296.231 L129.876 291.971 L138.14 290.305 L142.816 290.305 L142.816 320.93 L150.455 320.93 L150.455 324.865 L130.548 324.865 L130.548 320.93 Z" fill="#000000" fill-rule="nonzero" fill-opacity="1" /><path clip-path="url(#clip960)" d="M169.899 293.383 Q166.288 293.383 164.459 296.948 Q162.654 300.49 162.654 307.619 Q162.654 314.726 164.459 318.291 Q166.288 321.832 169.899 321.832 Q173.533 321.832 175.339 318.291 Q177.168 314.726 177.168 307.619 Q177.168 300.49 175.339 296.948 Q173.533 293.383 169.899 293.383 M169.899 289.68 Q175.709 289.68 178.765 294.286 Q181.844 298.87 181.844 307.619 Q181.844 316.346 178.765 320.953 Q175.709 325.536 169.899 325.536 Q164.089 325.536 161.01 320.953 Q157.955 316.346 157.955 307.619 Q157.955 298.87 161.01 294.286 Q164.089 289.68 169.899 289.68 Z" fill="#000000" fill-rule="nonzero" fill-opacity="1" /><path clip-path="url(#clip960)" d="M190.061 318.985 L194.945 318.985 L194.945 324.865 L190.061 324.865 L190.061 318.985 Z" fill="#000000" fill-rule="nonzero" fill-opacity="1" /><path clip-path="url(#clip960)" d="M215.13 293.383 Q211.519 293.383 209.691 296.948 Q207.885 300.49 207.885 307.619 Q207.885 314.726 209.691 318.291 Q211.519 321.832 215.13 321.832 Q218.765 321.832 220.57 318.291 Q222.399 314.726 222.399 307.619 Q222.399 300.49 220.57 296.948 Q218.765 293.383 215.13 293.383 M215.13 289.68 Q220.941 289.68 223.996 294.286 Q227.075 298.87 227.075 307.619 Q227.075 316.346 223.996 320.953 Q220.941 325.536 215.13 325.536 Q209.32 325.536 206.242 320.953 Q203.186 316.346 203.186 307.619 Q203.186 298.87 206.242 294.286 Q209.32 289.68 215.13 289.68 Z" fill="#000000" fill-rule="nonzero" fill-opacity="1" /><path clip-path="url(#clip960)" d="M45.3402 1073.54 Q46.0405 1071.48 48.3321 1069.53 Q50.6238 1067.56 54.6342 1065.59 L67.6202 1059.06 L67.6202 1065.97 L55.4299 1072.05 Q50.6556 1074.4 49.096 1076.63 Q47.5364 1078.83 47.5364 1082.65 L47.5364 1089.65 L67.6202 1089.65 L67.6202 1096.08 L20.1002 1096.08 L20.1002 1081.57 Q20.1002 1073.42 23.5059 1069.41 Q26.9115 1065.4 33.7865 1065.4 Q38.2743 1065.4 41.2344 1067.5 Q44.1944 1069.57 45.3402 1073.54 M25.3838 1089.65 L42.2529 1089.65 L42.2529 1081.57 Q42.2529 1076.92 40.1204 1074.56 Q37.956 1072.18 33.7865 1072.18 Q29.617 1072.18 27.5163 1074.56 Q25.3838 1076.92 25.3838 1081.57 L25.3838 1089.65 Z" fill="#000000" fill-rule="nonzero" fill-opacity="1" /><path clip-path="url(#clip960)" d="M48.3321 1023.48 L51.1967 1023.48 L51.1967 1050.41 Q57.2441 1050.02 60.427 1046.78 Q63.578 1043.5 63.578 1037.67 Q63.578 1034.3 62.7505 1031.15 Q61.9229 1027.97 60.2678 1024.85 L65.806 1024.85 Q67.1428 1028 67.843 1031.31 Q68.5432 1034.62 68.5432 1038.02 Q68.5432 1046.55 63.578 1051.55 Q58.6127 1056.52 50.1464 1056.52 Q41.3935 1056.52 36.2691 1051.81 Q31.1129 1047.06 31.1129 1039.04 Q31.1129 1031.85 35.7599 1027.68 Q40.375 1023.48 48.3321 1023.48 M46.6134 1029.33 Q41.8073 1029.4 38.9427 1032.04 Q36.0781 1034.65 36.0781 1038.98 Q36.0781 1043.88 38.8472 1046.84 Q41.6163 1049.77 46.6452 1050.21 L46.6134 1029.33 Z" fill="#000000" fill-rule="nonzero" fill-opacity="1" /><path clip-path="url(#clip960)" d="M62.273 1008.2 L81.1792 1008.2 L81.1792 1014.09 L31.9723 1014.09 L31.9723 1008.2 L37.3831 1008.2 Q34.2003 1006.35 32.6725 1003.55 Q31.1129 1000.72 31.1129 996.806 Q31.1129 990.313 36.2691 986.271 Q41.4253 982.197 49.8281 982.197 Q58.2308 982.197 63.387 986.271 Q68.5432 990.313 68.5432 996.806 Q68.5432 1000.72 67.0155 1003.55 Q65.4559 1006.35 62.273 1008.2 M49.8281 988.276 Q43.3669 988.276 39.7066 990.95 Q36.0145 993.591 36.0145 998.238 Q36.0145 1002.89 39.7066 1005.56 Q43.3669 1008.2 49.8281 1008.2 Q56.2893 1008.2 59.9814 1005.56 Q63.6417 1002.89 63.6417 998.238 Q63.6417 993.591 59.9814 990.95 Q56.2893 988.276 49.8281 988.276 Z" fill="#000000" fill-rule="nonzero" fill-opacity="1" /><path clip-path="url(#clip960)" d="M37.4468 951.832 Q36.8739 952.819 36.6192 953.997 Q36.3328 955.142 36.3328 956.543 Q36.3328 961.508 39.5793 964.182 Q42.794 966.824 48.8414 966.824 L67.6202 966.824 L67.6202 972.712 L31.9723 972.712 L31.9723 966.824 L37.5104 966.824 Q34.2639 964.977 32.7043 962.017 Q31.1129 959.057 31.1129 954.824 Q31.1129 954.219 31.2084 953.487 Q31.272 952.755 31.4312 951.864 L37.4468 951.832 Z" fill="#000000" fill-rule="nonzero" fill-opacity="1" /><path clip-path="url(#clip960)" d="M36.0781 933.308 Q36.0781 938.019 39.7703 940.756 Q43.4305 943.493 49.8281 943.493 Q56.2256 943.493 59.9177 940.788 Q63.578 938.051 63.578 933.308 Q63.578 928.629 59.8859 925.892 Q56.1938 923.155 49.8281 923.155 Q43.4942 923.155 39.8021 925.892 Q36.0781 928.629 36.0781 933.308 M31.1129 933.308 Q31.1129 925.669 36.0781 921.309 Q41.0434 916.948 49.8281 916.948 Q58.5809 916.948 63.578 921.309 Q68.5432 925.669 68.5432 933.308 Q68.5432 940.979 63.578 945.339 Q58.5809 949.668 49.8281 949.668 Q41.0434 949.668 36.0781 945.339 Q31.1129 940.979 31.1129 933.308 Z" fill="#000000" fill-rule="nonzero" fill-opacity="1" /><path clip-path="url(#clip960)" d="M37.3831 883.783 L18.095 883.783 L18.095 877.926 L67.6202 877.926 L67.6202 883.783 L62.273 883.783 Q65.4559 885.629 67.0155 888.462 Q68.5432 891.263 68.5432 895.209 Q68.5432 901.67 63.387 905.745 Q58.2308 909.787 49.8281 909.787 Q41.4253 909.787 36.2691 905.745 Q31.1129 901.67 31.1129 895.209 Q31.1129 891.263 32.6725 888.462 Q34.2003 885.629 37.3831 883.783 M49.8281 903.739 Q56.2893 903.739 59.9814 901.098 Q63.6417 898.424 63.6417 893.777 Q63.6417 889.13 59.9814 886.456 Q56.2893 883.783 49.8281 883.783 Q43.3669 883.783 39.7066 886.456 Q36.0145 889.13 36.0145 893.777 Q36.0145 898.424 39.7066 901.098 Q43.3669 903.739 49.8281 903.739 Z" fill="#000000" fill-rule="nonzero" fill-opacity="1" /><path clip-path="url(#clip960)" d="M53.552 866.468 L31.9723 866.468 L31.9723 860.612 L53.3292 860.612 Q58.3899 860.612 60.9362 858.638 Q63.4507 856.665 63.4507 852.718 Q63.4507 847.976 60.427 845.239 Q57.4033 842.469 52.1834 842.469 L31.9723 842.469 L31.9723 836.613 L67.6202 836.613 L67.6202 842.469 L62.1457 842.469 Q65.3922 844.602 66.9836 847.435 Q68.5432 850.236 68.5432 853.96 Q68.5432 860.102 64.7238 863.285 Q60.9044 866.468 53.552 866.468 M31.1129 851.732 L31.1129 851.732 Z" fill="#000000" fill-rule="nonzero" fill-opacity="1" /><path clip-path="url(#clip960)" d="M33.3409 798.896 L38.8154 798.896 Q37.4468 801.379 36.7784 803.893 Q36.0781 806.376 36.0781 808.922 Q36.0781 814.619 39.7066 817.77 Q43.3032 820.922 49.8281 820.922 Q56.3529 820.922 59.9814 817.77 Q63.578 814.619 63.578 808.922 Q63.578 806.376 62.9096 803.893 Q62.2094 801.379 60.8407 798.896 L66.2516 798.896 Q67.3974 801.347 67.9703 803.989 Q68.5432 806.599 68.5432 809.559 Q68.5432 817.611 63.4825 822.354 Q58.4218 827.096 49.8281 827.096 Q41.1071 827.096 36.11 822.322 Q31.1129 817.516 31.1129 809.177 Q31.1129 806.471 31.6858 803.893 Q32.2269 801.315 33.3409 798.896 Z" fill="#000000" fill-rule="nonzero" fill-opacity="1" /><path clip-path="url(#clip960)" d="M21.8508 782.918 L31.9723 782.918 L31.9723 770.855 L36.5237 770.855 L36.5237 782.918 L55.8755 782.918 Q60.236 782.918 61.4773 781.741 Q62.7186 780.531 62.7186 776.871 L62.7186 770.855 L67.6202 770.855 L67.6202 776.871 Q67.6202 783.65 65.1058 786.228 Q62.5595 788.807 55.8755 788.807 L36.5237 788.807 L36.5237 793.103 L31.9723 793.103 L31.9723 788.807 L21.8508 788.807 L21.8508 782.918 Z" fill="#000000" fill-rule="nonzero" fill-opacity="1" /><path clip-path="url(#clip960)" d="M31.9723 763.153 L31.9723 757.296 L67.6202 757.296 L67.6202 763.153 L31.9723 763.153 M18.095 763.153 L18.095 757.296 L25.5111 757.296 L25.5111 763.153 L18.095 763.153 Z" fill="#000000" fill-rule="nonzero" fill-opacity="1" /><path clip-path="url(#clip960)" d="M36.0781 731.229 Q36.0781 735.939 39.7703 738.677 Q43.4305 741.414 49.8281 741.414 Q56.2256 741.414 59.9177 738.708 Q63.578 735.971 63.578 731.229 Q63.578 726.55 59.8859 723.813 Q56.1938 721.075 49.8281 721.075 Q43.4942 721.075 39.8021 723.813 Q36.0781 726.55 36.0781 731.229 M31.1129 731.229 Q31.1129 723.59 36.0781 719.229 Q41.0434 714.869 49.8281 714.869 Q58.5809 714.869 63.578 719.229 Q68.5432 723.59 68.5432 731.229 Q68.5432 738.899 63.578 743.26 Q58.5809 747.589 49.8281 747.589 Q41.0434 747.589 36.0781 743.26 Q31.1129 738.899 31.1129 731.229 Z" fill="#000000" fill-rule="nonzero" fill-opacity="1" /><path clip-path="url(#clip960)" d="M46.1041 675.529 L67.6202 675.529 L67.6202 681.385 L46.2951 681.385 Q41.2344 681.385 38.7199 683.359 Q36.2055 685.332 36.2055 689.279 Q36.2055 694.021 39.2292 696.758 Q42.2529 699.496 47.4728 699.496 L67.6202 699.496 L67.6202 705.384 L31.9723 705.384 L31.9723 699.496 L37.5104 699.496 Q34.2957 697.395 32.7043 694.562 Q31.1129 691.698 31.1129 687.974 Q31.1129 681.831 34.9323 678.68 Q38.7199 675.529 46.1041 675.529 Z" fill="#000000" fill-rule="nonzero" fill-opacity="1" /><path clip-path="url(#clip960)" d="M46.1041 613.495 L67.6202 613.495 L67.6202 619.351 L46.2951 619.351 Q41.2344 619.351 38.7199 621.325 Q36.2055 623.298 36.2055 627.245 Q36.2055 631.987 39.2292 634.725 Q42.2529 637.462 47.4728 637.462 L67.6202 637.462 L67.6202 643.35 L31.9723 643.35 L31.9723 637.462 L37.5104 637.462 Q34.2957 635.361 32.7043 632.528 Q31.1129 629.664 31.1129 625.94 Q31.1129 619.797 34.9323 616.646 Q38.7199 613.495 46.1041 613.495 Z" fill="#000000" fill-rule="nonzero" fill-opacity="1" /><path clip-path="url(#clip960)" d="M53.552 602.419 L31.9723 602.419 L31.9723 596.562 L53.3292 596.562 Q58.3899 596.562 60.9362 594.589 Q63.4507 592.615 63.4507 588.669 Q63.4507 583.926 60.427 581.189 Q57.4033 578.42 52.1834 578.42 L31.9723 578.42 L31.9723 572.563 L67.6202 572.563 L67.6202 578.42 L62.1457 578.42 Q65.3922 580.552 66.9836 583.385 Q68.5432 586.186 68.5432 589.91 Q68.5432 596.053 64.7238 599.236 Q60.9044 602.419 53.552 602.419 M31.1129 587.682 L31.1129 587.682 Z" fill="#000000" fill-rule="nonzero" fill-opacity="1" /><path clip-path="url(#clip960)" d="M38.8154 532.746 Q34.8687 530.55 32.9908 527.494 Q31.1129 524.439 31.1129 520.301 Q31.1129 514.731 35.0278 511.707 Q38.9109 508.684 46.1041 508.684 L67.6202 508.684 L67.6202 514.572 L46.2951 514.572 Q41.1707 514.572 38.6881 516.386 Q36.2055 518.2 36.2055 521.924 Q36.2055 526.476 39.2292 529.118 Q42.2529 531.759 47.4728 531.759 L67.6202 531.759 L67.6202 537.648 L46.2951 537.648 Q41.1389 537.648 38.6881 539.462 Q36.2055 541.276 36.2055 545.064 Q36.2055 549.551 39.261 552.193 Q42.2847 554.835 47.4728 554.835 L67.6202 554.835 L67.6202 560.723 L31.9723 560.723 L31.9723 554.835 L37.5104 554.835 Q34.2321 552.83 32.6725 550.029 Q31.1129 547.228 31.1129 543.377 Q31.1129 539.494 33.0863 536.788 Q35.0596 534.051 38.8154 532.746 Z" fill="#000000" fill-rule="nonzero" fill-opacity="1" /><path clip-path="url(#clip960)" d="M49.8281 471.412 Q43.3669 471.412 39.7066 474.086 Q36.0145 476.728 36.0145 481.375 Q36.0145 486.022 39.7066 488.695 Q43.3669 491.337 49.8281 491.337 Q56.2893 491.337 59.9814 488.695 Q63.6417 486.022 63.6417 481.375 Q63.6417 476.728 59.9814 474.086 Q56.2893 471.412 49.8281 471.412 M37.3831 491.337 Q34.2003 489.491 32.6725 486.69 Q31.1129 483.857 31.1129 479.942 Q31.1129 473.449 36.2691 469.407 Q41.4253 465.333 49.8281 465.333 Q58.2308 465.333 63.387 469.407 Q68.5432 473.449 68.5432 479.942 Q68.5432 483.857 67.0155 486.69 Q65.4559 489.491 62.273 491.337 L67.6202 491.337 L67.6202 497.225 L18.095 497.225 L18.095 491.337 L37.3831 491.337 Z" fill="#000000" fill-rule="nonzero" fill-opacity="1" /><path clip-path="url(#clip960)" d="M48.3321 425.134 L51.1967 425.134 L51.1967 452.061 Q57.2441 451.679 60.427 448.432 Q63.578 445.154 63.578 439.329 Q63.578 435.955 62.7505 432.804 Q61.9229 429.622 60.2678 426.502 L65.806 426.502 Q67.1428 429.653 67.843 432.964 Q68.5432 436.274 68.5432 439.679 Q68.5432 448.209 63.578 453.206 Q58.6127 458.172 50.1464 458.172 Q41.3935 458.172 36.2691 453.461 Q31.1129 448.719 31.1129 440.698 Q31.1129 433.505 35.7599 429.335 Q40.375 425.134 48.3321 425.134 M46.6134 430.99 Q41.8073 431.054 38.9427 433.696 Q36.0781 436.306 36.0781 440.634 Q36.0781 445.536 38.8472 448.496 Q41.6163 451.424 46.6452 451.87 L46.6134 430.99 Z" fill="#000000" fill-rule="nonzero" fill-opacity="1" /><path clip-path="url(#clip960)" d="M37.4468 394.865 Q36.8739 395.851 36.6192 397.029 Q36.3328 398.175 36.3328 399.575 Q36.3328 404.541 39.5793 407.214 Q42.794 409.856 48.8414 409.856 L67.6202 409.856 L67.6202 415.744 L31.9723 415.744 L31.9723 409.856 L37.5104 409.856 Q34.2639 408.01 32.7043 405.05 Q31.1129 402.09 31.1129 397.857 Q31.1129 397.252 31.2084 396.52 Q31.272 395.788 31.4312 394.897 L37.4468 394.865 Z" fill="#000000" fill-rule="nonzero" fill-opacity="1" /><path clip-path="url(#clip962)" d="M355.627 1310.62 L382.749 1308.21 L409.871 1304.32 L436.993 1304.02 L464.115 1299.81 L491.237 1296.44 L518.359 1292.93 L545.481 1290.91 L572.603 1289.14 L599.725 1287.22 L626.847 1287.72 L653.969 1287.59 L681.091 1281.94 L708.213 1272.61 L735.336 1259.93 L762.458 1240.82 L789.58 1220.31 L816.702 1195.17 L843.824 1166.44 L870.946 1127.36 L898.068 1096.7 L925.19 1090.1 L952.312 1063 L979.434 1071.13 L1006.56 1047.01 L1033.68 1018.84 L1060.8 1051.65 L1087.92 1060.41 L1115.04 1075.88 L1142.17 1135.21 L1169.29 1186.81 L1196.41 1225.28 L1223.53 1248.31 L1250.65 1272.97 L1277.78 1267.6 L1304.9 1270.58 L1332.02 1269.94 L1359.14 1278.43 L1386.26 1285.45 L1413.39 1297.92 L1440.51 1313.04 L1467.63 1326.69 L1494.75 1333.37 L1521.87 1331.95 L1549 1337.48 L1576.12 1341.58 L1603.24 1345.55 L1630.36 1348.59 L1657.48 1348.18 L1684.61 1348.18 L1711.73 1346.23 L1738.85 1346.86 L1765.97 1348.4 L1793.09 1349.46 L1820.22 1351.18 L1847.34 1351.3 L1874.46 1350.71 L1901.58 1350.09 L1928.7 1349.17 L1955.83 1349.22 L1982.95 1350.11 L2010.07 1350.55 L2037.19 1351.38 L2064.31 1350.62 L2091.44 1350.53 L2118.56 1349.7 L2145.68 1351.46 L2172.8 1351.74 L2199.92 1351.76 L2227.05 1351.34 L2254.17 1350.59 L2281.29 1350.89 L2308.41 1350.86 L2335.53 1351.67 L2362.66 1352.33 L2389.78 1354.03 L2416.9 1355.13 L2444.02 1355.8 L2471.14 1356.38 L2498.27 1357.18 L2525.39 1358.59 L2552.51 1359.78 L2579.63 1360.7 L2606.76 1361.57 L2633.88 1362.22 L2661 1362.86 L2688.12 1363.45 L2715.24 1364.16 L2742.37 1364.98 L2769.49 1365.65 L2796.61 1366.33 L2823.73 1366.81 L2850.85 1367.29 L2877.98 1367.66 L2905.1 1368.12 L2932.22 1368.49 L2959.34 1368.84 L2986.46 1369.12 L3013.59 1369.39 L3040.71 1369.63 L3040.71 1234.04 L3013.59 1240.33 L2986.46 1247.65 L2959.34 1252.81 L2932.22 1258.27 L2905.1 1263.46 L2877.98 1267.3 L2850.85 1271.54 L2823.73 1274.82 L2796.61 1277.99 L2769.49 1279.53 L2742.37 1280.52 L2715.24 1281.44 L2688.12 1281.44 L2661 1286.03 L2633.88 1288.46 L2606.76 1289.99 L2579.63 1291.39 L2552.51 1290.2 L2525.39 1289.34 L2498.27 1288.18 L2471.14 1288.44 L2444.02 1290.03 L2416.9 1289.45 L2389.78 1286.26 L2362.66 1283.14 L2335.53 1283.15 L2308.41 1284.15 L2281.29 1286.14 L2254.17 1288.6 L2227.05 1291.25 L2199.92 1297.26 L2172.8 1299.23 L2145.68 1299.67 L2118.56 1297.08 L2091.44 1298.67 L2064.31 1303.16 L2037.19 1306.5 L2010.07 1306.15 L1982.95 1305.98 L1955.83 1306.31 L1928.7 1307.91 L1901.58 1311.07 L1874.46 1314.19 L1847.34 1316.4 L1820.22 1319.25 L1793.09 1316.14 L1765.97 1314.94 L1738.85 1313.72 L1711.73 1314.15 L1684.61 1317.92 L1657.48 1319.77 L1630.36 1321.05 L1603.24 1316.13 L1576.12 1311.21 L1549 1306.13 L1521.87 1297.43 L1494.75 1299.9 L1467.63 1290.29 L1440.51 1270.32 L1413.39 1246.98 L1386.26 1229.41 L1359.14 1219.56 L1332.02 1206.47 L1304.9 1206.41 L1277.78 1200.12 L1250.65 1205.33 L1223.53 1167.73 L1196.41 1127.11 L1169.29 1069.57 L1142.17 979.615 L1115.04 864.215 L1087.92 829.088 L1060.8 783.575 L1033.68 696.172 L1006.56 717.922 L979.434 743.708 L952.312 688.101 L925.19 712.08 L898.068 667.816 L870.946 700.589 L843.824 790.298 L816.702 830.205 L789.58 873.702 L762.458 914.772 L735.336 968.264 L708.213 992.097 L681.091 995.147 L653.969 1002.99 L626.847 986.509 L599.725 977.534 L572.603 948.121 L545.481 907.684 L518.359 881.562 L491.237 860.737 L464.115 829.833 L436.993 810.305 L409.871 786.209 L382.749 718.384 L355.627 616.768  Z" fill="#90ee90" fill-rule="evenodd" fill-opacity="0.5"/>
<polyline clip-path="url(#clip962)" style="stroke:#90ee90; stroke-linecap:round; stroke-linejoin:round; stroke-width:4; stroke-opacity:1; fill:none" points="355.627,1104.56 382.749,1120.82 409.871,1132.02 436.993,1138.45 464.115,1142.75 491.237,1142.23 518.359,1144.92 545.481,1146.46 572.603,1152.19 599.725,1161.43 626.847,1170 653.969,1173.84 681.091,1168.94 708.213,1158.62 735.336,1140.23 762.458,1110.18 789.58,1080.76 816.702,1047.95 843.824,1010.92 870.946,955.111 898.068,917.148 925.19,929.621 952.312,905.019 979.434,928.138 1006.56,901.979 1033.68,877.678 1060.8,931.401 1087.92,955.956 1115.04,979.694 1142.17,1062.82 1169.29,1132.4 1196.41,1180.01 1223.53,1211.08 1250.65,1241.16 1277.78,1235.47 1304.9,1240.58 1332.02,1241.05 1359.14,1251.14 1386.26,1259.38 1413.39,1274.37 1440.51,1294.1 1467.63,1309.88 1494.75,1317.79 1521.87,1316.02 1549,1323.13 1576.12,1327.75 1603.24,1332.21 1630.36,1335.89 1657.48,1335.12 1684.61,1334.82 1711.73,1332.22 1738.85,1332.74 1765.97,1333.71 1793.09,1334.94 1820.22,1337.08 1847.34,1336.16 1874.46,1335.04 1901.58,1333.5 1928.7,1331.73 1955.83,1331.06 1982.95,1331.76 2010.07,1332.17 2037.19,1332.41 2064.31,1331.1 2091.44,1329.43 2118.56,1328.28 2145.68,1330.19 2172.8,1329.9 2199.92,1329.37 2227.05,1326.97 2254.17,1325.46 2281.29,1324.89 2308.41,1324.71 2335.53,1324.82 2362.66,1325.71 2389.78,1328.36 2416.9,1329.87 2444.02,1330.38 2471.14,1330.12 2498.27,1330.8 2525.39,1332.64 2552.51,1333.96 2579.63,1334.88 2606.76,1335.3 2633.88,1335.38 2661,1335.11 2688.12,1334.6 2715.24,1335.46 2742.37,1336.08 2769.49,1336.5 2796.61,1336.73 2823.73,1336.8 2850.85,1336.79 2877.98,1336.53 2905.1,1336.3 2932.22,1335.82 2959.34,1335.3 2986.46,1334.72 3013.59,1334.04 3040.71,1333.27 "/>
<path clip-path="url(#clip962)" d="M355.627 1290.14 L382.749 1292.44 L409.871 1286.13 L436.993 1284.02 L464.115 1286.52 L491.237 1299.42 L518.359 1311.02 L545.481 1310.02 L572.603 1306.87 L599.725 1300.74 L626.847 1286.19 L653.969 1261.49 L681.091 1243.95 L708.213 1209.29 L735.336 1168.04 L762.458 1125.93 L789.58 1100.85 L816.702 1093.76 L843.824 1109.78 L870.946 1125.03 L898.068 1101.17 L925.19 1081.26 L952.312 1082.71 L979.434 1101.9 L1006.56 1144.71 L1033.68 1214.51 L1060.8 1275.7 L1087.92 1308.97 L1115.04 1318.02 L1142.17 1316.18 L1169.29 1306.93 L1196.41 1291.64 L1223.53 1290.57 L1250.65 1302.21 L1277.78 1322.85 L1304.9 1337.41 L1332.02 1347.84 L1359.14 1351.89 L1386.26 1353.11 L1413.39 1353.86 L1440.51 1354.98 L1467.63 1356.89 L1494.75 1357.81 L1521.87 1357.75 L1549 1356.51 L1576.12 1355.73 L1603.24 1355.86 L1630.36 1355.66 L1657.48 1357.83 L1684.61 1359.35 L1711.73 1359.57 L1738.85 1359.05 L1765.97 1358.03 L1793.09 1357.59 L1820.22 1357.6 L1847.34 1358.1 L1874.46 1358.55 L1901.58 1358.98 L1928.7 1359.13 L1955.83 1359.38 L1982.95 1359.69 L2010.07 1360.18 L2037.19 1360.29 L2064.31 1359.93 L2091.44 1359.6 L2118.56 1359.51 L2145.68 1359.59 L2172.8 1360.13 L2199.92 1360.99 L2227.05 1362.16 L2254.17 1363.51 L2281.29 1364.64 L2308.41 1365.63 L2335.53 1366.43 L2362.66 1367.32 L2389.78 1368.2 L2416.9 1368.93 L2444.02 1369.76 L2471.14 1370.24 L2498.27 1370.74 L2525.39 1371.23 L2552.51 1371.71 L2579.63 1372.06 L2606.76 1372.45 L2633.88 1372.73 L2661 1372.99 L2688.12 1373.24 L2715.24 1373.45 L2742.37 1373.61 L2769.49 1373.76 L2796.61 1373.87 L2823.73 1373.97 L2850.85 1374.08 L2877.98 1374.15 L2905.1 1374.21 L2932.22 1374.26 L2959.34 1374.33 L2986.46 1374.38 L3013.59 1374.43 L3040.71 1374.46 L3040.71 1024.1 L3013.59 1053.52 L2986.46 1082.33 L2959.34 1108.3 L2932.22 1134.09 L2905.1 1157.86 L2877.98 1177.45 L2850.85 1194.42 L2823.73 1208.11 L2796.61 1220.3 L2769.49 1231.56 L2742.37 1239.63 L2715.24 1245.89 L2688.12 1251.83 L2661 1257.97 L2633.88 1260.99 L2606.76 1263.44 L2579.63 1264.18 L2552.51 1267.37 L2525.39 1269.92 L2498.27 1272.63 L2471.14 1273.01 L2444.02 1273.64 L2416.9 1274.12 L2389.78 1273.24 L2362.66 1273.76 L2335.53 1272.71 L2308.41 1270.08 L2281.29 1268.3 L2254.17 1263.17 L2227.05 1258.2 L2199.92 1255.61 L2172.8 1254.01 L2145.68 1255.96 L2118.56 1262.36 L2091.44 1270.81 L2064.31 1274.2 L2037.19 1275.91 L2010.07 1276.16 L1982.95 1279.54 L1955.83 1282.63 L1928.7 1285.88 L1901.58 1288.33 L1874.46 1287.28 L1847.34 1288.28 L1820.22 1287.27 L1793.09 1291.86 L1765.97 1298.47 L1738.85 1302.97 L1711.73 1304.1 L1684.61 1305.61 L1657.48 1301.98 L1630.36 1298.94 L1603.24 1296.59 L1576.12 1300.99 L1549 1306.2 L1521.87 1310.21 L1494.75 1310.39 L1467.63 1310.2 L1440.51 1304.32 L1413.39 1304.09 L1386.26 1302.77 L1359.14 1298.95 L1332.02 1285.86 L1304.9 1261.33 L1277.78 1223.85 L1250.65 1179.24 L1223.53 1137.89 L1196.41 1149.55 L1169.29 1184.53 L1142.17 1201.31 L1115.04 1196.66 L1087.92 1164.05 L1060.8 1093.84 L1033.68 940.338 L1006.56 769.27 L979.434 602.188 L952.312 478.728 L925.19 516.857 L898.068 505.512 L870.946 472.682 L843.824 422.829 L816.702 227.22 L789.58 116.48 L762.458 170.75 L735.336 247.162 L708.213 463.672 L681.091 553.285 L653.969 651.063 L626.847 695.89 L599.725 751.441 L572.603 820.901 L545.481 791.193 L518.359 781.875 L491.237 696.738 L464.115 617.816 L436.993 523.666 L409.871 436.465 L382.749 396.672 L355.627 379.453  Z" fill="#006400" fill-rule="evenodd" fill-opacity="0.5"/>
<polyline clip-path="url(#clip962)" style="stroke:#006400; stroke-linecap:round; stroke-linejoin:round; stroke-width:4; stroke-opacity:1; fill:none" points="355.627,945.841 382.749,981.42 409.871,1005.59 436.993,1040.79 464.115,1066.6 491.237,1094.19 518.359,1117.65 545.481,1125.96 572.603,1126.94 599.725,1105.08 626.847,1077.68 653.969,1042.94 681.091,983.445 708.213,930.841 735.336,853.127 762.458,796.02 789.58,765.149 816.702,785.324 843.824,832.248 870.946,852.654 898.068,856.579 925.19,849.269 952.312,844.754 979.434,900.07 1006.56,997.101 1033.68,1098.79 1060.8,1190.76 1087.92,1239.8 1115.04,1259.56 1142.17,1261.91 1169.29,1252.79 1196.41,1235.87 1223.53,1231.24 1250.65,1252.08 1277.78,1279.74 1304.9,1303.88 1332.02,1319.45 1359.14,1327.85 1386.26,1331.37 1413.39,1332.75 1440.51,1334.33 1467.63,1336.88 1494.75,1338.19 1521.87,1338.09 1549,1336.22 1576.12,1334.15 1603.24,1333.14 1630.36,1333.72 1657.48,1335.55 1684.61,1337.33 1711.73,1337.51 1738.85,1336.51 1765.97,1334.14 1793.09,1332.21 1820.22,1331.15 1847.34,1331.23 1874.46,1331.78 1901.58,1332.24 1928.7,1331.67 1955.83,1330.7 1982.95,1330.03 2010.07,1329.81 2037.19,1329.74 2064.31,1329.45 2091.44,1328.17 2118.56,1326.08 2145.68,1324.51 2172.8,1324.36 2199.92,1325.53 2227.05,1327.33 2254.17,1329.51 2281.29,1331.65 2308.41,1333.6 2335.53,1335.18 2362.66,1336.4 2389.78,1337.37 2416.9,1338.56 2444.02,1339.43 2471.14,1340.15 2498.27,1340.58 2525.39,1340.91 2552.51,1341.14 2579.63,1341.45 2606.76,1341.97 2633.88,1342.35 2661,1342.58 2688.12,1342.33 2715.24,1342.07 2742.37,1341.41 2769.49,1340.56 2796.61,1339.39 2823.73,1337.9 2850.85,1336.29 2877.98,1334.32 2905.1,1332.05 2932.22,1329.35 2959.34,1326.17 2986.46,1322.59 3013.59,1318.8 3040.71,1314.55 "/>
<path clip-path="url(#clip960)" d="M2414.87 278.709 L3026.39 278.709 L3026.39 123.189 L2414.87 123.189  Z" fill="#ffffff" fill-rule="evenodd" fill-opacity="1"/>
<polyline clip-path="url(#clip960)" style="stroke:#000000; stroke-linecap:round; stroke-linejoin:round; stroke-width:4; stroke-opacity:1; fill:none" points="2414.87,278.709 3026.39,278.709 3026.39,123.189 2414.87,123.189 2414.87,278.709 "/>
<polyline clip-path="url(#clip960)" style="stroke:#90ee90; stroke-linecap:round; stroke-linejoin:round; stroke-width:4; stroke-opacity:1; fill:none" points="2446.5,175.029 2636.24,175.029 "/>
<path clip-path="url(#clip960)" d="M2667.87 157.749 L2672.59 157.749 L2679.86 186.962 L2687.1 157.749 L2692.36 157.749 L2699.63 186.962 L2706.87 157.749 L2711.62 157.749 L2702.94 192.309 L2697.06 192.309 L2689.76 162.309 L2682.4 192.309 L2676.52 192.309 L2667.87 157.749 Z" fill="#000000" fill-rule="nonzero" fill-opacity="1" /><path clip-path="url(#clip960)" d="M2716.59 166.383 L2720.85 166.383 L2720.85 192.309 L2716.59 192.309 L2716.59 166.383 M2716.59 156.291 L2720.85 156.291 L2720.85 161.684 L2716.59 161.684 L2716.59 156.291 Z" fill="#000000" fill-rule="nonzero" fill-opacity="1" /><path clip-path="url(#clip960)" d="M2733.98 159.022 L2733.98 166.383 L2742.75 166.383 L2742.75 169.693 L2733.98 169.693 L2733.98 183.767 Q2733.98 186.939 2734.83 187.841 Q2735.71 188.744 2738.38 188.744 L2742.75 188.744 L2742.75 192.309 L2738.38 192.309 Q2733.44 192.309 2731.57 190.48 Q2729.69 188.628 2729.69 183.767 L2729.69 169.693 L2726.57 169.693 L2726.57 166.383 L2729.69 166.383 L2729.69 159.022 L2733.98 159.022 Z" fill="#000000" fill-rule="nonzero" fill-opacity="1" /><path clip-path="url(#clip960)" d="M2769.9 176.661 L2769.9 192.309 L2765.64 192.309 L2765.64 176.8 Q2765.64 173.119 2764.21 171.291 Q2762.77 169.462 2759.9 169.462 Q2756.45 169.462 2754.46 171.661 Q2752.47 173.86 2752.47 177.656 L2752.47 192.309 L2748.19 192.309 L2748.19 156.291 L2752.47 156.291 L2752.47 170.411 Q2754 168.073 2756.06 166.916 Q2758.14 165.758 2760.85 165.758 Q2765.32 165.758 2767.61 168.536 Q2769.9 171.291 2769.9 176.661 Z" fill="#000000" fill-rule="nonzero" fill-opacity="1" /><path clip-path="url(#clip960)" d="M2788.44 169.369 Q2785.02 169.369 2783.03 172.054 Q2781.04 174.716 2781.04 179.369 Q2781.04 184.022 2783 186.707 Q2785 189.369 2788.44 189.369 Q2791.85 189.369 2793.84 186.684 Q2795.83 183.999 2795.83 179.369 Q2795.83 174.763 2793.84 172.078 Q2791.85 169.369 2788.44 169.369 M2788.44 165.758 Q2794 165.758 2797.17 169.369 Q2800.34 172.98 2800.34 179.369 Q2800.34 185.735 2797.17 189.369 Q2794 192.98 2788.44 192.98 Q2782.87 192.98 2779.69 189.369 Q2776.55 185.735 2776.55 179.369 Q2776.55 172.98 2779.69 169.369 Q2782.87 165.758 2788.44 165.758 Z" fill="#000000" fill-rule="nonzero" fill-opacity="1" /><path clip-path="url(#clip960)" d="M2806.96 182.078 L2806.96 166.383 L2811.22 166.383 L2811.22 181.915 Q2811.22 185.596 2812.66 187.448 Q2814.09 189.277 2816.96 189.277 Q2820.41 189.277 2822.4 187.077 Q2824.42 184.878 2824.42 181.082 L2824.42 166.383 L2828.68 166.383 L2828.68 192.309 L2824.42 192.309 L2824.42 188.327 Q2822.87 190.689 2820.81 191.846 Q2818.77 192.98 2816.06 192.98 Q2811.59 192.98 2809.28 190.202 Q2806.96 187.425 2806.96 182.078 M2817.68 165.758 L2817.68 165.758 Z" fill="#000000" fill-rule="nonzero" fill-opacity="1" /><path clip-path="url(#clip960)" d="M2841.66 159.022 L2841.66 166.383 L2850.43 166.383 L2850.43 169.693 L2841.66 169.693 L2841.66 183.767 Q2841.66 186.939 2842.52 187.841 Q2843.4 188.744 2846.06 188.744 L2850.43 188.744 L2850.43 192.309 L2846.06 192.309 Q2841.13 192.309 2839.25 190.48 Q2837.38 188.628 2837.38 183.767 L2837.38 169.693 L2834.25 169.693 L2834.25 166.383 L2837.38 166.383 L2837.38 159.022 L2841.66 159.022 Z" fill="#000000" fill-rule="nonzero" fill-opacity="1" /><path clip-path="url(#clip960)" d="M2888.17 170.318 L2888.17 156.291 L2892.43 156.291 L2892.43 192.309 L2888.17 192.309 L2888.17 188.42 Q2886.82 190.735 2884.76 191.869 Q2882.73 192.98 2879.86 192.98 Q2875.16 192.98 2872.19 189.23 Q2869.25 185.48 2869.25 179.369 Q2869.25 173.258 2872.19 169.508 Q2875.16 165.758 2879.86 165.758 Q2882.73 165.758 2884.76 166.892 Q2886.82 168.004 2888.17 170.318 M2873.65 179.369 Q2873.65 184.068 2875.57 186.753 Q2877.52 189.415 2880.9 189.415 Q2884.28 189.415 2886.22 186.753 Q2888.17 184.068 2888.17 179.369 Q2888.17 174.67 2886.22 172.008 Q2884.28 169.323 2880.9 169.323 Q2877.52 169.323 2875.57 172.008 Q2873.65 174.67 2873.65 179.369 Z" fill="#000000" fill-rule="nonzero" fill-opacity="1" /><path clip-path="url(#clip960)" d="M2923.37 178.281 L2923.37 180.365 L2903.79 180.365 Q2904.07 184.763 2906.43 187.077 Q2908.81 189.369 2913.05 189.369 Q2915.5 189.369 2917.8 188.767 Q2920.11 188.165 2922.38 186.962 L2922.38 190.99 Q2920.09 191.962 2917.68 192.471 Q2915.27 192.98 2912.8 192.98 Q2906.59 192.98 2902.96 189.369 Q2899.35 185.758 2899.35 179.601 Q2899.35 173.235 2902.77 169.508 Q2906.22 165.758 2912.05 165.758 Q2917.29 165.758 2920.32 169.138 Q2923.37 172.494 2923.37 178.281 M2919.11 177.031 Q2919.07 173.536 2917.15 171.453 Q2915.25 169.369 2912.1 169.369 Q2908.54 169.369 2906.38 171.383 Q2904.25 173.397 2903.93 177.054 L2919.11 177.031 Z" fill="#000000" fill-rule="nonzero" fill-opacity="1" /><path clip-path="url(#clip960)" d="M2930.36 156.291 L2934.62 156.291 L2934.62 192.309 L2930.36 192.309 L2930.36 156.291 Z" fill="#000000" fill-rule="nonzero" fill-opacity="1" /><path clip-path="url(#clip960)" d="M2955.32 179.277 Q2950.16 179.277 2948.17 180.457 Q2946.18 181.638 2946.18 184.485 Q2946.18 186.753 2947.66 188.096 Q2949.16 189.415 2951.73 189.415 Q2955.27 189.415 2957.4 186.915 Q2959.55 184.392 2959.55 180.226 L2959.55 179.277 L2955.32 179.277 M2963.81 177.517 L2963.81 192.309 L2959.55 192.309 L2959.55 188.374 Q2958.1 190.735 2955.92 191.869 Q2953.74 192.98 2950.6 192.98 Q2946.61 192.98 2944.25 190.758 Q2941.92 188.513 2941.92 184.763 Q2941.92 180.388 2944.83 178.166 Q2947.77 175.943 2953.58 175.943 L2959.55 175.943 L2959.55 175.527 Q2959.55 172.587 2957.61 170.99 Q2955.69 169.369 2952.19 169.369 Q2949.97 169.369 2947.86 169.902 Q2945.76 170.434 2943.81 171.499 L2943.81 167.564 Q2946.15 166.661 2948.35 166.221 Q2950.55 165.758 2952.63 165.758 Q2958.26 165.758 2961.04 168.675 Q2963.81 171.591 2963.81 177.517 Z" fill="#000000" fill-rule="nonzero" fill-opacity="1" /><path clip-path="url(#clip960)" d="M2983.37 194.716 Q2981.57 199.346 2979.86 200.758 Q2978.14 202.17 2975.27 202.17 L2971.87 202.17 L2971.87 198.605 L2974.37 198.605 Q2976.13 198.605 2977.1 197.772 Q2978.07 196.939 2979.25 193.837 L2980.02 191.892 L2969.53 166.383 L2974.05 166.383 L2982.15 186.661 L2990.25 166.383 L2994.76 166.383 L2983.37 194.716 Z" fill="#000000" fill-rule="nonzero" fill-opacity="1" /><polyline clip-path="url(#clip960)" style="stroke:#006400; stroke-linecap:round; stroke-linejoin:round; stroke-width:4; stroke-opacity:1; fill:none" points="2446.5,226.869 2636.24,226.869 "/>
<path clip-path="url(#clip960)" d="M2667.87 209.589 L2672.59 209.589 L2679.86 238.802 L2687.1 209.589 L2692.36 209.589 L2699.63 238.802 L2706.87 209.589 L2711.62 209.589 L2702.94 244.149 L2697.06 244.149 L2689.76 214.149 L2682.4 244.149 L2676.52 244.149 L2667.87 209.589 Z" fill="#000000" fill-rule="nonzero" fill-opacity="1" /><path clip-path="url(#clip960)" d="M2716.59 218.223 L2720.85 218.223 L2720.85 244.149 L2716.59 244.149 L2716.59 218.223 M2716.59 208.131 L2720.85 208.131 L2720.85 213.524 L2716.59 213.524 L2716.59 208.131 Z" fill="#000000" fill-rule="nonzero" fill-opacity="1" /><path clip-path="url(#clip960)" d="M2733.98 210.862 L2733.98 218.223 L2742.75 218.223 L2742.75 221.533 L2733.98 221.533 L2733.98 235.607 Q2733.98 238.779 2734.83 239.681 Q2735.71 240.584 2738.38 240.584 L2742.75 240.584 L2742.75 244.149 L2738.38 244.149 Q2733.44 244.149 2731.57 242.32 Q2729.69 240.468 2729.69 235.607 L2729.69 221.533 L2726.57 221.533 L2726.57 218.223 L2729.69 218.223 L2729.69 210.862 L2733.98 210.862 Z" fill="#000000" fill-rule="nonzero" fill-opacity="1" /><path clip-path="url(#clip960)" d="M2769.9 228.501 L2769.9 244.149 L2765.64 244.149 L2765.64 228.64 Q2765.64 224.959 2764.21 223.131 Q2762.77 221.302 2759.9 221.302 Q2756.45 221.302 2754.46 223.501 Q2752.47 225.7 2752.47 229.496 L2752.47 244.149 L2748.19 244.149 L2748.19 208.131 L2752.47 208.131 L2752.47 222.251 Q2754 219.913 2756.06 218.756 Q2758.14 217.598 2760.85 217.598 Q2765.32 217.598 2767.61 220.376 Q2769.9 223.131 2769.9 228.501 Z" fill="#000000" fill-rule="nonzero" fill-opacity="1" /><path clip-path="url(#clip960)" d="M2810.53 222.158 L2810.53 208.131 L2814.79 208.131 L2814.79 244.149 L2810.53 244.149 L2810.53 240.26 Q2809.19 242.575 2807.12 243.709 Q2805.09 244.82 2802.22 244.82 Q2797.52 244.82 2794.56 241.07 Q2791.62 237.32 2791.62 231.209 Q2791.62 225.098 2794.56 221.348 Q2797.52 217.598 2802.22 217.598 Q2805.09 217.598 2807.12 218.732 Q2809.19 219.844 2810.53 222.158 M2796.01 231.209 Q2796.01 235.908 2797.94 238.593 Q2799.88 241.255 2803.26 241.255 Q2806.64 241.255 2808.58 238.593 Q2810.53 235.908 2810.53 231.209 Q2810.53 226.51 2808.58 223.848 Q2806.64 221.163 2803.26 221.163 Q2799.88 221.163 2797.94 223.848 Q2796.01 226.51 2796.01 231.209 Z" fill="#000000" fill-rule="nonzero" fill-opacity="1" /><path clip-path="url(#clip960)" d="M2845.74 230.121 L2845.74 232.205 L2826.15 232.205 Q2826.43 236.603 2828.79 238.917 Q2831.18 241.209 2835.41 241.209 Q2837.87 241.209 2840.16 240.607 Q2842.47 240.005 2844.74 238.802 L2844.74 242.83 Q2842.45 243.802 2840.04 244.311 Q2837.63 244.82 2835.16 244.82 Q2828.95 244.82 2825.32 241.209 Q2821.71 237.598 2821.71 231.441 Q2821.71 225.075 2825.13 221.348 Q2828.58 217.598 2834.42 217.598 Q2839.65 217.598 2842.68 220.978 Q2845.74 224.334 2845.74 230.121 M2841.48 228.871 Q2841.43 225.376 2839.51 223.293 Q2837.61 221.209 2834.46 221.209 Q2830.9 221.209 2828.75 223.223 Q2826.62 225.237 2826.29 228.894 L2841.48 228.871 Z" fill="#000000" fill-rule="nonzero" fill-opacity="1" /><path clip-path="url(#clip960)" d="M2852.73 208.131 L2856.99 208.131 L2856.99 244.149 L2852.73 244.149 L2852.73 208.131 Z" fill="#000000" fill-rule="nonzero" fill-opacity="1" /><path clip-path="url(#clip960)" d="M2877.68 231.117 Q2872.52 231.117 2870.53 232.297 Q2868.54 233.478 2868.54 236.325 Q2868.54 238.593 2870.02 239.936 Q2871.52 241.255 2874.09 241.255 Q2877.63 241.255 2879.76 238.755 Q2881.92 236.232 2881.92 232.066 L2881.92 231.117 L2877.68 231.117 M2886.18 229.357 L2886.18 244.149 L2881.92 244.149 L2881.92 240.214 Q2880.46 242.575 2878.28 243.709 Q2876.11 244.82 2872.96 244.82 Q2868.98 244.82 2866.62 242.598 Q2864.28 240.353 2864.28 236.603 Q2864.28 232.228 2867.19 230.006 Q2870.13 227.783 2875.94 227.783 L2881.92 227.783 L2881.92 227.367 Q2881.92 224.427 2879.97 222.83 Q2878.05 221.209 2874.56 221.209 Q2872.33 221.209 2870.23 221.742 Q2868.12 222.274 2866.18 223.339 L2866.18 219.404 Q2868.51 218.501 2870.71 218.061 Q2872.91 217.598 2874.99 217.598 Q2880.62 217.598 2883.4 220.515 Q2886.18 223.431 2886.18 229.357 Z" fill="#000000" fill-rule="nonzero" fill-opacity="1" /><path clip-path="url(#clip960)" d="M2905.74 246.556 Q2903.93 251.186 2902.22 252.598 Q2900.5 254.01 2897.63 254.01 L2894.23 254.01 L2894.23 250.445 L2896.73 250.445 Q2898.49 250.445 2899.46 249.612 Q2900.43 248.779 2901.62 245.677 L2902.38 243.732 L2891.89 218.223 L2896.41 218.223 L2904.51 238.501 L2912.61 218.223 L2917.12 218.223 L2905.74 246.556 Z" fill="#000000" fill-rule="nonzero" fill-opacity="1" /></svg>
