<?xml version="1.0" encoding="utf-8"?>
<svg xmlns="http://www.w3.org/2000/svg" xmlns:xlink="http://www.w3.org/1999/xlink" width="800" height="300" viewBox="0 0 3200 1200">
<defs>
  <clipPath id="clip420">
    <rect x="0" y="0" width="3200" height="1200"/>
  </clipPath>
</defs>
<path clip-path="url(#clip420)" d="M0 1200 L3200 1200 L3200 0 L0 0  Z" fill="#ffffff" fill-rule="evenodd" fill-opacity="1"/>
<defs>
  <clipPath id="clip421">
    <rect x="640" y="0" width="2241" height="1200"/>
  </clipPath>
</defs>
<path clip-path="url(#clip420)" d="M194.151 1031.59 L3121.26 1031.59 L3121.26 78.7402 L194.151 78.7402  Z" fill="#ffffff" fill-rule="evenodd" fill-opacity="1"/>
<defs>
  <clipPath id="clip422">
    <rect x="194" y="78" width="2928" height="954"/>
  </clipPath>
</defs>
<polyline clip-path="url(#clip422)" style="stroke:#000000; stroke-linecap:round; stroke-linejoin:round; stroke-width:2; stroke-opacity:0.1; fill:none" points="249.101,1031.59 249.101,78.7402 "/>
<polyline clip-path="url(#clip422)" style="stroke:#000000; stroke-linecap:round; stroke-linejoin:round; stroke-width:2; stroke-opacity:0.1; fill:none" points="946.43,1031.59 946.43,78.7402 "/>
<polyline clip-path="url(#clip422)" style="stroke:#000000; stroke-linecap:round; stroke-linejoin:round; stroke-width:2; stroke-opacity:0.1; fill:none" points="1643.76,1031.59 1643.76,78.7402 "/>
<polyline clip-path="url(#clip422)" style="stroke:#000000; stroke-linecap:round; stroke-linejoin:round; stroke-width:2; stroke-opacity:0.1; fill:none" points="2341.09,1031.59 2341.09,78.7402 "/>
<polyline clip-path="url(#clip422)" style="stroke:#000000; stroke-linecap:round; stroke-linejoin:round; stroke-width:2; stroke-opacity:0.1; fill:none" points="3038.42,1031.59 3038.42,78.7402 "/>
<polyline clip-path="url(#clip420)" style="stroke:#000000; stroke-linecap:round; stroke-linejoin:round; stroke-width:4; stroke-opacity:1; fill:none" points="194.151,1031.59 3121.26,1031.59 "/>
<polyline clip-path="url(#clip420)" style="stroke:#000000; stroke-linecap:round; stroke-linejoin:round; stroke-width:4; stroke-opacity:1; fill:none" points="249.101,1031.59 249.101,1012.7 "/>
<polyline clip-path="url(#clip420)" style="stroke:#000000; stroke-linecap:round; stroke-linejoin:round; stroke-width:4; stroke-opacity:1; fill:none" points="946.43,1031.59 946.43,1012.7 "/>
<polyline clip-path="url(#clip420)" style="stroke:#000000; stroke-linecap:round; stroke-linejoin:round; stroke-width:4; stroke-opacity:1; fill:none" points="1643.76,1031.59 1643.76,1012.7 "/>
<polyline clip-path="url(#clip420)" style="stroke:#000000; stroke-linecap:round; stroke-linejoin:round; stroke-width:4; stroke-opacity:1; fill:none" points="2341.09,1031.59 2341.09,1012.7 "/>
<polyline clip-path="url(#clip420)" style="stroke:#000000; stroke-linecap:round; stroke-linejoin:round; stroke-width:4; stroke-opacity:1; fill:none" points="3038.42,1031.59 3038.42,1012.7 "/>
<path clip-path="url(#clip420)" d="M249.101 1068.91 Q245.49 1068.91 243.661 1072.48 Q241.855 1076.02 241.855 1083.15 Q241.855 1090.25 243.661 1093.82 Q245.49 1097.36 249.101 1097.36 Q252.735 1097.36 254.541 1093.82 Q256.369 1090.25 256.369 1083.15 Q256.369 1076.02 254.541 1072.48 Q252.735 1068.91 249.101 1068.91 M249.101 1065.21 Q254.911 1065.21 257.966 1069.82 Q261.045 1074.4 261.045 1083.15 Q261.045 1091.88 257.966 1096.48 Q254.911 1101.07 249.101 1101.07 Q243.291 1101.07 240.212 1096.48 Q237.156 1091.88 237.156 1083.15 Q237.156 1074.4 240.212 1069.82 Q243.291 1065.21 249.101 1065.21 Z" fill="#000000" fill-rule="nonzero" fill-opacity="1" /><path clip-path="url(#clip420)" d="M925.701 1096.46 L942.02 1096.46 L942.02 1100.39 L920.076 1100.39 L920.076 1096.46 Q922.738 1093.7 927.321 1089.07 Q931.928 1084.42 933.108 1083.08 Q935.354 1080.56 936.233 1078.82 Q937.136 1077.06 937.136 1075.37 Q937.136 1072.62 935.192 1070.88 Q933.27 1069.14 930.168 1069.14 Q927.969 1069.14 925.516 1069.91 Q923.085 1070.67 920.307 1072.22 L920.307 1067.5 Q923.131 1066.37 925.585 1065.79 Q928.039 1065.21 930.076 1065.21 Q935.446 1065.21 938.641 1067.89 Q941.835 1070.58 941.835 1075.07 Q941.835 1077.2 941.025 1079.12 Q940.238 1081.02 938.131 1083.61 Q937.553 1084.28 934.451 1087.5 Q931.349 1090.69 925.701 1096.46 Z" fill="#000000" fill-rule="nonzero" fill-opacity="1" /><path clip-path="url(#clip420)" d="M951.881 1065.83 L970.238 1065.83 L970.238 1069.77 L956.164 1069.77 L956.164 1078.24 Q957.182 1077.89 958.201 1077.73 Q959.219 1077.55 960.238 1077.55 Q966.025 1077.55 969.404 1080.72 Q972.784 1083.89 972.784 1089.31 Q972.784 1094.88 969.312 1097.99 Q965.84 1101.07 959.52 1101.07 Q957.344 1101.07 955.076 1100.69 Q952.83 1100.32 950.423 1099.58 L950.423 1094.88 Q952.506 1096.02 954.728 1096.57 Q956.951 1097.13 959.428 1097.13 Q963.432 1097.13 965.77 1095.02 Q968.108 1092.92 968.108 1089.31 Q968.108 1085.69 965.77 1083.59 Q963.432 1081.48 959.428 1081.48 Q957.553 1081.48 955.678 1081.9 Q953.826 1082.32 951.881 1083.19 L951.881 1065.83 Z" fill="#000000" fill-rule="nonzero" fill-opacity="1" /><path clip-path="url(#clip420)" d="M1618.46 1065.83 L1636.81 1065.83 L1636.81 1069.77 L1622.74 1069.77 L1622.74 1078.24 Q1623.76 1077.89 1624.78 1077.73 Q1625.8 1077.55 1626.81 1077.55 Q1632.6 1077.55 1635.98 1080.72 Q1639.36 1083.89 1639.36 1089.31 Q1639.36 1094.88 1635.89 1097.99 Q1632.42 1101.07 1626.1 1101.07 Q1623.92 1101.07 1621.65 1100.69 Q1619.41 1100.32 1617 1099.58 L1617 1094.88 Q1619.08 1096.02 1621.31 1096.57 Q1623.53 1097.13 1626 1097.13 Q1630.01 1097.13 1632.35 1095.02 Q1634.68 1092.92 1634.68 1089.31 Q1634.68 1085.69 1632.35 1083.59 Q1630.01 1081.48 1626 1081.48 Q1624.13 1081.48 1622.25 1081.9 Q1620.4 1082.32 1618.46 1083.19 L1618.46 1065.83 Z" fill="#000000" fill-rule="nonzero" fill-opacity="1" /><path clip-path="url(#clip420)" d="M1658.57 1068.91 Q1654.96 1068.91 1653.13 1072.48 Q1651.33 1076.02 1651.33 1083.15 Q1651.33 1090.25 1653.13 1093.82 Q1654.96 1097.36 1658.57 1097.36 Q1662.21 1097.36 1664.01 1093.82 Q1665.84 1090.25 1665.84 1083.15 Q1665.84 1076.02 1664.01 1072.48 Q1662.21 1068.91 1658.57 1068.91 M1658.57 1065.21 Q1664.38 1065.21 1667.44 1069.82 Q1670.52 1074.4 1670.52 1083.15 Q1670.52 1091.88 1667.44 1096.48 Q1664.38 1101.07 1658.57 1101.07 Q1652.76 1101.07 1649.68 1096.48 Q1646.63 1091.88 1646.63 1083.15 Q1646.63 1074.4 1649.68 1069.82 Q1652.76 1065.21 1658.57 1065.21 Z" fill="#000000" fill-rule="nonzero" fill-opacity="1" /><path clip-path="url(#clip420)" d="M2314.94 1065.83 L2337.16 1065.83 L2337.16 1067.82 L2324.62 1100.39 L2319.73 1100.39 L2331.54 1069.77 L2314.94 1069.77 L2314.94 1065.83 Z" fill="#000000" fill-rule="nonzero" fill-opacity="1" /><path clip-path="url(#clip420)" d="M2346.33 1065.83 L2364.69 1065.83 L2364.69 1069.77 L2350.61 1069.77 L2350.61 1078.24 Q2351.63 1077.89 2352.65 1077.73 Q2353.67 1077.55 2354.69 1077.55 Q2360.47 1077.55 2363.85 1080.72 Q2367.23 1083.89 2367.23 1089.31 Q2367.23 1094.88 2363.76 1097.99 Q2360.29 1101.07 2353.97 1101.07 Q2351.79 1101.07 2349.53 1100.69 Q2347.28 1100.32 2344.87 1099.58 L2344.87 1094.88 Q2346.96 1096.02 2349.18 1096.57 Q2351.4 1097.13 2353.88 1097.13 Q2357.88 1097.13 2360.22 1095.02 Q2362.56 1092.92 2362.56 1089.31 Q2362.56 1085.69 2360.22 1083.59 Q2357.88 1081.48 2353.88 1081.48 Q2352 1081.48 2350.13 1081.9 Q2348.28 1082.32 2346.33 1083.19 L2346.33 1065.83 Z" fill="#000000" fill-rule="nonzero" fill-opacity="1" /><path clip-path="url(#clip420)" d="M2998.02 1096.46 L3005.66 1096.46 L3005.66 1070.09 L2997.35 1071.76 L2997.35 1067.5 L3005.62 1065.83 L3010.29 1065.83 L3010.29 1096.46 L3017.93 1096.46 L3017.93 1100.39 L2998.02 1100.39 L2998.02 1096.46 Z" fill="#000000" fill-rule="nonzero" fill-opacity="1" /><path clip-path="url(#clip420)" d="M3037.38 1068.91 Q3033.76 1068.91 3031.94 1072.48 Q3030.13 1076.02 3030.13 1083.15 Q3030.13 1090.25 3031.94 1093.82 Q3033.76 1097.36 3037.38 1097.36 Q3041.01 1097.36 3042.82 1093.82 Q3044.64 1090.25 3044.64 1083.15 Q3044.64 1076.02 3042.82 1072.48 Q3041.01 1068.91 3037.38 1068.91 M3037.38 1065.21 Q3043.19 1065.21 3046.24 1069.82 Q3049.32 1074.4 3049.32 1083.15 Q3049.32 1091.88 3046.24 1096.48 Q3043.19 1101.07 3037.38 1101.07 Q3031.57 1101.07 3028.49 1096.48 Q3025.43 1091.88 3025.43 1083.15 Q3025.43 1074.4 3028.49 1069.82 Q3031.57 1065.21 3037.38 1065.21 Z" fill="#000000" fill-rule="nonzero" fill-opacity="1" /><path clip-path="url(#clip420)" d="M3067.54 1068.91 Q3063.93 1068.91 3062.1 1072.48 Q3060.29 1076.02 3060.29 1083.15 Q3060.29 1090.25 3062.1 1093.82 Q3063.93 1097.36 3067.54 1097.36 Q3071.17 1097.36 3072.98 1093.82 Q3074.81 1090.25 3074.81 1083.15 Q3074.81 1076.02 3072.98 1072.48 Q3071.17 1068.91 3067.54 1068.91 M3067.54 1065.21 Q3073.35 1065.21 3076.4 1069.82 Q3079.48 1074.4 3079.48 1083.15 Q3079.48 1091.88 3076.4 1096.48 Q3073.35 1101.07 3067.54 1101.07 Q3061.73 1101.07 3058.65 1096.48 Q3055.59 1091.88 3055.59 1083.15 Q3055.59 1074.4 3058.65 1069.82 Q3061.73 1065.21 3067.54 1065.21 Z" fill="#000000" fill-rule="nonzero" fill-opacity="1" /><path clip-path="url(#clip420)" d="M1591.17 1146.22 L1591.17 1183.17 L1598.93 1183.17 Q1608.77 1183.17 1613.32 1178.72 Q1617.9 1174.26 1617.9 1164.65 Q1617.9 1155.1 1613.32 1150.68 Q1608.77 1146.22 1598.93 1146.22 L1591.17 1146.22 M1584.74 1140.94 L1597.95 1140.94 Q1611.76 1140.94 1618.22 1146.7 Q1624.68 1152.43 1624.68 1164.65 Q1624.68 1176.94 1618.19 1182.7 Q1611.7 1188.46 1597.95 1188.46 L1584.74 1188.46 L1584.74 1140.94 Z" fill="#000000" fill-rule="nonzero" fill-opacity="1" /><path clip-path="url(#clip420)" d="M1650.88 1170.54 Q1643.78 1170.54 1641.04 1172.16 Q1638.31 1173.78 1638.31 1177.7 Q1638.31 1180.82 1640.34 1182.66 Q1642.41 1184.48 1645.94 1184.48 Q1650.81 1184.48 1653.74 1181.04 Q1656.7 1177.57 1656.7 1171.84 L1656.7 1170.54 L1650.88 1170.54 M1662.56 1168.12 L1662.56 1188.46 L1656.7 1188.46 L1656.7 1183.05 Q1654.7 1186.29 1651.71 1187.85 Q1648.71 1189.38 1644.39 1189.38 Q1638.91 1189.38 1635.66 1186.33 Q1632.45 1183.24 1632.45 1178.08 Q1632.45 1172.07 1636.46 1169.01 Q1640.5 1165.96 1648.49 1165.96 L1656.7 1165.96 L1656.7 1165.38 Q1656.7 1161.34 1654.03 1159.14 Q1651.39 1156.92 1646.58 1156.92 Q1643.53 1156.92 1640.63 1157.65 Q1637.73 1158.38 1635.06 1159.84 L1635.06 1154.43 Q1638.27 1153.19 1641.3 1152.59 Q1644.32 1151.95 1647.19 1151.95 Q1654.92 1151.95 1658.74 1155.96 Q1662.56 1159.97 1662.56 1168.12 Z" fill="#000000" fill-rule="nonzero" fill-opacity="1" /><path clip-path="url(#clip420)" d="M1680.42 1142.69 L1680.42 1152.81 L1692.48 1152.81 L1692.48 1157.36 L1680.42 1157.36 L1680.42 1176.71 Q1680.42 1181.07 1681.59 1182.31 Q1682.8 1183.56 1686.46 1183.56 L1692.48 1183.56 L1692.48 1188.46 L1686.46 1188.46 Q1679.68 1188.46 1677.11 1185.94 Q1674.53 1183.4 1674.53 1176.71 L1674.53 1157.36 L1670.23 1157.36 L1670.23 1152.81 L1674.53 1152.81 L1674.53 1142.69 L1680.42 1142.69 Z" fill="#000000" fill-rule="nonzero" fill-opacity="1" /><path clip-path="url(#clip420)" d="M1730.67 1169.17 L1730.67 1172.03 L1703.75 1172.03 Q1704.13 1178.08 1707.37 1181.26 Q1710.65 1184.42 1716.48 1184.42 Q1719.85 1184.42 1723 1183.59 Q1726.18 1182.76 1729.3 1181.11 L1729.3 1186.64 Q1726.15 1187.98 1722.84 1188.68 Q1719.53 1189.38 1716.13 1189.38 Q1707.6 1189.38 1702.6 1184.42 Q1697.63 1179.45 1697.63 1170.98 Q1697.63 1162.23 1702.35 1157.11 Q1707.09 1151.95 1715.11 1151.95 Q1722.3 1151.95 1726.47 1156.6 Q1730.67 1161.21 1730.67 1169.17 M1724.82 1167.45 Q1724.75 1162.64 1722.11 1159.78 Q1719.5 1156.92 1715.17 1156.92 Q1710.27 1156.92 1707.31 1159.68 Q1704.38 1162.45 1703.94 1167.48 L1724.82 1167.45 Z" fill="#000000" fill-rule="nonzero" fill-opacity="1" /><polyline clip-path="url(#clip422)" style="stroke:#000000; stroke-linecap:round; stroke-linejoin:round; stroke-width:2; stroke-opacity:0.1; fill:none" points="194.151,1015.78 3121.26,1015.78 "/>
<polyline clip-path="url(#clip422)" style="stroke:#000000; stroke-linecap:round; stroke-linejoin:round; stroke-width:2; stroke-opacity:0.1; fill:none" points="194.151,877.584 3121.26,877.584 "/>
<polyline clip-path="url(#clip422)" style="stroke:#000000; stroke-linecap:round; stroke-linejoin:round; stroke-width:2; stroke-opacity:0.1; fill:none" points="194.151,739.387 3121.26,739.387 "/>
<polyline clip-path="url(#clip422)" style="stroke:#000000; stroke-linecap:round; stroke-linejoin:round; stroke-width:2; stroke-opacity:0.1; fill:none" points="194.151,601.19 3121.26,601.19 "/>
<polyline clip-path="url(#clip422)" style="stroke:#000000; stroke-linecap:round; stroke-linejoin:round; stroke-width:2; stroke-opacity:0.1; fill:none" points="194.151,462.993 3121.26,462.993 "/>
<polyline clip-path="url(#clip422)" style="stroke:#000000; stroke-linecap:round; stroke-linejoin:round; stroke-width:2; stroke-opacity:0.1; fill:none" points="194.151,324.796 3121.26,324.796 "/>
<polyline clip-path="url(#clip422)" style="stroke:#000000; stroke-linecap:round; stroke-linejoin:round; stroke-width:2; stroke-opacity:0.1; fill:none" points="194.151,186.599 3121.26,186.599 "/>
<polyline clip-path="url(#clip420)" style="stroke:#000000; stroke-linecap:round; stroke-linejoin:round; stroke-width:4; stroke-opacity:1; fill:none" points="194.151,1031.59 194.151,78.7402 "/>
<polyline clip-path="url(#clip420)" style="stroke:#000000; stroke-linecap:round; stroke-linejoin:round; stroke-width:4; stroke-opacity:1; fill:none" points="194.151,1015.78 213.049,1015.78 "/>
<polyline clip-path="url(#clip420)" style="stroke:#000000; stroke-linecap:round; stroke-linejoin:round; stroke-width:4; stroke-opacity:1; fill:none" points="194.151,877.584 213.049,877.584 "/>
<polyline clip-path="url(#clip420)" style="stroke:#000000; stroke-linecap:round; stroke-linejoin:round; stroke-width:4; stroke-opacity:1; fill:none" points="194.151,739.387 213.049,739.387 "/>
<polyline clip-path="url(#clip420)" style="stroke:#000000; stroke-linecap:round; stroke-linejoin:round; stroke-width:4; stroke-opacity:1; fill:none" points="194.151,601.19 213.049,601.19 "/>
<polyline clip-path="url(#clip420)" style="stroke:#000000; stroke-linecap:round; stroke-linejoin:round; stroke-width:4; stroke-opacity:1; fill:none" points="194.151,462.993 213.049,462.993 "/>
<polyline clip-path="url(#clip420)" style="stroke:#000000; stroke-linecap:round; stroke-linejoin:round; stroke-width:4; stroke-opacity:1; fill:none" points="194.151,324.796 213.049,324.796 "/>
<polyline clip-path="url(#clip420)" style="stroke:#000000; stroke-linecap:round; stroke-linejoin:round; stroke-width:4; stroke-opacity:1; fill:none" points="194.151,186.599 213.049,186.599 "/>
<path clip-path="url(#clip420)" d="M134.207 1001.58 Q130.596 1001.58 128.767 1005.14 Q126.962 1008.69 126.962 1015.82 Q126.962 1022.92 128.767 1026.49 Q130.596 1030.03 134.207 1030.03 Q137.841 1030.03 139.647 1026.49 Q141.475 1022.92 141.475 1015.82 Q141.475 1008.69 139.647 1005.14 Q137.841 1001.58 134.207 1001.58 M134.207 997.876 Q140.017 997.876 143.073 1002.48 Q146.151 1007.07 146.151 1015.82 Q146.151 1024.54 143.073 1029.15 Q140.017 1033.73 134.207 1033.73 Q128.397 1033.73 125.318 1029.15 Q122.263 1024.54 122.263 1015.82 Q122.263 1007.07 125.318 1002.48 Q128.397 997.876 134.207 997.876 Z" fill="#000000" fill-rule="nonzero" fill-opacity="1" /><path clip-path="url(#clip420)" d="M126.244 890.929 L133.883 890.929 L133.883 864.563 L125.573 866.23 L125.573 861.97 L133.837 860.304 L138.512 860.304 L138.512 890.929 L146.151 890.929 L146.151 894.864 L126.244 894.864 L126.244 890.929 Z" fill="#000000" fill-rule="nonzero" fill-opacity="1" /><path clip-path="url(#clip420)" d="M129.832 752.732 L146.151 752.732 L146.151 756.667 L124.207 756.667 L124.207 752.732 Q126.869 749.977 131.452 745.347 Q136.059 740.695 137.239 739.352 Q139.485 736.829 140.364 735.093 Q141.267 733.334 141.267 731.644 Q141.267 728.889 139.323 727.153 Q137.401 725.417 134.299 725.417 Q132.1 725.417 129.647 726.181 Q127.216 726.945 124.438 728.496 L124.438 723.774 Q127.262 722.639 129.716 722.061 Q132.17 721.482 134.207 721.482 Q139.577 721.482 142.772 724.167 Q145.966 726.852 145.966 731.343 Q145.966 733.473 145.156 735.394 Q144.369 737.292 142.262 739.885 Q141.684 740.556 138.582 743.773 Q135.48 746.968 129.832 752.732 Z" fill="#000000" fill-rule="nonzero" fill-opacity="1" /><path clip-path="url(#clip420)" d="M139.022 599.836 Q142.378 600.553 144.253 602.822 Q146.151 605.09 146.151 608.424 Q146.151 613.539 142.633 616.34 Q139.114 619.141 132.633 619.141 Q130.457 619.141 128.142 618.701 Q125.85 618.285 123.397 617.428 L123.397 612.914 Q125.341 614.049 127.656 614.627 Q129.971 615.206 132.494 615.206 Q136.892 615.206 139.184 613.47 Q141.499 611.734 141.499 608.424 Q141.499 605.368 139.346 603.655 Q137.216 601.919 133.397 601.919 L129.369 601.919 L129.369 598.077 L133.582 598.077 Q137.031 598.077 138.86 596.711 Q140.688 595.322 140.688 592.729 Q140.688 590.067 138.79 588.655 Q136.915 587.22 133.397 587.22 Q131.475 587.22 129.276 587.637 Q127.077 588.053 124.438 588.933 L124.438 584.766 Q127.1 584.026 129.415 583.655 Q131.753 583.285 133.813 583.285 Q139.137 583.285 142.239 585.716 Q145.341 588.123 145.341 592.243 Q145.341 595.114 143.698 597.104 Q142.054 599.072 139.022 599.836 Z" fill="#000000" fill-rule="nonzero" fill-opacity="1" /><path clip-path="url(#clip420)" d="M136.568 449.787 L124.762 468.236 L136.568 468.236 L136.568 449.787 M135.341 445.713 L141.221 445.713 L141.221 468.236 L146.151 468.236 L146.151 472.125 L141.221 472.125 L141.221 480.273 L136.568 480.273 L136.568 472.125 L120.966 472.125 L120.966 467.611 L135.341 445.713 Z" fill="#000000" fill-rule="nonzero" fill-opacity="1" /><path clip-path="url(#clip420)" d="M125.249 307.516 L143.605 307.516 L143.605 311.451 L129.531 311.451 L129.531 319.923 Q130.55 319.576 131.568 319.414 Q132.587 319.229 133.605 319.229 Q139.392 319.229 142.772 322.4 Q146.151 325.572 146.151 330.988 Q146.151 336.567 142.679 339.669 Q139.207 342.747 132.887 342.747 Q130.712 342.747 128.443 342.377 Q126.198 342.007 123.79 341.266 L123.79 336.567 Q125.874 337.701 128.096 338.257 Q130.318 338.812 132.795 338.812 Q136.799 338.812 139.137 336.706 Q141.475 334.599 141.475 330.988 Q141.475 327.377 139.137 325.271 Q136.799 323.164 132.795 323.164 Q130.92 323.164 129.045 323.581 Q127.193 323.998 125.249 324.877 L125.249 307.516 Z" fill="#000000" fill-rule="nonzero" fill-opacity="1" /><path clip-path="url(#clip420)" d="M134.624 184.736 Q131.475 184.736 129.624 186.889 Q127.795 189.041 127.795 192.791 Q127.795 196.518 129.624 198.694 Q131.475 200.847 134.624 200.847 Q137.772 200.847 139.6 198.694 Q141.452 196.518 141.452 192.791 Q141.452 189.041 139.6 186.889 Q137.772 184.736 134.624 184.736 M143.906 170.083 L143.906 174.342 Q142.147 173.509 140.341 173.069 Q138.559 172.629 136.799 172.629 Q132.17 172.629 129.716 175.754 Q127.286 178.879 126.938 185.199 Q128.304 183.185 130.364 182.12 Q132.424 181.032 134.901 181.032 Q140.11 181.032 143.119 184.203 Q146.151 187.352 146.151 192.791 Q146.151 198.115 143.003 201.333 Q139.855 204.551 134.624 204.551 Q128.628 204.551 125.457 199.967 Q122.286 195.361 122.286 186.634 Q122.286 178.44 126.175 173.578 Q130.063 168.694 136.614 168.694 Q138.374 168.694 140.156 169.041 Q141.961 169.389 143.906 170.083 Z" fill="#000000" fill-rule="nonzero" fill-opacity="1" /><path clip-path="url(#clip420)" d="M36.4302 883.24 Q37.1305 881.171 39.4221 879.229 Q41.7138 877.256 45.7242 875.282 L58.7102 868.758 L58.7102 875.664 L46.5199 881.744 Q41.7456 884.099 40.186 886.327 Q38.6264 888.523 38.6264 892.343 L38.6264 899.345 L58.7102 899.345 L58.7102 905.774 L11.1902 905.774 L11.1902 891.26 Q11.1902 883.112 14.5959 879.102 Q18.0015 875.091 24.8765 875.091 Q29.3643 875.091 32.3244 877.192 Q35.2844 879.261 36.4302 883.24 M16.4738 899.345 L33.3429 899.345 L33.3429 891.26 Q33.3429 886.613 31.2104 884.258 Q29.046 881.871 24.8765 881.871 Q20.707 881.871 18.6063 884.258 Q16.4738 886.613 16.4738 891.26 L16.4738 899.345 Z" fill="#000000" fill-rule="nonzero" fill-opacity="1" /><path clip-path="url(#clip420)" d="M39.4221 833.173 L42.2867 833.173 L42.2867 860.1 Q48.3341 859.718 51.517 856.472 Q54.668 853.193 54.668 847.369 Q54.668 843.995 53.8405 840.844 Q53.0129 837.661 51.3578 834.542 L56.896 834.542 Q58.2328 837.693 58.933 841.003 Q59.6332 844.313 59.6332 847.719 Q59.6332 856.249 54.668 861.246 Q49.7027 866.211 41.2364 866.211 Q32.4835 866.211 27.3591 861.501 Q22.2029 856.758 22.2029 848.737 Q22.2029 841.544 26.8499 837.375 Q31.465 833.173 39.4221 833.173 M37.7034 839.03 Q32.8973 839.093 30.0327 841.735 Q27.1681 844.345 27.1681 848.674 Q27.1681 853.575 29.9372 856.535 Q32.7063 859.464 37.7352 859.909 L37.7034 839.03 Z" fill="#000000" fill-rule="nonzero" fill-opacity="1" /><path clip-path="url(#clip420)" d="M53.363 817.896 L72.2692 817.896 L72.2692 823.784 L23.0623 823.784 L23.0623 817.896 L28.4731 817.896 Q25.2903 816.05 23.7625 813.249 Q22.2029 810.416 22.2029 806.501 Q22.2029 800.008 27.3591 795.966 Q32.5153 791.892 40.9181 791.892 Q49.3208 791.892 54.477 795.966 Q59.6332 800.008 59.6332 806.501 Q59.6332 810.416 58.1055 813.249 Q56.5459 816.05 53.363 817.896 M40.9181 797.971 Q34.4569 797.971 30.7966 800.645 Q27.1045 803.286 27.1045 807.933 Q27.1045 812.58 30.7966 815.254 Q34.4569 817.896 40.9181 817.896 Q47.3793 817.896 51.0714 815.254 Q54.7317 812.58 54.7317 807.933 Q54.7317 803.286 51.0714 800.645 Q47.3793 797.971 40.9181 797.971 Z" fill="#000000" fill-rule="nonzero" fill-opacity="1" /><path clip-path="url(#clip420)" d="M28.5368 761.527 Q27.9639 762.514 27.7092 763.692 Q27.4228 764.837 27.4228 766.238 Q27.4228 771.203 30.6693 773.877 Q33.884 776.519 39.9314 776.519 L58.7102 776.519 L58.7102 782.407 L23.0623 782.407 L23.0623 776.519 L28.6004 776.519 Q25.3539 774.672 23.7943 771.712 Q22.2029 768.752 22.2029 764.519 Q22.2029 763.914 22.2984 763.182 Q22.362 762.45 22.5212 761.559 L28.5368 761.527 Z" fill="#000000" fill-rule="nonzero" fill-opacity="1" /><path clip-path="url(#clip420)" d="M27.1681 743.003 Q27.1681 747.714 30.8603 750.451 Q34.5205 753.188 40.9181 753.188 Q47.3156 753.188 51.0077 750.483 Q54.668 747.746 54.668 743.003 Q54.668 738.324 50.9759 735.587 Q47.2838 732.85 40.9181 732.85 Q34.5842 732.85 30.8921 735.587 Q27.1681 738.324 27.1681 743.003 M22.2029 743.003 Q22.2029 735.364 27.1681 731.004 Q32.1334 726.643 40.9181 726.643 Q49.6709 726.643 54.668 731.004 Q59.6332 735.364 59.6332 743.003 Q59.6332 750.674 54.668 755.034 Q49.6709 759.363 40.9181 759.363 Q32.1334 759.363 27.1681 755.034 Q22.2029 750.674 22.2029 743.003 Z" fill="#000000" fill-rule="nonzero" fill-opacity="1" /><path clip-path="url(#clip420)" d="M28.4731 693.478 L9.18502 693.478 L9.18502 687.621 L58.7102 687.621 L58.7102 693.478 L53.363 693.478 Q56.5459 695.324 58.1055 698.157 Q59.6332 700.958 59.6332 704.904 Q59.6332 711.365 54.477 715.44 Q49.3208 719.482 40.9181 719.482 Q32.5153 719.482 27.3591 715.44 Q22.2029 711.365 22.2029 704.904 Q22.2029 700.958 23.7625 698.157 Q25.2903 695.324 28.4731 693.478 M40.9181 713.434 Q47.3793 713.434 51.0714 710.793 Q54.7317 708.119 54.7317 703.472 Q54.7317 698.825 51.0714 696.151 Q47.3793 693.478 40.9181 693.478 Q34.4569 693.478 30.7966 696.151 Q27.1045 698.825 27.1045 703.472 Q27.1045 708.119 30.7966 710.793 Q34.4569 713.434 40.9181 713.434 Z" fill="#000000" fill-rule="nonzero" fill-opacity="1" /><path clip-path="url(#clip420)" d="M44.642 676.163 L23.0623 676.163 L23.0623 670.307 L44.4192 670.307 Q49.4799 670.307 52.0262 668.333 Q54.5407 666.36 54.5407 662.413 Q54.5407 657.671 51.517 654.934 Q48.4933 652.164 43.2734 652.164 L23.0623 652.164 L23.0623 646.308 L58.7102 646.308 L58.7102 652.164 L53.2357 652.164 Q56.4822 654.297 58.0736 657.13 Q59.6332 659.931 59.6332 663.655 Q59.6332 669.797 55.8138 672.98 Q51.9944 676.163 44.642 676.163 M22.2029 661.427 L22.2029 661.427 Z" fill="#000000" fill-rule="nonzero" fill-opacity="1" /><path clip-path="url(#clip420)" d="M24.4309 608.591 L29.9054 608.591 Q28.5368 611.074 27.8684 613.588 Q27.1681 616.071 27.1681 618.617 Q27.1681 624.314 30.7966 627.465 Q34.3932 630.617 40.9181 630.617 Q47.4429 630.617 51.0714 627.465 Q54.668 624.314 54.668 618.617 Q54.668 616.071 53.9996 613.588 Q53.2994 611.074 51.9307 608.591 L57.3416 608.591 Q58.4874 611.042 59.0603 613.684 Q59.6332 616.294 59.6332 619.254 Q59.6332 627.306 54.5725 632.049 Q49.5118 636.791 40.9181 636.791 Q32.1971 636.791 27.2 632.017 Q22.2029 627.211 22.2029 618.872 Q22.2029 616.166 22.7758 613.588 Q23.3169 611.01 24.4309 608.591 Z" fill="#000000" fill-rule="nonzero" fill-opacity="1" /><path clip-path="url(#clip420)" d="M12.9408 592.613 L23.0623 592.613 L23.0623 580.55 L27.6137 580.55 L27.6137 592.613 L46.9655 592.613 Q51.326 592.613 52.5673 591.436 Q53.8086 590.226 53.8086 586.566 L53.8086 580.55 L58.7102 580.55 L58.7102 586.566 Q58.7102 593.345 56.1958 595.923 Q53.6495 598.502 46.9655 598.502 L27.6137 598.502 L27.6137 602.798 L23.0623 602.798 L23.0623 598.502 L12.9408 598.502 L12.9408 592.613 Z" fill="#000000" fill-rule="nonzero" fill-opacity="1" /><path clip-path="url(#clip420)" d="M23.0623 572.848 L23.0623 566.991 L58.7102 566.991 L58.7102 572.848 L23.0623 572.848 M9.18502 572.848 L9.18502 566.991 L16.6011 566.991 L16.6011 572.848 L9.18502 572.848 Z" fill="#000000" fill-rule="nonzero" fill-opacity="1" /><path clip-path="url(#clip420)" d="M27.1681 540.924 Q27.1681 545.634 30.8603 548.372 Q34.5205 551.109 40.9181 551.109 Q47.3156 551.109 51.0077 548.403 Q54.668 545.666 54.668 540.924 Q54.668 536.245 50.9759 533.508 Q47.2838 530.77 40.9181 530.77 Q34.5842 530.77 30.8921 533.508 Q27.1681 536.245 27.1681 540.924 M22.2029 540.924 Q22.2029 533.285 27.1681 528.924 Q32.1334 524.564 40.9181 524.564 Q49.6709 524.564 54.668 528.924 Q59.6332 533.285 59.6332 540.924 Q59.6332 548.594 54.668 552.955 Q49.6709 557.284 40.9181 557.284 Q32.1334 557.284 27.1681 552.955 Q22.2029 548.594 22.2029 540.924 Z" fill="#000000" fill-rule="nonzero" fill-opacity="1" /><path clip-path="url(#clip420)" d="M37.1941 485.224 L58.7102 485.224 L58.7102 491.08 L37.3851 491.08 Q32.3244 491.08 29.8099 493.054 Q27.2955 495.027 27.2955 498.974 Q27.2955 503.716 30.3192 506.453 Q33.3429 509.191 38.5628 509.191 L58.7102 509.191 L58.7102 515.079 L23.0623 515.079 L23.0623 509.191 L28.6004 509.191 Q25.3857 507.09 23.7943 504.257 Q22.2029 501.393 22.2029 497.669 Q22.2029 491.526 26.0223 488.375 Q29.8099 485.224 37.1941 485.224 Z" fill="#000000" fill-rule="nonzero" fill-opacity="1" /><path clip-path="url(#clip420)" d="M37.1941 423.19 L58.7102 423.19 L58.7102 429.046 L37.3851 429.046 Q32.3244 429.046 29.8099 431.02 Q27.2955 432.993 27.2955 436.94 Q27.2955 441.682 30.3192 444.42 Q33.3429 447.157 38.5628 447.157 L58.7102 447.157 L58.7102 453.045 L23.0623 453.045 L23.0623 447.157 L28.6004 447.157 Q25.3857 445.056 23.7943 442.223 Q22.2029 439.359 22.2029 435.635 Q22.2029 429.492 26.0223 426.341 Q29.8099 423.19 37.1941 423.19 Z" fill="#000000" fill-rule="nonzero" fill-opacity="1" /><path clip-path="url(#clip420)" d="M44.642 412.114 L23.0623 412.114 L23.0623 406.257 L44.4192 406.257 Q49.4799 406.257 52.0262 404.284 Q54.5407 402.31 54.5407 398.364 Q54.5407 393.621 51.517 390.884 Q48.4933 388.115 43.2734 388.115 L23.0623 388.115 L23.0623 382.258 L58.7102 382.258 L58.7102 388.115 L53.2357 388.115 Q56.4822 390.247 58.0736 393.08 Q59.6332 395.881 59.6332 399.605 Q59.6332 405.748 55.8138 408.931 Q51.9944 412.114 44.642 412.114 M22.2029 397.377 L22.2029 397.377 Z" fill="#000000" fill-rule="nonzero" fill-opacity="1" /><path clip-path="url(#clip420)" d="M29.9054 342.441 Q25.9587 340.245 24.0808 337.189 Q22.2029 334.134 22.2029 329.996 Q22.2029 324.426 26.1178 321.402 Q30.0009 318.379 37.1941 318.379 L58.7102 318.379 L58.7102 324.267 L37.3851 324.267 Q32.2607 324.267 29.7781 326.081 Q27.2955 327.895 27.2955 331.619 Q27.2955 336.171 30.3192 338.813 Q33.3429 341.454 38.5628 341.454 L58.7102 341.454 L58.7102 347.343 L37.3851 347.343 Q32.2289 347.343 29.7781 349.157 Q27.2955 350.971 27.2955 354.759 Q27.2955 359.246 30.351 361.888 Q33.3747 364.53 38.5628 364.53 L58.7102 364.53 L58.7102 370.418 L23.0623 370.418 L23.0623 364.53 L28.6004 364.53 Q25.3221 362.525 23.7625 359.724 Q22.2029 356.923 22.2029 353.072 Q22.2029 349.189 24.1763 346.483 Q26.1496 343.746 29.9054 342.441 Z" fill="#000000" fill-rule="nonzero" fill-opacity="1" /><path clip-path="url(#clip420)" d="M40.9181 281.107 Q34.4569 281.107 30.7966 283.781 Q27.1045 286.423 27.1045 291.07 Q27.1045 295.717 30.7966 298.39 Q34.4569 301.032 40.9181 301.032 Q47.3793 301.032 51.0714 298.39 Q54.7317 295.717 54.7317 291.07 Q54.7317 286.423 51.0714 283.781 Q47.3793 281.107 40.9181 281.107 M28.4731 301.032 Q25.2903 299.186 23.7625 296.385 Q22.2029 293.552 22.2029 289.637 Q22.2029 283.144 27.3591 279.102 Q32.5153 275.028 40.9181 275.028 Q49.3208 275.028 54.477 279.102 Q59.6332 283.144 59.6332 289.637 Q59.6332 293.552 58.1055 296.385 Q56.5459 299.186 53.363 301.032 L58.7102 301.032 L58.7102 306.92 L9.18502 306.92 L9.18502 301.032 L28.4731 301.032 Z" fill="#000000" fill-rule="nonzero" fill-opacity="1" /><path clip-path="url(#clip420)" d="M39.4221 234.829 L42.2867 234.829 L42.2867 261.756 Q48.3341 261.374 51.517 258.127 Q54.668 254.849 54.668 249.024 Q54.668 245.65 53.8405 242.499 Q53.0129 239.317 51.3578 236.197 L56.896 236.197 Q58.2328 239.348 58.933 242.659 Q59.6332 245.969 59.6332 249.374 Q59.6332 257.904 54.668 262.901 Q49.7027 267.867 41.2364 267.867 Q32.4835 267.867 27.3591 263.156 Q22.2029 258.414 22.2029 250.393 Q22.2029 243.2 26.8499 239.03 Q31.465 234.829 39.4221 234.829 M37.7034 240.685 Q32.8973 240.749 30.0327 243.391 Q27.1681 246.001 27.1681 250.329 Q27.1681 255.231 29.9372 258.191 Q32.7063 261.119 37.7352 261.565 L37.7034 240.685 Z" fill="#000000" fill-rule="nonzero" fill-opacity="1" /><path clip-path="url(#clip420)" d="M28.5368 204.56 Q27.9639 205.546 27.7092 206.724 Q27.4228 207.87 27.4228 209.27 Q27.4228 214.236 30.6693 216.909 Q33.884 219.551 39.9314 219.551 L58.7102 219.551 L58.7102 225.439 L23.0623 225.439 L23.0623 219.551 L28.6004 219.551 Q25.3539 217.705 23.7943 214.745 Q22.2029 211.785 22.2029 207.552 Q22.2029 206.947 22.2984 206.215 Q22.362 205.483 22.5212 204.592 L28.5368 204.56 Z" fill="#000000" fill-rule="nonzero" fill-opacity="1" /><path clip-path="url(#clip422)" d="M276.994 866.091 L304.887 824.448 L332.78 811.012 L360.673 842.173 L388.567 820.501 L416.46 810.969 L444.353 815.595 L472.246 805.676 L500.139 807.976 L528.032 848.379 L555.926 855.002 L583.819 830.753 L611.712 835.935 L639.605 826.067 L667.498 823.351 L695.391 826.391 L723.285 772.08 L751.178 734.239 L779.071 649.827 L806.964 551.628 L834.857 493.037 L862.75 526.69 L890.644 493.192 L918.537 518.746 L946.43 540.501 L974.323 492.823 L1002.22 540.597 L1030.11 550.275 L1058 561.118 L1085.9 669.952 L1113.79 747.926 L1141.68 808.779 L1169.58 834.351 L1197.47 869.975 L1225.36 870.661 L1253.25 868.494 L1281.15 867.195 L1309.04 881.298 L1336.93 885.927 L1364.83 903.475 L1392.72 929.971 L1420.61 949.646 L1448.51 957.885 L1476.4 953.125 L1504.29 961.655 L1532.19 967.359 L1560.08 974.973 L1587.97 977.997 L1615.87 975.948 L1643.76 976.372 L1671.65 974.529 L1699.55 976.497 L1727.44 979.214 L1755.33 979.027 L1783.22 983.295 L1811.12 982.92 L1839.01 980.392 L1866.9 979.783 L1894.8 978.423 L1922.69 978.56 L1950.58 979.117 L1978.48 982.555 L2006.37 980.572 L2034.26 978.539 L2062.16 979.983 L2090.05 979.431 L2117.94 980.578 L2145.84 982.624 L2173.73 981.147 L2201.62 981.858 L2229.52 982.576 L2257.41 982.635 L2285.3 985.728 L2313.19 983.976 L2341.09 987.254 L2368.98 989.209 L2396.87 988.221 L2424.77 989.116 L2452.66 987.759 L2480.55 989.017 L2508.45 992.218 L2536.34 993.009 L2564.23 994.688 L2592.13 995.488 L2620.02 995.025 L2647.91 994.669 L2675.81 996.662 L2703.7 998.353 L2731.59 998.874 L2759.49 999.482 L2787.38 1000.23 L2815.27 1001.1 L2843.17 1001.09 L2871.06 1001.41 L2898.95 1002.43 L2926.84 1002.31 L2954.74 1002.91 L2982.63 1003.92 L3010.52 1004.17 L3038.42 1004.63 L3038.42 872.351 L3010.52 872.091 L2982.63 876.4 L2954.74 887.557 L2926.84 889.717 L2898.95 889.382 L2871.06 893.134 L2843.17 897.965 L2815.27 898.341 L2787.38 897.657 L2759.49 898.418 L2731.59 908.065 L2703.7 903.895 L2675.81 913.763 L2647.91 917.524 L2620.02 917.364 L2592.13 920.719 L2564.23 921.958 L2536.34 921.219 L2508.45 924.66 L2480.55 919.137 L2452.66 918.607 L2424.77 918.798 L2396.87 922.22 L2368.98 920.768 L2341.09 918.082 L2313.19 919.901 L2285.3 922.513 L2257.41 919.772 L2229.52 927.807 L2201.62 928.092 L2173.73 930.362 L2145.84 930.999 L2117.94 932.532 L2090.05 927.552 L2062.16 932.437 L2034.26 936.047 L2006.37 940.975 L1978.48 940.766 L1950.58 941.821 L1922.69 939.382 L1894.8 946.177 L1866.9 945.249 L1839.01 948.429 L1811.12 947.402 L1783.22 952.96 L1755.33 948.343 L1727.44 946.265 L1699.55 944.574 L1671.65 941.2 L1643.76 945.987 L1615.87 946.114 L1587.97 952.38 L1560.08 948.892 L1532.19 940.473 L1504.29 932.775 L1476.4 921.359 L1448.51 926.736 L1420.61 919.446 L1392.72 892.609 L1364.83 860.909 L1336.93 839.798 L1309.04 825.75 L1281.15 812.537 L1253.25 798.203 L1225.36 797.265 L1197.47 817.142 L1169.58 774.911 L1141.68 726.991 L1113.79 656.041 L1085.9 536.772 L1058 407.605 L1030.11 385.941 L1002.22 323.291 L974.323 148.952 L946.43 223.16 L918.537 236.591 L890.644 191.694 L862.75 195.178 L834.857 105.708 L806.964 229.649 L779.071 247.608 L751.178 265.569 L723.285 407.455 L695.391 484.844 L667.498 519.879 L639.605 575.029 L611.712 621.802 L583.819 594.92 L555.926 578.474 L528.032 459.119 L500.139 459.961 L472.246 455.737 L444.353 433.169 L416.46 329.105 L388.567 267.941 L360.673 252.404 L332.78 244.114 L304.887 186.513 L276.994 344.631  Z" fill="#006400" fill-rule="evenodd" fill-opacity="0.5"/>
<polyline clip-path="url(#clip422)" style="stroke:#006400; stroke-linecap:round; stroke-linejoin:round; stroke-width:4; stroke-opacity:1; fill:none" points="276.994,648.745 304.887,650.077 332.78,651.802 360.673,651.685 388.567,662.55 416.46,654.495 444.353,663.935 472.246,655.211 500.139,652.685 528.032,671.274 555.926,712.477 583.819,729.356 611.712,726.209 639.605,699.89 667.498,674.139 695.391,652.55 723.285,601.015 751.178,554.004 779.071,481.099 806.964,378.852 834.857,312.804 862.75,355.039 890.644,352.518 918.537,408.822 946.43,374.369 974.323,351.726 1002.22,438.482 1030.11,470.762 1058,493.302 1085.9,605.992 1113.79,700.541 1141.68,767.299 1169.58,805.453 1197.47,847.304 1225.36,838.063 1253.25,842.713 1281.15,840.292 1309.04,855.419 1336.93,864.269 1364.83,883.244 1392.72,911.353 1420.61,933.629 1448.51,942.794 1476.4,938.102 1504.29,948.287 1532.19,955.65 1560.08,960.677 1587.97,966.127 1615.87,964.337 1643.76,963.86 1671.65,960.486 1699.55,961.678 1727.44,963.372 1755.33,964.704 1783.22,968.768 1811.12,968.093 1839.01,966.869 1866.9,964.148 1894.8,963.065 1922.69,961.152 1950.58,961.845 1978.48,962.645 2006.37,963.031 2034.26,960.942 2062.16,958.292 2090.05,956.59 2117.94,960.099 2145.84,960.653 2173.73,960.971 2201.62,958.84 2229.52,958.212 2257.41,957.271 2285.3,957.573 2313.19,957.103 2341.09,957.776 2368.98,960.272 2396.87,962.283 2424.77,963.546 2452.66,963.349 2480.55,963.925 2508.45,965.629 2536.34,966.133 2564.23,967.084 2592.13,966.891 2620.02,966.621 2647.91,966.434 2675.81,966.15 2703.7,966.728 2731.59,966.838 2759.49,967.045 2787.38,967.411 2815.27,967.755 2843.17,967.925 2871.06,967.447 2898.95,966.724 2926.84,966.477 2954.74,966.445 2982.63,965.885 3010.52,965.272 3038.42,964.808 "/>
<polyline clip-path="url(#clip422)" style="stroke:#000000; stroke-linecap:round; stroke-linejoin:round; stroke-width:4; stroke-opacity:1; fill:none" stroke-dasharray="16, 10" points="-2732.96,877.584 6048.37,877.584 "/>
</svg>
