<?xml version="1.0" encoding="utf-8"?>
<svg xmlns="http://www.w3.org/2000/svg" xmlns:xlink="http://www.w3.org/1999/xlink" width="800" height="400" viewBox="0 0 3200 1600">
<defs>
  <clipPath id="clip050">
    <rect x="0" y="0" width="3200" height="1600"/>
  </clipPath>
</defs>
<path clip-path="url(#clip050)" d="M0 1600 L3200 1600 L3200 0 L0 0  Z" fill="#ffffff" fill-rule="evenodd" fill-opacity="1"/>
<defs>
  <clipPath id="clip051">
    <rect x="640" y="0" width="2241" height="1600"/>
  </clipPath>
</defs>
<path clip-path="url(#clip050)" d="M293.061 1412.2 L3121.26 1412.2 L3121.26 78.7402 L293.061 78.7402  Z" fill="#ffffff" fill-rule="evenodd" fill-opacity="1"/>
<defs>
  <clipPath id="clip052">
    <rect x="293" y="78" width="2829" height="1334"/>
  </clipPath>
</defs>
<polyline clip-path="url(#clip052)" style="stroke:#000000; stroke-linecap:round; stroke-linejoin:round; stroke-width:2; stroke-opacity:0.1; fill:none" points="480.907,1412.2 480.907,78.7402 "/>
<polyline clip-path="url(#clip052)" style="stroke:#000000; stroke-linecap:round; stroke-linejoin:round; stroke-width:2; stroke-opacity:0.1; fill:none" points="1316.38,1412.2 1316.38,78.7402 "/>
<polyline clip-path="url(#clip052)" style="stroke:#000000; stroke-linecap:round; stroke-linejoin:round; stroke-width:2; stroke-opacity:0.1; fill:none" points="2124.9,1412.2 2124.9,78.7402 "/>
<polyline clip-path="url(#clip052)" style="stroke:#000000; stroke-linecap:round; stroke-linejoin:round; stroke-width:2; stroke-opacity:0.1; fill:none" points="2960.36,1412.2 2960.36,78.7402 "/>
<polyline clip-path="url(#clip050)" style="stroke:#000000; stroke-linecap:round; stroke-linejoin:round; stroke-width:4; stroke-opacity:1; fill:none" points="293.061,1412.2 3121.26,1412.2 "/>
<polyline clip-path="url(#clip050)" style="stroke:#000000; stroke-linecap:round; stroke-linejoin:round; stroke-width:4; stroke-opacity:1; fill:none" points="480.907,1412.2 480.907,1393.31 "/>
<polyline clip-path="url(#clip050)" style="stroke:#000000; stroke-linecap:round; stroke-linejoin:round; stroke-width:4; stroke-opacity:1; fill:none" points="1316.38,1412.2 1316.38,1393.31 "/>
<polyline clip-path="url(#clip050)" style="stroke:#000000; stroke-linecap:round; stroke-linejoin:round; stroke-width:4; stroke-opacity:1; fill:none" points="2124.9,1412.2 2124.9,1393.31 "/>
<polyline clip-path="url(#clip050)" style="stroke:#000000; stroke-linecap:round; stroke-linejoin:round; stroke-width:4; stroke-opacity:1; fill:none" points="2960.36,1412.2 2960.36,1393.31 "/>
<path clip-path="url(#clip050)" d="M352.701 1477.07 L369.021 1477.07 L369.021 1481 L347.076 1481 L347.076 1477.07 Q349.738 1474.31 354.322 1469.68 Q358.928 1465.03 360.109 1463.69 Q362.354 1461.17 363.234 1459.43 Q364.136 1457.67 364.136 1455.98 Q364.136 1453.23 362.192 1451.49 Q360.271 1449.75 357.169 1449.75 Q354.97 1449.75 352.516 1450.52 Q350.086 1451.28 347.308 1452.83 L347.308 1448.11 Q350.132 1446.98 352.586 1446.4 Q355.039 1445.82 357.076 1445.82 Q362.447 1445.82 365.641 1448.5 Q368.836 1451.19 368.836 1455.68 Q368.836 1457.81 368.025 1459.73 Q367.238 1461.63 365.132 1464.22 Q364.553 1464.89 361.451 1468.11 Q358.349 1471.3 352.701 1477.07 Z" fill="#000000" fill-rule="nonzero" fill-opacity="1" /><path clip-path="url(#clip050)" d="M388.835 1449.52 Q385.224 1449.52 383.396 1453.09 Q381.59 1456.63 381.59 1463.76 Q381.59 1470.86 383.396 1474.43 Q385.224 1477.97 388.835 1477.97 Q392.47 1477.97 394.275 1474.43 Q396.104 1470.86 396.104 1463.76 Q396.104 1456.63 394.275 1453.09 Q392.47 1449.52 388.835 1449.52 M388.835 1445.82 Q394.646 1445.82 397.701 1450.43 Q400.78 1455.01 400.78 1463.76 Q400.78 1472.49 397.701 1477.09 Q394.646 1481.68 388.835 1481.68 Q383.025 1481.68 379.947 1477.09 Q376.891 1472.49 376.891 1463.76 Q376.891 1455.01 379.947 1450.43 Q383.025 1445.82 388.835 1445.82 Z" fill="#000000" fill-rule="nonzero" fill-opacity="1" /><path clip-path="url(#clip050)" d="M413.025 1477.07 L429.344 1477.07 L429.344 1481 L407.4 1481 L407.4 1477.07 Q410.062 1474.31 414.645 1469.68 Q419.252 1465.03 420.432 1463.69 Q422.678 1461.17 423.557 1459.43 Q424.46 1457.67 424.46 1455.98 Q424.46 1453.23 422.516 1451.49 Q420.594 1449.75 417.493 1449.75 Q415.294 1449.75 412.84 1450.52 Q410.409 1451.28 407.632 1452.83 L407.632 1448.11 Q410.456 1446.98 412.909 1446.4 Q415.363 1445.82 417.4 1445.82 Q422.77 1445.82 425.965 1448.5 Q429.159 1451.19 429.159 1455.68 Q429.159 1457.81 428.349 1459.73 Q427.562 1461.63 425.456 1464.22 Q424.877 1464.89 421.775 1468.11 Q418.673 1471.3 413.025 1477.07 Z" fill="#000000" fill-rule="nonzero" fill-opacity="1" /><path clip-path="url(#clip050)" d="M449.159 1449.52 Q445.548 1449.52 443.719 1453.09 Q441.914 1456.63 441.914 1463.76 Q441.914 1470.86 443.719 1474.43 Q445.548 1477.97 449.159 1477.97 Q452.793 1477.97 454.599 1474.43 Q456.428 1470.86 456.428 1463.76 Q456.428 1456.63 454.599 1453.09 Q452.793 1449.52 449.159 1449.52 M449.159 1445.82 Q454.969 1445.82 458.025 1450.43 Q461.104 1455.01 461.104 1463.76 Q461.104 1472.49 458.025 1477.09 Q454.969 1481.68 449.159 1481.68 Q443.349 1481.68 440.27 1477.09 Q437.215 1472.49 437.215 1463.76 Q437.215 1455.01 440.27 1450.43 Q443.349 1445.82 449.159 1445.82 Z" fill="#000000" fill-rule="nonzero" fill-opacity="1" /><path clip-path="url(#clip050)" d="M466.566 1466.12 L479.043 1466.12 L479.043 1469.92 L466.566 1469.92 L466.566 1466.12 Z" fill="#000000" fill-rule="nonzero" fill-opacity="1" /><path clip-path="url(#clip050)" d="M496.427 1449.52 Q492.816 1449.52 490.988 1453.09 Q489.182 1456.63 489.182 1463.76 Q489.182 1470.86 490.988 1474.43 Q492.816 1477.97 496.427 1477.97 Q500.062 1477.97 501.867 1474.43 Q503.696 1470.86 503.696 1463.76 Q503.696 1456.63 501.867 1453.09 Q500.062 1449.52 496.427 1449.52 M496.427 1445.82 Q502.238 1445.82 505.293 1450.43 Q508.372 1455.01 508.372 1463.76 Q508.372 1472.49 505.293 1477.09 Q502.238 1481.68 496.427 1481.68 Q490.617 1481.68 487.539 1477.09 Q484.483 1472.49 484.483 1463.76 Q484.483 1455.01 487.539 1450.43 Q490.617 1445.82 496.427 1445.82 Z" fill="#000000" fill-rule="nonzero" fill-opacity="1" /><path clip-path="url(#clip050)" d="M530.756 1462.37 Q534.112 1463.09 535.987 1465.36 Q537.886 1467.62 537.886 1470.96 Q537.886 1476.07 534.367 1478.87 Q530.849 1481.68 524.367 1481.68 Q522.191 1481.68 519.876 1481.24 Q517.585 1480.82 515.131 1479.96 L515.131 1475.45 Q517.075 1476.58 519.39 1477.16 Q521.705 1477.74 524.228 1477.74 Q528.626 1477.74 530.918 1476 Q533.233 1474.27 533.233 1470.96 Q533.233 1467.9 531.08 1466.19 Q528.95 1464.45 525.131 1464.45 L521.103 1464.45 L521.103 1460.61 L525.316 1460.61 Q528.765 1460.61 530.594 1459.24 Q532.423 1457.86 532.423 1455.26 Q532.423 1452.6 530.524 1451.19 Q528.649 1449.75 525.131 1449.75 Q523.21 1449.75 521.011 1450.17 Q518.812 1450.59 516.173 1451.47 L516.173 1447.3 Q518.835 1446.56 521.15 1446.19 Q523.487 1445.82 525.548 1445.82 Q530.872 1445.82 533.974 1448.25 Q537.075 1450.66 537.075 1454.78 Q537.075 1457.65 535.432 1459.64 Q533.788 1461.61 530.756 1462.37 Z" fill="#000000" fill-rule="nonzero" fill-opacity="1" /><path clip-path="url(#clip050)" d="M543.997 1466.12 L556.473 1466.12 L556.473 1469.92 L543.997 1469.92 L543.997 1466.12 Z" fill="#000000" fill-rule="nonzero" fill-opacity="1" /><path clip-path="url(#clip050)" d="M573.858 1449.52 Q570.246 1449.52 568.418 1453.09 Q566.612 1456.63 566.612 1463.76 Q566.612 1470.86 568.418 1474.43 Q570.246 1477.97 573.858 1477.97 Q577.492 1477.97 579.297 1474.43 Q581.126 1470.86 581.126 1463.76 Q581.126 1456.63 579.297 1453.09 Q577.492 1449.52 573.858 1449.52 M573.858 1445.82 Q579.668 1445.82 582.723 1450.43 Q585.802 1455.01 585.802 1463.76 Q585.802 1472.49 582.723 1477.09 Q579.668 1481.68 573.858 1481.68 Q568.047 1481.68 564.969 1477.09 Q561.913 1472.49 561.913 1463.76 Q561.913 1455.01 564.969 1450.43 Q568.047 1445.82 573.858 1445.82 Z" fill="#000000" fill-rule="nonzero" fill-opacity="1" /><path clip-path="url(#clip050)" d="M594.83 1477.07 L602.469 1477.07 L602.469 1450.7 L594.158 1452.37 L594.158 1448.11 L602.422 1446.44 L607.098 1446.44 L607.098 1477.07 L614.737 1477.07 L614.737 1481 L594.83 1481 L594.83 1477.07 Z" fill="#000000" fill-rule="nonzero" fill-opacity="1" /><path clip-path="url(#clip050)" d="M1188.17 1477.07 L1204.49 1477.07 L1204.49 1481 L1182.55 1481 L1182.55 1477.07 Q1185.21 1474.31 1189.79 1469.68 Q1194.4 1465.03 1195.58 1463.69 Q1197.82 1461.17 1198.7 1459.43 Q1199.61 1457.67 1199.61 1455.98 Q1199.61 1453.23 1197.66 1451.49 Q1195.74 1449.75 1192.64 1449.75 Q1190.44 1449.75 1187.99 1450.52 Q1185.56 1451.28 1182.78 1452.83 L1182.78 1448.11 Q1185.6 1446.98 1188.06 1446.4 Q1190.51 1445.82 1192.55 1445.82 Q1197.92 1445.82 1201.11 1448.5 Q1204.31 1451.19 1204.31 1455.68 Q1204.31 1457.81 1203.49 1459.73 Q1202.71 1461.63 1200.6 1464.22 Q1200.02 1464.89 1196.92 1468.11 Q1193.82 1471.3 1188.17 1477.07 Z" fill="#000000" fill-rule="nonzero" fill-opacity="1" /><path clip-path="url(#clip050)" d="M1224.3 1449.52 Q1220.69 1449.52 1218.87 1453.09 Q1217.06 1456.63 1217.06 1463.76 Q1217.06 1470.86 1218.87 1474.43 Q1220.69 1477.97 1224.3 1477.97 Q1227.94 1477.97 1229.74 1474.43 Q1231.57 1470.86 1231.57 1463.76 Q1231.57 1456.63 1229.74 1453.09 Q1227.94 1449.52 1224.3 1449.52 M1224.3 1445.82 Q1230.12 1445.82 1233.17 1450.43 Q1236.25 1455.01 1236.25 1463.76 Q1236.25 1472.49 1233.17 1477.09 Q1230.12 1481.68 1224.3 1481.68 Q1218.49 1481.68 1215.42 1477.09 Q1212.36 1472.49 1212.36 1463.76 Q1212.36 1455.01 1215.42 1450.43 Q1218.49 1445.82 1224.3 1445.82 Z" fill="#000000" fill-rule="nonzero" fill-opacity="1" /><path clip-path="url(#clip050)" d="M1248.49 1477.07 L1264.81 1477.07 L1264.81 1481 L1242.87 1481 L1242.87 1477.07 Q1245.53 1474.31 1250.11 1469.68 Q1254.72 1465.03 1255.9 1463.69 Q1258.15 1461.17 1259.03 1459.43 Q1259.93 1457.67 1259.93 1455.98 Q1259.93 1453.23 1257.99 1451.49 Q1256.06 1449.75 1252.96 1449.75 Q1250.76 1449.75 1248.31 1450.52 Q1245.88 1451.28 1243.1 1452.83 L1243.1 1448.11 Q1245.93 1446.98 1248.38 1446.4 Q1250.83 1445.82 1252.87 1445.82 Q1258.24 1445.82 1261.43 1448.5 Q1264.63 1451.19 1264.63 1455.68 Q1264.63 1457.81 1263.82 1459.73 Q1263.03 1461.63 1260.93 1464.22 Q1260.35 1464.89 1257.24 1468.11 Q1254.14 1471.3 1248.49 1477.07 Z" fill="#000000" fill-rule="nonzero" fill-opacity="1" /><path clip-path="url(#clip050)" d="M1284.63 1449.52 Q1281.02 1449.52 1279.19 1453.09 Q1277.38 1456.63 1277.38 1463.76 Q1277.38 1470.86 1279.19 1474.43 Q1281.02 1477.97 1284.63 1477.97 Q1288.26 1477.97 1290.07 1474.43 Q1291.9 1470.86 1291.9 1463.76 Q1291.9 1456.63 1290.07 1453.09 Q1288.26 1449.52 1284.63 1449.52 M1284.63 1445.82 Q1290.44 1445.82 1293.49 1450.43 Q1296.57 1455.01 1296.57 1463.76 Q1296.57 1472.49 1293.49 1477.09 Q1290.44 1481.68 1284.63 1481.68 Q1278.82 1481.68 1275.74 1477.09 Q1272.68 1472.49 1272.68 1463.76 Q1272.68 1455.01 1275.74 1450.43 Q1278.82 1445.82 1284.63 1445.82 Z" fill="#000000" fill-rule="nonzero" fill-opacity="1" /><path clip-path="url(#clip050)" d="M1302.04 1466.12 L1314.51 1466.12 L1314.51 1469.92 L1302.04 1469.92 L1302.04 1466.12 Z" fill="#000000" fill-rule="nonzero" fill-opacity="1" /><path clip-path="url(#clip050)" d="M1331.9 1449.52 Q1328.29 1449.52 1326.46 1453.09 Q1324.65 1456.63 1324.65 1463.76 Q1324.65 1470.86 1326.46 1474.43 Q1328.29 1477.97 1331.9 1477.97 Q1335.53 1477.97 1337.34 1474.43 Q1339.17 1470.86 1339.17 1463.76 Q1339.17 1456.63 1337.34 1453.09 Q1335.53 1449.52 1331.9 1449.52 M1331.9 1445.82 Q1337.71 1445.82 1340.76 1450.43 Q1343.84 1455.01 1343.84 1463.76 Q1343.84 1472.49 1340.76 1477.09 Q1337.71 1481.68 1331.9 1481.68 Q1326.09 1481.68 1323.01 1477.09 Q1319.95 1472.49 1319.95 1463.76 Q1319.95 1455.01 1323.01 1450.43 Q1326.09 1445.82 1331.9 1445.82 Z" fill="#000000" fill-rule="nonzero" fill-opacity="1" /><path clip-path="url(#clip050)" d="M1364.91 1450.52 L1353.1 1468.97 L1364.91 1468.97 L1364.91 1450.52 M1363.68 1446.44 L1369.56 1446.44 L1369.56 1468.97 L1374.49 1468.97 L1374.49 1472.86 L1369.56 1472.86 L1369.56 1481 L1364.91 1481 L1364.91 1472.86 L1349.3 1472.86 L1349.3 1468.34 L1363.68 1446.44 Z" fill="#000000" fill-rule="nonzero" fill-opacity="1" /><path clip-path="url(#clip050)" d="M1379.47 1466.12 L1391.94 1466.12 L1391.94 1469.92 L1379.47 1469.92 L1379.47 1466.12 Z" fill="#000000" fill-rule="nonzero" fill-opacity="1" /><path clip-path="url(#clip050)" d="M1409.33 1449.52 Q1405.72 1449.52 1403.89 1453.09 Q1402.08 1456.63 1402.08 1463.76 Q1402.08 1470.86 1403.89 1474.43 Q1405.72 1477.97 1409.33 1477.97 Q1412.96 1477.97 1414.77 1474.43 Q1416.6 1470.86 1416.6 1463.76 Q1416.6 1456.63 1414.77 1453.09 Q1412.96 1449.52 1409.33 1449.52 M1409.33 1445.82 Q1415.14 1445.82 1418.19 1450.43 Q1421.27 1455.01 1421.27 1463.76 Q1421.27 1472.49 1418.19 1477.09 Q1415.14 1481.68 1409.33 1481.68 Q1403.52 1481.68 1400.44 1477.09 Q1397.38 1472.49 1397.38 1463.76 Q1397.38 1455.01 1400.44 1450.43 Q1403.52 1445.82 1409.33 1445.82 Z" fill="#000000" fill-rule="nonzero" fill-opacity="1" /><path clip-path="url(#clip050)" d="M1430.3 1477.07 L1437.94 1477.07 L1437.94 1450.7 L1429.63 1452.37 L1429.63 1448.11 L1437.89 1446.44 L1442.57 1446.44 L1442.57 1477.07 L1450.21 1477.07 L1450.21 1481 L1430.3 1481 L1430.3 1477.07 Z" fill="#000000" fill-rule="nonzero" fill-opacity="1" /><path clip-path="url(#clip050)" d="M1996.69 1477.07 L2013.01 1477.07 L2013.01 1481 L1991.06 1481 L1991.06 1477.07 Q1993.73 1474.31 1998.31 1469.68 Q2002.92 1465.03 2004.1 1463.69 Q2006.34 1461.17 2007.22 1459.43 Q2008.12 1457.67 2008.12 1455.98 Q2008.12 1453.23 2006.18 1451.49 Q2004.26 1449.75 2001.16 1449.75 Q1998.96 1449.75 1996.5 1450.52 Q1994.07 1451.28 1991.3 1452.83 L1991.3 1448.11 Q1994.12 1446.98 1996.57 1446.4 Q1999.03 1445.82 2001.06 1445.82 Q2006.44 1445.82 2009.63 1448.5 Q2012.82 1451.19 2012.82 1455.68 Q2012.82 1457.81 2012.01 1459.73 Q2011.23 1461.63 2009.12 1464.22 Q2008.54 1464.89 2005.44 1468.11 Q2002.34 1471.3 1996.69 1477.07 Z" fill="#000000" fill-rule="nonzero" fill-opacity="1" /><path clip-path="url(#clip050)" d="M2032.82 1449.52 Q2029.21 1449.52 2027.38 1453.09 Q2025.58 1456.63 2025.58 1463.76 Q2025.58 1470.86 2027.38 1474.43 Q2029.21 1477.97 2032.82 1477.97 Q2036.46 1477.97 2038.26 1474.43 Q2040.09 1470.86 2040.09 1463.76 Q2040.09 1456.63 2038.26 1453.09 Q2036.46 1449.52 2032.82 1449.52 M2032.82 1445.82 Q2038.63 1445.82 2041.69 1450.43 Q2044.77 1455.01 2044.77 1463.76 Q2044.77 1472.49 2041.69 1477.09 Q2038.63 1481.68 2032.82 1481.68 Q2027.01 1481.68 2023.93 1477.09 Q2020.88 1472.49 2020.88 1463.76 Q2020.88 1455.01 2023.93 1450.43 Q2027.01 1445.82 2032.82 1445.82 Z" fill="#000000" fill-rule="nonzero" fill-opacity="1" /><path clip-path="url(#clip050)" d="M2057.01 1477.07 L2073.33 1477.07 L2073.33 1481 L2051.39 1481 L2051.39 1477.07 Q2054.05 1474.31 2058.63 1469.68 Q2063.24 1465.03 2064.42 1463.69 Q2066.67 1461.17 2067.55 1459.43 Q2068.45 1457.67 2068.45 1455.98 Q2068.45 1453.23 2066.5 1451.49 Q2064.58 1449.75 2061.48 1449.75 Q2059.28 1449.75 2056.83 1450.52 Q2054.4 1451.28 2051.62 1452.83 L2051.62 1448.11 Q2054.44 1446.98 2056.9 1446.4 Q2059.35 1445.82 2061.39 1445.82 Q2066.76 1445.82 2069.95 1448.5 Q2073.15 1451.19 2073.15 1455.68 Q2073.15 1457.81 2072.34 1459.73 Q2071.55 1461.63 2069.44 1464.22 Q2068.87 1464.89 2065.76 1468.11 Q2062.66 1471.3 2057.01 1477.07 Z" fill="#000000" fill-rule="nonzero" fill-opacity="1" /><path clip-path="url(#clip050)" d="M2093.15 1449.52 Q2089.54 1449.52 2087.71 1453.09 Q2085.9 1456.63 2085.9 1463.76 Q2085.9 1470.86 2087.71 1474.43 Q2089.54 1477.97 2093.15 1477.97 Q2096.78 1477.97 2098.59 1474.43 Q2100.42 1470.86 2100.42 1463.76 Q2100.42 1456.63 2098.59 1453.09 Q2096.78 1449.52 2093.15 1449.52 M2093.15 1445.82 Q2098.96 1445.82 2102.01 1450.43 Q2105.09 1455.01 2105.09 1463.76 Q2105.09 1472.49 2102.01 1477.09 Q2098.96 1481.68 2093.15 1481.68 Q2087.34 1481.68 2084.26 1477.09 Q2081.2 1472.49 2081.2 1463.76 Q2081.2 1455.01 2084.26 1450.43 Q2087.34 1445.82 2093.15 1445.82 Z" fill="#000000" fill-rule="nonzero" fill-opacity="1" /><path clip-path="url(#clip050)" d="M2110.55 1466.12 L2123.03 1466.12 L2123.03 1469.92 L2110.55 1469.92 L2110.55 1466.12 Z" fill="#000000" fill-rule="nonzero" fill-opacity="1" /><path clip-path="url(#clip050)" d="M2140.42 1449.52 Q2136.8 1449.52 2134.98 1453.09 Q2133.17 1456.63 2133.17 1463.76 Q2133.17 1470.86 2134.98 1474.43 Q2136.8 1477.97 2140.42 1477.97 Q2144.05 1477.97 2145.86 1474.43 Q2147.68 1470.86 2147.68 1463.76 Q2147.68 1456.63 2145.86 1453.09 Q2144.05 1449.52 2140.42 1449.52 M2140.42 1445.82 Q2146.23 1445.82 2149.28 1450.43 Q2152.36 1455.01 2152.36 1463.76 Q2152.36 1472.49 2149.28 1477.09 Q2146.23 1481.68 2140.42 1481.68 Q2134.61 1481.68 2131.53 1477.09 Q2128.47 1472.49 2128.47 1463.76 Q2128.47 1455.01 2131.53 1450.43 Q2134.61 1445.82 2140.42 1445.82 Z" fill="#000000" fill-rule="nonzero" fill-opacity="1" /><path clip-path="url(#clip050)" d="M2160.62 1446.44 L2178.98 1446.44 L2178.98 1450.38 L2164.91 1450.38 L2164.91 1458.85 Q2165.92 1458.5 2166.94 1458.34 Q2167.96 1458.16 2168.98 1458.16 Q2174.77 1458.16 2178.15 1461.33 Q2181.53 1464.5 2181.53 1469.92 Q2181.53 1475.49 2178.05 1478.6 Q2174.58 1481.68 2168.26 1481.68 Q2166.09 1481.68 2163.82 1481.3 Q2161.57 1480.93 2159.17 1480.19 L2159.17 1475.49 Q2161.25 1476.63 2163.47 1477.18 Q2165.69 1477.74 2168.17 1477.74 Q2172.17 1477.74 2174.51 1475.63 Q2176.85 1473.53 2176.85 1469.92 Q2176.85 1466.3 2174.51 1464.2 Q2172.17 1462.09 2168.17 1462.09 Q2166.3 1462.09 2164.42 1462.51 Q2162.57 1462.93 2160.62 1463.8 L2160.62 1446.44 Z" fill="#000000" fill-rule="nonzero" fill-opacity="1" /><path clip-path="url(#clip050)" d="M2187.99 1466.12 L2200.46 1466.12 L2200.46 1469.92 L2187.99 1469.92 L2187.99 1466.12 Z" fill="#000000" fill-rule="nonzero" fill-opacity="1" /><path clip-path="url(#clip050)" d="M2217.85 1449.52 Q2214.23 1449.52 2212.41 1453.09 Q2210.6 1456.63 2210.6 1463.76 Q2210.6 1470.86 2212.41 1474.43 Q2214.23 1477.97 2217.85 1477.97 Q2221.48 1477.97 2223.29 1474.43 Q2225.11 1470.86 2225.11 1463.76 Q2225.11 1456.63 2223.29 1453.09 Q2221.48 1449.52 2217.85 1449.52 M2217.85 1445.82 Q2223.66 1445.82 2226.71 1450.43 Q2229.79 1455.01 2229.79 1463.76 Q2229.79 1472.49 2226.71 1477.09 Q2223.66 1481.68 2217.85 1481.68 Q2212.04 1481.68 2208.96 1477.09 Q2205.9 1472.49 2205.9 1463.76 Q2205.9 1455.01 2208.96 1450.43 Q2212.04 1445.82 2217.85 1445.82 Z" fill="#000000" fill-rule="nonzero" fill-opacity="1" /><path clip-path="url(#clip050)" d="M2238.82 1477.07 L2246.46 1477.07 L2246.46 1450.7 L2238.15 1452.37 L2238.15 1448.11 L2246.41 1446.44 L2251.09 1446.44 L2251.09 1477.07 L2258.73 1477.07 L2258.73 1481 L2238.82 1481 L2238.82 1477.07 Z" fill="#000000" fill-rule="nonzero" fill-opacity="1" /><path clip-path="url(#clip050)" d="M2832.16 1477.07 L2848.48 1477.07 L2848.48 1481 L2826.53 1481 L2826.53 1477.07 Q2829.2 1474.31 2833.78 1469.68 Q2838.39 1465.03 2839.57 1463.69 Q2841.81 1461.17 2842.69 1459.43 Q2843.59 1457.67 2843.59 1455.98 Q2843.59 1453.23 2841.65 1451.49 Q2839.73 1449.75 2836.63 1449.75 Q2834.43 1449.75 2831.97 1450.52 Q2829.54 1451.28 2826.77 1452.83 L2826.77 1448.11 Q2829.59 1446.98 2832.04 1446.4 Q2834.5 1445.82 2836.53 1445.82 Q2841.9 1445.82 2845.1 1448.5 Q2848.29 1451.19 2848.29 1455.68 Q2848.29 1457.81 2847.48 1459.73 Q2846.7 1461.63 2844.59 1464.22 Q2844.01 1464.89 2840.91 1468.11 Q2837.81 1471.3 2832.16 1477.07 Z" fill="#000000" fill-rule="nonzero" fill-opacity="1" /><path clip-path="url(#clip050)" d="M2868.29 1449.52 Q2864.68 1449.52 2862.85 1453.09 Q2861.05 1456.63 2861.05 1463.76 Q2861.05 1470.86 2862.85 1474.43 Q2864.68 1477.97 2868.29 1477.97 Q2871.93 1477.97 2873.73 1474.43 Q2875.56 1470.86 2875.56 1463.76 Q2875.56 1456.63 2873.73 1453.09 Q2871.93 1449.52 2868.29 1449.52 M2868.29 1445.82 Q2874.1 1445.82 2877.16 1450.43 Q2880.24 1455.01 2880.24 1463.76 Q2880.24 1472.49 2877.16 1477.09 Q2874.1 1481.68 2868.29 1481.68 Q2862.48 1481.68 2859.4 1477.09 Q2856.35 1472.49 2856.35 1463.76 Q2856.35 1455.01 2859.4 1450.43 Q2862.48 1445.82 2868.29 1445.82 Z" fill="#000000" fill-rule="nonzero" fill-opacity="1" /><path clip-path="url(#clip050)" d="M2892.48 1477.07 L2908.8 1477.07 L2908.8 1481 L2886.86 1481 L2886.86 1477.07 Q2889.52 1474.31 2894.1 1469.68 Q2898.71 1465.03 2899.89 1463.69 Q2902.14 1461.17 2903.02 1459.43 Q2903.92 1457.67 2903.92 1455.98 Q2903.92 1453.23 2901.97 1451.49 Q2900.05 1449.75 2896.95 1449.75 Q2894.75 1449.75 2892.3 1450.52 Q2889.87 1451.28 2887.09 1452.83 L2887.09 1448.11 Q2889.91 1446.98 2892.37 1446.4 Q2894.82 1445.82 2896.86 1445.82 Q2902.23 1445.82 2905.42 1448.5 Q2908.62 1451.19 2908.62 1455.68 Q2908.62 1457.81 2907.81 1459.73 Q2907.02 1461.63 2904.91 1464.22 Q2904.33 1464.89 2901.23 1468.11 Q2898.13 1471.3 2892.48 1477.07 Z" fill="#000000" fill-rule="nonzero" fill-opacity="1" /><path clip-path="url(#clip050)" d="M2928.62 1449.52 Q2925.01 1449.52 2923.18 1453.09 Q2921.37 1456.63 2921.37 1463.76 Q2921.37 1470.86 2923.18 1474.43 Q2925.01 1477.97 2928.62 1477.97 Q2932.25 1477.97 2934.06 1474.43 Q2935.89 1470.86 2935.89 1463.76 Q2935.89 1456.63 2934.06 1453.09 Q2932.25 1449.52 2928.62 1449.52 M2928.62 1445.82 Q2934.43 1445.82 2937.48 1450.43 Q2940.56 1455.01 2940.56 1463.76 Q2940.56 1472.49 2937.48 1477.09 Q2934.43 1481.68 2928.62 1481.68 Q2922.81 1481.68 2919.73 1477.09 Q2916.67 1472.49 2916.67 1463.76 Q2916.67 1455.01 2919.73 1450.43 Q2922.81 1445.82 2928.62 1445.82 Z" fill="#000000" fill-rule="nonzero" fill-opacity="1" /><path clip-path="url(#clip050)" d="M2946.02 1466.12 L2958.5 1466.12 L2958.5 1469.92 L2946.02 1469.92 L2946.02 1466.12 Z" fill="#000000" fill-rule="nonzero" fill-opacity="1" /><path clip-path="url(#clip050)" d="M2975.89 1449.52 Q2972.27 1449.52 2970.45 1453.09 Q2968.64 1456.63 2968.64 1463.76 Q2968.64 1470.86 2970.45 1474.43 Q2972.27 1477.97 2975.89 1477.97 Q2979.52 1477.97 2981.33 1474.43 Q2983.15 1470.86 2983.15 1463.76 Q2983.15 1456.63 2981.33 1453.09 Q2979.52 1449.52 2975.89 1449.52 M2975.89 1445.82 Q2981.7 1445.82 2984.75 1450.43 Q2987.83 1455.01 2987.83 1463.76 Q2987.83 1472.49 2984.75 1477.09 Q2981.7 1481.68 2975.89 1481.68 Q2970.08 1481.68 2967 1477.09 Q2963.94 1472.49 2963.94 1463.76 Q2963.94 1455.01 2967 1450.43 Q2970.08 1445.82 2975.89 1445.82 Z" fill="#000000" fill-rule="nonzero" fill-opacity="1" /><path clip-path="url(#clip050)" d="M3006.63 1461.86 Q3003.48 1461.86 3001.63 1464.01 Q2999.8 1466.17 2999.8 1469.92 Q2999.8 1473.64 3001.63 1475.82 Q3003.48 1477.97 3006.63 1477.97 Q3009.77 1477.97 3011.6 1475.82 Q3013.45 1473.64 3013.45 1469.92 Q3013.45 1466.17 3011.6 1464.01 Q3009.77 1461.86 3006.63 1461.86 M3015.91 1447.21 L3015.91 1451.47 Q3014.15 1450.63 3012.34 1450.19 Q3010.56 1449.75 3008.8 1449.75 Q3004.17 1449.75 3001.72 1452.88 Q2999.29 1456 2998.94 1462.32 Q3000.31 1460.31 3002.37 1459.24 Q3004.43 1458.16 3006.9 1458.16 Q3012.11 1458.16 3015.12 1461.33 Q3018.15 1464.48 3018.15 1469.92 Q3018.15 1475.24 3015.01 1478.46 Q3011.86 1481.68 3006.63 1481.68 Q3000.63 1481.68 2997.46 1477.09 Q2994.29 1472.49 2994.29 1463.76 Q2994.29 1455.56 2998.18 1450.7 Q3002.07 1445.82 3008.62 1445.82 Q3010.38 1445.82 3012.16 1446.17 Q3013.96 1446.51 3015.91 1447.21 Z" fill="#000000" fill-rule="nonzero" fill-opacity="1" /><path clip-path="url(#clip050)" d="M3023.45 1466.12 L3035.93 1466.12 L3035.93 1469.92 L3023.45 1469.92 L3023.45 1466.12 Z" fill="#000000" fill-rule="nonzero" fill-opacity="1" /><path clip-path="url(#clip050)" d="M3053.32 1449.52 Q3049.7 1449.52 3047.88 1453.09 Q3046.07 1456.63 3046.07 1463.76 Q3046.07 1470.86 3047.88 1474.43 Q3049.7 1477.97 3053.32 1477.97 Q3056.95 1477.97 3058.76 1474.43 Q3060.58 1470.86 3060.58 1463.76 Q3060.58 1456.63 3058.76 1453.09 Q3056.95 1449.52 3053.32 1449.52 M3053.32 1445.82 Q3059.13 1445.82 3062.18 1450.43 Q3065.26 1455.01 3065.26 1463.76 Q3065.26 1472.49 3062.18 1477.09 Q3059.13 1481.68 3053.32 1481.68 Q3047.51 1481.68 3044.43 1477.09 Q3041.37 1472.49 3041.37 1463.76 Q3041.37 1455.01 3044.43 1450.43 Q3047.51 1445.82 3053.32 1445.82 Z" fill="#000000" fill-rule="nonzero" fill-opacity="1" /><path clip-path="url(#clip050)" d="M3074.29 1477.07 L3081.93 1477.07 L3081.93 1450.7 L3073.62 1452.37 L3073.62 1448.11 L3081.88 1446.44 L3086.56 1446.44 L3086.56 1477.07 L3094.19 1477.07 L3094.19 1481 L3074.29 1481 L3074.29 1477.07 Z" fill="#000000" fill-rule="nonzero" fill-opacity="1" /><path clip-path="url(#clip050)" d="M1640.62 1526.83 L1640.62 1563.78 L1648.39 1563.78 Q1658.22 1563.78 1662.78 1559.33 Q1667.36 1554.87 1667.36 1545.26 Q1667.36 1535.71 1662.78 1531.29 Q1658.22 1526.83 1648.39 1526.83 L1640.62 1526.83 M1634.19 1521.55 L1647.4 1521.55 Q1661.22 1521.55 1667.68 1527.31 Q1674.14 1533.04 1674.14 1545.26 Q1674.14 1557.55 1667.65 1563.31 Q1661.15 1569.07 1647.4 1569.07 L1634.19 1569.07 L1634.19 1521.55 Z" fill="#000000" fill-rule="nonzero" fill-opacity="1" /><path clip-path="url(#clip050)" d="M1700.33 1551.15 Q1693.24 1551.15 1690.5 1552.77 Q1687.76 1554.39 1687.76 1558.31 Q1687.76 1561.43 1689.8 1563.27 Q1691.87 1565.09 1695.4 1565.09 Q1700.27 1565.09 1703.2 1561.65 Q1706.16 1558.18 1706.16 1552.45 L1706.16 1551.15 L1700.33 1551.15 M1712.01 1548.73 L1712.01 1569.07 L1706.16 1569.07 L1706.16 1563.66 Q1704.15 1566.9 1701.16 1568.46 Q1698.17 1569.99 1693.84 1569.99 Q1688.37 1569.99 1685.12 1566.94 Q1681.9 1563.85 1681.9 1558.69 Q1681.9 1552.68 1685.91 1549.62 Q1689.96 1546.57 1697.95 1546.57 L1706.16 1546.57 L1706.16 1545.99 Q1706.16 1541.95 1703.48 1539.75 Q1700.84 1537.53 1696.04 1537.53 Q1692.98 1537.53 1690.08 1538.26 Q1687.19 1538.99 1684.51 1540.45 L1684.51 1535.04 Q1687.73 1533.8 1690.75 1533.2 Q1693.78 1532.56 1696.64 1532.56 Q1704.38 1532.56 1708.19 1536.57 Q1712.01 1540.58 1712.01 1548.73 Z" fill="#000000" fill-rule="nonzero" fill-opacity="1" /><path clip-path="url(#clip050)" d="M1729.87 1523.3 L1729.87 1533.42 L1741.93 1533.42 L1741.93 1537.97 L1729.87 1537.97 L1729.87 1557.32 Q1729.87 1561.68 1731.05 1562.92 Q1732.26 1564.17 1735.92 1564.17 L1741.93 1564.17 L1741.93 1569.07 L1735.92 1569.07 Q1729.14 1569.07 1726.56 1566.55 Q1723.98 1564.01 1723.98 1557.32 L1723.98 1537.97 L1719.68 1537.97 L1719.68 1533.42 L1723.98 1533.42 L1723.98 1523.3 L1729.87 1523.3 Z" fill="#000000" fill-rule="nonzero" fill-opacity="1" /><path clip-path="url(#clip050)" d="M1780.13 1549.78 L1780.13 1552.64 L1753.2 1552.64 Q1753.58 1558.69 1756.83 1561.87 Q1760.11 1565.03 1765.93 1565.03 Q1769.31 1565.03 1772.46 1564.2 Q1775.64 1563.37 1778.76 1561.72 L1778.76 1567.25 Q1775.61 1568.59 1772.3 1569.29 Q1768.99 1569.99 1765.58 1569.99 Q1757.05 1569.99 1752.05 1565.03 Q1747.09 1560.06 1747.09 1551.59 Q1747.09 1542.84 1751.8 1537.72 Q1756.54 1532.56 1764.56 1532.56 Q1771.76 1532.56 1775.93 1537.21 Q1780.13 1541.82 1780.13 1549.78 M1774.27 1548.06 Q1774.21 1543.25 1771.57 1540.39 Q1768.96 1537.53 1764.63 1537.53 Q1759.73 1537.53 1756.77 1540.29 Q1753.84 1543.06 1753.39 1548.09 L1774.27 1548.06 Z" fill="#000000" fill-rule="nonzero" fill-opacity="1" /><polyline clip-path="url(#clip052)" style="stroke:#000000; stroke-linecap:round; stroke-linejoin:round; stroke-width:2; stroke-opacity:0.1; fill:none" points="293.061,1381.46 3121.26,1381.46 "/>
<polyline clip-path="url(#clip052)" style="stroke:#000000; stroke-linecap:round; stroke-linejoin:round; stroke-width:2; stroke-opacity:0.1; fill:none" points="293.061,1130.39 3121.26,1130.39 "/>
<polyline clip-path="url(#clip052)" style="stroke:#000000; stroke-linecap:round; stroke-linejoin:round; stroke-width:2; stroke-opacity:0.1; fill:none" points="293.061,879.315 3121.26,879.315 "/>
<polyline clip-path="url(#clip052)" style="stroke:#000000; stroke-linecap:round; stroke-linejoin:round; stroke-width:2; stroke-opacity:0.1; fill:none" points="293.061,628.241 3121.26,628.241 "/>
<polyline clip-path="url(#clip052)" style="stroke:#000000; stroke-linecap:round; stroke-linejoin:round; stroke-width:2; stroke-opacity:0.1; fill:none" points="293.061,377.167 3121.26,377.167 "/>
<polyline clip-path="url(#clip052)" style="stroke:#000000; stroke-linecap:round; stroke-linejoin:round; stroke-width:2; stroke-opacity:0.1; fill:none" points="293.061,126.094 3121.26,126.094 "/>
<polyline clip-path="url(#clip050)" style="stroke:#000000; stroke-linecap:round; stroke-linejoin:round; stroke-width:4; stroke-opacity:1; fill:none" points="293.061,1412.2 293.061,78.7402 "/>
<polyline clip-path="url(#clip050)" style="stroke:#000000; stroke-linecap:round; stroke-linejoin:round; stroke-width:4; stroke-opacity:1; fill:none" points="293.061,1381.46 311.958,1381.46 "/>
<polyline clip-path="url(#clip050)" style="stroke:#000000; stroke-linecap:round; stroke-linejoin:round; stroke-width:4; stroke-opacity:1; fill:none" points="293.061,1130.39 311.958,1130.39 "/>
<polyline clip-path="url(#clip050)" style="stroke:#000000; stroke-linecap:round; stroke-linejoin:round; stroke-width:4; stroke-opacity:1; fill:none" points="293.061,879.315 311.958,879.315 "/>
<polyline clip-path="url(#clip050)" style="stroke:#000000; stroke-linecap:round; stroke-linejoin:round; stroke-width:4; stroke-opacity:1; fill:none" points="293.061,628.241 311.958,628.241 "/>
<polyline clip-path="url(#clip050)" style="stroke:#000000; stroke-linecap:round; stroke-linejoin:round; stroke-width:4; stroke-opacity:1; fill:none" points="293.061,377.167 311.958,377.167 "/>
<polyline clip-path="url(#clip050)" style="stroke:#000000; stroke-linecap:round; stroke-linejoin:round; stroke-width:4; stroke-opacity:1; fill:none" points="293.061,126.094 311.958,126.094 "/>
<path clip-path="url(#clip050)" d="M233.116 1367.26 Q229.505 1367.26 227.677 1370.83 Q225.871 1374.37 225.871 1381.5 Q225.871 1388.6 227.677 1392.17 Q229.505 1395.71 233.116 1395.71 Q236.751 1395.71 238.556 1392.17 Q240.385 1388.6 240.385 1381.5 Q240.385 1374.37 238.556 1370.83 Q236.751 1367.26 233.116 1367.26 M233.116 1363.56 Q238.927 1363.56 241.982 1368.16 Q245.061 1372.75 245.061 1381.5 Q245.061 1390.22 241.982 1394.83 Q238.927 1399.41 233.116 1399.41 Q227.306 1399.41 224.228 1394.83 Q221.172 1390.22 221.172 1381.5 Q221.172 1372.75 224.228 1368.16 Q227.306 1363.56 233.116 1363.56 Z" fill="#000000" fill-rule="nonzero" fill-opacity="1" /><path clip-path="url(#clip050)" d="M133.441 1143.73 L141.08 1143.73 L141.08 1117.37 L132.77 1119.03 L132.77 1114.78 L141.034 1113.11 L145.709 1113.11 L145.709 1143.73 L153.348 1143.73 L153.348 1147.67 L133.441 1147.67 L133.441 1143.73 Z" fill="#000000" fill-rule="nonzero" fill-opacity="1" /><path clip-path="url(#clip050)" d="M172.793 1116.19 Q169.182 1116.19 167.353 1119.75 Q165.547 1123.29 165.547 1130.42 Q165.547 1137.53 167.353 1141.09 Q169.182 1144.64 172.793 1144.64 Q176.427 1144.64 178.232 1141.09 Q180.061 1137.53 180.061 1130.42 Q180.061 1123.29 178.232 1119.75 Q176.427 1116.19 172.793 1116.19 M172.793 1112.48 Q178.603 1112.48 181.658 1117.09 Q184.737 1121.67 184.737 1130.42 Q184.737 1139.15 181.658 1143.76 Q178.603 1148.34 172.793 1148.34 Q166.983 1148.34 163.904 1143.76 Q160.848 1139.15 160.848 1130.42 Q160.848 1121.67 163.904 1117.09 Q166.983 1112.48 172.793 1112.48 Z" fill="#000000" fill-rule="nonzero" fill-opacity="1" /><path clip-path="url(#clip050)" d="M202.955 1116.19 Q199.343 1116.19 197.515 1119.75 Q195.709 1123.29 195.709 1130.42 Q195.709 1137.53 197.515 1141.09 Q199.343 1144.64 202.955 1144.64 Q206.589 1144.64 208.394 1141.09 Q210.223 1137.53 210.223 1130.42 Q210.223 1123.29 208.394 1119.75 Q206.589 1116.19 202.955 1116.19 M202.955 1112.48 Q208.765 1112.48 211.82 1117.09 Q214.899 1121.67 214.899 1130.42 Q214.899 1139.15 211.82 1143.76 Q208.765 1148.34 202.955 1148.34 Q197.144 1148.34 194.066 1143.76 Q191.01 1139.15 191.01 1130.42 Q191.01 1121.67 194.066 1117.09 Q197.144 1112.48 202.955 1112.48 Z" fill="#000000" fill-rule="nonzero" fill-opacity="1" /><path clip-path="url(#clip050)" d="M233.116 1116.19 Q229.505 1116.19 227.677 1119.75 Q225.871 1123.29 225.871 1130.42 Q225.871 1137.53 227.677 1141.09 Q229.505 1144.64 233.116 1144.64 Q236.751 1144.64 238.556 1141.09 Q240.385 1137.53 240.385 1130.42 Q240.385 1123.29 238.556 1119.75 Q236.751 1116.19 233.116 1116.19 M233.116 1112.48 Q238.927 1112.48 241.982 1117.09 Q245.061 1121.67 245.061 1130.42 Q245.061 1139.15 241.982 1143.76 Q238.927 1148.34 233.116 1148.34 Q227.306 1148.34 224.228 1143.76 Q221.172 1139.15 221.172 1130.42 Q221.172 1121.67 224.228 1117.09 Q227.306 1112.48 233.116 1112.48 Z" fill="#000000" fill-rule="nonzero" fill-opacity="1" /><path clip-path="url(#clip050)" d="M136.659 892.66 L152.978 892.66 L152.978 896.595 L131.034 896.595 L131.034 892.66 Q133.696 889.905 138.279 885.276 Q142.885 880.623 144.066 879.28 Q146.311 876.757 147.191 875.021 Q148.094 873.262 148.094 871.572 Q148.094 868.817 146.149 867.081 Q144.228 865.345 141.126 865.345 Q138.927 865.345 136.473 866.109 Q134.043 866.873 131.265 868.424 L131.265 863.702 Q134.089 862.567 136.543 861.989 Q138.997 861.41 141.034 861.41 Q146.404 861.41 149.598 864.095 Q152.793 866.78 152.793 871.271 Q152.793 873.401 151.983 875.322 Q151.196 877.22 149.089 879.813 Q148.51 880.484 145.409 883.702 Q142.307 886.896 136.659 892.66 Z" fill="#000000" fill-rule="nonzero" fill-opacity="1" /><path clip-path="url(#clip050)" d="M172.793 865.114 Q169.182 865.114 167.353 868.679 Q165.547 872.22 165.547 879.35 Q165.547 886.456 167.353 890.021 Q169.182 893.563 172.793 893.563 Q176.427 893.563 178.232 890.021 Q180.061 886.456 180.061 879.35 Q180.061 872.22 178.232 868.679 Q176.427 865.114 172.793 865.114 M172.793 861.41 Q178.603 861.41 181.658 866.017 Q184.737 870.6 184.737 879.35 Q184.737 888.077 181.658 892.683 Q178.603 897.266 172.793 897.266 Q166.983 897.266 163.904 892.683 Q160.848 888.077 160.848 879.35 Q160.848 870.6 163.904 866.017 Q166.983 861.41 172.793 861.41 Z" fill="#000000" fill-rule="nonzero" fill-opacity="1" /><path clip-path="url(#clip050)" d="M202.955 865.114 Q199.343 865.114 197.515 868.679 Q195.709 872.22 195.709 879.35 Q195.709 886.456 197.515 890.021 Q199.343 893.563 202.955 893.563 Q206.589 893.563 208.394 890.021 Q210.223 886.456 210.223 879.35 Q210.223 872.22 208.394 868.679 Q206.589 865.114 202.955 865.114 M202.955 861.41 Q208.765 861.41 211.82 866.017 Q214.899 870.6 214.899 879.35 Q214.899 888.077 211.82 892.683 Q208.765 897.266 202.955 897.266 Q197.144 897.266 194.066 892.683 Q191.01 888.077 191.01 879.35 Q191.01 870.6 194.066 866.017 Q197.144 861.41 202.955 861.41 Z" fill="#000000" fill-rule="nonzero" fill-opacity="1" /><path clip-path="url(#clip050)" d="M233.116 865.114 Q229.505 865.114 227.677 868.679 Q225.871 872.22 225.871 879.35 Q225.871 886.456 227.677 890.021 Q229.505 893.563 233.116 893.563 Q236.751 893.563 238.556 890.021 Q240.385 886.456 240.385 879.35 Q240.385 872.22 238.556 868.679 Q236.751 865.114 233.116 865.114 M233.116 861.41 Q238.927 861.41 241.982 866.017 Q245.061 870.6 245.061 879.35 Q245.061 888.077 241.982 892.683 Q238.927 897.266 233.116 897.266 Q227.306 897.266 224.228 892.683 Q221.172 888.077 221.172 879.35 Q221.172 870.6 224.228 866.017 Q227.306 861.41 233.116 861.41 Z" fill="#000000" fill-rule="nonzero" fill-opacity="1" /><path clip-path="url(#clip050)" d="M146.797 626.887 Q150.154 627.605 152.029 629.873 Q153.927 632.142 153.927 635.475 Q153.927 640.591 150.409 643.392 Q146.89 646.193 140.409 646.193 Q138.233 646.193 135.918 645.753 Q133.626 645.336 131.173 644.48 L131.173 639.966 Q133.117 641.1 135.432 641.679 Q137.747 642.257 140.27 642.257 Q144.668 642.257 146.959 640.521 Q149.274 638.785 149.274 635.475 Q149.274 632.419 147.121 630.706 Q144.992 628.97 141.172 628.97 L137.145 628.97 L137.145 625.128 L141.358 625.128 Q144.807 625.128 146.635 623.762 Q148.464 622.373 148.464 619.781 Q148.464 617.119 146.566 615.707 Q144.691 614.271 141.172 614.271 Q139.251 614.271 137.052 614.688 Q134.853 615.105 132.214 615.984 L132.214 611.818 Q134.876 611.077 137.191 610.707 Q139.529 610.336 141.589 610.336 Q146.913 610.336 150.015 612.767 Q153.117 615.174 153.117 619.295 Q153.117 622.165 151.473 624.156 Q149.83 626.123 146.797 626.887 Z" fill="#000000" fill-rule="nonzero" fill-opacity="1" /><path clip-path="url(#clip050)" d="M172.793 614.04 Q169.182 614.04 167.353 617.605 Q165.547 621.146 165.547 628.276 Q165.547 635.382 167.353 638.947 Q169.182 642.489 172.793 642.489 Q176.427 642.489 178.232 638.947 Q180.061 635.382 180.061 628.276 Q180.061 621.146 178.232 617.605 Q176.427 614.04 172.793 614.04 M172.793 610.336 Q178.603 610.336 181.658 614.943 Q184.737 619.526 184.737 628.276 Q184.737 637.003 181.658 641.609 Q178.603 646.193 172.793 646.193 Q166.983 646.193 163.904 641.609 Q160.848 637.003 160.848 628.276 Q160.848 619.526 163.904 614.943 Q166.983 610.336 172.793 610.336 Z" fill="#000000" fill-rule="nonzero" fill-opacity="1" /><path clip-path="url(#clip050)" d="M202.955 614.04 Q199.343 614.04 197.515 617.605 Q195.709 621.146 195.709 628.276 Q195.709 635.382 197.515 638.947 Q199.343 642.489 202.955 642.489 Q206.589 642.489 208.394 638.947 Q210.223 635.382 210.223 628.276 Q210.223 621.146 208.394 617.605 Q206.589 614.04 202.955 614.04 M202.955 610.336 Q208.765 610.336 211.82 614.943 Q214.899 619.526 214.899 628.276 Q214.899 637.003 211.82 641.609 Q208.765 646.193 202.955 646.193 Q197.144 646.193 194.066 641.609 Q191.01 637.003 191.01 628.276 Q191.01 619.526 194.066 614.943 Q197.144 610.336 202.955 610.336 Z" fill="#000000" fill-rule="nonzero" fill-opacity="1" /><path clip-path="url(#clip050)" d="M233.116 614.04 Q229.505 614.04 227.677 617.605 Q225.871 621.146 225.871 628.276 Q225.871 635.382 227.677 638.947 Q229.505 642.489 233.116 642.489 Q236.751 642.489 238.556 638.947 Q240.385 635.382 240.385 628.276 Q240.385 621.146 238.556 617.605 Q236.751 614.04 233.116 614.04 M233.116 610.336 Q238.927 610.336 241.982 614.943 Q245.061 619.526 245.061 628.276 Q245.061 637.003 241.982 641.609 Q238.927 646.193 233.116 646.193 Q227.306 646.193 224.228 641.609 Q221.172 637.003 221.172 628.276 Q221.172 619.526 224.228 614.943 Q227.306 610.336 233.116 610.336 Z" fill="#000000" fill-rule="nonzero" fill-opacity="1" /><path clip-path="url(#clip050)" d="M145.478 363.961 L133.672 382.41 L145.478 382.41 L145.478 363.961 M144.251 359.887 L150.131 359.887 L150.131 382.41 L155.061 382.41 L155.061 386.299 L150.131 386.299 L150.131 394.447 L145.478 394.447 L145.478 386.299 L129.876 386.299 L129.876 381.785 L144.251 359.887 Z" fill="#000000" fill-rule="nonzero" fill-opacity="1" /><path clip-path="url(#clip050)" d="M172.793 362.966 Q169.182 362.966 167.353 366.531 Q165.547 370.073 165.547 377.202 Q165.547 384.309 167.353 387.873 Q169.182 391.415 172.793 391.415 Q176.427 391.415 178.232 387.873 Q180.061 384.309 180.061 377.202 Q180.061 370.073 178.232 366.531 Q176.427 362.966 172.793 362.966 M172.793 359.262 Q178.603 359.262 181.658 363.869 Q184.737 368.452 184.737 377.202 Q184.737 385.929 181.658 390.535 Q178.603 395.119 172.793 395.119 Q166.983 395.119 163.904 390.535 Q160.848 385.929 160.848 377.202 Q160.848 368.452 163.904 363.869 Q166.983 359.262 172.793 359.262 Z" fill="#000000" fill-rule="nonzero" fill-opacity="1" /><path clip-path="url(#clip050)" d="M202.955 362.966 Q199.343 362.966 197.515 366.531 Q195.709 370.073 195.709 377.202 Q195.709 384.309 197.515 387.873 Q199.343 391.415 202.955 391.415 Q206.589 391.415 208.394 387.873 Q210.223 384.309 210.223 377.202 Q210.223 370.073 208.394 366.531 Q206.589 362.966 202.955 362.966 M202.955 359.262 Q208.765 359.262 211.82 363.869 Q214.899 368.452 214.899 377.202 Q214.899 385.929 211.82 390.535 Q208.765 395.119 202.955 395.119 Q197.144 395.119 194.066 390.535 Q191.01 385.929 191.01 377.202 Q191.01 368.452 194.066 363.869 Q197.144 359.262 202.955 359.262 Z" fill="#000000" fill-rule="nonzero" fill-opacity="1" /><path clip-path="url(#clip050)" d="M233.116 362.966 Q229.505 362.966 227.677 366.531 Q225.871 370.073 225.871 377.202 Q225.871 384.309 227.677 387.873 Q229.505 391.415 233.116 391.415 Q236.751 391.415 238.556 387.873 Q240.385 384.309 240.385 377.202 Q240.385 370.073 238.556 366.531 Q236.751 362.966 233.116 362.966 M233.116 359.262 Q238.927 359.262 241.982 363.869 Q245.061 368.452 245.061 377.202 Q245.061 385.929 241.982 390.535 Q238.927 395.119 233.116 395.119 Q227.306 395.119 224.228 390.535 Q221.172 385.929 221.172 377.202 Q221.172 368.452 224.228 363.869 Q227.306 359.262 233.116 359.262 Z" fill="#000000" fill-rule="nonzero" fill-opacity="1" /><path clip-path="url(#clip050)" d="M132.677 108.814 L151.034 108.814 L151.034 112.749 L136.96 112.749 L136.96 121.221 Q137.978 120.874 138.997 120.712 Q140.015 120.526 141.034 120.526 Q146.821 120.526 150.2 123.698 Q153.58 126.869 153.58 132.286 Q153.58 137.864 150.108 140.966 Q146.635 144.045 140.316 144.045 Q138.14 144.045 135.872 143.674 Q133.626 143.304 131.219 142.563 L131.219 137.864 Q133.302 138.999 135.524 139.554 Q137.747 140.11 140.223 140.11 Q144.228 140.11 146.566 138.003 Q148.904 135.897 148.904 132.286 Q148.904 128.675 146.566 126.568 Q144.228 124.462 140.223 124.462 Q138.348 124.462 136.473 124.878 Q134.622 125.295 132.677 126.175 L132.677 108.814 Z" fill="#000000" fill-rule="nonzero" fill-opacity="1" /><path clip-path="url(#clip050)" d="M172.793 111.892 Q169.182 111.892 167.353 115.457 Q165.547 118.999 165.547 126.128 Q165.547 133.235 167.353 136.8 Q169.182 140.341 172.793 140.341 Q176.427 140.341 178.232 136.8 Q180.061 133.235 180.061 126.128 Q180.061 118.999 178.232 115.457 Q176.427 111.892 172.793 111.892 M172.793 108.189 Q178.603 108.189 181.658 112.795 Q184.737 117.378 184.737 126.128 Q184.737 134.855 181.658 139.462 Q178.603 144.045 172.793 144.045 Q166.983 144.045 163.904 139.462 Q160.848 134.855 160.848 126.128 Q160.848 117.378 163.904 112.795 Q166.983 108.189 172.793 108.189 Z" fill="#000000" fill-rule="nonzero" fill-opacity="1" /><path clip-path="url(#clip050)" d="M202.955 111.892 Q199.343 111.892 197.515 115.457 Q195.709 118.999 195.709 126.128 Q195.709 133.235 197.515 136.8 Q199.343 140.341 202.955 140.341 Q206.589 140.341 208.394 136.8 Q210.223 133.235 210.223 126.128 Q210.223 118.999 208.394 115.457 Q206.589 111.892 202.955 111.892 M202.955 108.189 Q208.765 108.189 211.82 112.795 Q214.899 117.378 214.899 126.128 Q214.899 134.855 211.82 139.462 Q208.765 144.045 202.955 144.045 Q197.144 144.045 194.066 139.462 Q191.01 134.855 191.01 126.128 Q191.01 117.378 194.066 112.795 Q197.144 108.189 202.955 108.189 Z" fill="#000000" fill-rule="nonzero" fill-opacity="1" /><path clip-path="url(#clip050)" d="M233.116 111.892 Q229.505 111.892 227.677 115.457 Q225.871 118.999 225.871 126.128 Q225.871 133.235 227.677 136.8 Q229.505 140.341 233.116 140.341 Q236.751 140.341 238.556 136.8 Q240.385 133.235 240.385 126.128 Q240.385 118.999 238.556 115.457 Q236.751 111.892 233.116 111.892 M233.116 108.189 Q238.927 108.189 241.982 112.795 Q245.061 117.378 245.061 126.128 Q245.061 134.855 241.982 139.462 Q238.927 144.045 233.116 144.045 Q227.306 144.045 224.228 139.462 Q221.172 134.855 221.172 126.128 Q221.172 117.378 224.228 112.795 Q227.306 108.189 233.116 108.189 Z" fill="#000000" fill-rule="nonzero" fill-opacity="1" /><path clip-path="url(#clip050)" d="M20.1002 1085.64 L20.1002 1055.59 L25.5111 1055.59 L25.5111 1079.21 L39.5793 1079.21 L39.5793 1056.58 L44.9901 1056.58 L44.9901 1079.21 L62.2094 1079.21 L62.2094 1055.02 L67.6202 1055.02 L67.6202 1085.64 L20.1002 1085.64 Z" fill="#000000" fill-rule="nonzero" fill-opacity="1" /><path clip-path="url(#clip050)" d="M18.095 1026.66 L22.9648 1026.66 L22.9648 1032.26 Q22.9648 1035.41 24.2379 1036.66 Q25.5111 1037.86 28.8212 1037.86 L31.9723 1037.86 L31.9723 1028.22 L36.5237 1028.22 L36.5237 1037.86 L67.6202 1037.86 L67.6202 1043.75 L36.5237 1043.75 L36.5237 1049.35 L31.9723 1049.35 L31.9723 1043.75 L29.4896 1043.75 Q23.5377 1043.75 20.8323 1040.98 Q18.095 1038.21 18.095 1032.2 L18.095 1026.66 Z" fill="#000000" fill-rule="nonzero" fill-opacity="1" /><path clip-path="url(#clip050)" d="M18.095 1003.71 L22.9648 1003.71 L22.9648 1009.31 Q22.9648 1012.47 24.2379 1013.71 Q25.5111 1014.92 28.8212 1014.92 L31.9723 1014.92 L31.9723 1005.27 L36.5237 1005.27 L36.5237 1014.92 L67.6202 1014.92 L67.6202 1020.8 L36.5237 1020.8 L36.5237 1026.41 L31.9723 1026.41 L31.9723 1020.8 L29.4896 1020.8 Q23.5377 1020.8 20.8323 1018.04 Q18.095 1015.27 18.095 1009.25 L18.095 1003.71 Z" fill="#000000" fill-rule="nonzero" fill-opacity="1" /><path clip-path="url(#clip050)" d="M48.3321 968.319 L51.1967 968.319 L51.1967 995.246 Q57.2441 994.864 60.427 991.618 Q63.578 988.34 63.578 982.515 Q63.578 979.141 62.7505 975.99 Q61.9229 972.807 60.2678 969.688 L65.806 969.688 Q67.1428 972.839 67.843 976.149 Q68.5432 979.459 68.5432 982.865 Q68.5432 991.395 63.578 996.392 Q58.6127 1001.36 50.1464 1001.36 Q41.3935 1001.36 36.2691 996.647 Q31.1129 991.904 31.1129 983.884 Q31.1129 976.69 35.7599 972.521 Q40.375 968.319 48.3321 968.319 M46.6134 974.176 Q41.8073 974.24 38.9427 976.881 Q36.0781 979.491 36.0781 983.82 Q36.0781 988.722 38.8472 991.682 Q41.6163 994.61 46.6452 995.055 L46.6134 974.176 Z" fill="#000000" fill-rule="nonzero" fill-opacity="1" /><path clip-path="url(#clip050)" d="M33.3409 933.053 L38.8154 933.053 Q37.4468 935.536 36.7784 938.051 Q36.0781 940.533 36.0781 943.079 Q36.0781 948.777 39.7066 951.928 Q43.3032 955.079 49.8281 955.079 Q56.3529 955.079 59.9814 951.928 Q63.578 948.777 63.578 943.079 Q63.578 940.533 62.9096 938.051 Q62.2094 935.536 60.8407 933.053 L66.2516 933.053 Q67.3974 935.504 67.9703 938.146 Q68.5432 940.756 68.5432 943.716 Q68.5432 951.769 63.4825 956.511 Q58.4218 961.254 49.8281 961.254 Q41.1071 961.254 36.11 956.479 Q31.1129 951.673 31.1129 943.334 Q31.1129 940.629 31.6858 938.051 Q32.2269 935.472 33.3409 933.053 Z" fill="#000000" fill-rule="nonzero" fill-opacity="1" /><path clip-path="url(#clip050)" d="M21.8508 917.076 L31.9723 917.076 L31.9723 905.012 L36.5237 905.012 L36.5237 917.076 L55.8755 917.076 Q60.236 917.076 61.4773 915.898 Q62.7186 914.688 62.7186 911.028 L62.7186 905.012 L67.6202 905.012 L67.6202 911.028 Q67.6202 917.808 65.1058 920.386 Q62.5595 922.964 55.8755 922.964 L36.5237 922.964 L36.5237 927.261 L31.9723 927.261 L31.9723 922.964 L21.8508 922.964 L21.8508 917.076 Z" fill="#000000" fill-rule="nonzero" fill-opacity="1" /><path clip-path="url(#clip050)" d="M31.9723 897.31 L31.9723 891.454 L67.6202 891.454 L67.6202 897.31 L31.9723 897.31 M18.095 897.31 L18.095 891.454 L25.5111 891.454 L25.5111 897.31 L18.095 897.31 Z" fill="#000000" fill-rule="nonzero" fill-opacity="1" /><path clip-path="url(#clip050)" d="M31.9723 883.401 L31.9723 877.194 L61.8911 866.054 L31.9723 854.914 L31.9723 848.708 L67.6202 862.076 L67.6202 870.033 L31.9723 883.401 Z" fill="#000000" fill-rule="nonzero" fill-opacity="1" /><path clip-path="url(#clip050)" d="M48.3321 810.132 L51.1967 810.132 L51.1967 837.059 Q57.2441 836.677 60.427 833.43 Q63.578 830.152 63.578 824.327 Q63.578 820.953 62.7505 817.802 Q61.9229 814.619 60.2678 811.5 L65.806 811.5 Q67.1428 814.651 67.843 817.961 Q68.5432 821.272 68.5432 824.677 Q68.5432 833.207 63.578 838.204 Q58.6127 843.17 50.1464 843.17 Q41.3935 843.17 36.2691 838.459 Q31.1129 833.717 31.1129 825.696 Q31.1129 818.503 35.7599 814.333 Q40.375 810.132 48.3321 810.132 M46.6134 815.988 Q41.8073 816.052 38.9427 818.694 Q36.0781 821.303 36.0781 825.632 Q36.0781 830.534 38.8472 833.494 Q41.6163 836.422 46.6452 836.868 L46.6134 815.988 Z" fill="#000000" fill-rule="nonzero" fill-opacity="1" /><path clip-path="url(#clip050)" d="M33.0226 757.073 L38.5608 757.073 Q37.2876 759.556 36.6511 762.23 Q36.0145 764.903 36.0145 767.768 Q36.0145 772.128 37.3513 774.325 Q38.6881 776.489 41.3617 776.489 Q43.3987 776.489 44.5764 774.929 Q45.7222 773.37 46.7725 768.659 L47.2181 766.654 Q48.5549 760.415 51.0057 757.806 Q53.4247 755.164 57.7852 755.164 Q62.7505 755.164 65.6469 759.11 Q68.5432 763.025 68.5432 769.9 Q68.5432 772.765 67.9703 775.884 Q67.4292 778.971 66.3153 782.409 L60.2678 782.409 Q61.9547 779.162 62.8141 776.011 Q63.6417 772.86 63.6417 769.773 Q63.6417 765.635 62.2412 763.407 Q60.8089 761.179 58.2308 761.179 Q55.8437 761.179 54.5705 762.803 Q53.2974 764.394 52.1197 769.837 L51.6423 771.874 Q50.4965 777.316 48.1412 779.735 Q45.754 782.154 41.6163 782.154 Q36.5874 782.154 33.8501 778.59 Q31.1129 775.025 31.1129 768.468 Q31.1129 765.222 31.5903 762.357 Q32.0677 759.492 33.0226 757.073 Z" fill="#000000" fill-rule="nonzero" fill-opacity="1" /><path clip-path="url(#clip050)" d="M49.7008 729.637 Q49.7008 736.735 51.324 739.472 Q52.9473 742.21 56.8622 742.21 Q59.9814 742.21 61.8274 740.173 Q63.6417 738.104 63.6417 734.571 Q63.6417 729.701 60.2042 726.773 Q56.7349 723.813 51.0057 723.813 L49.7008 723.813 L49.7008 729.637 M47.2818 717.956 L67.6202 717.956 L67.6202 723.813 L62.2094 723.813 Q65.4559 725.818 67.0155 728.81 Q68.5432 731.802 68.5432 736.13 Q68.5432 741.605 65.4877 744.851 Q62.4003 748.066 57.2441 748.066 Q51.2285 748.066 48.173 744.056 Q45.1174 740.013 45.1174 732.024 L45.1174 723.813 L44.5445 723.813 Q40.5023 723.813 38.3061 726.486 Q36.0781 729.128 36.0781 733.934 Q36.0781 736.99 36.8102 739.886 Q37.5423 742.782 39.0064 745.456 L33.5955 745.456 Q32.3542 742.241 31.7495 739.218 Q31.1129 736.194 31.1129 733.329 Q31.1129 725.595 35.1233 721.776 Q39.1337 717.956 47.2818 717.956 Z" fill="#000000" fill-rule="nonzero" fill-opacity="1" /><path clip-path="url(#clip050)" d="M38.8154 678.139 Q34.8687 675.943 32.9908 672.887 Q31.1129 669.831 31.1129 665.694 Q31.1129 660.124 35.0278 657.1 Q38.9109 654.076 46.1041 654.076 L67.6202 654.076 L67.6202 659.965 L46.2951 659.965 Q41.1707 659.965 38.6881 661.779 Q36.2055 663.593 36.2055 667.317 Q36.2055 671.868 39.2292 674.51 Q42.2529 677.152 47.4728 677.152 L67.6202 677.152 L67.6202 683.04 L46.2951 683.04 Q41.1389 683.04 38.6881 684.855 Q36.2055 686.669 36.2055 690.456 Q36.2055 694.944 39.261 697.586 Q42.2847 700.228 47.4728 700.228 L67.6202 700.228 L67.6202 706.116 L31.9723 706.116 L31.9723 700.228 L37.5104 700.228 Q34.2321 698.223 32.6725 695.422 Q31.1129 692.621 31.1129 688.769 Q31.1129 684.886 33.0863 682.181 Q35.0596 679.444 38.8154 678.139 Z" fill="#000000" fill-rule="nonzero" fill-opacity="1" /><path clip-path="url(#clip050)" d="M62.273 636.73 L81.1792 636.73 L81.1792 642.618 L31.9723 642.618 L31.9723 636.73 L37.3831 636.73 Q34.2003 634.884 32.6725 632.083 Q31.1129 629.25 31.1129 625.335 Q31.1129 618.842 36.2691 614.8 Q41.4253 610.726 49.8281 610.726 Q58.2308 610.726 63.387 614.8 Q68.5432 618.842 68.5432 625.335 Q68.5432 629.25 67.0155 632.083 Q65.4559 634.884 62.273 636.73 M49.8281 616.805 Q43.3669 616.805 39.7066 619.479 Q36.0145 622.12 36.0145 626.767 Q36.0145 631.414 39.7066 634.088 Q43.3669 636.73 49.8281 636.73 Q56.2893 636.73 59.9814 634.088 Q63.6417 631.414 63.6417 626.767 Q63.6417 622.12 59.9814 619.479 Q56.2893 616.805 49.8281 616.805 Z" fill="#000000" fill-rule="nonzero" fill-opacity="1" /><path clip-path="url(#clip050)" d="M18.095 601.018 L18.095 595.162 L67.6202 595.162 L67.6202 601.018 L18.095 601.018 Z" fill="#000000" fill-rule="nonzero" fill-opacity="1" /><path clip-path="url(#clip050)" d="M48.3321 552.416 L51.1967 552.416 L51.1967 579.343 Q57.2441 578.961 60.427 575.714 Q63.578 572.436 63.578 566.612 Q63.578 563.238 62.7505 560.087 Q61.9229 556.904 60.2678 553.785 L65.806 553.785 Q67.1428 556.936 67.843 560.246 Q68.5432 563.556 68.5432 566.962 Q68.5432 575.492 63.578 580.489 Q58.6127 585.454 50.1464 585.454 Q41.3935 585.454 36.2691 580.743 Q31.1129 576.001 31.1129 567.98 Q31.1129 560.787 35.7599 556.617 Q40.375 552.416 48.3321 552.416 M46.6134 558.272 Q41.8073 558.336 38.9427 560.978 Q36.0781 563.588 36.0781 567.916 Q36.0781 572.818 38.8472 575.778 Q41.6163 578.706 46.6452 579.152 L46.6134 558.272 Z" fill="#000000" fill-rule="nonzero" fill-opacity="1" /><path clip-path="url(#clip050)" d="M33.0226 499.358 L38.5608 499.358 Q37.2876 501.84 36.6511 504.514 Q36.0145 507.188 36.0145 510.052 Q36.0145 514.413 37.3513 516.609 Q38.6881 518.773 41.3617 518.773 Q43.3987 518.773 44.5764 517.214 Q45.7222 515.654 46.7725 510.943 L47.2181 508.938 Q48.5549 502.7 51.0057 500.09 Q53.4247 497.448 57.7852 497.448 Q62.7505 497.448 65.6469 501.395 Q68.5432 505.31 68.5432 512.185 Q68.5432 515.049 67.9703 518.168 Q67.4292 521.256 66.3153 524.693 L60.2678 524.693 Q61.9547 521.447 62.8141 518.296 Q63.6417 515.145 63.6417 512.057 Q63.6417 507.92 62.2412 505.692 Q60.8089 503.464 58.2308 503.464 Q55.8437 503.464 54.5705 505.087 Q53.2974 506.678 52.1197 512.121 L51.6423 514.158 Q50.4965 519.601 48.1412 522.02 Q45.754 524.439 41.6163 524.439 Q36.5874 524.439 33.8501 520.874 Q31.1129 517.309 31.1129 510.752 Q31.1129 507.506 31.5903 504.641 Q32.0677 501.777 33.0226 499.358 Z" fill="#000000" fill-rule="nonzero" fill-opacity="1" /><path clip-path="url(#clip050)" d="M31.9723 488.122 L31.9723 482.266 L67.6202 482.266 L67.6202 488.122 L31.9723 488.122 M18.095 488.122 L18.095 482.266 L25.5111 482.266 L25.5111 488.122 L18.095 488.122 Z" fill="#000000" fill-rule="nonzero" fill-opacity="1" /><path clip-path="url(#clip050)" d="M31.9723 472.558 L31.9723 444.74 L37.3195 444.74 L62.9414 466.765 L62.9414 444.74 L67.6202 444.74 L67.6202 473.354 L62.273 473.354 L36.6511 451.329 L36.6511 472.558 L31.9723 472.558 Z" fill="#000000" fill-rule="nonzero" fill-opacity="1" /><path clip-path="url(#clip050)" d="M48.3321 405.305 L51.1967 405.305 L51.1967 432.231 Q57.2441 431.85 60.427 428.603 Q63.578 425.325 63.578 419.5 Q63.578 416.126 62.7505 412.975 Q61.9229 409.792 60.2678 406.673 L65.806 406.673 Q67.1428 409.824 67.843 413.134 Q68.5432 416.445 68.5432 419.85 Q68.5432 428.38 63.578 433.377 Q58.6127 438.343 50.1464 438.343 Q41.3935 438.343 36.2691 433.632 Q31.1129 428.889 31.1129 420.869 Q31.1129 413.675 35.7599 409.506 Q40.375 405.305 48.3321 405.305 M46.6134 411.161 Q41.8073 411.225 38.9427 413.866 Q36.0781 416.476 36.0781 420.805 Q36.0781 425.707 38.8472 428.667 Q41.6163 431.595 46.6452 432.04 L46.6134 411.161 Z" fill="#000000" fill-rule="nonzero" fill-opacity="1" /><polyline clip-path="url(#clip052)" style="stroke:#009af9; stroke-linecap:round; stroke-linejoin:round; stroke-width:4; stroke-opacity:1; fill:none" points="373.104,1373.6 400.055,1373.8 427.005,1374.06 453.956,1374.13 480.907,1374.28 507.857,1374.23 534.808,1374.22 561.759,1374.46 588.709,1374.25 615.66,1374.18 642.61,1374.12 669.561,1373.96 696.512,1373.75 723.462,1373.66 750.413,1373.62 777.364,1373.54 804.314,1373.52 831.265,1373.5 858.215,1372.9 885.166,1372.39 912.117,1356.45 939.067,1355.52 966.018,1354.81 992.969,1354.97 1019.92,1354.55 1046.87,1354.94 1073.82,1354.43 1100.77,1353.13 1127.72,1353.1 1154.67,1352.48 1181.62,1351.78 1208.57,1349.71 1235.52,1349.25 1262.47,1347.28 1289.43,1347.02 1316.38,1345.2 1343.33,1345.54 1370.28,1345.94 1397.23,1345.59 1424.18,1346.36 1451.13,1346.49 1478.08,1343.81 1505.03,1341.74 1531.98,1342.33 1558.93,1343.38 1585.88,1341.86 1612.83,1341.69 1639.78,1338.89 1666.73,1338.92 1693.69,1339.12 1720.64,1338.05 1747.59,1335.01 1774.54,1335.15 1801.49,1335.16 1828.44,1335.35 1855.39,1335.91 1882.34,1335.38 1909.29,1336.47 1936.24,1336.36 1963.19,1337.38 1990.14,1335.68 2017.09,1333.2 2044.04,1331.99 2070.99,1330.82 2097.94,1328.15 2124.9,1325.62 2151.85,1323.49 2178.8,1320.77 2205.75,1318.38 2232.7,1317.24 2259.65,1313.49 2286.6,1311.71 2313.55,1309.22 2340.5,1305.93 2367.45,1302.82 2394.4,1299.71 2421.35,1296.22 2448.3,1290.33 2475.25,1282.85 2502.2,1278.18 2529.15,1273.62 2556.11,1266.47 2583.06,1256.96 2610.01,1251.09 2636.96,1244.21 2663.91,1235.24 2690.86,1226.78 2717.81,1216.16 2744.76,1194.63 2771.71,1176.13 2798.66,1157.92 2825.61,1127.46 2852.56,1102.34 2879.51,1061.7 2906.46,1015.24 2933.41,954.423 2960.36,871.937 2987.32,735.398 3014.27,537.631 3041.22,116.48 "/>
</svg>
