<?xml version="1.0" encoding="utf-8"?>
<svg xmlns="http://www.w3.org/2000/svg" xmlns:xlink="http://www.w3.org/1999/xlink" width="800" height="400" viewBox="0 0 3200 1600">
<defs>
  <clipPath id="clip660">
    <rect x="0" y="0" width="3200" height="1600"/>
  </clipPath>
</defs>
<path clip-path="url(#clip660)" d="M0 1600 L3200 1600 L3200 0 L0 0  Z" fill="#ffffff" fill-rule="evenodd" fill-opacity="1"/>
<defs>
  <clipPath id="clip661">
    <rect x="640" y="0" width="2241" height="1600"/>
  </clipPath>
</defs>
<path clip-path="url(#clip660)" d="M293.061 1412.2 L3121.26 1412.2 L3121.26 78.7402 L293.061 78.7402  Z" fill="#ffffff" fill-rule="evenodd" fill-opacity="1"/>
<defs>
  <clipPath id="clip662">
    <rect x="293" y="78" width="2829" height="1334"/>
  </clipPath>
</defs>
<polyline clip-path="url(#clip662)" style="stroke:#000000; stroke-linecap:round; stroke-linejoin:round; stroke-width:2; stroke-opacity:0.1; fill:none" points="480.907,1412.2 480.907,78.7402 "/>
<polyline clip-path="url(#clip662)" style="stroke:#000000; stroke-linecap:round; stroke-linejoin:round; stroke-width:2; stroke-opacity:0.1; fill:none" points="1316.38,1412.2 1316.38,78.7402 "/>
<polyline clip-path="url(#clip662)" style="stroke:#000000; stroke-linecap:round; stroke-linejoin:round; stroke-width:2; stroke-opacity:0.1; fill:none" points="2124.9,1412.2 2124.9,78.7402 "/>
<polyline clip-path="url(#clip662)" style="stroke:#000000; stroke-linecap:round; stroke-linejoin:round; stroke-width:2; stroke-opacity:0.1; fill:none" points="2960.36,1412.2 2960.36,78.7402 "/>
<polyline clip-path="url(#clip660)" style="stroke:#000000; stroke-linecap:round; stroke-linejoin:round; stroke-width:4; stroke-opacity:1; fill:none" points="293.061,1412.2 3121.26,1412.2 "/>
<polyline clip-path="url(#clip660)" style="stroke:#000000; stroke-linecap:round; stroke-linejoin:round; stroke-width:4; stroke-opacity:1; fill:none" points="480.907,1412.2 480.907,1393.31 "/>
<polyline clip-path="url(#clip660)" style="stroke:#000000; stroke-linecap:round; stroke-linejoin:round; stroke-width:4; stroke-opacity:1; fill:none" points="1316.38,1412.2 1316.38,1393.31 "/>
<polyline clip-path="url(#clip660)" style="stroke:#000000; stroke-linecap:round; stroke-linejoin:round; stroke-width:4; stroke-opacity:1; fill:none" points="2124.9,1412.2 2124.9,1393.31 "/>
<polyline clip-path="url(#clip660)" style="stroke:#000000; stroke-linecap:round; stroke-linejoin:round; stroke-width:4; stroke-opacity:1; fill:none" points="2960.36,1412.2 2960.36,1393.31 "/>
<path clip-path="url(#clip660)" d="M352.701 1477.07 L369.021 1477.07 L369.021 1481 L347.076 1481 L347.076 1477.07 Q349.738 1474.31 354.322 1469.68 Q358.928 1465.03 360.109 1463.69 Q362.354 1461.17 363.234 1459.43 Q364.136 1457.67 364.136 1455.98 Q364.136 1453.23 362.192 1451.49 Q360.271 1449.75 357.169 1449.75 Q354.97 1449.75 352.516 1450.52 Q350.086 1451.28 347.308 1452.83 L347.308 1448.11 Q350.132 1446.98 352.586 1446.4 Q355.039 1445.82 357.076 1445.82 Q362.447 1445.82 365.641 1448.5 Q368.836 1451.19 368.836 1455.68 Q368.836 1457.81 368.025 1459.73 Q367.238 1461.63 365.132 1464.22 Q364.553 1464.89 361.451 1468.11 Q358.349 1471.3 352.701 1477.07 Z" fill="#000000" fill-rule="nonzero" fill-opacity="1" /><path clip-path="url(#clip660)" d="M388.835 1449.52 Q385.224 1449.52 383.396 1453.09 Q381.59 1456.63 381.59 1463.76 Q381.59 1470.86 383.396 1474.43 Q385.224 1477.97 388.835 1477.97 Q392.47 1477.97 394.275 1474.43 Q396.104 1470.86 396.104 1463.76 Q396.104 1456.63 394.275 1453.09 Q392.47 1449.52 388.835 1449.52 M388.835 1445.82 Q394.646 1445.82 397.701 1450.43 Q400.78 1455.01 400.78 1463.76 Q400.78 1472.49 397.701 1477.09 Q394.646 1481.68 388.835 1481.68 Q383.025 1481.68 379.947 1477.09 Q376.891 1472.49 376.891 1463.76 Q376.891 1455.01 379.947 1450.43 Q383.025 1445.82 388.835 1445.82 Z" fill="#000000" fill-rule="nonzero" fill-opacity="1" /><path clip-path="url(#clip660)" d="M413.025 1477.07 L429.344 1477.07 L429.344 1481 L407.4 1481 L407.4 1477.07 Q410.062 1474.31 414.645 1469.68 Q419.252 1465.03 420.432 1463.69 Q422.678 1461.17 423.557 1459.43 Q424.46 1457.67 424.46 1455.98 Q424.46 1453.23 422.516 1451.49 Q420.594 1449.75 417.493 1449.75 Q415.294 1449.75 412.84 1450.52 Q410.409 1451.28 407.632 1452.83 L407.632 1448.11 Q410.456 1446.98 412.909 1446.4 Q415.363 1445.82 417.4 1445.82 Q422.77 1445.82 425.965 1448.5 Q429.159 1451.19 429.159 1455.68 Q429.159 1457.81 428.349 1459.73 Q427.562 1461.63 425.456 1464.22 Q424.877 1464.89 421.775 1468.11 Q418.673 1471.3 413.025 1477.07 Z" fill="#000000" fill-rule="nonzero" fill-opacity="1" /><path clip-path="url(#clip660)" d="M449.159 1449.52 Q445.548 1449.52 443.719 1453.09 Q441.914 1456.63 441.914 1463.76 Q441.914 1470.86 443.719 1474.43 Q445.548 1477.97 449.159 1477.97 Q452.793 1477.97 454.599 1474.43 Q456.428 1470.86 456.428 1463.76 Q456.428 1456.63 454.599 1453.09 Q452.793 1449.52 449.159 1449.52 M449.159 1445.82 Q454.969 1445.82 458.025 1450.43 Q461.104 1455.01 461.104 1463.76 Q461.104 1472.49 458.025 1477.09 Q454.969 1481.68 449.159 1481.68 Q443.349 1481.68 440.27 1477.09 Q437.215 1472.49 437.215 1463.76 Q437.215 1455.01 440.27 1450.43 Q443.349 1445.82 449.159 1445.82 Z" fill="#000000" fill-rule="nonzero" fill-opacity="1" /><path clip-path="url(#clip660)" d="M466.566 1466.12 L479.043 1466.12 L479.043 1469.92 L466.566 1469.92 L466.566 1466.12 Z" fill="#000000" fill-rule="nonzero" fill-opacity="1" /><path clip-path="url(#clip660)" d="M496.427 1449.52 Q492.816 1449.52 490.988 1453.09 Q489.182 1456.63 489.182 1463.76 Q489.182 1470.86 490.988 1474.43 Q492.816 1477.97 496.427 1477.97 Q500.062 1477.97 501.867 1474.43 Q503.696 1470.86 503.696 1463.76 Q503.696 1456.63 501.867 1453.09 Q500.062 1449.52 496.427 1449.52 M496.427 1445.82 Q502.238 1445.82 505.293 1450.43 Q508.372 1455.01 508.372 1463.76 Q508.372 1472.49 505.293 1477.09 Q502.238 1481.68 496.427 1481.68 Q490.617 1481.68 487.539 1477.09 Q484.483 1472.49 484.483 1463.76 Q484.483 1455.01 487.539 1450.43 Q490.617 1445.82 496.427 1445.82 Z" fill="#000000" fill-rule="nonzero" fill-opacity="1" /><path clip-path="url(#clip660)" d="M530.756 1462.37 Q534.112 1463.09 535.987 1465.36 Q537.886 1467.62 537.886 1470.96 Q537.886 1476.07 534.367 1478.87 Q530.849 1481.68 524.367 1481.68 Q522.191 1481.68 519.876 1481.24 Q517.585 1480.82 515.131 1479.96 L515.131 1475.45 Q517.075 1476.58 519.39 1477.16 Q521.705 1477.74 524.228 1477.74 Q528.626 1477.74 530.918 1476 Q533.233 1474.27 533.233 1470.96 Q533.233 1467.9 531.08 1466.19 Q528.95 1464.45 525.131 1464.45 L521.103 1464.45 L521.103 1460.61 L525.316 1460.61 Q528.765 1460.61 530.594 1459.24 Q532.423 1457.86 532.423 1455.26 Q532.423 1452.6 530.524 1451.19 Q528.649 1449.75 525.131 1449.75 Q523.21 1449.75 521.011 1450.17 Q518.812 1450.59 516.173 1451.47 L516.173 1447.3 Q518.835 1446.56 521.15 1446.19 Q523.487 1445.82 525.548 1445.82 Q530.872 1445.82 533.974 1448.25 Q537.075 1450.66 537.075 1454.78 Q537.075 1457.65 535.432 1459.64 Q533.788 1461.61 530.756 1462.37 Z" fill="#000000" fill-rule="nonzero" fill-opacity="1" /><path clip-path="url(#clip660)" d="M543.997 1466.12 L556.473 1466.12 L556.473 1469.92 L543.997 1469.92 L543.997 1466.12 Z" fill="#000000" fill-rule="nonzero" fill-opacity="1" /><path clip-path="url(#clip660)" d="M573.858 1449.52 Q570.246 1449.52 568.418 1453.09 Q566.612 1456.63 566.612 1463.76 Q566.612 1470.86 568.418 1474.43 Q570.246 1477.97 573.858 1477.97 Q577.492 1477.97 579.297 1474.43 Q581.126 1470.86 581.126 1463.76 Q581.126 1456.63 579.297 1453.09 Q577.492 1449.52 573.858 1449.52 M573.858 1445.82 Q579.668 1445.82 582.723 1450.43 Q585.802 1455.01 585.802 1463.76 Q585.802 1472.49 582.723 1477.09 Q579.668 1481.68 573.858 1481.68 Q568.047 1481.68 564.969 1477.09 Q561.913 1472.49 561.913 1463.76 Q561.913 1455.01 564.969 1450.43 Q568.047 1445.82 573.858 1445.82 Z" fill="#000000" fill-rule="nonzero" fill-opacity="1" /><path clip-path="url(#clip660)" d="M594.83 1477.07 L602.469 1477.07 L602.469 1450.7 L594.158 1452.37 L594.158 1448.11 L602.422 1446.44 L607.098 1446.44 L607.098 1477.07 L614.737 1477.07 L614.737 1481 L594.83 1481 L594.83 1477.07 Z" fill="#000000" fill-rule="nonzero" fill-opacity="1" /><path clip-path="url(#clip660)" d="M1188.17 1477.07 L1204.49 1477.07 L1204.49 1481 L1182.55 1481 L1182.55 1477.07 Q1185.21 1474.31 1189.79 1469.68 Q1194.4 1465.03 1195.58 1463.69 Q1197.82 1461.17 1198.7 1459.43 Q1199.61 1457.67 1199.61 1455.98 Q1199.61 1453.23 1197.66 1451.49 Q1195.74 1449.75 1192.64 1449.75 Q1190.44 1449.75 1187.99 1450.52 Q1185.56 1451.28 1182.78 1452.83 L1182.78 1448.11 Q1185.6 1446.98 1188.06 1446.4 Q1190.51 1445.82 1192.55 1445.82 Q1197.92 1445.82 1201.11 1448.5 Q1204.31 1451.19 1204.31 1455.68 Q1204.31 1457.81 1203.49 1459.73 Q1202.71 1461.63 1200.6 1464.22 Q1200.02 1464.89 1196.92 1468.11 Q1193.82 1471.3 1188.17 1477.07 Z" fill="#000000" fill-rule="nonzero" fill-opacity="1" /><path clip-path="url(#clip660)" d="M1224.3 1449.52 Q1220.69 1449.52 1218.87 1453.09 Q1217.06 1456.63 1217.06 1463.76 Q1217.06 1470.86 1218.87 1474.43 Q1220.69 1477.97 1224.3 1477.97 Q1227.94 1477.97 1229.74 1474.43 Q1231.57 1470.86 1231.57 1463.76 Q1231.57 1456.63 1229.74 1453.09 Q1227.94 1449.52 1224.3 1449.52 M1224.3 1445.82 Q1230.12 1445.82 1233.17 1450.43 Q1236.25 1455.01 1236.25 1463.76 Q1236.25 1472.49 1233.17 1477.09 Q1230.12 1481.68 1224.3 1481.68 Q1218.49 1481.68 1215.42 1477.09 Q1212.36 1472.49 1212.36 1463.76 Q1212.36 1455.01 1215.42 1450.43 Q1218.49 1445.82 1224.3 1445.82 Z" fill="#000000" fill-rule="nonzero" fill-opacity="1" /><path clip-path="url(#clip660)" d="M1248.49 1477.07 L1264.81 1477.07 L1264.81 1481 L1242.87 1481 L1242.87 1477.07 Q1245.53 1474.31 1250.11 1469.68 Q1254.72 1465.03 1255.9 1463.69 Q1258.15 1461.17 1259.03 1459.43 Q1259.93 1457.67 1259.93 1455.98 Q1259.93 1453.23 1257.99 1451.49 Q1256.06 1449.75 1252.96 1449.75 Q1250.76 1449.75 1248.31 1450.52 Q1245.88 1451.28 1243.1 1452.83 L1243.1 1448.11 Q1245.93 1446.98 1248.38 1446.4 Q1250.83 1445.82 1252.87 1445.82 Q1258.24 1445.82 1261.43 1448.5 Q1264.63 1451.19 1264.63 1455.68 Q1264.63 1457.81 1263.82 1459.73 Q1263.03 1461.63 1260.93 1464.22 Q1260.35 1464.89 1257.24 1468.11 Q1254.14 1471.3 1248.49 1477.07 Z" fill="#000000" fill-rule="nonzero" fill-opacity="1" /><path clip-path="url(#clip660)" d="M1284.63 1449.52 Q1281.02 1449.52 1279.19 1453.09 Q1277.38 1456.63 1277.38 1463.76 Q1277.38 1470.86 1279.19 1474.43 Q1281.02 1477.97 1284.63 1477.97 Q1288.26 1477.97 1290.07 1474.43 Q1291.9 1470.86 1291.9 1463.76 Q1291.9 1456.63 1290.07 1453.09 Q1288.26 1449.52 1284.63 1449.52 M1284.63 1445.82 Q1290.44 1445.82 1293.49 1450.43 Q1296.57 1455.01 1296.57 1463.76 Q1296.57 1472.49 1293.49 1477.09 Q1290.44 1481.68 1284.63 1481.68 Q1278.82 1481.68 1275.74 1477.09 Q1272.68 1472.49 1272.68 1463.76 Q1272.68 1455.01 1275.74 1450.43 Q1278.82 1445.82 1284.63 1445.82 Z" fill="#000000" fill-rule="nonzero" fill-opacity="1" /><path clip-path="url(#clip660)" d="M1302.04 1466.12 L1314.51 1466.12 L1314.51 1469.92 L1302.04 1469.92 L1302.04 1466.12 Z" fill="#000000" fill-rule="nonzero" fill-opacity="1" /><path clip-path="url(#clip660)" d="M1331.9 1449.52 Q1328.29 1449.52 1326.46 1453.09 Q1324.65 1456.63 1324.65 1463.76 Q1324.65 1470.86 1326.46 1474.43 Q1328.29 1477.97 1331.9 1477.97 Q1335.53 1477.97 1337.34 1474.43 Q1339.17 1470.86 1339.17 1463.76 Q1339.17 1456.63 1337.34 1453.09 Q1335.53 1449.52 1331.9 1449.52 M1331.9 1445.82 Q1337.71 1445.82 1340.76 1450.43 Q1343.84 1455.01 1343.84 1463.76 Q1343.84 1472.49 1340.76 1477.09 Q1337.71 1481.68 1331.9 1481.68 Q1326.09 1481.68 1323.01 1477.09 Q1319.95 1472.49 1319.95 1463.76 Q1319.95 1455.01 1323.01 1450.43 Q1326.09 1445.82 1331.9 1445.82 Z" fill="#000000" fill-rule="nonzero" fill-opacity="1" /><path clip-path="url(#clip660)" d="M1364.91 1450.52 L1353.1 1468.97 L1364.91 1468.97 L1364.91 1450.52 M1363.68 1446.44 L1369.56 1446.44 L1369.56 1468.97 L1374.49 1468.97 L1374.49 1472.86 L1369.56 1472.86 L1369.56 1481 L1364.91 1481 L1364.91 1472.86 L1349.3 1472.86 L1349.3 1468.34 L1363.68 1446.44 Z" fill="#000000" fill-rule="nonzero" fill-opacity="1" /><path clip-path="url(#clip660)" d="M1379.47 1466.12 L1391.94 1466.12 L1391.94 1469.92 L1379.47 1469.92 L1379.47 1466.12 Z" fill="#000000" fill-rule="nonzero" fill-opacity="1" /><path clip-path="url(#clip660)" d="M1409.33 1449.52 Q1405.72 1449.52 1403.89 1453.09 Q1402.08 1456.63 1402.08 1463.76 Q1402.08 1470.86 1403.89 1474.43 Q1405.72 1477.97 1409.33 1477.97 Q1412.96 1477.97 1414.77 1474.43 Q1416.6 1470.86 1416.6 1463.76 Q1416.6 1456.63 1414.77 1453.09 Q1412.96 1449.52 1409.33 1449.52 M1409.33 1445.82 Q1415.14 1445.82 1418.19 1450.43 Q1421.27 1455.01 1421.27 1463.76 Q1421.27 1472.49 1418.19 1477.09 Q1415.14 1481.68 1409.33 1481.68 Q1403.52 1481.68 1400.44 1477.09 Q1397.38 1472.49 1397.38 1463.76 Q1397.38 1455.01 1400.44 1450.43 Q1403.52 1445.82 1409.33 1445.82 Z" fill="#000000" fill-rule="nonzero" fill-opacity="1" /><path clip-path="url(#clip660)" d="M1430.3 1477.07 L1437.94 1477.07 L1437.94 1450.7 L1429.63 1452.37 L1429.63 1448.11 L1437.89 1446.44 L1442.57 1446.44 L1442.57 1477.07 L1450.21 1477.07 L1450.21 1481 L1430.3 1481 L1430.3 1477.07 Z" fill="#000000" fill-rule="nonzero" fill-opacity="1" /><path clip-path="url(#clip660)" d="M1996.69 1477.07 L2013.01 1477.07 L2013.01 1481 L1991.06 1481 L1991.06 1477.07 Q1993.73 1474.31 1998.31 1469.68 Q2002.92 1465.03 2004.1 1463.69 Q2006.34 1461.17 2007.22 1459.43 Q2008.12 1457.67 2008.12 1455.98 Q2008.12 1453.23 2006.18 1451.49 Q2004.26 1449.75 2001.16 1449.75 Q1998.96 1449.75 1996.5 1450.52 Q1994.07 1451.28 1991.3 1452.83 L1991.3 1448.11 Q1994.12 1446.98 1996.57 1446.4 Q1999.03 1445.82 2001.06 1445.82 Q2006.44 1445.82 2009.63 1448.5 Q2012.82 1451.19 2012.82 1455.68 Q2012.82 1457.81 2012.01 1459.73 Q2011.23 1461.63 2009.12 1464.22 Q2008.54 1464.89 2005.44 1468.11 Q2002.34 1471.3 1996.69 1477.07 Z" fill="#000000" fill-rule="nonzero" fill-opacity="1" /><path clip-path="url(#clip660)" d="M2032.82 1449.52 Q2029.21 1449.52 2027.38 1453.09 Q2025.58 1456.63 2025.58 1463.76 Q2025.58 1470.86 2027.38 1474.43 Q2029.21 1477.97 2032.82 1477.97 Q2036.46 1477.97 2038.26 1474.43 Q2040.09 1470.86 2040.09 1463.76 Q2040.09 1456.63 2038.26 1453.09 Q2036.46 1449.52 2032.82 1449.52 M2032.82 1445.82 Q2038.63 1445.82 2041.69 1450.43 Q2044.77 1455.01 2044.77 1463.76 Q2044.77 1472.49 2041.69 1477.09 Q2038.63 1481.68 2032.82 1481.68 Q2027.01 1481.68 2023.93 1477.09 Q2020.88 1472.49 2020.88 1463.76 Q2020.88 1455.01 2023.93 1450.43 Q2027.01 1445.82 2032.82 1445.82 Z" fill="#000000" fill-rule="nonzero" fill-opacity="1" /><path clip-path="url(#clip660)" d="M2057.01 1477.07 L2073.33 1477.07 L2073.33 1481 L2051.39 1481 L2051.39 1477.07 Q2054.05 1474.31 2058.63 1469.68 Q2063.24 1465.03 2064.42 1463.69 Q2066.67 1461.17 2067.55 1459.43 Q2068.45 1457.67 2068.45 1455.98 Q2068.45 1453.23 2066.5 1451.49 Q2064.58 1449.75 2061.48 1449.75 Q2059.28 1449.75 2056.83 1450.52 Q2054.4 1451.28 2051.62 1452.83 L2051.62 1448.11 Q2054.44 1446.98 2056.9 1446.4 Q2059.35 1445.82 2061.39 1445.82 Q2066.76 1445.82 2069.95 1448.5 Q2073.15 1451.19 2073.15 1455.68 Q2073.15 1457.81 2072.34 1459.73 Q2071.55 1461.63 2069.44 1464.22 Q2068.87 1464.89 2065.76 1468.11 Q2062.66 1471.3 2057.01 1477.07 Z" fill="#000000" fill-rule="nonzero" fill-opacity="1" /><path clip-path="url(#clip660)" d="M2093.15 1449.52 Q2089.54 1449.52 2087.71 1453.09 Q2085.9 1456.63 2085.9 1463.76 Q2085.9 1470.86 2087.71 1474.43 Q2089.54 1477.97 2093.15 1477.97 Q2096.78 1477.97 2098.59 1474.43 Q2100.42 1470.86 2100.42 1463.76 Q2100.42 1456.63 2098.59 1453.09 Q2096.78 1449.52 2093.15 1449.52 M2093.15 1445.82 Q2098.96 1445.82 2102.01 1450.43 Q2105.09 1455.01 2105.09 1463.76 Q2105.09 1472.49 2102.01 1477.09 Q2098.96 1481.68 2093.15 1481.68 Q2087.34 1481.68 2084.26 1477.09 Q2081.2 1472.49 2081.2 1463.76 Q2081.2 1455.01 2084.26 1450.43 Q2087.34 1445.82 2093.15 1445.82 Z" fill="#000000" fill-rule="nonzero" fill-opacity="1" /><path clip-path="url(#clip660)" d="M2110.55 1466.12 L2123.03 1466.12 L2123.03 1469.92 L2110.55 1469.92 L2110.55 1466.12 Z" fill="#000000" fill-rule="nonzero" fill-opacity="1" /><path clip-path="url(#clip660)" d="M2140.42 1449.52 Q2136.8 1449.52 2134.98 1453.09 Q2133.17 1456.63 2133.17 1463.76 Q2133.17 1470.86 2134.98 1474.43 Q2136.8 1477.97 2140.42 1477.97 Q2144.05 1477.97 2145.86 1474.43 Q2147.68 1470.86 2147.68 1463.76 Q2147.68 1456.63 2145.86 1453.09 Q2144.05 1449.52 2140.42 1449.52 M2140.42 1445.82 Q2146.23 1445.82 2149.28 1450.43 Q2152.36 1455.01 2152.36 1463.76 Q2152.36 1472.49 2149.28 1477.09 Q2146.23 1481.68 2140.42 1481.68 Q2134.61 1481.68 2131.53 1477.09 Q2128.47 1472.49 2128.47 1463.76 Q2128.47 1455.01 2131.53 1450.43 Q2134.61 1445.82 2140.42 1445.82 Z" fill="#000000" fill-rule="nonzero" fill-opacity="1" /><path clip-path="url(#clip660)" d="M2160.62 1446.44 L2178.98 1446.44 L2178.98 1450.38 L2164.91 1450.38 L2164.91 1458.85 Q2165.92 1458.5 2166.94 1458.34 Q2167.96 1458.16 2168.98 1458.16 Q2174.77 1458.16 2178.15 1461.33 Q2181.53 1464.5 2181.53 1469.92 Q2181.53 1475.49 2178.05 1478.6 Q2174.58 1481.68 2168.26 1481.68 Q2166.09 1481.68 2163.82 1481.3 Q2161.57 1480.93 2159.17 1480.19 L2159.17 1475.49 Q2161.25 1476.63 2163.47 1477.18 Q2165.69 1477.74 2168.17 1477.74 Q2172.17 1477.74 2174.51 1475.63 Q2176.85 1473.53 2176.85 1469.92 Q2176.85 1466.3 2174.51 1464.2 Q2172.17 1462.09 2168.17 1462.09 Q2166.3 1462.09 2164.42 1462.51 Q2162.57 1462.93 2160.62 1463.8 L2160.62 1446.44 Z" fill="#000000" fill-rule="nonzero" fill-opacity="1" /><path clip-path="url(#clip660)" d="M2187.99 1466.12 L2200.46 1466.12 L2200.46 1469.92 L2187.99 1469.92 L2187.99 1466.12 Z" fill="#000000" fill-rule="nonzero" fill-opacity="1" /><path clip-path="url(#clip660)" d="M2217.85 1449.52 Q2214.23 1449.52 2212.41 1453.09 Q2210.6 1456.63 2210.6 1463.76 Q2210.6 1470.86 2212.41 1474.43 Q2214.23 1477.97 2217.85 1477.97 Q2221.48 1477.97 2223.29 1474.43 Q2225.11 1470.86 2225.11 1463.76 Q2225.11 1456.63 2223.29 1453.09 Q2221.48 1449.52 2217.85 1449.52 M2217.85 1445.82 Q2223.66 1445.82 2226.71 1450.43 Q2229.79 1455.01 2229.79 1463.76 Q2229.79 1472.49 2226.71 1477.09 Q2223.66 1481.68 2217.85 1481.68 Q2212.04 1481.68 2208.96 1477.09 Q2205.9 1472.49 2205.9 1463.76 Q2205.9 1455.01 2208.96 1450.43 Q2212.04 1445.82 2217.85 1445.82 Z" fill="#000000" fill-rule="nonzero" fill-opacity="1" /><path clip-path="url(#clip660)" d="M2238.82 1477.07 L2246.46 1477.07 L2246.46 1450.7 L2238.15 1452.37 L2238.15 1448.11 L2246.41 1446.44 L2251.09 1446.44 L2251.09 1477.07 L2258.73 1477.07 L2258.73 1481 L2238.82 1481 L2238.82 1477.07 Z" fill="#000000" fill-rule="nonzero" fill-opacity="1" /><path clip-path="url(#clip660)" d="M2832.16 1477.07 L2848.48 1477.07 L2848.48 1481 L2826.53 1481 L2826.53 1477.07 Q2829.2 1474.31 2833.78 1469.68 Q2838.39 1465.03 2839.57 1463.69 Q2841.81 1461.17 2842.69 1459.43 Q2843.59 1457.67 2843.59 1455.98 Q2843.59 1453.23 2841.65 1451.49 Q2839.73 1449.75 2836.63 1449.75 Q2834.43 1449.75 2831.97 1450.52 Q2829.54 1451.28 2826.77 1452.83 L2826.77 1448.11 Q2829.59 1446.98 2832.04 1446.4 Q2834.5 1445.82 2836.53 1445.82 Q2841.9 1445.82 2845.1 1448.5 Q2848.29 1451.19 2848.29 1455.68 Q2848.29 1457.81 2847.48 1459.73 Q2846.7 1461.63 2844.59 1464.22 Q2844.01 1464.89 2840.91 1468.11 Q2837.81 1471.3 2832.16 1477.07 Z" fill="#000000" fill-rule="nonzero" fill-opacity="1" /><path clip-path="url(#clip660)" d="M2868.29 1449.52 Q2864.68 1449.52 2862.85 1453.09 Q2861.05 1456.63 2861.05 1463.76 Q2861.05 1470.86 2862.85 1474.43 Q2864.68 1477.97 2868.29 1477.97 Q2871.93 1477.97 2873.73 1474.43 Q2875.56 1470.86 2875.56 1463.76 Q2875.56 1456.63 2873.73 1453.09 Q2871.93 1449.52 2868.29 1449.52 M2868.29 1445.82 Q2874.1 1445.82 2877.16 1450.43 Q2880.24 1455.01 2880.24 1463.76 Q2880.24 1472.49 2877.16 1477.09 Q2874.1 1481.68 2868.29 1481.68 Q2862.48 1481.68 2859.4 1477.09 Q2856.35 1472.49 2856.35 1463.76 Q2856.35 1455.01 2859.4 1450.43 Q2862.48 1445.82 2868.29 1445.82 Z" fill="#000000" fill-rule="nonzero" fill-opacity="1" /><path clip-path="url(#clip660)" d="M2892.48 1477.07 L2908.8 1477.07 L2908.8 1481 L2886.86 1481 L2886.86 1477.07 Q2889.52 1474.31 2894.1 1469.68 Q2898.71 1465.03 2899.89 1463.69 Q2902.14 1461.17 2903.02 1459.43 Q2903.92 1457.67 2903.92 1455.98 Q2903.92 1453.23 2901.97 1451.49 Q2900.05 1449.75 2896.95 1449.75 Q2894.75 1449.75 2892.3 1450.52 Q2889.87 1451.28 2887.09 1452.83 L2887.09 1448.11 Q2889.91 1446.98 2892.37 1446.4 Q2894.82 1445.82 2896.86 1445.82 Q2902.23 1445.82 2905.42 1448.5 Q2908.62 1451.19 2908.62 1455.68 Q2908.62 1457.81 2907.81 1459.73 Q2907.02 1461.63 2904.91 1464.22 Q2904.33 1464.89 2901.23 1468.11 Q2898.13 1471.3 2892.48 1477.07 Z" fill="#000000" fill-rule="nonzero" fill-opacity="1" /><path clip-path="url(#clip660)" d="M2928.62 1449.52 Q2925.01 1449.52 2923.18 1453.09 Q2921.37 1456.63 2921.37 1463.76 Q2921.37 1470.86 2923.18 1474.43 Q2925.01 1477.97 2928.62 1477.97 Q2932.25 1477.97 2934.06 1474.43 Q2935.89 1470.86 2935.89 1463.76 Q2935.89 1456.63 2934.06 1453.09 Q2932.25 1449.52 2928.62 1449.52 M2928.62 1445.82 Q2934.43 1445.82 2937.48 1450.43 Q2940.56 1455.01 2940.56 1463.76 Q2940.56 1472.49 2937.48 1477.09 Q2934.43 1481.68 2928.62 1481.68 Q2922.81 1481.68 2919.73 1477.09 Q2916.67 1472.49 2916.67 1463.76 Q2916.67 1455.01 2919.73 1450.43 Q2922.81 1445.82 2928.62 1445.82 Z" fill="#000000" fill-rule="nonzero" fill-opacity="1" /><path clip-path="url(#clip660)" d="M2946.02 1466.12 L2958.5 1466.12 L2958.5 1469.92 L2946.02 1469.92 L2946.02 1466.12 Z" fill="#000000" fill-rule="nonzero" fill-opacity="1" /><path clip-path="url(#clip660)" d="M2975.89 1449.52 Q2972.27 1449.52 2970.45 1453.09 Q2968.64 1456.63 2968.64 1463.76 Q2968.64 1470.86 2970.45 1474.43 Q2972.27 1477.97 2975.89 1477.97 Q2979.52 1477.97 2981.33 1474.43 Q2983.15 1470.86 2983.15 1463.76 Q2983.15 1456.63 2981.33 1453.09 Q2979.52 1449.52 2975.89 1449.52 M2975.89 1445.82 Q2981.7 1445.82 2984.75 1450.43 Q2987.83 1455.01 2987.83 1463.76 Q2987.83 1472.49 2984.75 1477.09 Q2981.7 1481.68 2975.89 1481.68 Q2970.08 1481.68 2967 1477.09 Q2963.94 1472.49 2963.94 1463.76 Q2963.94 1455.01 2967 1450.43 Q2970.08 1445.82 2975.89 1445.82 Z" fill="#000000" fill-rule="nonzero" fill-opacity="1" /><path clip-path="url(#clip660)" d="M3006.63 1461.86 Q3003.48 1461.86 3001.63 1464.01 Q2999.8 1466.17 2999.8 1469.92 Q2999.8 1473.64 3001.63 1475.82 Q3003.48 1477.97 3006.63 1477.97 Q3009.77 1477.97 3011.6 1475.82 Q3013.45 1473.64 3013.45 1469.92 Q3013.45 1466.17 3011.6 1464.01 Q3009.77 1461.86 3006.63 1461.86 M3015.91 1447.21 L3015.91 1451.47 Q3014.15 1450.63 3012.34 1450.19 Q3010.56 1449.75 3008.8 1449.75 Q3004.17 1449.75 3001.72 1452.88 Q2999.29 1456 2998.94 1462.32 Q3000.31 1460.31 3002.37 1459.24 Q3004.43 1458.16 3006.9 1458.16 Q3012.11 1458.16 3015.12 1461.33 Q3018.15 1464.48 3018.15 1469.92 Q3018.15 1475.24 3015.01 1478.46 Q3011.86 1481.68 3006.63 1481.68 Q3000.63 1481.68 2997.46 1477.09 Q2994.29 1472.49 2994.29 1463.76 Q2994.29 1455.56 2998.18 1450.7 Q3002.07 1445.82 3008.62 1445.82 Q3010.38 1445.82 3012.16 1446.17 Q3013.96 1446.51 3015.91 1447.21 Z" fill="#000000" fill-rule="nonzero" fill-opacity="1" /><path clip-path="url(#clip660)" d="M3023.45 1466.12 L3035.93 1466.12 L3035.93 1469.92 L3023.45 1469.92 L3023.45 1466.12 Z" fill="#000000" fill-rule="nonzero" fill-opacity="1" /><path clip-path="url(#clip660)" d="M3053.32 1449.52 Q3049.7 1449.52 3047.88 1453.09 Q3046.07 1456.63 3046.07 1463.76 Q3046.07 1470.86 3047.88 1474.43 Q3049.7 1477.97 3053.32 1477.97 Q3056.95 1477.97 3058.76 1474.43 Q3060.58 1470.86 3060.58 1463.76 Q3060.58 1456.63 3058.76 1453.09 Q3056.95 1449.52 3053.32 1449.52 M3053.32 1445.82 Q3059.13 1445.82 3062.18 1450.43 Q3065.26 1455.01 3065.26 1463.76 Q3065.26 1472.49 3062.18 1477.09 Q3059.13 1481.68 3053.32 1481.68 Q3047.51 1481.68 3044.43 1477.09 Q3041.37 1472.49 3041.37 1463.76 Q3041.37 1455.01 3044.43 1450.43 Q3047.51 1445.82 3053.32 1445.82 Z" fill="#000000" fill-rule="nonzero" fill-opacity="1" /><path clip-path="url(#clip660)" d="M3074.29 1477.07 L3081.93 1477.07 L3081.93 1450.7 L3073.62 1452.37 L3073.62 1448.11 L3081.88 1446.44 L3086.56 1446.44 L3086.56 1477.07 L3094.19 1477.07 L3094.19 1481 L3074.29 1481 L3074.29 1477.07 Z" fill="#000000" fill-rule="nonzero" fill-opacity="1" /><path clip-path="url(#clip660)" d="M1640.62 1526.83 L1640.62 1563.78 L1648.39 1563.78 Q1658.22 1563.78 1662.78 1559.33 Q1667.36 1554.87 1667.36 1545.26 Q1667.36 1535.71 1662.78 1531.29 Q1658.22 1526.83 1648.39 1526.83 L1640.62 1526.83 M1634.19 1521.55 L1647.4 1521.55 Q1661.22 1521.55 1667.68 1527.31 Q1674.14 1533.04 1674.14 1545.26 Q1674.14 1557.55 1667.65 1563.31 Q1661.15 1569.07 1647.4 1569.07 L1634.19 1569.07 L1634.19 1521.55 Z" fill="#000000" fill-rule="nonzero" fill-opacity="1" /><path clip-path="url(#clip660)" d="M1700.33 1551.15 Q1693.24 1551.15 1690.5 1552.77 Q1687.76 1554.39 1687.76 1558.31 Q1687.76 1561.43 1689.8 1563.27 Q1691.87 1565.09 1695.4 1565.09 Q1700.27 1565.09 1703.2 1561.65 Q1706.16 1558.18 1706.16 1552.45 L1706.16 1551.15 L1700.33 1551.15 M1712.01 1548.73 L1712.01 1569.07 L1706.16 1569.07 L1706.16 1563.66 Q1704.15 1566.9 1701.16 1568.46 Q1698.17 1569.99 1693.84 1569.99 Q1688.37 1569.99 1685.12 1566.94 Q1681.9 1563.85 1681.9 1558.69 Q1681.9 1552.68 1685.91 1549.62 Q1689.96 1546.57 1697.95 1546.57 L1706.16 1546.57 L1706.16 1545.99 Q1706.16 1541.95 1703.48 1539.75 Q1700.84 1537.53 1696.04 1537.53 Q1692.98 1537.53 1690.08 1538.26 Q1687.19 1538.99 1684.51 1540.45 L1684.51 1535.04 Q1687.73 1533.8 1690.75 1533.2 Q1693.78 1532.56 1696.64 1532.56 Q1704.38 1532.56 1708.19 1536.57 Q1712.01 1540.58 1712.01 1548.73 Z" fill="#000000" fill-rule="nonzero" fill-opacity="1" /><path clip-path="url(#clip660)" d="M1729.87 1523.3 L1729.87 1533.42 L1741.93 1533.42 L1741.93 1537.97 L1729.87 1537.97 L1729.87 1557.32 Q1729.87 1561.68 1731.05 1562.92 Q1732.26 1564.17 1735.92 1564.17 L1741.93 1564.17 L1741.93 1569.07 L1735.92 1569.07 Q1729.14 1569.07 1726.56 1566.55 Q1723.98 1564.01 1723.98 1557.32 L1723.98 1537.97 L1719.68 1537.97 L1719.68 1533.42 L1723.98 1533.42 L1723.98 1523.3 L1729.87 1523.3 Z" fill="#000000" fill-rule="nonzero" fill-opacity="1" /><path clip-path="url(#clip660)" d="M1780.13 1549.78 L1780.13 1552.64 L1753.2 1552.64 Q1753.58 1558.69 1756.83 1561.87 Q1760.11 1565.03 1765.93 1565.03 Q1769.31 1565.03 1772.46 1564.2 Q1775.64 1563.37 1778.76 1561.72 L1778.76 1567.25 Q1775.61 1568.59 1772.3 1569.29 Q1768.99 1569.99 1765.58 1569.99 Q1757.05 1569.99 1752.05 1565.03 Q1747.09 1560.06 1747.09 1551.59 Q1747.09 1542.84 1751.8 1537.72 Q1756.54 1532.56 1764.56 1532.56 Q1771.76 1532.56 1775.93 1537.21 Q1780.13 1541.82 1780.13 1549.78 M1774.27 1548.06 Q1774.21 1543.25 1771.57 1540.39 Q1768.96 1537.53 1764.63 1537.53 Q1759.73 1537.53 1756.77 1540.29 Q1753.84 1543.06 1753.39 1548.09 L1774.27 1548.06 Z" fill="#000000" fill-rule="nonzero" fill-opacity="1" /><polyline clip-path="url(#clip662)" style="stroke:#000000; stroke-linecap:round; stroke-linejoin:round; stroke-width:2; stroke-opacity:0.1; fill:none" points="293.061,1382.77 3121.26,1382.77 "/>
<polyline clip-path="url(#clip662)" style="stroke:#000000; stroke-linecap:round; stroke-linejoin:round; stroke-width:2; stroke-opacity:0.1; fill:none" points="293.061,1130.02 3121.26,1130.02 "/>
<polyline clip-path="url(#clip662)" style="stroke:#000000; stroke-linecap:round; stroke-linejoin:round; stroke-width:2; stroke-opacity:0.1; fill:none" points="293.061,877.265 3121.26,877.265 "/>
<polyline clip-path="url(#clip662)" style="stroke:#000000; stroke-linecap:round; stroke-linejoin:round; stroke-width:2; stroke-opacity:0.1; fill:none" points="293.061,624.514 3121.26,624.514 "/>
<polyline clip-path="url(#clip662)" style="stroke:#000000; stroke-linecap:round; stroke-linejoin:round; stroke-width:2; stroke-opacity:0.1; fill:none" points="293.061,371.763 3121.26,371.763 "/>
<polyline clip-path="url(#clip662)" style="stroke:#000000; stroke-linecap:round; stroke-linejoin:round; stroke-width:2; stroke-opacity:0.1; fill:none" points="293.061,119.012 3121.26,119.012 "/>
<polyline clip-path="url(#clip660)" style="stroke:#000000; stroke-linecap:round; stroke-linejoin:round; stroke-width:4; stroke-opacity:1; fill:none" points="293.061,1412.2 293.061,78.7402 "/>
<polyline clip-path="url(#clip660)" style="stroke:#000000; stroke-linecap:round; stroke-linejoin:round; stroke-width:4; stroke-opacity:1; fill:none" points="293.061,1382.77 311.958,1382.77 "/>
<polyline clip-path="url(#clip660)" style="stroke:#000000; stroke-linecap:round; stroke-linejoin:round; stroke-width:4; stroke-opacity:1; fill:none" points="293.061,1130.02 311.958,1130.02 "/>
<polyline clip-path="url(#clip660)" style="stroke:#000000; stroke-linecap:round; stroke-linejoin:round; stroke-width:4; stroke-opacity:1; fill:none" points="293.061,877.265 311.958,877.265 "/>
<polyline clip-path="url(#clip660)" style="stroke:#000000; stroke-linecap:round; stroke-linejoin:round; stroke-width:4; stroke-opacity:1; fill:none" points="293.061,624.514 311.958,624.514 "/>
<polyline clip-path="url(#clip660)" style="stroke:#000000; stroke-linecap:round; stroke-linejoin:round; stroke-width:4; stroke-opacity:1; fill:none" points="293.061,371.763 311.958,371.763 "/>
<polyline clip-path="url(#clip660)" style="stroke:#000000; stroke-linecap:round; stroke-linejoin:round; stroke-width:4; stroke-opacity:1; fill:none" points="293.061,119.012 311.958,119.012 "/>
<path clip-path="url(#clip660)" d="M233.116 1368.56 Q229.505 1368.56 227.677 1372.13 Q225.871 1375.67 225.871 1382.8 Q225.871 1389.91 227.677 1393.47 Q229.505 1397.01 233.116 1397.01 Q236.751 1397.01 238.556 1393.47 Q240.385 1389.91 240.385 1382.8 Q240.385 1375.67 238.556 1372.13 Q236.751 1368.56 233.116 1368.56 M233.116 1364.86 Q238.927 1364.86 241.982 1369.47 Q245.061 1374.05 245.061 1382.8 Q245.061 1391.53 241.982 1396.13 Q238.927 1400.72 233.116 1400.72 Q227.306 1400.72 224.228 1396.13 Q221.172 1391.53 221.172 1382.8 Q221.172 1374.05 224.228 1369.47 Q227.306 1364.86 233.116 1364.86 Z" fill="#000000" fill-rule="nonzero" fill-opacity="1" /><path clip-path="url(#clip660)" d="M133.441 1143.36 L141.08 1143.36 L141.08 1116.99 L132.77 1118.66 L132.77 1114.4 L141.034 1112.74 L145.709 1112.74 L145.709 1143.36 L153.348 1143.36 L153.348 1147.3 L133.441 1147.3 L133.441 1143.36 Z" fill="#000000" fill-rule="nonzero" fill-opacity="1" /><path clip-path="url(#clip660)" d="M172.793 1115.81 Q169.182 1115.81 167.353 1119.38 Q165.547 1122.92 165.547 1130.05 Q165.547 1137.16 167.353 1140.72 Q169.182 1144.26 172.793 1144.26 Q176.427 1144.26 178.232 1140.72 Q180.061 1137.16 180.061 1130.05 Q180.061 1122.92 178.232 1119.38 Q176.427 1115.81 172.793 1115.81 M172.793 1112.11 Q178.603 1112.11 181.658 1116.72 Q184.737 1121.3 184.737 1130.05 Q184.737 1138.78 181.658 1143.38 Q178.603 1147.97 172.793 1147.97 Q166.983 1147.97 163.904 1143.38 Q160.848 1138.78 160.848 1130.05 Q160.848 1121.3 163.904 1116.72 Q166.983 1112.11 172.793 1112.11 Z" fill="#000000" fill-rule="nonzero" fill-opacity="1" /><path clip-path="url(#clip660)" d="M202.955 1115.81 Q199.343 1115.81 197.515 1119.38 Q195.709 1122.92 195.709 1130.05 Q195.709 1137.16 197.515 1140.72 Q199.343 1144.26 202.955 1144.26 Q206.589 1144.26 208.394 1140.72 Q210.223 1137.16 210.223 1130.05 Q210.223 1122.92 208.394 1119.38 Q206.589 1115.81 202.955 1115.81 M202.955 1112.11 Q208.765 1112.11 211.82 1116.72 Q214.899 1121.3 214.899 1130.05 Q214.899 1138.78 211.82 1143.38 Q208.765 1147.97 202.955 1147.97 Q197.144 1147.97 194.066 1143.38 Q191.01 1138.78 191.01 1130.05 Q191.01 1121.3 194.066 1116.72 Q197.144 1112.11 202.955 1112.11 Z" fill="#000000" fill-rule="nonzero" fill-opacity="1" /><path clip-path="url(#clip660)" d="M233.116 1115.81 Q229.505 1115.81 227.677 1119.38 Q225.871 1122.92 225.871 1130.05 Q225.871 1137.16 227.677 1140.72 Q229.505 1144.26 233.116 1144.26 Q236.751 1144.26 238.556 1140.72 Q240.385 1137.16 240.385 1130.05 Q240.385 1122.92 238.556 1119.38 Q236.751 1115.81 233.116 1115.81 M233.116 1112.11 Q238.927 1112.11 241.982 1116.72 Q245.061 1121.3 245.061 1130.05 Q245.061 1138.78 241.982 1143.38 Q238.927 1147.97 233.116 1147.97 Q227.306 1147.97 224.228 1143.38 Q221.172 1138.78 221.172 1130.05 Q221.172 1121.3 224.228 1116.72 Q227.306 1112.11 233.116 1112.11 Z" fill="#000000" fill-rule="nonzero" fill-opacity="1" /><path clip-path="url(#clip660)" d="M136.659 890.609 L152.978 890.609 L152.978 894.545 L131.034 894.545 L131.034 890.609 Q133.696 887.855 138.279 883.225 Q142.885 878.572 144.066 877.23 Q146.311 874.707 147.191 872.971 Q148.094 871.211 148.094 869.522 Q148.094 866.767 146.149 865.031 Q144.228 863.295 141.126 863.295 Q138.927 863.295 136.473 864.059 Q134.043 864.822 131.265 866.373 L131.265 861.651 Q134.089 860.517 136.543 859.938 Q138.997 859.36 141.034 859.36 Q146.404 859.36 149.598 862.045 Q152.793 864.73 152.793 869.221 Q152.793 871.35 151.983 873.271 Q151.196 875.17 149.089 877.762 Q148.51 878.433 145.409 881.651 Q142.307 884.845 136.659 890.609 Z" fill="#000000" fill-rule="nonzero" fill-opacity="1" /><path clip-path="url(#clip660)" d="M172.793 863.063 Q169.182 863.063 167.353 866.628 Q165.547 870.17 165.547 877.299 Q165.547 884.406 167.353 887.97 Q169.182 891.512 172.793 891.512 Q176.427 891.512 178.232 887.97 Q180.061 884.406 180.061 877.299 Q180.061 870.17 178.232 866.628 Q176.427 863.063 172.793 863.063 M172.793 859.36 Q178.603 859.36 181.658 863.966 Q184.737 868.549 184.737 877.299 Q184.737 886.026 181.658 890.632 Q178.603 895.216 172.793 895.216 Q166.983 895.216 163.904 890.632 Q160.848 886.026 160.848 877.299 Q160.848 868.549 163.904 863.966 Q166.983 859.36 172.793 859.36 Z" fill="#000000" fill-rule="nonzero" fill-opacity="1" /><path clip-path="url(#clip660)" d="M202.955 863.063 Q199.343 863.063 197.515 866.628 Q195.709 870.17 195.709 877.299 Q195.709 884.406 197.515 887.97 Q199.343 891.512 202.955 891.512 Q206.589 891.512 208.394 887.97 Q210.223 884.406 210.223 877.299 Q210.223 870.17 208.394 866.628 Q206.589 863.063 202.955 863.063 M202.955 859.36 Q208.765 859.36 211.82 863.966 Q214.899 868.549 214.899 877.299 Q214.899 886.026 211.82 890.632 Q208.765 895.216 202.955 895.216 Q197.144 895.216 194.066 890.632 Q191.01 886.026 191.01 877.299 Q191.01 868.549 194.066 863.966 Q197.144 859.36 202.955 859.36 Z" fill="#000000" fill-rule="nonzero" fill-opacity="1" /><path clip-path="url(#clip660)" d="M233.116 863.063 Q229.505 863.063 227.677 866.628 Q225.871 870.17 225.871 877.299 Q225.871 884.406 227.677 887.97 Q229.505 891.512 233.116 891.512 Q236.751 891.512 238.556 887.97 Q240.385 884.406 240.385 877.299 Q240.385 870.17 238.556 866.628 Q236.751 863.063 233.116 863.063 M233.116 859.36 Q238.927 859.36 241.982 863.966 Q245.061 868.549 245.061 877.299 Q245.061 886.026 241.982 890.632 Q238.927 895.216 233.116 895.216 Q227.306 895.216 224.228 890.632 Q221.172 886.026 221.172 877.299 Q221.172 868.549 224.228 863.966 Q227.306 859.36 233.116 859.36 Z" fill="#000000" fill-rule="nonzero" fill-opacity="1" /><path clip-path="url(#clip660)" d="M146.797 623.16 Q150.154 623.877 152.029 626.146 Q153.927 628.414 153.927 631.748 Q153.927 636.863 150.409 639.664 Q146.89 642.465 140.409 642.465 Q138.233 642.465 135.918 642.025 Q133.626 641.609 131.173 640.752 L131.173 636.238 Q133.117 637.372 135.432 637.951 Q137.747 638.53 140.27 638.53 Q144.668 638.53 146.959 636.794 Q149.274 635.058 149.274 631.748 Q149.274 628.692 147.121 626.979 Q144.992 625.243 141.172 625.243 L137.145 625.243 L137.145 621.4 L141.358 621.4 Q144.807 621.4 146.635 620.035 Q148.464 618.646 148.464 616.053 Q148.464 613.391 146.566 611.979 Q144.691 610.544 141.172 610.544 Q139.251 610.544 137.052 610.961 Q134.853 611.377 132.214 612.257 L132.214 608.09 Q134.876 607.35 137.191 606.979 Q139.529 606.609 141.589 606.609 Q146.913 606.609 150.015 609.039 Q153.117 611.447 153.117 615.567 Q153.117 618.437 151.473 620.428 Q149.83 622.396 146.797 623.16 Z" fill="#000000" fill-rule="nonzero" fill-opacity="1" /><path clip-path="url(#clip660)" d="M172.793 610.312 Q169.182 610.312 167.353 613.877 Q165.547 617.419 165.547 624.548 Q165.547 631.655 167.353 635.22 Q169.182 638.761 172.793 638.761 Q176.427 638.761 178.232 635.22 Q180.061 631.655 180.061 624.548 Q180.061 617.419 178.232 613.877 Q176.427 610.312 172.793 610.312 M172.793 606.609 Q178.603 606.609 181.658 611.215 Q184.737 615.799 184.737 624.548 Q184.737 633.275 181.658 637.882 Q178.603 642.465 172.793 642.465 Q166.983 642.465 163.904 637.882 Q160.848 633.275 160.848 624.548 Q160.848 615.799 163.904 611.215 Q166.983 606.609 172.793 606.609 Z" fill="#000000" fill-rule="nonzero" fill-opacity="1" /><path clip-path="url(#clip660)" d="M202.955 610.312 Q199.343 610.312 197.515 613.877 Q195.709 617.419 195.709 624.548 Q195.709 631.655 197.515 635.22 Q199.343 638.761 202.955 638.761 Q206.589 638.761 208.394 635.22 Q210.223 631.655 210.223 624.548 Q210.223 617.419 208.394 613.877 Q206.589 610.312 202.955 610.312 M202.955 606.609 Q208.765 606.609 211.82 611.215 Q214.899 615.799 214.899 624.548 Q214.899 633.275 211.82 637.882 Q208.765 642.465 202.955 642.465 Q197.144 642.465 194.066 637.882 Q191.01 633.275 191.01 624.548 Q191.01 615.799 194.066 611.215 Q197.144 606.609 202.955 606.609 Z" fill="#000000" fill-rule="nonzero" fill-opacity="1" /><path clip-path="url(#clip660)" d="M233.116 610.312 Q229.505 610.312 227.677 613.877 Q225.871 617.419 225.871 624.548 Q225.871 631.655 227.677 635.22 Q229.505 638.761 233.116 638.761 Q236.751 638.761 238.556 635.22 Q240.385 631.655 240.385 624.548 Q240.385 617.419 238.556 613.877 Q236.751 610.312 233.116 610.312 M233.116 606.609 Q238.927 606.609 241.982 611.215 Q245.061 615.799 245.061 624.548 Q245.061 633.275 241.982 637.882 Q238.927 642.465 233.116 642.465 Q227.306 642.465 224.228 637.882 Q221.172 633.275 221.172 624.548 Q221.172 615.799 224.228 611.215 Q227.306 606.609 233.116 606.609 Z" fill="#000000" fill-rule="nonzero" fill-opacity="1" /><path clip-path="url(#clip660)" d="M145.478 358.557 L133.672 377.006 L145.478 377.006 L145.478 358.557 M144.251 354.483 L150.131 354.483 L150.131 377.006 L155.061 377.006 L155.061 380.895 L150.131 380.895 L150.131 389.043 L145.478 389.043 L145.478 380.895 L129.876 380.895 L129.876 376.381 L144.251 354.483 Z" fill="#000000" fill-rule="nonzero" fill-opacity="1" /><path clip-path="url(#clip660)" d="M172.793 357.562 Q169.182 357.562 167.353 361.126 Q165.547 364.668 165.547 371.798 Q165.547 378.904 167.353 382.469 Q169.182 386.011 172.793 386.011 Q176.427 386.011 178.232 382.469 Q180.061 378.904 180.061 371.798 Q180.061 364.668 178.232 361.126 Q176.427 357.562 172.793 357.562 M172.793 353.858 Q178.603 353.858 181.658 358.464 Q184.737 363.048 184.737 371.798 Q184.737 380.525 181.658 385.131 Q178.603 389.714 172.793 389.714 Q166.983 389.714 163.904 385.131 Q160.848 380.525 160.848 371.798 Q160.848 363.048 163.904 358.464 Q166.983 353.858 172.793 353.858 Z" fill="#000000" fill-rule="nonzero" fill-opacity="1" /><path clip-path="url(#clip660)" d="M202.955 357.562 Q199.343 357.562 197.515 361.126 Q195.709 364.668 195.709 371.798 Q195.709 378.904 197.515 382.469 Q199.343 386.011 202.955 386.011 Q206.589 386.011 208.394 382.469 Q210.223 378.904 210.223 371.798 Q210.223 364.668 208.394 361.126 Q206.589 357.562 202.955 357.562 M202.955 353.858 Q208.765 353.858 211.82 358.464 Q214.899 363.048 214.899 371.798 Q214.899 380.525 211.82 385.131 Q208.765 389.714 202.955 389.714 Q197.144 389.714 194.066 385.131 Q191.01 380.525 191.01 371.798 Q191.01 363.048 194.066 358.464 Q197.144 353.858 202.955 353.858 Z" fill="#000000" fill-rule="nonzero" fill-opacity="1" /><path clip-path="url(#clip660)" d="M233.116 357.562 Q229.505 357.562 227.677 361.126 Q225.871 364.668 225.871 371.798 Q225.871 378.904 227.677 382.469 Q229.505 386.011 233.116 386.011 Q236.751 386.011 238.556 382.469 Q240.385 378.904 240.385 371.798 Q240.385 364.668 238.556 361.126 Q236.751 357.562 233.116 357.562 M233.116 353.858 Q238.927 353.858 241.982 358.464 Q245.061 363.048 245.061 371.798 Q245.061 380.525 241.982 385.131 Q238.927 389.714 233.116 389.714 Q227.306 389.714 224.228 385.131 Q221.172 380.525 221.172 371.798 Q221.172 363.048 224.228 358.464 Q227.306 353.858 233.116 353.858 Z" fill="#000000" fill-rule="nonzero" fill-opacity="1" /><path clip-path="url(#clip660)" d="M132.677 101.732 L151.034 101.732 L151.034 105.667 L136.96 105.667 L136.96 114.14 Q137.978 113.792 138.997 113.63 Q140.015 113.445 141.034 113.445 Q146.821 113.445 150.2 116.616 Q153.58 119.788 153.58 125.204 Q153.58 130.783 150.108 133.885 Q146.635 136.964 140.316 136.964 Q138.14 136.964 135.872 136.593 Q133.626 136.223 131.219 135.482 L131.219 130.783 Q133.302 131.917 135.524 132.473 Q137.747 133.028 140.223 133.028 Q144.228 133.028 146.566 130.922 Q148.904 128.815 148.904 125.204 Q148.904 121.593 146.566 119.487 Q144.228 117.38 140.223 117.38 Q138.348 117.38 136.473 117.797 Q134.622 118.214 132.677 119.093 L132.677 101.732 Z" fill="#000000" fill-rule="nonzero" fill-opacity="1" /><path clip-path="url(#clip660)" d="M172.793 104.811 Q169.182 104.811 167.353 108.376 Q165.547 111.917 165.547 119.047 Q165.547 126.153 167.353 129.718 Q169.182 133.26 172.793 133.26 Q176.427 133.26 178.232 129.718 Q180.061 126.153 180.061 119.047 Q180.061 111.917 178.232 108.376 Q176.427 104.811 172.793 104.811 M172.793 101.107 Q178.603 101.107 181.658 105.714 Q184.737 110.297 184.737 119.047 Q184.737 127.774 181.658 132.38 Q178.603 136.964 172.793 136.964 Q166.983 136.964 163.904 132.38 Q160.848 127.774 160.848 119.047 Q160.848 110.297 163.904 105.714 Q166.983 101.107 172.793 101.107 Z" fill="#000000" fill-rule="nonzero" fill-opacity="1" /><path clip-path="url(#clip660)" d="M202.955 104.811 Q199.343 104.811 197.515 108.376 Q195.709 111.917 195.709 119.047 Q195.709 126.153 197.515 129.718 Q199.343 133.26 202.955 133.26 Q206.589 133.26 208.394 129.718 Q210.223 126.153 210.223 119.047 Q210.223 111.917 208.394 108.376 Q206.589 104.811 202.955 104.811 M202.955 101.107 Q208.765 101.107 211.82 105.714 Q214.899 110.297 214.899 119.047 Q214.899 127.774 211.82 132.38 Q208.765 136.964 202.955 136.964 Q197.144 136.964 194.066 132.38 Q191.01 127.774 191.01 119.047 Q191.01 110.297 194.066 105.714 Q197.144 101.107 202.955 101.107 Z" fill="#000000" fill-rule="nonzero" fill-opacity="1" /><path clip-path="url(#clip660)" d="M233.116 104.811 Q229.505 104.811 227.677 108.376 Q225.871 111.917 225.871 119.047 Q225.871 126.153 227.677 129.718 Q229.505 133.26 233.116 133.26 Q236.751 133.26 238.556 129.718 Q240.385 126.153 240.385 119.047 Q240.385 111.917 238.556 108.376 Q236.751 104.811 233.116 104.811 M233.116 101.107 Q238.927 101.107 241.982 105.714 Q245.061 110.297 245.061 119.047 Q245.061 127.774 241.982 132.38 Q238.927 136.964 233.116 136.964 Q227.306 136.964 224.228 132.38 Q221.172 127.774 221.172 119.047 Q221.172 110.297 224.228 105.714 Q227.306 101.107 233.116 101.107 Z" fill="#000000" fill-rule="nonzero" fill-opacity="1" /><path clip-path="url(#clip660)" d="M20.1002 1085.64 L20.1002 1055.59 L25.5111 1055.59 L25.5111 1079.21 L39.5793 1079.21 L39.5793 1056.58 L44.9901 1056.58 L44.9901 1079.21 L62.2094 1079.21 L62.2094 1055.02 L67.6202 1055.02 L67.6202 1085.64 L20.1002 1085.64 Z" fill="#000000" fill-rule="nonzero" fill-opacity="1" /><path clip-path="url(#clip660)" d="M18.095 1026.66 L22.9648 1026.66 L22.9648 1032.26 Q22.9648 1035.41 24.2379 1036.66 Q25.5111 1037.86 28.8212 1037.86 L31.9723 1037.86 L31.9723 1028.22 L36.5237 1028.22 L36.5237 1037.86 L67.6202 1037.86 L67.6202 1043.75 L36.5237 1043.75 L36.5237 1049.35 L31.9723 1049.35 L31.9723 1043.75 L29.4896 1043.75 Q23.5377 1043.75 20.8323 1040.98 Q18.095 1038.21 18.095 1032.2 L18.095 1026.66 Z" fill="#000000" fill-rule="nonzero" fill-opacity="1" /><path clip-path="url(#clip660)" d="M18.095 1003.71 L22.9648 1003.71 L22.9648 1009.31 Q22.9648 1012.47 24.2379 1013.71 Q25.5111 1014.92 28.8212 1014.92 L31.9723 1014.92 L31.9723 1005.27 L36.5237 1005.27 L36.5237 1014.92 L67.6202 1014.92 L67.6202 1020.8 L36.5237 1020.8 L36.5237 1026.41 L31.9723 1026.41 L31.9723 1020.8 L29.4896 1020.8 Q23.5377 1020.8 20.8323 1018.04 Q18.095 1015.27 18.095 1009.25 L18.095 1003.71 Z" fill="#000000" fill-rule="nonzero" fill-opacity="1" /><path clip-path="url(#clip660)" d="M48.3321 968.319 L51.1967 968.319 L51.1967 995.246 Q57.2441 994.864 60.427 991.618 Q63.578 988.34 63.578 982.515 Q63.578 979.141 62.7505 975.99 Q61.9229 972.807 60.2678 969.688 L65.806 969.688 Q67.1428 972.839 67.843 976.149 Q68.5432 979.459 68.5432 982.865 Q68.5432 991.395 63.578 996.392 Q58.6127 1001.36 50.1464 1001.36 Q41.3935 1001.36 36.2691 996.647 Q31.1129 991.904 31.1129 983.884 Q31.1129 976.69 35.7599 972.521 Q40.375 968.319 48.3321 968.319 M46.6134 974.176 Q41.8073 974.24 38.9427 976.881 Q36.0781 979.491 36.0781 983.82 Q36.0781 988.722 38.8472 991.682 Q41.6163 994.61 46.6452 995.055 L46.6134 974.176 Z" fill="#000000" fill-rule="nonzero" fill-opacity="1" /><path clip-path="url(#clip660)" d="M33.3409 933.053 L38.8154 933.053 Q37.4468 935.536 36.7784 938.051 Q36.0781 940.533 36.0781 943.079 Q36.0781 948.777 39.7066 951.928 Q43.3032 955.079 49.8281 955.079 Q56.3529 955.079 59.9814 951.928 Q63.578 948.777 63.578 943.079 Q63.578 940.533 62.9096 938.051 Q62.2094 935.536 60.8407 933.053 L66.2516 933.053 Q67.3974 935.504 67.9703 938.146 Q68.5432 940.756 68.5432 943.716 Q68.5432 951.769 63.4825 956.511 Q58.4218 961.254 49.8281 961.254 Q41.1071 961.254 36.11 956.479 Q31.1129 951.673 31.1129 943.334 Q31.1129 940.629 31.6858 938.051 Q32.2269 935.472 33.3409 933.053 Z" fill="#000000" fill-rule="nonzero" fill-opacity="1" /><path clip-path="url(#clip660)" d="M21.8508 917.076 L31.9723 917.076 L31.9723 905.012 L36.5237 905.012 L36.5237 917.076 L55.8755 917.076 Q60.236 917.076 61.4773 915.898 Q62.7186 914.688 62.7186 911.028 L62.7186 905.012 L67.6202 905.012 L67.6202 911.028 Q67.6202 917.808 65.1058 920.386 Q62.5595 922.964 55.8755 922.964 L36.5237 922.964 L36.5237 927.261 L31.9723 927.261 L31.9723 922.964 L21.8508 922.964 L21.8508 917.076 Z" fill="#000000" fill-rule="nonzero" fill-opacity="1" /><path clip-path="url(#clip660)" d="M31.9723 897.31 L31.9723 891.454 L67.6202 891.454 L67.6202 897.31 L31.9723 897.31 M18.095 897.31 L18.095 891.454 L25.5111 891.454 L25.5111 897.31 L18.095 897.31 Z" fill="#000000" fill-rule="nonzero" fill-opacity="1" /><path clip-path="url(#clip660)" d="M31.9723 883.401 L31.9723 877.194 L61.8911 866.054 L31.9723 854.914 L31.9723 848.708 L67.6202 862.076 L67.6202 870.033 L31.9723 883.401 Z" fill="#000000" fill-rule="nonzero" fill-opacity="1" /><path clip-path="url(#clip660)" d="M48.3321 810.132 L51.1967 810.132 L51.1967 837.059 Q57.2441 836.677 60.427 833.43 Q63.578 830.152 63.578 824.327 Q63.578 820.953 62.7505 817.802 Q61.9229 814.619 60.2678 811.5 L65.806 811.5 Q67.1428 814.651 67.843 817.961 Q68.5432 821.272 68.5432 824.677 Q68.5432 833.207 63.578 838.204 Q58.6127 843.17 50.1464 843.17 Q41.3935 843.17 36.2691 838.459 Q31.1129 833.717 31.1129 825.696 Q31.1129 818.503 35.7599 814.333 Q40.375 810.132 48.3321 810.132 M46.6134 815.988 Q41.8073 816.052 38.9427 818.694 Q36.0781 821.303 36.0781 825.632 Q36.0781 830.534 38.8472 833.494 Q41.6163 836.422 46.6452 836.868 L46.6134 815.988 Z" fill="#000000" fill-rule="nonzero" fill-opacity="1" /><path clip-path="url(#clip660)" d="M33.0226 757.073 L38.5608 757.073 Q37.2876 759.556 36.6511 762.23 Q36.0145 764.903 36.0145 767.768 Q36.0145 772.128 37.3513 774.325 Q38.6881 776.489 41.3617 776.489 Q43.3987 776.489 44.5764 774.929 Q45.7222 773.37 46.7725 768.659 L47.2181 766.654 Q48.5549 760.415 51.0057 757.806 Q53.4247 755.164 57.7852 755.164 Q62.7505 755.164 65.6469 759.11 Q68.5432 763.025 68.5432 769.9 Q68.5432 772.765 67.9703 775.884 Q67.4292 778.971 66.3153 782.409 L60.2678 782.409 Q61.9547 779.162 62.8141 776.011 Q63.6417 772.86 63.6417 769.773 Q63.6417 765.635 62.2412 763.407 Q60.8089 761.179 58.2308 761.179 Q55.8437 761.179 54.5705 762.803 Q53.2974 764.394 52.1197 769.837 L51.6423 771.874 Q50.4965 777.316 48.1412 779.735 Q45.754 782.154 41.6163 782.154 Q36.5874 782.154 33.8501 778.59 Q31.1129 775.025 31.1129 768.468 Q31.1129 765.222 31.5903 762.357 Q32.0677 759.492 33.0226 757.073 Z" fill="#000000" fill-rule="nonzero" fill-opacity="1" /><path clip-path="url(#clip660)" d="M49.7008 729.637 Q49.7008 736.735 51.324 739.472 Q52.9473 742.21 56.8622 742.21 Q59.9814 742.21 61.8274 740.173 Q63.6417 738.104 63.6417 734.571 Q63.6417 729.701 60.2042 726.773 Q56.7349 723.813 51.0057 723.813 L49.7008 723.813 L49.7008 729.637 M47.2818 717.956 L67.6202 717.956 L67.6202 723.813 L62.2094 723.813 Q65.4559 725.818 67.0155 728.81 Q68.5432 731.802 68.5432 736.13 Q68.5432 741.605 65.4877 744.851 Q62.4003 748.066 57.2441 748.066 Q51.2285 748.066 48.173 744.056 Q45.1174 740.013 45.1174 732.024 L45.1174 723.813 L44.5445 723.813 Q40.5023 723.813 38.3061 726.486 Q36.0781 729.128 36.0781 733.934 Q36.0781 736.99 36.8102 739.886 Q37.5423 742.782 39.0064 745.456 L33.5955 745.456 Q32.3542 742.241 31.7495 739.218 Q31.1129 736.194 31.1129 733.329 Q31.1129 725.595 35.1233 721.776 Q39.1337 717.956 47.2818 717.956 Z" fill="#000000" fill-rule="nonzero" fill-opacity="1" /><path clip-path="url(#clip660)" d="M38.8154 678.139 Q34.8687 675.943 32.9908 672.887 Q31.1129 669.831 31.1129 665.694 Q31.1129 660.124 35.0278 657.1 Q38.9109 654.076 46.1041 654.076 L67.6202 654.076 L67.6202 659.965 L46.2951 659.965 Q41.1707 659.965 38.6881 661.779 Q36.2055 663.593 36.2055 667.317 Q36.2055 671.868 39.2292 674.51 Q42.2529 677.152 47.4728 677.152 L67.6202 677.152 L67.6202 683.04 L46.2951 683.04 Q41.1389 683.04 38.6881 684.855 Q36.2055 686.669 36.2055 690.456 Q36.2055 694.944 39.261 697.586 Q42.2847 700.228 47.4728 700.228 L67.6202 700.228 L67.6202 706.116 L31.9723 706.116 L31.9723 700.228 L37.5104 700.228 Q34.2321 698.223 32.6725 695.422 Q31.1129 692.621 31.1129 688.769 Q31.1129 684.886 33.0863 682.181 Q35.0596 679.444 38.8154 678.139 Z" fill="#000000" fill-rule="nonzero" fill-opacity="1" /><path clip-path="url(#clip660)" d="M62.273 636.73 L81.1792 636.73 L81.1792 642.618 L31.9723 642.618 L31.9723 636.73 L37.3831 636.73 Q34.2003 634.884 32.6725 632.083 Q31.1129 629.25 31.1129 625.335 Q31.1129 618.842 36.2691 614.8 Q41.4253 610.726 49.8281 610.726 Q58.2308 610.726 63.387 614.8 Q68.5432 618.842 68.5432 625.335 Q68.5432 629.25 67.0155 632.083 Q65.4559 634.884 62.273 636.73 M49.8281 616.805 Q43.3669 616.805 39.7066 619.479 Q36.0145 622.12 36.0145 626.767 Q36.0145 631.414 39.7066 634.088 Q43.3669 636.73 49.8281 636.73 Q56.2893 636.73 59.9814 634.088 Q63.6417 631.414 63.6417 626.767 Q63.6417 622.12 59.9814 619.479 Q56.2893 616.805 49.8281 616.805 Z" fill="#000000" fill-rule="nonzero" fill-opacity="1" /><path clip-path="url(#clip660)" d="M18.095 601.018 L18.095 595.162 L67.6202 595.162 L67.6202 601.018 L18.095 601.018 Z" fill="#000000" fill-rule="nonzero" fill-opacity="1" /><path clip-path="url(#clip660)" d="M48.3321 552.416 L51.1967 552.416 L51.1967 579.343 Q57.2441 578.961 60.427 575.714 Q63.578 572.436 63.578 566.612 Q63.578 563.238 62.7505 560.087 Q61.9229 556.904 60.2678 553.785 L65.806 553.785 Q67.1428 556.936 67.843 560.246 Q68.5432 563.556 68.5432 566.962 Q68.5432 575.492 63.578 580.489 Q58.6127 585.454 50.1464 585.454 Q41.3935 585.454 36.2691 580.743 Q31.1129 576.001 31.1129 567.98 Q31.1129 560.787 35.7599 556.617 Q40.375 552.416 48.3321 552.416 M46.6134 558.272 Q41.8073 558.336 38.9427 560.978 Q36.0781 563.588 36.0781 567.916 Q36.0781 572.818 38.8472 575.778 Q41.6163 578.706 46.6452 579.152 L46.6134 558.272 Z" fill="#000000" fill-rule="nonzero" fill-opacity="1" /><path clip-path="url(#clip660)" d="M33.0226 499.358 L38.5608 499.358 Q37.2876 501.84 36.6511 504.514 Q36.0145 507.188 36.0145 510.052 Q36.0145 514.413 37.3513 516.609 Q38.6881 518.773 41.3617 518.773 Q43.3987 518.773 44.5764 517.214 Q45.7222 515.654 46.7725 510.943 L47.2181 508.938 Q48.5549 502.7 51.0057 500.09 Q53.4247 497.448 57.7852 497.448 Q62.7505 497.448 65.6469 501.395 Q68.5432 505.31 68.5432 512.185 Q68.5432 515.049 67.9703 518.168 Q67.4292 521.256 66.3153 524.693 L60.2678 524.693 Q61.9547 521.447 62.8141 518.296 Q63.6417 515.145 63.6417 512.057 Q63.6417 507.92 62.2412 505.692 Q60.8089 503.464 58.2308 503.464 Q55.8437 503.464 54.5705 505.087 Q53.2974 506.678 52.1197 512.121 L51.6423 514.158 Q50.4965 519.601 48.1412 522.02 Q45.754 524.439 41.6163 524.439 Q36.5874 524.439 33.8501 520.874 Q31.1129 517.309 31.1129 510.752 Q31.1129 507.506 31.5903 504.641 Q32.0677 501.777 33.0226 499.358 Z" fill="#000000" fill-rule="nonzero" fill-opacity="1" /><path clip-path="url(#clip660)" d="M31.9723 488.122 L31.9723 482.266 L67.6202 482.266 L67.6202 488.122 L31.9723 488.122 M18.095 488.122 L18.095 482.266 L25.5111 482.266 L25.5111 488.122 L18.095 488.122 Z" fill="#000000" fill-rule="nonzero" fill-opacity="1" /><path clip-path="url(#clip660)" d="M31.9723 472.558 L31.9723 444.74 L37.3195 444.74 L62.9414 466.765 L62.9414 444.74 L67.6202 444.74 L67.6202 473.354 L62.273 473.354 L36.6511 451.329 L36.6511 472.558 L31.9723 472.558 Z" fill="#000000" fill-rule="nonzero" fill-opacity="1" /><path clip-path="url(#clip660)" d="M48.3321 405.305 L51.1967 405.305 L51.1967 432.231 Q57.2441 431.85 60.427 428.603 Q63.578 425.325 63.578 419.5 Q63.578 416.126 62.7505 412.975 Q61.9229 409.792 60.2678 406.673 L65.806 406.673 Q67.1428 409.824 67.843 413.134 Q68.5432 416.445 68.5432 419.85 Q68.5432 428.38 63.578 433.377 Q58.6127 438.343 50.1464 438.343 Q41.3935 438.343 36.2691 433.632 Q31.1129 428.889 31.1129 420.869 Q31.1129 413.675 35.7599 409.506 Q40.375 405.305 48.3321 405.305 M46.6134 411.161 Q41.8073 411.225 38.9427 413.866 Q36.0781 416.476 36.0781 420.805 Q36.0781 425.707 38.8472 428.667 Q41.6163 431.595 46.6452 432.04 L46.6134 411.161 Z" fill="#000000" fill-rule="nonzero" fill-opacity="1" /><polyline clip-path="url(#clip662)" style="stroke:#009af9; stroke-linecap:round; stroke-linejoin:round; stroke-width:4; stroke-opacity:1; fill:none" points="373.104,1374.46 400.055,1374.09 427.005,1373.26 453.956,1373.34 480.907,1373.71 507.857,1373.85 534.808,1373.86 561.759,1374.08 588.709,1374.24 615.66,1374.08 642.61,1374.27 669.561,1373.91 696.512,1374.04 723.462,1374.06 750.413,1374.19 777.364,1374.39 804.314,1374.45 831.265,1374.42 858.215,1373.44 885.166,1369.86 912.117,1357.58 939.067,1357.76 966.018,1357.91 992.969,1356.84 1019.92,1356.79 1046.87,1357.32 1073.82,1356.09 1100.77,1355.62 1127.72,1355.76 1154.67,1353.93 1181.62,1353.04 1208.57,1351.19 1235.52,1348.61 1262.47,1348.39 1289.43,1345.17 1316.38,1345.53 1343.33,1345.16 1370.28,1345.05 1397.23,1344.18 1424.18,1343.38 1451.13,1343.07 1478.08,1341.56 1505.03,1337.62 1531.98,1337.11 1558.93,1337.17 1585.88,1339.19 1612.83,1335.96 1639.78,1334.7 1666.73,1335.16 1693.69,1335.39 1720.64,1336.21 1747.59,1337.15 1774.54,1334.85 1801.49,1333.89 1828.44,1336.14 1855.39,1336.96 1882.34,1337.63 1909.29,1336.98 1936.24,1334.56 1963.19,1335 1990.14,1334.6 2017.09,1331.31 2044.04,1328.71 2070.99,1327.65 2097.94,1324.11 2124.9,1321.15 2151.85,1319.05 2178.8,1315.59 2205.75,1313.72 2232.7,1312.6 2259.65,1310.98 2286.6,1306.11 2313.55,1302.63 2340.5,1300.53 2367.45,1296.83 2394.4,1294.07 2421.35,1286.22 2448.3,1282.35 2475.25,1277.85 2502.2,1272.68 2529.15,1266.12 2556.11,1257.77 2583.06,1247.73 2610.01,1244.31 2636.96,1237.47 2663.91,1228.77 2690.86,1218.77 2717.81,1209.44 2744.76,1195.84 2771.71,1183.06 2798.66,1159.18 2825.61,1135.8 2852.56,1108.81 2879.51,1064.69 2906.46,1022.47 2933.41,966.578 2960.36,887.817 2987.32,755.873 3014.27,534.894 3041.22,116.48 "/>
</svg>
