<?xml version="1.0" encoding="utf-8"?>
<svg xmlns="http://www.w3.org/2000/svg" xmlns:xlink="http://www.w3.org/1999/xlink" width="800" height="400" viewBox="0 0 3200 1600">
<defs>
  <clipPath id="clip620">
    <rect x="0" y="0" width="3200" height="1600"/>
  </clipPath>
</defs>
<path clip-path="url(#clip620)" d="M0 1600 L3200 1600 L3200 0 L0 0  Z" fill="#ffffff" fill-rule="evenodd" fill-opacity="1"/>
<defs>
  <clipPath id="clip621">
    <rect x="640" y="0" width="2241" height="1600"/>
  </clipPath>
</defs>
<path clip-path="url(#clip620)" d="M203.061 1412.2 L3121.26 1412.2 L3121.26 78.7402 L203.061 78.7402  Z" fill="#ffffff" fill-rule="evenodd" fill-opacity="1"/>
<defs>
  <clipPath id="clip622">
    <rect x="203" y="78" width="2919" height="1334"/>
  </clipPath>
</defs>
<polyline clip-path="url(#clip622)" style="stroke:#000000; stroke-linecap:round; stroke-linejoin:round; stroke-width:2; stroke-opacity:0.1; fill:none" points="396.885,1412.2 396.885,78.7402 "/>
<polyline clip-path="url(#clip622)" style="stroke:#000000; stroke-linecap:round; stroke-linejoin:round; stroke-width:2; stroke-opacity:0.1; fill:none" points="1258.94,1412.2 1258.94,78.7402 "/>
<polyline clip-path="url(#clip622)" style="stroke:#000000; stroke-linecap:round; stroke-linejoin:round; stroke-width:2; stroke-opacity:0.1; fill:none" points="2093.19,1412.2 2093.19,78.7402 "/>
<polyline clip-path="url(#clip622)" style="stroke:#000000; stroke-linecap:round; stroke-linejoin:round; stroke-width:2; stroke-opacity:0.1; fill:none" points="2955.24,1412.2 2955.24,78.7402 "/>
<polyline clip-path="url(#clip620)" style="stroke:#000000; stroke-linecap:round; stroke-linejoin:round; stroke-width:4; stroke-opacity:1; fill:none" points="203.061,1412.2 3121.26,1412.2 "/>
<polyline clip-path="url(#clip620)" style="stroke:#000000; stroke-linecap:round; stroke-linejoin:round; stroke-width:4; stroke-opacity:1; fill:none" points="396.885,1412.2 396.885,1393.31 "/>
<polyline clip-path="url(#clip620)" style="stroke:#000000; stroke-linecap:round; stroke-linejoin:round; stroke-width:4; stroke-opacity:1; fill:none" points="1258.94,1412.2 1258.94,1393.31 "/>
<polyline clip-path="url(#clip620)" style="stroke:#000000; stroke-linecap:round; stroke-linejoin:round; stroke-width:4; stroke-opacity:1; fill:none" points="2093.19,1412.2 2093.19,1393.31 "/>
<polyline clip-path="url(#clip620)" style="stroke:#000000; stroke-linecap:round; stroke-linejoin:round; stroke-width:4; stroke-opacity:1; fill:none" points="2955.24,1412.2 2955.24,1393.31 "/>
<path clip-path="url(#clip620)" d="M268.679 1477.07 L284.999 1477.07 L284.999 1481 L263.055 1481 L263.055 1477.07 Q265.717 1474.31 270.3 1469.68 Q274.906 1465.03 276.087 1463.69 Q278.332 1461.17 279.212 1459.43 Q280.115 1457.67 280.115 1455.98 Q280.115 1453.23 278.17 1451.49 Q276.249 1449.75 273.147 1449.75 Q270.948 1449.75 268.494 1450.52 Q266.064 1451.28 263.286 1452.83 L263.286 1448.11 Q266.11 1446.98 268.564 1446.4 Q271.017 1445.82 273.054 1445.82 Q278.425 1445.82 281.619 1448.5 Q284.814 1451.19 284.814 1455.68 Q284.814 1457.81 284.003 1459.73 Q283.216 1461.63 281.11 1464.22 Q280.531 1464.89 277.429 1468.11 Q274.328 1471.3 268.679 1477.07 Z" fill="#000000" fill-rule="nonzero" fill-opacity="1" /><path clip-path="url(#clip620)" d="M304.814 1449.52 Q301.202 1449.52 299.374 1453.09 Q297.568 1456.63 297.568 1463.76 Q297.568 1470.86 299.374 1474.43 Q301.202 1477.97 304.814 1477.97 Q308.448 1477.97 310.253 1474.43 Q312.082 1470.86 312.082 1463.76 Q312.082 1456.63 310.253 1453.09 Q308.448 1449.52 304.814 1449.52 M304.814 1445.82 Q310.624 1445.82 313.679 1450.43 Q316.758 1455.01 316.758 1463.76 Q316.758 1472.49 313.679 1477.09 Q310.624 1481.68 304.814 1481.68 Q299.003 1481.68 295.925 1477.09 Q292.869 1472.49 292.869 1463.76 Q292.869 1455.01 295.925 1450.43 Q299.003 1445.82 304.814 1445.82 Z" fill="#000000" fill-rule="nonzero" fill-opacity="1" /><path clip-path="url(#clip620)" d="M329.003 1477.07 L345.323 1477.07 L345.323 1481 L323.378 1481 L323.378 1477.07 Q326.04 1474.31 330.624 1469.68 Q335.23 1465.03 336.411 1463.69 Q338.656 1461.17 339.536 1459.43 Q340.438 1457.67 340.438 1455.98 Q340.438 1453.23 338.494 1451.49 Q336.573 1449.75 333.471 1449.75 Q331.272 1449.75 328.818 1450.52 Q326.388 1451.28 323.61 1452.83 L323.61 1448.11 Q326.434 1446.98 328.888 1446.4 Q331.341 1445.82 333.378 1445.82 Q338.749 1445.82 341.943 1448.5 Q345.137 1451.19 345.137 1455.68 Q345.137 1457.81 344.327 1459.73 Q343.54 1461.63 341.434 1464.22 Q340.855 1464.89 337.753 1468.11 Q334.651 1471.3 329.003 1477.07 Z" fill="#000000" fill-rule="nonzero" fill-opacity="1" /><path clip-path="url(#clip620)" d="M365.137 1449.52 Q361.526 1449.52 359.698 1453.09 Q357.892 1456.63 357.892 1463.76 Q357.892 1470.86 359.698 1474.43 Q361.526 1477.97 365.137 1477.97 Q368.772 1477.97 370.577 1474.43 Q372.406 1470.86 372.406 1463.76 Q372.406 1456.63 370.577 1453.09 Q368.772 1449.52 365.137 1449.52 M365.137 1445.82 Q370.947 1445.82 374.003 1450.43 Q377.082 1455.01 377.082 1463.76 Q377.082 1472.49 374.003 1477.09 Q370.947 1481.68 365.137 1481.68 Q359.327 1481.68 356.248 1477.09 Q353.193 1472.49 353.193 1463.76 Q353.193 1455.01 356.248 1450.43 Q359.327 1445.82 365.137 1445.82 Z" fill="#000000" fill-rule="nonzero" fill-opacity="1" /><path clip-path="url(#clip620)" d="M382.545 1466.12 L395.021 1466.12 L395.021 1469.92 L382.545 1469.92 L382.545 1466.12 Z" fill="#000000" fill-rule="nonzero" fill-opacity="1" /><path clip-path="url(#clip620)" d="M412.406 1449.52 Q408.794 1449.52 406.966 1453.09 Q405.16 1456.63 405.16 1463.76 Q405.16 1470.86 406.966 1474.43 Q408.794 1477.97 412.406 1477.97 Q416.04 1477.97 417.845 1474.43 Q419.674 1470.86 419.674 1463.76 Q419.674 1456.63 417.845 1453.09 Q416.04 1449.52 412.406 1449.52 M412.406 1445.82 Q418.216 1445.82 421.271 1450.43 Q424.35 1455.01 424.35 1463.76 Q424.35 1472.49 421.271 1477.09 Q418.216 1481.68 412.406 1481.68 Q406.595 1481.68 403.517 1477.09 Q400.461 1472.49 400.461 1463.76 Q400.461 1455.01 403.517 1450.43 Q406.595 1445.82 412.406 1445.82 Z" fill="#000000" fill-rule="nonzero" fill-opacity="1" /><path clip-path="url(#clip620)" d="M446.734 1462.37 Q450.091 1463.09 451.966 1465.36 Q453.864 1467.62 453.864 1470.96 Q453.864 1476.07 450.345 1478.87 Q446.827 1481.68 440.345 1481.68 Q438.169 1481.68 435.855 1481.24 Q433.563 1480.82 431.109 1479.96 L431.109 1475.45 Q433.054 1476.58 435.368 1477.16 Q437.683 1477.74 440.206 1477.74 Q444.604 1477.74 446.896 1476 Q449.211 1474.27 449.211 1470.96 Q449.211 1467.9 447.058 1466.19 Q444.929 1464.45 441.109 1464.45 L437.081 1464.45 L437.081 1460.61 L441.294 1460.61 Q444.743 1460.61 446.572 1459.24 Q448.401 1457.86 448.401 1455.26 Q448.401 1452.6 446.503 1451.19 Q444.628 1449.75 441.109 1449.75 Q439.188 1449.75 436.989 1450.17 Q434.79 1450.59 432.151 1451.47 L432.151 1447.3 Q434.813 1446.56 437.128 1446.19 Q439.466 1445.82 441.526 1445.82 Q446.85 1445.82 449.952 1448.25 Q453.054 1450.66 453.054 1454.78 Q453.054 1457.65 451.41 1459.64 Q449.766 1461.61 446.734 1462.37 Z" fill="#000000" fill-rule="nonzero" fill-opacity="1" /><path clip-path="url(#clip620)" d="M459.975 1466.12 L472.452 1466.12 L472.452 1469.92 L459.975 1469.92 L459.975 1466.12 Z" fill="#000000" fill-rule="nonzero" fill-opacity="1" /><path clip-path="url(#clip620)" d="M489.836 1449.52 Q486.225 1449.52 484.396 1453.09 Q482.59 1456.63 482.59 1463.76 Q482.59 1470.86 484.396 1474.43 Q486.225 1477.97 489.836 1477.97 Q493.47 1477.97 495.276 1474.43 Q497.104 1470.86 497.104 1463.76 Q497.104 1456.63 495.276 1453.09 Q493.47 1449.52 489.836 1449.52 M489.836 1445.82 Q495.646 1445.82 498.701 1450.43 Q501.78 1455.01 501.78 1463.76 Q501.78 1472.49 498.701 1477.09 Q495.646 1481.68 489.836 1481.68 Q484.026 1481.68 480.947 1477.09 Q477.891 1472.49 477.891 1463.76 Q477.891 1455.01 480.947 1450.43 Q484.026 1445.82 489.836 1445.82 Z" fill="#000000" fill-rule="nonzero" fill-opacity="1" /><path clip-path="url(#clip620)" d="M510.808 1477.07 L518.447 1477.07 L518.447 1450.7 L510.137 1452.37 L510.137 1448.11 L518.4 1446.44 L523.076 1446.44 L523.076 1477.07 L530.715 1477.07 L530.715 1481 L510.808 1481 L510.808 1477.07 Z" fill="#000000" fill-rule="nonzero" fill-opacity="1" /><path clip-path="url(#clip620)" d="M1130.74 1477.07 L1147.05 1477.07 L1147.05 1481 L1125.11 1481 L1125.11 1477.07 Q1127.77 1474.31 1132.36 1469.68 Q1136.96 1465.03 1138.14 1463.69 Q1140.39 1461.17 1141.27 1459.43 Q1142.17 1457.67 1142.17 1455.98 Q1142.17 1453.23 1140.23 1451.49 Q1138.3 1449.75 1135.2 1449.75 Q1133 1449.75 1130.55 1450.52 Q1128.12 1451.28 1125.34 1452.83 L1125.34 1448.11 Q1128.17 1446.98 1130.62 1446.4 Q1133.07 1445.82 1135.11 1445.82 Q1140.48 1445.82 1143.68 1448.5 Q1146.87 1451.19 1146.87 1455.68 Q1146.87 1457.81 1146.06 1459.73 Q1145.27 1461.63 1143.17 1464.22 Q1142.59 1464.89 1139.49 1468.11 Q1136.38 1471.3 1130.74 1477.07 Z" fill="#000000" fill-rule="nonzero" fill-opacity="1" /><path clip-path="url(#clip620)" d="M1166.87 1449.52 Q1163.26 1449.52 1161.43 1453.09 Q1159.62 1456.63 1159.62 1463.76 Q1159.62 1470.86 1161.43 1474.43 Q1163.26 1477.97 1166.87 1477.97 Q1170.5 1477.97 1172.31 1474.43 Q1174.14 1470.86 1174.14 1463.76 Q1174.14 1456.63 1172.31 1453.09 Q1170.5 1449.52 1166.87 1449.52 M1166.87 1445.82 Q1172.68 1445.82 1175.74 1450.43 Q1178.81 1455.01 1178.81 1463.76 Q1178.81 1472.49 1175.74 1477.09 Q1172.68 1481.68 1166.87 1481.68 Q1161.06 1481.68 1157.98 1477.09 Q1154.93 1472.49 1154.93 1463.76 Q1154.93 1455.01 1157.98 1450.43 Q1161.06 1445.82 1166.87 1445.82 Z" fill="#000000" fill-rule="nonzero" fill-opacity="1" /><path clip-path="url(#clip620)" d="M1191.06 1477.07 L1207.38 1477.07 L1207.38 1481 L1185.43 1481 L1185.43 1477.07 Q1188.1 1474.31 1192.68 1469.68 Q1197.29 1465.03 1198.47 1463.69 Q1200.71 1461.17 1201.59 1459.43 Q1202.49 1457.67 1202.49 1455.98 Q1202.49 1453.23 1200.55 1451.49 Q1198.63 1449.75 1195.53 1449.75 Q1193.33 1449.75 1190.87 1450.52 Q1188.44 1451.28 1185.67 1452.83 L1185.67 1448.11 Q1188.49 1446.98 1190.94 1446.4 Q1193.4 1445.82 1195.43 1445.82 Q1200.8 1445.82 1204 1448.5 Q1207.19 1451.19 1207.19 1455.68 Q1207.19 1457.81 1206.38 1459.73 Q1205.6 1461.63 1203.49 1464.22 Q1202.91 1464.89 1199.81 1468.11 Q1196.71 1471.3 1191.06 1477.07 Z" fill="#000000" fill-rule="nonzero" fill-opacity="1" /><path clip-path="url(#clip620)" d="M1227.19 1449.52 Q1223.58 1449.52 1221.75 1453.09 Q1219.95 1456.63 1219.95 1463.76 Q1219.95 1470.86 1221.75 1474.43 Q1223.58 1477.97 1227.19 1477.97 Q1230.83 1477.97 1232.63 1474.43 Q1234.46 1470.86 1234.46 1463.76 Q1234.46 1456.63 1232.63 1453.09 Q1230.83 1449.52 1227.19 1449.52 M1227.19 1445.82 Q1233 1445.82 1236.06 1450.43 Q1239.14 1455.01 1239.14 1463.76 Q1239.14 1472.49 1236.06 1477.09 Q1233 1481.68 1227.19 1481.68 Q1221.38 1481.68 1218.3 1477.09 Q1215.25 1472.49 1215.25 1463.76 Q1215.25 1455.01 1218.3 1450.43 Q1221.38 1445.82 1227.19 1445.82 Z" fill="#000000" fill-rule="nonzero" fill-opacity="1" /><path clip-path="url(#clip620)" d="M1244.6 1466.12 L1257.08 1466.12 L1257.08 1469.92 L1244.6 1469.92 L1244.6 1466.12 Z" fill="#000000" fill-rule="nonzero" fill-opacity="1" /><path clip-path="url(#clip620)" d="M1274.46 1449.52 Q1270.85 1449.52 1269.02 1453.09 Q1267.22 1456.63 1267.22 1463.76 Q1267.22 1470.86 1269.02 1474.43 Q1270.85 1477.97 1274.46 1477.97 Q1278.1 1477.97 1279.9 1474.43 Q1281.73 1470.86 1281.73 1463.76 Q1281.73 1456.63 1279.9 1453.09 Q1278.1 1449.52 1274.46 1449.52 M1274.46 1445.82 Q1280.27 1445.82 1283.33 1450.43 Q1286.41 1455.01 1286.41 1463.76 Q1286.41 1472.49 1283.33 1477.09 Q1280.27 1481.68 1274.46 1481.68 Q1268.65 1481.68 1265.57 1477.09 Q1262.52 1472.49 1262.52 1463.76 Q1262.52 1455.01 1265.57 1450.43 Q1268.65 1445.82 1274.46 1445.82 Z" fill="#000000" fill-rule="nonzero" fill-opacity="1" /><path clip-path="url(#clip620)" d="M1307.47 1450.52 L1295.67 1468.97 L1307.47 1468.97 L1307.47 1450.52 M1306.24 1446.44 L1312.12 1446.44 L1312.12 1468.97 L1317.05 1468.97 L1317.05 1472.86 L1312.12 1472.86 L1312.12 1481 L1307.47 1481 L1307.47 1472.86 L1291.87 1472.86 L1291.87 1468.34 L1306.24 1446.44 Z" fill="#000000" fill-rule="nonzero" fill-opacity="1" /><path clip-path="url(#clip620)" d="M1322.03 1466.12 L1334.51 1466.12 L1334.51 1469.92 L1322.03 1469.92 L1322.03 1466.12 Z" fill="#000000" fill-rule="nonzero" fill-opacity="1" /><path clip-path="url(#clip620)" d="M1351.89 1449.52 Q1348.28 1449.52 1346.45 1453.09 Q1344.65 1456.63 1344.65 1463.76 Q1344.65 1470.86 1346.45 1474.43 Q1348.28 1477.97 1351.89 1477.97 Q1355.53 1477.97 1357.33 1474.43 Q1359.16 1470.86 1359.16 1463.76 Q1359.16 1456.63 1357.33 1453.09 Q1355.53 1449.52 1351.89 1449.52 M1351.89 1445.82 Q1357.7 1445.82 1360.76 1450.43 Q1363.84 1455.01 1363.84 1463.76 Q1363.84 1472.49 1360.76 1477.09 Q1357.7 1481.68 1351.89 1481.68 Q1346.08 1481.68 1343 1477.09 Q1339.95 1472.49 1339.95 1463.76 Q1339.95 1455.01 1343 1450.43 Q1346.08 1445.82 1351.89 1445.82 Z" fill="#000000" fill-rule="nonzero" fill-opacity="1" /><path clip-path="url(#clip620)" d="M1372.86 1477.07 L1380.5 1477.07 L1380.5 1450.7 L1372.19 1452.37 L1372.19 1448.11 L1380.46 1446.44 L1385.13 1446.44 L1385.13 1477.07 L1392.77 1477.07 L1392.77 1481 L1372.86 1481 L1372.86 1477.07 Z" fill="#000000" fill-rule="nonzero" fill-opacity="1" /><path clip-path="url(#clip620)" d="M1964.98 1477.07 L1981.3 1477.07 L1981.3 1481 L1959.36 1481 L1959.36 1477.07 Q1962.02 1474.31 1966.6 1469.68 Q1971.21 1465.03 1972.39 1463.69 Q1974.64 1461.17 1975.52 1459.43 Q1976.42 1457.67 1976.42 1455.98 Q1976.42 1453.23 1974.47 1451.49 Q1972.55 1449.75 1969.45 1449.75 Q1967.25 1449.75 1964.8 1450.52 Q1962.37 1451.28 1959.59 1452.83 L1959.59 1448.11 Q1962.41 1446.98 1964.87 1446.4 Q1967.32 1445.82 1969.36 1445.82 Q1974.73 1445.82 1977.92 1448.5 Q1981.12 1451.19 1981.12 1455.68 Q1981.12 1457.81 1980.31 1459.73 Q1979.52 1461.63 1977.41 1464.22 Q1976.84 1464.89 1973.73 1468.11 Q1970.63 1471.3 1964.98 1477.07 Z" fill="#000000" fill-rule="nonzero" fill-opacity="1" /><path clip-path="url(#clip620)" d="M2001.12 1449.52 Q1997.51 1449.52 1995.68 1453.09 Q1993.87 1456.63 1993.87 1463.76 Q1993.87 1470.86 1995.68 1474.43 Q1997.51 1477.97 2001.12 1477.97 Q2004.75 1477.97 2006.56 1474.43 Q2008.39 1470.86 2008.39 1463.76 Q2008.39 1456.63 2006.56 1453.09 Q2004.75 1449.52 2001.12 1449.52 M2001.12 1445.82 Q2006.93 1445.82 2009.98 1450.43 Q2013.06 1455.01 2013.06 1463.76 Q2013.06 1472.49 2009.98 1477.09 Q2006.93 1481.68 2001.12 1481.68 Q1995.31 1481.68 1992.23 1477.09 Q1989.17 1472.49 1989.17 1463.76 Q1989.17 1455.01 1992.23 1450.43 Q1995.31 1445.82 2001.12 1445.82 Z" fill="#000000" fill-rule="nonzero" fill-opacity="1" /><path clip-path="url(#clip620)" d="M2025.31 1477.07 L2041.63 1477.07 L2041.63 1481 L2019.68 1481 L2019.68 1477.07 Q2022.34 1474.31 2026.93 1469.68 Q2031.53 1465.03 2032.71 1463.69 Q2034.96 1461.17 2035.84 1459.43 Q2036.74 1457.67 2036.74 1455.98 Q2036.74 1453.23 2034.8 1451.49 Q2032.88 1449.75 2029.77 1449.75 Q2027.58 1449.75 2025.12 1450.52 Q2022.69 1451.28 2019.91 1452.83 L2019.91 1448.11 Q2022.74 1446.98 2025.19 1446.4 Q2027.64 1445.82 2029.68 1445.82 Q2035.05 1445.82 2038.25 1448.5 Q2041.44 1451.19 2041.44 1455.68 Q2041.44 1457.81 2040.63 1459.73 Q2039.84 1461.63 2037.74 1464.22 Q2037.16 1464.89 2034.06 1468.11 Q2030.96 1471.3 2025.31 1477.07 Z" fill="#000000" fill-rule="nonzero" fill-opacity="1" /><path clip-path="url(#clip620)" d="M2061.44 1449.52 Q2057.83 1449.52 2056 1453.09 Q2054.2 1456.63 2054.2 1463.76 Q2054.2 1470.86 2056 1474.43 Q2057.83 1477.97 2061.44 1477.97 Q2065.08 1477.97 2066.88 1474.43 Q2068.71 1470.86 2068.71 1463.76 Q2068.71 1456.63 2066.88 1453.09 Q2065.08 1449.52 2061.44 1449.52 M2061.44 1445.82 Q2067.25 1445.82 2070.31 1450.43 Q2073.39 1455.01 2073.39 1463.76 Q2073.39 1472.49 2070.31 1477.09 Q2067.25 1481.68 2061.44 1481.68 Q2055.63 1481.68 2052.55 1477.09 Q2049.5 1472.49 2049.5 1463.76 Q2049.5 1455.01 2052.55 1450.43 Q2055.63 1445.82 2061.44 1445.82 Z" fill="#000000" fill-rule="nonzero" fill-opacity="1" /><path clip-path="url(#clip620)" d="M2078.85 1466.12 L2091.33 1466.12 L2091.33 1469.92 L2078.85 1469.92 L2078.85 1466.12 Z" fill="#000000" fill-rule="nonzero" fill-opacity="1" /><path clip-path="url(#clip620)" d="M2108.71 1449.52 Q2105.1 1449.52 2103.27 1453.09 Q2101.46 1456.63 2101.46 1463.76 Q2101.46 1470.86 2103.27 1474.43 Q2105.1 1477.97 2108.71 1477.97 Q2112.34 1477.97 2114.15 1474.43 Q2115.98 1470.86 2115.98 1463.76 Q2115.98 1456.63 2114.15 1453.09 Q2112.34 1449.52 2108.71 1449.52 M2108.71 1445.82 Q2114.52 1445.82 2117.57 1450.43 Q2120.65 1455.01 2120.65 1463.76 Q2120.65 1472.49 2117.57 1477.09 Q2114.52 1481.68 2108.71 1481.68 Q2102.9 1481.68 2099.82 1477.09 Q2096.76 1472.49 2096.76 1463.76 Q2096.76 1455.01 2099.82 1450.43 Q2102.9 1445.82 2108.71 1445.82 Z" fill="#000000" fill-rule="nonzero" fill-opacity="1" /><path clip-path="url(#clip620)" d="M2128.92 1446.44 L2147.27 1446.44 L2147.27 1450.38 L2133.2 1450.38 L2133.2 1458.85 Q2134.22 1458.5 2135.24 1458.34 Q2136.26 1458.16 2137.27 1458.16 Q2143.06 1458.16 2146.44 1461.33 Q2149.82 1464.5 2149.82 1469.92 Q2149.82 1475.49 2146.35 1478.6 Q2142.88 1481.68 2136.56 1481.68 Q2134.38 1481.68 2132.11 1481.3 Q2129.87 1480.93 2127.46 1480.19 L2127.46 1475.49 Q2129.54 1476.63 2131.76 1477.18 Q2133.99 1477.74 2136.46 1477.74 Q2140.47 1477.74 2142.81 1475.63 Q2145.14 1473.53 2145.14 1469.92 Q2145.14 1466.3 2142.81 1464.2 Q2140.47 1462.09 2136.46 1462.09 Q2134.59 1462.09 2132.71 1462.51 Q2130.86 1462.93 2128.92 1463.8 L2128.92 1446.44 Z" fill="#000000" fill-rule="nonzero" fill-opacity="1" /><path clip-path="url(#clip620)" d="M2156.28 1466.12 L2168.76 1466.12 L2168.76 1469.92 L2156.28 1469.92 L2156.28 1466.12 Z" fill="#000000" fill-rule="nonzero" fill-opacity="1" /><path clip-path="url(#clip620)" d="M2186.14 1449.52 Q2182.53 1449.52 2180.7 1453.09 Q2178.89 1456.63 2178.89 1463.76 Q2178.89 1470.86 2180.7 1474.43 Q2182.53 1477.97 2186.14 1477.97 Q2189.77 1477.97 2191.58 1474.43 Q2193.41 1470.86 2193.41 1463.76 Q2193.41 1456.63 2191.58 1453.09 Q2189.77 1449.52 2186.14 1449.52 M2186.14 1445.82 Q2191.95 1445.82 2195.01 1450.43 Q2198.08 1455.01 2198.08 1463.76 Q2198.08 1472.49 2195.01 1477.09 Q2191.95 1481.68 2186.14 1481.68 Q2180.33 1481.68 2177.25 1477.09 Q2174.2 1472.49 2174.2 1463.76 Q2174.2 1455.01 2177.25 1450.43 Q2180.33 1445.82 2186.14 1445.82 Z" fill="#000000" fill-rule="nonzero" fill-opacity="1" /><path clip-path="url(#clip620)" d="M2207.11 1477.07 L2214.75 1477.07 L2214.75 1450.7 L2206.44 1452.37 L2206.44 1448.11 L2214.7 1446.44 L2219.38 1446.44 L2219.38 1477.07 L2227.02 1477.07 L2227.02 1481 L2207.11 1481 L2207.11 1477.07 Z" fill="#000000" fill-rule="nonzero" fill-opacity="1" /><path clip-path="url(#clip620)" d="M2827.04 1477.07 L2843.36 1477.07 L2843.36 1481 L2821.41 1481 L2821.41 1477.07 Q2824.08 1474.31 2828.66 1469.68 Q2833.27 1465.03 2834.45 1463.69 Q2836.69 1461.17 2837.57 1459.43 Q2838.47 1457.67 2838.47 1455.98 Q2838.47 1453.23 2836.53 1451.49 Q2834.61 1449.75 2831.51 1449.75 Q2829.31 1449.75 2826.85 1450.52 Q2824.42 1451.28 2821.65 1452.83 L2821.65 1448.11 Q2824.47 1446.98 2826.92 1446.4 Q2829.38 1445.82 2831.41 1445.82 Q2836.78 1445.82 2839.98 1448.5 Q2843.17 1451.19 2843.17 1455.68 Q2843.17 1457.81 2842.36 1459.73 Q2841.58 1461.63 2839.47 1464.22 Q2838.89 1464.89 2835.79 1468.11 Q2832.69 1471.3 2827.04 1477.07 Z" fill="#000000" fill-rule="nonzero" fill-opacity="1" /><path clip-path="url(#clip620)" d="M2863.17 1449.52 Q2859.56 1449.52 2857.73 1453.09 Q2855.93 1456.63 2855.93 1463.76 Q2855.93 1470.86 2857.73 1474.43 Q2859.56 1477.97 2863.17 1477.97 Q2866.81 1477.97 2868.61 1474.43 Q2870.44 1470.86 2870.44 1463.76 Q2870.44 1456.63 2868.61 1453.09 Q2866.81 1449.52 2863.17 1449.52 M2863.17 1445.82 Q2868.98 1445.82 2872.04 1450.43 Q2875.12 1455.01 2875.12 1463.76 Q2875.12 1472.49 2872.04 1477.09 Q2868.98 1481.68 2863.17 1481.68 Q2857.36 1481.68 2854.28 1477.09 Q2851.23 1472.49 2851.23 1463.76 Q2851.23 1455.01 2854.28 1450.43 Q2857.36 1445.82 2863.17 1445.82 Z" fill="#000000" fill-rule="nonzero" fill-opacity="1" /><path clip-path="url(#clip620)" d="M2887.36 1477.07 L2903.68 1477.07 L2903.68 1481 L2881.74 1481 L2881.74 1477.07 Q2884.4 1474.31 2888.98 1469.68 Q2893.59 1465.03 2894.77 1463.69 Q2897.02 1461.17 2897.9 1459.43 Q2898.8 1457.67 2898.8 1455.98 Q2898.8 1453.23 2896.85 1451.49 Q2894.93 1449.75 2891.83 1449.75 Q2889.63 1449.75 2887.18 1450.52 Q2884.75 1451.28 2881.97 1452.83 L2881.97 1448.11 Q2884.79 1446.98 2887.25 1446.4 Q2889.7 1445.82 2891.74 1445.82 Q2897.11 1445.82 2900.3 1448.5 Q2903.5 1451.19 2903.5 1455.68 Q2903.5 1457.81 2902.69 1459.73 Q2901.9 1461.63 2899.79 1464.22 Q2899.21 1464.89 2896.11 1468.11 Q2893.01 1471.3 2887.36 1477.07 Z" fill="#000000" fill-rule="nonzero" fill-opacity="1" /><path clip-path="url(#clip620)" d="M2923.5 1449.52 Q2919.89 1449.52 2918.06 1453.09 Q2916.25 1456.63 2916.25 1463.76 Q2916.25 1470.86 2918.06 1474.43 Q2919.89 1477.97 2923.5 1477.97 Q2927.13 1477.97 2928.94 1474.43 Q2930.77 1470.86 2930.77 1463.76 Q2930.77 1456.63 2928.94 1453.09 Q2927.13 1449.52 2923.5 1449.52 M2923.5 1445.82 Q2929.31 1445.82 2932.36 1450.43 Q2935.44 1455.01 2935.44 1463.76 Q2935.44 1472.49 2932.36 1477.09 Q2929.31 1481.68 2923.5 1481.68 Q2917.69 1481.68 2914.61 1477.09 Q2911.55 1472.49 2911.55 1463.76 Q2911.55 1455.01 2914.61 1450.43 Q2917.69 1445.82 2923.5 1445.82 Z" fill="#000000" fill-rule="nonzero" fill-opacity="1" /><path clip-path="url(#clip620)" d="M2940.9 1466.12 L2953.38 1466.12 L2953.38 1469.92 L2940.9 1469.92 L2940.9 1466.12 Z" fill="#000000" fill-rule="nonzero" fill-opacity="1" /><path clip-path="url(#clip620)" d="M2970.77 1449.52 Q2967.15 1449.52 2965.33 1453.09 Q2963.52 1456.63 2963.52 1463.76 Q2963.52 1470.86 2965.33 1474.43 Q2967.15 1477.97 2970.77 1477.97 Q2974.4 1477.97 2976.21 1474.43 Q2978.03 1470.86 2978.03 1463.76 Q2978.03 1456.63 2976.21 1453.09 Q2974.4 1449.52 2970.77 1449.52 M2970.77 1445.82 Q2976.58 1445.82 2979.63 1450.43 Q2982.71 1455.01 2982.71 1463.76 Q2982.71 1472.49 2979.63 1477.09 Q2976.58 1481.68 2970.77 1481.68 Q2964.96 1481.68 2961.88 1477.09 Q2958.82 1472.49 2958.82 1463.76 Q2958.82 1455.01 2961.88 1450.43 Q2964.96 1445.82 2970.77 1445.82 Z" fill="#000000" fill-rule="nonzero" fill-opacity="1" /><path clip-path="url(#clip620)" d="M3001.51 1461.86 Q2998.36 1461.86 2996.51 1464.01 Q2994.68 1466.17 2994.68 1469.92 Q2994.68 1473.64 2996.51 1475.82 Q2998.36 1477.97 3001.51 1477.97 Q3004.65 1477.97 3006.48 1475.82 Q3008.33 1473.64 3008.33 1469.92 Q3008.33 1466.17 3006.48 1464.01 Q3004.65 1461.86 3001.51 1461.86 M3010.79 1447.21 L3010.79 1451.47 Q3009.03 1450.63 3007.22 1450.19 Q3005.44 1449.75 3003.68 1449.75 Q2999.05 1449.75 2996.6 1452.88 Q2994.17 1456 2993.82 1462.32 Q2995.19 1460.31 2997.25 1459.24 Q2999.31 1458.16 3001.78 1458.16 Q3006.99 1458.16 3010 1461.33 Q3013.03 1464.48 3013.03 1469.92 Q3013.03 1475.24 3009.89 1478.46 Q3006.74 1481.68 3001.51 1481.68 Q2995.51 1481.68 2992.34 1477.09 Q2989.17 1472.49 2989.17 1463.76 Q2989.17 1455.56 2993.06 1450.7 Q2996.95 1445.82 3003.5 1445.82 Q3005.26 1445.82 3007.04 1446.17 Q3008.84 1446.51 3010.79 1447.21 Z" fill="#000000" fill-rule="nonzero" fill-opacity="1" /><path clip-path="url(#clip620)" d="M3018.33 1466.12 L3030.81 1466.12 L3030.81 1469.92 L3018.33 1469.92 L3018.33 1466.12 Z" fill="#000000" fill-rule="nonzero" fill-opacity="1" /><path clip-path="url(#clip620)" d="M3048.2 1449.52 Q3044.58 1449.52 3042.76 1453.09 Q3040.95 1456.63 3040.95 1463.76 Q3040.95 1470.86 3042.76 1474.43 Q3044.58 1477.97 3048.2 1477.97 Q3051.83 1477.97 3053.64 1474.43 Q3055.46 1470.86 3055.46 1463.76 Q3055.46 1456.63 3053.64 1453.09 Q3051.83 1449.52 3048.2 1449.52 M3048.2 1445.82 Q3054.01 1445.82 3057.06 1450.43 Q3060.14 1455.01 3060.14 1463.76 Q3060.14 1472.49 3057.06 1477.09 Q3054.01 1481.68 3048.2 1481.68 Q3042.39 1481.68 3039.31 1477.09 Q3036.25 1472.49 3036.25 1463.76 Q3036.25 1455.01 3039.31 1450.43 Q3042.39 1445.82 3048.2 1445.82 Z" fill="#000000" fill-rule="nonzero" fill-opacity="1" /><path clip-path="url(#clip620)" d="M3069.17 1477.07 L3076.81 1477.07 L3076.81 1450.7 L3068.5 1452.37 L3068.5 1448.11 L3076.76 1446.44 L3081.44 1446.44 L3081.44 1477.07 L3089.07 1477.07 L3089.07 1481 L3069.17 1481 L3069.17 1477.07 Z" fill="#000000" fill-rule="nonzero" fill-opacity="1" /><path clip-path="url(#clip620)" d="M1595.62 1526.83 L1595.62 1563.78 L1603.39 1563.78 Q1613.22 1563.78 1617.78 1559.33 Q1622.36 1554.87 1622.36 1545.26 Q1622.36 1535.71 1617.78 1531.29 Q1613.22 1526.83 1603.39 1526.83 L1595.62 1526.83 M1589.19 1521.55 L1602.4 1521.55 Q1616.22 1521.55 1622.68 1527.31 Q1629.14 1533.04 1629.14 1545.26 Q1629.14 1557.55 1622.65 1563.31 Q1616.15 1569.07 1602.4 1569.07 L1589.19 1569.07 L1589.19 1521.55 Z" fill="#000000" fill-rule="nonzero" fill-opacity="1" /><path clip-path="url(#clip620)" d="M1655.33 1551.15 Q1648.24 1551.15 1645.5 1552.77 Q1642.76 1554.39 1642.76 1558.31 Q1642.76 1561.43 1644.8 1563.27 Q1646.87 1565.09 1650.4 1565.09 Q1655.27 1565.09 1658.2 1561.65 Q1661.16 1558.18 1661.16 1552.45 L1661.16 1551.15 L1655.33 1551.15 M1667.01 1548.73 L1667.01 1569.07 L1661.16 1569.07 L1661.16 1563.66 Q1659.15 1566.9 1656.16 1568.46 Q1653.17 1569.99 1648.84 1569.99 Q1643.37 1569.99 1640.12 1566.94 Q1636.9 1563.85 1636.9 1558.69 Q1636.9 1552.68 1640.92 1549.62 Q1644.96 1546.57 1652.95 1546.57 L1661.16 1546.57 L1661.16 1545.99 Q1661.16 1541.95 1658.48 1539.75 Q1655.84 1537.53 1651.04 1537.53 Q1647.98 1537.53 1645.08 1538.26 Q1642.19 1538.99 1639.51 1540.45 L1639.51 1535.04 Q1642.73 1533.8 1645.75 1533.2 Q1648.78 1532.56 1651.64 1532.56 Q1659.38 1532.56 1663.19 1536.57 Q1667.01 1540.58 1667.01 1548.73 Z" fill="#000000" fill-rule="nonzero" fill-opacity="1" /><path clip-path="url(#clip620)" d="M1684.87 1523.3 L1684.87 1533.42 L1696.93 1533.42 L1696.93 1537.97 L1684.87 1537.97 L1684.87 1557.32 Q1684.87 1561.68 1686.05 1562.92 Q1687.26 1564.17 1690.92 1564.17 L1696.93 1564.17 L1696.93 1569.07 L1690.92 1569.07 Q1684.14 1569.07 1681.56 1566.55 Q1678.98 1564.01 1678.98 1557.32 L1678.98 1537.97 L1674.69 1537.97 L1674.69 1533.42 L1678.98 1533.42 L1678.98 1523.3 L1684.87 1523.3 Z" fill="#000000" fill-rule="nonzero" fill-opacity="1" /><path clip-path="url(#clip620)" d="M1735.13 1549.78 L1735.13 1552.64 L1708.2 1552.64 Q1708.58 1558.69 1711.83 1561.87 Q1715.11 1565.03 1720.93 1565.03 Q1724.31 1565.03 1727.46 1564.2 Q1730.64 1563.37 1733.76 1561.72 L1733.76 1567.25 Q1730.61 1568.59 1727.3 1569.29 Q1723.99 1569.99 1720.58 1569.99 Q1712.05 1569.99 1707.05 1565.03 Q1702.09 1560.06 1702.09 1551.59 Q1702.09 1542.84 1706.8 1537.72 Q1711.54 1532.56 1719.56 1532.56 Q1726.76 1532.56 1730.93 1537.21 Q1735.13 1541.82 1735.13 1549.78 M1729.27 1548.06 Q1729.21 1543.25 1726.57 1540.39 Q1723.96 1537.53 1719.63 1537.53 Q1714.73 1537.53 1711.77 1540.29 Q1708.84 1543.06 1708.39 1548.09 L1729.27 1548.06 Z" fill="#000000" fill-rule="nonzero" fill-opacity="1" /><polyline clip-path="url(#clip622)" style="stroke:#000000; stroke-linecap:round; stroke-linejoin:round; stroke-width:2; stroke-opacity:0.1; fill:none" points="203.061,1380.12 3121.26,1380.12 "/>
<polyline clip-path="url(#clip622)" style="stroke:#000000; stroke-linecap:round; stroke-linejoin:round; stroke-width:2; stroke-opacity:0.1; fill:none" points="203.061,1108.54 3121.26,1108.54 "/>
<polyline clip-path="url(#clip622)" style="stroke:#000000; stroke-linecap:round; stroke-linejoin:round; stroke-width:2; stroke-opacity:0.1; fill:none" points="203.061,836.958 3121.26,836.958 "/>
<polyline clip-path="url(#clip622)" style="stroke:#000000; stroke-linecap:round; stroke-linejoin:round; stroke-width:2; stroke-opacity:0.1; fill:none" points="203.061,565.377 3121.26,565.377 "/>
<polyline clip-path="url(#clip622)" style="stroke:#000000; stroke-linecap:round; stroke-linejoin:round; stroke-width:2; stroke-opacity:0.1; fill:none" points="203.061,293.797 3121.26,293.797 "/>
<polyline clip-path="url(#clip620)" style="stroke:#000000; stroke-linecap:round; stroke-linejoin:round; stroke-width:4; stroke-opacity:1; fill:none" points="203.061,1412.2 203.061,78.7402 "/>
<polyline clip-path="url(#clip620)" style="stroke:#000000; stroke-linecap:round; stroke-linejoin:round; stroke-width:4; stroke-opacity:1; fill:none" points="203.061,1380.12 221.959,1380.12 "/>
<polyline clip-path="url(#clip620)" style="stroke:#000000; stroke-linecap:round; stroke-linejoin:round; stroke-width:4; stroke-opacity:1; fill:none" points="203.061,1108.54 221.959,1108.54 "/>
<polyline clip-path="url(#clip620)" style="stroke:#000000; stroke-linecap:round; stroke-linejoin:round; stroke-width:4; stroke-opacity:1; fill:none" points="203.061,836.958 221.959,836.958 "/>
<polyline clip-path="url(#clip620)" style="stroke:#000000; stroke-linecap:round; stroke-linejoin:round; stroke-width:4; stroke-opacity:1; fill:none" points="203.061,565.377 221.959,565.377 "/>
<polyline clip-path="url(#clip620)" style="stroke:#000000; stroke-linecap:round; stroke-linejoin:round; stroke-width:4; stroke-opacity:1; fill:none" points="203.061,293.797 221.959,293.797 "/>
<path clip-path="url(#clip620)" d="M143.117 1365.92 Q139.506 1365.92 137.677 1369.48 Q135.872 1373.02 135.872 1380.15 Q135.872 1387.26 137.677 1390.82 Q139.506 1394.37 143.117 1394.37 Q146.751 1394.37 148.557 1390.82 Q150.385 1387.26 150.385 1380.15 Q150.385 1373.02 148.557 1369.48 Q146.751 1365.92 143.117 1365.92 M143.117 1362.21 Q148.927 1362.21 151.983 1366.82 Q155.061 1371.4 155.061 1380.15 Q155.061 1388.88 151.983 1393.49 Q148.927 1398.07 143.117 1398.07 Q137.307 1398.07 134.228 1393.49 Q131.173 1388.88 131.173 1380.15 Q131.173 1371.4 134.228 1366.82 Q137.307 1362.21 143.117 1362.21 Z" fill="#000000" fill-rule="nonzero" fill-opacity="1" /><path clip-path="url(#clip620)" d="M138.742 1121.88 L155.061 1121.88 L155.061 1125.82 L133.117 1125.82 L133.117 1121.88 Q135.779 1119.13 140.362 1114.5 Q144.969 1109.85 146.149 1108.5 Q148.395 1105.98 149.274 1104.24 Q150.177 1102.48 150.177 1100.79 Q150.177 1098.04 148.233 1096.3 Q146.311 1094.57 143.209 1094.57 Q141.01 1094.57 138.557 1095.33 Q136.126 1096.1 133.348 1097.65 L133.348 1092.92 Q136.172 1091.79 138.626 1091.21 Q141.08 1090.63 143.117 1090.63 Q148.487 1090.63 151.682 1093.32 Q154.876 1096 154.876 1100.49 Q154.876 1102.62 154.066 1104.54 Q153.279 1106.44 151.172 1109.04 Q150.594 1109.71 147.492 1112.92 Q144.39 1116.12 138.742 1121.88 Z" fill="#000000" fill-rule="nonzero" fill-opacity="1" /><path clip-path="url(#clip620)" d="M145.478 823.752 L133.672 842.201 L145.478 842.201 L145.478 823.752 M144.251 819.678 L150.131 819.678 L150.131 842.201 L155.061 842.201 L155.061 846.089 L150.131 846.089 L150.131 854.238 L145.478 854.238 L145.478 846.089 L129.876 846.089 L129.876 841.576 L144.251 819.678 Z" fill="#000000" fill-rule="nonzero" fill-opacity="1" /><path clip-path="url(#clip620)" d="M143.534 563.514 Q140.385 563.514 138.534 565.667 Q136.705 567.819 136.705 571.569 Q136.705 575.296 138.534 577.472 Q140.385 579.625 143.534 579.625 Q146.682 579.625 148.51 577.472 Q150.362 575.296 150.362 571.569 Q150.362 567.819 148.51 565.667 Q146.682 563.514 143.534 563.514 M152.816 548.861 L152.816 553.12 Q151.057 552.287 149.251 551.847 Q147.469 551.407 145.709 551.407 Q141.08 551.407 138.626 554.532 Q136.196 557.657 135.848 563.977 Q137.214 561.963 139.274 560.898 Q141.334 559.81 143.811 559.81 Q149.02 559.81 152.029 562.981 Q155.061 566.13 155.061 571.569 Q155.061 576.893 151.913 580.111 Q148.765 583.329 143.534 583.329 Q137.538 583.329 134.367 578.745 Q131.196 574.139 131.196 565.412 Q131.196 557.218 135.085 552.356 Q138.973 547.472 145.524 547.472 Q147.284 547.472 149.066 547.819 Q150.871 548.167 152.816 548.861 Z" fill="#000000" fill-rule="nonzero" fill-opacity="1" /><path clip-path="url(#clip620)" d="M143.209 294.665 Q139.876 294.665 137.955 296.447 Q136.057 298.23 136.057 301.355 Q136.057 304.48 137.955 306.262 Q139.876 308.044 143.209 308.044 Q146.543 308.044 148.464 306.262 Q150.385 304.456 150.385 301.355 Q150.385 298.23 148.464 296.447 Q146.566 294.665 143.209 294.665 M138.534 292.674 Q135.524 291.933 133.835 289.873 Q132.168 287.813 132.168 284.85 Q132.168 280.707 135.108 278.299 Q138.071 275.892 143.209 275.892 Q148.371 275.892 151.311 278.299 Q154.251 280.707 154.251 284.85 Q154.251 287.813 152.561 289.873 Q150.895 291.933 147.909 292.674 Q151.288 293.461 153.163 295.753 Q155.061 298.044 155.061 301.355 Q155.061 306.378 151.983 309.063 Q148.927 311.748 143.209 311.748 Q137.492 311.748 134.413 309.063 Q131.358 306.378 131.358 301.355 Q131.358 298.044 133.256 295.753 Q135.154 293.461 138.534 292.674 M136.821 285.29 Q136.821 287.975 138.487 289.48 Q140.177 290.984 143.209 290.984 Q146.219 290.984 147.909 289.48 Q149.621 287.975 149.621 285.29 Q149.621 282.605 147.909 281.1 Q146.219 279.596 143.209 279.596 Q140.177 279.596 138.487 281.1 Q136.821 282.605 136.821 285.29 Z" fill="#000000" fill-rule="nonzero" fill-opacity="1" /><path clip-path="url(#clip620)" d="M45.3402 1073.54 Q46.0405 1071.48 48.3321 1069.53 Q50.6238 1067.56 54.6342 1065.59 L67.6202 1059.06 L67.6202 1065.97 L55.4299 1072.05 Q50.6556 1074.4 49.096 1076.63 Q47.5364 1078.83 47.5364 1082.65 L47.5364 1089.65 L67.6202 1089.65 L67.6202 1096.08 L20.1002 1096.08 L20.1002 1081.57 Q20.1002 1073.42 23.5059 1069.41 Q26.9115 1065.4 33.7865 1065.4 Q38.2743 1065.4 41.2344 1067.5 Q44.1944 1069.57 45.3402 1073.54 M25.3838 1089.65 L42.2529 1089.65 L42.2529 1081.57 Q42.2529 1076.92 40.1204 1074.56 Q37.956 1072.18 33.7865 1072.18 Q29.617 1072.18 27.5163 1074.56 Q25.3838 1076.92 25.3838 1081.57 L25.3838 1089.65 Z" fill="#000000" fill-rule="nonzero" fill-opacity="1" /><path clip-path="url(#clip620)" d="M48.3321 1023.48 L51.1967 1023.48 L51.1967 1050.41 Q57.2441 1050.02 60.427 1046.78 Q63.578 1043.5 63.578 1037.67 Q63.578 1034.3 62.7505 1031.15 Q61.9229 1027.97 60.2678 1024.85 L65.806 1024.85 Q67.1428 1028 67.843 1031.31 Q68.5432 1034.62 68.5432 1038.02 Q68.5432 1046.55 63.578 1051.55 Q58.6127 1056.52 50.1464 1056.52 Q41.3935 1056.52 36.2691 1051.81 Q31.1129 1047.06 31.1129 1039.04 Q31.1129 1031.85 35.7599 1027.68 Q40.375 1023.48 48.3321 1023.48 M46.6134 1029.33 Q41.8073 1029.4 38.9427 1032.04 Q36.0781 1034.65 36.0781 1038.98 Q36.0781 1043.88 38.8472 1046.84 Q41.6163 1049.77 46.6452 1050.21 L46.6134 1029.33 Z" fill="#000000" fill-rule="nonzero" fill-opacity="1" /><path clip-path="url(#clip620)" d="M62.273 1008.2 L81.1792 1008.2 L81.1792 1014.09 L31.9723 1014.09 L31.9723 1008.2 L37.3831 1008.2 Q34.2003 1006.35 32.6725 1003.55 Q31.1129 1000.72 31.1129 996.806 Q31.1129 990.313 36.2691 986.271 Q41.4253 982.197 49.8281 982.197 Q58.2308 982.197 63.387 986.271 Q68.5432 990.313 68.5432 996.806 Q68.5432 1000.72 67.0155 1003.55 Q65.4559 1006.35 62.273 1008.2 M49.8281 988.276 Q43.3669 988.276 39.7066 990.95 Q36.0145 993.591 36.0145 998.238 Q36.0145 1002.89 39.7066 1005.56 Q43.3669 1008.2 49.8281 1008.2 Q56.2893 1008.2 59.9814 1005.56 Q63.6417 1002.89 63.6417 998.238 Q63.6417 993.591 59.9814 990.95 Q56.2893 988.276 49.8281 988.276 Z" fill="#000000" fill-rule="nonzero" fill-opacity="1" /><path clip-path="url(#clip620)" d="M37.4468 951.832 Q36.8739 952.819 36.6192 953.997 Q36.3328 955.142 36.3328 956.543 Q36.3328 961.508 39.5793 964.182 Q42.794 966.824 48.8414 966.824 L67.6202 966.824 L67.6202 972.712 L31.9723 972.712 L31.9723 966.824 L37.5104 966.824 Q34.2639 964.977 32.7043 962.017 Q31.1129 959.057 31.1129 954.824 Q31.1129 954.219 31.2084 953.487 Q31.272 952.755 31.4312 951.864 L37.4468 951.832 Z" fill="#000000" fill-rule="nonzero" fill-opacity="1" /><path clip-path="url(#clip620)" d="M36.0781 933.308 Q36.0781 938.019 39.7703 940.756 Q43.4305 943.493 49.8281 943.493 Q56.2256 943.493 59.9177 940.788 Q63.578 938.051 63.578 933.308 Q63.578 928.629 59.8859 925.892 Q56.1938 923.155 49.8281 923.155 Q43.4942 923.155 39.8021 925.892 Q36.0781 928.629 36.0781 933.308 M31.1129 933.308 Q31.1129 925.669 36.0781 921.309 Q41.0434 916.948 49.8281 916.948 Q58.5809 916.948 63.578 921.309 Q68.5432 925.669 68.5432 933.308 Q68.5432 940.979 63.578 945.339 Q58.5809 949.668 49.8281 949.668 Q41.0434 949.668 36.0781 945.339 Q31.1129 940.979 31.1129 933.308 Z" fill="#000000" fill-rule="nonzero" fill-opacity="1" /><path clip-path="url(#clip620)" d="M37.3831 883.783 L18.095 883.783 L18.095 877.926 L67.6202 877.926 L67.6202 883.783 L62.273 883.783 Q65.4559 885.629 67.0155 888.462 Q68.5432 891.263 68.5432 895.209 Q68.5432 901.67 63.387 905.745 Q58.2308 909.787 49.8281 909.787 Q41.4253 909.787 36.2691 905.745 Q31.1129 901.67 31.1129 895.209 Q31.1129 891.263 32.6725 888.462 Q34.2003 885.629 37.3831 883.783 M49.8281 903.739 Q56.2893 903.739 59.9814 901.098 Q63.6417 898.424 63.6417 893.777 Q63.6417 889.13 59.9814 886.456 Q56.2893 883.783 49.8281 883.783 Q43.3669 883.783 39.7066 886.456 Q36.0145 889.13 36.0145 893.777 Q36.0145 898.424 39.7066 901.098 Q43.3669 903.739 49.8281 903.739 Z" fill="#000000" fill-rule="nonzero" fill-opacity="1" /><path clip-path="url(#clip620)" d="M53.552 866.468 L31.9723 866.468 L31.9723 860.612 L53.3292 860.612 Q58.3899 860.612 60.9362 858.638 Q63.4507 856.665 63.4507 852.718 Q63.4507 847.976 60.427 845.239 Q57.4033 842.469 52.1834 842.469 L31.9723 842.469 L31.9723 836.613 L67.6202 836.613 L67.6202 842.469 L62.1457 842.469 Q65.3922 844.602 66.9836 847.435 Q68.5432 850.236 68.5432 853.96 Q68.5432 860.102 64.7238 863.285 Q60.9044 866.468 53.552 866.468 M31.1129 851.732 L31.1129 851.732 Z" fill="#000000" fill-rule="nonzero" fill-opacity="1" /><path clip-path="url(#clip620)" d="M33.3409 798.896 L38.8154 798.896 Q37.4468 801.379 36.7784 803.893 Q36.0781 806.376 36.0781 808.922 Q36.0781 814.619 39.7066 817.77 Q43.3032 820.922 49.8281 820.922 Q56.3529 820.922 59.9814 817.77 Q63.578 814.619 63.578 808.922 Q63.578 806.376 62.9096 803.893 Q62.2094 801.379 60.8407 798.896 L66.2516 798.896 Q67.3974 801.347 67.9703 803.989 Q68.5432 806.599 68.5432 809.559 Q68.5432 817.611 63.4825 822.354 Q58.4218 827.096 49.8281 827.096 Q41.1071 827.096 36.11 822.322 Q31.1129 817.516 31.1129 809.177 Q31.1129 806.471 31.6858 803.893 Q32.2269 801.315 33.3409 798.896 Z" fill="#000000" fill-rule="nonzero" fill-opacity="1" /><path clip-path="url(#clip620)" d="M21.8508 782.918 L31.9723 782.918 L31.9723 770.855 L36.5237 770.855 L36.5237 782.918 L55.8755 782.918 Q60.236 782.918 61.4773 781.741 Q62.7186 780.531 62.7186 776.871 L62.7186 770.855 L67.6202 770.855 L67.6202 776.871 Q67.6202 783.65 65.1058 786.228 Q62.5595 788.807 55.8755 788.807 L36.5237 788.807 L36.5237 793.103 L31.9723 793.103 L31.9723 788.807 L21.8508 788.807 L21.8508 782.918 Z" fill="#000000" fill-rule="nonzero" fill-opacity="1" /><path clip-path="url(#clip620)" d="M31.9723 763.153 L31.9723 757.296 L67.6202 757.296 L67.6202 763.153 L31.9723 763.153 M18.095 763.153 L18.095 757.296 L25.5111 757.296 L25.5111 763.153 L18.095 763.153 Z" fill="#000000" fill-rule="nonzero" fill-opacity="1" /><path clip-path="url(#clip620)" d="M36.0781 731.229 Q36.0781 735.939 39.7703 738.677 Q43.4305 741.414 49.8281 741.414 Q56.2256 741.414 59.9177 738.708 Q63.578 735.971 63.578 731.229 Q63.578 726.55 59.8859 723.813 Q56.1938 721.075 49.8281 721.075 Q43.4942 721.075 39.8021 723.813 Q36.0781 726.55 36.0781 731.229 M31.1129 731.229 Q31.1129 723.59 36.0781 719.229 Q41.0434 714.869 49.8281 714.869 Q58.5809 714.869 63.578 719.229 Q68.5432 723.59 68.5432 731.229 Q68.5432 738.899 63.578 743.26 Q58.5809 747.589 49.8281 747.589 Q41.0434 747.589 36.0781 743.26 Q31.1129 738.899 31.1129 731.229 Z" fill="#000000" fill-rule="nonzero" fill-opacity="1" /><path clip-path="url(#clip620)" d="M46.1041 675.529 L67.6202 675.529 L67.6202 681.385 L46.2951 681.385 Q41.2344 681.385 38.7199 683.359 Q36.2055 685.332 36.2055 689.279 Q36.2055 694.021 39.2292 696.758 Q42.2529 699.496 47.4728 699.496 L67.6202 699.496 L67.6202 705.384 L31.9723 705.384 L31.9723 699.496 L37.5104 699.496 Q34.2957 697.395 32.7043 694.562 Q31.1129 691.698 31.1129 687.974 Q31.1129 681.831 34.9323 678.68 Q38.7199 675.529 46.1041 675.529 Z" fill="#000000" fill-rule="nonzero" fill-opacity="1" /><path clip-path="url(#clip620)" d="M46.1041 613.495 L67.6202 613.495 L67.6202 619.351 L46.2951 619.351 Q41.2344 619.351 38.7199 621.325 Q36.2055 623.298 36.2055 627.245 Q36.2055 631.987 39.2292 634.725 Q42.2529 637.462 47.4728 637.462 L67.6202 637.462 L67.6202 643.35 L31.9723 643.35 L31.9723 637.462 L37.5104 637.462 Q34.2957 635.361 32.7043 632.528 Q31.1129 629.664 31.1129 625.94 Q31.1129 619.797 34.9323 616.646 Q38.7199 613.495 46.1041 613.495 Z" fill="#000000" fill-rule="nonzero" fill-opacity="1" /><path clip-path="url(#clip620)" d="M53.552 602.419 L31.9723 602.419 L31.9723 596.562 L53.3292 596.562 Q58.3899 596.562 60.9362 594.589 Q63.4507 592.615 63.4507 588.669 Q63.4507 583.926 60.427 581.189 Q57.4033 578.42 52.1834 578.42 L31.9723 578.42 L31.9723 572.563 L67.6202 572.563 L67.6202 578.42 L62.1457 578.42 Q65.3922 580.552 66.9836 583.385 Q68.5432 586.186 68.5432 589.91 Q68.5432 596.053 64.7238 599.236 Q60.9044 602.419 53.552 602.419 M31.1129 587.682 L31.1129 587.682 Z" fill="#000000" fill-rule="nonzero" fill-opacity="1" /><path clip-path="url(#clip620)" d="M38.8154 532.746 Q34.8687 530.55 32.9908 527.494 Q31.1129 524.439 31.1129 520.301 Q31.1129 514.731 35.0278 511.707 Q38.9109 508.684 46.1041 508.684 L67.6202 508.684 L67.6202 514.572 L46.2951 514.572 Q41.1707 514.572 38.6881 516.386 Q36.2055 518.2 36.2055 521.924 Q36.2055 526.476 39.2292 529.118 Q42.2529 531.759 47.4728 531.759 L67.6202 531.759 L67.6202 537.648 L46.2951 537.648 Q41.1389 537.648 38.6881 539.462 Q36.2055 541.276 36.2055 545.064 Q36.2055 549.551 39.261 552.193 Q42.2847 554.835 47.4728 554.835 L67.6202 554.835 L67.6202 560.723 L31.9723 560.723 L31.9723 554.835 L37.5104 554.835 Q34.2321 552.83 32.6725 550.029 Q31.1129 547.228 31.1129 543.377 Q31.1129 539.494 33.0863 536.788 Q35.0596 534.051 38.8154 532.746 Z" fill="#000000" fill-rule="nonzero" fill-opacity="1" /><path clip-path="url(#clip620)" d="M49.8281 471.412 Q43.3669 471.412 39.7066 474.086 Q36.0145 476.728 36.0145 481.375 Q36.0145 486.022 39.7066 488.695 Q43.3669 491.337 49.8281 491.337 Q56.2893 491.337 59.9814 488.695 Q63.6417 486.022 63.6417 481.375 Q63.6417 476.728 59.9814 474.086 Q56.2893 471.412 49.8281 471.412 M37.3831 491.337 Q34.2003 489.491 32.6725 486.69 Q31.1129 483.857 31.1129 479.942 Q31.1129 473.449 36.2691 469.407 Q41.4253 465.333 49.8281 465.333 Q58.2308 465.333 63.387 469.407 Q68.5432 473.449 68.5432 479.942 Q68.5432 483.857 67.0155 486.69 Q65.4559 489.491 62.273 491.337 L67.6202 491.337 L67.6202 497.225 L18.095 497.225 L18.095 491.337 L37.3831 491.337 Z" fill="#000000" fill-rule="nonzero" fill-opacity="1" /><path clip-path="url(#clip620)" d="M48.3321 425.134 L51.1967 425.134 L51.1967 452.061 Q57.2441 451.679 60.427 448.432 Q63.578 445.154 63.578 439.329 Q63.578 435.955 62.7505 432.804 Q61.9229 429.622 60.2678 426.502 L65.806 426.502 Q67.1428 429.653 67.843 432.964 Q68.5432 436.274 68.5432 439.679 Q68.5432 448.209 63.578 453.206 Q58.6127 458.172 50.1464 458.172 Q41.3935 458.172 36.2691 453.461 Q31.1129 448.719 31.1129 440.698 Q31.1129 433.505 35.7599 429.335 Q40.375 425.134 48.3321 425.134 M46.6134 430.99 Q41.8073 431.054 38.9427 433.696 Q36.0781 436.306 36.0781 440.634 Q36.0781 445.536 38.8472 448.496 Q41.6163 451.424 46.6452 451.87 L46.6134 430.99 Z" fill="#000000" fill-rule="nonzero" fill-opacity="1" /><path clip-path="url(#clip620)" d="M37.4468 394.865 Q36.8739 395.851 36.6192 397.029 Q36.3328 398.175 36.3328 399.575 Q36.3328 404.541 39.5793 407.214 Q42.794 409.856 48.8414 409.856 L67.6202 409.856 L67.6202 415.744 L31.9723 415.744 L31.9723 409.856 L37.5104 409.856 Q34.2639 408.01 32.7043 405.05 Q31.1129 402.09 31.1129 397.857 Q31.1129 397.252 31.2084 396.52 Q31.272 395.788 31.4312 394.897 L37.4468 394.865 Z" fill="#000000" fill-rule="nonzero" fill-opacity="1" /><path clip-path="url(#clip622)" d="M285.652 1167.96 L313.46 1215.82 L341.268 1188.21 L369.077 1179.12 L396.885 1194.82 L424.693 1185.18 L452.501 1179.05 L480.31 1242.1 L508.118 1232.97 L535.926 1225.84 L563.734 1233.74 L591.543 1223.93 L619.351 1252.49 L647.159 1238.73 L674.967 1218.83 L702.776 1195.6 L730.584 1173.67 L758.392 1118.57 L786.2 1040.14 L814.009 911.029 L841.817 830.265 L869.625 929.429 L897.433 858.741 L925.242 984.192 L953.05 916.641 L980.858 852.699 L1008.67 936.963 L1036.47 927.476 L1064.28 927.513 L1092.09 1035.26 L1119.9 1136.57 L1147.71 1175.61 L1175.52 1209.6 L1203.32 1249.53 L1231.13 1234.51 L1258.94 1238.11 L1286.75 1233.03 L1314.56 1248.21 L1342.37 1256.7 L1370.17 1272.57 L1397.98 1297.9 L1425.79 1320.09 L1453.6 1326.44 L1481.41 1319.63 L1509.22 1330.83 L1537.02 1333.74 L1564.83 1340.03 L1592.64 1345.98 L1620.45 1343.59 L1648.26 1343.33 L1676.06 1340.97 L1703.87 1340.73 L1731.68 1342.19 L1759.49 1343.28 L1787.3 1349.39 L1815.11 1349.48 L1842.91 1346.27 L1870.72 1349.24 L1898.53 1346.12 L1926.34 1346.68 L1954.15 1349.58 L1981.96 1349.63 L2009.76 1348.54 L2037.57 1346.62 L2065.38 1347.76 L2093.19 1344.7 L2121 1350.16 L2148.81 1349.45 L2176.61 1353.07 L2204.42 1349.99 L2232.23 1351.69 L2260.04 1353.46 L2287.85 1349.55 L2315.65 1350.42 L2343.46 1350.74 L2371.27 1354.77 L2399.08 1354.61 L2426.89 1356.71 L2454.7 1357.36 L2482.5 1358.06 L2510.31 1360.93 L2538.12 1362.3 L2565.93 1364.66 L2593.74 1365.57 L2621.55 1366.11 L2649.35 1367.85 L2677.16 1367.8 L2704.97 1369.09 L2732.78 1369.06 L2760.59 1369.87 L2788.39 1370.56 L2816.2 1372.01 L2844.01 1372.6 L2871.82 1372.78 L2899.63 1372.85 L2927.44 1372.97 L2955.24 1373.3 L2983.05 1373.79 L3010.86 1374.05 L3038.67 1374.46 L3038.67 1213.81 L3010.86 1223.52 L2983.05 1227.61 L2955.24 1238.84 L2927.44 1244.13 L2899.63 1249.43 L2871.82 1254.1 L2844.01 1263.33 L2816.2 1262.98 L2788.39 1264.73 L2760.59 1266.77 L2732.78 1267.08 L2704.97 1264.7 L2677.16 1270.53 L2649.35 1272.1 L2621.55 1283.17 L2593.74 1285.52 L2565.93 1287.49 L2538.12 1286.19 L2510.31 1283.4 L2482.5 1282.78 L2454.7 1279.51 L2426.89 1284.27 L2399.08 1280.21 L2371.27 1275.02 L2343.46 1268.05 L2315.65 1277.73 L2287.85 1277.26 L2260.04 1279.63 L2232.23 1281.49 L2204.42 1285.2 L2176.61 1294.32 L2148.81 1289.51 L2121 1288.5 L2093.19 1280.78 L2065.38 1287.79 L2037.57 1294.05 L2009.76 1308.02 L1981.96 1305.57 L1954.15 1304.13 L1926.34 1299.15 L1898.53 1303.11 L1870.72 1305.93 L1842.91 1307.31 L1815.11 1316.09 L1787.3 1316.33 L1759.49 1311.1 L1731.68 1309.61 L1703.87 1307.27 L1676.06 1305.07 L1648.26 1312.19 L1620.45 1314.59 L1592.64 1318.68 L1564.83 1312.57 L1537.02 1302.07 L1509.22 1292.67 L1481.41 1283.36 L1453.6 1294.07 L1425.79 1278.01 L1397.98 1254.34 L1370.17 1224.33 L1342.37 1198.54 L1314.56 1192.42 L1286.75 1179.28 L1258.94 1178.96 L1231.13 1170.14 L1203.32 1189.35 L1175.52 1129.77 L1147.71 1090.55 L1119.9 1019.73 L1092.09 889.557 L1064.28 739.858 L1036.47 714.461 L1008.67 644.252 L980.858 460.127 L953.05 576.799 L925.242 599.729 L897.433 484.848 L869.625 480.545 L841.817 195.92 L814.009 116.48 L786.2 135.092 L758.392 544.932 L730.584 771.374 L702.776 730.996 L674.967 843.772 L647.159 835.251 L619.351 883.174 L591.543 706.376 L563.734 825.53 L535.926 560.899 L508.118 655.02 L480.31 500.387 L452.501 540.568 L424.693 720.379 L396.885 745.47 L369.077 664.664 L341.268 694.967 L313.46 482.598 L285.652 392.248  Z" fill="#009af9" fill-rule="evenodd" fill-opacity="0.5"/>
<polyline clip-path="url(#clip622)" style="stroke:#009af9; stroke-linecap:round; stroke-linejoin:round; stroke-width:4; stroke-opacity:1; fill:none" points="285.652,937.466 313.46,948.848 341.268,980.799 369.077,986.811 396.885,997.806 424.693,983.611 452.501,984.693 480.31,986.93 508.118,1006.3 535.926,1037.94 563.734,1066.88 591.543,1074.87 619.351,1090.82 647.159,1072.84 674.967,1050.79 702.776,1025.27 730.584,953.233 758.392,868.178 786.2,776.367 814.009,625.561 841.817,585.411 869.625,689.162 897.433,699.908 925.242,802.354 953.05,766.367 980.858,680.085 1008.67,807.703 1036.47,831.081 1064.28,849.918 1092.09,972.777 1119.9,1074.07 1147.71,1138.34 1175.52,1174.98 1203.32,1223.09 1231.13,1205.46 1258.94,1208.75 1286.75,1206.72 1314.56,1219.25 1342.37,1227.75 1370.17,1248.24 1397.98,1276.59 1425.79,1300.58 1453.6,1312.03 1481.41,1302.66 1509.22,1314.58 1537.02,1320.48 1564.83,1327.35 1592.64,1333.52 1620.45,1330.5 1648.26,1329.74 1676.06,1323.27 1703.87,1324.82 1731.68,1326.91 1759.49,1330.64 1787.3,1335.88 1815.11,1334.23 1842.91,1332.22 1870.72,1329.78 1898.53,1327.32 1926.34,1327.04 1954.15,1329.14 1981.96,1330.36 2009.76,1329.92 2037.57,1325.76 2065.38,1322.21 2093.19,1318.95 2121,1324.98 2148.81,1326.39 2176.61,1327.73 2204.42,1324.59 2232.23,1323.37 2260.04,1323.38 2287.85,1322.51 2315.65,1322.13 2343.46,1321.35 2371.27,1325.8 2399.08,1328.45 2426.89,1328.73 2454.7,1328.27 2482.5,1329.45 2510.31,1332.03 2538.12,1333.5 2565.93,1334.33 2593.74,1334.97 2621.55,1334.71 2649.35,1334.62 2677.16,1334.1 2704.97,1334.96 2732.78,1336.19 2760.59,1336.86 2788.39,1336.68 2816.2,1336.79 2844.01,1336.95 2871.82,1336.4 2899.63,1335.45 2927.44,1335.06 2955.24,1334.23 2983.05,1333.47 3010.86,1332.48 3038.67,1331.59 "/>
</svg>
