<?xml version="1.0" encoding="utf-8"?>
<svg xmlns="http://www.w3.org/2000/svg" xmlns:xlink="http://www.w3.org/1999/xlink" width="800" height="300" viewBox="0 0 3200 1200">
<defs>
  <clipPath id="clip600">
    <rect x="0" y="0" width="3200" height="1200"/>
  </clipPath>
</defs>
<path clip-path="url(#clip600)" d="M0 1200 L3200 1200 L3200 0 L0 0  Z" fill="#ffffff" fill-rule="evenodd" fill-opacity="1"/>
<defs>
  <clipPath id="clip601">
    <rect x="640" y="0" width="2241" height="1200"/>
  </clipPath>
</defs>
<path clip-path="url(#clip600)" d="M194.151 1031.59 L3121.26 1031.59 L3121.26 78.7402 L194.151 78.7402  Z" fill="#ffffff" fill-rule="evenodd" fill-opacity="1"/>
<defs>
  <clipPath id="clip602">
    <rect x="194" y="78" width="2928" height="954"/>
  </clipPath>
</defs>
<polyline clip-path="url(#clip602)" style="stroke:#000000; stroke-linecap:round; stroke-linejoin:round; stroke-width:2; stroke-opacity:0.1; fill:none" points="249.101,1031.59 249.101,78.7402 "/>
<polyline clip-path="url(#clip602)" style="stroke:#000000; stroke-linecap:round; stroke-linejoin:round; stroke-width:2; stroke-opacity:0.1; fill:none" points="946.43,1031.59 946.43,78.7402 "/>
<polyline clip-path="url(#clip602)" style="stroke:#000000; stroke-linecap:round; stroke-linejoin:round; stroke-width:2; stroke-opacity:0.1; fill:none" points="1643.76,1031.59 1643.76,78.7402 "/>
<polyline clip-path="url(#clip602)" style="stroke:#000000; stroke-linecap:round; stroke-linejoin:round; stroke-width:2; stroke-opacity:0.1; fill:none" points="2341.09,1031.59 2341.09,78.7402 "/>
<polyline clip-path="url(#clip602)" style="stroke:#000000; stroke-linecap:round; stroke-linejoin:round; stroke-width:2; stroke-opacity:0.1; fill:none" points="3038.42,1031.59 3038.42,78.7402 "/>
<polyline clip-path="url(#clip600)" style="stroke:#000000; stroke-linecap:round; stroke-linejoin:round; stroke-width:4; stroke-opacity:1; fill:none" points="194.151,1031.59 3121.26,1031.59 "/>
<polyline clip-path="url(#clip600)" style="stroke:#000000; stroke-linecap:round; stroke-linejoin:round; stroke-width:4; stroke-opacity:1; fill:none" points="249.101,1031.59 249.101,1012.7 "/>
<polyline clip-path="url(#clip600)" style="stroke:#000000; stroke-linecap:round; stroke-linejoin:round; stroke-width:4; stroke-opacity:1; fill:none" points="946.43,1031.59 946.43,1012.7 "/>
<polyline clip-path="url(#clip600)" style="stroke:#000000; stroke-linecap:round; stroke-linejoin:round; stroke-width:4; stroke-opacity:1; fill:none" points="1643.76,1031.59 1643.76,1012.7 "/>
<polyline clip-path="url(#clip600)" style="stroke:#000000; stroke-linecap:round; stroke-linejoin:round; stroke-width:4; stroke-opacity:1; fill:none" points="2341.09,1031.59 2341.09,1012.7 "/>
<polyline clip-path="url(#clip600)" style="stroke:#000000; stroke-linecap:round; stroke-linejoin:round; stroke-width:4; stroke-opacity:1; fill:none" points="3038.42,1031.59 3038.42,1012.7 "/>
<path clip-path="url(#clip600)" d="M249.101 1068.91 Q245.49 1068.91 243.661 1072.48 Q241.855 1076.02 241.855 1083.15 Q241.855 1090.25 243.661 1093.82 Q245.49 1097.36 249.101 1097.36 Q252.735 1097.36 254.541 1093.82 Q256.369 1090.25 256.369 1083.15 Q256.369 1076.02 254.541 1072.48 Q252.735 1068.91 249.101 1068.91 M249.101 1065.21 Q254.911 1065.21 257.966 1069.82 Q261.045 1074.4 261.045 1083.15 Q261.045 1091.88 257.966 1096.48 Q254.911 1101.07 249.101 1101.07 Q243.291 1101.07 240.212 1096.48 Q237.156 1091.88 237.156 1083.15 Q237.156 1074.4 240.212 1069.82 Q243.291 1065.21 249.101 1065.21 Z" fill="#000000" fill-rule="nonzero" fill-opacity="1" /><path clip-path="url(#clip600)" d="M925.701 1096.46 L942.02 1096.46 L942.02 1100.39 L920.076 1100.39 L920.076 1096.46 Q922.738 1093.7 927.321 1089.07 Q931.928 1084.42 933.108 1083.08 Q935.354 1080.56 936.233 1078.82 Q937.136 1077.06 937.136 1075.37 Q937.136 1072.62 935.192 1070.88 Q933.27 1069.14 930.168 1069.14 Q927.969 1069.14 925.516 1069.91 Q923.085 1070.67 920.307 1072.22 L920.307 1067.5 Q923.131 1066.37 925.585 1065.79 Q928.039 1065.21 930.076 1065.21 Q935.446 1065.21 938.641 1067.89 Q941.835 1070.58 941.835 1075.07 Q941.835 1077.2 941.025 1079.12 Q940.238 1081.02 938.131 1083.61 Q937.553 1084.28 934.451 1087.5 Q931.349 1090.69 925.701 1096.46 Z" fill="#000000" fill-rule="nonzero" fill-opacity="1" /><path clip-path="url(#clip600)" d="M951.881 1065.83 L970.238 1065.83 L970.238 1069.77 L956.164 1069.77 L956.164 1078.24 Q957.182 1077.89 958.201 1077.73 Q959.219 1077.55 960.238 1077.55 Q966.025 1077.55 969.404 1080.72 Q972.784 1083.89 972.784 1089.31 Q972.784 1094.88 969.312 1097.99 Q965.84 1101.07 959.52 1101.07 Q957.344 1101.07 955.076 1100.69 Q952.83 1100.32 950.423 1099.58 L950.423 1094.88 Q952.506 1096.02 954.728 1096.57 Q956.951 1097.13 959.428 1097.13 Q963.432 1097.13 965.77 1095.02 Q968.108 1092.92 968.108 1089.31 Q968.108 1085.69 965.77 1083.59 Q963.432 1081.48 959.428 1081.48 Q957.553 1081.48 955.678 1081.9 Q953.826 1082.32 951.881 1083.19 L951.881 1065.83 Z" fill="#000000" fill-rule="nonzero" fill-opacity="1" /><path clip-path="url(#clip600)" d="M1618.46 1065.83 L1636.81 1065.83 L1636.81 1069.77 L1622.74 1069.77 L1622.74 1078.24 Q1623.76 1077.89 1624.78 1077.73 Q1625.8 1077.55 1626.81 1077.55 Q1632.6 1077.55 1635.98 1080.72 Q1639.36 1083.89 1639.36 1089.31 Q1639.36 1094.88 1635.89 1097.99 Q1632.42 1101.07 1626.1 1101.07 Q1623.92 1101.07 1621.65 1100.69 Q1619.41 1100.32 1617 1099.58 L1617 1094.88 Q1619.08 1096.02 1621.31 1096.57 Q1623.53 1097.13 1626 1097.13 Q1630.01 1097.13 1632.35 1095.02 Q1634.68 1092.92 1634.68 1089.31 Q1634.68 1085.69 1632.35 1083.59 Q1630.01 1081.48 1626 1081.48 Q1624.13 1081.48 1622.25 1081.9 Q1620.4 1082.32 1618.46 1083.19 L1618.46 1065.83 Z" fill="#000000" fill-rule="nonzero" fill-opacity="1" /><path clip-path="url(#clip600)" d="M1658.57 1068.91 Q1654.96 1068.91 1653.13 1072.48 Q1651.33 1076.02 1651.33 1083.15 Q1651.33 1090.25 1653.13 1093.82 Q1654.96 1097.36 1658.57 1097.36 Q1662.21 1097.36 1664.01 1093.82 Q1665.84 1090.25 1665.84 1083.15 Q1665.84 1076.02 1664.01 1072.48 Q1662.21 1068.91 1658.57 1068.91 M1658.57 1065.21 Q1664.38 1065.21 1667.44 1069.82 Q1670.52 1074.4 1670.52 1083.15 Q1670.52 1091.88 1667.44 1096.48 Q1664.38 1101.07 1658.57 1101.07 Q1652.76 1101.07 1649.68 1096.48 Q1646.63 1091.88 1646.63 1083.15 Q1646.63 1074.4 1649.68 1069.82 Q1652.76 1065.21 1658.57 1065.21 Z" fill="#000000" fill-rule="nonzero" fill-opacity="1" /><path clip-path="url(#clip600)" d="M2314.94 1065.83 L2337.16 1065.83 L2337.16 1067.82 L2324.62 1100.39 L2319.73 1100.39 L2331.54 1069.77 L2314.94 1069.77 L2314.94 1065.83 Z" fill="#000000" fill-rule="nonzero" fill-opacity="1" /><path clip-path="url(#clip600)" d="M2346.33 1065.83 L2364.69 1065.83 L2364.69 1069.77 L2350.61 1069.77 L2350.61 1078.24 Q2351.63 1077.89 2352.65 1077.73 Q2353.67 1077.55 2354.69 1077.55 Q2360.47 1077.55 2363.85 1080.72 Q2367.23 1083.89 2367.23 1089.31 Q2367.23 1094.88 2363.76 1097.99 Q2360.29 1101.07 2353.97 1101.07 Q2351.79 1101.07 2349.53 1100.69 Q2347.28 1100.32 2344.87 1099.58 L2344.87 1094.88 Q2346.96 1096.02 2349.18 1096.57 Q2351.4 1097.13 2353.88 1097.13 Q2357.88 1097.13 2360.22 1095.02 Q2362.56 1092.92 2362.56 1089.31 Q2362.56 1085.69 2360.22 1083.59 Q2357.88 1081.48 2353.88 1081.48 Q2352 1081.48 2350.13 1081.9 Q2348.28 1082.32 2346.33 1083.19 L2346.33 1065.83 Z" fill="#000000" fill-rule="nonzero" fill-opacity="1" /><path clip-path="url(#clip600)" d="M2998.02 1096.46 L3005.66 1096.46 L3005.66 1070.09 L2997.35 1071.76 L2997.35 1067.5 L3005.62 1065.83 L3010.29 1065.83 L3010.29 1096.46 L3017.93 1096.46 L3017.93 1100.39 L2998.02 1100.39 L2998.02 1096.46 Z" fill="#000000" fill-rule="nonzero" fill-opacity="1" /><path clip-path="url(#clip600)" d="M3037.38 1068.91 Q3033.76 1068.91 3031.94 1072.48 Q3030.13 1076.02 3030.13 1083.15 Q3030.13 1090.25 3031.94 1093.82 Q3033.76 1097.36 3037.38 1097.36 Q3041.01 1097.36 3042.82 1093.82 Q3044.64 1090.25 3044.64 1083.15 Q3044.64 1076.02 3042.82 1072.48 Q3041.01 1068.91 3037.38 1068.91 M3037.38 1065.21 Q3043.19 1065.21 3046.24 1069.82 Q3049.32 1074.4 3049.32 1083.15 Q3049.32 1091.88 3046.24 1096.48 Q3043.19 1101.07 3037.38 1101.07 Q3031.57 1101.07 3028.49 1096.48 Q3025.43 1091.88 3025.43 1083.15 Q3025.43 1074.4 3028.49 1069.82 Q3031.57 1065.21 3037.38 1065.21 Z" fill="#000000" fill-rule="nonzero" fill-opacity="1" /><path clip-path="url(#clip600)" d="M3067.54 1068.91 Q3063.93 1068.91 3062.1 1072.48 Q3060.29 1076.02 3060.29 1083.15 Q3060.29 1090.25 3062.1 1093.82 Q3063.93 1097.36 3067.54 1097.36 Q3071.17 1097.36 3072.98 1093.82 Q3074.81 1090.25 3074.81 1083.15 Q3074.81 1076.02 3072.98 1072.48 Q3071.17 1068.91 3067.54 1068.91 M3067.54 1065.21 Q3073.35 1065.21 3076.4 1069.82 Q3079.48 1074.4 3079.48 1083.15 Q3079.48 1091.88 3076.4 1096.48 Q3073.35 1101.07 3067.54 1101.07 Q3061.73 1101.07 3058.65 1096.48 Q3055.59 1091.88 3055.59 1083.15 Q3055.59 1074.4 3058.65 1069.82 Q3061.73 1065.21 3067.54 1065.21 Z" fill="#000000" fill-rule="nonzero" fill-opacity="1" /><path clip-path="url(#clip600)" d="M1591.17 1146.22 L1591.17 1183.17 L1598.93 1183.17 Q1608.77 1183.17 1613.32 1178.72 Q1617.9 1174.26 1617.9 1164.65 Q1617.9 1155.1 1613.32 1150.68 Q1608.77 1146.22 1598.93 1146.22 L1591.17 1146.22 M1584.74 1140.94 L1597.95 1140.94 Q1611.76 1140.94 1618.22 1146.7 Q1624.68 1152.43 1624.68 1164.65 Q1624.68 1176.94 1618.19 1182.7 Q1611.7 1188.46 1597.95 1188.46 L1584.74 1188.46 L1584.74 1140.94 Z" fill="#000000" fill-rule="nonzero" fill-opacity="1" /><path clip-path="url(#clip600)" d="M1650.88 1170.54 Q1643.78 1170.54 1641.04 1172.16 Q1638.31 1173.78 1638.31 1177.7 Q1638.31 1180.82 1640.34 1182.66 Q1642.41 1184.48 1645.94 1184.48 Q1650.81 1184.48 1653.74 1181.04 Q1656.7 1177.57 1656.7 1171.84 L1656.7 1170.54 L1650.88 1170.54 M1662.56 1168.12 L1662.56 1188.46 L1656.7 1188.46 L1656.7 1183.05 Q1654.7 1186.29 1651.71 1187.85 Q1648.71 1189.38 1644.39 1189.38 Q1638.91 1189.38 1635.66 1186.33 Q1632.45 1183.24 1632.45 1178.08 Q1632.45 1172.07 1636.46 1169.01 Q1640.5 1165.96 1648.49 1165.96 L1656.7 1165.96 L1656.7 1165.38 Q1656.7 1161.34 1654.03 1159.14 Q1651.39 1156.92 1646.58 1156.92 Q1643.53 1156.92 1640.63 1157.65 Q1637.73 1158.38 1635.06 1159.84 L1635.06 1154.43 Q1638.27 1153.19 1641.3 1152.59 Q1644.32 1151.95 1647.19 1151.95 Q1654.92 1151.95 1658.74 1155.96 Q1662.56 1159.97 1662.56 1168.12 Z" fill="#000000" fill-rule="nonzero" fill-opacity="1" /><path clip-path="url(#clip600)" d="M1680.42 1142.69 L1680.42 1152.81 L1692.48 1152.81 L1692.48 1157.36 L1680.42 1157.36 L1680.42 1176.71 Q1680.42 1181.07 1681.59 1182.31 Q1682.8 1183.56 1686.46 1183.56 L1692.48 1183.56 L1692.48 1188.46 L1686.46 1188.46 Q1679.68 1188.46 1677.11 1185.94 Q1674.53 1183.4 1674.53 1176.71 L1674.53 1157.36 L1670.23 1157.36 L1670.23 1152.81 L1674.53 1152.81 L1674.53 1142.69 L1680.42 1142.69 Z" fill="#000000" fill-rule="nonzero" fill-opacity="1" /><path clip-path="url(#clip600)" d="M1730.67 1169.17 L1730.67 1172.03 L1703.75 1172.03 Q1704.13 1178.08 1707.37 1181.26 Q1710.65 1184.42 1716.48 1184.42 Q1719.85 1184.42 1723 1183.59 Q1726.18 1182.76 1729.3 1181.11 L1729.3 1186.64 Q1726.15 1187.98 1722.84 1188.68 Q1719.53 1189.38 1716.13 1189.38 Q1707.6 1189.38 1702.6 1184.42 Q1697.63 1179.45 1697.63 1170.98 Q1697.63 1162.23 1702.35 1157.11 Q1707.09 1151.95 1715.11 1151.95 Q1722.3 1151.95 1726.47 1156.6 Q1730.67 1161.21 1730.67 1169.17 M1724.82 1167.45 Q1724.75 1162.64 1722.11 1159.78 Q1719.5 1156.92 1715.17 1156.92 Q1710.27 1156.92 1707.31 1159.68 Q1704.38 1162.45 1703.94 1167.48 L1724.82 1167.45 Z" fill="#000000" fill-rule="nonzero" fill-opacity="1" /><polyline clip-path="url(#clip602)" style="stroke:#000000; stroke-linecap:round; stroke-linejoin:round; stroke-width:2; stroke-opacity:0.1; fill:none" points="194.151,1013.87 3121.26,1013.87 "/>
<polyline clip-path="url(#clip602)" style="stroke:#000000; stroke-linecap:round; stroke-linejoin:round; stroke-width:2; stroke-opacity:0.1; fill:none" points="194.151,756.496 3121.26,756.496 "/>
<polyline clip-path="url(#clip602)" style="stroke:#000000; stroke-linecap:round; stroke-linejoin:round; stroke-width:2; stroke-opacity:0.1; fill:none" points="194.151,499.127 3121.26,499.127 "/>
<polyline clip-path="url(#clip602)" style="stroke:#000000; stroke-linecap:round; stroke-linejoin:round; stroke-width:2; stroke-opacity:0.1; fill:none" points="194.151,241.757 3121.26,241.757 "/>
<polyline clip-path="url(#clip600)" style="stroke:#000000; stroke-linecap:round; stroke-linejoin:round; stroke-width:4; stroke-opacity:1; fill:none" points="194.151,1031.59 194.151,78.7402 "/>
<polyline clip-path="url(#clip600)" style="stroke:#000000; stroke-linecap:round; stroke-linejoin:round; stroke-width:4; stroke-opacity:1; fill:none" points="194.151,1013.87 213.049,1013.87 "/>
<polyline clip-path="url(#clip600)" style="stroke:#000000; stroke-linecap:round; stroke-linejoin:round; stroke-width:4; stroke-opacity:1; fill:none" points="194.151,756.496 213.049,756.496 "/>
<polyline clip-path="url(#clip600)" style="stroke:#000000; stroke-linecap:round; stroke-linejoin:round; stroke-width:4; stroke-opacity:1; fill:none" points="194.151,499.127 213.049,499.127 "/>
<polyline clip-path="url(#clip600)" style="stroke:#000000; stroke-linecap:round; stroke-linejoin:round; stroke-width:4; stroke-opacity:1; fill:none" points="194.151,241.757 213.049,241.757 "/>
<path clip-path="url(#clip600)" d="M134.207 999.664 Q130.596 999.664 128.767 1003.23 Q126.962 1006.77 126.962 1013.9 Q126.962 1021.01 128.767 1024.57 Q130.596 1028.11 134.207 1028.11 Q137.841 1028.11 139.647 1024.57 Q141.475 1021.01 141.475 1013.9 Q141.475 1006.77 139.647 1003.23 Q137.841 999.664 134.207 999.664 M134.207 995.961 Q140.017 995.961 143.073 1000.57 Q146.151 1005.15 146.151 1013.9 Q146.151 1022.63 143.073 1027.23 Q140.017 1031.82 134.207 1031.82 Q128.397 1031.82 125.318 1027.23 Q122.263 1022.63 122.263 1013.9 Q122.263 1005.15 125.318 1000.57 Q128.397 995.961 134.207 995.961 Z" fill="#000000" fill-rule="nonzero" fill-opacity="1" /><path clip-path="url(#clip600)" d="M129.832 769.841 L146.151 769.841 L146.151 773.776 L124.207 773.776 L124.207 769.841 Q126.869 767.087 131.452 762.457 Q136.059 757.804 137.239 756.462 Q139.485 753.938 140.364 752.202 Q141.267 750.443 141.267 748.753 Q141.267 745.999 139.323 744.263 Q137.401 742.526 134.299 742.526 Q132.1 742.526 129.647 743.29 Q127.216 744.054 124.438 745.605 L124.438 740.883 Q127.262 739.749 129.716 739.17 Q132.17 738.591 134.207 738.591 Q139.577 738.591 142.772 741.276 Q145.966 743.962 145.966 748.452 Q145.966 750.582 145.156 752.503 Q144.369 754.401 142.262 756.994 Q141.684 757.665 138.582 760.883 Q135.48 764.077 129.832 769.841 Z" fill="#000000" fill-rule="nonzero" fill-opacity="1" /><path clip-path="url(#clip600)" d="M136.568 485.921 L124.762 504.37 L136.568 504.37 L136.568 485.921 M135.341 481.847 L141.221 481.847 L141.221 504.37 L146.151 504.37 L146.151 508.259 L141.221 508.259 L141.221 516.407 L136.568 516.407 L136.568 508.259 L120.966 508.259 L120.966 503.745 L135.341 481.847 Z" fill="#000000" fill-rule="nonzero" fill-opacity="1" /><path clip-path="url(#clip600)" d="M134.624 239.894 Q131.475 239.894 129.624 242.047 Q127.795 244.2 127.795 247.949 Q127.795 251.676 129.624 253.852 Q131.475 256.005 134.624 256.005 Q137.772 256.005 139.6 253.852 Q141.452 251.676 141.452 247.949 Q141.452 244.2 139.6 242.047 Q137.772 239.894 134.624 239.894 M143.906 225.241 L143.906 229.501 Q142.147 228.667 140.341 228.227 Q138.559 227.788 136.799 227.788 Q132.17 227.788 129.716 230.913 Q127.286 234.038 126.938 240.357 Q128.304 238.343 130.364 237.278 Q132.424 236.19 134.901 236.19 Q140.11 236.19 143.119 239.362 Q146.151 242.51 146.151 247.949 Q146.151 253.274 143.003 256.491 Q139.855 259.709 134.624 259.709 Q128.628 259.709 125.457 255.125 Q122.286 250.519 122.286 241.792 Q122.286 233.598 126.175 228.737 Q130.063 223.852 136.614 223.852 Q138.374 223.852 140.156 224.2 Q141.961 224.547 143.906 225.241 Z" fill="#000000" fill-rule="nonzero" fill-opacity="1" /><path clip-path="url(#clip600)" d="M36.4302 883.24 Q37.1305 881.171 39.4221 879.229 Q41.7138 877.256 45.7242 875.282 L58.7102 868.758 L58.7102 875.664 L46.5199 881.744 Q41.7456 884.099 40.186 886.327 Q38.6264 888.523 38.6264 892.343 L38.6264 899.345 L58.7102 899.345 L58.7102 905.774 L11.1902 905.774 L11.1902 891.26 Q11.1902 883.112 14.5959 879.102 Q18.0015 875.091 24.8765 875.091 Q29.3643 875.091 32.3244 877.192 Q35.2844 879.261 36.4302 883.24 M16.4738 899.345 L33.3429 899.345 L33.3429 891.26 Q33.3429 886.613 31.2104 884.258 Q29.046 881.871 24.8765 881.871 Q20.707 881.871 18.6063 884.258 Q16.4738 886.613 16.4738 891.26 L16.4738 899.345 Z" fill="#000000" fill-rule="nonzero" fill-opacity="1" /><path clip-path="url(#clip600)" d="M39.4221 833.173 L42.2867 833.173 L42.2867 860.1 Q48.3341 859.718 51.517 856.472 Q54.668 853.193 54.668 847.369 Q54.668 843.995 53.8405 840.844 Q53.0129 837.661 51.3578 834.542 L56.896 834.542 Q58.2328 837.693 58.933 841.003 Q59.6332 844.313 59.6332 847.719 Q59.6332 856.249 54.668 861.246 Q49.7027 866.211 41.2364 866.211 Q32.4835 866.211 27.3591 861.501 Q22.2029 856.758 22.2029 848.737 Q22.2029 841.544 26.8499 837.375 Q31.465 833.173 39.4221 833.173 M37.7034 839.03 Q32.8973 839.093 30.0327 841.735 Q27.1681 844.345 27.1681 848.674 Q27.1681 853.575 29.9372 856.535 Q32.7063 859.464 37.7352 859.909 L37.7034 839.03 Z" fill="#000000" fill-rule="nonzero" fill-opacity="1" /><path clip-path="url(#clip600)" d="M53.363 817.896 L72.2692 817.896 L72.2692 823.784 L23.0623 823.784 L23.0623 817.896 L28.4731 817.896 Q25.2903 816.05 23.7625 813.249 Q22.2029 810.416 22.2029 806.501 Q22.2029 800.008 27.3591 795.966 Q32.5153 791.892 40.9181 791.892 Q49.3208 791.892 54.477 795.966 Q59.6332 800.008 59.6332 806.501 Q59.6332 810.416 58.1055 813.249 Q56.5459 816.05 53.363 817.896 M40.9181 797.971 Q34.4569 797.971 30.7966 800.645 Q27.1045 803.286 27.1045 807.933 Q27.1045 812.58 30.7966 815.254 Q34.4569 817.896 40.9181 817.896 Q47.3793 817.896 51.0714 815.254 Q54.7317 812.58 54.7317 807.933 Q54.7317 803.286 51.0714 800.645 Q47.3793 797.971 40.9181 797.971 Z" fill="#000000" fill-rule="nonzero" fill-opacity="1" /><path clip-path="url(#clip600)" d="M28.5368 761.527 Q27.9639 762.514 27.7092 763.692 Q27.4228 764.837 27.4228 766.238 Q27.4228 771.203 30.6693 773.877 Q33.884 776.519 39.9314 776.519 L58.7102 776.519 L58.7102 782.407 L23.0623 782.407 L23.0623 776.519 L28.6004 776.519 Q25.3539 774.672 23.7943 771.712 Q22.2029 768.752 22.2029 764.519 Q22.2029 763.914 22.2984 763.182 Q22.362 762.45 22.5212 761.559 L28.5368 761.527 Z" fill="#000000" fill-rule="nonzero" fill-opacity="1" /><path clip-path="url(#clip600)" d="M27.1681 743.003 Q27.1681 747.714 30.8603 750.451 Q34.5205 753.188 40.9181 753.188 Q47.3156 753.188 51.0077 750.483 Q54.668 747.746 54.668 743.003 Q54.668 738.324 50.9759 735.587 Q47.2838 732.85 40.9181 732.85 Q34.5842 732.85 30.8921 735.587 Q27.1681 738.324 27.1681 743.003 M22.2029 743.003 Q22.2029 735.364 27.1681 731.004 Q32.1334 726.643 40.9181 726.643 Q49.6709 726.643 54.668 731.004 Q59.6332 735.364 59.6332 743.003 Q59.6332 750.674 54.668 755.034 Q49.6709 759.363 40.9181 759.363 Q32.1334 759.363 27.1681 755.034 Q22.2029 750.674 22.2029 743.003 Z" fill="#000000" fill-rule="nonzero" fill-opacity="1" /><path clip-path="url(#clip600)" d="M28.4731 693.478 L9.18502 693.478 L9.18502 687.621 L58.7102 687.621 L58.7102 693.478 L53.363 693.478 Q56.5459 695.324 58.1055 698.157 Q59.6332 700.958 59.6332 704.904 Q59.6332 711.365 54.477 715.44 Q49.3208 719.482 40.9181 719.482 Q32.5153 719.482 27.3591 715.44 Q22.2029 711.365 22.2029 704.904 Q22.2029 700.958 23.7625 698.157 Q25.2903 695.324 28.4731 693.478 M40.9181 713.434 Q47.3793 713.434 51.0714 710.793 Q54.7317 708.119 54.7317 703.472 Q54.7317 698.825 51.0714 696.151 Q47.3793 693.478 40.9181 693.478 Q34.4569 693.478 30.7966 696.151 Q27.1045 698.825 27.1045 703.472 Q27.1045 708.119 30.7966 710.793 Q34.4569 713.434 40.9181 713.434 Z" fill="#000000" fill-rule="nonzero" fill-opacity="1" /><path clip-path="url(#clip600)" d="M44.642 676.163 L23.0623 676.163 L23.0623 670.307 L44.4192 670.307 Q49.4799 670.307 52.0262 668.333 Q54.5407 666.36 54.5407 662.413 Q54.5407 657.671 51.517 654.934 Q48.4933 652.164 43.2734 652.164 L23.0623 652.164 L23.0623 646.308 L58.7102 646.308 L58.7102 652.164 L53.2357 652.164 Q56.4822 654.297 58.0736 657.13 Q59.6332 659.931 59.6332 663.655 Q59.6332 669.797 55.8138 672.98 Q51.9944 676.163 44.642 676.163 M22.2029 661.427 L22.2029 661.427 Z" fill="#000000" fill-rule="nonzero" fill-opacity="1" /><path clip-path="url(#clip600)" d="M24.4309 608.591 L29.9054 608.591 Q28.5368 611.074 27.8684 613.588 Q27.1681 616.071 27.1681 618.617 Q27.1681 624.314 30.7966 627.465 Q34.3932 630.617 40.9181 630.617 Q47.4429 630.617 51.0714 627.465 Q54.668 624.314 54.668 618.617 Q54.668 616.071 53.9996 613.588 Q53.2994 611.074 51.9307 608.591 L57.3416 608.591 Q58.4874 611.042 59.0603 613.684 Q59.6332 616.294 59.6332 619.254 Q59.6332 627.306 54.5725 632.049 Q49.5118 636.791 40.9181 636.791 Q32.1971 636.791 27.2 632.017 Q22.2029 627.211 22.2029 618.872 Q22.2029 616.166 22.7758 613.588 Q23.3169 611.01 24.4309 608.591 Z" fill="#000000" fill-rule="nonzero" fill-opacity="1" /><path clip-path="url(#clip600)" d="M12.9408 592.613 L23.0623 592.613 L23.0623 580.55 L27.6137 580.55 L27.6137 592.613 L46.9655 592.613 Q51.326 592.613 52.5673 591.436 Q53.8086 590.226 53.8086 586.566 L53.8086 580.55 L58.7102 580.55 L58.7102 586.566 Q58.7102 593.345 56.1958 595.923 Q53.6495 598.502 46.9655 598.502 L27.6137 598.502 L27.6137 602.798 L23.0623 602.798 L23.0623 598.502 L12.9408 598.502 L12.9408 592.613 Z" fill="#000000" fill-rule="nonzero" fill-opacity="1" /><path clip-path="url(#clip600)" d="M23.0623 572.848 L23.0623 566.991 L58.7102 566.991 L58.7102 572.848 L23.0623 572.848 M9.18502 572.848 L9.18502 566.991 L16.6011 566.991 L16.6011 572.848 L9.18502 572.848 Z" fill="#000000" fill-rule="nonzero" fill-opacity="1" /><path clip-path="url(#clip600)" d="M27.1681 540.924 Q27.1681 545.634 30.8603 548.372 Q34.5205 551.109 40.9181 551.109 Q47.3156 551.109 51.0077 548.403 Q54.668 545.666 54.668 540.924 Q54.668 536.245 50.9759 533.508 Q47.2838 530.77 40.9181 530.77 Q34.5842 530.77 30.8921 533.508 Q27.1681 536.245 27.1681 540.924 M22.2029 540.924 Q22.2029 533.285 27.1681 528.924 Q32.1334 524.564 40.9181 524.564 Q49.6709 524.564 54.668 528.924 Q59.6332 533.285 59.6332 540.924 Q59.6332 548.594 54.668 552.955 Q49.6709 557.284 40.9181 557.284 Q32.1334 557.284 27.1681 552.955 Q22.2029 548.594 22.2029 540.924 Z" fill="#000000" fill-rule="nonzero" fill-opacity="1" /><path clip-path="url(#clip600)" d="M37.1941 485.224 L58.7102 485.224 L58.7102 491.08 L37.3851 491.08 Q32.3244 491.08 29.8099 493.054 Q27.2955 495.027 27.2955 498.974 Q27.2955 503.716 30.3192 506.453 Q33.3429 509.191 38.5628 509.191 L58.7102 509.191 L58.7102 515.079 L23.0623 515.079 L23.0623 509.191 L28.6004 509.191 Q25.3857 507.09 23.7943 504.257 Q22.2029 501.393 22.2029 497.669 Q22.2029 491.526 26.0223 488.375 Q29.8099 485.224 37.1941 485.224 Z" fill="#000000" fill-rule="nonzero" fill-opacity="1" /><path clip-path="url(#clip600)" d="M37.1941 423.19 L58.7102 423.19 L58.7102 429.046 L37.3851 429.046 Q32.3244 429.046 29.8099 431.02 Q27.2955 432.993 27.2955 436.94 Q27.2955 441.682 30.3192 444.42 Q33.3429 447.157 38.5628 447.157 L58.7102 447.157 L58.7102 453.045 L23.0623 453.045 L23.0623 447.157 L28.6004 447.157 Q25.3857 445.056 23.7943 442.223 Q22.2029 439.359 22.2029 435.635 Q22.2029 429.492 26.0223 426.341 Q29.8099 423.19 37.1941 423.19 Z" fill="#000000" fill-rule="nonzero" fill-opacity="1" /><path clip-path="url(#clip600)" d="M44.642 412.114 L23.0623 412.114 L23.0623 406.257 L44.4192 406.257 Q49.4799 406.257 52.0262 404.284 Q54.5407 402.31 54.5407 398.364 Q54.5407 393.621 51.517 390.884 Q48.4933 388.115 43.2734 388.115 L23.0623 388.115 L23.0623 382.258 L58.7102 382.258 L58.7102 388.115 L53.2357 388.115 Q56.4822 390.247 58.0736 393.08 Q59.6332 395.881 59.6332 399.605 Q59.6332 405.748 55.8138 408.931 Q51.9944 412.114 44.642 412.114 M22.2029 397.377 L22.2029 397.377 Z" fill="#000000" fill-rule="nonzero" fill-opacity="1" /><path clip-path="url(#clip600)" d="M29.9054 342.441 Q25.9587 340.245 24.0808 337.189 Q22.2029 334.134 22.2029 329.996 Q22.2029 324.426 26.1178 321.402 Q30.0009 318.379 37.1941 318.379 L58.7102 318.379 L58.7102 324.267 L37.3851 324.267 Q32.2607 324.267 29.7781 326.081 Q27.2955 327.895 27.2955 331.619 Q27.2955 336.171 30.3192 338.813 Q33.3429 341.454 38.5628 341.454 L58.7102 341.454 L58.7102 347.343 L37.3851 347.343 Q32.2289 347.343 29.7781 349.157 Q27.2955 350.971 27.2955 354.759 Q27.2955 359.246 30.351 361.888 Q33.3747 364.53 38.5628 364.53 L58.7102 364.53 L58.7102 370.418 L23.0623 370.418 L23.0623 364.53 L28.6004 364.53 Q25.3221 362.525 23.7625 359.724 Q22.2029 356.923 22.2029 353.072 Q22.2029 349.189 24.1763 346.483 Q26.1496 343.746 29.9054 342.441 Z" fill="#000000" fill-rule="nonzero" fill-opacity="1" /><path clip-path="url(#clip600)" d="M40.9181 281.107 Q34.4569 281.107 30.7966 283.781 Q27.1045 286.423 27.1045 291.07 Q27.1045 295.717 30.7966 298.39 Q34.4569 301.032 40.9181 301.032 Q47.3793 301.032 51.0714 298.39 Q54.7317 295.717 54.7317 291.07 Q54.7317 286.423 51.0714 283.781 Q47.3793 281.107 40.9181 281.107 M28.4731 301.032 Q25.2903 299.186 23.7625 296.385 Q22.2029 293.552 22.2029 289.637 Q22.2029 283.144 27.3591 279.102 Q32.5153 275.028 40.9181 275.028 Q49.3208 275.028 54.477 279.102 Q59.6332 283.144 59.6332 289.637 Q59.6332 293.552 58.1055 296.385 Q56.5459 299.186 53.363 301.032 L58.7102 301.032 L58.7102 306.92 L9.18502 306.92 L9.18502 301.032 L28.4731 301.032 Z" fill="#000000" fill-rule="nonzero" fill-opacity="1" /><path clip-path="url(#clip600)" d="M39.4221 234.829 L42.2867 234.829 L42.2867 261.756 Q48.3341 261.374 51.517 258.127 Q54.668 254.849 54.668 249.024 Q54.668 245.65 53.8405 242.499 Q53.0129 239.317 51.3578 236.197 L56.896 236.197 Q58.2328 239.348 58.933 242.659 Q59.6332 245.969 59.6332 249.374 Q59.6332 257.904 54.668 262.901 Q49.7027 267.867 41.2364 267.867 Q32.4835 267.867 27.3591 263.156 Q22.2029 258.414 22.2029 250.393 Q22.2029 243.2 26.8499 239.03 Q31.465 234.829 39.4221 234.829 M37.7034 240.685 Q32.8973 240.749 30.0327 243.391 Q27.1681 246.001 27.1681 250.329 Q27.1681 255.231 29.9372 258.191 Q32.7063 261.119 37.7352 261.565 L37.7034 240.685 Z" fill="#000000" fill-rule="nonzero" fill-opacity="1" /><path clip-path="url(#clip600)" d="M28.5368 204.56 Q27.9639 205.546 27.7092 206.724 Q27.4228 207.87 27.4228 209.27 Q27.4228 214.236 30.6693 216.909 Q33.884 219.551 39.9314 219.551 L58.7102 219.551 L58.7102 225.439 L23.0623 225.439 L23.0623 219.551 L28.6004 219.551 Q25.3539 217.705 23.7943 214.745 Q22.2029 211.785 22.2029 207.552 Q22.2029 206.947 22.2984 206.215 Q22.362 205.483 22.5212 204.592 L28.5368 204.56 Z" fill="#000000" fill-rule="nonzero" fill-opacity="1" /><path clip-path="url(#clip602)" d="M276.994 866.208 L304.887 862.27 L332.78 810.128 L360.673 843.323 L388.567 846.118 L416.46 840.365 L444.353 839.814 L472.246 814.937 L500.139 840.782 L528.032 841.734 L555.926 852.864 L583.819 869.204 L611.712 868.409 L639.605 851.178 L667.498 822.406 L695.391 809.773 L723.285 766.48 L751.178 694.575 L779.071 670.464 L806.964 618.52 L834.857 534.39 L862.75 563.325 L890.644 565.518 L918.537 604.221 L946.43 534.725 L974.323 498.246 L1002.22 567.979 L1030.11 581.235 L1058 613.908 L1085.9 697.979 L1113.79 778.789 L1141.68 826.61 L1169.58 847.437 L1197.47 882.859 L1225.36 877.388 L1253.25 876.721 L1281.15 871.019 L1309.04 883.982 L1336.93 895.541 L1364.83 909.335 L1392.72 929.793 L1420.61 949.184 L1448.51 958.871 L1476.4 957.826 L1504.29 964.123 L1532.19 968.828 L1560.08 972.437 L1587.97 978.838 L1615.87 978.395 L1643.76 979.878 L1671.65 977.03 L1699.55 977.407 L1727.44 977.681 L1755.33 978.407 L1783.22 979.771 L1811.12 982.663 L1839.01 982.541 L1866.9 980.586 L1894.8 978.117 L1922.69 978.777 L1950.58 978.592 L1978.48 980.613 L2006.37 981.531 L2034.26 983.886 L2062.16 981.344 L2090.05 980.06 L2117.94 982.334 L2145.84 983.893 L2173.73 983.33 L2201.62 985.176 L2229.52 981.906 L2257.41 983.268 L2285.3 983.384 L2313.19 983.891 L2341.09 983.952 L2368.98 987.346 L2396.87 988.185 L2424.77 989.262 L2452.66 990.494 L2480.55 992.399 L2508.45 993.498 L2536.34 994.423 L2564.23 994.971 L2592.13 995.843 L2620.02 997.402 L2647.91 995.993 L2675.81 996.597 L2703.7 998.426 L2731.59 998.716 L2759.49 1000 L2787.38 999.971 L2815.27 1000.82 L2843.17 1001.47 L2871.06 1002.59 L2898.95 1003.35 L2926.84 1003.28 L2954.74 1003.73 L2982.63 1004.08 L3010.52 1004.34 L3038.42 1004.63 L3038.42 868.157 L3010.52 877.561 L2982.63 878.111 L2954.74 882.808 L2926.84 889.655 L2898.95 893.322 L2871.06 893.267 L2843.17 897.955 L2815.27 904.231 L2787.38 898.019 L2759.49 909.921 L2731.59 905.812 L2703.7 912.091 L2675.81 912.192 L2647.91 911.485 L2620.02 913.045 L2592.13 917.958 L2564.23 920.487 L2536.34 921.608 L2508.45 919.321 L2480.55 915.13 L2452.66 925.503 L2424.77 930.118 L2396.87 926.229 L2368.98 921.991 L2341.09 920.899 L2313.19 924.536 L2285.3 925.972 L2257.41 930.793 L2229.52 929.443 L2201.62 929.44 L2173.73 931.402 L2145.84 936.625 L2117.94 931.879 L2090.05 928.935 L2062.16 936.366 L2034.26 942.364 L2006.37 943.971 L1978.48 944.772 L1950.58 941.869 L1922.69 940.971 L1894.8 943.159 L1866.9 947.391 L1839.01 950.074 L1811.12 951.95 L1783.22 953.421 L1755.33 950.302 L1727.44 948.574 L1699.55 948.201 L1671.65 947.146 L1643.76 952.27 L1615.87 953.065 L1587.97 955.148 L1560.08 947.362 L1532.19 935.609 L1504.29 934.792 L1476.4 925.914 L1448.51 925.357 L1420.61 915.809 L1392.72 898.202 L1364.83 869.577 L1336.93 850.05 L1309.04 837.814 L1281.15 824.929 L1253.25 828.336 L1225.36 823.378 L1197.47 827.601 L1169.58 785.619 L1141.68 750.184 L1113.79 672.508 L1085.9 559.915 L1058 441.849 L1030.11 426.055 L1002.22 355.913 L974.323 190.332 L946.43 261.619 L918.537 312.486 L890.644 228.669 L862.75 202.711 L834.857 105.708 L806.964 211.194 L779.071 171.449 L751.178 174.349 L723.285 331.886 L695.391 548.887 L667.498 501.108 L639.605 615.54 L611.712 551.266 L583.819 580.968 L555.926 622.734 L528.032 577.082 L500.139 404.386 L472.246 430.746 L444.353 387.747 L416.46 273.619 L388.567 249.952 L360.673 273.584 L332.78 326.506 L304.887 230.073 L276.994 242.11  Z" fill="#006400" fill-rule="evenodd" fill-opacity="0.5"/>
<polyline clip-path="url(#clip602)" style="stroke:#006400; stroke-linecap:round; stroke-linejoin:round; stroke-width:4; stroke-opacity:1; fill:none" points="276.994,614.364 304.887,617.401 332.78,624.432 360.673,664.777 388.567,654.011 416.46,652.823 444.353,663.627 472.246,663.518 500.139,682.674 528.032,702.995 555.926,734.796 583.819,744.23 611.712,727.999 639.605,715.514 667.498,679.486 695.391,660.668 723.285,583.31 751.178,519.627 779.071,456.714 806.964,370.381 834.857,326.736 862.75,403.268 890.644,394.59 918.537,463.837 946.43,429.951 974.323,388.447 1002.22,475.339 1030.11,504.518 1058,532.676 1085.9,639.258 1113.79,723.456 1141.68,786.188 1169.58,820.182 1197.47,857.905 1225.36,848.797 1253.25,853.349 1281.15,849.74 1309.04,864.507 1336.93,871.408 1364.83,890.325 1392.72,914.979 1420.61,935.256 1448.51,944.557 1476.4,942.001 1504.29,951.389 1532.19,956.565 1560.08,962.368 1587.97,967.402 1615.87,965.953 1643.76,965.61 1671.65,962.653 1699.55,962.942 1727.44,964.867 1755.33,966.307 1783.22,969.26 1811.12,968.732 1839.01,967.138 1866.9,965.23 1894.8,962.583 1922.69,961.901 1950.58,963.486 1978.48,964.14 2006.37,964.58 2034.26,963.308 2062.16,961.009 2090.05,959.226 2117.94,962.564 2145.84,963.686 2173.73,964 2201.62,961.879 2229.52,960.69 2257.41,961.022 2285.3,960.123 2313.19,959.696 2341.09,959.726 2368.98,962.533 2396.87,963.917 2424.77,964.597 2452.66,964.861 2480.55,965.006 2508.45,966.271 2536.34,967.233 2564.23,967.852 2592.13,968.401 2620.02,968.283 2647.91,968.239 2675.81,967.641 2703.7,968.067 2731.59,968.397 2759.49,968.774 2787.38,968.845 2815.27,968.687 2843.17,968.387 2871.06,968.436 2898.95,968.392 2926.84,967.874 2954.74,967.475 2982.63,966.961 3010.52,966.627 3038.42,965.961 "/>
<polyline clip-path="url(#clip602)" style="stroke:#000000; stroke-linecap:round; stroke-linejoin:round; stroke-width:4; stroke-opacity:1; fill:none" stroke-dasharray="16, 10" points="-2732.96,885.181 6048.37,885.181 "/>
</svg>
