<?xml version="1.0" encoding="utf-8"?>
<svg xmlns="http://www.w3.org/2000/svg" xmlns:xlink="http://www.w3.org/1999/xlink" width="800" height="300" viewBox="0 0 3200 1200">
<defs>
  <clipPath id="clip710">
    <rect x="0" y="0" width="3200" height="1200"/>
  </clipPath>
</defs>
<path clip-path="url(#clip710)" d="M0 1200 L3200 1200 L3200 0 L0 0  Z" fill="#ffffff" fill-rule="evenodd" fill-opacity="1"/>
<defs>
  <clipPath id="clip711">
    <rect x="640" y="0" width="2241" height="1200"/>
  </clipPath>
</defs>
<path clip-path="url(#clip710)" d="M298.41 1031.59 L3121.26 1031.59 L3121.26 78.7402 L298.41 78.7402  Z" fill="#ffffff" fill-rule="evenodd" fill-opacity="1"/>
<defs>
  <clipPath id="clip712">
    <rect x="298" y="78" width="2824" height="954"/>
  </clipPath>
</defs>
<polyline clip-path="url(#clip712)" style="stroke:#000000; stroke-linecap:round; stroke-linejoin:round; stroke-width:2; stroke-opacity:0.1; fill:none" points="453.672,1031.59 453.672,78.7402 "/>
<polyline clip-path="url(#clip712)" style="stroke:#000000; stroke-linecap:round; stroke-linejoin:round; stroke-width:2; stroke-opacity:0.1; fill:none" points="1107.92,1031.59 1107.92,78.7402 "/>
<polyline clip-path="url(#clip712)" style="stroke:#000000; stroke-linecap:round; stroke-linejoin:round; stroke-width:2; stroke-opacity:0.1; fill:none" points="1762.18,1031.59 1762.18,78.7402 "/>
<polyline clip-path="url(#clip712)" style="stroke:#000000; stroke-linecap:round; stroke-linejoin:round; stroke-width:2; stroke-opacity:0.1; fill:none" points="2416.43,1031.59 2416.43,78.7402 "/>
<polyline clip-path="url(#clip712)" style="stroke:#000000; stroke-linecap:round; stroke-linejoin:round; stroke-width:2; stroke-opacity:0.1; fill:none" points="3070.68,1031.59 3070.68,78.7402 "/>
<polyline clip-path="url(#clip710)" style="stroke:#000000; stroke-linecap:round; stroke-linejoin:round; stroke-width:4; stroke-opacity:1; fill:none" points="298.41,1031.59 3121.26,1031.59 "/>
<polyline clip-path="url(#clip710)" style="stroke:#000000; stroke-linecap:round; stroke-linejoin:round; stroke-width:4; stroke-opacity:1; fill:none" points="453.672,1031.59 453.672,1012.7 "/>
<polyline clip-path="url(#clip710)" style="stroke:#000000; stroke-linecap:round; stroke-linejoin:round; stroke-width:4; stroke-opacity:1; fill:none" points="1107.92,1031.59 1107.92,1012.7 "/>
<polyline clip-path="url(#clip710)" style="stroke:#000000; stroke-linecap:round; stroke-linejoin:round; stroke-width:4; stroke-opacity:1; fill:none" points="1762.18,1031.59 1762.18,1012.7 "/>
<polyline clip-path="url(#clip710)" style="stroke:#000000; stroke-linecap:round; stroke-linejoin:round; stroke-width:4; stroke-opacity:1; fill:none" points="2416.43,1031.59 2416.43,1012.7 "/>
<polyline clip-path="url(#clip710)" style="stroke:#000000; stroke-linecap:round; stroke-linejoin:round; stroke-width:4; stroke-opacity:1; fill:none" points="3070.68,1031.59 3070.68,1012.7 "/>
<path clip-path="url(#clip710)" d="M415.975 1068.91 Q412.364 1068.91 410.535 1072.48 Q408.73 1076.02 408.73 1083.15 Q408.73 1090.25 410.535 1093.82 Q412.364 1097.36 415.975 1097.36 Q419.609 1097.36 421.415 1093.82 Q423.244 1090.25 423.244 1083.15 Q423.244 1076.02 421.415 1072.48 Q419.609 1068.91 415.975 1068.91 M415.975 1065.21 Q421.785 1065.21 424.841 1069.82 Q427.92 1074.4 427.92 1083.15 Q427.92 1091.88 424.841 1096.48 Q421.785 1101.07 415.975 1101.07 Q410.165 1101.07 407.086 1096.48 Q404.031 1091.88 404.031 1083.15 Q404.031 1074.4 407.086 1069.82 Q410.165 1065.21 415.975 1065.21 Z" fill="#000000" fill-rule="nonzero" fill-opacity="1" /><path clip-path="url(#clip710)" d="M436.137 1094.51 L441.021 1094.51 L441.021 1100.39 L436.137 1100.39 L436.137 1094.51 Z" fill="#000000" fill-rule="nonzero" fill-opacity="1" /><path clip-path="url(#clip710)" d="M461.206 1068.91 Q457.595 1068.91 455.767 1072.48 Q453.961 1076.02 453.961 1083.15 Q453.961 1090.25 455.767 1093.82 Q457.595 1097.36 461.206 1097.36 Q464.841 1097.36 466.646 1093.82 Q468.475 1090.25 468.475 1083.15 Q468.475 1076.02 466.646 1072.48 Q464.841 1068.91 461.206 1068.91 M461.206 1065.21 Q467.017 1065.21 470.072 1069.82 Q473.151 1074.4 473.151 1083.15 Q473.151 1091.88 470.072 1096.48 Q467.017 1101.07 461.206 1101.07 Q455.396 1101.07 452.318 1096.48 Q449.262 1091.88 449.262 1083.15 Q449.262 1074.4 452.318 1069.82 Q455.396 1065.21 461.206 1065.21 Z" fill="#000000" fill-rule="nonzero" fill-opacity="1" /><path clip-path="url(#clip710)" d="M491.368 1068.91 Q487.757 1068.91 485.929 1072.48 Q484.123 1076.02 484.123 1083.15 Q484.123 1090.25 485.929 1093.82 Q487.757 1097.36 491.368 1097.36 Q495.003 1097.36 496.808 1093.82 Q498.637 1090.25 498.637 1083.15 Q498.637 1076.02 496.808 1072.48 Q495.003 1068.91 491.368 1068.91 M491.368 1065.21 Q497.178 1065.21 500.234 1069.82 Q503.313 1074.4 503.313 1083.15 Q503.313 1091.88 500.234 1096.48 Q497.178 1101.07 491.368 1101.07 Q485.558 1101.07 482.479 1096.48 Q479.424 1091.88 479.424 1083.15 Q479.424 1074.4 482.479 1069.82 Q485.558 1065.21 491.368 1065.21 Z" fill="#000000" fill-rule="nonzero" fill-opacity="1" /><path clip-path="url(#clip710)" d="M1070.72 1068.91 Q1067.11 1068.91 1065.28 1072.48 Q1063.48 1076.02 1063.48 1083.15 Q1063.48 1090.25 1065.28 1093.82 Q1067.11 1097.36 1070.72 1097.36 Q1074.36 1097.36 1076.16 1093.82 Q1077.99 1090.25 1077.99 1083.15 Q1077.99 1076.02 1076.16 1072.48 Q1074.36 1068.91 1070.72 1068.91 M1070.72 1065.21 Q1076.53 1065.21 1079.59 1069.82 Q1082.67 1074.4 1082.67 1083.15 Q1082.67 1091.88 1079.59 1096.48 Q1076.53 1101.07 1070.72 1101.07 Q1064.91 1101.07 1061.84 1096.48 Q1058.78 1091.88 1058.78 1083.15 Q1058.78 1074.4 1061.84 1069.82 Q1064.91 1065.21 1070.72 1065.21 Z" fill="#000000" fill-rule="nonzero" fill-opacity="1" /><path clip-path="url(#clip710)" d="M1090.89 1094.51 L1095.77 1094.51 L1095.77 1100.39 L1090.89 1100.39 L1090.89 1094.51 Z" fill="#000000" fill-rule="nonzero" fill-opacity="1" /><path clip-path="url(#clip710)" d="M1109.98 1096.46 L1126.3 1096.46 L1126.3 1100.39 L1104.36 1100.39 L1104.36 1096.46 Q1107.02 1093.7 1111.6 1089.07 Q1116.21 1084.42 1117.39 1083.08 Q1119.64 1080.56 1120.52 1078.82 Q1121.42 1077.06 1121.42 1075.37 Q1121.42 1072.62 1119.47 1070.88 Q1117.55 1069.14 1114.45 1069.14 Q1112.25 1069.14 1109.8 1069.91 Q1107.37 1070.67 1104.59 1072.22 L1104.59 1067.5 Q1107.41 1066.37 1109.87 1065.79 Q1112.32 1065.21 1114.36 1065.21 Q1119.73 1065.21 1122.92 1067.89 Q1126.12 1070.58 1126.12 1075.07 Q1126.12 1077.2 1125.31 1079.12 Q1124.52 1081.02 1122.41 1083.61 Q1121.84 1084.28 1118.73 1087.5 Q1115.63 1090.69 1109.98 1096.46 Z" fill="#000000" fill-rule="nonzero" fill-opacity="1" /><path clip-path="url(#clip710)" d="M1136.16 1065.83 L1154.52 1065.83 L1154.52 1069.77 L1140.45 1069.77 L1140.45 1078.24 Q1141.46 1077.89 1142.48 1077.73 Q1143.5 1077.55 1144.52 1077.55 Q1150.31 1077.55 1153.69 1080.72 Q1157.07 1083.89 1157.07 1089.31 Q1157.07 1094.88 1153.59 1097.99 Q1150.12 1101.07 1143.8 1101.07 Q1141.63 1101.07 1139.36 1100.69 Q1137.11 1100.32 1134.71 1099.58 L1134.71 1094.88 Q1136.79 1096.02 1139.01 1096.57 Q1141.23 1097.13 1143.71 1097.13 Q1147.71 1097.13 1150.05 1095.02 Q1152.39 1092.92 1152.39 1089.31 Q1152.39 1085.69 1150.05 1083.59 Q1147.71 1081.48 1143.71 1081.48 Q1141.84 1081.48 1139.96 1081.9 Q1138.11 1082.32 1136.16 1083.19 L1136.16 1065.83 Z" fill="#000000" fill-rule="nonzero" fill-opacity="1" /><path clip-path="url(#clip710)" d="M1724.48 1068.91 Q1720.87 1068.91 1719.04 1072.48 Q1717.23 1076.02 1717.23 1083.15 Q1717.23 1090.25 1719.04 1093.82 Q1720.87 1097.36 1724.48 1097.36 Q1728.11 1097.36 1729.92 1093.82 Q1731.75 1090.25 1731.75 1083.15 Q1731.75 1076.02 1729.92 1072.48 Q1728.11 1068.91 1724.48 1068.91 M1724.48 1065.21 Q1730.29 1065.21 1733.34 1069.82 Q1736.42 1074.4 1736.42 1083.15 Q1736.42 1091.88 1733.34 1096.48 Q1730.29 1101.07 1724.48 1101.07 Q1718.67 1101.07 1715.59 1096.48 Q1712.53 1091.88 1712.53 1083.15 Q1712.53 1074.4 1715.59 1069.82 Q1718.67 1065.21 1724.48 1065.21 Z" fill="#000000" fill-rule="nonzero" fill-opacity="1" /><path clip-path="url(#clip710)" d="M1744.64 1094.51 L1749.52 1094.51 L1749.52 1100.39 L1744.64 1100.39 L1744.64 1094.51 Z" fill="#000000" fill-rule="nonzero" fill-opacity="1" /><path clip-path="url(#clip710)" d="M1759.76 1065.83 L1778.11 1065.83 L1778.11 1069.77 L1764.04 1069.77 L1764.04 1078.24 Q1765.06 1077.89 1766.08 1077.73 Q1767.09 1077.55 1768.11 1077.55 Q1773.9 1077.55 1777.28 1080.72 Q1780.66 1083.89 1780.66 1089.31 Q1780.66 1094.88 1777.19 1097.99 Q1773.71 1101.07 1767.39 1101.07 Q1765.22 1101.07 1762.95 1100.69 Q1760.71 1100.32 1758.3 1099.58 L1758.3 1094.88 Q1760.38 1096.02 1762.6 1096.57 Q1764.83 1097.13 1767.3 1097.13 Q1771.31 1097.13 1773.64 1095.02 Q1775.98 1092.92 1775.98 1089.31 Q1775.98 1085.69 1773.64 1083.59 Q1771.31 1081.48 1767.3 1081.48 Q1765.43 1081.48 1763.55 1081.9 Q1761.7 1082.32 1759.76 1083.19 L1759.76 1065.83 Z" fill="#000000" fill-rule="nonzero" fill-opacity="1" /><path clip-path="url(#clip710)" d="M1799.87 1068.91 Q1796.26 1068.91 1794.43 1072.48 Q1792.63 1076.02 1792.63 1083.15 Q1792.63 1090.25 1794.43 1093.82 Q1796.26 1097.36 1799.87 1097.36 Q1803.51 1097.36 1805.31 1093.82 Q1807.14 1090.25 1807.14 1083.15 Q1807.14 1076.02 1805.31 1072.48 Q1803.51 1068.91 1799.87 1068.91 M1799.87 1065.21 Q1805.68 1065.21 1808.74 1069.82 Q1811.82 1074.4 1811.82 1083.15 Q1811.82 1091.88 1808.74 1096.48 Q1805.68 1101.07 1799.87 1101.07 Q1794.06 1101.07 1790.98 1096.48 Q1787.93 1091.88 1787.93 1083.15 Q1787.93 1074.4 1790.98 1069.82 Q1794.06 1065.21 1799.87 1065.21 Z" fill="#000000" fill-rule="nonzero" fill-opacity="1" /><path clip-path="url(#clip710)" d="M2379.23 1068.91 Q2375.62 1068.91 2373.79 1072.48 Q2371.98 1076.02 2371.98 1083.15 Q2371.98 1090.25 2373.79 1093.82 Q2375.62 1097.36 2379.23 1097.36 Q2382.86 1097.36 2384.67 1093.82 Q2386.5 1090.25 2386.5 1083.15 Q2386.5 1076.02 2384.67 1072.48 Q2382.86 1068.91 2379.23 1068.91 M2379.23 1065.21 Q2385.04 1065.21 2388.09 1069.82 Q2391.17 1074.4 2391.17 1083.15 Q2391.17 1091.88 2388.09 1096.48 Q2385.04 1101.07 2379.23 1101.07 Q2373.42 1101.07 2370.34 1096.48 Q2367.28 1091.88 2367.28 1083.15 Q2367.28 1074.4 2370.34 1069.82 Q2373.42 1065.21 2379.23 1065.21 Z" fill="#000000" fill-rule="nonzero" fill-opacity="1" /><path clip-path="url(#clip710)" d="M2399.39 1094.51 L2404.27 1094.51 L2404.27 1100.39 L2399.39 1100.39 L2399.39 1094.51 Z" fill="#000000" fill-rule="nonzero" fill-opacity="1" /><path clip-path="url(#clip710)" d="M2413.28 1065.83 L2435.5 1065.83 L2435.5 1067.82 L2422.95 1100.39 L2418.07 1100.39 L2429.88 1069.77 L2413.28 1069.77 L2413.28 1065.83 Z" fill="#000000" fill-rule="nonzero" fill-opacity="1" /><path clip-path="url(#clip710)" d="M2444.67 1065.83 L2463.02 1065.83 L2463.02 1069.77 L2448.95 1069.77 L2448.95 1078.24 Q2449.97 1077.89 2450.99 1077.73 Q2452.01 1077.55 2453.02 1077.55 Q2458.81 1077.55 2462.19 1080.72 Q2465.57 1083.89 2465.57 1089.31 Q2465.57 1094.88 2462.1 1097.99 Q2458.63 1101.07 2452.31 1101.07 Q2450.13 1101.07 2447.86 1100.69 Q2445.62 1100.32 2443.21 1099.58 L2443.21 1094.88 Q2445.29 1096.02 2447.51 1096.57 Q2449.74 1097.13 2452.21 1097.13 Q2456.22 1097.13 2458.56 1095.02 Q2460.89 1092.92 2460.89 1089.31 Q2460.89 1085.69 2458.56 1083.59 Q2456.22 1081.48 2452.21 1081.48 Q2450.34 1081.48 2448.46 1081.9 Q2446.61 1082.32 2444.67 1083.19 L2444.67 1065.83 Z" fill="#000000" fill-rule="nonzero" fill-opacity="1" /><path clip-path="url(#clip710)" d="M3022.75 1096.46 L3030.39 1096.46 L3030.39 1070.09 L3022.08 1071.76 L3022.08 1067.5 L3030.34 1065.83 L3035.02 1065.83 L3035.02 1096.46 L3042.66 1096.46 L3042.66 1100.39 L3022.75 1100.39 L3022.75 1096.46 Z" fill="#000000" fill-rule="nonzero" fill-opacity="1" /><path clip-path="url(#clip710)" d="M3052.1 1094.51 L3056.99 1094.51 L3056.99 1100.39 L3052.1 1100.39 L3052.1 1094.51 Z" fill="#000000" fill-rule="nonzero" fill-opacity="1" /><path clip-path="url(#clip710)" d="M3077.17 1068.91 Q3073.56 1068.91 3071.73 1072.48 Q3069.93 1076.02 3069.93 1083.15 Q3069.93 1090.25 3071.73 1093.82 Q3073.56 1097.36 3077.17 1097.36 Q3080.81 1097.36 3082.61 1093.82 Q3084.44 1090.25 3084.44 1083.15 Q3084.44 1076.02 3082.61 1072.48 Q3080.81 1068.91 3077.17 1068.91 M3077.17 1065.21 Q3082.98 1065.21 3086.04 1069.82 Q3089.12 1074.4 3089.12 1083.15 Q3089.12 1091.88 3086.04 1096.48 Q3082.98 1101.07 3077.17 1101.07 Q3071.36 1101.07 3068.28 1096.48 Q3065.23 1091.88 3065.23 1083.15 Q3065.23 1074.4 3068.28 1069.82 Q3071.36 1065.21 3077.17 1065.21 Z" fill="#000000" fill-rule="nonzero" fill-opacity="1" /><path clip-path="url(#clip710)" d="M3107.33 1068.91 Q3103.72 1068.91 3101.89 1072.48 Q3100.09 1076.02 3100.09 1083.15 Q3100.09 1090.25 3101.89 1093.82 Q3103.72 1097.36 3107.33 1097.36 Q3110.97 1097.36 3112.77 1093.82 Q3114.6 1090.25 3114.6 1083.15 Q3114.6 1076.02 3112.77 1072.48 Q3110.97 1068.91 3107.33 1068.91 M3107.33 1065.21 Q3113.14 1065.21 3116.2 1069.82 Q3119.28 1074.4 3119.28 1083.15 Q3119.28 1091.88 3116.2 1096.48 Q3113.14 1101.07 3107.33 1101.07 Q3101.52 1101.07 3098.44 1096.48 Q3095.39 1091.88 3095.39 1083.15 Q3095.39 1074.4 3098.44 1069.82 Q3101.52 1065.21 3107.33 1065.21 Z" fill="#000000" fill-rule="nonzero" fill-opacity="1" /><path clip-path="url(#clip710)" d="M1694.02 1138.93 L1699.9 1138.93 L1699.9 1168.18 L1717.38 1152.81 L1724.86 1152.81 L1705.95 1169.49 L1725.65 1188.46 L1718.01 1188.46 L1699.9 1171.05 L1699.9 1188.46 L1694.02 1188.46 L1694.02 1138.93 Z" fill="#000000" fill-rule="nonzero" fill-opacity="1" /><polyline clip-path="url(#clip712)" style="stroke:#000000; stroke-linecap:round; stroke-linejoin:round; stroke-width:2; stroke-opacity:0.1; fill:none" points="298.41,1031.59 3121.26,1031.59 "/>
<polyline clip-path="url(#clip712)" style="stroke:#000000; stroke-linecap:round; stroke-linejoin:round; stroke-width:2; stroke-opacity:0.1; fill:none" points="298.41,839.314 3121.26,839.314 "/>
<polyline clip-path="url(#clip712)" style="stroke:#000000; stroke-linecap:round; stroke-linejoin:round; stroke-width:2; stroke-opacity:0.1; fill:none" points="298.41,647.034 3121.26,647.034 "/>
<polyline clip-path="url(#clip712)" style="stroke:#000000; stroke-linecap:round; stroke-linejoin:round; stroke-width:2; stroke-opacity:0.1; fill:none" points="298.41,454.754 3121.26,454.754 "/>
<polyline clip-path="url(#clip712)" style="stroke:#000000; stroke-linecap:round; stroke-linejoin:round; stroke-width:2; stroke-opacity:0.1; fill:none" points="298.41,262.474 3121.26,262.474 "/>
<polyline clip-path="url(#clip710)" style="stroke:#000000; stroke-linecap:round; stroke-linejoin:round; stroke-width:4; stroke-opacity:1; fill:none" points="298.41,1031.59 298.41,78.7402 "/>
<polyline clip-path="url(#clip710)" style="stroke:#000000; stroke-linecap:round; stroke-linejoin:round; stroke-width:4; stroke-opacity:1; fill:none" points="298.41,1031.59 317.308,1031.59 "/>
<polyline clip-path="url(#clip710)" style="stroke:#000000; stroke-linecap:round; stroke-linejoin:round; stroke-width:4; stroke-opacity:1; fill:none" points="298.41,839.314 317.308,839.314 "/>
<polyline clip-path="url(#clip710)" style="stroke:#000000; stroke-linecap:round; stroke-linejoin:round; stroke-width:4; stroke-opacity:1; fill:none" points="298.41,647.034 317.308,647.034 "/>
<polyline clip-path="url(#clip710)" style="stroke:#000000; stroke-linecap:round; stroke-linejoin:round; stroke-width:4; stroke-opacity:1; fill:none" points="298.41,454.754 317.308,454.754 "/>
<polyline clip-path="url(#clip710)" style="stroke:#000000; stroke-linecap:round; stroke-linejoin:round; stroke-width:4; stroke-opacity:1; fill:none" points="298.41,262.474 317.308,262.474 "/>
<path clip-path="url(#clip710)" d="M132.911 1017.39 Q129.3 1017.39 127.471 1020.96 Q125.665 1024.5 125.665 1031.63 Q125.665 1038.73 127.471 1042.3 Q129.3 1045.84 132.911 1045.84 Q136.545 1045.84 138.35 1042.3 Q140.179 1038.73 140.179 1031.63 Q140.179 1024.5 138.35 1020.96 Q136.545 1017.39 132.911 1017.39 M132.911 1013.69 Q138.721 1013.69 141.776 1018.3 Q144.855 1022.88 144.855 1031.63 Q144.855 1040.36 141.776 1044.96 Q138.721 1049.55 132.911 1049.55 Q127.1 1049.55 124.022 1044.96 Q120.966 1040.36 120.966 1031.63 Q120.966 1022.88 124.022 1018.3 Q127.1 1013.69 132.911 1013.69 Z" fill="#000000" fill-rule="nonzero" fill-opacity="1" /><path clip-path="url(#clip710)" d="M153.073 1042.99 L157.957 1042.99 L157.957 1048.87 L153.073 1048.87 L153.073 1042.99 Z" fill="#000000" fill-rule="nonzero" fill-opacity="1" /><path clip-path="url(#clip710)" d="M178.142 1017.39 Q174.531 1017.39 172.702 1020.96 Q170.897 1024.5 170.897 1031.63 Q170.897 1038.73 172.702 1042.3 Q174.531 1045.84 178.142 1045.84 Q181.776 1045.84 183.582 1042.3 Q185.41 1038.73 185.41 1031.63 Q185.41 1024.5 183.582 1020.96 Q181.776 1017.39 178.142 1017.39 M178.142 1013.69 Q183.952 1013.69 187.008 1018.3 Q190.086 1022.88 190.086 1031.63 Q190.086 1040.36 187.008 1044.96 Q183.952 1049.55 178.142 1049.55 Q172.332 1049.55 169.253 1044.96 Q166.197 1040.36 166.197 1031.63 Q166.197 1022.88 169.253 1018.3 Q172.332 1013.69 178.142 1013.69 Z" fill="#000000" fill-rule="nonzero" fill-opacity="1" /><path clip-path="url(#clip710)" d="M208.304 1017.39 Q204.693 1017.39 202.864 1020.96 Q201.058 1024.5 201.058 1031.63 Q201.058 1038.73 202.864 1042.3 Q204.693 1045.84 208.304 1045.84 Q211.938 1045.84 213.744 1042.3 Q215.572 1038.73 215.572 1031.63 Q215.572 1024.5 213.744 1020.96 Q211.938 1017.39 208.304 1017.39 M208.304 1013.69 Q214.114 1013.69 217.169 1018.3 Q220.248 1022.88 220.248 1031.63 Q220.248 1040.36 217.169 1044.96 Q214.114 1049.55 208.304 1049.55 Q202.494 1049.55 199.415 1044.96 Q196.359 1040.36 196.359 1031.63 Q196.359 1022.88 199.415 1018.3 Q202.494 1013.69 208.304 1013.69 Z" fill="#000000" fill-rule="nonzero" fill-opacity="1" /><path clip-path="url(#clip710)" d="M238.466 1017.39 Q234.854 1017.39 233.026 1020.96 Q231.22 1024.5 231.22 1031.63 Q231.22 1038.73 233.026 1042.3 Q234.854 1045.84 238.466 1045.84 Q242.1 1045.84 243.905 1042.3 Q245.734 1038.73 245.734 1031.63 Q245.734 1024.5 243.905 1020.96 Q242.1 1017.39 238.466 1017.39 M238.466 1013.69 Q244.276 1013.69 247.331 1018.3 Q250.41 1022.88 250.41 1031.63 Q250.41 1040.36 247.331 1044.96 Q244.276 1049.55 238.466 1049.55 Q232.655 1049.55 229.577 1044.96 Q226.521 1040.36 226.521 1031.63 Q226.521 1022.88 229.577 1018.3 Q232.655 1013.69 238.466 1013.69 Z" fill="#000000" fill-rule="nonzero" fill-opacity="1" /><path clip-path="url(#clip710)" d="M133.906 825.113 Q130.295 825.113 128.466 828.677 Q126.661 832.219 126.661 839.349 Q126.661 846.455 128.466 850.02 Q130.295 853.562 133.906 853.562 Q137.54 853.562 139.346 850.02 Q141.174 846.455 141.174 839.349 Q141.174 832.219 139.346 828.677 Q137.54 825.113 133.906 825.113 M133.906 821.409 Q139.716 821.409 142.772 826.015 Q145.85 830.599 145.85 839.349 Q145.85 848.075 142.772 852.682 Q139.716 857.265 133.906 857.265 Q128.096 857.265 125.017 852.682 Q121.962 848.075 121.962 839.349 Q121.962 830.599 125.017 826.015 Q128.096 821.409 133.906 821.409 Z" fill="#000000" fill-rule="nonzero" fill-opacity="1" /><path clip-path="url(#clip710)" d="M154.068 850.714 L158.952 850.714 L158.952 856.594 L154.068 856.594 L154.068 850.714 Z" fill="#000000" fill-rule="nonzero" fill-opacity="1" /><path clip-path="url(#clip710)" d="M179.137 825.113 Q175.526 825.113 173.697 828.677 Q171.892 832.219 171.892 839.349 Q171.892 846.455 173.697 850.02 Q175.526 853.562 179.137 853.562 Q182.771 853.562 184.577 850.02 Q186.406 846.455 186.406 839.349 Q186.406 832.219 184.577 828.677 Q182.771 825.113 179.137 825.113 M179.137 821.409 Q184.947 821.409 188.003 826.015 Q191.082 830.599 191.082 839.349 Q191.082 848.075 188.003 852.682 Q184.947 857.265 179.137 857.265 Q173.327 857.265 170.248 852.682 Q167.193 848.075 167.193 839.349 Q167.193 830.599 170.248 826.015 Q173.327 821.409 179.137 821.409 Z" fill="#000000" fill-rule="nonzero" fill-opacity="1" /><path clip-path="url(#clip710)" d="M203.327 852.659 L219.646 852.659 L219.646 856.594 L197.702 856.594 L197.702 852.659 Q200.364 849.904 204.947 845.275 Q209.554 840.622 210.734 839.279 Q212.98 836.756 213.859 835.02 Q214.762 833.261 214.762 831.571 Q214.762 828.816 212.818 827.08 Q210.896 825.344 207.794 825.344 Q205.595 825.344 203.142 826.108 Q200.711 826.872 197.933 828.423 L197.933 823.701 Q200.757 822.566 203.211 821.988 Q205.665 821.409 207.702 821.409 Q213.072 821.409 216.267 824.094 Q219.461 826.779 219.461 831.27 Q219.461 833.4 218.651 835.321 Q217.864 837.219 215.757 839.812 Q215.179 840.483 212.077 843.7 Q208.975 846.895 203.327 852.659 Z" fill="#000000" fill-rule="nonzero" fill-opacity="1" /><path clip-path="url(#clip710)" d="M229.507 822.034 L247.864 822.034 L247.864 825.969 L233.79 825.969 L233.79 834.441 Q234.808 834.094 235.827 833.932 Q236.845 833.747 237.864 833.747 Q243.651 833.747 247.03 836.918 Q250.41 840.089 250.41 845.506 Q250.41 851.085 246.938 854.187 Q243.466 857.265 237.146 857.265 Q234.97 857.265 232.702 856.895 Q230.456 856.524 228.049 855.784 L228.049 851.085 Q230.132 852.219 232.355 852.774 Q234.577 853.33 237.054 853.33 Q241.058 853.33 243.396 851.224 Q245.734 849.117 245.734 845.506 Q245.734 841.895 243.396 839.788 Q241.058 837.682 237.054 837.682 Q235.179 837.682 233.304 838.099 Q231.452 838.515 229.507 839.395 L229.507 822.034 Z" fill="#000000" fill-rule="nonzero" fill-opacity="1" /><path clip-path="url(#clip710)" d="M132.911 632.833 Q129.3 632.833 127.471 636.398 Q125.665 639.939 125.665 647.069 Q125.665 654.175 127.471 657.74 Q129.3 661.282 132.911 661.282 Q136.545 661.282 138.35 657.74 Q140.179 654.175 140.179 647.069 Q140.179 639.939 138.35 636.398 Q136.545 632.833 132.911 632.833 M132.911 629.129 Q138.721 629.129 141.776 633.735 Q144.855 638.319 144.855 647.069 Q144.855 655.796 141.776 660.402 Q138.721 664.985 132.911 664.985 Q127.1 664.985 124.022 660.402 Q120.966 655.796 120.966 647.069 Q120.966 638.319 124.022 633.735 Q127.1 629.129 132.911 629.129 Z" fill="#000000" fill-rule="nonzero" fill-opacity="1" /><path clip-path="url(#clip710)" d="M153.073 658.434 L157.957 658.434 L157.957 664.314 L153.073 664.314 L153.073 658.434 Z" fill="#000000" fill-rule="nonzero" fill-opacity="1" /><path clip-path="url(#clip710)" d="M178.142 632.833 Q174.531 632.833 172.702 636.398 Q170.897 639.939 170.897 647.069 Q170.897 654.175 172.702 657.74 Q174.531 661.282 178.142 661.282 Q181.776 661.282 183.582 657.74 Q185.41 654.175 185.41 647.069 Q185.41 639.939 183.582 636.398 Q181.776 632.833 178.142 632.833 M178.142 629.129 Q183.952 629.129 187.008 633.735 Q190.086 638.319 190.086 647.069 Q190.086 655.796 187.008 660.402 Q183.952 664.985 178.142 664.985 Q172.332 664.985 169.253 660.402 Q166.197 655.796 166.197 647.069 Q166.197 638.319 169.253 633.735 Q172.332 629.129 178.142 629.129 Z" fill="#000000" fill-rule="nonzero" fill-opacity="1" /><path clip-path="url(#clip710)" d="M198.35 629.754 L216.706 629.754 L216.706 633.689 L202.632 633.689 L202.632 642.161 Q203.651 641.814 204.669 641.652 Q205.688 641.467 206.707 641.467 Q212.494 641.467 215.873 644.638 Q219.253 647.809 219.253 653.226 Q219.253 658.805 215.781 661.907 Q212.308 664.985 205.989 664.985 Q203.813 664.985 201.544 664.615 Q199.299 664.245 196.892 663.504 L196.892 658.805 Q198.975 659.939 201.197 660.495 Q203.419 661.05 205.896 661.05 Q209.901 661.05 212.239 658.944 Q214.577 656.837 214.577 653.226 Q214.577 649.615 212.239 647.509 Q209.901 645.402 205.896 645.402 Q204.021 645.402 202.146 645.819 Q200.294 646.235 198.35 647.115 L198.35 629.754 Z" fill="#000000" fill-rule="nonzero" fill-opacity="1" /><path clip-path="url(#clip710)" d="M238.466 632.833 Q234.854 632.833 233.026 636.398 Q231.22 639.939 231.22 647.069 Q231.22 654.175 233.026 657.74 Q234.854 661.282 238.466 661.282 Q242.1 661.282 243.905 657.74 Q245.734 654.175 245.734 647.069 Q245.734 639.939 243.905 636.398 Q242.1 632.833 238.466 632.833 M238.466 629.129 Q244.276 629.129 247.331 633.735 Q250.41 638.319 250.41 647.069 Q250.41 655.796 247.331 660.402 Q244.276 664.985 238.466 664.985 Q232.655 664.985 229.577 660.402 Q226.521 655.796 226.521 647.069 Q226.521 638.319 229.577 633.735 Q232.655 629.129 238.466 629.129 Z" fill="#000000" fill-rule="nonzero" fill-opacity="1" /><path clip-path="url(#clip710)" d="M133.906 440.553 Q130.295 440.553 128.466 444.118 Q126.661 447.659 126.661 454.789 Q126.661 461.895 128.466 465.46 Q130.295 469.002 133.906 469.002 Q137.54 469.002 139.346 465.46 Q141.174 461.895 141.174 454.789 Q141.174 447.659 139.346 444.118 Q137.54 440.553 133.906 440.553 M133.906 436.849 Q139.716 436.849 142.772 441.456 Q145.85 446.039 145.85 454.789 Q145.85 463.516 142.772 468.122 Q139.716 472.705 133.906 472.705 Q128.096 472.705 125.017 468.122 Q121.962 463.516 121.962 454.789 Q121.962 446.039 125.017 441.456 Q128.096 436.849 133.906 436.849 Z" fill="#000000" fill-rule="nonzero" fill-opacity="1" /><path clip-path="url(#clip710)" d="M154.068 466.155 L158.952 466.155 L158.952 472.034 L154.068 472.034 L154.068 466.155 Z" fill="#000000" fill-rule="nonzero" fill-opacity="1" /><path clip-path="url(#clip710)" d="M179.137 440.553 Q175.526 440.553 173.697 444.118 Q171.892 447.659 171.892 454.789 Q171.892 461.895 173.697 465.46 Q175.526 469.002 179.137 469.002 Q182.771 469.002 184.577 465.46 Q186.406 461.895 186.406 454.789 Q186.406 447.659 184.577 444.118 Q182.771 440.553 179.137 440.553 M179.137 436.849 Q184.947 436.849 188.003 441.456 Q191.082 446.039 191.082 454.789 Q191.082 463.516 188.003 468.122 Q184.947 472.705 179.137 472.705 Q173.327 472.705 170.248 468.122 Q167.193 463.516 167.193 454.789 Q167.193 446.039 170.248 441.456 Q173.327 436.849 179.137 436.849 Z" fill="#000000" fill-rule="nonzero" fill-opacity="1" /><path clip-path="url(#clip710)" d="M198.119 437.474 L220.341 437.474 L220.341 439.465 L207.794 472.034 L202.91 472.034 L214.716 441.409 L198.119 441.409 L198.119 437.474 Z" fill="#000000" fill-rule="nonzero" fill-opacity="1" /><path clip-path="url(#clip710)" d="M229.507 437.474 L247.864 437.474 L247.864 441.409 L233.79 441.409 L233.79 449.881 Q234.808 449.534 235.827 449.372 Q236.845 449.187 237.864 449.187 Q243.651 449.187 247.03 452.358 Q250.41 455.53 250.41 460.946 Q250.41 466.525 246.938 469.627 Q243.466 472.705 237.146 472.705 Q234.97 472.705 232.702 472.335 Q230.456 471.965 228.049 471.224 L228.049 466.525 Q230.132 467.659 232.355 468.215 Q234.577 468.77 237.054 468.77 Q241.058 468.77 243.396 466.664 Q245.734 464.557 245.734 460.946 Q245.734 457.335 243.396 455.229 Q241.058 453.122 237.054 453.122 Q235.179 453.122 233.304 453.539 Q231.452 453.956 229.507 454.835 L229.507 437.474 Z" fill="#000000" fill-rule="nonzero" fill-opacity="1" /><path clip-path="url(#clip710)" d="M132.911 248.273 Q129.3 248.273 127.471 251.838 Q125.665 255.379 125.665 262.509 Q125.665 269.615 127.471 273.18 Q129.3 276.722 132.911 276.722 Q136.545 276.722 138.35 273.18 Q140.179 269.615 140.179 262.509 Q140.179 255.379 138.35 251.838 Q136.545 248.273 132.911 248.273 M132.911 244.569 Q138.721 244.569 141.776 249.176 Q144.855 253.759 144.855 262.509 Q144.855 271.236 141.776 275.842 Q138.721 280.426 132.911 280.426 Q127.1 280.426 124.022 275.842 Q120.966 271.236 120.966 262.509 Q120.966 253.759 124.022 249.176 Q127.1 244.569 132.911 244.569 Z" fill="#000000" fill-rule="nonzero" fill-opacity="1" /><path clip-path="url(#clip710)" d="M153.073 273.875 L157.957 273.875 L157.957 279.754 L153.073 279.754 L153.073 273.875 Z" fill="#000000" fill-rule="nonzero" fill-opacity="1" /><path clip-path="url(#clip710)" d="M168.952 275.819 L176.591 275.819 L176.591 249.454 L168.281 251.12 L168.281 246.861 L176.545 245.194 L181.221 245.194 L181.221 275.819 L188.859 275.819 L188.859 279.754 L168.952 279.754 L168.952 275.819 Z" fill="#000000" fill-rule="nonzero" fill-opacity="1" /><path clip-path="url(#clip710)" d="M208.304 248.273 Q204.693 248.273 202.864 251.838 Q201.058 255.379 201.058 262.509 Q201.058 269.615 202.864 273.18 Q204.693 276.722 208.304 276.722 Q211.938 276.722 213.744 273.18 Q215.572 269.615 215.572 262.509 Q215.572 255.379 213.744 251.838 Q211.938 248.273 208.304 248.273 M208.304 244.569 Q214.114 244.569 217.169 249.176 Q220.248 253.759 220.248 262.509 Q220.248 271.236 217.169 275.842 Q214.114 280.426 208.304 280.426 Q202.494 280.426 199.415 275.842 Q196.359 271.236 196.359 262.509 Q196.359 253.759 199.415 249.176 Q202.494 244.569 208.304 244.569 Z" fill="#000000" fill-rule="nonzero" fill-opacity="1" /><path clip-path="url(#clip710)" d="M238.466 248.273 Q234.854 248.273 233.026 251.838 Q231.22 255.379 231.22 262.509 Q231.22 269.615 233.026 273.18 Q234.854 276.722 238.466 276.722 Q242.1 276.722 243.905 273.18 Q245.734 269.615 245.734 262.509 Q245.734 255.379 243.905 251.838 Q242.1 248.273 238.466 248.273 M238.466 244.569 Q244.276 244.569 247.331 249.176 Q250.41 253.759 250.41 262.509 Q250.41 271.236 247.331 275.842 Q244.276 280.426 238.466 280.426 Q232.655 280.426 229.577 275.842 Q226.521 271.236 226.521 262.509 Q226.521 253.759 229.577 249.176 Q232.655 244.569 238.466 244.569 Z" fill="#000000" fill-rule="nonzero" fill-opacity="1" /><path clip-path="url(#clip710)" d="M16.4738 899.727 L34.3296 899.727 L34.3296 891.642 Q34.3296 887.154 32.0061 884.704 Q29.6826 882.253 25.3857 882.253 Q21.1207 882.253 18.7972 884.704 Q16.4738 887.154 16.4738 891.642 L16.4738 899.727 M11.1902 906.156 L11.1902 891.642 Q11.1902 883.653 14.8187 879.579 Q18.4153 875.473 25.3857 875.473 Q32.4199 875.473 36.0165 879.579 Q39.6131 883.653 39.6131 891.642 L39.6131 899.727 L58.7102 899.727 L58.7102 906.156 L11.1902 906.156 Z" fill="#000000" fill-rule="nonzero" fill-opacity="1" /><path clip-path="url(#clip710)" d="M28.5368 847.592 Q27.9639 848.578 27.7092 849.756 Q27.4228 850.902 27.4228 852.302 Q27.4228 857.267 30.6693 859.941 Q33.884 862.583 39.9314 862.583 L58.7102 862.583 L58.7102 868.471 L23.0623 868.471 L23.0623 862.583 L28.6004 862.583 Q25.3539 860.737 23.7943 857.777 Q22.2029 854.817 22.2029 850.583 Q22.2029 849.979 22.2984 849.247 Q22.362 848.515 22.5212 847.623 L28.5368 847.592 Z" fill="#000000" fill-rule="nonzero" fill-opacity="1" /><path clip-path="url(#clip710)" d="M27.1681 829.067 Q27.1681 833.778 30.8603 836.515 Q34.5205 839.253 40.9181 839.253 Q47.3156 839.253 51.0077 836.547 Q54.668 833.81 54.668 829.067 Q54.668 824.389 50.9759 821.651 Q47.2838 818.914 40.9181 818.914 Q34.5842 818.914 30.8921 821.651 Q27.1681 824.389 27.1681 829.067 M22.2029 829.067 Q22.2029 821.429 27.1681 817.068 Q32.1334 812.708 40.9181 812.708 Q49.6709 812.708 54.668 817.068 Q59.6332 821.429 59.6332 829.067 Q59.6332 836.738 54.668 841.099 Q49.6709 845.427 40.9181 845.427 Q32.1334 845.427 27.1681 841.099 Q22.2029 836.738 22.2029 829.067 Z" fill="#000000" fill-rule="nonzero" fill-opacity="1" /><path clip-path="url(#clip710)" d="M53.363 797.334 L72.2692 797.334 L72.2692 803.223 L23.0623 803.223 L23.0623 797.334 L28.4731 797.334 Q25.2903 795.488 23.7625 792.687 Q22.2029 789.855 22.2029 785.94 Q22.2029 779.447 27.3591 775.405 Q32.5153 771.33 40.9181 771.33 Q49.3208 771.33 54.477 775.405 Q59.6332 779.447 59.6332 785.94 Q59.6332 789.855 58.1055 792.687 Q56.5459 795.488 53.363 797.334 M40.9181 777.41 Q34.4569 777.41 30.7966 780.083 Q27.1045 782.725 27.1045 787.372 Q27.1045 792.019 30.7966 794.693 Q34.4569 797.334 40.9181 797.334 Q47.3793 797.334 51.0714 794.693 Q54.7317 792.019 54.7317 787.372 Q54.7317 782.725 51.0714 780.083 Q47.3793 777.41 40.9181 777.41 Z" fill="#000000" fill-rule="nonzero" fill-opacity="1" /><path clip-path="url(#clip710)" d="M27.1681 747.809 Q27.1681 752.52 30.8603 755.257 Q34.5205 757.994 40.9181 757.994 Q47.3156 757.994 51.0077 755.289 Q54.668 752.552 54.668 747.809 Q54.668 743.13 50.9759 740.393 Q47.2838 737.656 40.9181 737.656 Q34.5842 737.656 30.8921 740.393 Q27.1681 743.13 27.1681 747.809 M22.2029 747.809 Q22.2029 740.17 27.1681 735.81 Q32.1334 731.449 40.9181 731.449 Q49.6709 731.449 54.668 735.81 Q59.6332 740.17 59.6332 747.809 Q59.6332 755.48 54.668 759.84 Q49.6709 764.169 40.9181 764.169 Q32.1334 764.169 27.1681 759.84 Q22.2029 755.48 22.2029 747.809 Z" fill="#000000" fill-rule="nonzero" fill-opacity="1" /><path clip-path="url(#clip710)" d="M28.5368 701.085 Q27.9639 702.072 27.7092 703.249 Q27.4228 704.395 27.4228 705.796 Q27.4228 710.761 30.6693 713.434 Q33.884 716.076 39.9314 716.076 L58.7102 716.076 L58.7102 721.964 L23.0623 721.964 L23.0623 716.076 L28.6004 716.076 Q25.3539 714.23 23.7943 711.27 Q22.2029 708.31 22.2029 704.077 Q22.2029 703.472 22.2984 702.74 Q22.362 702.008 22.5212 701.117 L28.5368 701.085 Z" fill="#000000" fill-rule="nonzero" fill-opacity="1" /><path clip-path="url(#clip710)" d="M12.9408 689.149 L23.0623 689.149 L23.0623 677.086 L27.6137 677.086 L27.6137 689.149 L46.9655 689.149 Q51.326 689.149 52.5673 687.972 Q53.8086 686.762 53.8086 683.102 L53.8086 677.086 L58.7102 677.086 L58.7102 683.102 Q58.7102 689.881 56.1958 692.459 Q53.6495 695.037 46.9655 695.037 L27.6137 695.037 L27.6137 699.334 L23.0623 699.334 L23.0623 695.037 L12.9408 695.037 L12.9408 689.149 Z" fill="#000000" fill-rule="nonzero" fill-opacity="1" /><path clip-path="url(#clip710)" d="M23.0623 669.384 L23.0623 663.527 L58.7102 663.527 L58.7102 669.384 L23.0623 669.384 M9.18502 669.384 L9.18502 663.527 L16.6011 663.527 L16.6011 669.384 L9.18502 669.384 Z" fill="#000000" fill-rule="nonzero" fill-opacity="1" /><path clip-path="url(#clip710)" d="M27.1681 637.46 Q27.1681 642.17 30.8603 644.908 Q34.5205 647.645 40.9181 647.645 Q47.3156 647.645 51.0077 644.939 Q54.668 642.202 54.668 637.46 Q54.668 632.781 50.9759 630.044 Q47.2838 627.306 40.9181 627.306 Q34.5842 627.306 30.8921 630.044 Q27.1681 632.781 27.1681 637.46 M22.2029 637.46 Q22.2029 629.821 27.1681 625.46 Q32.1334 621.1 40.9181 621.1 Q49.6709 621.1 54.668 625.46 Q59.6332 629.821 59.6332 637.46 Q59.6332 645.13 54.668 649.491 Q49.6709 653.82 40.9181 653.82 Q32.1334 653.82 27.1681 649.491 Q22.2029 645.13 22.2029 637.46 Z" fill="#000000" fill-rule="nonzero" fill-opacity="1" /><path clip-path="url(#clip710)" d="M37.1941 581.76 L58.7102 581.76 L58.7102 587.616 L37.3851 587.616 Q32.3244 587.616 29.8099 589.59 Q27.2955 591.563 27.2955 595.51 Q27.2955 600.252 30.3192 602.989 Q33.3429 605.727 38.5628 605.727 L58.7102 605.727 L58.7102 611.615 L23.0623 611.615 L23.0623 605.727 L28.6004 605.727 Q25.3857 603.626 23.7943 600.793 Q22.2029 597.929 22.2029 594.205 Q22.2029 588.062 26.0223 584.911 Q29.8099 581.76 37.1941 581.76 Z" fill="#000000" fill-rule="nonzero" fill-opacity="1" /><path clip-path="url(#clip710)" d="M27.1681 535.545 Q27.1681 540.255 30.8603 542.993 Q34.5205 545.73 40.9181 545.73 Q47.3156 545.73 51.0077 543.024 Q54.668 540.287 54.668 535.545 Q54.668 530.866 50.9759 528.129 Q47.2838 525.391 40.9181 525.391 Q34.5842 525.391 30.8921 528.129 Q27.1681 530.866 27.1681 535.545 M22.2029 535.545 Q22.2029 527.906 27.1681 523.545 Q32.1334 519.185 40.9181 519.185 Q49.6709 519.185 54.668 523.545 Q59.6332 527.906 59.6332 535.545 Q59.6332 543.215 54.668 547.576 Q49.6709 551.905 40.9181 551.905 Q32.1334 551.905 27.1681 547.576 Q22.2029 543.215 22.2029 535.545 Z" fill="#000000" fill-rule="nonzero" fill-opacity="1" /><path clip-path="url(#clip710)" d="M9.18502 491.43 L14.0548 491.43 L14.0548 497.032 Q14.0548 500.183 15.3279 501.424 Q16.6011 502.634 19.9112 502.634 L23.0623 502.634 L23.0623 492.99 L27.6137 492.99 L27.6137 502.634 L58.7102 502.634 L58.7102 508.522 L27.6137 508.522 L27.6137 514.124 L23.0623 514.124 L23.0623 508.522 L20.5796 508.522 Q14.6277 508.522 11.9223 505.753 Q9.18502 502.984 9.18502 496.968 L9.18502 491.43 Z" fill="#000000" fill-rule="nonzero" fill-opacity="1" /><path clip-path="url(#clip710)" d="M24.1126 443.083 L29.6508 443.083 Q28.3776 445.565 27.7411 448.239 Q27.1045 450.913 27.1045 453.777 Q27.1045 458.138 28.4413 460.334 Q29.7781 462.498 32.4517 462.498 Q34.4887 462.498 35.6664 460.939 Q36.8122 459.379 37.8625 454.668 L38.3081 452.663 Q39.6449 446.425 42.0957 443.815 Q44.5147 441.173 48.8752 441.173 Q53.8405 441.173 56.7369 445.12 Q59.6332 449.035 59.6332 455.91 Q59.6332 458.774 59.0603 461.893 Q58.5192 464.981 57.4053 468.418 L51.3578 468.418 Q53.0447 465.172 53.9041 462.021 Q54.7317 458.87 54.7317 455.782 Q54.7317 451.645 53.3312 449.417 Q51.8989 447.189 49.3208 447.189 Q46.9337 447.189 45.6605 448.812 Q44.3874 450.403 43.2097 455.846 L42.7323 457.883 Q41.5865 463.326 39.2312 465.745 Q36.844 468.164 32.7063 468.164 Q27.6774 468.164 24.9401 464.599 Q22.2029 461.034 22.2029 454.477 Q22.2029 451.231 22.6803 448.366 Q23.1577 445.502 24.1126 443.083 Z" fill="#000000" fill-rule="nonzero" fill-opacity="1" /><path clip-path="url(#clip710)" d="M40.7908 415.647 Q40.7908 422.744 42.414 425.482 Q44.0373 428.219 47.9522 428.219 Q51.0714 428.219 52.9174 426.182 Q54.7317 424.113 54.7317 420.58 Q54.7317 415.71 51.2942 412.782 Q47.8249 409.822 42.0957 409.822 L40.7908 409.822 L40.7908 415.647 M38.3718 403.966 L58.7102 403.966 L58.7102 409.822 L53.2994 409.822 Q56.5459 411.827 58.1055 414.819 Q59.6332 417.811 59.6332 422.14 Q59.6332 427.614 56.5777 430.861 Q53.4903 434.075 48.3341 434.075 Q42.3185 434.075 39.263 430.065 Q36.2074 426.023 36.2074 418.034 L36.2074 409.822 L35.6345 409.822 Q31.5923 409.822 29.3961 412.496 Q27.1681 415.137 27.1681 419.943 Q27.1681 422.999 27.9002 425.895 Q28.6323 428.792 30.0964 431.465 L24.6855 431.465 Q23.4442 428.251 22.8395 425.227 Q22.2029 422.203 22.2029 419.339 Q22.2029 411.604 26.2133 407.785 Q30.2237 403.966 38.3718 403.966 Z" fill="#000000" fill-rule="nonzero" fill-opacity="1" /><path clip-path="url(#clip710)" d="M29.9054 364.148 Q25.9587 361.952 24.0808 358.896 Q22.2029 355.841 22.2029 351.703 Q22.2029 346.133 26.1178 343.109 Q30.0009 340.086 37.1941 340.086 L58.7102 340.086 L58.7102 345.974 L37.3851 345.974 Q32.2607 345.974 29.7781 347.788 Q27.2955 349.602 27.2955 353.326 Q27.2955 357.878 30.3192 360.52 Q33.3429 363.161 38.5628 363.161 L58.7102 363.161 L58.7102 369.05 L37.3851 369.05 Q32.2289 369.05 29.7781 370.864 Q27.2955 372.678 27.2955 376.466 Q27.2955 380.953 30.351 383.595 Q33.3747 386.237 38.5628 386.237 L58.7102 386.237 L58.7102 392.125 L23.0623 392.125 L23.0623 386.237 L28.6004 386.237 Q25.3221 384.232 23.7625 381.431 Q22.2029 378.63 22.2029 374.779 Q22.2029 370.896 24.1763 368.19 Q26.1496 365.453 29.9054 364.148 Z" fill="#000000" fill-rule="nonzero" fill-opacity="1" /><path clip-path="url(#clip710)" d="M53.363 322.739 L72.2692 322.739 L72.2692 328.627 L23.0623 328.627 L23.0623 322.739 L28.4731 322.739 Q25.2903 320.893 23.7625 318.092 Q22.2029 315.259 22.2029 311.344 Q22.2029 304.851 27.3591 300.809 Q32.5153 296.735 40.9181 296.735 Q49.3208 296.735 54.477 300.809 Q59.6332 304.851 59.6332 311.344 Q59.6332 315.259 58.1055 318.092 Q56.5459 320.893 53.363 322.739 M40.9181 302.814 Q34.4569 302.814 30.7966 305.488 Q27.1045 308.13 27.1045 312.777 Q27.1045 317.424 30.7966 320.097 Q34.4569 322.739 40.9181 322.739 Q47.3793 322.739 51.0714 320.097 Q54.7317 317.424 54.7317 312.777 Q54.7317 308.13 51.0714 305.488 Q47.3793 302.814 40.9181 302.814 Z" fill="#000000" fill-rule="nonzero" fill-opacity="1" /><path clip-path="url(#clip710)" d="M9.18502 287.027 L9.18502 281.171 L58.7102 281.171 L58.7102 287.027 L9.18502 287.027 Z" fill="#000000" fill-rule="nonzero" fill-opacity="1" /><path clip-path="url(#clip710)" d="M39.4221 238.425 L42.2867 238.425 L42.2867 265.352 Q48.3341 264.97 51.517 261.724 Q54.668 258.445 54.668 252.621 Q54.668 249.247 53.8405 246.096 Q53.0129 242.913 51.3578 239.794 L56.896 239.794 Q58.2328 242.945 58.933 246.255 Q59.6332 249.565 59.6332 252.971 Q59.6332 261.501 54.668 266.498 Q49.7027 271.463 41.2364 271.463 Q32.4835 271.463 27.3591 266.753 Q22.2029 262.01 22.2029 253.989 Q22.2029 246.796 26.8499 242.627 Q31.465 238.425 39.4221 238.425 M37.7034 244.282 Q32.8973 244.345 30.0327 246.987 Q27.1681 249.597 27.1681 253.926 Q27.1681 258.827 29.9372 261.787 Q32.7063 264.716 37.7352 265.161 L37.7034 244.282 Z" fill="#000000" fill-rule="nonzero" fill-opacity="1" /><path clip-path="url(#clip710)" d="M24.1126 206.088 L29.6508 206.088 Q28.3776 208.57 27.7411 211.244 Q27.1045 213.917 27.1045 216.782 Q27.1045 221.142 28.4413 223.339 Q29.7781 225.503 32.4517 225.503 Q34.4887 225.503 35.6664 223.943 Q36.8122 222.384 37.8625 217.673 L38.3081 215.668 Q39.6449 209.43 42.0957 206.82 Q44.5147 204.178 48.8752 204.178 Q53.8405 204.178 56.7369 208.125 Q59.6332 212.039 59.6332 218.914 Q59.6332 221.779 59.0603 224.898 Q58.5192 227.986 57.4053 231.423 L51.3578 231.423 Q53.0447 228.177 53.9041 225.026 Q54.7317 221.874 54.7317 218.787 Q54.7317 214.649 53.3312 212.421 Q51.8989 210.193 49.3208 210.193 Q46.9337 210.193 45.6605 211.817 Q44.3874 213.408 43.2097 218.851 L42.7323 220.888 Q41.5865 226.33 39.2312 228.749 Q36.844 231.168 32.7063 231.168 Q27.6774 231.168 24.9401 227.604 Q22.2029 224.039 22.2029 217.482 Q22.2029 214.236 22.6803 211.371 Q23.1577 208.506 24.1126 206.088 Z" fill="#000000" fill-rule="nonzero" fill-opacity="1" /><path clip-path="url(#clip712)" d="M453.672 390.661 L453.672 1031.59 L506.012 1031.59 L506.012 390.661 L453.672 390.661 L453.672 390.661  Z" fill="#ff8c00" fill-rule="evenodd" fill-opacity="1"/>
<polyline clip-path="url(#clip712)" style="stroke:#000000; stroke-linecap:round; stroke-linejoin:round; stroke-width:4; stroke-opacity:1; fill:none" points="453.672,390.661 453.672,1031.59 506.012,1031.59 506.012,390.661 453.672,390.661 "/>
<path clip-path="url(#clip712)" d="M506.012 78.7402 L506.012 1031.59 L558.352 1031.59 L558.352 78.7402 L506.012 78.7402 L506.012 78.7402  Z" fill="#ff8c00" fill-rule="evenodd" fill-opacity="1"/>
<polyline clip-path="url(#clip712)" style="stroke:#000000; stroke-linecap:round; stroke-linejoin:round; stroke-width:4; stroke-opacity:1; fill:none" points="506.012,78.7402 506.012,1031.59 558.352,1031.59 558.352,78.7402 506.012,78.7402 "/>
<path clip-path="url(#clip712)" d="M558.352 313.749 L558.352 1031.59 L610.692 1031.59 L610.692 313.749 L558.352 313.749 L558.352 313.749  Z" fill="#ff8c00" fill-rule="evenodd" fill-opacity="1"/>
<polyline clip-path="url(#clip712)" style="stroke:#000000; stroke-linecap:round; stroke-linejoin:round; stroke-width:4; stroke-opacity:1; fill:none" points="558.352,313.749 558.352,1031.59 610.692,1031.59 610.692,313.749 558.352,313.749 "/>
<path clip-path="url(#clip712)" d="M610.692 275.293 L610.692 1031.59 L663.032 1031.59 L663.032 275.293 L610.692 275.293 L610.692 275.293  Z" fill="#ff8c00" fill-rule="evenodd" fill-opacity="1"/>
<polyline clip-path="url(#clip712)" style="stroke:#000000; stroke-linecap:round; stroke-linejoin:round; stroke-width:4; stroke-opacity:1; fill:none" points="610.692,275.293 610.692,1031.59 663.032,1031.59 663.032,275.293 610.692,275.293 "/>
<path clip-path="url(#clip712)" d="M663.032 540.212 L663.032 1031.59 L715.372 1031.59 L715.372 540.212 L663.032 540.212 L663.032 540.212  Z" fill="#ff8c00" fill-rule="evenodd" fill-opacity="1"/>
<polyline clip-path="url(#clip712)" style="stroke:#000000; stroke-linecap:round; stroke-linejoin:round; stroke-width:4; stroke-opacity:1; fill:none" points="663.032,540.212 663.032,1031.59 715.372,1031.59 715.372,540.212 663.032,540.212 "/>
<path clip-path="url(#clip712)" d="M715.372 471.846 L715.372 1031.59 L767.713 1031.59 L767.713 471.846 L715.372 471.846 L715.372 471.846  Z" fill="#ff8c00" fill-rule="evenodd" fill-opacity="1"/>
<polyline clip-path="url(#clip712)" style="stroke:#000000; stroke-linecap:round; stroke-linejoin:round; stroke-width:4; stroke-opacity:1; fill:none" points="715.372,471.846 715.372,1031.59 767.713,1031.59 767.713,471.846 715.372,471.846 "/>
<path clip-path="url(#clip712)" d="M767.713 741.038 L767.713 1031.59 L820.053 1031.59 L820.053 741.038 L767.713 741.038 L767.713 741.038  Z" fill="#ff8c00" fill-rule="evenodd" fill-opacity="1"/>
<polyline clip-path="url(#clip712)" style="stroke:#000000; stroke-linecap:round; stroke-linejoin:round; stroke-width:4; stroke-opacity:1; fill:none" points="767.713,741.038 767.713,1031.59 820.053,1031.59 820.053,741.038 767.713,741.038 "/>
<path clip-path="url(#clip712)" d="M820.053 634.215 L820.053 1031.59 L872.393 1031.59 L872.393 634.215 L820.053 634.215 L820.053 634.215  Z" fill="#ff8c00" fill-rule="evenodd" fill-opacity="1"/>
<polyline clip-path="url(#clip712)" style="stroke:#000000; stroke-linecap:round; stroke-linejoin:round; stroke-width:4; stroke-opacity:1; fill:none" points="820.053,634.215 820.053,1031.59 872.393,1031.59 872.393,634.215 820.053,634.215 "/>
<path clip-path="url(#clip712)" d="M872.393 830.768 L872.393 1031.59 L924.733 1031.59 L924.733 830.768 L872.393 830.768 L872.393 830.768  Z" fill="#ff8c00" fill-rule="evenodd" fill-opacity="1"/>
<polyline clip-path="url(#clip712)" style="stroke:#000000; stroke-linecap:round; stroke-linejoin:round; stroke-width:4; stroke-opacity:1; fill:none" points="872.393,830.768 872.393,1031.59 924.733,1031.59 924.733,830.768 872.393,830.768 "/>
<path clip-path="url(#clip712)" d="M924.733 813.677 L924.733 1031.59 L977.073 1031.59 L977.073 813.677 L924.733 813.677 L924.733 813.677  Z" fill="#ff8c00" fill-rule="evenodd" fill-opacity="1"/>
<polyline clip-path="url(#clip712)" style="stroke:#000000; stroke-linecap:round; stroke-linejoin:round; stroke-width:4; stroke-opacity:1; fill:none" points="924.733,813.677 924.733,1031.59 977.073,1031.59 977.073,813.677 924.733,813.677 "/>
<path clip-path="url(#clip712)" d="M977.073 758.129 L977.073 1031.59 L1029.41 1031.59 L1029.41 758.129 L977.073 758.129 L977.073 758.129  Z" fill="#ff8c00" fill-rule="evenodd" fill-opacity="1"/>
<polyline clip-path="url(#clip712)" style="stroke:#000000; stroke-linecap:round; stroke-linejoin:round; stroke-width:4; stroke-opacity:1; fill:none" points="977.073,758.129 977.073,1031.59 1029.41,1031.59 1029.41,758.129 977.073,758.129 "/>
<path clip-path="url(#clip712)" d="M1029.41 894.861 L1029.41 1031.59 L1081.75 1031.59 L1081.75 894.861 L1029.41 894.861 L1029.41 894.861  Z" fill="#ff8c00" fill-rule="evenodd" fill-opacity="1"/>
<polyline clip-path="url(#clip712)" style="stroke:#000000; stroke-linecap:round; stroke-linejoin:round; stroke-width:4; stroke-opacity:1; fill:none" points="1029.41,894.861 1029.41,1031.59 1081.75,1031.59 1081.75,894.861 1029.41,894.861 "/>
<path clip-path="url(#clip712)" d="M1081.75 706.854 L1081.75 1031.59 L1134.09 1031.59 L1134.09 706.854 L1081.75 706.854 L1081.75 706.854  Z" fill="#ff8c00" fill-rule="evenodd" fill-opacity="1"/>
<polyline clip-path="url(#clip712)" style="stroke:#000000; stroke-linecap:round; stroke-linejoin:round; stroke-width:4; stroke-opacity:1; fill:none" points="1081.75,706.854 1081.75,1031.59 1134.09,1031.59 1134.09,706.854 1081.75,706.854 "/>
<path clip-path="url(#clip712)" d="M1134.09 869.224 L1134.09 1031.59 L1186.43 1031.59 L1186.43 869.224 L1134.09 869.224 L1134.09 869.224  Z" fill="#ff8c00" fill-rule="evenodd" fill-opacity="1"/>
<polyline clip-path="url(#clip712)" style="stroke:#000000; stroke-linecap:round; stroke-linejoin:round; stroke-width:4; stroke-opacity:1; fill:none" points="1134.09,869.224 1134.09,1031.59 1186.43,1031.59 1186.43,869.224 1134.09,869.224 "/>
<path clip-path="url(#clip712)" d="M1186.43 899.134 L1186.43 1031.59 L1238.77 1031.59 L1238.77 899.134 L1186.43 899.134 L1186.43 899.134  Z" fill="#ff8c00" fill-rule="evenodd" fill-opacity="1"/>
<polyline clip-path="url(#clip712)" style="stroke:#000000; stroke-linecap:round; stroke-linejoin:round; stroke-width:4; stroke-opacity:1; fill:none" points="1186.43,899.134 1186.43,1031.59 1238.77,1031.59 1238.77,899.134 1186.43,899.134 "/>
<path clip-path="url(#clip712)" d="M1238.77 873.497 L1238.77 1031.59 L1291.11 1031.59 L1291.11 873.497 L1238.77 873.497 L1238.77 873.497  Z" fill="#ff8c00" fill-rule="evenodd" fill-opacity="1"/>
<polyline clip-path="url(#clip712)" style="stroke:#000000; stroke-linecap:round; stroke-linejoin:round; stroke-width:4; stroke-opacity:1; fill:none" points="1238.77,873.497 1238.77,1031.59 1291.11,1031.59 1291.11,873.497 1238.77,873.497 "/>
<path clip-path="url(#clip712)" d="M1291.11 869.224 L1291.11 1031.59 L1343.45 1031.59 L1343.45 869.224 L1291.11 869.224 L1291.11 869.224  Z" fill="#ff8c00" fill-rule="evenodd" fill-opacity="1"/>
<polyline clip-path="url(#clip712)" style="stroke:#000000; stroke-linecap:round; stroke-linejoin:round; stroke-width:4; stroke-opacity:1; fill:none" points="1291.11,869.224 1291.11,1031.59 1343.45,1031.59 1343.45,869.224 1291.11,869.224 "/>
<path clip-path="url(#clip712)" d="M1343.45 873.497 L1343.45 1031.59 L1395.79 1031.59 L1395.79 873.497 L1343.45 873.497 L1343.45 873.497  Z" fill="#ff8c00" fill-rule="evenodd" fill-opacity="1"/>
<polyline clip-path="url(#clip712)" style="stroke:#000000; stroke-linecap:round; stroke-linejoin:round; stroke-width:4; stroke-opacity:1; fill:none" points="1343.45,873.497 1343.45,1031.59 1395.79,1031.59 1395.79,873.497 1343.45,873.497 "/>
<path clip-path="url(#clip712)" d="M1395.79 967.5 L1395.79 1031.59 L1448.13 1031.59 L1448.13 967.5 L1395.79 967.5 L1395.79 967.5  Z" fill="#ff8c00" fill-rule="evenodd" fill-opacity="1"/>
<polyline clip-path="url(#clip712)" style="stroke:#000000; stroke-linecap:round; stroke-linejoin:round; stroke-width:4; stroke-opacity:1; fill:none" points="1395.79,967.5 1395.79,1031.59 1448.13,1031.59 1448.13,967.5 1395.79,967.5 "/>
<path clip-path="url(#clip712)" d="M1448.13 937.59 L1448.13 1031.59 L1500.47 1031.59 L1500.47 937.59 L1448.13 937.59 L1448.13 937.59  Z" fill="#ff8c00" fill-rule="evenodd" fill-opacity="1"/>
<polyline clip-path="url(#clip712)" style="stroke:#000000; stroke-linecap:round; stroke-linejoin:round; stroke-width:4; stroke-opacity:1; fill:none" points="1448.13,937.59 1448.13,1031.59 1500.47,1031.59 1500.47,937.59 1448.13,937.59 "/>
<path clip-path="url(#clip712)" d="M1500.47 899.134 L1500.47 1031.59 L1552.81 1031.59 L1552.81 899.134 L1500.47 899.134 L1500.47 899.134  Z" fill="#ff8c00" fill-rule="evenodd" fill-opacity="1"/>
<polyline clip-path="url(#clip712)" style="stroke:#000000; stroke-linecap:round; stroke-linejoin:round; stroke-width:4; stroke-opacity:1; fill:none" points="1500.47,899.134 1500.47,1031.59 1552.81,1031.59 1552.81,899.134 1500.47,899.134 "/>
<path clip-path="url(#clip712)" d="M1552.81 894.861 L1552.81 1031.59 L1605.15 1031.59 L1605.15 894.861 L1552.81 894.861 L1552.81 894.861  Z" fill="#ff8c00" fill-rule="evenodd" fill-opacity="1"/>
<polyline clip-path="url(#clip712)" style="stroke:#000000; stroke-linecap:round; stroke-linejoin:round; stroke-width:4; stroke-opacity:1; fill:none" points="1552.81,894.861 1552.81,1031.59 1605.15,1031.59 1605.15,894.861 1552.81,894.861 "/>
<path clip-path="url(#clip712)" d="M1605.15 950.409 L1605.15 1031.59 L1657.49 1031.59 L1657.49 950.409 L1605.15 950.409 L1605.15 950.409  Z" fill="#ff8c00" fill-rule="evenodd" fill-opacity="1"/>
<polyline clip-path="url(#clip712)" style="stroke:#000000; stroke-linecap:round; stroke-linejoin:round; stroke-width:4; stroke-opacity:1; fill:none" points="1605.15,950.409 1605.15,1031.59 1657.49,1031.59 1657.49,950.409 1605.15,950.409 "/>
<path clip-path="url(#clip712)" d="M1657.49 980.319 L1657.49 1031.59 L1709.83 1031.59 L1709.83 980.319 L1657.49 980.319 L1657.49 980.319  Z" fill="#ff8c00" fill-rule="evenodd" fill-opacity="1"/>
<polyline clip-path="url(#clip712)" style="stroke:#000000; stroke-linecap:round; stroke-linejoin:round; stroke-width:4; stroke-opacity:1; fill:none" points="1657.49,980.319 1657.49,1031.59 1709.83,1031.59 1709.83,980.319 1657.49,980.319 "/>
<path clip-path="url(#clip712)" d="M1709.83 1027.32 L1709.83 1031.59 L1762.18 1031.59 L1762.18 1027.32 L1709.83 1027.32 L1709.83 1027.32  Z" fill="#ff8c00" fill-rule="evenodd" fill-opacity="1"/>
<polyline clip-path="url(#clip712)" style="stroke:#000000; stroke-linecap:round; stroke-linejoin:round; stroke-width:4; stroke-opacity:1; fill:none" points="1709.83,1027.32 1709.83,1031.59 1762.18,1031.59 1762.18,1027.32 1709.83,1027.32 "/>
<path clip-path="url(#clip712)" d="M1762.18 1001.68 L1762.18 1031.59 L1814.52 1031.59 L1814.52 1001.68 L1762.18 1001.68 L1762.18 1001.68  Z" fill="#ff8c00" fill-rule="evenodd" fill-opacity="1"/>
<polyline clip-path="url(#clip712)" style="stroke:#000000; stroke-linecap:round; stroke-linejoin:round; stroke-width:4; stroke-opacity:1; fill:none" points="1762.18,1001.68 1762.18,1031.59 1814.52,1031.59 1814.52,1001.68 1762.18,1001.68 "/>
<path clip-path="url(#clip712)" d="M1814.52 976.046 L1814.52 1031.59 L1866.86 1031.59 L1866.86 976.046 L1814.52 976.046 L1814.52 976.046  Z" fill="#ff8c00" fill-rule="evenodd" fill-opacity="1"/>
<polyline clip-path="url(#clip712)" style="stroke:#000000; stroke-linecap:round; stroke-linejoin:round; stroke-width:4; stroke-opacity:1; fill:none" points="1814.52,976.046 1814.52,1031.59 1866.86,1031.59 1866.86,976.046 1814.52,976.046 "/>
<path clip-path="url(#clip712)" d="M1866.86 988.865 L1866.86 1031.59 L1919.2 1031.59 L1919.2 988.865 L1866.86 988.865 L1866.86 988.865  Z" fill="#ff8c00" fill-rule="evenodd" fill-opacity="1"/>
<polyline clip-path="url(#clip712)" style="stroke:#000000; stroke-linecap:round; stroke-linejoin:round; stroke-width:4; stroke-opacity:1; fill:none" points="1866.86,988.865 1866.86,1031.59 1919.2,1031.59 1919.2,988.865 1866.86,988.865 "/>
<path clip-path="url(#clip712)" d="M1919.2 1001.68 L1919.2 1031.59 L1971.54 1031.59 L1971.54 1001.68 L1919.2 1001.68 L1919.2 1001.68  Z" fill="#ff8c00" fill-rule="evenodd" fill-opacity="1"/>
<polyline clip-path="url(#clip712)" style="stroke:#000000; stroke-linecap:round; stroke-linejoin:round; stroke-width:4; stroke-opacity:1; fill:none" points="1919.2,1001.68 1919.2,1031.59 1971.54,1031.59 1971.54,1001.68 1919.2,1001.68 "/>
<path clip-path="url(#clip712)" d="M1971.54 980.319 L1971.54 1031.59 L2023.88 1031.59 L2023.88 980.319 L1971.54 980.319 L1971.54 980.319  Z" fill="#ff8c00" fill-rule="evenodd" fill-opacity="1"/>
<polyline clip-path="url(#clip712)" style="stroke:#000000; stroke-linecap:round; stroke-linejoin:round; stroke-width:4; stroke-opacity:1; fill:none" points="1971.54,980.319 1971.54,1031.59 2023.88,1031.59 2023.88,980.319 1971.54,980.319 "/>
<path clip-path="url(#clip712)" d="M2023.88 997.411 L2023.88 1031.59 L2076.22 1031.59 L2076.22 997.411 L2023.88 997.411 L2023.88 997.411  Z" fill="#ff8c00" fill-rule="evenodd" fill-opacity="1"/>
<polyline clip-path="url(#clip712)" style="stroke:#000000; stroke-linecap:round; stroke-linejoin:round; stroke-width:4; stroke-opacity:1; fill:none" points="2023.88,997.411 2023.88,1031.59 2076.22,1031.59 2076.22,997.411 2023.88,997.411 "/>
<path clip-path="url(#clip712)" d="M2076.22 1001.68 L2076.22 1031.59 L2128.56 1031.59 L2128.56 1001.68 L2076.22 1001.68 L2076.22 1001.68  Z" fill="#ff8c00" fill-rule="evenodd" fill-opacity="1"/>
<polyline clip-path="url(#clip712)" style="stroke:#000000; stroke-linecap:round; stroke-linejoin:round; stroke-width:4; stroke-opacity:1; fill:none" points="2076.22,1001.68 2076.22,1031.59 2128.56,1031.59 2128.56,1001.68 2076.22,1001.68 "/>
<path clip-path="url(#clip712)" d="M2128.56 1027.32 L2128.56 1031.59 L2180.9 1031.59 L2180.9 1027.32 L2128.56 1027.32 L2128.56 1027.32  Z" fill="#ff8c00" fill-rule="evenodd" fill-opacity="1"/>
<polyline clip-path="url(#clip712)" style="stroke:#000000; stroke-linecap:round; stroke-linejoin:round; stroke-width:4; stroke-opacity:1; fill:none" points="2128.56,1027.32 2128.56,1031.59 2180.9,1031.59 2180.9,1027.32 2128.56,1027.32 "/>
<path clip-path="url(#clip712)" d="M2180.9 1010.23 L2180.9 1031.59 L2233.24 1031.59 L2233.24 1010.23 L2180.9 1010.23 L2180.9 1010.23  Z" fill="#ff8c00" fill-rule="evenodd" fill-opacity="1"/>
<polyline clip-path="url(#clip712)" style="stroke:#000000; stroke-linecap:round; stroke-linejoin:round; stroke-width:4; stroke-opacity:1; fill:none" points="2180.9,1010.23 2180.9,1031.59 2233.24,1031.59 2233.24,1010.23 2180.9,1010.23 "/>
<path clip-path="url(#clip712)" d="M2233.24 1023.05 L2233.24 1031.59 L2285.58 1031.59 L2285.58 1023.05 L2233.24 1023.05 L2233.24 1023.05  Z" fill="#ff8c00" fill-rule="evenodd" fill-opacity="1"/>
<polyline clip-path="url(#clip712)" style="stroke:#000000; stroke-linecap:round; stroke-linejoin:round; stroke-width:4; stroke-opacity:1; fill:none" points="2233.24,1023.05 2233.24,1031.59 2285.58,1031.59 2285.58,1023.05 2233.24,1023.05 "/>
<path clip-path="url(#clip712)" d="M2285.58 1031.59 L2285.58 1031.59 L2337.92 1031.59 L2337.92 1031.59 L2285.58 1031.59 L2285.58 1031.59  Z" fill="#ff8c00" fill-rule="evenodd" fill-opacity="1"/>
<polyline clip-path="url(#clip712)" style="stroke:#000000; stroke-linecap:round; stroke-linejoin:round; stroke-width:4; stroke-opacity:1; fill:none" points="2285.58,1031.59 2285.58,1031.59 2337.92,1031.59 2285.58,1031.59 "/>
<path clip-path="url(#clip712)" d="M2337.92 1014.5 L2337.92 1031.59 L2390.26 1031.59 L2390.26 1014.5 L2337.92 1014.5 L2337.92 1014.5  Z" fill="#ff8c00" fill-rule="evenodd" fill-opacity="1"/>
<polyline clip-path="url(#clip712)" style="stroke:#000000; stroke-linecap:round; stroke-linejoin:round; stroke-width:4; stroke-opacity:1; fill:none" points="2337.92,1014.5 2337.92,1031.59 2390.26,1031.59 2390.26,1014.5 2337.92,1014.5 "/>
<path clip-path="url(#clip712)" d="M2390.26 1023.05 L2390.26 1031.59 L2442.6 1031.59 L2442.6 1023.05 L2390.26 1023.05 L2390.26 1023.05  Z" fill="#ff8c00" fill-rule="evenodd" fill-opacity="1"/>
<polyline clip-path="url(#clip712)" style="stroke:#000000; stroke-linecap:round; stroke-linejoin:round; stroke-width:4; stroke-opacity:1; fill:none" points="2390.26,1023.05 2390.26,1031.59 2442.6,1031.59 2442.6,1023.05 2390.26,1023.05 "/>
<path clip-path="url(#clip712)" d="M2442.6 1018.78 L2442.6 1031.59 L2494.94 1031.59 L2494.94 1018.78 L2442.6 1018.78 L2442.6 1018.78  Z" fill="#ff8c00" fill-rule="evenodd" fill-opacity="1"/>
<polyline clip-path="url(#clip712)" style="stroke:#000000; stroke-linecap:round; stroke-linejoin:round; stroke-width:4; stroke-opacity:1; fill:none" points="2442.6,1018.78 2442.6,1031.59 2494.94,1031.59 2494.94,1018.78 2442.6,1018.78 "/>
<path clip-path="url(#clip712)" d="M2494.94 1031.59 L2494.94 1031.59 L2547.28 1031.59 L2547.28 1031.59 L2494.94 1031.59 L2494.94 1031.59  Z" fill="#ff8c00" fill-rule="evenodd" fill-opacity="1"/>
<polyline clip-path="url(#clip712)" style="stroke:#000000; stroke-linecap:round; stroke-linejoin:round; stroke-width:4; stroke-opacity:1; fill:none" points="2494.94,1031.59 2494.94,1031.59 2547.28,1031.59 2494.94,1031.59 "/>
<path clip-path="url(#clip712)" d="M2547.28 1027.32 L2547.28 1031.59 L2599.62 1031.59 L2599.62 1027.32 L2547.28 1027.32 L2547.28 1027.32  Z" fill="#ff8c00" fill-rule="evenodd" fill-opacity="1"/>
<polyline clip-path="url(#clip712)" style="stroke:#000000; stroke-linecap:round; stroke-linejoin:round; stroke-width:4; stroke-opacity:1; fill:none" points="2547.28,1027.32 2547.28,1031.59 2599.62,1031.59 2599.62,1027.32 2547.28,1027.32 "/>
<path clip-path="url(#clip712)" d="M2599.62 1010.23 L2599.62 1031.59 L2651.96 1031.59 L2651.96 1010.23 L2599.62 1010.23 L2599.62 1010.23  Z" fill="#ff8c00" fill-rule="evenodd" fill-opacity="1"/>
<polyline clip-path="url(#clip712)" style="stroke:#000000; stroke-linecap:round; stroke-linejoin:round; stroke-width:4; stroke-opacity:1; fill:none" points="2599.62,1010.23 2599.62,1031.59 2651.96,1031.59 2651.96,1010.23 2599.62,1010.23 "/>
<path clip-path="url(#clip712)" d="M2651.96 1018.78 L2651.96 1031.59 L2704.3 1031.59 L2704.3 1018.78 L2651.96 1018.78 L2651.96 1018.78  Z" fill="#ff8c00" fill-rule="evenodd" fill-opacity="1"/>
<polyline clip-path="url(#clip712)" style="stroke:#000000; stroke-linecap:round; stroke-linejoin:round; stroke-width:4; stroke-opacity:1; fill:none" points="2651.96,1018.78 2651.96,1031.59 2704.3,1031.59 2704.3,1018.78 2651.96,1018.78 "/>
<path clip-path="url(#clip712)" d="M2704.3 1031.59 L2704.3 1031.59 L2756.64 1031.59 L2756.64 1031.59 L2704.3 1031.59 L2704.3 1031.59  Z" fill="#ff8c00" fill-rule="evenodd" fill-opacity="1"/>
<polyline clip-path="url(#clip712)" style="stroke:#000000; stroke-linecap:round; stroke-linejoin:round; stroke-width:4; stroke-opacity:1; fill:none" points="2704.3,1031.59 2704.3,1031.59 2756.64,1031.59 2704.3,1031.59 "/>
<path clip-path="url(#clip712)" d="M2756.64 1031.59 L2756.64 1031.59 L2808.98 1031.59 L2808.98 1031.59 L2756.64 1031.59 L2756.64 1031.59  Z" fill="#ff8c00" fill-rule="evenodd" fill-opacity="1"/>
<polyline clip-path="url(#clip712)" style="stroke:#000000; stroke-linecap:round; stroke-linejoin:round; stroke-width:4; stroke-opacity:1; fill:none" points="2756.64,1031.59 2756.64,1031.59 2808.98,1031.59 2756.64,1031.59 "/>
<path clip-path="url(#clip712)" d="M2808.98 1031.59 L2808.98 1031.59 L2861.32 1031.59 L2861.32 1031.59 L2808.98 1031.59 L2808.98 1031.59  Z" fill="#ff8c00" fill-rule="evenodd" fill-opacity="1"/>
<polyline clip-path="url(#clip712)" style="stroke:#000000; stroke-linecap:round; stroke-linejoin:round; stroke-width:4; stroke-opacity:1; fill:none" points="2808.98,1031.59 2808.98,1031.59 2861.32,1031.59 2808.98,1031.59 "/>
<path clip-path="url(#clip712)" d="M2861.32 1031.59 L2861.32 1031.59 L2913.66 1031.59 L2913.66 1031.59 L2861.32 1031.59 L2861.32 1031.59  Z" fill="#ff8c00" fill-rule="evenodd" fill-opacity="1"/>
<polyline clip-path="url(#clip712)" style="stroke:#000000; stroke-linecap:round; stroke-linejoin:round; stroke-width:4; stroke-opacity:1; fill:none" points="2861.32,1031.59 2861.32,1031.59 2913.66,1031.59 2861.32,1031.59 "/>
<path clip-path="url(#clip712)" d="M2913.66 1023.05 L2913.66 1031.59 L2966 1031.59 L2966 1023.05 L2913.66 1023.05 L2913.66 1023.05  Z" fill="#ff8c00" fill-rule="evenodd" fill-opacity="1"/>
<polyline clip-path="url(#clip712)" style="stroke:#000000; stroke-linecap:round; stroke-linejoin:round; stroke-width:4; stroke-opacity:1; fill:none" points="2913.66,1023.05 2913.66,1031.59 2966,1031.59 2966,1023.05 2913.66,1023.05 "/>
<circle clip-path="url(#clip712)" style="fill:#ff8c00; stroke:none; fill-opacity:0" cx="479.842" cy="390.661" r="2"/>
<circle clip-path="url(#clip712)" style="fill:#ff8c00; stroke:none; fill-opacity:0" cx="532.182" cy="78.7402" r="2"/>
<circle clip-path="url(#clip712)" style="fill:#ff8c00; stroke:none; fill-opacity:0" cx="584.522" cy="313.749" r="2"/>
<circle clip-path="url(#clip712)" style="fill:#ff8c00; stroke:none; fill-opacity:0" cx="636.862" cy="275.293" r="2"/>
<circle clip-path="url(#clip712)" style="fill:#ff8c00; stroke:none; fill-opacity:0" cx="689.202" cy="540.212" r="2"/>
<circle clip-path="url(#clip712)" style="fill:#ff8c00; stroke:none; fill-opacity:0" cx="741.542" cy="471.846" r="2"/>
<circle clip-path="url(#clip712)" style="fill:#ff8c00; stroke:none; fill-opacity:0" cx="793.883" cy="741.038" r="2"/>
<circle clip-path="url(#clip712)" style="fill:#ff8c00; stroke:none; fill-opacity:0" cx="846.223" cy="634.215" r="2"/>
<circle clip-path="url(#clip712)" style="fill:#ff8c00; stroke:none; fill-opacity:0" cx="898.563" cy="830.768" r="2"/>
<circle clip-path="url(#clip712)" style="fill:#ff8c00; stroke:none; fill-opacity:0" cx="950.903" cy="813.677" r="2"/>
<circle clip-path="url(#clip712)" style="fill:#ff8c00; stroke:none; fill-opacity:0" cx="1003.24" cy="758.129" r="2"/>
<circle clip-path="url(#clip712)" style="fill:#ff8c00; stroke:none; fill-opacity:0" cx="1055.58" cy="894.861" r="2"/>
<circle clip-path="url(#clip712)" style="fill:#ff8c00; stroke:none; fill-opacity:0" cx="1107.92" cy="706.854" r="2"/>
<circle clip-path="url(#clip712)" style="fill:#ff8c00; stroke:none; fill-opacity:0" cx="1160.26" cy="869.224" r="2"/>
<circle clip-path="url(#clip712)" style="fill:#ff8c00; stroke:none; fill-opacity:0" cx="1212.6" cy="899.134" r="2"/>
<circle clip-path="url(#clip712)" style="fill:#ff8c00; stroke:none; fill-opacity:0" cx="1264.94" cy="873.497" r="2"/>
<circle clip-path="url(#clip712)" style="fill:#ff8c00; stroke:none; fill-opacity:0" cx="1317.28" cy="869.224" r="2"/>
<circle clip-path="url(#clip712)" style="fill:#ff8c00; stroke:none; fill-opacity:0" cx="1369.62" cy="873.497" r="2"/>
<circle clip-path="url(#clip712)" style="fill:#ff8c00; stroke:none; fill-opacity:0" cx="1421.96" cy="967.5" r="2"/>
<circle clip-path="url(#clip712)" style="fill:#ff8c00; stroke:none; fill-opacity:0" cx="1474.3" cy="937.59" r="2"/>
<circle clip-path="url(#clip712)" style="fill:#ff8c00; stroke:none; fill-opacity:0" cx="1526.64" cy="899.134" r="2"/>
<circle clip-path="url(#clip712)" style="fill:#ff8c00; stroke:none; fill-opacity:0" cx="1578.98" cy="894.861" r="2"/>
<circle clip-path="url(#clip712)" style="fill:#ff8c00; stroke:none; fill-opacity:0" cx="1631.32" cy="950.409" r="2"/>
<circle clip-path="url(#clip712)" style="fill:#ff8c00; stroke:none; fill-opacity:0" cx="1683.66" cy="980.319" r="2"/>
<circle clip-path="url(#clip712)" style="fill:#ff8c00; stroke:none; fill-opacity:0" cx="1736" cy="1027.32" r="2"/>
<circle clip-path="url(#clip712)" style="fill:#ff8c00; stroke:none; fill-opacity:0" cx="1788.35" cy="1001.68" r="2"/>
<circle clip-path="url(#clip712)" style="fill:#ff8c00; stroke:none; fill-opacity:0" cx="1840.69" cy="976.046" r="2"/>
<circle clip-path="url(#clip712)" style="fill:#ff8c00; stroke:none; fill-opacity:0" cx="1893.03" cy="988.865" r="2"/>
<circle clip-path="url(#clip712)" style="fill:#ff8c00; stroke:none; fill-opacity:0" cx="1945.37" cy="1001.68" r="2"/>
<circle clip-path="url(#clip712)" style="fill:#ff8c00; stroke:none; fill-opacity:0" cx="1997.71" cy="980.319" r="2"/>
<circle clip-path="url(#clip712)" style="fill:#ff8c00; stroke:none; fill-opacity:0" cx="2050.05" cy="997.411" r="2"/>
<circle clip-path="url(#clip712)" style="fill:#ff8c00; stroke:none; fill-opacity:0" cx="2102.39" cy="1001.68" r="2"/>
<circle clip-path="url(#clip712)" style="fill:#ff8c00; stroke:none; fill-opacity:0" cx="2154.73" cy="1027.32" r="2"/>
<circle clip-path="url(#clip712)" style="fill:#ff8c00; stroke:none; fill-opacity:0" cx="2207.07" cy="1010.23" r="2"/>
<circle clip-path="url(#clip712)" style="fill:#ff8c00; stroke:none; fill-opacity:0" cx="2259.41" cy="1023.05" r="2"/>
<circle clip-path="url(#clip712)" style="fill:#ff8c00; stroke:none; fill-opacity:0" cx="2311.75" cy="1031.59" r="2"/>
<circle clip-path="url(#clip712)" style="fill:#ff8c00; stroke:none; fill-opacity:0" cx="2364.09" cy="1014.5" r="2"/>
<circle clip-path="url(#clip712)" style="fill:#ff8c00; stroke:none; fill-opacity:0" cx="2416.43" cy="1023.05" r="2"/>
<circle clip-path="url(#clip712)" style="fill:#ff8c00; stroke:none; fill-opacity:0" cx="2468.77" cy="1018.78" r="2"/>
<circle clip-path="url(#clip712)" style="fill:#ff8c00; stroke:none; fill-opacity:0" cx="2521.11" cy="1031.59" r="2"/>
<circle clip-path="url(#clip712)" style="fill:#ff8c00; stroke:none; fill-opacity:0" cx="2573.45" cy="1027.32" r="2"/>
<circle clip-path="url(#clip712)" style="fill:#ff8c00; stroke:none; fill-opacity:0" cx="2625.79" cy="1010.23" r="2"/>
<circle clip-path="url(#clip712)" style="fill:#ff8c00; stroke:none; fill-opacity:0" cx="2678.13" cy="1018.78" r="2"/>
<circle clip-path="url(#clip712)" style="fill:#ff8c00; stroke:none; fill-opacity:0" cx="2730.47" cy="1031.59" r="2"/>
<circle clip-path="url(#clip712)" style="fill:#ff8c00; stroke:none; fill-opacity:0" cx="2782.81" cy="1031.59" r="2"/>
<circle clip-path="url(#clip712)" style="fill:#ff8c00; stroke:none; fill-opacity:0" cx="2835.15" cy="1031.59" r="2"/>
<circle clip-path="url(#clip712)" style="fill:#ff8c00; stroke:none; fill-opacity:0" cx="2887.49" cy="1031.59" r="2"/>
<circle clip-path="url(#clip712)" style="fill:#ff8c00; stroke:none; fill-opacity:0" cx="2939.83" cy="1023.05" r="2"/>
</svg>
