<?xml version="1.0" encoding="utf-8"?>
<svg xmlns="http://www.w3.org/2000/svg" xmlns:xlink="http://www.w3.org/1999/xlink" width="800" height="400" viewBox="0 0 3200 1600">
<defs>
  <clipPath id="clip790">
    <rect x="0" y="0" width="3200" height="1600"/>
  </clipPath>
</defs>
<path clip-path="url(#clip790)" d="M0 1600 L3200 1600 L3200 0 L0 0  Z" fill="#ffffff" fill-rule="evenodd" fill-opacity="1"/>
<defs>
  <clipPath id="clip791">
    <rect x="640" y="0" width="2241" height="1600"/>
  </clipPath>
</defs>
<path clip-path="url(#clip790)" d="M275.075 1412.2 L3121.26 1412.2 L3121.26 78.7402 L275.075 78.7402  Z" fill="#ffffff" fill-rule="evenodd" fill-opacity="1"/>
<defs>
  <clipPath id="clip792">
    <rect x="275" y="78" width="2847" height="1334"/>
  </clipPath>
</defs>
<polyline clip-path="url(#clip792)" style="stroke:#000000; stroke-linecap:round; stroke-linejoin:round; stroke-width:2; stroke-opacity:0.1; fill:none" points="464.115,1412.2 464.115,78.7402 "/>
<polyline clip-path="url(#clip792)" style="stroke:#000000; stroke-linecap:round; stroke-linejoin:round; stroke-width:2; stroke-opacity:0.1; fill:none" points="1304.9,1412.2 1304.9,78.7402 "/>
<polyline clip-path="url(#clip792)" style="stroke:#000000; stroke-linecap:round; stroke-linejoin:round; stroke-width:2; stroke-opacity:0.1; fill:none" points="2118.56,1412.2 2118.56,78.7402 "/>
<polyline clip-path="url(#clip792)" style="stroke:#000000; stroke-linecap:round; stroke-linejoin:round; stroke-width:2; stroke-opacity:0.1; fill:none" points="2959.34,1412.2 2959.34,78.7402 "/>
<polyline clip-path="url(#clip790)" style="stroke:#000000; stroke-linecap:round; stroke-linejoin:round; stroke-width:4; stroke-opacity:1; fill:none" points="275.075,1412.2 3121.26,1412.2 "/>
<polyline clip-path="url(#clip790)" style="stroke:#000000; stroke-linecap:round; stroke-linejoin:round; stroke-width:4; stroke-opacity:1; fill:none" points="464.115,1412.2 464.115,1393.31 "/>
<polyline clip-path="url(#clip790)" style="stroke:#000000; stroke-linecap:round; stroke-linejoin:round; stroke-width:4; stroke-opacity:1; fill:none" points="1304.9,1412.2 1304.9,1393.31 "/>
<polyline clip-path="url(#clip790)" style="stroke:#000000; stroke-linecap:round; stroke-linejoin:round; stroke-width:4; stroke-opacity:1; fill:none" points="2118.56,1412.2 2118.56,1393.31 "/>
<polyline clip-path="url(#clip790)" style="stroke:#000000; stroke-linecap:round; stroke-linejoin:round; stroke-width:4; stroke-opacity:1; fill:none" points="2959.34,1412.2 2959.34,1393.31 "/>
<path clip-path="url(#clip790)" d="M335.91 1477.07 L352.229 1477.07 L352.229 1481 L330.285 1481 L330.285 1477.07 Q332.947 1474.31 337.53 1469.68 Q342.137 1465.03 343.317 1463.69 Q345.563 1461.17 346.442 1459.43 Q347.345 1457.67 347.345 1455.98 Q347.345 1453.23 345.401 1451.49 Q343.479 1449.75 340.378 1449.75 Q338.178 1449.75 335.725 1450.52 Q333.294 1451.28 330.516 1452.83 L330.516 1448.11 Q333.341 1446.98 335.794 1446.4 Q338.248 1445.82 340.285 1445.82 Q345.655 1445.82 348.85 1448.5 Q352.044 1451.19 352.044 1455.68 Q352.044 1457.81 351.234 1459.73 Q350.447 1461.63 348.34 1464.22 Q347.762 1464.89 344.66 1468.11 Q341.558 1471.3 335.91 1477.07 Z" fill="#000000" fill-rule="nonzero" fill-opacity="1" /><path clip-path="url(#clip790)" d="M372.044 1449.52 Q368.433 1449.52 366.604 1453.09 Q364.799 1456.63 364.799 1463.76 Q364.799 1470.86 366.604 1474.43 Q368.433 1477.97 372.044 1477.97 Q375.678 1477.97 377.484 1474.43 Q379.312 1470.86 379.312 1463.76 Q379.312 1456.63 377.484 1453.09 Q375.678 1449.52 372.044 1449.52 M372.044 1445.82 Q377.854 1445.82 380.91 1450.43 Q383.988 1455.01 383.988 1463.76 Q383.988 1472.49 380.91 1477.09 Q377.854 1481.68 372.044 1481.68 Q366.234 1481.68 363.155 1477.09 Q360.1 1472.49 360.1 1463.76 Q360.1 1455.01 363.155 1450.43 Q366.234 1445.82 372.044 1445.82 Z" fill="#000000" fill-rule="nonzero" fill-opacity="1" /><path clip-path="url(#clip790)" d="M396.234 1477.07 L412.553 1477.07 L412.553 1481 L390.609 1481 L390.609 1477.07 Q393.271 1474.31 397.854 1469.68 Q402.461 1465.03 403.641 1463.69 Q405.886 1461.17 406.766 1459.43 Q407.669 1457.67 407.669 1455.98 Q407.669 1453.23 405.724 1451.49 Q403.803 1449.75 400.701 1449.75 Q398.502 1449.75 396.049 1450.52 Q393.618 1451.28 390.84 1452.83 L390.84 1448.11 Q393.664 1446.98 396.118 1446.4 Q398.572 1445.82 400.609 1445.82 Q405.979 1445.82 409.173 1448.5 Q412.368 1451.19 412.368 1455.68 Q412.368 1457.81 411.558 1459.73 Q410.771 1461.63 408.664 1464.22 Q408.085 1464.89 404.984 1468.11 Q401.882 1471.3 396.234 1477.07 Z" fill="#000000" fill-rule="nonzero" fill-opacity="1" /><path clip-path="url(#clip790)" d="M432.368 1449.52 Q428.757 1449.52 426.928 1453.09 Q425.122 1456.63 425.122 1463.76 Q425.122 1470.86 426.928 1474.43 Q428.757 1477.97 432.368 1477.97 Q436.002 1477.97 437.808 1474.43 Q439.636 1470.86 439.636 1463.76 Q439.636 1456.63 437.808 1453.09 Q436.002 1449.52 432.368 1449.52 M432.368 1445.82 Q438.178 1445.82 441.233 1450.43 Q444.312 1455.01 444.312 1463.76 Q444.312 1472.49 441.233 1477.09 Q438.178 1481.68 432.368 1481.68 Q426.558 1481.68 423.479 1477.09 Q420.423 1472.49 420.423 1463.76 Q420.423 1455.01 423.479 1450.43 Q426.558 1445.82 432.368 1445.82 Z" fill="#000000" fill-rule="nonzero" fill-opacity="1" /><path clip-path="url(#clip790)" d="M449.775 1466.12 L462.252 1466.12 L462.252 1469.92 L449.775 1469.92 L449.775 1466.12 Z" fill="#000000" fill-rule="nonzero" fill-opacity="1" /><path clip-path="url(#clip790)" d="M479.636 1449.52 Q476.025 1449.52 474.196 1453.09 Q472.391 1456.63 472.391 1463.76 Q472.391 1470.86 474.196 1474.43 Q476.025 1477.97 479.636 1477.97 Q483.27 1477.97 485.076 1474.43 Q486.905 1470.86 486.905 1463.76 Q486.905 1456.63 485.076 1453.09 Q483.27 1449.52 479.636 1449.52 M479.636 1445.82 Q485.446 1445.82 488.502 1450.43 Q491.58 1455.01 491.58 1463.76 Q491.58 1472.49 488.502 1477.09 Q485.446 1481.68 479.636 1481.68 Q473.826 1481.68 470.747 1477.09 Q467.692 1472.49 467.692 1463.76 Q467.692 1455.01 470.747 1450.43 Q473.826 1445.82 479.636 1445.82 Z" fill="#000000" fill-rule="nonzero" fill-opacity="1" /><path clip-path="url(#clip790)" d="M513.965 1462.37 Q517.321 1463.09 519.196 1465.36 Q521.094 1467.62 521.094 1470.96 Q521.094 1476.07 517.576 1478.87 Q514.057 1481.68 507.576 1481.68 Q505.4 1481.68 503.085 1481.24 Q500.793 1480.82 498.34 1479.96 L498.34 1475.45 Q500.284 1476.58 502.599 1477.16 Q504.914 1477.74 507.437 1477.74 Q511.835 1477.74 514.127 1476 Q516.441 1474.27 516.441 1470.96 Q516.441 1467.9 514.289 1466.19 Q512.159 1464.45 508.34 1464.45 L504.312 1464.45 L504.312 1460.61 L508.525 1460.61 Q511.974 1460.61 513.803 1459.24 Q515.631 1457.86 515.631 1455.26 Q515.631 1452.6 513.733 1451.19 Q511.858 1449.75 508.34 1449.75 Q506.418 1449.75 504.219 1450.17 Q502.02 1450.59 499.381 1451.47 L499.381 1447.3 Q502.043 1446.56 504.358 1446.19 Q506.696 1445.82 508.756 1445.82 Q514.08 1445.82 517.182 1448.25 Q520.284 1450.66 520.284 1454.78 Q520.284 1457.65 518.64 1459.64 Q516.997 1461.61 513.965 1462.37 Z" fill="#000000" fill-rule="nonzero" fill-opacity="1" /><path clip-path="url(#clip790)" d="M527.205 1466.12 L539.682 1466.12 L539.682 1469.92 L527.205 1469.92 L527.205 1466.12 Z" fill="#000000" fill-rule="nonzero" fill-opacity="1" /><path clip-path="url(#clip790)" d="M557.066 1449.52 Q553.455 1449.52 551.626 1453.09 Q549.821 1456.63 549.821 1463.76 Q549.821 1470.86 551.626 1474.43 Q553.455 1477.97 557.066 1477.97 Q560.7 1477.97 562.506 1474.43 Q564.335 1470.86 564.335 1463.76 Q564.335 1456.63 562.506 1453.09 Q560.7 1449.52 557.066 1449.52 M557.066 1445.82 Q562.876 1445.82 565.932 1450.43 Q569.011 1455.01 569.011 1463.76 Q569.011 1472.49 565.932 1477.09 Q562.876 1481.68 557.066 1481.68 Q551.256 1481.68 548.177 1477.09 Q545.122 1472.49 545.122 1463.76 Q545.122 1455.01 548.177 1450.43 Q551.256 1445.82 557.066 1445.82 Z" fill="#000000" fill-rule="nonzero" fill-opacity="1" /><path clip-path="url(#clip790)" d="M578.038 1477.07 L585.677 1477.07 L585.677 1450.7 L577.367 1452.37 L577.367 1448.11 L585.631 1446.44 L590.307 1446.44 L590.307 1477.07 L597.946 1477.07 L597.946 1481 L578.038 1481 L578.038 1477.07 Z" fill="#000000" fill-rule="nonzero" fill-opacity="1" /><path clip-path="url(#clip790)" d="M1176.69 1477.07 L1193.01 1477.07 L1193.01 1481 L1171.07 1481 L1171.07 1477.07 Q1173.73 1474.31 1178.31 1469.68 Q1182.92 1465.03 1184.1 1463.69 Q1186.35 1461.17 1187.22 1459.43 Q1188.13 1457.67 1188.13 1455.98 Q1188.13 1453.23 1186.18 1451.49 Q1184.26 1449.75 1181.16 1449.75 Q1178.96 1449.75 1176.51 1450.52 Q1174.08 1451.28 1171.3 1452.83 L1171.3 1448.11 Q1174.12 1446.98 1176.58 1446.4 Q1179.03 1445.82 1181.07 1445.82 Q1186.44 1445.82 1189.63 1448.5 Q1192.83 1451.19 1192.83 1455.68 Q1192.83 1457.81 1192.02 1459.73 Q1191.23 1461.63 1189.12 1464.22 Q1188.54 1464.89 1185.44 1468.11 Q1182.34 1471.3 1176.69 1477.07 Z" fill="#000000" fill-rule="nonzero" fill-opacity="1" /><path clip-path="url(#clip790)" d="M1212.83 1449.52 Q1209.22 1449.52 1207.39 1453.09 Q1205.58 1456.63 1205.58 1463.76 Q1205.58 1470.86 1207.39 1474.43 Q1209.22 1477.97 1212.83 1477.97 Q1216.46 1477.97 1218.27 1474.43 Q1220.1 1470.86 1220.1 1463.76 Q1220.1 1456.63 1218.27 1453.09 Q1216.46 1449.52 1212.83 1449.52 M1212.83 1445.82 Q1218.64 1445.82 1221.69 1450.43 Q1224.77 1455.01 1224.77 1463.76 Q1224.77 1472.49 1221.69 1477.09 Q1218.64 1481.68 1212.83 1481.68 Q1207.02 1481.68 1203.94 1477.09 Q1200.88 1472.49 1200.88 1463.76 Q1200.88 1455.01 1203.94 1450.43 Q1207.02 1445.82 1212.83 1445.82 Z" fill="#000000" fill-rule="nonzero" fill-opacity="1" /><path clip-path="url(#clip790)" d="M1237.02 1477.07 L1253.34 1477.07 L1253.34 1481 L1231.39 1481 L1231.39 1477.07 Q1234.05 1474.31 1238.64 1469.68 Q1243.24 1465.03 1244.42 1463.69 Q1246.67 1461.17 1247.55 1459.43 Q1248.45 1457.67 1248.45 1455.98 Q1248.45 1453.23 1246.51 1451.49 Q1244.59 1449.75 1241.48 1449.75 Q1239.28 1449.75 1236.83 1450.52 Q1234.4 1451.28 1231.62 1452.83 L1231.62 1448.11 Q1234.45 1446.98 1236.9 1446.4 Q1239.35 1445.82 1241.39 1445.82 Q1246.76 1445.82 1249.96 1448.5 Q1253.15 1451.19 1253.15 1455.68 Q1253.15 1457.81 1252.34 1459.73 Q1251.55 1461.63 1249.45 1464.22 Q1248.87 1464.89 1245.77 1468.11 Q1242.66 1471.3 1237.02 1477.07 Z" fill="#000000" fill-rule="nonzero" fill-opacity="1" /><path clip-path="url(#clip790)" d="M1273.15 1449.52 Q1269.54 1449.52 1267.71 1453.09 Q1265.91 1456.63 1265.91 1463.76 Q1265.91 1470.86 1267.71 1474.43 Q1269.54 1477.97 1273.15 1477.97 Q1276.78 1477.97 1278.59 1474.43 Q1280.42 1470.86 1280.42 1463.76 Q1280.42 1456.63 1278.59 1453.09 Q1276.78 1449.52 1273.15 1449.52 M1273.15 1445.82 Q1278.96 1445.82 1282.02 1450.43 Q1285.09 1455.01 1285.09 1463.76 Q1285.09 1472.49 1282.02 1477.09 Q1278.96 1481.68 1273.15 1481.68 Q1267.34 1481.68 1264.26 1477.09 Q1261.21 1472.49 1261.21 1463.76 Q1261.21 1455.01 1264.26 1450.43 Q1267.34 1445.82 1273.15 1445.82 Z" fill="#000000" fill-rule="nonzero" fill-opacity="1" /><path clip-path="url(#clip790)" d="M1290.56 1466.12 L1303.03 1466.12 L1303.03 1469.92 L1290.56 1469.92 L1290.56 1466.12 Z" fill="#000000" fill-rule="nonzero" fill-opacity="1" /><path clip-path="url(#clip790)" d="M1320.42 1449.52 Q1316.81 1449.52 1314.98 1453.09 Q1313.17 1456.63 1313.17 1463.76 Q1313.17 1470.86 1314.98 1474.43 Q1316.81 1477.97 1320.42 1477.97 Q1324.05 1477.97 1325.86 1474.43 Q1327.69 1470.86 1327.69 1463.76 Q1327.69 1456.63 1325.86 1453.09 Q1324.05 1449.52 1320.42 1449.52 M1320.42 1445.82 Q1326.23 1445.82 1329.28 1450.43 Q1332.36 1455.01 1332.36 1463.76 Q1332.36 1472.49 1329.28 1477.09 Q1326.23 1481.68 1320.42 1481.68 Q1314.61 1481.68 1311.53 1477.09 Q1308.47 1472.49 1308.47 1463.76 Q1308.47 1455.01 1311.53 1450.43 Q1314.61 1445.82 1320.42 1445.82 Z" fill="#000000" fill-rule="nonzero" fill-opacity="1" /><path clip-path="url(#clip790)" d="M1353.43 1450.52 L1341.62 1468.97 L1353.43 1468.97 L1353.43 1450.52 M1352.2 1446.44 L1358.08 1446.44 L1358.08 1468.97 L1363.01 1468.97 L1363.01 1472.86 L1358.08 1472.86 L1358.08 1481 L1353.43 1481 L1353.43 1472.86 L1337.83 1472.86 L1337.83 1468.34 L1352.2 1446.44 Z" fill="#000000" fill-rule="nonzero" fill-opacity="1" /><path clip-path="url(#clip790)" d="M1367.99 1466.12 L1380.46 1466.12 L1380.46 1469.92 L1367.99 1469.92 L1367.99 1466.12 Z" fill="#000000" fill-rule="nonzero" fill-opacity="1" /><path clip-path="url(#clip790)" d="M1397.85 1449.52 Q1394.24 1449.52 1392.41 1453.09 Q1390.6 1456.63 1390.6 1463.76 Q1390.6 1470.86 1392.41 1474.43 Q1394.24 1477.97 1397.85 1477.97 Q1401.48 1477.97 1403.29 1474.43 Q1405.12 1470.86 1405.12 1463.76 Q1405.12 1456.63 1403.29 1453.09 Q1401.48 1449.52 1397.85 1449.52 M1397.85 1445.82 Q1403.66 1445.82 1406.71 1450.43 Q1409.79 1455.01 1409.79 1463.76 Q1409.79 1472.49 1406.71 1477.09 Q1403.66 1481.68 1397.85 1481.68 Q1392.04 1481.68 1388.96 1477.09 Q1385.9 1472.49 1385.9 1463.76 Q1385.9 1455.01 1388.96 1450.43 Q1392.04 1445.82 1397.85 1445.82 Z" fill="#000000" fill-rule="nonzero" fill-opacity="1" /><path clip-path="url(#clip790)" d="M1418.82 1477.07 L1426.46 1477.07 L1426.46 1450.7 L1418.15 1452.37 L1418.15 1448.11 L1426.41 1446.44 L1431.09 1446.44 L1431.09 1477.07 L1438.73 1477.07 L1438.73 1481 L1418.82 1481 L1418.82 1477.07 Z" fill="#000000" fill-rule="nonzero" fill-opacity="1" /><path clip-path="url(#clip790)" d="M1990.35 1477.07 L2006.67 1477.07 L2006.67 1481 L1984.73 1481 L1984.73 1477.07 Q1987.39 1474.31 1991.97 1469.68 Q1996.58 1465.03 1997.76 1463.69 Q2000.01 1461.17 2000.89 1459.43 Q2001.79 1457.67 2001.79 1455.98 Q2001.79 1453.23 1999.84 1451.49 Q1997.92 1449.75 1994.82 1449.75 Q1992.62 1449.75 1990.17 1450.52 Q1987.74 1451.28 1984.96 1452.83 L1984.96 1448.11 Q1987.78 1446.98 1990.24 1446.4 Q1992.69 1445.82 1994.73 1445.82 Q2000.1 1445.82 2003.29 1448.5 Q2006.49 1451.19 2006.49 1455.68 Q2006.49 1457.81 2005.68 1459.73 Q2004.89 1461.63 2002.78 1464.22 Q2002.21 1464.89 1999.1 1468.11 Q1996 1471.3 1990.35 1477.07 Z" fill="#000000" fill-rule="nonzero" fill-opacity="1" /><path clip-path="url(#clip790)" d="M2026.49 1449.52 Q2022.88 1449.52 2021.05 1453.09 Q2019.24 1456.63 2019.24 1463.76 Q2019.24 1470.86 2021.05 1474.43 Q2022.88 1477.97 2026.49 1477.97 Q2030.12 1477.97 2031.93 1474.43 Q2033.76 1470.86 2033.76 1463.76 Q2033.76 1456.63 2031.93 1453.09 Q2030.12 1449.52 2026.49 1449.52 M2026.49 1445.82 Q2032.3 1445.82 2035.35 1450.43 Q2038.43 1455.01 2038.43 1463.76 Q2038.43 1472.49 2035.35 1477.09 Q2032.3 1481.68 2026.49 1481.68 Q2020.68 1481.68 2017.6 1477.09 Q2014.54 1472.49 2014.54 1463.76 Q2014.54 1455.01 2017.6 1450.43 Q2020.68 1445.82 2026.49 1445.82 Z" fill="#000000" fill-rule="nonzero" fill-opacity="1" /><path clip-path="url(#clip790)" d="M2050.68 1477.07 L2067 1477.07 L2067 1481 L2045.05 1481 L2045.05 1477.07 Q2047.71 1474.31 2052.3 1469.68 Q2056.9 1465.03 2058.08 1463.69 Q2060.33 1461.17 2061.21 1459.43 Q2062.11 1457.67 2062.11 1455.98 Q2062.11 1453.23 2060.17 1451.49 Q2058.25 1449.75 2055.14 1449.75 Q2052.95 1449.75 2050.49 1450.52 Q2048.06 1451.28 2045.28 1452.83 L2045.28 1448.11 Q2048.11 1446.98 2050.56 1446.4 Q2053.02 1445.82 2055.05 1445.82 Q2060.42 1445.82 2063.62 1448.5 Q2066.81 1451.19 2066.81 1455.68 Q2066.81 1457.81 2066 1459.73 Q2065.21 1461.63 2063.11 1464.22 Q2062.53 1464.89 2059.43 1468.11 Q2056.33 1471.3 2050.68 1477.07 Z" fill="#000000" fill-rule="nonzero" fill-opacity="1" /><path clip-path="url(#clip790)" d="M2086.81 1449.52 Q2083.2 1449.52 2081.37 1453.09 Q2079.57 1456.63 2079.57 1463.76 Q2079.57 1470.86 2081.37 1474.43 Q2083.2 1477.97 2086.81 1477.97 Q2090.45 1477.97 2092.25 1474.43 Q2094.08 1470.86 2094.08 1463.76 Q2094.08 1456.63 2092.25 1453.09 Q2090.45 1449.52 2086.81 1449.52 M2086.81 1445.82 Q2092.62 1445.82 2095.68 1450.43 Q2098.76 1455.01 2098.76 1463.76 Q2098.76 1472.49 2095.68 1477.09 Q2092.62 1481.68 2086.81 1481.68 Q2081 1481.68 2077.92 1477.09 Q2074.87 1472.49 2074.87 1463.76 Q2074.87 1455.01 2077.92 1450.43 Q2081 1445.82 2086.81 1445.82 Z" fill="#000000" fill-rule="nonzero" fill-opacity="1" /><path clip-path="url(#clip790)" d="M2104.22 1466.12 L2116.7 1466.12 L2116.7 1469.92 L2104.22 1469.92 L2104.22 1466.12 Z" fill="#000000" fill-rule="nonzero" fill-opacity="1" /><path clip-path="url(#clip790)" d="M2134.08 1449.52 Q2130.47 1449.52 2128.64 1453.09 Q2126.83 1456.63 2126.83 1463.76 Q2126.83 1470.86 2128.64 1474.43 Q2130.47 1477.97 2134.08 1477.97 Q2137.71 1477.97 2139.52 1474.43 Q2141.35 1470.86 2141.35 1463.76 Q2141.35 1456.63 2139.52 1453.09 Q2137.71 1449.52 2134.08 1449.52 M2134.08 1445.82 Q2139.89 1445.82 2142.95 1450.43 Q2146.02 1455.01 2146.02 1463.76 Q2146.02 1472.49 2142.95 1477.09 Q2139.89 1481.68 2134.08 1481.68 Q2128.27 1481.68 2125.19 1477.09 Q2122.14 1472.49 2122.14 1463.76 Q2122.14 1455.01 2125.19 1450.43 Q2128.27 1445.82 2134.08 1445.82 Z" fill="#000000" fill-rule="nonzero" fill-opacity="1" /><path clip-path="url(#clip790)" d="M2154.29 1446.44 L2172.64 1446.44 L2172.64 1450.38 L2158.57 1450.38 L2158.57 1458.85 Q2159.59 1458.5 2160.61 1458.34 Q2161.63 1458.16 2162.64 1458.16 Q2168.43 1458.16 2171.81 1461.33 Q2175.19 1464.5 2175.19 1469.92 Q2175.19 1475.49 2171.72 1478.6 Q2168.25 1481.68 2161.93 1481.68 Q2159.75 1481.68 2157.48 1481.3 Q2155.24 1480.93 2152.83 1480.19 L2152.83 1475.49 Q2154.91 1476.63 2157.13 1477.18 Q2159.36 1477.74 2161.83 1477.74 Q2165.84 1477.74 2168.18 1475.63 Q2170.51 1473.53 2170.51 1469.92 Q2170.51 1466.3 2168.18 1464.2 Q2165.84 1462.09 2161.83 1462.09 Q2159.96 1462.09 2158.08 1462.51 Q2156.23 1462.93 2154.29 1463.8 L2154.29 1446.44 Z" fill="#000000" fill-rule="nonzero" fill-opacity="1" /><path clip-path="url(#clip790)" d="M2181.65 1466.12 L2194.13 1466.12 L2194.13 1469.92 L2181.65 1469.92 L2181.65 1466.12 Z" fill="#000000" fill-rule="nonzero" fill-opacity="1" /><path clip-path="url(#clip790)" d="M2211.51 1449.52 Q2207.9 1449.52 2206.07 1453.09 Q2204.26 1456.63 2204.26 1463.76 Q2204.26 1470.86 2206.07 1474.43 Q2207.9 1477.97 2211.51 1477.97 Q2215.14 1477.97 2216.95 1474.43 Q2218.78 1470.86 2218.78 1463.76 Q2218.78 1456.63 2216.95 1453.09 Q2215.14 1449.52 2211.51 1449.52 M2211.51 1445.82 Q2217.32 1445.82 2220.38 1450.43 Q2223.45 1455.01 2223.45 1463.76 Q2223.45 1472.49 2220.38 1477.09 Q2217.32 1481.68 2211.51 1481.68 Q2205.7 1481.68 2202.62 1477.09 Q2199.57 1472.49 2199.57 1463.76 Q2199.57 1455.01 2202.62 1450.43 Q2205.7 1445.82 2211.51 1445.82 Z" fill="#000000" fill-rule="nonzero" fill-opacity="1" /><path clip-path="url(#clip790)" d="M2232.48 1477.07 L2240.12 1477.07 L2240.12 1450.7 L2231.81 1452.37 L2231.81 1448.11 L2240.07 1446.44 L2244.75 1446.44 L2244.75 1477.07 L2252.39 1477.07 L2252.39 1481 L2232.48 1481 L2232.48 1477.07 Z" fill="#000000" fill-rule="nonzero" fill-opacity="1" /><path clip-path="url(#clip790)" d="M2831.14 1477.07 L2847.46 1477.07 L2847.46 1481 L2825.51 1481 L2825.51 1477.07 Q2828.17 1474.31 2832.76 1469.68 Q2837.36 1465.03 2838.54 1463.69 Q2840.79 1461.17 2841.67 1459.43 Q2842.57 1457.67 2842.57 1455.98 Q2842.57 1453.23 2840.63 1451.49 Q2838.71 1449.75 2835.6 1449.75 Q2833.4 1449.75 2830.95 1450.52 Q2828.52 1451.28 2825.74 1452.83 L2825.74 1448.11 Q2828.57 1446.98 2831.02 1446.4 Q2833.47 1445.82 2835.51 1445.82 Q2840.88 1445.82 2844.08 1448.5 Q2847.27 1451.19 2847.27 1455.68 Q2847.27 1457.81 2846.46 1459.73 Q2845.67 1461.63 2843.57 1464.22 Q2842.99 1464.89 2839.89 1468.11 Q2836.78 1471.3 2831.14 1477.07 Z" fill="#000000" fill-rule="nonzero" fill-opacity="1" /><path clip-path="url(#clip790)" d="M2867.27 1449.52 Q2863.66 1449.52 2861.83 1453.09 Q2860.02 1456.63 2860.02 1463.76 Q2860.02 1470.86 2861.83 1474.43 Q2863.66 1477.97 2867.27 1477.97 Q2870.9 1477.97 2872.71 1474.43 Q2874.54 1470.86 2874.54 1463.76 Q2874.54 1456.63 2872.71 1453.09 Q2870.9 1449.52 2867.27 1449.52 M2867.27 1445.82 Q2873.08 1445.82 2876.14 1450.43 Q2879.21 1455.01 2879.21 1463.76 Q2879.21 1472.49 2876.14 1477.09 Q2873.08 1481.68 2867.27 1481.68 Q2861.46 1481.68 2858.38 1477.09 Q2855.33 1472.49 2855.33 1463.76 Q2855.33 1455.01 2858.38 1450.43 Q2861.46 1445.82 2867.27 1445.82 Z" fill="#000000" fill-rule="nonzero" fill-opacity="1" /><path clip-path="url(#clip790)" d="M2891.46 1477.07 L2907.78 1477.07 L2907.78 1481 L2885.83 1481 L2885.83 1477.07 Q2888.5 1474.31 2893.08 1469.68 Q2897.69 1465.03 2898.87 1463.69 Q2901.11 1461.17 2901.99 1459.43 Q2902.89 1457.67 2902.89 1455.98 Q2902.89 1453.23 2900.95 1451.49 Q2899.03 1449.75 2895.93 1449.75 Q2893.73 1449.75 2891.27 1450.52 Q2888.84 1451.28 2886.07 1452.83 L2886.07 1448.11 Q2888.89 1446.98 2891.34 1446.4 Q2893.8 1445.82 2895.83 1445.82 Q2901.21 1445.82 2904.4 1448.5 Q2907.59 1451.19 2907.59 1455.68 Q2907.59 1457.81 2906.78 1459.73 Q2906 1461.63 2903.89 1464.22 Q2903.31 1464.89 2900.21 1468.11 Q2897.11 1471.3 2891.46 1477.07 Z" fill="#000000" fill-rule="nonzero" fill-opacity="1" /><path clip-path="url(#clip790)" d="M2927.59 1449.52 Q2923.98 1449.52 2922.15 1453.09 Q2920.35 1456.63 2920.35 1463.76 Q2920.35 1470.86 2922.15 1474.43 Q2923.98 1477.97 2927.59 1477.97 Q2931.23 1477.97 2933.03 1474.43 Q2934.86 1470.86 2934.86 1463.76 Q2934.86 1456.63 2933.03 1453.09 Q2931.23 1449.52 2927.59 1449.52 M2927.59 1445.82 Q2933.4 1445.82 2936.46 1450.43 Q2939.54 1455.01 2939.54 1463.76 Q2939.54 1472.49 2936.46 1477.09 Q2933.4 1481.68 2927.59 1481.68 Q2921.78 1481.68 2918.71 1477.09 Q2915.65 1472.49 2915.65 1463.76 Q2915.65 1455.01 2918.71 1450.43 Q2921.78 1445.82 2927.59 1445.82 Z" fill="#000000" fill-rule="nonzero" fill-opacity="1" /><path clip-path="url(#clip790)" d="M2945 1466.12 L2957.48 1466.12 L2957.48 1469.92 L2945 1469.92 L2945 1466.12 Z" fill="#000000" fill-rule="nonzero" fill-opacity="1" /><path clip-path="url(#clip790)" d="M2974.86 1449.52 Q2971.25 1449.52 2969.42 1453.09 Q2967.62 1456.63 2967.62 1463.76 Q2967.62 1470.86 2969.42 1474.43 Q2971.25 1477.97 2974.86 1477.97 Q2978.5 1477.97 2980.3 1474.43 Q2982.13 1470.86 2982.13 1463.76 Q2982.13 1456.63 2980.3 1453.09 Q2978.5 1449.52 2974.86 1449.52 M2974.86 1445.82 Q2980.67 1445.82 2983.73 1450.43 Q2986.81 1455.01 2986.81 1463.76 Q2986.81 1472.49 2983.73 1477.09 Q2980.67 1481.68 2974.86 1481.68 Q2969.05 1481.68 2965.97 1477.09 Q2962.92 1472.49 2962.92 1463.76 Q2962.92 1455.01 2965.97 1450.43 Q2969.05 1445.82 2974.86 1445.82 Z" fill="#000000" fill-rule="nonzero" fill-opacity="1" /><path clip-path="url(#clip790)" d="M3005.6 1461.86 Q3002.45 1461.86 3000.6 1464.01 Q2998.77 1466.17 2998.77 1469.92 Q2998.77 1473.64 3000.6 1475.82 Q3002.45 1477.97 3005.6 1477.97 Q3008.75 1477.97 3010.58 1475.82 Q3012.43 1473.64 3012.43 1469.92 Q3012.43 1466.17 3010.58 1464.01 Q3008.75 1461.86 3005.6 1461.86 M3014.89 1447.21 L3014.89 1451.47 Q3013.13 1450.63 3011.32 1450.19 Q3009.54 1449.75 3007.78 1449.75 Q3003.15 1449.75 3000.7 1452.88 Q2998.26 1456 2997.92 1462.32 Q2999.28 1460.31 3001.34 1459.24 Q3003.4 1458.16 3005.88 1458.16 Q3011.09 1458.16 3014.1 1461.33 Q3017.13 1464.48 3017.13 1469.92 Q3017.13 1475.24 3013.98 1478.46 Q3010.83 1481.68 3005.6 1481.68 Q2999.61 1481.68 2996.44 1477.09 Q2993.26 1472.49 2993.26 1463.76 Q2993.26 1455.56 2997.15 1450.7 Q3001.04 1445.82 3007.59 1445.82 Q3009.35 1445.82 3011.14 1446.17 Q3012.94 1446.51 3014.89 1447.21 Z" fill="#000000" fill-rule="nonzero" fill-opacity="1" /><path clip-path="url(#clip790)" d="M3022.43 1466.12 L3034.91 1466.12 L3034.91 1469.92 L3022.43 1469.92 L3022.43 1466.12 Z" fill="#000000" fill-rule="nonzero" fill-opacity="1" /><path clip-path="url(#clip790)" d="M3052.29 1449.52 Q3048.68 1449.52 3046.85 1453.09 Q3045.05 1456.63 3045.05 1463.76 Q3045.05 1470.86 3046.85 1474.43 Q3048.68 1477.97 3052.29 1477.97 Q3055.93 1477.97 3057.73 1474.43 Q3059.56 1470.86 3059.56 1463.76 Q3059.56 1456.63 3057.73 1453.09 Q3055.93 1449.52 3052.29 1449.52 M3052.29 1445.82 Q3058.1 1445.82 3061.16 1450.43 Q3064.24 1455.01 3064.24 1463.76 Q3064.24 1472.49 3061.16 1477.09 Q3058.1 1481.68 3052.29 1481.68 Q3046.48 1481.68 3043.4 1477.09 Q3040.35 1472.49 3040.35 1463.76 Q3040.35 1455.01 3043.4 1450.43 Q3046.48 1445.82 3052.29 1445.82 Z" fill="#000000" fill-rule="nonzero" fill-opacity="1" /><path clip-path="url(#clip790)" d="M3073.26 1477.07 L3080.9 1477.07 L3080.9 1450.7 L3072.59 1452.37 L3072.59 1448.11 L3080.86 1446.44 L3085.53 1446.44 L3085.53 1477.07 L3093.17 1477.07 L3093.17 1481 L3073.26 1481 L3073.26 1477.07 Z" fill="#000000" fill-rule="nonzero" fill-opacity="1" /><path clip-path="url(#clip790)" d="M1631.63 1526.83 L1631.63 1563.78 L1639.4 1563.78 Q1649.23 1563.78 1653.78 1559.33 Q1658.37 1554.87 1658.37 1545.26 Q1658.37 1535.71 1653.78 1531.29 Q1649.23 1526.83 1639.4 1526.83 L1631.63 1526.83 M1625.2 1521.55 L1638.41 1521.55 Q1652.22 1521.55 1658.68 1527.31 Q1665.15 1533.04 1665.15 1545.26 Q1665.15 1557.55 1658.65 1563.31 Q1652.16 1569.07 1638.41 1569.07 L1625.2 1569.07 L1625.2 1521.55 Z" fill="#000000" fill-rule="nonzero" fill-opacity="1" /><path clip-path="url(#clip790)" d="M1691.34 1551.15 Q1684.24 1551.15 1681.51 1552.77 Q1678.77 1554.39 1678.77 1558.31 Q1678.77 1561.43 1680.8 1563.27 Q1682.87 1565.09 1686.41 1565.09 Q1691.28 1565.09 1694.2 1561.65 Q1697.16 1558.18 1697.16 1552.45 L1697.16 1551.15 L1691.34 1551.15 M1703.02 1548.73 L1703.02 1569.07 L1697.16 1569.07 L1697.16 1563.66 Q1695.16 1566.9 1692.17 1568.46 Q1689.18 1569.99 1684.85 1569.99 Q1679.37 1569.99 1676.13 1566.94 Q1672.91 1563.85 1672.91 1558.69 Q1672.91 1552.68 1676.92 1549.62 Q1680.96 1546.57 1688.95 1546.57 L1697.16 1546.57 L1697.16 1545.99 Q1697.16 1541.95 1694.49 1539.75 Q1691.85 1537.53 1687.04 1537.53 Q1683.99 1537.53 1681.09 1538.26 Q1678.19 1538.99 1675.52 1540.45 L1675.52 1535.04 Q1678.74 1533.8 1681.76 1533.2 Q1684.78 1532.56 1687.65 1532.56 Q1695.38 1532.56 1699.2 1536.57 Q1703.02 1540.58 1703.02 1548.73 Z" fill="#000000" fill-rule="nonzero" fill-opacity="1" /><path clip-path="url(#clip790)" d="M1720.88 1523.3 L1720.88 1533.42 L1732.94 1533.42 L1732.94 1537.97 L1720.88 1537.97 L1720.88 1557.32 Q1720.88 1561.68 1722.05 1562.92 Q1723.26 1564.17 1726.92 1564.17 L1732.94 1564.17 L1732.94 1569.07 L1726.92 1569.07 Q1720.14 1569.07 1717.57 1566.55 Q1714.99 1564.01 1714.99 1557.32 L1714.99 1537.97 L1710.69 1537.97 L1710.69 1533.42 L1714.99 1533.42 L1714.99 1523.3 L1720.88 1523.3 Z" fill="#000000" fill-rule="nonzero" fill-opacity="1" /><path clip-path="url(#clip790)" d="M1771.13 1549.78 L1771.13 1552.64 L1744.21 1552.64 Q1744.59 1558.69 1747.84 1561.87 Q1751.11 1565.03 1756.94 1565.03 Q1760.31 1565.03 1763.46 1564.2 Q1766.65 1563.37 1769.77 1561.72 L1769.77 1567.25 Q1766.61 1568.59 1763.3 1569.29 Q1759.99 1569.99 1756.59 1569.99 Q1748.06 1569.99 1743.06 1565.03 Q1738.1 1560.06 1738.1 1551.59 Q1738.1 1542.84 1742.81 1537.72 Q1747.55 1532.56 1755.57 1532.56 Q1762.76 1532.56 1766.93 1537.21 Q1771.13 1541.82 1771.13 1549.78 M1765.28 1548.06 Q1765.21 1543.25 1762.57 1540.39 Q1759.96 1537.53 1755.63 1537.53 Q1750.73 1537.53 1747.77 1540.29 Q1744.84 1543.06 1744.4 1548.09 L1765.28 1548.06 Z" fill="#000000" fill-rule="nonzero" fill-opacity="1" /><polyline clip-path="url(#clip792)" style="stroke:#000000; stroke-linecap:round; stroke-linejoin:round; stroke-width:2; stroke-opacity:0.1; fill:none" points="275.075,1374.83 3121.26,1374.83 "/>
<polyline clip-path="url(#clip792)" style="stroke:#000000; stroke-linecap:round; stroke-linejoin:round; stroke-width:2; stroke-opacity:0.1; fill:none" points="275.075,1107.17 3121.26,1107.17 "/>
<polyline clip-path="url(#clip792)" style="stroke:#000000; stroke-linecap:round; stroke-linejoin:round; stroke-width:2; stroke-opacity:0.1; fill:none" points="275.075,839.517 3121.26,839.517 "/>
<polyline clip-path="url(#clip792)" style="stroke:#000000; stroke-linecap:round; stroke-linejoin:round; stroke-width:2; stroke-opacity:0.1; fill:none" points="275.075,571.86 3121.26,571.86 "/>
<polyline clip-path="url(#clip792)" style="stroke:#000000; stroke-linecap:round; stroke-linejoin:round; stroke-width:2; stroke-opacity:0.1; fill:none" points="275.075,304.203 3121.26,304.203 "/>
<polyline clip-path="url(#clip790)" style="stroke:#000000; stroke-linecap:round; stroke-linejoin:round; stroke-width:4; stroke-opacity:1; fill:none" points="275.075,1412.2 275.075,78.7402 "/>
<polyline clip-path="url(#clip790)" style="stroke:#000000; stroke-linecap:round; stroke-linejoin:round; stroke-width:4; stroke-opacity:1; fill:none" points="275.075,1374.83 293.972,1374.83 "/>
<polyline clip-path="url(#clip790)" style="stroke:#000000; stroke-linecap:round; stroke-linejoin:round; stroke-width:4; stroke-opacity:1; fill:none" points="275.075,1107.17 293.972,1107.17 "/>
<polyline clip-path="url(#clip790)" style="stroke:#000000; stroke-linecap:round; stroke-linejoin:round; stroke-width:4; stroke-opacity:1; fill:none" points="275.075,839.517 293.972,839.517 "/>
<polyline clip-path="url(#clip790)" style="stroke:#000000; stroke-linecap:round; stroke-linejoin:round; stroke-width:4; stroke-opacity:1; fill:none" points="275.075,571.86 293.972,571.86 "/>
<polyline clip-path="url(#clip790)" style="stroke:#000000; stroke-linecap:round; stroke-linejoin:round; stroke-width:4; stroke-opacity:1; fill:none" points="275.075,304.203 293.972,304.203 "/>
<path clip-path="url(#clip790)" d="M169.899 1360.63 Q166.288 1360.63 164.459 1364.2 Q162.654 1367.74 162.654 1374.87 Q162.654 1381.97 164.459 1385.54 Q166.288 1389.08 169.899 1389.08 Q173.533 1389.08 175.339 1385.54 Q177.168 1381.97 177.168 1374.87 Q177.168 1367.74 175.339 1364.2 Q173.533 1360.63 169.899 1360.63 M169.899 1356.93 Q175.709 1356.93 178.765 1361.53 Q181.844 1366.12 181.844 1374.87 Q181.844 1383.59 178.765 1388.2 Q175.709 1392.78 169.899 1392.78 Q164.089 1392.78 161.01 1388.2 Q157.955 1383.59 157.955 1374.87 Q157.955 1366.12 161.01 1361.53 Q164.089 1356.93 169.899 1356.93 Z" fill="#000000" fill-rule="nonzero" fill-opacity="1" /><path clip-path="url(#clip790)" d="M190.061 1386.23 L194.945 1386.23 L194.945 1392.11 L190.061 1392.11 L190.061 1386.23 Z" fill="#000000" fill-rule="nonzero" fill-opacity="1" /><path clip-path="url(#clip790)" d="M215.13 1360.63 Q211.519 1360.63 209.691 1364.2 Q207.885 1367.74 207.885 1374.87 Q207.885 1381.97 209.691 1385.54 Q211.519 1389.08 215.13 1389.08 Q218.765 1389.08 220.57 1385.54 Q222.399 1381.97 222.399 1374.87 Q222.399 1367.74 220.57 1364.2 Q218.765 1360.63 215.13 1360.63 M215.13 1356.93 Q220.941 1356.93 223.996 1361.53 Q227.075 1366.12 227.075 1374.87 Q227.075 1383.59 223.996 1388.2 Q220.941 1392.78 215.13 1392.78 Q209.32 1392.78 206.242 1388.2 Q203.186 1383.59 203.186 1374.87 Q203.186 1366.12 206.242 1361.53 Q209.32 1356.93 215.13 1356.93 Z" fill="#000000" fill-rule="nonzero" fill-opacity="1" /><path clip-path="url(#clip790)" d="M164.922 1120.52 L181.242 1120.52 L181.242 1124.45 L159.297 1124.45 L159.297 1120.52 Q161.959 1117.77 166.543 1113.14 Q171.149 1108.48 172.33 1107.14 Q174.575 1104.62 175.455 1102.88 Q176.357 1101.12 176.357 1099.43 Q176.357 1096.68 174.413 1094.94 Q172.492 1093.2 169.39 1093.2 Q167.191 1093.2 164.737 1093.97 Q162.307 1094.73 159.529 1096.28 L159.529 1091.56 Q162.353 1090.43 164.807 1089.85 Q167.26 1089.27 169.297 1089.27 Q174.668 1089.27 177.862 1091.95 Q181.057 1094.64 181.057 1099.13 Q181.057 1101.26 180.246 1103.18 Q179.459 1105.08 177.353 1107.67 Q176.774 1108.34 173.672 1111.56 Q170.57 1114.76 164.922 1120.52 Z" fill="#000000" fill-rule="nonzero" fill-opacity="1" /><path clip-path="url(#clip790)" d="M191.056 1118.58 L195.941 1118.58 L195.941 1124.45 L191.056 1124.45 L191.056 1118.58 Z" fill="#000000" fill-rule="nonzero" fill-opacity="1" /><path clip-path="url(#clip790)" d="M206.172 1089.89 L224.528 1089.89 L224.528 1093.83 L210.454 1093.83 L210.454 1102.3 Q211.473 1101.95 212.492 1101.79 Q213.51 1101.61 214.529 1101.61 Q220.316 1101.61 223.695 1104.78 Q227.075 1107.95 227.075 1113.37 Q227.075 1118.95 223.603 1122.05 Q220.13 1125.13 213.811 1125.13 Q211.635 1125.13 209.367 1124.76 Q207.121 1124.39 204.714 1123.64 L204.714 1118.95 Q206.797 1120.08 209.019 1120.64 Q211.242 1121.19 213.718 1121.19 Q217.723 1121.19 220.061 1119.08 Q222.399 1116.98 222.399 1113.37 Q222.399 1109.76 220.061 1107.65 Q217.723 1105.54 213.718 1105.54 Q211.843 1105.54 209.968 1105.96 Q208.117 1106.38 206.172 1107.26 L206.172 1089.89 Z" fill="#000000" fill-rule="nonzero" fill-opacity="1" /><path clip-path="url(#clip790)" d="M159.946 822.237 L178.302 822.237 L178.302 826.173 L164.228 826.173 L164.228 834.645 Q165.246 834.298 166.265 834.136 Q167.283 833.95 168.302 833.95 Q174.089 833.95 177.469 837.122 Q180.848 840.293 180.848 845.71 Q180.848 851.288 177.376 854.39 Q173.904 857.469 167.584 857.469 Q165.408 857.469 163.14 857.098 Q160.895 856.728 158.487 855.987 L158.487 851.288 Q160.571 852.422 162.793 852.978 Q165.015 853.534 167.492 853.534 Q171.496 853.534 173.834 851.427 Q176.172 849.321 176.172 845.71 Q176.172 842.098 173.834 839.992 Q171.496 837.886 167.492 837.886 Q165.617 837.886 163.742 838.302 Q161.89 838.719 159.946 839.598 L159.946 822.237 Z" fill="#000000" fill-rule="nonzero" fill-opacity="1" /><path clip-path="url(#clip790)" d="M190.061 850.918 L194.945 850.918 L194.945 856.797 L190.061 856.797 L190.061 850.918 Z" fill="#000000" fill-rule="nonzero" fill-opacity="1" /><path clip-path="url(#clip790)" d="M215.13 825.316 Q211.519 825.316 209.691 828.881 Q207.885 832.423 207.885 839.552 Q207.885 846.659 209.691 850.223 Q211.519 853.765 215.13 853.765 Q218.765 853.765 220.57 850.223 Q222.399 846.659 222.399 839.552 Q222.399 832.423 220.57 828.881 Q218.765 825.316 215.13 825.316 M215.13 821.612 Q220.941 821.612 223.996 826.219 Q227.075 830.802 227.075 839.552 Q227.075 848.279 223.996 852.885 Q220.941 857.469 215.13 857.469 Q209.32 857.469 206.242 852.885 Q203.186 848.279 203.186 839.552 Q203.186 830.802 206.242 826.219 Q209.32 821.612 215.13 821.612 Z" fill="#000000" fill-rule="nonzero" fill-opacity="1" /><path clip-path="url(#clip790)" d="M159.714 554.58 L181.936 554.58 L181.936 556.571 L169.39 589.14 L164.506 589.14 L176.311 558.515 L159.714 558.515 L159.714 554.58 Z" fill="#000000" fill-rule="nonzero" fill-opacity="1" /><path clip-path="url(#clip790)" d="M191.056 583.261 L195.941 583.261 L195.941 589.14 L191.056 589.14 L191.056 583.261 Z" fill="#000000" fill-rule="nonzero" fill-opacity="1" /><path clip-path="url(#clip790)" d="M206.172 554.58 L224.528 554.58 L224.528 558.515 L210.454 558.515 L210.454 566.987 Q211.473 566.64 212.492 566.478 Q213.51 566.293 214.529 566.293 Q220.316 566.293 223.695 569.464 Q227.075 572.636 227.075 578.052 Q227.075 583.631 223.603 586.733 Q220.13 589.811 213.811 589.811 Q211.635 589.811 209.367 589.441 Q207.121 589.071 204.714 588.33 L204.714 583.631 Q206.797 584.765 209.019 585.321 Q211.242 585.876 213.718 585.876 Q217.723 585.876 220.061 583.77 Q222.399 581.663 222.399 578.052 Q222.399 574.441 220.061 572.335 Q217.723 570.228 213.718 570.228 Q211.843 570.228 209.968 570.645 Q208.117 571.061 206.172 571.941 L206.172 554.58 Z" fill="#000000" fill-rule="nonzero" fill-opacity="1" /><path clip-path="url(#clip790)" d="M130.548 317.548 L138.186 317.548 L138.186 291.182 L129.876 292.849 L129.876 288.589 L138.14 286.923 L142.816 286.923 L142.816 317.548 L150.455 317.548 L150.455 321.483 L130.548 321.483 L130.548 317.548 Z" fill="#000000" fill-rule="nonzero" fill-opacity="1" /><path clip-path="url(#clip790)" d="M169.899 290.001 Q166.288 290.001 164.459 293.566 Q162.654 297.108 162.654 304.237 Q162.654 311.344 164.459 314.909 Q166.288 318.45 169.899 318.45 Q173.533 318.45 175.339 314.909 Q177.168 311.344 177.168 304.237 Q177.168 297.108 175.339 293.566 Q173.533 290.001 169.899 290.001 M169.899 286.298 Q175.709 286.298 178.765 290.904 Q181.844 295.488 181.844 304.237 Q181.844 312.964 178.765 317.571 Q175.709 322.154 169.899 322.154 Q164.089 322.154 161.01 317.571 Q157.955 312.964 157.955 304.237 Q157.955 295.488 161.01 290.904 Q164.089 286.298 169.899 286.298 Z" fill="#000000" fill-rule="nonzero" fill-opacity="1" /><path clip-path="url(#clip790)" d="M190.061 315.603 L194.945 315.603 L194.945 321.483 L190.061 321.483 L190.061 315.603 Z" fill="#000000" fill-rule="nonzero" fill-opacity="1" /><path clip-path="url(#clip790)" d="M215.13 290.001 Q211.519 290.001 209.691 293.566 Q207.885 297.108 207.885 304.237 Q207.885 311.344 209.691 314.909 Q211.519 318.45 215.13 318.45 Q218.765 318.45 220.57 314.909 Q222.399 311.344 222.399 304.237 Q222.399 297.108 220.57 293.566 Q218.765 290.001 215.13 290.001 M215.13 286.298 Q220.941 286.298 223.996 290.904 Q227.075 295.488 227.075 304.237 Q227.075 312.964 223.996 317.571 Q220.941 322.154 215.13 322.154 Q209.32 322.154 206.242 317.571 Q203.186 312.964 203.186 304.237 Q203.186 295.488 206.242 290.904 Q209.32 286.298 215.13 286.298 Z" fill="#000000" fill-rule="nonzero" fill-opacity="1" /><path clip-path="url(#clip790)" d="M45.3402 1073.54 Q46.0405 1071.48 48.3321 1069.53 Q50.6238 1067.56 54.6342 1065.59 L67.6202 1059.06 L67.6202 1065.97 L55.4299 1072.05 Q50.6556 1074.4 49.096 1076.63 Q47.5364 1078.83 47.5364 1082.65 L47.5364 1089.65 L67.6202 1089.65 L67.6202 1096.08 L20.1002 1096.08 L20.1002 1081.57 Q20.1002 1073.42 23.5059 1069.41 Q26.9115 1065.4 33.7865 1065.4 Q38.2743 1065.4 41.2344 1067.5 Q44.1944 1069.57 45.3402 1073.54 M25.3838 1089.65 L42.2529 1089.65 L42.2529 1081.57 Q42.2529 1076.92 40.1204 1074.56 Q37.956 1072.18 33.7865 1072.18 Q29.617 1072.18 27.5163 1074.56 Q25.3838 1076.92 25.3838 1081.57 L25.3838 1089.65 Z" fill="#000000" fill-rule="nonzero" fill-opacity="1" /><path clip-path="url(#clip790)" d="M48.3321 1023.48 L51.1967 1023.48 L51.1967 1050.41 Q57.2441 1050.02 60.427 1046.78 Q63.578 1043.5 63.578 1037.67 Q63.578 1034.3 62.7505 1031.15 Q61.9229 1027.97 60.2678 1024.85 L65.806 1024.85 Q67.1428 1028 67.843 1031.31 Q68.5432 1034.62 68.5432 1038.02 Q68.5432 1046.55 63.578 1051.55 Q58.6127 1056.52 50.1464 1056.52 Q41.3935 1056.52 36.2691 1051.81 Q31.1129 1047.06 31.1129 1039.04 Q31.1129 1031.85 35.7599 1027.68 Q40.375 1023.48 48.3321 1023.48 M46.6134 1029.33 Q41.8073 1029.4 38.9427 1032.04 Q36.0781 1034.65 36.0781 1038.98 Q36.0781 1043.88 38.8472 1046.84 Q41.6163 1049.77 46.6452 1050.21 L46.6134 1029.33 Z" fill="#000000" fill-rule="nonzero" fill-opacity="1" /><path clip-path="url(#clip790)" d="M62.273 1008.2 L81.1792 1008.2 L81.1792 1014.09 L31.9723 1014.09 L31.9723 1008.2 L37.3831 1008.2 Q34.2003 1006.35 32.6725 1003.55 Q31.1129 1000.72 31.1129 996.806 Q31.1129 990.313 36.2691 986.271 Q41.4253 982.197 49.8281 982.197 Q58.2308 982.197 63.387 986.271 Q68.5432 990.313 68.5432 996.806 Q68.5432 1000.72 67.0155 1003.55 Q65.4559 1006.35 62.273 1008.2 M49.8281 988.276 Q43.3669 988.276 39.7066 990.95 Q36.0145 993.591 36.0145 998.238 Q36.0145 1002.89 39.7066 1005.56 Q43.3669 1008.2 49.8281 1008.2 Q56.2893 1008.2 59.9814 1005.56 Q63.6417 1002.89 63.6417 998.238 Q63.6417 993.591 59.9814 990.95 Q56.2893 988.276 49.8281 988.276 Z" fill="#000000" fill-rule="nonzero" fill-opacity="1" /><path clip-path="url(#clip790)" d="M37.4468 951.832 Q36.8739 952.819 36.6192 953.997 Q36.3328 955.142 36.3328 956.543 Q36.3328 961.508 39.5793 964.182 Q42.794 966.824 48.8414 966.824 L67.6202 966.824 L67.6202 972.712 L31.9723 972.712 L31.9723 966.824 L37.5104 966.824 Q34.2639 964.977 32.7043 962.017 Q31.1129 959.057 31.1129 954.824 Q31.1129 954.219 31.2084 953.487 Q31.272 952.755 31.4312 951.864 L37.4468 951.832 Z" fill="#000000" fill-rule="nonzero" fill-opacity="1" /><path clip-path="url(#clip790)" d="M36.0781 933.308 Q36.0781 938.019 39.7703 940.756 Q43.4305 943.493 49.8281 943.493 Q56.2256 943.493 59.9177 940.788 Q63.578 938.051 63.578 933.308 Q63.578 928.629 59.8859 925.892 Q56.1938 923.155 49.8281 923.155 Q43.4942 923.155 39.8021 925.892 Q36.0781 928.629 36.0781 933.308 M31.1129 933.308 Q31.1129 925.669 36.0781 921.309 Q41.0434 916.948 49.8281 916.948 Q58.5809 916.948 63.578 921.309 Q68.5432 925.669 68.5432 933.308 Q68.5432 940.979 63.578 945.339 Q58.5809 949.668 49.8281 949.668 Q41.0434 949.668 36.0781 945.339 Q31.1129 940.979 31.1129 933.308 Z" fill="#000000" fill-rule="nonzero" fill-opacity="1" /><path clip-path="url(#clip790)" d="M37.3831 883.783 L18.095 883.783 L18.095 877.926 L67.6202 877.926 L67.6202 883.783 L62.273 883.783 Q65.4559 885.629 67.0155 888.462 Q68.5432 891.263 68.5432 895.209 Q68.5432 901.67 63.387 905.745 Q58.2308 909.787 49.8281 909.787 Q41.4253 909.787 36.2691 905.745 Q31.1129 901.67 31.1129 895.209 Q31.1129 891.263 32.6725 888.462 Q34.2003 885.629 37.3831 883.783 M49.8281 903.739 Q56.2893 903.739 59.9814 901.098 Q63.6417 898.424 63.6417 893.777 Q63.6417 889.13 59.9814 886.456 Q56.2893 883.783 49.8281 883.783 Q43.3669 883.783 39.7066 886.456 Q36.0145 889.13 36.0145 893.777 Q36.0145 898.424 39.7066 901.098 Q43.3669 903.739 49.8281 903.739 Z" fill="#000000" fill-rule="nonzero" fill-opacity="1" /><path clip-path="url(#clip790)" d="M53.552 866.468 L31.9723 866.468 L31.9723 860.612 L53.3292 860.612 Q58.3899 860.612 60.9362 858.638 Q63.4507 856.665 63.4507 852.718 Q63.4507 847.976 60.427 845.239 Q57.4033 842.469 52.1834 842.469 L31.9723 842.469 L31.9723 836.613 L67.6202 836.613 L67.6202 842.469 L62.1457 842.469 Q65.3922 844.602 66.9836 847.435 Q68.5432 850.236 68.5432 853.96 Q68.5432 860.102 64.7238 863.285 Q60.9044 866.468 53.552 866.468 M31.1129 851.732 L31.1129 851.732 Z" fill="#000000" fill-rule="nonzero" fill-opacity="1" /><path clip-path="url(#clip790)" d="M33.3409 798.896 L38.8154 798.896 Q37.4468 801.379 36.7784 803.893 Q36.0781 806.376 36.0781 808.922 Q36.0781 814.619 39.7066 817.77 Q43.3032 820.922 49.8281 820.922 Q56.3529 820.922 59.9814 817.77 Q63.578 814.619 63.578 808.922 Q63.578 806.376 62.9096 803.893 Q62.2094 801.379 60.8407 798.896 L66.2516 798.896 Q67.3974 801.347 67.9703 803.989 Q68.5432 806.599 68.5432 809.559 Q68.5432 817.611 63.4825 822.354 Q58.4218 827.096 49.8281 827.096 Q41.1071 827.096 36.11 822.322 Q31.1129 817.516 31.1129 809.177 Q31.1129 806.471 31.6858 803.893 Q32.2269 801.315 33.3409 798.896 Z" fill="#000000" fill-rule="nonzero" fill-opacity="1" /><path clip-path="url(#clip790)" d="M21.8508 782.918 L31.9723 782.918 L31.9723 770.855 L36.5237 770.855 L36.5237 782.918 L55.8755 782.918 Q60.236 782.918 61.4773 781.741 Q62.7186 780.531 62.7186 776.871 L62.7186 770.855 L67.6202 770.855 L67.6202 776.871 Q67.6202 783.65 65.1058 786.228 Q62.5595 788.807 55.8755 788.807 L36.5237 788.807 L36.5237 793.103 L31.9723 793.103 L31.9723 788.807 L21.8508 788.807 L21.8508 782.918 Z" fill="#000000" fill-rule="nonzero" fill-opacity="1" /><path clip-path="url(#clip790)" d="M31.9723 763.153 L31.9723 757.296 L67.6202 757.296 L67.6202 763.153 L31.9723 763.153 M18.095 763.153 L18.095 757.296 L25.5111 757.296 L25.5111 763.153 L18.095 763.153 Z" fill="#000000" fill-rule="nonzero" fill-opacity="1" /><path clip-path="url(#clip790)" d="M36.0781 731.229 Q36.0781 735.939 39.7703 738.677 Q43.4305 741.414 49.8281 741.414 Q56.2256 741.414 59.9177 738.708 Q63.578 735.971 63.578 731.229 Q63.578 726.55 59.8859 723.813 Q56.1938 721.075 49.8281 721.075 Q43.4942 721.075 39.8021 723.813 Q36.0781 726.55 36.0781 731.229 M31.1129 731.229 Q31.1129 723.59 36.0781 719.229 Q41.0434 714.869 49.8281 714.869 Q58.5809 714.869 63.578 719.229 Q68.5432 723.59 68.5432 731.229 Q68.5432 738.899 63.578 743.26 Q58.5809 747.589 49.8281 747.589 Q41.0434 747.589 36.0781 743.26 Q31.1129 738.899 31.1129 731.229 Z" fill="#000000" fill-rule="nonzero" fill-opacity="1" /><path clip-path="url(#clip790)" d="M46.1041 675.529 L67.6202 675.529 L67.6202 681.385 L46.2951 681.385 Q41.2344 681.385 38.7199 683.359 Q36.2055 685.332 36.2055 689.279 Q36.2055 694.021 39.2292 696.758 Q42.2529 699.496 47.4728 699.496 L67.6202 699.496 L67.6202 705.384 L31.9723 705.384 L31.9723 699.496 L37.5104 699.496 Q34.2957 697.395 32.7043 694.562 Q31.1129 691.698 31.1129 687.974 Q31.1129 681.831 34.9323 678.68 Q38.7199 675.529 46.1041 675.529 Z" fill="#000000" fill-rule="nonzero" fill-opacity="1" /><path clip-path="url(#clip790)" d="M46.1041 613.495 L67.6202 613.495 L67.6202 619.351 L46.2951 619.351 Q41.2344 619.351 38.7199 621.325 Q36.2055 623.298 36.2055 627.245 Q36.2055 631.987 39.2292 634.725 Q42.2529 637.462 47.4728 637.462 L67.6202 637.462 L67.6202 643.35 L31.9723 643.35 L31.9723 637.462 L37.5104 637.462 Q34.2957 635.361 32.7043 632.528 Q31.1129 629.664 31.1129 625.94 Q31.1129 619.797 34.9323 616.646 Q38.7199 613.495 46.1041 613.495 Z" fill="#000000" fill-rule="nonzero" fill-opacity="1" /><path clip-path="url(#clip790)" d="M53.552 602.419 L31.9723 602.419 L31.9723 596.562 L53.3292 596.562 Q58.3899 596.562 60.9362 594.589 Q63.4507 592.615 63.4507 588.669 Q63.4507 583.926 60.427 581.189 Q57.4033 578.42 52.1834 578.42 L31.9723 578.42 L31.9723 572.563 L67.6202 572.563 L67.6202 578.42 L62.1457 578.42 Q65.3922 580.552 66.9836 583.385 Q68.5432 586.186 68.5432 589.91 Q68.5432 596.053 64.7238 599.236 Q60.9044 602.419 53.552 602.419 M31.1129 587.682 L31.1129 587.682 Z" fill="#000000" fill-rule="nonzero" fill-opacity="1" /><path clip-path="url(#clip790)" d="M38.8154 532.746 Q34.8687 530.55 32.9908 527.494 Q31.1129 524.439 31.1129 520.301 Q31.1129 514.731 35.0278 511.707 Q38.9109 508.684 46.1041 508.684 L67.6202 508.684 L67.6202 514.572 L46.2951 514.572 Q41.1707 514.572 38.6881 516.386 Q36.2055 518.2 36.2055 521.924 Q36.2055 526.476 39.2292 529.118 Q42.2529 531.759 47.4728 531.759 L67.6202 531.759 L67.6202 537.648 L46.2951 537.648 Q41.1389 537.648 38.6881 539.462 Q36.2055 541.276 36.2055 545.064 Q36.2055 549.551 39.261 552.193 Q42.2847 554.835 47.4728 554.835 L67.6202 554.835 L67.6202 560.723 L31.9723 560.723 L31.9723 554.835 L37.5104 554.835 Q34.2321 552.83 32.6725 550.029 Q31.1129 547.228 31.1129 543.377 Q31.1129 539.494 33.0863 536.788 Q35.0596 534.051 38.8154 532.746 Z" fill="#000000" fill-rule="nonzero" fill-opacity="1" /><path clip-path="url(#clip790)" d="M49.8281 471.412 Q43.3669 471.412 39.7066 474.086 Q36.0145 476.728 36.0145 481.375 Q36.0145 486.022 39.7066 488.695 Q43.3669 491.337 49.8281 491.337 Q56.2893 491.337 59.9814 488.695 Q63.6417 486.022 63.6417 481.375 Q63.6417 476.728 59.9814 474.086 Q56.2893 471.412 49.8281 471.412 M37.3831 491.337 Q34.2003 489.491 32.6725 486.69 Q31.1129 483.857 31.1129 479.942 Q31.1129 473.449 36.2691 469.407 Q41.4253 465.333 49.8281 465.333 Q58.2308 465.333 63.387 469.407 Q68.5432 473.449 68.5432 479.942 Q68.5432 483.857 67.0155 486.69 Q65.4559 489.491 62.273 491.337 L67.6202 491.337 L67.6202 497.225 L18.095 497.225 L18.095 491.337 L37.3831 491.337 Z" fill="#000000" fill-rule="nonzero" fill-opacity="1" /><path clip-path="url(#clip790)" d="M48.3321 425.134 L51.1967 425.134 L51.1967 452.061 Q57.2441 451.679 60.427 448.432 Q63.578 445.154 63.578 439.329 Q63.578 435.955 62.7505 432.804 Q61.9229 429.622 60.2678 426.502 L65.806 426.502 Q67.1428 429.653 67.843 432.964 Q68.5432 436.274 68.5432 439.679 Q68.5432 448.209 63.578 453.206 Q58.6127 458.172 50.1464 458.172 Q41.3935 458.172 36.2691 453.461 Q31.1129 448.719 31.1129 440.698 Q31.1129 433.505 35.7599 429.335 Q40.375 425.134 48.3321 425.134 M46.6134 430.99 Q41.8073 431.054 38.9427 433.696 Q36.0781 436.306 36.0781 440.634 Q36.0781 445.536 38.8472 448.496 Q41.6163 451.424 46.6452 451.87 L46.6134 430.99 Z" fill="#000000" fill-rule="nonzero" fill-opacity="1" /><path clip-path="url(#clip790)" d="M37.4468 394.865 Q36.8739 395.851 36.6192 397.029 Q36.3328 398.175 36.3328 399.575 Q36.3328 404.541 39.5793 407.214 Q42.794 409.856 48.8414 409.856 L67.6202 409.856 L67.6202 415.744 L31.9723 415.744 L31.9723 409.856 L37.5104 409.856 Q34.2639 408.01 32.7043 405.05 Q31.1129 402.09 31.1129 397.857 Q31.1129 397.252 31.2084 396.52 Q31.272 395.788 31.4312 394.897 L37.4468 394.865 Z" fill="#000000" fill-rule="nonzero" fill-opacity="1" /><path clip-path="url(#clip792)" d="M355.627 1304.75 L382.749 1305.97 L409.871 1302.74 L436.993 1301.35 L464.115 1302.07 L491.237 1295.83 L518.359 1292.41 L545.481 1287.54 L572.603 1287.85 L599.725 1284.93 L626.847 1288.43 L653.969 1287.8 L681.091 1281.15 L708.213 1276.86 L735.336 1259.32 L762.458 1243 L789.58 1222.96 L816.702 1201.81 L843.824 1169.18 L870.946 1131.09 L898.068 1099.58 L925.19 1087.76 L952.312 1066.39 L979.434 1072.66 L1006.56 1049.04 L1033.68 1023.23 L1060.8 1050.52 L1087.92 1055.64 L1115.04 1073.81 L1142.17 1133.79 L1169.29 1189.06 L1196.41 1225.72 L1223.53 1248.31 L1250.65 1273.68 L1277.78 1268.42 L1304.9 1271.06 L1332.02 1271.17 L1359.14 1278.73 L1386.26 1285.32 L1413.39 1297.19 L1440.51 1313.69 L1467.63 1327.34 L1494.75 1333.09 L1521.87 1331.23 L1549 1337.54 L1576.12 1341.06 L1603.24 1345.4 L1630.36 1348.18 L1657.48 1347.66 L1684.61 1348.29 L1711.73 1346.73 L1738.85 1347.51 L1765.97 1348.4 L1793.09 1349.39 L1820.22 1351.57 L1847.34 1351.14 L1874.46 1350.58 L1901.58 1349.99 L1928.7 1349.05 L1955.83 1349.16 L1982.95 1350.06 L2010.07 1350.95 L2037.19 1351.32 L2064.31 1350.64 L2091.44 1349.89 L2118.56 1350.13 L2145.68 1351.54 L2172.8 1351.09 L2199.92 1351.3 L2227.05 1350.44 L2254.17 1350.35 L2281.29 1350.33 L2308.41 1350.4 L2335.53 1351.14 L2362.66 1352.19 L2389.78 1354.15 L2416.9 1355.2 L2444.02 1355.96 L2471.14 1356.26 L2498.27 1357.29 L2525.39 1358.75 L2552.51 1359.98 L2579.63 1361.33 L2606.76 1361.89 L2633.88 1362.36 L2661 1363 L2688.12 1363.32 L2715.24 1364.25 L2742.37 1365.03 L2769.49 1365.71 L2796.61 1366.3 L2823.73 1366.84 L2850.85 1367.26 L2877.98 1367.77 L2905.1 1368.15 L2932.22 1368.51 L2959.34 1368.84 L2986.46 1369.1 L3013.59 1369.42 L3040.71 1369.68 L3040.71 1232.8 L3013.59 1240.12 L2986.46 1246.57 L2959.34 1253.02 L2932.22 1257.55 L2905.1 1262.64 L2877.98 1267.47 L2850.85 1271.46 L2823.73 1274.25 L2796.61 1276.65 L2769.49 1279.08 L2742.37 1280.33 L2715.24 1280.43 L2688.12 1280.79 L2661 1284.62 L2633.88 1286.23 L2606.76 1288.12 L2579.63 1289.49 L2552.51 1290 L2525.39 1288.72 L2498.27 1286.65 L2471.14 1286.47 L2444.02 1288.78 L2416.9 1290.08 L2389.78 1287.33 L2362.66 1284.26 L2335.53 1284.06 L2308.41 1284.1 L2281.29 1283.79 L2254.17 1285.52 L2227.05 1289.89 L2199.92 1295.92 L2172.8 1297.94 L2145.68 1298.69 L2118.56 1296.89 L2091.44 1299.38 L2064.31 1303.71 L2037.19 1305.79 L2010.07 1306.3 L1982.95 1305.99 L1955.83 1304.23 L1928.7 1307.45 L1901.58 1311.49 L1874.46 1313.96 L1847.34 1317.12 L1820.22 1318.41 L1793.09 1315.7 L1765.97 1314.19 L1738.85 1312.87 L1711.73 1312.65 L1684.61 1317.87 L1657.48 1318.32 L1630.36 1320.47 L1603.24 1315.22 L1576.12 1310.76 L1549 1305.47 L1521.87 1295.5 L1494.75 1299.61 L1467.63 1290.46 L1440.51 1271.77 L1413.39 1247.16 L1386.26 1228.31 L1359.14 1218.36 L1332.02 1205.49 L1304.9 1204.27 L1277.78 1197.36 L1250.65 1203.38 L1223.53 1166.14 L1196.41 1129.02 L1169.29 1066.6 L1142.17 974.953 L1115.04 862.202 L1087.92 822.703 L1060.8 782.348 L1033.68 694.886 L1006.56 713.71 L979.434 744.9 L952.312 669.866 L925.19 701.77 L898.068 652.387 L870.946 710.108 L843.824 786.147 L816.702 851.694 L789.58 874.627 L762.458 913.699 L735.336 960.042 L708.213 976.516 L681.091 997.473 L653.969 1001.05 L626.847 986.286 L599.725 942.741 L572.603 917.941 L545.481 895.379 L518.359 898.509 L491.237 870.567 L464.115 845.206 L436.993 822.405 L409.871 750.586 L382.749 704.962 L355.627 646.542  Z" fill="#90ee90" fill-rule="evenodd" fill-opacity="0.5"/>
<polyline clip-path="url(#clip792)" style="stroke:#90ee90; stroke-linecap:round; stroke-linejoin:round; stroke-width:4; stroke-opacity:1; fill:none" points="355.627,1098.58 382.749,1112.95 409.871,1125.21 436.993,1134.1 464.115,1139.57 491.237,1140.43 518.359,1144.41 545.481,1143.49 572.603,1149.31 599.725,1157.86 626.847,1169.26 653.969,1173.61 681.091,1170.71 708.213,1160.48 735.336,1141.86 762.458,1114.14 789.58,1083.91 816.702,1051.49 843.824,1011.06 870.946,955.721 898.068,918.789 925.19,928.807 952.312,903.606 979.434,927.398 1006.56,902.163 1033.68,877.912 1060.8,928.671 1087.92,952.172 1115.04,978.114 1142.17,1061.61 1169.29,1131.1 1196.41,1179.63 1223.53,1209.76 1250.65,1240.82 1277.78,1235.2 1304.9,1240.01 1332.02,1240.68 1359.14,1250.49 1386.26,1258.96 1413.39,1273.83 1440.51,1293.85 1467.63,1309.96 1494.75,1317.48 1521.87,1315.66 1549,1322.93 1576.12,1327.27 1603.24,1331.68 1630.36,1335.61 1657.48,1334.74 1684.61,1334.49 1711.73,1331.9 1738.85,1332.37 1765.97,1333.5 1793.09,1334.61 1820.22,1336.96 1847.34,1336.13 1874.46,1335.06 1901.58,1333.43 1928.7,1331.61 1955.83,1330.96 1982.95,1331.78 2010.07,1332.15 2037.19,1332.27 2064.31,1330.87 2091.44,1329.01 2118.56,1327.96 2145.68,1330.02 2172.8,1329.69 2199.92,1329.07 2227.05,1326.66 2254.17,1325.03 2281.29,1324.35 2308.41,1324.19 2335.53,1324.52 2362.66,1325.39 2389.78,1328.12 2416.9,1329.67 2444.02,1330.08 2471.14,1329.75 2498.27,1330.56 2525.39,1332.52 2552.51,1333.82 2579.63,1334.56 2606.76,1334.95 2633.88,1335.04 2661,1334.98 2688.12,1334.34 2715.24,1335.33 2742.37,1336.1 2769.49,1336.41 2796.61,1336.61 2823.73,1336.69 2850.85,1336.62 2877.98,1336.43 2905.1,1336.09 2932.22,1335.65 2959.34,1335.1 2986.46,1334.49 3013.59,1333.76 3040.71,1332.95 "/>
<path clip-path="url(#clip792)" d="M355.627 1294.68 L382.749 1294.65 L409.871 1293.09 L436.993 1295.02 L464.115 1301.63 L491.237 1310.42 L518.359 1318.86 L545.481 1316.92 L572.603 1315.11 L599.725 1310.51 L626.847 1297.93 L653.969 1279.94 L681.091 1255.11 L708.213 1218.39 L735.336 1171.3 L762.458 1135.38 L789.58 1094.19 L816.702 1102.4 L843.824 1132.92 L870.946 1135.86 L898.068 1110.22 L925.19 1105.91 L952.312 1081.18 L979.434 1105.45 L1006.56 1151.86 L1033.68 1218.76 L1060.8 1273.21 L1087.92 1307.89 L1115.04 1319.63 L1142.17 1317.5 L1169.29 1307.31 L1196.41 1294.3 L1223.53 1291.76 L1250.65 1302.5 L1277.78 1322.41 L1304.9 1338.15 L1332.02 1347.33 L1359.14 1352.65 L1386.26 1353.66 L1413.39 1353.62 L1440.51 1354.66 L1467.63 1356.77 L1494.75 1357.92 L1521.87 1358.68 L1549 1357.12 L1576.12 1355.92 L1603.24 1355.23 L1630.36 1356.27 L1657.48 1357.76 L1684.61 1359.46 L1711.73 1359.29 L1738.85 1359.22 L1765.97 1358.63 L1793.09 1357.58 L1820.22 1357.6 L1847.34 1357.99 L1874.46 1359.32 L1901.58 1359.84 L1928.7 1359.97 L1955.83 1359.76 L1982.95 1359.7 L2010.07 1360.5 L2037.19 1360.89 L2064.31 1360.7 L2091.44 1360.28 L2118.56 1360.13 L2145.68 1360.11 L2172.8 1360.78 L2199.92 1361.33 L2227.05 1362.79 L2254.17 1363.72 L2281.29 1364.83 L2308.41 1366.13 L2335.53 1367.14 L2362.66 1367.71 L2389.78 1368.48 L2416.9 1369.28 L2444.02 1370 L2471.14 1370.55 L2498.27 1371.1 L2525.39 1371.45 L2552.51 1372 L2579.63 1372.33 L2606.76 1372.71 L2633.88 1373.02 L2661 1373.29 L2688.12 1373.48 L2715.24 1373.64 L2742.37 1373.76 L2769.49 1373.9 L2796.61 1373.99 L2823.73 1374.05 L2850.85 1374.13 L2877.98 1374.2 L2905.1 1374.26 L2932.22 1374.31 L2959.34 1374.36 L2986.46 1374.4 L3013.59 1374.43 L3040.71 1374.46 L3040.71 1000.82 L3013.59 1034.73 L2986.46 1068.2 L2959.34 1097.43 L2932.22 1122 L2905.1 1146.74 L2877.98 1170.14 L2850.85 1188.09 L2823.73 1202.66 L2796.61 1215.86 L2769.49 1228.86 L2742.37 1238.12 L2715.24 1243.64 L2688.12 1249.26 L2661 1255.26 L2633.88 1259.47 L2606.76 1260.82 L2579.63 1263.65 L2552.51 1265.25 L2525.39 1267.77 L2498.27 1272.04 L2471.14 1273.79 L2444.02 1273.33 L2416.9 1272.44 L2389.78 1272.1 L2362.66 1272.36 L2335.53 1271.9 L2308.41 1269.27 L2281.29 1264.8 L2254.17 1263.53 L2227.05 1256.44 L2199.92 1252.38 L2172.8 1251.57 L2145.68 1255.2 L2118.56 1261.64 L2091.44 1267.06 L2064.31 1271.43 L2037.19 1276.09 L2010.07 1275.6 L1982.95 1278.83 L1955.83 1282.08 L1928.7 1285.57 L1901.58 1286.5 L1874.46 1286.62 L1847.34 1286.3 L1820.22 1286.21 L1793.09 1290.18 L1765.97 1293.23 L1738.85 1300.61 L1711.73 1303.03 L1684.61 1305.6 L1657.48 1300.3 L1630.36 1295.82 L1603.24 1296.42 L1576.12 1299.59 L1549 1304.73 L1521.87 1310.62 L1494.75 1310.92 L1467.63 1308.86 L1440.51 1304.29 L1413.39 1302.52 L1386.26 1302.38 L1359.14 1297.78 L1332.02 1284.47 L1304.9 1261.23 L1277.78 1221.78 L1250.65 1171.08 L1223.53 1133.49 L1196.41 1146.98 L1169.29 1180.61 L1142.17 1201.25 L1115.04 1192.6 L1087.92 1157.5 L1060.8 1077.71 L1033.68 929.917 L1006.56 736.052 L979.434 567.289 L952.312 445.355 L925.19 486.434 L898.068 494.967 L870.946 493.275 L843.824 399.541 L816.702 275.593 L789.58 116.48 L762.458 187.078 L735.336 260.134 L708.213 413.27 L681.091 569.31 L653.969 676.796 L626.847 708.38 L599.725 800.683 L572.603 776.563 L545.481 831.964 L518.359 813.12 L491.237 734.824 L464.115 628.18 L436.993 538.241 L409.871 405.74 L382.749 321.975 L355.627 361.126  Z" fill="#006400" fill-rule="evenodd" fill-opacity="0.5"/>
<polyline clip-path="url(#clip792)" style="stroke:#006400; stroke-linecap:round; stroke-linejoin:round; stroke-width:4; stroke-opacity:1; fill:none" points="355.627,914.947 382.749,959.931 409.871,996.202 436.993,1027.75 464.115,1064.96 491.237,1098.96 518.359,1122.66 545.481,1136.3 572.603,1131.78 599.725,1117.4 626.847,1081.88 653.969,1048.21 681.091,990.141 708.213,925.143 735.336,865.509 762.458,797.503 789.58,757.74 816.702,780.847 843.824,834.551 870.946,861.689 898.068,860.847 925.19,845.817 952.312,844.808 979.434,892.952 1006.56,992.038 1033.68,1100.05 1060.8,1188.63 1087.92,1238.27 1115.04,1261.04 1142.17,1263.49 1169.29,1251.95 1196.41,1234.94 1223.53,1229.5 1250.65,1249.45 1277.78,1278.84 1304.9,1303.76 1332.02,1319.48 1359.14,1328.03 1386.26,1331.57 1413.39,1332.54 1440.51,1334.24 1467.63,1336.86 1494.75,1338.45 1521.87,1338.19 1549,1336.05 1576.12,1333.43 1603.24,1332.3 1630.36,1333.23 1657.48,1335.24 1684.61,1337.21 1711.73,1337.23 1738.85,1336 1765.97,1333.69 1793.09,1331.75 1820.22,1330.7 1847.34,1330.99 1874.46,1331.76 1901.58,1332.1 1928.7,1331.78 1955.83,1330.9 1982.95,1330.09 2010.07,1329.5 2037.19,1329.77 2064.31,1328.85 2091.44,1327.55 2118.56,1325.73 2145.68,1324.35 2172.8,1324.1 2199.92,1325.13 2227.05,1327.23 2254.17,1329.68 2281.29,1331.67 2308.41,1333.79 2335.53,1335.39 2362.66,1336.57 2389.78,1337.69 2416.9,1338.73 2444.02,1339.77 2471.14,1340.41 2498.27,1340.57 2525.39,1340.81 2552.51,1341.17 2579.63,1341.8 2606.76,1342.27 2633.88,1342.76 2661,1342.91 2688.12,1342.84 2715.24,1342.32 2742.37,1341.74 2769.49,1340.87 2796.61,1339.49 2823.73,1337.99 2850.85,1336.28 2877.98,1334.06 2905.1,1331.55 2932.22,1328.56 2959.34,1325.02 2986.46,1321 3013.59,1316 3040.71,1310.61 "/>
<path clip-path="url(#clip790)" d="M2414.87 278.709 L3026.39 278.709 L3026.39 123.189 L2414.87 123.189  Z" fill="#ffffff" fill-rule="evenodd" fill-opacity="1"/>
<polyline clip-path="url(#clip790)" style="stroke:#000000; stroke-linecap:round; stroke-linejoin:round; stroke-width:4; stroke-opacity:1; fill:none" points="2414.87,278.709 3026.39,278.709 3026.39,123.189 2414.87,123.189 2414.87,278.709 "/>
<polyline clip-path="url(#clip790)" style="stroke:#90ee90; stroke-linecap:round; stroke-linejoin:round; stroke-width:4; stroke-opacity:1; fill:none" points="2446.5,175.029 2636.24,175.029 "/>
<path clip-path="url(#clip790)" d="M2667.87 157.749 L2672.59 157.749 L2679.86 186.962 L2687.1 157.749 L2692.36 157.749 L2699.63 186.962 L2706.87 157.749 L2711.62 157.749 L2702.94 192.309 L2697.06 192.309 L2689.76 162.309 L2682.4 192.309 L2676.52 192.309 L2667.87 157.749 Z" fill="#000000" fill-rule="nonzero" fill-opacity="1" /><path clip-path="url(#clip790)" d="M2716.59 166.383 L2720.85 166.383 L2720.85 192.309 L2716.59 192.309 L2716.59 166.383 M2716.59 156.291 L2720.85 156.291 L2720.85 161.684 L2716.59 161.684 L2716.59 156.291 Z" fill="#000000" fill-rule="nonzero" fill-opacity="1" /><path clip-path="url(#clip790)" d="M2733.98 159.022 L2733.98 166.383 L2742.75 166.383 L2742.75 169.693 L2733.98 169.693 L2733.98 183.767 Q2733.98 186.939 2734.83 187.841 Q2735.71 188.744 2738.38 188.744 L2742.75 188.744 L2742.75 192.309 L2738.38 192.309 Q2733.44 192.309 2731.57 190.48 Q2729.69 188.628 2729.69 183.767 L2729.69 169.693 L2726.57 169.693 L2726.57 166.383 L2729.69 166.383 L2729.69 159.022 L2733.98 159.022 Z" fill="#000000" fill-rule="nonzero" fill-opacity="1" /><path clip-path="url(#clip790)" d="M2769.9 176.661 L2769.9 192.309 L2765.64 192.309 L2765.64 176.8 Q2765.64 173.119 2764.21 171.291 Q2762.77 169.462 2759.9 169.462 Q2756.45 169.462 2754.46 171.661 Q2752.47 173.86 2752.47 177.656 L2752.47 192.309 L2748.19 192.309 L2748.19 156.291 L2752.47 156.291 L2752.47 170.411 Q2754 168.073 2756.06 166.916 Q2758.14 165.758 2760.85 165.758 Q2765.32 165.758 2767.61 168.536 Q2769.9 171.291 2769.9 176.661 Z" fill="#000000" fill-rule="nonzero" fill-opacity="1" /><path clip-path="url(#clip790)" d="M2788.44 169.369 Q2785.02 169.369 2783.03 172.054 Q2781.04 174.716 2781.04 179.369 Q2781.04 184.022 2783 186.707 Q2785 189.369 2788.44 189.369 Q2791.85 189.369 2793.84 186.684 Q2795.83 183.999 2795.83 179.369 Q2795.83 174.763 2793.84 172.078 Q2791.85 169.369 2788.44 169.369 M2788.44 165.758 Q2794 165.758 2797.17 169.369 Q2800.34 172.98 2800.34 179.369 Q2800.34 185.735 2797.17 189.369 Q2794 192.98 2788.44 192.98 Q2782.87 192.98 2779.69 189.369 Q2776.55 185.735 2776.55 179.369 Q2776.55 172.98 2779.69 169.369 Q2782.87 165.758 2788.44 165.758 Z" fill="#000000" fill-rule="nonzero" fill-opacity="1" /><path clip-path="url(#clip790)" d="M2806.96 182.078 L2806.96 166.383 L2811.22 166.383 L2811.22 181.915 Q2811.22 185.596 2812.66 187.448 Q2814.09 189.277 2816.96 189.277 Q2820.41 189.277 2822.4 187.077 Q2824.42 184.878 2824.42 181.082 L2824.42 166.383 L2828.68 166.383 L2828.68 192.309 L2824.42 192.309 L2824.42 188.327 Q2822.87 190.689 2820.81 191.846 Q2818.77 192.98 2816.06 192.98 Q2811.59 192.98 2809.28 190.202 Q2806.96 187.425 2806.96 182.078 M2817.68 165.758 L2817.68 165.758 Z" fill="#000000" fill-rule="nonzero" fill-opacity="1" /><path clip-path="url(#clip790)" d="M2841.66 159.022 L2841.66 166.383 L2850.43 166.383 L2850.43 169.693 L2841.66 169.693 L2841.66 183.767 Q2841.66 186.939 2842.52 187.841 Q2843.4 188.744 2846.06 188.744 L2850.43 188.744 L2850.43 192.309 L2846.06 192.309 Q2841.13 192.309 2839.25 190.48 Q2837.38 188.628 2837.38 183.767 L2837.38 169.693 L2834.25 169.693 L2834.25 166.383 L2837.38 166.383 L2837.38 159.022 L2841.66 159.022 Z" fill="#000000" fill-rule="nonzero" fill-opacity="1" /><path clip-path="url(#clip790)" d="M2888.17 170.318 L2888.17 156.291 L2892.43 156.291 L2892.43 192.309 L2888.17 192.309 L2888.17 188.42 Q2886.82 190.735 2884.76 191.869 Q2882.73 192.98 2879.86 192.98 Q2875.16 192.98 2872.19 189.23 Q2869.25 185.48 2869.25 179.369 Q2869.25 173.258 2872.19 169.508 Q2875.16 165.758 2879.86 165.758 Q2882.73 165.758 2884.76 166.892 Q2886.82 168.004 2888.17 170.318 M2873.65 179.369 Q2873.65 184.068 2875.57 186.753 Q2877.52 189.415 2880.9 189.415 Q2884.28 189.415 2886.22 186.753 Q2888.17 184.068 2888.17 179.369 Q2888.17 174.67 2886.22 172.008 Q2884.28 169.323 2880.9 169.323 Q2877.52 169.323 2875.57 172.008 Q2873.65 174.67 2873.65 179.369 Z" fill="#000000" fill-rule="nonzero" fill-opacity="1" /><path clip-path="url(#clip790)" d="M2923.37 178.281 L2923.37 180.365 L2903.79 180.365 Q2904.07 184.763 2906.43 187.077 Q2908.81 189.369 2913.05 189.369 Q2915.5 189.369 2917.8 188.767 Q2920.11 188.165 2922.38 186.962 L2922.38 190.99 Q2920.09 191.962 2917.68 192.471 Q2915.27 192.98 2912.8 192.98 Q2906.59 192.98 2902.96 189.369 Q2899.35 185.758 2899.35 179.601 Q2899.35 173.235 2902.77 169.508 Q2906.22 165.758 2912.05 165.758 Q2917.29 165.758 2920.32 169.138 Q2923.37 172.494 2923.37 178.281 M2919.11 177.031 Q2919.07 173.536 2917.15 171.453 Q2915.25 169.369 2912.1 169.369 Q2908.54 169.369 2906.38 171.383 Q2904.25 173.397 2903.93 177.054 L2919.11 177.031 Z" fill="#000000" fill-rule="nonzero" fill-opacity="1" /><path clip-path="url(#clip790)" d="M2930.36 156.291 L2934.62 156.291 L2934.62 192.309 L2930.36 192.309 L2930.36 156.291 Z" fill="#000000" fill-rule="nonzero" fill-opacity="1" /><path clip-path="url(#clip790)" d="M2955.32 179.277 Q2950.16 179.277 2948.17 180.457 Q2946.18 181.638 2946.18 184.485 Q2946.18 186.753 2947.66 188.096 Q2949.16 189.415 2951.73 189.415 Q2955.27 189.415 2957.4 186.915 Q2959.55 184.392 2959.55 180.226 L2959.55 179.277 L2955.32 179.277 M2963.81 177.517 L2963.81 192.309 L2959.55 192.309 L2959.55 188.374 Q2958.1 190.735 2955.92 191.869 Q2953.74 192.98 2950.6 192.98 Q2946.61 192.98 2944.25 190.758 Q2941.92 188.513 2941.92 184.763 Q2941.92 180.388 2944.83 178.166 Q2947.77 175.943 2953.58 175.943 L2959.55 175.943 L2959.55 175.527 Q2959.55 172.587 2957.61 170.99 Q2955.69 169.369 2952.19 169.369 Q2949.97 169.369 2947.86 169.902 Q2945.76 170.434 2943.81 171.499 L2943.81 167.564 Q2946.15 166.661 2948.35 166.221 Q2950.55 165.758 2952.63 165.758 Q2958.26 165.758 2961.04 168.675 Q2963.81 171.591 2963.81 177.517 Z" fill="#000000" fill-rule="nonzero" fill-opacity="1" /><path clip-path="url(#clip790)" d="M2983.37 194.716 Q2981.57 199.346 2979.86 200.758 Q2978.14 202.17 2975.27 202.17 L2971.87 202.17 L2971.87 198.605 L2974.37 198.605 Q2976.13 198.605 2977.1 197.772 Q2978.07 196.939 2979.25 193.837 L2980.02 191.892 L2969.53 166.383 L2974.05 166.383 L2982.15 186.661 L2990.25 166.383 L2994.76 166.383 L2983.37 194.716 Z" fill="#000000" fill-rule="nonzero" fill-opacity="1" /><polyline clip-path="url(#clip790)" style="stroke:#006400; stroke-linecap:round; stroke-linejoin:round; stroke-width:4; stroke-opacity:1; fill:none" points="2446.5,226.869 2636.24,226.869 "/>
<path clip-path="url(#clip790)" d="M2667.87 209.589 L2672.59 209.589 L2679.86 238.802 L2687.1 209.589 L2692.36 209.589 L2699.63 238.802 L2706.87 209.589 L2711.62 209.589 L2702.94 244.149 L2697.06 244.149 L2689.76 214.149 L2682.4 244.149 L2676.52 244.149 L2667.87 209.589 Z" fill="#000000" fill-rule="nonzero" fill-opacity="1" /><path clip-path="url(#clip790)" d="M2716.59 218.223 L2720.85 218.223 L2720.85 244.149 L2716.59 244.149 L2716.59 218.223 M2716.59 208.131 L2720.85 208.131 L2720.85 213.524 L2716.59 213.524 L2716.59 208.131 Z" fill="#000000" fill-rule="nonzero" fill-opacity="1" /><path clip-path="url(#clip790)" d="M2733.98 210.862 L2733.98 218.223 L2742.75 218.223 L2742.75 221.533 L2733.98 221.533 L2733.98 235.607 Q2733.98 238.779 2734.83 239.681 Q2735.71 240.584 2738.38 240.584 L2742.75 240.584 L2742.75 244.149 L2738.38 244.149 Q2733.44 244.149 2731.57 242.32 Q2729.69 240.468 2729.69 235.607 L2729.69 221.533 L2726.57 221.533 L2726.57 218.223 L2729.69 218.223 L2729.69 210.862 L2733.98 210.862 Z" fill="#000000" fill-rule="nonzero" fill-opacity="1" /><path clip-path="url(#clip790)" d="M2769.9 228.501 L2769.9 244.149 L2765.64 244.149 L2765.64 228.64 Q2765.64 224.959 2764.21 223.131 Q2762.77 221.302 2759.9 221.302 Q2756.45 221.302 2754.46 223.501 Q2752.47 225.7 2752.47 229.496 L2752.47 244.149 L2748.19 244.149 L2748.19 208.131 L2752.47 208.131 L2752.47 222.251 Q2754 219.913 2756.06 218.756 Q2758.14 217.598 2760.85 217.598 Q2765.32 217.598 2767.61 220.376 Q2769.9 223.131 2769.9 228.501 Z" fill="#000000" fill-rule="nonzero" fill-opacity="1" /><path clip-path="url(#clip790)" d="M2810.53 222.158 L2810.53 208.131 L2814.79 208.131 L2814.79 244.149 L2810.53 244.149 L2810.53 240.26 Q2809.19 242.575 2807.12 243.709 Q2805.09 244.82 2802.22 244.82 Q2797.52 244.82 2794.56 241.07 Q2791.62 237.32 2791.62 231.209 Q2791.62 225.098 2794.56 221.348 Q2797.52 217.598 2802.22 217.598 Q2805.09 217.598 2807.12 218.732 Q2809.19 219.844 2810.53 222.158 M2796.01 231.209 Q2796.01 235.908 2797.94 238.593 Q2799.88 241.255 2803.26 241.255 Q2806.64 241.255 2808.58 238.593 Q2810.53 235.908 2810.53 231.209 Q2810.53 226.51 2808.58 223.848 Q2806.64 221.163 2803.26 221.163 Q2799.88 221.163 2797.94 223.848 Q2796.01 226.51 2796.01 231.209 Z" fill="#000000" fill-rule="nonzero" fill-opacity="1" /><path clip-path="url(#clip790)" d="M2845.74 230.121 L2845.74 232.205 L2826.15 232.205 Q2826.43 236.603 2828.79 238.917 Q2831.18 241.209 2835.41 241.209 Q2837.87 241.209 2840.16 240.607 Q2842.47 240.005 2844.74 238.802 L2844.74 242.83 Q2842.45 243.802 2840.04 244.311 Q2837.63 244.82 2835.16 244.82 Q2828.95 244.82 2825.32 241.209 Q2821.71 237.598 2821.71 231.441 Q2821.71 225.075 2825.13 221.348 Q2828.58 217.598 2834.42 217.598 Q2839.65 217.598 2842.68 220.978 Q2845.74 224.334 2845.74 230.121 M2841.48 228.871 Q2841.43 225.376 2839.51 223.293 Q2837.61 221.209 2834.46 221.209 Q2830.9 221.209 2828.75 223.223 Q2826.62 225.237 2826.29 228.894 L2841.48 228.871 Z" fill="#000000" fill-rule="nonzero" fill-opacity="1" /><path clip-path="url(#clip790)" d="M2852.73 208.131 L2856.99 208.131 L2856.99 244.149 L2852.73 244.149 L2852.73 208.131 Z" fill="#000000" fill-rule="nonzero" fill-opacity="1" /><path clip-path="url(#clip790)" d="M2877.68 231.117 Q2872.52 231.117 2870.53 232.297 Q2868.54 233.478 2868.54 236.325 Q2868.54 238.593 2870.02 239.936 Q2871.52 241.255 2874.09 241.255 Q2877.63 241.255 2879.76 238.755 Q2881.92 236.232 2881.92 232.066 L2881.92 231.117 L2877.68 231.117 M2886.18 229.357 L2886.18 244.149 L2881.92 244.149 L2881.92 240.214 Q2880.46 242.575 2878.28 243.709 Q2876.11 244.82 2872.96 244.82 Q2868.98 244.82 2866.62 242.598 Q2864.28 240.353 2864.28 236.603 Q2864.28 232.228 2867.19 230.006 Q2870.13 227.783 2875.94 227.783 L2881.92 227.783 L2881.92 227.367 Q2881.92 224.427 2879.97 222.83 Q2878.05 221.209 2874.56 221.209 Q2872.33 221.209 2870.23 221.742 Q2868.12 222.274 2866.18 223.339 L2866.18 219.404 Q2868.51 218.501 2870.71 218.061 Q2872.91 217.598 2874.99 217.598 Q2880.62 217.598 2883.4 220.515 Q2886.18 223.431 2886.18 229.357 Z" fill="#000000" fill-rule="nonzero" fill-opacity="1" /><path clip-path="url(#clip790)" d="M2905.74 246.556 Q2903.93 251.186 2902.22 252.598 Q2900.5 254.01 2897.63 254.01 L2894.23 254.01 L2894.23 250.445 L2896.73 250.445 Q2898.49 250.445 2899.46 249.612 Q2900.43 248.779 2901.62 245.677 L2902.38 243.732 L2891.89 218.223 L2896.41 218.223 L2904.51 238.501 L2912.61 218.223 L2917.12 218.223 L2905.74 246.556 Z" fill="#000000" fill-rule="nonzero" fill-opacity="1" /></svg>
