<?xml version="1.0" encoding="utf-8"?>
<svg xmlns="http://www.w3.org/2000/svg" xmlns:xlink="http://www.w3.org/1999/xlink" width="600" height="400" viewBox="0 0 2400 1600">
<defs>
  <clipPath id="clip630">
    <rect x="0" y="0" width="2400" height="1600"/>
  </clipPath>
</defs>
<path clip-path="url(#clip630)" d="M0 1600 L2400 1600 L2400 8.88178e-14 L0 8.88178e-14  Z" fill="#ffffff" fill-rule="evenodd" fill-opacity="1"/>
<defs>
  <clipPath id="clip631">
    <rect x="480" y="0" width="1681" height="1600"/>
  </clipPath>
</defs>
<path clip-path="url(#clip630)" d="M311.2 1391.68 L2321.26 1391.68 L2321.26 78.7402 L311.2 78.7402  Z" fill="#ffffff" fill-rule="evenodd" fill-opacity="1"/>
<defs>
  <clipPath id="clip632">
    <rect x="311" y="78" width="2011" height="1314"/>
  </clipPath>
</defs>
<polyline clip-path="url(#clip632)" style="stroke:#000000; stroke-linecap:round; stroke-linejoin:round; stroke-width:2; stroke-opacity:0.1; fill:none" points="421.757,1391.68 421.757,78.7402 "/>
<polyline clip-path="url(#clip632)" style="stroke:#000000; stroke-linecap:round; stroke-linejoin:round; stroke-width:2; stroke-opacity:0.1; fill:none" points="819.3,1391.68 819.3,78.7402 "/>
<polyline clip-path="url(#clip632)" style="stroke:#000000; stroke-linecap:round; stroke-linejoin:round; stroke-width:2; stroke-opacity:0.1; fill:none" points="1216.84,1391.68 1216.84,78.7402 "/>
<polyline clip-path="url(#clip632)" style="stroke:#000000; stroke-linecap:round; stroke-linejoin:round; stroke-width:2; stroke-opacity:0.1; fill:none" points="1614.39,1391.68 1614.39,78.7402 "/>
<polyline clip-path="url(#clip632)" style="stroke:#000000; stroke-linecap:round; stroke-linejoin:round; stroke-width:2; stroke-opacity:0.1; fill:none" points="2011.93,1391.68 2011.93,78.7402 "/>
<polyline clip-path="url(#clip630)" style="stroke:#000000; stroke-linecap:round; stroke-linejoin:round; stroke-width:4; stroke-opacity:1; fill:none" points="311.2,1391.68 2321.26,1391.68 "/>
<polyline clip-path="url(#clip630)" style="stroke:#000000; stroke-linecap:round; stroke-linejoin:round; stroke-width:4; stroke-opacity:1; fill:none" points="421.757,1391.68 421.757,1372.79 "/>
<polyline clip-path="url(#clip630)" style="stroke:#000000; stroke-linecap:round; stroke-linejoin:round; stroke-width:4; stroke-opacity:1; fill:none" points="819.3,1391.68 819.3,1372.79 "/>
<polyline clip-path="url(#clip630)" style="stroke:#000000; stroke-linecap:round; stroke-linejoin:round; stroke-width:4; stroke-opacity:1; fill:none" points="1216.84,1391.68 1216.84,1372.79 "/>
<polyline clip-path="url(#clip630)" style="stroke:#000000; stroke-linecap:round; stroke-linejoin:round; stroke-width:4; stroke-opacity:1; fill:none" points="1614.39,1391.68 1614.39,1372.79 "/>
<polyline clip-path="url(#clip630)" style="stroke:#000000; stroke-linecap:round; stroke-linejoin:round; stroke-width:4; stroke-opacity:1; fill:none" points="2011.93,1391.68 2011.93,1372.79 "/>
<path clip-path="url(#clip630)" d="M384.06 1422.6 Q380.449 1422.6 378.62 1426.17 Q376.815 1429.71 376.815 1436.84 Q376.815 1443.94 378.62 1447.51 Q380.449 1451.05 384.06 1451.05 Q387.695 1451.05 389.5 1447.51 Q391.329 1443.94 391.329 1436.84 Q391.329 1429.71 389.5 1426.17 Q387.695 1422.6 384.06 1422.6 M384.06 1418.9 Q389.87 1418.9 392.926 1423.51 Q396.005 1428.09 396.005 1436.84 Q396.005 1445.57 392.926 1450.17 Q389.87 1454.76 384.06 1454.76 Q378.25 1454.76 375.171 1450.17 Q372.116 1445.57 372.116 1436.84 Q372.116 1428.09 375.171 1423.51 Q378.25 1418.9 384.06 1418.9 Z" fill="#000000" fill-rule="nonzero" fill-opacity="1" /><path clip-path="url(#clip630)" d="M404.222 1448.2 L409.106 1448.2 L409.106 1454.08 L404.222 1454.08 L404.222 1448.2 Z" fill="#000000" fill-rule="nonzero" fill-opacity="1" /><path clip-path="url(#clip630)" d="M429.292 1422.6 Q425.68 1422.6 423.852 1426.17 Q422.046 1429.71 422.046 1436.84 Q422.046 1443.94 423.852 1447.51 Q425.68 1451.05 429.292 1451.05 Q432.926 1451.05 434.731 1447.51 Q436.56 1443.94 436.56 1436.84 Q436.56 1429.71 434.731 1426.17 Q432.926 1422.6 429.292 1422.6 M429.292 1418.9 Q435.102 1418.9 438.157 1423.51 Q441.236 1428.09 441.236 1436.84 Q441.236 1445.57 438.157 1450.17 Q435.102 1454.76 429.292 1454.76 Q423.481 1454.76 420.403 1450.17 Q417.347 1445.57 417.347 1436.84 Q417.347 1428.09 420.403 1423.51 Q423.481 1418.9 429.292 1418.9 Z" fill="#000000" fill-rule="nonzero" fill-opacity="1" /><path clip-path="url(#clip630)" d="M459.453 1422.6 Q455.842 1422.6 454.014 1426.17 Q452.208 1429.71 452.208 1436.84 Q452.208 1443.94 454.014 1447.51 Q455.842 1451.05 459.453 1451.05 Q463.088 1451.05 464.893 1447.51 Q466.722 1443.94 466.722 1436.84 Q466.722 1429.71 464.893 1426.17 Q463.088 1422.6 459.453 1422.6 M459.453 1418.9 Q465.264 1418.9 468.319 1423.51 Q471.398 1428.09 471.398 1436.84 Q471.398 1445.57 468.319 1450.17 Q465.264 1454.76 459.453 1454.76 Q453.643 1454.76 450.565 1450.17 Q447.509 1445.57 447.509 1436.84 Q447.509 1428.09 450.565 1423.51 Q453.643 1418.9 459.453 1418.9 Z" fill="#000000" fill-rule="nonzero" fill-opacity="1" /><path clip-path="url(#clip630)" d="M782.402 1422.6 Q778.791 1422.6 776.963 1426.17 Q775.157 1429.71 775.157 1436.84 Q775.157 1443.94 776.963 1447.51 Q778.791 1451.05 782.402 1451.05 Q786.037 1451.05 787.842 1447.51 Q789.671 1443.94 789.671 1436.84 Q789.671 1429.71 787.842 1426.17 Q786.037 1422.6 782.402 1422.6 M782.402 1418.9 Q788.213 1418.9 791.268 1423.51 Q794.347 1428.09 794.347 1436.84 Q794.347 1445.57 791.268 1450.17 Q788.213 1454.76 782.402 1454.76 Q776.592 1454.76 773.514 1450.17 Q770.458 1445.57 770.458 1436.84 Q770.458 1428.09 773.514 1423.51 Q776.592 1418.9 782.402 1418.9 Z" fill="#000000" fill-rule="nonzero" fill-opacity="1" /><path clip-path="url(#clip630)" d="M802.564 1448.2 L807.449 1448.2 L807.449 1454.08 L802.564 1454.08 L802.564 1448.2 Z" fill="#000000" fill-rule="nonzero" fill-opacity="1" /><path clip-path="url(#clip630)" d="M827.634 1422.6 Q824.023 1422.6 822.194 1426.17 Q820.388 1429.71 820.388 1436.84 Q820.388 1443.94 822.194 1447.51 Q824.023 1451.05 827.634 1451.05 Q831.268 1451.05 833.074 1447.51 Q834.902 1443.94 834.902 1436.84 Q834.902 1429.71 833.074 1426.17 Q831.268 1422.6 827.634 1422.6 M827.634 1418.9 Q833.444 1418.9 836.499 1423.51 Q839.578 1428.09 839.578 1436.84 Q839.578 1445.57 836.499 1450.17 Q833.444 1454.76 827.634 1454.76 Q821.824 1454.76 818.745 1450.17 Q815.689 1445.57 815.689 1436.84 Q815.689 1428.09 818.745 1423.51 Q821.824 1418.9 827.634 1418.9 Z" fill="#000000" fill-rule="nonzero" fill-opacity="1" /><path clip-path="url(#clip630)" d="M851.823 1450.15 L868.143 1450.15 L868.143 1454.08 L846.198 1454.08 L846.198 1450.15 Q848.86 1447.39 853.444 1442.76 Q858.05 1438.11 859.231 1436.77 Q861.476 1434.25 862.356 1432.51 Q863.259 1430.75 863.259 1429.06 Q863.259 1426.31 861.314 1424.57 Q859.393 1422.83 856.291 1422.83 Q854.092 1422.83 851.638 1423.6 Q849.208 1424.36 846.43 1425.91 L846.43 1421.19 Q849.254 1420.06 851.708 1419.48 Q854.161 1418.9 856.198 1418.9 Q861.569 1418.9 864.763 1421.58 Q867.958 1424.27 867.958 1428.76 Q867.958 1430.89 867.147 1432.81 Q866.36 1434.71 864.254 1437.3 Q863.675 1437.97 860.573 1441.19 Q857.472 1444.38 851.823 1450.15 Z" fill="#000000" fill-rule="nonzero" fill-opacity="1" /><path clip-path="url(#clip630)" d="M1178.9 1422.6 Q1175.29 1422.6 1173.46 1426.17 Q1171.66 1429.71 1171.66 1436.84 Q1171.66 1443.94 1173.46 1447.51 Q1175.29 1451.05 1178.9 1451.05 Q1182.54 1451.05 1184.34 1447.51 Q1186.17 1443.94 1186.17 1436.84 Q1186.17 1429.71 1184.34 1426.17 Q1182.54 1422.6 1178.9 1422.6 M1178.9 1418.9 Q1184.71 1418.9 1187.77 1423.51 Q1190.85 1428.09 1190.85 1436.84 Q1190.85 1445.57 1187.77 1450.17 Q1184.71 1454.76 1178.9 1454.76 Q1173.09 1454.76 1170.02 1450.17 Q1166.96 1445.57 1166.96 1436.84 Q1166.96 1428.09 1170.02 1423.51 Q1173.09 1418.9 1178.9 1418.9 Z" fill="#000000" fill-rule="nonzero" fill-opacity="1" /><path clip-path="url(#clip630)" d="M1199.07 1448.2 L1203.95 1448.2 L1203.95 1454.08 L1199.07 1454.08 L1199.07 1448.2 Z" fill="#000000" fill-rule="nonzero" fill-opacity="1" /><path clip-path="url(#clip630)" d="M1224.14 1422.6 Q1220.52 1422.6 1218.7 1426.17 Q1216.89 1429.71 1216.89 1436.84 Q1216.89 1443.94 1218.7 1447.51 Q1220.52 1451.05 1224.14 1451.05 Q1227.77 1451.05 1229.58 1447.51 Q1231.4 1443.94 1231.4 1436.84 Q1231.4 1429.71 1229.58 1426.17 Q1227.77 1422.6 1224.14 1422.6 M1224.14 1418.9 Q1229.95 1418.9 1233 1423.51 Q1236.08 1428.09 1236.08 1436.84 Q1236.08 1445.57 1233 1450.17 Q1229.95 1454.76 1224.14 1454.76 Q1218.33 1454.76 1215.25 1450.17 Q1212.19 1445.57 1212.19 1436.84 Q1212.19 1428.09 1215.25 1423.51 Q1218.33 1418.9 1224.14 1418.9 Z" fill="#000000" fill-rule="nonzero" fill-opacity="1" /><path clip-path="url(#clip630)" d="M1257.14 1423.6 L1245.34 1442.05 L1257.14 1442.05 L1257.14 1423.6 M1255.92 1419.52 L1261.8 1419.52 L1261.8 1442.05 L1266.73 1442.05 L1266.73 1445.94 L1261.8 1445.94 L1261.8 1454.08 L1257.14 1454.08 L1257.14 1445.94 L1241.54 1445.94 L1241.54 1441.42 L1255.92 1419.52 Z" fill="#000000" fill-rule="nonzero" fill-opacity="1" /><path clip-path="url(#clip630)" d="M1576.61 1422.6 Q1573 1422.6 1571.17 1426.17 Q1569.36 1429.71 1569.36 1436.84 Q1569.36 1443.94 1571.17 1447.51 Q1573 1451.05 1576.61 1451.05 Q1580.24 1451.05 1582.05 1447.51 Q1583.88 1443.94 1583.88 1436.84 Q1583.88 1429.71 1582.05 1426.17 Q1580.24 1422.6 1576.61 1422.6 M1576.61 1418.9 Q1582.42 1418.9 1585.48 1423.51 Q1588.55 1428.09 1588.55 1436.84 Q1588.55 1445.57 1585.48 1450.17 Q1582.42 1454.76 1576.61 1454.76 Q1570.8 1454.76 1567.72 1450.17 Q1564.67 1445.57 1564.67 1436.84 Q1564.67 1428.09 1567.72 1423.51 Q1570.8 1418.9 1576.61 1418.9 Z" fill="#000000" fill-rule="nonzero" fill-opacity="1" /><path clip-path="url(#clip630)" d="M1596.77 1448.2 L1601.66 1448.2 L1601.66 1454.08 L1596.77 1454.08 L1596.77 1448.2 Z" fill="#000000" fill-rule="nonzero" fill-opacity="1" /><path clip-path="url(#clip630)" d="M1621.84 1422.6 Q1618.23 1422.6 1616.4 1426.17 Q1614.6 1429.71 1614.6 1436.84 Q1614.6 1443.94 1616.4 1447.51 Q1618.23 1451.05 1621.84 1451.05 Q1625.48 1451.05 1627.28 1447.51 Q1629.11 1443.94 1629.11 1436.84 Q1629.11 1429.71 1627.28 1426.17 Q1625.48 1422.6 1621.84 1422.6 M1621.84 1418.9 Q1627.65 1418.9 1630.71 1423.51 Q1633.79 1428.09 1633.79 1436.84 Q1633.79 1445.57 1630.71 1450.17 Q1627.65 1454.76 1621.84 1454.76 Q1616.03 1454.76 1612.95 1450.17 Q1609.9 1445.57 1609.9 1436.84 Q1609.9 1428.09 1612.95 1423.51 Q1616.03 1418.9 1621.84 1418.9 Z" fill="#000000" fill-rule="nonzero" fill-opacity="1" /><path clip-path="url(#clip630)" d="M1652.58 1434.94 Q1649.43 1434.94 1647.58 1437.09 Q1645.75 1439.25 1645.75 1443 Q1645.75 1446.72 1647.58 1448.9 Q1649.43 1451.05 1652.58 1451.05 Q1655.73 1451.05 1657.56 1448.9 Q1659.41 1446.72 1659.41 1443 Q1659.41 1439.25 1657.56 1437.09 Q1655.73 1434.94 1652.58 1434.94 M1661.86 1420.29 L1661.86 1424.55 Q1660.1 1423.71 1658.3 1423.27 Q1656.52 1422.83 1654.76 1422.83 Q1650.13 1422.83 1647.67 1425.96 Q1645.24 1429.08 1644.9 1435.4 Q1646.26 1433.39 1648.32 1432.32 Q1650.38 1431.24 1652.86 1431.24 Q1658.07 1431.24 1661.08 1434.41 Q1664.11 1437.56 1664.11 1443 Q1664.11 1448.32 1660.96 1451.54 Q1657.81 1454.76 1652.58 1454.76 Q1646.59 1454.76 1643.42 1450.17 Q1640.24 1445.57 1640.24 1436.84 Q1640.24 1428.64 1644.13 1423.78 Q1648.02 1418.9 1654.57 1418.9 Q1656.33 1418.9 1658.11 1419.25 Q1659.92 1419.59 1661.86 1420.29 Z" fill="#000000" fill-rule="nonzero" fill-opacity="1" /><path clip-path="url(#clip630)" d="M1974.28 1422.6 Q1970.67 1422.6 1968.84 1426.17 Q1967.04 1429.71 1967.04 1436.84 Q1967.04 1443.94 1968.84 1447.51 Q1970.67 1451.05 1974.28 1451.05 Q1977.92 1451.05 1979.72 1447.51 Q1981.55 1443.94 1981.55 1436.84 Q1981.55 1429.71 1979.72 1426.17 Q1977.92 1422.6 1974.28 1422.6 M1974.28 1418.9 Q1980.09 1418.9 1983.15 1423.51 Q1986.23 1428.09 1986.23 1436.84 Q1986.23 1445.57 1983.15 1450.17 Q1980.09 1454.76 1974.28 1454.76 Q1968.47 1454.76 1965.39 1450.17 Q1962.34 1445.57 1962.34 1436.84 Q1962.34 1428.09 1965.39 1423.51 Q1968.47 1418.9 1974.28 1418.9 Z" fill="#000000" fill-rule="nonzero" fill-opacity="1" /><path clip-path="url(#clip630)" d="M1994.44 1448.2 L1999.33 1448.2 L1999.33 1454.08 L1994.44 1454.08 L1994.44 1448.2 Z" fill="#000000" fill-rule="nonzero" fill-opacity="1" /><path clip-path="url(#clip630)" d="M2019.51 1422.6 Q2015.9 1422.6 2014.07 1426.17 Q2012.27 1429.71 2012.27 1436.84 Q2012.27 1443.94 2014.07 1447.51 Q2015.9 1451.05 2019.51 1451.05 Q2023.15 1451.05 2024.95 1447.51 Q2026.78 1443.94 2026.78 1436.84 Q2026.78 1429.71 2024.95 1426.17 Q2023.15 1422.6 2019.51 1422.6 M2019.51 1418.9 Q2025.32 1418.9 2028.38 1423.51 Q2031.46 1428.09 2031.46 1436.84 Q2031.46 1445.57 2028.38 1450.17 Q2025.32 1454.76 2019.51 1454.76 Q2013.7 1454.76 2010.62 1450.17 Q2007.57 1445.57 2007.57 1436.84 Q2007.57 1428.09 2010.62 1423.51 Q2013.7 1418.9 2019.51 1418.9 Z" fill="#000000" fill-rule="nonzero" fill-opacity="1" /><path clip-path="url(#clip630)" d="M2049.67 1437.67 Q2046.34 1437.67 2044.42 1439.45 Q2042.52 1441.24 2042.52 1444.36 Q2042.52 1447.49 2044.42 1449.27 Q2046.34 1451.05 2049.67 1451.05 Q2053.01 1451.05 2054.93 1449.27 Q2056.85 1447.46 2056.85 1444.36 Q2056.85 1441.24 2054.93 1439.45 Q2053.03 1437.67 2049.67 1437.67 M2045 1435.68 Q2041.99 1434.94 2040.3 1432.88 Q2038.63 1430.82 2038.63 1427.86 Q2038.63 1423.71 2041.57 1421.31 Q2044.54 1418.9 2049.67 1418.9 Q2054.84 1418.9 2057.78 1421.31 Q2060.72 1423.71 2060.72 1427.86 Q2060.72 1430.82 2059.03 1432.88 Q2057.36 1434.94 2054.37 1435.68 Q2057.75 1436.47 2059.63 1438.76 Q2061.53 1441.05 2061.53 1444.36 Q2061.53 1449.38 2058.45 1452.07 Q2055.39 1454.76 2049.67 1454.76 Q2043.96 1454.76 2040.88 1452.07 Q2037.82 1449.38 2037.82 1444.36 Q2037.82 1441.05 2039.72 1438.76 Q2041.62 1436.47 2045 1435.68 M2043.29 1428.3 Q2043.29 1430.98 2044.95 1432.49 Q2046.64 1433.99 2049.67 1433.99 Q2052.68 1433.99 2054.37 1432.49 Q2056.09 1430.98 2056.09 1428.3 Q2056.09 1425.61 2054.37 1424.11 Q2052.68 1422.6 2049.67 1422.6 Q2046.64 1422.6 2044.95 1424.11 Q2043.29 1425.61 2043.29 1428.3 Z" fill="#000000" fill-rule="nonzero" fill-opacity="1" /><path clip-path="url(#clip630)" d="M1319.14 1487.02 L1319.14 1500.17 Q1325.48 1500.17 1329.71 1505.04 Q1334.07 1510 1334.07 1518.76 Q1334.07 1527.51 1329.71 1532.47 Q1325.48 1537.34 1319.14 1537.34 L1319.14 1550.11 L1313.32 1550.11 L1313.32 1537.34 Q1306.98 1537.34 1302.72 1532.47 Q1298.39 1527.51 1298.39 1518.76 Q1298.39 1510 1302.72 1505.04 Q1306.98 1500.17 1313.32 1500.17 L1313.32 1487.02 L1319.14 1487.02 M1319.14 1532.12 Q1322.74 1532.12 1325.19 1528.85 Q1327.86 1525.18 1327.9 1518.76 Q1327.93 1512.39 1325.19 1508.67 Q1322.74 1505.39 1319.14 1505.39 L1319.14 1532.12 M1313.32 1532.12 L1313.32 1505.39 Q1309.72 1505.39 1307.3 1508.67 Q1304.53 1512.39 1304.56 1518.76 Q1304.6 1525.18 1307.3 1528.85 Q1309.72 1532.12 1313.32 1532.12 Z" fill="#000000" fill-rule="nonzero" fill-opacity="1" /><polyline clip-path="url(#clip632)" style="stroke:#000000; stroke-linecap:round; stroke-linejoin:round; stroke-width:2; stroke-opacity:0.1; fill:none" points="311.2,1391.68 2321.26,1391.68 "/>
<polyline clip-path="url(#clip632)" style="stroke:#000000; stroke-linecap:round; stroke-linejoin:round; stroke-width:2; stroke-opacity:0.1; fill:none" points="311.2,1119.24 2321.26,1119.24 "/>
<polyline clip-path="url(#clip632)" style="stroke:#000000; stroke-linecap:round; stroke-linejoin:round; stroke-width:2; stroke-opacity:0.1; fill:none" points="311.2,846.786 2321.26,846.786 "/>
<polyline clip-path="url(#clip632)" style="stroke:#000000; stroke-linecap:round; stroke-linejoin:round; stroke-width:2; stroke-opacity:0.1; fill:none" points="311.2,574.337 2321.26,574.337 "/>
<polyline clip-path="url(#clip632)" style="stroke:#000000; stroke-linecap:round; stroke-linejoin:round; stroke-width:2; stroke-opacity:0.1; fill:none" points="311.2,301.889 2321.26,301.889 "/>
<polyline clip-path="url(#clip630)" style="stroke:#000000; stroke-linecap:round; stroke-linejoin:round; stroke-width:4; stroke-opacity:1; fill:none" points="311.2,1391.68 311.2,78.7402 "/>
<polyline clip-path="url(#clip630)" style="stroke:#000000; stroke-linecap:round; stroke-linejoin:round; stroke-width:4; stroke-opacity:1; fill:none" points="311.2,1391.68 330.098,1391.68 "/>
<polyline clip-path="url(#clip630)" style="stroke:#000000; stroke-linecap:round; stroke-linejoin:round; stroke-width:4; stroke-opacity:1; fill:none" points="311.2,1119.24 330.098,1119.24 "/>
<polyline clip-path="url(#clip630)" style="stroke:#000000; stroke-linecap:round; stroke-linejoin:round; stroke-width:4; stroke-opacity:1; fill:none" points="311.2,846.786 330.098,846.786 "/>
<polyline clip-path="url(#clip630)" style="stroke:#000000; stroke-linecap:round; stroke-linejoin:round; stroke-width:4; stroke-opacity:1; fill:none" points="311.2,574.337 330.098,574.337 "/>
<polyline clip-path="url(#clip630)" style="stroke:#000000; stroke-linecap:round; stroke-linejoin:round; stroke-width:4; stroke-opacity:1; fill:none" points="311.2,301.889 330.098,301.889 "/>
<path clip-path="url(#clip630)" d="M157.701 1377.48 Q154.09 1377.48 152.261 1381.05 Q150.455 1384.59 150.455 1391.72 Q150.455 1398.82 152.261 1402.39 Q154.09 1405.93 157.701 1405.93 Q161.335 1405.93 163.14 1402.39 Q164.969 1398.82 164.969 1391.72 Q164.969 1384.59 163.14 1381.05 Q161.335 1377.48 157.701 1377.48 M157.701 1373.78 Q163.511 1373.78 166.566 1378.39 Q169.645 1382.97 169.645 1391.72 Q169.645 1400.45 166.566 1405.05 Q163.511 1409.64 157.701 1409.64 Q151.89 1409.64 148.812 1405.05 Q145.756 1400.45 145.756 1391.72 Q145.756 1382.97 148.812 1378.39 Q151.89 1373.78 157.701 1373.78 Z" fill="#000000" fill-rule="nonzero" fill-opacity="1" /><path clip-path="url(#clip630)" d="M177.863 1403.08 L182.747 1403.08 L182.747 1408.96 L177.863 1408.96 L177.863 1403.08 Z" fill="#000000" fill-rule="nonzero" fill-opacity="1" /><path clip-path="url(#clip630)" d="M202.932 1377.48 Q199.321 1377.48 197.492 1381.05 Q195.687 1384.59 195.687 1391.72 Q195.687 1398.82 197.492 1402.39 Q199.321 1405.93 202.932 1405.93 Q206.566 1405.93 208.372 1402.39 Q210.2 1398.82 210.2 1391.72 Q210.2 1384.59 208.372 1381.05 Q206.566 1377.48 202.932 1377.48 M202.932 1373.78 Q208.742 1373.78 211.798 1378.39 Q214.876 1382.97 214.876 1391.72 Q214.876 1400.45 211.798 1405.05 Q208.742 1409.64 202.932 1409.64 Q197.122 1409.64 194.043 1405.05 Q190.987 1400.45 190.987 1391.72 Q190.987 1382.97 194.043 1378.39 Q197.122 1373.78 202.932 1373.78 Z" fill="#000000" fill-rule="nonzero" fill-opacity="1" /><path clip-path="url(#clip630)" d="M233.094 1377.48 Q229.483 1377.48 227.654 1381.05 Q225.848 1384.59 225.848 1391.72 Q225.848 1398.82 227.654 1402.39 Q229.483 1405.93 233.094 1405.93 Q236.728 1405.93 238.534 1402.39 Q240.362 1398.82 240.362 1391.72 Q240.362 1384.59 238.534 1381.05 Q236.728 1377.48 233.094 1377.48 M233.094 1373.78 Q238.904 1373.78 241.959 1378.39 Q245.038 1382.97 245.038 1391.72 Q245.038 1400.45 241.959 1405.05 Q238.904 1409.64 233.094 1409.64 Q227.284 1409.64 224.205 1405.05 Q221.149 1400.45 221.149 1391.72 Q221.149 1382.97 224.205 1378.39 Q227.284 1373.78 233.094 1373.78 Z" fill="#000000" fill-rule="nonzero" fill-opacity="1" /><path clip-path="url(#clip630)" d="M263.256 1377.48 Q259.644 1377.48 257.816 1381.05 Q256.01 1384.59 256.01 1391.72 Q256.01 1398.82 257.816 1402.39 Q259.644 1405.93 263.256 1405.93 Q266.89 1405.93 268.695 1402.39 Q270.524 1398.82 270.524 1391.72 Q270.524 1384.59 268.695 1381.05 Q266.89 1377.48 263.256 1377.48 M263.256 1373.78 Q269.066 1373.78 272.121 1378.39 Q275.2 1382.97 275.2 1391.72 Q275.2 1400.45 272.121 1405.05 Q269.066 1409.64 263.256 1409.64 Q257.445 1409.64 254.367 1405.05 Q251.311 1400.45 251.311 1391.72 Q251.311 1382.97 254.367 1378.39 Q257.445 1373.78 263.256 1373.78 Z" fill="#000000" fill-rule="nonzero" fill-opacity="1" /><path clip-path="url(#clip630)" d="M158.696 1105.03 Q155.085 1105.03 153.256 1108.6 Q151.451 1112.14 151.451 1119.27 Q151.451 1126.38 153.256 1129.94 Q155.085 1133.48 158.696 1133.48 Q162.33 1133.48 164.136 1129.94 Q165.964 1126.38 165.964 1119.27 Q165.964 1112.14 164.136 1108.6 Q162.33 1105.03 158.696 1105.03 M158.696 1101.33 Q164.506 1101.33 167.562 1105.94 Q170.64 1110.52 170.64 1119.27 Q170.64 1128 167.562 1132.6 Q164.506 1137.19 158.696 1137.19 Q152.886 1137.19 149.807 1132.6 Q146.752 1128 146.752 1119.27 Q146.752 1110.52 149.807 1105.94 Q152.886 1101.33 158.696 1101.33 Z" fill="#000000" fill-rule="nonzero" fill-opacity="1" /><path clip-path="url(#clip630)" d="M178.858 1130.64 L183.742 1130.64 L183.742 1136.52 L178.858 1136.52 L178.858 1130.64 Z" fill="#000000" fill-rule="nonzero" fill-opacity="1" /><path clip-path="url(#clip630)" d="M203.927 1105.03 Q200.316 1105.03 198.487 1108.6 Q196.682 1112.14 196.682 1119.27 Q196.682 1126.38 198.487 1129.94 Q200.316 1133.48 203.927 1133.48 Q207.561 1133.48 209.367 1129.94 Q211.196 1126.38 211.196 1119.27 Q211.196 1112.14 209.367 1108.6 Q207.561 1105.03 203.927 1105.03 M203.927 1101.33 Q209.737 1101.33 212.793 1105.94 Q215.872 1110.52 215.872 1119.27 Q215.872 1128 212.793 1132.6 Q209.737 1137.19 203.927 1137.19 Q198.117 1137.19 195.038 1132.6 Q191.983 1128 191.983 1119.27 Q191.983 1110.52 195.038 1105.94 Q198.117 1101.33 203.927 1101.33 Z" fill="#000000" fill-rule="nonzero" fill-opacity="1" /><path clip-path="url(#clip630)" d="M228.117 1132.58 L244.436 1132.58 L244.436 1136.52 L222.492 1136.52 L222.492 1132.58 Q225.154 1129.83 229.737 1125.2 Q234.344 1120.54 235.524 1119.2 Q237.77 1116.68 238.649 1114.94 Q239.552 1113.18 239.552 1111.49 Q239.552 1108.74 237.608 1107 Q235.686 1105.27 232.584 1105.27 Q230.385 1105.27 227.932 1106.03 Q225.501 1106.79 222.723 1108.34 L222.723 1103.62 Q225.547 1102.49 228.001 1101.91 Q230.455 1101.33 232.492 1101.33 Q237.862 1101.33 241.057 1104.02 Q244.251 1106.7 244.251 1111.19 Q244.251 1113.32 243.441 1115.24 Q242.654 1117.14 240.547 1119.73 Q239.969 1120.4 236.867 1123.62 Q233.765 1126.82 228.117 1132.58 Z" fill="#000000" fill-rule="nonzero" fill-opacity="1" /><path clip-path="url(#clip630)" d="M254.297 1101.96 L272.654 1101.96 L272.654 1105.89 L258.58 1105.89 L258.58 1114.36 Q259.598 1114.02 260.617 1113.85 Q261.635 1113.67 262.654 1113.67 Q268.441 1113.67 271.82 1116.84 Q275.2 1120.01 275.2 1125.43 Q275.2 1131.01 271.728 1134.11 Q268.256 1137.19 261.936 1137.19 Q259.76 1137.19 257.492 1136.82 Q255.246 1136.45 252.839 1135.7 L252.839 1131.01 Q254.922 1132.14 257.145 1132.7 Q259.367 1133.25 261.844 1133.25 Q265.848 1133.25 268.186 1131.14 Q270.524 1129.04 270.524 1125.43 Q270.524 1121.82 268.186 1119.71 Q265.848 1117.6 261.844 1117.6 Q259.969 1117.6 258.094 1118.02 Q256.242 1118.44 254.297 1119.32 L254.297 1101.96 Z" fill="#000000" fill-rule="nonzero" fill-opacity="1" /><path clip-path="url(#clip630)" d="M157.701 832.585 Q154.09 832.585 152.261 836.15 Q150.455 839.691 150.455 846.821 Q150.455 853.927 152.261 857.492 Q154.09 861.034 157.701 861.034 Q161.335 861.034 163.14 857.492 Q164.969 853.927 164.969 846.821 Q164.969 839.691 163.14 836.15 Q161.335 832.585 157.701 832.585 M157.701 828.881 Q163.511 828.881 166.566 833.488 Q169.645 838.071 169.645 846.821 Q169.645 855.548 166.566 860.154 Q163.511 864.738 157.701 864.738 Q151.89 864.738 148.812 860.154 Q145.756 855.548 145.756 846.821 Q145.756 838.071 148.812 833.488 Q151.89 828.881 157.701 828.881 Z" fill="#000000" fill-rule="nonzero" fill-opacity="1" /><path clip-path="url(#clip630)" d="M177.863 858.187 L182.747 858.187 L182.747 864.066 L177.863 864.066 L177.863 858.187 Z" fill="#000000" fill-rule="nonzero" fill-opacity="1" /><path clip-path="url(#clip630)" d="M202.932 832.585 Q199.321 832.585 197.492 836.15 Q195.687 839.691 195.687 846.821 Q195.687 853.927 197.492 857.492 Q199.321 861.034 202.932 861.034 Q206.566 861.034 208.372 857.492 Q210.2 853.927 210.2 846.821 Q210.2 839.691 208.372 836.15 Q206.566 832.585 202.932 832.585 M202.932 828.881 Q208.742 828.881 211.798 833.488 Q214.876 838.071 214.876 846.821 Q214.876 855.548 211.798 860.154 Q208.742 864.738 202.932 864.738 Q197.122 864.738 194.043 860.154 Q190.987 855.548 190.987 846.821 Q190.987 838.071 194.043 833.488 Q197.122 828.881 202.932 828.881 Z" fill="#000000" fill-rule="nonzero" fill-opacity="1" /><path clip-path="url(#clip630)" d="M223.14 829.506 L241.496 829.506 L241.496 833.441 L227.422 833.441 L227.422 841.914 Q228.441 841.566 229.459 841.404 Q230.478 841.219 231.497 841.219 Q237.284 841.219 240.663 844.39 Q244.043 847.562 244.043 852.978 Q244.043 858.557 240.571 861.659 Q237.098 864.738 230.779 864.738 Q228.603 864.738 226.334 864.367 Q224.089 863.997 221.682 863.256 L221.682 858.557 Q223.765 859.691 225.987 860.247 Q228.209 860.802 230.686 860.802 Q234.691 860.802 237.029 858.696 Q239.367 856.589 239.367 852.978 Q239.367 849.367 237.029 847.261 Q234.691 845.154 230.686 845.154 Q228.811 845.154 226.936 845.571 Q225.084 845.988 223.14 846.867 L223.14 829.506 Z" fill="#000000" fill-rule="nonzero" fill-opacity="1" /><path clip-path="url(#clip630)" d="M263.256 832.585 Q259.644 832.585 257.816 836.15 Q256.01 839.691 256.01 846.821 Q256.01 853.927 257.816 857.492 Q259.644 861.034 263.256 861.034 Q266.89 861.034 268.695 857.492 Q270.524 853.927 270.524 846.821 Q270.524 839.691 268.695 836.15 Q266.89 832.585 263.256 832.585 M263.256 828.881 Q269.066 828.881 272.121 833.488 Q275.2 838.071 275.2 846.821 Q275.2 855.548 272.121 860.154 Q269.066 864.738 263.256 864.738 Q257.445 864.738 254.367 860.154 Q251.311 855.548 251.311 846.821 Q251.311 838.071 254.367 833.488 Q257.445 828.881 263.256 828.881 Z" fill="#000000" fill-rule="nonzero" fill-opacity="1" /><path clip-path="url(#clip630)" d="M158.696 560.136 Q155.085 560.136 153.256 563.701 Q151.451 567.243 151.451 574.372 Q151.451 581.479 153.256 585.043 Q155.085 588.585 158.696 588.585 Q162.33 588.585 164.136 585.043 Q165.964 581.479 165.964 574.372 Q165.964 567.243 164.136 563.701 Q162.33 560.136 158.696 560.136 M158.696 556.432 Q164.506 556.432 167.562 561.039 Q170.64 565.622 170.64 574.372 Q170.64 583.099 167.562 587.705 Q164.506 592.289 158.696 592.289 Q152.886 592.289 149.807 587.705 Q146.752 583.099 146.752 574.372 Q146.752 565.622 149.807 561.039 Q152.886 556.432 158.696 556.432 Z" fill="#000000" fill-rule="nonzero" fill-opacity="1" /><path clip-path="url(#clip630)" d="M178.858 585.738 L183.742 585.738 L183.742 591.617 L178.858 591.617 L178.858 585.738 Z" fill="#000000" fill-rule="nonzero" fill-opacity="1" /><path clip-path="url(#clip630)" d="M203.927 560.136 Q200.316 560.136 198.487 563.701 Q196.682 567.243 196.682 574.372 Q196.682 581.479 198.487 585.043 Q200.316 588.585 203.927 588.585 Q207.561 588.585 209.367 585.043 Q211.196 581.479 211.196 574.372 Q211.196 567.243 209.367 563.701 Q207.561 560.136 203.927 560.136 M203.927 556.432 Q209.737 556.432 212.793 561.039 Q215.872 565.622 215.872 574.372 Q215.872 583.099 212.793 587.705 Q209.737 592.289 203.927 592.289 Q198.117 592.289 195.038 587.705 Q191.983 583.099 191.983 574.372 Q191.983 565.622 195.038 561.039 Q198.117 556.432 203.927 556.432 Z" fill="#000000" fill-rule="nonzero" fill-opacity="1" /><path clip-path="url(#clip630)" d="M222.909 557.057 L245.131 557.057 L245.131 559.048 L232.584 591.617 L227.7 591.617 L239.506 560.993 L222.909 560.993 L222.909 557.057 Z" fill="#000000" fill-rule="nonzero" fill-opacity="1" /><path clip-path="url(#clip630)" d="M254.297 557.057 L272.654 557.057 L272.654 560.993 L258.58 560.993 L258.58 569.465 Q259.598 569.118 260.617 568.956 Q261.635 568.77 262.654 568.77 Q268.441 568.77 271.82 571.942 Q275.2 575.113 275.2 580.53 Q275.2 586.108 271.728 589.21 Q268.256 592.289 261.936 592.289 Q259.76 592.289 257.492 591.918 Q255.246 591.548 252.839 590.807 L252.839 586.108 Q254.922 587.242 257.145 587.798 Q259.367 588.354 261.844 588.354 Q265.848 588.354 268.186 586.247 Q270.524 584.141 270.524 580.53 Q270.524 576.918 268.186 574.812 Q265.848 572.706 261.844 572.706 Q259.969 572.706 258.094 573.122 Q256.242 573.539 254.297 574.418 L254.297 557.057 Z" fill="#000000" fill-rule="nonzero" fill-opacity="1" /><path clip-path="url(#clip630)" d="M157.701 287.687 Q154.09 287.687 152.261 291.252 Q150.455 294.794 150.455 301.923 Q150.455 309.03 152.261 312.595 Q154.09 316.136 157.701 316.136 Q161.335 316.136 163.14 312.595 Q164.969 309.03 164.969 301.923 Q164.969 294.794 163.14 291.252 Q161.335 287.687 157.701 287.687 M157.701 283.984 Q163.511 283.984 166.566 288.59 Q169.645 293.173 169.645 301.923 Q169.645 310.65 166.566 315.257 Q163.511 319.84 157.701 319.84 Q151.89 319.84 148.812 315.257 Q145.756 310.65 145.756 301.923 Q145.756 293.173 148.812 288.59 Q151.89 283.984 157.701 283.984 Z" fill="#000000" fill-rule="nonzero" fill-opacity="1" /><path clip-path="url(#clip630)" d="M177.863 313.289 L182.747 313.289 L182.747 319.169 L177.863 319.169 L177.863 313.289 Z" fill="#000000" fill-rule="nonzero" fill-opacity="1" /><path clip-path="url(#clip630)" d="M193.742 315.234 L201.381 315.234 L201.381 288.868 L193.071 290.535 L193.071 286.275 L201.335 284.609 L206.011 284.609 L206.011 315.234 L213.649 315.234 L213.649 319.169 L193.742 319.169 L193.742 315.234 Z" fill="#000000" fill-rule="nonzero" fill-opacity="1" /><path clip-path="url(#clip630)" d="M233.094 287.687 Q229.483 287.687 227.654 291.252 Q225.848 294.794 225.848 301.923 Q225.848 309.03 227.654 312.595 Q229.483 316.136 233.094 316.136 Q236.728 316.136 238.534 312.595 Q240.362 309.03 240.362 301.923 Q240.362 294.794 238.534 291.252 Q236.728 287.687 233.094 287.687 M233.094 283.984 Q238.904 283.984 241.959 288.59 Q245.038 293.173 245.038 301.923 Q245.038 310.65 241.959 315.257 Q238.904 319.84 233.094 319.84 Q227.284 319.84 224.205 315.257 Q221.149 310.65 221.149 301.923 Q221.149 293.173 224.205 288.59 Q227.284 283.984 233.094 283.984 Z" fill="#000000" fill-rule="nonzero" fill-opacity="1" /><path clip-path="url(#clip630)" d="M263.256 287.687 Q259.644 287.687 257.816 291.252 Q256.01 294.794 256.01 301.923 Q256.01 309.03 257.816 312.595 Q259.644 316.136 263.256 316.136 Q266.89 316.136 268.695 312.595 Q270.524 309.03 270.524 301.923 Q270.524 294.794 268.695 291.252 Q266.89 287.687 263.256 287.687 M263.256 283.984 Q269.066 283.984 272.121 288.59 Q275.2 293.173 275.2 301.923 Q275.2 310.65 272.121 315.257 Q269.066 319.84 263.256 319.84 Q257.445 319.84 254.367 315.257 Q251.311 310.65 251.311 301.923 Q251.311 293.173 254.367 288.59 Q257.445 283.984 263.256 283.984 Z" fill="#000000" fill-rule="nonzero" fill-opacity="1" /><path clip-path="url(#clip630)" d="M53.2638 1079.77 L71.1196 1079.77 L71.1196 1071.69 Q71.1196 1067.2 68.7961 1064.75 Q66.4726 1062.3 62.1757 1062.3 Q57.9107 1062.3 55.5872 1064.75 Q53.2638 1067.2 53.2638 1071.69 L53.2638 1079.77 M47.9802 1086.2 L47.9802 1071.69 Q47.9802 1063.7 51.6087 1059.62 Q55.2053 1055.52 62.1757 1055.52 Q69.2099 1055.52 72.8065 1059.62 Q76.4031 1063.7 76.4031 1071.69 L76.4031 1079.77 L95.5002 1079.77 L95.5002 1086.2 L47.9802 1086.2 Z" fill="#000000" fill-rule="nonzero" fill-opacity="1" /><path clip-path="url(#clip630)" d="M65.3268 1027.64 Q64.7539 1028.62 64.4992 1029.8 Q64.2128 1030.95 64.2128 1032.35 Q64.2128 1037.31 67.4593 1039.99 Q70.674 1042.63 76.7214 1042.63 L95.5002 1042.63 L95.5002 1048.52 L59.8523 1048.52 L59.8523 1042.63 L65.3904 1042.63 Q62.1439 1040.78 60.5843 1037.82 Q58.9929 1034.86 58.9929 1030.63 Q58.9929 1030.02 59.0884 1029.29 Q59.152 1028.56 59.3112 1027.67 L65.3268 1027.64 Z" fill="#000000" fill-rule="nonzero" fill-opacity="1" /><path clip-path="url(#clip630)" d="M63.9581 1009.11 Q63.9581 1013.82 67.6503 1016.56 Q71.3105 1019.3 77.7081 1019.3 Q84.1056 1019.3 87.7977 1016.59 Q91.458 1013.85 91.458 1009.11 Q91.458 1004.43 87.7659 1001.7 Q84.0738 998.959 77.7081 998.959 Q71.3742 998.959 67.6821 1001.7 Q63.9581 1004.43 63.9581 1009.11 M58.9929 1009.11 Q58.9929 1001.47 63.9581 997.113 Q68.9234 992.753 77.7081 992.753 Q86.4609 992.753 91.458 997.113 Q96.4232 1001.47 96.4232 1009.11 Q96.4232 1016.78 91.458 1021.14 Q86.4609 1025.47 77.7081 1025.47 Q68.9234 1025.47 63.9581 1021.14 Q58.9929 1016.78 58.9929 1009.11 Z" fill="#000000" fill-rule="nonzero" fill-opacity="1" /><path clip-path="url(#clip630)" d="M90.153 977.379 L109.059 977.379 L109.059 983.268 L59.8523 983.268 L59.8523 977.379 L65.2631 977.379 Q62.0803 975.533 60.5525 972.732 Q58.9929 969.9 58.9929 965.985 Q58.9929 959.492 64.1491 955.45 Q69.3053 951.375 77.7081 951.375 Q86.1108 951.375 91.267 955.45 Q96.4232 959.492 96.4232 965.985 Q96.4232 969.9 94.8955 972.732 Q93.3359 975.533 90.153 977.379 M77.7081 957.455 Q71.2469 957.455 67.5866 960.128 Q63.8945 962.77 63.8945 967.417 Q63.8945 972.064 67.5866 974.738 Q71.2469 977.379 77.7081 977.379 Q84.1693 977.379 87.8614 974.738 Q91.5217 972.064 91.5217 967.417 Q91.5217 962.77 87.8614 960.128 Q84.1693 957.455 77.7081 957.455 Z" fill="#000000" fill-rule="nonzero" fill-opacity="1" /><path clip-path="url(#clip630)" d="M63.9581 927.854 Q63.9581 932.565 67.6503 935.302 Q71.3105 938.039 77.7081 938.039 Q84.1056 938.039 87.7977 935.334 Q91.458 932.597 91.458 927.854 Q91.458 923.175 87.7659 920.438 Q84.0738 917.701 77.7081 917.701 Q71.3742 917.701 67.6821 920.438 Q63.9581 923.175 63.9581 927.854 M58.9929 927.854 Q58.9929 920.215 63.9581 915.855 Q68.9234 911.494 77.7081 911.494 Q86.4609 911.494 91.458 915.855 Q96.4232 920.215 96.4232 927.854 Q96.4232 935.525 91.458 939.885 Q86.4609 944.214 77.7081 944.214 Q68.9234 944.214 63.9581 939.885 Q58.9929 935.525 58.9929 927.854 Z" fill="#000000" fill-rule="nonzero" fill-opacity="1" /><path clip-path="url(#clip630)" d="M65.3268 881.13 Q64.7539 882.117 64.4992 883.294 Q64.2128 884.44 64.2128 885.841 Q64.2128 890.806 67.4593 893.479 Q70.674 896.121 76.7214 896.121 L95.5002 896.121 L95.5002 902.009 L59.8523 902.009 L59.8523 896.121 L65.3904 896.121 Q62.1439 894.275 60.5843 891.315 Q58.9929 888.355 58.9929 884.122 Q58.9929 883.517 59.0884 882.785 Q59.152 882.053 59.3112 881.162 L65.3268 881.13 Z" fill="#000000" fill-rule="nonzero" fill-opacity="1" /><path clip-path="url(#clip630)" d="M49.7308 869.194 L59.8523 869.194 L59.8523 857.131 L64.4037 857.131 L64.4037 869.194 L83.7555 869.194 Q88.116 869.194 89.3573 868.017 Q90.5986 866.807 90.5986 863.147 L90.5986 857.131 L95.5002 857.131 L95.5002 863.147 Q95.5002 869.926 92.9858 872.504 Q90.4395 875.082 83.7555 875.082 L64.4037 875.082 L64.4037 879.379 L59.8523 879.379 L59.8523 875.082 L49.7308 875.082 L49.7308 869.194 Z" fill="#000000" fill-rule="nonzero" fill-opacity="1" /><path clip-path="url(#clip630)" d="M59.8523 849.429 L59.8523 843.572 L95.5002 843.572 L95.5002 849.429 L59.8523 849.429 M45.975 849.429 L45.975 843.572 L53.3911 843.572 L53.3911 849.429 L45.975 849.429 Z" fill="#000000" fill-rule="nonzero" fill-opacity="1" /><path clip-path="url(#clip630)" d="M63.9581 817.505 Q63.9581 822.215 67.6503 824.953 Q71.3105 827.69 77.7081 827.69 Q84.1056 827.69 87.7977 824.984 Q91.458 822.247 91.458 817.505 Q91.458 812.826 87.7659 810.089 Q84.0738 807.351 77.7081 807.351 Q71.3742 807.351 67.6821 810.089 Q63.9581 812.826 63.9581 817.505 M58.9929 817.505 Q58.9929 809.866 63.9581 805.505 Q68.9234 801.145 77.7081 801.145 Q86.4609 801.145 91.458 805.505 Q96.4232 809.866 96.4232 817.505 Q96.4232 825.175 91.458 829.536 Q86.4609 833.865 77.7081 833.865 Q68.9234 833.865 63.9581 829.536 Q58.9929 825.175 58.9929 817.505 Z" fill="#000000" fill-rule="nonzero" fill-opacity="1" /><path clip-path="url(#clip630)" d="M73.9841 761.805 L95.5002 761.805 L95.5002 767.661 L74.1751 767.661 Q69.1144 767.661 66.5999 769.635 Q64.0855 771.608 64.0855 775.555 Q64.0855 780.297 67.1092 783.034 Q70.1329 785.772 75.3528 785.772 L95.5002 785.772 L95.5002 791.66 L59.8523 791.66 L59.8523 785.772 L65.3904 785.772 Q62.1757 783.671 60.5843 780.838 Q58.9929 777.974 58.9929 774.25 Q58.9929 768.107 62.8123 764.956 Q66.5999 761.805 73.9841 761.805 Z" fill="#000000" fill-rule="nonzero" fill-opacity="1" /><path clip-path="url(#clip630)" d="M63.9581 715.59 Q63.9581 720.3 67.6503 723.038 Q71.3105 725.775 77.7081 725.775 Q84.1056 725.775 87.7977 723.069 Q91.458 720.332 91.458 715.59 Q91.458 710.911 87.7659 708.174 Q84.0738 705.436 77.7081 705.436 Q71.3742 705.436 67.6821 708.174 Q63.9581 710.911 63.9581 715.59 M58.9929 715.59 Q58.9929 707.951 63.9581 703.59 Q68.9234 699.23 77.7081 699.23 Q86.4609 699.23 91.458 703.59 Q96.4232 707.951 96.4232 715.59 Q96.4232 723.26 91.458 727.621 Q86.4609 731.95 77.7081 731.95 Q68.9234 731.95 63.9581 727.621 Q58.9929 723.26 58.9929 715.59 Z" fill="#000000" fill-rule="nonzero" fill-opacity="1" /><path clip-path="url(#clip630)" d="M45.975 671.475 L50.8448 671.475 L50.8448 677.077 Q50.8448 680.228 52.1179 681.469 Q53.3911 682.679 56.7012 682.679 L59.8523 682.679 L59.8523 673.035 L64.4037 673.035 L64.4037 682.679 L95.5002 682.679 L95.5002 688.567 L64.4037 688.567 L64.4037 694.169 L59.8523 694.169 L59.8523 688.567 L57.3696 688.567 Q51.4177 688.567 48.7123 685.798 Q45.975 683.029 45.975 677.013 L45.975 671.475 Z" fill="#000000" fill-rule="nonzero" fill-opacity="1" /><path clip-path="url(#clip630)" d="M60.9026 623.128 L66.4408 623.128 Q65.1676 625.61 64.5311 628.284 Q63.8945 630.958 63.8945 633.822 Q63.8945 638.183 65.2313 640.379 Q66.5681 642.543 69.2417 642.543 Q71.2787 642.543 72.4564 640.984 Q73.6022 639.424 74.6525 634.713 L75.0981 632.708 Q76.4349 626.47 78.8857 623.86 Q81.3047 621.218 85.6652 621.218 Q90.6305 621.218 93.5269 625.165 Q96.4232 629.08 96.4232 635.955 Q96.4232 638.819 95.8503 641.938 Q95.3092 645.026 94.1953 648.463 L88.1478 648.463 Q89.8347 645.217 90.6941 642.066 Q91.5217 638.915 91.5217 635.827 Q91.5217 631.69 90.1212 629.462 Q88.6889 627.234 86.1108 627.234 Q83.7237 627.234 82.4505 628.857 Q81.1774 630.448 79.9997 635.891 L79.5223 637.928 Q78.3765 643.371 76.0212 645.79 Q73.634 648.209 69.4963 648.209 Q64.4674 648.209 61.7301 644.644 Q58.9929 641.079 58.9929 634.522 Q58.9929 631.276 59.4703 628.411 Q59.9477 625.547 60.9026 623.128 Z" fill="#000000" fill-rule="nonzero" fill-opacity="1" /><path clip-path="url(#clip630)" d="M77.5808 595.692 Q77.5808 602.789 79.204 605.527 Q80.8273 608.264 84.7422 608.264 Q87.8614 608.264 89.7074 606.227 Q91.5217 604.158 91.5217 600.625 Q91.5217 595.755 88.0842 592.827 Q84.6149 589.867 78.8857 589.867 L77.5808 589.867 L77.5808 595.692 M75.1618 584.011 L95.5002 584.011 L95.5002 589.867 L90.0894 589.867 Q93.3359 591.872 94.8955 594.864 Q96.4232 597.856 96.4232 602.185 Q96.4232 607.659 93.3677 610.906 Q90.2803 614.12 85.1241 614.12 Q79.1085 614.12 76.053 610.11 Q72.9974 606.068 72.9974 598.079 L72.9974 589.867 L72.4245 589.867 Q68.3823 589.867 66.1861 592.541 Q63.9581 595.182 63.9581 599.988 Q63.9581 603.044 64.6902 605.94 Q65.4223 608.837 66.8864 611.51 L61.4755 611.51 Q60.2342 608.296 59.6295 605.272 Q58.9929 602.248 58.9929 599.384 Q58.9929 591.649 63.0033 587.83 Q67.0137 584.011 75.1618 584.011 Z" fill="#000000" fill-rule="nonzero" fill-opacity="1" /><path clip-path="url(#clip630)" d="M66.6954 544.193 Q62.7487 541.997 60.8708 538.941 Q58.9929 535.886 58.9929 531.748 Q58.9929 526.178 62.9078 523.154 Q66.7909 520.131 73.9841 520.131 L95.5002 520.131 L95.5002 526.019 L74.1751 526.019 Q69.0507 526.019 66.5681 527.833 Q64.0855 529.647 64.0855 533.371 Q64.0855 537.923 67.1092 540.565 Q70.1329 543.206 75.3528 543.206 L95.5002 543.206 L95.5002 549.095 L74.1751 549.095 Q69.0189 549.095 66.5681 550.909 Q64.0855 552.723 64.0855 556.511 Q64.0855 560.998 67.141 563.64 Q70.1647 566.282 75.3528 566.282 L95.5002 566.282 L95.5002 572.17 L59.8523 572.17 L59.8523 566.282 L65.3904 566.282 Q62.1121 564.277 60.5525 561.476 Q58.9929 558.675 58.9929 554.824 Q58.9929 550.941 60.9663 548.235 Q62.9396 545.498 66.6954 544.193 Z" fill="#000000" fill-rule="nonzero" fill-opacity="1" /><path clip-path="url(#clip630)" d="M90.153 502.784 L109.059 502.784 L109.059 508.672 L59.8523 508.672 L59.8523 502.784 L65.2631 502.784 Q62.0803 500.938 60.5525 498.137 Q58.9929 495.304 58.9929 491.389 Q58.9929 484.896 64.1491 480.854 Q69.3053 476.78 77.7081 476.78 Q86.1108 476.78 91.267 480.854 Q96.4232 484.896 96.4232 491.389 Q96.4232 495.304 94.8955 498.137 Q93.3359 500.938 90.153 502.784 M77.7081 482.859 Q71.2469 482.859 67.5866 485.533 Q63.8945 488.175 63.8945 492.822 Q63.8945 497.469 67.5866 500.142 Q71.2469 502.784 77.7081 502.784 Q84.1693 502.784 87.8614 500.142 Q91.5217 497.469 91.5217 492.822 Q91.5217 488.175 87.8614 485.533 Q84.1693 482.859 77.7081 482.859 Z" fill="#000000" fill-rule="nonzero" fill-opacity="1" /><path clip-path="url(#clip630)" d="M45.975 467.072 L45.975 461.216 L95.5002 461.216 L95.5002 467.072 L45.975 467.072 Z" fill="#000000" fill-rule="nonzero" fill-opacity="1" /><path clip-path="url(#clip630)" d="M76.2121 418.47 L79.0767 418.47 L79.0767 445.397 Q85.1241 445.015 88.307 441.769 Q91.458 438.49 91.458 432.666 Q91.458 429.292 90.6305 426.141 Q89.8029 422.958 88.1478 419.839 L93.686 419.839 Q95.0228 422.99 95.723 426.3 Q96.4232 429.61 96.4232 433.016 Q96.4232 441.546 91.458 446.543 Q86.4927 451.508 78.0264 451.508 Q69.2735 451.508 64.1491 446.798 Q58.9929 442.055 58.9929 434.034 Q58.9929 426.841 63.6399 422.672 Q68.255 418.47 76.2121 418.47 M74.4934 424.327 Q69.6873 424.39 66.8227 427.032 Q63.9581 429.642 63.9581 433.971 Q63.9581 438.872 66.7272 441.832 Q69.4963 444.761 74.5252 445.206 L74.4934 424.327 Z" fill="#000000" fill-rule="nonzero" fill-opacity="1" /><path clip-path="url(#clip630)" d="M60.9026 386.133 L66.4408 386.133 Q65.1676 388.615 64.5311 391.289 Q63.8945 393.962 63.8945 396.827 Q63.8945 401.187 65.2313 403.384 Q66.5681 405.548 69.2417 405.548 Q71.2787 405.548 72.4564 403.988 Q73.6022 402.429 74.6525 397.718 L75.0981 395.713 Q76.4349 389.475 78.8857 386.865 Q81.3047 384.223 85.6652 384.223 Q90.6305 384.223 93.5269 388.17 Q96.4232 392.084 96.4232 398.959 Q96.4232 401.824 95.8503 404.943 Q95.3092 408.031 94.1953 411.468 L88.1478 411.468 Q89.8347 408.222 90.6941 405.071 Q91.5217 401.919 91.5217 398.832 Q91.5217 394.694 90.1212 392.466 Q88.6889 390.238 86.1108 390.238 Q83.7237 390.238 82.4505 391.862 Q81.1774 393.453 79.9997 398.896 L79.5223 400.933 Q78.3765 406.375 76.0212 408.794 Q73.634 411.213 69.4963 411.213 Q64.4674 411.213 61.7301 407.649 Q58.9929 404.084 58.9929 397.527 Q58.9929 394.281 59.4703 391.416 Q59.9477 388.551 60.9026 386.133 Z" fill="#000000" fill-rule="nonzero" fill-opacity="1" /><path clip-path="url(#clip632)" d="M421.757 239.615 L421.757 1391.68 L461.511 1391.68 L461.511 239.615 L421.757 239.615 L421.757 239.615  Z" fill="#ff8c00" fill-rule="evenodd" fill-opacity="1"/>
<polyline clip-path="url(#clip632)" style="stroke:#000000; stroke-linecap:round; stroke-linejoin:round; stroke-width:4; stroke-opacity:1; fill:none" points="421.757,239.615 421.757,1391.68 461.511,1391.68 461.511,239.615 421.757,239.615 "/>
<path clip-path="url(#clip632)" d="M461.511 78.7402 L461.511 1391.68 L501.266 1391.68 L501.266 78.7402 L461.511 78.7402 L461.511 78.7402  Z" fill="#ff8c00" fill-rule="evenodd" fill-opacity="1"/>
<polyline clip-path="url(#clip632)" style="stroke:#000000; stroke-linecap:round; stroke-linejoin:round; stroke-width:4; stroke-opacity:1; fill:none" points="461.511,78.7402 461.511,1391.68 501.266,1391.68 501.266,78.7402 461.511,78.7402 "/>
<path clip-path="url(#clip632)" d="M501.266 322.647 L501.266 1391.68 L541.02 1391.68 L541.02 322.647 L501.266 322.647 L501.266 322.647  Z" fill="#ff8c00" fill-rule="evenodd" fill-opacity="1"/>
<polyline clip-path="url(#clip632)" style="stroke:#000000; stroke-linecap:round; stroke-linejoin:round; stroke-width:4; stroke-opacity:1; fill:none" points="501.266,322.647 501.266,1391.68 541.02,1391.68 541.02,322.647 501.266,322.647 "/>
<path clip-path="url(#clip632)" d="M541.02 499.09 L541.02 1391.68 L580.774 1391.68 L580.774 499.09 L541.02 499.09 L541.02 499.09  Z" fill="#ff8c00" fill-rule="evenodd" fill-opacity="1"/>
<polyline clip-path="url(#clip632)" style="stroke:#000000; stroke-linecap:round; stroke-linejoin:round; stroke-width:4; stroke-opacity:1; fill:none" points="541.02,499.09 541.02,1391.68 580.774,1391.68 580.774,499.09 541.02,499.09 "/>
<path clip-path="url(#clip632)" d="M580.774 592.501 L580.774 1391.68 L620.529 1391.68 L620.529 592.501 L580.774 592.501 L580.774 592.501  Z" fill="#ff8c00" fill-rule="evenodd" fill-opacity="1"/>
<polyline clip-path="url(#clip632)" style="stroke:#000000; stroke-linecap:round; stroke-linejoin:round; stroke-width:4; stroke-opacity:1; fill:none" points="580.774,592.501 580.774,1391.68 620.529,1391.68 620.529,592.501 580.774,592.501 "/>
<path clip-path="url(#clip632)" d="M620.529 416.058 L620.529 1391.68 L660.283 1391.68 L660.283 416.058 L620.529 416.058 L620.529 416.058  Z" fill="#ff8c00" fill-rule="evenodd" fill-opacity="1"/>
<polyline clip-path="url(#clip632)" style="stroke:#000000; stroke-linecap:round; stroke-linejoin:round; stroke-width:4; stroke-opacity:1; fill:none" points="620.529,416.058 620.529,1391.68 660.283,1391.68 660.283,416.058 620.529,416.058 "/>
<path clip-path="url(#clip632)" d="M660.283 338.215 L660.283 1391.68 L700.037 1391.68 L700.037 338.215 L660.283 338.215 L660.283 338.215  Z" fill="#ff8c00" fill-rule="evenodd" fill-opacity="1"/>
<polyline clip-path="url(#clip632)" style="stroke:#000000; stroke-linecap:round; stroke-linejoin:round; stroke-width:4; stroke-opacity:1; fill:none" points="660.283,338.215 660.283,1391.68 700.037,1391.68 700.037,338.215 660.283,338.215 "/>
<path clip-path="url(#clip632)" d="M700.037 1012.85 L700.037 1391.68 L739.792 1391.68 L739.792 1012.85 L700.037 1012.85 L700.037 1012.85  Z" fill="#ff8c00" fill-rule="evenodd" fill-opacity="1"/>
<polyline clip-path="url(#clip632)" style="stroke:#000000; stroke-linecap:round; stroke-linejoin:round; stroke-width:4; stroke-opacity:1; fill:none" points="700.037,1012.85 700.037,1391.68 739.792,1391.68 739.792,1012.85 700.037,1012.85 "/>
<path clip-path="url(#clip632)" d="M739.792 997.282 L739.792 1391.68 L779.546 1391.68 L779.546 997.282 L739.792 997.282 L739.792 997.282  Z" fill="#ff8c00" fill-rule="evenodd" fill-opacity="1"/>
<polyline clip-path="url(#clip632)" style="stroke:#000000; stroke-linecap:round; stroke-linejoin:round; stroke-width:4; stroke-opacity:1; fill:none" points="739.792,997.282 739.792,1391.68 779.546,1391.68 779.546,997.282 739.792,997.282 "/>
<path clip-path="url(#clip632)" d="M779.546 1230.81 L779.546 1391.68 L819.3 1391.68 L819.3 1230.81 L779.546 1230.81 L779.546 1230.81  Z" fill="#ff8c00" fill-rule="evenodd" fill-opacity="1"/>
<polyline clip-path="url(#clip632)" style="stroke:#000000; stroke-linecap:round; stroke-linejoin:round; stroke-width:4; stroke-opacity:1; fill:none" points="779.546,1230.81 779.546,1391.68 819.3,1391.68 819.3,1230.81 779.546,1230.81 "/>
<path clip-path="url(#clip632)" d="M819.3 971.334 L819.3 1391.68 L859.055 1391.68 L859.055 971.334 L819.3 971.334 L819.3 971.334  Z" fill="#ff8c00" fill-rule="evenodd" fill-opacity="1"/>
<polyline clip-path="url(#clip632)" style="stroke:#000000; stroke-linecap:round; stroke-linejoin:round; stroke-width:4; stroke-opacity:1; fill:none" points="819.3,971.334 819.3,1391.68 859.055,1391.68 859.055,971.334 819.3,971.334 "/>
<path clip-path="url(#clip632)" d="M859.055 1147.78 L859.055 1391.68 L898.809 1391.68 L898.809 1147.78 L859.055 1147.78 L859.055 1147.78  Z" fill="#ff8c00" fill-rule="evenodd" fill-opacity="1"/>
<polyline clip-path="url(#clip632)" style="stroke:#000000; stroke-linecap:round; stroke-linejoin:round; stroke-width:4; stroke-opacity:1; fill:none" points="859.055,1147.78 859.055,1391.68 898.809,1391.68 898.809,1147.78 859.055,1147.78 "/>
<path clip-path="url(#clip632)" d="M898.809 950.576 L898.809 1391.68 L938.564 1391.68 L938.564 950.576 L898.809 950.576 L898.809 950.576  Z" fill="#ff8c00" fill-rule="evenodd" fill-opacity="1"/>
<polyline clip-path="url(#clip632)" style="stroke:#000000; stroke-linecap:round; stroke-linejoin:round; stroke-width:4; stroke-opacity:1; fill:none" points="898.809,950.576 898.809,1391.68 938.564,1391.68 938.564,950.576 898.809,950.576 "/>
<path clip-path="url(#clip632)" d="M938.564 1204.86 L938.564 1391.68 L978.318 1391.68 L978.318 1204.86 L938.564 1204.86 L938.564 1204.86  Z" fill="#ff8c00" fill-rule="evenodd" fill-opacity="1"/>
<polyline clip-path="url(#clip632)" style="stroke:#000000; stroke-linecap:round; stroke-linejoin:round; stroke-width:4; stroke-opacity:1; fill:none" points="938.564,1204.86 938.564,1391.68 978.318,1391.68 978.318,1204.86 938.564,1204.86 "/>
<path clip-path="url(#clip632)" d="M978.318 1142.59 L978.318 1391.68 L1018.07 1391.68 L1018.07 1142.59 L978.318 1142.59 L978.318 1142.59  Z" fill="#ff8c00" fill-rule="evenodd" fill-opacity="1"/>
<polyline clip-path="url(#clip632)" style="stroke:#000000; stroke-linecap:round; stroke-linejoin:round; stroke-width:4; stroke-opacity:1; fill:none" points="978.318,1142.59 978.318,1391.68 1018.07,1391.68 1018.07,1142.59 978.318,1142.59 "/>
<path clip-path="url(#clip632)" d="M1018.07 1272.33 L1018.07 1391.68 L1057.83 1391.68 L1057.83 1272.33 L1018.07 1272.33 L1018.07 1272.33  Z" fill="#ff8c00" fill-rule="evenodd" fill-opacity="1"/>
<polyline clip-path="url(#clip632)" style="stroke:#000000; stroke-linecap:round; stroke-linejoin:round; stroke-width:4; stroke-opacity:1; fill:none" points="1018.07,1272.33 1018.07,1391.68 1057.83,1391.68 1057.83,1272.33 1018.07,1272.33 "/>
<path clip-path="url(#clip632)" d="M1057.83 1329.41 L1057.83 1391.68 L1097.58 1391.68 L1097.58 1329.41 L1057.83 1329.41 L1057.83 1329.41  Z" fill="#ff8c00" fill-rule="evenodd" fill-opacity="1"/>
<polyline clip-path="url(#clip632)" style="stroke:#000000; stroke-linecap:round; stroke-linejoin:round; stroke-width:4; stroke-opacity:1; fill:none" points="1057.83,1329.41 1057.83,1391.68 1097.58,1391.68 1097.58,1329.41 1057.83,1329.41 "/>
<path clip-path="url(#clip632)" d="M1097.58 1344.98 L1097.58 1391.68 L1137.34 1391.68 L1137.34 1344.98 L1097.58 1344.98 L1097.58 1344.98  Z" fill="#ff8c00" fill-rule="evenodd" fill-opacity="1"/>
<polyline clip-path="url(#clip632)" style="stroke:#000000; stroke-linecap:round; stroke-linejoin:round; stroke-width:4; stroke-opacity:1; fill:none" points="1097.58,1344.98 1097.58,1391.68 1137.34,1391.68 1137.34,1344.98 1097.58,1344.98 "/>
<path clip-path="url(#clip632)" d="M1137.34 1277.51 L1137.34 1391.68 L1177.09 1391.68 L1177.09 1277.51 L1137.34 1277.51 L1137.34 1277.51  Z" fill="#ff8c00" fill-rule="evenodd" fill-opacity="1"/>
<polyline clip-path="url(#clip632)" style="stroke:#000000; stroke-linecap:round; stroke-linejoin:round; stroke-width:4; stroke-opacity:1; fill:none" points="1137.34,1277.51 1137.34,1391.68 1177.09,1391.68 1177.09,1277.51 1137.34,1277.51 "/>
<path clip-path="url(#clip632)" d="M1177.09 1282.7 L1177.09 1391.68 L1216.84 1391.68 L1216.84 1282.7 L1177.09 1282.7 L1177.09 1282.7  Z" fill="#ff8c00" fill-rule="evenodd" fill-opacity="1"/>
<polyline clip-path="url(#clip632)" style="stroke:#000000; stroke-linecap:round; stroke-linejoin:round; stroke-width:4; stroke-opacity:1; fill:none" points="1177.09,1282.7 1177.09,1391.68 1216.84,1391.68 1216.84,1282.7 1177.09,1282.7 "/>
<path clip-path="url(#clip632)" d="M1216.84 1287.89 L1216.84 1391.68 L1256.6 1391.68 L1256.6 1287.89 L1216.84 1287.89 L1216.84 1287.89  Z" fill="#ff8c00" fill-rule="evenodd" fill-opacity="1"/>
<polyline clip-path="url(#clip632)" style="stroke:#000000; stroke-linecap:round; stroke-linejoin:round; stroke-width:4; stroke-opacity:1; fill:none" points="1216.84,1287.89 1216.84,1391.68 1256.6,1391.68 1256.6,1287.89 1216.84,1287.89 "/>
<path clip-path="url(#clip632)" d="M1256.6 1350.17 L1256.6 1391.68 L1296.35 1391.68 L1296.35 1350.17 L1256.6 1350.17 L1256.6 1350.17  Z" fill="#ff8c00" fill-rule="evenodd" fill-opacity="1"/>
<polyline clip-path="url(#clip632)" style="stroke:#000000; stroke-linecap:round; stroke-linejoin:round; stroke-width:4; stroke-opacity:1; fill:none" points="1256.6,1350.17 1256.6,1391.68 1296.35,1391.68 1296.35,1350.17 1256.6,1350.17 "/>
<path clip-path="url(#clip632)" d="M1296.35 1313.84 L1296.35 1391.68 L1336.11 1391.68 L1336.11 1313.84 L1296.35 1313.84 L1296.35 1313.84  Z" fill="#ff8c00" fill-rule="evenodd" fill-opacity="1"/>
<polyline clip-path="url(#clip632)" style="stroke:#000000; stroke-linecap:round; stroke-linejoin:round; stroke-width:4; stroke-opacity:1; fill:none" points="1296.35,1313.84 1296.35,1391.68 1336.11,1391.68 1336.11,1313.84 1296.35,1313.84 "/>
<path clip-path="url(#clip632)" d="M1336.11 1339.79 L1336.11 1391.68 L1375.86 1391.68 L1375.86 1339.79 L1336.11 1339.79 L1336.11 1339.79  Z" fill="#ff8c00" fill-rule="evenodd" fill-opacity="1"/>
<polyline clip-path="url(#clip632)" style="stroke:#000000; stroke-linecap:round; stroke-linejoin:round; stroke-width:4; stroke-opacity:1; fill:none" points="1336.11,1339.79 1336.11,1391.68 1375.86,1391.68 1375.86,1339.79 1336.11,1339.79 "/>
<path clip-path="url(#clip632)" d="M1375.86 1355.36 L1375.86 1391.68 L1415.62 1391.68 L1415.62 1355.36 L1375.86 1355.36 L1375.86 1355.36  Z" fill="#ff8c00" fill-rule="evenodd" fill-opacity="1"/>
<polyline clip-path="url(#clip632)" style="stroke:#000000; stroke-linecap:round; stroke-linejoin:round; stroke-width:4; stroke-opacity:1; fill:none" points="1375.86,1355.36 1375.86,1391.68 1415.62,1391.68 1415.62,1355.36 1375.86,1355.36 "/>
<path clip-path="url(#clip632)" d="M1415.62 1236 L1415.62 1391.68 L1455.37 1391.68 L1455.37 1236 L1415.62 1236 L1415.62 1236  Z" fill="#ff8c00" fill-rule="evenodd" fill-opacity="1"/>
<polyline clip-path="url(#clip632)" style="stroke:#000000; stroke-linecap:round; stroke-linejoin:round; stroke-width:4; stroke-opacity:1; fill:none" points="1415.62,1236 1415.62,1391.68 1455.37,1391.68 1455.37,1236 1415.62,1236 "/>
<path clip-path="url(#clip632)" d="M1455.37 1386.49 L1455.37 1391.68 L1495.12 1391.68 L1495.12 1386.49 L1455.37 1386.49 L1455.37 1386.49  Z" fill="#ff8c00" fill-rule="evenodd" fill-opacity="1"/>
<polyline clip-path="url(#clip632)" style="stroke:#000000; stroke-linecap:round; stroke-linejoin:round; stroke-width:4; stroke-opacity:1; fill:none" points="1455.37,1386.49 1455.37,1391.68 1495.12,1391.68 1495.12,1386.49 1455.37,1386.49 "/>
<path clip-path="url(#clip632)" d="M1495.12 1381.3 L1495.12 1391.68 L1534.88 1391.68 L1534.88 1381.3 L1495.12 1381.3 L1495.12 1381.3  Z" fill="#ff8c00" fill-rule="evenodd" fill-opacity="1"/>
<polyline clip-path="url(#clip632)" style="stroke:#000000; stroke-linecap:round; stroke-linejoin:round; stroke-width:4; stroke-opacity:1; fill:none" points="1495.12,1381.3 1495.12,1391.68 1534.88,1391.68 1534.88,1381.3 1495.12,1381.3 "/>
<path clip-path="url(#clip632)" d="M1534.88 1386.49 L1534.88 1391.68 L1574.63 1391.68 L1574.63 1386.49 L1534.88 1386.49 L1534.88 1386.49  Z" fill="#ff8c00" fill-rule="evenodd" fill-opacity="1"/>
<polyline clip-path="url(#clip632)" style="stroke:#000000; stroke-linecap:round; stroke-linejoin:round; stroke-width:4; stroke-opacity:1; fill:none" points="1534.88,1386.49 1534.88,1391.68 1574.63,1391.68 1574.63,1386.49 1534.88,1386.49 "/>
<path clip-path="url(#clip632)" d="M1574.63 1391.68 L1574.63 1391.68 L1614.39 1391.68 L1614.39 1391.68 L1574.63 1391.68 L1574.63 1391.68  Z" fill="#ff8c00" fill-rule="evenodd" fill-opacity="1"/>
<polyline clip-path="url(#clip632)" style="stroke:#000000; stroke-linecap:round; stroke-linejoin:round; stroke-width:4; stroke-opacity:1; fill:none" points="1574.63,1391.68 1574.63,1391.68 1614.39,1391.68 1574.63,1391.68 "/>
<path clip-path="url(#clip632)" d="M1614.39 1344.98 L1614.39 1391.68 L1654.14 1391.68 L1654.14 1344.98 L1614.39 1344.98 L1614.39 1344.98  Z" fill="#ff8c00" fill-rule="evenodd" fill-opacity="1"/>
<polyline clip-path="url(#clip632)" style="stroke:#000000; stroke-linecap:round; stroke-linejoin:round; stroke-width:4; stroke-opacity:1; fill:none" points="1614.39,1344.98 1614.39,1391.68 1654.14,1391.68 1654.14,1344.98 1614.39,1344.98 "/>
<path clip-path="url(#clip632)" d="M1654.14 1386.49 L1654.14 1391.68 L1693.9 1391.68 L1693.9 1386.49 L1654.14 1386.49 L1654.14 1386.49  Z" fill="#ff8c00" fill-rule="evenodd" fill-opacity="1"/>
<polyline clip-path="url(#clip632)" style="stroke:#000000; stroke-linecap:round; stroke-linejoin:round; stroke-width:4; stroke-opacity:1; fill:none" points="1654.14,1386.49 1654.14,1391.68 1693.9,1391.68 1693.9,1386.49 1654.14,1386.49 "/>
<path clip-path="url(#clip632)" d="M1693.9 1381.3 L1693.9 1391.68 L1733.65 1391.68 L1733.65 1381.3 L1693.9 1381.3 L1693.9 1381.3  Z" fill="#ff8c00" fill-rule="evenodd" fill-opacity="1"/>
<polyline clip-path="url(#clip632)" style="stroke:#000000; stroke-linecap:round; stroke-linejoin:round; stroke-width:4; stroke-opacity:1; fill:none" points="1693.9,1381.3 1693.9,1391.68 1733.65,1391.68 1733.65,1381.3 1693.9,1381.3 "/>
<path clip-path="url(#clip632)" d="M1733.65 1376.12 L1733.65 1391.68 L1773.41 1391.68 L1773.41 1376.12 L1733.65 1376.12 L1733.65 1376.12  Z" fill="#ff8c00" fill-rule="evenodd" fill-opacity="1"/>
<polyline clip-path="url(#clip632)" style="stroke:#000000; stroke-linecap:round; stroke-linejoin:round; stroke-width:4; stroke-opacity:1; fill:none" points="1733.65,1376.12 1733.65,1391.68 1773.41,1391.68 1773.41,1376.12 1733.65,1376.12 "/>
<path clip-path="url(#clip632)" d="M1773.41 1391.68 L1773.41 1391.68 L1813.16 1391.68 L1813.16 1391.68 L1773.41 1391.68 L1773.41 1391.68  Z" fill="#ff8c00" fill-rule="evenodd" fill-opacity="1"/>
<polyline clip-path="url(#clip632)" style="stroke:#000000; stroke-linecap:round; stroke-linejoin:round; stroke-width:4; stroke-opacity:1; fill:none" points="1773.41,1391.68 1773.41,1391.68 1813.16,1391.68 1773.41,1391.68 "/>
<path clip-path="url(#clip632)" d="M1813.16 1360.55 L1813.16 1391.68 L1852.91 1391.68 L1852.91 1360.55 L1813.16 1360.55 L1813.16 1360.55  Z" fill="#ff8c00" fill-rule="evenodd" fill-opacity="1"/>
<polyline clip-path="url(#clip632)" style="stroke:#000000; stroke-linecap:round; stroke-linejoin:round; stroke-width:4; stroke-opacity:1; fill:none" points="1813.16,1360.55 1813.16,1391.68 1852.91,1391.68 1852.91,1360.55 1813.16,1360.55 "/>
<path clip-path="url(#clip632)" d="M1852.91 1391.68 L1852.91 1391.68 L1892.67 1391.68 L1892.67 1391.68 L1852.91 1391.68 L1852.91 1391.68  Z" fill="#ff8c00" fill-rule="evenodd" fill-opacity="1"/>
<polyline clip-path="url(#clip632)" style="stroke:#000000; stroke-linecap:round; stroke-linejoin:round; stroke-width:4; stroke-opacity:1; fill:none" points="1852.91,1391.68 1852.91,1391.68 1892.67,1391.68 1852.91,1391.68 "/>
<path clip-path="url(#clip632)" d="M1892.67 1386.49 L1892.67 1391.68 L1932.42 1391.68 L1932.42 1386.49 L1892.67 1386.49 L1892.67 1386.49  Z" fill="#ff8c00" fill-rule="evenodd" fill-opacity="1"/>
<polyline clip-path="url(#clip632)" style="stroke:#000000; stroke-linecap:round; stroke-linejoin:round; stroke-width:4; stroke-opacity:1; fill:none" points="1892.67,1386.49 1892.67,1391.68 1932.42,1391.68 1932.42,1386.49 1892.67,1386.49 "/>
<path clip-path="url(#clip632)" d="M1932.42 1370.93 L1932.42 1391.68 L1972.18 1391.68 L1972.18 1370.93 L1932.42 1370.93 L1932.42 1370.93  Z" fill="#ff8c00" fill-rule="evenodd" fill-opacity="1"/>
<polyline clip-path="url(#clip632)" style="stroke:#000000; stroke-linecap:round; stroke-linejoin:round; stroke-width:4; stroke-opacity:1; fill:none" points="1932.42,1370.93 1932.42,1391.68 1972.18,1391.68 1972.18,1370.93 1932.42,1370.93 "/>
<path clip-path="url(#clip632)" d="M1972.18 1381.3 L1972.18 1391.68 L2011.93 1391.68 L2011.93 1381.3 L1972.18 1381.3 L1972.18 1381.3  Z" fill="#ff8c00" fill-rule="evenodd" fill-opacity="1"/>
<polyline clip-path="url(#clip632)" style="stroke:#000000; stroke-linecap:round; stroke-linejoin:round; stroke-width:4; stroke-opacity:1; fill:none" points="1972.18,1381.3 1972.18,1391.68 2011.93,1391.68 2011.93,1381.3 1972.18,1381.3 "/>
<path clip-path="url(#clip632)" d="M2011.93 1319.03 L2011.93 1391.68 L2051.69 1391.68 L2051.69 1319.03 L2011.93 1319.03 L2011.93 1319.03  Z" fill="#ff8c00" fill-rule="evenodd" fill-opacity="1"/>
<polyline clip-path="url(#clip632)" style="stroke:#000000; stroke-linecap:round; stroke-linejoin:round; stroke-width:4; stroke-opacity:1; fill:none" points="2011.93,1319.03 2011.93,1391.68 2051.69,1391.68 2051.69,1319.03 2011.93,1319.03 "/>
<path clip-path="url(#clip632)" d="M2051.69 1391.68 L2051.69 1391.68 L2091.44 1391.68 L2091.44 1391.68 L2051.69 1391.68 L2051.69 1391.68  Z" fill="#ff8c00" fill-rule="evenodd" fill-opacity="1"/>
<polyline clip-path="url(#clip632)" style="stroke:#000000; stroke-linecap:round; stroke-linejoin:round; stroke-width:4; stroke-opacity:1; fill:none" points="2051.69,1391.68 2051.69,1391.68 2091.44,1391.68 2051.69,1391.68 "/>
<path clip-path="url(#clip632)" d="M2091.44 1391.68 L2091.44 1391.68 L2131.19 1391.68 L2131.19 1391.68 L2091.44 1391.68 L2091.44 1391.68  Z" fill="#ff8c00" fill-rule="evenodd" fill-opacity="1"/>
<polyline clip-path="url(#clip632)" style="stroke:#000000; stroke-linecap:round; stroke-linejoin:round; stroke-width:4; stroke-opacity:1; fill:none" points="2091.44,1391.68 2091.44,1391.68 2131.19,1391.68 2091.44,1391.68 "/>
<path clip-path="url(#clip632)" d="M2131.19 1386.49 L2131.19 1391.68 L2170.95 1391.68 L2170.95 1386.49 L2131.19 1386.49 L2131.19 1386.49  Z" fill="#ff8c00" fill-rule="evenodd" fill-opacity="1"/>
<polyline clip-path="url(#clip632)" style="stroke:#000000; stroke-linecap:round; stroke-linejoin:round; stroke-width:4; stroke-opacity:1; fill:none" points="2131.19,1386.49 2131.19,1391.68 2170.95,1391.68 2170.95,1386.49 2131.19,1386.49 "/>
<path clip-path="url(#clip632)" d="M2170.95 1386.49 L2170.95 1391.68 L2210.7 1391.68 L2210.7 1386.49 L2170.95 1386.49 L2170.95 1386.49  Z" fill="#ff8c00" fill-rule="evenodd" fill-opacity="1"/>
<polyline clip-path="url(#clip632)" style="stroke:#000000; stroke-linecap:round; stroke-linejoin:round; stroke-width:4; stroke-opacity:1; fill:none" points="2170.95,1386.49 2170.95,1391.68 2210.7,1391.68 2210.7,1386.49 2170.95,1386.49 "/>
<circle clip-path="url(#clip632)" style="fill:#ff8c00; stroke:none; fill-opacity:0" cx="441.634" cy="239.615" r="2"/>
<circle clip-path="url(#clip632)" style="fill:#ff8c00; stroke:none; fill-opacity:0" cx="481.388" cy="78.7402" r="2"/>
<circle clip-path="url(#clip632)" style="fill:#ff8c00; stroke:none; fill-opacity:0" cx="521.143" cy="322.647" r="2"/>
<circle clip-path="url(#clip632)" style="fill:#ff8c00; stroke:none; fill-opacity:0" cx="560.897" cy="499.09" r="2"/>
<circle clip-path="url(#clip632)" style="fill:#ff8c00; stroke:none; fill-opacity:0" cx="600.651" cy="592.501" r="2"/>
<circle clip-path="url(#clip632)" style="fill:#ff8c00; stroke:none; fill-opacity:0" cx="640.406" cy="416.058" r="2"/>
<circle clip-path="url(#clip632)" style="fill:#ff8c00; stroke:none; fill-opacity:0" cx="680.16" cy="338.215" r="2"/>
<circle clip-path="url(#clip632)" style="fill:#ff8c00; stroke:none; fill-opacity:0" cx="719.915" cy="1012.85" r="2"/>
<circle clip-path="url(#clip632)" style="fill:#ff8c00; stroke:none; fill-opacity:0" cx="759.669" cy="997.282" r="2"/>
<circle clip-path="url(#clip632)" style="fill:#ff8c00; stroke:none; fill-opacity:0" cx="799.423" cy="1230.81" r="2"/>
<circle clip-path="url(#clip632)" style="fill:#ff8c00; stroke:none; fill-opacity:0" cx="839.178" cy="971.334" r="2"/>
<circle clip-path="url(#clip632)" style="fill:#ff8c00; stroke:none; fill-opacity:0" cx="878.932" cy="1147.78" r="2"/>
<circle clip-path="url(#clip632)" style="fill:#ff8c00; stroke:none; fill-opacity:0" cx="918.686" cy="950.576" r="2"/>
<circle clip-path="url(#clip632)" style="fill:#ff8c00; stroke:none; fill-opacity:0" cx="958.441" cy="1204.86" r="2"/>
<circle clip-path="url(#clip632)" style="fill:#ff8c00; stroke:none; fill-opacity:0" cx="998.195" cy="1142.59" r="2"/>
<circle clip-path="url(#clip632)" style="fill:#ff8c00; stroke:none; fill-opacity:0" cx="1037.95" cy="1272.33" r="2"/>
<circle clip-path="url(#clip632)" style="fill:#ff8c00; stroke:none; fill-opacity:0" cx="1077.7" cy="1329.41" r="2"/>
<circle clip-path="url(#clip632)" style="fill:#ff8c00; stroke:none; fill-opacity:0" cx="1117.46" cy="1344.98" r="2"/>
<circle clip-path="url(#clip632)" style="fill:#ff8c00; stroke:none; fill-opacity:0" cx="1157.21" cy="1277.51" r="2"/>
<circle clip-path="url(#clip632)" style="fill:#ff8c00; stroke:none; fill-opacity:0" cx="1196.97" cy="1282.7" r="2"/>
<circle clip-path="url(#clip632)" style="fill:#ff8c00; stroke:none; fill-opacity:0" cx="1236.72" cy="1287.89" r="2"/>
<circle clip-path="url(#clip632)" style="fill:#ff8c00; stroke:none; fill-opacity:0" cx="1276.48" cy="1350.17" r="2"/>
<circle clip-path="url(#clip632)" style="fill:#ff8c00; stroke:none; fill-opacity:0" cx="1316.23" cy="1313.84" r="2"/>
<circle clip-path="url(#clip632)" style="fill:#ff8c00; stroke:none; fill-opacity:0" cx="1355.98" cy="1339.79" r="2"/>
<circle clip-path="url(#clip632)" style="fill:#ff8c00; stroke:none; fill-opacity:0" cx="1395.74" cy="1355.36" r="2"/>
<circle clip-path="url(#clip632)" style="fill:#ff8c00; stroke:none; fill-opacity:0" cx="1435.49" cy="1236" r="2"/>
<circle clip-path="url(#clip632)" style="fill:#ff8c00; stroke:none; fill-opacity:0" cx="1475.25" cy="1386.49" r="2"/>
<circle clip-path="url(#clip632)" style="fill:#ff8c00; stroke:none; fill-opacity:0" cx="1515" cy="1381.3" r="2"/>
<circle clip-path="url(#clip632)" style="fill:#ff8c00; stroke:none; fill-opacity:0" cx="1554.76" cy="1386.49" r="2"/>
<circle clip-path="url(#clip632)" style="fill:#ff8c00; stroke:none; fill-opacity:0" cx="1594.51" cy="1391.68" r="2"/>
<circle clip-path="url(#clip632)" style="fill:#ff8c00; stroke:none; fill-opacity:0" cx="1634.26" cy="1344.98" r="2"/>
<circle clip-path="url(#clip632)" style="fill:#ff8c00; stroke:none; fill-opacity:0" cx="1674.02" cy="1386.49" r="2"/>
<circle clip-path="url(#clip632)" style="fill:#ff8c00; stroke:none; fill-opacity:0" cx="1713.77" cy="1381.3" r="2"/>
<circle clip-path="url(#clip632)" style="fill:#ff8c00; stroke:none; fill-opacity:0" cx="1753.53" cy="1376.12" r="2"/>
<circle clip-path="url(#clip632)" style="fill:#ff8c00; stroke:none; fill-opacity:0" cx="1793.28" cy="1391.68" r="2"/>
<circle clip-path="url(#clip632)" style="fill:#ff8c00; stroke:none; fill-opacity:0" cx="1833.04" cy="1360.55" r="2"/>
<circle clip-path="url(#clip632)" style="fill:#ff8c00; stroke:none; fill-opacity:0" cx="1872.79" cy="1391.68" r="2"/>
<circle clip-path="url(#clip632)" style="fill:#ff8c00; stroke:none; fill-opacity:0" cx="1912.55" cy="1386.49" r="2"/>
<circle clip-path="url(#clip632)" style="fill:#ff8c00; stroke:none; fill-opacity:0" cx="1952.3" cy="1370.93" r="2"/>
<circle clip-path="url(#clip632)" style="fill:#ff8c00; stroke:none; fill-opacity:0" cx="1992.05" cy="1381.3" r="2"/>
<circle clip-path="url(#clip632)" style="fill:#ff8c00; stroke:none; fill-opacity:0" cx="2031.81" cy="1319.03" r="2"/>
<circle clip-path="url(#clip632)" style="fill:#ff8c00; stroke:none; fill-opacity:0" cx="2071.56" cy="1391.68" r="2"/>
<circle clip-path="url(#clip632)" style="fill:#ff8c00; stroke:none; fill-opacity:0" cx="2111.32" cy="1391.68" r="2"/>
<circle clip-path="url(#clip632)" style="fill:#ff8c00; stroke:none; fill-opacity:0" cx="2151.07" cy="1386.49" r="2"/>
<circle clip-path="url(#clip632)" style="fill:#ff8c00; stroke:none; fill-opacity:0" cx="2190.83" cy="1386.49" r="2"/>
</svg>
