<?xml version="1.0" encoding="utf-8"?>
<svg xmlns="http://www.w3.org/2000/svg" xmlns:xlink="http://www.w3.org/1999/xlink" width="800" height="300" viewBox="0 0 3200 1200">
<defs>
  <clipPath id="clip270">
    <rect x="0" y="0" width="3200" height="1200"/>
  </clipPath>
</defs>
<path clip-path="url(#clip270)" d="M0 1200 L3200 1200 L3200 0 L0 0  Z" fill="#ffffff" fill-rule="evenodd" fill-opacity="1"/>
<defs>
  <clipPath id="clip271">
    <rect x="640" y="0" width="2241" height="1200"/>
  </clipPath>
</defs>
<path clip-path="url(#clip270)" d="M194.151 1031.59 L3121.26 1031.59 L3121.26 78.7402 L194.151 78.7402  Z" fill="#ffffff" fill-rule="evenodd" fill-opacity="1"/>
<defs>
  <clipPath id="clip272">
    <rect x="194" y="78" width="2928" height="954"/>
  </clipPath>
</defs>
<polyline clip-path="url(#clip272)" style="stroke:#000000; stroke-linecap:round; stroke-linejoin:round; stroke-width:2; stroke-opacity:0.1; fill:none" points="249.101,1031.59 249.101,78.7402 "/>
<polyline clip-path="url(#clip272)" style="stroke:#000000; stroke-linecap:round; stroke-linejoin:round; stroke-width:2; stroke-opacity:0.1; fill:none" points="946.43,1031.59 946.43,78.7402 "/>
<polyline clip-path="url(#clip272)" style="stroke:#000000; stroke-linecap:round; stroke-linejoin:round; stroke-width:2; stroke-opacity:0.1; fill:none" points="1643.76,1031.59 1643.76,78.7402 "/>
<polyline clip-path="url(#clip272)" style="stroke:#000000; stroke-linecap:round; stroke-linejoin:round; stroke-width:2; stroke-opacity:0.1; fill:none" points="2341.09,1031.59 2341.09,78.7402 "/>
<polyline clip-path="url(#clip272)" style="stroke:#000000; stroke-linecap:round; stroke-linejoin:round; stroke-width:2; stroke-opacity:0.1; fill:none" points="3038.42,1031.59 3038.42,78.7402 "/>
<polyline clip-path="url(#clip270)" style="stroke:#000000; stroke-linecap:round; stroke-linejoin:round; stroke-width:4; stroke-opacity:1; fill:none" points="194.151,1031.59 3121.26,1031.59 "/>
<polyline clip-path="url(#clip270)" style="stroke:#000000; stroke-linecap:round; stroke-linejoin:round; stroke-width:4; stroke-opacity:1; fill:none" points="249.101,1031.59 249.101,1012.7 "/>
<polyline clip-path="url(#clip270)" style="stroke:#000000; stroke-linecap:round; stroke-linejoin:round; stroke-width:4; stroke-opacity:1; fill:none" points="946.43,1031.59 946.43,1012.7 "/>
<polyline clip-path="url(#clip270)" style="stroke:#000000; stroke-linecap:round; stroke-linejoin:round; stroke-width:4; stroke-opacity:1; fill:none" points="1643.76,1031.59 1643.76,1012.7 "/>
<polyline clip-path="url(#clip270)" style="stroke:#000000; stroke-linecap:round; stroke-linejoin:round; stroke-width:4; stroke-opacity:1; fill:none" points="2341.09,1031.59 2341.09,1012.7 "/>
<polyline clip-path="url(#clip270)" style="stroke:#000000; stroke-linecap:round; stroke-linejoin:round; stroke-width:4; stroke-opacity:1; fill:none" points="3038.42,1031.59 3038.42,1012.7 "/>
<path clip-path="url(#clip270)" d="M249.101 1068.91 Q245.49 1068.91 243.661 1072.48 Q241.855 1076.02 241.855 1083.15 Q241.855 1090.25 243.661 1093.82 Q245.49 1097.36 249.101 1097.36 Q252.735 1097.36 254.541 1093.82 Q256.369 1090.25 256.369 1083.15 Q256.369 1076.02 254.541 1072.48 Q252.735 1068.91 249.101 1068.91 M249.101 1065.21 Q254.911 1065.21 257.966 1069.82 Q261.045 1074.4 261.045 1083.15 Q261.045 1091.88 257.966 1096.48 Q254.911 1101.07 249.101 1101.07 Q243.291 1101.07 240.212 1096.48 Q237.156 1091.88 237.156 1083.15 Q237.156 1074.4 240.212 1069.82 Q243.291 1065.21 249.101 1065.21 Z" fill="#000000" fill-rule="nonzero" fill-opacity="1" /><path clip-path="url(#clip270)" d="M925.701 1096.46 L942.02 1096.46 L942.02 1100.39 L920.076 1100.39 L920.076 1096.46 Q922.738 1093.7 927.321 1089.07 Q931.928 1084.42 933.108 1083.08 Q935.354 1080.56 936.233 1078.82 Q937.136 1077.06 937.136 1075.37 Q937.136 1072.62 935.192 1070.88 Q933.27 1069.14 930.168 1069.14 Q927.969 1069.14 925.516 1069.91 Q923.085 1070.67 920.307 1072.22 L920.307 1067.5 Q923.131 1066.37 925.585 1065.79 Q928.039 1065.21 930.076 1065.21 Q935.446 1065.21 938.641 1067.89 Q941.835 1070.58 941.835 1075.07 Q941.835 1077.2 941.025 1079.12 Q940.238 1081.02 938.131 1083.61 Q937.553 1084.28 934.451 1087.5 Q931.349 1090.69 925.701 1096.46 Z" fill="#000000" fill-rule="nonzero" fill-opacity="1" /><path clip-path="url(#clip270)" d="M951.881 1065.83 L970.238 1065.83 L970.238 1069.77 L956.164 1069.77 L956.164 1078.24 Q957.182 1077.89 958.201 1077.73 Q959.219 1077.55 960.238 1077.55 Q966.025 1077.55 969.404 1080.72 Q972.784 1083.89 972.784 1089.31 Q972.784 1094.88 969.312 1097.99 Q965.84 1101.07 959.52 1101.07 Q957.344 1101.07 955.076 1100.69 Q952.83 1100.32 950.423 1099.58 L950.423 1094.88 Q952.506 1096.02 954.728 1096.57 Q956.951 1097.13 959.428 1097.13 Q963.432 1097.13 965.77 1095.02 Q968.108 1092.92 968.108 1089.31 Q968.108 1085.69 965.77 1083.59 Q963.432 1081.48 959.428 1081.48 Q957.553 1081.48 955.678 1081.9 Q953.826 1082.32 951.881 1083.19 L951.881 1065.83 Z" fill="#000000" fill-rule="nonzero" fill-opacity="1" /><path clip-path="url(#clip270)" d="M1618.46 1065.83 L1636.81 1065.83 L1636.81 1069.77 L1622.74 1069.77 L1622.74 1078.24 Q1623.76 1077.89 1624.78 1077.73 Q1625.8 1077.55 1626.81 1077.55 Q1632.6 1077.55 1635.98 1080.72 Q1639.36 1083.89 1639.36 1089.31 Q1639.36 1094.88 1635.89 1097.99 Q1632.42 1101.07 1626.1 1101.07 Q1623.92 1101.07 1621.65 1100.69 Q1619.41 1100.32 1617 1099.58 L1617 1094.88 Q1619.08 1096.02 1621.31 1096.57 Q1623.53 1097.13 1626 1097.13 Q1630.01 1097.13 1632.35 1095.02 Q1634.68 1092.92 1634.68 1089.31 Q1634.68 1085.69 1632.35 1083.59 Q1630.01 1081.48 1626 1081.48 Q1624.13 1081.48 1622.25 1081.9 Q1620.4 1082.32 1618.46 1083.19 L1618.46 1065.83 Z" fill="#000000" fill-rule="nonzero" fill-opacity="1" /><path clip-path="url(#clip270)" d="M1658.57 1068.91 Q1654.96 1068.91 1653.13 1072.48 Q1651.33 1076.02 1651.33 1083.15 Q1651.33 1090.25 1653.13 1093.82 Q1654.96 1097.36 1658.57 1097.36 Q1662.21 1097.36 1664.01 1093.82 Q1665.84 1090.25 1665.84 1083.15 Q1665.84 1076.02 1664.01 1072.48 Q1662.21 1068.91 1658.57 1068.91 M1658.57 1065.21 Q1664.38 1065.21 1667.44 1069.82 Q1670.52 1074.4 1670.52 1083.15 Q1670.52 1091.88 1667.44 1096.48 Q1664.38 1101.07 1658.57 1101.07 Q1652.76 1101.07 1649.68 1096.48 Q1646.63 1091.88 1646.63 1083.15 Q1646.63 1074.4 1649.68 1069.82 Q1652.76 1065.21 1658.57 1065.21 Z" fill="#000000" fill-rule="nonzero" fill-opacity="1" /><path clip-path="url(#clip270)" d="M2314.94 1065.83 L2337.16 1065.83 L2337.16 1067.82 L2324.62 1100.39 L2319.73 1100.39 L2331.54 1069.77 L2314.94 1069.77 L2314.94 1065.83 Z" fill="#000000" fill-rule="nonzero" fill-opacity="1" /><path clip-path="url(#clip270)" d="M2346.33 1065.83 L2364.69 1065.83 L2364.69 1069.77 L2350.61 1069.77 L2350.61 1078.24 Q2351.63 1077.89 2352.65 1077.73 Q2353.67 1077.55 2354.69 1077.55 Q2360.47 1077.55 2363.85 1080.72 Q2367.23 1083.89 2367.23 1089.31 Q2367.23 1094.88 2363.76 1097.99 Q2360.29 1101.07 2353.97 1101.07 Q2351.79 1101.07 2349.53 1100.69 Q2347.28 1100.32 2344.87 1099.58 L2344.87 1094.88 Q2346.96 1096.02 2349.18 1096.57 Q2351.4 1097.13 2353.88 1097.13 Q2357.88 1097.13 2360.22 1095.02 Q2362.56 1092.92 2362.56 1089.31 Q2362.56 1085.69 2360.22 1083.59 Q2357.88 1081.48 2353.88 1081.48 Q2352 1081.48 2350.13 1081.9 Q2348.28 1082.32 2346.33 1083.19 L2346.33 1065.83 Z" fill="#000000" fill-rule="nonzero" fill-opacity="1" /><path clip-path="url(#clip270)" d="M2998.02 1096.46 L3005.66 1096.46 L3005.66 1070.09 L2997.35 1071.76 L2997.35 1067.5 L3005.62 1065.83 L3010.29 1065.83 L3010.29 1096.46 L3017.93 1096.46 L3017.93 1100.39 L2998.02 1100.39 L2998.02 1096.46 Z" fill="#000000" fill-rule="nonzero" fill-opacity="1" /><path clip-path="url(#clip270)" d="M3037.38 1068.91 Q3033.76 1068.91 3031.94 1072.48 Q3030.13 1076.02 3030.13 1083.15 Q3030.13 1090.25 3031.94 1093.82 Q3033.76 1097.36 3037.38 1097.36 Q3041.01 1097.36 3042.82 1093.82 Q3044.64 1090.25 3044.64 1083.15 Q3044.64 1076.02 3042.82 1072.48 Q3041.01 1068.91 3037.38 1068.91 M3037.38 1065.21 Q3043.19 1065.21 3046.24 1069.82 Q3049.32 1074.4 3049.32 1083.15 Q3049.32 1091.88 3046.24 1096.48 Q3043.19 1101.07 3037.38 1101.07 Q3031.57 1101.07 3028.49 1096.48 Q3025.43 1091.88 3025.43 1083.15 Q3025.43 1074.4 3028.49 1069.82 Q3031.57 1065.21 3037.38 1065.21 Z" fill="#000000" fill-rule="nonzero" fill-opacity="1" /><path clip-path="url(#clip270)" d="M3067.54 1068.91 Q3063.93 1068.91 3062.1 1072.48 Q3060.29 1076.02 3060.29 1083.15 Q3060.29 1090.25 3062.1 1093.82 Q3063.93 1097.36 3067.54 1097.36 Q3071.17 1097.36 3072.98 1093.82 Q3074.81 1090.25 3074.81 1083.15 Q3074.81 1076.02 3072.98 1072.48 Q3071.17 1068.91 3067.54 1068.91 M3067.54 1065.21 Q3073.35 1065.21 3076.4 1069.82 Q3079.48 1074.4 3079.48 1083.15 Q3079.48 1091.88 3076.4 1096.48 Q3073.35 1101.07 3067.54 1101.07 Q3061.73 1101.07 3058.65 1096.48 Q3055.59 1091.88 3055.59 1083.15 Q3055.59 1074.4 3058.65 1069.82 Q3061.73 1065.21 3067.54 1065.21 Z" fill="#000000" fill-rule="nonzero" fill-opacity="1" /><path clip-path="url(#clip270)" d="M1591.17 1146.22 L1591.17 1183.17 L1598.93 1183.17 Q1608.77 1183.17 1613.32 1178.72 Q1617.9 1174.26 1617.9 1164.65 Q1617.9 1155.1 1613.32 1150.68 Q1608.77 1146.22 1598.93 1146.22 L1591.17 1146.22 M1584.74 1140.94 L1597.95 1140.94 Q1611.76 1140.94 1618.22 1146.7 Q1624.68 1152.43 1624.68 1164.65 Q1624.68 1176.94 1618.19 1182.7 Q1611.7 1188.46 1597.95 1188.46 L1584.74 1188.46 L1584.74 1140.94 Z" fill="#000000" fill-rule="nonzero" fill-opacity="1" /><path clip-path="url(#clip270)" d="M1650.88 1170.54 Q1643.78 1170.54 1641.04 1172.16 Q1638.31 1173.78 1638.31 1177.7 Q1638.31 1180.82 1640.34 1182.66 Q1642.41 1184.48 1645.94 1184.48 Q1650.81 1184.48 1653.74 1181.04 Q1656.7 1177.57 1656.7 1171.84 L1656.7 1170.54 L1650.88 1170.54 M1662.56 1168.12 L1662.56 1188.46 L1656.7 1188.46 L1656.7 1183.05 Q1654.7 1186.29 1651.71 1187.85 Q1648.71 1189.38 1644.39 1189.38 Q1638.91 1189.38 1635.66 1186.33 Q1632.45 1183.24 1632.45 1178.08 Q1632.45 1172.07 1636.46 1169.01 Q1640.5 1165.96 1648.49 1165.96 L1656.7 1165.96 L1656.7 1165.38 Q1656.7 1161.34 1654.03 1159.14 Q1651.39 1156.92 1646.58 1156.92 Q1643.53 1156.92 1640.63 1157.65 Q1637.73 1158.38 1635.06 1159.84 L1635.06 1154.43 Q1638.27 1153.19 1641.3 1152.59 Q1644.32 1151.95 1647.19 1151.95 Q1654.92 1151.95 1658.74 1155.96 Q1662.56 1159.97 1662.56 1168.12 Z" fill="#000000" fill-rule="nonzero" fill-opacity="1" /><path clip-path="url(#clip270)" d="M1680.42 1142.69 L1680.42 1152.81 L1692.48 1152.81 L1692.48 1157.36 L1680.42 1157.36 L1680.42 1176.71 Q1680.42 1181.07 1681.59 1182.31 Q1682.8 1183.56 1686.46 1183.56 L1692.48 1183.56 L1692.48 1188.46 L1686.46 1188.46 Q1679.68 1188.46 1677.11 1185.94 Q1674.53 1183.4 1674.53 1176.71 L1674.53 1157.36 L1670.23 1157.36 L1670.23 1152.81 L1674.53 1152.81 L1674.53 1142.69 L1680.42 1142.69 Z" fill="#000000" fill-rule="nonzero" fill-opacity="1" /><path clip-path="url(#clip270)" d="M1730.67 1169.17 L1730.67 1172.03 L1703.75 1172.03 Q1704.13 1178.08 1707.37 1181.26 Q1710.65 1184.42 1716.48 1184.42 Q1719.85 1184.42 1723 1183.59 Q1726.18 1182.76 1729.3 1181.11 L1729.3 1186.64 Q1726.15 1187.98 1722.84 1188.68 Q1719.53 1189.38 1716.13 1189.38 Q1707.6 1189.38 1702.6 1184.42 Q1697.63 1179.45 1697.63 1170.98 Q1697.63 1162.23 1702.35 1157.11 Q1707.09 1151.95 1715.11 1151.95 Q1722.3 1151.95 1726.47 1156.6 Q1730.67 1161.21 1730.67 1169.17 M1724.82 1167.45 Q1724.75 1162.64 1722.11 1159.78 Q1719.5 1156.92 1715.17 1156.92 Q1710.27 1156.92 1707.31 1159.68 Q1704.38 1162.45 1703.94 1167.48 L1724.82 1167.45 Z" fill="#000000" fill-rule="nonzero" fill-opacity="1" /><polyline clip-path="url(#clip272)" style="stroke:#000000; stroke-linecap:round; stroke-linejoin:round; stroke-width:2; stroke-opacity:0.1; fill:none" points="194.151,1015.68 3121.26,1015.68 "/>
<polyline clip-path="url(#clip272)" style="stroke:#000000; stroke-linecap:round; stroke-linejoin:round; stroke-width:2; stroke-opacity:0.1; fill:none" points="194.151,880.042 3121.26,880.042 "/>
<polyline clip-path="url(#clip272)" style="stroke:#000000; stroke-linecap:round; stroke-linejoin:round; stroke-width:2; stroke-opacity:0.1; fill:none" points="194.151,744.408 3121.26,744.408 "/>
<polyline clip-path="url(#clip272)" style="stroke:#000000; stroke-linecap:round; stroke-linejoin:round; stroke-width:2; stroke-opacity:0.1; fill:none" points="194.151,608.775 3121.26,608.775 "/>
<polyline clip-path="url(#clip272)" style="stroke:#000000; stroke-linecap:round; stroke-linejoin:round; stroke-width:2; stroke-opacity:0.1; fill:none" points="194.151,473.141 3121.26,473.141 "/>
<polyline clip-path="url(#clip272)" style="stroke:#000000; stroke-linecap:round; stroke-linejoin:round; stroke-width:2; stroke-opacity:0.1; fill:none" points="194.151,337.507 3121.26,337.507 "/>
<polyline clip-path="url(#clip272)" style="stroke:#000000; stroke-linecap:round; stroke-linejoin:round; stroke-width:2; stroke-opacity:0.1; fill:none" points="194.151,201.873 3121.26,201.873 "/>
<polyline clip-path="url(#clip270)" style="stroke:#000000; stroke-linecap:round; stroke-linejoin:round; stroke-width:4; stroke-opacity:1; fill:none" points="194.151,1031.59 194.151,78.7402 "/>
<polyline clip-path="url(#clip270)" style="stroke:#000000; stroke-linecap:round; stroke-linejoin:round; stroke-width:4; stroke-opacity:1; fill:none" points="194.151,1015.68 213.049,1015.68 "/>
<polyline clip-path="url(#clip270)" style="stroke:#000000; stroke-linecap:round; stroke-linejoin:round; stroke-width:4; stroke-opacity:1; fill:none" points="194.151,880.042 213.049,880.042 "/>
<polyline clip-path="url(#clip270)" style="stroke:#000000; stroke-linecap:round; stroke-linejoin:round; stroke-width:4; stroke-opacity:1; fill:none" points="194.151,744.408 213.049,744.408 "/>
<polyline clip-path="url(#clip270)" style="stroke:#000000; stroke-linecap:round; stroke-linejoin:round; stroke-width:4; stroke-opacity:1; fill:none" points="194.151,608.775 213.049,608.775 "/>
<polyline clip-path="url(#clip270)" style="stroke:#000000; stroke-linecap:round; stroke-linejoin:round; stroke-width:4; stroke-opacity:1; fill:none" points="194.151,473.141 213.049,473.141 "/>
<polyline clip-path="url(#clip270)" style="stroke:#000000; stroke-linecap:round; stroke-linejoin:round; stroke-width:4; stroke-opacity:1; fill:none" points="194.151,337.507 213.049,337.507 "/>
<polyline clip-path="url(#clip270)" style="stroke:#000000; stroke-linecap:round; stroke-linejoin:round; stroke-width:4; stroke-opacity:1; fill:none" points="194.151,201.873 213.049,201.873 "/>
<path clip-path="url(#clip270)" d="M134.207 1001.47 Q130.596 1001.47 128.767 1005.04 Q126.962 1008.58 126.962 1015.71 Q126.962 1022.82 128.767 1026.38 Q130.596 1029.92 134.207 1029.92 Q137.841 1029.92 139.647 1026.38 Q141.475 1022.82 141.475 1015.71 Q141.475 1008.58 139.647 1005.04 Q137.841 1001.47 134.207 1001.47 M134.207 997.771 Q140.017 997.771 143.073 1002.38 Q146.151 1006.96 146.151 1015.71 Q146.151 1024.44 143.073 1029.04 Q140.017 1033.63 134.207 1033.63 Q128.397 1033.63 125.318 1029.04 Q122.263 1024.44 122.263 1015.71 Q122.263 1006.96 125.318 1002.38 Q128.397 997.771 134.207 997.771 Z" fill="#000000" fill-rule="nonzero" fill-opacity="1" /><path clip-path="url(#clip270)" d="M126.244 893.387 L133.883 893.387 L133.883 867.022 L125.573 868.688 L125.573 864.429 L133.837 862.762 L138.512 862.762 L138.512 893.387 L146.151 893.387 L146.151 897.322 L126.244 897.322 L126.244 893.387 Z" fill="#000000" fill-rule="nonzero" fill-opacity="1" /><path clip-path="url(#clip270)" d="M129.832 757.753 L146.151 757.753 L146.151 761.688 L124.207 761.688 L124.207 757.753 Q126.869 754.999 131.452 750.369 Q136.059 745.716 137.239 744.374 Q139.485 741.851 140.364 740.115 Q141.267 738.355 141.267 736.665 Q141.267 733.911 139.323 732.175 Q137.401 730.439 134.299 730.439 Q132.1 730.439 129.647 731.203 Q127.216 731.966 124.438 733.517 L124.438 728.795 Q127.262 727.661 129.716 727.082 Q132.17 726.503 134.207 726.503 Q139.577 726.503 142.772 729.189 Q145.966 731.874 145.966 736.365 Q145.966 738.494 145.156 740.415 Q144.369 742.314 142.262 744.906 Q141.684 745.577 138.582 748.795 Q135.48 751.989 129.832 757.753 Z" fill="#000000" fill-rule="nonzero" fill-opacity="1" /><path clip-path="url(#clip270)" d="M139.022 607.42 Q142.378 608.138 144.253 610.407 Q146.151 612.675 146.151 616.008 Q146.151 621.124 142.633 623.925 Q139.114 626.726 132.633 626.726 Q130.457 626.726 128.142 626.286 Q125.85 625.869 123.397 625.013 L123.397 620.499 Q125.341 621.633 127.656 622.212 Q129.971 622.791 132.494 622.791 Q136.892 622.791 139.184 621.055 Q141.499 619.319 141.499 616.008 Q141.499 612.953 139.346 611.24 Q137.216 609.504 133.397 609.504 L129.369 609.504 L129.369 605.661 L133.582 605.661 Q137.031 605.661 138.86 604.296 Q140.688 602.907 140.688 600.314 Q140.688 597.652 138.79 596.24 Q136.915 594.805 133.397 594.805 Q131.475 594.805 129.276 595.221 Q127.077 595.638 124.438 596.518 L124.438 592.351 Q127.1 591.61 129.415 591.24 Q131.753 590.87 133.813 590.87 Q139.137 590.87 142.239 593.3 Q145.341 595.708 145.341 599.828 Q145.341 602.698 143.698 604.689 Q142.054 606.657 139.022 607.42 Z" fill="#000000" fill-rule="nonzero" fill-opacity="1" /><path clip-path="url(#clip270)" d="M136.568 459.935 L124.762 478.384 L136.568 478.384 L136.568 459.935 M135.341 455.861 L141.221 455.861 L141.221 478.384 L146.151 478.384 L146.151 482.273 L141.221 482.273 L141.221 490.421 L136.568 490.421 L136.568 482.273 L120.966 482.273 L120.966 477.759 L135.341 455.861 Z" fill="#000000" fill-rule="nonzero" fill-opacity="1" /><path clip-path="url(#clip270)" d="M125.249 320.227 L143.605 320.227 L143.605 324.162 L129.531 324.162 L129.531 332.634 Q130.55 332.287 131.568 332.125 Q132.587 331.94 133.605 331.94 Q139.392 331.94 142.772 335.111 Q146.151 338.282 146.151 343.699 Q146.151 349.278 142.679 352.38 Q139.207 355.458 132.887 355.458 Q130.712 355.458 128.443 355.088 Q126.198 354.718 123.79 353.977 L123.79 349.278 Q125.874 350.412 128.096 350.968 Q130.318 351.523 132.795 351.523 Q136.799 351.523 139.137 349.417 Q141.475 347.31 141.475 343.699 Q141.475 340.088 139.137 337.982 Q136.799 335.875 132.795 335.875 Q130.92 335.875 129.045 336.292 Q127.193 336.708 125.249 337.588 L125.249 320.227 Z" fill="#000000" fill-rule="nonzero" fill-opacity="1" /><path clip-path="url(#clip270)" d="M134.624 200.01 Q131.475 200.01 129.624 202.163 Q127.795 204.315 127.795 208.065 Q127.795 211.792 129.624 213.968 Q131.475 216.121 134.624 216.121 Q137.772 216.121 139.6 213.968 Q141.452 211.792 141.452 208.065 Q141.452 204.315 139.6 202.163 Q137.772 200.01 134.624 200.01 M143.906 185.357 L143.906 189.616 Q142.147 188.783 140.341 188.343 Q138.559 187.903 136.799 187.903 Q132.17 187.903 129.716 191.028 Q127.286 194.153 126.938 200.473 Q128.304 198.459 130.364 197.394 Q132.424 196.306 134.901 196.306 Q140.11 196.306 143.119 199.477 Q146.151 202.625 146.151 208.065 Q146.151 213.389 143.003 216.607 Q139.855 219.824 134.624 219.824 Q128.628 219.824 125.457 215.241 Q122.286 210.635 122.286 201.908 Q122.286 193.713 126.175 188.852 Q130.063 183.968 136.614 183.968 Q138.374 183.968 140.156 184.315 Q141.961 184.663 143.906 185.357 Z" fill="#000000" fill-rule="nonzero" fill-opacity="1" /><path clip-path="url(#clip270)" d="M36.4302 883.24 Q37.1305 881.171 39.4221 879.229 Q41.7138 877.256 45.7242 875.282 L58.7102 868.758 L58.7102 875.664 L46.5199 881.744 Q41.7456 884.099 40.186 886.327 Q38.6264 888.523 38.6264 892.343 L38.6264 899.345 L58.7102 899.345 L58.7102 905.774 L11.1902 905.774 L11.1902 891.26 Q11.1902 883.112 14.5959 879.102 Q18.0015 875.091 24.8765 875.091 Q29.3643 875.091 32.3244 877.192 Q35.2844 879.261 36.4302 883.24 M16.4738 899.345 L33.3429 899.345 L33.3429 891.26 Q33.3429 886.613 31.2104 884.258 Q29.046 881.871 24.8765 881.871 Q20.707 881.871 18.6063 884.258 Q16.4738 886.613 16.4738 891.26 L16.4738 899.345 Z" fill="#000000" fill-rule="nonzero" fill-opacity="1" /><path clip-path="url(#clip270)" d="M39.4221 833.173 L42.2867 833.173 L42.2867 860.1 Q48.3341 859.718 51.517 856.472 Q54.668 853.193 54.668 847.369 Q54.668 843.995 53.8405 840.844 Q53.0129 837.661 51.3578 834.542 L56.896 834.542 Q58.2328 837.693 58.933 841.003 Q59.6332 844.313 59.6332 847.719 Q59.6332 856.249 54.668 861.246 Q49.7027 866.211 41.2364 866.211 Q32.4835 866.211 27.3591 861.501 Q22.2029 856.758 22.2029 848.737 Q22.2029 841.544 26.8499 837.375 Q31.465 833.173 39.4221 833.173 M37.7034 839.03 Q32.8973 839.093 30.0327 841.735 Q27.1681 844.345 27.1681 848.674 Q27.1681 853.575 29.9372 856.535 Q32.7063 859.464 37.7352 859.909 L37.7034 839.03 Z" fill="#000000" fill-rule="nonzero" fill-opacity="1" /><path clip-path="url(#clip270)" d="M53.363 817.896 L72.2692 817.896 L72.2692 823.784 L23.0623 823.784 L23.0623 817.896 L28.4731 817.896 Q25.2903 816.05 23.7625 813.249 Q22.2029 810.416 22.2029 806.501 Q22.2029 800.008 27.3591 795.966 Q32.5153 791.892 40.9181 791.892 Q49.3208 791.892 54.477 795.966 Q59.6332 800.008 59.6332 806.501 Q59.6332 810.416 58.1055 813.249 Q56.5459 816.05 53.363 817.896 M40.9181 797.971 Q34.4569 797.971 30.7966 800.645 Q27.1045 803.286 27.1045 807.933 Q27.1045 812.58 30.7966 815.254 Q34.4569 817.896 40.9181 817.896 Q47.3793 817.896 51.0714 815.254 Q54.7317 812.58 54.7317 807.933 Q54.7317 803.286 51.0714 800.645 Q47.3793 797.971 40.9181 797.971 Z" fill="#000000" fill-rule="nonzero" fill-opacity="1" /><path clip-path="url(#clip270)" d="M28.5368 761.527 Q27.9639 762.514 27.7092 763.692 Q27.4228 764.837 27.4228 766.238 Q27.4228 771.203 30.6693 773.877 Q33.884 776.519 39.9314 776.519 L58.7102 776.519 L58.7102 782.407 L23.0623 782.407 L23.0623 776.519 L28.6004 776.519 Q25.3539 774.672 23.7943 771.712 Q22.2029 768.752 22.2029 764.519 Q22.2029 763.914 22.2984 763.182 Q22.362 762.45 22.5212 761.559 L28.5368 761.527 Z" fill="#000000" fill-rule="nonzero" fill-opacity="1" /><path clip-path="url(#clip270)" d="M27.1681 743.003 Q27.1681 747.714 30.8603 750.451 Q34.5205 753.188 40.9181 753.188 Q47.3156 753.188 51.0077 750.483 Q54.668 747.746 54.668 743.003 Q54.668 738.324 50.9759 735.587 Q47.2838 732.85 40.9181 732.85 Q34.5842 732.85 30.8921 735.587 Q27.1681 738.324 27.1681 743.003 M22.2029 743.003 Q22.2029 735.364 27.1681 731.004 Q32.1334 726.643 40.9181 726.643 Q49.6709 726.643 54.668 731.004 Q59.6332 735.364 59.6332 743.003 Q59.6332 750.674 54.668 755.034 Q49.6709 759.363 40.9181 759.363 Q32.1334 759.363 27.1681 755.034 Q22.2029 750.674 22.2029 743.003 Z" fill="#000000" fill-rule="nonzero" fill-opacity="1" /><path clip-path="url(#clip270)" d="M28.4731 693.478 L9.18502 693.478 L9.18502 687.621 L58.7102 687.621 L58.7102 693.478 L53.363 693.478 Q56.5459 695.324 58.1055 698.157 Q59.6332 700.958 59.6332 704.904 Q59.6332 711.365 54.477 715.44 Q49.3208 719.482 40.9181 719.482 Q32.5153 719.482 27.3591 715.44 Q22.2029 711.365 22.2029 704.904 Q22.2029 700.958 23.7625 698.157 Q25.2903 695.324 28.4731 693.478 M40.9181 713.434 Q47.3793 713.434 51.0714 710.793 Q54.7317 708.119 54.7317 703.472 Q54.7317 698.825 51.0714 696.151 Q47.3793 693.478 40.9181 693.478 Q34.4569 693.478 30.7966 696.151 Q27.1045 698.825 27.1045 703.472 Q27.1045 708.119 30.7966 710.793 Q34.4569 713.434 40.9181 713.434 Z" fill="#000000" fill-rule="nonzero" fill-opacity="1" /><path clip-path="url(#clip270)" d="M44.642 676.163 L23.0623 676.163 L23.0623 670.307 L44.4192 670.307 Q49.4799 670.307 52.0262 668.333 Q54.5407 666.36 54.5407 662.413 Q54.5407 657.671 51.517 654.934 Q48.4933 652.164 43.2734 652.164 L23.0623 652.164 L23.0623 646.308 L58.7102 646.308 L58.7102 652.164 L53.2357 652.164 Q56.4822 654.297 58.0736 657.13 Q59.6332 659.931 59.6332 663.655 Q59.6332 669.797 55.8138 672.98 Q51.9944 676.163 44.642 676.163 M22.2029 661.427 L22.2029 661.427 Z" fill="#000000" fill-rule="nonzero" fill-opacity="1" /><path clip-path="url(#clip270)" d="M24.4309 608.591 L29.9054 608.591 Q28.5368 611.074 27.8684 613.588 Q27.1681 616.071 27.1681 618.617 Q27.1681 624.314 30.7966 627.465 Q34.3932 630.617 40.9181 630.617 Q47.4429 630.617 51.0714 627.465 Q54.668 624.314 54.668 618.617 Q54.668 616.071 53.9996 613.588 Q53.2994 611.074 51.9307 608.591 L57.3416 608.591 Q58.4874 611.042 59.0603 613.684 Q59.6332 616.294 59.6332 619.254 Q59.6332 627.306 54.5725 632.049 Q49.5118 636.791 40.9181 636.791 Q32.1971 636.791 27.2 632.017 Q22.2029 627.211 22.2029 618.872 Q22.2029 616.166 22.7758 613.588 Q23.3169 611.01 24.4309 608.591 Z" fill="#000000" fill-rule="nonzero" fill-opacity="1" /><path clip-path="url(#clip270)" d="M12.9408 592.613 L23.0623 592.613 L23.0623 580.55 L27.6137 580.55 L27.6137 592.613 L46.9655 592.613 Q51.326 592.613 52.5673 591.436 Q53.8086 590.226 53.8086 586.566 L53.8086 580.55 L58.7102 580.55 L58.7102 586.566 Q58.7102 593.345 56.1958 595.923 Q53.6495 598.502 46.9655 598.502 L27.6137 598.502 L27.6137 602.798 L23.0623 602.798 L23.0623 598.502 L12.9408 598.502 L12.9408 592.613 Z" fill="#000000" fill-rule="nonzero" fill-opacity="1" /><path clip-path="url(#clip270)" d="M23.0623 572.848 L23.0623 566.991 L58.7102 566.991 L58.7102 572.848 L23.0623 572.848 M9.18502 572.848 L9.18502 566.991 L16.6011 566.991 L16.6011 572.848 L9.18502 572.848 Z" fill="#000000" fill-rule="nonzero" fill-opacity="1" /><path clip-path="url(#clip270)" d="M27.1681 540.924 Q27.1681 545.634 30.8603 548.372 Q34.5205 551.109 40.9181 551.109 Q47.3156 551.109 51.0077 548.403 Q54.668 545.666 54.668 540.924 Q54.668 536.245 50.9759 533.508 Q47.2838 530.77 40.9181 530.77 Q34.5842 530.77 30.8921 533.508 Q27.1681 536.245 27.1681 540.924 M22.2029 540.924 Q22.2029 533.285 27.1681 528.924 Q32.1334 524.564 40.9181 524.564 Q49.6709 524.564 54.668 528.924 Q59.6332 533.285 59.6332 540.924 Q59.6332 548.594 54.668 552.955 Q49.6709 557.284 40.9181 557.284 Q32.1334 557.284 27.1681 552.955 Q22.2029 548.594 22.2029 540.924 Z" fill="#000000" fill-rule="nonzero" fill-opacity="1" /><path clip-path="url(#clip270)" d="M37.1941 485.224 L58.7102 485.224 L58.7102 491.08 L37.3851 491.08 Q32.3244 491.08 29.8099 493.054 Q27.2955 495.027 27.2955 498.974 Q27.2955 503.716 30.3192 506.453 Q33.3429 509.191 38.5628 509.191 L58.7102 509.191 L58.7102 515.079 L23.0623 515.079 L23.0623 509.191 L28.6004 509.191 Q25.3857 507.09 23.7943 504.257 Q22.2029 501.393 22.2029 497.669 Q22.2029 491.526 26.0223 488.375 Q29.8099 485.224 37.1941 485.224 Z" fill="#000000" fill-rule="nonzero" fill-opacity="1" /><path clip-path="url(#clip270)" d="M37.1941 423.19 L58.7102 423.19 L58.7102 429.046 L37.3851 429.046 Q32.3244 429.046 29.8099 431.02 Q27.2955 432.993 27.2955 436.94 Q27.2955 441.682 30.3192 444.42 Q33.3429 447.157 38.5628 447.157 L58.7102 447.157 L58.7102 453.045 L23.0623 453.045 L23.0623 447.157 L28.6004 447.157 Q25.3857 445.056 23.7943 442.223 Q22.2029 439.359 22.2029 435.635 Q22.2029 429.492 26.0223 426.341 Q29.8099 423.19 37.1941 423.19 Z" fill="#000000" fill-rule="nonzero" fill-opacity="1" /><path clip-path="url(#clip270)" d="M44.642 412.114 L23.0623 412.114 L23.0623 406.257 L44.4192 406.257 Q49.4799 406.257 52.0262 404.284 Q54.5407 402.31 54.5407 398.364 Q54.5407 393.621 51.517 390.884 Q48.4933 388.115 43.2734 388.115 L23.0623 388.115 L23.0623 382.258 L58.7102 382.258 L58.7102 388.115 L53.2357 388.115 Q56.4822 390.247 58.0736 393.08 Q59.6332 395.881 59.6332 399.605 Q59.6332 405.748 55.8138 408.931 Q51.9944 412.114 44.642 412.114 M22.2029 397.377 L22.2029 397.377 Z" fill="#000000" fill-rule="nonzero" fill-opacity="1" /><path clip-path="url(#clip270)" d="M29.9054 342.441 Q25.9587 340.245 24.0808 337.189 Q22.2029 334.134 22.2029 329.996 Q22.2029 324.426 26.1178 321.402 Q30.0009 318.379 37.1941 318.379 L58.7102 318.379 L58.7102 324.267 L37.3851 324.267 Q32.2607 324.267 29.7781 326.081 Q27.2955 327.895 27.2955 331.619 Q27.2955 336.171 30.3192 338.813 Q33.3429 341.454 38.5628 341.454 L58.7102 341.454 L58.7102 347.343 L37.3851 347.343 Q32.2289 347.343 29.7781 349.157 Q27.2955 350.971 27.2955 354.759 Q27.2955 359.246 30.351 361.888 Q33.3747 364.53 38.5628 364.53 L58.7102 364.53 L58.7102 370.418 L23.0623 370.418 L23.0623 364.53 L28.6004 364.53 Q25.3221 362.525 23.7625 359.724 Q22.2029 356.923 22.2029 353.072 Q22.2029 349.189 24.1763 346.483 Q26.1496 343.746 29.9054 342.441 Z" fill="#000000" fill-rule="nonzero" fill-opacity="1" /><path clip-path="url(#clip270)" d="M40.9181 281.107 Q34.4569 281.107 30.7966 283.781 Q27.1045 286.423 27.1045 291.07 Q27.1045 295.717 30.7966 298.39 Q34.4569 301.032 40.9181 301.032 Q47.3793 301.032 51.0714 298.39 Q54.7317 295.717 54.7317 291.07 Q54.7317 286.423 51.0714 283.781 Q47.3793 281.107 40.9181 281.107 M28.4731 301.032 Q25.2903 299.186 23.7625 296.385 Q22.2029 293.552 22.2029 289.637 Q22.2029 283.144 27.3591 279.102 Q32.5153 275.028 40.9181 275.028 Q49.3208 275.028 54.477 279.102 Q59.6332 283.144 59.6332 289.637 Q59.6332 293.552 58.1055 296.385 Q56.5459 299.186 53.363 301.032 L58.7102 301.032 L58.7102 306.92 L9.18502 306.92 L9.18502 301.032 L28.4731 301.032 Z" fill="#000000" fill-rule="nonzero" fill-opacity="1" /><path clip-path="url(#clip270)" d="M39.4221 234.829 L42.2867 234.829 L42.2867 261.756 Q48.3341 261.374 51.517 258.127 Q54.668 254.849 54.668 249.024 Q54.668 245.65 53.8405 242.499 Q53.0129 239.317 51.3578 236.197 L56.896 236.197 Q58.2328 239.348 58.933 242.659 Q59.6332 245.969 59.6332 249.374 Q59.6332 257.904 54.668 262.901 Q49.7027 267.867 41.2364 267.867 Q32.4835 267.867 27.3591 263.156 Q22.2029 258.414 22.2029 250.393 Q22.2029 243.2 26.8499 239.03 Q31.465 234.829 39.4221 234.829 M37.7034 240.685 Q32.8973 240.749 30.0327 243.391 Q27.1681 246.001 27.1681 250.329 Q27.1681 255.231 29.9372 258.191 Q32.7063 261.119 37.7352 261.565 L37.7034 240.685 Z" fill="#000000" fill-rule="nonzero" fill-opacity="1" /><path clip-path="url(#clip270)" d="M28.5368 204.56 Q27.9639 205.546 27.7092 206.724 Q27.4228 207.87 27.4228 209.27 Q27.4228 214.236 30.6693 216.909 Q33.884 219.551 39.9314 219.551 L58.7102 219.551 L58.7102 225.439 L23.0623 225.439 L23.0623 219.551 L28.6004 219.551 Q25.3539 217.705 23.7943 214.745 Q22.2029 211.785 22.2029 207.552 Q22.2029 206.947 22.2984 206.215 Q22.362 205.483 22.5212 204.592 L28.5368 204.56 Z" fill="#000000" fill-rule="nonzero" fill-opacity="1" /><path clip-path="url(#clip272)" d="M276.994 901.736 L304.887 886.95 L332.78 847.328 L360.673 836.379 L388.567 828.109 L416.46 837.104 L444.353 811.041 L472.246 820.181 L500.139 852.656 L528.032 856.204 L555.926 844.757 L583.819 857.913 L611.712 856.515 L639.605 817.019 L667.498 771.773 L695.391 753.829 L723.285 724.01 L751.178 700.287 L779.071 615.559 L806.964 553.23 L834.857 533.292 L862.75 525.318 L890.644 547.513 L918.537 552.803 L946.43 534.516 L974.323 515.129 L1002.22 572.308 L1030.11 592.043 L1058 577.82 L1085.9 682.934 L1113.79 777.641 L1141.68 812.867 L1169.58 844.169 L1197.47 881.834 L1225.36 869.583 L1253.25 870.188 L1281.15 873.435 L1309.04 879.147 L1336.93 887.354 L1364.83 912.67 L1392.72 928.735 L1420.61 950.088 L1448.51 956.591 L1476.4 955.28 L1504.29 964.009 L1532.19 968.706 L1560.08 975.344 L1587.97 978.71 L1615.87 976.083 L1643.76 976.303 L1671.65 976.592 L1699.55 976.94 L1727.44 978.085 L1755.33 979.848 L1783.22 984.093 L1811.12 982.446 L1839.01 983.442 L1866.9 982.634 L1894.8 979.451 L1922.69 981.138 L1950.58 982.675 L1978.48 982.126 L2006.37 984.401 L2034.26 984.057 L2062.16 981.937 L2090.05 977.957 L2117.94 983.076 L2145.84 984.426 L2173.73 982.84 L2201.62 982.503 L2229.52 980.871 L2257.41 982.921 L2285.3 982.258 L2313.19 982.93 L2341.09 983.551 L2368.98 985.789 L2396.87 987.002 L2424.77 987.299 L2452.66 990.791 L2480.55 991.512 L2508.45 992.657 L2536.34 994.522 L2564.23 993.712 L2592.13 995.791 L2620.02 996.523 L2647.91 997.583 L2675.81 998.781 L2703.7 999.064 L2731.59 999.902 L2759.49 1000.22 L2787.38 1000.8 L2815.27 1000.76 L2843.17 1001.9 L2871.06 1002.29 L2898.95 1002.27 L2926.84 1003.2 L2954.74 1003.78 L2982.63 1004.19 L3010.52 1004.36 L3038.42 1004.63 L3038.42 861.011 L3010.52 865.044 L2982.63 871.345 L2954.74 874.917 L2926.84 878.447 L2898.95 881.232 L2871.06 886.399 L2843.17 889.172 L2815.27 889.002 L2787.38 895.886 L2759.49 898.103 L2731.59 904.34 L2703.7 909.046 L2675.81 908.925 L2647.91 909.429 L2620.02 922.127 L2592.13 921.052 L2564.23 922.412 L2536.34 923.286 L2508.45 924.428 L2480.55 923.754 L2452.66 922.729 L2424.77 927.527 L2396.87 923.318 L2368.98 927.381 L2341.09 919.923 L2313.19 921.704 L2285.3 918.965 L2257.41 921.261 L2229.52 922.124 L2201.62 930.917 L2173.73 934.131 L2145.84 931.017 L2117.94 928.177 L2090.05 923.042 L2062.16 926.853 L2034.26 934.478 L2006.37 939.689 L1978.48 941.749 L1950.58 941.323 L1922.69 940.367 L1894.8 940.493 L1866.9 941.918 L1839.01 950.527 L1811.12 949.204 L1783.22 950.939 L1755.33 949.038 L1727.44 946.206 L1699.55 946.037 L1671.65 947.058 L1643.76 953.761 L1615.87 951.746 L1587.97 950.782 L1560.08 946.407 L1532.19 940.563 L1504.29 934.872 L1476.4 921.778 L1448.51 930.193 L1420.61 918.642 L1392.72 888.766 L1364.83 861.543 L1336.93 840.92 L1309.04 822.328 L1281.15 816.136 L1253.25 822.326 L1225.36 811.76 L1197.47 821.544 L1169.58 767.087 L1141.68 728.59 L1113.79 660.414 L1085.9 557.323 L1058 414.561 L1030.11 343.674 L1002.22 296.286 L974.323 181.109 L946.43 226.93 L918.537 286.285 L890.644 160.408 L862.75 209.621 L834.857 105.708 L806.964 240.687 L779.071 393.352 L751.178 268.336 L723.285 384.952 L695.391 510.126 L667.498 425.3 L639.605 447.227 L611.712 486.755 L583.819 618.276 L555.926 550.192 L528.032 485.612 L500.139 359.193 L472.246 425.591 L444.353 369.689 L416.46 365.356 L388.567 320.989 L360.673 397.654 L332.78 426.269 L304.887 321.655 L276.994 231.497  Z" fill="#006400" fill-rule="evenodd" fill-opacity="0.5"/>
<polyline clip-path="url(#clip272)" style="stroke:#006400; stroke-linecap:round; stroke-linejoin:round; stroke-width:4; stroke-opacity:1; fill:none" points="276.994,637.619 304.887,639.116 332.78,648.232 360.673,655.008 388.567,632.038 416.46,626.999 444.353,636.261 472.246,650.595 500.139,641.797 528.032,680.314 555.926,715.545 583.819,730.98 611.712,729.365 639.605,708.573 667.498,673.081 695.391,648.549 723.285,603.413 751.178,550.23 779.071,494.35 806.964,386.801 834.857,337.289 862.75,385.975 890.644,382.923 918.537,427.19 946.43,396.509 974.323,359.373 1002.22,438.425 1030.11,477.542 1058,495.533 1085.9,621.781 1113.79,716.62 1141.68,773.447 1169.58,810.133 1197.47,853.149 1225.36,842.431 1253.25,848.79 1281.15,843.73 1309.04,855.942 1336.93,866.648 1364.83,884.996 1392.72,912.206 1420.61,934.021 1448.51,943.858 1476.4,939.746 1504.29,949.886 1532.19,955.267 1560.08,961.439 1587.97,966.287 1615.87,965.16 1643.76,965.02 1671.65,961.647 1699.55,962.533 1727.44,963.669 1755.33,965.395 1783.22,968.913 1811.12,968.541 1839.01,967.827 1866.9,965.64 1894.8,962.889 1922.69,962.095 1950.58,964.521 1978.48,964.628 2006.37,964.073 2034.26,962.61 2062.16,960.471 2090.05,958.046 2117.94,960.286 2145.84,961.541 2173.73,961.577 2201.62,959.655 2229.52,958.852 2257.41,958.098 2285.3,957.291 2313.19,957.737 2341.09,957.666 2368.98,960.825 2396.87,962.606 2424.77,963.861 2452.66,963.794 2480.55,964.742 2508.45,965.728 2536.34,966.273 2564.23,966.488 2592.13,966.556 2620.02,967.509 2647.91,966.929 2675.81,966.478 2703.7,966.702 2731.59,966.717 2759.49,966.652 2787.38,966.602 2815.27,966.607 2843.17,966.751 2871.06,966.377 2898.95,965.697 2926.84,965.069 2954.74,964.85 2982.63,964.131 3010.52,963.754 3038.42,963.287 "/>
<polyline clip-path="url(#clip272)" style="stroke:#000000; stroke-linecap:round; stroke-linejoin:round; stroke-width:4; stroke-opacity:1; fill:none" points="-2732.96,880.042 6048.37,880.042 "/>
</svg>
