<?xml version="1.0" encoding="utf-8"?>
<svg xmlns="http://www.w3.org/2000/svg" xmlns:xlink="http://www.w3.org/1999/xlink" width="800" height="400" viewBox="0 0 3200 1600">
<defs>
  <clipPath id="clip210">
    <rect x="0" y="0" width="3200" height="1600"/>
  </clipPath>
</defs>
<path clip-path="url(#clip210)" d="M0 1600 L3200 1600 L3200 0 L0 0  Z" fill="#ffffff" fill-rule="evenodd" fill-opacity="1"/>
<defs>
  <clipPath id="clip211">
    <rect x="640" y="0" width="2241" height="1600"/>
  </clipPath>
</defs>
<path clip-path="url(#clip210)" d="M275.075 1412.2 L3121.26 1412.2 L3121.26 78.7402 L275.075 78.7402  Z" fill="#ffffff" fill-rule="evenodd" fill-opacity="1"/>
<defs>
  <clipPath id="clip212">
    <rect x="275" y="78" width="2847" height="1334"/>
  </clipPath>
</defs>
<polyline clip-path="url(#clip212)" style="stroke:#000000; stroke-linecap:round; stroke-linejoin:round; stroke-width:2; stroke-opacity:0.1; fill:none" points="464.115,1412.2 464.115,78.7402 "/>
<polyline clip-path="url(#clip212)" style="stroke:#000000; stroke-linecap:round; stroke-linejoin:round; stroke-width:2; stroke-opacity:0.1; fill:none" points="1304.9,1412.2 1304.9,78.7402 "/>
<polyline clip-path="url(#clip212)" style="stroke:#000000; stroke-linecap:round; stroke-linejoin:round; stroke-width:2; stroke-opacity:0.1; fill:none" points="2118.56,1412.2 2118.56,78.7402 "/>
<polyline clip-path="url(#clip212)" style="stroke:#000000; stroke-linecap:round; stroke-linejoin:round; stroke-width:2; stroke-opacity:0.1; fill:none" points="2959.34,1412.2 2959.34,78.7402 "/>
<polyline clip-path="url(#clip210)" style="stroke:#000000; stroke-linecap:round; stroke-linejoin:round; stroke-width:4; stroke-opacity:1; fill:none" points="275.075,1412.2 3121.26,1412.2 "/>
<polyline clip-path="url(#clip210)" style="stroke:#000000; stroke-linecap:round; stroke-linejoin:round; stroke-width:4; stroke-opacity:1; fill:none" points="464.115,1412.2 464.115,1393.31 "/>
<polyline clip-path="url(#clip210)" style="stroke:#000000; stroke-linecap:round; stroke-linejoin:round; stroke-width:4; stroke-opacity:1; fill:none" points="1304.9,1412.2 1304.9,1393.31 "/>
<polyline clip-path="url(#clip210)" style="stroke:#000000; stroke-linecap:round; stroke-linejoin:round; stroke-width:4; stroke-opacity:1; fill:none" points="2118.56,1412.2 2118.56,1393.31 "/>
<polyline clip-path="url(#clip210)" style="stroke:#000000; stroke-linecap:round; stroke-linejoin:round; stroke-width:4; stroke-opacity:1; fill:none" points="2959.34,1412.2 2959.34,1393.31 "/>
<path clip-path="url(#clip210)" d="M335.91 1477.07 L352.229 1477.07 L352.229 1481 L330.285 1481 L330.285 1477.07 Q332.947 1474.31 337.53 1469.68 Q342.137 1465.03 343.317 1463.69 Q345.563 1461.17 346.442 1459.43 Q347.345 1457.67 347.345 1455.98 Q347.345 1453.23 345.401 1451.49 Q343.479 1449.75 340.378 1449.75 Q338.178 1449.75 335.725 1450.52 Q333.294 1451.28 330.516 1452.83 L330.516 1448.11 Q333.341 1446.98 335.794 1446.4 Q338.248 1445.82 340.285 1445.82 Q345.655 1445.82 348.85 1448.5 Q352.044 1451.19 352.044 1455.68 Q352.044 1457.81 351.234 1459.73 Q350.447 1461.63 348.34 1464.22 Q347.762 1464.89 344.66 1468.11 Q341.558 1471.3 335.91 1477.07 Z" fill="#000000" fill-rule="nonzero" fill-opacity="1" /><path clip-path="url(#clip210)" d="M372.044 1449.52 Q368.433 1449.52 366.604 1453.09 Q364.799 1456.63 364.799 1463.76 Q364.799 1470.86 366.604 1474.43 Q368.433 1477.97 372.044 1477.97 Q375.678 1477.97 377.484 1474.43 Q379.312 1470.86 379.312 1463.76 Q379.312 1456.63 377.484 1453.09 Q375.678 1449.52 372.044 1449.52 M372.044 1445.82 Q377.854 1445.82 380.91 1450.43 Q383.988 1455.01 383.988 1463.76 Q383.988 1472.49 380.91 1477.09 Q377.854 1481.68 372.044 1481.68 Q366.234 1481.68 363.155 1477.09 Q360.1 1472.49 360.1 1463.76 Q360.1 1455.01 363.155 1450.43 Q366.234 1445.82 372.044 1445.82 Z" fill="#000000" fill-rule="nonzero" fill-opacity="1" /><path clip-path="url(#clip210)" d="M396.234 1477.07 L412.553 1477.07 L412.553 1481 L390.609 1481 L390.609 1477.07 Q393.271 1474.31 397.854 1469.68 Q402.461 1465.03 403.641 1463.69 Q405.886 1461.17 406.766 1459.43 Q407.669 1457.67 407.669 1455.98 Q407.669 1453.23 405.724 1451.49 Q403.803 1449.75 400.701 1449.75 Q398.502 1449.75 396.049 1450.52 Q393.618 1451.28 390.84 1452.83 L390.84 1448.11 Q393.664 1446.98 396.118 1446.4 Q398.572 1445.82 400.609 1445.82 Q405.979 1445.82 409.173 1448.5 Q412.368 1451.19 412.368 1455.68 Q412.368 1457.81 411.558 1459.73 Q410.771 1461.63 408.664 1464.22 Q408.085 1464.89 404.984 1468.11 Q401.882 1471.3 396.234 1477.07 Z" fill="#000000" fill-rule="nonzero" fill-opacity="1" /><path clip-path="url(#clip210)" d="M432.368 1449.52 Q428.757 1449.52 426.928 1453.09 Q425.122 1456.63 425.122 1463.76 Q425.122 1470.86 426.928 1474.43 Q428.757 1477.97 432.368 1477.97 Q436.002 1477.97 437.808 1474.43 Q439.636 1470.86 439.636 1463.76 Q439.636 1456.63 437.808 1453.09 Q436.002 1449.52 432.368 1449.52 M432.368 1445.82 Q438.178 1445.82 441.233 1450.43 Q444.312 1455.01 444.312 1463.76 Q444.312 1472.49 441.233 1477.09 Q438.178 1481.68 432.368 1481.68 Q426.558 1481.68 423.479 1477.09 Q420.423 1472.49 420.423 1463.76 Q420.423 1455.01 423.479 1450.43 Q426.558 1445.82 432.368 1445.82 Z" fill="#000000" fill-rule="nonzero" fill-opacity="1" /><path clip-path="url(#clip210)" d="M449.775 1466.12 L462.252 1466.12 L462.252 1469.92 L449.775 1469.92 L449.775 1466.12 Z" fill="#000000" fill-rule="nonzero" fill-opacity="1" /><path clip-path="url(#clip210)" d="M479.636 1449.52 Q476.025 1449.52 474.196 1453.09 Q472.391 1456.63 472.391 1463.76 Q472.391 1470.86 474.196 1474.43 Q476.025 1477.97 479.636 1477.97 Q483.27 1477.97 485.076 1474.43 Q486.905 1470.86 486.905 1463.76 Q486.905 1456.63 485.076 1453.09 Q483.27 1449.52 479.636 1449.52 M479.636 1445.82 Q485.446 1445.82 488.502 1450.43 Q491.58 1455.01 491.58 1463.76 Q491.58 1472.49 488.502 1477.09 Q485.446 1481.68 479.636 1481.68 Q473.826 1481.68 470.747 1477.09 Q467.692 1472.49 467.692 1463.76 Q467.692 1455.01 470.747 1450.43 Q473.826 1445.82 479.636 1445.82 Z" fill="#000000" fill-rule="nonzero" fill-opacity="1" /><path clip-path="url(#clip210)" d="M513.965 1462.37 Q517.321 1463.09 519.196 1465.36 Q521.094 1467.62 521.094 1470.96 Q521.094 1476.07 517.576 1478.87 Q514.057 1481.68 507.576 1481.68 Q505.4 1481.68 503.085 1481.24 Q500.793 1480.82 498.34 1479.96 L498.34 1475.45 Q500.284 1476.58 502.599 1477.16 Q504.914 1477.74 507.437 1477.74 Q511.835 1477.74 514.127 1476 Q516.441 1474.27 516.441 1470.96 Q516.441 1467.9 514.289 1466.19 Q512.159 1464.45 508.34 1464.45 L504.312 1464.45 L504.312 1460.61 L508.525 1460.61 Q511.974 1460.61 513.803 1459.24 Q515.631 1457.86 515.631 1455.26 Q515.631 1452.6 513.733 1451.19 Q511.858 1449.75 508.34 1449.75 Q506.418 1449.75 504.219 1450.17 Q502.02 1450.59 499.381 1451.47 L499.381 1447.3 Q502.043 1446.56 504.358 1446.19 Q506.696 1445.82 508.756 1445.82 Q514.08 1445.82 517.182 1448.25 Q520.284 1450.66 520.284 1454.78 Q520.284 1457.65 518.64 1459.64 Q516.997 1461.61 513.965 1462.37 Z" fill="#000000" fill-rule="nonzero" fill-opacity="1" /><path clip-path="url(#clip210)" d="M527.205 1466.12 L539.682 1466.12 L539.682 1469.92 L527.205 1469.92 L527.205 1466.12 Z" fill="#000000" fill-rule="nonzero" fill-opacity="1" /><path clip-path="url(#clip210)" d="M557.066 1449.52 Q553.455 1449.52 551.626 1453.09 Q549.821 1456.63 549.821 1463.76 Q549.821 1470.86 551.626 1474.43 Q553.455 1477.97 557.066 1477.97 Q560.7 1477.97 562.506 1474.43 Q564.335 1470.86 564.335 1463.76 Q564.335 1456.63 562.506 1453.09 Q560.7 1449.52 557.066 1449.52 M557.066 1445.82 Q562.876 1445.82 565.932 1450.43 Q569.011 1455.01 569.011 1463.76 Q569.011 1472.49 565.932 1477.09 Q562.876 1481.68 557.066 1481.68 Q551.256 1481.68 548.177 1477.09 Q545.122 1472.49 545.122 1463.76 Q545.122 1455.01 548.177 1450.43 Q551.256 1445.82 557.066 1445.82 Z" fill="#000000" fill-rule="nonzero" fill-opacity="1" /><path clip-path="url(#clip210)" d="M578.038 1477.07 L585.677 1477.07 L585.677 1450.7 L577.367 1452.37 L577.367 1448.11 L585.631 1446.44 L590.307 1446.44 L590.307 1477.07 L597.946 1477.07 L597.946 1481 L578.038 1481 L578.038 1477.07 Z" fill="#000000" fill-rule="nonzero" fill-opacity="1" /><path clip-path="url(#clip210)" d="M1176.69 1477.07 L1193.01 1477.07 L1193.01 1481 L1171.07 1481 L1171.07 1477.07 Q1173.73 1474.31 1178.31 1469.68 Q1182.92 1465.03 1184.1 1463.69 Q1186.35 1461.17 1187.22 1459.43 Q1188.13 1457.67 1188.13 1455.98 Q1188.13 1453.23 1186.18 1451.49 Q1184.26 1449.75 1181.16 1449.75 Q1178.96 1449.75 1176.51 1450.52 Q1174.08 1451.28 1171.3 1452.83 L1171.3 1448.11 Q1174.12 1446.98 1176.58 1446.4 Q1179.03 1445.82 1181.07 1445.82 Q1186.44 1445.82 1189.63 1448.5 Q1192.83 1451.19 1192.83 1455.68 Q1192.83 1457.81 1192.02 1459.73 Q1191.23 1461.63 1189.12 1464.22 Q1188.54 1464.89 1185.44 1468.11 Q1182.34 1471.3 1176.69 1477.07 Z" fill="#000000" fill-rule="nonzero" fill-opacity="1" /><path clip-path="url(#clip210)" d="M1212.83 1449.52 Q1209.22 1449.52 1207.39 1453.09 Q1205.58 1456.63 1205.58 1463.76 Q1205.58 1470.86 1207.39 1474.43 Q1209.22 1477.97 1212.83 1477.97 Q1216.46 1477.97 1218.27 1474.43 Q1220.1 1470.86 1220.1 1463.76 Q1220.1 1456.63 1218.27 1453.09 Q1216.46 1449.52 1212.83 1449.52 M1212.83 1445.82 Q1218.64 1445.82 1221.69 1450.43 Q1224.77 1455.01 1224.77 1463.76 Q1224.77 1472.49 1221.69 1477.09 Q1218.64 1481.68 1212.83 1481.68 Q1207.02 1481.68 1203.94 1477.09 Q1200.88 1472.49 1200.88 1463.76 Q1200.88 1455.01 1203.94 1450.43 Q1207.02 1445.82 1212.83 1445.82 Z" fill="#000000" fill-rule="nonzero" fill-opacity="1" /><path clip-path="url(#clip210)" d="M1237.02 1477.07 L1253.34 1477.07 L1253.34 1481 L1231.39 1481 L1231.39 1477.07 Q1234.05 1474.31 1238.64 1469.68 Q1243.24 1465.03 1244.42 1463.69 Q1246.67 1461.17 1247.55 1459.43 Q1248.45 1457.67 1248.45 1455.98 Q1248.45 1453.23 1246.51 1451.49 Q1244.59 1449.75 1241.48 1449.75 Q1239.28 1449.75 1236.83 1450.52 Q1234.4 1451.28 1231.62 1452.83 L1231.62 1448.11 Q1234.45 1446.98 1236.9 1446.4 Q1239.35 1445.82 1241.39 1445.82 Q1246.76 1445.82 1249.96 1448.5 Q1253.15 1451.19 1253.15 1455.68 Q1253.15 1457.81 1252.34 1459.73 Q1251.55 1461.63 1249.45 1464.22 Q1248.87 1464.89 1245.77 1468.11 Q1242.66 1471.3 1237.02 1477.07 Z" fill="#000000" fill-rule="nonzero" fill-opacity="1" /><path clip-path="url(#clip210)" d="M1273.15 1449.52 Q1269.54 1449.52 1267.71 1453.09 Q1265.91 1456.63 1265.91 1463.76 Q1265.91 1470.86 1267.71 1474.43 Q1269.54 1477.97 1273.15 1477.97 Q1276.78 1477.97 1278.59 1474.43 Q1280.42 1470.86 1280.42 1463.76 Q1280.42 1456.63 1278.59 1453.09 Q1276.78 1449.52 1273.15 1449.52 M1273.15 1445.82 Q1278.96 1445.82 1282.02 1450.43 Q1285.09 1455.01 1285.09 1463.76 Q1285.09 1472.49 1282.02 1477.09 Q1278.96 1481.68 1273.15 1481.68 Q1267.34 1481.68 1264.26 1477.09 Q1261.21 1472.49 1261.21 1463.76 Q1261.21 1455.01 1264.26 1450.43 Q1267.34 1445.82 1273.15 1445.82 Z" fill="#000000" fill-rule="nonzero" fill-opacity="1" /><path clip-path="url(#clip210)" d="M1290.56 1466.12 L1303.03 1466.12 L1303.03 1469.92 L1290.56 1469.92 L1290.56 1466.12 Z" fill="#000000" fill-rule="nonzero" fill-opacity="1" /><path clip-path="url(#clip210)" d="M1320.42 1449.52 Q1316.81 1449.52 1314.98 1453.09 Q1313.17 1456.63 1313.17 1463.76 Q1313.17 1470.86 1314.98 1474.43 Q1316.81 1477.97 1320.42 1477.97 Q1324.05 1477.97 1325.86 1474.43 Q1327.69 1470.86 1327.69 1463.76 Q1327.69 1456.63 1325.86 1453.09 Q1324.05 1449.52 1320.42 1449.52 M1320.42 1445.82 Q1326.23 1445.82 1329.28 1450.43 Q1332.36 1455.01 1332.36 1463.76 Q1332.36 1472.49 1329.28 1477.09 Q1326.23 1481.68 1320.42 1481.68 Q1314.61 1481.68 1311.53 1477.09 Q1308.47 1472.49 1308.47 1463.76 Q1308.47 1455.01 1311.53 1450.43 Q1314.61 1445.82 1320.42 1445.82 Z" fill="#000000" fill-rule="nonzero" fill-opacity="1" /><path clip-path="url(#clip210)" d="M1353.43 1450.52 L1341.62 1468.97 L1353.43 1468.97 L1353.43 1450.52 M1352.2 1446.44 L1358.08 1446.44 L1358.08 1468.97 L1363.01 1468.97 L1363.01 1472.86 L1358.08 1472.86 L1358.08 1481 L1353.43 1481 L1353.43 1472.86 L1337.83 1472.86 L1337.83 1468.34 L1352.2 1446.44 Z" fill="#000000" fill-rule="nonzero" fill-opacity="1" /><path clip-path="url(#clip210)" d="M1367.99 1466.12 L1380.46 1466.12 L1380.46 1469.92 L1367.99 1469.92 L1367.99 1466.12 Z" fill="#000000" fill-rule="nonzero" fill-opacity="1" /><path clip-path="url(#clip210)" d="M1397.85 1449.52 Q1394.24 1449.52 1392.41 1453.09 Q1390.6 1456.63 1390.6 1463.76 Q1390.6 1470.86 1392.41 1474.43 Q1394.24 1477.97 1397.85 1477.97 Q1401.48 1477.97 1403.29 1474.43 Q1405.12 1470.86 1405.12 1463.76 Q1405.12 1456.63 1403.29 1453.09 Q1401.48 1449.52 1397.85 1449.52 M1397.85 1445.82 Q1403.66 1445.82 1406.71 1450.43 Q1409.79 1455.01 1409.79 1463.76 Q1409.79 1472.49 1406.71 1477.09 Q1403.66 1481.68 1397.85 1481.68 Q1392.04 1481.68 1388.96 1477.09 Q1385.9 1472.49 1385.9 1463.76 Q1385.9 1455.01 1388.96 1450.43 Q1392.04 1445.82 1397.85 1445.82 Z" fill="#000000" fill-rule="nonzero" fill-opacity="1" /><path clip-path="url(#clip210)" d="M1418.82 1477.07 L1426.46 1477.07 L1426.46 1450.7 L1418.15 1452.37 L1418.15 1448.11 L1426.41 1446.44 L1431.09 1446.44 L1431.09 1477.07 L1438.73 1477.07 L1438.73 1481 L1418.82 1481 L1418.82 1477.07 Z" fill="#000000" fill-rule="nonzero" fill-opacity="1" /><path clip-path="url(#clip210)" d="M1990.35 1477.07 L2006.67 1477.07 L2006.67 1481 L1984.73 1481 L1984.73 1477.07 Q1987.39 1474.31 1991.97 1469.68 Q1996.58 1465.03 1997.76 1463.69 Q2000.01 1461.17 2000.89 1459.43 Q2001.79 1457.67 2001.79 1455.98 Q2001.79 1453.23 1999.84 1451.49 Q1997.92 1449.75 1994.82 1449.75 Q1992.62 1449.75 1990.17 1450.52 Q1987.74 1451.28 1984.96 1452.83 L1984.96 1448.11 Q1987.78 1446.98 1990.24 1446.4 Q1992.69 1445.82 1994.73 1445.82 Q2000.1 1445.82 2003.29 1448.5 Q2006.49 1451.19 2006.49 1455.68 Q2006.49 1457.81 2005.68 1459.73 Q2004.89 1461.63 2002.78 1464.22 Q2002.21 1464.89 1999.1 1468.11 Q1996 1471.3 1990.35 1477.07 Z" fill="#000000" fill-rule="nonzero" fill-opacity="1" /><path clip-path="url(#clip210)" d="M2026.49 1449.52 Q2022.88 1449.52 2021.05 1453.09 Q2019.24 1456.63 2019.24 1463.76 Q2019.24 1470.86 2021.05 1474.43 Q2022.88 1477.97 2026.49 1477.97 Q2030.12 1477.97 2031.93 1474.43 Q2033.76 1470.86 2033.76 1463.76 Q2033.76 1456.63 2031.93 1453.09 Q2030.12 1449.52 2026.49 1449.52 M2026.49 1445.82 Q2032.3 1445.82 2035.35 1450.43 Q2038.43 1455.01 2038.43 1463.76 Q2038.43 1472.49 2035.35 1477.09 Q2032.3 1481.68 2026.49 1481.68 Q2020.68 1481.68 2017.6 1477.09 Q2014.54 1472.49 2014.54 1463.76 Q2014.54 1455.01 2017.6 1450.43 Q2020.68 1445.82 2026.49 1445.82 Z" fill="#000000" fill-rule="nonzero" fill-opacity="1" /><path clip-path="url(#clip210)" d="M2050.68 1477.07 L2067 1477.07 L2067 1481 L2045.05 1481 L2045.05 1477.07 Q2047.71 1474.31 2052.3 1469.68 Q2056.9 1465.03 2058.08 1463.69 Q2060.33 1461.17 2061.21 1459.43 Q2062.11 1457.67 2062.11 1455.98 Q2062.11 1453.23 2060.17 1451.49 Q2058.25 1449.75 2055.14 1449.75 Q2052.95 1449.75 2050.49 1450.52 Q2048.06 1451.28 2045.28 1452.83 L2045.28 1448.11 Q2048.11 1446.98 2050.56 1446.4 Q2053.02 1445.82 2055.05 1445.82 Q2060.42 1445.82 2063.62 1448.5 Q2066.81 1451.19 2066.81 1455.68 Q2066.81 1457.81 2066 1459.73 Q2065.21 1461.63 2063.11 1464.22 Q2062.53 1464.89 2059.43 1468.11 Q2056.33 1471.3 2050.68 1477.07 Z" fill="#000000" fill-rule="nonzero" fill-opacity="1" /><path clip-path="url(#clip210)" d="M2086.81 1449.52 Q2083.2 1449.52 2081.37 1453.09 Q2079.57 1456.63 2079.57 1463.76 Q2079.57 1470.86 2081.37 1474.43 Q2083.2 1477.97 2086.81 1477.97 Q2090.45 1477.97 2092.25 1474.43 Q2094.08 1470.86 2094.08 1463.76 Q2094.08 1456.63 2092.25 1453.09 Q2090.45 1449.52 2086.81 1449.52 M2086.81 1445.82 Q2092.62 1445.82 2095.68 1450.43 Q2098.76 1455.01 2098.76 1463.76 Q2098.76 1472.49 2095.68 1477.09 Q2092.62 1481.68 2086.81 1481.68 Q2081 1481.68 2077.92 1477.09 Q2074.87 1472.49 2074.87 1463.76 Q2074.87 1455.01 2077.92 1450.43 Q2081 1445.82 2086.81 1445.82 Z" fill="#000000" fill-rule="nonzero" fill-opacity="1" /><path clip-path="url(#clip210)" d="M2104.22 1466.12 L2116.7 1466.12 L2116.7 1469.92 L2104.22 1469.92 L2104.22 1466.12 Z" fill="#000000" fill-rule="nonzero" fill-opacity="1" /><path clip-path="url(#clip210)" d="M2134.08 1449.52 Q2130.47 1449.52 2128.64 1453.09 Q2126.83 1456.63 2126.83 1463.76 Q2126.83 1470.86 2128.64 1474.43 Q2130.47 1477.97 2134.08 1477.97 Q2137.71 1477.97 2139.52 1474.43 Q2141.35 1470.86 2141.35 1463.76 Q2141.35 1456.63 2139.52 1453.09 Q2137.71 1449.52 2134.08 1449.52 M2134.08 1445.82 Q2139.89 1445.82 2142.95 1450.43 Q2146.02 1455.01 2146.02 1463.76 Q2146.02 1472.49 2142.95 1477.09 Q2139.89 1481.68 2134.08 1481.68 Q2128.27 1481.68 2125.19 1477.09 Q2122.14 1472.49 2122.14 1463.76 Q2122.14 1455.01 2125.19 1450.43 Q2128.27 1445.82 2134.08 1445.82 Z" fill="#000000" fill-rule="nonzero" fill-opacity="1" /><path clip-path="url(#clip210)" d="M2154.29 1446.44 L2172.64 1446.44 L2172.64 1450.38 L2158.57 1450.38 L2158.57 1458.85 Q2159.59 1458.5 2160.61 1458.34 Q2161.63 1458.16 2162.64 1458.16 Q2168.43 1458.16 2171.81 1461.33 Q2175.19 1464.5 2175.19 1469.92 Q2175.19 1475.49 2171.72 1478.6 Q2168.25 1481.68 2161.93 1481.68 Q2159.75 1481.68 2157.48 1481.3 Q2155.24 1480.93 2152.83 1480.19 L2152.83 1475.49 Q2154.91 1476.63 2157.13 1477.18 Q2159.36 1477.74 2161.83 1477.74 Q2165.84 1477.74 2168.18 1475.63 Q2170.51 1473.53 2170.51 1469.92 Q2170.51 1466.3 2168.18 1464.2 Q2165.84 1462.09 2161.83 1462.09 Q2159.96 1462.09 2158.08 1462.51 Q2156.23 1462.93 2154.29 1463.8 L2154.29 1446.44 Z" fill="#000000" fill-rule="nonzero" fill-opacity="1" /><path clip-path="url(#clip210)" d="M2181.65 1466.12 L2194.13 1466.12 L2194.13 1469.92 L2181.65 1469.92 L2181.65 1466.12 Z" fill="#000000" fill-rule="nonzero" fill-opacity="1" /><path clip-path="url(#clip210)" d="M2211.51 1449.52 Q2207.9 1449.52 2206.07 1453.09 Q2204.26 1456.63 2204.26 1463.76 Q2204.26 1470.86 2206.07 1474.43 Q2207.9 1477.97 2211.51 1477.97 Q2215.14 1477.97 2216.95 1474.43 Q2218.78 1470.86 2218.78 1463.76 Q2218.78 1456.63 2216.95 1453.09 Q2215.14 1449.52 2211.51 1449.52 M2211.51 1445.82 Q2217.32 1445.82 2220.38 1450.43 Q2223.45 1455.01 2223.45 1463.76 Q2223.45 1472.49 2220.38 1477.09 Q2217.32 1481.68 2211.51 1481.68 Q2205.7 1481.68 2202.62 1477.09 Q2199.57 1472.49 2199.57 1463.76 Q2199.57 1455.01 2202.62 1450.43 Q2205.7 1445.82 2211.51 1445.82 Z" fill="#000000" fill-rule="nonzero" fill-opacity="1" /><path clip-path="url(#clip210)" d="M2232.48 1477.07 L2240.12 1477.07 L2240.12 1450.7 L2231.81 1452.37 L2231.81 1448.11 L2240.07 1446.44 L2244.75 1446.44 L2244.75 1477.07 L2252.39 1477.07 L2252.39 1481 L2232.48 1481 L2232.48 1477.07 Z" fill="#000000" fill-rule="nonzero" fill-opacity="1" /><path clip-path="url(#clip210)" d="M2831.14 1477.07 L2847.46 1477.07 L2847.46 1481 L2825.51 1481 L2825.51 1477.07 Q2828.17 1474.31 2832.76 1469.68 Q2837.36 1465.03 2838.54 1463.69 Q2840.79 1461.17 2841.67 1459.43 Q2842.57 1457.67 2842.57 1455.98 Q2842.57 1453.23 2840.63 1451.49 Q2838.71 1449.75 2835.6 1449.75 Q2833.4 1449.75 2830.95 1450.52 Q2828.52 1451.28 2825.74 1452.83 L2825.74 1448.11 Q2828.57 1446.98 2831.02 1446.4 Q2833.47 1445.82 2835.51 1445.82 Q2840.88 1445.82 2844.08 1448.5 Q2847.27 1451.19 2847.27 1455.68 Q2847.27 1457.81 2846.46 1459.73 Q2845.67 1461.63 2843.57 1464.22 Q2842.99 1464.89 2839.89 1468.11 Q2836.78 1471.3 2831.14 1477.07 Z" fill="#000000" fill-rule="nonzero" fill-opacity="1" /><path clip-path="url(#clip210)" d="M2867.27 1449.52 Q2863.66 1449.52 2861.83 1453.09 Q2860.02 1456.63 2860.02 1463.76 Q2860.02 1470.86 2861.83 1474.43 Q2863.66 1477.97 2867.27 1477.97 Q2870.9 1477.97 2872.71 1474.43 Q2874.54 1470.86 2874.54 1463.76 Q2874.54 1456.63 2872.71 1453.09 Q2870.9 1449.52 2867.27 1449.52 M2867.27 1445.82 Q2873.08 1445.82 2876.14 1450.43 Q2879.21 1455.01 2879.21 1463.76 Q2879.21 1472.49 2876.14 1477.09 Q2873.08 1481.68 2867.27 1481.68 Q2861.46 1481.68 2858.38 1477.09 Q2855.33 1472.49 2855.33 1463.76 Q2855.33 1455.01 2858.38 1450.43 Q2861.46 1445.82 2867.27 1445.82 Z" fill="#000000" fill-rule="nonzero" fill-opacity="1" /><path clip-path="url(#clip210)" d="M2891.46 1477.07 L2907.78 1477.07 L2907.78 1481 L2885.83 1481 L2885.83 1477.07 Q2888.5 1474.31 2893.08 1469.68 Q2897.69 1465.03 2898.87 1463.69 Q2901.11 1461.17 2901.99 1459.43 Q2902.89 1457.67 2902.89 1455.98 Q2902.89 1453.23 2900.95 1451.49 Q2899.03 1449.75 2895.93 1449.75 Q2893.73 1449.75 2891.27 1450.52 Q2888.84 1451.28 2886.07 1452.83 L2886.07 1448.11 Q2888.89 1446.98 2891.34 1446.4 Q2893.8 1445.82 2895.83 1445.82 Q2901.21 1445.82 2904.4 1448.5 Q2907.59 1451.19 2907.59 1455.68 Q2907.59 1457.81 2906.78 1459.73 Q2906 1461.63 2903.89 1464.22 Q2903.31 1464.89 2900.21 1468.11 Q2897.11 1471.3 2891.46 1477.07 Z" fill="#000000" fill-rule="nonzero" fill-opacity="1" /><path clip-path="url(#clip210)" d="M2927.59 1449.52 Q2923.98 1449.52 2922.15 1453.09 Q2920.35 1456.63 2920.35 1463.76 Q2920.35 1470.86 2922.15 1474.43 Q2923.98 1477.97 2927.59 1477.97 Q2931.23 1477.97 2933.03 1474.43 Q2934.86 1470.86 2934.86 1463.76 Q2934.86 1456.63 2933.03 1453.09 Q2931.23 1449.52 2927.59 1449.52 M2927.59 1445.82 Q2933.4 1445.82 2936.46 1450.43 Q2939.54 1455.01 2939.54 1463.76 Q2939.54 1472.49 2936.46 1477.09 Q2933.4 1481.68 2927.59 1481.68 Q2921.78 1481.68 2918.71 1477.09 Q2915.65 1472.49 2915.65 1463.76 Q2915.65 1455.01 2918.71 1450.43 Q2921.78 1445.82 2927.59 1445.82 Z" fill="#000000" fill-rule="nonzero" fill-opacity="1" /><path clip-path="url(#clip210)" d="M2945 1466.12 L2957.48 1466.12 L2957.48 1469.92 L2945 1469.92 L2945 1466.12 Z" fill="#000000" fill-rule="nonzero" fill-opacity="1" /><path clip-path="url(#clip210)" d="M2974.86 1449.52 Q2971.25 1449.52 2969.42 1453.09 Q2967.62 1456.63 2967.62 1463.76 Q2967.62 1470.86 2969.42 1474.43 Q2971.25 1477.97 2974.86 1477.97 Q2978.5 1477.97 2980.3 1474.43 Q2982.13 1470.86 2982.13 1463.76 Q2982.13 1456.63 2980.3 1453.09 Q2978.5 1449.52 2974.86 1449.52 M2974.86 1445.82 Q2980.67 1445.82 2983.73 1450.43 Q2986.81 1455.01 2986.81 1463.76 Q2986.81 1472.49 2983.73 1477.09 Q2980.67 1481.68 2974.86 1481.68 Q2969.05 1481.68 2965.97 1477.09 Q2962.92 1472.49 2962.92 1463.76 Q2962.92 1455.01 2965.97 1450.43 Q2969.05 1445.82 2974.86 1445.82 Z" fill="#000000" fill-rule="nonzero" fill-opacity="1" /><path clip-path="url(#clip210)" d="M3005.6 1461.86 Q3002.45 1461.86 3000.6 1464.01 Q2998.77 1466.17 2998.77 1469.92 Q2998.77 1473.64 3000.6 1475.82 Q3002.45 1477.97 3005.6 1477.97 Q3008.75 1477.97 3010.58 1475.82 Q3012.43 1473.64 3012.43 1469.92 Q3012.43 1466.17 3010.58 1464.01 Q3008.75 1461.86 3005.6 1461.86 M3014.89 1447.21 L3014.89 1451.47 Q3013.13 1450.63 3011.32 1450.19 Q3009.54 1449.75 3007.78 1449.75 Q3003.15 1449.75 3000.7 1452.88 Q2998.26 1456 2997.92 1462.32 Q2999.28 1460.31 3001.34 1459.24 Q3003.4 1458.16 3005.88 1458.16 Q3011.09 1458.16 3014.1 1461.33 Q3017.13 1464.48 3017.13 1469.92 Q3017.13 1475.24 3013.98 1478.46 Q3010.83 1481.68 3005.6 1481.68 Q2999.61 1481.68 2996.44 1477.09 Q2993.26 1472.49 2993.26 1463.76 Q2993.26 1455.56 2997.15 1450.7 Q3001.04 1445.82 3007.59 1445.82 Q3009.35 1445.82 3011.14 1446.17 Q3012.94 1446.51 3014.89 1447.21 Z" fill="#000000" fill-rule="nonzero" fill-opacity="1" /><path clip-path="url(#clip210)" d="M3022.43 1466.12 L3034.91 1466.12 L3034.91 1469.92 L3022.43 1469.92 L3022.43 1466.12 Z" fill="#000000" fill-rule="nonzero" fill-opacity="1" /><path clip-path="url(#clip210)" d="M3052.29 1449.52 Q3048.68 1449.52 3046.85 1453.09 Q3045.05 1456.63 3045.05 1463.76 Q3045.05 1470.86 3046.85 1474.43 Q3048.68 1477.97 3052.29 1477.97 Q3055.93 1477.97 3057.73 1474.43 Q3059.56 1470.86 3059.56 1463.76 Q3059.56 1456.63 3057.73 1453.09 Q3055.93 1449.52 3052.29 1449.52 M3052.29 1445.82 Q3058.1 1445.82 3061.16 1450.43 Q3064.24 1455.01 3064.24 1463.76 Q3064.24 1472.49 3061.16 1477.09 Q3058.1 1481.68 3052.29 1481.68 Q3046.48 1481.68 3043.4 1477.09 Q3040.35 1472.49 3040.35 1463.76 Q3040.35 1455.01 3043.4 1450.43 Q3046.48 1445.82 3052.29 1445.82 Z" fill="#000000" fill-rule="nonzero" fill-opacity="1" /><path clip-path="url(#clip210)" d="M3073.26 1477.07 L3080.9 1477.07 L3080.9 1450.7 L3072.59 1452.37 L3072.59 1448.11 L3080.86 1446.44 L3085.53 1446.44 L3085.53 1477.07 L3093.17 1477.07 L3093.17 1481 L3073.26 1481 L3073.26 1477.07 Z" fill="#000000" fill-rule="nonzero" fill-opacity="1" /><path clip-path="url(#clip210)" d="M1631.63 1526.83 L1631.63 1563.78 L1639.4 1563.78 Q1649.23 1563.78 1653.78 1559.33 Q1658.37 1554.87 1658.37 1545.26 Q1658.37 1535.71 1653.78 1531.29 Q1649.23 1526.83 1639.4 1526.83 L1631.63 1526.83 M1625.2 1521.55 L1638.41 1521.55 Q1652.22 1521.55 1658.68 1527.31 Q1665.15 1533.04 1665.15 1545.26 Q1665.15 1557.55 1658.65 1563.31 Q1652.16 1569.07 1638.41 1569.07 L1625.2 1569.07 L1625.2 1521.55 Z" fill="#000000" fill-rule="nonzero" fill-opacity="1" /><path clip-path="url(#clip210)" d="M1691.34 1551.15 Q1684.24 1551.15 1681.51 1552.77 Q1678.77 1554.39 1678.77 1558.31 Q1678.77 1561.43 1680.8 1563.27 Q1682.87 1565.09 1686.41 1565.09 Q1691.28 1565.09 1694.2 1561.65 Q1697.16 1558.18 1697.16 1552.45 L1697.16 1551.15 L1691.34 1551.15 M1703.02 1548.73 L1703.02 1569.07 L1697.16 1569.07 L1697.16 1563.66 Q1695.16 1566.9 1692.17 1568.46 Q1689.18 1569.99 1684.85 1569.99 Q1679.37 1569.99 1676.13 1566.94 Q1672.91 1563.85 1672.91 1558.69 Q1672.91 1552.68 1676.92 1549.62 Q1680.96 1546.57 1688.95 1546.57 L1697.16 1546.57 L1697.16 1545.99 Q1697.16 1541.95 1694.49 1539.75 Q1691.85 1537.53 1687.04 1537.53 Q1683.99 1537.53 1681.09 1538.26 Q1678.19 1538.99 1675.52 1540.45 L1675.52 1535.04 Q1678.74 1533.8 1681.76 1533.2 Q1684.78 1532.56 1687.65 1532.56 Q1695.38 1532.56 1699.2 1536.57 Q1703.02 1540.58 1703.02 1548.73 Z" fill="#000000" fill-rule="nonzero" fill-opacity="1" /><path clip-path="url(#clip210)" d="M1720.88 1523.3 L1720.88 1533.42 L1732.94 1533.42 L1732.94 1537.97 L1720.88 1537.97 L1720.88 1557.32 Q1720.88 1561.68 1722.05 1562.92 Q1723.26 1564.17 1726.92 1564.17 L1732.94 1564.17 L1732.94 1569.07 L1726.92 1569.07 Q1720.14 1569.07 1717.57 1566.55 Q1714.99 1564.01 1714.99 1557.32 L1714.99 1537.97 L1710.69 1537.97 L1710.69 1533.42 L1714.99 1533.42 L1714.99 1523.3 L1720.88 1523.3 Z" fill="#000000" fill-rule="nonzero" fill-opacity="1" /><path clip-path="url(#clip210)" d="M1771.13 1549.78 L1771.13 1552.64 L1744.21 1552.64 Q1744.59 1558.69 1747.84 1561.87 Q1751.11 1565.03 1756.94 1565.03 Q1760.31 1565.03 1763.46 1564.2 Q1766.65 1563.37 1769.77 1561.72 L1769.77 1567.25 Q1766.61 1568.59 1763.3 1569.29 Q1759.99 1569.99 1756.59 1569.99 Q1748.06 1569.99 1743.06 1565.03 Q1738.1 1560.06 1738.1 1551.59 Q1738.1 1542.84 1742.81 1537.72 Q1747.55 1532.56 1755.57 1532.56 Q1762.76 1532.56 1766.93 1537.21 Q1771.13 1541.82 1771.13 1549.78 M1765.28 1548.06 Q1765.21 1543.25 1762.57 1540.39 Q1759.96 1537.53 1755.63 1537.53 Q1750.73 1537.53 1747.77 1540.29 Q1744.84 1543.06 1744.4 1548.09 L1765.28 1548.06 Z" fill="#000000" fill-rule="nonzero" fill-opacity="1" /><polyline clip-path="url(#clip212)" style="stroke:#000000; stroke-linecap:round; stroke-linejoin:round; stroke-width:2; stroke-opacity:0.1; fill:none" points="275.075,1378.54 3121.26,1378.54 "/>
<polyline clip-path="url(#clip212)" style="stroke:#000000; stroke-linecap:round; stroke-linejoin:round; stroke-width:2; stroke-opacity:0.1; fill:none" points="275.075,1074.62 3121.26,1074.62 "/>
<polyline clip-path="url(#clip212)" style="stroke:#000000; stroke-linecap:round; stroke-linejoin:round; stroke-width:2; stroke-opacity:0.1; fill:none" points="275.075,770.698 3121.26,770.698 "/>
<polyline clip-path="url(#clip212)" style="stroke:#000000; stroke-linecap:round; stroke-linejoin:round; stroke-width:2; stroke-opacity:0.1; fill:none" points="275.075,466.779 3121.26,466.779 "/>
<polyline clip-path="url(#clip212)" style="stroke:#000000; stroke-linecap:round; stroke-linejoin:round; stroke-width:2; stroke-opacity:0.1; fill:none" points="275.075,162.86 3121.26,162.86 "/>
<polyline clip-path="url(#clip210)" style="stroke:#000000; stroke-linecap:round; stroke-linejoin:round; stroke-width:4; stroke-opacity:1; fill:none" points="275.075,1412.2 275.075,78.7402 "/>
<polyline clip-path="url(#clip210)" style="stroke:#000000; stroke-linecap:round; stroke-linejoin:round; stroke-width:4; stroke-opacity:1; fill:none" points="275.075,1378.54 293.972,1378.54 "/>
<polyline clip-path="url(#clip210)" style="stroke:#000000; stroke-linecap:round; stroke-linejoin:round; stroke-width:4; stroke-opacity:1; fill:none" points="275.075,1074.62 293.972,1074.62 "/>
<polyline clip-path="url(#clip210)" style="stroke:#000000; stroke-linecap:round; stroke-linejoin:round; stroke-width:4; stroke-opacity:1; fill:none" points="275.075,770.698 293.972,770.698 "/>
<polyline clip-path="url(#clip210)" style="stroke:#000000; stroke-linecap:round; stroke-linejoin:round; stroke-width:4; stroke-opacity:1; fill:none" points="275.075,466.779 293.972,466.779 "/>
<polyline clip-path="url(#clip210)" style="stroke:#000000; stroke-linecap:round; stroke-linejoin:round; stroke-width:4; stroke-opacity:1; fill:none" points="275.075,162.86 293.972,162.86 "/>
<path clip-path="url(#clip210)" d="M169.899 1364.33 Q166.288 1364.33 164.459 1367.9 Q162.654 1371.44 162.654 1378.57 Q162.654 1385.68 164.459 1389.24 Q166.288 1392.78 169.899 1392.78 Q173.533 1392.78 175.339 1389.24 Q177.168 1385.68 177.168 1378.57 Q177.168 1371.44 175.339 1367.9 Q173.533 1364.33 169.899 1364.33 M169.899 1360.63 Q175.709 1360.63 178.765 1365.24 Q181.844 1369.82 181.844 1378.57 Q181.844 1387.3 178.765 1391.9 Q175.709 1396.49 169.899 1396.49 Q164.089 1396.49 161.01 1391.9 Q157.955 1387.3 157.955 1378.57 Q157.955 1369.82 161.01 1365.24 Q164.089 1360.63 169.899 1360.63 Z" fill="#000000" fill-rule="nonzero" fill-opacity="1" /><path clip-path="url(#clip210)" d="M190.061 1389.94 L194.945 1389.94 L194.945 1395.82 L190.061 1395.82 L190.061 1389.94 Z" fill="#000000" fill-rule="nonzero" fill-opacity="1" /><path clip-path="url(#clip210)" d="M215.13 1364.33 Q211.519 1364.33 209.691 1367.9 Q207.885 1371.44 207.885 1378.57 Q207.885 1385.68 209.691 1389.24 Q211.519 1392.78 215.13 1392.78 Q218.765 1392.78 220.57 1389.24 Q222.399 1385.68 222.399 1378.57 Q222.399 1371.44 220.57 1367.9 Q218.765 1364.33 215.13 1364.33 M215.13 1360.63 Q220.941 1360.63 223.996 1365.24 Q227.075 1369.82 227.075 1378.57 Q227.075 1387.3 223.996 1391.9 Q220.941 1396.49 215.13 1396.49 Q209.32 1396.49 206.242 1391.9 Q203.186 1387.3 203.186 1378.57 Q203.186 1369.82 206.242 1365.24 Q209.32 1360.63 215.13 1360.63 Z" fill="#000000" fill-rule="nonzero" fill-opacity="1" /><path clip-path="url(#clip210)" d="M164.922 1087.96 L181.242 1087.96 L181.242 1091.9 L159.297 1091.9 L159.297 1087.96 Q161.959 1085.21 166.543 1080.58 Q171.149 1075.92 172.33 1074.58 Q174.575 1072.06 175.455 1070.32 Q176.357 1068.56 176.357 1066.87 Q176.357 1064.12 174.413 1062.38 Q172.492 1060.65 169.39 1060.65 Q167.191 1060.65 164.737 1061.41 Q162.307 1062.17 159.529 1063.73 L159.529 1059 Q162.353 1057.87 164.807 1057.29 Q167.26 1056.71 169.297 1056.71 Q174.668 1056.71 177.862 1059.4 Q181.057 1062.08 181.057 1066.57 Q181.057 1068.7 180.246 1070.62 Q179.459 1072.52 177.353 1075.11 Q176.774 1075.79 173.672 1079 Q170.57 1082.2 164.922 1087.96 Z" fill="#000000" fill-rule="nonzero" fill-opacity="1" /><path clip-path="url(#clip210)" d="M191.056 1086.02 L195.941 1086.02 L195.941 1091.9 L191.056 1091.9 L191.056 1086.02 Z" fill="#000000" fill-rule="nonzero" fill-opacity="1" /><path clip-path="url(#clip210)" d="M206.172 1057.34 L224.528 1057.34 L224.528 1061.27 L210.454 1061.27 L210.454 1069.74 Q211.473 1069.4 212.492 1069.23 Q213.51 1069.05 214.529 1069.05 Q220.316 1069.05 223.695 1072.22 Q227.075 1075.39 227.075 1080.81 Q227.075 1086.39 223.603 1089.49 Q220.13 1092.57 213.811 1092.57 Q211.635 1092.57 209.367 1092.2 Q207.121 1091.83 204.714 1091.09 L204.714 1086.39 Q206.797 1087.52 209.019 1088.08 Q211.242 1088.63 213.718 1088.63 Q217.723 1088.63 220.061 1086.53 Q222.399 1084.42 222.399 1080.81 Q222.399 1077.2 220.061 1075.09 Q217.723 1072.98 213.718 1072.98 Q211.843 1072.98 209.968 1073.4 Q208.117 1073.82 206.172 1074.7 L206.172 1057.34 Z" fill="#000000" fill-rule="nonzero" fill-opacity="1" /><path clip-path="url(#clip210)" d="M159.946 753.418 L178.302 753.418 L178.302 757.353 L164.228 757.353 L164.228 765.825 Q165.246 765.478 166.265 765.316 Q167.283 765.13 168.302 765.13 Q174.089 765.13 177.469 768.302 Q180.848 771.473 180.848 776.89 Q180.848 782.468 177.376 785.57 Q173.904 788.649 167.584 788.649 Q165.408 788.649 163.14 788.278 Q160.895 787.908 158.487 787.167 L158.487 782.468 Q160.571 783.603 162.793 784.158 Q165.015 784.714 167.492 784.714 Q171.496 784.714 173.834 782.607 Q176.172 780.501 176.172 776.89 Q176.172 773.279 173.834 771.172 Q171.496 769.066 167.492 769.066 Q165.617 769.066 163.742 769.482 Q161.89 769.899 159.946 770.779 L159.946 753.418 Z" fill="#000000" fill-rule="nonzero" fill-opacity="1" /><path clip-path="url(#clip210)" d="M190.061 782.098 L194.945 782.098 L194.945 787.978 L190.061 787.978 L190.061 782.098 Z" fill="#000000" fill-rule="nonzero" fill-opacity="1" /><path clip-path="url(#clip210)" d="M215.13 756.496 Q211.519 756.496 209.691 760.061 Q207.885 763.603 207.885 770.732 Q207.885 777.839 209.691 781.403 Q211.519 784.945 215.13 784.945 Q218.765 784.945 220.57 781.403 Q222.399 777.839 222.399 770.732 Q222.399 763.603 220.57 760.061 Q218.765 756.496 215.13 756.496 M215.13 752.793 Q220.941 752.793 223.996 757.399 Q227.075 761.982 227.075 770.732 Q227.075 779.459 223.996 784.066 Q220.941 788.649 215.13 788.649 Q209.32 788.649 206.242 784.066 Q203.186 779.459 203.186 770.732 Q203.186 761.982 206.242 757.399 Q209.32 752.793 215.13 752.793 Z" fill="#000000" fill-rule="nonzero" fill-opacity="1" /><path clip-path="url(#clip210)" d="M159.714 449.499 L181.936 449.499 L181.936 451.489 L169.39 484.059 L164.506 484.059 L176.311 453.434 L159.714 453.434 L159.714 449.499 Z" fill="#000000" fill-rule="nonzero" fill-opacity="1" /><path clip-path="url(#clip210)" d="M191.056 478.179 L195.941 478.179 L195.941 484.059 L191.056 484.059 L191.056 478.179 Z" fill="#000000" fill-rule="nonzero" fill-opacity="1" /><path clip-path="url(#clip210)" d="M206.172 449.499 L224.528 449.499 L224.528 453.434 L210.454 453.434 L210.454 461.906 Q211.473 461.559 212.492 461.397 Q213.51 461.212 214.529 461.212 Q220.316 461.212 223.695 464.383 Q227.075 467.554 227.075 472.971 Q227.075 478.549 223.603 481.651 Q220.13 484.73 213.811 484.73 Q211.635 484.73 209.367 484.36 Q207.121 483.989 204.714 483.248 L204.714 478.549 Q206.797 479.684 209.019 480.239 Q211.242 480.795 213.718 480.795 Q217.723 480.795 220.061 478.688 Q222.399 476.582 222.399 472.971 Q222.399 469.36 220.061 467.253 Q217.723 465.147 213.718 465.147 Q211.843 465.147 209.968 465.563 Q208.117 465.98 206.172 466.86 L206.172 449.499 Z" fill="#000000" fill-rule="nonzero" fill-opacity="1" /><path clip-path="url(#clip210)" d="M130.548 176.205 L138.186 176.205 L138.186 149.839 L129.876 151.506 L129.876 147.246 L138.14 145.58 L142.816 145.58 L142.816 176.205 L150.455 176.205 L150.455 180.14 L130.548 180.14 L130.548 176.205 Z" fill="#000000" fill-rule="nonzero" fill-opacity="1" /><path clip-path="url(#clip210)" d="M169.899 148.658 Q166.288 148.658 164.459 152.223 Q162.654 155.765 162.654 162.894 Q162.654 170.001 164.459 173.566 Q166.288 177.107 169.899 177.107 Q173.533 177.107 175.339 173.566 Q177.168 170.001 177.168 162.894 Q177.168 155.765 175.339 152.223 Q173.533 148.658 169.899 148.658 M169.899 144.955 Q175.709 144.955 178.765 149.561 Q181.844 154.145 181.844 162.894 Q181.844 171.621 178.765 176.228 Q175.709 180.811 169.899 180.811 Q164.089 180.811 161.01 176.228 Q157.955 171.621 157.955 162.894 Q157.955 154.145 161.01 149.561 Q164.089 144.955 169.899 144.955 Z" fill="#000000" fill-rule="nonzero" fill-opacity="1" /><path clip-path="url(#clip210)" d="M190.061 174.26 L194.945 174.26 L194.945 180.14 L190.061 180.14 L190.061 174.26 Z" fill="#000000" fill-rule="nonzero" fill-opacity="1" /><path clip-path="url(#clip210)" d="M215.13 148.658 Q211.519 148.658 209.691 152.223 Q207.885 155.765 207.885 162.894 Q207.885 170.001 209.691 173.566 Q211.519 177.107 215.13 177.107 Q218.765 177.107 220.57 173.566 Q222.399 170.001 222.399 162.894 Q222.399 155.765 220.57 152.223 Q218.765 148.658 215.13 148.658 M215.13 144.955 Q220.941 144.955 223.996 149.561 Q227.075 154.145 227.075 162.894 Q227.075 171.621 223.996 176.228 Q220.941 180.811 215.13 180.811 Q209.32 180.811 206.242 176.228 Q203.186 171.621 203.186 162.894 Q203.186 154.145 206.242 149.561 Q209.32 144.955 215.13 144.955 Z" fill="#000000" fill-rule="nonzero" fill-opacity="1" /><path clip-path="url(#clip210)" d="M45.3402 1073.54 Q46.0405 1071.48 48.3321 1069.53 Q50.6238 1067.56 54.6342 1065.59 L67.6202 1059.06 L67.6202 1065.97 L55.4299 1072.05 Q50.6556 1074.4 49.096 1076.63 Q47.5364 1078.83 47.5364 1082.65 L47.5364 1089.65 L67.6202 1089.65 L67.6202 1096.08 L20.1002 1096.08 L20.1002 1081.57 Q20.1002 1073.42 23.5059 1069.41 Q26.9115 1065.4 33.7865 1065.4 Q38.2743 1065.4 41.2344 1067.5 Q44.1944 1069.57 45.3402 1073.54 M25.3838 1089.65 L42.2529 1089.65 L42.2529 1081.57 Q42.2529 1076.92 40.1204 1074.56 Q37.956 1072.18 33.7865 1072.18 Q29.617 1072.18 27.5163 1074.56 Q25.3838 1076.92 25.3838 1081.57 L25.3838 1089.65 Z" fill="#000000" fill-rule="nonzero" fill-opacity="1" /><path clip-path="url(#clip210)" d="M48.3321 1023.48 L51.1967 1023.48 L51.1967 1050.41 Q57.2441 1050.02 60.427 1046.78 Q63.578 1043.5 63.578 1037.67 Q63.578 1034.3 62.7505 1031.15 Q61.9229 1027.97 60.2678 1024.85 L65.806 1024.85 Q67.1428 1028 67.843 1031.31 Q68.5432 1034.62 68.5432 1038.02 Q68.5432 1046.55 63.578 1051.55 Q58.6127 1056.52 50.1464 1056.52 Q41.3935 1056.52 36.2691 1051.81 Q31.1129 1047.06 31.1129 1039.04 Q31.1129 1031.85 35.7599 1027.68 Q40.375 1023.48 48.3321 1023.48 M46.6134 1029.33 Q41.8073 1029.4 38.9427 1032.04 Q36.0781 1034.65 36.0781 1038.98 Q36.0781 1043.88 38.8472 1046.84 Q41.6163 1049.77 46.6452 1050.21 L46.6134 1029.33 Z" fill="#000000" fill-rule="nonzero" fill-opacity="1" /><path clip-path="url(#clip210)" d="M62.273 1008.2 L81.1792 1008.2 L81.1792 1014.09 L31.9723 1014.09 L31.9723 1008.2 L37.3831 1008.2 Q34.2003 1006.35 32.6725 1003.55 Q31.1129 1000.72 31.1129 996.806 Q31.1129 990.313 36.2691 986.271 Q41.4253 982.197 49.8281 982.197 Q58.2308 982.197 63.387 986.271 Q68.5432 990.313 68.5432 996.806 Q68.5432 1000.72 67.0155 1003.55 Q65.4559 1006.35 62.273 1008.2 M49.8281 988.276 Q43.3669 988.276 39.7066 990.95 Q36.0145 993.591 36.0145 998.238 Q36.0145 1002.89 39.7066 1005.56 Q43.3669 1008.2 49.8281 1008.2 Q56.2893 1008.2 59.9814 1005.56 Q63.6417 1002.89 63.6417 998.238 Q63.6417 993.591 59.9814 990.95 Q56.2893 988.276 49.8281 988.276 Z" fill="#000000" fill-rule="nonzero" fill-opacity="1" /><path clip-path="url(#clip210)" d="M37.4468 951.832 Q36.8739 952.819 36.6192 953.997 Q36.3328 955.142 36.3328 956.543 Q36.3328 961.508 39.5793 964.182 Q42.794 966.824 48.8414 966.824 L67.6202 966.824 L67.6202 972.712 L31.9723 972.712 L31.9723 966.824 L37.5104 966.824 Q34.2639 964.977 32.7043 962.017 Q31.1129 959.057 31.1129 954.824 Q31.1129 954.219 31.2084 953.487 Q31.272 952.755 31.4312 951.864 L37.4468 951.832 Z" fill="#000000" fill-rule="nonzero" fill-opacity="1" /><path clip-path="url(#clip210)" d="M36.0781 933.308 Q36.0781 938.019 39.7703 940.756 Q43.4305 943.493 49.8281 943.493 Q56.2256 943.493 59.9177 940.788 Q63.578 938.051 63.578 933.308 Q63.578 928.629 59.8859 925.892 Q56.1938 923.155 49.8281 923.155 Q43.4942 923.155 39.8021 925.892 Q36.0781 928.629 36.0781 933.308 M31.1129 933.308 Q31.1129 925.669 36.0781 921.309 Q41.0434 916.948 49.8281 916.948 Q58.5809 916.948 63.578 921.309 Q68.5432 925.669 68.5432 933.308 Q68.5432 940.979 63.578 945.339 Q58.5809 949.668 49.8281 949.668 Q41.0434 949.668 36.0781 945.339 Q31.1129 940.979 31.1129 933.308 Z" fill="#000000" fill-rule="nonzero" fill-opacity="1" /><path clip-path="url(#clip210)" d="M37.3831 883.783 L18.095 883.783 L18.095 877.926 L67.6202 877.926 L67.6202 883.783 L62.273 883.783 Q65.4559 885.629 67.0155 888.462 Q68.5432 891.263 68.5432 895.209 Q68.5432 901.67 63.387 905.745 Q58.2308 909.787 49.8281 909.787 Q41.4253 909.787 36.2691 905.745 Q31.1129 901.67 31.1129 895.209 Q31.1129 891.263 32.6725 888.462 Q34.2003 885.629 37.3831 883.783 M49.8281 903.739 Q56.2893 903.739 59.9814 901.098 Q63.6417 898.424 63.6417 893.777 Q63.6417 889.13 59.9814 886.456 Q56.2893 883.783 49.8281 883.783 Q43.3669 883.783 39.7066 886.456 Q36.0145 889.13 36.0145 893.777 Q36.0145 898.424 39.7066 901.098 Q43.3669 903.739 49.8281 903.739 Z" fill="#000000" fill-rule="nonzero" fill-opacity="1" /><path clip-path="url(#clip210)" d="M53.552 866.468 L31.9723 866.468 L31.9723 860.612 L53.3292 860.612 Q58.3899 860.612 60.9362 858.638 Q63.4507 856.665 63.4507 852.718 Q63.4507 847.976 60.427 845.239 Q57.4033 842.469 52.1834 842.469 L31.9723 842.469 L31.9723 836.613 L67.6202 836.613 L67.6202 842.469 L62.1457 842.469 Q65.3922 844.602 66.9836 847.435 Q68.5432 850.236 68.5432 853.96 Q68.5432 860.102 64.7238 863.285 Q60.9044 866.468 53.552 866.468 M31.1129 851.732 L31.1129 851.732 Z" fill="#000000" fill-rule="nonzero" fill-opacity="1" /><path clip-path="url(#clip210)" d="M33.3409 798.896 L38.8154 798.896 Q37.4468 801.379 36.7784 803.893 Q36.0781 806.376 36.0781 808.922 Q36.0781 814.619 39.7066 817.77 Q43.3032 820.922 49.8281 820.922 Q56.3529 820.922 59.9814 817.77 Q63.578 814.619 63.578 808.922 Q63.578 806.376 62.9096 803.893 Q62.2094 801.379 60.8407 798.896 L66.2516 798.896 Q67.3974 801.347 67.9703 803.989 Q68.5432 806.599 68.5432 809.559 Q68.5432 817.611 63.4825 822.354 Q58.4218 827.096 49.8281 827.096 Q41.1071 827.096 36.11 822.322 Q31.1129 817.516 31.1129 809.177 Q31.1129 806.471 31.6858 803.893 Q32.2269 801.315 33.3409 798.896 Z" fill="#000000" fill-rule="nonzero" fill-opacity="1" /><path clip-path="url(#clip210)" d="M21.8508 782.918 L31.9723 782.918 L31.9723 770.855 L36.5237 770.855 L36.5237 782.918 L55.8755 782.918 Q60.236 782.918 61.4773 781.741 Q62.7186 780.531 62.7186 776.871 L62.7186 770.855 L67.6202 770.855 L67.6202 776.871 Q67.6202 783.65 65.1058 786.228 Q62.5595 788.807 55.8755 788.807 L36.5237 788.807 L36.5237 793.103 L31.9723 793.103 L31.9723 788.807 L21.8508 788.807 L21.8508 782.918 Z" fill="#000000" fill-rule="nonzero" fill-opacity="1" /><path clip-path="url(#clip210)" d="M31.9723 763.153 L31.9723 757.296 L67.6202 757.296 L67.6202 763.153 L31.9723 763.153 M18.095 763.153 L18.095 757.296 L25.5111 757.296 L25.5111 763.153 L18.095 763.153 Z" fill="#000000" fill-rule="nonzero" fill-opacity="1" /><path clip-path="url(#clip210)" d="M36.0781 731.229 Q36.0781 735.939 39.7703 738.677 Q43.4305 741.414 49.8281 741.414 Q56.2256 741.414 59.9177 738.708 Q63.578 735.971 63.578 731.229 Q63.578 726.55 59.8859 723.813 Q56.1938 721.075 49.8281 721.075 Q43.4942 721.075 39.8021 723.813 Q36.0781 726.55 36.0781 731.229 M31.1129 731.229 Q31.1129 723.59 36.0781 719.229 Q41.0434 714.869 49.8281 714.869 Q58.5809 714.869 63.578 719.229 Q68.5432 723.59 68.5432 731.229 Q68.5432 738.899 63.578 743.26 Q58.5809 747.589 49.8281 747.589 Q41.0434 747.589 36.0781 743.26 Q31.1129 738.899 31.1129 731.229 Z" fill="#000000" fill-rule="nonzero" fill-opacity="1" /><path clip-path="url(#clip210)" d="M46.1041 675.529 L67.6202 675.529 L67.6202 681.385 L46.2951 681.385 Q41.2344 681.385 38.7199 683.359 Q36.2055 685.332 36.2055 689.279 Q36.2055 694.021 39.2292 696.758 Q42.2529 699.496 47.4728 699.496 L67.6202 699.496 L67.6202 705.384 L31.9723 705.384 L31.9723 699.496 L37.5104 699.496 Q34.2957 697.395 32.7043 694.562 Q31.1129 691.698 31.1129 687.974 Q31.1129 681.831 34.9323 678.68 Q38.7199 675.529 46.1041 675.529 Z" fill="#000000" fill-rule="nonzero" fill-opacity="1" /><path clip-path="url(#clip210)" d="M46.1041 613.495 L67.6202 613.495 L67.6202 619.351 L46.2951 619.351 Q41.2344 619.351 38.7199 621.325 Q36.2055 623.298 36.2055 627.245 Q36.2055 631.987 39.2292 634.725 Q42.2529 637.462 47.4728 637.462 L67.6202 637.462 L67.6202 643.35 L31.9723 643.35 L31.9723 637.462 L37.5104 637.462 Q34.2957 635.361 32.7043 632.528 Q31.1129 629.664 31.1129 625.94 Q31.1129 619.797 34.9323 616.646 Q38.7199 613.495 46.1041 613.495 Z" fill="#000000" fill-rule="nonzero" fill-opacity="1" /><path clip-path="url(#clip210)" d="M53.552 602.419 L31.9723 602.419 L31.9723 596.562 L53.3292 596.562 Q58.3899 596.562 60.9362 594.589 Q63.4507 592.615 63.4507 588.669 Q63.4507 583.926 60.427 581.189 Q57.4033 578.42 52.1834 578.42 L31.9723 578.42 L31.9723 572.563 L67.6202 572.563 L67.6202 578.42 L62.1457 578.42 Q65.3922 580.552 66.9836 583.385 Q68.5432 586.186 68.5432 589.91 Q68.5432 596.053 64.7238 599.236 Q60.9044 602.419 53.552 602.419 M31.1129 587.682 L31.1129 587.682 Z" fill="#000000" fill-rule="nonzero" fill-opacity="1" /><path clip-path="url(#clip210)" d="M38.8154 532.746 Q34.8687 530.55 32.9908 527.494 Q31.1129 524.439 31.1129 520.301 Q31.1129 514.731 35.0278 511.707 Q38.9109 508.684 46.1041 508.684 L67.6202 508.684 L67.6202 514.572 L46.2951 514.572 Q41.1707 514.572 38.6881 516.386 Q36.2055 518.2 36.2055 521.924 Q36.2055 526.476 39.2292 529.118 Q42.2529 531.759 47.4728 531.759 L67.6202 531.759 L67.6202 537.648 L46.2951 537.648 Q41.1389 537.648 38.6881 539.462 Q36.2055 541.276 36.2055 545.064 Q36.2055 549.551 39.261 552.193 Q42.2847 554.835 47.4728 554.835 L67.6202 554.835 L67.6202 560.723 L31.9723 560.723 L31.9723 554.835 L37.5104 554.835 Q34.2321 552.83 32.6725 550.029 Q31.1129 547.228 31.1129 543.377 Q31.1129 539.494 33.0863 536.788 Q35.0596 534.051 38.8154 532.746 Z" fill="#000000" fill-rule="nonzero" fill-opacity="1" /><path clip-path="url(#clip210)" d="M49.8281 471.412 Q43.3669 471.412 39.7066 474.086 Q36.0145 476.728 36.0145 481.375 Q36.0145 486.022 39.7066 488.695 Q43.3669 491.337 49.8281 491.337 Q56.2893 491.337 59.9814 488.695 Q63.6417 486.022 63.6417 481.375 Q63.6417 476.728 59.9814 474.086 Q56.2893 471.412 49.8281 471.412 M37.3831 491.337 Q34.2003 489.491 32.6725 486.69 Q31.1129 483.857 31.1129 479.942 Q31.1129 473.449 36.2691 469.407 Q41.4253 465.333 49.8281 465.333 Q58.2308 465.333 63.387 469.407 Q68.5432 473.449 68.5432 479.942 Q68.5432 483.857 67.0155 486.69 Q65.4559 489.491 62.273 491.337 L67.6202 491.337 L67.6202 497.225 L18.095 497.225 L18.095 491.337 L37.3831 491.337 Z" fill="#000000" fill-rule="nonzero" fill-opacity="1" /><path clip-path="url(#clip210)" d="M48.3321 425.134 L51.1967 425.134 L51.1967 452.061 Q57.2441 451.679 60.427 448.432 Q63.578 445.154 63.578 439.329 Q63.578 435.955 62.7505 432.804 Q61.9229 429.622 60.2678 426.502 L65.806 426.502 Q67.1428 429.653 67.843 432.964 Q68.5432 436.274 68.5432 439.679 Q68.5432 448.209 63.578 453.206 Q58.6127 458.172 50.1464 458.172 Q41.3935 458.172 36.2691 453.461 Q31.1129 448.719 31.1129 440.698 Q31.1129 433.505 35.7599 429.335 Q40.375 425.134 48.3321 425.134 M46.6134 430.99 Q41.8073 431.054 38.9427 433.696 Q36.0781 436.306 36.0781 440.634 Q36.0781 445.536 38.8472 448.496 Q41.6163 451.424 46.6452 451.87 L46.6134 430.99 Z" fill="#000000" fill-rule="nonzero" fill-opacity="1" /><path clip-path="url(#clip210)" d="M37.4468 394.865 Q36.8739 395.851 36.6192 397.029 Q36.3328 398.175 36.3328 399.575 Q36.3328 404.541 39.5793 407.214 Q42.794 409.856 48.8414 409.856 L67.6202 409.856 L67.6202 415.744 L31.9723 415.744 L31.9723 409.856 L37.5104 409.856 Q34.2639 408.01 32.7043 405.05 Q31.1129 402.09 31.1129 397.857 Q31.1129 397.252 31.2084 396.52 Q31.272 395.788 31.4312 394.897 L37.4468 394.865 Z" fill="#000000" fill-rule="nonzero" fill-opacity="1" /><path clip-path="url(#clip212)" d="M355.627 1313.55 L382.749 1305.85 L409.871 1298.56 L436.993 1303.83 L464.115 1302.17 L491.237 1298.99 L518.359 1298.8 L545.481 1285.5 L572.603 1288.64 L599.725 1296.2 L626.847 1307.9 L653.969 1303.91 L681.091 1297.18 L708.213 1302.71 L735.336 1294.78 L762.458 1277.49 L789.58 1263.96 L816.702 1254.23 L843.824 1219.28 L870.946 1193.05 L898.068 1145.37 L925.19 1104.3 L952.312 1060.74 L979.434 1010.22 L1006.56 963.57 L1033.68 961.942 L1060.8 998.077 L1087.92 1022.93 L1115.04 1030.58 L1142.17 1085.7 L1169.29 1107.89 L1196.41 1149.06 L1223.53 1170.63 L1250.65 1214.3 L1277.78 1211.37 L1304.9 1238.28 L1332.02 1230.66 L1359.14 1233.82 L1386.26 1247.13 L1413.39 1267.04 L1440.51 1295.23 L1467.63 1318.11 L1494.75 1329.38 L1521.87 1325.88 L1549 1336.78 L1576.12 1341.95 L1603.24 1346.22 L1630.36 1348.04 L1657.48 1346.87 L1684.61 1346.81 L1711.73 1346.64 L1738.85 1347.62 L1765.97 1349.94 L1793.09 1350.96 L1820.22 1351.86 L1847.34 1352.94 L1874.46 1352.62 L1901.58 1352.01 L1928.7 1350.39 L1955.83 1351.59 L1982.95 1353.37 L2010.07 1355.76 L2037.19 1357.1 L2064.31 1355.06 L2091.44 1354.47 L2118.56 1354.57 L2145.68 1356.56 L2172.8 1357.22 L2199.92 1356.63 L2227.05 1355.6 L2254.17 1354.16 L2281.29 1354.3 L2308.41 1354.51 L2335.53 1356.87 L2362.66 1357.61 L2389.78 1358.95 L2416.9 1360.16 L2444.02 1359.74 L2471.14 1359.83 L2498.27 1360.6 L2525.39 1362.36 L2552.51 1363.83 L2579.63 1364.88 L2606.76 1365.92 L2633.88 1366.48 L2661 1367.18 L2688.12 1367.02 L2715.24 1368.04 L2742.37 1369.19 L2769.49 1369.94 L2796.61 1370.71 L2823.73 1371.29 L2850.85 1371.92 L2877.98 1372.37 L2905.1 1372.67 L2932.22 1373.14 L2959.34 1373.47 L2986.46 1373.84 L3013.59 1374.16 L3040.71 1374.46 L3040.71 1175.65 L3013.59 1187.98 L2986.46 1200.22 L2959.34 1211.94 L2932.22 1220.44 L2905.1 1227.77 L2877.98 1236.96 L2850.85 1242.64 L2823.73 1246.54 L2796.61 1247.42 L2769.49 1254.12 L2742.37 1251.95 L2715.24 1253.5 L2688.12 1250.44 L2661 1256.22 L2633.88 1258.42 L2606.76 1265.61 L2579.63 1266.9 L2552.51 1266.8 L2525.39 1266.21 L2498.27 1259.81 L2471.14 1262.38 L2444.02 1268.73 L2416.9 1273.77 L2389.78 1271.06 L2362.66 1264.77 L2335.53 1270.38 L2308.41 1265.98 L2281.29 1265.77 L2254.17 1270.67 L2227.05 1276.17 L2199.92 1282.21 L2172.8 1289.6 L2145.68 1291.67 L2118.56 1281.49 L2091.44 1285.74 L2064.31 1296.05 L2037.19 1301.17 L2010.07 1296.27 L1982.95 1292.79 L1955.83 1290.76 L1928.7 1289.96 L1901.58 1295.63 L1874.46 1301.88 L1847.34 1303.8 L1820.22 1308.36 L1793.09 1302.73 L1765.97 1301.83 L1738.85 1298.89 L1711.73 1299.29 L1684.61 1301.85 L1657.48 1303.75 L1630.36 1304.27 L1603.24 1302.91 L1576.12 1299.86 L1549 1286.27 L1521.87 1267.4 L1494.75 1276.76 L1467.63 1253.35 L1440.51 1213.36 L1413.39 1154.78 L1386.26 1125.18 L1359.14 1110.02 L1332.02 1096.66 L1304.9 1105.72 L1277.78 1063.57 L1250.65 1049.64 L1223.53 967.138 L1196.41 918.681 L1169.29 815.145 L1142.17 776.408 L1115.04 638.083 L1087.92 580.004 L1060.8 454.884 L1033.68 277.046 L1006.56 154.542 L979.434 129.769 L952.312 116.48 L925.19 258.927 L898.068 417.239 L870.946 537.551 L843.824 519.666 L816.702 756.419 L789.58 748.805 L762.458 829.517 L735.336 777.333 L708.213 861.681 L681.091 896.648 L653.969 883.662 L626.847 824.969 L599.725 811.566 L572.603 765.326 L545.481 802.76 L518.359 753.083 L491.237 754.759 L464.115 749.886 L436.993 722.743 L409.871 587.649 L382.749 434.94 L355.627 407.039  Z" fill="#006400" fill-rule="evenodd" fill-opacity="0.5"/>
<polyline clip-path="url(#clip212)" style="stroke:#006400; stroke-linecap:round; stroke-linejoin:round; stroke-width:4; stroke-opacity:1; fill:none" points="355.627,1023.15 382.749,1048.08 409.871,1075.66 436.993,1096.02 464.115,1103.17 491.237,1109.94 518.359,1103.13 545.481,1104.68 572.603,1118.55 599.725,1123.43 626.847,1137.97 653.969,1145.74 681.091,1148.91 708.213,1142.46 735.336,1131.23 762.458,1112.95 789.58,1084.48 816.702,1059.29 843.824,1007.14 870.946,955.566 898.068,868.782 925.19,797.959 952.312,713.494 979.434,696.019 1006.56,648.555 1033.68,678.249 1060.8,773.736 1087.92,832.665 1115.04,859.932 1142.17,951.695 1169.29,986.045 1196.41,1048.25 1223.53,1081.15 1250.65,1140.16 1277.78,1143.35 1304.9,1179.19 1332.02,1172.28 1359.14,1179.08 1386.26,1193.4 1413.39,1219.39 1440.51,1256.32 1467.63,1288.93 1494.75,1304.53 1521.87,1299.96 1549,1313.84 1576.12,1322.73 1603.24,1326.93 1630.36,1329.39 1657.48,1328.09 1684.61,1327.14 1711.73,1324.79 1738.85,1328.03 1765.97,1329.49 1793.09,1330.66 1820.22,1333.56 1847.34,1331.7 1874.46,1331.24 1901.58,1329.07 1928.7,1326.53 1955.83,1326.98 1982.95,1329.17 2010.07,1331.13 2037.19,1333.37 2064.31,1331.07 2091.44,1327.76 2118.56,1326.38 2145.68,1330.59 2172.8,1331.26 2199.92,1329.63 2227.05,1325.67 2254.17,1322.62 2281.29,1321.73 2308.41,1321.85 2335.53,1323.73 2362.66,1323.22 2389.78,1326.3 2416.9,1327.25 2444.02,1326.56 2471.14,1324.63 2498.27,1324.81 2525.39,1328.06 2552.51,1330.04 2579.63,1331.29 2606.76,1331.57 2633.88,1331.01 2661,1330.65 2688.12,1329.38 2715.24,1331.12 2742.37,1332.46 2769.49,1333.34 2796.61,1333.65 2823.73,1333.78 2850.85,1333.76 2877.98,1333.43 2905.1,1333.06 2932.22,1332.14 2959.34,1331.13 2986.46,1329.95 3013.59,1328.61 3040.71,1327.12 "/>
<polyline clip-path="url(#clip212)" style="stroke:#000000; stroke-linecap:round; stroke-linejoin:round; stroke-width:4; stroke-opacity:1; fill:none" stroke-dasharray="16, 10" points="-2571.11,1256.97 5967.44,1256.97 "/>
<path clip-path="url(#clip210)" d="M2599.25 226.869 L3026.39 226.869 L3026.39 123.189 L2599.25 123.189  Z" fill="#ffffff" fill-rule="evenodd" fill-opacity="1"/>
<polyline clip-path="url(#clip210)" style="stroke:#000000; stroke-linecap:round; stroke-linejoin:round; stroke-width:4; stroke-opacity:1; fill:none" points="2599.25,226.869 3026.39,226.869 3026.39,123.189 2599.25,123.189 2599.25,226.869 "/>
<polyline clip-path="url(#clip210)" style="stroke:#000000; stroke-linecap:round; stroke-linejoin:round; stroke-width:4; stroke-opacity:1; fill:none" stroke-dasharray="16, 10" points="2630.87,175.029 2820.62,175.029 "/>
<path clip-path="url(#clip210)" d="M2868.63 176.105 Q2870.13 176.615 2871.55 178.281 Q2872.98 179.948 2874.42 182.865 L2879.16 192.309 L2874.14 192.309 L2869.72 183.443 Q2868 179.971 2866.38 178.837 Q2864.79 177.703 2862.01 177.703 L2856.92 177.703 L2856.92 192.309 L2852.24 192.309 L2852.24 157.749 L2862.8 157.749 Q2868.72 157.749 2871.64 160.226 Q2874.56 162.703 2874.56 167.703 Q2874.56 170.966 2873.03 173.119 Q2871.52 175.272 2868.63 176.105 M2856.92 161.592 L2856.92 173.86 L2862.8 173.86 Q2866.18 173.86 2867.89 172.309 Q2869.62 170.735 2869.62 167.703 Q2869.62 164.67 2867.89 163.142 Q2866.18 161.592 2862.8 161.592 L2856.92 161.592 Z" fill="#000000" fill-rule="nonzero" fill-opacity="1" /><path clip-path="url(#clip210)" d="M2889.21 159.022 L2889.21 166.383 L2897.98 166.383 L2897.98 169.693 L2889.21 169.693 L2889.21 183.767 Q2889.21 186.939 2890.06 187.841 Q2890.94 188.744 2893.61 188.744 L2897.98 188.744 L2897.98 192.309 L2893.61 192.309 Q2888.68 192.309 2886.8 190.48 Q2884.93 188.628 2884.93 183.767 L2884.93 169.693 L2881.8 169.693 L2881.8 166.383 L2884.93 166.383 L2884.93 159.022 L2889.21 159.022 Z" fill="#000000" fill-rule="nonzero" fill-opacity="1" /><path clip-path="url(#clip210)" d="M2919.21 170.781 L2948.88 170.781 L2948.88 174.67 L2919.21 174.67 L2919.21 170.781 M2919.21 180.226 L2948.88 180.226 L2948.88 184.161 L2919.21 184.161 L2919.21 180.226 Z" fill="#000000" fill-rule="nonzero" fill-opacity="1" /><path clip-path="url(#clip210)" d="M2974.86 188.374 L2982.49 188.374 L2982.49 162.008 L2974.18 163.675 L2974.18 159.416 L2982.45 157.749 L2987.12 157.749 L2987.12 188.374 L2994.76 188.374 L2994.76 192.309 L2974.86 192.309 L2974.86 188.374 Z" fill="#000000" fill-rule="nonzero" fill-opacity="1" /></svg>
