<?xml version="1.0" encoding="utf-8"?>
<svg xmlns="http://www.w3.org/2000/svg" xmlns:xlink="http://www.w3.org/1999/xlink" width="800" height="400" viewBox="0 0 3200 1600">
<defs>
  <clipPath id="clip620">
    <rect x="0" y="0" width="3200" height="1600"/>
  </clipPath>
</defs>
<path clip-path="url(#clip620)" d="M0 1600 L3200 1600 L3200 0 L0 0  Z" fill="#ffffff" fill-rule="evenodd" fill-opacity="1"/>
<defs>
  <clipPath id="clip621">
    <rect x="640" y="0" width="2241" height="1600"/>
  </clipPath>
</defs>
<path clip-path="url(#clip620)" d="M275.075 1412.2 L3121.26 1412.2 L3121.26 78.7402 L275.075 78.7402  Z" fill="#ffffff" fill-rule="evenodd" fill-opacity="1"/>
<defs>
  <clipPath id="clip622">
    <rect x="275" y="78" width="2847" height="1334"/>
  </clipPath>
</defs>
<polyline clip-path="url(#clip622)" style="stroke:#000000; stroke-linecap:round; stroke-linejoin:round; stroke-width:2; stroke-opacity:0.1; fill:none" points="464.115,1412.2 464.115,78.7402 "/>
<polyline clip-path="url(#clip622)" style="stroke:#000000; stroke-linecap:round; stroke-linejoin:round; stroke-width:2; stroke-opacity:0.1; fill:none" points="1304.9,1412.2 1304.9,78.7402 "/>
<polyline clip-path="url(#clip622)" style="stroke:#000000; stroke-linecap:round; stroke-linejoin:round; stroke-width:2; stroke-opacity:0.1; fill:none" points="2118.56,1412.2 2118.56,78.7402 "/>
<polyline clip-path="url(#clip622)" style="stroke:#000000; stroke-linecap:round; stroke-linejoin:round; stroke-width:2; stroke-opacity:0.1; fill:none" points="2959.34,1412.2 2959.34,78.7402 "/>
<polyline clip-path="url(#clip620)" style="stroke:#000000; stroke-linecap:round; stroke-linejoin:round; stroke-width:4; stroke-opacity:1; fill:none" points="275.075,1412.2 3121.26,1412.2 "/>
<polyline clip-path="url(#clip620)" style="stroke:#000000; stroke-linecap:round; stroke-linejoin:round; stroke-width:4; stroke-opacity:1; fill:none" points="464.115,1412.2 464.115,1393.31 "/>
<polyline clip-path="url(#clip620)" style="stroke:#000000; stroke-linecap:round; stroke-linejoin:round; stroke-width:4; stroke-opacity:1; fill:none" points="1304.9,1412.2 1304.9,1393.31 "/>
<polyline clip-path="url(#clip620)" style="stroke:#000000; stroke-linecap:round; stroke-linejoin:round; stroke-width:4; stroke-opacity:1; fill:none" points="2118.56,1412.2 2118.56,1393.31 "/>
<polyline clip-path="url(#clip620)" style="stroke:#000000; stroke-linecap:round; stroke-linejoin:round; stroke-width:4; stroke-opacity:1; fill:none" points="2959.34,1412.2 2959.34,1393.31 "/>
<path clip-path="url(#clip620)" d="M335.91 1477.07 L352.229 1477.07 L352.229 1481 L330.285 1481 L330.285 1477.07 Q332.947 1474.31 337.53 1469.68 Q342.137 1465.03 343.317 1463.69 Q345.563 1461.17 346.442 1459.43 Q347.345 1457.67 347.345 1455.98 Q347.345 1453.23 345.401 1451.49 Q343.479 1449.75 340.378 1449.75 Q338.178 1449.75 335.725 1450.52 Q333.294 1451.28 330.516 1452.83 L330.516 1448.11 Q333.341 1446.98 335.794 1446.4 Q338.248 1445.82 340.285 1445.82 Q345.655 1445.82 348.85 1448.5 Q352.044 1451.19 352.044 1455.68 Q352.044 1457.81 351.234 1459.73 Q350.447 1461.63 348.34 1464.22 Q347.762 1464.89 344.66 1468.11 Q341.558 1471.3 335.91 1477.07 Z" fill="#000000" fill-rule="nonzero" fill-opacity="1" /><path clip-path="url(#clip620)" d="M372.044 1449.52 Q368.433 1449.52 366.604 1453.09 Q364.799 1456.63 364.799 1463.76 Q364.799 1470.86 366.604 1474.43 Q368.433 1477.97 372.044 1477.97 Q375.678 1477.97 377.484 1474.43 Q379.312 1470.86 379.312 1463.76 Q379.312 1456.63 377.484 1453.09 Q375.678 1449.52 372.044 1449.52 M372.044 1445.82 Q377.854 1445.82 380.91 1450.43 Q383.988 1455.01 383.988 1463.76 Q383.988 1472.49 380.91 1477.09 Q377.854 1481.68 372.044 1481.68 Q366.234 1481.68 363.155 1477.09 Q360.1 1472.49 360.1 1463.76 Q360.1 1455.01 363.155 1450.43 Q366.234 1445.82 372.044 1445.82 Z" fill="#000000" fill-rule="nonzero" fill-opacity="1" /><path clip-path="url(#clip620)" d="M396.234 1477.07 L412.553 1477.07 L412.553 1481 L390.609 1481 L390.609 1477.07 Q393.271 1474.31 397.854 1469.68 Q402.461 1465.03 403.641 1463.69 Q405.886 1461.17 406.766 1459.43 Q407.669 1457.67 407.669 1455.98 Q407.669 1453.23 405.724 1451.49 Q403.803 1449.75 400.701 1449.75 Q398.502 1449.75 396.049 1450.52 Q393.618 1451.28 390.84 1452.83 L390.84 1448.11 Q393.664 1446.98 396.118 1446.4 Q398.572 1445.82 400.609 1445.82 Q405.979 1445.82 409.173 1448.5 Q412.368 1451.19 412.368 1455.68 Q412.368 1457.81 411.558 1459.73 Q410.771 1461.63 408.664 1464.22 Q408.085 1464.89 404.984 1468.11 Q401.882 1471.3 396.234 1477.07 Z" fill="#000000" fill-rule="nonzero" fill-opacity="1" /><path clip-path="url(#clip620)" d="M432.368 1449.52 Q428.757 1449.52 426.928 1453.09 Q425.122 1456.63 425.122 1463.76 Q425.122 1470.86 426.928 1474.43 Q428.757 1477.97 432.368 1477.97 Q436.002 1477.97 437.808 1474.43 Q439.636 1470.86 439.636 1463.76 Q439.636 1456.63 437.808 1453.09 Q436.002 1449.52 432.368 1449.52 M432.368 1445.82 Q438.178 1445.82 441.233 1450.43 Q444.312 1455.01 444.312 1463.76 Q444.312 1472.49 441.233 1477.09 Q438.178 1481.68 432.368 1481.68 Q426.558 1481.68 423.479 1477.09 Q420.423 1472.49 420.423 1463.76 Q420.423 1455.01 423.479 1450.43 Q426.558 1445.82 432.368 1445.82 Z" fill="#000000" fill-rule="nonzero" fill-opacity="1" /><path clip-path="url(#clip620)" d="M449.775 1466.12 L462.252 1466.12 L462.252 1469.92 L449.775 1469.92 L449.775 1466.12 Z" fill="#000000" fill-rule="nonzero" fill-opacity="1" /><path clip-path="url(#clip620)" d="M479.636 1449.52 Q476.025 1449.52 474.196 1453.09 Q472.391 1456.63 472.391 1463.76 Q472.391 1470.86 474.196 1474.43 Q476.025 1477.97 479.636 1477.97 Q483.27 1477.97 485.076 1474.43 Q486.905 1470.86 486.905 1463.76 Q486.905 1456.63 485.076 1453.09 Q483.27 1449.52 479.636 1449.52 M479.636 1445.82 Q485.446 1445.82 488.502 1450.43 Q491.58 1455.01 491.58 1463.76 Q491.58 1472.49 488.502 1477.09 Q485.446 1481.68 479.636 1481.68 Q473.826 1481.68 470.747 1477.09 Q467.692 1472.49 467.692 1463.76 Q467.692 1455.01 470.747 1450.43 Q473.826 1445.82 479.636 1445.82 Z" fill="#000000" fill-rule="nonzero" fill-opacity="1" /><path clip-path="url(#clip620)" d="M513.965 1462.37 Q517.321 1463.09 519.196 1465.36 Q521.094 1467.62 521.094 1470.96 Q521.094 1476.07 517.576 1478.87 Q514.057 1481.68 507.576 1481.68 Q505.4 1481.68 503.085 1481.24 Q500.793 1480.82 498.34 1479.96 L498.34 1475.45 Q500.284 1476.58 502.599 1477.16 Q504.914 1477.74 507.437 1477.74 Q511.835 1477.74 514.127 1476 Q516.441 1474.27 516.441 1470.96 Q516.441 1467.9 514.289 1466.19 Q512.159 1464.45 508.34 1464.45 L504.312 1464.45 L504.312 1460.61 L508.525 1460.61 Q511.974 1460.61 513.803 1459.24 Q515.631 1457.86 515.631 1455.26 Q515.631 1452.6 513.733 1451.19 Q511.858 1449.75 508.34 1449.75 Q506.418 1449.75 504.219 1450.17 Q502.02 1450.59 499.381 1451.47 L499.381 1447.3 Q502.043 1446.56 504.358 1446.19 Q506.696 1445.82 508.756 1445.82 Q514.08 1445.82 517.182 1448.25 Q520.284 1450.66 520.284 1454.78 Q520.284 1457.65 518.64 1459.64 Q516.997 1461.61 513.965 1462.37 Z" fill="#000000" fill-rule="nonzero" fill-opacity="1" /><path clip-path="url(#clip620)" d="M527.205 1466.12 L539.682 1466.12 L539.682 1469.92 L527.205 1469.92 L527.205 1466.12 Z" fill="#000000" fill-rule="nonzero" fill-opacity="1" /><path clip-path="url(#clip620)" d="M557.066 1449.52 Q553.455 1449.52 551.626 1453.09 Q549.821 1456.63 549.821 1463.76 Q549.821 1470.86 551.626 1474.43 Q553.455 1477.97 557.066 1477.97 Q560.7 1477.97 562.506 1474.43 Q564.335 1470.86 564.335 1463.76 Q564.335 1456.63 562.506 1453.09 Q560.7 1449.52 557.066 1449.52 M557.066 1445.82 Q562.876 1445.82 565.932 1450.43 Q569.011 1455.01 569.011 1463.76 Q569.011 1472.49 565.932 1477.09 Q562.876 1481.68 557.066 1481.68 Q551.256 1481.68 548.177 1477.09 Q545.122 1472.49 545.122 1463.76 Q545.122 1455.01 548.177 1450.43 Q551.256 1445.82 557.066 1445.82 Z" fill="#000000" fill-rule="nonzero" fill-opacity="1" /><path clip-path="url(#clip620)" d="M578.038 1477.07 L585.677 1477.07 L585.677 1450.7 L577.367 1452.37 L577.367 1448.11 L585.631 1446.44 L590.307 1446.44 L590.307 1477.07 L597.946 1477.07 L597.946 1481 L578.038 1481 L578.038 1477.07 Z" fill="#000000" fill-rule="nonzero" fill-opacity="1" /><path clip-path="url(#clip620)" d="M1176.69 1477.07 L1193.01 1477.07 L1193.01 1481 L1171.07 1481 L1171.07 1477.07 Q1173.73 1474.31 1178.31 1469.68 Q1182.92 1465.03 1184.1 1463.69 Q1186.35 1461.17 1187.22 1459.43 Q1188.13 1457.67 1188.13 1455.98 Q1188.13 1453.23 1186.18 1451.49 Q1184.26 1449.75 1181.16 1449.75 Q1178.96 1449.75 1176.51 1450.52 Q1174.08 1451.28 1171.3 1452.83 L1171.3 1448.11 Q1174.12 1446.98 1176.58 1446.4 Q1179.03 1445.82 1181.07 1445.82 Q1186.44 1445.82 1189.63 1448.5 Q1192.83 1451.19 1192.83 1455.68 Q1192.83 1457.81 1192.02 1459.73 Q1191.23 1461.63 1189.12 1464.22 Q1188.54 1464.89 1185.44 1468.11 Q1182.34 1471.3 1176.69 1477.07 Z" fill="#000000" fill-rule="nonzero" fill-opacity="1" /><path clip-path="url(#clip620)" d="M1212.83 1449.52 Q1209.22 1449.52 1207.39 1453.09 Q1205.58 1456.63 1205.58 1463.76 Q1205.58 1470.86 1207.39 1474.43 Q1209.22 1477.97 1212.83 1477.97 Q1216.46 1477.97 1218.27 1474.43 Q1220.1 1470.86 1220.1 1463.76 Q1220.1 1456.63 1218.27 1453.09 Q1216.46 1449.52 1212.83 1449.52 M1212.83 1445.82 Q1218.64 1445.82 1221.69 1450.43 Q1224.77 1455.01 1224.77 1463.76 Q1224.77 1472.49 1221.69 1477.09 Q1218.64 1481.68 1212.83 1481.68 Q1207.02 1481.68 1203.94 1477.09 Q1200.88 1472.49 1200.88 1463.76 Q1200.88 1455.01 1203.94 1450.43 Q1207.02 1445.82 1212.83 1445.82 Z" fill="#000000" fill-rule="nonzero" fill-opacity="1" /><path clip-path="url(#clip620)" d="M1237.02 1477.07 L1253.34 1477.07 L1253.34 1481 L1231.39 1481 L1231.39 1477.07 Q1234.05 1474.31 1238.64 1469.68 Q1243.24 1465.03 1244.42 1463.69 Q1246.67 1461.17 1247.55 1459.43 Q1248.45 1457.67 1248.45 1455.98 Q1248.45 1453.23 1246.51 1451.49 Q1244.59 1449.75 1241.48 1449.75 Q1239.28 1449.75 1236.83 1450.52 Q1234.4 1451.28 1231.62 1452.83 L1231.62 1448.11 Q1234.45 1446.98 1236.9 1446.4 Q1239.35 1445.82 1241.39 1445.82 Q1246.76 1445.82 1249.96 1448.5 Q1253.15 1451.19 1253.15 1455.68 Q1253.15 1457.81 1252.34 1459.73 Q1251.55 1461.63 1249.45 1464.22 Q1248.87 1464.89 1245.77 1468.11 Q1242.66 1471.3 1237.02 1477.07 Z" fill="#000000" fill-rule="nonzero" fill-opacity="1" /><path clip-path="url(#clip620)" d="M1273.15 1449.52 Q1269.54 1449.52 1267.71 1453.09 Q1265.91 1456.63 1265.91 1463.76 Q1265.91 1470.86 1267.71 1474.43 Q1269.54 1477.97 1273.15 1477.97 Q1276.78 1477.97 1278.59 1474.43 Q1280.42 1470.86 1280.42 1463.76 Q1280.42 1456.63 1278.59 1453.09 Q1276.78 1449.52 1273.15 1449.52 M1273.15 1445.82 Q1278.96 1445.82 1282.02 1450.43 Q1285.09 1455.01 1285.09 1463.76 Q1285.09 1472.49 1282.02 1477.09 Q1278.96 1481.68 1273.15 1481.68 Q1267.34 1481.68 1264.26 1477.09 Q1261.21 1472.49 1261.21 1463.76 Q1261.21 1455.01 1264.26 1450.43 Q1267.34 1445.82 1273.15 1445.82 Z" fill="#000000" fill-rule="nonzero" fill-opacity="1" /><path clip-path="url(#clip620)" d="M1290.56 1466.12 L1303.03 1466.12 L1303.03 1469.92 L1290.56 1469.92 L1290.56 1466.12 Z" fill="#000000" fill-rule="nonzero" fill-opacity="1" /><path clip-path="url(#clip620)" d="M1320.42 1449.52 Q1316.81 1449.52 1314.98 1453.09 Q1313.17 1456.63 1313.17 1463.76 Q1313.17 1470.86 1314.98 1474.43 Q1316.81 1477.97 1320.42 1477.97 Q1324.05 1477.97 1325.86 1474.43 Q1327.69 1470.86 1327.69 1463.76 Q1327.69 1456.63 1325.86 1453.09 Q1324.05 1449.52 1320.42 1449.52 M1320.42 1445.82 Q1326.23 1445.82 1329.28 1450.43 Q1332.36 1455.01 1332.36 1463.76 Q1332.36 1472.49 1329.28 1477.09 Q1326.23 1481.68 1320.42 1481.68 Q1314.61 1481.68 1311.53 1477.09 Q1308.47 1472.49 1308.47 1463.76 Q1308.47 1455.01 1311.53 1450.43 Q1314.61 1445.82 1320.42 1445.82 Z" fill="#000000" fill-rule="nonzero" fill-opacity="1" /><path clip-path="url(#clip620)" d="M1353.43 1450.52 L1341.62 1468.97 L1353.43 1468.97 L1353.43 1450.52 M1352.2 1446.44 L1358.08 1446.44 L1358.08 1468.97 L1363.01 1468.97 L1363.01 1472.86 L1358.08 1472.86 L1358.08 1481 L1353.43 1481 L1353.43 1472.86 L1337.83 1472.86 L1337.83 1468.34 L1352.2 1446.44 Z" fill="#000000" fill-rule="nonzero" fill-opacity="1" /><path clip-path="url(#clip620)" d="M1367.99 1466.12 L1380.46 1466.12 L1380.46 1469.92 L1367.99 1469.92 L1367.99 1466.12 Z" fill="#000000" fill-rule="nonzero" fill-opacity="1" /><path clip-path="url(#clip620)" d="M1397.85 1449.52 Q1394.24 1449.52 1392.41 1453.09 Q1390.6 1456.63 1390.6 1463.76 Q1390.6 1470.86 1392.41 1474.43 Q1394.24 1477.97 1397.85 1477.97 Q1401.48 1477.97 1403.29 1474.43 Q1405.12 1470.86 1405.12 1463.76 Q1405.12 1456.63 1403.29 1453.09 Q1401.48 1449.52 1397.85 1449.52 M1397.85 1445.82 Q1403.66 1445.82 1406.71 1450.43 Q1409.79 1455.01 1409.79 1463.76 Q1409.79 1472.49 1406.71 1477.09 Q1403.66 1481.68 1397.85 1481.68 Q1392.04 1481.68 1388.96 1477.09 Q1385.9 1472.49 1385.9 1463.76 Q1385.9 1455.01 1388.96 1450.43 Q1392.04 1445.82 1397.85 1445.82 Z" fill="#000000" fill-rule="nonzero" fill-opacity="1" /><path clip-path="url(#clip620)" d="M1418.82 1477.07 L1426.46 1477.07 L1426.46 1450.7 L1418.15 1452.37 L1418.15 1448.11 L1426.41 1446.44 L1431.09 1446.44 L1431.09 1477.07 L1438.73 1477.07 L1438.73 1481 L1418.82 1481 L1418.82 1477.07 Z" fill="#000000" fill-rule="nonzero" fill-opacity="1" /><path clip-path="url(#clip620)" d="M1990.35 1477.07 L2006.67 1477.07 L2006.67 1481 L1984.73 1481 L1984.73 1477.07 Q1987.39 1474.31 1991.97 1469.68 Q1996.58 1465.03 1997.76 1463.69 Q2000.01 1461.17 2000.89 1459.43 Q2001.79 1457.67 2001.79 1455.98 Q2001.79 1453.23 1999.84 1451.49 Q1997.92 1449.75 1994.82 1449.75 Q1992.62 1449.75 1990.17 1450.52 Q1987.74 1451.28 1984.96 1452.83 L1984.96 1448.11 Q1987.78 1446.98 1990.24 1446.4 Q1992.69 1445.82 1994.73 1445.82 Q2000.1 1445.82 2003.29 1448.5 Q2006.49 1451.19 2006.49 1455.68 Q2006.49 1457.81 2005.68 1459.73 Q2004.89 1461.63 2002.78 1464.22 Q2002.21 1464.89 1999.1 1468.11 Q1996 1471.3 1990.35 1477.07 Z" fill="#000000" fill-rule="nonzero" fill-opacity="1" /><path clip-path="url(#clip620)" d="M2026.49 1449.52 Q2022.88 1449.52 2021.05 1453.09 Q2019.24 1456.63 2019.24 1463.76 Q2019.24 1470.86 2021.05 1474.43 Q2022.88 1477.97 2026.49 1477.97 Q2030.12 1477.97 2031.93 1474.43 Q2033.76 1470.86 2033.76 1463.76 Q2033.76 1456.63 2031.93 1453.09 Q2030.12 1449.52 2026.49 1449.52 M2026.49 1445.82 Q2032.3 1445.82 2035.35 1450.43 Q2038.43 1455.01 2038.43 1463.76 Q2038.43 1472.49 2035.35 1477.09 Q2032.3 1481.68 2026.49 1481.68 Q2020.68 1481.68 2017.6 1477.09 Q2014.54 1472.49 2014.54 1463.76 Q2014.54 1455.01 2017.6 1450.43 Q2020.68 1445.82 2026.49 1445.82 Z" fill="#000000" fill-rule="nonzero" fill-opacity="1" /><path clip-path="url(#clip620)" d="M2050.68 1477.07 L2067 1477.07 L2067 1481 L2045.05 1481 L2045.05 1477.07 Q2047.71 1474.31 2052.3 1469.68 Q2056.9 1465.03 2058.08 1463.69 Q2060.33 1461.17 2061.21 1459.43 Q2062.11 1457.67 2062.11 1455.98 Q2062.11 1453.23 2060.17 1451.49 Q2058.25 1449.75 2055.14 1449.75 Q2052.95 1449.75 2050.49 1450.52 Q2048.06 1451.28 2045.28 1452.83 L2045.28 1448.11 Q2048.11 1446.98 2050.56 1446.4 Q2053.02 1445.82 2055.05 1445.82 Q2060.42 1445.82 2063.62 1448.5 Q2066.81 1451.19 2066.81 1455.68 Q2066.81 1457.81 2066 1459.73 Q2065.21 1461.63 2063.11 1464.22 Q2062.53 1464.89 2059.43 1468.11 Q2056.33 1471.3 2050.68 1477.07 Z" fill="#000000" fill-rule="nonzero" fill-opacity="1" /><path clip-path="url(#clip620)" d="M2086.81 1449.52 Q2083.2 1449.52 2081.37 1453.09 Q2079.57 1456.63 2079.57 1463.76 Q2079.57 1470.86 2081.37 1474.43 Q2083.2 1477.97 2086.81 1477.97 Q2090.45 1477.97 2092.25 1474.43 Q2094.08 1470.86 2094.08 1463.76 Q2094.08 1456.63 2092.25 1453.09 Q2090.45 1449.52 2086.81 1449.52 M2086.81 1445.82 Q2092.62 1445.82 2095.68 1450.43 Q2098.76 1455.01 2098.76 1463.76 Q2098.76 1472.49 2095.68 1477.09 Q2092.62 1481.68 2086.81 1481.68 Q2081 1481.68 2077.92 1477.09 Q2074.87 1472.49 2074.87 1463.76 Q2074.87 1455.01 2077.92 1450.43 Q2081 1445.82 2086.81 1445.82 Z" fill="#000000" fill-rule="nonzero" fill-opacity="1" /><path clip-path="url(#clip620)" d="M2104.22 1466.12 L2116.7 1466.12 L2116.7 1469.92 L2104.22 1469.92 L2104.22 1466.12 Z" fill="#000000" fill-rule="nonzero" fill-opacity="1" /><path clip-path="url(#clip620)" d="M2134.08 1449.52 Q2130.47 1449.52 2128.64 1453.09 Q2126.83 1456.63 2126.83 1463.76 Q2126.83 1470.86 2128.64 1474.43 Q2130.47 1477.97 2134.08 1477.97 Q2137.71 1477.97 2139.52 1474.43 Q2141.35 1470.86 2141.35 1463.76 Q2141.35 1456.63 2139.52 1453.09 Q2137.71 1449.52 2134.08 1449.52 M2134.08 1445.82 Q2139.89 1445.82 2142.95 1450.43 Q2146.02 1455.01 2146.02 1463.76 Q2146.02 1472.49 2142.95 1477.09 Q2139.89 1481.68 2134.08 1481.68 Q2128.27 1481.68 2125.19 1477.09 Q2122.14 1472.49 2122.14 1463.76 Q2122.14 1455.01 2125.19 1450.43 Q2128.27 1445.82 2134.08 1445.82 Z" fill="#000000" fill-rule="nonzero" fill-opacity="1" /><path clip-path="url(#clip620)" d="M2154.29 1446.44 L2172.64 1446.44 L2172.64 1450.38 L2158.57 1450.38 L2158.57 1458.85 Q2159.59 1458.5 2160.61 1458.34 Q2161.63 1458.16 2162.64 1458.16 Q2168.43 1458.16 2171.81 1461.33 Q2175.19 1464.5 2175.19 1469.92 Q2175.19 1475.49 2171.72 1478.6 Q2168.25 1481.68 2161.93 1481.68 Q2159.75 1481.68 2157.48 1481.3 Q2155.24 1480.93 2152.83 1480.19 L2152.83 1475.49 Q2154.91 1476.63 2157.13 1477.18 Q2159.36 1477.74 2161.83 1477.74 Q2165.84 1477.74 2168.18 1475.63 Q2170.51 1473.53 2170.51 1469.92 Q2170.51 1466.3 2168.18 1464.2 Q2165.84 1462.09 2161.83 1462.09 Q2159.96 1462.09 2158.08 1462.51 Q2156.23 1462.93 2154.29 1463.8 L2154.29 1446.44 Z" fill="#000000" fill-rule="nonzero" fill-opacity="1" /><path clip-path="url(#clip620)" d="M2181.65 1466.12 L2194.13 1466.12 L2194.13 1469.92 L2181.65 1469.92 L2181.65 1466.12 Z" fill="#000000" fill-rule="nonzero" fill-opacity="1" /><path clip-path="url(#clip620)" d="M2211.51 1449.52 Q2207.9 1449.52 2206.07 1453.09 Q2204.26 1456.63 2204.26 1463.76 Q2204.26 1470.86 2206.07 1474.43 Q2207.9 1477.97 2211.51 1477.97 Q2215.14 1477.97 2216.95 1474.43 Q2218.78 1470.86 2218.78 1463.76 Q2218.78 1456.63 2216.95 1453.09 Q2215.14 1449.52 2211.51 1449.52 M2211.51 1445.82 Q2217.32 1445.82 2220.38 1450.43 Q2223.45 1455.01 2223.45 1463.76 Q2223.45 1472.49 2220.38 1477.09 Q2217.32 1481.68 2211.51 1481.68 Q2205.7 1481.68 2202.62 1477.09 Q2199.57 1472.49 2199.57 1463.76 Q2199.57 1455.01 2202.62 1450.43 Q2205.7 1445.82 2211.51 1445.82 Z" fill="#000000" fill-rule="nonzero" fill-opacity="1" /><path clip-path="url(#clip620)" d="M2232.48 1477.07 L2240.12 1477.07 L2240.12 1450.7 L2231.81 1452.37 L2231.81 1448.11 L2240.07 1446.44 L2244.75 1446.44 L2244.75 1477.07 L2252.39 1477.07 L2252.39 1481 L2232.48 1481 L2232.48 1477.07 Z" fill="#000000" fill-rule="nonzero" fill-opacity="1" /><path clip-path="url(#clip620)" d="M2831.14 1477.07 L2847.46 1477.07 L2847.46 1481 L2825.51 1481 L2825.51 1477.07 Q2828.17 1474.31 2832.76 1469.68 Q2837.36 1465.03 2838.54 1463.69 Q2840.79 1461.17 2841.67 1459.43 Q2842.57 1457.67 2842.57 1455.98 Q2842.57 1453.23 2840.63 1451.49 Q2838.71 1449.75 2835.6 1449.75 Q2833.4 1449.75 2830.95 1450.52 Q2828.52 1451.28 2825.74 1452.83 L2825.74 1448.11 Q2828.57 1446.98 2831.02 1446.4 Q2833.47 1445.82 2835.51 1445.82 Q2840.88 1445.82 2844.08 1448.5 Q2847.27 1451.19 2847.27 1455.68 Q2847.27 1457.81 2846.46 1459.73 Q2845.67 1461.63 2843.57 1464.22 Q2842.99 1464.89 2839.89 1468.11 Q2836.78 1471.3 2831.14 1477.07 Z" fill="#000000" fill-rule="nonzero" fill-opacity="1" /><path clip-path="url(#clip620)" d="M2867.27 1449.52 Q2863.66 1449.52 2861.83 1453.09 Q2860.02 1456.63 2860.02 1463.76 Q2860.02 1470.86 2861.83 1474.43 Q2863.66 1477.97 2867.27 1477.97 Q2870.9 1477.97 2872.71 1474.43 Q2874.54 1470.86 2874.54 1463.76 Q2874.54 1456.63 2872.71 1453.09 Q2870.9 1449.52 2867.27 1449.52 M2867.27 1445.82 Q2873.08 1445.82 2876.14 1450.43 Q2879.21 1455.01 2879.21 1463.76 Q2879.21 1472.49 2876.14 1477.09 Q2873.08 1481.68 2867.27 1481.68 Q2861.46 1481.68 2858.38 1477.09 Q2855.33 1472.49 2855.33 1463.76 Q2855.33 1455.01 2858.38 1450.43 Q2861.46 1445.82 2867.27 1445.82 Z" fill="#000000" fill-rule="nonzero" fill-opacity="1" /><path clip-path="url(#clip620)" d="M2891.46 1477.07 L2907.78 1477.07 L2907.78 1481 L2885.83 1481 L2885.83 1477.07 Q2888.5 1474.31 2893.08 1469.68 Q2897.69 1465.03 2898.87 1463.69 Q2901.11 1461.17 2901.99 1459.43 Q2902.89 1457.67 2902.89 1455.98 Q2902.89 1453.23 2900.95 1451.49 Q2899.03 1449.75 2895.93 1449.75 Q2893.73 1449.75 2891.27 1450.52 Q2888.84 1451.28 2886.07 1452.83 L2886.07 1448.11 Q2888.89 1446.98 2891.34 1446.4 Q2893.8 1445.82 2895.83 1445.82 Q2901.21 1445.82 2904.4 1448.5 Q2907.59 1451.19 2907.59 1455.68 Q2907.59 1457.81 2906.78 1459.73 Q2906 1461.63 2903.89 1464.22 Q2903.31 1464.89 2900.21 1468.11 Q2897.11 1471.3 2891.46 1477.07 Z" fill="#000000" fill-rule="nonzero" fill-opacity="1" /><path clip-path="url(#clip620)" d="M2927.59 1449.52 Q2923.98 1449.52 2922.15 1453.09 Q2920.35 1456.63 2920.35 1463.76 Q2920.35 1470.86 2922.15 1474.43 Q2923.98 1477.97 2927.59 1477.97 Q2931.23 1477.97 2933.03 1474.43 Q2934.86 1470.86 2934.86 1463.76 Q2934.86 1456.63 2933.03 1453.09 Q2931.23 1449.52 2927.59 1449.52 M2927.59 1445.82 Q2933.4 1445.82 2936.46 1450.43 Q2939.54 1455.01 2939.54 1463.76 Q2939.54 1472.49 2936.46 1477.09 Q2933.4 1481.68 2927.59 1481.68 Q2921.78 1481.68 2918.71 1477.09 Q2915.65 1472.49 2915.65 1463.76 Q2915.65 1455.01 2918.71 1450.43 Q2921.78 1445.82 2927.59 1445.82 Z" fill="#000000" fill-rule="nonzero" fill-opacity="1" /><path clip-path="url(#clip620)" d="M2945 1466.12 L2957.48 1466.12 L2957.48 1469.92 L2945 1469.92 L2945 1466.12 Z" fill="#000000" fill-rule="nonzero" fill-opacity="1" /><path clip-path="url(#clip620)" d="M2974.86 1449.52 Q2971.25 1449.52 2969.42 1453.09 Q2967.62 1456.63 2967.62 1463.76 Q2967.62 1470.86 2969.42 1474.43 Q2971.25 1477.97 2974.86 1477.97 Q2978.5 1477.97 2980.3 1474.43 Q2982.13 1470.86 2982.13 1463.76 Q2982.13 1456.63 2980.3 1453.09 Q2978.5 1449.52 2974.86 1449.52 M2974.86 1445.82 Q2980.67 1445.82 2983.73 1450.43 Q2986.81 1455.01 2986.81 1463.76 Q2986.81 1472.49 2983.73 1477.09 Q2980.67 1481.68 2974.86 1481.68 Q2969.05 1481.68 2965.97 1477.09 Q2962.92 1472.49 2962.92 1463.76 Q2962.92 1455.01 2965.97 1450.43 Q2969.05 1445.82 2974.86 1445.82 Z" fill="#000000" fill-rule="nonzero" fill-opacity="1" /><path clip-path="url(#clip620)" d="M3005.6 1461.86 Q3002.45 1461.86 3000.6 1464.01 Q2998.77 1466.17 2998.77 1469.92 Q2998.77 1473.64 3000.6 1475.82 Q3002.45 1477.97 3005.6 1477.97 Q3008.75 1477.97 3010.58 1475.82 Q3012.43 1473.64 3012.43 1469.92 Q3012.43 1466.17 3010.58 1464.01 Q3008.75 1461.86 3005.6 1461.86 M3014.89 1447.21 L3014.89 1451.47 Q3013.13 1450.63 3011.32 1450.19 Q3009.54 1449.75 3007.78 1449.75 Q3003.15 1449.75 3000.7 1452.88 Q2998.26 1456 2997.92 1462.32 Q2999.28 1460.31 3001.34 1459.24 Q3003.4 1458.16 3005.88 1458.16 Q3011.09 1458.16 3014.1 1461.33 Q3017.13 1464.48 3017.13 1469.92 Q3017.13 1475.24 3013.98 1478.46 Q3010.83 1481.68 3005.6 1481.68 Q2999.61 1481.68 2996.44 1477.09 Q2993.26 1472.49 2993.26 1463.76 Q2993.26 1455.56 2997.15 1450.7 Q3001.04 1445.82 3007.59 1445.82 Q3009.35 1445.82 3011.14 1446.17 Q3012.94 1446.51 3014.89 1447.21 Z" fill="#000000" fill-rule="nonzero" fill-opacity="1" /><path clip-path="url(#clip620)" d="M3022.43 1466.12 L3034.91 1466.12 L3034.91 1469.92 L3022.43 1469.92 L3022.43 1466.12 Z" fill="#000000" fill-rule="nonzero" fill-opacity="1" /><path clip-path="url(#clip620)" d="M3052.29 1449.52 Q3048.68 1449.52 3046.85 1453.09 Q3045.05 1456.63 3045.05 1463.76 Q3045.05 1470.86 3046.85 1474.43 Q3048.68 1477.97 3052.29 1477.97 Q3055.93 1477.97 3057.73 1474.43 Q3059.56 1470.86 3059.56 1463.76 Q3059.56 1456.63 3057.73 1453.09 Q3055.93 1449.52 3052.29 1449.52 M3052.29 1445.82 Q3058.1 1445.82 3061.16 1450.43 Q3064.24 1455.01 3064.24 1463.76 Q3064.24 1472.49 3061.16 1477.09 Q3058.1 1481.68 3052.29 1481.68 Q3046.48 1481.68 3043.4 1477.09 Q3040.35 1472.49 3040.35 1463.76 Q3040.35 1455.01 3043.4 1450.43 Q3046.48 1445.82 3052.29 1445.82 Z" fill="#000000" fill-rule="nonzero" fill-opacity="1" /><path clip-path="url(#clip620)" d="M3073.26 1477.07 L3080.9 1477.07 L3080.9 1450.7 L3072.59 1452.37 L3072.59 1448.11 L3080.86 1446.44 L3085.53 1446.44 L3085.53 1477.07 L3093.17 1477.07 L3093.17 1481 L3073.26 1481 L3073.26 1477.07 Z" fill="#000000" fill-rule="nonzero" fill-opacity="1" /><path clip-path="url(#clip620)" d="M1631.63 1526.83 L1631.63 1563.78 L1639.4 1563.78 Q1649.23 1563.78 1653.78 1559.33 Q1658.37 1554.87 1658.37 1545.26 Q1658.37 1535.71 1653.78 1531.29 Q1649.23 1526.83 1639.4 1526.83 L1631.63 1526.83 M1625.2 1521.55 L1638.41 1521.55 Q1652.22 1521.55 1658.68 1527.31 Q1665.15 1533.04 1665.15 1545.26 Q1665.15 1557.55 1658.65 1563.31 Q1652.16 1569.07 1638.41 1569.07 L1625.2 1569.07 L1625.2 1521.55 Z" fill="#000000" fill-rule="nonzero" fill-opacity="1" /><path clip-path="url(#clip620)" d="M1691.34 1551.15 Q1684.24 1551.15 1681.51 1552.77 Q1678.77 1554.39 1678.77 1558.31 Q1678.77 1561.43 1680.8 1563.27 Q1682.87 1565.09 1686.41 1565.09 Q1691.28 1565.09 1694.2 1561.65 Q1697.16 1558.18 1697.16 1552.45 L1697.16 1551.15 L1691.34 1551.15 M1703.02 1548.73 L1703.02 1569.07 L1697.16 1569.07 L1697.16 1563.66 Q1695.16 1566.9 1692.17 1568.46 Q1689.18 1569.99 1684.85 1569.99 Q1679.37 1569.99 1676.13 1566.94 Q1672.91 1563.85 1672.91 1558.69 Q1672.91 1552.68 1676.92 1549.62 Q1680.96 1546.57 1688.95 1546.57 L1697.16 1546.57 L1697.16 1545.99 Q1697.16 1541.95 1694.49 1539.75 Q1691.85 1537.53 1687.04 1537.53 Q1683.99 1537.53 1681.09 1538.26 Q1678.19 1538.99 1675.52 1540.45 L1675.52 1535.04 Q1678.74 1533.8 1681.76 1533.2 Q1684.78 1532.56 1687.65 1532.56 Q1695.38 1532.56 1699.2 1536.57 Q1703.02 1540.58 1703.02 1548.73 Z" fill="#000000" fill-rule="nonzero" fill-opacity="1" /><path clip-path="url(#clip620)" d="M1720.88 1523.3 L1720.88 1533.42 L1732.94 1533.42 L1732.94 1537.97 L1720.88 1537.97 L1720.88 1557.32 Q1720.88 1561.68 1722.05 1562.92 Q1723.26 1564.17 1726.92 1564.17 L1732.94 1564.17 L1732.94 1569.07 L1726.92 1569.07 Q1720.14 1569.07 1717.57 1566.55 Q1714.99 1564.01 1714.99 1557.32 L1714.99 1537.97 L1710.69 1537.97 L1710.69 1533.42 L1714.99 1533.42 L1714.99 1523.3 L1720.88 1523.3 Z" fill="#000000" fill-rule="nonzero" fill-opacity="1" /><path clip-path="url(#clip620)" d="M1771.13 1549.78 L1771.13 1552.64 L1744.21 1552.64 Q1744.59 1558.69 1747.84 1561.87 Q1751.11 1565.03 1756.94 1565.03 Q1760.31 1565.03 1763.46 1564.2 Q1766.65 1563.37 1769.77 1561.72 L1769.77 1567.25 Q1766.61 1568.59 1763.3 1569.29 Q1759.99 1569.99 1756.59 1569.99 Q1748.06 1569.99 1743.06 1565.03 Q1738.1 1560.06 1738.1 1551.59 Q1738.1 1542.84 1742.81 1537.72 Q1747.55 1532.56 1755.57 1532.56 Q1762.76 1532.56 1766.93 1537.21 Q1771.13 1541.82 1771.13 1549.78 M1765.28 1548.06 Q1765.21 1543.25 1762.57 1540.39 Q1759.96 1537.53 1755.63 1537.53 Q1750.73 1537.53 1747.77 1540.29 Q1744.84 1543.06 1744.4 1548.09 L1765.28 1548.06 Z" fill="#000000" fill-rule="nonzero" fill-opacity="1" /><polyline clip-path="url(#clip622)" style="stroke:#000000; stroke-linecap:round; stroke-linejoin:round; stroke-width:2; stroke-opacity:0.1; fill:none" points="275.075,1377.64 3121.26,1377.64 "/>
<polyline clip-path="url(#clip622)" style="stroke:#000000; stroke-linecap:round; stroke-linejoin:round; stroke-width:2; stroke-opacity:0.1; fill:none" points="275.075,1065.68 3121.26,1065.68 "/>
<polyline clip-path="url(#clip622)" style="stroke:#000000; stroke-linecap:round; stroke-linejoin:round; stroke-width:2; stroke-opacity:0.1; fill:none" points="275.075,753.716 3121.26,753.716 "/>
<polyline clip-path="url(#clip622)" style="stroke:#000000; stroke-linecap:round; stroke-linejoin:round; stroke-width:2; stroke-opacity:0.1; fill:none" points="275.075,441.755 3121.26,441.755 "/>
<polyline clip-path="url(#clip622)" style="stroke:#000000; stroke-linecap:round; stroke-linejoin:round; stroke-width:2; stroke-opacity:0.1; fill:none" points="275.075,129.794 3121.26,129.794 "/>
<polyline clip-path="url(#clip620)" style="stroke:#000000; stroke-linecap:round; stroke-linejoin:round; stroke-width:4; stroke-opacity:1; fill:none" points="275.075,1412.2 275.075,78.7402 "/>
<polyline clip-path="url(#clip620)" style="stroke:#000000; stroke-linecap:round; stroke-linejoin:round; stroke-width:4; stroke-opacity:1; fill:none" points="275.075,1377.64 293.972,1377.64 "/>
<polyline clip-path="url(#clip620)" style="stroke:#000000; stroke-linecap:round; stroke-linejoin:round; stroke-width:4; stroke-opacity:1; fill:none" points="275.075,1065.68 293.972,1065.68 "/>
<polyline clip-path="url(#clip620)" style="stroke:#000000; stroke-linecap:round; stroke-linejoin:round; stroke-width:4; stroke-opacity:1; fill:none" points="275.075,753.716 293.972,753.716 "/>
<polyline clip-path="url(#clip620)" style="stroke:#000000; stroke-linecap:round; stroke-linejoin:round; stroke-width:4; stroke-opacity:1; fill:none" points="275.075,441.755 293.972,441.755 "/>
<polyline clip-path="url(#clip620)" style="stroke:#000000; stroke-linecap:round; stroke-linejoin:round; stroke-width:4; stroke-opacity:1; fill:none" points="275.075,129.794 293.972,129.794 "/>
<path clip-path="url(#clip620)" d="M169.899 1363.44 Q166.288 1363.44 164.459 1367 Q162.654 1370.54 162.654 1377.67 Q162.654 1384.78 164.459 1388.34 Q166.288 1391.89 169.899 1391.89 Q173.533 1391.89 175.339 1388.34 Q177.168 1384.78 177.168 1377.67 Q177.168 1370.54 175.339 1367 Q173.533 1363.44 169.899 1363.44 M169.899 1359.73 Q175.709 1359.73 178.765 1364.34 Q181.844 1368.92 181.844 1377.67 Q181.844 1386.4 178.765 1391.01 Q175.709 1395.59 169.899 1395.59 Q164.089 1395.59 161.01 1391.01 Q157.955 1386.4 157.955 1377.67 Q157.955 1368.92 161.01 1364.34 Q164.089 1359.73 169.899 1359.73 Z" fill="#000000" fill-rule="nonzero" fill-opacity="1" /><path clip-path="url(#clip620)" d="M190.061 1389.04 L194.945 1389.04 L194.945 1394.92 L190.061 1394.92 L190.061 1389.04 Z" fill="#000000" fill-rule="nonzero" fill-opacity="1" /><path clip-path="url(#clip620)" d="M215.13 1363.44 Q211.519 1363.44 209.691 1367 Q207.885 1370.54 207.885 1377.67 Q207.885 1384.78 209.691 1388.34 Q211.519 1391.89 215.13 1391.89 Q218.765 1391.89 220.57 1388.34 Q222.399 1384.78 222.399 1377.67 Q222.399 1370.54 220.57 1367 Q218.765 1363.44 215.13 1363.44 M215.13 1359.73 Q220.941 1359.73 223.996 1364.34 Q227.075 1368.92 227.075 1377.67 Q227.075 1386.4 223.996 1391.01 Q220.941 1395.59 215.13 1395.59 Q209.32 1395.59 206.242 1391.01 Q203.186 1386.4 203.186 1377.67 Q203.186 1368.92 206.242 1364.34 Q209.32 1359.73 215.13 1359.73 Z" fill="#000000" fill-rule="nonzero" fill-opacity="1" /><path clip-path="url(#clip620)" d="M164.922 1079.02 L181.242 1079.02 L181.242 1082.96 L159.297 1082.96 L159.297 1079.02 Q161.959 1076.27 166.543 1071.64 Q171.149 1066.99 172.33 1065.64 Q174.575 1063.12 175.455 1061.38 Q176.357 1059.62 176.357 1057.93 Q176.357 1055.18 174.413 1053.44 Q172.492 1051.71 169.39 1051.71 Q167.191 1051.71 164.737 1052.47 Q162.307 1053.24 159.529 1054.79 L159.529 1050.06 Q162.353 1048.93 164.807 1048.35 Q167.26 1047.77 169.297 1047.77 Q174.668 1047.77 177.862 1050.46 Q181.057 1053.14 181.057 1057.63 Q181.057 1059.76 180.246 1061.68 Q179.459 1063.58 177.353 1066.18 Q176.774 1066.85 173.672 1070.06 Q170.57 1073.26 164.922 1079.02 Z" fill="#000000" fill-rule="nonzero" fill-opacity="1" /><path clip-path="url(#clip620)" d="M191.056 1077.08 L195.941 1077.08 L195.941 1082.96 L191.056 1082.96 L191.056 1077.08 Z" fill="#000000" fill-rule="nonzero" fill-opacity="1" /><path clip-path="url(#clip620)" d="M206.172 1048.4 L224.528 1048.4 L224.528 1052.33 L210.454 1052.33 L210.454 1060.8 Q211.473 1060.46 212.492 1060.3 Q213.51 1060.11 214.529 1060.11 Q220.316 1060.11 223.695 1063.28 Q227.075 1066.45 227.075 1071.87 Q227.075 1077.45 223.603 1080.55 Q220.13 1083.63 213.811 1083.63 Q211.635 1083.63 209.367 1083.26 Q207.121 1082.89 204.714 1082.15 L204.714 1077.45 Q206.797 1078.58 209.019 1079.14 Q211.242 1079.69 213.718 1079.69 Q217.723 1079.69 220.061 1077.59 Q222.399 1075.48 222.399 1071.87 Q222.399 1068.26 220.061 1066.15 Q217.723 1064.05 213.718 1064.05 Q211.843 1064.05 209.968 1064.46 Q208.117 1064.88 206.172 1065.76 L206.172 1048.4 Z" fill="#000000" fill-rule="nonzero" fill-opacity="1" /><path clip-path="url(#clip620)" d="M159.946 736.436 L178.302 736.436 L178.302 740.372 L164.228 740.372 L164.228 748.844 Q165.246 748.496 166.265 748.334 Q167.283 748.149 168.302 748.149 Q174.089 748.149 177.469 751.321 Q180.848 754.492 180.848 759.908 Q180.848 765.487 177.376 768.589 Q173.904 771.668 167.584 771.668 Q165.408 771.668 163.14 771.297 Q160.895 770.927 158.487 770.186 L158.487 765.487 Q160.571 766.621 162.793 767.177 Q165.015 767.732 167.492 767.732 Q171.496 767.732 173.834 765.626 Q176.172 763.52 176.172 759.908 Q176.172 756.297 173.834 754.191 Q171.496 752.084 167.492 752.084 Q165.617 752.084 163.742 752.501 Q161.89 752.918 159.946 753.797 L159.946 736.436 Z" fill="#000000" fill-rule="nonzero" fill-opacity="1" /><path clip-path="url(#clip620)" d="M190.061 765.117 L194.945 765.117 L194.945 770.996 L190.061 770.996 L190.061 765.117 Z" fill="#000000" fill-rule="nonzero" fill-opacity="1" /><path clip-path="url(#clip620)" d="M215.13 739.515 Q211.519 739.515 209.691 743.08 Q207.885 746.621 207.885 753.751 Q207.885 760.858 209.691 764.422 Q211.519 767.964 215.13 767.964 Q218.765 767.964 220.57 764.422 Q222.399 760.858 222.399 753.751 Q222.399 746.621 220.57 743.08 Q218.765 739.515 215.13 739.515 M215.13 735.811 Q220.941 735.811 223.996 740.418 Q227.075 745.001 227.075 753.751 Q227.075 762.478 223.996 767.084 Q220.941 771.668 215.13 771.668 Q209.32 771.668 206.242 767.084 Q203.186 762.478 203.186 753.751 Q203.186 745.001 206.242 740.418 Q209.32 735.811 215.13 735.811 Z" fill="#000000" fill-rule="nonzero" fill-opacity="1" /><path clip-path="url(#clip620)" d="M159.714 424.475 L181.936 424.475 L181.936 426.466 L169.39 459.035 L164.506 459.035 L176.311 428.41 L159.714 428.41 L159.714 424.475 Z" fill="#000000" fill-rule="nonzero" fill-opacity="1" /><path clip-path="url(#clip620)" d="M191.056 453.156 L195.941 453.156 L195.941 459.035 L191.056 459.035 L191.056 453.156 Z" fill="#000000" fill-rule="nonzero" fill-opacity="1" /><path clip-path="url(#clip620)" d="M206.172 424.475 L224.528 424.475 L224.528 428.41 L210.454 428.41 L210.454 436.883 Q211.473 436.535 212.492 436.373 Q213.51 436.188 214.529 436.188 Q220.316 436.188 223.695 439.359 Q227.075 442.531 227.075 447.947 Q227.075 453.526 223.603 456.628 Q220.13 459.707 213.811 459.707 Q211.635 459.707 209.367 459.336 Q207.121 458.966 204.714 458.225 L204.714 453.526 Q206.797 454.66 209.019 455.216 Q211.242 455.771 213.718 455.771 Q217.723 455.771 220.061 453.665 Q222.399 451.558 222.399 447.947 Q222.399 444.336 220.061 442.23 Q217.723 440.123 213.718 440.123 Q211.843 440.123 209.968 440.54 Q208.117 440.957 206.172 441.836 L206.172 424.475 Z" fill="#000000" fill-rule="nonzero" fill-opacity="1" /><path clip-path="url(#clip620)" d="M130.548 143.139 L138.186 143.139 L138.186 116.773 L129.876 118.44 L129.876 114.181 L138.14 112.514 L142.816 112.514 L142.816 143.139 L150.455 143.139 L150.455 147.074 L130.548 147.074 L130.548 143.139 Z" fill="#000000" fill-rule="nonzero" fill-opacity="1" /><path clip-path="url(#clip620)" d="M169.899 115.593 Q166.288 115.593 164.459 119.158 Q162.654 122.699 162.654 129.829 Q162.654 136.935 164.459 140.5 Q166.288 144.042 169.899 144.042 Q173.533 144.042 175.339 140.5 Q177.168 136.935 177.168 129.829 Q177.168 122.699 175.339 119.158 Q173.533 115.593 169.899 115.593 M169.899 111.889 Q175.709 111.889 178.765 116.496 Q181.844 121.079 181.844 129.829 Q181.844 138.556 178.765 143.162 Q175.709 147.745 169.899 147.745 Q164.089 147.745 161.01 143.162 Q157.955 138.556 157.955 129.829 Q157.955 121.079 161.01 116.496 Q164.089 111.889 169.899 111.889 Z" fill="#000000" fill-rule="nonzero" fill-opacity="1" /><path clip-path="url(#clip620)" d="M190.061 141.195 L194.945 141.195 L194.945 147.074 L190.061 147.074 L190.061 141.195 Z" fill="#000000" fill-rule="nonzero" fill-opacity="1" /><path clip-path="url(#clip620)" d="M215.13 115.593 Q211.519 115.593 209.691 119.158 Q207.885 122.699 207.885 129.829 Q207.885 136.935 209.691 140.5 Q211.519 144.042 215.13 144.042 Q218.765 144.042 220.57 140.5 Q222.399 136.935 222.399 129.829 Q222.399 122.699 220.57 119.158 Q218.765 115.593 215.13 115.593 M215.13 111.889 Q220.941 111.889 223.996 116.496 Q227.075 121.079 227.075 129.829 Q227.075 138.556 223.996 143.162 Q220.941 147.745 215.13 147.745 Q209.32 147.745 206.242 143.162 Q203.186 138.556 203.186 129.829 Q203.186 121.079 206.242 116.496 Q209.32 111.889 215.13 111.889 Z" fill="#000000" fill-rule="nonzero" fill-opacity="1" /><path clip-path="url(#clip620)" d="M45.3402 1073.54 Q46.0405 1071.48 48.3321 1069.53 Q50.6238 1067.56 54.6342 1065.59 L67.6202 1059.06 L67.6202 1065.97 L55.4299 1072.05 Q50.6556 1074.4 49.096 1076.63 Q47.5364 1078.83 47.5364 1082.65 L47.5364 1089.65 L67.6202 1089.65 L67.6202 1096.08 L20.1002 1096.08 L20.1002 1081.57 Q20.1002 1073.42 23.5059 1069.41 Q26.9115 1065.4 33.7865 1065.4 Q38.2743 1065.4 41.2344 1067.5 Q44.1944 1069.57 45.3402 1073.54 M25.3838 1089.65 L42.2529 1089.65 L42.2529 1081.57 Q42.2529 1076.92 40.1204 1074.56 Q37.956 1072.18 33.7865 1072.18 Q29.617 1072.18 27.5163 1074.56 Q25.3838 1076.92 25.3838 1081.57 L25.3838 1089.65 Z" fill="#000000" fill-rule="nonzero" fill-opacity="1" /><path clip-path="url(#clip620)" d="M48.3321 1023.48 L51.1967 1023.48 L51.1967 1050.41 Q57.2441 1050.02 60.427 1046.78 Q63.578 1043.5 63.578 1037.67 Q63.578 1034.3 62.7505 1031.15 Q61.9229 1027.97 60.2678 1024.85 L65.806 1024.85 Q67.1428 1028 67.843 1031.31 Q68.5432 1034.62 68.5432 1038.02 Q68.5432 1046.55 63.578 1051.55 Q58.6127 1056.52 50.1464 1056.52 Q41.3935 1056.52 36.2691 1051.81 Q31.1129 1047.06 31.1129 1039.04 Q31.1129 1031.85 35.7599 1027.68 Q40.375 1023.48 48.3321 1023.48 M46.6134 1029.33 Q41.8073 1029.4 38.9427 1032.04 Q36.0781 1034.65 36.0781 1038.98 Q36.0781 1043.88 38.8472 1046.84 Q41.6163 1049.77 46.6452 1050.21 L46.6134 1029.33 Z" fill="#000000" fill-rule="nonzero" fill-opacity="1" /><path clip-path="url(#clip620)" d="M62.273 1008.2 L81.1792 1008.2 L81.1792 1014.09 L31.9723 1014.09 L31.9723 1008.2 L37.3831 1008.2 Q34.2003 1006.35 32.6725 1003.55 Q31.1129 1000.72 31.1129 996.806 Q31.1129 990.313 36.2691 986.271 Q41.4253 982.197 49.8281 982.197 Q58.2308 982.197 63.387 986.271 Q68.5432 990.313 68.5432 996.806 Q68.5432 1000.72 67.0155 1003.55 Q65.4559 1006.35 62.273 1008.2 M49.8281 988.276 Q43.3669 988.276 39.7066 990.95 Q36.0145 993.591 36.0145 998.238 Q36.0145 1002.89 39.7066 1005.56 Q43.3669 1008.2 49.8281 1008.2 Q56.2893 1008.2 59.9814 1005.56 Q63.6417 1002.89 63.6417 998.238 Q63.6417 993.591 59.9814 990.95 Q56.2893 988.276 49.8281 988.276 Z" fill="#000000" fill-rule="nonzero" fill-opacity="1" /><path clip-path="url(#clip620)" d="M37.4468 951.832 Q36.8739 952.819 36.6192 953.997 Q36.3328 955.142 36.3328 956.543 Q36.3328 961.508 39.5793 964.182 Q42.794 966.824 48.8414 966.824 L67.6202 966.824 L67.6202 972.712 L31.9723 972.712 L31.9723 966.824 L37.5104 966.824 Q34.2639 964.977 32.7043 962.017 Q31.1129 959.057 31.1129 954.824 Q31.1129 954.219 31.2084 953.487 Q31.272 952.755 31.4312 951.864 L37.4468 951.832 Z" fill="#000000" fill-rule="nonzero" fill-opacity="1" /><path clip-path="url(#clip620)" d="M36.0781 933.308 Q36.0781 938.019 39.7703 940.756 Q43.4305 943.493 49.8281 943.493 Q56.2256 943.493 59.9177 940.788 Q63.578 938.051 63.578 933.308 Q63.578 928.629 59.8859 925.892 Q56.1938 923.155 49.8281 923.155 Q43.4942 923.155 39.8021 925.892 Q36.0781 928.629 36.0781 933.308 M31.1129 933.308 Q31.1129 925.669 36.0781 921.309 Q41.0434 916.948 49.8281 916.948 Q58.5809 916.948 63.578 921.309 Q68.5432 925.669 68.5432 933.308 Q68.5432 940.979 63.578 945.339 Q58.5809 949.668 49.8281 949.668 Q41.0434 949.668 36.0781 945.339 Q31.1129 940.979 31.1129 933.308 Z" fill="#000000" fill-rule="nonzero" fill-opacity="1" /><path clip-path="url(#clip620)" d="M37.3831 883.783 L18.095 883.783 L18.095 877.926 L67.6202 877.926 L67.6202 883.783 L62.273 883.783 Q65.4559 885.629 67.0155 888.462 Q68.5432 891.263 68.5432 895.209 Q68.5432 901.67 63.387 905.745 Q58.2308 909.787 49.8281 909.787 Q41.4253 909.787 36.2691 905.745 Q31.1129 901.67 31.1129 895.209 Q31.1129 891.263 32.6725 888.462 Q34.2003 885.629 37.3831 883.783 M49.8281 903.739 Q56.2893 903.739 59.9814 901.098 Q63.6417 898.424 63.6417 893.777 Q63.6417 889.13 59.9814 886.456 Q56.2893 883.783 49.8281 883.783 Q43.3669 883.783 39.7066 886.456 Q36.0145 889.13 36.0145 893.777 Q36.0145 898.424 39.7066 901.098 Q43.3669 903.739 49.8281 903.739 Z" fill="#000000" fill-rule="nonzero" fill-opacity="1" /><path clip-path="url(#clip620)" d="M53.552 866.468 L31.9723 866.468 L31.9723 860.612 L53.3292 860.612 Q58.3899 860.612 60.9362 858.638 Q63.4507 856.665 63.4507 852.718 Q63.4507 847.976 60.427 845.239 Q57.4033 842.469 52.1834 842.469 L31.9723 842.469 L31.9723 836.613 L67.6202 836.613 L67.6202 842.469 L62.1457 842.469 Q65.3922 844.602 66.9836 847.435 Q68.5432 850.236 68.5432 853.96 Q68.5432 860.102 64.7238 863.285 Q60.9044 866.468 53.552 866.468 M31.1129 851.732 L31.1129 851.732 Z" fill="#000000" fill-rule="nonzero" fill-opacity="1" /><path clip-path="url(#clip620)" d="M33.3409 798.896 L38.8154 798.896 Q37.4468 801.379 36.7784 803.893 Q36.0781 806.376 36.0781 808.922 Q36.0781 814.619 39.7066 817.77 Q43.3032 820.922 49.8281 820.922 Q56.3529 820.922 59.9814 817.77 Q63.578 814.619 63.578 808.922 Q63.578 806.376 62.9096 803.893 Q62.2094 801.379 60.8407 798.896 L66.2516 798.896 Q67.3974 801.347 67.9703 803.989 Q68.5432 806.599 68.5432 809.559 Q68.5432 817.611 63.4825 822.354 Q58.4218 827.096 49.8281 827.096 Q41.1071 827.096 36.11 822.322 Q31.1129 817.516 31.1129 809.177 Q31.1129 806.471 31.6858 803.893 Q32.2269 801.315 33.3409 798.896 Z" fill="#000000" fill-rule="nonzero" fill-opacity="1" /><path clip-path="url(#clip620)" d="M21.8508 782.918 L31.9723 782.918 L31.9723 770.855 L36.5237 770.855 L36.5237 782.918 L55.8755 782.918 Q60.236 782.918 61.4773 781.741 Q62.7186 780.531 62.7186 776.871 L62.7186 770.855 L67.6202 770.855 L67.6202 776.871 Q67.6202 783.65 65.1058 786.228 Q62.5595 788.807 55.8755 788.807 L36.5237 788.807 L36.5237 793.103 L31.9723 793.103 L31.9723 788.807 L21.8508 788.807 L21.8508 782.918 Z" fill="#000000" fill-rule="nonzero" fill-opacity="1" /><path clip-path="url(#clip620)" d="M31.9723 763.153 L31.9723 757.296 L67.6202 757.296 L67.6202 763.153 L31.9723 763.153 M18.095 763.153 L18.095 757.296 L25.5111 757.296 L25.5111 763.153 L18.095 763.153 Z" fill="#000000" fill-rule="nonzero" fill-opacity="1" /><path clip-path="url(#clip620)" d="M36.0781 731.229 Q36.0781 735.939 39.7703 738.677 Q43.4305 741.414 49.8281 741.414 Q56.2256 741.414 59.9177 738.708 Q63.578 735.971 63.578 731.229 Q63.578 726.55 59.8859 723.813 Q56.1938 721.075 49.8281 721.075 Q43.4942 721.075 39.8021 723.813 Q36.0781 726.55 36.0781 731.229 M31.1129 731.229 Q31.1129 723.59 36.0781 719.229 Q41.0434 714.869 49.8281 714.869 Q58.5809 714.869 63.578 719.229 Q68.5432 723.59 68.5432 731.229 Q68.5432 738.899 63.578 743.26 Q58.5809 747.589 49.8281 747.589 Q41.0434 747.589 36.0781 743.26 Q31.1129 738.899 31.1129 731.229 Z" fill="#000000" fill-rule="nonzero" fill-opacity="1" /><path clip-path="url(#clip620)" d="M46.1041 675.529 L67.6202 675.529 L67.6202 681.385 L46.2951 681.385 Q41.2344 681.385 38.7199 683.359 Q36.2055 685.332 36.2055 689.279 Q36.2055 694.021 39.2292 696.758 Q42.2529 699.496 47.4728 699.496 L67.6202 699.496 L67.6202 705.384 L31.9723 705.384 L31.9723 699.496 L37.5104 699.496 Q34.2957 697.395 32.7043 694.562 Q31.1129 691.698 31.1129 687.974 Q31.1129 681.831 34.9323 678.68 Q38.7199 675.529 46.1041 675.529 Z" fill="#000000" fill-rule="nonzero" fill-opacity="1" /><path clip-path="url(#clip620)" d="M46.1041 613.495 L67.6202 613.495 L67.6202 619.351 L46.2951 619.351 Q41.2344 619.351 38.7199 621.325 Q36.2055 623.298 36.2055 627.245 Q36.2055 631.987 39.2292 634.725 Q42.2529 637.462 47.4728 637.462 L67.6202 637.462 L67.6202 643.35 L31.9723 643.35 L31.9723 637.462 L37.5104 637.462 Q34.2957 635.361 32.7043 632.528 Q31.1129 629.664 31.1129 625.94 Q31.1129 619.797 34.9323 616.646 Q38.7199 613.495 46.1041 613.495 Z" fill="#000000" fill-rule="nonzero" fill-opacity="1" /><path clip-path="url(#clip620)" d="M53.552 602.419 L31.9723 602.419 L31.9723 596.562 L53.3292 596.562 Q58.3899 596.562 60.9362 594.589 Q63.4507 592.615 63.4507 588.669 Q63.4507 583.926 60.427 581.189 Q57.4033 578.42 52.1834 578.42 L31.9723 578.42 L31.9723 572.563 L67.6202 572.563 L67.6202 578.42 L62.1457 578.42 Q65.3922 580.552 66.9836 583.385 Q68.5432 586.186 68.5432 589.91 Q68.5432 596.053 64.7238 599.236 Q60.9044 602.419 53.552 602.419 M31.1129 587.682 L31.1129 587.682 Z" fill="#000000" fill-rule="nonzero" fill-opacity="1" /><path clip-path="url(#clip620)" d="M38.8154 532.746 Q34.8687 530.55 32.9908 527.494 Q31.1129 524.439 31.1129 520.301 Q31.1129 514.731 35.0278 511.707 Q38.9109 508.684 46.1041 508.684 L67.6202 508.684 L67.6202 514.572 L46.2951 514.572 Q41.1707 514.572 38.6881 516.386 Q36.2055 518.2 36.2055 521.924 Q36.2055 526.476 39.2292 529.118 Q42.2529 531.759 47.4728 531.759 L67.6202 531.759 L67.6202 537.648 L46.2951 537.648 Q41.1389 537.648 38.6881 539.462 Q36.2055 541.276 36.2055 545.064 Q36.2055 549.551 39.261 552.193 Q42.2847 554.835 47.4728 554.835 L67.6202 554.835 L67.6202 560.723 L31.9723 560.723 L31.9723 554.835 L37.5104 554.835 Q34.2321 552.83 32.6725 550.029 Q31.1129 547.228 31.1129 543.377 Q31.1129 539.494 33.0863 536.788 Q35.0596 534.051 38.8154 532.746 Z" fill="#000000" fill-rule="nonzero" fill-opacity="1" /><path clip-path="url(#clip620)" d="M49.8281 471.412 Q43.3669 471.412 39.7066 474.086 Q36.0145 476.728 36.0145 481.375 Q36.0145 486.022 39.7066 488.695 Q43.3669 491.337 49.8281 491.337 Q56.2893 491.337 59.9814 488.695 Q63.6417 486.022 63.6417 481.375 Q63.6417 476.728 59.9814 474.086 Q56.2893 471.412 49.8281 471.412 M37.3831 491.337 Q34.2003 489.491 32.6725 486.69 Q31.1129 483.857 31.1129 479.942 Q31.1129 473.449 36.2691 469.407 Q41.4253 465.333 49.8281 465.333 Q58.2308 465.333 63.387 469.407 Q68.5432 473.449 68.5432 479.942 Q68.5432 483.857 67.0155 486.69 Q65.4559 489.491 62.273 491.337 L67.6202 491.337 L67.6202 497.225 L18.095 497.225 L18.095 491.337 L37.3831 491.337 Z" fill="#000000" fill-rule="nonzero" fill-opacity="1" /><path clip-path="url(#clip620)" d="M48.3321 425.134 L51.1967 425.134 L51.1967 452.061 Q57.2441 451.679 60.427 448.432 Q63.578 445.154 63.578 439.329 Q63.578 435.955 62.7505 432.804 Q61.9229 429.622 60.2678 426.502 L65.806 426.502 Q67.1428 429.653 67.843 432.964 Q68.5432 436.274 68.5432 439.679 Q68.5432 448.209 63.578 453.206 Q58.6127 458.172 50.1464 458.172 Q41.3935 458.172 36.2691 453.461 Q31.1129 448.719 31.1129 440.698 Q31.1129 433.505 35.7599 429.335 Q40.375 425.134 48.3321 425.134 M46.6134 430.99 Q41.8073 431.054 38.9427 433.696 Q36.0781 436.306 36.0781 440.634 Q36.0781 445.536 38.8472 448.496 Q41.6163 451.424 46.6452 451.87 L46.6134 430.99 Z" fill="#000000" fill-rule="nonzero" fill-opacity="1" /><path clip-path="url(#clip620)" d="M37.4468 394.865 Q36.8739 395.851 36.6192 397.029 Q36.3328 398.175 36.3328 399.575 Q36.3328 404.541 39.5793 407.214 Q42.794 409.856 48.8414 409.856 L67.6202 409.856 L67.6202 415.744 L31.9723 415.744 L31.9723 409.856 L37.5104 409.856 Q34.2639 408.01 32.7043 405.05 Q31.1129 402.09 31.1129 397.857 Q31.1129 397.252 31.2084 396.52 Q31.272 395.788 31.4312 394.897 L37.4468 394.865 Z" fill="#000000" fill-rule="nonzero" fill-opacity="1" /><path clip-path="url(#clip622)" d="M355.627 1246.89 L382.749 1238.79 L409.871 1234.05 L436.993 1232.94 L464.115 1232.21 L491.237 1243.18 L518.359 1260.24 L545.481 1243.31 L572.603 1236.33 L599.725 1247.04 L626.847 1246.06 L653.969 1257.41 L681.091 1260.33 L708.213 1256.09 L735.336 1243.03 L762.458 1222.72 L789.58 1197.63 L816.702 1143.07 L843.824 1062 L870.946 961.479 L898.068 887.543 L925.19 957.218 L952.312 937.467 L979.434 974.098 L1006.56 946.322 L1033.68 881.952 L1060.8 954.985 L1087.92 960.361 L1115.04 959.298 L1142.17 1064.71 L1169.29 1149.8 L1196.41 1195.18 L1223.53 1227.79 L1250.65 1255.79 L1277.78 1253.29 L1304.9 1242.15 L1332.02 1248.19 L1359.14 1253.07 L1386.26 1264.23 L1413.39 1276.98 L1440.51 1304.44 L1467.63 1320.24 L1494.75 1327.15 L1521.87 1319.25 L1549 1330.93 L1576.12 1336.56 L1603.24 1348.21 L1630.36 1347.09 L1657.48 1345.92 L1684.61 1343.41 L1711.73 1343.36 L1738.85 1341.2 L1765.97 1343.31 L1793.09 1346.7 L1820.22 1350.56 L1847.34 1349.48 L1874.46 1348.14 L1901.58 1345.88 L1928.7 1346.67 L1955.83 1347.19 L1982.95 1348.44 L2010.07 1347.7 L2037.19 1350.83 L2064.31 1349.42 L2091.44 1349.33 L2118.56 1349.58 L2145.68 1350.42 L2172.8 1351.16 L2199.92 1348.53 L2227.05 1349.07 L2254.17 1348.55 L2281.29 1350.46 L2308.41 1349.36 L2335.53 1350.38 L2362.66 1351.64 L2389.78 1351.56 L2416.9 1355.5 L2444.02 1356.29 L2471.14 1358.1 L2498.27 1360.37 L2525.39 1361.67 L2552.51 1363.18 L2579.63 1364.45 L2606.76 1363.98 L2633.88 1366.05 L2661 1365.41 L2688.12 1366.78 L2715.24 1367.59 L2742.37 1368.18 L2769.49 1368.85 L2796.61 1368.92 L2823.73 1369.67 L2850.85 1370.4 L2877.98 1370.32 L2905.1 1370.6 L2932.22 1370.96 L2959.34 1371.85 L2986.46 1372.04 L3013.59 1372.23 L3040.71 1372.52 L3040.71 1221.08 L3013.59 1231.79 L2986.46 1236.31 L2959.34 1239.53 L2932.22 1247.22 L2905.1 1250.12 L2877.98 1261.03 L2850.85 1265.68 L2823.73 1267.84 L2796.61 1271.48 L2769.49 1275.41 L2742.37 1274.09 L2715.24 1279.33 L2688.12 1282.61 L2661 1288.2 L2633.88 1288.11 L2606.76 1288.18 L2579.63 1288.93 L2552.51 1292.29 L2525.39 1289.7 L2498.27 1290.03 L2471.14 1290.95 L2444.02 1293.57 L2416.9 1293.62 L2389.78 1292.97 L2362.66 1280.98 L2335.53 1278.43 L2308.41 1281.02 L2281.29 1281.52 L2254.17 1287.7 L2227.05 1289.57 L2199.92 1295.49 L2172.8 1301.09 L2145.68 1299.9 L2118.56 1289.25 L2091.44 1294.75 L2064.31 1304.24 L2037.19 1308.1 L2010.07 1305.24 L1982.95 1302.89 L1955.83 1300.2 L1928.7 1303.18 L1901.58 1311.95 L1874.46 1314.37 L1847.34 1317.86 L1820.22 1320.79 L1793.09 1314.88 L1765.97 1312.9 L1738.85 1308.2 L1711.73 1311.64 L1684.61 1318.17 L1657.48 1317.82 L1630.36 1321.88 L1603.24 1313.29 L1576.12 1309.43 L1549 1301.59 L1521.87 1289.47 L1494.75 1298.59 L1467.63 1290.47 L1440.51 1260.68 L1413.39 1233 L1386.26 1212.8 L1359.14 1208.95 L1332.02 1182.54 L1304.9 1192.33 L1277.78 1185.66 L1250.65 1203.85 L1223.53 1156.13 L1196.41 1126.02 L1169.29 1038.65 L1142.17 929.453 L1115.04 791.439 L1087.92 785.025 L1060.8 736.063 L1033.68 596.465 L1006.56 654.214 L979.434 665.747 L952.312 504.329 L925.19 489.462 L898.068 393.017 L870.946 394.571 L843.824 559.173 L816.702 685.605 L789.58 825.271 L762.458 823.824 L735.336 977.741 L708.213 951.088 L681.091 912.746 L653.969 983.299 L626.847 944.639 L599.725 939.265 L572.603 753.249 L545.481 762.086 L518.359 621.659 L491.237 688.5 L464.115 630.903 L436.993 645.777 L409.871 703.775 L382.749 569.496 L355.627 342.47  Z" fill="#ff8c00" fill-rule="evenodd" fill-opacity="0.5"/>
<polyline clip-path="url(#clip622)" style="stroke:#ff8c00; stroke-linecap:round; stroke-linejoin:round; stroke-width:4; stroke-opacity:1; fill:none" points="355.627,977.792 382.749,1020.83 409.871,1028.74 436.993,1008.95 464.115,1016.26 491.237,1016.07 518.359,1013.92 545.481,1023.02 572.603,1035.23 599.725,1069.72 626.847,1103.52 653.969,1131.97 681.091,1137.32 708.213,1129.23 735.336,1107.17 762.458,1042.38 789.58,990.03 816.702,939.953 843.824,853.056 870.946,698.93 898.068,658.61 925.19,750.251 952.312,744.56 979.434,851.188 1006.56,796.912 1033.68,743.549 1060.8,849.692 1087.92,878.173 1115.04,894.185 1142.17,1009.4 1169.29,1100.31 1196.41,1159.86 1223.53,1191.3 1250.65,1233.82 1277.78,1217.3 1304.9,1219.7 1332.02,1217.17 1359.14,1232.15 1386.26,1239.75 1413.39,1256.62 1440.51,1285.16 1467.63,1306.41 1494.75,1314.36 1521.87,1305.54 1549,1317.71 1576.12,1324.11 1603.24,1329.73 1630.36,1335.97 1657.48,1333.27 1684.61,1331.61 1711.73,1326.62 1738.85,1327.89 1765.97,1330.02 1793.09,1331.67 1820.22,1337.03 1847.34,1335.84 1874.46,1333.56 1901.58,1330.61 1928.7,1327.49 1955.83,1327.4 1982.95,1329.99 2010.07,1331.39 2037.19,1332 2064.31,1329.64 2091.44,1324.83 2118.56,1322.31 2145.68,1327.97 2172.8,1329.51 2199.92,1328.37 2227.05,1324.91 2254.17,1323.56 2281.29,1323.02 2308.41,1322.58 2335.53,1322.2 2362.66,1323 2389.78,1327.82 2416.9,1330.47 2444.02,1331.46 2471.14,1331.4 2498.27,1332.5 2525.39,1334.51 2552.51,1336.07 2579.63,1336.68 2606.76,1336.9 2633.88,1337.55 2661,1337.51 2688.12,1336.55 2715.24,1337.47 2742.37,1337.99 2769.49,1338.11 2796.61,1338.51 2823.73,1339.11 2850.85,1338.83 2877.98,1338.52 2905.1,1337.92 2932.22,1337.63 2959.34,1336.92 2986.46,1336.55 3013.59,1335.76 3040.71,1334.83 "/>
<polyline clip-path="url(#clip622)" style="stroke:#000000; stroke-linecap:round; stroke-linejoin:round; stroke-width:4; stroke-opacity:1; fill:none" stroke-dasharray="16, 10" points="-2571.11,1252.85 5967.44,1252.85 "/>
<path clip-path="url(#clip622)" d="M355.627 1275.33 L382.749 1269.33 L409.871 1268.36 L436.993 1268.27 L464.115 1256.39 L491.237 1236.07 L518.359 1245.81 L545.481 1223.52 L572.603 1240.4 L599.725 1266.32 L626.847 1287.67 L653.969 1295.91 L681.091 1291.05 L708.213 1285.89 L735.336 1276.64 L762.458 1266.08 L789.58 1230.4 L816.702 1169.14 L843.824 1076.36 L870.946 958.059 L898.068 890.138 L925.19 961.063 L952.312 939.368 L979.434 1027.5 L1006.56 966.874 L1033.68 884.817 L1060.8 974.944 L1087.92 973.99 L1115.04 966.148 L1142.17 1072.17 L1169.29 1149.52 L1196.41 1198.83 L1223.53 1225.98 L1250.65 1265.84 L1277.78 1241.65 L1304.9 1249.59 L1332.02 1246.21 L1359.14 1256.02 L1386.26 1262.16 L1413.39 1280.05 L1440.51 1304.18 L1467.63 1323.61 L1494.75 1332.31 L1521.87 1321.66 L1549 1333.29 L1576.12 1337.57 L1603.24 1343.08 L1630.36 1350.17 L1657.48 1347.08 L1684.61 1346.62 L1711.73 1341.46 L1738.85 1343.42 L1765.97 1344.79 L1793.09 1347.45 L1820.22 1353.2 L1847.34 1352.16 L1874.46 1351.48 L1901.58 1348.55 L1928.7 1346.75 L1955.83 1346.79 L1982.95 1349.91 L2010.07 1350.93 L2037.19 1352.78 L2064.31 1351.02 L2091.44 1348.05 L2118.56 1346.33 L2145.68 1352.67 L2172.8 1353.87 L2199.92 1354.36 L2227.05 1352.59 L2254.17 1350.76 L2281.29 1351 L2308.41 1350.42 L2335.53 1351.9 L2362.66 1352.25 L2389.78 1355.98 L2416.9 1358.63 L2444.02 1360.12 L2471.14 1360.63 L2498.27 1362.35 L2525.39 1363.99 L2552.51 1365.68 L2579.63 1366.87 L2606.76 1367.39 L2633.88 1368.03 L2661 1368.52 L2688.12 1368.69 L2715.24 1369.52 L2742.37 1370.44 L2769.49 1370.74 L2796.61 1371.45 L2823.73 1371.78 L2850.85 1372.46 L2877.98 1372.75 L2905.1 1373.07 L2932.22 1373.41 L2959.34 1373.76 L2986.46 1373.99 L3013.59 1374.24 L3040.71 1374.46 L3040.71 1184.65 L3013.59 1197.12 L2986.46 1207.42 L2959.34 1219.81 L2932.22 1231.25 L2905.1 1238.48 L2877.98 1245.31 L2850.85 1251.95 L2823.73 1258.6 L2796.61 1260.98 L2769.49 1265.95 L2742.37 1267.25 L2715.24 1270.62 L2688.12 1270.84 L2661 1276.7 L2633.88 1282.37 L2606.76 1285.49 L2579.63 1287.41 L2552.51 1288.27 L2525.39 1286.89 L2498.27 1284.72 L2471.14 1282.88 L2444.02 1285.24 L2416.9 1283.28 L2389.78 1275.69 L2362.66 1267.68 L2335.53 1271.03 L2308.41 1274.07 L2281.29 1275.14 L2254.17 1277.95 L2227.05 1284.2 L2199.92 1294.96 L2172.8 1296.49 L2145.68 1295.71 L2118.56 1276.33 L2091.44 1288.23 L2064.31 1298.44 L2037.19 1303.29 L2010.07 1304.82 L1982.95 1302.08 L1955.83 1297.58 L1928.7 1299.15 L1901.58 1306.3 L1874.46 1311.69 L1847.34 1315.88 L1820.22 1320.09 L1793.09 1312.21 L1765.97 1309.55 L1738.85 1306.57 L1711.73 1305.84 L1684.61 1315.44 L1657.48 1317.75 L1630.36 1322.63 L1603.24 1313.87 L1576.12 1307.11 L1549 1300.77 L1521.87 1283.57 L1494.75 1300.38 L1467.63 1289.34 L1440.51 1263.18 L1413.39 1229.45 L1386.26 1205.29 L1359.14 1200.98 L1332.02 1185.7 L1304.9 1190.11 L1277.78 1180.3 L1250.65 1207.84 L1223.53 1147.56 L1196.41 1112.9 L1169.29 1047.08 L1142.17 934.478 L1115.04 779.089 L1087.92 756.745 L1060.8 730.204 L1033.68 563.388 L1006.56 619.049 L979.434 700.418 L952.312 469.569 L925.19 487.945 L898.068 116.48 L870.946 125.196 L843.824 533.248 L816.702 630.079 L789.58 741.201 L762.458 867.565 L735.336 942.758 L708.213 975.795 L681.091 983.559 L653.969 976.662 L626.847 916.81 L599.725 832.455 L572.603 736.232 L545.481 652.309 L518.359 567.476 L491.237 525.355 L464.115 560.073 L436.993 456.03 L409.871 419.182 L382.749 428.304 L355.627 309.554  Z" fill="#3da44d" fill-rule="evenodd" fill-opacity="0.5"/>
<polyline clip-path="url(#clip622)" style="stroke:#3da44d; stroke-linecap:round; stroke-linejoin:round; stroke-width:4; stroke-opacity:1; fill:none" points="355.627,942.742 382.749,969.723 409.871,988.595 436.993,999.917 464.115,1001.84 491.237,995.169 518.359,1001.23 545.481,1011.46 572.603,1047.84 599.725,1098.55 626.847,1144.54 653.969,1164.32 681.091,1169.58 708.213,1163.29 735.336,1137.11 762.458,1088.75 789.58,1032.6 816.702,961.875 843.824,854.536 870.946,649.145 898.068,576.907 925.19,754.098 952.312,741.365 979.434,873.357 1006.56,812.081 1033.68,729.473 1060.8,859.32 1087.92,871.721 1115.04,878.126 1142.17,1006.69 1169.29,1099.49 1196.41,1157.9 1223.53,1190.45 1250.65,1237.96 1277.78,1214.56 1304.9,1221.18 1332.02,1216.25 1359.14,1231.12 1386.26,1236.72 1413.39,1255.7 1440.51,1284.31 1467.63,1307.48 1494.75,1316.91 1521.87,1304.5 1549,1318.28 1576.12,1323.29 1603.24,1330.1 1630.36,1337.39 1657.48,1333.21 1684.61,1332.32 1711.73,1324.98 1738.85,1326.93 1765.97,1329.24 1793.09,1331.73 1820.22,1338.57 1847.34,1336.12 1874.46,1334.13 1901.58,1330.93 1928.7,1326.3 1955.83,1325.2 1982.95,1329.32 2010.07,1330.89 2037.19,1332.33 2064.31,1329.09 2091.44,1322.95 2118.56,1318.83 2145.68,1327.71 2172.8,1329.75 2199.92,1329.32 2227.05,1324.62 2254.17,1321.96 2281.29,1321.63 2308.41,1321.34 2335.53,1320.45 2362.66,1319.45 2389.78,1326.36 2416.9,1329.9 2444.02,1331.68 2471.14,1331.85 2498.27,1333.39 2525.39,1336.06 2552.51,1337.86 2579.63,1338.82 2606.76,1339.17 2633.88,1338.88 2661,1338.16 2688.12,1336.96 2715.24,1337.86 2742.37,1338.66 2769.49,1338.97 2796.61,1339.04 2823.73,1339.14 2850.85,1338.68 2877.98,1337.95 2905.1,1337.48 2932.22,1336.63 2959.34,1335.63 2986.46,1334.52 3013.59,1333.18 3040.71,1331.84 "/>
<path clip-path="url(#clip620)" d="M2476.82 330.549 L3026.39 330.549 L3026.39 123.189 L2476.82 123.189  Z" fill="#ffffff" fill-rule="evenodd" fill-opacity="1"/>
<polyline clip-path="url(#clip620)" style="stroke:#000000; stroke-linecap:round; stroke-linejoin:round; stroke-width:4; stroke-opacity:1; fill:none" points="2476.82,330.549 3026.39,330.549 3026.39,123.189 2476.82,123.189 2476.82,330.549 "/>
<polyline clip-path="url(#clip620)" style="stroke:#ff8c00; stroke-linecap:round; stroke-linejoin:round; stroke-width:4; stroke-opacity:1; fill:none" points="2508.44,175.029 2698.19,175.029 "/>
<path clip-path="url(#clip620)" d="M2746.2 176.105 Q2747.7 176.615 2749.12 178.281 Q2750.55 179.948 2751.99 182.865 L2756.73 192.309 L2751.71 192.309 L2747.29 183.443 Q2745.57 179.971 2743.95 178.837 Q2742.36 177.703 2739.58 177.703 L2734.49 177.703 L2734.49 192.309 L2729.81 192.309 L2729.81 157.749 L2740.37 157.749 Q2746.29 157.749 2749.21 160.226 Q2752.13 162.703 2752.13 167.703 Q2752.13 170.966 2750.6 173.119 Q2749.09 175.272 2746.2 176.105 M2734.49 161.592 L2734.49 173.86 L2740.37 173.86 Q2743.75 173.86 2745.46 172.309 Q2747.19 170.735 2747.19 167.703 Q2747.19 164.67 2745.46 163.142 Q2743.75 161.592 2740.37 161.592 L2734.49 161.592 Z" fill="#000000" fill-rule="nonzero" fill-opacity="1" /><path clip-path="url(#clip620)" d="M2766.78 159.022 L2766.78 166.383 L2775.55 166.383 L2775.55 169.693 L2766.78 169.693 L2766.78 183.767 Q2766.78 186.939 2767.63 187.841 Q2768.51 188.744 2771.18 188.744 L2775.55 188.744 L2775.55 192.309 L2771.18 192.309 Q2766.25 192.309 2764.37 190.48 Q2762.5 188.628 2762.5 183.767 L2762.5 169.693 L2759.37 169.693 L2759.37 166.383 L2762.5 166.383 L2762.5 159.022 L2766.78 159.022 Z" fill="#000000" fill-rule="nonzero" fill-opacity="1" /><path clip-path="url(#clip620)" d="M2801.71 156.082 L2801.71 203.489 L2797.77 203.489 L2797.77 156.082 L2801.71 156.082 Z" fill="#000000" fill-rule="nonzero" fill-opacity="1" /><path clip-path="url(#clip620)" d="M2837.31 169.763 Q2833.79 169.763 2831.89 172.309 Q2829.9 174.971 2829.9 179.369 Q2829.9 184.022 2831.87 186.707 Q2833.86 189.369 2837.31 189.369 Q2840.71 189.369 2842.7 186.684 Q2844.69 183.999 2844.69 179.369 Q2844.69 175.133 2842.7 172.309 Q2840.87 169.763 2837.31 169.763 M2837.31 166.383 L2851.45 166.383 L2851.45 170.642 L2846.68 170.642 Q2849.21 174.253 2849.21 179.369 Q2849.21 185.735 2846.04 189.346 Q2842.87 192.98 2837.31 192.98 Q2831.73 192.98 2828.58 189.346 Q2825.41 185.735 2825.41 179.369 Q2825.41 172.957 2828.58 169.369 Q2831.2 166.383 2837.31 166.383 Z" fill="#000000" fill-rule="nonzero" fill-opacity="1" /><path clip-path="url(#clip620)" d="M2872.93 170.781 L2902.61 170.781 L2902.61 174.67 L2872.93 174.67 L2872.93 170.781 M2872.93 180.226 L2902.61 180.226 L2902.61 184.161 L2872.93 184.161 L2872.93 180.226 Z" fill="#000000" fill-rule="nonzero" fill-opacity="1" /><path clip-path="url(#clip620)" d="M2937.77 160.828 Q2934.16 160.828 2932.33 164.392 Q2930.53 167.934 2930.53 175.064 Q2930.53 182.17 2932.33 185.735 Q2934.16 189.277 2937.77 189.277 Q2941.41 189.277 2943.21 185.735 Q2945.04 182.17 2945.04 175.064 Q2945.04 167.934 2943.21 164.392 Q2941.41 160.828 2937.77 160.828 M2937.77 157.124 Q2943.58 157.124 2946.64 161.73 Q2949.72 166.314 2949.72 175.064 Q2949.72 183.79 2946.64 188.397 Q2943.58 192.98 2937.77 192.98 Q2931.96 192.98 2928.88 188.397 Q2925.83 183.79 2925.83 175.064 Q2925.83 166.314 2928.88 161.73 Q2931.96 157.124 2937.77 157.124 Z" fill="#000000" fill-rule="nonzero" fill-opacity="1" /><path clip-path="url(#clip620)" d="M2957.93 186.429 L2962.82 186.429 L2962.82 192.309 L2957.93 192.309 L2957.93 186.429 Z" fill="#000000" fill-rule="nonzero" fill-opacity="1" /><path clip-path="url(#clip620)" d="M2977.03 188.374 L2993.35 188.374 L2993.35 192.309 L2971.41 192.309 L2971.41 188.374 Q2974.07 185.619 2978.65 180.99 Q2983.26 176.337 2984.44 174.994 Q2986.68 172.471 2987.56 170.735 Q2988.47 168.976 2988.47 167.286 Q2988.47 164.531 2986.52 162.795 Q2984.6 161.059 2981.5 161.059 Q2979.3 161.059 2976.85 161.823 Q2974.42 162.587 2971.64 164.138 L2971.64 159.416 Q2974.46 158.281 2976.92 157.703 Q2979.37 157.124 2981.41 157.124 Q2986.78 157.124 2989.97 159.809 Q2993.17 162.494 2993.17 166.985 Q2993.17 169.115 2992.36 171.036 Q2991.57 172.934 2989.46 175.527 Q2988.88 176.198 2985.78 179.415 Q2982.68 182.61 2977.03 188.374 Z" fill="#000000" fill-rule="nonzero" fill-opacity="1" /><polyline clip-path="url(#clip620)" style="stroke:#000000; stroke-linecap:round; stroke-linejoin:round; stroke-width:4; stroke-opacity:1; fill:none" stroke-dasharray="16, 10" points="2508.44,226.869 2698.19,226.869 "/>
<path clip-path="url(#clip620)" d="M2746.2 227.945 Q2747.7 228.455 2749.12 230.121 Q2750.55 231.788 2751.99 234.705 L2756.73 244.149 L2751.71 244.149 L2747.29 235.283 Q2745.57 231.811 2743.95 230.677 Q2742.36 229.543 2739.58 229.543 L2734.49 229.543 L2734.49 244.149 L2729.81 244.149 L2729.81 209.589 L2740.37 209.589 Q2746.29 209.589 2749.21 212.066 Q2752.13 214.543 2752.13 219.543 Q2752.13 222.806 2750.6 224.959 Q2749.09 227.112 2746.2 227.945 M2734.49 213.432 L2734.49 225.7 L2740.37 225.7 Q2743.75 225.7 2745.46 224.149 Q2747.19 222.575 2747.19 219.543 Q2747.19 216.51 2745.46 214.982 Q2743.75 213.432 2740.37 213.432 L2734.49 213.432 Z" fill="#000000" fill-rule="nonzero" fill-opacity="1" /><path clip-path="url(#clip620)" d="M2766.78 210.862 L2766.78 218.223 L2775.55 218.223 L2775.55 221.533 L2766.78 221.533 L2766.78 235.607 Q2766.78 238.779 2767.63 239.681 Q2768.51 240.584 2771.18 240.584 L2775.55 240.584 L2775.55 244.149 L2771.18 244.149 Q2766.25 244.149 2764.37 242.32 Q2762.5 240.468 2762.5 235.607 L2762.5 221.533 L2759.37 221.533 L2759.37 218.223 L2762.5 218.223 L2762.5 210.862 L2766.78 210.862 Z" fill="#000000" fill-rule="nonzero" fill-opacity="1" /><path clip-path="url(#clip620)" d="M2796.78 222.621 L2826.45 222.621 L2826.45 226.51 L2796.78 226.51 L2796.78 222.621 M2796.78 232.066 L2826.45 232.066 L2826.45 236.001 L2796.78 236.001 L2796.78 232.066 Z" fill="#000000" fill-rule="nonzero" fill-opacity="1" /><path clip-path="url(#clip620)" d="M2852.43 240.214 L2860.06 240.214 L2860.06 213.848 L2851.75 215.515 L2851.75 211.256 L2860.02 209.589 L2864.69 209.589 L2864.69 240.214 L2872.33 240.214 L2872.33 244.149 L2852.43 244.149 L2852.43 240.214 Z" fill="#000000" fill-rule="nonzero" fill-opacity="1" /><polyline clip-path="url(#clip620)" style="stroke:#3da44d; stroke-linecap:round; stroke-linejoin:round; stroke-width:4; stroke-opacity:1; fill:none" points="2508.44,278.709 2698.19,278.709 "/>
<path clip-path="url(#clip620)" d="M2729.81 261.429 L2736.78 261.429 L2745.6 284.947 L2754.46 261.429 L2761.43 261.429 L2761.43 295.989 L2756.87 295.989 L2756.87 265.642 L2747.96 289.345 L2743.26 289.345 L2734.35 265.642 L2734.35 295.989 L2729.81 295.989 L2729.81 261.429 Z" fill="#000000" fill-rule="nonzero" fill-opacity="1" /><path clip-path="url(#clip620)" d="M2782.31 282.957 Q2777.15 282.957 2775.16 284.137 Q2773.17 285.318 2773.17 288.165 Q2773.17 290.433 2774.65 291.776 Q2776.15 293.095 2778.72 293.095 Q2782.26 293.095 2784.39 290.595 Q2786.55 288.072 2786.55 283.906 L2786.55 282.957 L2782.31 282.957 M2790.81 281.197 L2790.81 295.989 L2786.55 295.989 L2786.55 292.054 Q2785.09 294.415 2782.91 295.549 Q2780.74 296.66 2777.59 296.66 Q2773.61 296.66 2771.25 294.438 Q2768.91 292.193 2768.91 288.443 Q2768.91 284.068 2771.82 281.846 Q2774.76 279.623 2780.57 279.623 L2786.55 279.623 L2786.55 279.207 Q2786.55 276.267 2784.6 274.67 Q2782.68 273.049 2779.19 273.049 Q2776.96 273.049 2774.86 273.582 Q2772.75 274.114 2770.81 275.179 L2770.81 271.244 Q2773.14 270.341 2775.34 269.901 Q2777.54 269.438 2779.62 269.438 Q2785.25 269.438 2788.03 272.355 Q2790.81 275.271 2790.81 281.197 Z" fill="#000000" fill-rule="nonzero" fill-opacity="1" /><path clip-path="url(#clip620)" d="M2814.6 274.045 Q2813.88 273.628 2813.03 273.443 Q2812.19 273.234 2811.18 273.234 Q2807.56 273.234 2805.62 275.596 Q2803.7 277.933 2803.7 282.332 L2803.7 295.989 L2799.42 295.989 L2799.42 270.063 L2803.7 270.063 L2803.7 274.091 Q2805.04 271.73 2807.19 270.596 Q2809.35 269.438 2812.43 269.438 Q2812.87 269.438 2813.4 269.508 Q2813.93 269.554 2814.58 269.67 L2814.6 274.045 Z" fill="#000000" fill-rule="nonzero" fill-opacity="1" /><path clip-path="url(#clip620)" d="M2835.3 282.725 Q2835.3 278.096 2833.37 275.549 Q2831.48 273.003 2828.03 273.003 Q2824.6 273.003 2822.68 275.549 Q2820.78 278.096 2820.78 282.725 Q2820.78 287.332 2822.68 289.878 Q2824.6 292.424 2828.03 292.424 Q2831.48 292.424 2833.37 289.878 Q2835.3 287.332 2835.3 282.725 M2839.56 292.771 Q2839.56 299.392 2836.62 302.609 Q2833.68 305.85 2827.61 305.85 Q2825.37 305.85 2823.37 305.503 Q2821.38 305.179 2819.51 304.484 L2819.51 300.341 Q2821.38 301.359 2823.21 301.845 Q2825.04 302.332 2826.94 302.332 Q2831.13 302.332 2833.21 300.132 Q2835.3 297.957 2835.3 293.535 L2835.3 291.429 Q2833.98 293.72 2831.92 294.855 Q2829.86 295.989 2826.99 295.989 Q2822.22 295.989 2819.3 292.355 Q2816.38 288.72 2816.38 282.725 Q2816.38 276.707 2819.3 273.072 Q2822.22 269.438 2826.99 269.438 Q2829.86 269.438 2831.92 270.572 Q2833.98 271.707 2835.3 273.998 L2835.3 270.063 L2839.56 270.063 L2839.56 292.771 Z" fill="#000000" fill-rule="nonzero" fill-opacity="1" /><path clip-path="url(#clip620)" d="M2848.33 270.063 L2852.59 270.063 L2852.59 295.989 L2848.33 295.989 L2848.33 270.063 M2848.33 259.971 L2852.59 259.971 L2852.59 265.364 L2848.33 265.364 L2848.33 259.971 Z" fill="#000000" fill-rule="nonzero" fill-opacity="1" /><path clip-path="url(#clip620)" d="M2883.05 280.341 L2883.05 295.989 L2878.79 295.989 L2878.79 280.48 Q2878.79 276.799 2877.36 274.971 Q2875.92 273.142 2873.05 273.142 Q2869.6 273.142 2867.61 275.341 Q2865.62 277.54 2865.62 281.336 L2865.62 295.989 L2861.34 295.989 L2861.34 270.063 L2865.62 270.063 L2865.62 274.091 Q2867.15 271.753 2869.21 270.596 Q2871.29 269.438 2874 269.438 Q2878.47 269.438 2880.76 272.216 Q2883.05 274.971 2883.05 280.341 Z" fill="#000000" fill-rule="nonzero" fill-opacity="1" /><path clip-path="url(#clip620)" d="M2903.33 282.957 Q2898.17 282.957 2896.18 284.137 Q2894.18 285.318 2894.18 288.165 Q2894.18 290.433 2895.67 291.776 Q2897.17 293.095 2899.74 293.095 Q2903.28 293.095 2905.41 290.595 Q2907.56 288.072 2907.56 283.906 L2907.56 282.957 L2903.33 282.957 M2911.82 281.197 L2911.82 295.989 L2907.56 295.989 L2907.56 292.054 Q2906.11 294.415 2903.93 295.549 Q2901.75 296.66 2898.61 296.66 Q2894.62 296.66 2892.26 294.438 Q2889.93 292.193 2889.93 288.443 Q2889.93 284.068 2892.84 281.846 Q2895.78 279.623 2901.59 279.623 L2907.56 279.623 L2907.56 279.207 Q2907.56 276.267 2905.62 274.67 Q2903.7 273.049 2900.2 273.049 Q2897.98 273.049 2895.87 273.582 Q2893.77 274.114 2891.82 275.179 L2891.82 271.244 Q2894.16 270.341 2896.36 269.901 Q2898.56 269.438 2900.64 269.438 Q2906.27 269.438 2909.05 272.355 Q2911.82 275.271 2911.82 281.197 Z" fill="#000000" fill-rule="nonzero" fill-opacity="1" /><path clip-path="url(#clip620)" d="M2920.6 259.971 L2924.86 259.971 L2924.86 295.989 L2920.6 295.989 L2920.6 259.971 Z" fill="#000000" fill-rule="nonzero" fill-opacity="1" /><path clip-path="url(#clip620)" d="M2965.41 279.785 Q2966.92 280.295 2968.33 281.961 Q2969.76 283.628 2971.2 286.545 L2975.94 295.989 L2970.92 295.989 L2966.5 287.123 Q2964.79 283.651 2963.17 282.517 Q2961.57 281.383 2958.79 281.383 L2953.7 281.383 L2953.7 295.989 L2949.02 295.989 L2949.02 261.429 L2959.58 261.429 Q2965.5 261.429 2968.42 263.906 Q2971.34 266.383 2971.34 271.383 Q2971.34 274.646 2969.81 276.799 Q2968.3 278.952 2965.41 279.785 M2953.7 265.272 L2953.7 277.54 L2959.58 277.54 Q2962.96 277.54 2964.67 275.989 Q2966.41 274.415 2966.41 271.383 Q2966.41 268.35 2964.67 266.822 Q2962.96 265.272 2959.58 265.272 L2953.7 265.272 Z" fill="#000000" fill-rule="nonzero" fill-opacity="1" /><path clip-path="url(#clip620)" d="M2985.99 262.702 L2985.99 270.063 L2994.76 270.063 L2994.76 273.373 L2985.99 273.373 L2985.99 287.447 Q2985.99 290.619 2986.85 291.521 Q2987.73 292.424 2990.39 292.424 L2994.76 292.424 L2994.76 295.989 L2990.39 295.989 Q2985.46 295.989 2983.58 294.16 Q2981.71 292.308 2981.71 287.447 L2981.71 273.373 L2978.58 273.373 L2978.58 270.063 L2981.71 270.063 L2981.71 262.702 L2985.99 262.702 Z" fill="#000000" fill-rule="nonzero" fill-opacity="1" /></svg>
