<?xml version="1.0" encoding="utf-8"?>
<svg xmlns="http://www.w3.org/2000/svg" xmlns:xlink="http://www.w3.org/1999/xlink" width="800" height="400" viewBox="0 0 3200 1600">
<defs>
  <clipPath id="clip790">
    <rect x="0" y="0" width="3200" height="1600"/>
  </clipPath>
</defs>
<path clip-path="url(#clip790)" d="M0 1600 L3200 1600 L3200 0 L0 0  Z" fill="#ffffff" fill-rule="evenodd" fill-opacity="1"/>
<defs>
  <clipPath id="clip791">
    <rect x="640" y="0" width="2241" height="1600"/>
  </clipPath>
</defs>
<path clip-path="url(#clip790)" d="M232.737 1412.2 L3121.26 1412.2 L3121.26 78.7402 L232.737 78.7402  Z" fill="#ffffff" fill-rule="evenodd" fill-opacity="1"/>
<defs>
  <clipPath id="clip792">
    <rect x="232" y="78" width="2890" height="1334"/>
  </clipPath>
</defs>
<polyline clip-path="url(#clip792)" style="stroke:#000000; stroke-linecap:round; stroke-linejoin:round; stroke-width:2; stroke-opacity:0.1; fill:none" points="504.952,1412.2 504.952,78.7402 "/>
<polyline clip-path="url(#clip792)" style="stroke:#000000; stroke-linecap:round; stroke-linejoin:round; stroke-width:2; stroke-opacity:0.1; fill:none" points="1303.49,1412.2 1303.49,78.7402 "/>
<polyline clip-path="url(#clip792)" style="stroke:#000000; stroke-linecap:round; stroke-linejoin:round; stroke-width:2; stroke-opacity:0.1; fill:none" points="2076.27,1412.2 2076.27,78.7402 "/>
<polyline clip-path="url(#clip792)" style="stroke:#000000; stroke-linecap:round; stroke-linejoin:round; stroke-width:2; stroke-opacity:0.1; fill:none" points="2874.8,1412.2 2874.8,78.7402 "/>
<polyline clip-path="url(#clip790)" style="stroke:#000000; stroke-linecap:round; stroke-linejoin:round; stroke-width:4; stroke-opacity:1; fill:none" points="232.737,1412.2 3121.26,1412.2 "/>
<polyline clip-path="url(#clip790)" style="stroke:#000000; stroke-linecap:round; stroke-linejoin:round; stroke-width:4; stroke-opacity:1; fill:none" points="504.952,1412.2 504.952,1393.31 "/>
<polyline clip-path="url(#clip790)" style="stroke:#000000; stroke-linecap:round; stroke-linejoin:round; stroke-width:4; stroke-opacity:1; fill:none" points="1303.49,1412.2 1303.49,1393.31 "/>
<polyline clip-path="url(#clip790)" style="stroke:#000000; stroke-linecap:round; stroke-linejoin:round; stroke-width:4; stroke-opacity:1; fill:none" points="2076.27,1412.2 2076.27,1393.31 "/>
<polyline clip-path="url(#clip790)" style="stroke:#000000; stroke-linecap:round; stroke-linejoin:round; stroke-width:4; stroke-opacity:1; fill:none" points="2874.8,1412.2 2874.8,1393.31 "/>
<path clip-path="url(#clip790)" d="M376.746 1477.07 L393.066 1477.07 L393.066 1481 L371.121 1481 L371.121 1477.07 Q373.783 1474.31 378.367 1469.68 Q382.973 1465.03 384.154 1463.69 Q386.399 1461.17 387.279 1459.43 Q388.182 1457.67 388.182 1455.98 Q388.182 1453.23 386.237 1451.49 Q384.316 1449.75 381.214 1449.75 Q379.015 1449.75 376.561 1450.52 Q374.131 1451.28 371.353 1452.83 L371.353 1448.11 Q374.177 1446.98 376.631 1446.4 Q379.084 1445.82 381.121 1445.82 Q386.492 1445.82 389.686 1448.5 Q392.881 1451.19 392.881 1455.68 Q392.881 1457.81 392.07 1459.73 Q391.283 1461.63 389.177 1464.22 Q388.598 1464.89 385.496 1468.11 Q382.395 1471.3 376.746 1477.07 Z" fill="#000000" fill-rule="nonzero" fill-opacity="1" /><path clip-path="url(#clip790)" d="M412.88 1449.52 Q409.269 1449.52 407.441 1453.09 Q405.635 1456.63 405.635 1463.76 Q405.635 1470.86 407.441 1474.43 Q409.269 1477.97 412.88 1477.97 Q416.515 1477.97 418.32 1474.43 Q420.149 1470.86 420.149 1463.76 Q420.149 1456.63 418.32 1453.09 Q416.515 1449.52 412.88 1449.52 M412.88 1445.82 Q418.691 1445.82 421.746 1450.43 Q424.825 1455.01 424.825 1463.76 Q424.825 1472.49 421.746 1477.09 Q418.691 1481.68 412.88 1481.68 Q407.07 1481.68 403.992 1477.09 Q400.936 1472.49 400.936 1463.76 Q400.936 1455.01 403.992 1450.43 Q407.07 1445.82 412.88 1445.82 Z" fill="#000000" fill-rule="nonzero" fill-opacity="1" /><path clip-path="url(#clip790)" d="M437.07 1477.07 L453.389 1477.07 L453.389 1481 L431.445 1481 L431.445 1477.07 Q434.107 1474.31 438.69 1469.68 Q443.297 1465.03 444.478 1463.69 Q446.723 1461.17 447.602 1459.43 Q448.505 1457.67 448.505 1455.98 Q448.505 1453.23 446.561 1451.49 Q444.64 1449.75 441.538 1449.75 Q439.339 1449.75 436.885 1450.52 Q434.454 1451.28 431.677 1452.83 L431.677 1448.11 Q434.501 1446.98 436.954 1446.4 Q439.408 1445.82 441.445 1445.82 Q446.815 1445.82 450.01 1448.5 Q453.204 1451.19 453.204 1455.68 Q453.204 1457.81 452.394 1459.73 Q451.607 1461.63 449.501 1464.22 Q448.922 1464.89 445.82 1468.11 Q442.718 1471.3 437.07 1477.07 Z" fill="#000000" fill-rule="nonzero" fill-opacity="1" /><path clip-path="url(#clip790)" d="M473.204 1449.52 Q469.593 1449.52 467.764 1453.09 Q465.959 1456.63 465.959 1463.76 Q465.959 1470.86 467.764 1474.43 Q469.593 1477.97 473.204 1477.97 Q476.838 1477.97 478.644 1474.43 Q480.473 1470.86 480.473 1463.76 Q480.473 1456.63 478.644 1453.09 Q476.838 1449.52 473.204 1449.52 M473.204 1445.82 Q479.014 1445.82 482.07 1450.43 Q485.149 1455.01 485.149 1463.76 Q485.149 1472.49 482.07 1477.09 Q479.014 1481.68 473.204 1481.68 Q467.394 1481.68 464.315 1477.09 Q461.26 1472.49 461.26 1463.76 Q461.26 1455.01 464.315 1450.43 Q467.394 1445.82 473.204 1445.82 Z" fill="#000000" fill-rule="nonzero" fill-opacity="1" /><path clip-path="url(#clip790)" d="M490.612 1466.12 L503.088 1466.12 L503.088 1469.92 L490.612 1469.92 L490.612 1466.12 Z" fill="#000000" fill-rule="nonzero" fill-opacity="1" /><path clip-path="url(#clip790)" d="M520.472 1449.52 Q516.861 1449.52 515.033 1453.09 Q513.227 1456.63 513.227 1463.76 Q513.227 1470.86 515.033 1474.43 Q516.861 1477.97 520.472 1477.97 Q524.107 1477.97 525.912 1474.43 Q527.741 1470.86 527.741 1463.76 Q527.741 1456.63 525.912 1453.09 Q524.107 1449.52 520.472 1449.52 M520.472 1445.82 Q526.283 1445.82 529.338 1450.43 Q532.417 1455.01 532.417 1463.76 Q532.417 1472.49 529.338 1477.09 Q526.283 1481.68 520.472 1481.68 Q514.662 1481.68 511.584 1477.09 Q508.528 1472.49 508.528 1463.76 Q508.528 1455.01 511.584 1450.43 Q514.662 1445.82 520.472 1445.82 Z" fill="#000000" fill-rule="nonzero" fill-opacity="1" /><path clip-path="url(#clip790)" d="M554.801 1462.37 Q558.157 1463.09 560.032 1465.36 Q561.931 1467.62 561.931 1470.96 Q561.931 1476.07 558.412 1478.87 Q554.894 1481.68 548.412 1481.68 Q546.236 1481.68 543.921 1481.24 Q541.63 1480.82 539.176 1479.96 L539.176 1475.45 Q541.121 1476.58 543.435 1477.16 Q545.75 1477.74 548.273 1477.74 Q552.671 1477.74 554.963 1476 Q557.278 1474.27 557.278 1470.96 Q557.278 1467.9 555.125 1466.19 Q552.995 1464.45 549.176 1464.45 L545.148 1464.45 L545.148 1460.61 L549.361 1460.61 Q552.81 1460.61 554.639 1459.24 Q556.468 1457.86 556.468 1455.26 Q556.468 1452.6 554.57 1451.19 Q552.695 1449.75 549.176 1449.75 Q547.255 1449.75 545.056 1450.17 Q542.857 1450.59 540.218 1451.47 L540.218 1447.3 Q542.88 1446.56 545.195 1446.19 Q547.533 1445.82 549.593 1445.82 Q554.917 1445.82 558.019 1448.25 Q561.12 1450.66 561.12 1454.78 Q561.12 1457.65 559.477 1459.64 Q557.833 1461.61 554.801 1462.37 Z" fill="#000000" fill-rule="nonzero" fill-opacity="1" /><path clip-path="url(#clip790)" d="M568.042 1466.12 L580.518 1466.12 L580.518 1469.92 L568.042 1469.92 L568.042 1466.12 Z" fill="#000000" fill-rule="nonzero" fill-opacity="1" /><path clip-path="url(#clip790)" d="M597.903 1449.52 Q594.292 1449.52 592.463 1453.09 Q590.657 1456.63 590.657 1463.76 Q590.657 1470.86 592.463 1474.43 Q594.292 1477.97 597.903 1477.97 Q601.537 1477.97 603.342 1474.43 Q605.171 1470.86 605.171 1463.76 Q605.171 1456.63 603.342 1453.09 Q601.537 1449.52 597.903 1449.52 M597.903 1445.82 Q603.713 1445.82 606.768 1450.43 Q609.847 1455.01 609.847 1463.76 Q609.847 1472.49 606.768 1477.09 Q603.713 1481.68 597.903 1481.68 Q592.092 1481.68 589.014 1477.09 Q585.958 1472.49 585.958 1463.76 Q585.958 1455.01 589.014 1450.43 Q592.092 1445.82 597.903 1445.82 Z" fill="#000000" fill-rule="nonzero" fill-opacity="1" /><path clip-path="url(#clip790)" d="M618.875 1477.07 L626.514 1477.07 L626.514 1450.7 L618.203 1452.37 L618.203 1448.11 L626.467 1446.44 L631.143 1446.44 L631.143 1477.07 L638.782 1477.07 L638.782 1481 L618.875 1481 L618.875 1477.07 Z" fill="#000000" fill-rule="nonzero" fill-opacity="1" /><path clip-path="url(#clip790)" d="M1175.28 1477.07 L1191.6 1477.07 L1191.6 1481 L1169.66 1481 L1169.66 1477.07 Q1172.32 1474.31 1176.9 1469.68 Q1181.51 1465.03 1182.69 1463.69 Q1184.94 1461.17 1185.82 1459.43 Q1186.72 1457.67 1186.72 1455.98 Q1186.72 1453.23 1184.77 1451.49 Q1182.85 1449.75 1179.75 1449.75 Q1177.55 1449.75 1175.1 1450.52 Q1172.67 1451.28 1169.89 1452.83 L1169.89 1448.11 Q1172.71 1446.98 1175.17 1446.4 Q1177.62 1445.82 1179.66 1445.82 Q1185.03 1445.82 1188.22 1448.5 Q1191.42 1451.19 1191.42 1455.68 Q1191.42 1457.81 1190.61 1459.73 Q1189.82 1461.63 1187.71 1464.22 Q1187.14 1464.89 1184.03 1468.11 Q1180.93 1471.3 1175.28 1477.07 Z" fill="#000000" fill-rule="nonzero" fill-opacity="1" /><path clip-path="url(#clip790)" d="M1211.42 1449.52 Q1207.81 1449.52 1205.98 1453.09 Q1204.17 1456.63 1204.17 1463.76 Q1204.17 1470.86 1205.98 1474.43 Q1207.81 1477.97 1211.42 1477.97 Q1215.05 1477.97 1216.86 1474.43 Q1218.69 1470.86 1218.69 1463.76 Q1218.69 1456.63 1216.86 1453.09 Q1215.05 1449.52 1211.42 1449.52 M1211.42 1445.82 Q1217.23 1445.82 1220.28 1450.43 Q1223.36 1455.01 1223.36 1463.76 Q1223.36 1472.49 1220.28 1477.09 Q1217.23 1481.68 1211.42 1481.68 Q1205.61 1481.68 1202.53 1477.09 Q1199.47 1472.49 1199.47 1463.76 Q1199.47 1455.01 1202.53 1450.43 Q1205.61 1445.82 1211.42 1445.82 Z" fill="#000000" fill-rule="nonzero" fill-opacity="1" /><path clip-path="url(#clip790)" d="M1235.61 1477.07 L1251.93 1477.07 L1251.93 1481 L1229.98 1481 L1229.98 1477.07 Q1232.64 1474.31 1237.23 1469.68 Q1241.83 1465.03 1243.01 1463.69 Q1245.26 1461.17 1246.14 1459.43 Q1247.04 1457.67 1247.04 1455.98 Q1247.04 1453.23 1245.1 1451.49 Q1243.18 1449.75 1240.08 1449.75 Q1237.88 1449.75 1235.42 1450.52 Q1232.99 1451.28 1230.21 1452.83 L1230.21 1448.11 Q1233.04 1446.98 1235.49 1446.4 Q1237.95 1445.82 1239.98 1445.82 Q1245.35 1445.82 1248.55 1448.5 Q1251.74 1451.19 1251.74 1455.68 Q1251.74 1457.81 1250.93 1459.73 Q1250.14 1461.63 1248.04 1464.22 Q1247.46 1464.89 1244.36 1468.11 Q1241.26 1471.3 1235.61 1477.07 Z" fill="#000000" fill-rule="nonzero" fill-opacity="1" /><path clip-path="url(#clip790)" d="M1271.74 1449.52 Q1268.13 1449.52 1266.3 1453.09 Q1264.5 1456.63 1264.5 1463.76 Q1264.5 1470.86 1266.3 1474.43 Q1268.13 1477.97 1271.74 1477.97 Q1275.38 1477.97 1277.18 1474.43 Q1279.01 1470.86 1279.01 1463.76 Q1279.01 1456.63 1277.18 1453.09 Q1275.38 1449.52 1271.74 1449.52 M1271.74 1445.82 Q1277.55 1445.82 1280.61 1450.43 Q1283.69 1455.01 1283.69 1463.76 Q1283.69 1472.49 1280.61 1477.09 Q1277.55 1481.68 1271.74 1481.68 Q1265.93 1481.68 1262.85 1477.09 Q1259.8 1472.49 1259.8 1463.76 Q1259.8 1455.01 1262.85 1450.43 Q1265.93 1445.82 1271.74 1445.82 Z" fill="#000000" fill-rule="nonzero" fill-opacity="1" /><path clip-path="url(#clip790)" d="M1289.15 1466.12 L1301.63 1466.12 L1301.63 1469.92 L1289.15 1469.92 L1289.15 1466.12 Z" fill="#000000" fill-rule="nonzero" fill-opacity="1" /><path clip-path="url(#clip790)" d="M1319.01 1449.52 Q1315.4 1449.52 1313.57 1453.09 Q1311.76 1456.63 1311.76 1463.76 Q1311.76 1470.86 1313.57 1474.43 Q1315.4 1477.97 1319.01 1477.97 Q1322.64 1477.97 1324.45 1474.43 Q1326.28 1470.86 1326.28 1463.76 Q1326.28 1456.63 1324.45 1453.09 Q1322.64 1449.52 1319.01 1449.52 M1319.01 1445.82 Q1324.82 1445.82 1327.88 1450.43 Q1330.95 1455.01 1330.95 1463.76 Q1330.95 1472.49 1327.88 1477.09 Q1324.82 1481.68 1319.01 1481.68 Q1313.2 1481.68 1310.12 1477.09 Q1307.07 1472.49 1307.07 1463.76 Q1307.07 1455.01 1310.12 1450.43 Q1313.2 1445.82 1319.01 1445.82 Z" fill="#000000" fill-rule="nonzero" fill-opacity="1" /><path clip-path="url(#clip790)" d="M1352.02 1450.52 L1340.21 1468.97 L1352.02 1468.97 L1352.02 1450.52 M1350.79 1446.44 L1356.67 1446.44 L1356.67 1468.97 L1361.6 1468.97 L1361.6 1472.86 L1356.67 1472.86 L1356.67 1481 L1352.02 1481 L1352.02 1472.86 L1336.42 1472.86 L1336.42 1468.34 L1350.79 1446.44 Z" fill="#000000" fill-rule="nonzero" fill-opacity="1" /><path clip-path="url(#clip790)" d="M1366.58 1466.12 L1379.06 1466.12 L1379.06 1469.92 L1366.58 1469.92 L1366.58 1466.12 Z" fill="#000000" fill-rule="nonzero" fill-opacity="1" /><path clip-path="url(#clip790)" d="M1396.44 1449.52 Q1392.83 1449.52 1391 1453.09 Q1389.19 1456.63 1389.19 1463.76 Q1389.19 1470.86 1391 1474.43 Q1392.83 1477.97 1396.44 1477.97 Q1400.07 1477.97 1401.88 1474.43 Q1403.71 1470.86 1403.71 1463.76 Q1403.71 1456.63 1401.88 1453.09 Q1400.07 1449.52 1396.44 1449.52 M1396.44 1445.82 Q1402.25 1445.82 1405.31 1450.43 Q1408.38 1455.01 1408.38 1463.76 Q1408.38 1472.49 1405.31 1477.09 Q1402.25 1481.68 1396.44 1481.68 Q1390.63 1481.68 1387.55 1477.09 Q1384.5 1472.49 1384.5 1463.76 Q1384.5 1455.01 1387.55 1450.43 Q1390.63 1445.82 1396.44 1445.82 Z" fill="#000000" fill-rule="nonzero" fill-opacity="1" /><path clip-path="url(#clip790)" d="M1417.41 1477.07 L1425.05 1477.07 L1425.05 1450.7 L1416.74 1452.37 L1416.74 1448.11 L1425 1446.44 L1429.68 1446.44 L1429.68 1477.07 L1437.32 1477.07 L1437.32 1481 L1417.41 1481 L1417.41 1477.07 Z" fill="#000000" fill-rule="nonzero" fill-opacity="1" /><path clip-path="url(#clip790)" d="M1948.06 1477.07 L1964.38 1477.07 L1964.38 1481 L1942.44 1481 L1942.44 1477.07 Q1945.1 1474.31 1949.68 1469.68 Q1954.29 1465.03 1955.47 1463.69 Q1957.71 1461.17 1958.59 1459.43 Q1959.5 1457.67 1959.5 1455.98 Q1959.5 1453.23 1957.55 1451.49 Q1955.63 1449.75 1952.53 1449.75 Q1950.33 1449.75 1947.88 1450.52 Q1945.45 1451.28 1942.67 1452.83 L1942.67 1448.11 Q1945.49 1446.98 1947.95 1446.4 Q1950.4 1445.82 1952.44 1445.82 Q1957.81 1445.82 1961 1448.5 Q1964.2 1451.19 1964.2 1455.68 Q1964.2 1457.81 1963.39 1459.73 Q1962.6 1461.63 1960.49 1464.22 Q1959.91 1464.89 1956.81 1468.11 Q1953.71 1471.3 1948.06 1477.07 Z" fill="#000000" fill-rule="nonzero" fill-opacity="1" /><path clip-path="url(#clip790)" d="M1984.2 1449.52 Q1980.58 1449.52 1978.76 1453.09 Q1976.95 1456.63 1976.95 1463.76 Q1976.95 1470.86 1978.76 1474.43 Q1980.58 1477.97 1984.2 1477.97 Q1987.83 1477.97 1989.64 1474.43 Q1991.46 1470.86 1991.46 1463.76 Q1991.46 1456.63 1989.64 1453.09 Q1987.83 1449.52 1984.2 1449.52 M1984.2 1445.82 Q1990.01 1445.82 1993.06 1450.43 Q1996.14 1455.01 1996.14 1463.76 Q1996.14 1472.49 1993.06 1477.09 Q1990.01 1481.68 1984.2 1481.68 Q1978.39 1481.68 1975.31 1477.09 Q1972.25 1472.49 1972.25 1463.76 Q1972.25 1455.01 1975.31 1450.43 Q1978.39 1445.82 1984.2 1445.82 Z" fill="#000000" fill-rule="nonzero" fill-opacity="1" /><path clip-path="url(#clip790)" d="M2008.39 1477.07 L2024.7 1477.07 L2024.7 1481 L2002.76 1481 L2002.76 1477.07 Q2005.42 1474.31 2010.01 1469.68 Q2014.61 1465.03 2015.79 1463.69 Q2018.04 1461.17 2018.92 1459.43 Q2019.82 1457.67 2019.82 1455.98 Q2019.82 1453.23 2017.88 1451.49 Q2015.95 1449.75 2012.85 1449.75 Q2010.65 1449.75 2008.2 1450.52 Q2005.77 1451.28 2002.99 1452.83 L2002.99 1448.11 Q2005.82 1446.98 2008.27 1446.4 Q2010.72 1445.82 2012.76 1445.82 Q2018.13 1445.82 2021.33 1448.5 Q2024.52 1451.19 2024.52 1455.68 Q2024.52 1457.81 2023.71 1459.73 Q2022.92 1461.63 2020.82 1464.22 Q2020.24 1464.89 2017.14 1468.11 Q2014.03 1471.3 2008.39 1477.07 Z" fill="#000000" fill-rule="nonzero" fill-opacity="1" /><path clip-path="url(#clip790)" d="M2044.52 1449.52 Q2040.91 1449.52 2039.08 1453.09 Q2037.27 1456.63 2037.27 1463.76 Q2037.27 1470.86 2039.08 1474.43 Q2040.91 1477.97 2044.52 1477.97 Q2048.15 1477.97 2049.96 1474.43 Q2051.79 1470.86 2051.79 1463.76 Q2051.79 1456.63 2049.96 1453.09 Q2048.15 1449.52 2044.52 1449.52 M2044.52 1445.82 Q2050.33 1445.82 2053.39 1450.43 Q2056.46 1455.01 2056.46 1463.76 Q2056.46 1472.49 2053.39 1477.09 Q2050.33 1481.68 2044.52 1481.68 Q2038.71 1481.68 2035.63 1477.09 Q2032.58 1472.49 2032.58 1463.76 Q2032.58 1455.01 2035.63 1450.43 Q2038.71 1445.82 2044.52 1445.82 Z" fill="#000000" fill-rule="nonzero" fill-opacity="1" /><path clip-path="url(#clip790)" d="M2061.93 1466.12 L2074.4 1466.12 L2074.4 1469.92 L2061.93 1469.92 L2061.93 1466.12 Z" fill="#000000" fill-rule="nonzero" fill-opacity="1" /><path clip-path="url(#clip790)" d="M2091.79 1449.52 Q2088.18 1449.52 2086.35 1453.09 Q2084.54 1456.63 2084.54 1463.76 Q2084.54 1470.86 2086.35 1474.43 Q2088.18 1477.97 2091.79 1477.97 Q2095.42 1477.97 2097.23 1474.43 Q2099.06 1470.86 2099.06 1463.76 Q2099.06 1456.63 2097.23 1453.09 Q2095.42 1449.52 2091.79 1449.52 M2091.79 1445.82 Q2097.6 1445.82 2100.65 1450.43 Q2103.73 1455.01 2103.73 1463.76 Q2103.73 1472.49 2100.65 1477.09 Q2097.6 1481.68 2091.79 1481.68 Q2085.98 1481.68 2082.9 1477.09 Q2079.84 1472.49 2079.84 1463.76 Q2079.84 1455.01 2082.9 1450.43 Q2085.98 1445.82 2091.79 1445.82 Z" fill="#000000" fill-rule="nonzero" fill-opacity="1" /><path clip-path="url(#clip790)" d="M2112 1446.44 L2130.35 1446.44 L2130.35 1450.38 L2116.28 1450.38 L2116.28 1458.85 Q2117.3 1458.5 2118.32 1458.34 Q2119.33 1458.16 2120.35 1458.16 Q2126.14 1458.16 2129.52 1461.33 Q2132.9 1464.5 2132.9 1469.92 Q2132.9 1475.49 2129.43 1478.6 Q2125.95 1481.68 2119.63 1481.68 Q2117.46 1481.68 2115.19 1481.3 Q2112.95 1480.93 2110.54 1480.19 L2110.54 1475.49 Q2112.62 1476.63 2114.84 1477.18 Q2117.07 1477.74 2119.54 1477.74 Q2123.55 1477.74 2125.88 1475.63 Q2128.22 1473.53 2128.22 1469.92 Q2128.22 1466.3 2125.88 1464.2 Q2123.55 1462.09 2119.54 1462.09 Q2117.67 1462.09 2115.79 1462.51 Q2113.94 1462.93 2112 1463.8 L2112 1446.44 Z" fill="#000000" fill-rule="nonzero" fill-opacity="1" /><path clip-path="url(#clip790)" d="M2139.36 1466.12 L2151.83 1466.12 L2151.83 1469.92 L2139.36 1469.92 L2139.36 1466.12 Z" fill="#000000" fill-rule="nonzero" fill-opacity="1" /><path clip-path="url(#clip790)" d="M2169.22 1449.52 Q2165.61 1449.52 2163.78 1453.09 Q2161.97 1456.63 2161.97 1463.76 Q2161.97 1470.86 2163.78 1474.43 Q2165.61 1477.97 2169.22 1477.97 Q2172.85 1477.97 2174.66 1474.43 Q2176.49 1470.86 2176.49 1463.76 Q2176.49 1456.63 2174.66 1453.09 Q2172.85 1449.52 2169.22 1449.52 M2169.22 1445.82 Q2175.03 1445.82 2178.08 1450.43 Q2181.16 1455.01 2181.16 1463.76 Q2181.16 1472.49 2178.08 1477.09 Q2175.03 1481.68 2169.22 1481.68 Q2163.41 1481.68 2160.33 1477.09 Q2157.27 1472.49 2157.27 1463.76 Q2157.27 1455.01 2160.33 1450.43 Q2163.41 1445.82 2169.22 1445.82 Z" fill="#000000" fill-rule="nonzero" fill-opacity="1" /><path clip-path="url(#clip790)" d="M2190.19 1477.07 L2197.83 1477.07 L2197.83 1450.7 L2189.52 1452.37 L2189.52 1448.11 L2197.78 1446.44 L2202.46 1446.44 L2202.46 1477.07 L2210.1 1477.07 L2210.1 1481 L2190.19 1481 L2190.19 1477.07 Z" fill="#000000" fill-rule="nonzero" fill-opacity="1" /><path clip-path="url(#clip790)" d="M2746.6 1477.07 L2762.92 1477.07 L2762.92 1481 L2740.97 1481 L2740.97 1477.07 Q2743.64 1474.31 2748.22 1469.68 Q2752.83 1465.03 2754.01 1463.69 Q2756.25 1461.17 2757.13 1459.43 Q2758.03 1457.67 2758.03 1455.98 Q2758.03 1453.23 2756.09 1451.49 Q2754.17 1449.75 2751.07 1449.75 Q2748.87 1449.75 2746.41 1450.52 Q2743.98 1451.28 2741.21 1452.83 L2741.21 1448.11 Q2744.03 1446.98 2746.48 1446.4 Q2748.94 1445.82 2750.97 1445.82 Q2756.34 1445.82 2759.54 1448.5 Q2762.73 1451.19 2762.73 1455.68 Q2762.73 1457.81 2761.92 1459.73 Q2761.14 1461.63 2759.03 1464.22 Q2758.45 1464.89 2755.35 1468.11 Q2752.25 1471.3 2746.6 1477.07 Z" fill="#000000" fill-rule="nonzero" fill-opacity="1" /><path clip-path="url(#clip790)" d="M2782.73 1449.52 Q2779.12 1449.52 2777.29 1453.09 Q2775.49 1456.63 2775.49 1463.76 Q2775.49 1470.86 2777.29 1474.43 Q2779.12 1477.97 2782.73 1477.97 Q2786.37 1477.97 2788.17 1474.43 Q2790 1470.86 2790 1463.76 Q2790 1456.63 2788.17 1453.09 Q2786.37 1449.52 2782.73 1449.52 M2782.73 1445.82 Q2788.54 1445.82 2791.6 1450.43 Q2794.68 1455.01 2794.68 1463.76 Q2794.68 1472.49 2791.6 1477.09 Q2788.54 1481.68 2782.73 1481.68 Q2776.92 1481.68 2773.84 1477.09 Q2770.79 1472.49 2770.79 1463.76 Q2770.79 1455.01 2773.84 1450.43 Q2776.92 1445.82 2782.73 1445.82 Z" fill="#000000" fill-rule="nonzero" fill-opacity="1" /><path clip-path="url(#clip790)" d="M2806.92 1477.07 L2823.24 1477.07 L2823.24 1481 L2801.3 1481 L2801.3 1477.07 Q2803.96 1474.31 2808.54 1469.68 Q2813.15 1465.03 2814.33 1463.69 Q2816.58 1461.17 2817.46 1459.43 Q2818.36 1457.67 2818.36 1455.98 Q2818.36 1453.23 2816.41 1451.49 Q2814.49 1449.75 2811.39 1449.75 Q2809.19 1449.75 2806.74 1450.52 Q2804.31 1451.28 2801.53 1452.83 L2801.53 1448.11 Q2804.35 1446.98 2806.81 1446.4 Q2809.26 1445.82 2811.3 1445.82 Q2816.67 1445.82 2819.86 1448.5 Q2823.06 1451.19 2823.06 1455.68 Q2823.06 1457.81 2822.25 1459.73 Q2821.46 1461.63 2819.35 1464.22 Q2818.77 1464.89 2815.67 1468.11 Q2812.57 1471.3 2806.92 1477.07 Z" fill="#000000" fill-rule="nonzero" fill-opacity="1" /><path clip-path="url(#clip790)" d="M2843.06 1449.52 Q2839.45 1449.52 2837.62 1453.09 Q2835.81 1456.63 2835.81 1463.76 Q2835.81 1470.86 2837.62 1474.43 Q2839.45 1477.97 2843.06 1477.97 Q2846.69 1477.97 2848.5 1474.43 Q2850.33 1470.86 2850.33 1463.76 Q2850.33 1456.63 2848.5 1453.09 Q2846.69 1449.52 2843.06 1449.52 M2843.06 1445.82 Q2848.87 1445.82 2851.92 1450.43 Q2855 1455.01 2855 1463.76 Q2855 1472.49 2851.92 1477.09 Q2848.87 1481.68 2843.06 1481.68 Q2837.25 1481.68 2834.17 1477.09 Q2831.11 1472.49 2831.11 1463.76 Q2831.11 1455.01 2834.17 1450.43 Q2837.25 1445.82 2843.06 1445.82 Z" fill="#000000" fill-rule="nonzero" fill-opacity="1" /><path clip-path="url(#clip790)" d="M2860.46 1466.12 L2872.94 1466.12 L2872.94 1469.92 L2860.46 1469.92 L2860.46 1466.12 Z" fill="#000000" fill-rule="nonzero" fill-opacity="1" /><path clip-path="url(#clip790)" d="M2890.33 1449.52 Q2886.71 1449.52 2884.89 1453.09 Q2883.08 1456.63 2883.08 1463.76 Q2883.08 1470.86 2884.89 1474.43 Q2886.71 1477.97 2890.33 1477.97 Q2893.96 1477.97 2895.76 1474.43 Q2897.59 1470.86 2897.59 1463.76 Q2897.59 1456.63 2895.76 1453.09 Q2893.96 1449.52 2890.33 1449.52 M2890.33 1445.82 Q2896.14 1445.82 2899.19 1450.43 Q2902.27 1455.01 2902.27 1463.76 Q2902.27 1472.49 2899.19 1477.09 Q2896.14 1481.68 2890.33 1481.68 Q2884.52 1481.68 2881.44 1477.09 Q2878.38 1472.49 2878.38 1463.76 Q2878.38 1455.01 2881.44 1450.43 Q2884.52 1445.82 2890.33 1445.82 Z" fill="#000000" fill-rule="nonzero" fill-opacity="1" /><path clip-path="url(#clip790)" d="M2921.07 1461.86 Q2917.92 1461.86 2916.07 1464.01 Q2914.24 1466.17 2914.24 1469.92 Q2914.24 1473.64 2916.07 1475.82 Q2917.92 1477.97 2921.07 1477.97 Q2924.21 1477.97 2926.04 1475.82 Q2927.89 1473.64 2927.89 1469.92 Q2927.89 1466.17 2926.04 1464.01 Q2924.21 1461.86 2921.07 1461.86 M2930.35 1447.21 L2930.35 1451.47 Q2928.59 1450.63 2926.78 1450.19 Q2925 1449.75 2923.24 1449.75 Q2918.61 1449.75 2916.16 1452.88 Q2913.73 1456 2913.38 1462.32 Q2914.75 1460.31 2916.81 1459.24 Q2918.87 1458.16 2921.34 1458.16 Q2926.55 1458.16 2929.56 1461.33 Q2932.59 1464.48 2932.59 1469.92 Q2932.59 1475.24 2929.45 1478.46 Q2926.3 1481.68 2921.07 1481.68 Q2915.07 1481.68 2911.9 1477.09 Q2908.73 1472.49 2908.73 1463.76 Q2908.73 1455.56 2912.62 1450.7 Q2916.51 1445.82 2923.06 1445.82 Q2924.82 1445.82 2926.6 1446.17 Q2928.4 1446.51 2930.35 1447.21 Z" fill="#000000" fill-rule="nonzero" fill-opacity="1" /><path clip-path="url(#clip790)" d="M2937.89 1466.12 L2950.37 1466.12 L2950.37 1469.92 L2937.89 1469.92 L2937.89 1466.12 Z" fill="#000000" fill-rule="nonzero" fill-opacity="1" /><path clip-path="url(#clip790)" d="M2967.76 1449.52 Q2964.14 1449.52 2962.32 1453.09 Q2960.51 1456.63 2960.51 1463.76 Q2960.51 1470.86 2962.32 1474.43 Q2964.14 1477.97 2967.76 1477.97 Q2971.39 1477.97 2973.2 1474.43 Q2975.02 1470.86 2975.02 1463.76 Q2975.02 1456.63 2973.2 1453.09 Q2971.39 1449.52 2967.76 1449.52 M2967.76 1445.82 Q2973.57 1445.82 2976.62 1450.43 Q2979.7 1455.01 2979.7 1463.76 Q2979.7 1472.49 2976.62 1477.09 Q2973.57 1481.68 2967.76 1481.68 Q2961.95 1481.68 2958.87 1477.09 Q2955.81 1472.49 2955.81 1463.76 Q2955.81 1455.01 2958.87 1450.43 Q2961.95 1445.82 2967.76 1445.82 Z" fill="#000000" fill-rule="nonzero" fill-opacity="1" /><path clip-path="url(#clip790)" d="M2988.73 1477.07 L2996.37 1477.07 L2996.37 1450.7 L2988.06 1452.37 L2988.06 1448.11 L2996.32 1446.44 L3001 1446.44 L3001 1477.07 L3008.63 1477.07 L3008.63 1481 L2988.73 1481 L2988.73 1477.07 Z" fill="#000000" fill-rule="nonzero" fill-opacity="1" /><path clip-path="url(#clip790)" d="M1610.46 1526.83 L1610.46 1563.78 L1618.23 1563.78 Q1628.06 1563.78 1632.61 1559.33 Q1637.2 1554.87 1637.2 1545.26 Q1637.2 1535.71 1632.61 1531.29 Q1628.06 1526.83 1618.23 1526.83 L1610.46 1526.83 M1604.03 1521.55 L1617.24 1521.55 Q1631.05 1521.55 1637.52 1527.31 Q1643.98 1533.04 1643.98 1545.26 Q1643.98 1557.55 1637.48 1563.31 Q1630.99 1569.07 1617.24 1569.07 L1604.03 1569.07 L1604.03 1521.55 Z" fill="#000000" fill-rule="nonzero" fill-opacity="1" /><path clip-path="url(#clip790)" d="M1670.17 1551.15 Q1663.07 1551.15 1660.34 1552.77 Q1657.6 1554.39 1657.6 1558.31 Q1657.6 1561.43 1659.64 1563.27 Q1661.7 1565.09 1665.24 1565.09 Q1670.11 1565.09 1673.04 1561.65 Q1676 1558.18 1676 1552.45 L1676 1551.15 L1670.17 1551.15 M1681.85 1548.73 L1681.85 1569.07 L1676 1569.07 L1676 1563.66 Q1673.99 1566.9 1671 1568.46 Q1668.01 1569.99 1663.68 1569.99 Q1658.2 1569.99 1654.96 1566.94 Q1651.74 1563.85 1651.74 1558.69 Q1651.74 1552.68 1655.75 1549.62 Q1659.8 1546.57 1667.78 1546.57 L1676 1546.57 L1676 1545.99 Q1676 1541.95 1673.32 1539.75 Q1670.68 1537.53 1665.87 1537.53 Q1662.82 1537.53 1659.92 1538.26 Q1657.03 1538.99 1654.35 1540.45 L1654.35 1535.04 Q1657.57 1533.8 1660.59 1533.2 Q1663.61 1532.56 1666.48 1532.56 Q1674.21 1532.56 1678.03 1536.57 Q1681.85 1540.58 1681.85 1548.73 Z" fill="#000000" fill-rule="nonzero" fill-opacity="1" /><path clip-path="url(#clip790)" d="M1699.71 1523.3 L1699.71 1533.42 L1711.77 1533.42 L1711.77 1537.97 L1699.71 1537.97 L1699.71 1557.32 Q1699.71 1561.68 1700.89 1562.92 Q1702.1 1564.17 1705.76 1564.17 L1711.77 1564.17 L1711.77 1569.07 L1705.76 1569.07 Q1698.98 1569.07 1696.4 1566.55 Q1693.82 1564.01 1693.82 1557.32 L1693.82 1537.97 L1689.52 1537.97 L1689.52 1533.42 L1693.82 1533.42 L1693.82 1523.3 L1699.71 1523.3 Z" fill="#000000" fill-rule="nonzero" fill-opacity="1" /><path clip-path="url(#clip790)" d="M1749.97 1549.78 L1749.97 1552.64 L1723.04 1552.64 Q1723.42 1558.69 1726.67 1561.87 Q1729.95 1565.03 1735.77 1565.03 Q1739.14 1565.03 1742.29 1564.2 Q1745.48 1563.37 1748.6 1561.72 L1748.6 1567.25 Q1745.45 1568.59 1742.14 1569.29 Q1738.83 1569.99 1735.42 1569.99 Q1726.89 1569.99 1721.89 1565.03 Q1716.93 1560.06 1716.93 1551.59 Q1716.93 1542.84 1721.64 1537.72 Q1726.38 1532.56 1734.4 1532.56 Q1741.59 1532.56 1745.76 1537.21 Q1749.97 1541.82 1749.97 1549.78 M1744.11 1548.06 Q1744.05 1543.25 1741.4 1540.39 Q1738.79 1537.53 1734.46 1537.53 Q1729.56 1537.53 1726.6 1540.29 Q1723.67 1543.06 1723.23 1548.09 L1744.11 1548.06 Z" fill="#000000" fill-rule="nonzero" fill-opacity="1" /><polyline clip-path="url(#clip792)" style="stroke:#000000; stroke-linecap:round; stroke-linejoin:round; stroke-width:2; stroke-opacity:0.1; fill:none" points="232.737,1412.2 3121.26,1412.2 "/>
<polyline clip-path="url(#clip792)" style="stroke:#000000; stroke-linecap:round; stroke-linejoin:round; stroke-width:2; stroke-opacity:0.1; fill:none" points="232.737,1094.71 3121.26,1094.71 "/>
<polyline clip-path="url(#clip792)" style="stroke:#000000; stroke-linecap:round; stroke-linejoin:round; stroke-width:2; stroke-opacity:0.1; fill:none" points="232.737,777.221 3121.26,777.221 "/>
<polyline clip-path="url(#clip792)" style="stroke:#000000; stroke-linecap:round; stroke-linejoin:round; stroke-width:2; stroke-opacity:0.1; fill:none" points="232.737,459.73 3121.26,459.73 "/>
<polyline clip-path="url(#clip792)" style="stroke:#000000; stroke-linecap:round; stroke-linejoin:round; stroke-width:2; stroke-opacity:0.1; fill:none" points="232.737,142.238 3121.26,142.238 "/>
<polyline clip-path="url(#clip790)" style="stroke:#000000; stroke-linecap:round; stroke-linejoin:round; stroke-width:4; stroke-opacity:1; fill:none" points="232.737,1412.2 232.737,78.7402 "/>
<polyline clip-path="url(#clip790)" style="stroke:#000000; stroke-linecap:round; stroke-linejoin:round; stroke-width:4; stroke-opacity:1; fill:none" points="232.737,1412.2 251.635,1412.2 "/>
<polyline clip-path="url(#clip790)" style="stroke:#000000; stroke-linecap:round; stroke-linejoin:round; stroke-width:4; stroke-opacity:1; fill:none" points="232.737,1094.71 251.635,1094.71 "/>
<polyline clip-path="url(#clip790)" style="stroke:#000000; stroke-linecap:round; stroke-linejoin:round; stroke-width:4; stroke-opacity:1; fill:none" points="232.737,777.221 251.635,777.221 "/>
<polyline clip-path="url(#clip790)" style="stroke:#000000; stroke-linecap:round; stroke-linejoin:round; stroke-width:4; stroke-opacity:1; fill:none" points="232.737,459.73 251.635,459.73 "/>
<polyline clip-path="url(#clip790)" style="stroke:#000000; stroke-linecap:round; stroke-linejoin:round; stroke-width:4; stroke-opacity:1; fill:none" points="232.737,142.238 251.635,142.238 "/>
<path clip-path="url(#clip790)" d="M172.793 1398 Q169.182 1398 167.353 1401.57 Q165.547 1405.11 165.547 1412.24 Q165.547 1419.34 167.353 1422.91 Q169.182 1426.45 172.793 1426.45 Q176.427 1426.45 178.232 1422.91 Q180.061 1419.34 180.061 1412.24 Q180.061 1405.11 178.232 1401.57 Q176.427 1398 172.793 1398 M172.793 1394.3 Q178.603 1394.3 181.658 1398.91 Q184.737 1403.49 184.737 1412.24 Q184.737 1420.97 181.658 1425.57 Q178.603 1430.16 172.793 1430.16 Q166.983 1430.16 163.904 1425.57 Q160.848 1420.97 160.848 1412.24 Q160.848 1403.49 163.904 1398.91 Q166.983 1394.3 172.793 1394.3 Z" fill="#000000" fill-rule="nonzero" fill-opacity="1" /><path clip-path="url(#clip790)" d="M136.659 1108.06 L152.978 1108.06 L152.978 1111.99 L131.034 1111.99 L131.034 1108.06 Q133.696 1105.3 138.279 1100.67 Q142.885 1096.02 144.066 1094.68 Q146.311 1092.15 147.191 1090.42 Q148.094 1088.66 148.094 1086.97 Q148.094 1084.21 146.149 1082.48 Q144.228 1080.74 141.126 1080.74 Q138.927 1080.74 136.473 1081.51 Q134.043 1082.27 131.265 1083.82 L131.265 1079.1 Q134.089 1077.96 136.543 1077.39 Q138.997 1076.81 141.034 1076.81 Q146.404 1076.81 149.598 1079.49 Q152.793 1082.18 152.793 1086.67 Q152.793 1088.8 151.983 1090.72 Q151.196 1092.62 149.089 1095.21 Q148.51 1095.88 145.409 1099.1 Q142.307 1102.29 136.659 1108.06 Z" fill="#000000" fill-rule="nonzero" fill-opacity="1" /><path clip-path="url(#clip790)" d="M172.793 1080.51 Q169.182 1080.51 167.353 1084.08 Q165.547 1087.62 165.547 1094.75 Q165.547 1101.85 167.353 1105.42 Q169.182 1108.96 172.793 1108.96 Q176.427 1108.96 178.232 1105.42 Q180.061 1101.85 180.061 1094.75 Q180.061 1087.62 178.232 1084.08 Q176.427 1080.51 172.793 1080.51 M172.793 1076.81 Q178.603 1076.81 181.658 1081.41 Q184.737 1086 184.737 1094.75 Q184.737 1103.47 181.658 1108.08 Q178.603 1112.66 172.793 1112.66 Q166.983 1112.66 163.904 1108.08 Q160.848 1103.47 160.848 1094.75 Q160.848 1086 163.904 1081.41 Q166.983 1076.81 172.793 1076.81 Z" fill="#000000" fill-rule="nonzero" fill-opacity="1" /><path clip-path="url(#clip790)" d="M145.478 764.015 L133.672 782.464 L145.478 782.464 L145.478 764.015 M144.251 759.941 L150.131 759.941 L150.131 782.464 L155.061 782.464 L155.061 786.353 L150.131 786.353 L150.131 794.501 L145.478 794.501 L145.478 786.353 L129.876 786.353 L129.876 781.839 L144.251 759.941 Z" fill="#000000" fill-rule="nonzero" fill-opacity="1" /><path clip-path="url(#clip790)" d="M172.793 763.02 Q169.182 763.02 167.353 766.585 Q165.547 770.126 165.547 777.256 Q165.547 784.362 167.353 787.927 Q169.182 791.469 172.793 791.469 Q176.427 791.469 178.232 787.927 Q180.061 784.362 180.061 777.256 Q180.061 770.126 178.232 766.585 Q176.427 763.02 172.793 763.02 M172.793 759.316 Q178.603 759.316 181.658 763.923 Q184.737 768.506 184.737 777.256 Q184.737 785.983 181.658 790.589 Q178.603 795.172 172.793 795.172 Q166.983 795.172 163.904 790.589 Q160.848 785.983 160.848 777.256 Q160.848 768.506 163.904 763.923 Q166.983 759.316 172.793 759.316 Z" fill="#000000" fill-rule="nonzero" fill-opacity="1" /><path clip-path="url(#clip790)" d="M143.209 457.866 Q140.061 457.866 138.21 460.019 Q136.381 462.172 136.381 465.922 Q136.381 469.649 138.21 471.825 Q140.061 473.977 143.209 473.977 Q146.358 473.977 148.186 471.825 Q150.038 469.649 150.038 465.922 Q150.038 462.172 148.186 460.019 Q146.358 457.866 143.209 457.866 M152.492 443.214 L152.492 447.473 Q150.733 446.64 148.927 446.2 Q147.145 445.76 145.385 445.76 Q140.756 445.76 138.302 448.885 Q135.872 452.01 135.524 458.329 Q136.89 456.315 138.95 455.251 Q141.01 454.163 143.487 454.163 Q148.696 454.163 151.705 457.334 Q154.737 460.482 154.737 465.922 Q154.737 471.246 151.589 474.463 Q148.441 477.681 143.209 477.681 Q137.214 477.681 134.043 473.098 Q130.872 468.491 130.872 459.764 Q130.872 451.57 134.76 446.709 Q138.649 441.825 145.2 441.825 Q146.959 441.825 148.742 442.172 Q150.547 442.519 152.492 443.214 Z" fill="#000000" fill-rule="nonzero" fill-opacity="1" /><path clip-path="url(#clip790)" d="M172.793 445.528 Q169.182 445.528 167.353 449.093 Q165.547 452.635 165.547 459.764 Q165.547 466.871 167.353 470.436 Q169.182 473.977 172.793 473.977 Q176.427 473.977 178.232 470.436 Q180.061 466.871 180.061 459.764 Q180.061 452.635 178.232 449.093 Q176.427 445.528 172.793 445.528 M172.793 441.825 Q178.603 441.825 181.658 446.431 Q184.737 451.015 184.737 459.764 Q184.737 468.491 181.658 473.098 Q178.603 477.681 172.793 477.681 Q166.983 477.681 163.904 473.098 Q160.848 468.491 160.848 459.764 Q160.848 451.015 163.904 446.431 Q166.983 441.825 172.793 441.825 Z" fill="#000000" fill-rule="nonzero" fill-opacity="1" /><path clip-path="url(#clip790)" d="M142.631 143.106 Q139.297 143.106 137.376 144.889 Q135.478 146.671 135.478 149.796 Q135.478 152.921 137.376 154.704 Q139.297 156.486 142.631 156.486 Q145.964 156.486 147.885 154.704 Q149.807 152.898 149.807 149.796 Q149.807 146.671 147.885 144.889 Q145.987 143.106 142.631 143.106 M137.955 141.116 Q134.946 140.375 133.256 138.315 Q131.589 136.255 131.589 133.292 Q131.589 129.148 134.529 126.741 Q137.492 124.333 142.631 124.333 Q147.793 124.333 150.733 126.741 Q153.672 129.148 153.672 133.292 Q153.672 136.255 151.983 138.315 Q150.316 140.375 147.33 141.116 Q150.709 141.903 152.584 144.194 Q154.483 146.486 154.483 149.796 Q154.483 154.819 151.404 157.505 Q148.348 160.19 142.631 160.19 Q136.913 160.19 133.835 157.505 Q130.779 154.819 130.779 149.796 Q130.779 146.486 132.677 144.194 Q134.575 141.903 137.955 141.116 M136.242 133.732 Q136.242 136.417 137.909 137.921 Q139.598 139.426 142.631 139.426 Q145.64 139.426 147.33 137.921 Q149.043 136.417 149.043 133.732 Q149.043 131.046 147.33 129.542 Q145.64 128.037 142.631 128.037 Q139.598 128.037 137.909 129.542 Q136.242 131.046 136.242 133.732 Z" fill="#000000" fill-rule="nonzero" fill-opacity="1" /><path clip-path="url(#clip790)" d="M172.793 128.037 Q169.182 128.037 167.353 131.602 Q165.547 135.144 165.547 142.273 Q165.547 149.38 167.353 152.944 Q169.182 156.486 172.793 156.486 Q176.427 156.486 178.232 152.944 Q180.061 149.38 180.061 142.273 Q180.061 135.144 178.232 131.602 Q176.427 128.037 172.793 128.037 M172.793 124.333 Q178.603 124.333 181.658 128.94 Q184.737 133.523 184.737 142.273 Q184.737 151 181.658 155.606 Q178.603 160.19 172.793 160.19 Q166.983 160.19 163.904 155.606 Q160.848 151 160.848 142.273 Q160.848 133.523 163.904 128.94 Q166.983 124.333 172.793 124.333 Z" fill="#000000" fill-rule="nonzero" fill-opacity="1" /><path clip-path="url(#clip790)" d="M45.3402 969.195 Q46.0405 967.126 48.3321 965.184 Q50.6238 963.211 54.6342 961.238 L67.6202 954.713 L67.6202 961.62 L55.4299 967.699 Q50.6556 970.054 49.096 972.282 Q47.5364 974.478 47.5364 978.298 L47.5364 985.3 L67.6202 985.3 L67.6202 991.729 L20.1002 991.729 L20.1002 977.216 Q20.1002 969.067 23.5059 965.057 Q26.9115 961.047 33.7865 961.047 Q38.2743 961.047 41.2344 963.147 Q44.1944 965.216 45.3402 969.195 M25.3838 985.3 L42.2529 985.3 L42.2529 977.216 Q42.2529 972.569 40.1204 970.213 Q37.956 967.826 33.7865 967.826 Q29.617 967.826 27.5163 970.213 Q25.3838 972.569 25.3838 977.216 L25.3838 985.3 Z" fill="#000000" fill-rule="nonzero" fill-opacity="1" /><path clip-path="url(#clip790)" d="M48.3321 919.128 L51.1967 919.128 L51.1967 946.055 Q57.2441 945.673 60.427 942.427 Q63.578 939.149 63.578 933.324 Q63.578 929.95 62.7505 926.799 Q61.9229 923.616 60.2678 920.497 L65.806 920.497 Q67.1428 923.648 67.843 926.958 Q68.5432 930.268 68.5432 933.674 Q68.5432 942.204 63.578 947.201 Q58.6127 952.166 50.1464 952.166 Q41.3935 952.166 36.2691 947.456 Q31.1129 942.713 31.1129 934.693 Q31.1129 927.499 35.7599 923.33 Q40.375 919.128 48.3321 919.128 M46.6134 924.985 Q41.8073 925.049 38.9427 927.69 Q36.0781 930.3 36.0781 934.629 Q36.0781 939.531 38.8472 942.491 Q41.6163 945.419 46.6452 945.864 L46.6134 924.985 Z" fill="#000000" fill-rule="nonzero" fill-opacity="1" /><path clip-path="url(#clip790)" d="M62.273 903.851 L81.1792 903.851 L81.1792 909.739 L31.9723 909.739 L31.9723 903.851 L37.3831 903.851 Q34.2003 902.005 32.6725 899.204 Q31.1129 896.371 31.1129 892.456 Q31.1129 885.963 36.2691 881.921 Q41.4253 877.847 49.8281 877.847 Q58.2308 877.847 63.387 881.921 Q68.5432 885.963 68.5432 892.456 Q68.5432 896.371 67.0155 899.204 Q65.4559 902.005 62.273 903.851 M49.8281 883.926 Q43.3669 883.926 39.7066 886.6 Q36.0145 889.241 36.0145 893.888 Q36.0145 898.535 39.7066 901.209 Q43.3669 903.851 49.8281 903.851 Q56.2893 903.851 59.9814 901.209 Q63.6417 898.535 63.6417 893.888 Q63.6417 889.241 59.9814 886.6 Q56.2893 883.926 49.8281 883.926 Z" fill="#000000" fill-rule="nonzero" fill-opacity="1" /><path clip-path="url(#clip790)" d="M36.0781 854.326 Q36.0781 859.036 39.7703 861.773 Q43.4305 864.511 49.8281 864.511 Q56.2256 864.511 59.9177 861.805 Q63.578 859.068 63.578 854.326 Q63.578 849.647 59.8859 846.91 Q56.1938 844.172 49.8281 844.172 Q43.4942 844.172 39.8021 846.91 Q36.0781 849.647 36.0781 854.326 M31.1129 854.326 Q31.1129 846.687 36.0781 842.326 Q41.0434 837.966 49.8281 837.966 Q58.5809 837.966 63.578 842.326 Q68.5432 846.687 68.5432 854.326 Q68.5432 861.996 63.578 866.357 Q58.5809 870.685 49.8281 870.685 Q41.0434 870.685 36.0781 866.357 Q31.1129 861.996 31.1129 854.326 Z" fill="#000000" fill-rule="nonzero" fill-opacity="1" /><path clip-path="url(#clip790)" d="M37.4468 807.601 Q36.8739 808.588 36.6192 809.766 Q36.3328 810.911 36.3328 812.312 Q36.3328 817.277 39.5793 819.951 Q42.794 822.593 48.8414 822.593 L67.6202 822.593 L67.6202 828.481 L31.9723 828.481 L31.9723 822.593 L37.5104 822.593 Q34.2639 820.746 32.7043 817.786 Q31.1129 814.826 31.1129 810.593 Q31.1129 809.988 31.2084 809.256 Q31.272 808.524 31.4312 807.633 L37.4468 807.601 Z" fill="#000000" fill-rule="nonzero" fill-opacity="1" /><path clip-path="url(#clip790)" d="M21.8508 795.666 L31.9723 795.666 L31.9723 783.603 L36.5237 783.603 L36.5237 795.666 L55.8755 795.666 Q60.236 795.666 61.4773 794.488 Q62.7186 793.278 62.7186 789.618 L62.7186 783.603 L67.6202 783.603 L67.6202 789.618 Q67.6202 796.398 65.1058 798.976 Q62.5595 801.554 55.8755 801.554 L36.5237 801.554 L36.5237 805.851 L31.9723 805.851 L31.9723 801.554 L21.8508 801.554 L21.8508 795.666 Z" fill="#000000" fill-rule="nonzero" fill-opacity="1" /><path clip-path="url(#clip790)" d="M48.3321 745.408 L51.1967 745.408 L51.1967 772.335 Q57.2441 771.953 60.427 768.707 Q63.578 765.428 63.578 759.604 Q63.578 756.23 62.7505 753.079 Q61.9229 749.896 60.2678 746.777 L65.806 746.777 Q67.1428 749.928 67.843 753.238 Q68.5432 756.548 68.5432 759.954 Q68.5432 768.484 63.578 773.481 Q58.6127 778.446 50.1464 778.446 Q41.3935 778.446 36.2691 773.736 Q31.1129 768.993 31.1129 760.972 Q31.1129 753.779 35.7599 749.61 Q40.375 745.408 48.3321 745.408 M46.6134 751.265 Q41.8073 751.328 38.9427 753.97 Q36.0781 756.58 36.0781 760.909 Q36.0781 765.81 38.8472 768.77 Q41.6163 771.699 46.6452 772.144 L46.6134 751.265 Z" fill="#000000" fill-rule="nonzero" fill-opacity="1" /><path clip-path="url(#clip790)" d="M37.3831 712.338 L18.095 712.338 L18.095 706.482 L67.6202 706.482 L67.6202 712.338 L62.273 712.338 Q65.4559 714.185 67.0155 717.017 Q68.5432 719.818 68.5432 723.765 Q68.5432 730.226 63.387 734.3 Q58.2308 738.342 49.8281 738.342 Q41.4253 738.342 36.2691 734.3 Q31.1129 730.226 31.1129 723.765 Q31.1129 719.818 32.6725 717.017 Q34.2003 714.185 37.3831 712.338 M49.8281 732.295 Q56.2893 732.295 59.9814 729.653 Q63.6417 726.98 63.6417 722.333 Q63.6417 717.686 59.9814 715.012 Q56.2893 712.338 49.8281 712.338 Q43.3669 712.338 39.7066 715.012 Q36.0145 717.686 36.0145 722.333 Q36.0145 726.98 39.7066 729.653 Q43.3669 732.295 49.8281 732.295 Z" fill="#000000" fill-rule="nonzero" fill-opacity="1" /><path clip-path="url(#clip790)" d="M33.3409 648.045 L38.8154 648.045 Q37.4468 650.527 36.7784 653.042 Q36.0781 655.525 36.0781 658.071 Q36.0781 663.768 39.7066 666.919 Q43.3032 670.07 49.8281 670.07 Q56.3529 670.07 59.9814 666.919 Q63.578 663.768 63.578 658.071 Q63.578 655.525 62.9096 653.042 Q62.2094 650.527 60.8407 648.045 L66.2516 648.045 Q67.3974 650.496 67.9703 653.137 Q68.5432 655.747 68.5432 658.707 Q68.5432 666.76 63.4825 671.502 Q58.4218 676.245 49.8281 676.245 Q41.1071 676.245 36.11 671.471 Q31.1129 666.665 31.1129 658.325 Q31.1129 655.62 31.6858 653.042 Q32.2269 650.464 33.3409 648.045 Z" fill="#000000" fill-rule="nonzero" fill-opacity="1" /><path clip-path="url(#clip790)" d="M49.7008 621.659 Q49.7008 628.757 51.324 631.494 Q52.9473 634.231 56.8622 634.231 Q59.9814 634.231 61.8274 632.194 Q63.6417 630.125 63.6417 626.592 Q63.6417 621.723 60.2042 618.794 Q56.7349 615.834 51.0057 615.834 L49.7008 615.834 L49.7008 621.659 M47.2818 609.978 L67.6202 609.978 L67.6202 615.834 L62.2094 615.834 Q65.4559 617.84 67.0155 620.831 Q68.5432 623.823 68.5432 628.152 Q68.5432 633.627 65.4877 636.873 Q62.4003 640.088 57.2441 640.088 Q51.2285 640.088 48.173 636.077 Q45.1174 632.035 45.1174 624.046 L45.1174 615.834 L44.5445 615.834 Q40.5023 615.834 38.3061 618.508 Q36.0781 621.15 36.0781 625.956 Q36.0781 629.011 36.8102 631.908 Q37.5423 634.804 39.0064 637.478 L33.5955 637.478 Q32.3542 634.263 31.7495 631.239 Q31.1129 628.216 31.1129 625.351 Q31.1129 617.617 35.1233 613.797 Q39.1337 609.978 47.2818 609.978 Z" fill="#000000" fill-rule="nonzero" fill-opacity="1" /><path clip-path="url(#clip790)" d="M33.0226 575.189 L38.5608 575.189 Q37.2876 577.672 36.6511 580.346 Q36.0145 583.019 36.0145 585.884 Q36.0145 590.244 37.3513 592.44 Q38.6881 594.605 41.3617 594.605 Q43.3987 594.605 44.5764 593.045 Q45.7222 591.486 46.7725 586.775 L47.2181 584.77 Q48.5549 578.531 51.0057 575.921 Q53.4247 573.28 57.7852 573.28 Q62.7505 573.28 65.6469 577.226 Q68.5432 581.141 68.5432 588.016 Q68.5432 590.881 67.9703 594 Q67.4292 597.087 66.3153 600.525 L60.2678 600.525 Q61.9547 597.278 62.8141 594.127 Q63.6417 590.976 63.6417 587.889 Q63.6417 583.751 62.2412 581.523 Q60.8089 579.295 58.2308 579.295 Q55.8437 579.295 54.5705 580.918 Q53.2974 582.51 52.1197 587.953 L51.6423 589.99 Q50.4965 595.432 48.1412 597.851 Q45.754 600.27 41.6163 600.27 Q36.5874 600.27 33.8501 596.705 Q31.1129 593.141 31.1129 586.584 Q31.1129 583.337 31.5903 580.473 Q32.0677 577.608 33.0226 575.189 Z" fill="#000000" fill-rule="nonzero" fill-opacity="1" /><path clip-path="url(#clip790)" d="M48.3321 533.462 L51.1967 533.462 L51.1967 560.389 Q57.2441 560.007 60.427 556.761 Q63.578 553.482 63.578 547.658 Q63.578 544.284 62.7505 541.133 Q61.9229 537.95 60.2678 534.831 L65.806 534.831 Q67.1428 537.982 67.843 541.292 Q68.5432 544.602 68.5432 548.008 Q68.5432 556.538 63.578 561.535 Q58.6127 566.5 50.1464 566.5 Q41.3935 566.5 36.2691 561.79 Q31.1129 557.047 31.1129 549.026 Q31.1129 541.833 35.7599 537.663 Q40.375 533.462 48.3321 533.462 M46.6134 539.319 Q41.8073 539.382 38.9427 542.024 Q36.0781 544.634 36.0781 548.963 Q36.0781 553.864 38.8472 556.824 Q41.6163 559.752 46.6452 560.198 L46.6134 539.319 Z" fill="#000000" fill-rule="nonzero" fill-opacity="1" /><path clip-path="url(#clip790)" d="M33.0226 501.124 L38.5608 501.124 Q37.2876 503.607 36.6511 506.281 Q36.0145 508.954 36.0145 511.819 Q36.0145 516.179 37.3513 518.375 Q38.6881 520.54 41.3617 520.54 Q43.3987 520.54 44.5764 518.98 Q45.7222 517.421 46.7725 512.71 L47.2181 510.705 Q48.5549 504.466 51.0057 501.856 Q53.4247 499.215 57.7852 499.215 Q62.7505 499.215 65.6469 503.161 Q68.5432 507.076 68.5432 513.951 Q68.5432 516.816 67.9703 519.935 Q67.4292 523.022 66.3153 526.46 L60.2678 526.46 Q61.9547 523.213 62.8141 520.062 Q63.6417 516.911 63.6417 513.824 Q63.6417 509.686 62.2412 507.458 Q60.8089 505.23 58.2308 505.23 Q55.8437 505.23 54.5705 506.853 Q53.2974 508.445 52.1197 513.888 L51.6423 515.925 Q50.4965 521.367 48.1412 523.786 Q45.754 526.205 41.6163 526.205 Q36.5874 526.205 33.8501 522.64 Q31.1129 519.076 31.1129 512.519 Q31.1129 509.272 31.5903 506.408 Q32.0677 503.543 33.0226 501.124 Z" fill="#000000" fill-rule="nonzero" fill-opacity="1" /><path clip-path="url(#clip792)" d="M391.611 1396.33 L391.611 1412.2 L412.218 1412.2 L412.218 1396.33 L391.611 1396.33 L391.611 1396.33  Z" fill="#00008b" fill-rule="evenodd" fill-opacity="1"/>
<polyline clip-path="url(#clip792)" style="stroke:#000000; stroke-linecap:round; stroke-linejoin:round; stroke-width:4; stroke-opacity:1; fill:none" points="391.611,1396.33 391.611,1412.2 412.218,1412.2 412.218,1396.33 391.611,1396.33 "/>
<path clip-path="url(#clip792)" d="M417.37 1412.2 L417.37 1412.2 L437.978 1412.2 L437.978 1412.2 L417.37 1412.2 L417.37 1412.2  Z" fill="#00008b" fill-rule="evenodd" fill-opacity="1"/>
<polyline clip-path="url(#clip792)" style="stroke:#000000; stroke-linecap:round; stroke-linejoin:round; stroke-width:4; stroke-opacity:1; fill:none" points="417.37,1412.2 417.37,1412.2 437.978,1412.2 417.37,1412.2 "/>
<path clip-path="url(#clip792)" d="M443.129 1412.2 L443.129 1412.2 L463.737 1412.2 L463.737 1412.2 L443.129 1412.2 L443.129 1412.2  Z" fill="#00008b" fill-rule="evenodd" fill-opacity="1"/>
<polyline clip-path="url(#clip792)" style="stroke:#000000; stroke-linecap:round; stroke-linejoin:round; stroke-width:4; stroke-opacity:1; fill:none" points="443.129,1412.2 443.129,1412.2 463.737,1412.2 443.129,1412.2 "/>
<path clip-path="url(#clip792)" d="M468.889 1412.2 L468.889 1412.2 L489.496 1412.2 L489.496 1412.2 L468.889 1412.2 L468.889 1412.2  Z" fill="#00008b" fill-rule="evenodd" fill-opacity="1"/>
<polyline clip-path="url(#clip792)" style="stroke:#000000; stroke-linecap:round; stroke-linejoin:round; stroke-width:4; stroke-opacity:1; fill:none" points="468.889,1412.2 468.889,1412.2 489.496,1412.2 468.889,1412.2 "/>
<path clip-path="url(#clip792)" d="M494.648 1412.2 L494.648 1412.2 L515.255 1412.2 L515.255 1412.2 L494.648 1412.2 L494.648 1412.2  Z" fill="#00008b" fill-rule="evenodd" fill-opacity="1"/>
<polyline clip-path="url(#clip792)" style="stroke:#000000; stroke-linecap:round; stroke-linejoin:round; stroke-width:4; stroke-opacity:1; fill:none" points="494.648,1412.2 494.648,1412.2 515.255,1412.2 494.648,1412.2 "/>
<path clip-path="url(#clip792)" d="M520.407 1396.33 L520.407 1412.2 L541.015 1412.2 L541.015 1396.33 L520.407 1396.33 L520.407 1396.33  Z" fill="#00008b" fill-rule="evenodd" fill-opacity="1"/>
<polyline clip-path="url(#clip792)" style="stroke:#000000; stroke-linecap:round; stroke-linejoin:round; stroke-width:4; stroke-opacity:1; fill:none" points="520.407,1396.33 520.407,1412.2 541.015,1412.2 541.015,1396.33 520.407,1396.33 "/>
<path clip-path="url(#clip792)" d="M546.167 1412.2 L546.167 1412.2 L566.774 1412.2 L566.774 1412.2 L546.167 1412.2 L546.167 1412.2  Z" fill="#00008b" fill-rule="evenodd" fill-opacity="1"/>
<polyline clip-path="url(#clip792)" style="stroke:#000000; stroke-linecap:round; stroke-linejoin:round; stroke-width:4; stroke-opacity:1; fill:none" points="546.167,1412.2 546.167,1412.2 566.774,1412.2 546.167,1412.2 "/>
<path clip-path="url(#clip792)" d="M571.926 1380.45 L571.926 1412.2 L592.533 1412.2 L592.533 1380.45 L571.926 1380.45 L571.926 1380.45  Z" fill="#00008b" fill-rule="evenodd" fill-opacity="1"/>
<polyline clip-path="url(#clip792)" style="stroke:#000000; stroke-linecap:round; stroke-linejoin:round; stroke-width:4; stroke-opacity:1; fill:none" points="571.926,1380.45 571.926,1412.2 592.533,1412.2 592.533,1380.45 571.926,1380.45 "/>
<path clip-path="url(#clip792)" d="M597.685 1380.45 L597.685 1412.2 L618.292 1412.2 L618.292 1380.45 L597.685 1380.45 L597.685 1380.45  Z" fill="#00008b" fill-rule="evenodd" fill-opacity="1"/>
<polyline clip-path="url(#clip792)" style="stroke:#000000; stroke-linecap:round; stroke-linejoin:round; stroke-width:4; stroke-opacity:1; fill:none" points="597.685,1380.45 597.685,1412.2 618.292,1412.2 618.292,1380.45 597.685,1380.45 "/>
<path clip-path="url(#clip792)" d="M623.444 1396.33 L623.444 1412.2 L644.052 1412.2 L644.052 1396.33 L623.444 1396.33 L623.444 1396.33  Z" fill="#00008b" fill-rule="evenodd" fill-opacity="1"/>
<polyline clip-path="url(#clip792)" style="stroke:#000000; stroke-linecap:round; stroke-linejoin:round; stroke-width:4; stroke-opacity:1; fill:none" points="623.444,1396.33 623.444,1412.2 644.052,1412.2 644.052,1396.33 623.444,1396.33 "/>
<path clip-path="url(#clip792)" d="M649.204 1412.2 L649.204 1412.2 L669.811 1412.2 L669.811 1412.2 L649.204 1412.2 L649.204 1412.2  Z" fill="#00008b" fill-rule="evenodd" fill-opacity="1"/>
<polyline clip-path="url(#clip792)" style="stroke:#000000; stroke-linecap:round; stroke-linejoin:round; stroke-width:4; stroke-opacity:1; fill:none" points="649.204,1412.2 649.204,1412.2 669.811,1412.2 649.204,1412.2 "/>
<path clip-path="url(#clip792)" d="M674.963 1412.2 L674.963 1412.2 L695.57 1412.2 L695.57 1412.2 L674.963 1412.2 L674.963 1412.2  Z" fill="#00008b" fill-rule="evenodd" fill-opacity="1"/>
<polyline clip-path="url(#clip792)" style="stroke:#000000; stroke-linecap:round; stroke-linejoin:round; stroke-width:4; stroke-opacity:1; fill:none" points="674.963,1412.2 674.963,1412.2 695.57,1412.2 674.963,1412.2 "/>
<path clip-path="url(#clip792)" d="M700.722 1412.2 L700.722 1412.2 L721.33 1412.2 L721.33 1412.2 L700.722 1412.2 L700.722 1412.2  Z" fill="#00008b" fill-rule="evenodd" fill-opacity="1"/>
<polyline clip-path="url(#clip792)" style="stroke:#000000; stroke-linecap:round; stroke-linejoin:round; stroke-width:4; stroke-opacity:1; fill:none" points="700.722,1412.2 700.722,1412.2 721.33,1412.2 700.722,1412.2 "/>
<path clip-path="url(#clip792)" d="M726.481 1412.2 L726.481 1412.2 L747.089 1412.2 L747.089 1412.2 L726.481 1412.2 L726.481 1412.2  Z" fill="#00008b" fill-rule="evenodd" fill-opacity="1"/>
<polyline clip-path="url(#clip792)" style="stroke:#000000; stroke-linecap:round; stroke-linejoin:round; stroke-width:4; stroke-opacity:1; fill:none" points="726.481,1412.2 726.481,1412.2 747.089,1412.2 726.481,1412.2 "/>
<path clip-path="url(#clip792)" d="M752.241 1412.2 L752.241 1412.2 L772.848 1412.2 L772.848 1412.2 L752.241 1412.2 L752.241 1412.2  Z" fill="#00008b" fill-rule="evenodd" fill-opacity="1"/>
<polyline clip-path="url(#clip792)" style="stroke:#000000; stroke-linecap:round; stroke-linejoin:round; stroke-width:4; stroke-opacity:1; fill:none" points="752.241,1412.2 752.241,1412.2 772.848,1412.2 752.241,1412.2 "/>
<path clip-path="url(#clip792)" d="M778 1396.33 L778 1412.2 L798.607 1412.2 L798.607 1396.33 L778 1396.33 L778 1396.33  Z" fill="#00008b" fill-rule="evenodd" fill-opacity="1"/>
<polyline clip-path="url(#clip792)" style="stroke:#000000; stroke-linecap:round; stroke-linejoin:round; stroke-width:4; stroke-opacity:1; fill:none" points="778,1396.33 778,1412.2 798.607,1412.2 798.607,1396.33 778,1396.33 "/>
<path clip-path="url(#clip792)" d="M803.759 1396.33 L803.759 1412.2 L824.367 1412.2 L824.367 1396.33 L803.759 1396.33 L803.759 1396.33  Z" fill="#00008b" fill-rule="evenodd" fill-opacity="1"/>
<polyline clip-path="url(#clip792)" style="stroke:#000000; stroke-linecap:round; stroke-linejoin:round; stroke-width:4; stroke-opacity:1; fill:none" points="803.759,1396.33 803.759,1412.2 824.367,1412.2 824.367,1396.33 803.759,1396.33 "/>
<path clip-path="url(#clip792)" d="M829.519 1396.33 L829.519 1412.2 L850.126 1412.2 L850.126 1396.33 L829.519 1396.33 L829.519 1396.33  Z" fill="#00008b" fill-rule="evenodd" fill-opacity="1"/>
<polyline clip-path="url(#clip792)" style="stroke:#000000; stroke-linecap:round; stroke-linejoin:round; stroke-width:4; stroke-opacity:1; fill:none" points="829.519,1396.33 829.519,1412.2 850.126,1412.2 850.126,1396.33 829.519,1396.33 "/>
<path clip-path="url(#clip792)" d="M855.278 1396.33 L855.278 1412.2 L875.885 1412.2 L875.885 1396.33 L855.278 1396.33 L855.278 1396.33  Z" fill="#00008b" fill-rule="evenodd" fill-opacity="1"/>
<polyline clip-path="url(#clip792)" style="stroke:#000000; stroke-linecap:round; stroke-linejoin:round; stroke-width:4; stroke-opacity:1; fill:none" points="855.278,1396.33 855.278,1412.2 875.885,1412.2 875.885,1396.33 855.278,1396.33 "/>
<path clip-path="url(#clip792)" d="M881.037 1301.08 L881.037 1412.2 L901.644 1412.2 L901.644 1301.08 L881.037 1301.08 L881.037 1301.08  Z" fill="#00008b" fill-rule="evenodd" fill-opacity="1"/>
<polyline clip-path="url(#clip792)" style="stroke:#000000; stroke-linecap:round; stroke-linejoin:round; stroke-width:4; stroke-opacity:1; fill:none" points="881.037,1301.08 881.037,1412.2 901.644,1412.2 901.644,1301.08 881.037,1301.08 "/>
<path clip-path="url(#clip792)" d="M906.796 1221.71 L906.796 1412.2 L927.404 1412.2 L927.404 1221.71 L906.796 1221.71 L906.796 1221.71  Z" fill="#00008b" fill-rule="evenodd" fill-opacity="1"/>
<polyline clip-path="url(#clip792)" style="stroke:#000000; stroke-linecap:round; stroke-linejoin:round; stroke-width:4; stroke-opacity:1; fill:none" points="906.796,1221.71 906.796,1412.2 927.404,1412.2 927.404,1221.71 906.796,1221.71 "/>
<path clip-path="url(#clip792)" d="M932.556 1332.83 L932.556 1412.2 L953.163 1412.2 L953.163 1332.83 L932.556 1332.83 L932.556 1332.83  Z" fill="#00008b" fill-rule="evenodd" fill-opacity="1"/>
<polyline clip-path="url(#clip792)" style="stroke:#000000; stroke-linecap:round; stroke-linejoin:round; stroke-width:4; stroke-opacity:1; fill:none" points="932.556,1332.83 932.556,1412.2 953.163,1412.2 953.163,1332.83 932.556,1332.83 "/>
<path clip-path="url(#clip792)" d="M958.315 1126.46 L958.315 1412.2 L978.922 1412.2 L978.922 1126.46 L958.315 1126.46 L958.315 1126.46  Z" fill="#00008b" fill-rule="evenodd" fill-opacity="1"/>
<polyline clip-path="url(#clip792)" style="stroke:#000000; stroke-linecap:round; stroke-linejoin:round; stroke-width:4; stroke-opacity:1; fill:none" points="958.315,1126.46 958.315,1412.2 978.922,1412.2 978.922,1126.46 958.315,1126.46 "/>
<path clip-path="url(#clip792)" d="M984.074 1237.58 L984.074 1412.2 L1004.68 1412.2 L1004.68 1237.58 L984.074 1237.58 L984.074 1237.58  Z" fill="#00008b" fill-rule="evenodd" fill-opacity="1"/>
<polyline clip-path="url(#clip792)" style="stroke:#000000; stroke-linecap:round; stroke-linejoin:round; stroke-width:4; stroke-opacity:1; fill:none" points="984.074,1237.58 984.074,1412.2 1004.68,1412.2 1004.68,1237.58 984.074,1237.58 "/>
<path clip-path="url(#clip792)" d="M1009.83 1031.21 L1009.83 1412.2 L1030.44 1412.2 L1030.44 1031.21 L1009.83 1031.21 L1009.83 1031.21  Z" fill="#00008b" fill-rule="evenodd" fill-opacity="1"/>
<polyline clip-path="url(#clip792)" style="stroke:#000000; stroke-linecap:round; stroke-linejoin:round; stroke-width:4; stroke-opacity:1; fill:none" points="1009.83,1031.21 1009.83,1412.2 1030.44,1412.2 1030.44,1031.21 1009.83,1031.21 "/>
<path clip-path="url(#clip792)" d="M1035.59 713.723 L1035.59 1412.2 L1056.2 1412.2 L1056.2 713.723 L1035.59 713.723 L1035.59 713.723  Z" fill="#00008b" fill-rule="evenodd" fill-opacity="1"/>
<polyline clip-path="url(#clip792)" style="stroke:#000000; stroke-linecap:round; stroke-linejoin:round; stroke-width:4; stroke-opacity:1; fill:none" points="1035.59,713.723 1035.59,1412.2 1056.2,1412.2 1056.2,713.723 1035.59,713.723 "/>
<path clip-path="url(#clip792)" d="M1061.35 761.347 L1061.35 1412.2 L1081.96 1412.2 L1081.96 761.347 L1061.35 761.347 L1061.35 761.347  Z" fill="#00008b" fill-rule="evenodd" fill-opacity="1"/>
<polyline clip-path="url(#clip792)" style="stroke:#000000; stroke-linecap:round; stroke-linejoin:round; stroke-width:4; stroke-opacity:1; fill:none" points="1061.35,761.347 1061.35,1412.2 1081.96,1412.2 1081.96,761.347 1061.35,761.347 "/>
<path clip-path="url(#clip792)" d="M1087.11 491.479 L1087.11 1412.2 L1107.72 1412.2 L1107.72 491.479 L1087.11 491.479 L1087.11 491.479  Z" fill="#00008b" fill-rule="evenodd" fill-opacity="1"/>
<polyline clip-path="url(#clip792)" style="stroke:#000000; stroke-linecap:round; stroke-linejoin:round; stroke-width:4; stroke-opacity:1; fill:none" points="1087.11,491.479 1087.11,1412.2 1107.72,1412.2 1107.72,491.479 1087.11,491.479 "/>
<path clip-path="url(#clip792)" d="M1112.87 78.7402 L1112.87 1412.2 L1133.48 1412.2 L1133.48 78.7402 L1112.87 78.7402 L1112.87 78.7402  Z" fill="#00008b" fill-rule="evenodd" fill-opacity="1"/>
<polyline clip-path="url(#clip792)" style="stroke:#000000; stroke-linecap:round; stroke-linejoin:round; stroke-width:4; stroke-opacity:1; fill:none" points="1112.87,78.7402 1112.87,1412.2 1133.48,1412.2 1133.48,78.7402 1112.87,78.7402 "/>
<path clip-path="url(#clip792)" d="M1138.63 158.113 L1138.63 1412.2 L1159.24 1412.2 L1159.24 158.113 L1138.63 158.113 L1138.63 158.113  Z" fill="#00008b" fill-rule="evenodd" fill-opacity="1"/>
<polyline clip-path="url(#clip792)" style="stroke:#000000; stroke-linecap:round; stroke-linejoin:round; stroke-width:4; stroke-opacity:1; fill:none" points="1138.63,158.113 1138.63,1412.2 1159.24,1412.2 1159.24,158.113 1138.63,158.113 "/>
<path clip-path="url(#clip792)" d="M1164.39 221.611 L1164.39 1412.2 L1185 1412.2 L1185 221.611 L1164.39 221.611 L1164.39 221.611  Z" fill="#00008b" fill-rule="evenodd" fill-opacity="1"/>
<polyline clip-path="url(#clip792)" style="stroke:#000000; stroke-linecap:round; stroke-linejoin:round; stroke-width:4; stroke-opacity:1; fill:none" points="1164.39,221.611 1164.39,1412.2 1185,1412.2 1185,221.611 1164.39,221.611 "/>
<path clip-path="url(#clip792)" d="M1190.15 269.235 L1190.15 1412.2 L1210.76 1412.2 L1210.76 269.235 L1190.15 269.235 L1190.15 269.235  Z" fill="#00008b" fill-rule="evenodd" fill-opacity="1"/>
<polyline clip-path="url(#clip792)" style="stroke:#000000; stroke-linecap:round; stroke-linejoin:round; stroke-width:4; stroke-opacity:1; fill:none" points="1190.15,269.235 1190.15,1412.2 1210.76,1412.2 1210.76,269.235 1190.15,269.235 "/>
<path clip-path="url(#clip792)" d="M1215.91 237.486 L1215.91 1412.2 L1236.51 1412.2 L1236.51 237.486 L1215.91 237.486 L1215.91 237.486  Z" fill="#00008b" fill-rule="evenodd" fill-opacity="1"/>
<polyline clip-path="url(#clip792)" style="stroke:#000000; stroke-linecap:round; stroke-linejoin:round; stroke-width:4; stroke-opacity:1; fill:none" points="1215.91,237.486 1215.91,1412.2 1236.51,1412.2 1236.51,237.486 1215.91,237.486 "/>
<path clip-path="url(#clip792)" d="M1241.67 586.726 L1241.67 1412.2 L1262.27 1412.2 L1262.27 586.726 L1241.67 586.726 L1241.67 586.726  Z" fill="#00008b" fill-rule="evenodd" fill-opacity="1"/>
<polyline clip-path="url(#clip792)" style="stroke:#000000; stroke-linecap:round; stroke-linejoin:round; stroke-width:4; stroke-opacity:1; fill:none" points="1241.67,586.726 1241.67,1412.2 1262.27,1412.2 1262.27,586.726 1241.67,586.726 "/>
<path clip-path="url(#clip792)" d="M1267.43 189.862 L1267.43 1412.2 L1288.03 1412.2 L1288.03 189.862 L1267.43 189.862 L1267.43 189.862  Z" fill="#00008b" fill-rule="evenodd" fill-opacity="1"/>
<polyline clip-path="url(#clip792)" style="stroke:#000000; stroke-linecap:round; stroke-linejoin:round; stroke-width:4; stroke-opacity:1; fill:none" points="1267.43,189.862 1267.43,1412.2 1288.03,1412.2 1288.03,189.862 1267.43,189.862 "/>
<path clip-path="url(#clip792)" d="M1293.19 253.36 L1293.19 1412.2 L1313.79 1412.2 L1313.79 253.36 L1293.19 253.36 L1293.19 253.36  Z" fill="#00008b" fill-rule="evenodd" fill-opacity="1"/>
<polyline clip-path="url(#clip792)" style="stroke:#000000; stroke-linecap:round; stroke-linejoin:round; stroke-width:4; stroke-opacity:1; fill:none" points="1293.19,253.36 1293.19,1412.2 1313.79,1412.2 1313.79,253.36 1293.19,253.36 "/>
<path clip-path="url(#clip792)" d="M1318.94 110.489 L1318.94 1412.2 L1339.55 1412.2 L1339.55 110.489 L1318.94 110.489 L1318.94 110.489  Z" fill="#00008b" fill-rule="evenodd" fill-opacity="1"/>
<polyline clip-path="url(#clip792)" style="stroke:#000000; stroke-linecap:round; stroke-linejoin:round; stroke-width:4; stroke-opacity:1; fill:none" points="1318.94,110.489 1318.94,1412.2 1339.55,1412.2 1339.55,110.489 1318.94,110.489 "/>
<path clip-path="url(#clip792)" d="M1344.7 221.611 L1344.7 1412.2 L1365.31 1412.2 L1365.31 221.611 L1344.7 221.611 L1344.7 221.611  Z" fill="#00008b" fill-rule="evenodd" fill-opacity="1"/>
<polyline clip-path="url(#clip792)" style="stroke:#000000; stroke-linecap:round; stroke-linejoin:round; stroke-width:4; stroke-opacity:1; fill:none" points="1344.7,221.611 1344.7,1412.2 1365.31,1412.2 1365.31,221.611 1344.7,221.611 "/>
<path clip-path="url(#clip792)" d="M1370.46 189.862 L1370.46 1412.2 L1391.07 1412.2 L1391.07 189.862 L1370.46 189.862 L1370.46 189.862  Z" fill="#00008b" fill-rule="evenodd" fill-opacity="1"/>
<polyline clip-path="url(#clip792)" style="stroke:#000000; stroke-linecap:round; stroke-linejoin:round; stroke-width:4; stroke-opacity:1; fill:none" points="1370.46,189.862 1370.46,1412.2 1391.07,1412.2 1391.07,189.862 1370.46,189.862 "/>
<path clip-path="url(#clip792)" d="M1396.22 300.984 L1396.22 1412.2 L1416.83 1412.2 L1416.83 300.984 L1396.22 300.984 L1396.22 300.984  Z" fill="#00008b" fill-rule="evenodd" fill-opacity="1"/>
<polyline clip-path="url(#clip792)" style="stroke:#000000; stroke-linecap:round; stroke-linejoin:round; stroke-width:4; stroke-opacity:1; fill:none" points="1396.22,300.984 1396.22,1412.2 1416.83,1412.2 1416.83,300.984 1396.22,300.984 "/>
<path clip-path="url(#clip792)" d="M1421.98 570.852 L1421.98 1412.2 L1442.59 1412.2 L1442.59 570.852 L1421.98 570.852 L1421.98 570.852  Z" fill="#00008b" fill-rule="evenodd" fill-opacity="1"/>
<polyline clip-path="url(#clip792)" style="stroke:#000000; stroke-linecap:round; stroke-linejoin:round; stroke-width:4; stroke-opacity:1; fill:none" points="1421.98,570.852 1421.98,1412.2 1442.59,1412.2 1442.59,570.852 1421.98,570.852 "/>
<path clip-path="url(#clip792)" d="M1447.74 824.845 L1447.74 1412.2 L1468.35 1412.2 L1468.35 824.845 L1447.74 824.845 L1447.74 824.845  Z" fill="#00008b" fill-rule="evenodd" fill-opacity="1"/>
<polyline clip-path="url(#clip792)" style="stroke:#000000; stroke-linecap:round; stroke-linejoin:round; stroke-width:4; stroke-opacity:1; fill:none" points="1447.74,824.845 1447.74,1412.2 1468.35,1412.2 1468.35,824.845 1447.74,824.845 "/>
<path clip-path="url(#clip792)" d="M1473.5 967.716 L1473.5 1412.2 L1494.11 1412.2 L1494.11 967.716 L1473.5 967.716 L1473.5 967.716  Z" fill="#00008b" fill-rule="evenodd" fill-opacity="1"/>
<polyline clip-path="url(#clip792)" style="stroke:#000000; stroke-linecap:round; stroke-linejoin:round; stroke-width:4; stroke-opacity:1; fill:none" points="1473.5,967.716 1473.5,1412.2 1494.11,1412.2 1494.11,967.716 1473.5,967.716 "/>
<path clip-path="url(#clip792)" d="M1499.26 713.723 L1499.26 1412.2 L1519.87 1412.2 L1519.87 713.723 L1499.26 713.723 L1499.26 713.723  Z" fill="#00008b" fill-rule="evenodd" fill-opacity="1"/>
<polyline clip-path="url(#clip792)" style="stroke:#000000; stroke-linecap:round; stroke-linejoin:round; stroke-width:4; stroke-opacity:1; fill:none" points="1499.26,713.723 1499.26,1412.2 1519.87,1412.2 1519.87,713.723 1499.26,713.723 "/>
<path clip-path="url(#clip792)" d="M1525.02 983.59 L1525.02 1412.2 L1545.63 1412.2 L1545.63 983.59 L1525.02 983.59 L1525.02 983.59  Z" fill="#00008b" fill-rule="evenodd" fill-opacity="1"/>
<polyline clip-path="url(#clip792)" style="stroke:#000000; stroke-linecap:round; stroke-linejoin:round; stroke-width:4; stroke-opacity:1; fill:none" points="1525.02,983.59 1525.02,1412.2 1545.63,1412.2 1545.63,983.59 1525.02,983.59 "/>
<path clip-path="url(#clip792)" d="M1550.78 1015.34 L1550.78 1412.2 L1571.39 1412.2 L1571.39 1015.34 L1550.78 1015.34 L1550.78 1015.34  Z" fill="#00008b" fill-rule="evenodd" fill-opacity="1"/>
<polyline clip-path="url(#clip792)" style="stroke:#000000; stroke-linecap:round; stroke-linejoin:round; stroke-width:4; stroke-opacity:1; fill:none" points="1550.78,1015.34 1550.78,1412.2 1571.39,1412.2 1571.39,1015.34 1550.78,1015.34 "/>
<path clip-path="url(#clip792)" d="M1576.54 1094.71 L1576.54 1412.2 L1597.14 1412.2 L1597.14 1094.71 L1576.54 1094.71 L1576.54 1094.71  Z" fill="#00008b" fill-rule="evenodd" fill-opacity="1"/>
<polyline clip-path="url(#clip792)" style="stroke:#000000; stroke-linecap:round; stroke-linejoin:round; stroke-width:4; stroke-opacity:1; fill:none" points="1576.54,1094.71 1576.54,1412.2 1597.14,1412.2 1597.14,1094.71 1576.54,1094.71 "/>
<path clip-path="url(#clip792)" d="M1602.3 1237.58 L1602.3 1412.2 L1622.9 1412.2 L1622.9 1237.58 L1602.3 1237.58 L1602.3 1237.58  Z" fill="#00008b" fill-rule="evenodd" fill-opacity="1"/>
<polyline clip-path="url(#clip792)" style="stroke:#000000; stroke-linecap:round; stroke-linejoin:round; stroke-width:4; stroke-opacity:1; fill:none" points="1602.3,1237.58 1602.3,1412.2 1622.9,1412.2 1622.9,1237.58 1602.3,1237.58 "/>
<path clip-path="url(#clip792)" d="M1628.06 1158.21 L1628.06 1412.2 L1648.66 1412.2 L1648.66 1158.21 L1628.06 1158.21 L1628.06 1158.21  Z" fill="#00008b" fill-rule="evenodd" fill-opacity="1"/>
<polyline clip-path="url(#clip792)" style="stroke:#000000; stroke-linecap:round; stroke-linejoin:round; stroke-width:4; stroke-opacity:1; fill:none" points="1628.06,1158.21 1628.06,1412.2 1648.66,1412.2 1648.66,1158.21 1628.06,1158.21 "/>
<path clip-path="url(#clip792)" d="M1653.82 1237.58 L1653.82 1412.2 L1674.42 1412.2 L1674.42 1237.58 L1653.82 1237.58 L1653.82 1237.58  Z" fill="#00008b" fill-rule="evenodd" fill-opacity="1"/>
<polyline clip-path="url(#clip792)" style="stroke:#000000; stroke-linecap:round; stroke-linejoin:round; stroke-width:4; stroke-opacity:1; fill:none" points="1653.82,1237.58 1653.82,1412.2 1674.42,1412.2 1674.42,1237.58 1653.82,1237.58 "/>
<path clip-path="url(#clip792)" d="M1679.57 1142.34 L1679.57 1412.2 L1700.18 1412.2 L1700.18 1142.34 L1679.57 1142.34 L1679.57 1142.34  Z" fill="#00008b" fill-rule="evenodd" fill-opacity="1"/>
<polyline clip-path="url(#clip792)" style="stroke:#000000; stroke-linecap:round; stroke-linejoin:round; stroke-width:4; stroke-opacity:1; fill:none" points="1679.57,1142.34 1679.57,1412.2 1700.18,1412.2 1700.18,1142.34 1679.57,1142.34 "/>
<path clip-path="url(#clip792)" d="M1705.33 1221.71 L1705.33 1412.2 L1725.94 1412.2 L1725.94 1221.71 L1705.33 1221.71 L1705.33 1221.71  Z" fill="#00008b" fill-rule="evenodd" fill-opacity="1"/>
<polyline clip-path="url(#clip792)" style="stroke:#000000; stroke-linecap:round; stroke-linejoin:round; stroke-width:4; stroke-opacity:1; fill:none" points="1705.33,1221.71 1705.33,1412.2 1725.94,1412.2 1725.94,1221.71 1705.33,1221.71 "/>
<path clip-path="url(#clip792)" d="M1731.09 1253.46 L1731.09 1412.2 L1751.7 1412.2 L1751.7 1253.46 L1731.09 1253.46 L1731.09 1253.46  Z" fill="#00008b" fill-rule="evenodd" fill-opacity="1"/>
<polyline clip-path="url(#clip792)" style="stroke:#000000; stroke-linecap:round; stroke-linejoin:round; stroke-width:4; stroke-opacity:1; fill:none" points="1731.09,1253.46 1731.09,1412.2 1751.7,1412.2 1751.7,1253.46 1731.09,1253.46 "/>
<path clip-path="url(#clip792)" d="M1756.85 1253.46 L1756.85 1412.2 L1777.46 1412.2 L1777.46 1253.46 L1756.85 1253.46 L1756.85 1253.46  Z" fill="#00008b" fill-rule="evenodd" fill-opacity="1"/>
<polyline clip-path="url(#clip792)" style="stroke:#000000; stroke-linecap:round; stroke-linejoin:round; stroke-width:4; stroke-opacity:1; fill:none" points="1756.85,1253.46 1756.85,1412.2 1777.46,1412.2 1777.46,1253.46 1756.85,1253.46 "/>
<path clip-path="url(#clip792)" d="M1782.61 1364.58 L1782.61 1412.2 L1803.22 1412.2 L1803.22 1364.58 L1782.61 1364.58 L1782.61 1364.58  Z" fill="#00008b" fill-rule="evenodd" fill-opacity="1"/>
<polyline clip-path="url(#clip792)" style="stroke:#000000; stroke-linecap:round; stroke-linejoin:round; stroke-width:4; stroke-opacity:1; fill:none" points="1782.61,1364.58 1782.61,1412.2 1803.22,1412.2 1803.22,1364.58 1782.61,1364.58 "/>
<path clip-path="url(#clip792)" d="M1808.37 1316.96 L1808.37 1412.2 L1828.98 1412.2 L1828.98 1316.96 L1808.37 1316.96 L1808.37 1316.96  Z" fill="#00008b" fill-rule="evenodd" fill-opacity="1"/>
<polyline clip-path="url(#clip792)" style="stroke:#000000; stroke-linecap:round; stroke-linejoin:round; stroke-width:4; stroke-opacity:1; fill:none" points="1808.37,1316.96 1808.37,1412.2 1828.98,1412.2 1828.98,1316.96 1808.37,1316.96 "/>
<path clip-path="url(#clip792)" d="M1834.13 1332.83 L1834.13 1412.2 L1854.74 1412.2 L1854.74 1332.83 L1834.13 1332.83 L1834.13 1332.83  Z" fill="#00008b" fill-rule="evenodd" fill-opacity="1"/>
<polyline clip-path="url(#clip792)" style="stroke:#000000; stroke-linecap:round; stroke-linejoin:round; stroke-width:4; stroke-opacity:1; fill:none" points="1834.13,1332.83 1834.13,1412.2 1854.74,1412.2 1854.74,1332.83 1834.13,1332.83 "/>
<path clip-path="url(#clip792)" d="M1859.89 1332.83 L1859.89 1412.2 L1880.5 1412.2 L1880.5 1332.83 L1859.89 1332.83 L1859.89 1332.83  Z" fill="#00008b" fill-rule="evenodd" fill-opacity="1"/>
<polyline clip-path="url(#clip792)" style="stroke:#000000; stroke-linecap:round; stroke-linejoin:round; stroke-width:4; stroke-opacity:1; fill:none" points="1859.89,1332.83 1859.89,1412.2 1880.5,1412.2 1880.5,1332.83 1859.89,1332.83 "/>
<path clip-path="url(#clip792)" d="M1885.65 1316.96 L1885.65 1412.2 L1906.26 1412.2 L1906.26 1316.96 L1885.65 1316.96 L1885.65 1316.96  Z" fill="#00008b" fill-rule="evenodd" fill-opacity="1"/>
<polyline clip-path="url(#clip792)" style="stroke:#000000; stroke-linecap:round; stroke-linejoin:round; stroke-width:4; stroke-opacity:1; fill:none" points="1885.65,1316.96 1885.65,1412.2 1906.26,1412.2 1906.26,1316.96 1885.65,1316.96 "/>
<path clip-path="url(#clip792)" d="M1911.41 1316.96 L1911.41 1412.2 L1932.02 1412.2 L1932.02 1316.96 L1911.41 1316.96 L1911.41 1316.96  Z" fill="#00008b" fill-rule="evenodd" fill-opacity="1"/>
<polyline clip-path="url(#clip792)" style="stroke:#000000; stroke-linecap:round; stroke-linejoin:round; stroke-width:4; stroke-opacity:1; fill:none" points="1911.41,1316.96 1911.41,1412.2 1932.02,1412.2 1932.02,1316.96 1911.41,1316.96 "/>
<path clip-path="url(#clip792)" d="M1937.17 1364.58 L1937.17 1412.2 L1957.77 1412.2 L1957.77 1364.58 L1937.17 1364.58 L1937.17 1364.58  Z" fill="#00008b" fill-rule="evenodd" fill-opacity="1"/>
<polyline clip-path="url(#clip792)" style="stroke:#000000; stroke-linecap:round; stroke-linejoin:round; stroke-width:4; stroke-opacity:1; fill:none" points="1937.17,1364.58 1937.17,1412.2 1957.77,1412.2 1957.77,1364.58 1937.17,1364.58 "/>
<path clip-path="url(#clip792)" d="M1962.93 1364.58 L1962.93 1412.2 L1983.53 1412.2 L1983.53 1364.58 L1962.93 1364.58 L1962.93 1364.58  Z" fill="#00008b" fill-rule="evenodd" fill-opacity="1"/>
<polyline clip-path="url(#clip792)" style="stroke:#000000; stroke-linecap:round; stroke-linejoin:round; stroke-width:4; stroke-opacity:1; fill:none" points="1962.93,1364.58 1962.93,1412.2 1983.53,1412.2 1983.53,1364.58 1962.93,1364.58 "/>
<path clip-path="url(#clip792)" d="M1988.69 1396.33 L1988.69 1412.2 L2009.29 1412.2 L2009.29 1396.33 L1988.69 1396.33 L1988.69 1396.33  Z" fill="#00008b" fill-rule="evenodd" fill-opacity="1"/>
<polyline clip-path="url(#clip792)" style="stroke:#000000; stroke-linecap:round; stroke-linejoin:round; stroke-width:4; stroke-opacity:1; fill:none" points="1988.69,1396.33 1988.69,1412.2 2009.29,1412.2 2009.29,1396.33 1988.69,1396.33 "/>
<path clip-path="url(#clip792)" d="M2014.44 1380.45 L2014.44 1412.2 L2035.05 1412.2 L2035.05 1380.45 L2014.44 1380.45 L2014.44 1380.45  Z" fill="#00008b" fill-rule="evenodd" fill-opacity="1"/>
<polyline clip-path="url(#clip792)" style="stroke:#000000; stroke-linecap:round; stroke-linejoin:round; stroke-width:4; stroke-opacity:1; fill:none" points="2014.44,1380.45 2014.44,1412.2 2035.05,1412.2 2035.05,1380.45 2014.44,1380.45 "/>
<path clip-path="url(#clip792)" d="M2040.2 1364.58 L2040.2 1412.2 L2060.81 1412.2 L2060.81 1364.58 L2040.2 1364.58 L2040.2 1364.58  Z" fill="#00008b" fill-rule="evenodd" fill-opacity="1"/>
<polyline clip-path="url(#clip792)" style="stroke:#000000; stroke-linecap:round; stroke-linejoin:round; stroke-width:4; stroke-opacity:1; fill:none" points="2040.2,1364.58 2040.2,1412.2 2060.81,1412.2 2060.81,1364.58 2040.2,1364.58 "/>
<path clip-path="url(#clip792)" d="M2065.96 1316.96 L2065.96 1412.2 L2086.57 1412.2 L2086.57 1316.96 L2065.96 1316.96 L2065.96 1316.96  Z" fill="#00008b" fill-rule="evenodd" fill-opacity="1"/>
<polyline clip-path="url(#clip792)" style="stroke:#000000; stroke-linecap:round; stroke-linejoin:round; stroke-width:4; stroke-opacity:1; fill:none" points="2065.96,1316.96 2065.96,1412.2 2086.57,1412.2 2086.57,1316.96 2065.96,1316.96 "/>
<path clip-path="url(#clip792)" d="M2091.72 1412.2 L2091.72 1412.2 L2112.33 1412.2 L2112.33 1412.2 L2091.72 1412.2 L2091.72 1412.2  Z" fill="#00008b" fill-rule="evenodd" fill-opacity="1"/>
<polyline clip-path="url(#clip792)" style="stroke:#000000; stroke-linecap:round; stroke-linejoin:round; stroke-width:4; stroke-opacity:1; fill:none" points="2091.72,1412.2 2091.72,1412.2 2112.33,1412.2 2091.72,1412.2 "/>
<path clip-path="url(#clip792)" d="M2117.48 1396.33 L2117.48 1412.2 L2138.09 1412.2 L2138.09 1396.33 L2117.48 1396.33 L2117.48 1396.33  Z" fill="#00008b" fill-rule="evenodd" fill-opacity="1"/>
<polyline clip-path="url(#clip792)" style="stroke:#000000; stroke-linecap:round; stroke-linejoin:round; stroke-width:4; stroke-opacity:1; fill:none" points="2117.48,1396.33 2117.48,1412.2 2138.09,1412.2 2138.09,1396.33 2117.48,1396.33 "/>
<path clip-path="url(#clip792)" d="M2143.24 1412.2 L2143.24 1412.2 L2163.85 1412.2 L2163.85 1412.2 L2143.24 1412.2 L2143.24 1412.2  Z" fill="#00008b" fill-rule="evenodd" fill-opacity="1"/>
<polyline clip-path="url(#clip792)" style="stroke:#000000; stroke-linecap:round; stroke-linejoin:round; stroke-width:4; stroke-opacity:1; fill:none" points="2143.24,1412.2 2143.24,1412.2 2163.85,1412.2 2143.24,1412.2 "/>
<path clip-path="url(#clip792)" d="M2169 1380.45 L2169 1412.2 L2189.61 1412.2 L2189.61 1380.45 L2169 1380.45 L2169 1380.45  Z" fill="#00008b" fill-rule="evenodd" fill-opacity="1"/>
<polyline clip-path="url(#clip792)" style="stroke:#000000; stroke-linecap:round; stroke-linejoin:round; stroke-width:4; stroke-opacity:1; fill:none" points="2169,1380.45 2169,1412.2 2189.61,1412.2 2189.61,1380.45 2169,1380.45 "/>
<path clip-path="url(#clip792)" d="M2194.76 1380.45 L2194.76 1412.2 L2215.37 1412.2 L2215.37 1380.45 L2194.76 1380.45 L2194.76 1380.45  Z" fill="#00008b" fill-rule="evenodd" fill-opacity="1"/>
<polyline clip-path="url(#clip792)" style="stroke:#000000; stroke-linecap:round; stroke-linejoin:round; stroke-width:4; stroke-opacity:1; fill:none" points="2194.76,1380.45 2194.76,1412.2 2215.37,1412.2 2215.37,1380.45 2194.76,1380.45 "/>
<path clip-path="url(#clip792)" d="M2220.52 1396.33 L2220.52 1412.2 L2241.13 1412.2 L2241.13 1396.33 L2220.52 1396.33 L2220.52 1396.33  Z" fill="#00008b" fill-rule="evenodd" fill-opacity="1"/>
<polyline clip-path="url(#clip792)" style="stroke:#000000; stroke-linecap:round; stroke-linejoin:round; stroke-width:4; stroke-opacity:1; fill:none" points="2220.52,1396.33 2220.52,1412.2 2241.13,1412.2 2241.13,1396.33 2220.52,1396.33 "/>
<path clip-path="url(#clip792)" d="M2246.28 1396.33 L2246.28 1412.2 L2266.89 1412.2 L2266.89 1396.33 L2246.28 1396.33 L2246.28 1396.33  Z" fill="#00008b" fill-rule="evenodd" fill-opacity="1"/>
<polyline clip-path="url(#clip792)" style="stroke:#000000; stroke-linecap:round; stroke-linejoin:round; stroke-width:4; stroke-opacity:1; fill:none" points="2246.28,1396.33 2246.28,1412.2 2266.89,1412.2 2266.89,1396.33 2246.28,1396.33 "/>
<path clip-path="url(#clip792)" d="M2272.04 1396.33 L2272.04 1412.2 L2292.64 1412.2 L2292.64 1396.33 L2272.04 1396.33 L2272.04 1396.33  Z" fill="#00008b" fill-rule="evenodd" fill-opacity="1"/>
<polyline clip-path="url(#clip792)" style="stroke:#000000; stroke-linecap:round; stroke-linejoin:round; stroke-width:4; stroke-opacity:1; fill:none" points="2272.04,1396.33 2272.04,1412.2 2292.64,1412.2 2292.64,1396.33 2272.04,1396.33 "/>
<path clip-path="url(#clip792)" d="M2297.8 1364.58 L2297.8 1412.2 L2318.4 1412.2 L2318.4 1364.58 L2297.8 1364.58 L2297.8 1364.58  Z" fill="#00008b" fill-rule="evenodd" fill-opacity="1"/>
<polyline clip-path="url(#clip792)" style="stroke:#000000; stroke-linecap:round; stroke-linejoin:round; stroke-width:4; stroke-opacity:1; fill:none" points="2297.8,1364.58 2297.8,1412.2 2318.4,1412.2 2318.4,1364.58 2297.8,1364.58 "/>
<path clip-path="url(#clip792)" d="M2323.56 1412.2 L2323.56 1412.2 L2344.16 1412.2 L2344.16 1412.2 L2323.56 1412.2 L2323.56 1412.2  Z" fill="#00008b" fill-rule="evenodd" fill-opacity="1"/>
<polyline clip-path="url(#clip792)" style="stroke:#000000; stroke-linecap:round; stroke-linejoin:round; stroke-width:4; stroke-opacity:1; fill:none" points="2323.56,1412.2 2323.56,1412.2 2344.16,1412.2 2323.56,1412.2 "/>
<path clip-path="url(#clip792)" d="M2349.32 1412.2 L2349.32 1412.2 L2369.92 1412.2 L2369.92 1412.2 L2349.32 1412.2 L2349.32 1412.2  Z" fill="#00008b" fill-rule="evenodd" fill-opacity="1"/>
<polyline clip-path="url(#clip792)" style="stroke:#000000; stroke-linecap:round; stroke-linejoin:round; stroke-width:4; stroke-opacity:1; fill:none" points="2349.32,1412.2 2349.32,1412.2 2369.92,1412.2 2349.32,1412.2 "/>
<path clip-path="url(#clip792)" d="M2375.07 1412.2 L2375.07 1412.2 L2395.68 1412.2 L2395.68 1412.2 L2375.07 1412.2 L2375.07 1412.2  Z" fill="#00008b" fill-rule="evenodd" fill-opacity="1"/>
<polyline clip-path="url(#clip792)" style="stroke:#000000; stroke-linecap:round; stroke-linejoin:round; stroke-width:4; stroke-opacity:1; fill:none" points="2375.07,1412.2 2375.07,1412.2 2395.68,1412.2 2375.07,1412.2 "/>
<path clip-path="url(#clip792)" d="M2400.83 1396.33 L2400.83 1412.2 L2421.44 1412.2 L2421.44 1396.33 L2400.83 1396.33 L2400.83 1396.33  Z" fill="#00008b" fill-rule="evenodd" fill-opacity="1"/>
<polyline clip-path="url(#clip792)" style="stroke:#000000; stroke-linecap:round; stroke-linejoin:round; stroke-width:4; stroke-opacity:1; fill:none" points="2400.83,1396.33 2400.83,1412.2 2421.44,1412.2 2421.44,1396.33 2400.83,1396.33 "/>
<path clip-path="url(#clip792)" d="M2426.59 1396.33 L2426.59 1412.2 L2447.2 1412.2 L2447.2 1396.33 L2426.59 1396.33 L2426.59 1396.33  Z" fill="#00008b" fill-rule="evenodd" fill-opacity="1"/>
<polyline clip-path="url(#clip792)" style="stroke:#000000; stroke-linecap:round; stroke-linejoin:round; stroke-width:4; stroke-opacity:1; fill:none" points="2426.59,1396.33 2426.59,1412.2 2447.2,1412.2 2447.2,1396.33 2426.59,1396.33 "/>
<path clip-path="url(#clip792)" d="M2452.35 1412.2 L2452.35 1412.2 L2472.96 1412.2 L2472.96 1412.2 L2452.35 1412.2 L2452.35 1412.2  Z" fill="#00008b" fill-rule="evenodd" fill-opacity="1"/>
<polyline clip-path="url(#clip792)" style="stroke:#000000; stroke-linecap:round; stroke-linejoin:round; stroke-width:4; stroke-opacity:1; fill:none" points="2452.35,1412.2 2452.35,1412.2 2472.96,1412.2 2452.35,1412.2 "/>
<path clip-path="url(#clip792)" d="M2478.11 1412.2 L2478.11 1412.2 L2498.72 1412.2 L2498.72 1412.2 L2478.11 1412.2 L2478.11 1412.2  Z" fill="#00008b" fill-rule="evenodd" fill-opacity="1"/>
<polyline clip-path="url(#clip792)" style="stroke:#000000; stroke-linecap:round; stroke-linejoin:round; stroke-width:4; stroke-opacity:1; fill:none" points="2478.11,1412.2 2478.11,1412.2 2498.72,1412.2 2478.11,1412.2 "/>
<path clip-path="url(#clip792)" d="M2503.87 1412.2 L2503.87 1412.2 L2524.48 1412.2 L2524.48 1412.2 L2503.87 1412.2 L2503.87 1412.2  Z" fill="#00008b" fill-rule="evenodd" fill-opacity="1"/>
<polyline clip-path="url(#clip792)" style="stroke:#000000; stroke-linecap:round; stroke-linejoin:round; stroke-width:4; stroke-opacity:1; fill:none" points="2503.87,1412.2 2503.87,1412.2 2524.48,1412.2 2503.87,1412.2 "/>
<path clip-path="url(#clip792)" d="M2529.63 1412.2 L2529.63 1412.2 L2550.24 1412.2 L2550.24 1412.2 L2529.63 1412.2 L2529.63 1412.2  Z" fill="#00008b" fill-rule="evenodd" fill-opacity="1"/>
<polyline clip-path="url(#clip792)" style="stroke:#000000; stroke-linecap:round; stroke-linejoin:round; stroke-width:4; stroke-opacity:1; fill:none" points="2529.63,1412.2 2529.63,1412.2 2550.24,1412.2 2529.63,1412.2 "/>
<path clip-path="url(#clip792)" d="M2555.39 1412.2 L2555.39 1412.2 L2576 1412.2 L2576 1412.2 L2555.39 1412.2 L2555.39 1412.2  Z" fill="#00008b" fill-rule="evenodd" fill-opacity="1"/>
<polyline clip-path="url(#clip792)" style="stroke:#000000; stroke-linecap:round; stroke-linejoin:round; stroke-width:4; stroke-opacity:1; fill:none" points="2555.39,1412.2 2555.39,1412.2 2576,1412.2 2555.39,1412.2 "/>
<path clip-path="url(#clip792)" d="M2581.15 1412.2 L2581.15 1412.2 L2601.76 1412.2 L2601.76 1412.2 L2581.15 1412.2 L2581.15 1412.2  Z" fill="#00008b" fill-rule="evenodd" fill-opacity="1"/>
<polyline clip-path="url(#clip792)" style="stroke:#000000; stroke-linecap:round; stroke-linejoin:round; stroke-width:4; stroke-opacity:1; fill:none" points="2581.15,1412.2 2581.15,1412.2 2601.76,1412.2 2581.15,1412.2 "/>
<path clip-path="url(#clip792)" d="M2606.91 1396.33 L2606.91 1412.2 L2627.52 1412.2 L2627.52 1396.33 L2606.91 1396.33 L2606.91 1396.33  Z" fill="#00008b" fill-rule="evenodd" fill-opacity="1"/>
<polyline clip-path="url(#clip792)" style="stroke:#000000; stroke-linecap:round; stroke-linejoin:round; stroke-width:4; stroke-opacity:1; fill:none" points="2606.91,1396.33 2606.91,1412.2 2627.52,1412.2 2627.52,1396.33 2606.91,1396.33 "/>
<path clip-path="url(#clip792)" d="M2632.67 1412.2 L2632.67 1412.2 L2653.27 1412.2 L2653.27 1412.2 L2632.67 1412.2 L2632.67 1412.2  Z" fill="#00008b" fill-rule="evenodd" fill-opacity="1"/>
<polyline clip-path="url(#clip792)" style="stroke:#000000; stroke-linecap:round; stroke-linejoin:round; stroke-width:4; stroke-opacity:1; fill:none" points="2632.67,1412.2 2632.67,1412.2 2653.27,1412.2 2632.67,1412.2 "/>
<path clip-path="url(#clip792)" d="M2658.43 1412.2 L2658.43 1412.2 L2679.03 1412.2 L2679.03 1412.2 L2658.43 1412.2 L2658.43 1412.2  Z" fill="#00008b" fill-rule="evenodd" fill-opacity="1"/>
<polyline clip-path="url(#clip792)" style="stroke:#000000; stroke-linecap:round; stroke-linejoin:round; stroke-width:4; stroke-opacity:1; fill:none" points="2658.43,1412.2 2658.43,1412.2 2679.03,1412.2 2658.43,1412.2 "/>
<path clip-path="url(#clip792)" d="M2684.19 1412.2 L2684.19 1412.2 L2704.79 1412.2 L2704.79 1412.2 L2684.19 1412.2 L2684.19 1412.2  Z" fill="#00008b" fill-rule="evenodd" fill-opacity="1"/>
<polyline clip-path="url(#clip792)" style="stroke:#000000; stroke-linecap:round; stroke-linejoin:round; stroke-width:4; stroke-opacity:1; fill:none" points="2684.19,1412.2 2684.19,1412.2 2704.79,1412.2 2684.19,1412.2 "/>
<path clip-path="url(#clip792)" d="M2709.95 1412.2 L2709.95 1412.2 L2730.55 1412.2 L2730.55 1412.2 L2709.95 1412.2 L2709.95 1412.2  Z" fill="#00008b" fill-rule="evenodd" fill-opacity="1"/>
<polyline clip-path="url(#clip792)" style="stroke:#000000; stroke-linecap:round; stroke-linejoin:round; stroke-width:4; stroke-opacity:1; fill:none" points="2709.95,1412.2 2709.95,1412.2 2730.55,1412.2 2709.95,1412.2 "/>
<path clip-path="url(#clip792)" d="M2735.7 1412.2 L2735.7 1412.2 L2756.31 1412.2 L2756.31 1412.2 L2735.7 1412.2 L2735.7 1412.2  Z" fill="#00008b" fill-rule="evenodd" fill-opacity="1"/>
<polyline clip-path="url(#clip792)" style="stroke:#000000; stroke-linecap:round; stroke-linejoin:round; stroke-width:4; stroke-opacity:1; fill:none" points="2735.7,1412.2 2735.7,1412.2 2756.31,1412.2 2735.7,1412.2 "/>
<path clip-path="url(#clip792)" d="M2761.46 1412.2 L2761.46 1412.2 L2782.07 1412.2 L2782.07 1412.2 L2761.46 1412.2 L2761.46 1412.2  Z" fill="#00008b" fill-rule="evenodd" fill-opacity="1"/>
<polyline clip-path="url(#clip792)" style="stroke:#000000; stroke-linecap:round; stroke-linejoin:round; stroke-width:4; stroke-opacity:1; fill:none" points="2761.46,1412.2 2761.46,1412.2 2782.07,1412.2 2761.46,1412.2 "/>
<path clip-path="url(#clip792)" d="M2787.22 1412.2 L2787.22 1412.2 L2807.83 1412.2 L2807.83 1412.2 L2787.22 1412.2 L2787.22 1412.2  Z" fill="#00008b" fill-rule="evenodd" fill-opacity="1"/>
<polyline clip-path="url(#clip792)" style="stroke:#000000; stroke-linecap:round; stroke-linejoin:round; stroke-width:4; stroke-opacity:1; fill:none" points="2787.22,1412.2 2787.22,1412.2 2807.83,1412.2 2787.22,1412.2 "/>
<path clip-path="url(#clip792)" d="M2812.98 1412.2 L2812.98 1412.2 L2833.59 1412.2 L2833.59 1412.2 L2812.98 1412.2 L2812.98 1412.2  Z" fill="#00008b" fill-rule="evenodd" fill-opacity="1"/>
<polyline clip-path="url(#clip792)" style="stroke:#000000; stroke-linecap:round; stroke-linejoin:round; stroke-width:4; stroke-opacity:1; fill:none" points="2812.98,1412.2 2812.98,1412.2 2833.59,1412.2 2812.98,1412.2 "/>
<path clip-path="url(#clip792)" d="M2838.74 1412.2 L2838.74 1412.2 L2859.35 1412.2 L2859.35 1412.2 L2838.74 1412.2 L2838.74 1412.2  Z" fill="#00008b" fill-rule="evenodd" fill-opacity="1"/>
<polyline clip-path="url(#clip792)" style="stroke:#000000; stroke-linecap:round; stroke-linejoin:round; stroke-width:4; stroke-opacity:1; fill:none" points="2838.74,1412.2 2838.74,1412.2 2859.35,1412.2 2838.74,1412.2 "/>
<path clip-path="url(#clip792)" d="M2864.5 1412.2 L2864.5 1412.2 L2885.11 1412.2 L2885.11 1412.2 L2864.5 1412.2 L2864.5 1412.2  Z" fill="#00008b" fill-rule="evenodd" fill-opacity="1"/>
<polyline clip-path="url(#clip792)" style="stroke:#000000; stroke-linecap:round; stroke-linejoin:round; stroke-width:4; stroke-opacity:1; fill:none" points="2864.5,1412.2 2864.5,1412.2 2885.11,1412.2 2864.5,1412.2 "/>
<path clip-path="url(#clip792)" d="M2890.26 1412.2 L2890.26 1412.2 L2910.87 1412.2 L2910.87 1412.2 L2890.26 1412.2 L2890.26 1412.2  Z" fill="#00008b" fill-rule="evenodd" fill-opacity="1"/>
<polyline clip-path="url(#clip792)" style="stroke:#000000; stroke-linecap:round; stroke-linejoin:round; stroke-width:4; stroke-opacity:1; fill:none" points="2890.26,1412.2 2890.26,1412.2 2910.87,1412.2 2890.26,1412.2 "/>
<path clip-path="url(#clip792)" d="M2916.02 1412.2 L2916.02 1412.2 L2936.63 1412.2 L2936.63 1412.2 L2916.02 1412.2 L2916.02 1412.2  Z" fill="#00008b" fill-rule="evenodd" fill-opacity="1"/>
<polyline clip-path="url(#clip792)" style="stroke:#000000; stroke-linecap:round; stroke-linejoin:round; stroke-width:4; stroke-opacity:1; fill:none" points="2916.02,1412.2 2916.02,1412.2 2936.63,1412.2 2916.02,1412.2 "/>
<path clip-path="url(#clip792)" d="M2941.78 1412.2 L2941.78 1412.2 L2962.39 1412.2 L2962.39 1412.2 L2941.78 1412.2 L2941.78 1412.2  Z" fill="#00008b" fill-rule="evenodd" fill-opacity="1"/>
<polyline clip-path="url(#clip792)" style="stroke:#000000; stroke-linecap:round; stroke-linejoin:round; stroke-width:4; stroke-opacity:1; fill:none" points="2941.78,1412.2 2941.78,1412.2 2962.39,1412.2 2941.78,1412.2 "/>
<circle clip-path="url(#clip792)" style="fill:#00008b; stroke:none; fill-opacity:0" cx="401.915" cy="1396.33" r="2"/>
<circle clip-path="url(#clip792)" style="fill:#00008b; stroke:none; fill-opacity:0" cx="427.674" cy="1412.2" r="2"/>
<circle clip-path="url(#clip792)" style="fill:#00008b; stroke:none; fill-opacity:0" cx="453.433" cy="1412.2" r="2"/>
<circle clip-path="url(#clip792)" style="fill:#00008b; stroke:none; fill-opacity:0" cx="479.192" cy="1412.2" r="2"/>
<circle clip-path="url(#clip792)" style="fill:#00008b; stroke:none; fill-opacity:0" cx="504.952" cy="1412.2" r="2"/>
<circle clip-path="url(#clip792)" style="fill:#00008b; stroke:none; fill-opacity:0" cx="530.711" cy="1396.33" r="2"/>
<circle clip-path="url(#clip792)" style="fill:#00008b; stroke:none; fill-opacity:0" cx="556.47" cy="1412.2" r="2"/>
<circle clip-path="url(#clip792)" style="fill:#00008b; stroke:none; fill-opacity:0" cx="582.23" cy="1380.45" r="2"/>
<circle clip-path="url(#clip792)" style="fill:#00008b; stroke:none; fill-opacity:0" cx="607.989" cy="1380.45" r="2"/>
<circle clip-path="url(#clip792)" style="fill:#00008b; stroke:none; fill-opacity:0" cx="633.748" cy="1396.33" r="2"/>
<circle clip-path="url(#clip792)" style="fill:#00008b; stroke:none; fill-opacity:0" cx="659.507" cy="1412.2" r="2"/>
<circle clip-path="url(#clip792)" style="fill:#00008b; stroke:none; fill-opacity:0" cx="685.267" cy="1412.2" r="2"/>
<circle clip-path="url(#clip792)" style="fill:#00008b; stroke:none; fill-opacity:0" cx="711.026" cy="1412.2" r="2"/>
<circle clip-path="url(#clip792)" style="fill:#00008b; stroke:none; fill-opacity:0" cx="736.785" cy="1412.2" r="2"/>
<circle clip-path="url(#clip792)" style="fill:#00008b; stroke:none; fill-opacity:0" cx="762.544" cy="1412.2" r="2"/>
<circle clip-path="url(#clip792)" style="fill:#00008b; stroke:none; fill-opacity:0" cx="788.304" cy="1396.33" r="2"/>
<circle clip-path="url(#clip792)" style="fill:#00008b; stroke:none; fill-opacity:0" cx="814.063" cy="1396.33" r="2"/>
<circle clip-path="url(#clip792)" style="fill:#00008b; stroke:none; fill-opacity:0" cx="839.822" cy="1396.33" r="2"/>
<circle clip-path="url(#clip792)" style="fill:#00008b; stroke:none; fill-opacity:0" cx="865.581" cy="1396.33" r="2"/>
<circle clip-path="url(#clip792)" style="fill:#00008b; stroke:none; fill-opacity:0" cx="891.341" cy="1301.08" r="2"/>
<circle clip-path="url(#clip792)" style="fill:#00008b; stroke:none; fill-opacity:0" cx="917.1" cy="1221.71" r="2"/>
<circle clip-path="url(#clip792)" style="fill:#00008b; stroke:none; fill-opacity:0" cx="942.859" cy="1332.83" r="2"/>
<circle clip-path="url(#clip792)" style="fill:#00008b; stroke:none; fill-opacity:0" cx="968.619" cy="1126.46" r="2"/>
<circle clip-path="url(#clip792)" style="fill:#00008b; stroke:none; fill-opacity:0" cx="994.378" cy="1237.58" r="2"/>
<circle clip-path="url(#clip792)" style="fill:#00008b; stroke:none; fill-opacity:0" cx="1020.14" cy="1031.21" r="2"/>
<circle clip-path="url(#clip792)" style="fill:#00008b; stroke:none; fill-opacity:0" cx="1045.9" cy="713.723" r="2"/>
<circle clip-path="url(#clip792)" style="fill:#00008b; stroke:none; fill-opacity:0" cx="1071.66" cy="761.347" r="2"/>
<circle clip-path="url(#clip792)" style="fill:#00008b; stroke:none; fill-opacity:0" cx="1097.41" cy="491.479" r="2"/>
<circle clip-path="url(#clip792)" style="fill:#00008b; stroke:none; fill-opacity:0" cx="1123.17" cy="78.7402" r="2"/>
<circle clip-path="url(#clip792)" style="fill:#00008b; stroke:none; fill-opacity:0" cx="1148.93" cy="158.113" r="2"/>
<circle clip-path="url(#clip792)" style="fill:#00008b; stroke:none; fill-opacity:0" cx="1174.69" cy="221.611" r="2"/>
<circle clip-path="url(#clip792)" style="fill:#00008b; stroke:none; fill-opacity:0" cx="1200.45" cy="269.235" r="2"/>
<circle clip-path="url(#clip792)" style="fill:#00008b; stroke:none; fill-opacity:0" cx="1226.21" cy="237.486" r="2"/>
<circle clip-path="url(#clip792)" style="fill:#00008b; stroke:none; fill-opacity:0" cx="1251.97" cy="586.726" r="2"/>
<circle clip-path="url(#clip792)" style="fill:#00008b; stroke:none; fill-opacity:0" cx="1277.73" cy="189.862" r="2"/>
<circle clip-path="url(#clip792)" style="fill:#00008b; stroke:none; fill-opacity:0" cx="1303.49" cy="253.36" r="2"/>
<circle clip-path="url(#clip792)" style="fill:#00008b; stroke:none; fill-opacity:0" cx="1329.25" cy="110.489" r="2"/>
<circle clip-path="url(#clip792)" style="fill:#00008b; stroke:none; fill-opacity:0" cx="1355.01" cy="221.611" r="2"/>
<circle clip-path="url(#clip792)" style="fill:#00008b; stroke:none; fill-opacity:0" cx="1380.77" cy="189.862" r="2"/>
<circle clip-path="url(#clip792)" style="fill:#00008b; stroke:none; fill-opacity:0" cx="1406.53" cy="300.984" r="2"/>
<circle clip-path="url(#clip792)" style="fill:#00008b; stroke:none; fill-opacity:0" cx="1432.29" cy="570.852" r="2"/>
<circle clip-path="url(#clip792)" style="fill:#00008b; stroke:none; fill-opacity:0" cx="1458.04" cy="824.845" r="2"/>
<circle clip-path="url(#clip792)" style="fill:#00008b; stroke:none; fill-opacity:0" cx="1483.8" cy="967.716" r="2"/>
<circle clip-path="url(#clip792)" style="fill:#00008b; stroke:none; fill-opacity:0" cx="1509.56" cy="713.723" r="2"/>
<circle clip-path="url(#clip792)" style="fill:#00008b; stroke:none; fill-opacity:0" cx="1535.32" cy="983.59" r="2"/>
<circle clip-path="url(#clip792)" style="fill:#00008b; stroke:none; fill-opacity:0" cx="1561.08" cy="1015.34" r="2"/>
<circle clip-path="url(#clip792)" style="fill:#00008b; stroke:none; fill-opacity:0" cx="1586.84" cy="1094.71" r="2"/>
<circle clip-path="url(#clip792)" style="fill:#00008b; stroke:none; fill-opacity:0" cx="1612.6" cy="1237.58" r="2"/>
<circle clip-path="url(#clip792)" style="fill:#00008b; stroke:none; fill-opacity:0" cx="1638.36" cy="1158.21" r="2"/>
<circle clip-path="url(#clip792)" style="fill:#00008b; stroke:none; fill-opacity:0" cx="1664.12" cy="1237.58" r="2"/>
<circle clip-path="url(#clip792)" style="fill:#00008b; stroke:none; fill-opacity:0" cx="1689.88" cy="1142.34" r="2"/>
<circle clip-path="url(#clip792)" style="fill:#00008b; stroke:none; fill-opacity:0" cx="1715.64" cy="1221.71" r="2"/>
<circle clip-path="url(#clip792)" style="fill:#00008b; stroke:none; fill-opacity:0" cx="1741.4" cy="1253.46" r="2"/>
<circle clip-path="url(#clip792)" style="fill:#00008b; stroke:none; fill-opacity:0" cx="1767.16" cy="1253.46" r="2"/>
<circle clip-path="url(#clip792)" style="fill:#00008b; stroke:none; fill-opacity:0" cx="1792.92" cy="1364.58" r="2"/>
<circle clip-path="url(#clip792)" style="fill:#00008b; stroke:none; fill-opacity:0" cx="1818.67" cy="1316.96" r="2"/>
<circle clip-path="url(#clip792)" style="fill:#00008b; stroke:none; fill-opacity:0" cx="1844.43" cy="1332.83" r="2"/>
<circle clip-path="url(#clip792)" style="fill:#00008b; stroke:none; fill-opacity:0" cx="1870.19" cy="1332.83" r="2"/>
<circle clip-path="url(#clip792)" style="fill:#00008b; stroke:none; fill-opacity:0" cx="1895.95" cy="1316.96" r="2"/>
<circle clip-path="url(#clip792)" style="fill:#00008b; stroke:none; fill-opacity:0" cx="1921.71" cy="1316.96" r="2"/>
<circle clip-path="url(#clip792)" style="fill:#00008b; stroke:none; fill-opacity:0" cx="1947.47" cy="1364.58" r="2"/>
<circle clip-path="url(#clip792)" style="fill:#00008b; stroke:none; fill-opacity:0" cx="1973.23" cy="1364.58" r="2"/>
<circle clip-path="url(#clip792)" style="fill:#00008b; stroke:none; fill-opacity:0" cx="1998.99" cy="1396.33" r="2"/>
<circle clip-path="url(#clip792)" style="fill:#00008b; stroke:none; fill-opacity:0" cx="2024.75" cy="1380.45" r="2"/>
<circle clip-path="url(#clip792)" style="fill:#00008b; stroke:none; fill-opacity:0" cx="2050.51" cy="1364.58" r="2"/>
<circle clip-path="url(#clip792)" style="fill:#00008b; stroke:none; fill-opacity:0" cx="2076.27" cy="1316.96" r="2"/>
<circle clip-path="url(#clip792)" style="fill:#00008b; stroke:none; fill-opacity:0" cx="2102.03" cy="1412.2" r="2"/>
<circle clip-path="url(#clip792)" style="fill:#00008b; stroke:none; fill-opacity:0" cx="2127.79" cy="1396.33" r="2"/>
<circle clip-path="url(#clip792)" style="fill:#00008b; stroke:none; fill-opacity:0" cx="2153.54" cy="1412.2" r="2"/>
<circle clip-path="url(#clip792)" style="fill:#00008b; stroke:none; fill-opacity:0" cx="2179.3" cy="1380.45" r="2"/>
<circle clip-path="url(#clip792)" style="fill:#00008b; stroke:none; fill-opacity:0" cx="2205.06" cy="1380.45" r="2"/>
<circle clip-path="url(#clip792)" style="fill:#00008b; stroke:none; fill-opacity:0" cx="2230.82" cy="1396.33" r="2"/>
<circle clip-path="url(#clip792)" style="fill:#00008b; stroke:none; fill-opacity:0" cx="2256.58" cy="1396.33" r="2"/>
<circle clip-path="url(#clip792)" style="fill:#00008b; stroke:none; fill-opacity:0" cx="2282.34" cy="1396.33" r="2"/>
<circle clip-path="url(#clip792)" style="fill:#00008b; stroke:none; fill-opacity:0" cx="2308.1" cy="1364.58" r="2"/>
<circle clip-path="url(#clip792)" style="fill:#00008b; stroke:none; fill-opacity:0" cx="2333.86" cy="1412.2" r="2"/>
<circle clip-path="url(#clip792)" style="fill:#00008b; stroke:none; fill-opacity:0" cx="2359.62" cy="1412.2" r="2"/>
<circle clip-path="url(#clip792)" style="fill:#00008b; stroke:none; fill-opacity:0" cx="2385.38" cy="1412.2" r="2"/>
<circle clip-path="url(#clip792)" style="fill:#00008b; stroke:none; fill-opacity:0" cx="2411.14" cy="1396.33" r="2"/>
<circle clip-path="url(#clip792)" style="fill:#00008b; stroke:none; fill-opacity:0" cx="2436.9" cy="1396.33" r="2"/>
<circle clip-path="url(#clip792)" style="fill:#00008b; stroke:none; fill-opacity:0" cx="2462.66" cy="1412.2" r="2"/>
<circle clip-path="url(#clip792)" style="fill:#00008b; stroke:none; fill-opacity:0" cx="2488.42" cy="1412.2" r="2"/>
<circle clip-path="url(#clip792)" style="fill:#00008b; stroke:none; fill-opacity:0" cx="2514.17" cy="1412.2" r="2"/>
<circle clip-path="url(#clip792)" style="fill:#00008b; stroke:none; fill-opacity:0" cx="2539.93" cy="1412.2" r="2"/>
<circle clip-path="url(#clip792)" style="fill:#00008b; stroke:none; fill-opacity:0" cx="2565.69" cy="1412.2" r="2"/>
<circle clip-path="url(#clip792)" style="fill:#00008b; stroke:none; fill-opacity:0" cx="2591.45" cy="1412.2" r="2"/>
<circle clip-path="url(#clip792)" style="fill:#00008b; stroke:none; fill-opacity:0" cx="2617.21" cy="1396.33" r="2"/>
<circle clip-path="url(#clip792)" style="fill:#00008b; stroke:none; fill-opacity:0" cx="2642.97" cy="1412.2" r="2"/>
<circle clip-path="url(#clip792)" style="fill:#00008b; stroke:none; fill-opacity:0" cx="2668.73" cy="1412.2" r="2"/>
<circle clip-path="url(#clip792)" style="fill:#00008b; stroke:none; fill-opacity:0" cx="2694.49" cy="1412.2" r="2"/>
<circle clip-path="url(#clip792)" style="fill:#00008b; stroke:none; fill-opacity:0" cx="2720.25" cy="1412.2" r="2"/>
<circle clip-path="url(#clip792)" style="fill:#00008b; stroke:none; fill-opacity:0" cx="2746.01" cy="1412.2" r="2"/>
<circle clip-path="url(#clip792)" style="fill:#00008b; stroke:none; fill-opacity:0" cx="2771.77" cy="1412.2" r="2"/>
<circle clip-path="url(#clip792)" style="fill:#00008b; stroke:none; fill-opacity:0" cx="2797.53" cy="1412.2" r="2"/>
<circle clip-path="url(#clip792)" style="fill:#00008b; stroke:none; fill-opacity:0" cx="2823.29" cy="1412.2" r="2"/>
<circle clip-path="url(#clip792)" style="fill:#00008b; stroke:none; fill-opacity:0" cx="2849.05" cy="1412.2" r="2"/>
<circle clip-path="url(#clip792)" style="fill:#00008b; stroke:none; fill-opacity:0" cx="2874.8" cy="1412.2" r="2"/>
<circle clip-path="url(#clip792)" style="fill:#00008b; stroke:none; fill-opacity:0" cx="2900.56" cy="1412.2" r="2"/>
<circle clip-path="url(#clip792)" style="fill:#00008b; stroke:none; fill-opacity:0" cx="2926.32" cy="1412.2" r="2"/>
<circle clip-path="url(#clip792)" style="fill:#00008b; stroke:none; fill-opacity:0" cx="2952.08" cy="1412.2" r="2"/>
</svg>
