<?xml version="1.0" encoding="utf-8"?>
<svg xmlns="http://www.w3.org/2000/svg" xmlns:xlink="http://www.w3.org/1999/xlink" width="800" height="400" viewBox="0 0 3200 1600">
<defs>
  <clipPath id="clip710">
    <rect x="0" y="0" width="3200" height="1600"/>
  </clipPath>
</defs>
<path clip-path="url(#clip710)" d="M0 1600 L3200 1600 L3200 0 L0 0  Z" fill="#ffffff" fill-rule="evenodd" fill-opacity="1"/>
<defs>
  <clipPath id="clip711">
    <rect x="640" y="0" width="2241" height="1600"/>
  </clipPath>
</defs>
<path clip-path="url(#clip710)" d="M231.58 1412.2 L3121.26 1412.2 L3121.26 78.7402 L231.58 78.7402  Z" fill="#ffffff" fill-rule="evenodd" fill-opacity="1"/>
<defs>
  <clipPath id="clip712">
    <rect x="231" y="78" width="2891" height="1334"/>
  </clipPath>
</defs>
<polyline clip-path="url(#clip712)" style="stroke:#000000; stroke-linecap:round; stroke-linejoin:round; stroke-width:2; stroke-opacity:0.1; fill:none" points="423.509,1412.2 423.509,78.7402 "/>
<polyline clip-path="url(#clip712)" style="stroke:#000000; stroke-linecap:round; stroke-linejoin:round; stroke-width:2; stroke-opacity:0.1; fill:none" points="1277.14,1412.2 1277.14,78.7402 "/>
<polyline clip-path="url(#clip712)" style="stroke:#000000; stroke-linecap:round; stroke-linejoin:round; stroke-width:2; stroke-opacity:0.1; fill:none" points="2103.24,1412.2 2103.24,78.7402 "/>
<polyline clip-path="url(#clip712)" style="stroke:#000000; stroke-linecap:round; stroke-linejoin:round; stroke-width:2; stroke-opacity:0.1; fill:none" points="2956.87,1412.2 2956.87,78.7402 "/>
<polyline clip-path="url(#clip712)" style="stroke:#000000; stroke-linecap:round; stroke-linejoin:round; stroke-width:2; stroke-opacity:0.1; fill:none" points="231.58,1374.46 3121.26,1374.46 "/>
<polyline clip-path="url(#clip712)" style="stroke:#000000; stroke-linecap:round; stroke-linejoin:round; stroke-width:2; stroke-opacity:0.1; fill:none" points="231.58,1062.22 3121.26,1062.22 "/>
<polyline clip-path="url(#clip712)" style="stroke:#000000; stroke-linecap:round; stroke-linejoin:round; stroke-width:2; stroke-opacity:0.1; fill:none" points="231.58,749.983 3121.26,749.983 "/>
<polyline clip-path="url(#clip712)" style="stroke:#000000; stroke-linecap:round; stroke-linejoin:round; stroke-width:2; stroke-opacity:0.1; fill:none" points="231.58,437.743 3121.26,437.743 "/>
<polyline clip-path="url(#clip712)" style="stroke:#000000; stroke-linecap:round; stroke-linejoin:round; stroke-width:2; stroke-opacity:0.1; fill:none" points="231.58,125.502 3121.26,125.502 "/>
<polyline clip-path="url(#clip710)" style="stroke:#000000; stroke-linecap:round; stroke-linejoin:round; stroke-width:4; stroke-opacity:1; fill:none" points="231.58,1412.2 3121.26,1412.2 "/>
<polyline clip-path="url(#clip710)" style="stroke:#000000; stroke-linecap:round; stroke-linejoin:round; stroke-width:4; stroke-opacity:1; fill:none" points="423.509,1412.2 423.509,1393.31 "/>
<polyline clip-path="url(#clip710)" style="stroke:#000000; stroke-linecap:round; stroke-linejoin:round; stroke-width:4; stroke-opacity:1; fill:none" points="1277.14,1412.2 1277.14,1393.31 "/>
<polyline clip-path="url(#clip710)" style="stroke:#000000; stroke-linecap:round; stroke-linejoin:round; stroke-width:4; stroke-opacity:1; fill:none" points="2103.24,1412.2 2103.24,1393.31 "/>
<polyline clip-path="url(#clip710)" style="stroke:#000000; stroke-linecap:round; stroke-linejoin:round; stroke-width:4; stroke-opacity:1; fill:none" points="2956.87,1412.2 2956.87,1393.31 "/>
<path clip-path="url(#clip710)" d="M295.304 1477.07 L311.623 1477.07 L311.623 1481 L289.679 1481 L289.679 1477.07 Q292.341 1474.31 296.924 1469.68 Q301.531 1465.03 302.711 1463.69 Q304.956 1461.17 305.836 1459.43 Q306.739 1457.67 306.739 1455.98 Q306.739 1453.23 304.794 1451.49 Q302.873 1449.75 299.771 1449.75 Q297.572 1449.75 295.119 1450.52 Q292.688 1451.28 289.91 1452.83 L289.91 1448.11 Q292.734 1446.98 295.188 1446.4 Q297.642 1445.82 299.679 1445.82 Q305.049 1445.82 308.243 1448.5 Q311.438 1451.19 311.438 1455.68 Q311.438 1457.81 310.628 1459.73 Q309.841 1461.63 307.734 1464.22 Q307.155 1464.89 304.054 1468.11 Q300.952 1471.3 295.304 1477.07 Z" fill="#000000" fill-rule="nonzero" fill-opacity="1" /><path clip-path="url(#clip710)" d="M331.438 1449.52 Q327.827 1449.52 325.998 1453.09 Q324.192 1456.63 324.192 1463.76 Q324.192 1470.86 325.998 1474.43 Q327.827 1477.97 331.438 1477.97 Q335.072 1477.97 336.878 1474.43 Q338.706 1470.86 338.706 1463.76 Q338.706 1456.63 336.878 1453.09 Q335.072 1449.52 331.438 1449.52 M331.438 1445.82 Q337.248 1445.82 340.303 1450.43 Q343.382 1455.01 343.382 1463.76 Q343.382 1472.49 340.303 1477.09 Q337.248 1481.68 331.438 1481.68 Q325.628 1481.68 322.549 1477.09 Q319.493 1472.49 319.493 1463.76 Q319.493 1455.01 322.549 1450.43 Q325.628 1445.82 331.438 1445.82 Z" fill="#000000" fill-rule="nonzero" fill-opacity="1" /><path clip-path="url(#clip710)" d="M355.627 1477.07 L371.947 1477.07 L371.947 1481 L350.002 1481 L350.002 1477.07 Q352.665 1474.31 357.248 1469.68 Q361.854 1465.03 363.035 1463.69 Q365.28 1461.17 366.16 1459.43 Q367.063 1457.67 367.063 1455.98 Q367.063 1453.23 365.118 1451.49 Q363.197 1449.75 360.095 1449.75 Q357.896 1449.75 355.442 1450.52 Q353.012 1451.28 350.234 1452.83 L350.234 1448.11 Q353.058 1446.98 355.512 1446.4 Q357.965 1445.82 360.002 1445.82 Q365.373 1445.82 368.567 1448.5 Q371.762 1451.19 371.762 1455.68 Q371.762 1457.81 370.951 1459.73 Q370.164 1461.63 368.058 1464.22 Q367.479 1464.89 364.377 1468.11 Q361.276 1471.3 355.627 1477.07 Z" fill="#000000" fill-rule="nonzero" fill-opacity="1" /><path clip-path="url(#clip710)" d="M391.762 1449.52 Q388.15 1449.52 386.322 1453.09 Q384.516 1456.63 384.516 1463.76 Q384.516 1470.86 386.322 1474.43 Q388.15 1477.97 391.762 1477.97 Q395.396 1477.97 397.201 1474.43 Q399.03 1470.86 399.03 1463.76 Q399.03 1456.63 397.201 1453.09 Q395.396 1449.52 391.762 1449.52 M391.762 1445.82 Q397.572 1445.82 400.627 1450.43 Q403.706 1455.01 403.706 1463.76 Q403.706 1472.49 400.627 1477.09 Q397.572 1481.68 391.762 1481.68 Q385.951 1481.68 382.873 1477.09 Q379.817 1472.49 379.817 1463.76 Q379.817 1455.01 382.873 1450.43 Q385.951 1445.82 391.762 1445.82 Z" fill="#000000" fill-rule="nonzero" fill-opacity="1" /><path clip-path="url(#clip710)" d="M409.169 1466.12 L421.646 1466.12 L421.646 1469.92 L409.169 1469.92 L409.169 1466.12 Z" fill="#000000" fill-rule="nonzero" fill-opacity="1" /><path clip-path="url(#clip710)" d="M439.03 1449.52 Q435.419 1449.52 433.59 1453.09 Q431.784 1456.63 431.784 1463.76 Q431.784 1470.86 433.59 1474.43 Q435.419 1477.97 439.03 1477.97 Q442.664 1477.97 444.47 1474.43 Q446.298 1470.86 446.298 1463.76 Q446.298 1456.63 444.47 1453.09 Q442.664 1449.52 439.03 1449.52 M439.03 1445.82 Q444.84 1445.82 447.895 1450.43 Q450.974 1455.01 450.974 1463.76 Q450.974 1472.49 447.895 1477.09 Q444.84 1481.68 439.03 1481.68 Q433.22 1481.68 430.141 1477.09 Q427.085 1472.49 427.085 1463.76 Q427.085 1455.01 430.141 1450.43 Q433.22 1445.82 439.03 1445.82 Z" fill="#000000" fill-rule="nonzero" fill-opacity="1" /><path clip-path="url(#clip710)" d="M473.358 1462.37 Q476.715 1463.09 478.59 1465.36 Q480.488 1467.62 480.488 1470.96 Q480.488 1476.07 476.969 1478.87 Q473.451 1481.68 466.969 1481.68 Q464.794 1481.68 462.479 1481.24 Q460.187 1480.82 457.733 1479.96 L457.733 1475.45 Q459.678 1476.58 461.993 1477.16 Q464.307 1477.74 466.831 1477.74 Q471.229 1477.74 473.52 1476 Q475.835 1474.27 475.835 1470.96 Q475.835 1467.9 473.682 1466.19 Q471.553 1464.45 467.733 1464.45 L463.706 1464.45 L463.706 1460.61 L467.919 1460.61 Q471.368 1460.61 473.196 1459.24 Q475.025 1457.86 475.025 1455.26 Q475.025 1452.6 473.127 1451.19 Q471.252 1449.75 467.733 1449.75 Q465.812 1449.75 463.613 1450.17 Q461.414 1450.59 458.775 1451.47 L458.775 1447.3 Q461.437 1446.56 463.752 1446.19 Q466.09 1445.82 468.15 1445.82 Q473.474 1445.82 476.576 1448.25 Q479.678 1450.66 479.678 1454.78 Q479.678 1457.65 478.034 1459.64 Q476.391 1461.61 473.358 1462.37 Z" fill="#000000" fill-rule="nonzero" fill-opacity="1" /><path clip-path="url(#clip710)" d="M486.599 1466.12 L499.076 1466.12 L499.076 1469.92 L486.599 1469.92 L486.599 1466.12 Z" fill="#000000" fill-rule="nonzero" fill-opacity="1" /><path clip-path="url(#clip710)" d="M516.46 1449.52 Q512.849 1449.52 511.02 1453.09 Q509.215 1456.63 509.215 1463.76 Q509.215 1470.86 511.02 1474.43 Q512.849 1477.97 516.46 1477.97 Q520.094 1477.97 521.9 1474.43 Q523.728 1470.86 523.728 1463.76 Q523.728 1456.63 521.9 1453.09 Q520.094 1449.52 516.46 1449.52 M516.46 1445.82 Q522.27 1445.82 525.326 1450.43 Q528.404 1455.01 528.404 1463.76 Q528.404 1472.49 525.326 1477.09 Q522.27 1481.68 516.46 1481.68 Q510.65 1481.68 507.571 1477.09 Q504.516 1472.49 504.516 1463.76 Q504.516 1455.01 507.571 1450.43 Q510.65 1445.82 516.46 1445.82 Z" fill="#000000" fill-rule="nonzero" fill-opacity="1" /><path clip-path="url(#clip710)" d="M537.432 1477.07 L545.071 1477.07 L545.071 1450.7 L536.761 1452.37 L536.761 1448.11 L545.025 1446.44 L549.7 1446.44 L549.7 1477.07 L557.339 1477.07 L557.339 1481 L537.432 1481 L537.432 1477.07 Z" fill="#000000" fill-rule="nonzero" fill-opacity="1" /><path clip-path="url(#clip710)" d="M1148.94 1477.07 L1165.25 1477.07 L1165.25 1481 L1143.31 1481 L1143.31 1477.07 Q1145.97 1474.31 1150.56 1469.68 Q1155.16 1465.03 1156.34 1463.69 Q1158.59 1461.17 1159.47 1459.43 Q1160.37 1457.67 1160.37 1455.98 Q1160.37 1453.23 1158.43 1451.49 Q1156.5 1449.75 1153.4 1449.75 Q1151.2 1449.75 1148.75 1450.52 Q1146.32 1451.28 1143.54 1452.83 L1143.54 1448.11 Q1146.37 1446.98 1148.82 1446.4 Q1151.27 1445.82 1153.31 1445.82 Q1158.68 1445.82 1161.87 1448.5 Q1165.07 1451.19 1165.07 1455.68 Q1165.07 1457.81 1164.26 1459.73 Q1163.47 1461.63 1161.37 1464.22 Q1160.79 1464.89 1157.69 1468.11 Q1154.58 1471.3 1148.94 1477.07 Z" fill="#000000" fill-rule="nonzero" fill-opacity="1" /><path clip-path="url(#clip710)" d="M1185.07 1449.52 Q1181.46 1449.52 1179.63 1453.09 Q1177.82 1456.63 1177.82 1463.76 Q1177.82 1470.86 1179.63 1474.43 Q1181.46 1477.97 1185.07 1477.97 Q1188.7 1477.97 1190.51 1474.43 Q1192.34 1470.86 1192.34 1463.76 Q1192.34 1456.63 1190.51 1453.09 Q1188.7 1449.52 1185.07 1449.52 M1185.07 1445.82 Q1190.88 1445.82 1193.93 1450.43 Q1197.01 1455.01 1197.01 1463.76 Q1197.01 1472.49 1193.93 1477.09 Q1190.88 1481.68 1185.07 1481.68 Q1179.26 1481.68 1176.18 1477.09 Q1173.12 1472.49 1173.12 1463.76 Q1173.12 1455.01 1176.18 1450.43 Q1179.26 1445.82 1185.07 1445.82 Z" fill="#000000" fill-rule="nonzero" fill-opacity="1" /><path clip-path="url(#clip710)" d="M1209.26 1477.07 L1225.58 1477.07 L1225.58 1481 L1203.63 1481 L1203.63 1477.07 Q1206.3 1474.31 1210.88 1469.68 Q1215.49 1465.03 1216.67 1463.69 Q1218.91 1461.17 1219.79 1459.43 Q1220.69 1457.67 1220.69 1455.98 Q1220.69 1453.23 1218.75 1451.49 Q1216.83 1449.75 1213.73 1449.75 Q1211.53 1449.75 1209.07 1450.52 Q1206.64 1451.28 1203.87 1452.83 L1203.87 1448.11 Q1206.69 1446.98 1209.14 1446.4 Q1211.6 1445.82 1213.63 1445.82 Q1219 1445.82 1222.2 1448.5 Q1225.39 1451.19 1225.39 1455.68 Q1225.39 1457.81 1224.58 1459.73 Q1223.8 1461.63 1221.69 1464.22 Q1221.11 1464.89 1218.01 1468.11 Q1214.91 1471.3 1209.26 1477.07 Z" fill="#000000" fill-rule="nonzero" fill-opacity="1" /><path clip-path="url(#clip710)" d="M1245.39 1449.52 Q1241.78 1449.52 1239.95 1453.09 Q1238.15 1456.63 1238.15 1463.76 Q1238.15 1470.86 1239.95 1474.43 Q1241.78 1477.97 1245.39 1477.97 Q1249.03 1477.97 1250.83 1474.43 Q1252.66 1470.86 1252.66 1463.76 Q1252.66 1456.63 1250.83 1453.09 Q1249.03 1449.52 1245.39 1449.52 M1245.39 1445.82 Q1251.2 1445.82 1254.26 1450.43 Q1257.34 1455.01 1257.34 1463.76 Q1257.34 1472.49 1254.26 1477.09 Q1251.2 1481.68 1245.39 1481.68 Q1239.58 1481.68 1236.5 1477.09 Q1233.45 1472.49 1233.45 1463.76 Q1233.45 1455.01 1236.5 1450.43 Q1239.58 1445.82 1245.39 1445.82 Z" fill="#000000" fill-rule="nonzero" fill-opacity="1" /><path clip-path="url(#clip710)" d="M1262.8 1466.12 L1275.28 1466.12 L1275.28 1469.92 L1262.8 1469.92 L1262.8 1466.12 Z" fill="#000000" fill-rule="nonzero" fill-opacity="1" /><path clip-path="url(#clip710)" d="M1292.66 1449.52 Q1289.05 1449.52 1287.22 1453.09 Q1285.42 1456.63 1285.42 1463.76 Q1285.42 1470.86 1287.22 1474.43 Q1289.05 1477.97 1292.66 1477.97 Q1296.3 1477.97 1298.1 1474.43 Q1299.93 1470.86 1299.93 1463.76 Q1299.93 1456.63 1298.1 1453.09 Q1296.3 1449.52 1292.66 1449.52 M1292.66 1445.82 Q1298.47 1445.82 1301.53 1450.43 Q1304.61 1455.01 1304.61 1463.76 Q1304.61 1472.49 1301.53 1477.09 Q1298.47 1481.68 1292.66 1481.68 Q1286.85 1481.68 1283.77 1477.09 Q1280.72 1472.49 1280.72 1463.76 Q1280.72 1455.01 1283.77 1450.43 Q1286.85 1445.82 1292.66 1445.82 Z" fill="#000000" fill-rule="nonzero" fill-opacity="1" /><path clip-path="url(#clip710)" d="M1325.67 1450.52 L1313.86 1468.97 L1325.67 1468.97 L1325.67 1450.52 M1324.44 1446.44 L1330.32 1446.44 L1330.32 1468.97 L1335.25 1468.97 L1335.25 1472.86 L1330.32 1472.86 L1330.32 1481 L1325.67 1481 L1325.67 1472.86 L1310.07 1472.86 L1310.07 1468.34 L1324.44 1446.44 Z" fill="#000000" fill-rule="nonzero" fill-opacity="1" /><path clip-path="url(#clip710)" d="M1340.23 1466.12 L1352.71 1466.12 L1352.71 1469.92 L1340.23 1469.92 L1340.23 1466.12 Z" fill="#000000" fill-rule="nonzero" fill-opacity="1" /><path clip-path="url(#clip710)" d="M1370.09 1449.52 Q1366.48 1449.52 1364.65 1453.09 Q1362.85 1456.63 1362.85 1463.76 Q1362.85 1470.86 1364.65 1474.43 Q1366.48 1477.97 1370.09 1477.97 Q1373.73 1477.97 1375.53 1474.43 Q1377.36 1470.86 1377.36 1463.76 Q1377.36 1456.63 1375.53 1453.09 Q1373.73 1449.52 1370.09 1449.52 M1370.09 1445.82 Q1375.9 1445.82 1378.96 1450.43 Q1382.04 1455.01 1382.04 1463.76 Q1382.04 1472.49 1378.96 1477.09 Q1375.9 1481.68 1370.09 1481.68 Q1364.28 1481.68 1361.2 1477.09 Q1358.15 1472.49 1358.15 1463.76 Q1358.15 1455.01 1361.2 1450.43 Q1364.28 1445.82 1370.09 1445.82 Z" fill="#000000" fill-rule="nonzero" fill-opacity="1" /><path clip-path="url(#clip710)" d="M1391.06 1477.07 L1398.7 1477.07 L1398.7 1450.7 L1390.39 1452.37 L1390.39 1448.11 L1398.66 1446.44 L1403.33 1446.44 L1403.33 1477.07 L1410.97 1477.07 L1410.97 1481 L1391.06 1481 L1391.06 1477.07 Z" fill="#000000" fill-rule="nonzero" fill-opacity="1" /><path clip-path="url(#clip710)" d="M1975.03 1477.07 L1991.35 1477.07 L1991.35 1481 L1969.41 1481 L1969.41 1477.07 Q1972.07 1474.31 1976.65 1469.68 Q1981.26 1465.03 1982.44 1463.69 Q1984.68 1461.17 1985.56 1459.43 Q1986.47 1457.67 1986.47 1455.98 Q1986.47 1453.23 1984.52 1451.49 Q1982.6 1449.75 1979.5 1449.75 Q1977.3 1449.75 1974.84 1450.52 Q1972.41 1451.28 1969.64 1452.83 L1969.64 1448.11 Q1972.46 1446.98 1974.91 1446.4 Q1977.37 1445.82 1979.41 1445.82 Q1984.78 1445.82 1987.97 1448.5 Q1991.16 1451.19 1991.16 1455.68 Q1991.16 1457.81 1990.35 1459.73 Q1989.57 1461.63 1987.46 1464.22 Q1986.88 1464.89 1983.78 1468.11 Q1980.68 1471.3 1975.03 1477.07 Z" fill="#000000" fill-rule="nonzero" fill-opacity="1" /><path clip-path="url(#clip710)" d="M2011.16 1449.52 Q2007.55 1449.52 2005.72 1453.09 Q2003.92 1456.63 2003.92 1463.76 Q2003.92 1470.86 2005.72 1474.43 Q2007.55 1477.97 2011.16 1477.97 Q2014.8 1477.97 2016.6 1474.43 Q2018.43 1470.86 2018.43 1463.76 Q2018.43 1456.63 2016.6 1453.09 Q2014.8 1449.52 2011.16 1449.52 M2011.16 1445.82 Q2016.97 1445.82 2020.03 1450.43 Q2023.11 1455.01 2023.11 1463.76 Q2023.11 1472.49 2020.03 1477.09 Q2016.97 1481.68 2011.16 1481.68 Q2005.35 1481.68 2002.28 1477.09 Q1999.22 1472.49 1999.22 1463.76 Q1999.22 1455.01 2002.28 1450.43 Q2005.35 1445.82 2011.16 1445.82 Z" fill="#000000" fill-rule="nonzero" fill-opacity="1" /><path clip-path="url(#clip710)" d="M2035.35 1477.07 L2051.67 1477.07 L2051.67 1481 L2029.73 1481 L2029.73 1477.07 Q2032.39 1474.31 2036.97 1469.68 Q2041.58 1465.03 2042.76 1463.69 Q2045.01 1461.17 2045.89 1459.43 Q2046.79 1457.67 2046.79 1455.98 Q2046.79 1453.23 2044.84 1451.49 Q2042.92 1449.75 2039.82 1449.75 Q2037.62 1449.75 2035.17 1450.52 Q2032.74 1451.28 2029.96 1452.83 L2029.96 1448.11 Q2032.78 1446.98 2035.24 1446.4 Q2037.69 1445.82 2039.73 1445.82 Q2045.1 1445.82 2048.29 1448.5 Q2051.49 1451.19 2051.49 1455.68 Q2051.49 1457.81 2050.68 1459.73 Q2049.89 1461.63 2047.78 1464.22 Q2047.21 1464.89 2044.1 1468.11 Q2041 1471.3 2035.35 1477.07 Z" fill="#000000" fill-rule="nonzero" fill-opacity="1" /><path clip-path="url(#clip710)" d="M2071.49 1449.52 Q2067.88 1449.52 2066.05 1453.09 Q2064.24 1456.63 2064.24 1463.76 Q2064.24 1470.86 2066.05 1474.43 Q2067.88 1477.97 2071.49 1477.97 Q2075.12 1477.97 2076.93 1474.43 Q2078.76 1470.86 2078.76 1463.76 Q2078.76 1456.63 2076.93 1453.09 Q2075.12 1449.52 2071.49 1449.52 M2071.49 1445.82 Q2077.3 1445.82 2080.35 1450.43 Q2083.43 1455.01 2083.43 1463.76 Q2083.43 1472.49 2080.35 1477.09 Q2077.3 1481.68 2071.49 1481.68 Q2065.68 1481.68 2062.6 1477.09 Q2059.54 1472.49 2059.54 1463.76 Q2059.54 1455.01 2062.6 1450.43 Q2065.68 1445.82 2071.49 1445.82 Z" fill="#000000" fill-rule="nonzero" fill-opacity="1" /><path clip-path="url(#clip710)" d="M2088.9 1466.12 L2101.37 1466.12 L2101.37 1469.92 L2088.9 1469.92 L2088.9 1466.12 Z" fill="#000000" fill-rule="nonzero" fill-opacity="1" /><path clip-path="url(#clip710)" d="M2118.76 1449.52 Q2115.15 1449.52 2113.32 1453.09 Q2111.51 1456.63 2111.51 1463.76 Q2111.51 1470.86 2113.32 1474.43 Q2115.15 1477.97 2118.76 1477.97 Q2122.39 1477.97 2124.2 1474.43 Q2126.02 1470.86 2126.02 1463.76 Q2126.02 1456.63 2124.2 1453.09 Q2122.39 1449.52 2118.76 1449.52 M2118.76 1445.82 Q2124.57 1445.82 2127.62 1450.43 Q2130.7 1455.01 2130.7 1463.76 Q2130.7 1472.49 2127.62 1477.09 Q2124.57 1481.68 2118.76 1481.68 Q2112.95 1481.68 2109.87 1477.09 Q2106.81 1472.49 2106.81 1463.76 Q2106.81 1455.01 2109.87 1450.43 Q2112.95 1445.82 2118.76 1445.82 Z" fill="#000000" fill-rule="nonzero" fill-opacity="1" /><path clip-path="url(#clip710)" d="M2138.96 1446.44 L2157.32 1446.44 L2157.32 1450.38 L2143.25 1450.38 L2143.25 1458.85 Q2144.27 1458.5 2145.28 1458.34 Q2146.3 1458.16 2147.32 1458.16 Q2153.11 1458.16 2156.49 1461.33 Q2159.87 1464.5 2159.87 1469.92 Q2159.87 1475.49 2156.39 1478.6 Q2152.92 1481.68 2146.6 1481.68 Q2144.43 1481.68 2142.16 1481.3 Q2139.91 1480.93 2137.51 1480.19 L2137.51 1475.49 Q2139.59 1476.63 2141.81 1477.18 Q2144.03 1477.74 2146.51 1477.74 Q2150.52 1477.74 2152.85 1475.63 Q2155.19 1473.53 2155.19 1469.92 Q2155.19 1466.3 2152.85 1464.2 Q2150.52 1462.09 2146.51 1462.09 Q2144.64 1462.09 2142.76 1462.51 Q2140.91 1462.93 2138.96 1463.8 L2138.96 1446.44 Z" fill="#000000" fill-rule="nonzero" fill-opacity="1" /><path clip-path="url(#clip710)" d="M2166.33 1466.12 L2178.8 1466.12 L2178.8 1469.92 L2166.33 1469.92 L2166.33 1466.12 Z" fill="#000000" fill-rule="nonzero" fill-opacity="1" /><path clip-path="url(#clip710)" d="M2196.19 1449.52 Q2192.58 1449.52 2190.75 1453.09 Q2188.94 1456.63 2188.94 1463.76 Q2188.94 1470.86 2190.75 1474.43 Q2192.58 1477.97 2196.19 1477.97 Q2199.82 1477.97 2201.63 1474.43 Q2203.45 1470.86 2203.45 1463.76 Q2203.45 1456.63 2201.63 1453.09 Q2199.82 1449.52 2196.19 1449.52 M2196.19 1445.82 Q2202 1445.82 2205.05 1450.43 Q2208.13 1455.01 2208.13 1463.76 Q2208.13 1472.49 2205.05 1477.09 Q2202 1481.68 2196.19 1481.68 Q2190.38 1481.68 2187.3 1477.09 Q2184.24 1472.49 2184.24 1463.76 Q2184.24 1455.01 2187.3 1450.43 Q2190.38 1445.82 2196.19 1445.82 Z" fill="#000000" fill-rule="nonzero" fill-opacity="1" /><path clip-path="url(#clip710)" d="M2217.16 1477.07 L2224.8 1477.07 L2224.8 1450.7 L2216.49 1452.37 L2216.49 1448.11 L2224.75 1446.44 L2229.43 1446.44 L2229.43 1477.07 L2237.07 1477.07 L2237.07 1481 L2217.16 1481 L2217.16 1477.07 Z" fill="#000000" fill-rule="nonzero" fill-opacity="1" /><path clip-path="url(#clip710)" d="M2828.66 1477.07 L2844.98 1477.07 L2844.98 1481 L2823.04 1481 L2823.04 1477.07 Q2825.7 1474.31 2830.28 1469.68 Q2834.89 1465.03 2836.07 1463.69 Q2838.31 1461.17 2839.19 1459.43 Q2840.1 1457.67 2840.1 1455.98 Q2840.1 1453.23 2838.15 1451.49 Q2836.23 1449.75 2833.13 1449.75 Q2830.93 1449.75 2828.48 1450.52 Q2826.05 1451.28 2823.27 1452.83 L2823.27 1448.11 Q2826.09 1446.98 2828.55 1446.4 Q2831 1445.82 2833.04 1445.82 Q2838.41 1445.82 2841.6 1448.5 Q2844.8 1451.19 2844.8 1455.68 Q2844.8 1457.81 2843.99 1459.73 Q2843.2 1461.63 2841.09 1464.22 Q2840.51 1464.89 2837.41 1468.11 Q2834.31 1471.3 2828.66 1477.07 Z" fill="#000000" fill-rule="nonzero" fill-opacity="1" /><path clip-path="url(#clip710)" d="M2864.8 1449.52 Q2861.18 1449.52 2859.36 1453.09 Q2857.55 1456.63 2857.55 1463.76 Q2857.55 1470.86 2859.36 1474.43 Q2861.18 1477.97 2864.8 1477.97 Q2868.43 1477.97 2870.24 1474.43 Q2872.06 1470.86 2872.06 1463.76 Q2872.06 1456.63 2870.24 1453.09 Q2868.43 1449.52 2864.8 1449.52 M2864.8 1445.82 Q2870.61 1445.82 2873.66 1450.43 Q2876.74 1455.01 2876.74 1463.76 Q2876.74 1472.49 2873.66 1477.09 Q2870.61 1481.68 2864.8 1481.68 Q2858.99 1481.68 2855.91 1477.09 Q2852.85 1472.49 2852.85 1463.76 Q2852.85 1455.01 2855.91 1450.43 Q2858.99 1445.82 2864.8 1445.82 Z" fill="#000000" fill-rule="nonzero" fill-opacity="1" /><path clip-path="url(#clip710)" d="M2888.99 1477.07 L2905.3 1477.07 L2905.3 1481 L2883.36 1481 L2883.36 1477.07 Q2886.02 1474.31 2890.61 1469.68 Q2895.21 1465.03 2896.39 1463.69 Q2898.64 1461.17 2899.52 1459.43 Q2900.42 1457.67 2900.42 1455.98 Q2900.42 1453.23 2898.48 1451.49 Q2896.55 1449.75 2893.45 1449.75 Q2891.25 1449.75 2888.8 1450.52 Q2886.37 1451.28 2883.59 1452.83 L2883.59 1448.11 Q2886.42 1446.98 2888.87 1446.4 Q2891.32 1445.82 2893.36 1445.82 Q2898.73 1445.82 2901.93 1448.5 Q2905.12 1451.19 2905.12 1455.68 Q2905.12 1457.81 2904.31 1459.73 Q2903.52 1461.63 2901.42 1464.22 Q2900.84 1464.89 2897.74 1468.11 Q2894.63 1471.3 2888.99 1477.07 Z" fill="#000000" fill-rule="nonzero" fill-opacity="1" /><path clip-path="url(#clip710)" d="M2925.12 1449.52 Q2921.51 1449.52 2919.68 1453.09 Q2917.87 1456.63 2917.87 1463.76 Q2917.87 1470.86 2919.68 1474.43 Q2921.51 1477.97 2925.12 1477.97 Q2928.75 1477.97 2930.56 1474.43 Q2932.39 1470.86 2932.39 1463.76 Q2932.39 1456.63 2930.56 1453.09 Q2928.75 1449.52 2925.12 1449.52 M2925.12 1445.82 Q2930.93 1445.82 2933.99 1450.43 Q2937.06 1455.01 2937.06 1463.76 Q2937.06 1472.49 2933.99 1477.09 Q2930.93 1481.68 2925.12 1481.68 Q2919.31 1481.68 2916.23 1477.09 Q2913.18 1472.49 2913.18 1463.76 Q2913.18 1455.01 2916.23 1450.43 Q2919.31 1445.82 2925.12 1445.82 Z" fill="#000000" fill-rule="nonzero" fill-opacity="1" /><path clip-path="url(#clip710)" d="M2942.53 1466.12 L2955 1466.12 L2955 1469.92 L2942.53 1469.92 L2942.53 1466.12 Z" fill="#000000" fill-rule="nonzero" fill-opacity="1" /><path clip-path="url(#clip710)" d="M2972.39 1449.52 Q2968.78 1449.52 2966.95 1453.09 Q2965.14 1456.63 2965.14 1463.76 Q2965.14 1470.86 2966.95 1474.43 Q2968.78 1477.97 2972.39 1477.97 Q2976.02 1477.97 2977.83 1474.43 Q2979.66 1470.86 2979.66 1463.76 Q2979.66 1456.63 2977.83 1453.09 Q2976.02 1449.52 2972.39 1449.52 M2972.39 1445.82 Q2978.2 1445.82 2981.25 1450.43 Q2984.33 1455.01 2984.33 1463.76 Q2984.33 1472.49 2981.25 1477.09 Q2978.2 1481.68 2972.39 1481.68 Q2966.58 1481.68 2963.5 1477.09 Q2960.44 1472.49 2960.44 1463.76 Q2960.44 1455.01 2963.5 1450.43 Q2966.58 1445.82 2972.39 1445.82 Z" fill="#000000" fill-rule="nonzero" fill-opacity="1" /><path clip-path="url(#clip710)" d="M3003.13 1461.86 Q2999.98 1461.86 2998.13 1464.01 Q2996.3 1466.17 2996.3 1469.92 Q2996.3 1473.64 2998.13 1475.82 Q2999.98 1477.97 3003.13 1477.97 Q3006.28 1477.97 3008.11 1475.82 Q3009.96 1473.64 3009.96 1469.92 Q3009.96 1466.17 3008.11 1464.01 Q3006.28 1461.86 3003.13 1461.86 M3012.41 1447.21 L3012.41 1451.47 Q3010.65 1450.63 3008.85 1450.19 Q3007.06 1449.75 3005.3 1449.75 Q3000.67 1449.75 2998.22 1452.88 Q2995.79 1456 2995.44 1462.32 Q2996.81 1460.31 2998.87 1459.24 Q3000.93 1458.16 3003.41 1458.16 Q3008.61 1458.16 3011.62 1461.33 Q3014.66 1464.48 3014.66 1469.92 Q3014.66 1475.24 3011.51 1478.46 Q3008.36 1481.68 3003.13 1481.68 Q2997.13 1481.68 2993.96 1477.09 Q2990.79 1472.49 2990.79 1463.76 Q2990.79 1455.56 2994.68 1450.7 Q2998.57 1445.82 3005.12 1445.82 Q3006.88 1445.82 3008.66 1446.17 Q3010.47 1446.51 3012.41 1447.21 Z" fill="#000000" fill-rule="nonzero" fill-opacity="1" /><path clip-path="url(#clip710)" d="M3019.96 1466.12 L3032.43 1466.12 L3032.43 1469.92 L3019.96 1469.92 L3019.96 1466.12 Z" fill="#000000" fill-rule="nonzero" fill-opacity="1" /><path clip-path="url(#clip710)" d="M3049.82 1449.52 Q3046.21 1449.52 3044.38 1453.09 Q3042.57 1456.63 3042.57 1463.76 Q3042.57 1470.86 3044.38 1474.43 Q3046.21 1477.97 3049.82 1477.97 Q3053.45 1477.97 3055.26 1474.43 Q3057.09 1470.86 3057.09 1463.76 Q3057.09 1456.63 3055.26 1453.09 Q3053.45 1449.52 3049.82 1449.52 M3049.82 1445.82 Q3055.63 1445.82 3058.68 1450.43 Q3061.76 1455.01 3061.76 1463.76 Q3061.76 1472.49 3058.68 1477.09 Q3055.63 1481.68 3049.82 1481.68 Q3044.01 1481.68 3040.93 1477.09 Q3037.87 1472.49 3037.87 1463.76 Q3037.87 1455.01 3040.93 1450.43 Q3044.01 1445.82 3049.82 1445.82 Z" fill="#000000" fill-rule="nonzero" fill-opacity="1" /><path clip-path="url(#clip710)" d="M3070.79 1477.07 L3078.43 1477.07 L3078.43 1450.7 L3070.12 1452.37 L3070.12 1448.11 L3078.38 1446.44 L3083.06 1446.44 L3083.06 1477.07 L3090.7 1477.07 L3090.7 1481 L3070.79 1481 L3070.79 1477.07 Z" fill="#000000" fill-rule="nonzero" fill-opacity="1" /><path clip-path="url(#clip710)" d="M1609.88 1526.83 L1609.88 1563.78 L1617.65 1563.78 Q1627.48 1563.78 1632.03 1559.33 Q1636.62 1554.87 1636.62 1545.26 Q1636.62 1535.71 1632.03 1531.29 Q1627.48 1526.83 1617.65 1526.83 L1609.88 1526.83 M1603.45 1521.55 L1616.66 1521.55 Q1630.48 1521.55 1636.94 1527.31 Q1643.4 1533.04 1643.4 1545.26 Q1643.4 1557.55 1636.9 1563.31 Q1630.41 1569.07 1616.66 1569.07 L1603.45 1569.07 L1603.45 1521.55 Z" fill="#000000" fill-rule="nonzero" fill-opacity="1" /><path clip-path="url(#clip710)" d="M1669.59 1551.15 Q1662.49 1551.15 1659.76 1552.77 Q1657.02 1554.39 1657.02 1558.31 Q1657.02 1561.43 1659.06 1563.27 Q1661.13 1565.09 1664.66 1565.09 Q1669.53 1565.09 1672.46 1561.65 Q1675.42 1558.18 1675.42 1552.45 L1675.42 1551.15 L1669.59 1551.15 M1681.27 1548.73 L1681.27 1569.07 L1675.42 1569.07 L1675.42 1563.66 Q1673.41 1566.9 1670.42 1568.46 Q1667.43 1569.99 1663.1 1569.99 Q1657.62 1569.99 1654.38 1566.94 Q1651.16 1563.85 1651.16 1558.69 Q1651.16 1552.68 1655.17 1549.62 Q1659.22 1546.57 1667.21 1546.57 L1675.42 1546.57 L1675.42 1545.99 Q1675.42 1541.95 1672.74 1539.75 Q1670.1 1537.53 1665.3 1537.53 Q1662.24 1537.53 1659.34 1538.26 Q1656.45 1538.99 1653.77 1540.45 L1653.77 1535.04 Q1656.99 1533.8 1660.01 1533.2 Q1663.04 1532.56 1665.9 1532.56 Q1673.63 1532.56 1677.45 1536.57 Q1681.27 1540.58 1681.27 1548.73 Z" fill="#000000" fill-rule="nonzero" fill-opacity="1" /><path clip-path="url(#clip710)" d="M1699.13 1523.3 L1699.13 1533.42 L1711.19 1533.42 L1711.19 1537.97 L1699.13 1537.97 L1699.13 1557.32 Q1699.13 1561.68 1700.31 1562.92 Q1701.52 1564.17 1705.18 1564.17 L1711.19 1564.17 L1711.19 1569.07 L1705.18 1569.07 Q1698.4 1569.07 1695.82 1566.55 Q1693.24 1564.01 1693.24 1557.32 L1693.24 1537.97 L1688.94 1537.97 L1688.94 1533.42 L1693.24 1533.42 L1693.24 1523.3 L1699.13 1523.3 Z" fill="#000000" fill-rule="nonzero" fill-opacity="1" /><path clip-path="url(#clip710)" d="M1749.39 1549.78 L1749.39 1552.64 L1722.46 1552.64 Q1722.84 1558.69 1726.09 1561.87 Q1729.37 1565.03 1735.19 1565.03 Q1738.56 1565.03 1741.72 1564.2 Q1744.9 1563.37 1748.02 1561.72 L1748.02 1567.25 Q1744.87 1568.59 1741.56 1569.29 Q1738.25 1569.99 1734.84 1569.99 Q1726.31 1569.99 1721.31 1565.03 Q1716.35 1560.06 1716.35 1551.59 Q1716.35 1542.84 1721.06 1537.72 Q1725.8 1532.56 1733.82 1532.56 Q1741.02 1532.56 1745.19 1537.21 Q1749.39 1541.82 1749.39 1549.78 M1743.53 1548.06 Q1743.47 1543.25 1740.82 1540.39 Q1738.21 1537.53 1733.89 1537.53 Q1728.98 1537.53 1726.02 1540.29 Q1723.1 1543.06 1722.65 1548.09 L1743.53 1548.06 Z" fill="#000000" fill-rule="nonzero" fill-opacity="1" /><polyline clip-path="url(#clip710)" style="stroke:#000000; stroke-linecap:round; stroke-linejoin:round; stroke-width:4; stroke-opacity:1; fill:none" points="231.58,1412.2 231.58,78.7402 "/>
<polyline clip-path="url(#clip710)" style="stroke:#000000; stroke-linecap:round; stroke-linejoin:round; stroke-width:4; stroke-opacity:1; fill:none" points="231.58,1374.46 250.477,1374.46 "/>
<polyline clip-path="url(#clip710)" style="stroke:#000000; stroke-linecap:round; stroke-linejoin:round; stroke-width:4; stroke-opacity:1; fill:none" points="231.58,1062.22 250.477,1062.22 "/>
<polyline clip-path="url(#clip710)" style="stroke:#000000; stroke-linecap:round; stroke-linejoin:round; stroke-width:4; stroke-opacity:1; fill:none" points="231.58,749.983 250.477,749.983 "/>
<polyline clip-path="url(#clip710)" style="stroke:#000000; stroke-linecap:round; stroke-linejoin:round; stroke-width:4; stroke-opacity:1; fill:none" points="231.58,437.743 250.477,437.743 "/>
<polyline clip-path="url(#clip710)" style="stroke:#000000; stroke-linecap:round; stroke-linejoin:round; stroke-width:4; stroke-opacity:1; fill:none" points="231.58,125.502 250.477,125.502 "/>
<path clip-path="url(#clip710)" d="M171.635 1360.26 Q168.024 1360.26 166.195 1363.83 Q164.39 1367.37 164.39 1374.5 Q164.39 1381.61 166.195 1385.17 Q168.024 1388.71 171.635 1388.71 Q175.269 1388.71 177.075 1385.17 Q178.904 1381.61 178.904 1374.5 Q178.904 1367.37 177.075 1363.83 Q175.269 1360.26 171.635 1360.26 M171.635 1356.56 Q177.445 1356.56 180.501 1361.17 Q183.58 1365.75 183.58 1374.5 Q183.58 1383.23 180.501 1387.83 Q177.445 1392.42 171.635 1392.42 Q165.825 1392.42 162.746 1387.83 Q159.691 1383.23 159.691 1374.5 Q159.691 1365.75 162.746 1361.17 Q165.825 1356.56 171.635 1356.56 Z" fill="#000000" fill-rule="nonzero" fill-opacity="1" /><path clip-path="url(#clip710)" d="M162.677 1044.94 L181.033 1044.94 L181.033 1048.88 L166.959 1048.88 L166.959 1057.35 Q167.978 1057 168.996 1056.84 Q170.015 1056.66 171.033 1056.66 Q176.82 1056.66 180.2 1059.83 Q183.58 1063 183.58 1068.42 Q183.58 1073.99 180.107 1077.1 Q176.635 1080.17 170.316 1080.17 Q168.14 1080.17 165.871 1079.8 Q163.626 1079.43 161.219 1078.69 L161.219 1073.99 Q163.302 1075.13 165.524 1075.68 Q167.746 1076.24 170.223 1076.24 Q174.228 1076.24 176.566 1074.13 Q178.904 1072.03 178.904 1068.42 Q178.904 1064.8 176.566 1062.7 Q174.228 1060.59 170.223 1060.59 Q168.348 1060.59 166.473 1061.01 Q164.621 1061.43 162.677 1062.3 L162.677 1044.94 Z" fill="#000000" fill-rule="nonzero" fill-opacity="1" /><path clip-path="url(#clip710)" d="M132.284 763.328 L139.922 763.328 L139.922 736.962 L131.612 738.629 L131.612 734.37 L139.876 732.703 L144.552 732.703 L144.552 763.328 L152.191 763.328 L152.191 767.263 L132.284 767.263 L132.284 763.328 Z" fill="#000000" fill-rule="nonzero" fill-opacity="1" /><path clip-path="url(#clip710)" d="M171.635 735.782 Q168.024 735.782 166.195 739.347 Q164.39 742.888 164.39 750.018 Q164.39 757.124 166.195 760.689 Q168.024 764.231 171.635 764.231 Q175.269 764.231 177.075 760.689 Q178.904 757.124 178.904 750.018 Q178.904 742.888 177.075 739.347 Q175.269 735.782 171.635 735.782 M171.635 732.078 Q177.445 732.078 180.501 736.685 Q183.58 741.268 183.58 750.018 Q183.58 758.745 180.501 763.351 Q177.445 767.934 171.635 767.934 Q165.825 767.934 162.746 763.351 Q159.691 758.745 159.691 750.018 Q159.691 741.268 162.746 736.685 Q165.825 732.078 171.635 732.078 Z" fill="#000000" fill-rule="nonzero" fill-opacity="1" /><path clip-path="url(#clip710)" d="M133.279 451.087 L140.918 451.087 L140.918 424.722 L132.608 426.389 L132.608 422.129 L140.872 420.463 L145.547 420.463 L145.547 451.087 L153.186 451.087 L153.186 455.023 L133.279 455.023 L133.279 451.087 Z" fill="#000000" fill-rule="nonzero" fill-opacity="1" /><path clip-path="url(#clip710)" d="M162.677 420.463 L181.033 420.463 L181.033 424.398 L166.959 424.398 L166.959 432.87 Q167.978 432.523 168.996 432.361 Q170.015 432.176 171.033 432.176 Q176.82 432.176 180.2 435.347 Q183.58 438.518 183.58 443.935 Q183.58 449.513 180.107 452.615 Q176.635 455.694 170.316 455.694 Q168.14 455.694 165.871 455.324 Q163.626 454.953 161.219 454.212 L161.219 449.513 Q163.302 450.648 165.524 451.203 Q167.746 451.759 170.223 451.759 Q174.228 451.759 176.566 449.652 Q178.904 447.546 178.904 443.935 Q178.904 440.324 176.566 438.217 Q174.228 436.111 170.223 436.111 Q168.348 436.111 166.473 436.527 Q164.621 436.944 162.677 437.824 L162.677 420.463 Z" fill="#000000" fill-rule="nonzero" fill-opacity="1" /><path clip-path="url(#clip710)" d="M135.501 138.847 L151.821 138.847 L151.821 142.782 L129.876 142.782 L129.876 138.847 Q132.538 136.092 137.122 131.463 Q141.728 126.81 142.909 125.467 Q145.154 122.944 146.034 121.208 Q146.936 119.449 146.936 117.759 Q146.936 115.004 144.992 113.268 Q143.071 111.532 139.969 111.532 Q137.77 111.532 135.316 112.296 Q132.885 113.06 130.108 114.611 L130.108 109.889 Q132.932 108.754 135.385 108.176 Q137.839 107.597 139.876 107.597 Q145.247 107.597 148.441 110.282 Q151.635 112.967 151.635 117.458 Q151.635 119.588 150.825 121.509 Q150.038 123.407 147.932 126 Q147.353 126.671 144.251 129.889 Q141.149 133.083 135.501 138.847 Z" fill="#000000" fill-rule="nonzero" fill-opacity="1" /><path clip-path="url(#clip710)" d="M171.635 111.301 Q168.024 111.301 166.195 114.866 Q164.39 118.407 164.39 125.537 Q164.39 132.643 166.195 136.208 Q168.024 139.75 171.635 139.75 Q175.269 139.75 177.075 136.208 Q178.904 132.643 178.904 125.537 Q178.904 118.407 177.075 114.866 Q175.269 111.301 171.635 111.301 M171.635 107.597 Q177.445 107.597 180.501 112.204 Q183.58 116.787 183.58 125.537 Q183.58 134.264 180.501 138.87 Q177.445 143.453 171.635 143.453 Q165.825 143.453 162.746 138.87 Q159.691 134.264 159.691 125.537 Q159.691 116.787 162.746 112.204 Q165.825 107.597 171.635 107.597 Z" fill="#000000" fill-rule="nonzero" fill-opacity="1" /><path clip-path="url(#clip710)" d="M45.3402 1073.54 Q46.0405 1071.48 48.3321 1069.53 Q50.6238 1067.56 54.6342 1065.59 L67.6202 1059.06 L67.6202 1065.97 L55.4299 1072.05 Q50.6556 1074.4 49.096 1076.63 Q47.5364 1078.83 47.5364 1082.65 L47.5364 1089.65 L67.6202 1089.65 L67.6202 1096.08 L20.1002 1096.08 L20.1002 1081.57 Q20.1002 1073.42 23.5059 1069.41 Q26.9115 1065.4 33.7865 1065.4 Q38.2743 1065.4 41.2344 1067.5 Q44.1944 1069.57 45.3402 1073.54 M25.3838 1089.65 L42.2529 1089.65 L42.2529 1081.57 Q42.2529 1076.92 40.1204 1074.56 Q37.956 1072.18 33.7865 1072.18 Q29.617 1072.18 27.5163 1074.56 Q25.3838 1076.92 25.3838 1081.57 L25.3838 1089.65 Z" fill="#000000" fill-rule="nonzero" fill-opacity="1" /><path clip-path="url(#clip710)" d="M48.3321 1023.48 L51.1967 1023.48 L51.1967 1050.41 Q57.2441 1050.02 60.427 1046.78 Q63.578 1043.5 63.578 1037.67 Q63.578 1034.3 62.7505 1031.15 Q61.9229 1027.97 60.2678 1024.85 L65.806 1024.85 Q67.1428 1028 67.843 1031.31 Q68.5432 1034.62 68.5432 1038.02 Q68.5432 1046.55 63.578 1051.55 Q58.6127 1056.52 50.1464 1056.52 Q41.3935 1056.52 36.2691 1051.81 Q31.1129 1047.06 31.1129 1039.04 Q31.1129 1031.85 35.7599 1027.68 Q40.375 1023.48 48.3321 1023.48 M46.6134 1029.33 Q41.8073 1029.4 38.9427 1032.04 Q36.0781 1034.65 36.0781 1038.98 Q36.0781 1043.88 38.8472 1046.84 Q41.6163 1049.77 46.6452 1050.21 L46.6134 1029.33 Z" fill="#000000" fill-rule="nonzero" fill-opacity="1" /><path clip-path="url(#clip710)" d="M62.273 1008.2 L81.1792 1008.2 L81.1792 1014.09 L31.9723 1014.09 L31.9723 1008.2 L37.3831 1008.2 Q34.2003 1006.35 32.6725 1003.55 Q31.1129 1000.72 31.1129 996.806 Q31.1129 990.313 36.2691 986.271 Q41.4253 982.197 49.8281 982.197 Q58.2308 982.197 63.387 986.271 Q68.5432 990.313 68.5432 996.806 Q68.5432 1000.72 67.0155 1003.55 Q65.4559 1006.35 62.273 1008.2 M49.8281 988.276 Q43.3669 988.276 39.7066 990.95 Q36.0145 993.591 36.0145 998.238 Q36.0145 1002.89 39.7066 1005.56 Q43.3669 1008.2 49.8281 1008.2 Q56.2893 1008.2 59.9814 1005.56 Q63.6417 1002.89 63.6417 998.238 Q63.6417 993.591 59.9814 990.95 Q56.2893 988.276 49.8281 988.276 Z" fill="#000000" fill-rule="nonzero" fill-opacity="1" /><path clip-path="url(#clip710)" d="M37.4468 951.832 Q36.8739 952.819 36.6192 953.997 Q36.3328 955.142 36.3328 956.543 Q36.3328 961.508 39.5793 964.182 Q42.794 966.824 48.8414 966.824 L67.6202 966.824 L67.6202 972.712 L31.9723 972.712 L31.9723 966.824 L37.5104 966.824 Q34.2639 964.977 32.7043 962.017 Q31.1129 959.057 31.1129 954.824 Q31.1129 954.219 31.2084 953.487 Q31.272 952.755 31.4312 951.864 L37.4468 951.832 Z" fill="#000000" fill-rule="nonzero" fill-opacity="1" /><path clip-path="url(#clip710)" d="M36.0781 933.308 Q36.0781 938.019 39.7703 940.756 Q43.4305 943.493 49.8281 943.493 Q56.2256 943.493 59.9177 940.788 Q63.578 938.051 63.578 933.308 Q63.578 928.629 59.8859 925.892 Q56.1938 923.155 49.8281 923.155 Q43.4942 923.155 39.8021 925.892 Q36.0781 928.629 36.0781 933.308 M31.1129 933.308 Q31.1129 925.669 36.0781 921.309 Q41.0434 916.948 49.8281 916.948 Q58.5809 916.948 63.578 921.309 Q68.5432 925.669 68.5432 933.308 Q68.5432 940.979 63.578 945.339 Q58.5809 949.668 49.8281 949.668 Q41.0434 949.668 36.0781 945.339 Q31.1129 940.979 31.1129 933.308 Z" fill="#000000" fill-rule="nonzero" fill-opacity="1" /><path clip-path="url(#clip710)" d="M37.3831 883.783 L18.095 883.783 L18.095 877.926 L67.6202 877.926 L67.6202 883.783 L62.273 883.783 Q65.4559 885.629 67.0155 888.462 Q68.5432 891.263 68.5432 895.209 Q68.5432 901.67 63.387 905.745 Q58.2308 909.787 49.8281 909.787 Q41.4253 909.787 36.2691 905.745 Q31.1129 901.67 31.1129 895.209 Q31.1129 891.263 32.6725 888.462 Q34.2003 885.629 37.3831 883.783 M49.8281 903.739 Q56.2893 903.739 59.9814 901.098 Q63.6417 898.424 63.6417 893.777 Q63.6417 889.13 59.9814 886.456 Q56.2893 883.783 49.8281 883.783 Q43.3669 883.783 39.7066 886.456 Q36.0145 889.13 36.0145 893.777 Q36.0145 898.424 39.7066 901.098 Q43.3669 903.739 49.8281 903.739 Z" fill="#000000" fill-rule="nonzero" fill-opacity="1" /><path clip-path="url(#clip710)" d="M53.552 866.468 L31.9723 866.468 L31.9723 860.612 L53.3292 860.612 Q58.3899 860.612 60.9362 858.638 Q63.4507 856.665 63.4507 852.718 Q63.4507 847.976 60.427 845.239 Q57.4033 842.469 52.1834 842.469 L31.9723 842.469 L31.9723 836.613 L67.6202 836.613 L67.6202 842.469 L62.1457 842.469 Q65.3922 844.602 66.9836 847.435 Q68.5432 850.236 68.5432 853.96 Q68.5432 860.102 64.7238 863.285 Q60.9044 866.468 53.552 866.468 M31.1129 851.732 L31.1129 851.732 Z" fill="#000000" fill-rule="nonzero" fill-opacity="1" /><path clip-path="url(#clip710)" d="M33.3409 798.896 L38.8154 798.896 Q37.4468 801.379 36.7784 803.893 Q36.0781 806.376 36.0781 808.922 Q36.0781 814.619 39.7066 817.77 Q43.3032 820.922 49.8281 820.922 Q56.3529 820.922 59.9814 817.77 Q63.578 814.619 63.578 808.922 Q63.578 806.376 62.9096 803.893 Q62.2094 801.379 60.8407 798.896 L66.2516 798.896 Q67.3974 801.347 67.9703 803.989 Q68.5432 806.599 68.5432 809.559 Q68.5432 817.611 63.4825 822.354 Q58.4218 827.096 49.8281 827.096 Q41.1071 827.096 36.11 822.322 Q31.1129 817.516 31.1129 809.177 Q31.1129 806.471 31.6858 803.893 Q32.2269 801.315 33.3409 798.896 Z" fill="#000000" fill-rule="nonzero" fill-opacity="1" /><path clip-path="url(#clip710)" d="M21.8508 782.918 L31.9723 782.918 L31.9723 770.855 L36.5237 770.855 L36.5237 782.918 L55.8755 782.918 Q60.236 782.918 61.4773 781.741 Q62.7186 780.531 62.7186 776.871 L62.7186 770.855 L67.6202 770.855 L67.6202 776.871 Q67.6202 783.65 65.1058 786.228 Q62.5595 788.807 55.8755 788.807 L36.5237 788.807 L36.5237 793.103 L31.9723 793.103 L31.9723 788.807 L21.8508 788.807 L21.8508 782.918 Z" fill="#000000" fill-rule="nonzero" fill-opacity="1" /><path clip-path="url(#clip710)" d="M31.9723 763.153 L31.9723 757.296 L67.6202 757.296 L67.6202 763.153 L31.9723 763.153 M18.095 763.153 L18.095 757.296 L25.5111 757.296 L25.5111 763.153 L18.095 763.153 Z" fill="#000000" fill-rule="nonzero" fill-opacity="1" /><path clip-path="url(#clip710)" d="M36.0781 731.229 Q36.0781 735.939 39.7703 738.677 Q43.4305 741.414 49.8281 741.414 Q56.2256 741.414 59.9177 738.708 Q63.578 735.971 63.578 731.229 Q63.578 726.55 59.8859 723.813 Q56.1938 721.075 49.8281 721.075 Q43.4942 721.075 39.8021 723.813 Q36.0781 726.55 36.0781 731.229 M31.1129 731.229 Q31.1129 723.59 36.0781 719.229 Q41.0434 714.869 49.8281 714.869 Q58.5809 714.869 63.578 719.229 Q68.5432 723.59 68.5432 731.229 Q68.5432 738.899 63.578 743.26 Q58.5809 747.589 49.8281 747.589 Q41.0434 747.589 36.0781 743.26 Q31.1129 738.899 31.1129 731.229 Z" fill="#000000" fill-rule="nonzero" fill-opacity="1" /><path clip-path="url(#clip710)" d="M46.1041 675.529 L67.6202 675.529 L67.6202 681.385 L46.2951 681.385 Q41.2344 681.385 38.7199 683.359 Q36.2055 685.332 36.2055 689.279 Q36.2055 694.021 39.2292 696.758 Q42.2529 699.496 47.4728 699.496 L67.6202 699.496 L67.6202 705.384 L31.9723 705.384 L31.9723 699.496 L37.5104 699.496 Q34.2957 697.395 32.7043 694.562 Q31.1129 691.698 31.1129 687.974 Q31.1129 681.831 34.9323 678.68 Q38.7199 675.529 46.1041 675.529 Z" fill="#000000" fill-rule="nonzero" fill-opacity="1" /><path clip-path="url(#clip710)" d="M46.1041 613.495 L67.6202 613.495 L67.6202 619.351 L46.2951 619.351 Q41.2344 619.351 38.7199 621.325 Q36.2055 623.298 36.2055 627.245 Q36.2055 631.987 39.2292 634.725 Q42.2529 637.462 47.4728 637.462 L67.6202 637.462 L67.6202 643.35 L31.9723 643.35 L31.9723 637.462 L37.5104 637.462 Q34.2957 635.361 32.7043 632.528 Q31.1129 629.664 31.1129 625.94 Q31.1129 619.797 34.9323 616.646 Q38.7199 613.495 46.1041 613.495 Z" fill="#000000" fill-rule="nonzero" fill-opacity="1" /><path clip-path="url(#clip710)" d="M53.552 602.419 L31.9723 602.419 L31.9723 596.562 L53.3292 596.562 Q58.3899 596.562 60.9362 594.589 Q63.4507 592.615 63.4507 588.669 Q63.4507 583.926 60.427 581.189 Q57.4033 578.42 52.1834 578.42 L31.9723 578.42 L31.9723 572.563 L67.6202 572.563 L67.6202 578.42 L62.1457 578.42 Q65.3922 580.552 66.9836 583.385 Q68.5432 586.186 68.5432 589.91 Q68.5432 596.053 64.7238 599.236 Q60.9044 602.419 53.552 602.419 M31.1129 587.682 L31.1129 587.682 Z" fill="#000000" fill-rule="nonzero" fill-opacity="1" /><path clip-path="url(#clip710)" d="M38.8154 532.746 Q34.8687 530.55 32.9908 527.494 Q31.1129 524.439 31.1129 520.301 Q31.1129 514.731 35.0278 511.707 Q38.9109 508.684 46.1041 508.684 L67.6202 508.684 L67.6202 514.572 L46.2951 514.572 Q41.1707 514.572 38.6881 516.386 Q36.2055 518.2 36.2055 521.924 Q36.2055 526.476 39.2292 529.118 Q42.2529 531.759 47.4728 531.759 L67.6202 531.759 L67.6202 537.648 L46.2951 537.648 Q41.1389 537.648 38.6881 539.462 Q36.2055 541.276 36.2055 545.064 Q36.2055 549.551 39.261 552.193 Q42.2847 554.835 47.4728 554.835 L67.6202 554.835 L67.6202 560.723 L31.9723 560.723 L31.9723 554.835 L37.5104 554.835 Q34.2321 552.83 32.6725 550.029 Q31.1129 547.228 31.1129 543.377 Q31.1129 539.494 33.0863 536.788 Q35.0596 534.051 38.8154 532.746 Z" fill="#000000" fill-rule="nonzero" fill-opacity="1" /><path clip-path="url(#clip710)" d="M49.8281 471.412 Q43.3669 471.412 39.7066 474.086 Q36.0145 476.728 36.0145 481.375 Q36.0145 486.022 39.7066 488.695 Q43.3669 491.337 49.8281 491.337 Q56.2893 491.337 59.9814 488.695 Q63.6417 486.022 63.6417 481.375 Q63.6417 476.728 59.9814 474.086 Q56.2893 471.412 49.8281 471.412 M37.3831 491.337 Q34.2003 489.491 32.6725 486.69 Q31.1129 483.857 31.1129 479.942 Q31.1129 473.449 36.2691 469.407 Q41.4253 465.333 49.8281 465.333 Q58.2308 465.333 63.387 469.407 Q68.5432 473.449 68.5432 479.942 Q68.5432 483.857 67.0155 486.69 Q65.4559 489.491 62.273 491.337 L67.6202 491.337 L67.6202 497.225 L18.095 497.225 L18.095 491.337 L37.3831 491.337 Z" fill="#000000" fill-rule="nonzero" fill-opacity="1" /><path clip-path="url(#clip710)" d="M48.3321 425.134 L51.1967 425.134 L51.1967 452.061 Q57.2441 451.679 60.427 448.432 Q63.578 445.154 63.578 439.329 Q63.578 435.955 62.7505 432.804 Q61.9229 429.622 60.2678 426.502 L65.806 426.502 Q67.1428 429.653 67.843 432.964 Q68.5432 436.274 68.5432 439.679 Q68.5432 448.209 63.578 453.206 Q58.6127 458.172 50.1464 458.172 Q41.3935 458.172 36.2691 453.461 Q31.1129 448.719 31.1129 440.698 Q31.1129 433.505 35.7599 429.335 Q40.375 425.134 48.3321 425.134 M46.6134 430.99 Q41.8073 431.054 38.9427 433.696 Q36.0781 436.306 36.0781 440.634 Q36.0781 445.536 38.8472 448.496 Q41.6163 451.424 46.6452 451.87 L46.6134 430.99 Z" fill="#000000" fill-rule="nonzero" fill-opacity="1" /><path clip-path="url(#clip710)" d="M37.4468 394.865 Q36.8739 395.851 36.6192 397.029 Q36.3328 398.175 36.3328 399.575 Q36.3328 404.541 39.5793 407.214 Q42.794 409.856 48.8414 409.856 L67.6202 409.856 L67.6202 415.744 L31.9723 415.744 L31.9723 409.856 L37.5104 409.856 Q34.2639 408.01 32.7043 405.05 Q31.1129 402.09 31.1129 397.857 Q31.1129 397.252 31.2084 396.52 Q31.272 395.788 31.4312 394.897 L37.4468 394.865 Z" fill="#000000" fill-rule="nonzero" fill-opacity="1" /><path clip-path="url(#clip712)" d="M313.363 1374.46 L340.9 1373.15 L368.436 1372.58 L395.973 1371.98 L423.509 1371.36 L451.046 1338.89 L478.582 1371.01 L506.119 1291.58 L533.655 1309.17 L561.192 1355.29 L588.728 1372.79 L616.265 1372.86 L643.801 1372.8 L671.338 1372.65 L698.874 1372.43 L726.411 1352.34 L753.947 1351.21 L781.484 1351.87 L809.02 1353.43 L836.557 1098.77 L864.093 1005.31 L891.63 1308.18 L919.166 1129.84 L946.703 1283.89 L974.239 1194.88 L1001.78 1100.95 L1029.31 1198.97 L1056.85 1184.78 L1084.39 1160.84 L1111.92 1226.53 L1139.46 1265.88 L1166.99 1288.85 L1194.53 1297.84 L1222.07 1328.08 L1249.6 1306.6 L1277.14 1313.59 L1304.68 1308.04 L1332.21 1316.78 L1359.75 1317.12 L1387.29 1324.37 L1414.82 1338.5 L1442.36 1350.56 L1469.9 1356.65 L1497.43 1342.55 L1524.97 1355.2 L1552.51 1355.53 L1580.04 1358.69 L1607.58 1366.19 L1635.11 1359.67 L1662.65 1364.03 L1690.19 1354.11 L1717.72 1359.6 L1745.26 1361.23 L1772.8 1359.62 L1800.33 1371.16 L1827.87 1364.77 L1855.41 1365.8 L1882.94 1364.55 L1910.48 1359.98 L1938.02 1358.09 L1965.55 1367.4 L1993.09 1366.57 L2020.63 1372.5 L2048.16 1368.74 L2075.7 1362.9 L2103.24 1340.62 L2130.77 1374.14 L2158.31 1371.02 L2185.84 1374.06 L2213.38 1363.17 L2240.92 1361.66 L2268.45 1368.92 L2295.99 1368.36 L2323.53 1367.74 L2351.06 1341.29 L2378.6 1373.67 L2406.14 1373.62 L2433.67 1373.53 L2461.21 1364.37 L2488.75 1363.21 L2516.28 1373.19 L2543.82 1373.07 L2571.36 1372.9 L2598.89 1372.67 L2626.43 1372.39 L2653.97 1372.05 L2681.5 1347.58 L2709.04 1371.53 L2736.57 1371.41 L2764.11 1371.22 L2791.65 1370.95 L2819.18 1370.62 L2846.72 1370.24 L2874.26 1369.84 L2901.79 1369.41 L2929.33 1369 L2956.87 1368.6 L2984.4 1368.24 L3011.94 1367.91 L3039.48 1367.64 L3039.48 379.578 L3011.94 420.093 L2984.4 467.178 L2956.87 520.247 L2929.33 578.064 L2901.79 638.772 L2874.26 700.048 L2846.72 759.337 L2819.18 814.11 L2791.65 862.044 L2764.11 901.089 L2736.57 929.561 L2709.04 947.109 L2681.5 756.093 L2653.97 1022.58 L2626.43 1071.98 L2598.89 1113.07 L2571.36 1146.04 L2543.82 1171.29 L2516.28 1189.48 L2488.75 1115.66 L2461.21 1142.18 L2433.67 1239.03 L2406.14 1251.56 L2378.6 1258.54 L2351.06 1107.6 L2323.53 1219.89 L2295.99 1234.01 L2268.45 1246.93 L2240.92 1224.92 L2213.38 1242.59 L2185.84 1315.83 L2158.31 1295.29 L2130.77 1326.72 L2103.24 1217.41 L2075.7 1281.4 L2048.16 1307.56 L2020.63 1329.2 L1993.09 1310.96 L1965.55 1317.62 L1938.02 1298.46 L1910.48 1307.24 L1882.94 1321.9 L1855.41 1328.56 L1827.87 1329.5 L1800.33 1347.92 L1772.8 1324.74 L1745.26 1330.15 L1717.72 1329.44 L1690.19 1322.52 L1662.65 1341.34 L1635.11 1335.64 L1607.58 1348.19 L1580.04 1336.98 L1552.51 1333.32 L1524.97 1333.79 L1497.43 1317.02 L1469.9 1337.35 L1442.36 1329.12 L1414.82 1313 L1387.29 1294.57 L1359.75 1284.96 L1332.21 1283.89 L1304.68 1272.2 L1277.14 1278.3 L1249.6 1268.54 L1222.07 1294.8 L1194.53 1253.79 L1166.99 1238.8 L1139.46 1203.99 L1111.92 1144.86 L1084.39 1047.25 L1056.85 1057.8 L1029.31 1051.99 L1001.78 882.262 L974.239 978.091 L946.703 1086.97 L919.166 766.121 L891.63 1023.19 L864.093 256.576 L836.557 223.209 L809.02 890.562 L781.484 854.713 L753.947 839.479 L726.411 865.542 L698.874 1078.64 L671.338 1110.44 L643.801 1131.98 L616.265 1140.81 L588.728 1130.11 L561.192 933.315 L533.655 611.948 L506.119 406.508 L478.582 870.79 L451.046 556.095 L423.509 921.901 L395.973 1012.04 L368.436 1100.4 L340.9 1182.49 L313.363 1374.46  Z" fill="#90ee90" fill-rule="evenodd" fill-opacity="0.5"/>
<polyline clip-path="url(#clip712)" style="stroke:#90ee90; stroke-linecap:round; stroke-linejoin:round; stroke-width:4; stroke-opacity:1; fill:none" points="313.363,1374.46 340.9,1322.42 368.436,1300.17 395.973,1276.22 423.509,1251.78 451.046,1080.7 478.582,1237.93 506.119,972.527 533.655,1057.83 561.192,1216.11 588.728,1308.22 616.265,1311.12 643.801,1308.73 671.338,1302.89 698.874,1294.27 726.411,1191.78 753.947,1182.43 781.484,1187.89 809.02,1200.76 836.557,735.883 864.093,681.17 891.63,1193.84 919.166,968.157 946.703,1199.18 974.239,1096.97 1001.78,999.488 1029.31,1130.96 1056.85,1125.28 1084.39,1107.02 1111.92,1187.9 1139.46,1236.65 1166.99,1265.24 1194.53,1277.04 1222.07,1312.54 1249.6,1288.61 1277.14,1296.94 1304.68,1291.07 1332.21,1301.25 1359.75,1301.92 1387.29,1310.33 1414.82,1326.58 1442.36,1340.68 1469.9,1347.87 1497.43,1330.7 1524.97,1345.48 1552.51,1345.47 1580.04,1348.98 1607.58,1358.44 1635.11,1349.06 1662.65,1354.27 1690.19,1340.11 1717.72,1346.54 1745.26,1347.96 1772.8,1344.72 1800.33,1362.35 1827.87,1350.36 1855.41,1350.86 1882.94,1347.44 1910.48,1338.43 1938.02,1333.73 1965.55,1348.53 1993.09,1345.49 2020.63,1358.22 2048.16,1346.68 2075.7,1332.01 2103.24,1290.28 2130.77,1361.52 2158.31,1346.04 2185.84,1358.57 2213.38,1319.7 2240.92,1312.37 2268.45,1328.68 2295.99,1324.05 2323.53,1318.98 2351.06,1252.71 2378.6,1343.04 2406.14,1341.15 2433.67,1337.75 2461.21,1291.08 2488.75,1281.56 2516.28,1324.32 2543.82,1319.39 2571.36,1312.54 2598.89,1303.6 2626.43,1292.47 2653.97,1279.07 2681.5,1152.49 2709.04,1258.61 2736.57,1253.86 2764.11,1246.14 2791.65,1235.55 2819.18,1222.56 2846.72,1207.71 2874.26,1191.64 2901.79,1175.03 2929.33,1158.57 2956.87,1142.9 2984.4,1128.51 3011.94,1115.75 3039.48,1104.77 "/>
<path clip-path="url(#clip712)" d="M313.363 1374.46 L340.9 1372.11 L368.436 1372.82 L395.973 1372.12 L423.509 1369.54 L451.046 1329.27 L478.582 1372.04 L506.119 1281.3 L533.655 1305.96 L561.192 1354.1 L588.728 1372.71 L616.265 1372.19 L643.801 1372.96 L671.338 1371.54 L698.874 1370.83 L726.411 1356.95 L753.947 1349.3 L781.484 1349.6 L809.02 1352.27 L836.557 1093.35 L864.093 999.038 L891.63 1304.26 L919.166 1124.9 L946.703 1283.81 L974.239 1193.48 L1001.78 1110.94 L1029.31 1200.78 L1056.85 1179.74 L1084.39 1164.74 L1111.92 1224.52 L1139.46 1264.74 L1166.99 1288.48 L1194.53 1298.15 L1222.07 1328.51 L1249.6 1306.41 L1277.14 1313.12 L1304.68 1307.3 L1332.21 1316.64 L1359.75 1318.18 L1387.29 1323.61 L1414.82 1339.4 L1442.36 1351.59 L1469.9 1356.47 L1497.43 1341.52 L1524.97 1355.56 L1552.51 1354.09 L1580.04 1358.7 L1607.58 1366.68 L1635.11 1360.51 L1662.65 1364.65 L1690.19 1355.64 L1717.72 1359.62 L1745.26 1362.07 L1772.8 1359.88 L1800.33 1370.81 L1827.87 1364.48 L1855.41 1365.19 L1882.94 1364.48 L1910.48 1359.82 L1938.02 1357.92 L1965.55 1368.62 L1993.09 1365.44 L2020.63 1372.25 L2048.16 1368.21 L2075.7 1363 L2103.24 1337.87 L2130.77 1374.38 L2158.31 1370.47 L2185.84 1373.2 L2213.38 1363.25 L2240.92 1359.3 L2268.45 1367.25 L2295.99 1369.43 L2323.53 1367.45 L2351.06 1338.52 L2378.6 1373.05 L2406.14 1372.67 L2433.67 1373.11 L2461.21 1361.37 L2488.75 1363.45 L2516.28 1373.06 L2543.82 1372.73 L2571.36 1372.58 L2598.89 1372.6 L2626.43 1372.58 L2653.97 1371.68 L2681.5 1348.75 L2709.04 1369.99 L2736.57 1371.87 L2764.11 1373.07 L2791.65 1371.86 L2819.18 1368.6 L2846.72 1370.3 L2874.26 1371.59 L2901.79 1369.06 L2929.33 1366.12 L2956.87 1369.44 L2984.4 1365.85 L3011.94 1367.1 L3039.48 1367.81 L3039.48 409.745 L3011.94 485.956 L2984.4 384.553 L2956.87 559.315 L2929.33 637.343 L2901.79 655.3 L2874.26 728.94 L2846.72 789.867 L2819.18 766.258 L2791.65 856.629 L2764.11 942.79 L2736.57 954.218 L2709.04 997.19 L2681.5 740.631 L2653.97 1011.2 L2626.43 1072.73 L2598.89 1089.58 L2571.36 1110.11 L2543.82 1163.08 L2516.28 1191.23 L2488.75 1117.02 L2461.21 1135.92 L2433.67 1224.18 L2406.14 1246.42 L2378.6 1262.72 L2351.06 1120.29 L2323.53 1227.79 L2295.99 1235.2 L2268.45 1250.51 L2240.92 1218.51 L2213.38 1235.14 L2185.84 1318.67 L2158.31 1293.19 L2130.77 1332.89 L2103.24 1220.56 L2075.7 1280.09 L2048.16 1308.36 L2020.63 1333.1 L1993.09 1311.52 L1965.55 1318.98 L1938.02 1305.63 L1910.48 1308.8 L1882.94 1321.83 L1855.41 1330.81 L1827.87 1330.9 L1800.33 1347.69 L1772.8 1325.14 L1745.26 1328.97 L1717.72 1330.84 L1690.19 1322.36 L1662.65 1342.73 L1635.11 1335.26 L1607.58 1347.8 L1580.04 1338.24 L1552.51 1333.96 L1524.97 1334.4 L1497.43 1316.11 L1469.9 1338.47 L1442.36 1331.38 L1414.82 1314.49 L1387.29 1292.74 L1359.75 1285.81 L1332.21 1287.31 L1304.68 1273.36 L1277.14 1278.94 L1249.6 1268.54 L1222.07 1295.57 L1194.53 1255.17 L1166.99 1242.19 L1139.46 1205.49 L1111.92 1144.43 L1084.39 1042.2 L1056.85 1062.74 L1029.31 1053.85 L1001.78 878.053 L974.239 990.721 L946.703 1097.27 L919.166 794.682 L891.63 1018.04 L864.093 237.631 L836.557 116.48 L809.02 890.502 L781.484 878.269 L753.947 829.478 L726.411 888.589 L698.874 1088.21 L671.338 1121.96 L643.801 1129.31 L616.265 1160.67 L588.728 1126.52 L561.192 951.251 L533.655 634.763 L506.119 425.897 L478.582 904.42 L451.046 522.232 L423.509 920.033 L395.973 1021.79 L368.436 1119.33 L340.9 1186.43 L313.363 1374.46  Z" fill="#006400" fill-rule="evenodd" fill-opacity="0.5"/>
<polyline clip-path="url(#clip712)" style="stroke:#006400; stroke-linecap:round; stroke-linejoin:round; stroke-width:4; stroke-opacity:1; fill:none" points="313.363,1374.46 340.9,1323.04 368.436,1300.75 395.973,1277.94 423.509,1258.35 451.046,1080.02 478.582,1233.76 506.119,965.193 533.655,1063.4 561.192,1210.27 588.728,1311.11 616.265,1318.31 643.801,1309.97 671.338,1296.56 698.874,1295.83 726.411,1192.91 753.947,1183.27 781.484,1187.66 809.02,1200.15 836.557,747.205 864.093,682.957 891.63,1186.97 919.166,971.909 946.703,1200.7 974.239,1098.17 1001.78,1001.2 1029.31,1128.08 1056.85,1123.66 1084.39,1108.68 1111.92,1188.34 1139.46,1236.02 1166.99,1265.04 1194.53,1276.63 1222.07,1312.75 1249.6,1289.33 1277.14,1296.81 1304.68,1290.83 1332.21,1302.29 1359.75,1302.24 1387.29,1310.47 1414.82,1326.31 1442.36,1340.61 1469.9,1348.48 1497.43,1330.69 1524.97,1346.1 1552.51,1345.28 1580.04,1349.22 1607.58,1358.24 1635.11,1348.97 1662.65,1355.49 1690.19,1340.66 1717.72,1344.75 1745.26,1348.23 1772.8,1345.62 1800.33,1362.1 1827.87,1351.29 1855.41,1352.12 1882.94,1347.56 1910.48,1338.54 1938.02,1336.38 1965.55,1348.75 1993.09,1346.34 2020.63,1359.86 2048.16,1344.17 2075.7,1331.5 2103.24,1290.94 2130.77,1362.71 2158.31,1343.24 2185.84,1358.45 2213.38,1320.73 2240.92,1311.33 2268.45,1327.9 2295.99,1324.93 2323.53,1320.33 2351.06,1255.97 2378.6,1340.26 2406.14,1338.38 2433.67,1335.33 2461.21,1288.53 2488.75,1284.19 2516.28,1323.02 2543.82,1321.87 2571.36,1309.09 2598.89,1300.44 2626.43,1294.55 2653.97,1278.37 2681.5,1151.26 2709.04,1261.66 2736.57,1259.36 2764.11,1247.27 2791.65,1237.57 2819.18,1222.83 2846.72,1208.41 2874.26,1194.22 2901.79,1173.79 2929.33,1164.97 2956.87,1153.99 2984.4,1118.03 3011.94,1133.18 3039.48,1101 "/>
<polyline clip-path="url(#clip712)" style="stroke:#000000; stroke-linecap:round; stroke-linejoin:round; stroke-width:4; stroke-opacity:1; fill:none" stroke-dasharray="16, 10" points="-2658.1,1312.02 6010.94,1312.02 "/>
<path clip-path="url(#clip710)" d="M2411.62 330.549 L3024.94 330.549 L3024.94 123.189 L2411.62 123.189  Z" fill="#ffffff" fill-rule="evenodd" fill-opacity="1"/>
<polyline clip-path="url(#clip710)" style="stroke:#000000; stroke-linecap:round; stroke-linejoin:round; stroke-width:4; stroke-opacity:1; fill:none" points="2411.62,330.549 3024.94,330.549 3024.94,123.189 2411.62,123.189 2411.62,330.549 "/>
<polyline clip-path="url(#clip710)" style="stroke:#90ee90; stroke-linecap:round; stroke-linejoin:round; stroke-width:4; stroke-opacity:1; fill:none" points="2443.73,175.029 2636.37,175.029 "/>
<path clip-path="url(#clip710)" d="M2684.87 176.105 Q2686.37 176.615 2687.78 178.281 Q2689.22 179.948 2690.66 182.865 L2695.4 192.309 L2690.38 192.309 L2685.96 183.443 Q2684.24 179.971 2682.62 178.837 Q2681.03 177.703 2678.25 177.703 L2673.16 177.703 L2673.16 192.309 L2668.48 192.309 L2668.48 157.749 L2679.03 157.749 Q2684.96 157.749 2687.88 160.226 Q2690.79 162.703 2690.79 167.703 Q2690.79 170.966 2689.27 173.119 Q2687.76 175.272 2684.87 176.105 M2673.16 161.592 L2673.16 173.86 L2679.03 173.86 Q2682.41 173.86 2684.13 172.309 Q2685.86 170.735 2685.86 167.703 Q2685.86 164.67 2684.13 163.142 Q2682.41 161.592 2679.03 161.592 L2673.16 161.592 Z" fill="#000000" fill-rule="nonzero" fill-opacity="1" /><path clip-path="url(#clip710)" d="M2705.45 159.022 L2705.45 166.383 L2714.22 166.383 L2714.22 169.693 L2705.45 169.693 L2705.45 183.767 Q2705.45 186.939 2706.3 187.841 Q2707.18 188.744 2709.85 188.744 L2714.22 188.744 L2714.22 192.309 L2709.85 192.309 Q2704.91 192.309 2703.04 190.48 Q2701.16 188.628 2701.16 183.767 L2701.16 169.693 L2698.04 169.693 L2698.04 166.383 L2701.16 166.383 L2701.16 159.022 L2705.45 159.022 Z" fill="#000000" fill-rule="nonzero" fill-opacity="1" /><path clip-path="url(#clip710)" d="M2745.12 156.337 Q2742.02 161.661 2740.52 166.869 Q2739.01 172.078 2739.01 177.425 Q2739.01 182.772 2740.52 188.027 Q2742.04 193.258 2745.12 198.559 L2741.42 198.559 Q2737.95 193.119 2736.21 187.865 Q2734.5 182.61 2734.5 177.425 Q2734.5 172.263 2736.21 167.031 Q2737.92 161.8 2741.42 156.337 L2745.12 156.337 Z" fill="#000000" fill-rule="nonzero" fill-opacity="1" /><path clip-path="url(#clip710)" d="M2765.17 179.277 Q2760.01 179.277 2758.02 180.457 Q2756.03 181.638 2756.03 184.485 Q2756.03 186.753 2757.51 188.096 Q2759.01 189.415 2761.58 189.415 Q2765.12 189.415 2767.25 186.915 Q2769.4 184.392 2769.4 180.226 L2769.4 179.277 L2765.17 179.277 M2773.66 177.517 L2773.66 192.309 L2769.4 192.309 L2769.4 188.374 Q2767.95 190.735 2765.77 191.869 Q2763.59 192.98 2760.45 192.98 Q2756.47 192.98 2754.1 190.758 Q2751.77 188.513 2751.77 184.763 Q2751.77 180.388 2754.68 178.166 Q2757.62 175.943 2763.43 175.943 L2769.4 175.943 L2769.4 175.527 Q2769.4 172.587 2767.46 170.99 Q2765.54 169.369 2762.04 169.369 Q2759.82 169.369 2757.72 169.902 Q2755.61 170.434 2753.66 171.499 L2753.66 167.564 Q2756 166.661 2758.2 166.221 Q2760.4 165.758 2762.48 165.758 Q2768.11 165.758 2770.89 168.675 Q2773.66 171.591 2773.66 177.517 Z" fill="#000000" fill-rule="nonzero" fill-opacity="1" /><path clip-path="url(#clip710)" d="M2803.99 176.661 L2803.99 192.309 L2799.73 192.309 L2799.73 176.8 Q2799.73 173.119 2798.29 171.291 Q2796.86 169.462 2793.99 169.462 Q2790.54 169.462 2788.55 171.661 Q2786.56 173.86 2786.56 177.656 L2786.56 192.309 L2782.28 192.309 L2782.28 166.383 L2786.56 166.383 L2786.56 170.411 Q2788.09 168.073 2790.15 166.916 Q2792.23 165.758 2794.94 165.758 Q2799.4 165.758 2801.7 168.536 Q2803.99 171.291 2803.99 176.661 Z" fill="#000000" fill-rule="nonzero" fill-opacity="1" /><path clip-path="url(#clip710)" d="M2824.27 179.277 Q2819.1 179.277 2817.11 180.457 Q2815.12 181.638 2815.12 184.485 Q2815.12 186.753 2816.6 188.096 Q2818.11 189.415 2820.68 189.415 Q2824.22 189.415 2826.35 186.915 Q2828.5 184.392 2828.5 180.226 L2828.5 179.277 L2824.27 179.277 M2832.76 177.517 L2832.76 192.309 L2828.5 192.309 L2828.5 188.374 Q2827.04 190.735 2824.87 191.869 Q2822.69 192.98 2819.54 192.98 Q2815.56 192.98 2813.2 190.758 Q2810.86 188.513 2810.86 184.763 Q2810.86 180.388 2813.78 178.166 Q2816.72 175.943 2822.53 175.943 L2828.5 175.943 L2828.5 175.527 Q2828.5 172.587 2826.56 170.99 Q2824.64 169.369 2821.14 169.369 Q2818.92 169.369 2816.81 169.902 Q2814.71 170.434 2812.76 171.499 L2812.76 167.564 Q2815.1 166.661 2817.3 166.221 Q2819.5 165.758 2821.58 165.758 Q2827.21 165.758 2829.98 168.675 Q2832.76 171.591 2832.76 177.517 Z" fill="#000000" fill-rule="nonzero" fill-opacity="1" /><path clip-path="url(#clip710)" d="M2841.53 156.291 L2845.79 156.291 L2845.79 192.309 L2841.53 192.309 L2841.53 156.291 Z" fill="#000000" fill-rule="nonzero" fill-opacity="1" /><path clip-path="url(#clip710)" d="M2865.49 194.716 Q2863.69 199.346 2861.97 200.758 Q2860.26 202.17 2857.39 202.17 L2853.99 202.17 L2853.99 198.605 L2856.49 198.605 Q2858.25 198.605 2859.22 197.772 Q2860.19 196.939 2861.37 193.837 L2862.14 191.892 L2851.65 166.383 L2856.16 166.383 L2864.27 186.661 L2872.37 166.383 L2876.88 166.383 L2865.49 194.716 Z" fill="#000000" fill-rule="nonzero" fill-opacity="1" /><path clip-path="url(#clip710)" d="M2886.97 159.022 L2886.97 166.383 L2895.75 166.383 L2895.75 169.693 L2886.97 169.693 L2886.97 183.767 Q2886.97 186.939 2887.83 187.841 Q2888.71 188.744 2891.37 188.744 L2895.75 188.744 L2895.75 192.309 L2891.37 192.309 Q2886.44 192.309 2884.57 190.48 Q2882.69 188.628 2882.69 183.767 L2882.69 169.693 L2879.57 169.693 L2879.57 166.383 L2882.69 166.383 L2882.69 159.022 L2886.97 159.022 Z" fill="#000000" fill-rule="nonzero" fill-opacity="1" /><path clip-path="url(#clip710)" d="M2901.35 166.383 L2905.61 166.383 L2905.61 192.309 L2901.35 192.309 L2901.35 166.383 M2901.35 156.291 L2905.61 156.291 L2905.61 161.684 L2901.35 161.684 L2901.35 156.291 Z" fill="#000000" fill-rule="nonzero" fill-opacity="1" /><path clip-path="url(#clip710)" d="M2933.18 167.379 L2933.18 171.36 Q2931.37 170.365 2929.54 169.879 Q2927.74 169.369 2925.89 169.369 Q2921.74 169.369 2919.45 172.008 Q2917.16 174.624 2917.16 179.369 Q2917.16 184.115 2919.45 186.753 Q2921.74 189.369 2925.89 189.369 Q2927.74 189.369 2929.54 188.883 Q2931.37 188.374 2933.18 187.378 L2933.18 191.314 Q2931.39 192.147 2929.47 192.564 Q2927.58 192.98 2925.42 192.98 Q2919.57 192.98 2916.12 189.3 Q2912.67 185.619 2912.67 179.369 Q2912.67 173.027 2916.14 169.392 Q2919.64 165.758 2925.7 165.758 Q2927.67 165.758 2929.54 166.175 Q2931.42 166.568 2933.18 167.379 Z" fill="#000000" fill-rule="nonzero" fill-opacity="1" /><path clip-path="url(#clip710)" d="M2952.37 179.277 Q2947.2 179.277 2945.21 180.457 Q2943.22 181.638 2943.22 184.485 Q2943.22 186.753 2944.7 188.096 Q2946.21 189.415 2948.78 189.415 Q2952.32 189.415 2954.45 186.915 Q2956.6 184.392 2956.6 180.226 L2956.6 179.277 L2952.37 179.277 M2960.86 177.517 L2960.86 192.309 L2956.6 192.309 L2956.6 188.374 Q2955.14 190.735 2952.97 191.869 Q2950.79 192.98 2947.64 192.98 Q2943.66 192.98 2941.3 190.758 Q2938.96 188.513 2938.96 184.763 Q2938.96 180.388 2941.88 178.166 Q2944.82 175.943 2950.63 175.943 L2956.6 175.943 L2956.6 175.527 Q2956.6 172.587 2954.66 170.99 Q2952.74 169.369 2949.24 169.369 Q2947.02 169.369 2944.91 169.902 Q2942.81 170.434 2940.86 171.499 L2940.86 167.564 Q2943.2 166.661 2945.4 166.221 Q2947.6 165.758 2949.68 165.758 Q2955.31 165.758 2958.08 168.675 Q2960.86 171.591 2960.86 177.517 Z" fill="#000000" fill-rule="nonzero" fill-opacity="1" /><path clip-path="url(#clip710)" d="M2969.64 156.291 L2973.89 156.291 L2973.89 192.309 L2969.64 192.309 L2969.64 156.291 Z" fill="#000000" fill-rule="nonzero" fill-opacity="1" /><path clip-path="url(#clip710)" d="M2982.14 156.337 L2985.84 156.337 Q2989.31 161.8 2991.02 167.031 Q2992.76 172.263 2992.76 177.425 Q2992.76 182.61 2991.02 187.865 Q2989.31 193.119 2985.84 198.559 L2982.14 198.559 Q2985.21 193.258 2986.72 188.027 Q2988.25 182.772 2988.25 177.425 Q2988.25 172.078 2986.72 166.869 Q2985.21 161.661 2982.14 156.337 Z" fill="#000000" fill-rule="nonzero" fill-opacity="1" /><polyline clip-path="url(#clip710)" style="stroke:#006400; stroke-linecap:round; stroke-linejoin:round; stroke-width:4; stroke-opacity:1; fill:none" points="2443.73,226.869 2636.37,226.869 "/>
<path clip-path="url(#clip710)" d="M2684.87 227.945 Q2686.37 228.455 2687.78 230.121 Q2689.22 231.788 2690.66 234.705 L2695.4 244.149 L2690.38 244.149 L2685.96 235.283 Q2684.24 231.811 2682.62 230.677 Q2681.03 229.543 2678.25 229.543 L2673.16 229.543 L2673.16 244.149 L2668.48 244.149 L2668.48 209.589 L2679.03 209.589 Q2684.96 209.589 2687.88 212.066 Q2690.79 214.543 2690.79 219.543 Q2690.79 222.806 2689.27 224.959 Q2687.76 227.112 2684.87 227.945 M2673.16 213.432 L2673.16 225.7 L2679.03 225.7 Q2682.41 225.7 2684.13 224.149 Q2685.86 222.575 2685.86 219.543 Q2685.86 216.51 2684.13 214.982 Q2682.41 213.432 2679.03 213.432 L2673.16 213.432 Z" fill="#000000" fill-rule="nonzero" fill-opacity="1" /><path clip-path="url(#clip710)" d="M2705.45 210.862 L2705.45 218.223 L2714.22 218.223 L2714.22 221.533 L2705.45 221.533 L2705.45 235.607 Q2705.45 238.779 2706.3 239.681 Q2707.18 240.584 2709.85 240.584 L2714.22 240.584 L2714.22 244.149 L2709.85 244.149 Q2704.91 244.149 2703.04 242.32 Q2701.16 240.468 2701.16 235.607 L2701.16 221.533 L2698.04 221.533 L2698.04 218.223 L2701.16 218.223 L2701.16 210.862 L2705.45 210.862 Z" fill="#000000" fill-rule="nonzero" fill-opacity="1" /><path clip-path="url(#clip710)" d="M2745.12 208.177 Q2742.02 213.501 2740.52 218.709 Q2739.01 223.918 2739.01 229.265 Q2739.01 234.612 2740.52 239.867 Q2742.04 245.098 2745.12 250.399 L2741.42 250.399 Q2737.95 244.959 2736.21 239.705 Q2734.5 234.45 2734.5 229.265 Q2734.5 224.103 2736.21 218.871 Q2737.92 213.64 2741.42 208.177 L2745.12 208.177 Z" fill="#000000" fill-rule="nonzero" fill-opacity="1" /><path clip-path="url(#clip710)" d="M2766.51 208.131 L2766.51 211.672 L2762.44 211.672 Q2760.15 211.672 2759.24 212.598 Q2758.36 213.524 2758.36 215.932 L2758.36 218.223 L2765.38 218.223 L2765.38 221.533 L2758.36 221.533 L2758.36 244.149 L2754.08 244.149 L2754.08 221.533 L2750.01 221.533 L2750.01 218.223 L2754.08 218.223 L2754.08 216.418 Q2754.08 212.089 2756.09 210.121 Q2758.11 208.131 2762.48 208.131 L2766.51 208.131 Z" fill="#000000" fill-rule="nonzero" fill-opacity="1" /><path clip-path="url(#clip710)" d="M2785.1 222.205 Q2784.38 221.788 2783.53 221.603 Q2782.69 221.394 2781.67 221.394 Q2778.06 221.394 2776.12 223.756 Q2774.2 226.093 2774.2 230.492 L2774.2 244.149 L2769.91 244.149 L2769.91 218.223 L2774.2 218.223 L2774.2 222.251 Q2775.54 219.89 2777.69 218.756 Q2779.84 217.598 2782.92 217.598 Q2783.36 217.598 2783.9 217.668 Q2784.43 217.714 2785.08 217.83 L2785.1 222.205 Z" fill="#000000" fill-rule="nonzero" fill-opacity="1" /><path clip-path="url(#clip710)" d="M2798.57 221.209 Q2795.15 221.209 2793.15 223.894 Q2791.16 226.556 2791.16 231.209 Q2791.16 235.862 2793.13 238.547 Q2795.12 241.209 2798.57 241.209 Q2801.97 241.209 2803.96 238.524 Q2805.96 235.839 2805.96 231.209 Q2805.96 226.603 2803.96 223.918 Q2801.97 221.209 2798.57 221.209 M2798.57 217.598 Q2804.13 217.598 2807.3 221.209 Q2810.47 224.82 2810.47 231.209 Q2810.47 237.575 2807.3 241.209 Q2804.13 244.82 2798.57 244.82 Q2792.99 244.82 2789.82 241.209 Q2786.67 237.575 2786.67 231.209 Q2786.67 224.82 2789.82 221.209 Q2792.99 217.598 2798.57 217.598 Z" fill="#000000" fill-rule="nonzero" fill-opacity="1" /><path clip-path="url(#clip710)" d="M2837.71 223.2 Q2839.31 220.33 2841.53 218.964 Q2843.76 217.598 2846.77 217.598 Q2850.82 217.598 2853.02 220.445 Q2855.21 223.269 2855.21 228.501 L2855.21 244.149 L2850.93 244.149 L2850.93 228.64 Q2850.93 224.913 2849.61 223.107 Q2848.29 221.302 2845.59 221.302 Q2842.27 221.302 2840.35 223.501 Q2838.43 225.7 2838.43 229.496 L2838.43 244.149 L2834.15 244.149 L2834.15 228.64 Q2834.15 224.89 2832.83 223.107 Q2831.51 221.302 2828.76 221.302 Q2825.49 221.302 2823.57 223.524 Q2821.65 225.723 2821.65 229.496 L2821.65 244.149 L2817.37 244.149 L2817.37 218.223 L2821.65 218.223 L2821.65 222.251 Q2823.11 219.867 2825.15 218.732 Q2827.18 217.598 2829.98 217.598 Q2832.81 217.598 2834.77 219.033 Q2836.77 220.469 2837.71 223.2 Z" fill="#000000" fill-rule="nonzero" fill-opacity="1" /><path clip-path="url(#clip710)" d="M2899.68 210.723 L2899.68 215.283 Q2897.02 214.01 2894.66 213.385 Q2892.3 212.76 2890.1 212.76 Q2886.28 212.76 2884.2 214.242 Q2882.14 215.723 2882.14 218.455 Q2882.14 220.746 2883.5 221.927 Q2884.89 223.084 2888.73 223.802 L2891.56 224.381 Q2896.79 225.376 2899.27 227.899 Q2901.77 230.399 2901.77 234.612 Q2901.77 239.635 2898.39 242.228 Q2895.03 244.82 2888.52 244.82 Q2886.07 244.82 2883.29 244.265 Q2880.54 243.709 2877.58 242.621 L2877.58 237.806 Q2880.42 239.404 2883.15 240.214 Q2885.89 241.024 2888.52 241.024 Q2892.53 241.024 2894.71 239.45 Q2896.88 237.876 2896.88 234.959 Q2896.88 232.413 2895.31 230.978 Q2893.76 229.543 2890.19 228.825 L2887.34 228.269 Q2882.11 227.228 2879.77 225.006 Q2877.44 222.783 2877.44 218.825 Q2877.44 214.242 2880.65 211.603 Q2883.9 208.964 2889.57 208.964 Q2892 208.964 2894.52 209.404 Q2897.04 209.844 2899.68 210.723 Z" fill="#000000" fill-rule="nonzero" fill-opacity="1" /><path clip-path="url(#clip710)" d="M2909.06 209.589 L2916.02 209.589 L2924.84 233.107 L2933.71 209.589 L2940.68 209.589 L2940.68 244.149 L2936.12 244.149 L2936.12 213.802 L2927.2 237.505 L2922.51 237.505 L2913.59 213.802 L2913.59 244.149 L2909.06 244.149 L2909.06 209.589 Z" fill="#000000" fill-rule="nonzero" fill-opacity="1" /><path clip-path="url(#clip710)" d="M2975.84 212.251 L2975.84 217.181 Q2973.48 214.982 2970.79 213.894 Q2968.13 212.807 2965.12 212.807 Q2959.2 212.807 2956.05 216.441 Q2952.9 220.052 2952.9 226.904 Q2952.9 233.732 2956.05 237.367 Q2959.2 240.978 2965.12 240.978 Q2968.13 240.978 2970.79 239.89 Q2973.48 238.802 2975.84 236.603 L2975.84 241.487 Q2973.39 243.154 2970.63 243.987 Q2967.9 244.82 2964.84 244.82 Q2957 244.82 2952.48 240.029 Q2947.97 235.214 2947.97 226.904 Q2947.97 218.57 2952.48 213.779 Q2957 208.964 2964.84 208.964 Q2967.95 208.964 2970.68 209.797 Q2973.43 210.607 2975.84 212.251 Z" fill="#000000" fill-rule="nonzero" fill-opacity="1" /><path clip-path="url(#clip710)" d="M2982.2 208.177 L2985.91 208.177 Q2989.38 213.64 2991.09 218.871 Q2992.83 224.103 2992.83 229.265 Q2992.83 234.45 2991.09 239.705 Q2989.38 244.959 2985.91 250.399 L2982.2 250.399 Q2985.28 245.098 2986.79 239.867 Q2988.32 234.612 2988.32 229.265 Q2988.32 223.918 2986.79 218.709 Q2985.28 213.501 2982.2 208.177 Z" fill="#000000" fill-rule="nonzero" fill-opacity="1" /><polyline clip-path="url(#clip710)" style="stroke:#000000; stroke-linecap:round; stroke-linejoin:round; stroke-width:4; stroke-opacity:1; fill:none" stroke-dasharray="16, 10" points="2443.73,278.709 2636.37,278.709 "/>
<path clip-path="url(#clip710)" d="M2684.87 279.785 Q2686.37 280.295 2687.78 281.961 Q2689.22 283.628 2690.66 286.545 L2695.4 295.989 L2690.38 295.989 L2685.96 287.123 Q2684.24 283.651 2682.62 282.517 Q2681.03 281.383 2678.25 281.383 L2673.16 281.383 L2673.16 295.989 L2668.48 295.989 L2668.48 261.429 L2679.03 261.429 Q2684.96 261.429 2687.88 263.906 Q2690.79 266.383 2690.79 271.383 Q2690.79 274.646 2689.27 276.799 Q2687.76 278.952 2684.87 279.785 M2673.16 265.272 L2673.16 277.54 L2679.03 277.54 Q2682.41 277.54 2684.13 275.989 Q2685.86 274.415 2685.86 271.383 Q2685.86 268.35 2684.13 266.822 Q2682.41 265.272 2679.03 265.272 L2673.16 265.272 Z" fill="#000000" fill-rule="nonzero" fill-opacity="1" /><path clip-path="url(#clip710)" d="M2705.45 262.702 L2705.45 270.063 L2714.22 270.063 L2714.22 273.373 L2705.45 273.373 L2705.45 287.447 Q2705.45 290.619 2706.3 291.521 Q2707.18 292.424 2709.85 292.424 L2714.22 292.424 L2714.22 295.989 L2709.85 295.989 Q2704.91 295.989 2703.04 294.16 Q2701.16 292.308 2701.16 287.447 L2701.16 273.373 L2698.04 273.373 L2698.04 270.063 L2701.16 270.063 L2701.16 262.702 L2705.45 262.702 Z" fill="#000000" fill-rule="nonzero" fill-opacity="1" /><path clip-path="url(#clip710)" d="M2735.45 274.461 L2765.12 274.461 L2765.12 278.35 L2735.45 278.35 L2735.45 274.461 M2735.45 283.906 L2765.12 283.906 L2765.12 287.841 L2735.45 287.841 L2735.45 283.906 Z" fill="#000000" fill-rule="nonzero" fill-opacity="1" /><path clip-path="url(#clip710)" d="M2791.09 292.054 L2798.73 292.054 L2798.73 265.688 L2790.42 267.355 L2790.42 263.096 L2798.69 261.429 L2803.36 261.429 L2803.36 292.054 L2811 292.054 L2811 295.989 L2791.09 295.989 L2791.09 292.054 Z" fill="#000000" fill-rule="nonzero" fill-opacity="1" /></svg>
