<?xml version="1.0" encoding="utf-8"?>
<svg xmlns="http://www.w3.org/2000/svg" xmlns:xlink="http://www.w3.org/1999/xlink" width="800" height="400" viewBox="0 0 3200 1600">
<defs>
  <clipPath id="clip080">
    <rect x="0" y="0" width="3200" height="1600"/>
  </clipPath>
</defs>
<path clip-path="url(#clip080)" d="M0 1600 L3200 1600 L3200 0 L0 0  Z" fill="#ffffff" fill-rule="evenodd" fill-opacity="1"/>
<defs>
  <clipPath id="clip081">
    <rect x="640" y="0" width="2241" height="1600"/>
  </clipPath>
</defs>
<path clip-path="url(#clip080)" d="M275.075 1412.2 L3121.26 1412.2 L3121.26 78.7402 L275.075 78.7402  Z" fill="#ffffff" fill-rule="evenodd" fill-opacity="1"/>
<defs>
  <clipPath id="clip082">
    <rect x="275" y="78" width="2847" height="1334"/>
  </clipPath>
</defs>
<polyline clip-path="url(#clip082)" style="stroke:#000000; stroke-linecap:round; stroke-linejoin:round; stroke-width:2; stroke-opacity:0.1; fill:none" points="464.115,1412.2 464.115,78.7402 "/>
<polyline clip-path="url(#clip082)" style="stroke:#000000; stroke-linecap:round; stroke-linejoin:round; stroke-width:2; stroke-opacity:0.1; fill:none" points="1304.9,1412.2 1304.9,78.7402 "/>
<polyline clip-path="url(#clip082)" style="stroke:#000000; stroke-linecap:round; stroke-linejoin:round; stroke-width:2; stroke-opacity:0.1; fill:none" points="2118.56,1412.2 2118.56,78.7402 "/>
<polyline clip-path="url(#clip082)" style="stroke:#000000; stroke-linecap:round; stroke-linejoin:round; stroke-width:2; stroke-opacity:0.1; fill:none" points="2959.34,1412.2 2959.34,78.7402 "/>
<polyline clip-path="url(#clip080)" style="stroke:#000000; stroke-linecap:round; stroke-linejoin:round; stroke-width:4; stroke-opacity:1; fill:none" points="275.075,1412.2 3121.26,1412.2 "/>
<polyline clip-path="url(#clip080)" style="stroke:#000000; stroke-linecap:round; stroke-linejoin:round; stroke-width:4; stroke-opacity:1; fill:none" points="464.115,1412.2 464.115,1393.31 "/>
<polyline clip-path="url(#clip080)" style="stroke:#000000; stroke-linecap:round; stroke-linejoin:round; stroke-width:4; stroke-opacity:1; fill:none" points="1304.9,1412.2 1304.9,1393.31 "/>
<polyline clip-path="url(#clip080)" style="stroke:#000000; stroke-linecap:round; stroke-linejoin:round; stroke-width:4; stroke-opacity:1; fill:none" points="2118.56,1412.2 2118.56,1393.31 "/>
<polyline clip-path="url(#clip080)" style="stroke:#000000; stroke-linecap:round; stroke-linejoin:round; stroke-width:4; stroke-opacity:1; fill:none" points="2959.34,1412.2 2959.34,1393.31 "/>
<path clip-path="url(#clip080)" d="M335.91 1477.07 L352.229 1477.07 L352.229 1481 L330.285 1481 L330.285 1477.07 Q332.947 1474.31 337.53 1469.68 Q342.137 1465.03 343.317 1463.69 Q345.563 1461.17 346.442 1459.43 Q347.345 1457.67 347.345 1455.98 Q347.345 1453.23 345.401 1451.49 Q343.479 1449.75 340.378 1449.75 Q338.178 1449.75 335.725 1450.52 Q333.294 1451.28 330.516 1452.83 L330.516 1448.11 Q333.341 1446.98 335.794 1446.4 Q338.248 1445.82 340.285 1445.82 Q345.655 1445.82 348.85 1448.5 Q352.044 1451.19 352.044 1455.68 Q352.044 1457.81 351.234 1459.73 Q350.447 1461.63 348.34 1464.22 Q347.762 1464.89 344.66 1468.11 Q341.558 1471.3 335.91 1477.07 Z" fill="#000000" fill-rule="nonzero" fill-opacity="1" /><path clip-path="url(#clip080)" d="M372.044 1449.52 Q368.433 1449.52 366.604 1453.09 Q364.799 1456.63 364.799 1463.76 Q364.799 1470.86 366.604 1474.43 Q368.433 1477.97 372.044 1477.97 Q375.678 1477.97 377.484 1474.43 Q379.312 1470.86 379.312 1463.76 Q379.312 1456.63 377.484 1453.09 Q375.678 1449.52 372.044 1449.52 M372.044 1445.82 Q377.854 1445.82 380.91 1450.43 Q383.988 1455.01 383.988 1463.76 Q383.988 1472.49 380.91 1477.09 Q377.854 1481.68 372.044 1481.68 Q366.234 1481.68 363.155 1477.09 Q360.1 1472.49 360.1 1463.76 Q360.1 1455.01 363.155 1450.43 Q366.234 1445.82 372.044 1445.82 Z" fill="#000000" fill-rule="nonzero" fill-opacity="1" /><path clip-path="url(#clip080)" d="M396.234 1477.07 L412.553 1477.07 L412.553 1481 L390.609 1481 L390.609 1477.07 Q393.271 1474.31 397.854 1469.68 Q402.461 1465.03 403.641 1463.69 Q405.886 1461.17 406.766 1459.43 Q407.669 1457.67 407.669 1455.98 Q407.669 1453.23 405.724 1451.49 Q403.803 1449.75 400.701 1449.75 Q398.502 1449.75 396.049 1450.52 Q393.618 1451.28 390.84 1452.83 L390.84 1448.11 Q393.664 1446.98 396.118 1446.4 Q398.572 1445.82 400.609 1445.82 Q405.979 1445.82 409.173 1448.5 Q412.368 1451.19 412.368 1455.68 Q412.368 1457.81 411.558 1459.73 Q410.771 1461.63 408.664 1464.22 Q408.085 1464.89 404.984 1468.11 Q401.882 1471.3 396.234 1477.07 Z" fill="#000000" fill-rule="nonzero" fill-opacity="1" /><path clip-path="url(#clip080)" d="M432.368 1449.52 Q428.757 1449.52 426.928 1453.09 Q425.122 1456.63 425.122 1463.76 Q425.122 1470.86 426.928 1474.43 Q428.757 1477.97 432.368 1477.97 Q436.002 1477.97 437.808 1474.43 Q439.636 1470.86 439.636 1463.76 Q439.636 1456.63 437.808 1453.09 Q436.002 1449.52 432.368 1449.52 M432.368 1445.82 Q438.178 1445.82 441.233 1450.43 Q444.312 1455.01 444.312 1463.76 Q444.312 1472.49 441.233 1477.09 Q438.178 1481.68 432.368 1481.68 Q426.558 1481.68 423.479 1477.09 Q420.423 1472.49 420.423 1463.76 Q420.423 1455.01 423.479 1450.43 Q426.558 1445.82 432.368 1445.82 Z" fill="#000000" fill-rule="nonzero" fill-opacity="1" /><path clip-path="url(#clip080)" d="M449.775 1466.12 L462.252 1466.12 L462.252 1469.92 L449.775 1469.92 L449.775 1466.12 Z" fill="#000000" fill-rule="nonzero" fill-opacity="1" /><path clip-path="url(#clip080)" d="M479.636 1449.52 Q476.025 1449.52 474.196 1453.09 Q472.391 1456.63 472.391 1463.76 Q472.391 1470.86 474.196 1474.43 Q476.025 1477.97 479.636 1477.97 Q483.27 1477.97 485.076 1474.43 Q486.905 1470.86 486.905 1463.76 Q486.905 1456.63 485.076 1453.09 Q483.27 1449.52 479.636 1449.52 M479.636 1445.82 Q485.446 1445.82 488.502 1450.43 Q491.58 1455.01 491.58 1463.76 Q491.58 1472.49 488.502 1477.09 Q485.446 1481.68 479.636 1481.68 Q473.826 1481.68 470.747 1477.09 Q467.692 1472.49 467.692 1463.76 Q467.692 1455.01 470.747 1450.43 Q473.826 1445.82 479.636 1445.82 Z" fill="#000000" fill-rule="nonzero" fill-opacity="1" /><path clip-path="url(#clip080)" d="M513.965 1462.37 Q517.321 1463.09 519.196 1465.36 Q521.094 1467.62 521.094 1470.96 Q521.094 1476.07 517.576 1478.87 Q514.057 1481.68 507.576 1481.68 Q505.4 1481.68 503.085 1481.24 Q500.793 1480.82 498.34 1479.96 L498.34 1475.45 Q500.284 1476.58 502.599 1477.16 Q504.914 1477.74 507.437 1477.74 Q511.835 1477.74 514.127 1476 Q516.441 1474.27 516.441 1470.96 Q516.441 1467.9 514.289 1466.19 Q512.159 1464.45 508.34 1464.45 L504.312 1464.45 L504.312 1460.61 L508.525 1460.61 Q511.974 1460.61 513.803 1459.24 Q515.631 1457.86 515.631 1455.26 Q515.631 1452.6 513.733 1451.19 Q511.858 1449.75 508.34 1449.75 Q506.418 1449.75 504.219 1450.17 Q502.02 1450.59 499.381 1451.47 L499.381 1447.3 Q502.043 1446.56 504.358 1446.19 Q506.696 1445.82 508.756 1445.82 Q514.08 1445.82 517.182 1448.25 Q520.284 1450.66 520.284 1454.78 Q520.284 1457.65 518.64 1459.64 Q516.997 1461.61 513.965 1462.37 Z" fill="#000000" fill-rule="nonzero" fill-opacity="1" /><path clip-path="url(#clip080)" d="M527.205 1466.12 L539.682 1466.12 L539.682 1469.92 L527.205 1469.92 L527.205 1466.12 Z" fill="#000000" fill-rule="nonzero" fill-opacity="1" /><path clip-path="url(#clip080)" d="M557.066 1449.52 Q553.455 1449.52 551.626 1453.09 Q549.821 1456.63 549.821 1463.76 Q549.821 1470.86 551.626 1474.43 Q553.455 1477.97 557.066 1477.97 Q560.7 1477.97 562.506 1474.43 Q564.335 1470.86 564.335 1463.76 Q564.335 1456.63 562.506 1453.09 Q560.7 1449.52 557.066 1449.52 M557.066 1445.82 Q562.876 1445.82 565.932 1450.43 Q569.011 1455.01 569.011 1463.76 Q569.011 1472.49 565.932 1477.09 Q562.876 1481.68 557.066 1481.68 Q551.256 1481.68 548.177 1477.09 Q545.122 1472.49 545.122 1463.76 Q545.122 1455.01 548.177 1450.43 Q551.256 1445.82 557.066 1445.82 Z" fill="#000000" fill-rule="nonzero" fill-opacity="1" /><path clip-path="url(#clip080)" d="M578.038 1477.07 L585.677 1477.07 L585.677 1450.7 L577.367 1452.37 L577.367 1448.11 L585.631 1446.44 L590.307 1446.44 L590.307 1477.07 L597.946 1477.07 L597.946 1481 L578.038 1481 L578.038 1477.07 Z" fill="#000000" fill-rule="nonzero" fill-opacity="1" /><path clip-path="url(#clip080)" d="M1176.69 1477.07 L1193.01 1477.07 L1193.01 1481 L1171.07 1481 L1171.07 1477.07 Q1173.73 1474.31 1178.31 1469.68 Q1182.92 1465.03 1184.1 1463.69 Q1186.35 1461.17 1187.22 1459.43 Q1188.13 1457.67 1188.13 1455.98 Q1188.13 1453.23 1186.18 1451.49 Q1184.26 1449.75 1181.16 1449.75 Q1178.96 1449.75 1176.51 1450.52 Q1174.08 1451.28 1171.3 1452.83 L1171.3 1448.11 Q1174.12 1446.98 1176.58 1446.4 Q1179.03 1445.82 1181.07 1445.82 Q1186.44 1445.82 1189.63 1448.5 Q1192.83 1451.19 1192.83 1455.68 Q1192.83 1457.81 1192.02 1459.73 Q1191.23 1461.63 1189.12 1464.22 Q1188.54 1464.89 1185.44 1468.11 Q1182.34 1471.3 1176.69 1477.07 Z" fill="#000000" fill-rule="nonzero" fill-opacity="1" /><path clip-path="url(#clip080)" d="M1212.83 1449.52 Q1209.22 1449.52 1207.39 1453.09 Q1205.58 1456.63 1205.58 1463.76 Q1205.58 1470.86 1207.39 1474.43 Q1209.22 1477.97 1212.83 1477.97 Q1216.46 1477.97 1218.27 1474.43 Q1220.1 1470.86 1220.1 1463.76 Q1220.1 1456.63 1218.27 1453.09 Q1216.46 1449.52 1212.83 1449.52 M1212.83 1445.82 Q1218.64 1445.82 1221.69 1450.43 Q1224.77 1455.01 1224.77 1463.76 Q1224.77 1472.49 1221.69 1477.09 Q1218.64 1481.68 1212.83 1481.68 Q1207.02 1481.68 1203.94 1477.09 Q1200.88 1472.49 1200.88 1463.76 Q1200.88 1455.01 1203.94 1450.43 Q1207.02 1445.82 1212.83 1445.82 Z" fill="#000000" fill-rule="nonzero" fill-opacity="1" /><path clip-path="url(#clip080)" d="M1237.02 1477.07 L1253.34 1477.07 L1253.34 1481 L1231.39 1481 L1231.39 1477.07 Q1234.05 1474.31 1238.64 1469.68 Q1243.24 1465.03 1244.42 1463.69 Q1246.67 1461.17 1247.55 1459.43 Q1248.45 1457.67 1248.45 1455.98 Q1248.45 1453.23 1246.51 1451.49 Q1244.59 1449.75 1241.48 1449.75 Q1239.28 1449.75 1236.83 1450.52 Q1234.4 1451.28 1231.62 1452.83 L1231.62 1448.11 Q1234.45 1446.98 1236.9 1446.4 Q1239.35 1445.82 1241.39 1445.82 Q1246.76 1445.82 1249.96 1448.5 Q1253.15 1451.19 1253.15 1455.68 Q1253.15 1457.81 1252.34 1459.73 Q1251.55 1461.63 1249.45 1464.22 Q1248.87 1464.89 1245.77 1468.11 Q1242.66 1471.3 1237.02 1477.07 Z" fill="#000000" fill-rule="nonzero" fill-opacity="1" /><path clip-path="url(#clip080)" d="M1273.15 1449.52 Q1269.54 1449.52 1267.71 1453.09 Q1265.91 1456.63 1265.91 1463.76 Q1265.91 1470.86 1267.71 1474.43 Q1269.54 1477.97 1273.15 1477.97 Q1276.78 1477.97 1278.59 1474.43 Q1280.42 1470.86 1280.42 1463.76 Q1280.42 1456.63 1278.59 1453.09 Q1276.78 1449.52 1273.15 1449.52 M1273.15 1445.82 Q1278.96 1445.82 1282.02 1450.43 Q1285.09 1455.01 1285.09 1463.76 Q1285.09 1472.49 1282.02 1477.09 Q1278.96 1481.68 1273.15 1481.68 Q1267.34 1481.68 1264.26 1477.09 Q1261.21 1472.49 1261.21 1463.76 Q1261.21 1455.01 1264.26 1450.43 Q1267.34 1445.82 1273.15 1445.82 Z" fill="#000000" fill-rule="nonzero" fill-opacity="1" /><path clip-path="url(#clip080)" d="M1290.56 1466.12 L1303.03 1466.12 L1303.03 1469.92 L1290.56 1469.92 L1290.56 1466.12 Z" fill="#000000" fill-rule="nonzero" fill-opacity="1" /><path clip-path="url(#clip080)" d="M1320.42 1449.52 Q1316.81 1449.52 1314.98 1453.09 Q1313.17 1456.63 1313.17 1463.76 Q1313.17 1470.86 1314.98 1474.43 Q1316.81 1477.97 1320.42 1477.97 Q1324.05 1477.97 1325.86 1474.43 Q1327.69 1470.86 1327.69 1463.76 Q1327.69 1456.63 1325.86 1453.09 Q1324.05 1449.52 1320.42 1449.52 M1320.42 1445.82 Q1326.23 1445.82 1329.28 1450.43 Q1332.36 1455.01 1332.36 1463.76 Q1332.36 1472.49 1329.28 1477.09 Q1326.23 1481.68 1320.42 1481.68 Q1314.61 1481.68 1311.53 1477.09 Q1308.47 1472.49 1308.47 1463.76 Q1308.47 1455.01 1311.53 1450.43 Q1314.61 1445.82 1320.42 1445.82 Z" fill="#000000" fill-rule="nonzero" fill-opacity="1" /><path clip-path="url(#clip080)" d="M1353.43 1450.52 L1341.62 1468.97 L1353.43 1468.97 L1353.43 1450.52 M1352.2 1446.44 L1358.08 1446.44 L1358.08 1468.97 L1363.01 1468.97 L1363.01 1472.86 L1358.08 1472.86 L1358.08 1481 L1353.43 1481 L1353.43 1472.86 L1337.83 1472.86 L1337.83 1468.34 L1352.2 1446.44 Z" fill="#000000" fill-rule="nonzero" fill-opacity="1" /><path clip-path="url(#clip080)" d="M1367.99 1466.12 L1380.46 1466.12 L1380.46 1469.92 L1367.99 1469.92 L1367.99 1466.12 Z" fill="#000000" fill-rule="nonzero" fill-opacity="1" /><path clip-path="url(#clip080)" d="M1397.85 1449.52 Q1394.24 1449.52 1392.41 1453.09 Q1390.6 1456.63 1390.6 1463.76 Q1390.6 1470.86 1392.41 1474.43 Q1394.24 1477.97 1397.85 1477.97 Q1401.48 1477.97 1403.29 1474.43 Q1405.12 1470.86 1405.12 1463.76 Q1405.12 1456.63 1403.29 1453.09 Q1401.48 1449.52 1397.85 1449.52 M1397.85 1445.82 Q1403.66 1445.82 1406.71 1450.43 Q1409.79 1455.01 1409.79 1463.76 Q1409.79 1472.49 1406.71 1477.09 Q1403.66 1481.68 1397.85 1481.68 Q1392.04 1481.68 1388.96 1477.09 Q1385.9 1472.49 1385.9 1463.76 Q1385.9 1455.01 1388.96 1450.43 Q1392.04 1445.82 1397.85 1445.82 Z" fill="#000000" fill-rule="nonzero" fill-opacity="1" /><path clip-path="url(#clip080)" d="M1418.82 1477.07 L1426.46 1477.07 L1426.46 1450.7 L1418.15 1452.37 L1418.15 1448.11 L1426.41 1446.44 L1431.09 1446.44 L1431.09 1477.07 L1438.73 1477.07 L1438.73 1481 L1418.82 1481 L1418.82 1477.07 Z" fill="#000000" fill-rule="nonzero" fill-opacity="1" /><path clip-path="url(#clip080)" d="M1990.35 1477.07 L2006.67 1477.07 L2006.67 1481 L1984.73 1481 L1984.73 1477.07 Q1987.39 1474.31 1991.97 1469.68 Q1996.58 1465.03 1997.76 1463.69 Q2000.01 1461.17 2000.89 1459.43 Q2001.79 1457.67 2001.79 1455.98 Q2001.79 1453.23 1999.84 1451.49 Q1997.92 1449.75 1994.82 1449.75 Q1992.62 1449.75 1990.17 1450.52 Q1987.74 1451.28 1984.96 1452.83 L1984.96 1448.11 Q1987.78 1446.98 1990.24 1446.4 Q1992.69 1445.82 1994.73 1445.82 Q2000.1 1445.82 2003.29 1448.5 Q2006.49 1451.19 2006.49 1455.68 Q2006.49 1457.81 2005.68 1459.73 Q2004.89 1461.63 2002.78 1464.22 Q2002.21 1464.89 1999.1 1468.11 Q1996 1471.3 1990.35 1477.07 Z" fill="#000000" fill-rule="nonzero" fill-opacity="1" /><path clip-path="url(#clip080)" d="M2026.49 1449.52 Q2022.88 1449.52 2021.05 1453.09 Q2019.24 1456.63 2019.24 1463.76 Q2019.24 1470.86 2021.05 1474.43 Q2022.88 1477.97 2026.49 1477.97 Q2030.12 1477.97 2031.93 1474.43 Q2033.76 1470.86 2033.76 1463.76 Q2033.76 1456.63 2031.93 1453.09 Q2030.12 1449.52 2026.49 1449.52 M2026.49 1445.82 Q2032.3 1445.82 2035.35 1450.43 Q2038.43 1455.01 2038.43 1463.76 Q2038.43 1472.49 2035.35 1477.09 Q2032.3 1481.68 2026.49 1481.68 Q2020.68 1481.68 2017.6 1477.09 Q2014.54 1472.49 2014.54 1463.76 Q2014.54 1455.01 2017.6 1450.43 Q2020.68 1445.82 2026.49 1445.82 Z" fill="#000000" fill-rule="nonzero" fill-opacity="1" /><path clip-path="url(#clip080)" d="M2050.68 1477.07 L2067 1477.07 L2067 1481 L2045.05 1481 L2045.05 1477.07 Q2047.71 1474.31 2052.3 1469.68 Q2056.9 1465.03 2058.08 1463.69 Q2060.33 1461.17 2061.21 1459.43 Q2062.11 1457.67 2062.11 1455.98 Q2062.11 1453.23 2060.17 1451.49 Q2058.25 1449.75 2055.14 1449.75 Q2052.95 1449.75 2050.49 1450.52 Q2048.06 1451.28 2045.28 1452.83 L2045.28 1448.11 Q2048.11 1446.98 2050.56 1446.4 Q2053.02 1445.82 2055.05 1445.82 Q2060.42 1445.82 2063.62 1448.5 Q2066.81 1451.19 2066.81 1455.68 Q2066.81 1457.81 2066 1459.73 Q2065.21 1461.63 2063.11 1464.22 Q2062.53 1464.89 2059.43 1468.11 Q2056.33 1471.3 2050.68 1477.07 Z" fill="#000000" fill-rule="nonzero" fill-opacity="1" /><path clip-path="url(#clip080)" d="M2086.81 1449.52 Q2083.2 1449.52 2081.37 1453.09 Q2079.57 1456.63 2079.57 1463.76 Q2079.57 1470.86 2081.37 1474.43 Q2083.2 1477.97 2086.81 1477.97 Q2090.45 1477.97 2092.25 1474.43 Q2094.08 1470.86 2094.08 1463.76 Q2094.08 1456.63 2092.25 1453.09 Q2090.45 1449.52 2086.81 1449.52 M2086.81 1445.82 Q2092.62 1445.82 2095.68 1450.43 Q2098.76 1455.01 2098.76 1463.76 Q2098.76 1472.49 2095.68 1477.09 Q2092.62 1481.68 2086.81 1481.68 Q2081 1481.68 2077.92 1477.09 Q2074.87 1472.49 2074.87 1463.76 Q2074.87 1455.01 2077.92 1450.43 Q2081 1445.82 2086.81 1445.82 Z" fill="#000000" fill-rule="nonzero" fill-opacity="1" /><path clip-path="url(#clip080)" d="M2104.22 1466.12 L2116.7 1466.12 L2116.7 1469.92 L2104.22 1469.92 L2104.22 1466.12 Z" fill="#000000" fill-rule="nonzero" fill-opacity="1" /><path clip-path="url(#clip080)" d="M2134.08 1449.52 Q2130.47 1449.52 2128.64 1453.09 Q2126.83 1456.63 2126.83 1463.76 Q2126.83 1470.86 2128.64 1474.43 Q2130.47 1477.97 2134.08 1477.97 Q2137.71 1477.97 2139.52 1474.43 Q2141.35 1470.86 2141.35 1463.76 Q2141.35 1456.63 2139.52 1453.09 Q2137.71 1449.52 2134.08 1449.52 M2134.08 1445.82 Q2139.89 1445.82 2142.95 1450.43 Q2146.02 1455.01 2146.02 1463.76 Q2146.02 1472.49 2142.95 1477.09 Q2139.89 1481.68 2134.08 1481.68 Q2128.27 1481.68 2125.19 1477.09 Q2122.14 1472.49 2122.14 1463.76 Q2122.14 1455.01 2125.19 1450.43 Q2128.27 1445.82 2134.08 1445.82 Z" fill="#000000" fill-rule="nonzero" fill-opacity="1" /><path clip-path="url(#clip080)" d="M2154.29 1446.44 L2172.64 1446.44 L2172.64 1450.38 L2158.57 1450.38 L2158.57 1458.85 Q2159.59 1458.5 2160.61 1458.34 Q2161.63 1458.16 2162.64 1458.16 Q2168.43 1458.16 2171.81 1461.33 Q2175.19 1464.5 2175.19 1469.92 Q2175.19 1475.49 2171.72 1478.6 Q2168.25 1481.68 2161.93 1481.68 Q2159.75 1481.68 2157.48 1481.3 Q2155.24 1480.93 2152.83 1480.19 L2152.83 1475.49 Q2154.91 1476.63 2157.13 1477.18 Q2159.36 1477.74 2161.83 1477.74 Q2165.84 1477.74 2168.18 1475.63 Q2170.51 1473.53 2170.51 1469.92 Q2170.51 1466.3 2168.18 1464.2 Q2165.84 1462.09 2161.83 1462.09 Q2159.96 1462.09 2158.08 1462.51 Q2156.23 1462.93 2154.29 1463.8 L2154.29 1446.44 Z" fill="#000000" fill-rule="nonzero" fill-opacity="1" /><path clip-path="url(#clip080)" d="M2181.65 1466.12 L2194.13 1466.12 L2194.13 1469.92 L2181.65 1469.92 L2181.65 1466.12 Z" fill="#000000" fill-rule="nonzero" fill-opacity="1" /><path clip-path="url(#clip080)" d="M2211.51 1449.52 Q2207.9 1449.52 2206.07 1453.09 Q2204.26 1456.63 2204.26 1463.76 Q2204.26 1470.86 2206.07 1474.43 Q2207.9 1477.97 2211.51 1477.97 Q2215.14 1477.97 2216.95 1474.43 Q2218.78 1470.86 2218.78 1463.76 Q2218.78 1456.63 2216.95 1453.09 Q2215.14 1449.52 2211.51 1449.52 M2211.51 1445.82 Q2217.32 1445.82 2220.38 1450.43 Q2223.45 1455.01 2223.45 1463.76 Q2223.45 1472.49 2220.38 1477.09 Q2217.32 1481.68 2211.51 1481.68 Q2205.7 1481.68 2202.62 1477.09 Q2199.57 1472.49 2199.57 1463.76 Q2199.57 1455.01 2202.62 1450.43 Q2205.7 1445.82 2211.51 1445.82 Z" fill="#000000" fill-rule="nonzero" fill-opacity="1" /><path clip-path="url(#clip080)" d="M2232.48 1477.07 L2240.12 1477.07 L2240.12 1450.7 L2231.81 1452.37 L2231.81 1448.11 L2240.07 1446.44 L2244.75 1446.44 L2244.75 1477.07 L2252.39 1477.07 L2252.39 1481 L2232.48 1481 L2232.48 1477.07 Z" fill="#000000" fill-rule="nonzero" fill-opacity="1" /><path clip-path="url(#clip080)" d="M2831.14 1477.07 L2847.46 1477.07 L2847.46 1481 L2825.51 1481 L2825.51 1477.07 Q2828.17 1474.31 2832.76 1469.68 Q2837.36 1465.03 2838.54 1463.69 Q2840.79 1461.17 2841.67 1459.43 Q2842.57 1457.67 2842.57 1455.98 Q2842.57 1453.23 2840.63 1451.49 Q2838.71 1449.75 2835.6 1449.75 Q2833.4 1449.75 2830.95 1450.52 Q2828.52 1451.28 2825.74 1452.83 L2825.74 1448.11 Q2828.57 1446.98 2831.02 1446.4 Q2833.47 1445.82 2835.51 1445.82 Q2840.88 1445.82 2844.08 1448.5 Q2847.27 1451.19 2847.27 1455.68 Q2847.27 1457.81 2846.46 1459.73 Q2845.67 1461.63 2843.57 1464.22 Q2842.99 1464.89 2839.89 1468.11 Q2836.78 1471.3 2831.14 1477.07 Z" fill="#000000" fill-rule="nonzero" fill-opacity="1" /><path clip-path="url(#clip080)" d="M2867.27 1449.52 Q2863.66 1449.52 2861.83 1453.09 Q2860.02 1456.63 2860.02 1463.76 Q2860.02 1470.86 2861.83 1474.43 Q2863.66 1477.97 2867.27 1477.97 Q2870.9 1477.97 2872.71 1474.43 Q2874.54 1470.86 2874.54 1463.76 Q2874.54 1456.63 2872.71 1453.09 Q2870.9 1449.52 2867.27 1449.52 M2867.27 1445.82 Q2873.08 1445.82 2876.14 1450.43 Q2879.21 1455.01 2879.21 1463.76 Q2879.21 1472.49 2876.14 1477.09 Q2873.08 1481.68 2867.27 1481.68 Q2861.46 1481.68 2858.38 1477.09 Q2855.33 1472.49 2855.33 1463.76 Q2855.33 1455.01 2858.38 1450.43 Q2861.46 1445.82 2867.27 1445.82 Z" fill="#000000" fill-rule="nonzero" fill-opacity="1" /><path clip-path="url(#clip080)" d="M2891.46 1477.07 L2907.78 1477.07 L2907.78 1481 L2885.83 1481 L2885.83 1477.07 Q2888.5 1474.31 2893.08 1469.68 Q2897.69 1465.03 2898.87 1463.69 Q2901.11 1461.17 2901.99 1459.43 Q2902.89 1457.67 2902.89 1455.98 Q2902.89 1453.23 2900.95 1451.49 Q2899.03 1449.75 2895.93 1449.75 Q2893.73 1449.75 2891.27 1450.52 Q2888.84 1451.28 2886.07 1452.83 L2886.07 1448.11 Q2888.89 1446.98 2891.34 1446.4 Q2893.8 1445.82 2895.83 1445.82 Q2901.21 1445.82 2904.4 1448.5 Q2907.59 1451.19 2907.59 1455.68 Q2907.59 1457.81 2906.78 1459.73 Q2906 1461.63 2903.89 1464.22 Q2903.31 1464.89 2900.21 1468.11 Q2897.11 1471.3 2891.46 1477.07 Z" fill="#000000" fill-rule="nonzero" fill-opacity="1" /><path clip-path="url(#clip080)" d="M2927.59 1449.52 Q2923.98 1449.52 2922.15 1453.09 Q2920.35 1456.63 2920.35 1463.76 Q2920.35 1470.86 2922.15 1474.43 Q2923.98 1477.97 2927.59 1477.97 Q2931.23 1477.97 2933.03 1474.43 Q2934.86 1470.86 2934.86 1463.76 Q2934.86 1456.63 2933.03 1453.09 Q2931.23 1449.52 2927.59 1449.52 M2927.59 1445.82 Q2933.4 1445.82 2936.46 1450.43 Q2939.54 1455.01 2939.54 1463.76 Q2939.54 1472.49 2936.46 1477.09 Q2933.4 1481.68 2927.59 1481.68 Q2921.78 1481.68 2918.71 1477.09 Q2915.65 1472.49 2915.65 1463.76 Q2915.65 1455.01 2918.71 1450.43 Q2921.78 1445.82 2927.59 1445.82 Z" fill="#000000" fill-rule="nonzero" fill-opacity="1" /><path clip-path="url(#clip080)" d="M2945 1466.12 L2957.48 1466.12 L2957.48 1469.92 L2945 1469.92 L2945 1466.12 Z" fill="#000000" fill-rule="nonzero" fill-opacity="1" /><path clip-path="url(#clip080)" d="M2974.86 1449.52 Q2971.25 1449.52 2969.42 1453.09 Q2967.62 1456.63 2967.62 1463.76 Q2967.62 1470.86 2969.42 1474.43 Q2971.25 1477.97 2974.86 1477.97 Q2978.5 1477.97 2980.3 1474.43 Q2982.13 1470.86 2982.13 1463.76 Q2982.13 1456.63 2980.3 1453.09 Q2978.5 1449.52 2974.86 1449.52 M2974.86 1445.82 Q2980.67 1445.82 2983.73 1450.43 Q2986.81 1455.01 2986.81 1463.76 Q2986.81 1472.49 2983.73 1477.09 Q2980.67 1481.68 2974.86 1481.68 Q2969.05 1481.68 2965.97 1477.09 Q2962.92 1472.49 2962.92 1463.76 Q2962.92 1455.01 2965.97 1450.43 Q2969.05 1445.82 2974.86 1445.82 Z" fill="#000000" fill-rule="nonzero" fill-opacity="1" /><path clip-path="url(#clip080)" d="M3005.6 1461.86 Q3002.45 1461.86 3000.6 1464.01 Q2998.77 1466.17 2998.77 1469.92 Q2998.77 1473.64 3000.6 1475.82 Q3002.45 1477.97 3005.6 1477.97 Q3008.75 1477.97 3010.58 1475.82 Q3012.43 1473.64 3012.43 1469.92 Q3012.43 1466.17 3010.58 1464.01 Q3008.75 1461.86 3005.6 1461.86 M3014.89 1447.21 L3014.89 1451.47 Q3013.13 1450.63 3011.32 1450.19 Q3009.54 1449.75 3007.78 1449.75 Q3003.15 1449.75 3000.7 1452.88 Q2998.26 1456 2997.92 1462.32 Q2999.28 1460.31 3001.34 1459.24 Q3003.4 1458.16 3005.88 1458.16 Q3011.09 1458.16 3014.1 1461.33 Q3017.13 1464.48 3017.13 1469.92 Q3017.13 1475.24 3013.98 1478.46 Q3010.83 1481.68 3005.6 1481.68 Q2999.61 1481.68 2996.44 1477.09 Q2993.26 1472.49 2993.26 1463.76 Q2993.26 1455.56 2997.15 1450.7 Q3001.04 1445.82 3007.59 1445.82 Q3009.35 1445.82 3011.14 1446.17 Q3012.94 1446.51 3014.89 1447.21 Z" fill="#000000" fill-rule="nonzero" fill-opacity="1" /><path clip-path="url(#clip080)" d="M3022.43 1466.12 L3034.91 1466.12 L3034.91 1469.92 L3022.43 1469.92 L3022.43 1466.12 Z" fill="#000000" fill-rule="nonzero" fill-opacity="1" /><path clip-path="url(#clip080)" d="M3052.29 1449.52 Q3048.68 1449.52 3046.85 1453.09 Q3045.05 1456.63 3045.05 1463.76 Q3045.05 1470.86 3046.85 1474.43 Q3048.68 1477.97 3052.29 1477.97 Q3055.93 1477.97 3057.73 1474.43 Q3059.56 1470.86 3059.56 1463.76 Q3059.56 1456.63 3057.73 1453.09 Q3055.93 1449.52 3052.29 1449.52 M3052.29 1445.82 Q3058.1 1445.82 3061.16 1450.43 Q3064.24 1455.01 3064.24 1463.76 Q3064.24 1472.49 3061.16 1477.09 Q3058.1 1481.68 3052.29 1481.68 Q3046.48 1481.68 3043.4 1477.09 Q3040.35 1472.49 3040.35 1463.76 Q3040.35 1455.01 3043.4 1450.43 Q3046.48 1445.82 3052.29 1445.82 Z" fill="#000000" fill-rule="nonzero" fill-opacity="1" /><path clip-path="url(#clip080)" d="M3073.26 1477.07 L3080.9 1477.07 L3080.9 1450.7 L3072.59 1452.37 L3072.59 1448.11 L3080.86 1446.44 L3085.53 1446.44 L3085.53 1477.07 L3093.17 1477.07 L3093.17 1481 L3073.26 1481 L3073.26 1477.07 Z" fill="#000000" fill-rule="nonzero" fill-opacity="1" /><path clip-path="url(#clip080)" d="M1631.63 1526.83 L1631.63 1563.78 L1639.4 1563.78 Q1649.23 1563.78 1653.78 1559.33 Q1658.37 1554.87 1658.37 1545.26 Q1658.37 1535.71 1653.78 1531.29 Q1649.23 1526.83 1639.4 1526.83 L1631.63 1526.83 M1625.2 1521.55 L1638.41 1521.55 Q1652.22 1521.55 1658.68 1527.31 Q1665.15 1533.04 1665.15 1545.26 Q1665.15 1557.55 1658.65 1563.31 Q1652.16 1569.07 1638.41 1569.07 L1625.2 1569.07 L1625.2 1521.55 Z" fill="#000000" fill-rule="nonzero" fill-opacity="1" /><path clip-path="url(#clip080)" d="M1691.34 1551.15 Q1684.24 1551.15 1681.51 1552.77 Q1678.77 1554.39 1678.77 1558.31 Q1678.77 1561.43 1680.8 1563.27 Q1682.87 1565.09 1686.41 1565.09 Q1691.28 1565.09 1694.2 1561.65 Q1697.16 1558.18 1697.16 1552.45 L1697.16 1551.15 L1691.34 1551.15 M1703.02 1548.73 L1703.02 1569.07 L1697.16 1569.07 L1697.16 1563.66 Q1695.16 1566.9 1692.17 1568.46 Q1689.18 1569.99 1684.85 1569.99 Q1679.37 1569.99 1676.13 1566.94 Q1672.91 1563.85 1672.91 1558.69 Q1672.91 1552.68 1676.92 1549.62 Q1680.96 1546.57 1688.95 1546.57 L1697.16 1546.57 L1697.16 1545.99 Q1697.16 1541.95 1694.49 1539.75 Q1691.85 1537.53 1687.04 1537.53 Q1683.99 1537.53 1681.09 1538.26 Q1678.19 1538.99 1675.52 1540.45 L1675.52 1535.04 Q1678.74 1533.8 1681.76 1533.2 Q1684.78 1532.56 1687.65 1532.56 Q1695.38 1532.56 1699.2 1536.57 Q1703.02 1540.58 1703.02 1548.73 Z" fill="#000000" fill-rule="nonzero" fill-opacity="1" /><path clip-path="url(#clip080)" d="M1720.88 1523.3 L1720.88 1533.42 L1732.94 1533.42 L1732.94 1537.97 L1720.88 1537.97 L1720.88 1557.32 Q1720.88 1561.68 1722.05 1562.92 Q1723.26 1564.17 1726.92 1564.17 L1732.94 1564.17 L1732.94 1569.07 L1726.92 1569.07 Q1720.14 1569.07 1717.57 1566.55 Q1714.99 1564.01 1714.99 1557.32 L1714.99 1537.97 L1710.69 1537.97 L1710.69 1533.42 L1714.99 1533.42 L1714.99 1523.3 L1720.88 1523.3 Z" fill="#000000" fill-rule="nonzero" fill-opacity="1" /><path clip-path="url(#clip080)" d="M1771.13 1549.78 L1771.13 1552.64 L1744.21 1552.64 Q1744.59 1558.69 1747.84 1561.87 Q1751.11 1565.03 1756.94 1565.03 Q1760.31 1565.03 1763.46 1564.2 Q1766.65 1563.37 1769.77 1561.72 L1769.77 1567.25 Q1766.61 1568.59 1763.3 1569.29 Q1759.99 1569.99 1756.59 1569.99 Q1748.06 1569.99 1743.06 1565.03 Q1738.1 1560.06 1738.1 1551.59 Q1738.1 1542.84 1742.81 1537.72 Q1747.55 1532.56 1755.57 1532.56 Q1762.76 1532.56 1766.93 1537.21 Q1771.13 1541.82 1771.13 1549.78 M1765.28 1548.06 Q1765.21 1543.25 1762.57 1540.39 Q1759.96 1537.53 1755.63 1537.53 Q1750.73 1537.53 1747.77 1540.29 Q1744.84 1543.06 1744.4 1548.09 L1765.28 1548.06 Z" fill="#000000" fill-rule="nonzero" fill-opacity="1" /><polyline clip-path="url(#clip082)" style="stroke:#000000; stroke-linecap:round; stroke-linejoin:round; stroke-width:2; stroke-opacity:0.1; fill:none" points="275.075,1377.93 3121.26,1377.93 "/>
<polyline clip-path="url(#clip082)" style="stroke:#000000; stroke-linecap:round; stroke-linejoin:round; stroke-width:2; stroke-opacity:0.1; fill:none" points="275.075,1057.96 3121.26,1057.96 "/>
<polyline clip-path="url(#clip082)" style="stroke:#000000; stroke-linecap:round; stroke-linejoin:round; stroke-width:2; stroke-opacity:0.1; fill:none" points="275.075,737.981 3121.26,737.981 "/>
<polyline clip-path="url(#clip082)" style="stroke:#000000; stroke-linecap:round; stroke-linejoin:round; stroke-width:2; stroke-opacity:0.1; fill:none" points="275.075,418.008 3121.26,418.008 "/>
<polyline clip-path="url(#clip082)" style="stroke:#000000; stroke-linecap:round; stroke-linejoin:round; stroke-width:2; stroke-opacity:0.1; fill:none" points="275.075,98.0341 3121.26,98.0341 "/>
<polyline clip-path="url(#clip080)" style="stroke:#000000; stroke-linecap:round; stroke-linejoin:round; stroke-width:4; stroke-opacity:1; fill:none" points="275.075,1412.2 275.075,78.7402 "/>
<polyline clip-path="url(#clip080)" style="stroke:#000000; stroke-linecap:round; stroke-linejoin:round; stroke-width:4; stroke-opacity:1; fill:none" points="275.075,1377.93 293.972,1377.93 "/>
<polyline clip-path="url(#clip080)" style="stroke:#000000; stroke-linecap:round; stroke-linejoin:round; stroke-width:4; stroke-opacity:1; fill:none" points="275.075,1057.96 293.972,1057.96 "/>
<polyline clip-path="url(#clip080)" style="stroke:#000000; stroke-linecap:round; stroke-linejoin:round; stroke-width:4; stroke-opacity:1; fill:none" points="275.075,737.981 293.972,737.981 "/>
<polyline clip-path="url(#clip080)" style="stroke:#000000; stroke-linecap:round; stroke-linejoin:round; stroke-width:4; stroke-opacity:1; fill:none" points="275.075,418.008 293.972,418.008 "/>
<polyline clip-path="url(#clip080)" style="stroke:#000000; stroke-linecap:round; stroke-linejoin:round; stroke-width:4; stroke-opacity:1; fill:none" points="275.075,98.0341 293.972,98.0341 "/>
<path clip-path="url(#clip080)" d="M169.899 1363.73 Q166.288 1363.73 164.459 1367.29 Q162.654 1370.83 162.654 1377.96 Q162.654 1385.07 164.459 1388.63 Q166.288 1392.18 169.899 1392.18 Q173.533 1392.18 175.339 1388.63 Q177.168 1385.07 177.168 1377.96 Q177.168 1370.83 175.339 1367.29 Q173.533 1363.73 169.899 1363.73 M169.899 1360.02 Q175.709 1360.02 178.765 1364.63 Q181.844 1369.21 181.844 1377.96 Q181.844 1386.69 178.765 1391.3 Q175.709 1395.88 169.899 1395.88 Q164.089 1395.88 161.01 1391.3 Q157.955 1386.69 157.955 1377.96 Q157.955 1369.21 161.01 1364.63 Q164.089 1360.02 169.899 1360.02 Z" fill="#000000" fill-rule="nonzero" fill-opacity="1" /><path clip-path="url(#clip080)" d="M190.061 1389.33 L194.945 1389.33 L194.945 1395.21 L190.061 1395.21 L190.061 1389.33 Z" fill="#000000" fill-rule="nonzero" fill-opacity="1" /><path clip-path="url(#clip080)" d="M215.13 1363.73 Q211.519 1363.73 209.691 1367.29 Q207.885 1370.83 207.885 1377.96 Q207.885 1385.07 209.691 1388.63 Q211.519 1392.18 215.13 1392.18 Q218.765 1392.18 220.57 1388.63 Q222.399 1385.07 222.399 1377.96 Q222.399 1370.83 220.57 1367.29 Q218.765 1363.73 215.13 1363.73 M215.13 1360.02 Q220.941 1360.02 223.996 1364.63 Q227.075 1369.21 227.075 1377.96 Q227.075 1386.69 223.996 1391.3 Q220.941 1395.88 215.13 1395.88 Q209.32 1395.88 206.242 1391.3 Q203.186 1386.69 203.186 1377.96 Q203.186 1369.21 206.242 1364.63 Q209.32 1360.02 215.13 1360.02 Z" fill="#000000" fill-rule="nonzero" fill-opacity="1" /><path clip-path="url(#clip080)" d="M164.922 1071.3 L181.242 1071.3 L181.242 1075.24 L159.297 1075.24 L159.297 1071.3 Q161.959 1068.55 166.543 1063.92 Q171.149 1059.26 172.33 1057.92 Q174.575 1055.4 175.455 1053.66 Q176.357 1051.9 176.357 1050.21 Q176.357 1047.46 174.413 1045.72 Q172.492 1043.99 169.39 1043.99 Q167.191 1043.99 164.737 1044.75 Q162.307 1045.51 159.529 1047.06 L159.529 1042.34 Q162.353 1041.21 164.807 1040.63 Q167.26 1040.05 169.297 1040.05 Q174.668 1040.05 177.862 1042.74 Q181.057 1045.42 181.057 1049.91 Q181.057 1052.04 180.246 1053.96 Q179.459 1055.86 177.353 1058.45 Q176.774 1059.12 173.672 1062.34 Q170.57 1065.54 164.922 1071.3 Z" fill="#000000" fill-rule="nonzero" fill-opacity="1" /><path clip-path="url(#clip080)" d="M191.056 1069.36 L195.941 1069.36 L195.941 1075.24 L191.056 1075.24 L191.056 1069.36 Z" fill="#000000" fill-rule="nonzero" fill-opacity="1" /><path clip-path="url(#clip080)" d="M206.172 1040.68 L224.528 1040.68 L224.528 1044.61 L210.454 1044.61 L210.454 1053.08 Q211.473 1052.74 212.492 1052.57 Q213.51 1052.39 214.529 1052.39 Q220.316 1052.39 223.695 1055.56 Q227.075 1058.73 227.075 1064.15 Q227.075 1069.73 223.603 1072.83 Q220.13 1075.91 213.811 1075.91 Q211.635 1075.91 209.367 1075.54 Q207.121 1075.17 204.714 1074.42 L204.714 1069.73 Q206.797 1070.86 209.019 1071.42 Q211.242 1071.97 213.718 1071.97 Q217.723 1071.97 220.061 1069.86 Q222.399 1067.76 222.399 1064.15 Q222.399 1060.54 220.061 1058.43 Q217.723 1056.32 213.718 1056.32 Q211.843 1056.32 209.968 1056.74 Q208.117 1057.16 206.172 1058.04 L206.172 1040.68 Z" fill="#000000" fill-rule="nonzero" fill-opacity="1" /><path clip-path="url(#clip080)" d="M159.946 720.701 L178.302 720.701 L178.302 724.637 L164.228 724.637 L164.228 733.109 Q165.246 732.762 166.265 732.6 Q167.283 732.414 168.302 732.414 Q174.089 732.414 177.469 735.586 Q180.848 738.757 180.848 744.174 Q180.848 749.752 177.376 752.854 Q173.904 755.933 167.584 755.933 Q165.408 755.933 163.14 755.562 Q160.895 755.192 158.487 754.451 L158.487 749.752 Q160.571 750.887 162.793 751.442 Q165.015 751.998 167.492 751.998 Q171.496 751.998 173.834 749.891 Q176.172 747.785 176.172 744.174 Q176.172 740.562 173.834 738.456 Q171.496 736.35 167.492 736.35 Q165.617 736.35 163.742 736.766 Q161.89 737.183 159.946 738.062 L159.946 720.701 Z" fill="#000000" fill-rule="nonzero" fill-opacity="1" /><path clip-path="url(#clip080)" d="M190.061 749.382 L194.945 749.382 L194.945 755.261 L190.061 755.261 L190.061 749.382 Z" fill="#000000" fill-rule="nonzero" fill-opacity="1" /><path clip-path="url(#clip080)" d="M215.13 723.78 Q211.519 723.78 209.691 727.345 Q207.885 730.887 207.885 738.016 Q207.885 745.123 209.691 748.687 Q211.519 752.229 215.13 752.229 Q218.765 752.229 220.57 748.687 Q222.399 745.123 222.399 738.016 Q222.399 730.887 220.57 727.345 Q218.765 723.78 215.13 723.78 M215.13 720.076 Q220.941 720.076 223.996 724.683 Q227.075 729.266 227.075 738.016 Q227.075 746.743 223.996 751.349 Q220.941 755.933 215.13 755.933 Q209.32 755.933 206.242 751.349 Q203.186 746.743 203.186 738.016 Q203.186 729.266 206.242 724.683 Q209.32 720.076 215.13 720.076 Z" fill="#000000" fill-rule="nonzero" fill-opacity="1" /><path clip-path="url(#clip080)" d="M159.714 400.728 L181.936 400.728 L181.936 402.719 L169.39 435.288 L164.506 435.288 L176.311 404.663 L159.714 404.663 L159.714 400.728 Z" fill="#000000" fill-rule="nonzero" fill-opacity="1" /><path clip-path="url(#clip080)" d="M191.056 429.408 L195.941 429.408 L195.941 435.288 L191.056 435.288 L191.056 429.408 Z" fill="#000000" fill-rule="nonzero" fill-opacity="1" /><path clip-path="url(#clip080)" d="M206.172 400.728 L224.528 400.728 L224.528 404.663 L210.454 404.663 L210.454 413.135 Q211.473 412.788 212.492 412.626 Q213.51 412.441 214.529 412.441 Q220.316 412.441 223.695 415.612 Q227.075 418.783 227.075 424.2 Q227.075 429.779 223.603 432.88 Q220.13 435.959 213.811 435.959 Q211.635 435.959 209.367 435.589 Q207.121 435.218 204.714 434.478 L204.714 429.779 Q206.797 430.913 209.019 431.468 Q211.242 432.024 213.718 432.024 Q217.723 432.024 220.061 429.917 Q222.399 427.811 222.399 424.2 Q222.399 420.589 220.061 418.482 Q217.723 416.376 213.718 416.376 Q211.843 416.376 209.968 416.793 Q208.117 417.209 206.172 418.089 L206.172 400.728 Z" fill="#000000" fill-rule="nonzero" fill-opacity="1" /><path clip-path="url(#clip080)" d="M130.548 111.379 L138.186 111.379 L138.186 85.0133 L129.876 86.68 L129.876 82.4208 L138.14 80.7541 L142.816 80.7541 L142.816 111.379 L150.455 111.379 L150.455 115.314 L130.548 115.314 L130.548 111.379 Z" fill="#000000" fill-rule="nonzero" fill-opacity="1" /><path clip-path="url(#clip080)" d="M169.899 83.8328 Q166.288 83.8328 164.459 87.3976 Q162.654 90.9392 162.654 98.0688 Q162.654 105.175 164.459 108.74 Q166.288 112.282 169.899 112.282 Q173.533 112.282 175.339 108.74 Q177.168 105.175 177.168 98.0688 Q177.168 90.9392 175.339 87.3976 Q173.533 83.8328 169.899 83.8328 M169.899 80.1291 Q175.709 80.1291 178.765 84.7356 Q181.844 89.3189 181.844 98.0688 Q181.844 106.796 178.765 111.402 Q175.709 115.985 169.899 115.985 Q164.089 115.985 161.01 111.402 Q157.955 106.796 157.955 98.0688 Q157.955 89.3189 161.01 84.7356 Q164.089 80.1291 169.899 80.1291 Z" fill="#000000" fill-rule="nonzero" fill-opacity="1" /><path clip-path="url(#clip080)" d="M190.061 109.434 L194.945 109.434 L194.945 115.314 L190.061 115.314 L190.061 109.434 Z" fill="#000000" fill-rule="nonzero" fill-opacity="1" /><path clip-path="url(#clip080)" d="M215.13 83.8328 Q211.519 83.8328 209.691 87.3976 Q207.885 90.9392 207.885 98.0688 Q207.885 105.175 209.691 108.74 Q211.519 112.282 215.13 112.282 Q218.765 112.282 220.57 108.74 Q222.399 105.175 222.399 98.0688 Q222.399 90.9392 220.57 87.3976 Q218.765 83.8328 215.13 83.8328 M215.13 80.1291 Q220.941 80.1291 223.996 84.7356 Q227.075 89.3189 227.075 98.0688 Q227.075 106.796 223.996 111.402 Q220.941 115.985 215.13 115.985 Q209.32 115.985 206.242 111.402 Q203.186 106.796 203.186 98.0688 Q203.186 89.3189 206.242 84.7356 Q209.32 80.1291 215.13 80.1291 Z" fill="#000000" fill-rule="nonzero" fill-opacity="1" /><path clip-path="url(#clip080)" d="M45.3402 1073.54 Q46.0405 1071.48 48.3321 1069.53 Q50.6238 1067.56 54.6342 1065.59 L67.6202 1059.06 L67.6202 1065.97 L55.4299 1072.05 Q50.6556 1074.4 49.096 1076.63 Q47.5364 1078.83 47.5364 1082.65 L47.5364 1089.65 L67.6202 1089.65 L67.6202 1096.08 L20.1002 1096.08 L20.1002 1081.57 Q20.1002 1073.42 23.5059 1069.41 Q26.9115 1065.4 33.7865 1065.4 Q38.2743 1065.4 41.2344 1067.5 Q44.1944 1069.57 45.3402 1073.54 M25.3838 1089.65 L42.2529 1089.65 L42.2529 1081.57 Q42.2529 1076.92 40.1204 1074.56 Q37.956 1072.18 33.7865 1072.18 Q29.617 1072.18 27.5163 1074.56 Q25.3838 1076.92 25.3838 1081.57 L25.3838 1089.65 Z" fill="#000000" fill-rule="nonzero" fill-opacity="1" /><path clip-path="url(#clip080)" d="M48.3321 1023.48 L51.1967 1023.48 L51.1967 1050.41 Q57.2441 1050.02 60.427 1046.78 Q63.578 1043.5 63.578 1037.67 Q63.578 1034.3 62.7505 1031.15 Q61.9229 1027.97 60.2678 1024.85 L65.806 1024.85 Q67.1428 1028 67.843 1031.31 Q68.5432 1034.62 68.5432 1038.02 Q68.5432 1046.55 63.578 1051.55 Q58.6127 1056.52 50.1464 1056.52 Q41.3935 1056.52 36.2691 1051.81 Q31.1129 1047.06 31.1129 1039.04 Q31.1129 1031.85 35.7599 1027.68 Q40.375 1023.48 48.3321 1023.48 M46.6134 1029.33 Q41.8073 1029.4 38.9427 1032.04 Q36.0781 1034.65 36.0781 1038.98 Q36.0781 1043.88 38.8472 1046.84 Q41.6163 1049.77 46.6452 1050.21 L46.6134 1029.33 Z" fill="#000000" fill-rule="nonzero" fill-opacity="1" /><path clip-path="url(#clip080)" d="M62.273 1008.2 L81.1792 1008.2 L81.1792 1014.09 L31.9723 1014.09 L31.9723 1008.2 L37.3831 1008.2 Q34.2003 1006.35 32.6725 1003.55 Q31.1129 1000.72 31.1129 996.806 Q31.1129 990.313 36.2691 986.271 Q41.4253 982.197 49.8281 982.197 Q58.2308 982.197 63.387 986.271 Q68.5432 990.313 68.5432 996.806 Q68.5432 1000.72 67.0155 1003.55 Q65.4559 1006.35 62.273 1008.2 M49.8281 988.276 Q43.3669 988.276 39.7066 990.95 Q36.0145 993.591 36.0145 998.238 Q36.0145 1002.89 39.7066 1005.56 Q43.3669 1008.2 49.8281 1008.2 Q56.2893 1008.2 59.9814 1005.56 Q63.6417 1002.89 63.6417 998.238 Q63.6417 993.591 59.9814 990.95 Q56.2893 988.276 49.8281 988.276 Z" fill="#000000" fill-rule="nonzero" fill-opacity="1" /><path clip-path="url(#clip080)" d="M37.4468 951.832 Q36.8739 952.819 36.6192 953.997 Q36.3328 955.142 36.3328 956.543 Q36.3328 961.508 39.5793 964.182 Q42.794 966.824 48.8414 966.824 L67.6202 966.824 L67.6202 972.712 L31.9723 972.712 L31.9723 966.824 L37.5104 966.824 Q34.2639 964.977 32.7043 962.017 Q31.1129 959.057 31.1129 954.824 Q31.1129 954.219 31.2084 953.487 Q31.272 952.755 31.4312 951.864 L37.4468 951.832 Z" fill="#000000" fill-rule="nonzero" fill-opacity="1" /><path clip-path="url(#clip080)" d="M36.0781 933.308 Q36.0781 938.019 39.7703 940.756 Q43.4305 943.493 49.8281 943.493 Q56.2256 943.493 59.9177 940.788 Q63.578 938.051 63.578 933.308 Q63.578 928.629 59.8859 925.892 Q56.1938 923.155 49.8281 923.155 Q43.4942 923.155 39.8021 925.892 Q36.0781 928.629 36.0781 933.308 M31.1129 933.308 Q31.1129 925.669 36.0781 921.309 Q41.0434 916.948 49.8281 916.948 Q58.5809 916.948 63.578 921.309 Q68.5432 925.669 68.5432 933.308 Q68.5432 940.979 63.578 945.339 Q58.5809 949.668 49.8281 949.668 Q41.0434 949.668 36.0781 945.339 Q31.1129 940.979 31.1129 933.308 Z" fill="#000000" fill-rule="nonzero" fill-opacity="1" /><path clip-path="url(#clip080)" d="M37.3831 883.783 L18.095 883.783 L18.095 877.926 L67.6202 877.926 L67.6202 883.783 L62.273 883.783 Q65.4559 885.629 67.0155 888.462 Q68.5432 891.263 68.5432 895.209 Q68.5432 901.67 63.387 905.745 Q58.2308 909.787 49.8281 909.787 Q41.4253 909.787 36.2691 905.745 Q31.1129 901.67 31.1129 895.209 Q31.1129 891.263 32.6725 888.462 Q34.2003 885.629 37.3831 883.783 M49.8281 903.739 Q56.2893 903.739 59.9814 901.098 Q63.6417 898.424 63.6417 893.777 Q63.6417 889.13 59.9814 886.456 Q56.2893 883.783 49.8281 883.783 Q43.3669 883.783 39.7066 886.456 Q36.0145 889.13 36.0145 893.777 Q36.0145 898.424 39.7066 901.098 Q43.3669 903.739 49.8281 903.739 Z" fill="#000000" fill-rule="nonzero" fill-opacity="1" /><path clip-path="url(#clip080)" d="M53.552 866.468 L31.9723 866.468 L31.9723 860.612 L53.3292 860.612 Q58.3899 860.612 60.9362 858.638 Q63.4507 856.665 63.4507 852.718 Q63.4507 847.976 60.427 845.239 Q57.4033 842.469 52.1834 842.469 L31.9723 842.469 L31.9723 836.613 L67.6202 836.613 L67.6202 842.469 L62.1457 842.469 Q65.3922 844.602 66.9836 847.435 Q68.5432 850.236 68.5432 853.96 Q68.5432 860.102 64.7238 863.285 Q60.9044 866.468 53.552 866.468 M31.1129 851.732 L31.1129 851.732 Z" fill="#000000" fill-rule="nonzero" fill-opacity="1" /><path clip-path="url(#clip080)" d="M33.3409 798.896 L38.8154 798.896 Q37.4468 801.379 36.7784 803.893 Q36.0781 806.376 36.0781 808.922 Q36.0781 814.619 39.7066 817.77 Q43.3032 820.922 49.8281 820.922 Q56.3529 820.922 59.9814 817.77 Q63.578 814.619 63.578 808.922 Q63.578 806.376 62.9096 803.893 Q62.2094 801.379 60.8407 798.896 L66.2516 798.896 Q67.3974 801.347 67.9703 803.989 Q68.5432 806.599 68.5432 809.559 Q68.5432 817.611 63.4825 822.354 Q58.4218 827.096 49.8281 827.096 Q41.1071 827.096 36.11 822.322 Q31.1129 817.516 31.1129 809.177 Q31.1129 806.471 31.6858 803.893 Q32.2269 801.315 33.3409 798.896 Z" fill="#000000" fill-rule="nonzero" fill-opacity="1" /><path clip-path="url(#clip080)" d="M21.8508 782.918 L31.9723 782.918 L31.9723 770.855 L36.5237 770.855 L36.5237 782.918 L55.8755 782.918 Q60.236 782.918 61.4773 781.741 Q62.7186 780.531 62.7186 776.871 L62.7186 770.855 L67.6202 770.855 L67.6202 776.871 Q67.6202 783.65 65.1058 786.228 Q62.5595 788.807 55.8755 788.807 L36.5237 788.807 L36.5237 793.103 L31.9723 793.103 L31.9723 788.807 L21.8508 788.807 L21.8508 782.918 Z" fill="#000000" fill-rule="nonzero" fill-opacity="1" /><path clip-path="url(#clip080)" d="M31.9723 763.153 L31.9723 757.296 L67.6202 757.296 L67.6202 763.153 L31.9723 763.153 M18.095 763.153 L18.095 757.296 L25.5111 757.296 L25.5111 763.153 L18.095 763.153 Z" fill="#000000" fill-rule="nonzero" fill-opacity="1" /><path clip-path="url(#clip080)" d="M36.0781 731.229 Q36.0781 735.939 39.7703 738.677 Q43.4305 741.414 49.8281 741.414 Q56.2256 741.414 59.9177 738.708 Q63.578 735.971 63.578 731.229 Q63.578 726.55 59.8859 723.813 Q56.1938 721.075 49.8281 721.075 Q43.4942 721.075 39.8021 723.813 Q36.0781 726.55 36.0781 731.229 M31.1129 731.229 Q31.1129 723.59 36.0781 719.229 Q41.0434 714.869 49.8281 714.869 Q58.5809 714.869 63.578 719.229 Q68.5432 723.59 68.5432 731.229 Q68.5432 738.899 63.578 743.26 Q58.5809 747.589 49.8281 747.589 Q41.0434 747.589 36.0781 743.26 Q31.1129 738.899 31.1129 731.229 Z" fill="#000000" fill-rule="nonzero" fill-opacity="1" /><path clip-path="url(#clip080)" d="M46.1041 675.529 L67.6202 675.529 L67.6202 681.385 L46.2951 681.385 Q41.2344 681.385 38.7199 683.359 Q36.2055 685.332 36.2055 689.279 Q36.2055 694.021 39.2292 696.758 Q42.2529 699.496 47.4728 699.496 L67.6202 699.496 L67.6202 705.384 L31.9723 705.384 L31.9723 699.496 L37.5104 699.496 Q34.2957 697.395 32.7043 694.562 Q31.1129 691.698 31.1129 687.974 Q31.1129 681.831 34.9323 678.68 Q38.7199 675.529 46.1041 675.529 Z" fill="#000000" fill-rule="nonzero" fill-opacity="1" /><path clip-path="url(#clip080)" d="M46.1041 613.495 L67.6202 613.495 L67.6202 619.351 L46.2951 619.351 Q41.2344 619.351 38.7199 621.325 Q36.2055 623.298 36.2055 627.245 Q36.2055 631.987 39.2292 634.725 Q42.2529 637.462 47.4728 637.462 L67.6202 637.462 L67.6202 643.35 L31.9723 643.35 L31.9723 637.462 L37.5104 637.462 Q34.2957 635.361 32.7043 632.528 Q31.1129 629.664 31.1129 625.94 Q31.1129 619.797 34.9323 616.646 Q38.7199 613.495 46.1041 613.495 Z" fill="#000000" fill-rule="nonzero" fill-opacity="1" /><path clip-path="url(#clip080)" d="M53.552 602.419 L31.9723 602.419 L31.9723 596.562 L53.3292 596.562 Q58.3899 596.562 60.9362 594.589 Q63.4507 592.615 63.4507 588.669 Q63.4507 583.926 60.427 581.189 Q57.4033 578.42 52.1834 578.42 L31.9723 578.42 L31.9723 572.563 L67.6202 572.563 L67.6202 578.42 L62.1457 578.42 Q65.3922 580.552 66.9836 583.385 Q68.5432 586.186 68.5432 589.91 Q68.5432 596.053 64.7238 599.236 Q60.9044 602.419 53.552 602.419 M31.1129 587.682 L31.1129 587.682 Z" fill="#000000" fill-rule="nonzero" fill-opacity="1" /><path clip-path="url(#clip080)" d="M38.8154 532.746 Q34.8687 530.55 32.9908 527.494 Q31.1129 524.439 31.1129 520.301 Q31.1129 514.731 35.0278 511.707 Q38.9109 508.684 46.1041 508.684 L67.6202 508.684 L67.6202 514.572 L46.2951 514.572 Q41.1707 514.572 38.6881 516.386 Q36.2055 518.2 36.2055 521.924 Q36.2055 526.476 39.2292 529.118 Q42.2529 531.759 47.4728 531.759 L67.6202 531.759 L67.6202 537.648 L46.2951 537.648 Q41.1389 537.648 38.6881 539.462 Q36.2055 541.276 36.2055 545.064 Q36.2055 549.551 39.261 552.193 Q42.2847 554.835 47.4728 554.835 L67.6202 554.835 L67.6202 560.723 L31.9723 560.723 L31.9723 554.835 L37.5104 554.835 Q34.2321 552.83 32.6725 550.029 Q31.1129 547.228 31.1129 543.377 Q31.1129 539.494 33.0863 536.788 Q35.0596 534.051 38.8154 532.746 Z" fill="#000000" fill-rule="nonzero" fill-opacity="1" /><path clip-path="url(#clip080)" d="M49.8281 471.412 Q43.3669 471.412 39.7066 474.086 Q36.0145 476.728 36.0145 481.375 Q36.0145 486.022 39.7066 488.695 Q43.3669 491.337 49.8281 491.337 Q56.2893 491.337 59.9814 488.695 Q63.6417 486.022 63.6417 481.375 Q63.6417 476.728 59.9814 474.086 Q56.2893 471.412 49.8281 471.412 M37.3831 491.337 Q34.2003 489.491 32.6725 486.69 Q31.1129 483.857 31.1129 479.942 Q31.1129 473.449 36.2691 469.407 Q41.4253 465.333 49.8281 465.333 Q58.2308 465.333 63.387 469.407 Q68.5432 473.449 68.5432 479.942 Q68.5432 483.857 67.0155 486.69 Q65.4559 489.491 62.273 491.337 L67.6202 491.337 L67.6202 497.225 L18.095 497.225 L18.095 491.337 L37.3831 491.337 Z" fill="#000000" fill-rule="nonzero" fill-opacity="1" /><path clip-path="url(#clip080)" d="M48.3321 425.134 L51.1967 425.134 L51.1967 452.061 Q57.2441 451.679 60.427 448.432 Q63.578 445.154 63.578 439.329 Q63.578 435.955 62.7505 432.804 Q61.9229 429.622 60.2678 426.502 L65.806 426.502 Q67.1428 429.653 67.843 432.964 Q68.5432 436.274 68.5432 439.679 Q68.5432 448.209 63.578 453.206 Q58.6127 458.172 50.1464 458.172 Q41.3935 458.172 36.2691 453.461 Q31.1129 448.719 31.1129 440.698 Q31.1129 433.505 35.7599 429.335 Q40.375 425.134 48.3321 425.134 M46.6134 430.99 Q41.8073 431.054 38.9427 433.696 Q36.0781 436.306 36.0781 440.634 Q36.0781 445.536 38.8472 448.496 Q41.6163 451.424 46.6452 451.87 L46.6134 430.99 Z" fill="#000000" fill-rule="nonzero" fill-opacity="1" /><path clip-path="url(#clip080)" d="M37.4468 394.865 Q36.8739 395.851 36.6192 397.029 Q36.3328 398.175 36.3328 399.575 Q36.3328 404.541 39.5793 407.214 Q42.794 409.856 48.8414 409.856 L67.6202 409.856 L67.6202 415.744 L31.9723 415.744 L31.9723 409.856 L37.5104 409.856 Q34.2639 408.01 32.7043 405.05 Q31.1129 402.09 31.1129 397.857 Q31.1129 397.252 31.2084 396.52 Q31.272 395.788 31.4312 394.897 L37.4468 394.865 Z" fill="#000000" fill-rule="nonzero" fill-opacity="1" /><path clip-path="url(#clip082)" d="M355.627 1266.86 L382.749 1279.89 L409.871 1281.23 L436.993 1281.88 L464.115 1270.62 L491.237 1245.19 L518.359 1276.16 L545.481 1270.34 L572.603 1259.57 L599.725 1247.06 L626.847 1268.91 L653.969 1251.18 L681.091 1214.14 L708.213 1254.52 L735.336 1242.43 L762.458 1179.21 L789.58 1134.48 L816.702 1118.97 L843.824 1040.66 L870.946 984.462 L898.068 907.219 L925.19 933.535 L952.312 926.594 L979.434 997.347 L1006.56 936.029 L1033.68 869.706 L1060.8 918.827 L1087.92 955.645 L1115.04 947.3 L1142.17 1069.95 L1169.29 1140.69 L1196.41 1191.22 L1223.53 1230.73 L1250.65 1256.29 L1277.78 1234.98 L1304.9 1240.38 L1332.02 1241.29 L1359.14 1251 L1386.26 1260.78 L1413.39 1277.42 L1440.51 1301.27 L1467.63 1317.84 L1494.75 1326.22 L1521.87 1320.9 L1549 1328.73 L1576.12 1332.23 L1603.24 1340.13 L1630.36 1344.91 L1657.48 1343 L1684.61 1342.94 L1711.73 1339.71 L1738.85 1339.53 L1765.97 1345.61 L1793.09 1346.98 L1820.22 1349.47 L1847.34 1349.44 L1874.46 1346.81 L1901.58 1345.98 L1928.7 1345.77 L1955.83 1346.31 L1982.95 1347.06 L2010.07 1348.04 L2037.19 1351.97 L2064.31 1350.05 L2091.44 1348.21 L2118.56 1346.75 L2145.68 1350.12 L2172.8 1351.61 L2199.92 1353.05 L2227.05 1350.21 L2254.17 1350.35 L2281.29 1350.21 L2308.41 1351.48 L2335.53 1350.04 L2362.66 1349.69 L2389.78 1354.2 L2416.9 1356.93 L2444.02 1357.73 L2471.14 1359.22 L2498.27 1360.06 L2525.39 1360.42 L2552.51 1362.33 L2579.63 1363.73 L2606.76 1363.95 L2633.88 1364.91 L2661 1366.31 L2688.12 1365.78 L2715.24 1366.57 L2742.37 1368.09 L2769.49 1367.7 L2796.61 1368.57 L2823.73 1368.53 L2850.85 1369.01 L2877.98 1368.95 L2905.1 1369.5 L2932.22 1370.01 L2959.34 1370.06 L2986.46 1370.58 L3013.59 1371.34 L3040.71 1371.65 L3040.71 1204.58 L3013.59 1210.23 L2986.46 1218.93 L2959.34 1229.69 L2932.22 1235 L2905.1 1235.17 L2877.98 1250.75 L2850.85 1250.59 L2823.73 1257.63 L2796.61 1261.59 L2769.49 1266.12 L2742.37 1269.52 L2715.24 1272.47 L2688.12 1266.14 L2661 1275.69 L2633.88 1279.19 L2606.76 1285.19 L2579.63 1281.12 L2552.51 1283.02 L2525.39 1285.32 L2498.27 1280.8 L2471.14 1288.21 L2444.02 1279.23 L2416.9 1282.75 L2389.78 1279.04 L2362.66 1278.13 L2335.53 1286.1 L2308.41 1285.01 L2281.29 1278.38 L2254.17 1284.24 L2227.05 1293.21 L2199.92 1297.55 L2172.8 1294.65 L2145.68 1298.03 L2118.56 1286.83 L2091.44 1293.81 L2064.31 1299.27 L2037.19 1299.17 L2010.07 1304.22 L1982.95 1301.89 L1955.83 1299.67 L1928.7 1304.19 L1901.58 1308.12 L1874.46 1312.29 L1847.34 1312.91 L1820.22 1317.65 L1793.09 1310.79 L1765.97 1310.19 L1738.85 1308.86 L1711.73 1308.44 L1684.61 1316.03 L1657.48 1314.31 L1630.36 1324.36 L1603.24 1314.13 L1576.12 1305.85 L1549 1301.73 L1521.87 1286.51 L1494.75 1297.97 L1467.63 1285.57 L1440.51 1262.4 L1413.39 1233.29 L1386.26 1203.13 L1359.14 1200.37 L1332.02 1179.92 L1304.9 1179.47 L1277.78 1185.04 L1250.65 1201.25 L1223.53 1148.03 L1196.41 1106.66 L1169.29 1043.12 L1142.17 929.189 L1115.04 776.46 L1087.92 737.515 L1060.8 707.425 L1033.68 532.602 L1006.56 633.199 L979.434 575.992 L952.312 573.58 L925.19 476.388 L898.068 151.729 L870.946 162.072 L843.824 473.402 L816.702 541.896 L789.58 736.045 L762.458 701.927 L735.336 754.46 L708.213 900.735 L681.091 937.262 L653.969 884.435 L626.847 838.555 L599.725 839.713 L572.603 767.013 L545.481 752.767 L518.359 760.691 L491.237 825.544 L464.115 817.527 L436.993 720.059 L409.871 625.276 L382.749 507.212 L355.627 425.096  Z" fill="#ff8c00" fill-rule="evenodd" fill-opacity="0.5"/>
<polyline clip-path="url(#clip082)" style="stroke:#ff8c00; stroke-linecap:round; stroke-linejoin:round; stroke-width:4; stroke-opacity:1; fill:none" points="355.627,966.737 382.749,972.337 409.871,993.225 436.993,999.431 464.115,1022.2 491.237,1036.54 518.359,1034.08 545.481,1045.71 572.603,1064.86 599.725,1089.52 626.847,1118.21 653.969,1114.34 681.091,1116.68 708.213,1099.19 735.336,1066.39 762.458,1016.38 789.58,975.222 816.702,906.004 843.824,818.761 870.946,652.562 898.068,605.611 925.19,742.175 952.312,760.272 979.434,839.938 1006.56,796.034 1033.68,723.78 1060.8,835.653 1087.92,864.165 1115.04,871.44 1142.17,1000.46 1169.29,1094.14 1196.41,1154.03 1223.53,1189.97 1250.65,1231.35 1277.78,1211.47 1304.9,1216.02 1332.02,1212.95 1359.14,1226.59 1386.26,1235.49 1413.39,1252.34 1440.51,1281.31 1467.63,1303.78 1494.75,1312.9 1521.87,1304.27 1549,1316.21 1576.12,1321.73 1603.24,1328.75 1630.36,1334.97 1657.48,1331.76 1684.61,1330.16 1711.73,1325.5 1738.85,1326.7 1765.97,1328.18 1793.09,1330.81 1820.22,1335.87 1847.34,1334.41 1874.46,1333.11 1901.58,1329.72 1928.7,1326.6 1955.83,1325.36 1982.95,1328.33 2010.07,1329.48 2037.19,1330.79 2064.31,1328.35 2091.44,1324.78 2118.56,1322.93 2145.68,1327.1 2172.8,1328.82 2199.92,1328.59 2227.05,1326.1 2254.17,1323.22 2281.29,1322.55 2308.41,1322.68 2335.53,1321.97 2362.66,1321.54 2389.78,1325.58 2416.9,1328.48 2444.02,1329.96 2471.14,1330.34 2498.27,1330.97 2525.39,1332.73 2552.51,1333.67 2579.63,1334.85 2606.76,1335.62 2633.88,1335.78 2661,1334.77 2688.12,1334.18 2715.24,1335.63 2742.37,1336.22 2769.49,1336.48 2796.61,1336.72 2823.73,1336.36 2850.85,1335.71 2877.98,1335.51 2905.1,1334.91 2932.22,1334.76 2959.34,1333.96 2986.46,1332.95 3013.59,1332.18 3040.71,1331.31 "/>
<polyline clip-path="url(#clip082)" style="stroke:#000000; stroke-linecap:round; stroke-linejoin:round; stroke-width:4; stroke-opacity:1; fill:none" stroke-dasharray="16, 10" points="-2571.11,1249.94 5967.44,1249.94 "/>
<path clip-path="url(#clip082)" d="M355.627 1259.1 L382.749 1274.22 L409.871 1268.38 L436.993 1257.88 L464.115 1271.35 L491.237 1247.08 L518.359 1241.05 L545.481 1229.27 L572.603 1239.58 L599.725 1257.33 L626.847 1271.6 L653.969 1290.21 L681.091 1291.57 L708.213 1281.9 L735.336 1260.19 L762.458 1239.06 L789.58 1191.14 L816.702 1149.74 L843.824 1073.09 L870.946 926.62 L898.068 867.219 L925.19 961.199 L952.312 934.333 L979.434 1007.38 L1006.56 951.814 L1033.68 869.809 L1060.8 959.387 L1087.92 968.56 L1115.04 958.57 L1142.17 1067.17 L1169.29 1146.43 L1196.41 1195.81 L1223.53 1221.08 L1250.65 1264.53 L1277.78 1242.46 L1304.9 1245.81 L1332.02 1243.27 L1359.14 1255.43 L1386.26 1261.57 L1413.39 1277.19 L1440.51 1300.51 L1467.63 1321.66 L1494.75 1330.29 L1521.87 1320.07 L1549 1331.06 L1576.12 1335.92 L1603.24 1343.1 L1630.36 1349.5 L1657.48 1345.55 L1684.61 1345.57 L1711.73 1340.52 L1738.85 1342.12 L1765.97 1344.65 L1793.09 1346.57 L1820.22 1352.93 L1847.34 1351.85 L1874.46 1350.46 L1901.58 1347.81 L1928.7 1345.62 L1955.83 1346.41 L1982.95 1349.3 L2010.07 1350.67 L2037.19 1352.94 L2064.31 1351.37 L2091.44 1348.38 L2118.56 1346.45 L2145.68 1352.24 L2172.8 1353.11 L2199.92 1353.81 L2227.05 1351.26 L2254.17 1349.96 L2281.29 1350.57 L2308.41 1350.41 L2335.53 1350.64 L2362.66 1351.63 L2389.78 1355.87 L2416.9 1358.32 L2444.02 1359.83 L2471.14 1360.2 L2498.27 1362.03 L2525.39 1363.85 L2552.51 1365.37 L2579.63 1366.5 L2606.76 1366.95 L2633.88 1367.94 L2661 1368.29 L2688.12 1368.47 L2715.24 1369.33 L2742.37 1370.25 L2769.49 1370.8 L2796.61 1371.3 L2823.73 1371.72 L2850.85 1372.28 L2877.98 1372.69 L2905.1 1373.03 L2932.22 1373.47 L2959.34 1373.8 L2986.46 1374.04 L3013.59 1374.27 L3040.71 1374.46 L3040.71 1191.56 L3013.59 1199.82 L2986.46 1210.75 L2959.34 1217.5 L2932.22 1230.26 L2905.1 1236.23 L2877.98 1245.34 L2850.85 1254.08 L2823.73 1257.35 L2796.61 1262.27 L2769.49 1264.87 L2742.37 1265.43 L2715.24 1264.11 L2688.12 1265.85 L2661 1271.24 L2633.88 1274.99 L2606.76 1280.21 L2579.63 1285.2 L2552.51 1285.4 L2525.39 1283.37 L2498.27 1281.27 L2471.14 1278.11 L2444.02 1281.84 L2416.9 1282.15 L2389.78 1274.56 L2362.66 1261.93 L2335.53 1266.47 L2308.41 1270.78 L2281.29 1273.92 L2254.17 1277.8 L2227.05 1282.14 L2199.92 1290.52 L2172.8 1294.24 L2145.68 1289.84 L2118.56 1278.46 L2091.44 1284.02 L2064.31 1296.67 L2037.19 1304.34 L2010.07 1302.33 L1982.95 1298.8 L1955.83 1293.72 L1928.7 1297.75 L1901.58 1304.22 L1874.46 1311.89 L1847.34 1315.27 L1820.22 1318.68 L1793.09 1309.15 L1765.97 1306.27 L1738.85 1303.37 L1711.73 1302.26 L1684.61 1314 L1657.48 1314.75 L1630.36 1321.78 L1603.24 1313.2 L1576.12 1305.21 L1549 1299.01 L1521.87 1281.13 L1494.75 1297.55 L1467.63 1286.42 L1440.51 1258.63 L1413.39 1226.22 L1386.26 1206.24 L1359.14 1197.31 L1332.02 1179.04 L1304.9 1185.75 L1277.78 1179 L1250.65 1202.1 L1223.53 1147.84 L1196.41 1104.39 L1169.29 1033.92 L1142.17 923.24 L1115.04 758.159 L1087.92 751.403 L1060.8 712.884 L1033.68 545.022 L1006.56 626.983 L979.434 667.5 L952.312 469.337 L925.19 463.895 L898.068 116.48 L870.946 134.531 L843.824 456.703 L816.702 628.566 L789.58 746.719 L762.458 852.734 L735.336 937.617 L708.213 966.886 L681.091 983.78 L653.969 962.769 L626.847 915.142 L599.725 864.379 L572.603 722.374 L545.481 634.133 L518.359 590.783 L491.237 579.446 L464.115 582.033 L436.993 596.231 L409.871 471.76 L382.749 347.931 L355.627 255.126  Z" fill="#3da44d" fill-rule="evenodd" fill-opacity="0.5"/>
<polyline clip-path="url(#clip082)" style="stroke:#3da44d; stroke-linecap:round; stroke-linejoin:round; stroke-width:4; stroke-opacity:1; fill:none" points="355.627,931.773 382.749,956.254 409.871,986.957 436.993,1004.3 464.115,1003.16 491.237,1001.87 518.359,1012.22 545.481,1012.99 572.603,1038.95 599.725,1091.55 626.847,1133.96 653.969,1155.68 681.091,1164.46 708.213,1156.54 735.336,1126.03 762.458,1077.65 789.58,1021.21 816.702,942.331 843.824,835.11 870.946,634.192 898.068,559.741 925.19,736.1 952.312,724.603 979.434,856.732 1006.56,800.428 1033.68,712.032 1060.8,842.846 1087.92,866.391 1115.04,861.842 1142.17,997.633 1169.29,1092.41 1196.41,1153.52 1223.53,1186.15 1250.65,1234.45 1277.78,1211.27 1304.9,1217.41 1332.02,1212.82 1359.14,1228.53 1386.26,1235.07 1413.39,1252.59 1440.51,1281.51 1467.63,1305.32 1494.75,1314.96 1521.87,1302.71 1549,1316.43 1576.12,1322.14 1603.24,1329.26 1630.36,1336.29 1657.48,1332.36 1684.61,1331.54 1711.73,1323.78 1738.85,1325.65 1765.97,1328.18 1793.09,1330.76 1820.22,1337.85 1847.34,1335.52 1874.46,1333.39 1901.58,1329.54 1928.7,1325.54 1955.83,1324.59 1982.95,1328.55 2010.07,1330.36 2037.19,1331.71 2064.31,1328.31 2091.44,1322.58 2118.56,1318.74 2145.68,1326.89 2172.8,1328.95 2199.92,1328.53 2227.05,1323.77 2254.17,1321 2281.29,1320.47 2308.41,1319.74 2335.53,1318.79 2362.66,1317.79 2389.78,1324.77 2416.9,1328.7 2444.02,1330.38 2471.14,1330.26 2498.27,1331.71 2525.39,1334.82 2552.51,1336.82 2579.63,1337.79 2606.76,1338 2633.88,1337.46 2661,1336.71 2688.12,1335.6 2715.24,1336.56 2742.37,1337.65 2769.49,1338.05 2796.61,1338.22 2823.73,1338.32 2850.85,1338.14 2877.98,1337.67 2905.1,1336.88 2932.22,1336.07 2959.34,1335.27 2986.46,1334.18 3013.59,1332.9 3040.71,1331.55 "/>
<path clip-path="url(#clip080)" d="M2476.82 330.549 L3026.39 330.549 L3026.39 123.189 L2476.82 123.189  Z" fill="#ffffff" fill-rule="evenodd" fill-opacity="1"/>
<polyline clip-path="url(#clip080)" style="stroke:#000000; stroke-linecap:round; stroke-linejoin:round; stroke-width:4; stroke-opacity:1; fill:none" points="2476.82,330.549 3026.39,330.549 3026.39,123.189 2476.82,123.189 2476.82,330.549 "/>
<polyline clip-path="url(#clip080)" style="stroke:#ff8c00; stroke-linecap:round; stroke-linejoin:round; stroke-width:4; stroke-opacity:1; fill:none" points="2508.44,175.029 2698.19,175.029 "/>
<path clip-path="url(#clip080)" d="M2746.2 176.105 Q2747.7 176.615 2749.12 178.281 Q2750.55 179.948 2751.99 182.865 L2756.73 192.309 L2751.71 192.309 L2747.29 183.443 Q2745.57 179.971 2743.95 178.837 Q2742.36 177.703 2739.58 177.703 L2734.49 177.703 L2734.49 192.309 L2729.81 192.309 L2729.81 157.749 L2740.37 157.749 Q2746.29 157.749 2749.21 160.226 Q2752.13 162.703 2752.13 167.703 Q2752.13 170.966 2750.6 173.119 Q2749.09 175.272 2746.2 176.105 M2734.49 161.592 L2734.49 173.86 L2740.37 173.86 Q2743.75 173.86 2745.46 172.309 Q2747.19 170.735 2747.19 167.703 Q2747.19 164.67 2745.46 163.142 Q2743.75 161.592 2740.37 161.592 L2734.49 161.592 Z" fill="#000000" fill-rule="nonzero" fill-opacity="1" /><path clip-path="url(#clip080)" d="M2766.78 159.022 L2766.78 166.383 L2775.55 166.383 L2775.55 169.693 L2766.78 169.693 L2766.78 183.767 Q2766.78 186.939 2767.63 187.841 Q2768.51 188.744 2771.18 188.744 L2775.55 188.744 L2775.55 192.309 L2771.18 192.309 Q2766.25 192.309 2764.37 190.48 Q2762.5 188.628 2762.5 183.767 L2762.5 169.693 L2759.37 169.693 L2759.37 166.383 L2762.5 166.383 L2762.5 159.022 L2766.78 159.022 Z" fill="#000000" fill-rule="nonzero" fill-opacity="1" /><path clip-path="url(#clip080)" d="M2801.71 156.082 L2801.71 203.489 L2797.77 203.489 L2797.77 156.082 L2801.71 156.082 Z" fill="#000000" fill-rule="nonzero" fill-opacity="1" /><path clip-path="url(#clip080)" d="M2837.31 169.763 Q2833.79 169.763 2831.89 172.309 Q2829.9 174.971 2829.9 179.369 Q2829.9 184.022 2831.87 186.707 Q2833.86 189.369 2837.31 189.369 Q2840.71 189.369 2842.7 186.684 Q2844.69 183.999 2844.69 179.369 Q2844.69 175.133 2842.7 172.309 Q2840.87 169.763 2837.31 169.763 M2837.31 166.383 L2851.45 166.383 L2851.45 170.642 L2846.68 170.642 Q2849.21 174.253 2849.21 179.369 Q2849.21 185.735 2846.04 189.346 Q2842.87 192.98 2837.31 192.98 Q2831.73 192.98 2828.58 189.346 Q2825.41 185.735 2825.41 179.369 Q2825.41 172.957 2828.58 169.369 Q2831.2 166.383 2837.31 166.383 Z" fill="#000000" fill-rule="nonzero" fill-opacity="1" /><path clip-path="url(#clip080)" d="M2872.93 170.781 L2902.61 170.781 L2902.61 174.67 L2872.93 174.67 L2872.93 170.781 M2872.93 180.226 L2902.61 180.226 L2902.61 184.161 L2872.93 184.161 L2872.93 180.226 Z" fill="#000000" fill-rule="nonzero" fill-opacity="1" /><path clip-path="url(#clip080)" d="M2937.77 160.828 Q2934.16 160.828 2932.33 164.392 Q2930.53 167.934 2930.53 175.064 Q2930.53 182.17 2932.33 185.735 Q2934.16 189.277 2937.77 189.277 Q2941.41 189.277 2943.21 185.735 Q2945.04 182.17 2945.04 175.064 Q2945.04 167.934 2943.21 164.392 Q2941.41 160.828 2937.77 160.828 M2937.77 157.124 Q2943.58 157.124 2946.64 161.73 Q2949.72 166.314 2949.72 175.064 Q2949.72 183.79 2946.64 188.397 Q2943.58 192.98 2937.77 192.98 Q2931.96 192.98 2928.88 188.397 Q2925.83 183.79 2925.83 175.064 Q2925.83 166.314 2928.88 161.73 Q2931.96 157.124 2937.77 157.124 Z" fill="#000000" fill-rule="nonzero" fill-opacity="1" /><path clip-path="url(#clip080)" d="M2957.93 186.429 L2962.82 186.429 L2962.82 192.309 L2957.93 192.309 L2957.93 186.429 Z" fill="#000000" fill-rule="nonzero" fill-opacity="1" /><path clip-path="url(#clip080)" d="M2977.03 188.374 L2993.35 188.374 L2993.35 192.309 L2971.41 192.309 L2971.41 188.374 Q2974.07 185.619 2978.65 180.99 Q2983.26 176.337 2984.44 174.994 Q2986.68 172.471 2987.56 170.735 Q2988.47 168.976 2988.47 167.286 Q2988.47 164.531 2986.52 162.795 Q2984.6 161.059 2981.5 161.059 Q2979.3 161.059 2976.85 161.823 Q2974.42 162.587 2971.64 164.138 L2971.64 159.416 Q2974.46 158.281 2976.92 157.703 Q2979.37 157.124 2981.41 157.124 Q2986.78 157.124 2989.97 159.809 Q2993.17 162.494 2993.17 166.985 Q2993.17 169.115 2992.36 171.036 Q2991.57 172.934 2989.46 175.527 Q2988.88 176.198 2985.78 179.415 Q2982.68 182.61 2977.03 188.374 Z" fill="#000000" fill-rule="nonzero" fill-opacity="1" /><polyline clip-path="url(#clip080)" style="stroke:#000000; stroke-linecap:round; stroke-linejoin:round; stroke-width:4; stroke-opacity:1; fill:none" stroke-dasharray="16, 10" points="2508.44,226.869 2698.19,226.869 "/>
<path clip-path="url(#clip080)" d="M2746.2 227.945 Q2747.7 228.455 2749.12 230.121 Q2750.55 231.788 2751.99 234.705 L2756.73 244.149 L2751.71 244.149 L2747.29 235.283 Q2745.57 231.811 2743.95 230.677 Q2742.36 229.543 2739.58 229.543 L2734.49 229.543 L2734.49 244.149 L2729.81 244.149 L2729.81 209.589 L2740.37 209.589 Q2746.29 209.589 2749.21 212.066 Q2752.13 214.543 2752.13 219.543 Q2752.13 222.806 2750.6 224.959 Q2749.09 227.112 2746.2 227.945 M2734.49 213.432 L2734.49 225.7 L2740.37 225.7 Q2743.75 225.7 2745.46 224.149 Q2747.19 222.575 2747.19 219.543 Q2747.19 216.51 2745.46 214.982 Q2743.75 213.432 2740.37 213.432 L2734.49 213.432 Z" fill="#000000" fill-rule="nonzero" fill-opacity="1" /><path clip-path="url(#clip080)" d="M2766.78 210.862 L2766.78 218.223 L2775.55 218.223 L2775.55 221.533 L2766.78 221.533 L2766.78 235.607 Q2766.78 238.779 2767.63 239.681 Q2768.51 240.584 2771.18 240.584 L2775.55 240.584 L2775.55 244.149 L2771.18 244.149 Q2766.25 244.149 2764.37 242.32 Q2762.5 240.468 2762.5 235.607 L2762.5 221.533 L2759.37 221.533 L2759.37 218.223 L2762.5 218.223 L2762.5 210.862 L2766.78 210.862 Z" fill="#000000" fill-rule="nonzero" fill-opacity="1" /><path clip-path="url(#clip080)" d="M2796.78 222.621 L2826.45 222.621 L2826.45 226.51 L2796.78 226.51 L2796.78 222.621 M2796.78 232.066 L2826.45 232.066 L2826.45 236.001 L2796.78 236.001 L2796.78 232.066 Z" fill="#000000" fill-rule="nonzero" fill-opacity="1" /><path clip-path="url(#clip080)" d="M2852.43 240.214 L2860.06 240.214 L2860.06 213.848 L2851.75 215.515 L2851.75 211.256 L2860.02 209.589 L2864.69 209.589 L2864.69 240.214 L2872.33 240.214 L2872.33 244.149 L2852.43 244.149 L2852.43 240.214 Z" fill="#000000" fill-rule="nonzero" fill-opacity="1" /><polyline clip-path="url(#clip080)" style="stroke:#3da44d; stroke-linecap:round; stroke-linejoin:round; stroke-width:4; stroke-opacity:1; fill:none" points="2508.44,278.709 2698.19,278.709 "/>
<path clip-path="url(#clip080)" d="M2729.81 261.429 L2736.78 261.429 L2745.6 284.947 L2754.46 261.429 L2761.43 261.429 L2761.43 295.989 L2756.87 295.989 L2756.87 265.642 L2747.96 289.345 L2743.26 289.345 L2734.35 265.642 L2734.35 295.989 L2729.81 295.989 L2729.81 261.429 Z" fill="#000000" fill-rule="nonzero" fill-opacity="1" /><path clip-path="url(#clip080)" d="M2782.31 282.957 Q2777.15 282.957 2775.16 284.137 Q2773.17 285.318 2773.17 288.165 Q2773.17 290.433 2774.65 291.776 Q2776.15 293.095 2778.72 293.095 Q2782.26 293.095 2784.39 290.595 Q2786.55 288.072 2786.55 283.906 L2786.55 282.957 L2782.31 282.957 M2790.81 281.197 L2790.81 295.989 L2786.55 295.989 L2786.55 292.054 Q2785.09 294.415 2782.91 295.549 Q2780.74 296.66 2777.59 296.66 Q2773.61 296.66 2771.25 294.438 Q2768.91 292.193 2768.91 288.443 Q2768.91 284.068 2771.82 281.846 Q2774.76 279.623 2780.57 279.623 L2786.55 279.623 L2786.55 279.207 Q2786.55 276.267 2784.6 274.67 Q2782.68 273.049 2779.19 273.049 Q2776.96 273.049 2774.86 273.582 Q2772.75 274.114 2770.81 275.179 L2770.81 271.244 Q2773.14 270.341 2775.34 269.901 Q2777.54 269.438 2779.62 269.438 Q2785.25 269.438 2788.03 272.355 Q2790.81 275.271 2790.81 281.197 Z" fill="#000000" fill-rule="nonzero" fill-opacity="1" /><path clip-path="url(#clip080)" d="M2814.6 274.045 Q2813.88 273.628 2813.03 273.443 Q2812.19 273.234 2811.18 273.234 Q2807.56 273.234 2805.62 275.596 Q2803.7 277.933 2803.7 282.332 L2803.7 295.989 L2799.42 295.989 L2799.42 270.063 L2803.7 270.063 L2803.7 274.091 Q2805.04 271.73 2807.19 270.596 Q2809.35 269.438 2812.43 269.438 Q2812.87 269.438 2813.4 269.508 Q2813.93 269.554 2814.58 269.67 L2814.6 274.045 Z" fill="#000000" fill-rule="nonzero" fill-opacity="1" /><path clip-path="url(#clip080)" d="M2835.3 282.725 Q2835.3 278.096 2833.37 275.549 Q2831.48 273.003 2828.03 273.003 Q2824.6 273.003 2822.68 275.549 Q2820.78 278.096 2820.78 282.725 Q2820.78 287.332 2822.68 289.878 Q2824.6 292.424 2828.03 292.424 Q2831.48 292.424 2833.37 289.878 Q2835.3 287.332 2835.3 282.725 M2839.56 292.771 Q2839.56 299.392 2836.62 302.609 Q2833.68 305.85 2827.61 305.85 Q2825.37 305.85 2823.37 305.503 Q2821.38 305.179 2819.51 304.484 L2819.51 300.341 Q2821.38 301.359 2823.21 301.845 Q2825.04 302.332 2826.94 302.332 Q2831.13 302.332 2833.21 300.132 Q2835.3 297.957 2835.3 293.535 L2835.3 291.429 Q2833.98 293.72 2831.92 294.855 Q2829.86 295.989 2826.99 295.989 Q2822.22 295.989 2819.3 292.355 Q2816.38 288.72 2816.38 282.725 Q2816.38 276.707 2819.3 273.072 Q2822.22 269.438 2826.99 269.438 Q2829.86 269.438 2831.92 270.572 Q2833.98 271.707 2835.3 273.998 L2835.3 270.063 L2839.56 270.063 L2839.56 292.771 Z" fill="#000000" fill-rule="nonzero" fill-opacity="1" /><path clip-path="url(#clip080)" d="M2848.33 270.063 L2852.59 270.063 L2852.59 295.989 L2848.33 295.989 L2848.33 270.063 M2848.33 259.971 L2852.59 259.971 L2852.59 265.364 L2848.33 265.364 L2848.33 259.971 Z" fill="#000000" fill-rule="nonzero" fill-opacity="1" /><path clip-path="url(#clip080)" d="M2883.05 280.341 L2883.05 295.989 L2878.79 295.989 L2878.79 280.48 Q2878.79 276.799 2877.36 274.971 Q2875.92 273.142 2873.05 273.142 Q2869.6 273.142 2867.61 275.341 Q2865.62 277.54 2865.62 281.336 L2865.62 295.989 L2861.34 295.989 L2861.34 270.063 L2865.62 270.063 L2865.62 274.091 Q2867.15 271.753 2869.21 270.596 Q2871.29 269.438 2874 269.438 Q2878.47 269.438 2880.76 272.216 Q2883.05 274.971 2883.05 280.341 Z" fill="#000000" fill-rule="nonzero" fill-opacity="1" /><path clip-path="url(#clip080)" d="M2903.33 282.957 Q2898.17 282.957 2896.18 284.137 Q2894.18 285.318 2894.18 288.165 Q2894.18 290.433 2895.67 291.776 Q2897.17 293.095 2899.74 293.095 Q2903.28 293.095 2905.41 290.595 Q2907.56 288.072 2907.56 283.906 L2907.56 282.957 L2903.33 282.957 M2911.82 281.197 L2911.82 295.989 L2907.56 295.989 L2907.56 292.054 Q2906.11 294.415 2903.93 295.549 Q2901.75 296.66 2898.61 296.66 Q2894.62 296.66 2892.26 294.438 Q2889.93 292.193 2889.93 288.443 Q2889.93 284.068 2892.84 281.846 Q2895.78 279.623 2901.59 279.623 L2907.56 279.623 L2907.56 279.207 Q2907.56 276.267 2905.62 274.67 Q2903.7 273.049 2900.2 273.049 Q2897.98 273.049 2895.87 273.582 Q2893.77 274.114 2891.82 275.179 L2891.82 271.244 Q2894.16 270.341 2896.36 269.901 Q2898.56 269.438 2900.64 269.438 Q2906.27 269.438 2909.05 272.355 Q2911.82 275.271 2911.82 281.197 Z" fill="#000000" fill-rule="nonzero" fill-opacity="1" /><path clip-path="url(#clip080)" d="M2920.6 259.971 L2924.86 259.971 L2924.86 295.989 L2920.6 295.989 L2920.6 259.971 Z" fill="#000000" fill-rule="nonzero" fill-opacity="1" /><path clip-path="url(#clip080)" d="M2965.41 279.785 Q2966.92 280.295 2968.33 281.961 Q2969.76 283.628 2971.2 286.545 L2975.94 295.989 L2970.92 295.989 L2966.5 287.123 Q2964.79 283.651 2963.17 282.517 Q2961.57 281.383 2958.79 281.383 L2953.7 281.383 L2953.7 295.989 L2949.02 295.989 L2949.02 261.429 L2959.58 261.429 Q2965.5 261.429 2968.42 263.906 Q2971.34 266.383 2971.34 271.383 Q2971.34 274.646 2969.81 276.799 Q2968.3 278.952 2965.41 279.785 M2953.7 265.272 L2953.7 277.54 L2959.58 277.54 Q2962.96 277.54 2964.67 275.989 Q2966.41 274.415 2966.41 271.383 Q2966.41 268.35 2964.67 266.822 Q2962.96 265.272 2959.58 265.272 L2953.7 265.272 Z" fill="#000000" fill-rule="nonzero" fill-opacity="1" /><path clip-path="url(#clip080)" d="M2985.99 262.702 L2985.99 270.063 L2994.76 270.063 L2994.76 273.373 L2985.99 273.373 L2985.99 287.447 Q2985.99 290.619 2986.85 291.521 Q2987.73 292.424 2990.39 292.424 L2994.76 292.424 L2994.76 295.989 L2990.39 295.989 Q2985.46 295.989 2983.58 294.16 Q2981.71 292.308 2981.71 287.447 L2981.71 273.373 L2978.58 273.373 L2978.58 270.063 L2981.71 270.063 L2981.71 262.702 L2985.99 262.702 Z" fill="#000000" fill-rule="nonzero" fill-opacity="1" /></svg>
