<?xml version="1.0" encoding="utf-8"?>
<svg xmlns="http://www.w3.org/2000/svg" xmlns:xlink="http://www.w3.org/1999/xlink" width="800" height="400" viewBox="0 0 3200 1600">
<defs>
  <clipPath id="clip130">
    <rect x="0" y="0" width="3200" height="1600"/>
  </clipPath>
</defs>
<path clip-path="url(#clip130)" d="M0 1600 L3200 1600 L3200 0 L0 0  Z" fill="#ffffff" fill-rule="evenodd" fill-opacity="1"/>
<defs>
  <clipPath id="clip131">
    <rect x="640" y="0" width="2241" height="1600"/>
  </clipPath>
</defs>
<path clip-path="url(#clip130)" d="M229.844 1412.2 L3121.26 1412.2 L3121.26 78.7402 L229.844 78.7402  Z" fill="#ffffff" fill-rule="evenodd" fill-opacity="1"/>
<defs>
  <clipPath id="clip132">
    <rect x="229" y="78" width="2892" height="1334"/>
  </clipPath>
</defs>
<polyline clip-path="url(#clip132)" style="stroke:#000000; stroke-linecap:round; stroke-linejoin:round; stroke-width:2; stroke-opacity:0.1; fill:none" points="421.888,1412.2 421.888,78.7402 "/>
<polyline clip-path="url(#clip132)" style="stroke:#000000; stroke-linecap:round; stroke-linejoin:round; stroke-width:2; stroke-opacity:0.1; fill:none" points="1276.03,1412.2 1276.03,78.7402 "/>
<polyline clip-path="url(#clip132)" style="stroke:#000000; stroke-linecap:round; stroke-linejoin:round; stroke-width:2; stroke-opacity:0.1; fill:none" points="2102.62,1412.2 2102.62,78.7402 "/>
<polyline clip-path="url(#clip132)" style="stroke:#000000; stroke-linecap:round; stroke-linejoin:round; stroke-width:2; stroke-opacity:0.1; fill:none" points="2956.77,1412.2 2956.77,78.7402 "/>
<polyline clip-path="url(#clip130)" style="stroke:#000000; stroke-linecap:round; stroke-linejoin:round; stroke-width:4; stroke-opacity:1; fill:none" points="229.844,1412.2 3121.26,1412.2 "/>
<polyline clip-path="url(#clip130)" style="stroke:#000000; stroke-linecap:round; stroke-linejoin:round; stroke-width:4; stroke-opacity:1; fill:none" points="421.888,1412.2 421.888,1393.31 "/>
<polyline clip-path="url(#clip130)" style="stroke:#000000; stroke-linecap:round; stroke-linejoin:round; stroke-width:4; stroke-opacity:1; fill:none" points="1276.03,1412.2 1276.03,1393.31 "/>
<polyline clip-path="url(#clip130)" style="stroke:#000000; stroke-linecap:round; stroke-linejoin:round; stroke-width:4; stroke-opacity:1; fill:none" points="2102.62,1412.2 2102.62,1393.31 "/>
<polyline clip-path="url(#clip130)" style="stroke:#000000; stroke-linecap:round; stroke-linejoin:round; stroke-width:4; stroke-opacity:1; fill:none" points="2956.77,1412.2 2956.77,1393.31 "/>
<path clip-path="url(#clip130)" d="M293.683 1477.07 L310.002 1477.07 L310.002 1481 L288.058 1481 L288.058 1477.07 Q290.72 1474.31 295.303 1469.68 Q299.91 1465.03 301.09 1463.69 Q303.336 1461.17 304.215 1459.43 Q305.118 1457.67 305.118 1455.98 Q305.118 1453.23 303.174 1451.49 Q301.252 1449.75 298.15 1449.75 Q295.951 1449.75 293.498 1450.52 Q291.067 1451.28 288.289 1452.83 L288.289 1448.11 Q291.113 1446.98 293.567 1446.4 Q296.021 1445.82 298.058 1445.82 Q303.428 1445.82 306.623 1448.5 Q309.817 1451.19 309.817 1455.68 Q309.817 1457.81 309.007 1459.73 Q308.22 1461.63 306.113 1464.22 Q305.535 1464.89 302.433 1468.11 Q299.331 1471.3 293.683 1477.07 Z" fill="#000000" fill-rule="nonzero" fill-opacity="1" /><path clip-path="url(#clip130)" d="M329.817 1449.52 Q326.206 1449.52 324.377 1453.09 Q322.572 1456.63 322.572 1463.76 Q322.572 1470.86 324.377 1474.43 Q326.206 1477.97 329.817 1477.97 Q333.451 1477.97 335.257 1474.43 Q337.085 1470.86 337.085 1463.76 Q337.085 1456.63 335.257 1453.09 Q333.451 1449.52 329.817 1449.52 M329.817 1445.82 Q335.627 1445.82 338.683 1450.43 Q341.761 1455.01 341.761 1463.76 Q341.761 1472.49 338.683 1477.09 Q335.627 1481.68 329.817 1481.68 Q324.007 1481.68 320.928 1477.09 Q317.873 1472.49 317.873 1463.76 Q317.873 1455.01 320.928 1450.43 Q324.007 1445.82 329.817 1445.82 Z" fill="#000000" fill-rule="nonzero" fill-opacity="1" /><path clip-path="url(#clip130)" d="M354.007 1477.07 L370.326 1477.07 L370.326 1481 L348.382 1481 L348.382 1477.07 Q351.044 1474.31 355.627 1469.68 Q360.233 1465.03 361.414 1463.69 Q363.659 1461.17 364.539 1459.43 Q365.442 1457.67 365.442 1455.98 Q365.442 1453.23 363.497 1451.49 Q361.576 1449.75 358.474 1449.75 Q356.275 1449.75 353.821 1450.52 Q351.391 1451.28 348.613 1452.83 L348.613 1448.11 Q351.437 1446.98 353.891 1446.4 Q356.345 1445.82 358.382 1445.82 Q363.752 1445.82 366.946 1448.5 Q370.141 1451.19 370.141 1455.68 Q370.141 1457.81 369.331 1459.73 Q368.544 1461.63 366.437 1464.22 Q365.858 1464.89 362.757 1468.11 Q359.655 1471.3 354.007 1477.07 Z" fill="#000000" fill-rule="nonzero" fill-opacity="1" /><path clip-path="url(#clip130)" d="M390.141 1449.52 Q386.53 1449.52 384.701 1453.09 Q382.895 1456.63 382.895 1463.76 Q382.895 1470.86 384.701 1474.43 Q386.53 1477.97 390.141 1477.97 Q393.775 1477.97 395.581 1474.43 Q397.409 1470.86 397.409 1463.76 Q397.409 1456.63 395.581 1453.09 Q393.775 1449.52 390.141 1449.52 M390.141 1445.82 Q395.951 1445.82 399.006 1450.43 Q402.085 1455.01 402.085 1463.76 Q402.085 1472.49 399.006 1477.09 Q395.951 1481.68 390.141 1481.68 Q384.331 1481.68 381.252 1477.09 Q378.196 1472.49 378.196 1463.76 Q378.196 1455.01 381.252 1450.43 Q384.331 1445.82 390.141 1445.82 Z" fill="#000000" fill-rule="nonzero" fill-opacity="1" /><path clip-path="url(#clip130)" d="M407.548 1466.12 L420.025 1466.12 L420.025 1469.92 L407.548 1469.92 L407.548 1466.12 Z" fill="#000000" fill-rule="nonzero" fill-opacity="1" /><path clip-path="url(#clip130)" d="M437.409 1449.52 Q433.798 1449.52 431.969 1453.09 Q430.164 1456.63 430.164 1463.76 Q430.164 1470.86 431.969 1474.43 Q433.798 1477.97 437.409 1477.97 Q441.043 1477.97 442.849 1474.43 Q444.677 1470.86 444.677 1463.76 Q444.677 1456.63 442.849 1453.09 Q441.043 1449.52 437.409 1449.52 M437.409 1445.82 Q443.219 1445.82 446.275 1450.43 Q449.353 1455.01 449.353 1463.76 Q449.353 1472.49 446.275 1477.09 Q443.219 1481.68 437.409 1481.68 Q431.599 1481.68 428.52 1477.09 Q425.465 1472.49 425.465 1463.76 Q425.465 1455.01 428.52 1450.43 Q431.599 1445.82 437.409 1445.82 Z" fill="#000000" fill-rule="nonzero" fill-opacity="1" /><path clip-path="url(#clip130)" d="M471.738 1462.37 Q475.094 1463.09 476.969 1465.36 Q478.867 1467.62 478.867 1470.96 Q478.867 1476.07 475.349 1478.87 Q471.83 1481.68 465.349 1481.68 Q463.173 1481.68 460.858 1481.24 Q458.566 1480.82 456.113 1479.96 L456.113 1475.45 Q458.057 1476.58 460.372 1477.16 Q462.687 1477.74 465.21 1477.74 Q469.608 1477.74 471.9 1476 Q474.214 1474.27 474.214 1470.96 Q474.214 1467.9 472.062 1466.19 Q469.932 1464.45 466.113 1464.45 L462.085 1464.45 L462.085 1460.61 L466.298 1460.61 Q469.747 1460.61 471.575 1459.24 Q473.404 1457.86 473.404 1455.26 Q473.404 1452.6 471.506 1451.19 Q469.631 1449.75 466.113 1449.75 Q464.191 1449.75 461.992 1450.17 Q459.793 1450.59 457.154 1451.47 L457.154 1447.3 Q459.816 1446.56 462.131 1446.19 Q464.469 1445.82 466.529 1445.82 Q471.853 1445.82 474.955 1448.25 Q478.057 1450.66 478.057 1454.78 Q478.057 1457.65 476.413 1459.64 Q474.77 1461.61 471.738 1462.37 Z" fill="#000000" fill-rule="nonzero" fill-opacity="1" /><path clip-path="url(#clip130)" d="M484.978 1466.12 L497.455 1466.12 L497.455 1469.92 L484.978 1469.92 L484.978 1466.12 Z" fill="#000000" fill-rule="nonzero" fill-opacity="1" /><path clip-path="url(#clip130)" d="M514.839 1449.52 Q511.228 1449.52 509.399 1453.09 Q507.594 1456.63 507.594 1463.76 Q507.594 1470.86 509.399 1474.43 Q511.228 1477.97 514.839 1477.97 Q518.473 1477.97 520.279 1474.43 Q522.108 1470.86 522.108 1463.76 Q522.108 1456.63 520.279 1453.09 Q518.473 1449.52 514.839 1449.52 M514.839 1445.82 Q520.649 1445.82 523.705 1450.43 Q526.784 1455.01 526.784 1463.76 Q526.784 1472.49 523.705 1477.09 Q520.649 1481.68 514.839 1481.68 Q509.029 1481.68 505.95 1477.09 Q502.895 1472.49 502.895 1463.76 Q502.895 1455.01 505.95 1450.43 Q509.029 1445.82 514.839 1445.82 Z" fill="#000000" fill-rule="nonzero" fill-opacity="1" /><path clip-path="url(#clip130)" d="M535.811 1477.07 L543.45 1477.07 L543.45 1450.7 L535.14 1452.37 L535.14 1448.11 L543.404 1446.44 L548.08 1446.44 L548.08 1477.07 L555.719 1477.07 L555.719 1481 L535.811 1481 L535.811 1477.07 Z" fill="#000000" fill-rule="nonzero" fill-opacity="1" /><path clip-path="url(#clip130)" d="M1147.83 1477.07 L1164.15 1477.07 L1164.15 1481 L1142.2 1481 L1142.2 1477.07 Q1144.86 1474.31 1149.45 1469.68 Q1154.05 1465.03 1155.23 1463.69 Q1157.48 1461.17 1158.36 1459.43 Q1159.26 1457.67 1159.26 1455.98 Q1159.26 1453.23 1157.32 1451.49 Q1155.4 1449.75 1152.29 1449.75 Q1150.1 1449.75 1147.64 1450.52 Q1145.21 1451.28 1142.43 1452.83 L1142.43 1448.11 Q1145.26 1446.98 1147.71 1446.4 Q1150.17 1445.82 1152.2 1445.82 Q1157.57 1445.82 1160.77 1448.5 Q1163.96 1451.19 1163.96 1455.68 Q1163.96 1457.81 1163.15 1459.73 Q1162.36 1461.63 1160.26 1464.22 Q1159.68 1464.89 1156.58 1468.11 Q1153.48 1471.3 1147.83 1477.07 Z" fill="#000000" fill-rule="nonzero" fill-opacity="1" /><path clip-path="url(#clip130)" d="M1183.96 1449.52 Q1180.35 1449.52 1178.52 1453.09 Q1176.72 1456.63 1176.72 1463.76 Q1176.72 1470.86 1178.52 1474.43 Q1180.35 1477.97 1183.96 1477.97 Q1187.6 1477.97 1189.4 1474.43 Q1191.23 1470.86 1191.23 1463.76 Q1191.23 1456.63 1189.4 1453.09 Q1187.6 1449.52 1183.96 1449.52 M1183.96 1445.82 Q1189.77 1445.82 1192.83 1450.43 Q1195.91 1455.01 1195.91 1463.76 Q1195.91 1472.49 1192.83 1477.09 Q1189.77 1481.68 1183.96 1481.68 Q1178.15 1481.68 1175.07 1477.09 Q1172.02 1472.49 1172.02 1463.76 Q1172.02 1455.01 1175.07 1450.43 Q1178.15 1445.82 1183.96 1445.82 Z" fill="#000000" fill-rule="nonzero" fill-opacity="1" /><path clip-path="url(#clip130)" d="M1208.15 1477.07 L1224.47 1477.07 L1224.47 1481 L1202.53 1481 L1202.53 1477.07 Q1205.19 1474.31 1209.77 1469.68 Q1214.38 1465.03 1215.56 1463.69 Q1217.8 1461.17 1218.68 1459.43 Q1219.59 1457.67 1219.59 1455.98 Q1219.59 1453.23 1217.64 1451.49 Q1215.72 1449.75 1212.62 1449.75 Q1210.42 1449.75 1207.97 1450.52 Q1205.54 1451.28 1202.76 1452.83 L1202.76 1448.11 Q1205.58 1446.98 1208.04 1446.4 Q1210.49 1445.82 1212.53 1445.82 Q1217.9 1445.82 1221.09 1448.5 Q1224.29 1451.19 1224.29 1455.68 Q1224.29 1457.81 1223.47 1459.73 Q1222.69 1461.63 1220.58 1464.22 Q1220 1464.89 1216.9 1468.11 Q1213.8 1471.3 1208.15 1477.07 Z" fill="#000000" fill-rule="nonzero" fill-opacity="1" /><path clip-path="url(#clip130)" d="M1244.29 1449.52 Q1240.67 1449.52 1238.85 1453.09 Q1237.04 1456.63 1237.04 1463.76 Q1237.04 1470.86 1238.85 1474.43 Q1240.67 1477.97 1244.29 1477.97 Q1247.92 1477.97 1249.72 1474.43 Q1251.55 1470.86 1251.55 1463.76 Q1251.55 1456.63 1249.72 1453.09 Q1247.92 1449.52 1244.29 1449.52 M1244.29 1445.82 Q1250.1 1445.82 1253.15 1450.43 Q1256.23 1455.01 1256.23 1463.76 Q1256.23 1472.49 1253.15 1477.09 Q1250.1 1481.68 1244.29 1481.68 Q1238.47 1481.68 1235.4 1477.09 Q1232.34 1472.49 1232.34 1463.76 Q1232.34 1455.01 1235.4 1450.43 Q1238.47 1445.82 1244.29 1445.82 Z" fill="#000000" fill-rule="nonzero" fill-opacity="1" /><path clip-path="url(#clip130)" d="M1261.69 1466.12 L1274.17 1466.12 L1274.17 1469.92 L1261.69 1469.92 L1261.69 1466.12 Z" fill="#000000" fill-rule="nonzero" fill-opacity="1" /><path clip-path="url(#clip130)" d="M1291.55 1449.52 Q1287.94 1449.52 1286.11 1453.09 Q1284.31 1456.63 1284.31 1463.76 Q1284.31 1470.86 1286.11 1474.43 Q1287.94 1477.97 1291.55 1477.97 Q1295.19 1477.97 1296.99 1474.43 Q1298.82 1470.86 1298.82 1463.76 Q1298.82 1456.63 1296.99 1453.09 Q1295.19 1449.52 1291.55 1449.52 M1291.55 1445.82 Q1297.36 1445.82 1300.42 1450.43 Q1303.5 1455.01 1303.5 1463.76 Q1303.5 1472.49 1300.42 1477.09 Q1297.36 1481.68 1291.55 1481.68 Q1285.74 1481.68 1282.66 1477.09 Q1279.61 1472.49 1279.61 1463.76 Q1279.61 1455.01 1282.66 1450.43 Q1285.74 1445.82 1291.55 1445.82 Z" fill="#000000" fill-rule="nonzero" fill-opacity="1" /><path clip-path="url(#clip130)" d="M1324.56 1450.52 L1312.76 1468.97 L1324.56 1468.97 L1324.56 1450.52 M1323.34 1446.44 L1329.22 1446.44 L1329.22 1468.97 L1334.15 1468.97 L1334.15 1472.86 L1329.22 1472.86 L1329.22 1481 L1324.56 1481 L1324.56 1472.86 L1308.96 1472.86 L1308.96 1468.34 L1323.34 1446.44 Z" fill="#000000" fill-rule="nonzero" fill-opacity="1" /><path clip-path="url(#clip130)" d="M1339.12 1466.12 L1351.6 1466.12 L1351.6 1469.92 L1339.12 1469.92 L1339.12 1466.12 Z" fill="#000000" fill-rule="nonzero" fill-opacity="1" /><path clip-path="url(#clip130)" d="M1368.98 1449.52 Q1365.37 1449.52 1363.54 1453.09 Q1361.74 1456.63 1361.74 1463.76 Q1361.74 1470.86 1363.54 1474.43 Q1365.37 1477.97 1368.98 1477.97 Q1372.62 1477.97 1374.42 1474.43 Q1376.25 1470.86 1376.25 1463.76 Q1376.25 1456.63 1374.42 1453.09 Q1372.62 1449.52 1368.98 1449.52 M1368.98 1445.82 Q1374.79 1445.82 1377.85 1450.43 Q1380.93 1455.01 1380.93 1463.76 Q1380.93 1472.49 1377.85 1477.09 Q1374.79 1481.68 1368.98 1481.68 Q1363.17 1481.68 1360.09 1477.09 Q1357.04 1472.49 1357.04 1463.76 Q1357.04 1455.01 1360.09 1450.43 Q1363.17 1445.82 1368.98 1445.82 Z" fill="#000000" fill-rule="nonzero" fill-opacity="1" /><path clip-path="url(#clip130)" d="M1389.96 1477.07 L1397.59 1477.07 L1397.59 1450.7 L1389.28 1452.37 L1389.28 1448.11 L1397.55 1446.44 L1402.22 1446.44 L1402.22 1477.07 L1409.86 1477.07 L1409.86 1481 L1389.96 1481 L1389.96 1477.07 Z" fill="#000000" fill-rule="nonzero" fill-opacity="1" /><path clip-path="url(#clip130)" d="M1974.42 1477.07 L1990.74 1477.07 L1990.74 1481 L1968.79 1481 L1968.79 1477.07 Q1971.46 1474.31 1976.04 1469.68 Q1980.65 1465.03 1981.83 1463.69 Q1984.07 1461.17 1984.95 1459.43 Q1985.85 1457.67 1985.85 1455.98 Q1985.85 1453.23 1983.91 1451.49 Q1981.99 1449.75 1978.89 1449.75 Q1976.69 1449.75 1974.23 1450.52 Q1971.8 1451.28 1969.03 1452.83 L1969.03 1448.11 Q1971.85 1446.98 1974.3 1446.4 Q1976.76 1445.82 1978.79 1445.82 Q1984.16 1445.82 1987.36 1448.5 Q1990.55 1451.19 1990.55 1455.68 Q1990.55 1457.81 1989.74 1459.73 Q1988.96 1461.63 1986.85 1464.22 Q1986.27 1464.89 1983.17 1468.11 Q1980.07 1471.3 1974.42 1477.07 Z" fill="#000000" fill-rule="nonzero" fill-opacity="1" /><path clip-path="url(#clip130)" d="M2010.55 1449.52 Q2006.94 1449.52 2005.11 1453.09 Q2003.31 1456.63 2003.31 1463.76 Q2003.31 1470.86 2005.11 1474.43 Q2006.94 1477.97 2010.55 1477.97 Q2014.19 1477.97 2015.99 1474.43 Q2017.82 1470.86 2017.82 1463.76 Q2017.82 1456.63 2015.99 1453.09 Q2014.19 1449.52 2010.55 1449.52 M2010.55 1445.82 Q2016.36 1445.82 2019.42 1450.43 Q2022.5 1455.01 2022.5 1463.76 Q2022.5 1472.49 2019.42 1477.09 Q2016.36 1481.68 2010.55 1481.68 Q2004.74 1481.68 2001.66 1477.09 Q1998.61 1472.49 1998.61 1463.76 Q1998.61 1455.01 2001.66 1450.43 Q2004.74 1445.82 2010.55 1445.82 Z" fill="#000000" fill-rule="nonzero" fill-opacity="1" /><path clip-path="url(#clip130)" d="M2034.74 1477.07 L2051.06 1477.07 L2051.06 1481 L2029.12 1481 L2029.12 1477.07 Q2031.78 1474.31 2036.36 1469.68 Q2040.97 1465.03 2042.15 1463.69 Q2044.39 1461.17 2045.27 1459.43 Q2046.18 1457.67 2046.18 1455.98 Q2046.18 1453.23 2044.23 1451.49 Q2042.31 1449.75 2039.21 1449.75 Q2037.01 1449.75 2034.56 1450.52 Q2032.13 1451.28 2029.35 1452.83 L2029.35 1448.11 Q2032.17 1446.98 2034.63 1446.4 Q2037.08 1445.82 2039.12 1445.82 Q2044.49 1445.82 2047.68 1448.5 Q2050.88 1451.19 2050.88 1455.68 Q2050.88 1457.81 2050.07 1459.73 Q2049.28 1461.63 2047.17 1464.22 Q2046.59 1464.89 2043.49 1468.11 Q2040.39 1471.3 2034.74 1477.07 Z" fill="#000000" fill-rule="nonzero" fill-opacity="1" /><path clip-path="url(#clip130)" d="M2070.88 1449.52 Q2067.27 1449.52 2065.44 1453.09 Q2063.63 1456.63 2063.63 1463.76 Q2063.63 1470.86 2065.44 1474.43 Q2067.27 1477.97 2070.88 1477.97 Q2074.51 1477.97 2076.32 1474.43 Q2078.14 1470.86 2078.14 1463.76 Q2078.14 1456.63 2076.32 1453.09 Q2074.51 1449.52 2070.88 1449.52 M2070.88 1445.82 Q2076.69 1445.82 2079.74 1450.43 Q2082.82 1455.01 2082.82 1463.76 Q2082.82 1472.49 2079.74 1477.09 Q2076.69 1481.68 2070.88 1481.68 Q2065.07 1481.68 2061.99 1477.09 Q2058.93 1472.49 2058.93 1463.76 Q2058.93 1455.01 2061.99 1450.43 Q2065.07 1445.82 2070.88 1445.82 Z" fill="#000000" fill-rule="nonzero" fill-opacity="1" /><path clip-path="url(#clip130)" d="M2088.28 1466.12 L2100.76 1466.12 L2100.76 1469.92 L2088.28 1469.92 L2088.28 1466.12 Z" fill="#000000" fill-rule="nonzero" fill-opacity="1" /><path clip-path="url(#clip130)" d="M2118.14 1449.52 Q2114.53 1449.52 2112.7 1453.09 Q2110.9 1456.63 2110.9 1463.76 Q2110.9 1470.86 2112.7 1474.43 Q2114.53 1477.97 2118.14 1477.97 Q2121.78 1477.97 2123.58 1474.43 Q2125.41 1470.86 2125.41 1463.76 Q2125.41 1456.63 2123.58 1453.09 Q2121.78 1449.52 2118.14 1449.52 M2118.14 1445.82 Q2123.95 1445.82 2127.01 1450.43 Q2130.09 1455.01 2130.09 1463.76 Q2130.09 1472.49 2127.01 1477.09 Q2123.95 1481.68 2118.14 1481.68 Q2112.33 1481.68 2109.26 1477.09 Q2106.2 1472.49 2106.2 1463.76 Q2106.2 1455.01 2109.26 1450.43 Q2112.33 1445.82 2118.14 1445.82 Z" fill="#000000" fill-rule="nonzero" fill-opacity="1" /><path clip-path="url(#clip130)" d="M2138.35 1446.44 L2156.71 1446.44 L2156.71 1450.38 L2142.64 1450.38 L2142.64 1458.85 Q2143.65 1458.5 2144.67 1458.34 Q2145.69 1458.16 2146.71 1458.16 Q2152.5 1458.16 2155.88 1461.33 Q2159.26 1464.5 2159.26 1469.92 Q2159.26 1475.49 2155.78 1478.6 Q2152.31 1481.68 2145.99 1481.68 Q2143.82 1481.68 2141.55 1481.3 Q2139.3 1480.93 2136.89 1480.19 L2136.89 1475.49 Q2138.98 1476.63 2141.2 1477.18 Q2143.42 1477.74 2145.9 1477.74 Q2149.9 1477.74 2152.24 1475.63 Q2154.58 1473.53 2154.58 1469.92 Q2154.58 1466.3 2152.24 1464.2 Q2149.9 1462.09 2145.9 1462.09 Q2144.02 1462.09 2142.15 1462.51 Q2140.3 1462.93 2138.35 1463.8 L2138.35 1446.44 Z" fill="#000000" fill-rule="nonzero" fill-opacity="1" /><path clip-path="url(#clip130)" d="M2165.71 1466.12 L2178.19 1466.12 L2178.19 1469.92 L2165.71 1469.92 L2165.71 1466.12 Z" fill="#000000" fill-rule="nonzero" fill-opacity="1" /><path clip-path="url(#clip130)" d="M2195.57 1449.52 Q2191.96 1449.52 2190.13 1453.09 Q2188.33 1456.63 2188.33 1463.76 Q2188.33 1470.86 2190.13 1474.43 Q2191.96 1477.97 2195.57 1477.97 Q2199.21 1477.97 2201.01 1474.43 Q2202.84 1470.86 2202.84 1463.76 Q2202.84 1456.63 2201.01 1453.09 Q2199.21 1449.52 2195.57 1449.52 M2195.57 1445.82 Q2201.38 1445.82 2204.44 1450.43 Q2207.52 1455.01 2207.52 1463.76 Q2207.52 1472.49 2204.44 1477.09 Q2201.38 1481.68 2195.57 1481.68 Q2189.76 1481.68 2186.69 1477.09 Q2183.63 1472.49 2183.63 1463.76 Q2183.63 1455.01 2186.69 1450.43 Q2189.76 1445.82 2195.57 1445.82 Z" fill="#000000" fill-rule="nonzero" fill-opacity="1" /><path clip-path="url(#clip130)" d="M2216.55 1477.07 L2224.19 1477.07 L2224.19 1450.7 L2215.88 1452.37 L2215.88 1448.11 L2224.14 1446.44 L2228.82 1446.44 L2228.82 1477.07 L2236.45 1477.07 L2236.45 1481 L2216.55 1481 L2216.55 1477.07 Z" fill="#000000" fill-rule="nonzero" fill-opacity="1" /><path clip-path="url(#clip130)" d="M2828.56 1477.07 L2844.88 1477.07 L2844.88 1481 L2822.94 1481 L2822.94 1477.07 Q2825.6 1474.31 2830.18 1469.68 Q2834.79 1465.03 2835.97 1463.69 Q2838.22 1461.17 2839.1 1459.43 Q2840 1457.67 2840 1455.98 Q2840 1453.23 2838.05 1451.49 Q2836.13 1449.75 2833.03 1449.75 Q2830.83 1449.75 2828.38 1450.52 Q2825.95 1451.28 2823.17 1452.83 L2823.17 1448.11 Q2825.99 1446.98 2828.45 1446.4 Q2830.9 1445.82 2832.94 1445.82 Q2838.31 1445.82 2841.5 1448.5 Q2844.7 1451.19 2844.7 1455.68 Q2844.7 1457.81 2843.89 1459.73 Q2843.1 1461.63 2840.99 1464.22 Q2840.41 1464.89 2837.31 1468.11 Q2834.21 1471.3 2828.56 1477.07 Z" fill="#000000" fill-rule="nonzero" fill-opacity="1" /><path clip-path="url(#clip130)" d="M2864.7 1449.52 Q2861.09 1449.52 2859.26 1453.09 Q2857.45 1456.63 2857.45 1463.76 Q2857.45 1470.86 2859.26 1474.43 Q2861.09 1477.97 2864.7 1477.97 Q2868.33 1477.97 2870.14 1474.43 Q2871.97 1470.86 2871.97 1463.76 Q2871.97 1456.63 2870.14 1453.09 Q2868.33 1449.52 2864.7 1449.52 M2864.7 1445.82 Q2870.51 1445.82 2873.56 1450.43 Q2876.64 1455.01 2876.64 1463.76 Q2876.64 1472.49 2873.56 1477.09 Q2870.51 1481.68 2864.7 1481.68 Q2858.89 1481.68 2855.81 1477.09 Q2852.75 1472.49 2852.75 1463.76 Q2852.75 1455.01 2855.81 1450.43 Q2858.89 1445.82 2864.7 1445.82 Z" fill="#000000" fill-rule="nonzero" fill-opacity="1" /><path clip-path="url(#clip130)" d="M2888.89 1477.07 L2905.21 1477.07 L2905.21 1481 L2883.26 1481 L2883.26 1477.07 Q2885.92 1474.31 2890.51 1469.68 Q2895.11 1465.03 2896.29 1463.69 Q2898.54 1461.17 2899.42 1459.43 Q2900.32 1457.67 2900.32 1455.98 Q2900.32 1453.23 2898.38 1451.49 Q2896.46 1449.75 2893.35 1449.75 Q2891.16 1449.75 2888.7 1450.52 Q2886.27 1451.28 2883.49 1452.83 L2883.49 1448.11 Q2886.32 1446.98 2888.77 1446.4 Q2891.22 1445.82 2893.26 1445.82 Q2898.63 1445.82 2901.83 1448.5 Q2905.02 1451.19 2905.02 1455.68 Q2905.02 1457.81 2904.21 1459.73 Q2903.42 1461.63 2901.32 1464.22 Q2900.74 1464.89 2897.64 1468.11 Q2894.53 1471.3 2888.89 1477.07 Z" fill="#000000" fill-rule="nonzero" fill-opacity="1" /><path clip-path="url(#clip130)" d="M2925.02 1449.52 Q2921.41 1449.52 2919.58 1453.09 Q2917.78 1456.63 2917.78 1463.76 Q2917.78 1470.86 2919.58 1474.43 Q2921.41 1477.97 2925.02 1477.97 Q2928.65 1477.97 2930.46 1474.43 Q2932.29 1470.86 2932.29 1463.76 Q2932.29 1456.63 2930.46 1453.09 Q2928.65 1449.52 2925.02 1449.52 M2925.02 1445.82 Q2930.83 1445.82 2933.89 1450.43 Q2936.97 1455.01 2936.97 1463.76 Q2936.97 1472.49 2933.89 1477.09 Q2930.83 1481.68 2925.02 1481.68 Q2919.21 1481.68 2916.13 1477.09 Q2913.08 1472.49 2913.08 1463.76 Q2913.08 1455.01 2916.13 1450.43 Q2919.21 1445.82 2925.02 1445.82 Z" fill="#000000" fill-rule="nonzero" fill-opacity="1" /><path clip-path="url(#clip130)" d="M2942.43 1466.12 L2954.9 1466.12 L2954.9 1469.92 L2942.43 1469.92 L2942.43 1466.12 Z" fill="#000000" fill-rule="nonzero" fill-opacity="1" /><path clip-path="url(#clip130)" d="M2972.29 1449.52 Q2968.68 1449.52 2966.85 1453.09 Q2965.04 1456.63 2965.04 1463.76 Q2965.04 1470.86 2966.85 1474.43 Q2968.68 1477.97 2972.29 1477.97 Q2975.92 1477.97 2977.73 1474.43 Q2979.56 1470.86 2979.56 1463.76 Q2979.56 1456.63 2977.73 1453.09 Q2975.92 1449.52 2972.29 1449.52 M2972.29 1445.82 Q2978.1 1445.82 2981.15 1450.43 Q2984.23 1455.01 2984.23 1463.76 Q2984.23 1472.49 2981.15 1477.09 Q2978.1 1481.68 2972.29 1481.68 Q2966.48 1481.68 2963.4 1477.09 Q2960.34 1472.49 2960.34 1463.76 Q2960.34 1455.01 2963.4 1450.43 Q2966.48 1445.82 2972.29 1445.82 Z" fill="#000000" fill-rule="nonzero" fill-opacity="1" /><path clip-path="url(#clip130)" d="M3003.03 1461.86 Q2999.88 1461.86 2998.03 1464.01 Q2996.2 1466.17 2996.2 1469.92 Q2996.2 1473.64 2998.03 1475.82 Q2999.88 1477.97 3003.03 1477.97 Q3006.18 1477.97 3008.01 1475.82 Q3009.86 1473.64 3009.86 1469.92 Q3009.86 1466.17 3008.01 1464.01 Q3006.18 1461.86 3003.03 1461.86 M3012.31 1447.21 L3012.31 1451.47 Q3010.55 1450.63 3008.75 1450.19 Q3006.96 1449.75 3005.21 1449.75 Q3000.58 1449.75 2998.12 1452.88 Q2995.69 1456 2995.34 1462.32 Q2996.71 1460.31 2998.77 1459.24 Q3000.83 1458.16 3003.31 1458.16 Q3008.52 1458.16 3011.52 1461.33 Q3014.56 1464.48 3014.56 1469.92 Q3014.56 1475.24 3011.41 1478.46 Q3008.26 1481.68 3003.03 1481.68 Q2997.03 1481.68 2993.86 1477.09 Q2990.69 1472.49 2990.69 1463.76 Q2990.69 1455.56 2994.58 1450.7 Q2998.47 1445.82 3005.02 1445.82 Q3006.78 1445.82 3008.56 1446.17 Q3010.37 1446.51 3012.31 1447.21 Z" fill="#000000" fill-rule="nonzero" fill-opacity="1" /><path clip-path="url(#clip130)" d="M3019.86 1466.12 L3032.33 1466.12 L3032.33 1469.92 L3019.86 1469.92 L3019.86 1466.12 Z" fill="#000000" fill-rule="nonzero" fill-opacity="1" /><path clip-path="url(#clip130)" d="M3049.72 1449.52 Q3046.11 1449.52 3044.28 1453.09 Q3042.47 1456.63 3042.47 1463.76 Q3042.47 1470.86 3044.28 1474.43 Q3046.11 1477.97 3049.72 1477.97 Q3053.35 1477.97 3055.16 1474.43 Q3056.99 1470.86 3056.99 1463.76 Q3056.99 1456.63 3055.16 1453.09 Q3053.35 1449.52 3049.72 1449.52 M3049.72 1445.82 Q3055.53 1445.82 3058.58 1450.43 Q3061.66 1455.01 3061.66 1463.76 Q3061.66 1472.49 3058.58 1477.09 Q3055.53 1481.68 3049.72 1481.68 Q3043.91 1481.68 3040.83 1477.09 Q3037.77 1472.49 3037.77 1463.76 Q3037.77 1455.01 3040.83 1450.43 Q3043.91 1445.82 3049.72 1445.82 Z" fill="#000000" fill-rule="nonzero" fill-opacity="1" /><path clip-path="url(#clip130)" d="M3070.69 1477.07 L3078.33 1477.07 L3078.33 1450.7 L3070.02 1452.37 L3070.02 1448.11 L3078.28 1446.44 L3082.96 1446.44 L3082.96 1477.07 L3090.6 1477.07 L3090.6 1481 L3070.69 1481 L3070.69 1477.07 Z" fill="#000000" fill-rule="nonzero" fill-opacity="1" /><path clip-path="url(#clip130)" d="M1609.01 1526.83 L1609.01 1563.78 L1616.78 1563.78 Q1626.62 1563.78 1631.17 1559.33 Q1635.75 1554.87 1635.75 1545.26 Q1635.75 1535.71 1631.17 1531.29 Q1626.62 1526.83 1616.78 1526.83 L1609.01 1526.83 M1602.58 1521.55 L1615.79 1521.55 Q1629.61 1521.55 1636.07 1527.31 Q1642.53 1533.04 1642.53 1545.26 Q1642.53 1557.55 1636.04 1563.31 Q1629.54 1569.07 1615.79 1569.07 L1602.58 1569.07 L1602.58 1521.55 Z" fill="#000000" fill-rule="nonzero" fill-opacity="1" /><path clip-path="url(#clip130)" d="M1668.72 1551.15 Q1661.63 1551.15 1658.89 1552.77 Q1656.15 1554.39 1656.15 1558.31 Q1656.15 1561.43 1658.19 1563.27 Q1660.26 1565.09 1663.79 1565.09 Q1668.66 1565.09 1671.59 1561.65 Q1674.55 1558.18 1674.55 1552.45 L1674.55 1551.15 L1668.72 1551.15 M1680.41 1548.73 L1680.41 1569.07 L1674.55 1569.07 L1674.55 1563.66 Q1672.54 1566.9 1669.55 1568.46 Q1666.56 1569.99 1662.23 1569.99 Q1656.76 1569.99 1653.51 1566.94 Q1650.3 1563.85 1650.3 1558.69 Q1650.3 1552.68 1654.31 1549.62 Q1658.35 1546.57 1666.34 1546.57 L1674.55 1546.57 L1674.55 1545.99 Q1674.55 1541.95 1671.88 1539.75 Q1669.23 1537.53 1664.43 1537.53 Q1661.37 1537.53 1658.48 1538.26 Q1655.58 1538.99 1652.91 1540.45 L1652.91 1535.04 Q1656.12 1533.8 1659.14 1533.2 Q1662.17 1532.56 1665.03 1532.56 Q1672.77 1532.56 1676.59 1536.57 Q1680.41 1540.58 1680.41 1548.73 Z" fill="#000000" fill-rule="nonzero" fill-opacity="1" /><path clip-path="url(#clip130)" d="M1698.26 1523.3 L1698.26 1533.42 L1710.32 1533.42 L1710.32 1537.97 L1698.26 1537.97 L1698.26 1557.32 Q1698.26 1561.68 1699.44 1562.92 Q1700.65 1564.17 1704.31 1564.17 L1710.32 1564.17 L1710.32 1569.07 L1704.31 1569.07 Q1697.53 1569.07 1694.95 1566.55 Q1692.37 1564.01 1692.37 1557.32 L1692.37 1537.97 L1688.08 1537.97 L1688.08 1533.42 L1692.37 1533.42 L1692.37 1523.3 L1698.26 1523.3 Z" fill="#000000" fill-rule="nonzero" fill-opacity="1" /><path clip-path="url(#clip130)" d="M1748.52 1549.78 L1748.52 1552.64 L1721.59 1552.64 Q1721.97 1558.69 1725.22 1561.87 Q1728.5 1565.03 1734.32 1565.03 Q1737.7 1565.03 1740.85 1564.2 Q1744.03 1563.37 1747.15 1561.72 L1747.15 1567.25 Q1744 1568.59 1740.69 1569.29 Q1737.38 1569.99 1733.97 1569.99 Q1725.44 1569.99 1720.45 1565.03 Q1715.48 1560.06 1715.48 1551.59 Q1715.48 1542.84 1720.19 1537.72 Q1724.93 1532.56 1732.95 1532.56 Q1740.15 1532.56 1744.32 1537.21 Q1748.52 1541.82 1748.52 1549.78 M1742.66 1548.06 Q1742.6 1543.25 1739.96 1540.39 Q1737.35 1537.53 1733.02 1537.53 Q1728.12 1537.53 1725.16 1540.29 Q1722.23 1543.06 1721.78 1548.09 L1742.66 1548.06 Z" fill="#000000" fill-rule="nonzero" fill-opacity="1" /><polyline clip-path="url(#clip132)" style="stroke:#000000; stroke-linecap:round; stroke-linejoin:round; stroke-width:2; stroke-opacity:0.1; fill:none" points="229.844,1374.46 3121.26,1374.46 "/>
<polyline clip-path="url(#clip132)" style="stroke:#000000; stroke-linecap:round; stroke-linejoin:round; stroke-width:2; stroke-opacity:0.1; fill:none" points="229.844,1040.36 3121.26,1040.36 "/>
<polyline clip-path="url(#clip132)" style="stroke:#000000; stroke-linecap:round; stroke-linejoin:round; stroke-width:2; stroke-opacity:0.1; fill:none" points="229.844,706.248 3121.26,706.248 "/>
<polyline clip-path="url(#clip132)" style="stroke:#000000; stroke-linecap:round; stroke-linejoin:round; stroke-width:2; stroke-opacity:0.1; fill:none" points="229.844,372.14 3121.26,372.14 "/>
<polyline clip-path="url(#clip130)" style="stroke:#000000; stroke-linecap:round; stroke-linejoin:round; stroke-width:4; stroke-opacity:1; fill:none" points="229.844,1412.2 229.844,78.7402 "/>
<polyline clip-path="url(#clip130)" style="stroke:#000000; stroke-linecap:round; stroke-linejoin:round; stroke-width:4; stroke-opacity:1; fill:none" points="229.844,1374.46 248.741,1374.46 "/>
<polyline clip-path="url(#clip130)" style="stroke:#000000; stroke-linecap:round; stroke-linejoin:round; stroke-width:4; stroke-opacity:1; fill:none" points="229.844,1040.36 248.741,1040.36 "/>
<polyline clip-path="url(#clip130)" style="stroke:#000000; stroke-linecap:round; stroke-linejoin:round; stroke-width:4; stroke-opacity:1; fill:none" points="229.844,706.248 248.741,706.248 "/>
<polyline clip-path="url(#clip130)" style="stroke:#000000; stroke-linecap:round; stroke-linejoin:round; stroke-width:4; stroke-opacity:1; fill:none" points="229.844,372.14 248.741,372.14 "/>
<path clip-path="url(#clip130)" d="M169.899 1360.26 Q166.288 1360.26 164.459 1363.83 Q162.654 1367.37 162.654 1374.5 Q162.654 1381.61 164.459 1385.17 Q166.288 1388.71 169.899 1388.71 Q173.533 1388.71 175.339 1385.17 Q177.168 1381.61 177.168 1374.5 Q177.168 1367.37 175.339 1363.83 Q173.533 1360.26 169.899 1360.26 M169.899 1356.56 Q175.709 1356.56 178.765 1361.17 Q181.844 1365.75 181.844 1374.5 Q181.844 1383.23 178.765 1387.83 Q175.709 1392.42 169.899 1392.42 Q164.089 1392.42 161.01 1387.83 Q157.955 1383.23 157.955 1374.5 Q157.955 1365.75 161.01 1361.17 Q164.089 1356.56 169.899 1356.56 Z" fill="#000000" fill-rule="nonzero" fill-opacity="1" /><path clip-path="url(#clip130)" d="M160.941 1023.08 L179.297 1023.08 L179.297 1027.01 L165.223 1027.01 L165.223 1035.48 Q166.242 1035.14 167.26 1034.97 Q168.279 1034.79 169.297 1034.79 Q175.084 1034.79 178.464 1037.96 Q181.844 1041.13 181.844 1046.55 Q181.844 1052.13 178.371 1055.23 Q174.899 1058.31 168.58 1058.31 Q166.404 1058.31 164.135 1057.94 Q161.89 1057.57 159.483 1056.83 L159.483 1052.13 Q161.566 1053.26 163.788 1053.82 Q166.01 1054.37 168.487 1054.37 Q172.492 1054.37 174.83 1052.27 Q177.168 1050.16 177.168 1046.55 Q177.168 1042.94 174.83 1040.83 Q172.492 1038.72 168.487 1038.72 Q166.612 1038.72 164.737 1039.14 Q162.885 1039.56 160.941 1040.44 L160.941 1023.08 Z" fill="#000000" fill-rule="nonzero" fill-opacity="1" /><path clip-path="url(#clip130)" d="M130.548 719.593 L138.186 719.593 L138.186 693.227 L129.876 694.894 L129.876 690.635 L138.14 688.968 L142.816 688.968 L142.816 719.593 L150.455 719.593 L150.455 723.528 L130.548 723.528 L130.548 719.593 Z" fill="#000000" fill-rule="nonzero" fill-opacity="1" /><path clip-path="url(#clip130)" d="M169.899 692.047 Q166.288 692.047 164.459 695.611 Q162.654 699.153 162.654 706.283 Q162.654 713.389 164.459 716.954 Q166.288 720.496 169.899 720.496 Q173.533 720.496 175.339 716.954 Q177.168 713.389 177.168 706.283 Q177.168 699.153 175.339 695.611 Q173.533 692.047 169.899 692.047 M169.899 688.343 Q175.709 688.343 178.765 692.949 Q181.844 697.533 181.844 706.283 Q181.844 715.01 178.765 719.616 Q175.709 724.199 169.899 724.199 Q164.089 724.199 161.01 719.616 Q157.955 715.01 157.955 706.283 Q157.955 697.533 161.01 692.949 Q164.089 688.343 169.899 688.343 Z" fill="#000000" fill-rule="nonzero" fill-opacity="1" /><path clip-path="url(#clip130)" d="M131.543 385.485 L139.182 385.485 L139.182 359.119 L130.872 360.786 L130.872 356.527 L139.135 354.86 L143.811 354.86 L143.811 385.485 L151.45 385.485 L151.45 389.42 L131.543 389.42 L131.543 385.485 Z" fill="#000000" fill-rule="nonzero" fill-opacity="1" /><path clip-path="url(#clip130)" d="M160.941 354.86 L179.297 354.86 L179.297 358.795 L165.223 358.795 L165.223 367.267 Q166.242 366.92 167.26 366.758 Q168.279 366.573 169.297 366.573 Q175.084 366.573 178.464 369.744 Q181.844 372.915 181.844 378.332 Q181.844 383.911 178.371 387.012 Q174.899 390.091 168.58 390.091 Q166.404 390.091 164.135 389.721 Q161.89 389.35 159.483 388.61 L159.483 383.911 Q161.566 385.045 163.788 385.6 Q166.01 386.156 168.487 386.156 Q172.492 386.156 174.83 384.05 Q177.168 381.943 177.168 378.332 Q177.168 374.721 174.83 372.614 Q172.492 370.508 168.487 370.508 Q166.612 370.508 164.737 370.925 Q162.885 371.341 160.941 372.221 L160.941 354.86 Z" fill="#000000" fill-rule="nonzero" fill-opacity="1" /><path clip-path="url(#clip130)" d="M45.3402 1073.54 Q46.0405 1071.48 48.3321 1069.53 Q50.6238 1067.56 54.6342 1065.59 L67.6202 1059.06 L67.6202 1065.97 L55.4299 1072.05 Q50.6556 1074.4 49.096 1076.63 Q47.5364 1078.83 47.5364 1082.65 L47.5364 1089.65 L67.6202 1089.65 L67.6202 1096.08 L20.1002 1096.08 L20.1002 1081.57 Q20.1002 1073.42 23.5059 1069.41 Q26.9115 1065.4 33.7865 1065.4 Q38.2743 1065.4 41.2344 1067.5 Q44.1944 1069.57 45.3402 1073.54 M25.3838 1089.65 L42.2529 1089.65 L42.2529 1081.57 Q42.2529 1076.92 40.1204 1074.56 Q37.956 1072.18 33.7865 1072.18 Q29.617 1072.18 27.5163 1074.56 Q25.3838 1076.92 25.3838 1081.57 L25.3838 1089.65 Z" fill="#000000" fill-rule="nonzero" fill-opacity="1" /><path clip-path="url(#clip130)" d="M48.3321 1023.48 L51.1967 1023.48 L51.1967 1050.41 Q57.2441 1050.02 60.427 1046.78 Q63.578 1043.5 63.578 1037.67 Q63.578 1034.3 62.7505 1031.15 Q61.9229 1027.97 60.2678 1024.85 L65.806 1024.85 Q67.1428 1028 67.843 1031.31 Q68.5432 1034.62 68.5432 1038.02 Q68.5432 1046.55 63.578 1051.55 Q58.6127 1056.52 50.1464 1056.52 Q41.3935 1056.52 36.2691 1051.81 Q31.1129 1047.06 31.1129 1039.04 Q31.1129 1031.85 35.7599 1027.68 Q40.375 1023.48 48.3321 1023.48 M46.6134 1029.33 Q41.8073 1029.4 38.9427 1032.04 Q36.0781 1034.65 36.0781 1038.98 Q36.0781 1043.88 38.8472 1046.84 Q41.6163 1049.77 46.6452 1050.21 L46.6134 1029.33 Z" fill="#000000" fill-rule="nonzero" fill-opacity="1" /><path clip-path="url(#clip130)" d="M62.273 1008.2 L81.1792 1008.2 L81.1792 1014.09 L31.9723 1014.09 L31.9723 1008.2 L37.3831 1008.2 Q34.2003 1006.35 32.6725 1003.55 Q31.1129 1000.72 31.1129 996.806 Q31.1129 990.313 36.2691 986.271 Q41.4253 982.197 49.8281 982.197 Q58.2308 982.197 63.387 986.271 Q68.5432 990.313 68.5432 996.806 Q68.5432 1000.72 67.0155 1003.55 Q65.4559 1006.35 62.273 1008.2 M49.8281 988.276 Q43.3669 988.276 39.7066 990.95 Q36.0145 993.591 36.0145 998.238 Q36.0145 1002.89 39.7066 1005.56 Q43.3669 1008.2 49.8281 1008.2 Q56.2893 1008.2 59.9814 1005.56 Q63.6417 1002.89 63.6417 998.238 Q63.6417 993.591 59.9814 990.95 Q56.2893 988.276 49.8281 988.276 Z" fill="#000000" fill-rule="nonzero" fill-opacity="1" /><path clip-path="url(#clip130)" d="M37.4468 951.832 Q36.8739 952.819 36.6192 953.997 Q36.3328 955.142 36.3328 956.543 Q36.3328 961.508 39.5793 964.182 Q42.794 966.824 48.8414 966.824 L67.6202 966.824 L67.6202 972.712 L31.9723 972.712 L31.9723 966.824 L37.5104 966.824 Q34.2639 964.977 32.7043 962.017 Q31.1129 959.057 31.1129 954.824 Q31.1129 954.219 31.2084 953.487 Q31.272 952.755 31.4312 951.864 L37.4468 951.832 Z" fill="#000000" fill-rule="nonzero" fill-opacity="1" /><path clip-path="url(#clip130)" d="M36.0781 933.308 Q36.0781 938.019 39.7703 940.756 Q43.4305 943.493 49.8281 943.493 Q56.2256 943.493 59.9177 940.788 Q63.578 938.051 63.578 933.308 Q63.578 928.629 59.8859 925.892 Q56.1938 923.155 49.8281 923.155 Q43.4942 923.155 39.8021 925.892 Q36.0781 928.629 36.0781 933.308 M31.1129 933.308 Q31.1129 925.669 36.0781 921.309 Q41.0434 916.948 49.8281 916.948 Q58.5809 916.948 63.578 921.309 Q68.5432 925.669 68.5432 933.308 Q68.5432 940.979 63.578 945.339 Q58.5809 949.668 49.8281 949.668 Q41.0434 949.668 36.0781 945.339 Q31.1129 940.979 31.1129 933.308 Z" fill="#000000" fill-rule="nonzero" fill-opacity="1" /><path clip-path="url(#clip130)" d="M37.3831 883.783 L18.095 883.783 L18.095 877.926 L67.6202 877.926 L67.6202 883.783 L62.273 883.783 Q65.4559 885.629 67.0155 888.462 Q68.5432 891.263 68.5432 895.209 Q68.5432 901.67 63.387 905.745 Q58.2308 909.787 49.8281 909.787 Q41.4253 909.787 36.2691 905.745 Q31.1129 901.67 31.1129 895.209 Q31.1129 891.263 32.6725 888.462 Q34.2003 885.629 37.3831 883.783 M49.8281 903.739 Q56.2893 903.739 59.9814 901.098 Q63.6417 898.424 63.6417 893.777 Q63.6417 889.13 59.9814 886.456 Q56.2893 883.783 49.8281 883.783 Q43.3669 883.783 39.7066 886.456 Q36.0145 889.13 36.0145 893.777 Q36.0145 898.424 39.7066 901.098 Q43.3669 903.739 49.8281 903.739 Z" fill="#000000" fill-rule="nonzero" fill-opacity="1" /><path clip-path="url(#clip130)" d="M53.552 866.468 L31.9723 866.468 L31.9723 860.612 L53.3292 860.612 Q58.3899 860.612 60.9362 858.638 Q63.4507 856.665 63.4507 852.718 Q63.4507 847.976 60.427 845.239 Q57.4033 842.469 52.1834 842.469 L31.9723 842.469 L31.9723 836.613 L67.6202 836.613 L67.6202 842.469 L62.1457 842.469 Q65.3922 844.602 66.9836 847.435 Q68.5432 850.236 68.5432 853.96 Q68.5432 860.102 64.7238 863.285 Q60.9044 866.468 53.552 866.468 M31.1129 851.732 L31.1129 851.732 Z" fill="#000000" fill-rule="nonzero" fill-opacity="1" /><path clip-path="url(#clip130)" d="M33.3409 798.896 L38.8154 798.896 Q37.4468 801.379 36.7784 803.893 Q36.0781 806.376 36.0781 808.922 Q36.0781 814.619 39.7066 817.77 Q43.3032 820.922 49.8281 820.922 Q56.3529 820.922 59.9814 817.77 Q63.578 814.619 63.578 808.922 Q63.578 806.376 62.9096 803.893 Q62.2094 801.379 60.8407 798.896 L66.2516 798.896 Q67.3974 801.347 67.9703 803.989 Q68.5432 806.599 68.5432 809.559 Q68.5432 817.611 63.4825 822.354 Q58.4218 827.096 49.8281 827.096 Q41.1071 827.096 36.11 822.322 Q31.1129 817.516 31.1129 809.177 Q31.1129 806.471 31.6858 803.893 Q32.2269 801.315 33.3409 798.896 Z" fill="#000000" fill-rule="nonzero" fill-opacity="1" /><path clip-path="url(#clip130)" d="M21.8508 782.918 L31.9723 782.918 L31.9723 770.855 L36.5237 770.855 L36.5237 782.918 L55.8755 782.918 Q60.236 782.918 61.4773 781.741 Q62.7186 780.531 62.7186 776.871 L62.7186 770.855 L67.6202 770.855 L67.6202 776.871 Q67.6202 783.65 65.1058 786.228 Q62.5595 788.807 55.8755 788.807 L36.5237 788.807 L36.5237 793.103 L31.9723 793.103 L31.9723 788.807 L21.8508 788.807 L21.8508 782.918 Z" fill="#000000" fill-rule="nonzero" fill-opacity="1" /><path clip-path="url(#clip130)" d="M31.9723 763.153 L31.9723 757.296 L67.6202 757.296 L67.6202 763.153 L31.9723 763.153 M18.095 763.153 L18.095 757.296 L25.5111 757.296 L25.5111 763.153 L18.095 763.153 Z" fill="#000000" fill-rule="nonzero" fill-opacity="1" /><path clip-path="url(#clip130)" d="M36.0781 731.229 Q36.0781 735.939 39.7703 738.677 Q43.4305 741.414 49.8281 741.414 Q56.2256 741.414 59.9177 738.708 Q63.578 735.971 63.578 731.229 Q63.578 726.55 59.8859 723.813 Q56.1938 721.075 49.8281 721.075 Q43.4942 721.075 39.8021 723.813 Q36.0781 726.55 36.0781 731.229 M31.1129 731.229 Q31.1129 723.59 36.0781 719.229 Q41.0434 714.869 49.8281 714.869 Q58.5809 714.869 63.578 719.229 Q68.5432 723.59 68.5432 731.229 Q68.5432 738.899 63.578 743.26 Q58.5809 747.589 49.8281 747.589 Q41.0434 747.589 36.0781 743.26 Q31.1129 738.899 31.1129 731.229 Z" fill="#000000" fill-rule="nonzero" fill-opacity="1" /><path clip-path="url(#clip130)" d="M46.1041 675.529 L67.6202 675.529 L67.6202 681.385 L46.2951 681.385 Q41.2344 681.385 38.7199 683.359 Q36.2055 685.332 36.2055 689.279 Q36.2055 694.021 39.2292 696.758 Q42.2529 699.496 47.4728 699.496 L67.6202 699.496 L67.6202 705.384 L31.9723 705.384 L31.9723 699.496 L37.5104 699.496 Q34.2957 697.395 32.7043 694.562 Q31.1129 691.698 31.1129 687.974 Q31.1129 681.831 34.9323 678.68 Q38.7199 675.529 46.1041 675.529 Z" fill="#000000" fill-rule="nonzero" fill-opacity="1" /><path clip-path="url(#clip130)" d="M46.1041 613.495 L67.6202 613.495 L67.6202 619.351 L46.2951 619.351 Q41.2344 619.351 38.7199 621.325 Q36.2055 623.298 36.2055 627.245 Q36.2055 631.987 39.2292 634.725 Q42.2529 637.462 47.4728 637.462 L67.6202 637.462 L67.6202 643.35 L31.9723 643.35 L31.9723 637.462 L37.5104 637.462 Q34.2957 635.361 32.7043 632.528 Q31.1129 629.664 31.1129 625.94 Q31.1129 619.797 34.9323 616.646 Q38.7199 613.495 46.1041 613.495 Z" fill="#000000" fill-rule="nonzero" fill-opacity="1" /><path clip-path="url(#clip130)" d="M53.552 602.419 L31.9723 602.419 L31.9723 596.562 L53.3292 596.562 Q58.3899 596.562 60.9362 594.589 Q63.4507 592.615 63.4507 588.669 Q63.4507 583.926 60.427 581.189 Q57.4033 578.42 52.1834 578.42 L31.9723 578.42 L31.9723 572.563 L67.6202 572.563 L67.6202 578.42 L62.1457 578.42 Q65.3922 580.552 66.9836 583.385 Q68.5432 586.186 68.5432 589.91 Q68.5432 596.053 64.7238 599.236 Q60.9044 602.419 53.552 602.419 M31.1129 587.682 L31.1129 587.682 Z" fill="#000000" fill-rule="nonzero" fill-opacity="1" /><path clip-path="url(#clip130)" d="M38.8154 532.746 Q34.8687 530.55 32.9908 527.494 Q31.1129 524.439 31.1129 520.301 Q31.1129 514.731 35.0278 511.707 Q38.9109 508.684 46.1041 508.684 L67.6202 508.684 L67.6202 514.572 L46.2951 514.572 Q41.1707 514.572 38.6881 516.386 Q36.2055 518.2 36.2055 521.924 Q36.2055 526.476 39.2292 529.118 Q42.2529 531.759 47.4728 531.759 L67.6202 531.759 L67.6202 537.648 L46.2951 537.648 Q41.1389 537.648 38.6881 539.462 Q36.2055 541.276 36.2055 545.064 Q36.2055 549.551 39.261 552.193 Q42.2847 554.835 47.4728 554.835 L67.6202 554.835 L67.6202 560.723 L31.9723 560.723 L31.9723 554.835 L37.5104 554.835 Q34.2321 552.83 32.6725 550.029 Q31.1129 547.228 31.1129 543.377 Q31.1129 539.494 33.0863 536.788 Q35.0596 534.051 38.8154 532.746 Z" fill="#000000" fill-rule="nonzero" fill-opacity="1" /><path clip-path="url(#clip130)" d="M49.8281 471.412 Q43.3669 471.412 39.7066 474.086 Q36.0145 476.728 36.0145 481.375 Q36.0145 486.022 39.7066 488.695 Q43.3669 491.337 49.8281 491.337 Q56.2893 491.337 59.9814 488.695 Q63.6417 486.022 63.6417 481.375 Q63.6417 476.728 59.9814 474.086 Q56.2893 471.412 49.8281 471.412 M37.3831 491.337 Q34.2003 489.491 32.6725 486.69 Q31.1129 483.857 31.1129 479.942 Q31.1129 473.449 36.2691 469.407 Q41.4253 465.333 49.8281 465.333 Q58.2308 465.333 63.387 469.407 Q68.5432 473.449 68.5432 479.942 Q68.5432 483.857 67.0155 486.69 Q65.4559 489.491 62.273 491.337 L67.6202 491.337 L67.6202 497.225 L18.095 497.225 L18.095 491.337 L37.3831 491.337 Z" fill="#000000" fill-rule="nonzero" fill-opacity="1" /><path clip-path="url(#clip130)" d="M48.3321 425.134 L51.1967 425.134 L51.1967 452.061 Q57.2441 451.679 60.427 448.432 Q63.578 445.154 63.578 439.329 Q63.578 435.955 62.7505 432.804 Q61.9229 429.622 60.2678 426.502 L65.806 426.502 Q67.1428 429.653 67.843 432.964 Q68.5432 436.274 68.5432 439.679 Q68.5432 448.209 63.578 453.206 Q58.6127 458.172 50.1464 458.172 Q41.3935 458.172 36.2691 453.461 Q31.1129 448.719 31.1129 440.698 Q31.1129 433.505 35.7599 429.335 Q40.375 425.134 48.3321 425.134 M46.6134 430.99 Q41.8073 431.054 38.9427 433.696 Q36.0781 436.306 36.0781 440.634 Q36.0781 445.536 38.8472 448.496 Q41.6163 451.424 46.6452 451.87 L46.6134 430.99 Z" fill="#000000" fill-rule="nonzero" fill-opacity="1" /><path clip-path="url(#clip130)" d="M37.4468 394.865 Q36.8739 395.851 36.6192 397.029 Q36.3328 398.175 36.3328 399.575 Q36.3328 404.541 39.5793 407.214 Q42.794 409.856 48.8414 409.856 L67.6202 409.856 L67.6202 415.744 L31.9723 415.744 L31.9723 409.856 L37.5104 409.856 Q34.2639 408.01 32.7043 405.05 Q31.1129 402.09 31.1129 397.857 Q31.1129 397.252 31.2084 396.52 Q31.272 395.788 31.4312 394.897 L37.4468 394.865 Z" fill="#000000" fill-rule="nonzero" fill-opacity="1" /><path clip-path="url(#clip132)" d="M311.676 1374.46 L339.229 1373.05 L366.782 1372.45 L394.335 1371.8 L421.888 1371.14 L449.441 1336.4 L476.994 1370.77 L504.547 1285.77 L532.1 1304.59 L559.653 1353.94 L587.206 1372.67 L614.76 1372.75 L642.313 1372.68 L669.866 1372.53 L697.419 1372.29 L724.972 1350.79 L752.525 1349.58 L780.078 1350.29 L807.631 1351.95 L835.184 1079.46 L862.737 979.461 L890.29 1303.53 L917.843 1112.71 L945.396 1277.55 L972.949 1182.31 L1000.5 1081.8 L1028.06 1186.68 L1055.61 1171.49 L1083.16 1145.88 L1110.71 1216.17 L1138.27 1258.28 L1165.82 1282.86 L1193.37 1292.47 L1220.93 1324.83 L1248.48 1301.85 L1276.03 1309.33 L1303.59 1303.39 L1331.14 1312.74 L1358.69 1313.1 L1386.24 1320.86 L1413.8 1335.98 L1441.35 1348.88 L1468.9 1355.4 L1496.46 1340.31 L1524.01 1353.85 L1551.56 1354.2 L1579.12 1357.58 L1606.67 1365.61 L1634.22 1358.63 L1661.78 1363.3 L1689.33 1352.68 L1716.88 1358.56 L1744.43 1360.31 L1771.99 1358.58 L1799.54 1370.93 L1827.09 1364.1 L1854.65 1365.19 L1882.2 1363.85 L1909.75 1358.96 L1937.31 1356.94 L1964.86 1366.9 L1992.41 1366.02 L2019.96 1372.36 L2047.52 1368.33 L2075.07 1362.09 L2102.62 1338.25 L2130.18 1374.11 L2157.73 1370.78 L2185.28 1374.03 L2212.84 1362.38 L2240.39 1360.76 L2267.94 1368.53 L2295.5 1367.93 L2323.05 1367.27 L2350.6 1338.97 L2378.15 1373.61 L2405.71 1373.56 L2433.26 1373.47 L2460.81 1363.66 L2488.37 1362.43 L2515.92 1373.11 L2543.47 1372.97 L2571.03 1372.79 L2598.58 1372.54 L2626.13 1372.24 L2653.68 1371.88 L2681.24 1345.7 L2708.79 1371.33 L2736.34 1371.2 L2763.9 1370.99 L2791.45 1370.7 L2819 1370.35 L2846.56 1369.95 L2874.11 1369.51 L2901.66 1369.06 L2929.22 1368.62 L2956.77 1368.19 L2984.32 1367.8 L3011.87 1367.46 L3039.43 1367.16 L3039.43 309.902 L3011.87 353.254 L2984.32 403.637 L2956.77 460.422 L2929.22 522.288 L2901.66 587.249 L2874.11 652.815 L2846.56 716.256 L2819 774.866 L2791.45 826.157 L2763.9 867.937 L2736.34 898.402 L2708.79 917.18 L2681.24 712.786 L2653.68 997.934 L2626.13 1050.8 L2598.58 1094.76 L2571.03 1130.04 L2543.47 1157.06 L2515.92 1176.53 L2488.37 1097.54 L2460.81 1125.91 L2433.26 1229.54 L2405.71 1242.95 L2378.15 1250.43 L2350.6 1088.91 L2323.05 1209.06 L2295.5 1224.17 L2267.94 1238 L2240.39 1214.45 L2212.84 1233.35 L2185.28 1311.72 L2157.73 1289.74 L2130.18 1323.38 L2102.62 1206.42 L2075.07 1274.88 L2047.52 1302.88 L2019.96 1326.03 L1992.41 1306.51 L1964.86 1313.64 L1937.31 1293.14 L1909.75 1302.53 L1882.2 1318.22 L1854.65 1325.34 L1827.09 1326.35 L1799.54 1346.06 L1771.99 1321.26 L1744.43 1327.05 L1716.88 1326.29 L1689.33 1318.88 L1661.78 1339.02 L1634.22 1332.92 L1606.67 1346.35 L1579.12 1334.35 L1551.56 1330.43 L1524.01 1330.95 L1496.46 1313 L1468.9 1334.75 L1441.35 1325.95 L1413.8 1308.69 L1386.24 1288.98 L1358.69 1278.69 L1331.14 1277.55 L1303.59 1265.04 L1276.03 1271.57 L1248.48 1261.12 L1220.93 1289.22 L1193.37 1245.34 L1165.82 1229.3 L1138.27 1192.05 L1110.71 1128.78 L1083.16 1024.33 L1055.61 1035.62 L1028.06 1029.4 L1000.5 847.791 L972.949 950.331 L945.396 1066.83 L917.843 723.516 L890.29 998.592 L862.737 178.285 L835.184 142.581 L807.631 856.672 L780.078 818.313 L752.525 802.012 L724.972 829.9 L697.419 1057.92 L669.866 1091.95 L642.313 1115 L614.76 1124.45 L587.206 1113 L559.653 902.419 L532.1 558.545 L504.547 338.718 L476.994 835.515 L449.441 498.781 L421.888 890.206 L394.335 986.657 L366.782 1081.2 L339.229 1169.05 L311.676 1374.46  Z" fill="#90ee90" fill-rule="evenodd" fill-opacity="0.5"/>
<polyline clip-path="url(#clip132)" style="stroke:#90ee90; stroke-linecap:round; stroke-linejoin:round; stroke-width:4; stroke-opacity:1; fill:none" points="311.676,1374.46 339.229,1318.78 366.782,1294.97 394.335,1269.34 421.888,1243.19 449.441,1060.13 476.994,1228.36 504.547,944.378 532.1,1035.66 559.653,1205.02 587.206,1303.58 614.76,1306.69 642.313,1304.13 669.866,1297.88 697.419,1288.65 724.972,1178.99 752.525,1168.98 780.078,1174.83 807.631,1188.6 835.184,691.161 862.737,632.615 890.29,1181.19 917.843,939.702 945.396,1186.9 972.949,1077.54 1000.5,973.226 1028.06,1113.91 1055.61,1107.83 1083.16,1088.29 1110.71,1174.84 1138.27,1227 1165.82,1257.59 1193.37,1270.22 1220.93,1308.21 1248.48,1282.6 1276.03,1291.51 1303.59,1285.23 1331.14,1296.12 1358.69,1296.84 1386.24,1305.84 1413.8,1323.23 1441.35,1338.31 1468.9,1346.01 1496.46,1327.64 1524.01,1343.45 1551.56,1343.44 1579.12,1347.19 1606.67,1357.32 1634.22,1347.28 1661.78,1352.86 1689.33,1337.71 1716.88,1344.59 1744.43,1346.1 1771.99,1342.64 1799.54,1361.5 1827.09,1348.68 1854.65,1349.2 1882.2,1345.54 1909.75,1335.91 1937.31,1330.87 1964.86,1346.71 1992.41,1343.46 2019.96,1357.08 2047.52,1344.74 2075.07,1329.03 2102.62,1284.39 2130.18,1360.61 2157.73,1344.05 2185.28,1357.45 2212.84,1315.87 2240.39,1308.02 2267.94,1325.48 2295.5,1320.51 2323.05,1315.09 2350.6,1244.18 2378.15,1340.84 2405.71,1338.81 2433.26,1335.18 2460.81,1285.24 2488.37,1275.06 2515.92,1320.81 2543.47,1315.53 2571.03,1308.2 2598.58,1298.64 2626.13,1286.72 2653.68,1272.39 2681.24,1136.95 2708.79,1250.5 2736.34,1245.41 2763.9,1237.15 2791.45,1225.83 2819,1211.92 2846.56,1196.03 2874.11,1178.84 2901.66,1161.06 2929.22,1143.45 2956.77,1126.68 2984.32,1111.29 3011.87,1097.63 3039.43,1085.88 "/>
<path clip-path="url(#clip132)" d="M311.676 1374.46 L339.229 1373.34 L366.782 1372.04 L394.335 1369.46 L421.888 1369.82 L449.441 1343.82 L476.994 1368.41 L504.547 1279.7 L532.1 1307.71 L559.653 1348.82 L587.206 1371.33 L614.76 1373.14 L642.313 1373.08 L669.866 1373.66 L697.419 1373.66 L724.972 1346.16 L752.525 1351.79 L780.078 1349.02 L807.631 1356.59 L835.184 1087.08 L862.737 960.09 L890.29 1306.54 L917.843 1121.01 L945.396 1270.49 L972.949 1179.2 L1000.5 1078.34 L1028.06 1181.79 L1055.61 1172.93 L1083.16 1149.25 L1110.71 1212.57 L1138.27 1260.03 L1165.82 1286.19 L1193.37 1289.07 L1220.93 1324.95 L1248.48 1300.89 L1276.03 1309.08 L1303.59 1302.38 L1331.14 1314.05 L1358.69 1310.82 L1386.24 1322.61 L1413.8 1333.82 L1441.35 1349.85 L1468.9 1354.03 L1496.46 1338.9 L1524.01 1353.23 L1551.56 1352.95 L1579.12 1358.42 L1606.67 1365.72 L1634.22 1359.09 L1661.78 1362.76 L1689.33 1353.25 L1716.88 1357.08 L1744.43 1359.63 L1771.99 1359.16 L1799.54 1369.09 L1827.09 1363.8 L1854.65 1364.01 L1882.2 1363.64 L1909.75 1359.8 L1937.31 1356.61 L1964.86 1366.16 L1992.41 1366.01 L2019.96 1372.27 L2047.52 1369.07 L2075.07 1361.82 L2102.62 1337.99 L2130.18 1373.82 L2157.73 1370.48 L2185.28 1373.81 L2212.84 1363.35 L2240.39 1361.05 L2267.94 1369.19 L2295.5 1367.95 L2323.05 1366.71 L2350.6 1340.73 L2378.15 1373.34 L2405.71 1372.89 L2433.26 1373.32 L2460.81 1361.64 L2488.37 1359.51 L2515.92 1373.2 L2543.47 1371.48 L2571.03 1372.11 L2598.58 1372.33 L2626.13 1368.61 L2653.68 1371.67 L2681.24 1346.29 L2708.79 1372.13 L2736.34 1371.62 L2763.9 1369.38 L2791.45 1370.46 L2819 1369.12 L2846.56 1369.96 L2874.11 1366.23 L2901.66 1370.12 L2929.22 1365.92 L2956.77 1366.42 L2984.32 1366.36 L3011.87 1367.33 L3039.43 1370.12 L3039.43 293.206 L3011.87 399.233 L2984.32 406.337 L2956.77 434.618 L2929.22 534.133 L2901.66 531.924 L2874.11 688.192 L2846.56 614.608 L2819 756.255 L2791.45 860.849 L2763.9 884.362 L2736.34 902.196 L2708.79 925.604 L2681.24 681.633 L2653.68 1008.81 L2626.13 1026.67 L2598.58 1090.39 L2571.03 1137.49 L2543.47 1179.35 L2515.92 1187.32 L2488.37 1106.13 L2460.81 1110.32 L2433.26 1233.84 L2405.71 1247.41 L2378.15 1248.13 L2350.6 1069.76 L2323.05 1213.64 L2295.5 1224.79 L2267.94 1224.31 L2240.39 1219.07 L2212.84 1235.04 L2185.28 1309.13 L2157.73 1291.96 L2130.18 1321.36 L2102.62 1206.57 L2075.07 1277.58 L2047.52 1302.6 L2019.96 1325.2 L1992.41 1306.74 L1964.86 1315.18 L1937.31 1294.34 L1909.75 1299.66 L1882.2 1318.38 L1854.65 1327.73 L1827.09 1328.56 L1799.54 1345.05 L1771.99 1321.02 L1744.43 1327.72 L1716.88 1329.02 L1689.33 1319.22 L1661.78 1339.83 L1634.22 1335.33 L1606.67 1347.12 L1579.12 1335.75 L1551.56 1330.15 L1524.01 1330.47 L1496.46 1311.21 L1468.9 1335.21 L1441.35 1325.84 L1413.8 1307.96 L1386.24 1288.03 L1358.69 1277.86 L1331.14 1276.93 L1303.59 1269.76 L1276.03 1270.57 L1248.48 1262.19 L1220.93 1293.52 L1193.37 1248.23 L1165.82 1231.02 L1138.27 1194.31 L1110.71 1132.25 L1083.16 1021.9 L1055.61 1035.95 L1028.06 1028.25 L1000.5 849.912 L972.949 942.102 L945.396 1057.39 L917.843 708.391 L890.29 1001.88 L862.737 216.327 L835.184 116.48 L807.631 902.275 L780.078 750.264 L752.525 803.402 L724.972 797.326 L697.419 1082.06 L669.866 1057.69 L642.313 1128.55 L614.76 1099.25 L587.206 1123.06 L559.653 908.707 L532.1 526.968 L504.547 378.401 L476.994 809.639 L449.441 582.646 L421.888 860.132 L394.335 991.481 L366.782 1111.17 L339.229 1167.9 L311.676 1374.46  Z" fill="#006400" fill-rule="evenodd" fill-opacity="0.5"/>
<polyline clip-path="url(#clip132)" style="stroke:#006400; stroke-linecap:round; stroke-linejoin:round; stroke-width:4; stroke-opacity:1; fill:none" points="311.676,1374.46 339.229,1317.51 366.782,1300.32 394.335,1268.21 421.888,1242.65 449.441,1068.89 476.994,1220.87 504.547,945.898 532.1,1039.05 559.653,1207.81 587.206,1301.86 614.76,1306.38 642.313,1308.1 669.866,1287.51 697.419,1293.82 724.972,1178.99 752.525,1165.78 780.078,1170.37 807.631,1194.31 835.184,690.662 862.737,624.793 890.29,1184.1 917.843,935.534 945.396,1184.51 972.949,1072.61 1000.5,972.29 1028.06,1114.01 1055.61,1110.43 1083.16,1086.55 1110.71,1172.57 1138.27,1227.62 1165.82,1258.56 1193.37,1270.78 1220.93,1310.17 1248.48,1282.28 1276.03,1290.46 1303.59,1286.66 1331.14,1297.35 1358.69,1296.02 1386.24,1305.52 1413.8,1323.43 1441.35,1338.17 1468.9,1345.78 1496.46,1327.61 1524.01,1343.57 1551.56,1343.32 1579.12,1347.92 1606.67,1357.17 1634.22,1347.11 1661.78,1353.55 1689.33,1337.42 1716.88,1344.45 1744.43,1346.86 1771.99,1342.83 1799.54,1361.03 1827.09,1348.28 1854.65,1349.58 1882.2,1346.05 1909.75,1335.22 1937.31,1330.51 1964.86,1347.51 1992.41,1344.38 2019.96,1356.9 2047.52,1346.2 2075.07,1329.2 2102.62,1284.54 2130.18,1359.98 2157.73,1343.56 2185.28,1359.23 2212.84,1317.89 2240.39,1310.93 2267.94,1325.89 2295.5,1320.67 2323.05,1316.82 2350.6,1241.09 2378.15,1338.35 2405.71,1340.81 2433.26,1336.1 2460.81,1284.71 2488.37,1271.24 2515.92,1322.55 2543.47,1316.33 2571.03,1304.74 2598.58,1297.36 2626.13,1281.45 2653.68,1276.3 2681.24,1129.18 2708.79,1255.77 2736.34,1248.46 2763.9,1239.38 2791.45,1238.24 2819,1207.79 2846.56,1192.95 2874.11,1187.25 2901.66,1159.55 2929.22,1133.43 2956.77,1132.16 2984.32,1119.47 3011.87,1105.47 3039.43,1093.19 "/>
<polyline clip-path="url(#clip132)" style="stroke:#000000; stroke-linecap:round; stroke-linejoin:round; stroke-width:4; stroke-opacity:1; fill:none" stroke-dasharray="16, 10" points="-2661.57,1307.64 6012.68,1307.64 "/>
<path clip-path="url(#clip130)" d="M2411.39 330.549 L3024.88 330.549 L3024.88 123.189 L2411.39 123.189  Z" fill="#ffffff" fill-rule="evenodd" fill-opacity="1"/>
<polyline clip-path="url(#clip130)" style="stroke:#000000; stroke-linecap:round; stroke-linejoin:round; stroke-width:4; stroke-opacity:1; fill:none" points="2411.39,330.549 3024.88,330.549 3024.88,123.189 2411.39,123.189 2411.39,330.549 "/>
<polyline clip-path="url(#clip130)" style="stroke:#90ee90; stroke-linecap:round; stroke-linejoin:round; stroke-width:4; stroke-opacity:1; fill:none" points="2443.51,175.029 2636.28,175.029 "/>
<path clip-path="url(#clip130)" d="M2684.79 176.105 Q2686.3 176.615 2687.71 178.281 Q2689.14 179.948 2690.58 182.865 L2695.32 192.309 L2690.3 192.309 L2685.88 183.443 Q2684.17 179.971 2682.55 178.837 Q2680.95 177.703 2678.17 177.703 L2673.08 177.703 L2673.08 192.309 L2668.4 192.309 L2668.4 157.749 L2678.96 157.749 Q2684.88 157.749 2687.8 160.226 Q2690.72 162.703 2690.72 167.703 Q2690.72 170.966 2689.19 173.119 Q2687.68 175.272 2684.79 176.105 M2673.08 161.592 L2673.08 173.86 L2678.96 173.86 Q2682.34 173.86 2684.05 172.309 Q2685.79 170.735 2685.79 167.703 Q2685.79 164.67 2684.05 163.142 Q2682.34 161.592 2678.96 161.592 L2673.08 161.592 Z" fill="#000000" fill-rule="nonzero" fill-opacity="1" /><path clip-path="url(#clip130)" d="M2705.37 159.022 L2705.37 166.383 L2714.14 166.383 L2714.14 169.693 L2705.37 169.693 L2705.37 183.767 Q2705.37 186.939 2706.23 187.841 Q2707.11 188.744 2709.77 188.744 L2714.14 188.744 L2714.14 192.309 L2709.77 192.309 Q2704.84 192.309 2702.96 190.48 Q2701.09 188.628 2701.09 183.767 L2701.09 169.693 L2697.96 169.693 L2697.96 166.383 L2701.09 166.383 L2701.09 159.022 L2705.37 159.022 Z" fill="#000000" fill-rule="nonzero" fill-opacity="1" /><path clip-path="url(#clip130)" d="M2745.05 156.337 Q2741.94 161.661 2740.44 166.869 Q2738.93 172.078 2738.93 177.425 Q2738.93 182.772 2740.44 188.027 Q2741.97 193.258 2745.05 198.559 L2741.34 198.559 Q2737.87 193.119 2736.13 187.865 Q2734.42 182.61 2734.42 177.425 Q2734.42 172.263 2736.13 167.031 Q2737.85 161.8 2741.34 156.337 L2745.05 156.337 Z" fill="#000000" fill-rule="nonzero" fill-opacity="1" /><path clip-path="url(#clip130)" d="M2765.09 179.277 Q2759.93 179.277 2757.94 180.457 Q2755.95 181.638 2755.95 184.485 Q2755.95 186.753 2757.43 188.096 Q2758.93 189.415 2761.5 189.415 Q2765.05 189.415 2767.17 186.915 Q2769.33 184.392 2769.33 180.226 L2769.33 179.277 L2765.09 179.277 M2773.59 177.517 L2773.59 192.309 L2769.33 192.309 L2769.33 188.374 Q2767.87 190.735 2765.69 191.869 Q2763.52 192.98 2760.37 192.98 Q2756.39 192.98 2754.03 190.758 Q2751.69 188.513 2751.69 184.763 Q2751.69 180.388 2754.61 178.166 Q2757.55 175.943 2763.36 175.943 L2769.33 175.943 L2769.33 175.527 Q2769.33 172.587 2767.38 170.99 Q2765.46 169.369 2761.97 169.369 Q2759.74 169.369 2757.64 169.902 Q2755.53 170.434 2753.59 171.499 L2753.59 167.564 Q2755.93 166.661 2758.12 166.221 Q2760.32 165.758 2762.41 165.758 Q2768.03 165.758 2770.81 168.675 Q2773.59 171.591 2773.59 177.517 Z" fill="#000000" fill-rule="nonzero" fill-opacity="1" /><path clip-path="url(#clip130)" d="M2803.91 176.661 L2803.91 192.309 L2799.65 192.309 L2799.65 176.8 Q2799.65 173.119 2798.22 171.291 Q2796.78 169.462 2793.91 169.462 Q2790.46 169.462 2788.47 171.661 Q2786.48 173.86 2786.48 177.656 L2786.48 192.309 L2782.2 192.309 L2782.2 166.383 L2786.48 166.383 L2786.48 170.411 Q2788.01 168.073 2790.07 166.916 Q2792.15 165.758 2794.86 165.758 Q2799.33 165.758 2801.62 168.536 Q2803.91 171.291 2803.91 176.661 Z" fill="#000000" fill-rule="nonzero" fill-opacity="1" /><path clip-path="url(#clip130)" d="M2824.19 179.277 Q2819.03 179.277 2817.04 180.457 Q2815.05 181.638 2815.05 184.485 Q2815.05 186.753 2816.53 188.096 Q2818.03 189.415 2820.6 189.415 Q2824.14 189.415 2826.27 186.915 Q2828.42 184.392 2828.42 180.226 L2828.42 179.277 L2824.19 179.277 M2832.68 177.517 L2832.68 192.309 L2828.42 192.309 L2828.42 188.374 Q2826.97 190.735 2824.79 191.869 Q2822.61 192.98 2819.47 192.98 Q2815.48 192.98 2813.12 190.758 Q2810.79 188.513 2810.79 184.763 Q2810.79 180.388 2813.7 178.166 Q2816.64 175.943 2822.45 175.943 L2828.42 175.943 L2828.42 175.527 Q2828.42 172.587 2826.48 170.99 Q2824.56 169.369 2821.06 169.369 Q2818.84 169.369 2816.73 169.902 Q2814.63 170.434 2812.68 171.499 L2812.68 167.564 Q2815.02 166.661 2817.22 166.221 Q2819.42 165.758 2821.5 165.758 Q2827.13 165.758 2829.91 168.675 Q2832.68 171.591 2832.68 177.517 Z" fill="#000000" fill-rule="nonzero" fill-opacity="1" /><path clip-path="url(#clip130)" d="M2841.46 156.291 L2845.72 156.291 L2845.72 192.309 L2841.46 192.309 L2841.46 156.291 Z" fill="#000000" fill-rule="nonzero" fill-opacity="1" /><path clip-path="url(#clip130)" d="M2865.42 194.716 Q2863.61 199.346 2861.9 200.758 Q2860.18 202.17 2857.31 202.17 L2853.91 202.17 L2853.91 198.605 L2856.41 198.605 Q2858.17 198.605 2859.14 197.772 Q2860.11 196.939 2861.29 193.837 L2862.06 191.892 L2851.57 166.383 L2856.09 166.383 L2864.19 186.661 L2872.29 166.383 L2876.8 166.383 L2865.42 194.716 Z" fill="#000000" fill-rule="nonzero" fill-opacity="1" /><path clip-path="url(#clip130)" d="M2886.9 159.022 L2886.9 166.383 L2895.67 166.383 L2895.67 169.693 L2886.9 169.693 L2886.9 183.767 Q2886.9 186.939 2887.75 187.841 Q2888.63 188.744 2891.29 188.744 L2895.67 188.744 L2895.67 192.309 L2891.29 192.309 Q2886.36 192.309 2884.49 190.48 Q2882.61 188.628 2882.61 183.767 L2882.61 169.693 L2879.49 169.693 L2879.49 166.383 L2882.61 166.383 L2882.61 159.022 L2886.9 159.022 Z" fill="#000000" fill-rule="nonzero" fill-opacity="1" /><path clip-path="url(#clip130)" d="M2901.27 166.383 L2905.53 166.383 L2905.53 192.309 L2901.27 192.309 L2901.27 166.383 M2901.27 156.291 L2905.53 156.291 L2905.53 161.684 L2901.27 161.684 L2901.27 156.291 Z" fill="#000000" fill-rule="nonzero" fill-opacity="1" /><path clip-path="url(#clip130)" d="M2933.1 167.379 L2933.1 171.36 Q2931.29 170.365 2929.47 169.879 Q2927.66 169.369 2925.81 169.369 Q2921.66 169.369 2919.37 172.008 Q2917.08 174.624 2917.08 179.369 Q2917.08 184.115 2919.37 186.753 Q2921.66 189.369 2925.81 189.369 Q2927.66 189.369 2929.47 188.883 Q2931.29 188.374 2933.1 187.378 L2933.1 191.314 Q2931.32 192.147 2929.4 192.564 Q2927.5 192.98 2925.35 192.98 Q2919.49 192.98 2916.04 189.3 Q2912.59 185.619 2912.59 179.369 Q2912.59 173.027 2916.06 169.392 Q2919.56 165.758 2925.62 165.758 Q2927.59 165.758 2929.47 166.175 Q2931.34 166.568 2933.1 167.379 Z" fill="#000000" fill-rule="nonzero" fill-opacity="1" /><path clip-path="url(#clip130)" d="M2952.29 179.277 Q2947.13 179.277 2945.14 180.457 Q2943.15 181.638 2943.15 184.485 Q2943.15 186.753 2944.63 188.096 Q2946.13 189.415 2948.7 189.415 Q2952.24 189.415 2954.37 186.915 Q2956.53 184.392 2956.53 180.226 L2956.53 179.277 L2952.29 179.277 M2960.79 177.517 L2960.79 192.309 L2956.53 192.309 L2956.53 188.374 Q2955.07 190.735 2952.89 191.869 Q2950.72 192.98 2947.57 192.98 Q2943.59 192.98 2941.22 190.758 Q2938.89 188.513 2938.89 184.763 Q2938.89 180.388 2941.8 178.166 Q2944.74 175.943 2950.55 175.943 L2956.53 175.943 L2956.53 175.527 Q2956.53 172.587 2954.58 170.99 Q2952.66 169.369 2949.16 169.369 Q2946.94 169.369 2944.84 169.902 Q2942.73 170.434 2940.79 171.499 L2940.79 167.564 Q2943.12 166.661 2945.32 166.221 Q2947.52 165.758 2949.6 165.758 Q2955.23 165.758 2958.01 168.675 Q2960.79 171.591 2960.79 177.517 Z" fill="#000000" fill-rule="nonzero" fill-opacity="1" /><path clip-path="url(#clip130)" d="M2969.56 156.291 L2973.82 156.291 L2973.82 192.309 L2969.56 192.309 L2969.56 156.291 Z" fill="#000000" fill-rule="nonzero" fill-opacity="1" /><path clip-path="url(#clip130)" d="M2982.06 156.337 L2985.76 156.337 Q2989.23 161.8 2990.95 167.031 Q2992.68 172.263 2992.68 177.425 Q2992.68 182.61 2990.95 187.865 Q2989.23 193.119 2985.76 198.559 L2982.06 198.559 Q2985.14 193.258 2986.64 188.027 Q2988.17 182.772 2988.17 177.425 Q2988.17 172.078 2986.64 166.869 Q2985.14 161.661 2982.06 156.337 Z" fill="#000000" fill-rule="nonzero" fill-opacity="1" /><polyline clip-path="url(#clip130)" style="stroke:#006400; stroke-linecap:round; stroke-linejoin:round; stroke-width:4; stroke-opacity:1; fill:none" points="2443.51,226.869 2636.28,226.869 "/>
<path clip-path="url(#clip130)" d="M2684.79 227.945 Q2686.3 228.455 2687.71 230.121 Q2689.14 231.788 2690.58 234.705 L2695.32 244.149 L2690.3 244.149 L2685.88 235.283 Q2684.17 231.811 2682.55 230.677 Q2680.95 229.543 2678.17 229.543 L2673.08 229.543 L2673.08 244.149 L2668.4 244.149 L2668.4 209.589 L2678.96 209.589 Q2684.88 209.589 2687.8 212.066 Q2690.72 214.543 2690.72 219.543 Q2690.72 222.806 2689.19 224.959 Q2687.68 227.112 2684.79 227.945 M2673.08 213.432 L2673.08 225.7 L2678.96 225.7 Q2682.34 225.7 2684.05 224.149 Q2685.79 222.575 2685.79 219.543 Q2685.79 216.51 2684.05 214.982 Q2682.34 213.432 2678.96 213.432 L2673.08 213.432 Z" fill="#000000" fill-rule="nonzero" fill-opacity="1" /><path clip-path="url(#clip130)" d="M2705.37 210.862 L2705.37 218.223 L2714.14 218.223 L2714.14 221.533 L2705.37 221.533 L2705.37 235.607 Q2705.37 238.779 2706.23 239.681 Q2707.11 240.584 2709.77 240.584 L2714.14 240.584 L2714.14 244.149 L2709.77 244.149 Q2704.84 244.149 2702.96 242.32 Q2701.09 240.468 2701.09 235.607 L2701.09 221.533 L2697.96 221.533 L2697.96 218.223 L2701.09 218.223 L2701.09 210.862 L2705.37 210.862 Z" fill="#000000" fill-rule="nonzero" fill-opacity="1" /><path clip-path="url(#clip130)" d="M2745.05 208.177 Q2741.94 213.501 2740.44 218.709 Q2738.93 223.918 2738.93 229.265 Q2738.93 234.612 2740.44 239.867 Q2741.97 245.098 2745.05 250.399 L2741.34 250.399 Q2737.87 244.959 2736.13 239.705 Q2734.42 234.45 2734.42 229.265 Q2734.42 224.103 2736.13 218.871 Q2737.85 213.64 2741.34 208.177 L2745.05 208.177 Z" fill="#000000" fill-rule="nonzero" fill-opacity="1" /><path clip-path="url(#clip130)" d="M2766.43 208.131 L2766.43 211.672 L2762.36 211.672 Q2760.07 211.672 2759.17 212.598 Q2758.29 213.524 2758.29 215.932 L2758.29 218.223 L2765.3 218.223 L2765.3 221.533 L2758.29 221.533 L2758.29 244.149 L2754 244.149 L2754 221.533 L2749.93 221.533 L2749.93 218.223 L2754 218.223 L2754 216.418 Q2754 212.089 2756.02 210.121 Q2758.03 208.131 2762.41 208.131 L2766.43 208.131 Z" fill="#000000" fill-rule="nonzero" fill-opacity="1" /><path clip-path="url(#clip130)" d="M2785.02 222.205 Q2784.3 221.788 2783.45 221.603 Q2782.61 221.394 2781.6 221.394 Q2777.99 221.394 2776.04 223.756 Q2774.12 226.093 2774.12 230.492 L2774.12 244.149 L2769.84 244.149 L2769.84 218.223 L2774.12 218.223 L2774.12 222.251 Q2775.46 219.89 2777.61 218.756 Q2779.77 217.598 2782.85 217.598 Q2783.29 217.598 2783.82 217.668 Q2784.35 217.714 2785 217.83 L2785.02 222.205 Z" fill="#000000" fill-rule="nonzero" fill-opacity="1" /><path clip-path="url(#clip130)" d="M2798.49 221.209 Q2795.07 221.209 2793.08 223.894 Q2791.09 226.556 2791.09 231.209 Q2791.09 235.862 2793.05 238.547 Q2795.05 241.209 2798.49 241.209 Q2801.9 241.209 2803.89 238.524 Q2805.88 235.839 2805.88 231.209 Q2805.88 226.603 2803.89 223.918 Q2801.9 221.209 2798.49 221.209 M2798.49 217.598 Q2804.05 217.598 2807.22 221.209 Q2810.39 224.82 2810.39 231.209 Q2810.39 237.575 2807.22 241.209 Q2804.05 244.82 2798.49 244.82 Q2792.92 244.82 2789.74 241.209 Q2786.6 237.575 2786.6 231.209 Q2786.6 224.82 2789.74 221.209 Q2792.92 217.598 2798.49 217.598 Z" fill="#000000" fill-rule="nonzero" fill-opacity="1" /><path clip-path="url(#clip130)" d="M2837.64 223.2 Q2839.23 220.33 2841.46 218.964 Q2843.68 217.598 2846.69 217.598 Q2850.74 217.598 2852.94 220.445 Q2855.14 223.269 2855.14 228.501 L2855.14 244.149 L2850.86 244.149 L2850.86 228.64 Q2850.86 224.913 2849.54 223.107 Q2848.22 221.302 2845.51 221.302 Q2842.2 221.302 2840.28 223.501 Q2838.36 225.7 2838.36 229.496 L2838.36 244.149 L2834.07 244.149 L2834.07 228.64 Q2834.07 224.89 2832.75 223.107 Q2831.43 221.302 2828.68 221.302 Q2825.42 221.302 2823.49 223.524 Q2821.57 225.723 2821.57 229.496 L2821.57 244.149 L2817.29 244.149 L2817.29 218.223 L2821.57 218.223 L2821.57 222.251 Q2823.03 219.867 2825.07 218.732 Q2827.11 217.598 2829.91 217.598 Q2832.73 217.598 2834.7 219.033 Q2836.69 220.469 2837.64 223.2 Z" fill="#000000" fill-rule="nonzero" fill-opacity="1" /><path clip-path="url(#clip130)" d="M2899.6 210.723 L2899.6 215.283 Q2896.94 214.01 2894.58 213.385 Q2892.22 212.76 2890.02 212.76 Q2886.2 212.76 2884.12 214.242 Q2882.06 215.723 2882.06 218.455 Q2882.06 220.746 2883.42 221.927 Q2884.81 223.084 2888.66 223.802 L2891.48 224.381 Q2896.71 225.376 2899.19 227.899 Q2901.69 230.399 2901.69 234.612 Q2901.69 239.635 2898.31 242.228 Q2894.95 244.82 2888.45 244.82 Q2885.99 244.82 2883.22 244.265 Q2880.46 243.709 2877.5 242.621 L2877.5 237.806 Q2880.35 239.404 2883.08 240.214 Q2885.81 241.024 2888.45 241.024 Q2892.45 241.024 2894.63 239.45 Q2896.8 237.876 2896.8 234.959 Q2896.8 232.413 2895.23 230.978 Q2893.68 229.543 2890.11 228.825 L2887.27 228.269 Q2882.04 227.228 2879.7 225.006 Q2877.36 222.783 2877.36 218.825 Q2877.36 214.242 2880.58 211.603 Q2883.82 208.964 2889.49 208.964 Q2891.92 208.964 2894.44 209.404 Q2896.97 209.844 2899.6 210.723 Z" fill="#000000" fill-rule="nonzero" fill-opacity="1" /><path clip-path="url(#clip130)" d="M2908.98 209.589 L2915.95 209.589 L2924.77 233.107 L2933.63 209.589 L2940.6 209.589 L2940.6 244.149 L2936.04 244.149 L2936.04 213.802 L2927.13 237.505 L2922.43 237.505 L2913.52 213.802 L2913.52 244.149 L2908.98 244.149 L2908.98 209.589 Z" fill="#000000" fill-rule="nonzero" fill-opacity="1" /><path clip-path="url(#clip130)" d="M2975.76 212.251 L2975.76 217.181 Q2973.4 214.982 2970.72 213.894 Q2968.05 212.807 2965.04 212.807 Q2959.12 212.807 2955.97 216.441 Q2952.82 220.052 2952.82 226.904 Q2952.82 233.732 2955.97 237.367 Q2959.12 240.978 2965.04 240.978 Q2968.05 240.978 2970.72 239.89 Q2973.4 238.802 2975.76 236.603 L2975.76 241.487 Q2973.31 243.154 2970.55 243.987 Q2967.82 244.82 2964.77 244.82 Q2956.92 244.82 2952.41 240.029 Q2947.89 235.214 2947.89 226.904 Q2947.89 218.57 2952.41 213.779 Q2956.92 208.964 2964.77 208.964 Q2967.87 208.964 2970.6 209.797 Q2973.35 210.607 2975.76 212.251 Z" fill="#000000" fill-rule="nonzero" fill-opacity="1" /><path clip-path="url(#clip130)" d="M2982.13 208.177 L2985.83 208.177 Q2989.3 213.64 2991.02 218.871 Q2992.75 224.103 2992.75 229.265 Q2992.75 234.45 2991.02 239.705 Q2989.3 244.959 2985.83 250.399 L2982.13 250.399 Q2985.21 245.098 2986.71 239.867 Q2988.24 234.612 2988.24 229.265 Q2988.24 223.918 2986.71 218.709 Q2985.21 213.501 2982.13 208.177 Z" fill="#000000" fill-rule="nonzero" fill-opacity="1" /><polyline clip-path="url(#clip130)" style="stroke:#000000; stroke-linecap:round; stroke-linejoin:round; stroke-width:4; stroke-opacity:1; fill:none" stroke-dasharray="16, 10" points="2443.51,278.709 2636.28,278.709 "/>
<path clip-path="url(#clip130)" d="M2684.79 279.785 Q2686.3 280.295 2687.71 281.961 Q2689.14 283.628 2690.58 286.545 L2695.32 295.989 L2690.3 295.989 L2685.88 287.123 Q2684.17 283.651 2682.55 282.517 Q2680.95 281.383 2678.17 281.383 L2673.08 281.383 L2673.08 295.989 L2668.4 295.989 L2668.4 261.429 L2678.96 261.429 Q2684.88 261.429 2687.8 263.906 Q2690.72 266.383 2690.72 271.383 Q2690.72 274.646 2689.19 276.799 Q2687.68 278.952 2684.79 279.785 M2673.08 265.272 L2673.08 277.54 L2678.96 277.54 Q2682.34 277.54 2684.05 275.989 Q2685.79 274.415 2685.79 271.383 Q2685.79 268.35 2684.05 266.822 Q2682.34 265.272 2678.96 265.272 L2673.08 265.272 Z" fill="#000000" fill-rule="nonzero" fill-opacity="1" /><path clip-path="url(#clip130)" d="M2705.37 262.702 L2705.37 270.063 L2714.14 270.063 L2714.14 273.373 L2705.37 273.373 L2705.37 287.447 Q2705.37 290.619 2706.23 291.521 Q2707.11 292.424 2709.77 292.424 L2714.14 292.424 L2714.14 295.989 L2709.77 295.989 Q2704.84 295.989 2702.96 294.16 Q2701.09 292.308 2701.09 287.447 L2701.09 273.373 L2697.96 273.373 L2697.96 270.063 L2701.09 270.063 L2701.09 262.702 L2705.37 262.702 Z" fill="#000000" fill-rule="nonzero" fill-opacity="1" /><path clip-path="url(#clip130)" d="M2735.37 274.461 L2765.05 274.461 L2765.05 278.35 L2735.37 278.35 L2735.37 274.461 M2735.37 283.906 L2765.05 283.906 L2765.05 287.841 L2735.37 287.841 L2735.37 283.906 Z" fill="#000000" fill-rule="nonzero" fill-opacity="1" /><path clip-path="url(#clip130)" d="M2791.02 292.054 L2798.66 292.054 L2798.66 265.688 L2790.35 267.355 L2790.35 263.096 L2798.61 261.429 L2803.29 261.429 L2803.29 292.054 L2810.92 292.054 L2810.92 295.989 L2791.02 295.989 L2791.02 292.054 Z" fill="#000000" fill-rule="nonzero" fill-opacity="1" /></svg>
