<?xml version="1.0" encoding="utf-8"?>
<svg xmlns="http://www.w3.org/2000/svg" xmlns:xlink="http://www.w3.org/1999/xlink" width="800" height="400" viewBox="0 0 3200 1600">
<defs>
  <clipPath id="clip830">
    <rect x="0" y="0" width="3200" height="1600"/>
  </clipPath>
</defs>
<path clip-path="url(#clip830)" d="M0 1600 L3200 1600 L3200 0 L0 0  Z" fill="#ffffff" fill-rule="evenodd" fill-opacity="1"/>
<defs>
  <clipPath id="clip831">
    <rect x="640" y="0" width="2241" height="1600"/>
  </clipPath>
</defs>
<path clip-path="url(#clip830)" d="M203.061 1412.2 L3121.26 1412.2 L3121.26 78.7402 L203.061 78.7402  Z" fill="#ffffff" fill-rule="evenodd" fill-opacity="1"/>
<defs>
  <clipPath id="clip832">
    <rect x="203" y="78" width="2919" height="1334"/>
  </clipPath>
</defs>
<polyline clip-path="url(#clip832)" style="stroke:#000000; stroke-linecap:round; stroke-linejoin:round; stroke-width:2; stroke-opacity:0.1; fill:none" points="396.885,1412.2 396.885,78.7402 "/>
<polyline clip-path="url(#clip832)" style="stroke:#000000; stroke-linecap:round; stroke-linejoin:round; stroke-width:2; stroke-opacity:0.1; fill:none" points="1258.94,1412.2 1258.94,78.7402 "/>
<polyline clip-path="url(#clip832)" style="stroke:#000000; stroke-linecap:round; stroke-linejoin:round; stroke-width:2; stroke-opacity:0.1; fill:none" points="2093.19,1412.2 2093.19,78.7402 "/>
<polyline clip-path="url(#clip832)" style="stroke:#000000; stroke-linecap:round; stroke-linejoin:round; stroke-width:2; stroke-opacity:0.1; fill:none" points="2955.24,1412.2 2955.24,78.7402 "/>
<polyline clip-path="url(#clip830)" style="stroke:#000000; stroke-linecap:round; stroke-linejoin:round; stroke-width:4; stroke-opacity:1; fill:none" points="203.061,1412.2 3121.26,1412.2 "/>
<polyline clip-path="url(#clip830)" style="stroke:#000000; stroke-linecap:round; stroke-linejoin:round; stroke-width:4; stroke-opacity:1; fill:none" points="396.885,1412.2 396.885,1393.31 "/>
<polyline clip-path="url(#clip830)" style="stroke:#000000; stroke-linecap:round; stroke-linejoin:round; stroke-width:4; stroke-opacity:1; fill:none" points="1258.94,1412.2 1258.94,1393.31 "/>
<polyline clip-path="url(#clip830)" style="stroke:#000000; stroke-linecap:round; stroke-linejoin:round; stroke-width:4; stroke-opacity:1; fill:none" points="2093.19,1412.2 2093.19,1393.31 "/>
<polyline clip-path="url(#clip830)" style="stroke:#000000; stroke-linecap:round; stroke-linejoin:round; stroke-width:4; stroke-opacity:1; fill:none" points="2955.24,1412.2 2955.24,1393.31 "/>
<path clip-path="url(#clip830)" d="M268.679 1477.07 L284.999 1477.07 L284.999 1481 L263.055 1481 L263.055 1477.07 Q265.717 1474.31 270.3 1469.68 Q274.906 1465.03 276.087 1463.69 Q278.332 1461.17 279.212 1459.43 Q280.115 1457.67 280.115 1455.98 Q280.115 1453.23 278.17 1451.49 Q276.249 1449.75 273.147 1449.75 Q270.948 1449.75 268.494 1450.52 Q266.064 1451.28 263.286 1452.83 L263.286 1448.11 Q266.11 1446.98 268.564 1446.4 Q271.017 1445.82 273.054 1445.82 Q278.425 1445.82 281.619 1448.5 Q284.814 1451.19 284.814 1455.68 Q284.814 1457.81 284.003 1459.73 Q283.216 1461.63 281.11 1464.22 Q280.531 1464.89 277.429 1468.11 Q274.328 1471.3 268.679 1477.07 Z" fill="#000000" fill-rule="nonzero" fill-opacity="1" /><path clip-path="url(#clip830)" d="M304.814 1449.52 Q301.202 1449.52 299.374 1453.09 Q297.568 1456.63 297.568 1463.76 Q297.568 1470.86 299.374 1474.43 Q301.202 1477.97 304.814 1477.97 Q308.448 1477.97 310.253 1474.43 Q312.082 1470.86 312.082 1463.76 Q312.082 1456.63 310.253 1453.09 Q308.448 1449.52 304.814 1449.52 M304.814 1445.82 Q310.624 1445.82 313.679 1450.43 Q316.758 1455.01 316.758 1463.76 Q316.758 1472.49 313.679 1477.09 Q310.624 1481.68 304.814 1481.68 Q299.003 1481.68 295.925 1477.09 Q292.869 1472.49 292.869 1463.76 Q292.869 1455.01 295.925 1450.43 Q299.003 1445.82 304.814 1445.82 Z" fill="#000000" fill-rule="nonzero" fill-opacity="1" /><path clip-path="url(#clip830)" d="M329.003 1477.07 L345.323 1477.07 L345.323 1481 L323.378 1481 L323.378 1477.07 Q326.04 1474.31 330.624 1469.68 Q335.23 1465.03 336.411 1463.69 Q338.656 1461.17 339.536 1459.43 Q340.438 1457.67 340.438 1455.98 Q340.438 1453.23 338.494 1451.49 Q336.573 1449.75 333.471 1449.75 Q331.272 1449.75 328.818 1450.52 Q326.388 1451.28 323.61 1452.83 L323.61 1448.11 Q326.434 1446.98 328.888 1446.4 Q331.341 1445.82 333.378 1445.82 Q338.749 1445.82 341.943 1448.5 Q345.137 1451.19 345.137 1455.68 Q345.137 1457.81 344.327 1459.73 Q343.54 1461.63 341.434 1464.22 Q340.855 1464.89 337.753 1468.11 Q334.651 1471.3 329.003 1477.07 Z" fill="#000000" fill-rule="nonzero" fill-opacity="1" /><path clip-path="url(#clip830)" d="M365.137 1449.52 Q361.526 1449.52 359.698 1453.09 Q357.892 1456.63 357.892 1463.76 Q357.892 1470.86 359.698 1474.43 Q361.526 1477.97 365.137 1477.97 Q368.772 1477.97 370.577 1474.43 Q372.406 1470.86 372.406 1463.76 Q372.406 1456.63 370.577 1453.09 Q368.772 1449.52 365.137 1449.52 M365.137 1445.82 Q370.947 1445.82 374.003 1450.43 Q377.082 1455.01 377.082 1463.76 Q377.082 1472.49 374.003 1477.09 Q370.947 1481.68 365.137 1481.68 Q359.327 1481.68 356.248 1477.09 Q353.193 1472.49 353.193 1463.76 Q353.193 1455.01 356.248 1450.43 Q359.327 1445.82 365.137 1445.82 Z" fill="#000000" fill-rule="nonzero" fill-opacity="1" /><path clip-path="url(#clip830)" d="M382.545 1466.12 L395.021 1466.12 L395.021 1469.92 L382.545 1469.92 L382.545 1466.12 Z" fill="#000000" fill-rule="nonzero" fill-opacity="1" /><path clip-path="url(#clip830)" d="M412.406 1449.52 Q408.794 1449.52 406.966 1453.09 Q405.16 1456.63 405.16 1463.76 Q405.16 1470.86 406.966 1474.43 Q408.794 1477.97 412.406 1477.97 Q416.04 1477.97 417.845 1474.43 Q419.674 1470.86 419.674 1463.76 Q419.674 1456.63 417.845 1453.09 Q416.04 1449.52 412.406 1449.52 M412.406 1445.82 Q418.216 1445.82 421.271 1450.43 Q424.35 1455.01 424.35 1463.76 Q424.35 1472.49 421.271 1477.09 Q418.216 1481.68 412.406 1481.68 Q406.595 1481.68 403.517 1477.09 Q400.461 1472.49 400.461 1463.76 Q400.461 1455.01 403.517 1450.43 Q406.595 1445.82 412.406 1445.82 Z" fill="#000000" fill-rule="nonzero" fill-opacity="1" /><path clip-path="url(#clip830)" d="M446.734 1462.37 Q450.091 1463.09 451.966 1465.36 Q453.864 1467.62 453.864 1470.96 Q453.864 1476.07 450.345 1478.87 Q446.827 1481.68 440.345 1481.68 Q438.169 1481.68 435.855 1481.24 Q433.563 1480.82 431.109 1479.96 L431.109 1475.45 Q433.054 1476.58 435.368 1477.16 Q437.683 1477.74 440.206 1477.74 Q444.604 1477.74 446.896 1476 Q449.211 1474.27 449.211 1470.96 Q449.211 1467.9 447.058 1466.19 Q444.929 1464.45 441.109 1464.45 L437.081 1464.45 L437.081 1460.61 L441.294 1460.61 Q444.743 1460.61 446.572 1459.24 Q448.401 1457.86 448.401 1455.26 Q448.401 1452.6 446.503 1451.19 Q444.628 1449.75 441.109 1449.75 Q439.188 1449.75 436.989 1450.17 Q434.79 1450.59 432.151 1451.47 L432.151 1447.3 Q434.813 1446.56 437.128 1446.19 Q439.466 1445.82 441.526 1445.82 Q446.85 1445.82 449.952 1448.25 Q453.054 1450.66 453.054 1454.78 Q453.054 1457.65 451.41 1459.64 Q449.766 1461.61 446.734 1462.37 Z" fill="#000000" fill-rule="nonzero" fill-opacity="1" /><path clip-path="url(#clip830)" d="M459.975 1466.12 L472.452 1466.12 L472.452 1469.92 L459.975 1469.92 L459.975 1466.12 Z" fill="#000000" fill-rule="nonzero" fill-opacity="1" /><path clip-path="url(#clip830)" d="M489.836 1449.52 Q486.225 1449.52 484.396 1453.09 Q482.59 1456.63 482.59 1463.76 Q482.59 1470.86 484.396 1474.43 Q486.225 1477.97 489.836 1477.97 Q493.47 1477.97 495.276 1474.43 Q497.104 1470.86 497.104 1463.76 Q497.104 1456.63 495.276 1453.09 Q493.47 1449.52 489.836 1449.52 M489.836 1445.82 Q495.646 1445.82 498.701 1450.43 Q501.78 1455.01 501.78 1463.76 Q501.78 1472.49 498.701 1477.09 Q495.646 1481.68 489.836 1481.68 Q484.026 1481.68 480.947 1477.09 Q477.891 1472.49 477.891 1463.76 Q477.891 1455.01 480.947 1450.43 Q484.026 1445.82 489.836 1445.82 Z" fill="#000000" fill-rule="nonzero" fill-opacity="1" /><path clip-path="url(#clip830)" d="M510.808 1477.07 L518.447 1477.07 L518.447 1450.7 L510.137 1452.37 L510.137 1448.11 L518.4 1446.44 L523.076 1446.44 L523.076 1477.07 L530.715 1477.07 L530.715 1481 L510.808 1481 L510.808 1477.07 Z" fill="#000000" fill-rule="nonzero" fill-opacity="1" /><path clip-path="url(#clip830)" d="M1130.74 1477.07 L1147.05 1477.07 L1147.05 1481 L1125.11 1481 L1125.11 1477.07 Q1127.77 1474.31 1132.36 1469.68 Q1136.96 1465.03 1138.14 1463.69 Q1140.39 1461.17 1141.27 1459.43 Q1142.17 1457.67 1142.17 1455.98 Q1142.17 1453.23 1140.23 1451.49 Q1138.3 1449.75 1135.2 1449.75 Q1133 1449.75 1130.55 1450.52 Q1128.12 1451.28 1125.34 1452.83 L1125.34 1448.11 Q1128.17 1446.98 1130.62 1446.4 Q1133.07 1445.82 1135.11 1445.82 Q1140.48 1445.82 1143.68 1448.5 Q1146.87 1451.19 1146.87 1455.68 Q1146.87 1457.81 1146.06 1459.73 Q1145.27 1461.63 1143.17 1464.22 Q1142.59 1464.89 1139.49 1468.11 Q1136.38 1471.3 1130.74 1477.07 Z" fill="#000000" fill-rule="nonzero" fill-opacity="1" /><path clip-path="url(#clip830)" d="M1166.87 1449.52 Q1163.26 1449.52 1161.43 1453.09 Q1159.62 1456.63 1159.62 1463.76 Q1159.62 1470.86 1161.43 1474.43 Q1163.26 1477.97 1166.87 1477.97 Q1170.5 1477.97 1172.31 1474.43 Q1174.14 1470.86 1174.14 1463.76 Q1174.14 1456.63 1172.31 1453.09 Q1170.5 1449.52 1166.87 1449.52 M1166.87 1445.82 Q1172.68 1445.82 1175.74 1450.43 Q1178.81 1455.01 1178.81 1463.76 Q1178.81 1472.49 1175.74 1477.09 Q1172.68 1481.68 1166.87 1481.68 Q1161.06 1481.68 1157.98 1477.09 Q1154.93 1472.49 1154.93 1463.76 Q1154.93 1455.01 1157.98 1450.43 Q1161.06 1445.82 1166.87 1445.82 Z" fill="#000000" fill-rule="nonzero" fill-opacity="1" /><path clip-path="url(#clip830)" d="M1191.06 1477.07 L1207.38 1477.07 L1207.38 1481 L1185.43 1481 L1185.43 1477.07 Q1188.1 1474.31 1192.68 1469.68 Q1197.29 1465.03 1198.47 1463.69 Q1200.71 1461.17 1201.59 1459.43 Q1202.49 1457.67 1202.49 1455.98 Q1202.49 1453.23 1200.55 1451.49 Q1198.63 1449.75 1195.53 1449.75 Q1193.33 1449.75 1190.87 1450.52 Q1188.44 1451.28 1185.67 1452.83 L1185.67 1448.11 Q1188.49 1446.98 1190.94 1446.4 Q1193.4 1445.82 1195.43 1445.82 Q1200.8 1445.82 1204 1448.5 Q1207.19 1451.19 1207.19 1455.68 Q1207.19 1457.81 1206.38 1459.73 Q1205.6 1461.63 1203.49 1464.22 Q1202.91 1464.89 1199.81 1468.11 Q1196.71 1471.3 1191.06 1477.07 Z" fill="#000000" fill-rule="nonzero" fill-opacity="1" /><path clip-path="url(#clip830)" d="M1227.19 1449.52 Q1223.58 1449.52 1221.75 1453.09 Q1219.95 1456.63 1219.95 1463.76 Q1219.95 1470.86 1221.75 1474.43 Q1223.58 1477.97 1227.19 1477.97 Q1230.83 1477.97 1232.63 1474.43 Q1234.46 1470.86 1234.46 1463.76 Q1234.46 1456.63 1232.63 1453.09 Q1230.83 1449.52 1227.19 1449.52 M1227.19 1445.82 Q1233 1445.82 1236.06 1450.43 Q1239.14 1455.01 1239.14 1463.76 Q1239.14 1472.49 1236.06 1477.09 Q1233 1481.68 1227.19 1481.68 Q1221.38 1481.68 1218.3 1477.09 Q1215.25 1472.49 1215.25 1463.76 Q1215.25 1455.01 1218.3 1450.43 Q1221.38 1445.82 1227.19 1445.82 Z" fill="#000000" fill-rule="nonzero" fill-opacity="1" /><path clip-path="url(#clip830)" d="M1244.6 1466.12 L1257.08 1466.12 L1257.08 1469.92 L1244.6 1469.92 L1244.6 1466.12 Z" fill="#000000" fill-rule="nonzero" fill-opacity="1" /><path clip-path="url(#clip830)" d="M1274.46 1449.52 Q1270.85 1449.52 1269.02 1453.09 Q1267.22 1456.63 1267.22 1463.76 Q1267.22 1470.86 1269.02 1474.43 Q1270.85 1477.97 1274.46 1477.97 Q1278.1 1477.97 1279.9 1474.43 Q1281.73 1470.86 1281.73 1463.76 Q1281.73 1456.63 1279.9 1453.09 Q1278.1 1449.52 1274.46 1449.52 M1274.46 1445.82 Q1280.27 1445.82 1283.33 1450.43 Q1286.41 1455.01 1286.41 1463.76 Q1286.41 1472.49 1283.33 1477.09 Q1280.27 1481.68 1274.46 1481.68 Q1268.65 1481.68 1265.57 1477.09 Q1262.52 1472.49 1262.52 1463.76 Q1262.52 1455.01 1265.57 1450.43 Q1268.65 1445.82 1274.46 1445.82 Z" fill="#000000" fill-rule="nonzero" fill-opacity="1" /><path clip-path="url(#clip830)" d="M1307.47 1450.52 L1295.67 1468.97 L1307.47 1468.97 L1307.47 1450.52 M1306.24 1446.44 L1312.12 1446.44 L1312.12 1468.97 L1317.05 1468.97 L1317.05 1472.86 L1312.12 1472.86 L1312.12 1481 L1307.47 1481 L1307.47 1472.86 L1291.87 1472.86 L1291.87 1468.34 L1306.24 1446.44 Z" fill="#000000" fill-rule="nonzero" fill-opacity="1" /><path clip-path="url(#clip830)" d="M1322.03 1466.12 L1334.51 1466.12 L1334.51 1469.92 L1322.03 1469.92 L1322.03 1466.12 Z" fill="#000000" fill-rule="nonzero" fill-opacity="1" /><path clip-path="url(#clip830)" d="M1351.89 1449.52 Q1348.28 1449.52 1346.45 1453.09 Q1344.65 1456.63 1344.65 1463.76 Q1344.65 1470.86 1346.45 1474.43 Q1348.28 1477.97 1351.89 1477.97 Q1355.53 1477.97 1357.33 1474.43 Q1359.16 1470.86 1359.16 1463.76 Q1359.16 1456.63 1357.33 1453.09 Q1355.53 1449.52 1351.89 1449.52 M1351.89 1445.82 Q1357.7 1445.82 1360.76 1450.43 Q1363.84 1455.01 1363.84 1463.76 Q1363.84 1472.49 1360.76 1477.09 Q1357.7 1481.68 1351.89 1481.68 Q1346.08 1481.68 1343 1477.09 Q1339.95 1472.49 1339.95 1463.76 Q1339.95 1455.01 1343 1450.43 Q1346.08 1445.82 1351.89 1445.82 Z" fill="#000000" fill-rule="nonzero" fill-opacity="1" /><path clip-path="url(#clip830)" d="M1372.86 1477.07 L1380.5 1477.07 L1380.5 1450.7 L1372.19 1452.37 L1372.19 1448.11 L1380.46 1446.44 L1385.13 1446.44 L1385.13 1477.07 L1392.77 1477.07 L1392.77 1481 L1372.86 1481 L1372.86 1477.07 Z" fill="#000000" fill-rule="nonzero" fill-opacity="1" /><path clip-path="url(#clip830)" d="M1964.98 1477.07 L1981.3 1477.07 L1981.3 1481 L1959.36 1481 L1959.36 1477.07 Q1962.02 1474.31 1966.6 1469.68 Q1971.21 1465.03 1972.39 1463.69 Q1974.64 1461.17 1975.52 1459.43 Q1976.42 1457.67 1976.42 1455.98 Q1976.42 1453.23 1974.47 1451.49 Q1972.55 1449.75 1969.45 1449.75 Q1967.25 1449.75 1964.8 1450.52 Q1962.37 1451.28 1959.59 1452.83 L1959.59 1448.11 Q1962.41 1446.98 1964.87 1446.4 Q1967.32 1445.82 1969.36 1445.82 Q1974.73 1445.82 1977.92 1448.5 Q1981.12 1451.19 1981.12 1455.68 Q1981.12 1457.81 1980.31 1459.73 Q1979.52 1461.63 1977.41 1464.22 Q1976.84 1464.89 1973.73 1468.11 Q1970.63 1471.3 1964.98 1477.07 Z" fill="#000000" fill-rule="nonzero" fill-opacity="1" /><path clip-path="url(#clip830)" d="M2001.12 1449.52 Q1997.51 1449.52 1995.68 1453.09 Q1993.87 1456.63 1993.87 1463.76 Q1993.87 1470.86 1995.68 1474.43 Q1997.51 1477.97 2001.12 1477.97 Q2004.75 1477.97 2006.56 1474.43 Q2008.39 1470.86 2008.39 1463.76 Q2008.39 1456.63 2006.56 1453.09 Q2004.75 1449.52 2001.12 1449.52 M2001.12 1445.82 Q2006.93 1445.82 2009.98 1450.43 Q2013.06 1455.01 2013.06 1463.76 Q2013.06 1472.49 2009.98 1477.09 Q2006.93 1481.68 2001.12 1481.68 Q1995.31 1481.68 1992.23 1477.09 Q1989.17 1472.49 1989.17 1463.76 Q1989.17 1455.01 1992.23 1450.43 Q1995.31 1445.82 2001.12 1445.82 Z" fill="#000000" fill-rule="nonzero" fill-opacity="1" /><path clip-path="url(#clip830)" d="M2025.31 1477.07 L2041.63 1477.07 L2041.63 1481 L2019.68 1481 L2019.68 1477.07 Q2022.34 1474.31 2026.93 1469.68 Q2031.53 1465.03 2032.71 1463.69 Q2034.96 1461.17 2035.84 1459.43 Q2036.74 1457.67 2036.74 1455.98 Q2036.74 1453.23 2034.8 1451.49 Q2032.88 1449.75 2029.77 1449.75 Q2027.58 1449.75 2025.12 1450.52 Q2022.69 1451.28 2019.91 1452.83 L2019.91 1448.11 Q2022.74 1446.98 2025.19 1446.4 Q2027.64 1445.82 2029.68 1445.82 Q2035.05 1445.82 2038.25 1448.5 Q2041.44 1451.19 2041.44 1455.68 Q2041.44 1457.81 2040.63 1459.73 Q2039.84 1461.63 2037.74 1464.22 Q2037.16 1464.89 2034.06 1468.11 Q2030.96 1471.3 2025.31 1477.07 Z" fill="#000000" fill-rule="nonzero" fill-opacity="1" /><path clip-path="url(#clip830)" d="M2061.44 1449.52 Q2057.83 1449.52 2056 1453.09 Q2054.2 1456.63 2054.2 1463.76 Q2054.2 1470.86 2056 1474.43 Q2057.83 1477.97 2061.44 1477.97 Q2065.08 1477.97 2066.88 1474.43 Q2068.71 1470.86 2068.71 1463.76 Q2068.71 1456.63 2066.88 1453.09 Q2065.08 1449.52 2061.44 1449.52 M2061.44 1445.82 Q2067.25 1445.82 2070.31 1450.43 Q2073.39 1455.01 2073.39 1463.76 Q2073.39 1472.49 2070.31 1477.09 Q2067.25 1481.68 2061.44 1481.68 Q2055.63 1481.68 2052.55 1477.09 Q2049.5 1472.49 2049.5 1463.76 Q2049.5 1455.01 2052.55 1450.43 Q2055.63 1445.82 2061.44 1445.82 Z" fill="#000000" fill-rule="nonzero" fill-opacity="1" /><path clip-path="url(#clip830)" d="M2078.85 1466.12 L2091.33 1466.12 L2091.33 1469.92 L2078.85 1469.92 L2078.85 1466.12 Z" fill="#000000" fill-rule="nonzero" fill-opacity="1" /><path clip-path="url(#clip830)" d="M2108.71 1449.52 Q2105.1 1449.52 2103.27 1453.09 Q2101.46 1456.63 2101.46 1463.76 Q2101.46 1470.86 2103.27 1474.43 Q2105.1 1477.97 2108.71 1477.97 Q2112.34 1477.97 2114.15 1474.43 Q2115.98 1470.86 2115.98 1463.76 Q2115.98 1456.63 2114.15 1453.09 Q2112.34 1449.52 2108.71 1449.52 M2108.71 1445.82 Q2114.52 1445.82 2117.57 1450.43 Q2120.65 1455.01 2120.65 1463.76 Q2120.65 1472.49 2117.57 1477.09 Q2114.52 1481.68 2108.71 1481.68 Q2102.9 1481.68 2099.82 1477.09 Q2096.76 1472.49 2096.76 1463.76 Q2096.76 1455.01 2099.82 1450.43 Q2102.9 1445.82 2108.71 1445.82 Z" fill="#000000" fill-rule="nonzero" fill-opacity="1" /><path clip-path="url(#clip830)" d="M2128.92 1446.44 L2147.27 1446.44 L2147.27 1450.38 L2133.2 1450.38 L2133.2 1458.85 Q2134.22 1458.5 2135.24 1458.34 Q2136.26 1458.16 2137.27 1458.16 Q2143.06 1458.16 2146.44 1461.33 Q2149.82 1464.5 2149.82 1469.92 Q2149.82 1475.49 2146.35 1478.6 Q2142.88 1481.68 2136.56 1481.68 Q2134.38 1481.68 2132.11 1481.3 Q2129.87 1480.93 2127.46 1480.19 L2127.46 1475.49 Q2129.54 1476.63 2131.76 1477.18 Q2133.99 1477.74 2136.46 1477.74 Q2140.47 1477.74 2142.81 1475.63 Q2145.14 1473.53 2145.14 1469.92 Q2145.14 1466.3 2142.81 1464.2 Q2140.47 1462.09 2136.46 1462.09 Q2134.59 1462.09 2132.71 1462.51 Q2130.86 1462.93 2128.92 1463.8 L2128.92 1446.44 Z" fill="#000000" fill-rule="nonzero" fill-opacity="1" /><path clip-path="url(#clip830)" d="M2156.28 1466.12 L2168.76 1466.12 L2168.76 1469.92 L2156.28 1469.92 L2156.28 1466.12 Z" fill="#000000" fill-rule="nonzero" fill-opacity="1" /><path clip-path="url(#clip830)" d="M2186.14 1449.52 Q2182.53 1449.52 2180.7 1453.09 Q2178.89 1456.63 2178.89 1463.76 Q2178.89 1470.86 2180.7 1474.43 Q2182.53 1477.97 2186.14 1477.97 Q2189.77 1477.97 2191.58 1474.43 Q2193.41 1470.86 2193.41 1463.76 Q2193.41 1456.63 2191.58 1453.09 Q2189.77 1449.52 2186.14 1449.52 M2186.14 1445.82 Q2191.95 1445.82 2195.01 1450.43 Q2198.08 1455.01 2198.08 1463.76 Q2198.08 1472.49 2195.01 1477.09 Q2191.95 1481.68 2186.14 1481.68 Q2180.33 1481.68 2177.25 1477.09 Q2174.2 1472.49 2174.2 1463.76 Q2174.2 1455.01 2177.25 1450.43 Q2180.33 1445.82 2186.14 1445.82 Z" fill="#000000" fill-rule="nonzero" fill-opacity="1" /><path clip-path="url(#clip830)" d="M2207.11 1477.07 L2214.75 1477.07 L2214.75 1450.7 L2206.44 1452.37 L2206.44 1448.11 L2214.7 1446.44 L2219.38 1446.44 L2219.38 1477.07 L2227.02 1477.07 L2227.02 1481 L2207.11 1481 L2207.11 1477.07 Z" fill="#000000" fill-rule="nonzero" fill-opacity="1" /><path clip-path="url(#clip830)" d="M2827.04 1477.07 L2843.36 1477.07 L2843.36 1481 L2821.41 1481 L2821.41 1477.07 Q2824.08 1474.31 2828.66 1469.68 Q2833.27 1465.03 2834.45 1463.69 Q2836.69 1461.17 2837.57 1459.43 Q2838.47 1457.67 2838.47 1455.98 Q2838.47 1453.23 2836.53 1451.49 Q2834.61 1449.75 2831.51 1449.75 Q2829.31 1449.75 2826.85 1450.52 Q2824.42 1451.28 2821.65 1452.83 L2821.65 1448.11 Q2824.47 1446.98 2826.92 1446.4 Q2829.38 1445.82 2831.41 1445.82 Q2836.78 1445.82 2839.98 1448.5 Q2843.17 1451.19 2843.17 1455.68 Q2843.17 1457.81 2842.36 1459.73 Q2841.58 1461.63 2839.47 1464.22 Q2838.89 1464.89 2835.79 1468.11 Q2832.69 1471.3 2827.04 1477.07 Z" fill="#000000" fill-rule="nonzero" fill-opacity="1" /><path clip-path="url(#clip830)" d="M2863.17 1449.52 Q2859.56 1449.52 2857.73 1453.09 Q2855.93 1456.63 2855.93 1463.76 Q2855.93 1470.86 2857.73 1474.43 Q2859.56 1477.97 2863.17 1477.97 Q2866.81 1477.97 2868.61 1474.43 Q2870.44 1470.86 2870.44 1463.76 Q2870.44 1456.63 2868.61 1453.09 Q2866.81 1449.52 2863.17 1449.52 M2863.17 1445.82 Q2868.98 1445.82 2872.04 1450.43 Q2875.12 1455.01 2875.12 1463.76 Q2875.12 1472.49 2872.04 1477.09 Q2868.98 1481.68 2863.17 1481.68 Q2857.36 1481.68 2854.28 1477.09 Q2851.23 1472.49 2851.23 1463.76 Q2851.23 1455.01 2854.28 1450.43 Q2857.36 1445.82 2863.17 1445.82 Z" fill="#000000" fill-rule="nonzero" fill-opacity="1" /><path clip-path="url(#clip830)" d="M2887.36 1477.07 L2903.68 1477.07 L2903.68 1481 L2881.74 1481 L2881.74 1477.07 Q2884.4 1474.31 2888.98 1469.68 Q2893.59 1465.03 2894.77 1463.69 Q2897.02 1461.17 2897.9 1459.43 Q2898.8 1457.67 2898.8 1455.98 Q2898.8 1453.23 2896.85 1451.49 Q2894.93 1449.75 2891.83 1449.75 Q2889.63 1449.75 2887.18 1450.52 Q2884.75 1451.28 2881.97 1452.83 L2881.97 1448.11 Q2884.79 1446.98 2887.25 1446.4 Q2889.7 1445.82 2891.74 1445.82 Q2897.11 1445.82 2900.3 1448.5 Q2903.5 1451.19 2903.5 1455.68 Q2903.5 1457.81 2902.69 1459.73 Q2901.9 1461.63 2899.79 1464.22 Q2899.21 1464.89 2896.11 1468.11 Q2893.01 1471.3 2887.36 1477.07 Z" fill="#000000" fill-rule="nonzero" fill-opacity="1" /><path clip-path="url(#clip830)" d="M2923.5 1449.52 Q2919.89 1449.52 2918.06 1453.09 Q2916.25 1456.63 2916.25 1463.76 Q2916.25 1470.86 2918.06 1474.43 Q2919.89 1477.97 2923.5 1477.97 Q2927.13 1477.97 2928.94 1474.43 Q2930.77 1470.86 2930.77 1463.76 Q2930.77 1456.63 2928.94 1453.09 Q2927.13 1449.52 2923.5 1449.52 M2923.5 1445.82 Q2929.31 1445.82 2932.36 1450.43 Q2935.44 1455.01 2935.44 1463.76 Q2935.44 1472.49 2932.36 1477.09 Q2929.31 1481.68 2923.5 1481.68 Q2917.69 1481.68 2914.61 1477.09 Q2911.55 1472.49 2911.55 1463.76 Q2911.55 1455.01 2914.61 1450.43 Q2917.69 1445.82 2923.5 1445.82 Z" fill="#000000" fill-rule="nonzero" fill-opacity="1" /><path clip-path="url(#clip830)" d="M2940.9 1466.12 L2953.38 1466.12 L2953.38 1469.92 L2940.9 1469.92 L2940.9 1466.12 Z" fill="#000000" fill-rule="nonzero" fill-opacity="1" /><path clip-path="url(#clip830)" d="M2970.77 1449.52 Q2967.15 1449.52 2965.33 1453.09 Q2963.52 1456.63 2963.52 1463.76 Q2963.52 1470.86 2965.33 1474.43 Q2967.15 1477.97 2970.77 1477.97 Q2974.4 1477.97 2976.21 1474.43 Q2978.03 1470.86 2978.03 1463.76 Q2978.03 1456.63 2976.21 1453.09 Q2974.4 1449.52 2970.77 1449.52 M2970.77 1445.82 Q2976.58 1445.82 2979.63 1450.43 Q2982.71 1455.01 2982.71 1463.76 Q2982.71 1472.49 2979.63 1477.09 Q2976.58 1481.68 2970.77 1481.68 Q2964.96 1481.68 2961.88 1477.09 Q2958.82 1472.49 2958.82 1463.76 Q2958.82 1455.01 2961.88 1450.43 Q2964.96 1445.82 2970.77 1445.82 Z" fill="#000000" fill-rule="nonzero" fill-opacity="1" /><path clip-path="url(#clip830)" d="M3001.51 1461.86 Q2998.36 1461.86 2996.51 1464.01 Q2994.68 1466.17 2994.68 1469.92 Q2994.68 1473.64 2996.51 1475.82 Q2998.36 1477.97 3001.51 1477.97 Q3004.65 1477.97 3006.48 1475.82 Q3008.33 1473.64 3008.33 1469.92 Q3008.33 1466.17 3006.48 1464.01 Q3004.65 1461.86 3001.51 1461.86 M3010.79 1447.21 L3010.79 1451.47 Q3009.03 1450.63 3007.22 1450.19 Q3005.44 1449.75 3003.68 1449.75 Q2999.05 1449.75 2996.6 1452.88 Q2994.17 1456 2993.82 1462.32 Q2995.19 1460.31 2997.25 1459.24 Q2999.31 1458.16 3001.78 1458.16 Q3006.99 1458.16 3010 1461.33 Q3013.03 1464.48 3013.03 1469.92 Q3013.03 1475.24 3009.89 1478.46 Q3006.74 1481.68 3001.51 1481.68 Q2995.51 1481.68 2992.34 1477.09 Q2989.17 1472.49 2989.17 1463.76 Q2989.17 1455.56 2993.06 1450.7 Q2996.95 1445.82 3003.5 1445.82 Q3005.26 1445.82 3007.04 1446.17 Q3008.84 1446.51 3010.79 1447.21 Z" fill="#000000" fill-rule="nonzero" fill-opacity="1" /><path clip-path="url(#clip830)" d="M3018.33 1466.12 L3030.81 1466.12 L3030.81 1469.92 L3018.33 1469.92 L3018.33 1466.12 Z" fill="#000000" fill-rule="nonzero" fill-opacity="1" /><path clip-path="url(#clip830)" d="M3048.2 1449.52 Q3044.58 1449.52 3042.76 1453.09 Q3040.95 1456.63 3040.95 1463.76 Q3040.95 1470.86 3042.76 1474.43 Q3044.58 1477.97 3048.2 1477.97 Q3051.83 1477.97 3053.64 1474.43 Q3055.46 1470.86 3055.46 1463.76 Q3055.46 1456.63 3053.64 1453.09 Q3051.83 1449.52 3048.2 1449.52 M3048.2 1445.82 Q3054.01 1445.82 3057.06 1450.43 Q3060.14 1455.01 3060.14 1463.76 Q3060.14 1472.49 3057.06 1477.09 Q3054.01 1481.68 3048.2 1481.68 Q3042.39 1481.68 3039.31 1477.09 Q3036.25 1472.49 3036.25 1463.76 Q3036.25 1455.01 3039.31 1450.43 Q3042.39 1445.82 3048.2 1445.82 Z" fill="#000000" fill-rule="nonzero" fill-opacity="1" /><path clip-path="url(#clip830)" d="M3069.17 1477.07 L3076.81 1477.07 L3076.81 1450.7 L3068.5 1452.37 L3068.5 1448.11 L3076.76 1446.44 L3081.44 1446.44 L3081.44 1477.07 L3089.07 1477.07 L3089.07 1481 L3069.17 1481 L3069.17 1477.07 Z" fill="#000000" fill-rule="nonzero" fill-opacity="1" /><path clip-path="url(#clip830)" d="M1595.62 1526.83 L1595.62 1563.78 L1603.39 1563.78 Q1613.22 1563.78 1617.78 1559.33 Q1622.36 1554.87 1622.36 1545.26 Q1622.36 1535.71 1617.78 1531.29 Q1613.22 1526.83 1603.39 1526.83 L1595.62 1526.83 M1589.19 1521.55 L1602.4 1521.55 Q1616.22 1521.55 1622.68 1527.31 Q1629.14 1533.04 1629.14 1545.26 Q1629.14 1557.55 1622.65 1563.31 Q1616.15 1569.07 1602.4 1569.07 L1589.19 1569.07 L1589.19 1521.55 Z" fill="#000000" fill-rule="nonzero" fill-opacity="1" /><path clip-path="url(#clip830)" d="M1655.33 1551.15 Q1648.24 1551.15 1645.5 1552.77 Q1642.76 1554.39 1642.76 1558.31 Q1642.76 1561.43 1644.8 1563.27 Q1646.87 1565.09 1650.4 1565.09 Q1655.27 1565.09 1658.2 1561.65 Q1661.16 1558.18 1661.16 1552.45 L1661.16 1551.15 L1655.33 1551.15 M1667.01 1548.73 L1667.01 1569.07 L1661.16 1569.07 L1661.16 1563.66 Q1659.15 1566.9 1656.16 1568.46 Q1653.17 1569.99 1648.84 1569.99 Q1643.37 1569.99 1640.12 1566.94 Q1636.9 1563.85 1636.9 1558.69 Q1636.9 1552.68 1640.92 1549.62 Q1644.96 1546.57 1652.95 1546.57 L1661.16 1546.57 L1661.16 1545.99 Q1661.16 1541.95 1658.48 1539.75 Q1655.84 1537.53 1651.04 1537.53 Q1647.98 1537.53 1645.08 1538.26 Q1642.19 1538.99 1639.51 1540.45 L1639.51 1535.04 Q1642.73 1533.8 1645.75 1533.2 Q1648.78 1532.56 1651.64 1532.56 Q1659.38 1532.56 1663.19 1536.57 Q1667.01 1540.58 1667.01 1548.73 Z" fill="#000000" fill-rule="nonzero" fill-opacity="1" /><path clip-path="url(#clip830)" d="M1684.87 1523.3 L1684.87 1533.42 L1696.93 1533.42 L1696.93 1537.97 L1684.87 1537.97 L1684.87 1557.32 Q1684.87 1561.68 1686.05 1562.92 Q1687.26 1564.17 1690.92 1564.17 L1696.93 1564.17 L1696.93 1569.07 L1690.92 1569.07 Q1684.14 1569.07 1681.56 1566.55 Q1678.98 1564.01 1678.98 1557.32 L1678.98 1537.97 L1674.69 1537.97 L1674.69 1533.42 L1678.98 1533.42 L1678.98 1523.3 L1684.87 1523.3 Z" fill="#000000" fill-rule="nonzero" fill-opacity="1" /><path clip-path="url(#clip830)" d="M1735.13 1549.78 L1735.13 1552.64 L1708.2 1552.64 Q1708.58 1558.69 1711.83 1561.87 Q1715.11 1565.03 1720.93 1565.03 Q1724.31 1565.03 1727.46 1564.2 Q1730.64 1563.37 1733.76 1561.72 L1733.76 1567.25 Q1730.61 1568.59 1727.3 1569.29 Q1723.99 1569.99 1720.58 1569.99 Q1712.05 1569.99 1707.05 1565.03 Q1702.09 1560.06 1702.09 1551.59 Q1702.09 1542.84 1706.8 1537.72 Q1711.54 1532.56 1719.56 1532.56 Q1726.76 1532.56 1730.93 1537.21 Q1735.13 1541.82 1735.13 1549.78 M1729.27 1548.06 Q1729.21 1543.25 1726.57 1540.39 Q1723.96 1537.53 1719.63 1537.53 Q1714.73 1537.53 1711.77 1540.29 Q1708.84 1543.06 1708.39 1548.09 L1729.27 1548.06 Z" fill="#000000" fill-rule="nonzero" fill-opacity="1" /><polyline clip-path="url(#clip832)" style="stroke:#000000; stroke-linecap:round; stroke-linejoin:round; stroke-width:2; stroke-opacity:0.1; fill:none" points="203.061,1381.76 3121.26,1381.76 "/>
<polyline clip-path="url(#clip832)" style="stroke:#000000; stroke-linecap:round; stroke-linejoin:round; stroke-width:2; stroke-opacity:0.1; fill:none" points="203.061,1070.47 3121.26,1070.47 "/>
<polyline clip-path="url(#clip832)" style="stroke:#000000; stroke-linecap:round; stroke-linejoin:round; stroke-width:2; stroke-opacity:0.1; fill:none" points="203.061,759.184 3121.26,759.184 "/>
<polyline clip-path="url(#clip832)" style="stroke:#000000; stroke-linecap:round; stroke-linejoin:round; stroke-width:2; stroke-opacity:0.1; fill:none" points="203.061,447.894 3121.26,447.894 "/>
<polyline clip-path="url(#clip832)" style="stroke:#000000; stroke-linecap:round; stroke-linejoin:round; stroke-width:2; stroke-opacity:0.1; fill:none" points="203.061,136.605 3121.26,136.605 "/>
<polyline clip-path="url(#clip830)" style="stroke:#000000; stroke-linecap:round; stroke-linejoin:round; stroke-width:4; stroke-opacity:1; fill:none" points="203.061,1412.2 203.061,78.7402 "/>
<polyline clip-path="url(#clip830)" style="stroke:#000000; stroke-linecap:round; stroke-linejoin:round; stroke-width:4; stroke-opacity:1; fill:none" points="203.061,1381.76 221.959,1381.76 "/>
<polyline clip-path="url(#clip830)" style="stroke:#000000; stroke-linecap:round; stroke-linejoin:round; stroke-width:4; stroke-opacity:1; fill:none" points="203.061,1070.47 221.959,1070.47 "/>
<polyline clip-path="url(#clip830)" style="stroke:#000000; stroke-linecap:round; stroke-linejoin:round; stroke-width:4; stroke-opacity:1; fill:none" points="203.061,759.184 221.959,759.184 "/>
<polyline clip-path="url(#clip830)" style="stroke:#000000; stroke-linecap:round; stroke-linejoin:round; stroke-width:4; stroke-opacity:1; fill:none" points="203.061,447.894 221.959,447.894 "/>
<polyline clip-path="url(#clip830)" style="stroke:#000000; stroke-linecap:round; stroke-linejoin:round; stroke-width:4; stroke-opacity:1; fill:none" points="203.061,136.605 221.959,136.605 "/>
<path clip-path="url(#clip830)" d="M143.117 1367.56 Q139.506 1367.56 137.677 1371.13 Q135.872 1374.67 135.872 1381.8 Q135.872 1388.9 137.677 1392.47 Q139.506 1396.01 143.117 1396.01 Q146.751 1396.01 148.557 1392.47 Q150.385 1388.9 150.385 1381.8 Q150.385 1374.67 148.557 1371.13 Q146.751 1367.56 143.117 1367.56 M143.117 1363.86 Q148.927 1363.86 151.983 1368.46 Q155.061 1373.05 155.061 1381.8 Q155.061 1390.52 151.983 1395.13 Q148.927 1399.71 143.117 1399.71 Q137.307 1399.71 134.228 1395.13 Q131.173 1390.52 131.173 1381.8 Q131.173 1373.05 134.228 1368.46 Q137.307 1363.86 143.117 1363.86 Z" fill="#000000" fill-rule="nonzero" fill-opacity="1" /><path clip-path="url(#clip830)" d="M138.742 1083.82 L155.061 1083.82 L155.061 1087.75 L133.117 1087.75 L133.117 1083.82 Q135.779 1081.06 140.362 1076.43 Q144.969 1071.78 146.149 1070.44 Q148.395 1067.92 149.274 1066.18 Q150.177 1064.42 150.177 1062.73 Q150.177 1059.98 148.233 1058.24 Q146.311 1056.5 143.209 1056.5 Q141.01 1056.5 138.557 1057.27 Q136.126 1058.03 133.348 1059.58 L133.348 1054.86 Q136.172 1053.73 138.626 1053.15 Q141.08 1052.57 143.117 1052.57 Q148.487 1052.57 151.682 1055.25 Q154.876 1057.94 154.876 1062.43 Q154.876 1064.56 154.066 1066.48 Q153.279 1068.38 151.172 1070.97 Q150.594 1071.64 147.492 1074.86 Q144.39 1078.05 138.742 1083.82 Z" fill="#000000" fill-rule="nonzero" fill-opacity="1" /><path clip-path="url(#clip830)" d="M145.478 745.978 L133.672 764.427 L145.478 764.427 L145.478 745.978 M144.251 741.904 L150.131 741.904 L150.131 764.427 L155.061 764.427 L155.061 768.315 L150.131 768.315 L150.131 776.464 L145.478 776.464 L145.478 768.315 L129.876 768.315 L129.876 763.802 L144.251 741.904 Z" fill="#000000" fill-rule="nonzero" fill-opacity="1" /><path clip-path="url(#clip830)" d="M143.534 446.031 Q140.385 446.031 138.534 448.184 Q136.705 450.336 136.705 454.086 Q136.705 457.813 138.534 459.989 Q140.385 462.142 143.534 462.142 Q146.682 462.142 148.51 459.989 Q150.362 457.813 150.362 454.086 Q150.362 450.336 148.51 448.184 Q146.682 446.031 143.534 446.031 M152.816 431.378 L152.816 435.637 Q151.057 434.804 149.251 434.364 Q147.469 433.924 145.709 433.924 Q141.08 433.924 138.626 437.049 Q136.196 440.174 135.848 446.494 Q137.214 444.48 139.274 443.415 Q141.334 442.327 143.811 442.327 Q149.02 442.327 152.029 445.498 Q155.061 448.647 155.061 454.086 Q155.061 459.41 151.913 462.628 Q148.765 465.846 143.534 465.846 Q137.538 465.846 134.367 461.262 Q131.196 456.656 131.196 447.929 Q131.196 439.735 135.085 434.873 Q138.973 429.989 145.524 429.989 Q147.284 429.989 149.066 430.336 Q150.871 430.684 152.816 431.378 Z" fill="#000000" fill-rule="nonzero" fill-opacity="1" /><path clip-path="url(#clip830)" d="M143.209 137.473 Q139.876 137.473 137.955 139.255 Q136.057 141.038 136.057 144.163 Q136.057 147.288 137.955 149.07 Q139.876 150.852 143.209 150.852 Q146.543 150.852 148.464 149.07 Q150.385 147.265 150.385 144.163 Q150.385 141.038 148.464 139.255 Q146.566 137.473 143.209 137.473 M138.534 135.482 Q135.524 134.741 133.835 132.681 Q132.168 130.621 132.168 127.658 Q132.168 123.515 135.108 121.107 Q138.071 118.7 143.209 118.7 Q148.371 118.7 151.311 121.107 Q154.251 123.515 154.251 127.658 Q154.251 130.621 152.561 132.681 Q150.895 134.741 147.909 135.482 Q151.288 136.269 153.163 138.561 Q155.061 140.853 155.061 144.163 Q155.061 149.186 151.983 151.871 Q148.927 154.556 143.209 154.556 Q137.492 154.556 134.413 151.871 Q131.358 149.186 131.358 144.163 Q131.358 140.853 133.256 138.561 Q135.154 136.269 138.534 135.482 M136.821 128.098 Q136.821 130.783 138.487 132.288 Q140.177 133.792 143.209 133.792 Q146.219 133.792 147.909 132.288 Q149.621 130.783 149.621 128.098 Q149.621 125.413 147.909 123.908 Q146.219 122.404 143.209 122.404 Q140.177 122.404 138.487 123.908 Q136.821 125.413 136.821 128.098 Z" fill="#000000" fill-rule="nonzero" fill-opacity="1" /><path clip-path="url(#clip830)" d="M45.3402 1073.54 Q46.0405 1071.48 48.3321 1069.53 Q50.6238 1067.56 54.6342 1065.59 L67.6202 1059.06 L67.6202 1065.97 L55.4299 1072.05 Q50.6556 1074.4 49.096 1076.63 Q47.5364 1078.83 47.5364 1082.65 L47.5364 1089.65 L67.6202 1089.65 L67.6202 1096.08 L20.1002 1096.08 L20.1002 1081.57 Q20.1002 1073.42 23.5059 1069.41 Q26.9115 1065.4 33.7865 1065.4 Q38.2743 1065.4 41.2344 1067.5 Q44.1944 1069.57 45.3402 1073.54 M25.3838 1089.65 L42.2529 1089.65 L42.2529 1081.57 Q42.2529 1076.92 40.1204 1074.56 Q37.956 1072.18 33.7865 1072.18 Q29.617 1072.18 27.5163 1074.56 Q25.3838 1076.92 25.3838 1081.57 L25.3838 1089.65 Z" fill="#000000" fill-rule="nonzero" fill-opacity="1" /><path clip-path="url(#clip830)" d="M48.3321 1023.48 L51.1967 1023.48 L51.1967 1050.41 Q57.2441 1050.02 60.427 1046.78 Q63.578 1043.5 63.578 1037.67 Q63.578 1034.3 62.7505 1031.15 Q61.9229 1027.97 60.2678 1024.85 L65.806 1024.85 Q67.1428 1028 67.843 1031.31 Q68.5432 1034.62 68.5432 1038.02 Q68.5432 1046.55 63.578 1051.55 Q58.6127 1056.52 50.1464 1056.52 Q41.3935 1056.52 36.2691 1051.81 Q31.1129 1047.06 31.1129 1039.04 Q31.1129 1031.85 35.7599 1027.68 Q40.375 1023.48 48.3321 1023.48 M46.6134 1029.33 Q41.8073 1029.4 38.9427 1032.04 Q36.0781 1034.65 36.0781 1038.98 Q36.0781 1043.88 38.8472 1046.84 Q41.6163 1049.77 46.6452 1050.21 L46.6134 1029.33 Z" fill="#000000" fill-rule="nonzero" fill-opacity="1" /><path clip-path="url(#clip830)" d="M62.273 1008.2 L81.1792 1008.2 L81.1792 1014.09 L31.9723 1014.09 L31.9723 1008.2 L37.3831 1008.2 Q34.2003 1006.35 32.6725 1003.55 Q31.1129 1000.72 31.1129 996.806 Q31.1129 990.313 36.2691 986.271 Q41.4253 982.197 49.8281 982.197 Q58.2308 982.197 63.387 986.271 Q68.5432 990.313 68.5432 996.806 Q68.5432 1000.72 67.0155 1003.55 Q65.4559 1006.35 62.273 1008.2 M49.8281 988.276 Q43.3669 988.276 39.7066 990.95 Q36.0145 993.591 36.0145 998.238 Q36.0145 1002.89 39.7066 1005.56 Q43.3669 1008.2 49.8281 1008.2 Q56.2893 1008.2 59.9814 1005.56 Q63.6417 1002.89 63.6417 998.238 Q63.6417 993.591 59.9814 990.95 Q56.2893 988.276 49.8281 988.276 Z" fill="#000000" fill-rule="nonzero" fill-opacity="1" /><path clip-path="url(#clip830)" d="M37.4468 951.832 Q36.8739 952.819 36.6192 953.997 Q36.3328 955.142 36.3328 956.543 Q36.3328 961.508 39.5793 964.182 Q42.794 966.824 48.8414 966.824 L67.6202 966.824 L67.6202 972.712 L31.9723 972.712 L31.9723 966.824 L37.5104 966.824 Q34.2639 964.977 32.7043 962.017 Q31.1129 959.057 31.1129 954.824 Q31.1129 954.219 31.2084 953.487 Q31.272 952.755 31.4312 951.864 L37.4468 951.832 Z" fill="#000000" fill-rule="nonzero" fill-opacity="1" /><path clip-path="url(#clip830)" d="M36.0781 933.308 Q36.0781 938.019 39.7703 940.756 Q43.4305 943.493 49.8281 943.493 Q56.2256 943.493 59.9177 940.788 Q63.578 938.051 63.578 933.308 Q63.578 928.629 59.8859 925.892 Q56.1938 923.155 49.8281 923.155 Q43.4942 923.155 39.8021 925.892 Q36.0781 928.629 36.0781 933.308 M31.1129 933.308 Q31.1129 925.669 36.0781 921.309 Q41.0434 916.948 49.8281 916.948 Q58.5809 916.948 63.578 921.309 Q68.5432 925.669 68.5432 933.308 Q68.5432 940.979 63.578 945.339 Q58.5809 949.668 49.8281 949.668 Q41.0434 949.668 36.0781 945.339 Q31.1129 940.979 31.1129 933.308 Z" fill="#000000" fill-rule="nonzero" fill-opacity="1" /><path clip-path="url(#clip830)" d="M37.3831 883.783 L18.095 883.783 L18.095 877.926 L67.6202 877.926 L67.6202 883.783 L62.273 883.783 Q65.4559 885.629 67.0155 888.462 Q68.5432 891.263 68.5432 895.209 Q68.5432 901.67 63.387 905.745 Q58.2308 909.787 49.8281 909.787 Q41.4253 909.787 36.2691 905.745 Q31.1129 901.67 31.1129 895.209 Q31.1129 891.263 32.6725 888.462 Q34.2003 885.629 37.3831 883.783 M49.8281 903.739 Q56.2893 903.739 59.9814 901.098 Q63.6417 898.424 63.6417 893.777 Q63.6417 889.13 59.9814 886.456 Q56.2893 883.783 49.8281 883.783 Q43.3669 883.783 39.7066 886.456 Q36.0145 889.13 36.0145 893.777 Q36.0145 898.424 39.7066 901.098 Q43.3669 903.739 49.8281 903.739 Z" fill="#000000" fill-rule="nonzero" fill-opacity="1" /><path clip-path="url(#clip830)" d="M53.552 866.468 L31.9723 866.468 L31.9723 860.612 L53.3292 860.612 Q58.3899 860.612 60.9362 858.638 Q63.4507 856.665 63.4507 852.718 Q63.4507 847.976 60.427 845.239 Q57.4033 842.469 52.1834 842.469 L31.9723 842.469 L31.9723 836.613 L67.6202 836.613 L67.6202 842.469 L62.1457 842.469 Q65.3922 844.602 66.9836 847.435 Q68.5432 850.236 68.5432 853.96 Q68.5432 860.102 64.7238 863.285 Q60.9044 866.468 53.552 866.468 M31.1129 851.732 L31.1129 851.732 Z" fill="#000000" fill-rule="nonzero" fill-opacity="1" /><path clip-path="url(#clip830)" d="M33.3409 798.896 L38.8154 798.896 Q37.4468 801.379 36.7784 803.893 Q36.0781 806.376 36.0781 808.922 Q36.0781 814.619 39.7066 817.77 Q43.3032 820.922 49.8281 820.922 Q56.3529 820.922 59.9814 817.77 Q63.578 814.619 63.578 808.922 Q63.578 806.376 62.9096 803.893 Q62.2094 801.379 60.8407 798.896 L66.2516 798.896 Q67.3974 801.347 67.9703 803.989 Q68.5432 806.599 68.5432 809.559 Q68.5432 817.611 63.4825 822.354 Q58.4218 827.096 49.8281 827.096 Q41.1071 827.096 36.11 822.322 Q31.1129 817.516 31.1129 809.177 Q31.1129 806.471 31.6858 803.893 Q32.2269 801.315 33.3409 798.896 Z" fill="#000000" fill-rule="nonzero" fill-opacity="1" /><path clip-path="url(#clip830)" d="M21.8508 782.918 L31.9723 782.918 L31.9723 770.855 L36.5237 770.855 L36.5237 782.918 L55.8755 782.918 Q60.236 782.918 61.4773 781.741 Q62.7186 780.531 62.7186 776.871 L62.7186 770.855 L67.6202 770.855 L67.6202 776.871 Q67.6202 783.65 65.1058 786.228 Q62.5595 788.807 55.8755 788.807 L36.5237 788.807 L36.5237 793.103 L31.9723 793.103 L31.9723 788.807 L21.8508 788.807 L21.8508 782.918 Z" fill="#000000" fill-rule="nonzero" fill-opacity="1" /><path clip-path="url(#clip830)" d="M31.9723 763.153 L31.9723 757.296 L67.6202 757.296 L67.6202 763.153 L31.9723 763.153 M18.095 763.153 L18.095 757.296 L25.5111 757.296 L25.5111 763.153 L18.095 763.153 Z" fill="#000000" fill-rule="nonzero" fill-opacity="1" /><path clip-path="url(#clip830)" d="M36.0781 731.229 Q36.0781 735.939 39.7703 738.677 Q43.4305 741.414 49.8281 741.414 Q56.2256 741.414 59.9177 738.708 Q63.578 735.971 63.578 731.229 Q63.578 726.55 59.8859 723.813 Q56.1938 721.075 49.8281 721.075 Q43.4942 721.075 39.8021 723.813 Q36.0781 726.55 36.0781 731.229 M31.1129 731.229 Q31.1129 723.59 36.0781 719.229 Q41.0434 714.869 49.8281 714.869 Q58.5809 714.869 63.578 719.229 Q68.5432 723.59 68.5432 731.229 Q68.5432 738.899 63.578 743.26 Q58.5809 747.589 49.8281 747.589 Q41.0434 747.589 36.0781 743.26 Q31.1129 738.899 31.1129 731.229 Z" fill="#000000" fill-rule="nonzero" fill-opacity="1" /><path clip-path="url(#clip830)" d="M46.1041 675.529 L67.6202 675.529 L67.6202 681.385 L46.2951 681.385 Q41.2344 681.385 38.7199 683.359 Q36.2055 685.332 36.2055 689.279 Q36.2055 694.021 39.2292 696.758 Q42.2529 699.496 47.4728 699.496 L67.6202 699.496 L67.6202 705.384 L31.9723 705.384 L31.9723 699.496 L37.5104 699.496 Q34.2957 697.395 32.7043 694.562 Q31.1129 691.698 31.1129 687.974 Q31.1129 681.831 34.9323 678.68 Q38.7199 675.529 46.1041 675.529 Z" fill="#000000" fill-rule="nonzero" fill-opacity="1" /><path clip-path="url(#clip830)" d="M46.1041 613.495 L67.6202 613.495 L67.6202 619.351 L46.2951 619.351 Q41.2344 619.351 38.7199 621.325 Q36.2055 623.298 36.2055 627.245 Q36.2055 631.987 39.2292 634.725 Q42.2529 637.462 47.4728 637.462 L67.6202 637.462 L67.6202 643.35 L31.9723 643.35 L31.9723 637.462 L37.5104 637.462 Q34.2957 635.361 32.7043 632.528 Q31.1129 629.664 31.1129 625.94 Q31.1129 619.797 34.9323 616.646 Q38.7199 613.495 46.1041 613.495 Z" fill="#000000" fill-rule="nonzero" fill-opacity="1" /><path clip-path="url(#clip830)" d="M53.552 602.419 L31.9723 602.419 L31.9723 596.562 L53.3292 596.562 Q58.3899 596.562 60.9362 594.589 Q63.4507 592.615 63.4507 588.669 Q63.4507 583.926 60.427 581.189 Q57.4033 578.42 52.1834 578.42 L31.9723 578.42 L31.9723 572.563 L67.6202 572.563 L67.6202 578.42 L62.1457 578.42 Q65.3922 580.552 66.9836 583.385 Q68.5432 586.186 68.5432 589.91 Q68.5432 596.053 64.7238 599.236 Q60.9044 602.419 53.552 602.419 M31.1129 587.682 L31.1129 587.682 Z" fill="#000000" fill-rule="nonzero" fill-opacity="1" /><path clip-path="url(#clip830)" d="M38.8154 532.746 Q34.8687 530.55 32.9908 527.494 Q31.1129 524.439 31.1129 520.301 Q31.1129 514.731 35.0278 511.707 Q38.9109 508.684 46.1041 508.684 L67.6202 508.684 L67.6202 514.572 L46.2951 514.572 Q41.1707 514.572 38.6881 516.386 Q36.2055 518.2 36.2055 521.924 Q36.2055 526.476 39.2292 529.118 Q42.2529 531.759 47.4728 531.759 L67.6202 531.759 L67.6202 537.648 L46.2951 537.648 Q41.1389 537.648 38.6881 539.462 Q36.2055 541.276 36.2055 545.064 Q36.2055 549.551 39.261 552.193 Q42.2847 554.835 47.4728 554.835 L67.6202 554.835 L67.6202 560.723 L31.9723 560.723 L31.9723 554.835 L37.5104 554.835 Q34.2321 552.83 32.6725 550.029 Q31.1129 547.228 31.1129 543.377 Q31.1129 539.494 33.0863 536.788 Q35.0596 534.051 38.8154 532.746 Z" fill="#000000" fill-rule="nonzero" fill-opacity="1" /><path clip-path="url(#clip830)" d="M49.8281 471.412 Q43.3669 471.412 39.7066 474.086 Q36.0145 476.728 36.0145 481.375 Q36.0145 486.022 39.7066 488.695 Q43.3669 491.337 49.8281 491.337 Q56.2893 491.337 59.9814 488.695 Q63.6417 486.022 63.6417 481.375 Q63.6417 476.728 59.9814 474.086 Q56.2893 471.412 49.8281 471.412 M37.3831 491.337 Q34.2003 489.491 32.6725 486.69 Q31.1129 483.857 31.1129 479.942 Q31.1129 473.449 36.2691 469.407 Q41.4253 465.333 49.8281 465.333 Q58.2308 465.333 63.387 469.407 Q68.5432 473.449 68.5432 479.942 Q68.5432 483.857 67.0155 486.69 Q65.4559 489.491 62.273 491.337 L67.6202 491.337 L67.6202 497.225 L18.095 497.225 L18.095 491.337 L37.3831 491.337 Z" fill="#000000" fill-rule="nonzero" fill-opacity="1" /><path clip-path="url(#clip830)" d="M48.3321 425.134 L51.1967 425.134 L51.1967 452.061 Q57.2441 451.679 60.427 448.432 Q63.578 445.154 63.578 439.329 Q63.578 435.955 62.7505 432.804 Q61.9229 429.622 60.2678 426.502 L65.806 426.502 Q67.1428 429.653 67.843 432.964 Q68.5432 436.274 68.5432 439.679 Q68.5432 448.209 63.578 453.206 Q58.6127 458.172 50.1464 458.172 Q41.3935 458.172 36.2691 453.461 Q31.1129 448.719 31.1129 440.698 Q31.1129 433.505 35.7599 429.335 Q40.375 425.134 48.3321 425.134 M46.6134 430.99 Q41.8073 431.054 38.9427 433.696 Q36.0781 436.306 36.0781 440.634 Q36.0781 445.536 38.8472 448.496 Q41.6163 451.424 46.6452 451.87 L46.6134 430.99 Z" fill="#000000" fill-rule="nonzero" fill-opacity="1" /><path clip-path="url(#clip830)" d="M37.4468 394.865 Q36.8739 395.851 36.6192 397.029 Q36.3328 398.175 36.3328 399.575 Q36.3328 404.541 39.5793 407.214 Q42.794 409.856 48.8414 409.856 L67.6202 409.856 L67.6202 415.744 L31.9723 415.744 L31.9723 409.856 L37.5104 409.856 Q34.2639 408.01 32.7043 405.05 Q31.1129 402.09 31.1129 397.857 Q31.1129 397.252 31.2084 396.52 Q31.272 395.788 31.4312 394.897 L37.4468 394.865 Z" fill="#000000" fill-rule="nonzero" fill-opacity="1" /><path clip-path="url(#clip832)" d="M285.652 1253.19 L313.46 1271.17 L341.268 1243.99 L369.077 1255.92 L396.885 1260.85 L424.693 1235.33 L452.501 1226.3 L480.31 1208.31 L508.118 1197.8 L535.926 1194.09 L563.734 1251.58 L591.543 1269.02 L619.351 1231.64 L647.159 1235.65 L674.967 1170.44 L702.776 1160.13 L730.584 1139.76 L758.392 1057.27 L786.2 1006.91 L814.009 851.167 L841.817 803.693 L869.625 913.417 L897.433 821.815 L925.242 898.22 L953.05 907.161 L980.858 769.307 L1008.67 846.944 L1036.47 864.001 L1064.28 850.676 L1092.09 1001.19 L1119.9 1083.19 L1147.71 1155.78 L1175.52 1193.83 L1203.32 1235.13 L1231.13 1214.17 L1258.94 1227.49 L1286.75 1219.15 L1314.56 1225.33 L1342.37 1237.35 L1370.17 1254.93 L1397.98 1285.91 L1425.79 1309.45 L1453.6 1320.08 L1481.41 1320.67 L1509.22 1323.17 L1537.02 1334.04 L1564.83 1336.16 L1592.64 1344.7 L1620.45 1342.28 L1648.26 1340.64 L1676.06 1336.43 L1703.87 1337.3 L1731.68 1340.73 L1759.49 1340.87 L1787.3 1347.63 L1815.11 1343.48 L1842.91 1344.88 L1870.72 1343.99 L1898.53 1344.19 L1926.34 1341.3 L1954.15 1344.43 L1981.96 1344.71 L2009.76 1347.42 L2037.57 1344.03 L2065.38 1343.79 L2093.19 1341.89 L2121 1349.07 L2148.81 1348.99 L2176.61 1349.4 L2204.42 1348.22 L2232.23 1345.58 L2260.04 1347.96 L2287.85 1347.43 L2315.65 1348.25 L2343.46 1349.44 L2371.27 1350.95 L2399.08 1353.98 L2426.89 1357.01 L2454.7 1356.96 L2482.5 1358.51 L2510.31 1360.89 L2538.12 1360.52 L2565.93 1360.96 L2593.74 1362.77 L2621.55 1364.77 L2649.35 1365.06 L2677.16 1366.52 L2704.97 1368.27 L2732.78 1369.19 L2760.59 1369.5 L2788.39 1370.35 L2816.2 1370.73 L2844.01 1371.67 L2871.82 1372.31 L2899.63 1372.96 L2927.44 1373.22 L2955.24 1373.48 L2983.05 1373.9 L3010.86 1374.18 L3038.67 1374.46 L3038.67 1170.79 L3010.86 1177.35 L2983.05 1197.23 L2955.24 1200.7 L2927.44 1210.91 L2899.63 1223.08 L2871.82 1222.96 L2844.01 1233.9 L2816.2 1239.35 L2788.39 1237.58 L2760.59 1242.5 L2732.78 1246.08 L2704.97 1246.84 L2677.16 1248.31 L2649.35 1258.16 L2621.55 1266.7 L2593.74 1269.7 L2565.93 1268.79 L2538.12 1270.41 L2510.31 1264.79 L2482.5 1265.1 L2454.7 1266.75 L2426.89 1268.49 L2399.08 1269.46 L2371.27 1265.48 L2343.46 1257.1 L2315.65 1259.88 L2287.85 1254.2 L2260.04 1260.42 L2232.23 1257.94 L2204.42 1265.85 L2176.61 1273.73 L2148.81 1274.83 L2121 1276.62 L2093.19 1275.73 L2065.38 1277.19 L2037.57 1293.85 L2009.76 1291.74 L1981.96 1293.61 L1954.15 1297.44 L1926.34 1285.17 L1898.53 1291.27 L1870.72 1293.4 L1842.91 1298.08 L1815.11 1303.99 L1787.3 1308.17 L1759.49 1299 L1731.68 1295.59 L1703.87 1297.29 L1676.06 1293.01 L1648.26 1306.02 L1620.45 1309.53 L1592.64 1311.6 L1564.83 1305.24 L1537.02 1297.03 L1509.22 1283.88 L1481.41 1271.24 L1453.6 1281.78 L1425.79 1270.22 L1397.98 1241.53 L1370.17 1196.57 L1342.37 1166.68 L1314.56 1165.62 L1286.75 1140.95 L1258.94 1149.96 L1231.13 1147.8 L1203.32 1153.49 L1175.52 1110.81 L1147.71 1051.71 L1119.9 972.793 L1092.09 848.312 L1064.28 635.051 L1036.47 641.982 L1008.67 544.711 L980.858 425.477 L953.05 489.622 L925.242 534.099 L897.433 386.068 L869.625 306.249 L841.817 116.48 L814.009 207.824 L786.2 514.6 L758.392 644.989 L730.584 719.44 L702.776 754.128 L674.967 845.746 L647.159 887.701 L619.351 855.115 L591.543 895.605 L563.734 922.351 L535.926 865.881 L508.118 645.12 L480.31 560.361 L452.501 567.392 L424.693 191.997 L396.885 387.048 L369.077 463.282 L341.268 392.64 L313.46 404.247 L285.652 348.796  Z" fill="#ff8c00" fill-rule="evenodd" fill-opacity="0.5"/>
<polyline clip-path="url(#clip832)" style="stroke:#ff8c00; stroke-linecap:round; stroke-linejoin:round; stroke-width:4; stroke-opacity:1; fill:none" points="285.652,904.125 313.46,918.447 341.268,922.748 369.077,918.306 396.885,907.619 424.693,893.118 452.501,925.558 480.31,944.187 508.118,963.461 535.926,1039.48 563.734,1078.92 591.543,1090.47 619.351,1089.1 647.159,1084.5 674.967,1027.46 702.776,983.592 730.584,921.296 758.392,865.275 786.2,744.032 814.009,574.2 841.817,469.283 869.625,602.123 897.433,597.331 925.242,734.625 953.05,685.573 980.858,600.55 1008.67,721.32 1036.47,757.498 1064.28,769.495 1092.09,923.496 1119.9,1031.72 1147.71,1108.23 1175.52,1148.45 1203.32,1204.16 1231.13,1180.66 1258.94,1185.65 1286.75,1178.9 1314.56,1196.6 1342.37,1206.46 1370.17,1228.18 1397.98,1264.68 1425.79,1291.15 1453.6,1302.21 1481.41,1291.93 1509.22,1306.79 1537.02,1314.43 1564.83,1321.2 1592.64,1329.06 1620.45,1326.15 1648.26,1325.39 1676.06,1318.28 1703.87,1319.04 1731.68,1321.73 1759.49,1324 1787.3,1331.52 1815.11,1329.28 1842.91,1327.6 1870.72,1324.14 1898.53,1320.72 1926.34,1318.86 1954.15,1322.12 1981.96,1323.47 2009.76,1324.25 2037.57,1322.21 2065.38,1317.03 2093.19,1312.85 2121,1318.91 2148.81,1320.05 2176.61,1319.42 2204.42,1314.47 2232.23,1312.02 2260.04,1313.28 2287.85,1311.48 2315.65,1311.73 2343.46,1310.38 2371.27,1317.2 2399.08,1320.89 2426.89,1323.2 2454.7,1323.45 2482.5,1324.12 2510.31,1326.15 2538.12,1327.43 2565.93,1328.8 2593.74,1329.99 2621.55,1329.26 2649.35,1328.86 2677.16,1327.24 2704.97,1328.39 2732.78,1329.63 2760.59,1329.98 2788.39,1329.98 2816.2,1329.61 2844.01,1328.92 2871.82,1329.03 2899.63,1328.21 2927.44,1326.94 2955.24,1325.78 2983.05,1324.62 3010.86,1323.35 3038.67,1322.2 "/>
<polyline clip-path="url(#clip832)" style="stroke:#000000; stroke-linecap:round; stroke-linejoin:round; stroke-width:4; stroke-opacity:1; fill:none" stroke-dasharray="16, 10" points="-2715.14,1226.12 6039.46,1226.12 "/>
<path clip-path="url(#clip830)" d="M2468.63 278.709 L3023.99 278.709 L3023.99 123.189 L2468.63 123.189  Z" fill="#ffffff" fill-rule="evenodd" fill-opacity="1"/>
<polyline clip-path="url(#clip830)" style="stroke:#000000; stroke-linecap:round; stroke-linejoin:round; stroke-width:4; stroke-opacity:1; fill:none" points="2468.63,278.709 3023.99,278.709 3023.99,123.189 2468.63,123.189 2468.63,278.709 "/>
<polyline clip-path="url(#clip830)" style="stroke:#ff8c00; stroke-linecap:round; stroke-linejoin:round; stroke-width:4; stroke-opacity:1; fill:none" points="2501.05,175.029 2695.6,175.029 "/>
<path clip-path="url(#clip830)" d="M2744.41 176.105 Q2745.92 176.615 2747.33 178.281 Q2748.76 179.948 2750.2 182.865 L2754.94 192.309 L2749.92 192.309 L2745.5 183.443 Q2743.79 179.971 2742.17 178.837 Q2740.57 177.703 2737.79 177.703 L2732.7 177.703 L2732.7 192.309 L2728.02 192.309 L2728.02 157.749 L2738.58 157.749 Q2744.5 157.749 2747.42 160.226 Q2750.34 162.703 2750.34 167.703 Q2750.34 170.966 2748.81 173.119 Q2747.3 175.272 2744.41 176.105 M2732.7 161.592 L2732.7 173.86 L2738.58 173.86 Q2741.96 173.86 2743.67 172.309 Q2745.41 170.735 2745.41 167.703 Q2745.41 164.67 2743.67 163.142 Q2741.96 161.592 2738.58 161.592 L2732.7 161.592 Z" fill="#000000" fill-rule="nonzero" fill-opacity="1" /><path clip-path="url(#clip830)" d="M2764.99 159.022 L2764.99 166.383 L2773.76 166.383 L2773.76 169.693 L2764.99 169.693 L2764.99 183.767 Q2764.99 186.939 2765.85 187.841 Q2766.73 188.744 2769.39 188.744 L2773.76 188.744 L2773.76 192.309 L2769.39 192.309 Q2764.46 192.309 2762.58 190.48 Q2760.71 188.628 2760.71 183.767 L2760.71 169.693 L2757.58 169.693 L2757.58 166.383 L2760.71 166.383 L2760.71 159.022 L2764.99 159.022 Z" fill="#000000" fill-rule="nonzero" fill-opacity="1" /><path clip-path="url(#clip830)" d="M2799.92 156.082 L2799.92 203.489 L2795.98 203.489 L2795.98 156.082 L2799.92 156.082 Z" fill="#000000" fill-rule="nonzero" fill-opacity="1" /><path clip-path="url(#clip830)" d="M2835.52 169.763 Q2832 169.763 2830.1 172.309 Q2828.11 174.971 2828.11 179.369 Q2828.11 184.022 2830.08 186.707 Q2832.07 189.369 2835.52 189.369 Q2838.92 189.369 2840.91 186.684 Q2842.91 183.999 2842.91 179.369 Q2842.91 175.133 2840.91 172.309 Q2839.09 169.763 2835.52 169.763 M2835.52 166.383 L2849.66 166.383 L2849.66 170.642 L2844.9 170.642 Q2847.42 174.253 2847.42 179.369 Q2847.42 185.735 2844.25 189.346 Q2841.08 192.98 2835.52 192.98 Q2829.94 192.98 2826.79 189.346 Q2823.62 185.735 2823.62 179.369 Q2823.62 172.957 2826.79 169.369 Q2829.41 166.383 2835.52 166.383 Z" fill="#000000" fill-rule="nonzero" fill-opacity="1" /><path clip-path="url(#clip830)" d="M2871.15 170.781 L2900.82 170.781 L2900.82 174.67 L2871.15 174.67 L2871.15 170.781 M2871.15 180.226 L2900.82 180.226 L2900.82 184.161 L2871.15 184.161 L2871.15 180.226 Z" fill="#000000" fill-rule="nonzero" fill-opacity="1" /><path clip-path="url(#clip830)" d="M2935.98 160.828 Q2932.37 160.828 2930.54 164.392 Q2928.74 167.934 2928.74 175.064 Q2928.74 182.17 2930.54 185.735 Q2932.37 189.277 2935.98 189.277 Q2939.62 189.277 2941.42 185.735 Q2943.25 182.17 2943.25 175.064 Q2943.25 167.934 2941.42 164.392 Q2939.62 160.828 2935.98 160.828 M2935.98 157.124 Q2941.79 157.124 2944.85 161.73 Q2947.93 166.314 2947.93 175.064 Q2947.93 183.79 2944.85 188.397 Q2941.79 192.98 2935.98 192.98 Q2930.17 192.98 2927.09 188.397 Q2924.04 183.79 2924.04 175.064 Q2924.04 166.314 2927.09 161.73 Q2930.17 157.124 2935.98 157.124 Z" fill="#000000" fill-rule="nonzero" fill-opacity="1" /><path clip-path="url(#clip830)" d="M2956.15 186.429 L2961.03 186.429 L2961.03 192.309 L2956.15 192.309 L2956.15 186.429 Z" fill="#000000" fill-rule="nonzero" fill-opacity="1" /><path clip-path="url(#clip830)" d="M2975.24 188.374 L2991.56 188.374 L2991.56 192.309 L2969.62 192.309 L2969.62 188.374 Q2972.28 185.619 2976.86 180.99 Q2981.47 176.337 2982.65 174.994 Q2984.9 172.471 2985.78 170.735 Q2986.68 168.976 2986.68 167.286 Q2986.68 164.531 2984.73 162.795 Q2982.81 161.059 2979.71 161.059 Q2977.51 161.059 2975.06 161.823 Q2972.63 162.587 2969.85 164.138 L2969.85 159.416 Q2972.67 158.281 2975.13 157.703 Q2977.58 157.124 2979.62 157.124 Q2984.99 157.124 2988.18 159.809 Q2991.38 162.494 2991.38 166.985 Q2991.38 169.115 2990.57 171.036 Q2989.78 172.934 2987.67 175.527 Q2987.09 176.198 2983.99 179.415 Q2980.89 182.61 2975.24 188.374 Z" fill="#000000" fill-rule="nonzero" fill-opacity="1" /><polyline clip-path="url(#clip830)" style="stroke:#000000; stroke-linecap:round; stroke-linejoin:round; stroke-width:4; stroke-opacity:1; fill:none" stroke-dasharray="16, 10" points="2501.05,226.869 2695.6,226.869 "/>
<path clip-path="url(#clip830)" d="M2744.41 227.945 Q2745.92 228.455 2747.33 230.121 Q2748.76 231.788 2750.2 234.705 L2754.94 244.149 L2749.92 244.149 L2745.5 235.283 Q2743.79 231.811 2742.17 230.677 Q2740.57 229.543 2737.79 229.543 L2732.7 229.543 L2732.7 244.149 L2728.02 244.149 L2728.02 209.589 L2738.58 209.589 Q2744.5 209.589 2747.42 212.066 Q2750.34 214.543 2750.34 219.543 Q2750.34 222.806 2748.81 224.959 Q2747.3 227.112 2744.41 227.945 M2732.7 213.432 L2732.7 225.7 L2738.58 225.7 Q2741.96 225.7 2743.67 224.149 Q2745.41 222.575 2745.41 219.543 Q2745.41 216.51 2743.67 214.982 Q2741.96 213.432 2738.58 213.432 L2732.7 213.432 Z" fill="#000000" fill-rule="nonzero" fill-opacity="1" /><path clip-path="url(#clip830)" d="M2764.99 210.862 L2764.99 218.223 L2773.76 218.223 L2773.76 221.533 L2764.99 221.533 L2764.99 235.607 Q2764.99 238.779 2765.85 239.681 Q2766.73 240.584 2769.39 240.584 L2773.76 240.584 L2773.76 244.149 L2769.39 244.149 Q2764.46 244.149 2762.58 242.32 Q2760.71 240.468 2760.71 235.607 L2760.71 221.533 L2757.58 221.533 L2757.58 218.223 L2760.71 218.223 L2760.71 210.862 L2764.99 210.862 Z" fill="#000000" fill-rule="nonzero" fill-opacity="1" /><path clip-path="url(#clip830)" d="M2794.99 222.621 L2824.66 222.621 L2824.66 226.51 L2794.99 226.51 L2794.99 222.621 M2794.99 232.066 L2824.66 232.066 L2824.66 236.001 L2794.99 236.001 L2794.99 232.066 Z" fill="#000000" fill-rule="nonzero" fill-opacity="1" /><path clip-path="url(#clip830)" d="M2850.64 240.214 L2858.28 240.214 L2858.28 213.848 L2849.97 215.515 L2849.97 211.256 L2858.23 209.589 L2862.91 209.589 L2862.91 240.214 L2870.54 240.214 L2870.54 244.149 L2850.64 244.149 L2850.64 240.214 Z" fill="#000000" fill-rule="nonzero" fill-opacity="1" /></svg>
