<?xml version="1.0" encoding="utf-8"?>
<svg xmlns="http://www.w3.org/2000/svg" xmlns:xlink="http://www.w3.org/1999/xlink" width="800" height="400" viewBox="0 0 3200 1600">
<defs>
  <clipPath id="clip540">
    <rect x="0" y="0" width="3200" height="1600"/>
  </clipPath>
</defs>
<path clip-path="url(#clip540)" d="M0 1600 L3200 1600 L3200 0 L0 0  Z" fill="#ffffff" fill-rule="evenodd" fill-opacity="1"/>
<defs>
  <clipPath id="clip541">
    <rect x="640" y="0" width="2241" height="1600"/>
  </clipPath>
</defs>
<path clip-path="url(#clip540)" d="M246.148 1443.7 L1575.79 1443.7 L1575.79 108.352 L246.148 108.352  Z" fill="#ffffff" fill-rule="evenodd" fill-opacity="1"/>
<defs>
  <clipPath id="clip542">
    <rect x="246" y="108" width="1331" height="1336"/>
  </clipPath>
</defs>
<polyline clip-path="url(#clip542)" style="stroke:#000000; stroke-linecap:round; stroke-linejoin:round; stroke-width:2; stroke-opacity:0.1; fill:none" points="271.109,1443.7 271.109,108.352 "/>
<polyline clip-path="url(#clip542)" style="stroke:#000000; stroke-linecap:round; stroke-linejoin:round; stroke-width:2; stroke-opacity:0.1; fill:none" points="587.871,1443.7 587.871,108.352 "/>
<polyline clip-path="url(#clip542)" style="stroke:#000000; stroke-linecap:round; stroke-linejoin:round; stroke-width:2; stroke-opacity:0.1; fill:none" points="904.633,1443.7 904.633,108.352 "/>
<polyline clip-path="url(#clip542)" style="stroke:#000000; stroke-linecap:round; stroke-linejoin:round; stroke-width:2; stroke-opacity:0.1; fill:none" points="1221.39,1443.7 1221.39,108.352 "/>
<polyline clip-path="url(#clip542)" style="stroke:#000000; stroke-linecap:round; stroke-linejoin:round; stroke-width:2; stroke-opacity:0.1; fill:none" points="1538.16,1443.7 1538.16,108.352 "/>
<polyline clip-path="url(#clip540)" style="stroke:#000000; stroke-linecap:round; stroke-linejoin:round; stroke-width:4; stroke-opacity:1; fill:none" points="246.148,1443.7 1575.79,1443.7 "/>
<polyline clip-path="url(#clip540)" style="stroke:#000000; stroke-linecap:round; stroke-linejoin:round; stroke-width:4; stroke-opacity:1; fill:none" points="271.109,1443.7 271.109,1424.8 "/>
<polyline clip-path="url(#clip540)" style="stroke:#000000; stroke-linecap:round; stroke-linejoin:round; stroke-width:4; stroke-opacity:1; fill:none" points="587.871,1443.7 587.871,1424.8 "/>
<polyline clip-path="url(#clip540)" style="stroke:#000000; stroke-linecap:round; stroke-linejoin:round; stroke-width:4; stroke-opacity:1; fill:none" points="904.633,1443.7 904.633,1424.8 "/>
<polyline clip-path="url(#clip540)" style="stroke:#000000; stroke-linecap:round; stroke-linejoin:round; stroke-width:4; stroke-opacity:1; fill:none" points="1221.39,1443.7 1221.39,1424.8 "/>
<polyline clip-path="url(#clip540)" style="stroke:#000000; stroke-linecap:round; stroke-linejoin:round; stroke-width:4; stroke-opacity:1; fill:none" points="1538.16,1443.7 1538.16,1424.8 "/>
<path clip-path="url(#clip540)" d="M271.109 1481.02 Q267.498 1481.02 265.669 1484.58 Q263.864 1488.12 263.864 1495.25 Q263.864 1502.36 265.669 1505.93 Q267.498 1509.47 271.109 1509.47 Q274.743 1509.47 276.549 1505.93 Q278.377 1502.36 278.377 1495.25 Q278.377 1488.12 276.549 1484.58 Q274.743 1481.02 271.109 1481.02 M271.109 1477.31 Q276.919 1477.31 279.975 1481.92 Q283.053 1486.5 283.053 1495.25 Q283.053 1503.98 279.975 1508.59 Q276.919 1513.17 271.109 1513.17 Q265.299 1513.17 262.22 1508.59 Q259.165 1503.98 259.165 1495.25 Q259.165 1486.5 262.22 1481.92 Q265.299 1477.31 271.109 1477.31 Z" fill="#000000" fill-rule="nonzero" fill-opacity="1" /><path clip-path="url(#clip540)" d="M567.142 1508.56 L583.461 1508.56 L583.461 1512.5 L561.517 1512.5 L561.517 1508.56 Q564.179 1505.81 568.762 1501.18 Q573.369 1496.53 574.549 1495.19 Q576.795 1492.66 577.674 1490.93 Q578.577 1489.17 578.577 1487.48 Q578.577 1484.72 576.633 1482.99 Q574.711 1481.25 571.609 1481.25 Q569.41 1481.25 566.957 1482.01 Q564.526 1482.78 561.748 1484.33 L561.748 1479.61 Q564.572 1478.47 567.026 1477.89 Q569.48 1477.31 571.517 1477.31 Q576.887 1477.31 580.082 1480 Q583.276 1482.69 583.276 1487.18 Q583.276 1489.31 582.466 1491.23 Q581.679 1493.12 579.572 1495.72 Q578.994 1496.39 575.892 1499.61 Q572.79 1502.8 567.142 1508.56 Z" fill="#000000" fill-rule="nonzero" fill-opacity="1" /><path clip-path="url(#clip540)" d="M593.322 1477.94 L611.679 1477.94 L611.679 1481.88 L597.605 1481.88 L597.605 1490.35 Q598.623 1490 599.642 1489.84 Q600.66 1489.65 601.679 1489.65 Q607.466 1489.65 610.845 1492.82 Q614.225 1496 614.225 1501.41 Q614.225 1506.99 610.753 1510.09 Q607.281 1513.17 600.961 1513.17 Q598.785 1513.17 596.517 1512.8 Q594.271 1512.43 591.864 1511.69 L591.864 1506.99 Q593.947 1508.12 596.17 1508.68 Q598.392 1509.24 600.869 1509.24 Q604.873 1509.24 607.211 1507.13 Q609.549 1505.02 609.549 1501.41 Q609.549 1497.8 607.211 1495.69 Q604.873 1493.59 600.869 1493.59 Q598.994 1493.59 597.119 1494 Q595.267 1494.42 593.322 1495.3 L593.322 1477.94 Z" fill="#000000" fill-rule="nonzero" fill-opacity="1" /><path clip-path="url(#clip540)" d="M879.332 1477.94 L897.689 1477.94 L897.689 1481.88 L883.615 1481.88 L883.615 1490.35 Q884.633 1490 885.652 1489.84 Q886.67 1489.65 887.689 1489.65 Q893.476 1489.65 896.855 1492.82 Q900.235 1496 900.235 1501.41 Q900.235 1506.99 896.763 1510.09 Q893.29 1513.17 886.971 1513.17 Q884.795 1513.17 882.527 1512.8 Q880.281 1512.43 877.874 1511.69 L877.874 1506.99 Q879.957 1508.12 882.179 1508.68 Q884.402 1509.24 886.878 1509.24 Q890.883 1509.24 893.221 1507.13 Q895.559 1505.02 895.559 1501.41 Q895.559 1497.8 893.221 1495.69 Q890.883 1493.59 886.878 1493.59 Q885.003 1493.59 883.128 1494 Q881.277 1494.42 879.332 1495.3 L879.332 1477.94 Z" fill="#000000" fill-rule="nonzero" fill-opacity="1" /><path clip-path="url(#clip540)" d="M919.448 1481.02 Q915.837 1481.02 914.008 1484.58 Q912.202 1488.12 912.202 1495.25 Q912.202 1502.36 914.008 1505.93 Q915.837 1509.47 919.448 1509.47 Q923.082 1509.47 924.887 1505.93 Q926.716 1502.36 926.716 1495.25 Q926.716 1488.12 924.887 1484.58 Q923.082 1481.02 919.448 1481.02 M919.448 1477.31 Q925.258 1477.31 928.313 1481.92 Q931.392 1486.5 931.392 1495.25 Q931.392 1503.98 928.313 1508.59 Q925.258 1513.17 919.448 1513.17 Q913.638 1513.17 910.559 1508.59 Q907.503 1503.98 907.503 1495.25 Q907.503 1486.5 910.559 1481.92 Q913.638 1477.31 919.448 1477.31 Z" fill="#000000" fill-rule="nonzero" fill-opacity="1" /><path clip-path="url(#clip540)" d="M1195.25 1477.94 L1217.47 1477.94 L1217.47 1479.93 L1204.93 1512.5 L1200.04 1512.5 L1211.85 1481.88 L1195.25 1481.88 L1195.25 1477.94 Z" fill="#000000" fill-rule="nonzero" fill-opacity="1" /><path clip-path="url(#clip540)" d="M1226.64 1477.94 L1244.99 1477.94 L1244.99 1481.88 L1230.92 1481.88 L1230.92 1490.35 Q1231.94 1490 1232.96 1489.84 Q1233.98 1489.65 1234.99 1489.65 Q1240.78 1489.65 1244.16 1492.82 Q1247.54 1496 1247.54 1501.41 Q1247.54 1506.99 1244.07 1510.09 Q1240.6 1513.17 1234.28 1513.17 Q1232.1 1513.17 1229.83 1512.8 Q1227.59 1512.43 1225.18 1511.69 L1225.18 1506.99 Q1227.26 1508.12 1229.49 1508.68 Q1231.71 1509.24 1234.18 1509.24 Q1238.19 1509.24 1240.53 1507.13 Q1242.86 1505.02 1242.86 1501.41 Q1242.86 1497.8 1240.53 1495.69 Q1238.19 1493.59 1234.18 1493.59 Q1232.31 1493.59 1230.43 1494 Q1228.58 1494.42 1226.64 1495.3 L1226.64 1477.94 Z" fill="#000000" fill-rule="nonzero" fill-opacity="1" /><path clip-path="url(#clip540)" d="M1497.76 1508.56 L1505.4 1508.56 L1505.4 1482.2 L1497.09 1483.87 L1497.09 1479.61 L1505.36 1477.94 L1510.03 1477.94 L1510.03 1508.56 L1517.67 1508.56 L1517.67 1512.5 L1497.76 1512.5 L1497.76 1508.56 Z" fill="#000000" fill-rule="nonzero" fill-opacity="1" /><path clip-path="url(#clip540)" d="M1537.12 1481.02 Q1533.5 1481.02 1531.68 1484.58 Q1529.87 1488.12 1529.87 1495.25 Q1529.87 1502.36 1531.68 1505.93 Q1533.5 1509.47 1537.12 1509.47 Q1540.75 1509.47 1542.55 1505.93 Q1544.38 1502.36 1544.38 1495.25 Q1544.38 1488.12 1542.55 1484.58 Q1540.75 1481.02 1537.12 1481.02 M1537.12 1477.31 Q1542.93 1477.31 1545.98 1481.92 Q1549.06 1486.5 1549.06 1495.25 Q1549.06 1503.98 1545.98 1508.59 Q1542.93 1513.17 1537.12 1513.17 Q1531.31 1513.17 1528.23 1508.59 Q1525.17 1503.98 1525.17 1495.25 Q1525.17 1486.5 1528.23 1481.92 Q1531.31 1477.31 1537.12 1477.31 Z" fill="#000000" fill-rule="nonzero" fill-opacity="1" /><path clip-path="url(#clip540)" d="M1567.28 1481.02 Q1563.67 1481.02 1561.84 1484.58 Q1560.03 1488.12 1560.03 1495.25 Q1560.03 1502.36 1561.84 1505.93 Q1563.67 1509.47 1567.28 1509.47 Q1570.91 1509.47 1572.72 1505.93 Q1574.55 1502.36 1574.55 1495.25 Q1574.55 1488.12 1572.72 1484.58 Q1570.91 1481.02 1567.28 1481.02 M1567.28 1477.31 Q1573.09 1477.31 1576.14 1481.92 Q1579.22 1486.5 1579.22 1495.25 Q1579.22 1503.98 1576.14 1508.59 Q1573.09 1513.17 1567.28 1513.17 Q1561.47 1513.17 1558.39 1508.59 Q1555.33 1503.98 1555.33 1495.25 Q1555.33 1486.5 1558.39 1481.92 Q1561.47 1477.31 1567.28 1477.31 Z" fill="#000000" fill-rule="nonzero" fill-opacity="1" /><path clip-path="url(#clip540)" d="M778.689 1553.04 L785.118 1553.04 L785.118 1600.56 L778.689 1600.56 L778.689 1553.04 Z" fill="#000000" fill-rule="nonzero" fill-opacity="1" /><path clip-path="url(#clip540)" d="M803.451 1554.79 L803.451 1564.92 L815.514 1564.92 L815.514 1569.47 L803.451 1569.47 L803.451 1588.82 Q803.451 1593.18 804.629 1594.42 Q805.839 1595.66 809.499 1595.66 L815.514 1595.66 L815.514 1600.56 L809.499 1600.56 Q802.719 1600.56 800.141 1598.05 Q797.563 1595.5 797.563 1588.82 L797.563 1569.47 L793.266 1569.47 L793.266 1564.92 L797.563 1564.92 L797.563 1554.79 L803.451 1554.79 Z" fill="#000000" fill-rule="nonzero" fill-opacity="1" /><path clip-path="url(#clip540)" d="M853.709 1581.28 L853.709 1584.14 L826.782 1584.14 Q827.164 1590.19 830.41 1593.37 Q833.688 1596.52 839.513 1596.52 Q842.887 1596.52 846.038 1595.69 Q849.221 1594.87 852.34 1593.21 L852.34 1598.75 Q849.189 1600.09 845.879 1600.79 Q842.569 1601.49 839.163 1601.49 Q830.633 1601.49 825.636 1596.52 Q820.671 1591.56 820.671 1583.09 Q820.671 1574.34 825.381 1569.21 Q830.124 1564.06 838.144 1564.06 Q845.338 1564.06 849.507 1568.7 Q853.709 1573.32 853.709 1581.28 M847.852 1579.56 Q847.789 1574.75 845.147 1571.89 Q842.537 1569.02 838.208 1569.02 Q833.307 1569.02 830.346 1571.79 Q827.418 1574.56 826.973 1579.59 L847.852 1579.56 Z" fill="#000000" fill-rule="nonzero" fill-opacity="1" /><path clip-path="url(#clip540)" d="M883.978 1570.39 Q882.991 1569.82 881.813 1569.56 Q880.667 1569.28 879.267 1569.28 Q874.302 1569.28 871.628 1572.52 Q868.986 1575.74 868.986 1581.79 L868.986 1600.56 L863.098 1600.56 L863.098 1564.92 L868.986 1564.92 L868.986 1570.45 Q870.832 1567.21 873.792 1565.65 Q876.752 1564.06 880.986 1564.06 Q881.59 1564.06 882.322 1564.15 Q883.055 1564.22 883.946 1564.37 L883.978 1570.39 Z" fill="#000000" fill-rule="nonzero" fill-opacity="1" /><path clip-path="url(#clip540)" d="M906.321 1582.64 Q899.223 1582.64 896.486 1584.27 Q893.749 1585.89 893.749 1589.81 Q893.749 1592.92 895.786 1594.77 Q897.855 1596.59 901.388 1596.59 Q906.258 1596.59 909.186 1593.15 Q912.146 1589.68 912.146 1583.95 L912.146 1582.64 L906.321 1582.64 M918.002 1580.23 L918.002 1600.56 L912.146 1600.56 L912.146 1595.15 Q910.141 1598.4 907.149 1599.96 Q904.157 1601.49 899.828 1601.49 Q894.354 1601.49 891.107 1598.43 Q887.892 1595.34 887.892 1590.19 Q887.892 1584.17 891.903 1581.12 Q895.945 1578.06 903.934 1578.06 L912.146 1578.06 L912.146 1577.49 Q912.146 1573.45 909.472 1571.25 Q906.83 1569.02 902.024 1569.02 Q898.969 1569.02 896.072 1569.75 Q893.176 1570.49 890.502 1571.95 L890.502 1566.54 Q893.717 1565.3 896.741 1564.69 Q899.765 1564.06 902.629 1564.06 Q910.363 1564.06 914.183 1568.07 Q918.002 1572.08 918.002 1580.23 Z" fill="#000000" fill-rule="nonzero" fill-opacity="1" /><path clip-path="url(#clip540)" d="M935.858 1554.79 L935.858 1564.92 L947.921 1564.92 L947.921 1569.47 L935.858 1569.47 L935.858 1588.82 Q935.858 1593.18 937.036 1594.42 Q938.245 1595.66 941.905 1595.66 L947.921 1595.66 L947.921 1600.56 L941.905 1600.56 Q935.126 1600.56 932.548 1598.05 Q929.97 1595.5 929.97 1588.82 L929.97 1569.47 L925.673 1569.47 L925.673 1564.92 L929.97 1564.92 L929.97 1554.79 L935.858 1554.79 Z" fill="#000000" fill-rule="nonzero" fill-opacity="1" /><path clip-path="url(#clip540)" d="M955.624 1564.92 L961.48 1564.92 L961.48 1600.56 L955.624 1600.56 L955.624 1564.92 M955.624 1551.04 L961.48 1551.04 L961.48 1558.45 L955.624 1558.45 L955.624 1551.04 Z" fill="#000000" fill-rule="nonzero" fill-opacity="1" /><path clip-path="url(#clip540)" d="M987.548 1569.02 Q982.837 1569.02 980.1 1572.71 Q977.362 1576.37 977.362 1582.77 Q977.362 1589.17 980.068 1592.86 Q982.805 1596.52 987.548 1596.52 Q992.226 1596.52 994.964 1592.83 Q997.701 1589.14 997.701 1582.77 Q997.701 1576.44 994.964 1572.75 Q992.226 1569.02 987.548 1569.02 M987.548 1564.06 Q995.186 1564.06 999.547 1569.02 Q1003.91 1573.99 1003.91 1582.77 Q1003.91 1591.52 999.547 1596.52 Q995.186 1601.49 987.548 1601.49 Q979.877 1601.49 975.516 1596.52 Q971.188 1591.52 971.188 1582.77 Q971.188 1573.99 975.516 1569.02 Q979.877 1564.06 987.548 1564.06 Z" fill="#000000" fill-rule="nonzero" fill-opacity="1" /><path clip-path="url(#clip540)" d="M1043.25 1579.05 L1043.25 1600.56 L1037.39 1600.56 L1037.39 1579.24 Q1037.39 1574.18 1035.42 1571.66 Q1033.44 1569.15 1029.5 1569.15 Q1024.76 1569.15 1022.02 1572.17 Q1019.28 1575.2 1019.28 1580.42 L1019.28 1600.56 L1013.39 1600.56 L1013.39 1564.92 L1019.28 1564.92 L1019.28 1570.45 Q1021.38 1567.24 1024.21 1565.65 Q1027.08 1564.06 1030.8 1564.06 Q1036.95 1564.06 1040.1 1567.88 Q1043.25 1571.66 1043.25 1579.05 Z" fill="#000000" fill-rule="nonzero" fill-opacity="1" /><polyline clip-path="url(#clip542)" style="stroke:#000000; stroke-linecap:round; stroke-linejoin:round; stroke-width:2; stroke-opacity:0.1; fill:none" points="246.148,1273.18 1575.79,1273.18 "/>
<polyline clip-path="url(#clip542)" style="stroke:#000000; stroke-linecap:round; stroke-linejoin:round; stroke-width:2; stroke-opacity:0.1; fill:none" points="246.148,1015.44 1575.79,1015.44 "/>
<polyline clip-path="url(#clip542)" style="stroke:#000000; stroke-linecap:round; stroke-linejoin:round; stroke-width:2; stroke-opacity:0.1; fill:none" points="246.148,757.69 1575.79,757.69 "/>
<polyline clip-path="url(#clip542)" style="stroke:#000000; stroke-linecap:round; stroke-linejoin:round; stroke-width:2; stroke-opacity:0.1; fill:none" points="246.148,499.944 1575.79,499.944 "/>
<polyline clip-path="url(#clip542)" style="stroke:#000000; stroke-linecap:round; stroke-linejoin:round; stroke-width:2; stroke-opacity:0.1; fill:none" points="246.148,242.198 1575.79,242.198 "/>
<polyline clip-path="url(#clip540)" style="stroke:#000000; stroke-linecap:round; stroke-linejoin:round; stroke-width:4; stroke-opacity:1; fill:none" points="246.148,1443.7 246.148,108.352 "/>
<polyline clip-path="url(#clip540)" style="stroke:#000000; stroke-linecap:round; stroke-linejoin:round; stroke-width:4; stroke-opacity:1; fill:none" points="246.148,1273.18 265.046,1273.18 "/>
<polyline clip-path="url(#clip540)" style="stroke:#000000; stroke-linecap:round; stroke-linejoin:round; stroke-width:4; stroke-opacity:1; fill:none" points="246.148,1015.44 265.046,1015.44 "/>
<polyline clip-path="url(#clip540)" style="stroke:#000000; stroke-linecap:round; stroke-linejoin:round; stroke-width:4; stroke-opacity:1; fill:none" points="246.148,757.69 265.046,757.69 "/>
<polyline clip-path="url(#clip540)" style="stroke:#000000; stroke-linecap:round; stroke-linejoin:round; stroke-width:4; stroke-opacity:1; fill:none" points="246.148,499.944 265.046,499.944 "/>
<polyline clip-path="url(#clip540)" style="stroke:#000000; stroke-linecap:round; stroke-linejoin:round; stroke-width:4; stroke-opacity:1; fill:none" points="246.148,242.198 265.046,242.198 "/>
<path clip-path="url(#clip540)" d="M111.806 1258.98 Q108.195 1258.98 106.366 1262.55 Q104.561 1266.09 104.561 1273.22 Q104.561 1280.32 106.366 1283.89 Q108.195 1287.43 111.806 1287.43 Q115.44 1287.43 117.246 1283.89 Q119.074 1280.32 119.074 1273.22 Q119.074 1266.09 117.246 1262.55 Q115.44 1258.98 111.806 1258.98 M111.806 1255.28 Q117.616 1255.28 120.672 1259.88 Q123.75 1264.47 123.75 1273.22 Q123.75 1281.94 120.672 1286.55 Q117.616 1291.13 111.806 1291.13 Q105.996 1291.13 102.917 1286.55 Q99.8616 1281.94 99.8616 1273.22 Q99.8616 1264.47 102.917 1259.88 Q105.996 1255.28 111.806 1255.28 Z" fill="#000000" fill-rule="nonzero" fill-opacity="1" /><path clip-path="url(#clip540)" d="M131.968 1284.58 L136.852 1284.58 L136.852 1290.46 L131.968 1290.46 L131.968 1284.58 Z" fill="#000000" fill-rule="nonzero" fill-opacity="1" /><path clip-path="url(#clip540)" d="M147.847 1286.53 L155.486 1286.53 L155.486 1260.16 L147.176 1261.83 L147.176 1257.57 L155.44 1255.9 L160.116 1255.9 L160.116 1286.53 L167.755 1286.53 L167.755 1290.46 L147.847 1290.46 L147.847 1286.53 Z" fill="#000000" fill-rule="nonzero" fill-opacity="1" /><path clip-path="url(#clip540)" d="M177.245 1255.9 L195.602 1255.9 L195.602 1259.84 L181.528 1259.84 L181.528 1268.31 Q182.546 1267.96 183.565 1267.8 Q184.583 1267.61 185.602 1267.61 Q191.389 1267.61 194.769 1270.79 Q198.148 1273.96 198.148 1279.37 Q198.148 1284.95 194.676 1288.05 Q191.204 1291.13 184.884 1291.13 Q182.708 1291.13 180.44 1290.76 Q178.195 1290.39 175.787 1289.65 L175.787 1284.95 Q177.87 1286.09 180.093 1286.64 Q182.315 1287.2 184.792 1287.2 Q188.796 1287.2 191.134 1285.09 Q193.472 1282.98 193.472 1279.37 Q193.472 1275.76 191.134 1273.66 Q188.796 1271.55 184.792 1271.55 Q182.917 1271.55 181.042 1271.97 Q179.19 1272.38 177.245 1273.26 L177.245 1255.9 Z" fill="#000000" fill-rule="nonzero" fill-opacity="1" /><path clip-path="url(#clip540)" d="M110.903 1001.23 Q107.292 1001.23 105.463 1004.8 Q103.658 1008.34 103.658 1015.47 Q103.658 1022.58 105.463 1026.14 Q107.292 1029.68 110.903 1029.68 Q114.537 1029.68 116.343 1026.14 Q118.172 1022.58 118.172 1015.47 Q118.172 1008.34 116.343 1004.8 Q114.537 1001.23 110.903 1001.23 M110.903 997.531 Q116.713 997.531 119.769 1002.14 Q122.848 1006.72 122.848 1015.47 Q122.848 1024.2 119.769 1028.8 Q116.713 1033.39 110.903 1033.39 Q105.093 1033.39 102.014 1028.8 Q98.9589 1024.2 98.9589 1015.47 Q98.9589 1006.72 102.014 1002.14 Q105.093 997.531 110.903 997.531 Z" fill="#000000" fill-rule="nonzero" fill-opacity="1" /><path clip-path="url(#clip540)" d="M131.065 1026.84 L135.949 1026.84 L135.949 1032.72 L131.065 1032.72 L131.065 1026.84 Z" fill="#000000" fill-rule="nonzero" fill-opacity="1" /><path clip-path="url(#clip540)" d="M146.945 1028.78 L154.584 1028.78 L154.584 1002.41 L146.273 1004.08 L146.273 999.822 L154.537 998.156 L159.213 998.156 L159.213 1028.78 L166.852 1028.78 L166.852 1032.72 L146.945 1032.72 L146.945 1028.78 Z" fill="#000000" fill-rule="nonzero" fill-opacity="1" /><path clip-path="url(#clip540)" d="M186.296 1016.3 Q182.963 1016.3 181.042 1018.09 Q179.144 1019.87 179.144 1022.99 Q179.144 1026.12 181.042 1027.9 Q182.963 1029.68 186.296 1029.68 Q189.63 1029.68 191.551 1027.9 Q193.472 1026.1 193.472 1022.99 Q193.472 1019.87 191.551 1018.09 Q189.653 1016.3 186.296 1016.3 M181.62 1014.31 Q178.611 1013.57 176.921 1011.51 Q175.255 1009.45 175.255 1006.49 Q175.255 1002.35 178.195 999.938 Q181.157 997.531 186.296 997.531 Q191.458 997.531 194.398 999.938 Q197.338 1002.35 197.338 1006.49 Q197.338 1009.45 195.648 1011.51 Q193.981 1013.57 190.995 1014.31 Q194.375 1015.1 196.25 1017.39 Q198.148 1019.68 198.148 1022.99 Q198.148 1028.02 195.069 1030.7 Q192.014 1033.39 186.296 1033.39 Q180.579 1033.39 177.5 1030.7 Q174.445 1028.02 174.445 1022.99 Q174.445 1019.68 176.343 1017.39 Q178.241 1015.1 181.62 1014.31 M179.907 1006.93 Q179.907 1009.61 181.574 1011.12 Q183.264 1012.62 186.296 1012.62 Q189.306 1012.62 190.995 1011.12 Q192.708 1009.61 192.708 1006.93 Q192.708 1004.24 190.995 1002.74 Q189.306 1001.23 186.296 1001.23 Q183.264 1001.23 181.574 1002.74 Q179.907 1004.24 179.907 1006.93 Z" fill="#000000" fill-rule="nonzero" fill-opacity="1" /><path clip-path="url(#clip540)" d="M112.037 743.488 Q108.426 743.488 106.598 747.053 Q104.792 750.595 104.792 757.724 Q104.792 764.831 106.598 768.396 Q108.426 771.937 112.037 771.937 Q115.672 771.937 117.477 768.396 Q119.306 764.831 119.306 757.724 Q119.306 750.595 117.477 747.053 Q115.672 743.488 112.037 743.488 M112.037 739.785 Q117.848 739.785 120.903 744.391 Q123.982 748.975 123.982 757.724 Q123.982 766.451 120.903 771.058 Q117.848 775.641 112.037 775.641 Q106.227 775.641 103.149 771.058 Q100.093 766.451 100.093 757.724 Q100.093 748.975 103.149 744.391 Q106.227 739.785 112.037 739.785 Z" fill="#000000" fill-rule="nonzero" fill-opacity="1" /><path clip-path="url(#clip540)" d="M132.199 769.09 L137.084 769.09 L137.084 774.97 L132.199 774.97 L132.199 769.09 Z" fill="#000000" fill-rule="nonzero" fill-opacity="1" /><path clip-path="url(#clip540)" d="M151.297 771.035 L167.616 771.035 L167.616 774.97 L145.672 774.97 L145.672 771.035 Q148.334 768.28 152.917 763.65 Q157.523 758.998 158.704 757.655 Q160.949 755.132 161.829 753.396 Q162.732 751.637 162.732 749.947 Q162.732 747.192 160.787 745.456 Q158.866 743.72 155.764 743.72 Q153.565 743.72 151.111 744.484 Q148.681 745.248 145.903 746.799 L145.903 742.076 Q148.727 740.942 151.181 740.363 Q153.634 739.785 155.672 739.785 Q161.042 739.785 164.236 742.47 Q167.431 745.155 167.431 749.646 Q167.431 751.775 166.621 753.697 Q165.833 755.595 163.727 758.187 Q163.148 758.859 160.046 762.076 Q156.945 765.271 151.297 771.035 Z" fill="#000000" fill-rule="nonzero" fill-opacity="1" /><path clip-path="url(#clip540)" d="M178.241 771.035 L185.88 771.035 L185.88 744.669 L177.57 746.336 L177.57 742.076 L185.833 740.41 L190.509 740.41 L190.509 771.035 L198.148 771.035 L198.148 774.97 L178.241 774.97 L178.241 771.035 Z" fill="#000000" fill-rule="nonzero" fill-opacity="1" /><path clip-path="url(#clip540)" d="M110.325 485.742 Q106.713 485.742 104.885 489.307 Q103.079 492.849 103.079 499.979 Q103.079 507.085 104.885 510.65 Q106.713 514.191 110.325 514.191 Q113.959 514.191 115.764 510.65 Q117.593 507.085 117.593 499.979 Q117.593 492.849 115.764 489.307 Q113.959 485.742 110.325 485.742 M110.325 482.039 Q116.135 482.039 119.19 486.645 Q122.269 491.229 122.269 499.979 Q122.269 508.705 119.19 513.312 Q116.135 517.895 110.325 517.895 Q104.514 517.895 101.436 513.312 Q98.3802 508.705 98.3802 499.979 Q98.3802 491.229 101.436 486.645 Q104.514 482.039 110.325 482.039 Z" fill="#000000" fill-rule="nonzero" fill-opacity="1" /><path clip-path="url(#clip540)" d="M130.486 511.344 L135.371 511.344 L135.371 517.224 L130.486 517.224 L130.486 511.344 Z" fill="#000000" fill-rule="nonzero" fill-opacity="1" /><path clip-path="url(#clip540)" d="M149.584 513.289 L165.903 513.289 L165.903 517.224 L143.959 517.224 L143.959 513.289 Q146.621 510.534 151.204 505.904 Q155.81 501.252 156.991 499.909 Q159.236 497.386 160.116 495.65 Q161.019 493.891 161.019 492.201 Q161.019 489.446 159.074 487.71 Q157.153 485.974 154.051 485.974 Q151.852 485.974 149.398 486.738 Q146.968 487.502 144.19 489.053 L144.19 484.33 Q147.014 483.196 149.468 482.617 Q151.922 482.039 153.959 482.039 Q159.329 482.039 162.523 484.724 Q165.718 487.409 165.718 491.9 Q165.718 494.029 164.908 495.951 Q164.121 497.849 162.014 500.441 Q161.435 501.113 158.334 504.33 Q155.232 507.525 149.584 513.289 Z" fill="#000000" fill-rule="nonzero" fill-opacity="1" /><path clip-path="url(#clip540)" d="M188.565 486.738 L176.759 505.187 L188.565 505.187 L188.565 486.738 M187.338 482.664 L193.218 482.664 L193.218 505.187 L198.148 505.187 L198.148 509.076 L193.218 509.076 L193.218 517.224 L188.565 517.224 L188.565 509.076 L172.963 509.076 L172.963 504.562 L187.338 482.664 Z" fill="#000000" fill-rule="nonzero" fill-opacity="1" /><path clip-path="url(#clip540)" d="M111.713 227.996 Q108.102 227.996 106.274 231.561 Q104.468 235.103 104.468 242.233 Q104.468 249.339 106.274 252.904 Q108.102 256.445 111.713 256.445 Q115.348 256.445 117.153 252.904 Q118.982 249.339 118.982 242.233 Q118.982 235.103 117.153 231.561 Q115.348 227.996 111.713 227.996 M111.713 224.293 Q117.524 224.293 120.579 228.899 Q123.658 233.483 123.658 242.233 Q123.658 250.959 120.579 255.566 Q117.524 260.149 111.713 260.149 Q105.903 260.149 102.825 255.566 Q99.769 250.959 99.769 242.233 Q99.769 233.483 102.825 228.899 Q105.903 224.293 111.713 224.293 Z" fill="#000000" fill-rule="nonzero" fill-opacity="1" /><path clip-path="url(#clip540)" d="M131.875 253.598 L136.76 253.598 L136.76 259.478 L131.875 259.478 L131.875 253.598 Z" fill="#000000" fill-rule="nonzero" fill-opacity="1" /><path clip-path="url(#clip540)" d="M150.972 255.543 L167.292 255.543 L167.292 259.478 L145.347 259.478 L145.347 255.543 Q148.01 252.788 152.593 248.158 Q157.199 243.506 158.38 242.163 Q160.625 239.64 161.505 237.904 Q162.408 236.145 162.408 234.455 Q162.408 231.7 160.463 229.964 Q158.542 228.228 155.44 228.228 Q153.241 228.228 150.787 228.992 Q148.357 229.756 145.579 231.307 L145.579 226.584 Q148.403 225.45 150.857 224.872 Q153.31 224.293 155.347 224.293 Q160.718 224.293 163.912 226.978 Q167.107 229.663 167.107 234.154 Q167.107 236.283 166.296 238.205 Q165.509 240.103 163.403 242.695 Q162.824 243.367 159.722 246.584 Q156.621 249.779 150.972 255.543 Z" fill="#000000" fill-rule="nonzero" fill-opacity="1" /><path clip-path="url(#clip540)" d="M175.926 224.918 L198.148 224.918 L198.148 226.909 L185.602 259.478 L180.718 259.478 L192.523 228.853 L175.926 228.853 L175.926 224.918 Z" fill="#000000" fill-rule="nonzero" fill-opacity="1" /><path clip-path="url(#clip540)" d="M-9.83624 963.146 L-3.56602 963.146 Q-5.31659 966.806 -6.17596 970.053 Q-7.03533 973.299 -7.03533 976.323 Q-7.03533 981.575 -4.99831 984.439 Q-2.96128 987.272 0.794486 987.272 Q3.94551 987.272 5.56877 985.394 Q7.16019 983.484 8.14688 978.201 L8.94259 974.318 Q10.3112 967.124 13.7805 963.719 Q17.218 960.281 23.0108 960.281 Q29.9176 960.281 33.4824 964.928 Q37.0472 969.543 37.0472 978.487 Q37.0472 981.861 36.2833 985.681 Q35.5194 989.468 34.0235 993.542 L27.4031 993.542 Q29.5993 989.627 30.7133 985.872 Q31.8273 982.116 31.8273 978.487 Q31.8273 972.981 29.663 969.989 Q27.4986 966.997 23.4882 966.997 Q19.9871 966.997 18.0137 969.162 Q16.0404 971.294 15.0537 976.196 L14.2898 980.111 Q12.8575 987.304 9.80196 990.518 Q6.74642 993.733 1.30374 993.733 Q-4.99831 993.733 -8.62676 989.309 Q-12.2552 984.853 -12.2552 977.055 Q-12.2552 973.713 -11.6505 970.244 Q-11.0457 966.774 -9.83624 963.146 Z" fill="#000000" fill-rule="nonzero" fill-opacity="1" /><path clip-path="url(#clip540)" d="M18.2047 934.309 Q18.2047 941.407 19.8279 944.144 Q21.4512 946.882 25.3661 946.882 Q28.4853 946.882 30.3314 944.845 Q32.1456 942.776 32.1456 939.243 Q32.1456 934.373 28.7081 931.445 Q25.2388 928.485 19.5097 928.485 L18.2047 928.485 L18.2047 934.309 M15.7857 922.628 L36.1242 922.628 L36.1242 928.485 L30.7133 928.485 Q33.9598 930.49 35.5194 933.482 Q37.0472 936.474 37.0472 940.802 Q37.0472 946.277 33.9916 949.523 Q30.9043 952.738 25.7481 952.738 Q19.7325 952.738 16.6769 948.728 Q13.6214 944.685 13.6214 936.696 L13.6214 928.485 L13.0485 928.485 Q9.00625 928.485 6.81008 931.158 Q4.58208 933.8 4.58208 938.606 Q4.58208 941.662 5.31414 944.558 Q6.04619 947.454 7.51031 950.128 L2.09946 950.128 Q0.858143 946.913 0.253401 943.89 Q-0.38317 940.866 -0.38317 938.001 Q-0.38317 930.267 3.62723 926.448 Q7.63762 922.628 15.7857 922.628 Z" fill="#000000" fill-rule="nonzero" fill-opacity="1" /><path clip-path="url(#clip540)" d="M7.31933 882.811 Q3.3726 880.615 1.49471 877.559 Q-0.38317 874.503 -0.38317 870.366 Q-0.38317 864.796 3.53174 861.772 Q7.41482 858.748 14.6081 858.748 L36.1242 858.748 L36.1242 864.637 L14.799 864.637 Q9.67465 864.637 7.19202 866.451 Q4.7094 868.265 4.7094 871.989 Q4.7094 876.54 7.73311 879.182 Q10.7568 881.824 15.9767 881.824 L36.1242 881.824 L36.1242 887.712 L14.799 887.712 Q9.64282 887.712 7.19202 889.527 Q4.7094 891.341 4.7094 895.128 Q4.7094 899.616 7.76493 902.258 Q10.7886 904.9 15.9767 904.9 L36.1242 904.9 L36.1242 910.788 L0.4762 910.788 L0.4762 904.9 L6.01437 904.9 Q2.73603 902.895 1.17643 900.094 Q-0.38317 897.293 -0.38317 893.441 Q-0.38317 889.558 1.5902 886.853 Q3.56357 884.116 7.31933 882.811 Z" fill="#000000" fill-rule="nonzero" fill-opacity="1" /><path clip-path="url(#clip540)" d="M30.777 841.402 L49.6831 841.402 L49.6831 847.29 L0.4762 847.29 L0.4762 841.402 L5.88705 841.402 Q2.7042 839.556 1.17643 836.755 Q-0.38317 833.922 -0.38317 830.007 Q-0.38317 823.514 4.77305 819.472 Q9.92927 815.398 18.332 815.398 Q26.7347 815.398 31.891 819.472 Q37.0472 823.514 37.0472 830.007 Q37.0472 833.922 35.5194 836.755 Q33.9598 839.556 30.777 841.402 M18.332 821.477 Q11.8708 821.477 8.21053 824.151 Q4.51842 826.792 4.51842 831.439 Q4.51842 836.086 8.21053 838.76 Q11.8708 841.402 18.332 841.402 Q24.7932 841.402 28.4853 838.76 Q32.1456 836.086 32.1456 831.439 Q32.1456 826.792 28.4853 824.151 Q24.7932 821.477 18.332 821.477 Z" fill="#000000" fill-rule="nonzero" fill-opacity="1" /><path clip-path="url(#clip540)" d="M-13.401 805.69 L-13.401 799.834 L36.1242 799.834 L36.1242 805.69 L-13.401 805.69 Z" fill="#000000" fill-rule="nonzero" fill-opacity="1" /><path clip-path="url(#clip540)" d="M16.8361 757.088 L19.7006 757.088 L19.7006 784.015 Q25.7481 783.633 28.9309 780.386 Q32.0819 777.108 32.0819 771.284 Q32.0819 767.91 31.2544 764.759 Q30.4269 761.576 28.7718 758.457 L34.3099 758.457 Q35.6467 761.608 36.347 764.918 Q37.0472 768.228 37.0472 771.634 Q37.0472 780.164 32.0819 785.161 Q27.1167 790.126 18.6503 790.126 Q9.89745 790.126 4.77305 785.415 Q-0.38317 780.673 -0.38317 772.652 Q-0.38317 765.459 4.2638 761.289 Q8.87893 757.088 16.8361 757.088 M15.1173 762.944 Q10.3112 763.008 7.44665 765.65 Q4.58208 768.26 4.58208 772.589 Q4.58208 777.49 7.35116 780.45 Q10.1202 783.378 15.1492 783.824 L15.1173 762.944 Z" fill="#000000" fill-rule="nonzero" fill-opacity="1" /><path clip-path="url(#clip540)" d="M0.4762 730.957 L0.4762 724.75 L30.395 713.61 L0.4762 702.47 L0.4762 696.264 L36.1242 709.632 L36.1242 717.589 L0.4762 730.957 Z" fill="#000000" fill-rule="nonzero" fill-opacity="1" /><path clip-path="url(#clip540)" d="M18.2047 671.979 Q18.2047 679.076 19.8279 681.814 Q21.4512 684.551 25.3661 684.551 Q28.4853 684.551 30.3314 682.514 Q32.1456 680.445 32.1456 676.912 Q32.1456 672.042 28.7081 669.114 Q25.2388 666.154 19.5097 666.154 L18.2047 666.154 L18.2047 671.979 M15.7857 660.297 L36.1242 660.297 L36.1242 666.154 L30.7133 666.154 Q33.9598 668.159 35.5194 671.151 Q37.0472 674.143 37.0472 678.472 Q37.0472 683.946 33.9916 687.193 Q30.9043 690.407 25.7481 690.407 Q19.7325 690.407 16.6769 686.397 Q13.6214 682.355 13.6214 674.366 L13.6214 666.154 L13.0485 666.154 Q9.00625 666.154 6.81008 668.827 Q4.58208 671.469 4.58208 676.275 Q4.58208 679.331 5.31414 682.227 Q6.04619 685.124 7.51031 687.797 L2.09946 687.797 Q0.858143 684.583 0.253401 681.559 Q-0.38317 678.535 -0.38317 675.671 Q-0.38317 667.936 3.62723 664.117 Q7.63762 660.297 15.7857 660.297 Z" fill="#000000" fill-rule="nonzero" fill-opacity="1" /><path clip-path="url(#clip540)" d="M-13.401 648.234 L-13.401 642.378 L36.1242 642.378 L36.1242 648.234 L-13.401 648.234 Z" fill="#000000" fill-rule="nonzero" fill-opacity="1" /><path clip-path="url(#clip540)" d="M22.0559 630.729 L0.4762 630.729 L0.4762 624.872 L21.8331 624.872 Q26.8939 624.872 29.4402 622.899 Q31.9546 620.926 31.9546 616.979 Q31.9546 612.236 28.9309 609.499 Q25.9072 606.73 20.6873 606.73 L0.4762 606.73 L0.4762 600.874 L36.1242 600.874 L36.1242 606.73 L30.6496 606.73 Q33.8962 608.863 35.4876 611.695 Q37.0472 614.496 37.0472 618.22 Q37.0472 624.363 33.2278 627.546 Q29.4083 630.729 22.0559 630.729 M-0.38317 615.992 L-0.38317 615.992 Z" fill="#000000" fill-rule="nonzero" fill-opacity="1" /><path clip-path="url(#clip540)" d="M16.8361 558.319 L19.7006 558.319 L19.7006 585.246 Q25.7481 584.864 28.9309 581.617 Q32.0819 578.339 32.0819 572.514 Q32.0819 569.141 31.2544 565.989 Q30.4269 562.807 28.7718 559.687 L34.3099 559.687 Q35.6467 562.838 36.347 566.149 Q37.0472 569.459 37.0472 572.864 Q37.0472 581.395 32.0819 586.392 Q27.1167 591.357 18.6503 591.357 Q9.89745 591.357 4.77305 586.646 Q-0.38317 581.904 -0.38317 573.883 Q-0.38317 566.69 4.2638 562.52 Q8.87893 558.319 16.8361 558.319 M15.1173 564.175 Q10.3112 564.239 7.44665 566.881 Q4.58208 569.491 4.58208 573.819 Q4.58208 578.721 7.35116 581.681 Q10.1202 584.609 15.1492 585.055 L15.1173 564.175 Z" fill="#000000" fill-rule="nonzero" fill-opacity="1" /><path clip-path="url(#clip540)" d="M909.003 33.1202 Q902.846 33.1202 899.524 37.5762 Q896.041 42.2347 896.041 49.9314 Q896.041 58.0738 899.484 62.7728 Q902.968 67.4314 909.003 67.4314 Q914.958 67.4314 918.442 62.7323 Q921.926 58.0333 921.926 49.9314 Q921.926 42.5183 918.442 37.5762 Q915.242 33.1202 909.003 33.1202 M909.003 27.2059 L933.755 27.2059 L933.755 34.6595 L925.41 34.6595 Q929.825 40.9789 929.825 49.9314 Q929.825 61.0714 924.275 67.3908 Q918.726 73.7508 909.003 73.7508 Q899.241 73.7508 893.732 67.3908 Q888.182 61.0714 888.182 49.9314 Q888.182 38.7104 893.732 32.4315 Q898.309 27.2059 909.003 27.2059 Z" fill="#000000" fill-rule="nonzero" fill-opacity="1" /><polyline clip-path="url(#clip542)" style="stroke:#009af9; stroke-linecap:round; stroke-linejoin:round; stroke-width:4; stroke-opacity:1; fill:none" points="283.779,146.145 296.45,1035.19 309.12,935.398 321.791,935.398 334.461,974.626 347.132,974.626 359.802,974.626 372.473,974.626 385.143,974.626 397.814,974.626 410.484,974.626 423.155,974.626 435.825,974.626 448.496,974.626 461.166,974.626 473.837,974.626 486.507,1143.48 499.178,1143.48 511.848,933.355 524.519,933.355 537.189,1120.92 549.86,1120.92 562.53,1120.92 575.2,1003 587.871,1120.77 600.541,1195.36 613.212,1210.84 625.882,1210.84 638.553,1103.46 651.223,1030.4 663.894,1064.04 676.564,895.106 689.235,885.645 701.905,910.617 714.576,910.617 727.246,1094.25 739.917,1094.25 752.587,1094.25 765.258,1094.25 777.928,1094.25 790.599,1097.45 803.269,1173.86 815.94,1046.33 828.61,1046.33 841.281,1046.33 853.951,1046.33 866.621,1100.17 879.292,1100.17 891.962,982.796 904.633,982.796 917.303,1185.04 929.974,972.688 942.644,1071.38 955.315,1071.38 967.985,1071.38 980.656,1125.26 993.326,1087.46 1006,1087.46 1018.67,855.189 1031.34,855.189 1044.01,855.189 1056.68,855.189 1069.35,855.189 1082.02,855.189 1094.69,855.189 1107.36,855.189 1120.03,855.189 1132.7,855.189 1145.37,948.127 1158.04,948.127 1170.71,1008.61 1183.38,1008.61 1196.05,853.414 1208.72,845.885 1221.39,920.904 1234.07,920.904 1246.74,920.904 1259.41,1000.17 1272.08,1000.17 1284.75,1000.17 1297.42,974.439 1310.09,974.439 1322.76,1228.23 1335.43,1228.23 1348.1,1228.23 1360.77,1141.34 1373.44,1141.34 1386.11,1141.34 1398.78,1141.34 1411.45,904.181 1424.12,904.181 1436.79,1067.67 1449.46,1201.35 1462.13,1201.35 1474.8,929.494 1487.47,929.494 1500.15,942.544 1512.82,1047.05 1525.49,1133.43 1538.16,1133.43 "/>
<polyline clip-path="url(#clip542)" style="stroke:#e26f46; stroke-linecap:round; stroke-linejoin:round; stroke-width:4; stroke-opacity:1; fill:none" points="283.779,640.427 296.45,975.411 309.12,975.411 321.791,1123.91 334.461,1123.91 347.132,1123.91 359.802,854.264 372.473,854.264 385.143,854.264 397.814,1000.67 410.484,1000.67 423.155,1000.67 435.825,1000.67 448.496,1000.67 461.166,996.217 473.837,1176.78 486.507,1176.78 499.178,1176.78 511.848,1176.78 524.519,870.656 537.189,893.943 549.86,954.124 562.53,954.124 575.2,1136.78 587.871,1136.78 600.541,849.341 613.212,849.341 625.882,1079.05 638.553,898.284 651.223,1123.66 663.894,1027.66 676.564,1027.66 689.235,1027.66 701.905,1027.66 714.576,1027.66 727.246,843.862 739.917,843.862 752.587,843.862 765.258,843.862 777.928,843.862 790.599,843.862 803.269,1128.25 815.94,1083.88 828.61,1083.88 841.281,1012.78 853.951,1012.78 866.621,1012.78 879.292,1012.78 891.962,1012.78 904.633,1012.78 917.303,1012.78 929.974,873.581 942.644,873.581 955.315,873.581 967.985,873.581 980.656,873.581 993.326,873.581 1006,873.581 1018.67,1116.04 1031.34,1116.04 1044.01,1005.1 1056.68,1165.85 1069.35,879.392 1082.02,1039.58 1094.69,1039.58 1107.36,1039.58 1120.03,1039.58 1132.7,1039.58 1145.37,1039.58 1158.04,889.482 1170.71,889.482 1183.38,889.482 1196.05,889.482 1208.72,926.468 1221.39,926.468 1234.07,1082.87 1246.74,893.281 1259.41,973.032 1272.08,1076.73 1284.75,1076.73 1297.42,1076.73 1310.09,1076.73 1322.76,1056.19 1335.43,843.957 1348.1,873.135 1360.77,1178.24 1373.44,1219.68 1386.11,1219.68 1398.78,1219.68 1411.45,1229.23 1424.12,1229.23 1436.79,1229.23 1449.46,1297.09 1462.13,1112.39 1474.8,1112.39 1487.47,981.105 1500.15,940.213 1512.82,1145.65 1525.49,900.616 1538.16,900.616 "/>
<polyline clip-path="url(#clip542)" style="stroke:#3da44d; stroke-linecap:round; stroke-linejoin:round; stroke-width:4; stroke-opacity:1; fill:none" points="283.779,1119.59 296.45,1136.14 309.12,953.576 321.791,953.576 334.461,953.576 347.132,953.576 359.802,953.576 372.473,953.576 385.143,966.976 397.814,966.976 410.484,966.976 423.155,966.976 435.825,1061.89 448.496,945.993 461.166,933.155 473.837,958.751 486.507,953.225 499.178,953.225 511.848,1151.2 524.519,1102.82 537.189,1013.56 549.86,1013.56 562.53,1124.01 575.2,1124.01 587.871,1006.54 600.541,1006.54 613.212,1006.54 625.882,1006.54 638.553,1006.54 651.223,1006.54 663.894,1006.54 676.564,1006.54 689.235,1006.54 701.905,1006.54 714.576,1006.54 727.246,1006.54 739.917,1006.54 752.587,1006.54 765.258,1099.27 777.928,1099.27 790.599,1099.27 803.269,1022.19 815.94,1302.95 828.61,1066.75 841.281,1151.87 853.951,1151.87 866.621,1072.79 879.292,1072.79 891.962,1021.42 904.633,1021.42 917.303,1021.42 929.974,1045.99 942.644,932.322 955.315,902.376 967.985,1137.62 980.656,1137.62 993.326,1137.62 1006,1137.62 1018.67,1137.62 1031.34,1137.62 1044.01,1168.76 1056.68,1153.61 1069.35,1153.61 1082.02,972.552 1094.69,913.251 1107.36,913.251 1120.03,1317.32 1132.7,1405.91 1145.37,1405.91 1158.04,1405.91 1170.71,1139.48 1183.38,1156.93 1196.05,1156.93 1208.72,885.162 1221.39,872.093 1234.07,872.093 1246.74,1109.65 1259.41,1109.65 1272.08,1109.65 1284.75,1096.43 1297.42,1096.43 1310.09,1182.42 1322.76,1301.15 1335.43,1329.8 1348.1,1278.73 1360.77,1355.5 1373.44,1355.5 1386.11,1289.54 1398.78,1289.54 1411.45,1289.54 1424.12,965.824 1436.79,1067.67 1449.46,1067.67 1462.13,866.079 1474.8,861.822 1487.47,951.76 1500.15,951.76 1512.82,976.469 1525.49,976.469 1538.16,1047.87 "/>
<path clip-path="url(#clip540)" d="M1823.12 1443.7 L3152.76 1443.7 L3152.76 108.352 L1823.12 108.352  Z" fill="#ffffff" fill-rule="evenodd" fill-opacity="1"/>
<defs>
  <clipPath id="clip543">
    <rect x="1823" y="108" width="1331" height="1336"/>
  </clipPath>
</defs>
<polyline clip-path="url(#clip543)" style="stroke:#000000; stroke-linecap:round; stroke-linejoin:round; stroke-width:2; stroke-opacity:0.1; fill:none" points="1992.95,1443.7 1992.95,108.352 "/>
<polyline clip-path="url(#clip543)" style="stroke:#000000; stroke-linecap:round; stroke-linejoin:round; stroke-width:2; stroke-opacity:0.1; fill:none" points="2250.12,1443.7 2250.12,108.352 "/>
<polyline clip-path="url(#clip543)" style="stroke:#000000; stroke-linecap:round; stroke-linejoin:round; stroke-width:2; stroke-opacity:0.1; fill:none" points="2507.29,1443.7 2507.29,108.352 "/>
<polyline clip-path="url(#clip543)" style="stroke:#000000; stroke-linecap:round; stroke-linejoin:round; stroke-width:2; stroke-opacity:0.1; fill:none" points="2764.46,1443.7 2764.46,108.352 "/>
<polyline clip-path="url(#clip543)" style="stroke:#000000; stroke-linecap:round; stroke-linejoin:round; stroke-width:2; stroke-opacity:0.1; fill:none" points="3021.63,1443.7 3021.63,108.352 "/>
<polyline clip-path="url(#clip540)" style="stroke:#000000; stroke-linecap:round; stroke-linejoin:round; stroke-width:4; stroke-opacity:1; fill:none" points="1823.12,1443.7 3152.76,1443.7 "/>
<polyline clip-path="url(#clip540)" style="stroke:#000000; stroke-linecap:round; stroke-linejoin:round; stroke-width:4; stroke-opacity:1; fill:none" points="1992.95,1443.7 1992.95,1424.8 "/>
<polyline clip-path="url(#clip540)" style="stroke:#000000; stroke-linecap:round; stroke-linejoin:round; stroke-width:4; stroke-opacity:1; fill:none" points="2250.12,1443.7 2250.12,1424.8 "/>
<polyline clip-path="url(#clip540)" style="stroke:#000000; stroke-linecap:round; stroke-linejoin:round; stroke-width:4; stroke-opacity:1; fill:none" points="2507.29,1443.7 2507.29,1424.8 "/>
<polyline clip-path="url(#clip540)" style="stroke:#000000; stroke-linecap:round; stroke-linejoin:round; stroke-width:4; stroke-opacity:1; fill:none" points="2764.46,1443.7 2764.46,1424.8 "/>
<polyline clip-path="url(#clip540)" style="stroke:#000000; stroke-linecap:round; stroke-linejoin:round; stroke-width:4; stroke-opacity:1; fill:none" points="3021.63,1443.7 3021.63,1424.8 "/>
<path clip-path="url(#clip540)" d="M1955.75 1481.02 Q1952.14 1481.02 1950.31 1484.58 Q1948.51 1488.12 1948.51 1495.25 Q1948.51 1502.36 1950.31 1505.93 Q1952.14 1509.47 1955.75 1509.47 Q1959.39 1509.47 1961.19 1505.93 Q1963.02 1502.36 1963.02 1495.25 Q1963.02 1488.12 1961.19 1484.58 Q1959.39 1481.02 1955.75 1481.02 M1955.75 1477.31 Q1961.56 1477.31 1964.62 1481.92 Q1967.7 1486.5 1967.7 1495.25 Q1967.7 1503.98 1964.62 1508.59 Q1961.56 1513.17 1955.75 1513.17 Q1949.94 1513.17 1946.87 1508.59 Q1943.81 1503.98 1943.81 1495.25 Q1943.81 1486.5 1946.87 1481.92 Q1949.94 1477.31 1955.75 1477.31 Z" fill="#000000" fill-rule="nonzero" fill-opacity="1" /><path clip-path="url(#clip540)" d="M1975.92 1506.62 L1980.8 1506.62 L1980.8 1512.5 L1975.92 1512.5 L1975.92 1506.62 Z" fill="#000000" fill-rule="nonzero" fill-opacity="1" /><path clip-path="url(#clip540)" d="M1991.8 1508.56 L1999.43 1508.56 L1999.43 1482.2 L1991.12 1483.87 L1991.12 1479.61 L1999.39 1477.94 L2004.06 1477.94 L2004.06 1508.56 L2011.7 1508.56 L2011.7 1512.5 L1991.8 1512.5 L1991.8 1508.56 Z" fill="#000000" fill-rule="nonzero" fill-opacity="1" /><path clip-path="url(#clip540)" d="M2021.19 1477.94 L2039.55 1477.94 L2039.55 1481.88 L2025.48 1481.88 L2025.48 1490.35 Q2026.49 1490 2027.51 1489.84 Q2028.53 1489.65 2029.55 1489.65 Q2035.34 1489.65 2038.72 1492.82 Q2042.1 1496 2042.1 1501.41 Q2042.1 1506.99 2038.62 1510.09 Q2035.15 1513.17 2028.83 1513.17 Q2026.66 1513.17 2024.39 1512.8 Q2022.14 1512.43 2019.74 1511.69 L2019.74 1506.99 Q2021.82 1508.12 2024.04 1508.68 Q2026.26 1509.24 2028.74 1509.24 Q2032.74 1509.24 2035.08 1507.13 Q2037.42 1505.02 2037.42 1501.41 Q2037.42 1497.8 2035.08 1495.69 Q2032.74 1493.59 2028.74 1493.59 Q2026.86 1493.59 2024.99 1494 Q2023.14 1494.42 2021.19 1495.3 L2021.19 1477.94 Z" fill="#000000" fill-rule="nonzero" fill-opacity="1" /><path clip-path="url(#clip540)" d="M2212.47 1481.02 Q2208.86 1481.02 2207.03 1484.58 Q2205.23 1488.12 2205.23 1495.25 Q2205.23 1502.36 2207.03 1505.93 Q2208.86 1509.47 2212.47 1509.47 Q2216.11 1509.47 2217.91 1505.93 Q2219.74 1502.36 2219.74 1495.25 Q2219.74 1488.12 2217.91 1484.58 Q2216.11 1481.02 2212.47 1481.02 M2212.47 1477.31 Q2218.28 1477.31 2221.34 1481.92 Q2224.42 1486.5 2224.42 1495.25 Q2224.42 1503.98 2221.34 1508.59 Q2218.28 1513.17 2212.47 1513.17 Q2206.66 1513.17 2203.58 1508.59 Q2200.53 1503.98 2200.53 1495.25 Q2200.53 1486.5 2203.58 1481.92 Q2206.66 1477.31 2212.47 1477.31 Z" fill="#000000" fill-rule="nonzero" fill-opacity="1" /><path clip-path="url(#clip540)" d="M2232.64 1506.62 L2237.52 1506.62 L2237.52 1512.5 L2232.64 1512.5 L2232.64 1506.62 Z" fill="#000000" fill-rule="nonzero" fill-opacity="1" /><path clip-path="url(#clip540)" d="M2248.51 1508.56 L2256.15 1508.56 L2256.15 1482.2 L2247.84 1483.87 L2247.84 1479.61 L2256.11 1477.94 L2260.78 1477.94 L2260.78 1508.56 L2268.42 1508.56 L2268.42 1512.5 L2248.51 1512.5 L2248.51 1508.56 Z" fill="#000000" fill-rule="nonzero" fill-opacity="1" /><path clip-path="url(#clip540)" d="M2287.87 1496.09 Q2284.53 1496.09 2282.61 1497.87 Q2280.71 1499.65 2280.71 1502.78 Q2280.71 1505.9 2282.61 1507.69 Q2284.53 1509.47 2287.87 1509.47 Q2291.2 1509.47 2293.12 1507.69 Q2295.04 1505.88 2295.04 1502.78 Q2295.04 1499.65 2293.12 1497.87 Q2291.22 1496.09 2287.87 1496.09 M2283.19 1494.1 Q2280.18 1493.36 2278.49 1491.3 Q2276.82 1489.24 2276.82 1486.27 Q2276.82 1482.13 2279.76 1479.72 Q2282.73 1477.31 2287.87 1477.31 Q2293.03 1477.31 2295.97 1479.72 Q2298.91 1482.13 2298.91 1486.27 Q2298.91 1489.24 2297.22 1491.3 Q2295.55 1493.36 2292.57 1494.1 Q2295.94 1494.88 2297.82 1497.18 Q2299.72 1499.47 2299.72 1502.78 Q2299.72 1507.8 2296.64 1510.49 Q2293.58 1513.17 2287.87 1513.17 Q2282.15 1513.17 2279.07 1510.49 Q2276.01 1507.8 2276.01 1502.78 Q2276.01 1499.47 2277.91 1497.18 Q2279.81 1494.88 2283.19 1494.1 M2281.48 1486.71 Q2281.48 1489.4 2283.14 1490.9 Q2284.83 1492.41 2287.87 1492.41 Q2290.88 1492.41 2292.57 1490.9 Q2294.28 1489.4 2294.28 1486.71 Q2294.28 1484.03 2292.57 1482.52 Q2290.88 1481.02 2287.87 1481.02 Q2284.83 1481.02 2283.14 1482.52 Q2281.48 1484.03 2281.48 1486.71 Z" fill="#000000" fill-rule="nonzero" fill-opacity="1" /><path clip-path="url(#clip540)" d="M2470.21 1481.02 Q2466.6 1481.02 2464.77 1484.58 Q2462.97 1488.12 2462.97 1495.25 Q2462.97 1502.36 2464.77 1505.93 Q2466.6 1509.47 2470.21 1509.47 Q2473.84 1509.47 2475.65 1505.93 Q2477.48 1502.36 2477.48 1495.25 Q2477.48 1488.12 2475.65 1484.58 Q2473.84 1481.02 2470.21 1481.02 M2470.21 1477.31 Q2476.02 1477.31 2479.08 1481.92 Q2482.16 1486.5 2482.16 1495.25 Q2482.16 1503.98 2479.08 1508.59 Q2476.02 1513.17 2470.21 1513.17 Q2464.4 1513.17 2461.32 1508.59 Q2458.27 1503.98 2458.27 1495.25 Q2458.27 1486.5 2461.32 1481.92 Q2464.4 1477.31 2470.21 1477.31 Z" fill="#000000" fill-rule="nonzero" fill-opacity="1" /><path clip-path="url(#clip540)" d="M2490.37 1506.62 L2495.26 1506.62 L2495.26 1512.5 L2490.37 1512.5 L2490.37 1506.62 Z" fill="#000000" fill-rule="nonzero" fill-opacity="1" /><path clip-path="url(#clip540)" d="M2509.47 1508.56 L2525.79 1508.56 L2525.79 1512.5 L2503.84 1512.5 L2503.84 1508.56 Q2506.51 1505.81 2511.09 1501.18 Q2515.7 1496.53 2516.88 1495.19 Q2519.12 1492.66 2520 1490.93 Q2520.9 1489.17 2520.9 1487.48 Q2520.9 1484.72 2518.96 1482.99 Q2517.04 1481.25 2513.94 1481.25 Q2511.74 1481.25 2509.28 1482.01 Q2506.85 1482.78 2504.08 1484.33 L2504.08 1479.61 Q2506.9 1478.47 2509.35 1477.89 Q2511.81 1477.31 2513.84 1477.31 Q2519.22 1477.31 2522.41 1480 Q2525.6 1482.69 2525.6 1487.18 Q2525.6 1489.31 2524.79 1491.23 Q2524.01 1493.12 2521.9 1495.72 Q2521.32 1496.39 2518.22 1499.61 Q2515.12 1502.8 2509.47 1508.56 Z" fill="#000000" fill-rule="nonzero" fill-opacity="1" /><path clip-path="url(#clip540)" d="M2536.41 1508.56 L2544.05 1508.56 L2544.05 1482.2 L2535.74 1483.87 L2535.74 1479.61 L2544.01 1477.94 L2548.68 1477.94 L2548.68 1508.56 L2556.32 1508.56 L2556.32 1512.5 L2536.41 1512.5 L2536.41 1508.56 Z" fill="#000000" fill-rule="nonzero" fill-opacity="1" /><path clip-path="url(#clip540)" d="M2726.52 1481.02 Q2722.91 1481.02 2721.08 1484.58 Q2719.28 1488.12 2719.28 1495.25 Q2719.28 1502.36 2721.08 1505.93 Q2722.91 1509.47 2726.52 1509.47 Q2730.16 1509.47 2731.96 1505.93 Q2733.79 1502.36 2733.79 1495.25 Q2733.79 1488.12 2731.96 1484.58 Q2730.16 1481.02 2726.52 1481.02 M2726.52 1477.31 Q2732.33 1477.31 2735.39 1481.92 Q2738.47 1486.5 2738.47 1495.25 Q2738.47 1503.98 2735.39 1508.59 Q2732.33 1513.17 2726.52 1513.17 Q2720.71 1513.17 2717.64 1508.59 Q2714.58 1503.98 2714.58 1495.25 Q2714.58 1486.5 2717.64 1481.92 Q2720.71 1477.31 2726.52 1477.31 Z" fill="#000000" fill-rule="nonzero" fill-opacity="1" /><path clip-path="url(#clip540)" d="M2746.69 1506.62 L2751.57 1506.62 L2751.57 1512.5 L2746.69 1512.5 L2746.69 1506.62 Z" fill="#000000" fill-rule="nonzero" fill-opacity="1" /><path clip-path="url(#clip540)" d="M2765.78 1508.56 L2782.1 1508.56 L2782.1 1512.5 L2760.16 1512.5 L2760.16 1508.56 Q2762.82 1505.81 2767.4 1501.18 Q2772.01 1496.53 2773.19 1495.19 Q2775.44 1492.66 2776.32 1490.93 Q2777.22 1489.17 2777.22 1487.48 Q2777.22 1484.72 2775.27 1482.99 Q2773.35 1481.25 2770.25 1481.25 Q2768.05 1481.25 2765.6 1482.01 Q2763.17 1482.78 2760.39 1484.33 L2760.39 1479.61 Q2763.21 1478.47 2765.67 1477.89 Q2768.12 1477.31 2770.16 1477.31 Q2775.53 1477.31 2778.72 1480 Q2781.92 1482.69 2781.92 1487.18 Q2781.92 1489.31 2781.11 1491.23 Q2780.32 1493.12 2778.21 1495.72 Q2777.64 1496.39 2774.53 1499.61 Q2771.43 1502.8 2765.78 1508.56 Z" fill="#000000" fill-rule="nonzero" fill-opacity="1" /><path clip-path="url(#clip540)" d="M2804.77 1482.01 L2792.96 1500.46 L2804.77 1500.46 L2804.77 1482.01 M2803.54 1477.94 L2809.42 1477.94 L2809.42 1500.46 L2814.35 1500.46 L2814.35 1504.35 L2809.42 1504.35 L2809.42 1512.5 L2804.77 1512.5 L2804.77 1504.35 L2789.16 1504.35 L2789.16 1499.84 L2803.54 1477.94 Z" fill="#000000" fill-rule="nonzero" fill-opacity="1" /><path clip-path="url(#clip540)" d="M2984.39 1481.02 Q2980.78 1481.02 2978.95 1484.58 Q2977.14 1488.12 2977.14 1495.25 Q2977.14 1502.36 2978.95 1505.93 Q2980.78 1509.47 2984.39 1509.47 Q2988.02 1509.47 2989.83 1505.93 Q2991.66 1502.36 2991.66 1495.25 Q2991.66 1488.12 2989.83 1484.58 Q2988.02 1481.02 2984.39 1481.02 M2984.39 1477.31 Q2990.2 1477.31 2993.26 1481.92 Q2996.33 1486.5 2996.33 1495.25 Q2996.33 1503.98 2993.26 1508.59 Q2990.2 1513.17 2984.39 1513.17 Q2978.58 1513.17 2975.5 1508.59 Q2972.45 1503.98 2972.45 1495.25 Q2972.45 1486.5 2975.5 1481.92 Q2978.58 1477.31 2984.39 1477.31 Z" fill="#000000" fill-rule="nonzero" fill-opacity="1" /><path clip-path="url(#clip540)" d="M3004.55 1506.62 L3009.44 1506.62 L3009.44 1512.5 L3004.55 1512.5 L3004.55 1506.62 Z" fill="#000000" fill-rule="nonzero" fill-opacity="1" /><path clip-path="url(#clip540)" d="M3023.65 1508.56 L3039.97 1508.56 L3039.97 1512.5 L3018.02 1512.5 L3018.02 1508.56 Q3020.69 1505.81 3025.27 1501.18 Q3029.88 1496.53 3031.06 1495.19 Q3033.3 1492.66 3034.18 1490.93 Q3035.08 1489.17 3035.08 1487.48 Q3035.08 1484.72 3033.14 1482.99 Q3031.22 1481.25 3028.12 1481.25 Q3025.92 1481.25 3023.46 1482.01 Q3021.03 1482.78 3018.26 1484.33 L3018.26 1479.61 Q3021.08 1478.47 3023.53 1477.89 Q3025.99 1477.31 3028.02 1477.31 Q3033.39 1477.31 3036.59 1480 Q3039.78 1482.69 3039.78 1487.18 Q3039.78 1489.31 3038.97 1491.23 Q3038.19 1493.12 3036.08 1495.72 Q3035.5 1496.39 3032.4 1499.61 Q3029.3 1502.8 3023.65 1508.56 Z" fill="#000000" fill-rule="nonzero" fill-opacity="1" /><path clip-path="url(#clip540)" d="M3048.6 1477.94 L3070.82 1477.94 L3070.82 1479.93 L3058.28 1512.5 L3053.39 1512.5 L3065.2 1481.88 L3048.6 1481.88 L3048.6 1477.94 Z" fill="#000000" fill-rule="nonzero" fill-opacity="1" /><path clip-path="url(#clip540)" d="M2300.82 1554.6 L2300.82 1560.87 Q2297.16 1559.12 2293.91 1558.26 Q2290.66 1557.4 2287.64 1557.4 Q2282.39 1557.4 2279.52 1559.44 Q2276.69 1561.48 2276.69 1565.23 Q2276.69 1568.39 2278.57 1570.01 Q2280.48 1571.6 2285.76 1572.59 L2289.64 1573.38 Q2296.84 1574.75 2300.24 1578.22 Q2303.68 1581.66 2303.68 1587.45 Q2303.68 1594.36 2299.03 1597.92 Q2294.42 1601.49 2285.47 1601.49 Q2282.1 1601.49 2278.28 1600.72 Q2274.49 1599.96 2270.42 1598.46 L2270.42 1591.84 Q2274.33 1594.04 2278.09 1595.15 Q2281.85 1596.27 2285.47 1596.27 Q2290.98 1596.27 2293.97 1594.1 Q2296.96 1591.94 2296.96 1587.93 Q2296.96 1584.43 2294.8 1582.45 Q2292.67 1580.48 2287.77 1579.49 L2283.85 1578.73 Q2276.66 1577.3 2273.44 1574.24 Q2270.23 1571.19 2270.23 1565.74 Q2270.23 1559.44 2274.65 1555.81 Q2279.11 1552.18 2286.91 1552.18 Q2290.25 1552.18 2293.72 1552.79 Q2297.19 1553.39 2300.82 1554.6 Z" fill="#000000" fill-rule="nonzero" fill-opacity="1" /><path clip-path="url(#clip540)" d="M2329.65 1582.64 Q2322.55 1582.64 2319.82 1584.27 Q2317.08 1585.89 2317.08 1589.81 Q2317.08 1592.92 2319.12 1594.77 Q2321.19 1596.59 2324.72 1596.59 Q2329.59 1596.59 2332.52 1593.15 Q2335.48 1589.68 2335.48 1583.95 L2335.48 1582.64 L2329.65 1582.64 M2341.33 1580.23 L2341.33 1600.56 L2335.48 1600.56 L2335.48 1595.15 Q2333.47 1598.4 2330.48 1599.96 Q2327.49 1601.49 2323.16 1601.49 Q2317.69 1601.49 2314.44 1598.43 Q2311.22 1595.34 2311.22 1590.19 Q2311.22 1584.17 2315.23 1581.12 Q2319.28 1578.06 2327.27 1578.06 L2335.48 1578.06 L2335.48 1577.49 Q2335.48 1573.45 2332.8 1571.25 Q2330.16 1569.02 2325.36 1569.02 Q2322.3 1569.02 2319.4 1569.75 Q2316.51 1570.49 2313.83 1571.95 L2313.83 1566.54 Q2317.05 1565.3 2320.07 1564.69 Q2323.1 1564.06 2325.96 1564.06 Q2333.69 1564.06 2337.51 1568.07 Q2341.33 1572.08 2341.33 1580.23 Z" fill="#000000" fill-rule="nonzero" fill-opacity="1" /><path clip-path="url(#clip540)" d="M2381.15 1571.76 Q2383.35 1567.81 2386.4 1565.93 Q2389.46 1564.06 2393.6 1564.06 Q2399.17 1564.06 2402.19 1567.97 Q2405.21 1571.85 2405.21 1579.05 L2405.21 1600.56 L2399.33 1600.56 L2399.33 1579.24 Q2399.33 1574.11 2397.51 1571.63 Q2395.7 1569.15 2391.97 1569.15 Q2387.42 1569.15 2384.78 1572.17 Q2382.14 1575.2 2382.14 1580.42 L2382.14 1600.56 L2376.25 1600.56 L2376.25 1579.24 Q2376.25 1574.08 2374.44 1571.63 Q2372.62 1569.15 2368.83 1569.15 Q2364.35 1569.15 2361.7 1572.2 Q2359.06 1575.23 2359.06 1580.42 L2359.06 1600.56 L2353.17 1600.56 L2353.17 1564.92 L2359.06 1564.92 L2359.06 1570.45 Q2361.07 1567.18 2363.87 1565.62 Q2366.67 1564.06 2370.52 1564.06 Q2374.4 1564.06 2377.11 1566.03 Q2379.85 1568 2381.15 1571.76 Z" fill="#000000" fill-rule="nonzero" fill-opacity="1" /><path clip-path="url(#clip540)" d="M2422.56 1595.22 L2422.56 1614.12 L2416.67 1614.12 L2416.67 1564.92 L2422.56 1564.92 L2422.56 1570.33 Q2424.41 1567.14 2427.21 1565.62 Q2430.04 1564.06 2433.95 1564.06 Q2440.45 1564.06 2444.49 1569.21 Q2448.56 1574.37 2448.56 1582.77 Q2448.56 1591.17 2444.49 1596.33 Q2440.45 1601.49 2433.95 1601.49 Q2430.04 1601.49 2427.21 1599.96 Q2424.41 1598.4 2422.56 1595.22 M2442.48 1582.77 Q2442.48 1576.31 2439.81 1572.65 Q2437.17 1568.96 2432.52 1568.96 Q2427.88 1568.96 2425.2 1572.65 Q2422.56 1576.31 2422.56 1582.77 Q2422.56 1589.23 2425.2 1592.92 Q2427.88 1596.59 2432.52 1596.59 Q2437.17 1596.59 2439.81 1592.92 Q2442.48 1589.23 2442.48 1582.77 Z" fill="#000000" fill-rule="nonzero" fill-opacity="1" /><path clip-path="url(#clip540)" d="M2458.27 1551.04 L2464.13 1551.04 L2464.13 1600.56 L2458.27 1600.56 L2458.27 1551.04 Z" fill="#000000" fill-rule="nonzero" fill-opacity="1" /><path clip-path="url(#clip540)" d="M2506.87 1581.28 L2506.87 1584.14 L2479.95 1584.14 Q2480.33 1590.19 2483.58 1593.37 Q2486.85 1596.52 2492.68 1596.52 Q2496.05 1596.52 2499.2 1595.69 Q2502.39 1594.87 2505.51 1593.21 L2505.51 1598.75 Q2502.35 1600.09 2499.04 1600.79 Q2495.73 1601.49 2492.33 1601.49 Q2483.8 1601.49 2478.8 1596.52 Q2473.84 1591.56 2473.84 1583.09 Q2473.84 1574.34 2478.55 1569.21 Q2483.29 1564.06 2491.31 1564.06 Q2498.5 1564.06 2502.67 1568.7 Q2506.87 1573.32 2506.87 1581.28 M2501.02 1579.56 Q2500.95 1574.75 2498.31 1571.89 Q2495.7 1569.02 2491.37 1569.02 Q2486.47 1569.02 2483.51 1571.79 Q2480.58 1574.56 2480.14 1579.59 L2501.02 1579.56 Z" fill="#000000" fill-rule="nonzero" fill-opacity="1" /><path clip-path="url(#clip540)" d="M2533.01 1564.92 L2539.21 1564.92 L2550.35 1594.83 L2561.49 1564.92 L2567.7 1564.92 L2554.33 1600.56 L2546.37 1600.56 L2533.01 1564.92 Z" fill="#000000" fill-rule="nonzero" fill-opacity="1" /><path clip-path="url(#clip540)" d="M2591.98 1582.64 Q2584.89 1582.64 2582.15 1584.27 Q2579.41 1585.89 2579.41 1589.81 Q2579.41 1592.92 2581.45 1594.77 Q2583.52 1596.59 2587.05 1596.59 Q2591.92 1596.59 2594.85 1593.15 Q2597.81 1589.68 2597.81 1583.95 L2597.81 1582.64 L2591.98 1582.64 M2603.66 1580.23 L2603.66 1600.56 L2597.81 1600.56 L2597.81 1595.15 Q2595.8 1598.4 2592.81 1599.96 Q2589.82 1601.49 2585.49 1601.49 Q2580.02 1601.49 2576.77 1598.43 Q2573.55 1595.34 2573.55 1590.19 Q2573.55 1584.17 2577.57 1581.12 Q2581.61 1578.06 2589.6 1578.06 L2597.81 1578.06 L2597.81 1577.49 Q2597.81 1573.45 2595.13 1571.25 Q2592.49 1569.02 2587.69 1569.02 Q2584.63 1569.02 2581.73 1569.75 Q2578.84 1570.49 2576.16 1571.95 L2576.16 1566.54 Q2579.38 1565.3 2582.4 1564.69 Q2585.43 1564.06 2588.29 1564.06 Q2596.03 1564.06 2599.85 1568.07 Q2603.66 1572.08 2603.66 1580.23 Z" fill="#000000" fill-rule="nonzero" fill-opacity="1" /><path clip-path="url(#clip540)" d="M2615.73 1551.04 L2621.58 1551.04 L2621.58 1600.56 L2615.73 1600.56 L2615.73 1551.04 Z" fill="#000000" fill-rule="nonzero" fill-opacity="1" /><path clip-path="url(#clip540)" d="M2633.23 1586.5 L2633.23 1564.92 L2639.09 1564.92 L2639.09 1586.27 Q2639.09 1591.33 2641.06 1593.88 Q2643.04 1596.39 2646.98 1596.39 Q2651.73 1596.39 2654.46 1593.37 Q2657.23 1590.35 2657.23 1585.13 L2657.23 1564.92 L2663.09 1564.92 L2663.09 1600.56 L2657.23 1600.56 L2657.23 1595.09 Q2655.1 1598.34 2652.27 1599.93 Q2649.47 1601.49 2645.74 1601.49 Q2639.6 1601.49 2636.42 1597.67 Q2633.23 1593.85 2633.23 1586.5 M2647.97 1564.06 L2647.97 1564.06 Z" fill="#000000" fill-rule="nonzero" fill-opacity="1" /><path clip-path="url(#clip540)" d="M2705.64 1581.28 L2705.64 1584.14 L2678.72 1584.14 Q2679.1 1590.19 2682.34 1593.37 Q2685.62 1596.52 2691.45 1596.52 Q2694.82 1596.52 2697.97 1595.69 Q2701.16 1594.87 2704.27 1593.21 L2704.27 1598.75 Q2701.12 1600.09 2697.81 1600.79 Q2694.5 1601.49 2691.1 1601.49 Q2682.57 1601.49 2677.57 1596.52 Q2672.61 1591.56 2672.61 1583.09 Q2672.61 1574.34 2677.32 1569.21 Q2682.06 1564.06 2690.08 1564.06 Q2697.27 1564.06 2701.44 1568.7 Q2705.64 1573.32 2705.64 1581.28 M2699.79 1579.56 Q2699.72 1574.75 2697.08 1571.89 Q2694.47 1569.02 2690.14 1569.02 Q2685.24 1569.02 2682.28 1571.79 Q2679.35 1574.56 2678.91 1579.59 L2699.79 1579.56 Z" fill="#000000" fill-rule="nonzero" fill-opacity="1" /><polyline clip-path="url(#clip543)" style="stroke:#000000; stroke-linecap:round; stroke-linejoin:round; stroke-width:2; stroke-opacity:0.1; fill:none" points="1823.12,1405.91 3152.76,1405.91 "/>
<polyline clip-path="url(#clip543)" style="stroke:#000000; stroke-linecap:round; stroke-linejoin:round; stroke-width:2; stroke-opacity:0.1; fill:none" points="1823.12,1187.86 3152.76,1187.86 "/>
<polyline clip-path="url(#clip543)" style="stroke:#000000; stroke-linecap:round; stroke-linejoin:round; stroke-width:2; stroke-opacity:0.1; fill:none" points="1823.12,969.813 3152.76,969.813 "/>
<polyline clip-path="url(#clip543)" style="stroke:#000000; stroke-linecap:round; stroke-linejoin:round; stroke-width:2; stroke-opacity:0.1; fill:none" points="1823.12,751.767 3152.76,751.767 "/>
<polyline clip-path="url(#clip543)" style="stroke:#000000; stroke-linecap:round; stroke-linejoin:round; stroke-width:2; stroke-opacity:0.1; fill:none" points="1823.12,533.72 3152.76,533.72 "/>
<polyline clip-path="url(#clip543)" style="stroke:#000000; stroke-linecap:round; stroke-linejoin:round; stroke-width:2; stroke-opacity:0.1; fill:none" points="1823.12,315.673 3152.76,315.673 "/>
<polyline clip-path="url(#clip540)" style="stroke:#000000; stroke-linecap:round; stroke-linejoin:round; stroke-width:4; stroke-opacity:1; fill:none" points="1823.12,1443.7 1823.12,108.352 "/>
<polyline clip-path="url(#clip540)" style="stroke:#000000; stroke-linecap:round; stroke-linejoin:round; stroke-width:4; stroke-opacity:1; fill:none" points="1823.12,1405.91 1842.01,1405.91 "/>
<polyline clip-path="url(#clip540)" style="stroke:#000000; stroke-linecap:round; stroke-linejoin:round; stroke-width:4; stroke-opacity:1; fill:none" points="1823.12,1187.86 1842.01,1187.86 "/>
<polyline clip-path="url(#clip540)" style="stroke:#000000; stroke-linecap:round; stroke-linejoin:round; stroke-width:4; stroke-opacity:1; fill:none" points="1823.12,969.813 1842.01,969.813 "/>
<polyline clip-path="url(#clip540)" style="stroke:#000000; stroke-linecap:round; stroke-linejoin:round; stroke-width:4; stroke-opacity:1; fill:none" points="1823.12,751.767 1842.01,751.767 "/>
<polyline clip-path="url(#clip540)" style="stroke:#000000; stroke-linecap:round; stroke-linejoin:round; stroke-width:4; stroke-opacity:1; fill:none" points="1823.12,533.72 1842.01,533.72 "/>
<polyline clip-path="url(#clip540)" style="stroke:#000000; stroke-linecap:round; stroke-linejoin:round; stroke-width:4; stroke-opacity:1; fill:none" points="1823.12,315.673 1842.01,315.673 "/>
<path clip-path="url(#clip540)" d="M1763.17 1391.71 Q1759.56 1391.71 1757.73 1395.27 Q1755.93 1398.81 1755.93 1405.94 Q1755.93 1413.05 1757.73 1416.61 Q1759.56 1420.15 1763.17 1420.15 Q1766.81 1420.15 1768.61 1416.61 Q1770.44 1413.05 1770.44 1405.94 Q1770.44 1398.81 1768.61 1395.27 Q1766.81 1391.71 1763.17 1391.71 M1763.17 1388 Q1768.98 1388 1772.04 1392.61 Q1775.12 1397.19 1775.12 1405.94 Q1775.12 1414.67 1772.04 1419.27 Q1768.98 1423.86 1763.17 1423.86 Q1757.36 1423.86 1754.28 1419.27 Q1751.23 1414.67 1751.23 1405.94 Q1751.23 1397.19 1754.28 1392.61 Q1757.36 1388 1763.17 1388 Z" fill="#000000" fill-rule="nonzero" fill-opacity="1" /><path clip-path="url(#clip540)" d="M1754.21 1170.58 L1772.57 1170.58 L1772.57 1174.52 L1758.5 1174.52 L1758.5 1182.99 Q1759.51 1182.64 1760.53 1182.48 Q1761.55 1182.29 1762.57 1182.29 Q1768.36 1182.29 1771.74 1185.46 Q1775.12 1188.64 1775.12 1194.05 Q1775.12 1199.63 1771.64 1202.73 Q1768.17 1205.81 1761.85 1205.81 Q1759.68 1205.81 1757.41 1205.44 Q1755.16 1205.07 1752.75 1204.33 L1752.75 1199.63 Q1754.84 1200.77 1757.06 1201.32 Q1759.28 1201.88 1761.76 1201.88 Q1765.76 1201.88 1768.1 1199.77 Q1770.44 1197.66 1770.44 1194.05 Q1770.44 1190.44 1768.1 1188.33 Q1765.76 1186.23 1761.76 1186.23 Q1759.88 1186.23 1758.01 1186.64 Q1756.16 1187.06 1754.21 1187.94 L1754.21 1170.58 Z" fill="#000000" fill-rule="nonzero" fill-opacity="1" /><path clip-path="url(#clip540)" d="M1723.82 983.158 L1731.46 983.158 L1731.46 956.793 L1723.15 958.459 L1723.15 954.2 L1731.41 952.533 L1736.09 952.533 L1736.09 983.158 L1743.73 983.158 L1743.73 987.093 L1723.82 987.093 L1723.82 983.158 Z" fill="#000000" fill-rule="nonzero" fill-opacity="1" /><path clip-path="url(#clip540)" d="M1763.17 955.612 Q1759.56 955.612 1757.73 959.177 Q1755.93 962.719 1755.93 969.848 Q1755.93 976.955 1757.73 980.519 Q1759.56 984.061 1763.17 984.061 Q1766.81 984.061 1768.61 980.519 Q1770.44 976.955 1770.44 969.848 Q1770.44 962.719 1768.61 959.177 Q1766.81 955.612 1763.17 955.612 M1763.17 951.908 Q1768.98 951.908 1772.04 956.515 Q1775.12 961.098 1775.12 969.848 Q1775.12 978.575 1772.04 983.181 Q1768.98 987.765 1763.17 987.765 Q1757.36 987.765 1754.28 983.181 Q1751.23 978.575 1751.23 969.848 Q1751.23 961.098 1754.28 956.515 Q1757.36 951.908 1763.17 951.908 Z" fill="#000000" fill-rule="nonzero" fill-opacity="1" /><path clip-path="url(#clip540)" d="M1724.82 765.111 L1732.45 765.111 L1732.45 738.746 L1724.14 740.412 L1724.14 736.153 L1732.41 734.487 L1737.08 734.487 L1737.08 765.111 L1744.72 765.111 L1744.72 769.047 L1724.82 769.047 L1724.82 765.111 Z" fill="#000000" fill-rule="nonzero" fill-opacity="1" /><path clip-path="url(#clip540)" d="M1754.21 734.487 L1772.57 734.487 L1772.57 738.422 L1758.5 738.422 L1758.5 746.894 Q1759.51 746.547 1760.53 746.385 Q1761.55 746.2 1762.57 746.2 Q1768.36 746.2 1771.74 749.371 Q1775.12 752.542 1775.12 757.959 Q1775.12 763.537 1771.64 766.639 Q1768.17 769.718 1761.85 769.718 Q1759.68 769.718 1757.41 769.348 Q1755.16 768.977 1752.75 768.236 L1752.75 763.537 Q1754.84 764.672 1757.06 765.227 Q1759.28 765.783 1761.76 765.783 Q1765.76 765.783 1768.1 763.676 Q1770.44 761.57 1770.44 757.959 Q1770.44 754.348 1768.1 752.241 Q1765.76 750.135 1761.76 750.135 Q1759.88 750.135 1758.01 750.551 Q1756.16 750.968 1754.21 751.848 L1754.21 734.487 Z" fill="#000000" fill-rule="nonzero" fill-opacity="1" /><path clip-path="url(#clip540)" d="M1727.04 547.065 L1743.36 547.065 L1743.36 551 L1721.41 551 L1721.41 547.065 Q1724.07 544.31 1728.66 539.68 Q1733.26 535.028 1734.44 533.685 Q1736.69 531.162 1737.57 529.426 Q1738.47 527.667 1738.47 525.977 Q1738.47 523.222 1736.53 521.486 Q1734.61 519.75 1731.5 519.75 Q1729.31 519.75 1726.85 520.514 Q1724.42 521.278 1721.64 522.829 L1721.64 518.106 Q1724.47 516.972 1726.92 516.394 Q1729.38 515.815 1731.41 515.815 Q1736.78 515.815 1739.98 518.5 Q1743.17 521.185 1743.17 525.676 Q1743.17 527.805 1742.36 529.727 Q1741.57 531.625 1739.47 534.217 Q1738.89 534.889 1735.79 538.106 Q1732.69 541.301 1727.04 547.065 Z" fill="#000000" fill-rule="nonzero" fill-opacity="1" /><path clip-path="url(#clip540)" d="M1763.17 519.518 Q1759.56 519.518 1757.73 523.083 Q1755.93 526.625 1755.93 533.755 Q1755.93 540.861 1757.73 544.426 Q1759.56 547.967 1763.17 547.967 Q1766.81 547.967 1768.61 544.426 Q1770.44 540.861 1770.44 533.755 Q1770.44 526.625 1768.61 523.083 Q1766.81 519.518 1763.17 519.518 M1763.17 515.815 Q1768.98 515.815 1772.04 520.421 Q1775.12 525.005 1775.12 533.755 Q1775.12 542.481 1772.04 547.088 Q1768.98 551.671 1763.17 551.671 Q1757.36 551.671 1754.28 547.088 Q1751.23 542.481 1751.23 533.755 Q1751.23 525.005 1754.28 520.421 Q1757.36 515.815 1763.17 515.815 Z" fill="#000000" fill-rule="nonzero" fill-opacity="1" /><path clip-path="url(#clip540)" d="M1728.03 329.018 L1744.35 329.018 L1744.35 332.953 L1722.41 332.953 L1722.41 329.018 Q1725.07 326.263 1729.65 321.634 Q1734.26 316.981 1735.44 315.638 Q1737.69 313.115 1738.57 311.379 Q1739.47 309.62 1739.47 307.93 Q1739.47 305.175 1737.52 303.439 Q1735.6 301.703 1732.5 301.703 Q1730.3 301.703 1727.85 302.467 Q1725.42 303.231 1722.64 304.782 L1722.64 300.06 Q1725.46 298.925 1727.92 298.347 Q1730.37 297.768 1732.41 297.768 Q1737.78 297.768 1740.97 300.453 Q1744.17 303.138 1744.17 307.629 Q1744.17 309.759 1743.36 311.68 Q1742.57 313.578 1740.46 316.171 Q1739.88 316.842 1736.78 320.06 Q1733.68 323.254 1728.03 329.018 Z" fill="#000000" fill-rule="nonzero" fill-opacity="1" /><path clip-path="url(#clip540)" d="M1754.21 298.393 L1772.57 298.393 L1772.57 302.328 L1758.5 302.328 L1758.5 310.8 Q1759.51 310.453 1760.53 310.291 Q1761.55 310.106 1762.57 310.106 Q1768.36 310.106 1771.74 313.277 Q1775.12 316.448 1775.12 321.865 Q1775.12 327.444 1771.64 330.546 Q1768.17 333.624 1761.85 333.624 Q1759.68 333.624 1757.41 333.254 Q1755.16 332.884 1752.75 332.143 L1752.75 327.444 Q1754.84 328.578 1757.06 329.134 Q1759.28 329.689 1761.76 329.689 Q1765.76 329.689 1768.1 327.583 Q1770.44 325.476 1770.44 321.865 Q1770.44 318.254 1768.1 316.148 Q1765.76 314.041 1761.76 314.041 Q1759.88 314.041 1758.01 314.458 Q1756.16 314.874 1754.21 315.754 L1754.21 298.393 Z" fill="#000000" fill-rule="nonzero" fill-opacity="1" /><path clip-path="url(#clip540)" d="M1616.92 889.336 L1653.87 889.336 L1653.87 881.569 Q1653.87 871.734 1649.42 867.183 Q1644.96 862.6 1635.35 862.6 Q1625.8 862.6 1621.38 867.183 Q1616.92 871.734 1616.92 881.569 L1616.92 889.336 M1611.64 895.765 L1611.64 882.556 Q1611.64 868.743 1617.4 862.281 Q1623.13 855.82 1635.35 855.82 Q1647.63 855.82 1653.4 862.313 Q1659.16 868.806 1659.16 882.556 L1659.16 895.765 L1611.64 895.765 Z" fill="#000000" fill-rule="nonzero" fill-opacity="1" /><path clip-path="url(#clip540)" d="M1639.87 815.334 L1642.73 815.334 L1642.73 842.261 Q1648.78 841.879 1651.96 838.633 Q1655.11 835.354 1655.11 829.53 Q1655.11 826.156 1654.29 823.005 Q1653.46 819.822 1651.8 816.703 L1657.34 816.703 Q1658.68 819.854 1659.38 823.164 Q1660.08 826.474 1660.08 829.88 Q1660.08 838.41 1655.11 843.407 Q1650.15 848.372 1641.68 848.372 Q1632.93 848.372 1627.81 843.662 Q1622.65 838.919 1622.65 830.898 Q1622.65 823.705 1627.3 819.536 Q1631.91 815.334 1639.87 815.334 M1638.15 821.191 Q1633.34 821.254 1630.48 823.896 Q1627.61 826.506 1627.61 830.835 Q1627.61 835.736 1630.38 838.696 Q1633.15 841.625 1638.18 842.07 L1638.15 821.191 Z" fill="#000000" fill-rule="nonzero" fill-opacity="1" /><path clip-path="url(#clip540)" d="M1637.64 776.09 L1659.16 776.09 L1659.16 781.946 L1637.83 781.946 Q1632.77 781.946 1630.26 783.919 Q1627.74 785.893 1627.74 789.84 Q1627.74 794.582 1630.77 797.319 Q1633.79 800.057 1639.01 800.057 L1659.16 800.057 L1659.16 805.945 L1623.51 805.945 L1623.51 800.057 L1629.05 800.057 Q1625.83 797.956 1624.24 795.123 Q1622.65 792.259 1622.65 788.535 Q1622.65 782.392 1626.47 779.241 Q1630.26 776.09 1637.64 776.09 Z" fill="#000000" fill-rule="nonzero" fill-opacity="1" /><path clip-path="url(#clip540)" d="M1624.56 741.683 L1630.1 741.683 Q1628.82 744.166 1628.19 746.839 Q1627.55 749.513 1627.55 752.377 Q1627.55 756.738 1628.89 758.934 Q1630.22 761.098 1632.9 761.098 Q1634.93 761.098 1636.11 759.539 Q1637.26 757.979 1638.31 753.269 L1638.75 751.263 Q1640.09 745.025 1642.54 742.415 Q1644.96 739.773 1649.32 739.773 Q1654.29 739.773 1657.18 743.72 Q1660.08 747.635 1660.08 754.51 Q1660.08 757.374 1659.51 760.494 Q1658.97 763.581 1657.85 767.019 L1651.8 767.019 Q1653.49 763.772 1654.35 760.621 Q1655.18 757.47 1655.18 754.383 Q1655.18 750.245 1653.78 748.017 Q1652.35 745.789 1649.77 745.789 Q1647.38 745.789 1646.11 747.412 Q1644.83 749.004 1643.66 754.446 L1643.18 756.483 Q1642.03 761.926 1639.68 764.345 Q1637.29 766.764 1633.15 766.764 Q1628.12 766.764 1625.39 763.199 Q1622.65 759.634 1622.65 753.078 Q1622.65 749.831 1623.13 746.967 Q1623.6 744.102 1624.56 741.683 Z" fill="#000000" fill-rule="nonzero" fill-opacity="1" /><path clip-path="url(#clip540)" d="M1623.51 730.448 L1623.51 724.591 L1659.16 724.591 L1659.16 730.448 L1623.51 730.448 M1609.63 730.448 L1609.63 724.591 L1617.05 724.591 L1617.05 730.448 L1609.63 730.448 Z" fill="#000000" fill-rule="nonzero" fill-opacity="1" /><path clip-path="url(#clip540)" d="M1613.39 706.544 L1623.51 706.544 L1623.51 694.481 L1628.06 694.481 L1628.06 706.544 L1647.41 706.544 Q1651.77 706.544 1653.01 705.367 Q1654.25 704.157 1654.25 700.497 L1654.25 694.481 L1659.16 694.481 L1659.16 700.497 Q1659.16 707.276 1656.64 709.854 Q1654.1 712.433 1647.41 712.433 L1628.06 712.433 L1628.06 716.729 L1623.51 716.729 L1623.51 712.433 L1613.39 712.433 L1613.39 706.544 Z" fill="#000000" fill-rule="nonzero" fill-opacity="1" /><path clip-path="url(#clip540)" d="M1662.47 671.947 Q1668.83 674.429 1670.77 676.785 Q1672.72 679.14 1672.72 683.087 L1672.72 687.765 L1667.81 687.765 L1667.81 684.328 Q1667.81 681.909 1666.67 680.572 Q1665.52 679.235 1661.26 677.612 L1658.58 676.562 L1623.51 690.98 L1623.51 684.774 L1651.39 673.634 L1623.51 662.494 L1623.51 656.287 L1662.47 671.947 Z" fill="#000000" fill-rule="nonzero" fill-opacity="1" /><path clip-path="url(#clip540)" d="M2485.97 33.1202 Q2479.81 33.1202 2476.49 37.5762 Q2473.01 42.2347 2473.01 49.9314 Q2473.01 58.0738 2476.45 62.7728 Q2479.94 67.4314 2485.97 67.4314 Q2491.93 67.4314 2495.41 62.7323 Q2498.89 58.0333 2498.89 49.9314 Q2498.89 42.5183 2495.41 37.5762 Q2492.21 33.1202 2485.97 33.1202 M2485.97 27.2059 L2510.72 27.2059 L2510.72 34.6595 L2502.38 34.6595 Q2506.79 40.9789 2506.79 49.9314 Q2506.79 61.0714 2501.24 67.3908 Q2495.69 73.7508 2485.97 73.7508 Q2476.21 73.7508 2470.7 67.3908 Q2465.15 61.0714 2465.15 49.9314 Q2465.15 38.7104 2470.7 32.4315 Q2475.28 27.2059 2485.97 27.2059 Z" fill="#000000" fill-rule="nonzero" fill-opacity="1" /><polyline clip-path="url(#clip543)" style="stroke:#009af9; stroke-linecap:round; stroke-linejoin:round; stroke-width:4; stroke-opacity:1; fill:none" points="2040.15,1060.05 2047.36,1022.95 2054.58,985.9 2061.79,948.692 2069.01,910.915 2076.22,872.07 2083.44,831.691 2090.65,789.491 2097.87,745.477 2105.08,700.035 2112.3,653.957 2119.51,608.397 2126.73,564.773 2133.94,524.622 2141.15,489.424 2148.37,460.426 2155.58,438.481 2162.8,423.933 2170.01,416.544 2177.23,415.489 2184.44,419.404 2191.66,426.494 2198.87,434.687 2206.09,441.828 2213.3,445.89 2220.51,445.182 2227.73,438.546 2234.94,425.498 2242.16,406.309 2249.37,382.004 2256.59,354.276 2263.8,325.316 2271.02,297.58 2278.23,273.53 2285.45,255.369 2292.66,244.819 2299.88,242.958 2307.09,250.154 2314.3,266.075 2321.52,289.791 2328.73,319.932 2335.95,354.892 2343.16,393.036 2350.38,432.908 2357.59,473.383 2364.81,513.782 2372.02,553.911 2379.24,594.024 2386.45,634.726 2393.67,676.818 2400.88,721.106 2408.09,768.218 2415.31,818.44 2422.52,871.619 2429.74,927.132 2436.95,983.938 2444.17,1040.7 2451.38,1095.92 2458.6,1148.17 2465.81,1196.2 2473.03,1239.05 2480.24,1276.16 2487.45,1307.37 2494.67,1332.85 2501.88,1353.04 2509.1,1368.58 2516.31,1380.2 2523.53,1388.64 2530.74,1394.6 2537.96,1398.69 2545.17,1401.41 2552.39,1403.18 2559.6,1404.29 2566.82,1404.98 2574.03,1405.38 2581.24,1405.62 2588.46,1405.75 2595.67,1405.83 2602.89,1405.87 2610.1,1405.89 2617.32,1405.9 2624.53,1405.9 2631.75,1405.9 2638.96,1405.91 2646.18,1405.91 2653.39,1405.91 2660.61,1405.91 2667.82,1405.91 2675.03,1405.91 2682.25,1405.91 2689.46,1405.91 2696.68,1405.91 2703.89,1405.91 2711.11,1405.91 2718.32,1405.91 2725.54,1405.91 2732.75,1405.91 2739.97,1405.91 2747.18,1405.91 2754.39,1405.91 2761.61,1405.91 2768.82,1405.91 2776.04,1405.91 2783.25,1405.91 2790.47,1405.91 2797.68,1405.91 2804.9,1405.91 2812.11,1405.91 2819.33,1405.91 2826.54,1405.91 2833.76,1405.91 2840.97,1405.91 2848.18,1405.91 2855.4,1405.91 2862.61,1405.91 2869.83,1405.91 2877.04,1405.91 2884.26,1405.91 2891.47,1405.91 2898.69,1405.91 2905.9,1405.91 2913.12,1405.91 2920.33,1405.91 2927.55,1405.9 2934.76,1405.9 2941.97,1405.89 2949.19,1405.88 2956.4,1405.86 2963.62,1405.82 2970.83,1405.76 2978.05,1405.65 2985.26,1405.49 2992.48,1405.25 2999.69,1404.88 3006.91,1404.35 3014.12,1403.62 3021.33,1402.62 3028.55,1401.32 3035.76,1399.65 3042.98,1397.61 3050.19,1395.18 3057.41,1392.4 3064.62,1389.33 3071.84,1386.09 3079.05,1382.84 3086.27,1379.74 3093.48,1376.99 3100.7,1374.77 3107.91,1373.25 3115.12,1372.54 "/>
<polyline clip-path="url(#clip543)" style="stroke:#e26f46; stroke-linecap:round; stroke-linejoin:round; stroke-width:4; stroke-opacity:1; fill:none" points="1969.49,1312.64 1974.56,1300.42 1979.63,1286.99 1984.71,1272.33 1989.78,1256.46 1994.85,1239.4 1999.92,1221.25 2005,1202.1 2010.07,1182.1 2015.14,1161.41 2020.22,1140.22 2025.29,1118.69 2030.36,1097 2035.44,1075.3 2040.51,1053.71 2045.58,1032.32 2050.65,1011.19 2055.73,990.324 2060.8,969.705 2065.87,949.289 2070.95,929.012 2076.02,908.81 2081.09,888.619 2086.17,868.395 2091.24,848.112 2096.31,827.777 2101.38,807.423 2106.46,787.11 2111.53,766.918 2116.6,746.937 2121.68,727.256 2126.75,707.95 2131.82,689.067 2136.9,670.615 2141.97,652.562 2147.04,634.822 2152.11,617.268 2157.19,599.733 2162.26,582.027 2167.33,563.954 2172.41,545.337 2177.48,526.04 2182.55,505.998 2187.63,485.232 2192.7,463.876 2197.77,442.181 2202.84,420.523 2207.92,399.396 2212.99,379.392 2218.06,361.176 2223.14,345.452 2228.21,332.919 2233.28,324.228 2238.36,319.93 2243.43,320.441 2248.5,325.996 2253.57,336.625 2258.65,352.136 2263.72,372.105 2268.79,395.893 2273.87,422.659 2278.94,451.4 2284.01,480.993 2289.09,510.242 2294.16,537.942 2299.23,562.926 2304.3,584.128 2309.38,600.635 2314.45,611.729 2319.52,616.929 2324.6,616.015 2329.67,609.05 2334.74,596.38 2339.82,578.627 2344.89,556.672 2349.96,531.621 2355.03,504.762 2360.11,477.513 2365.18,451.362 2370.25,427.805 2375.33,408.279 2380.4,394.095 2385.47,386.385 2390.55,386.044 2395.62,393.698 2400.69,409.669 2405.76,433.972 2410.84,466.315 2415.91,506.119 2420.98,552.553 2426.06,604.577 2431.13,661 2436.2,720.533 2441.28,781.856 2446.35,843.669 2451.42,904.753 2456.49,964.01 2461.57,1020.5 2466.64,1073.45 2471.71,1122.29 2476.79,1166.64 2481.86,1206.3 2486.93,1241.24 2492.01,1271.55 2497.08,1297.44 2502.15,1319.23 2507.22,1337.28 2512.3,1351.96 2517.37,1363.69 2522.44,1372.85 2527.52,1379.81 2532.59,1384.91 2537.66,1388.45 2542.74,1390.7 2547.81,1391.87 2552.88,1392.17 2557.95,1391.76 2563.03,1390.78 2568.1,1389.36 2573.17,1387.61 2578.25,1385.63 2583.32,1383.53 2588.39,1381.39 2593.47,1379.31 2598.54,1377.37 2603.61,1375.65 2608.68,1374.23 2613.76,1373.16 2618.83,1372.49 2623.9,1372.24 "/>
<polyline clip-path="url(#clip543)" style="stroke:#3da44d; stroke-linecap:round; stroke-linejoin:round; stroke-width:4; stroke-opacity:1; fill:none" points="1860.75,1249.04 1865.31,1240.58 1869.86,1232.27 1874.42,1224.08 1878.98,1216 1883.54,1207.98 1888.1,1200 1892.65,1192.03 1897.21,1184.06 1901.77,1176.08 1906.33,1168.13 1910.89,1160.25 1915.45,1152.53 1920,1145.06 1924.56,1137.97 1929.12,1131.42 1933.68,1125.55 1938.24,1120.54 1942.79,1116.56 1947.35,1113.76 1951.91,1112.28 1956.47,1112.22 1961.03,1113.65 1965.59,1116.58 1970.14,1120.97 1974.7,1126.73 1979.26,1133.7 1983.82,1141.65 1988.38,1150.29 1992.93,1159.29 1997.49,1168.27 2002.05,1176.78 2006.61,1184.4 2011.17,1190.63 2015.73,1195.01 2020.28,1197.07 2024.84,1196.39 2029.4,1192.56 2033.96,1185.23 2038.52,1174.14 2043.07,1159.06 2047.63,1139.89 2052.19,1116.59 2056.75,1089.26 2061.31,1058.06 2065.87,1023.27 2070.42,985.281 2074.98,944.565 2079.54,901.68 2084.1,857.254 2088.66,811.969 2093.21,766.54 2097.77,721.697 2102.33,678.155 2106.89,636.599 2111.45,597.654 2116.01,561.87 2120.56,529.694 2125.12,501.465 2129.68,477.392 2134.24,457.554 2138.8,441.895 2143.35,430.227 2147.91,422.237 2152.47,417.5 2157.03,415.497 2161.59,415.632 2166.15,417.258 2170.7,419.699 2175.26,422.276 2179.82,424.334 2184.38,425.264 2188.94,424.528 2193.49,421.677 2198.05,416.368 2202.61,408.377 2207.17,397.607 2211.73,384.09 2216.29,367.984 2220.84,349.57 2225.4,329.238 2229.96,307.472 2234.52,284.834 2239.08,261.944 2243.63,239.455 2248.19,218.037 2252.75,198.348 2257.31,181.024 2261.87,166.652 2266.43,155.76 2270.98,148.801 2275.54,146.145 2280.1,148.069 2284.66,154.755 2289.22,166.285 2293.77,182.643 2298.33,203.717 2302.89,229.302 2307.45,259.11 2312.01,292.778 2316.57,329.876 2321.12,369.924 2325.68,412.404 2330.24,456.777 2334.8,502.497 2339.36,549.029 2343.91,595.863 2348.47,642.528 2353.03,688.604 2357.59,733.73 2362.15,777.607 2366.71,820.005 2371.26,860.759 2375.82,899.763 2380.38,936.966 2384.94,972.361 2389.5,1005.98 2394.05,1037.86 2398.61,1068.09 2403.17,1096.73 "/>
</svg>
