<?xml version="1.0" encoding="utf-8"?>
<svg xmlns="http://www.w3.org/2000/svg" xmlns:xlink="http://www.w3.org/1999/xlink" width="800" height="350" viewBox="0 0 3200 1400">
<defs>
  <clipPath id="clip240">
    <rect x="0" y="0" width="3200" height="1400"/>
  </clipPath>
</defs>
<path clip-path="url(#clip240)" d="M0 1400 L3200 1400 L3200 0 L0 0  Z" fill="#ffffff" fill-rule="evenodd" fill-opacity="1"/>
<defs>
  <clipPath id="clip241">
    <rect x="640" y="0" width="2241" height="1400"/>
  </clipPath>
</defs>
<path clip-path="url(#clip240)" d="M242.194 1221.9 L3152.76 1221.9 L3152.76 47.2441 L242.194 47.2441  Z" fill="#ffffff" fill-rule="evenodd" fill-opacity="1"/>
<defs>
  <clipPath id="clip242">
    <rect x="242" y="47" width="2912" height="1176"/>
  </clipPath>
</defs>
<polyline clip-path="url(#clip242)" style="stroke:#000000; stroke-linecap:round; stroke-linejoin:round; stroke-width:2; stroke-opacity:0.1; fill:none" points="296.833,1221.9 296.833,47.2441 "/>
<polyline clip-path="url(#clip242)" style="stroke:#000000; stroke-linecap:round; stroke-linejoin:round; stroke-width:2; stroke-opacity:0.1; fill:none" points="990.22,1221.9 990.22,47.2441 "/>
<polyline clip-path="url(#clip242)" style="stroke:#000000; stroke-linecap:round; stroke-linejoin:round; stroke-width:2; stroke-opacity:0.1; fill:none" points="1683.61,1221.9 1683.61,47.2441 "/>
<polyline clip-path="url(#clip242)" style="stroke:#000000; stroke-linecap:round; stroke-linejoin:round; stroke-width:2; stroke-opacity:0.1; fill:none" points="2376.99,1221.9 2376.99,47.2441 "/>
<polyline clip-path="url(#clip242)" style="stroke:#000000; stroke-linecap:round; stroke-linejoin:round; stroke-width:2; stroke-opacity:0.1; fill:none" points="3070.38,1221.9 3070.38,47.2441 "/>
<polyline clip-path="url(#clip240)" style="stroke:#000000; stroke-linecap:round; stroke-linejoin:round; stroke-width:4; stroke-opacity:1; fill:none" points="242.194,1221.9 3152.76,1221.9 "/>
<polyline clip-path="url(#clip240)" style="stroke:#000000; stroke-linecap:round; stroke-linejoin:round; stroke-width:4; stroke-opacity:1; fill:none" points="296.833,1221.9 296.833,1203 "/>
<polyline clip-path="url(#clip240)" style="stroke:#000000; stroke-linecap:round; stroke-linejoin:round; stroke-width:4; stroke-opacity:1; fill:none" points="990.22,1221.9 990.22,1203 "/>
<polyline clip-path="url(#clip240)" style="stroke:#000000; stroke-linecap:round; stroke-linejoin:round; stroke-width:4; stroke-opacity:1; fill:none" points="1683.61,1221.9 1683.61,1203 "/>
<polyline clip-path="url(#clip240)" style="stroke:#000000; stroke-linecap:round; stroke-linejoin:round; stroke-width:4; stroke-opacity:1; fill:none" points="2376.99,1221.9 2376.99,1203 "/>
<polyline clip-path="url(#clip240)" style="stroke:#000000; stroke-linecap:round; stroke-linejoin:round; stroke-width:4; stroke-opacity:1; fill:none" points="3070.38,1221.9 3070.38,1203 "/>
<path clip-path="url(#clip240)" d="M296.833 1259.22 Q293.222 1259.22 291.393 1262.78 Q289.588 1266.32 289.588 1273.45 Q289.588 1280.56 291.393 1284.12 Q293.222 1287.67 296.833 1287.67 Q300.467 1287.67 302.273 1284.12 Q304.101 1280.56 304.101 1273.45 Q304.101 1266.32 302.273 1262.78 Q300.467 1259.22 296.833 1259.22 M296.833 1255.51 Q302.643 1255.51 305.699 1260.12 Q308.777 1264.7 308.777 1273.45 Q308.777 1282.18 305.699 1286.79 Q302.643 1291.37 296.833 1291.37 Q291.023 1291.37 287.944 1286.79 Q284.889 1282.18 284.889 1273.45 Q284.889 1264.7 287.944 1260.12 Q291.023 1255.51 296.833 1255.51 Z" fill="#000000" fill-rule="nonzero" fill-opacity="1" /><path clip-path="url(#clip240)" d="M969.491 1286.76 L985.81 1286.76 L985.81 1290.7 L963.866 1290.7 L963.866 1286.76 Q966.528 1284.01 971.111 1279.38 Q975.718 1274.73 976.898 1273.38 Q979.144 1270.86 980.023 1269.12 Q980.926 1267.37 980.926 1265.68 Q980.926 1262.92 978.982 1261.19 Q977.06 1259.45 973.959 1259.45 Q971.76 1259.45 969.306 1260.21 Q966.875 1260.98 964.098 1262.53 L964.098 1257.81 Q966.922 1256.67 969.375 1256.09 Q971.829 1255.51 973.866 1255.51 Q979.236 1255.51 982.431 1258.2 Q985.625 1260.88 985.625 1265.37 Q985.625 1267.5 984.815 1269.43 Q984.028 1271.32 981.921 1273.92 Q981.343 1274.59 978.241 1277.81 Q975.139 1281 969.491 1286.76 Z" fill="#000000" fill-rule="nonzero" fill-opacity="1" /><path clip-path="url(#clip240)" d="M995.671 1256.14 L1014.03 1256.14 L1014.03 1260.07 L999.954 1260.07 L999.954 1268.55 Q1000.97 1268.2 1001.99 1268.04 Q1003.01 1267.85 1004.03 1267.85 Q1009.81 1267.85 1013.19 1271.02 Q1016.57 1274.19 1016.57 1279.61 Q1016.57 1285.19 1013.1 1288.29 Q1009.63 1291.37 1003.31 1291.37 Q1001.13 1291.37 998.866 1291 Q996.62 1290.63 994.213 1289.89 L994.213 1285.19 Q996.296 1286.32 998.519 1286.88 Q1000.74 1287.43 1003.22 1287.43 Q1007.22 1287.43 1009.56 1285.33 Q1011.9 1283.22 1011.9 1279.61 Q1011.9 1276 1009.56 1273.89 Q1007.22 1271.79 1003.22 1271.79 Q1001.34 1271.79 999.468 1272.2 Q997.616 1272.62 995.671 1273.5 L995.671 1256.14 Z" fill="#000000" fill-rule="nonzero" fill-opacity="1" /><path clip-path="url(#clip240)" d="M1658.31 1256.14 L1676.66 1256.14 L1676.66 1260.07 L1662.59 1260.07 L1662.59 1268.55 Q1663.61 1268.2 1664.63 1268.04 Q1665.64 1267.85 1666.66 1267.85 Q1672.45 1267.85 1675.83 1271.02 Q1679.21 1274.19 1679.21 1279.61 Q1679.21 1285.19 1675.74 1288.29 Q1672.26 1291.37 1665.95 1291.37 Q1663.77 1291.37 1661.5 1291 Q1659.26 1290.63 1656.85 1289.89 L1656.85 1285.19 Q1658.93 1286.32 1661.15 1286.88 Q1663.38 1287.43 1665.85 1287.43 Q1669.86 1287.43 1672.2 1285.33 Q1674.53 1283.22 1674.53 1279.61 Q1674.53 1276 1672.2 1273.89 Q1669.86 1271.79 1665.85 1271.79 Q1663.98 1271.79 1662.1 1272.2 Q1660.25 1272.62 1658.31 1273.5 L1658.31 1256.14 Z" fill="#000000" fill-rule="nonzero" fill-opacity="1" /><path clip-path="url(#clip240)" d="M1698.42 1259.22 Q1694.81 1259.22 1692.98 1262.78 Q1691.18 1266.32 1691.18 1273.45 Q1691.18 1280.56 1692.98 1284.12 Q1694.81 1287.67 1698.42 1287.67 Q1702.06 1287.67 1703.86 1284.12 Q1705.69 1280.56 1705.69 1273.45 Q1705.69 1266.32 1703.86 1262.78 Q1702.06 1259.22 1698.42 1259.22 M1698.42 1255.51 Q1704.23 1255.51 1707.29 1260.12 Q1710.37 1264.7 1710.37 1273.45 Q1710.37 1282.18 1707.29 1286.79 Q1704.23 1291.37 1698.42 1291.37 Q1692.61 1291.37 1689.53 1286.79 Q1686.48 1282.18 1686.48 1273.45 Q1686.48 1264.7 1689.53 1260.12 Q1692.61 1255.51 1698.42 1255.51 Z" fill="#000000" fill-rule="nonzero" fill-opacity="1" /><path clip-path="url(#clip240)" d="M2350.85 1256.14 L2373.07 1256.14 L2373.07 1258.13 L2360.52 1290.7 L2355.64 1290.7 L2367.45 1260.07 L2350.85 1260.07 L2350.85 1256.14 Z" fill="#000000" fill-rule="nonzero" fill-opacity="1" /><path clip-path="url(#clip240)" d="M2382.24 1256.14 L2400.59 1256.14 L2400.59 1260.07 L2386.52 1260.07 L2386.52 1268.55 Q2387.54 1268.2 2388.56 1268.04 Q2389.58 1267.85 2390.59 1267.85 Q2396.38 1267.85 2399.76 1271.02 Q2403.14 1274.19 2403.14 1279.61 Q2403.14 1285.19 2399.67 1288.29 Q2396.2 1291.37 2389.88 1291.37 Q2387.7 1291.37 2385.43 1291 Q2383.19 1290.63 2380.78 1289.89 L2380.78 1285.19 Q2382.86 1286.32 2385.08 1286.88 Q2387.31 1287.43 2389.78 1287.43 Q2393.79 1287.43 2396.13 1285.33 Q2398.46 1283.22 2398.46 1279.61 Q2398.46 1276 2396.13 1273.89 Q2393.79 1271.79 2389.78 1271.79 Q2387.91 1271.79 2386.03 1272.2 Q2384.18 1272.62 2382.24 1273.5 L2382.24 1256.14 Z" fill="#000000" fill-rule="nonzero" fill-opacity="1" /><path clip-path="url(#clip240)" d="M3029.99 1286.76 L3037.63 1286.76 L3037.63 1260.4 L3029.32 1262.06 L3029.32 1257.81 L3037.58 1256.14 L3042.26 1256.14 L3042.26 1286.76 L3049.9 1286.76 L3049.9 1290.7 L3029.99 1290.7 L3029.99 1286.76 Z" fill="#000000" fill-rule="nonzero" fill-opacity="1" /><path clip-path="url(#clip240)" d="M3069.34 1259.22 Q3065.73 1259.22 3063.9 1262.78 Q3062.09 1266.32 3062.09 1273.45 Q3062.09 1280.56 3063.9 1284.12 Q3065.73 1287.67 3069.34 1287.67 Q3072.97 1287.67 3074.78 1284.12 Q3076.61 1280.56 3076.61 1273.45 Q3076.61 1266.32 3074.78 1262.78 Q3072.97 1259.22 3069.34 1259.22 M3069.34 1255.51 Q3075.15 1255.51 3078.21 1260.12 Q3081.28 1264.7 3081.28 1273.45 Q3081.28 1282.18 3078.21 1286.79 Q3075.15 1291.37 3069.34 1291.37 Q3063.53 1291.37 3060.45 1286.79 Q3057.4 1282.18 3057.4 1273.45 Q3057.4 1264.7 3060.45 1260.12 Q3063.53 1255.51 3069.34 1255.51 Z" fill="#000000" fill-rule="nonzero" fill-opacity="1" /><path clip-path="url(#clip240)" d="M3099.5 1259.22 Q3095.89 1259.22 3094.06 1262.78 Q3092.26 1266.32 3092.26 1273.45 Q3092.26 1280.56 3094.06 1284.12 Q3095.89 1287.67 3099.5 1287.67 Q3103.14 1287.67 3104.94 1284.12 Q3106.77 1280.56 3106.77 1273.45 Q3106.77 1266.32 3104.94 1262.78 Q3103.14 1259.22 3099.5 1259.22 M3099.5 1255.51 Q3105.31 1255.51 3108.37 1260.12 Q3111.45 1264.7 3111.45 1273.45 Q3111.45 1282.18 3108.37 1286.79 Q3105.31 1291.37 3099.5 1291.37 Q3093.69 1291.37 3090.61 1286.79 Q3087.56 1282.18 3087.56 1273.45 Q3087.56 1264.7 3090.61 1260.12 Q3093.69 1255.51 3099.5 1255.51 Z" fill="#000000" fill-rule="nonzero" fill-opacity="1" /><path clip-path="url(#clip240)" d="M1507.7 1331.24 L1547.9 1331.24 L1547.9 1336.65 L1531.03 1336.65 L1531.03 1378.76 L1524.57 1378.76 L1524.57 1336.65 L1507.7 1336.65 L1507.7 1331.24 Z" fill="#000000" fill-rule="nonzero" fill-opacity="1" /><path clip-path="url(#clip240)" d="M1551.84 1343.11 L1557.7 1343.11 L1557.7 1378.76 L1551.84 1378.76 L1551.84 1343.11 M1551.84 1329.24 L1557.7 1329.24 L1557.7 1336.65 L1551.84 1336.65 L1551.84 1329.24 Z" fill="#000000" fill-rule="nonzero" fill-opacity="1" /><path clip-path="url(#clip240)" d="M1597.71 1349.96 Q1599.9 1346.01 1602.96 1344.13 Q1606.02 1342.26 1610.15 1342.26 Q1615.72 1342.26 1618.75 1346.17 Q1621.77 1350.05 1621.77 1357.25 L1621.77 1378.76 L1615.88 1378.76 L1615.88 1357.44 Q1615.88 1352.31 1614.07 1349.83 Q1612.25 1347.35 1608.53 1347.35 Q1603.98 1347.35 1601.34 1350.37 Q1598.7 1353.4 1598.7 1358.62 L1598.7 1378.76 L1592.81 1378.76 L1592.81 1357.44 Q1592.81 1352.28 1590.99 1349.83 Q1589.18 1347.35 1585.39 1347.35 Q1580.9 1347.35 1578.26 1350.4 Q1575.62 1353.43 1575.62 1358.62 L1575.62 1378.76 L1569.73 1378.76 L1569.73 1343.11 L1575.62 1343.11 L1575.62 1348.65 Q1577.62 1345.37 1580.43 1343.82 Q1583.23 1342.26 1587.08 1342.26 Q1590.96 1342.26 1593.67 1344.23 Q1596.4 1346.2 1597.71 1349.96 Z" fill="#000000" fill-rule="nonzero" fill-opacity="1" /><path clip-path="url(#clip240)" d="M1663.94 1359.47 L1663.94 1362.34 L1637.02 1362.34 Q1637.4 1368.39 1640.65 1371.57 Q1643.92 1374.72 1649.75 1374.72 Q1653.12 1374.72 1656.27 1373.89 Q1659.46 1373.07 1662.57 1371.41 L1662.57 1376.95 Q1659.42 1378.29 1656.11 1378.99 Q1652.8 1379.69 1649.4 1379.69 Q1640.87 1379.69 1635.87 1374.72 Q1630.91 1369.76 1630.91 1361.29 Q1630.91 1352.54 1635.62 1347.41 Q1640.36 1342.26 1648.38 1342.26 Q1655.57 1342.26 1659.74 1346.9 Q1663.94 1351.52 1663.94 1359.47 M1658.09 1357.76 Q1658.02 1352.95 1655.38 1350.09 Q1652.77 1347.22 1648.44 1347.22 Q1643.54 1347.22 1640.58 1349.99 Q1637.65 1352.76 1637.21 1357.79 L1658.09 1357.76 Z" fill="#000000" fill-rule="nonzero" fill-opacity="1" /><path clip-path="url(#clip240)" d="M1708.34 1329.3 Q1704.08 1336.62 1702.01 1343.78 Q1699.94 1350.94 1699.94 1358.3 Q1699.94 1365.65 1702.01 1372.87 Q1704.11 1380.07 1708.34 1387.36 L1703.25 1387.36 Q1698.48 1379.88 1696.09 1372.65 Q1693.74 1365.43 1693.74 1358.3 Q1693.74 1351.2 1696.09 1344.01 Q1698.45 1336.81 1703.25 1329.3 L1708.34 1329.3 Z" fill="#000000" fill-rule="nonzero" fill-opacity="1" /><path clip-path="url(#clip240)" d="M1743.16 1348.53 L1743.16 1329.24 L1749.02 1329.24 L1749.02 1378.76 L1743.16 1378.76 L1743.16 1373.42 Q1741.32 1376.6 1738.49 1378.16 Q1735.69 1379.69 1731.74 1379.69 Q1725.28 1379.69 1721.2 1374.53 Q1717.16 1369.37 1717.16 1360.97 Q1717.16 1352.57 1721.2 1347.41 Q1725.28 1342.26 1731.74 1342.26 Q1735.69 1342.26 1738.49 1343.82 Q1741.32 1345.34 1743.16 1348.53 M1723.21 1360.97 Q1723.21 1367.43 1725.85 1371.12 Q1728.52 1374.78 1733.17 1374.78 Q1737.82 1374.78 1740.49 1371.12 Q1743.16 1367.43 1743.16 1360.97 Q1743.16 1354.51 1740.49 1350.85 Q1737.82 1347.16 1733.17 1347.16 Q1728.52 1347.16 1725.85 1350.85 Q1723.21 1354.51 1723.21 1360.97 Z" fill="#000000" fill-rule="nonzero" fill-opacity="1" /><path clip-path="url(#clip240)" d="M1777.28 1360.84 Q1770.19 1360.84 1767.45 1362.47 Q1764.71 1364.09 1764.71 1368 Q1764.71 1371.12 1766.75 1372.97 Q1768.82 1374.78 1772.35 1374.78 Q1777.22 1374.78 1780.15 1371.35 Q1783.11 1367.88 1783.11 1362.15 L1783.11 1360.84 L1777.28 1360.84 M1788.97 1358.42 L1788.97 1378.76 L1783.11 1378.76 L1783.11 1373.35 Q1781.1 1376.6 1778.11 1378.16 Q1775.12 1379.69 1770.79 1379.69 Q1765.32 1379.69 1762.07 1376.63 Q1758.86 1373.54 1758.86 1368.39 Q1758.86 1362.37 1762.87 1359.32 Q1766.91 1356.26 1774.9 1356.26 L1783.11 1356.26 L1783.11 1355.69 Q1783.11 1351.64 1780.44 1349.45 Q1777.79 1347.22 1772.99 1347.22 Q1769.93 1347.22 1767.04 1347.95 Q1764.14 1348.68 1761.47 1350.15 L1761.47 1344.74 Q1764.68 1343.5 1767.7 1342.89 Q1770.73 1342.26 1773.59 1342.26 Q1781.33 1342.26 1785.15 1346.27 Q1788.97 1350.28 1788.97 1358.42 Z" fill="#000000" fill-rule="nonzero" fill-opacity="1" /><path clip-path="url(#clip240)" d="M1815.86 1382.07 Q1813.38 1388.44 1811.02 1390.38 Q1808.67 1392.32 1804.72 1392.32 L1800.04 1392.32 L1800.04 1387.42 L1803.48 1387.42 Q1805.9 1387.42 1807.24 1386.27 Q1808.57 1385.13 1810.2 1380.86 L1811.25 1378.19 L1796.83 1343.11 L1803.03 1343.11 L1814.17 1371 L1825.31 1343.11 L1831.52 1343.11 L1815.86 1382.07 Z" fill="#000000" fill-rule="nonzero" fill-opacity="1" /><path clip-path="url(#clip240)" d="M1862.33 1344.17 L1862.33 1349.7 Q1859.85 1348.43 1857.17 1347.79 Q1854.5 1347.16 1851.64 1347.16 Q1847.28 1347.16 1845.08 1348.49 Q1842.92 1349.83 1842.92 1352.5 Q1842.92 1354.54 1844.48 1355.72 Q1846.03 1356.86 1850.75 1357.92 L1852.75 1358.36 Q1858.99 1359.7 1861.6 1362.15 Q1864.24 1364.57 1864.24 1368.93 Q1864.24 1373.89 1860.29 1376.79 Q1856.38 1379.69 1849.5 1379.69 Q1846.64 1379.69 1843.52 1379.11 Q1840.43 1378.57 1837 1377.46 L1837 1371.41 Q1840.24 1373.1 1843.39 1373.96 Q1846.54 1374.78 1849.63 1374.78 Q1853.77 1374.78 1856 1373.38 Q1858.22 1371.95 1858.22 1369.37 Q1858.22 1366.99 1856.6 1365.71 Q1855.01 1364.44 1849.57 1363.26 L1847.53 1362.78 Q1842.09 1361.64 1839.67 1359.28 Q1837.25 1356.9 1837.25 1352.76 Q1837.25 1347.73 1840.81 1344.99 Q1844.38 1342.26 1850.94 1342.26 Q1854.18 1342.26 1857.05 1342.73 Q1859.91 1343.21 1862.33 1344.17 Z" fill="#000000" fill-rule="nonzero" fill-opacity="1" /><path clip-path="url(#clip240)" d="M1872.64 1329.3 L1877.74 1329.3 Q1882.51 1336.81 1884.87 1344.01 Q1887.25 1351.2 1887.25 1358.3 Q1887.25 1365.43 1884.87 1372.65 Q1882.51 1379.88 1877.74 1387.36 L1872.64 1387.36 Q1876.88 1380.07 1878.95 1372.87 Q1881.05 1365.65 1881.05 1358.3 Q1881.05 1350.94 1878.95 1343.78 Q1876.88 1336.62 1872.64 1329.3 Z" fill="#000000" fill-rule="nonzero" fill-opacity="1" /><polyline clip-path="url(#clip242)" style="stroke:#000000; stroke-linecap:round; stroke-linejoin:round; stroke-width:2; stroke-opacity:0.1; fill:none" points="242.194,1074.84 3152.76,1074.84 "/>
<polyline clip-path="url(#clip242)" style="stroke:#000000; stroke-linecap:round; stroke-linejoin:round; stroke-width:2; stroke-opacity:0.1; fill:none" points="242.194,822.025 3152.76,822.025 "/>
<polyline clip-path="url(#clip242)" style="stroke:#000000; stroke-linecap:round; stroke-linejoin:round; stroke-width:2; stroke-opacity:0.1; fill:none" points="242.194,569.209 3152.76,569.209 "/>
<polyline clip-path="url(#clip242)" style="stroke:#000000; stroke-linecap:round; stroke-linejoin:round; stroke-width:2; stroke-opacity:0.1; fill:none" points="242.194,316.394 3152.76,316.394 "/>
<polyline clip-path="url(#clip242)" style="stroke:#000000; stroke-linecap:round; stroke-linejoin:round; stroke-width:2; stroke-opacity:0.1; fill:none" points="242.194,63.578 3152.76,63.578 "/>
<polyline clip-path="url(#clip240)" style="stroke:#000000; stroke-linecap:round; stroke-linejoin:round; stroke-width:4; stroke-opacity:1; fill:none" points="242.194,1221.9 242.194,47.2441 "/>
<polyline clip-path="url(#clip240)" style="stroke:#000000; stroke-linecap:round; stroke-linejoin:round; stroke-width:4; stroke-opacity:1; fill:none" points="242.194,1074.84 261.092,1074.84 "/>
<polyline clip-path="url(#clip240)" style="stroke:#000000; stroke-linecap:round; stroke-linejoin:round; stroke-width:4; stroke-opacity:1; fill:none" points="242.194,822.025 261.092,822.025 "/>
<polyline clip-path="url(#clip240)" style="stroke:#000000; stroke-linecap:round; stroke-linejoin:round; stroke-width:4; stroke-opacity:1; fill:none" points="242.194,569.209 261.092,569.209 "/>
<polyline clip-path="url(#clip240)" style="stroke:#000000; stroke-linecap:round; stroke-linejoin:round; stroke-width:4; stroke-opacity:1; fill:none" points="242.194,316.394 261.092,316.394 "/>
<polyline clip-path="url(#clip240)" style="stroke:#000000; stroke-linecap:round; stroke-linejoin:round; stroke-width:4; stroke-opacity:1; fill:none" points="242.194,63.578 261.092,63.578 "/>
<path clip-path="url(#clip240)" d="M138.014 1060.64 Q134.403 1060.64 132.574 1064.2 Q130.768 1067.75 130.768 1074.88 Q130.768 1081.98 132.574 1085.55 Q134.403 1089.09 138.014 1089.09 Q141.648 1089.09 143.454 1085.55 Q145.282 1081.98 145.282 1074.88 Q145.282 1067.75 143.454 1064.2 Q141.648 1060.64 138.014 1060.64 M138.014 1056.94 Q143.824 1056.94 146.879 1061.54 Q149.958 1066.13 149.958 1074.88 Q149.958 1083.6 146.879 1088.21 Q143.824 1092.79 138.014 1092.79 Q132.204 1092.79 129.125 1088.21 Q126.069 1083.6 126.069 1074.88 Q126.069 1066.13 129.125 1061.54 Q132.204 1056.94 138.014 1056.94 Z" fill="#000000" fill-rule="nonzero" fill-opacity="1" /><path clip-path="url(#clip240)" d="M158.176 1086.24 L163.06 1086.24 L163.06 1092.12 L158.176 1092.12 L158.176 1086.24 Z" fill="#000000" fill-rule="nonzero" fill-opacity="1" /><path clip-path="url(#clip240)" d="M173.291 1057.56 L191.648 1057.56 L191.648 1061.5 L177.574 1061.5 L177.574 1069.97 Q178.592 1069.62 179.611 1069.46 Q180.629 1069.27 181.648 1069.27 Q187.435 1069.27 190.814 1072.44 Q194.194 1075.62 194.194 1081.03 Q194.194 1086.61 190.722 1089.71 Q187.25 1092.79 180.93 1092.79 Q178.754 1092.79 176.486 1092.42 Q174.24 1092.05 171.833 1091.31 L171.833 1086.61 Q173.916 1087.75 176.139 1088.3 Q178.361 1088.86 180.838 1088.86 Q184.842 1088.86 187.18 1086.75 Q189.518 1084.64 189.518 1081.03 Q189.518 1077.42 187.18 1075.31 Q184.842 1073.21 180.838 1073.21 Q178.963 1073.21 177.088 1073.63 Q175.236 1074.04 173.291 1074.92 L173.291 1057.56 Z" fill="#000000" fill-rule="nonzero" fill-opacity="1" /><path clip-path="url(#clip240)" d="M127.829 835.37 L135.467 835.37 L135.467 809.004 L127.157 810.671 L127.157 806.411 L135.421 804.745 L140.097 804.745 L140.097 835.37 L147.736 835.37 L147.736 839.305 L127.829 839.305 L127.829 835.37 Z" fill="#000000" fill-rule="nonzero" fill-opacity="1" /><path clip-path="url(#clip240)" d="M157.18 833.425 L162.065 833.425 L162.065 839.305 L157.18 839.305 L157.18 833.425 Z" fill="#000000" fill-rule="nonzero" fill-opacity="1" /><path clip-path="url(#clip240)" d="M182.25 807.823 Q178.639 807.823 176.81 811.388 Q175.004 814.93 175.004 822.059 Q175.004 829.166 176.81 832.731 Q178.639 836.272 182.25 836.272 Q185.884 836.272 187.689 832.731 Q189.518 829.166 189.518 822.059 Q189.518 814.93 187.689 811.388 Q185.884 807.823 182.25 807.823 M182.25 804.12 Q188.06 804.12 191.115 808.726 Q194.194 813.31 194.194 822.059 Q194.194 830.786 191.115 835.393 Q188.06 839.976 182.25 839.976 Q176.439 839.976 173.361 835.393 Q170.305 830.786 170.305 822.059 Q170.305 813.31 173.361 808.726 Q176.439 804.12 182.25 804.12 Z" fill="#000000" fill-rule="nonzero" fill-opacity="1" /><path clip-path="url(#clip240)" d="M128.824 582.554 L136.463 582.554 L136.463 556.188 L128.153 557.855 L128.153 553.596 L136.417 551.929 L141.092 551.929 L141.092 582.554 L148.731 582.554 L148.731 586.489 L128.824 586.489 L128.824 582.554 Z" fill="#000000" fill-rule="nonzero" fill-opacity="1" /><path clip-path="url(#clip240)" d="M158.176 580.61 L163.06 580.61 L163.06 586.489 L158.176 586.489 L158.176 580.61 Z" fill="#000000" fill-rule="nonzero" fill-opacity="1" /><path clip-path="url(#clip240)" d="M173.291 551.929 L191.648 551.929 L191.648 555.864 L177.574 555.864 L177.574 564.337 Q178.592 563.989 179.611 563.827 Q180.629 563.642 181.648 563.642 Q187.435 563.642 190.814 566.813 Q194.194 569.985 194.194 575.401 Q194.194 580.98 190.722 584.082 Q187.25 587.16 180.93 587.16 Q178.754 587.16 176.486 586.79 Q174.24 586.42 171.833 585.679 L171.833 580.98 Q173.916 582.114 176.139 582.67 Q178.361 583.225 180.838 583.225 Q184.842 583.225 187.18 581.119 Q189.518 579.012 189.518 575.401 Q189.518 571.79 187.18 569.684 Q184.842 567.577 180.838 567.577 Q178.963 567.577 177.088 567.994 Q175.236 568.411 173.291 569.29 L173.291 551.929 Z" fill="#000000" fill-rule="nonzero" fill-opacity="1" /><path clip-path="url(#clip240)" d="M131.046 329.738 L147.366 329.738 L147.366 333.674 L125.421 333.674 L125.421 329.738 Q128.083 326.984 132.667 322.354 Q137.273 317.701 138.454 316.359 Q140.699 313.836 141.579 312.1 Q142.481 310.34 142.481 308.651 Q142.481 305.896 140.537 304.16 Q138.616 302.424 135.514 302.424 Q133.315 302.424 130.861 303.188 Q128.43 303.952 125.653 305.502 L125.653 300.78 Q128.477 299.646 130.93 299.067 Q133.384 298.489 135.421 298.489 Q140.792 298.489 143.986 301.174 Q147.18 303.859 147.18 308.35 Q147.18 310.479 146.37 312.401 Q145.583 314.299 143.477 316.891 Q142.898 317.563 139.796 320.78 Q136.694 323.975 131.046 329.738 Z" fill="#000000" fill-rule="nonzero" fill-opacity="1" /><path clip-path="url(#clip240)" d="M157.18 327.794 L162.065 327.794 L162.065 333.674 L157.18 333.674 L157.18 327.794 Z" fill="#000000" fill-rule="nonzero" fill-opacity="1" /><path clip-path="url(#clip240)" d="M182.25 302.192 Q178.639 302.192 176.81 305.757 Q175.004 309.299 175.004 316.428 Q175.004 323.535 176.81 327.1 Q178.639 330.641 182.25 330.641 Q185.884 330.641 187.689 327.1 Q189.518 323.535 189.518 316.428 Q189.518 309.299 187.689 305.757 Q185.884 302.192 182.25 302.192 M182.25 298.489 Q188.06 298.489 191.115 303.095 Q194.194 307.678 194.194 316.428 Q194.194 325.155 191.115 329.762 Q188.06 334.345 182.25 334.345 Q176.439 334.345 173.361 329.762 Q170.305 325.155 170.305 316.428 Q170.305 307.678 173.361 303.095 Q176.439 298.489 182.25 298.489 Z" fill="#000000" fill-rule="nonzero" fill-opacity="1" /><path clip-path="url(#clip240)" d="M132.042 76.9228 L148.361 76.9228 L148.361 80.858 L126.417 80.858 L126.417 76.9228 Q129.079 74.1682 133.662 69.5386 Q138.268 64.8859 139.449 63.5433 Q141.694 61.0201 142.574 59.284 Q143.477 57.5248 143.477 55.835 Q143.477 53.0804 141.532 51.3443 Q139.611 49.6082 136.509 49.6082 Q134.31 49.6082 131.856 50.3721 Q129.426 51.1359 126.648 52.6869 L126.648 47.9647 Q129.472 46.8304 131.926 46.2517 Q134.38 45.673 136.417 45.673 Q141.787 45.673 144.981 48.3582 Q148.176 51.0433 148.176 55.5341 Q148.176 57.6637 147.366 59.585 Q146.579 61.4831 144.472 64.0757 Q143.893 64.747 140.792 67.9645 Q137.69 71.159 132.042 76.9228 Z" fill="#000000" fill-rule="nonzero" fill-opacity="1" /><path clip-path="url(#clip240)" d="M158.176 74.9784 L163.06 74.9784 L163.06 80.858 L158.176 80.858 L158.176 74.9784 Z" fill="#000000" fill-rule="nonzero" fill-opacity="1" /><path clip-path="url(#clip240)" d="M173.291 46.298 L191.648 46.298 L191.648 50.2332 L177.574 50.2332 L177.574 58.7053 Q178.592 58.3581 179.611 58.1961 Q180.629 58.0109 181.648 58.0109 Q187.435 58.0109 190.814 61.1822 Q194.194 64.3535 194.194 69.7701 Q194.194 75.3488 190.722 78.4506 Q187.25 81.5293 180.93 81.5293 Q178.754 81.5293 176.486 81.1589 Q174.24 80.7886 171.833 80.0478 L171.833 75.3488 Q173.916 76.483 176.139 77.0386 Q178.361 77.5941 180.838 77.5941 Q184.842 77.5941 187.18 75.4877 Q189.518 73.3812 189.518 69.7701 Q189.518 66.159 187.18 64.0525 Q184.842 61.9461 180.838 61.9461 Q178.963 61.9461 177.088 62.3627 Q175.236 62.7794 173.291 63.659 L173.291 46.298 Z" fill="#000000" fill-rule="nonzero" fill-opacity="1" /><path clip-path="url(#clip240)" d="M40.8852 962.644 Q41.5855 960.575 43.8771 958.634 Q46.1688 956.66 50.1792 954.687 L63.1652 948.162 L63.1652 955.069 L50.9749 961.148 Q46.2006 963.503 44.641 965.731 Q43.0814 967.928 43.0814 971.747 L43.0814 978.749 L63.1652 978.749 L63.1652 985.179 L15.6452 985.179 L15.6452 970.665 Q15.6452 962.517 19.0509 958.506 Q22.4565 954.496 29.3315 954.496 Q33.8193 954.496 36.7794 956.597 Q39.7394 958.665 40.8852 962.644 M20.9288 978.749 L37.7979 978.749 L37.7979 970.665 Q37.7979 966.018 35.6654 963.663 Q33.501 961.275 29.3315 961.275 Q25.162 961.275 23.0613 963.663 Q20.9288 966.018 20.9288 970.665 L20.9288 978.749 Z" fill="#000000" fill-rule="nonzero" fill-opacity="1" /><path clip-path="url(#clip240)" d="M43.8771 912.578 L46.7417 912.578 L46.7417 939.505 Q52.7891 939.123 55.972 935.876 Q59.123 932.598 59.123 926.773 Q59.123 923.399 58.2955 920.248 Q57.4679 917.066 55.8128 913.946 L61.351 913.946 Q62.6878 917.097 63.388 920.408 Q64.0882 923.718 64.0882 927.123 Q64.0882 935.653 59.123 940.651 Q54.1577 945.616 45.6914 945.616 Q36.9385 945.616 31.8141 940.905 Q26.6579 936.163 26.6579 928.142 Q26.6579 920.949 31.3049 916.779 Q35.92 912.578 43.8771 912.578 M42.1584 918.434 Q37.3523 918.498 34.4877 921.14 Q31.6231 923.75 31.6231 928.078 Q31.6231 932.98 34.3922 935.94 Q37.1613 938.868 42.1902 939.314 L42.1584 918.434 Z" fill="#000000" fill-rule="nonzero" fill-opacity="1" /><path clip-path="url(#clip240)" d="M57.818 897.3 L76.7242 897.3 L76.7242 903.188 L27.5173 903.188 L27.5173 897.3 L32.9281 897.3 Q29.7453 895.454 28.2175 892.653 Q26.6579 889.82 26.6579 885.905 Q26.6579 879.412 31.8141 875.37 Q36.9703 871.296 45.3731 871.296 Q53.7758 871.296 58.932 875.37 Q64.0882 879.412 64.0882 885.905 Q64.0882 889.82 62.5605 892.653 Q61.0009 895.454 57.818 897.3 M45.3731 877.375 Q38.9119 877.375 35.2516 880.049 Q31.5595 882.691 31.5595 887.338 Q31.5595 891.985 35.2516 894.658 Q38.9119 897.3 45.3731 897.3 Q51.8343 897.3 55.5264 894.658 Q59.1867 891.985 59.1867 887.338 Q59.1867 882.691 55.5264 880.049 Q51.8343 877.375 45.3731 877.375 Z" fill="#000000" fill-rule="nonzero" fill-opacity="1" /><path clip-path="url(#clip240)" d="M32.9918 840.932 Q32.4189 841.918 32.1642 843.096 Q31.8778 844.242 31.8778 845.642 Q31.8778 850.608 35.1243 853.281 Q38.339 855.923 44.3864 855.923 L63.1652 855.923 L63.1652 861.811 L27.5173 861.811 L27.5173 855.923 L33.0554 855.923 Q29.8089 854.077 28.2493 851.117 Q26.6579 848.157 26.6579 843.924 Q26.6579 843.319 26.7534 842.587 Q26.817 841.855 26.9762 840.964 L32.9918 840.932 Z" fill="#000000" fill-rule="nonzero" fill-opacity="1" /><path clip-path="url(#clip240)" d="M31.6231 822.408 Q31.6231 827.118 35.3153 829.855 Q38.9755 832.593 45.3731 832.593 Q51.7706 832.593 55.4627 829.887 Q59.123 827.15 59.123 822.408 Q59.123 817.729 55.4309 814.991 Q51.7388 812.254 45.3731 812.254 Q39.0392 812.254 35.3471 814.991 Q31.6231 817.729 31.6231 822.408 M26.6579 822.408 Q26.6579 814.769 31.6231 810.408 Q36.5884 806.048 45.3731 806.048 Q54.1259 806.048 59.123 810.408 Q64.0882 814.769 64.0882 822.408 Q64.0882 830.078 59.123 834.439 Q54.1259 838.767 45.3731 838.767 Q36.5884 838.767 31.6231 834.439 Q26.6579 830.078 26.6579 822.408 Z" fill="#000000" fill-rule="nonzero" fill-opacity="1" /><path clip-path="url(#clip240)" d="M32.9281 772.882 L13.64 772.882 L13.64 767.026 L63.1652 767.026 L63.1652 772.882 L57.818 772.882 Q61.0009 774.728 62.5605 777.561 Q64.0882 780.362 64.0882 784.309 Q64.0882 790.77 58.932 794.844 Q53.7758 798.886 45.3731 798.886 Q36.9703 798.886 31.8141 794.844 Q26.6579 790.77 26.6579 784.309 Q26.6579 780.362 28.2175 777.561 Q29.7453 774.728 32.9281 772.882 M45.3731 792.839 Q51.8343 792.839 55.5264 790.197 Q59.1867 787.523 59.1867 782.876 Q59.1867 778.23 55.5264 775.556 Q51.8343 772.882 45.3731 772.882 Q38.9119 772.882 35.2516 775.556 Q31.5595 778.23 31.5595 782.876 Q31.5595 787.523 35.2516 790.197 Q38.9119 792.839 45.3731 792.839 Z" fill="#000000" fill-rule="nonzero" fill-opacity="1" /><path clip-path="url(#clip240)" d="M49.097 755.568 L27.5173 755.568 L27.5173 749.711 L48.8742 749.711 Q53.9349 749.711 56.4812 747.738 Q58.9957 745.764 58.9957 741.818 Q58.9957 737.075 55.972 734.338 Q52.9483 731.569 47.7284 731.569 L27.5173 731.569 L27.5173 725.712 L63.1652 725.712 L63.1652 731.569 L57.6907 731.569 Q60.9372 733.701 62.5286 736.534 Q64.0882 739.335 64.0882 743.059 Q64.0882 749.202 60.2688 752.385 Q56.4494 755.568 49.097 755.568 M26.6579 740.831 L26.6579 740.831 Z" fill="#000000" fill-rule="nonzero" fill-opacity="1" /><path clip-path="url(#clip240)" d="M28.8859 687.996 L34.3604 687.996 Q32.9918 690.478 32.3234 692.993 Q31.6231 695.475 31.6231 698.022 Q31.6231 703.719 35.2516 706.87 Q38.8482 710.021 45.3731 710.021 Q51.8979 710.021 55.5264 706.87 Q59.123 703.719 59.123 698.022 Q59.123 695.475 58.4546 692.993 Q57.7544 690.478 56.3857 687.996 L61.7966 687.996 Q62.9424 690.446 63.5153 693.088 Q64.0882 695.698 64.0882 698.658 Q64.0882 706.711 59.0275 711.453 Q53.9668 716.196 45.3731 716.196 Q36.6521 716.196 31.655 711.421 Q26.6579 706.615 26.6579 698.276 Q26.6579 695.571 27.2308 692.993 Q27.7719 690.415 28.8859 687.996 Z" fill="#000000" fill-rule="nonzero" fill-opacity="1" /><path clip-path="url(#clip240)" d="M17.3958 672.018 L27.5173 672.018 L27.5173 659.955 L32.0687 659.955 L32.0687 672.018 L51.4205 672.018 Q55.781 672.018 57.0223 670.84 Q58.2636 669.631 58.2636 665.97 L58.2636 659.955 L63.1652 659.955 L63.1652 665.97 Q63.1652 672.75 60.6508 675.328 Q58.1045 677.906 51.4205 677.906 L32.0687 677.906 L32.0687 682.203 L27.5173 682.203 L27.5173 677.906 L17.3958 677.906 L17.3958 672.018 Z" fill="#000000" fill-rule="nonzero" fill-opacity="1" /><path clip-path="url(#clip240)" d="M27.5173 652.252 L27.5173 646.396 L63.1652 646.396 L63.1652 652.252 L27.5173 652.252 M13.64 652.252 L13.64 646.396 L21.0561 646.396 L21.0561 652.252 L13.64 652.252 Z" fill="#000000" fill-rule="nonzero" fill-opacity="1" /><path clip-path="url(#clip240)" d="M31.6231 620.328 Q31.6231 625.039 35.3153 627.776 Q38.9755 630.513 45.3731 630.513 Q51.7706 630.513 55.4627 627.808 Q59.123 625.071 59.123 620.328 Q59.123 615.649 55.4309 612.912 Q51.7388 610.175 45.3731 610.175 Q39.0392 610.175 35.3471 612.912 Q31.6231 615.649 31.6231 620.328 M26.6579 620.328 Q26.6579 612.689 31.6231 608.329 Q36.5884 603.968 45.3731 603.968 Q54.1259 603.968 59.123 608.329 Q64.0882 612.689 64.0882 620.328 Q64.0882 627.999 59.123 632.359 Q54.1259 636.688 45.3731 636.688 Q36.5884 636.688 31.6231 632.359 Q26.6579 627.999 26.6579 620.328 Z" fill="#000000" fill-rule="nonzero" fill-opacity="1" /><path clip-path="url(#clip240)" d="M41.6491 564.628 L63.1652 564.628 L63.1652 570.485 L41.8401 570.485 Q36.7794 570.485 34.2649 572.458 Q31.7505 574.431 31.7505 578.378 Q31.7505 583.121 34.7742 585.858 Q37.7979 588.595 43.0178 588.595 L63.1652 588.595 L63.1652 594.483 L27.5173 594.483 L27.5173 588.595 L33.0554 588.595 Q29.8407 586.494 28.2493 583.662 Q26.6579 580.797 26.6579 577.073 Q26.6579 570.93 30.4773 567.779 Q34.2649 564.628 41.6491 564.628 Z" fill="#000000" fill-rule="nonzero" fill-opacity="1" /><path clip-path="url(#clip240)" d="M41.6491 502.594 L63.1652 502.594 L63.1652 508.451 L41.8401 508.451 Q36.7794 508.451 34.2649 510.424 Q31.7505 512.398 31.7505 516.344 Q31.7505 521.087 34.7742 523.824 Q37.7979 526.561 43.0178 526.561 L63.1652 526.561 L63.1652 532.45 L27.5173 532.45 L27.5173 526.561 L33.0554 526.561 Q29.8407 524.461 28.2493 521.628 Q26.6579 518.763 26.6579 515.039 Q26.6579 508.896 30.4773 505.745 Q34.2649 502.594 41.6491 502.594 Z" fill="#000000" fill-rule="nonzero" fill-opacity="1" /><path clip-path="url(#clip240)" d="M49.097 491.518 L27.5173 491.518 L27.5173 485.662 L48.8742 485.662 Q53.9349 485.662 56.4812 483.688 Q58.9957 481.715 58.9957 477.768 Q58.9957 473.026 55.972 470.288 Q52.9483 467.519 47.7284 467.519 L27.5173 467.519 L27.5173 461.663 L63.1652 461.663 L63.1652 467.519 L57.6907 467.519 Q60.9372 469.652 62.5286 472.485 Q64.0882 475.286 64.0882 479.009 Q64.0882 485.152 60.2688 488.335 Q56.4494 491.518 49.097 491.518 M26.6579 476.781 L26.6579 476.781 Z" fill="#000000" fill-rule="nonzero" fill-opacity="1" /><path clip-path="url(#clip240)" d="M34.3604 421.845 Q30.4137 419.649 28.5358 416.594 Q26.6579 413.538 26.6579 409.4 Q26.6579 403.83 30.5728 400.807 Q34.4559 397.783 41.6491 397.783 L63.1652 397.783 L63.1652 403.671 L41.8401 403.671 Q36.7157 403.671 34.2331 405.486 Q31.7505 407.3 31.7505 411.024 Q31.7505 415.575 34.7742 418.217 Q37.7979 420.859 43.0178 420.859 L63.1652 420.859 L63.1652 426.747 L41.8401 426.747 Q36.6839 426.747 34.2331 428.561 Q31.7505 430.375 31.7505 434.163 Q31.7505 438.651 34.806 441.293 Q37.8297 443.934 43.0178 443.934 L63.1652 443.934 L63.1652 449.823 L27.5173 449.823 L27.5173 443.934 L33.0554 443.934 Q29.7771 441.929 28.2175 439.128 Q26.6579 436.327 26.6579 432.476 Q26.6579 428.593 28.6313 425.888 Q30.6046 423.15 34.3604 421.845 Z" fill="#000000" fill-rule="nonzero" fill-opacity="1" /><path clip-path="url(#clip240)" d="M45.3731 360.512 Q38.9119 360.512 35.2516 363.185 Q31.5595 365.827 31.5595 370.474 Q31.5595 375.121 35.2516 377.795 Q38.9119 380.437 45.3731 380.437 Q51.8343 380.437 55.5264 377.795 Q59.1867 375.121 59.1867 370.474 Q59.1867 365.827 55.5264 363.185 Q51.8343 360.512 45.3731 360.512 M32.9281 380.437 Q29.7453 378.59 28.2175 375.79 Q26.6579 372.957 26.6579 369.042 Q26.6579 362.549 31.8141 358.507 Q36.9703 354.433 45.3731 354.433 Q53.7758 354.433 58.932 358.507 Q64.0882 362.549 64.0882 369.042 Q64.0882 372.957 62.5605 375.79 Q61.0009 378.59 57.818 380.437 L63.1652 380.437 L63.1652 386.325 L13.64 386.325 L13.64 380.437 L32.9281 380.437 Z" fill="#000000" fill-rule="nonzero" fill-opacity="1" /><path clip-path="url(#clip240)" d="M43.8771 314.233 L46.7417 314.233 L46.7417 341.16 Q52.7891 340.778 55.972 337.532 Q59.123 334.253 59.123 328.429 Q59.123 325.055 58.2955 321.904 Q57.4679 318.721 55.8128 315.602 L61.351 315.602 Q62.6878 318.753 63.388 322.063 Q64.0882 325.373 64.0882 328.779 Q64.0882 337.309 59.123 342.306 Q54.1577 347.271 45.6914 347.271 Q36.9385 347.271 31.8141 342.561 Q26.6579 337.818 26.6579 329.797 Q26.6579 322.604 31.3049 318.435 Q35.92 314.233 43.8771 314.233 M42.1584 320.09 Q37.3523 320.153 34.4877 322.795 Q31.6231 325.405 31.6231 329.734 Q31.6231 334.635 34.3922 337.595 Q37.1613 340.524 42.1902 340.969 L42.1584 320.09 Z" fill="#000000" fill-rule="nonzero" fill-opacity="1" /><path clip-path="url(#clip240)" d="M32.9918 283.964 Q32.4189 284.951 32.1642 286.129 Q31.8778 287.274 31.8778 288.675 Q31.8778 293.64 35.1243 296.314 Q38.339 298.955 44.3864 298.955 L63.1652 298.955 L63.1652 304.844 L27.5173 304.844 L27.5173 298.955 L33.0554 298.955 Q29.8089 297.109 28.2493 294.149 Q26.6579 291.189 26.6579 286.956 Q26.6579 286.351 26.7534 285.619 Q26.817 284.887 26.9762 283.996 L32.9918 283.964 Z" fill="#000000" fill-rule="nonzero" fill-opacity="1" /><path clip-path="url(#clip242)" d="M352.304 927.778 L380.039 846.929 L407.775 726.527 L435.51 835.388 L463.246 738.79 L490.981 823.663 L518.717 710.774 L546.452 870.928 L574.188 711.42 L601.923 679.471 L629.659 659.58 L657.394 654.76 L685.13 703.164 L712.865 671.113 L740.601 690.833 L768.336 667.168 L796.072 742.971 L823.807 756.892 L851.543 741.117 L879.278 833.588 L907.014 778.381 L934.749 857.132 L962.485 833.432 L990.22 901.025 L1017.96 927.682 L1045.69 981.563 L1073.43 991.249 L1101.16 1022.14 L1128.9 1043.18 L1156.63 1051.71 L1184.37 1053.38 L1212.1 1095.45 L1239.84 1117.52 L1267.57 1137.66 L1295.31 1118.42 L1323.05 1141.37 L1350.78 1133.34 L1378.52 1167.84 L1406.25 1152.05 L1433.99 1168.3 L1461.72 1095.05 L1489.46 1121.21 L1517.19 1042.52 L1544.93 1021.51 L1572.67 1038.41 L1600.4 1006.78 L1628.14 1004.09 L1655.87 1079.74 L1683.61 882.361 L1711.34 957.116 L1739.08 924.002 L1766.81 914.089 L1794.55 967.648 L1822.28 877.801 L1850.02 750.337 L1877.76 907.069 L1905.49 843.298 L1933.23 746.046 L1960.96 689.834 L1988.7 623.773 L2016.43 683.253 L2044.17 754.039 L2071.9 668.328 L2099.64 655.797 L2127.37 758.812 L2155.11 756.048 L2182.85 762.166 L2210.58 771.554 L2238.32 879.733 L2266.05 751.412 L2293.79 754.993 L2321.52 903.069 L2349.26 902.605 L2376.99 868.803 L2404.73 874.913 L2432.47 991.281 L2460.2 1018.04 L2487.94 1012.65 L2515.67 1016.47 L2543.41 1060.98 L2571.14 1144.63 L2598.88 1111.09 L2626.61 1153.62 L2654.35 1165.06 L2682.08 1188.65 L2709.82 1162.45 L2737.56 1138.3 L2765.29 1155.44 L2793.03 1130.06 L2820.76 1146.01 L2848.5 1062.2 L2876.23 1093.31 L2903.97 1131.42 L2931.7 1094.97 L2959.44 890.108 L2987.18 916.136 L3014.91 1095.61 L3042.65 999.974 L3070.38 1007.95 L3070.38 661.499 L3042.65 653.397 L3014.91 797.545 L2987.18 540.374 L2959.44 511.34 L2931.7 814.061 L2903.97 879.358 L2876.23 832.858 L2848.5 799.745 L2820.76 932.946 L2793.03 921.072 L2765.29 968.818 L2737.56 954.96 L2709.82 999.111 L2682.08 1045.03 L2654.35 1019.28 L2626.61 1010.16 L2598.88 959.377 L2571.14 1008.18 L2543.41 903.715 L2515.67 851 L2487.94 848.698 L2460.2 856.894 L2432.47 824.227 L2404.73 682.508 L2376.99 673.801 L2349.26 712.567 L2321.52 710.141 L2293.79 528.65 L2266.05 519.691 L2238.32 669.192 L2210.58 532.901 L2182.85 514.557 L2155.11 499.116 L2127.37 492.976 L2099.64 356.997 L2071.9 360.207 L2044.17 453.367 L2016.43 352.448 L1988.7 264.876 L1960.96 334.926 L1933.23 396.926 L1905.49 515.476 L1877.76 593.483 L1850.02 383.52 L1822.28 546.733 L1794.55 666.139 L1766.81 592.856 L1739.08 605.951 L1711.34 651.671 L1683.61 554.649 L1655.87 829.264 L1628.14 728.647 L1600.4 738.036 L1572.67 788.019 L1544.93 773.018 L1517.19 811.079 L1489.46 929.102 L1461.72 903.308 L1433.99 1014.01 L1406.25 1000.04 L1378.52 1029.5 L1350.78 990.343 L1323.05 1007.68 L1295.31 984.124 L1267.57 1014.46 L1239.84 993.598 L1212.1 970.138 L1184.37 922.153 L1156.63 923.489 L1128.9 915.985 L1101.16 892.922 L1073.43 857.717 L1045.69 847.039 L1017.96 783.685 L990.22 751.652 L962.485 671.599 L934.749 696.699 L907.014 602.692 L879.278 662.908 L851.543 551.32 L823.807 564.141 L796.072 541.652 L768.336 446.213 L740.601 465.563 L712.865 433.899 L685.13 462.402 L657.394 395.336 L629.659 390.93 L601.923 405.334 L574.188 435.904 L546.452 624.462 L518.717 419.114 L490.981 549.641 L463.246 434.413 L435.51 545.095 L407.775 394.643 L380.039 538.398 L352.304 640.813  Z" fill="#009af9" fill-rule="evenodd" fill-opacity="0.4"/>
<polyline clip-path="url(#clip242)" style="stroke:#009af9; stroke-linecap:round; stroke-linejoin:round; stroke-width:4; stroke-opacity:1; fill:none" points="352.304,793.822 380.039,702.058 407.775,569.553 435.51,698.509 463.246,594.399 490.981,693.965 518.717,571.889 546.452,754.233 574.188,579.925 601.923,548.351 629.659,530.842 657.394,530.254 685.13,587.615 712.865,557.009 740.601,582.398 768.336,560.616 796.072,645.979 823.807,663.969 851.543,649.494 879.278,751.365 907.014,693.538 934.749,779.813 962.485,755.337 990.22,829.099 1017.96,858.409 1045.69,917.019 1073.43,927.23 1101.16,960.333 1128.9,982.471 1156.63,990.609 1184.37,990.922 1212.1,1036.12 1239.84,1059.09 1267.57,1079.84 1295.31,1055.36 1323.05,1078.96 1350.78,1066.68 1378.52,1103.96 1406.25,1081.86 1433.99,1097.55 1461.72,1006.25 1489.46,1032.89 1517.19,935.234 1544.93,906.321 1572.67,922.784 1600.4,882.429 1628.14,876.766 1655.87,965.206 1683.61,729.596 1711.34,815.652 1739.08,776.311 1766.81,764.798 1794.55,828.139 1822.28,723.472 1850.02,578.01 1877.76,760.995 1905.49,689.79 1933.23,581.571 1960.96,522.03 1988.7,453.417 2016.43,526.277 2044.17,611.493 2071.9,521.534 2099.64,513.16 2127.37,632.163 2155.11,633.449 2182.85,643.893 2210.58,657.47 2238.32,779.452 2266.05,640.371 2293.79,646.461 2321.52,811.05 2349.26,811.906 2376.99,775.551 2404.73,782.903 2432.47,911.896 2460.2,941.621 2487.94,934.9 2515.67,938.073 2543.41,986.825 2571.14,1081.07 2598.88,1040.18 2626.61,1087.18 2654.35,1097.89 2682.08,1123.08 2709.82,1087.65 2737.56,1054.23 2765.29,1070.51 2793.03,1034.79 2820.76,1049.58 2848.5,942.016 2876.23,974.981 2903.97,1018.1 2931.7,968.097 2959.44,715.2 2987.18,743.187 3014.91,961.604 3042.65,841.982 3070.38,850.275 "/>
<path clip-path="url(#clip242)" d="M352.304 480.855 L380.039 622.29 L407.775 624.251 L435.51 656.229 L463.246 652.136 L490.981 666.969 L518.717 716.728 L546.452 715.584 L574.188 696.57 L601.923 687.69 L629.659 662.456 L657.394 649.576 L685.13 635.743 L712.865 630.876 L740.601 610.677 L768.336 606.897 L796.072 621.057 L823.807 638.992 L851.543 653.333 L879.278 677.498 L907.014 694.003 L934.749 720.671 L962.485 744.679 L990.22 769.529 L1017.96 795.788 L1045.69 831.614 L1073.43 855.474 L1101.16 890.871 L1128.9 917.872 L1156.63 949.533 L1184.37 971.739 L1212.1 996.13 L1239.84 1015.41 L1267.57 1036.41 L1295.31 1050.43 L1323.05 1064.33 L1350.78 1076.54 L1378.52 1093.68 L1406.25 1101.92 L1433.99 1108.36 L1461.72 1102.37 L1489.46 1103.12 L1517.19 1089.61 L1544.93 1073.9 L1572.67 1050.81 L1600.4 1025.14 L1628.14 993.607 L1655.87 986.77 L1683.61 947.047 L1711.34 931.871 L1739.08 915.498 L1766.81 894.255 L1794.55 886.814 L1822.28 865.972 L1850.02 812.207 L1877.76 816.393 L1905.49 798.559 L1933.23 770.155 L1960.96 734.335 L1988.7 680.149 L2016.43 651.532 L2044.17 654.948 L2071.9 622.315 L2099.64 598.273 L2127.37 607.67 L2155.11 622.698 L2182.85 645.238 L2210.58 661.08 L2238.32 687.011 L2266.05 698.328 L2293.79 711.263 L2321.52 736.656 L2349.26 760.843 L2376.99 777.349 L2404.73 792.989 L2432.47 812.517 L2460.2 852.565 L2487.94 890.218 L2515.67 907.088 L2543.41 930.33 L2571.14 970.821 L2598.88 1006.04 L2626.61 1029.28 L2654.35 1050.16 L2682.08 1076.03 L2709.82 1099.44 L2737.56 1113.37 L2765.29 1113.8 L2793.03 1118.36 L2820.76 1116.13 L2848.5 1100.96 L2876.23 1082.47 L2903.97 1073.23 L2931.7 1064.16 L2959.44 1024.11 L2987.18 989.31 L3014.91 974.082 L3042.65 962.221 L3070.38 945.216 L3070.38 823.241 L3042.65 845.335 L3014.91 861.952 L2987.18 882.908 L2959.44 926.746 L2931.7 976.823 L2903.97 991.147 L2876.23 1005.57 L2848.5 1030.45 L2820.76 1051.22 L2793.03 1056.85 L2765.29 1054.5 L2737.56 1056.52 L2709.82 1043.09 L2682.08 1018.94 L2654.35 992.011 L2626.61 970.449 L2598.88 946.122 L2571.14 908.584 L2543.41 865.233 L2515.67 840.36 L2487.94 822.094 L2460.2 781.198 L2432.47 737.507 L2404.73 715.582 L2376.99 697.576 L2349.26 678.361 L2321.52 650.599 L2293.79 621.219 L2266.05 604.871 L2238.32 589.909 L2210.58 558.832 L2182.85 538.176 L2155.11 509.901 L2127.37 489.423 L2099.64 474.934 L2071.9 496.875 L2044.17 528.578 L2016.43 521.341 L1988.7 549.758 L1960.96 607.176 L1933.23 645.164 L1905.49 675.522 L1877.76 694.592 L1850.02 689.611 L1822.28 749.902 L1794.55 773.904 L1766.81 783.251 L1739.08 808.509 L1711.34 828.732 L1683.61 848.056 L1655.87 895.405 L1628.14 906.04 L1600.4 944.72 L1572.67 976.914 L1544.93 1006.17 L1517.19 1026.96 L1489.46 1045.07 L1461.72 1046.93 L1433.99 1056.11 L1406.25 1051.24 L1378.52 1044.2 L1350.78 1027.25 L1323.05 1015.62 L1295.31 1002.03 L1267.57 988.179 L1239.84 966.671 L1212.1 946.898 L1184.37 921.505 L1156.63 898.295 L1128.9 864.841 L1101.16 836.165 L1073.43 798.385 L1045.69 772.611 L1017.96 733.934 L990.22 705.128 L962.485 677.547 L934.749 650.574 L907.014 620.494 L879.278 600.86 L851.543 572.809 L823.807 554.856 L796.072 532.812 L768.336 514.563 L740.601 515.321 L712.865 533.645 L685.13 535.634 L657.394 547.296 L629.659 558.017 L601.923 582.156 L574.188 588.548 L546.452 605.899 L518.717 603.96 L490.981 538.038 L463.246 506.374 L435.51 490.14 L407.775 423.381 L380.039 370.145 L352.304 80.489  Z" fill="#e26f46" fill-rule="evenodd" fill-opacity="0.4"/>
<polyline clip-path="url(#clip242)" style="stroke:#e26f46; stroke-linecap:round; stroke-linejoin:round; stroke-width:4; stroke-opacity:1; fill:none" points="352.304,290.206 380.039,500.961 407.775,526.923 435.51,575.446 463.246,581.01 490.981,603.92 518.717,661.521 546.452,661.856 574.188,643.611 601.923,635.915 629.659,611.175 657.394,599.321 685.13,586.522 712.865,583.043 740.601,563.733 768.336,561.416 796.072,577.575 823.807,597.522 851.543,613.63 879.278,639.705 907.014,657.746 934.749,686.095 962.485,711.564 990.22,737.762 1017.96,765.28 1045.69,802.521 1073.43,827.331 1101.16,863.916 1128.9,891.754 1156.63,924.316 1184.37,947.031 1212.1,971.934 1239.84,991.474 1267.57,1012.75 1295.31,1026.71 1323.05,1040.48 1350.78,1052.44 1378.52,1069.52 1406.25,1077.21 1433.99,1082.92 1461.72,1075.4 1489.46,1074.92 1517.19,1059.19 1544.93,1041.02 1572.67,1014.94 1600.4,986.098 1628.14,951.079 1655.87,942.424 1683.61,898.961 1711.34,881.773 1739.08,863.525 1766.81,840.312 1794.55,831.944 1822.28,809.54 1850.02,752.52 1877.76,757.096 1905.49,738.625 1933.23,709.217 1960.96,672.277 1988.7,616.427 2016.43,587.849 2044.17,593.103 2071.9,560.86 2099.64,537.791 2127.37,549.654 2155.11,567.331 2182.85,592.668 2210.58,610.855 2238.32,639.305 2266.05,652.397 2293.79,666.998 2321.52,694.348 2349.26,720.292 2376.99,738.128 2404.73,754.93 2432.47,775.64 2460.2,817.497 2487.94,856.763 2515.67,874.33 2543.41,898.39 2571.14,940.319 2598.88,976.71 2626.61,1000.51 2654.35,1021.77 2682.08,1048.21 2709.82,1072.03 2737.56,1085.77 2765.29,1085.04 2793.03,1088.58 2820.76,1084.74 2848.5,1066.88 2876.23,1045.31 2903.97,1033.6 2931.7,1022.03 2959.44,977.098 2987.18,937.9 3014.91,919.919 3042.65,905.775 3070.38,886.308 "/>
<polyline clip-path="url(#clip242)" style="stroke:#000000; stroke-linecap:round; stroke-linejoin:round; stroke-width:4; stroke-opacity:1; fill:none" points="324.568,790.339 352.304,759.152 380.039,728.957 407.775,700.23 435.51,673.423 463.246,648.961 490.981,627.227 518.717,608.566 546.452,593.27 574.188,581.583 601.923,573.687 629.659,569.708 657.394,569.708 685.13,573.687 712.865,581.583 740.601,593.27 768.336,608.566 796.072,627.227 823.807,648.961 851.543,673.423 879.278,700.23 907.014,728.957 934.749,759.152 962.485,790.339 990.22,822.025 1017.96,853.711 1045.69,884.897 1073.43,915.092 1101.16,943.82 1128.9,970.626 1156.63,995.089 1184.37,1016.82 1212.1,1035.48 1239.84,1050.78 1267.57,1062.47 1295.31,1070.36 1323.05,1074.34 1350.78,1074.34 1378.52,1070.36 1406.25,1062.47 1433.99,1050.78 1461.72,1035.48 1489.46,1016.82 1517.19,995.089 1544.93,970.626 1572.67,943.82 1600.4,915.092 1628.14,884.897 1655.87,853.711 1683.61,822.025 1711.34,790.339 1739.08,759.152 1766.81,728.957 1794.55,700.23 1822.28,673.423 1850.02,648.961 1877.76,627.227 1905.49,608.566 1933.23,593.27 1960.96,581.583 1988.7,573.687 2016.43,569.708 2044.17,569.708 2071.9,573.687 2099.64,581.583 2127.37,593.27 2155.11,608.566 2182.85,627.227 2210.58,648.961 2238.32,673.423 2266.05,700.23 2293.79,728.957 2321.52,759.152 2349.26,790.339 2376.99,822.025 2404.73,853.711 2432.47,884.897 2460.2,915.092 2487.94,943.82 2515.67,970.626 2543.41,995.089 2571.14,1016.82 2598.88,1035.48 2626.61,1050.78 2654.35,1062.47 2682.08,1070.36 2709.82,1074.34 2737.56,1074.34 2765.29,1070.36 2793.03,1062.47 2820.76,1050.78 2848.5,1035.48 2876.23,1016.82 2903.97,995.089 2931.7,970.626 2959.44,943.82 2987.18,915.092 3014.91,884.897 3042.65,853.711 3070.38,822.025 "/>
<path clip-path="url(#clip240)" d="M2046.91 293.759 L3055.74 293.759 L3055.74 86.3993 L2046.91 86.3993  Z" fill="#ffffff" fill-rule="evenodd" fill-opacity="1"/>
<polyline clip-path="url(#clip240)" style="stroke:#000000; stroke-linecap:round; stroke-linejoin:round; stroke-width:4; stroke-opacity:1; fill:none" points="2046.91,293.759 3055.74,293.759 3055.74,86.3993 2046.91,86.3993 2046.91,293.759 "/>
<polyline clip-path="url(#clip240)" style="stroke:#009af9; stroke-linecap:round; stroke-linejoin:round; stroke-width:4; stroke-opacity:1; fill:none" points="2079.25,138.239 2273.28,138.239 "/>
<path clip-path="url(#clip240)" d="M2305.62 120.959 L2310.32 120.959 L2310.32 141.955 Q2310.32 147.51 2312.34 149.964 Q2314.35 152.394 2318.86 152.394 Q2323.36 152.394 2325.37 149.964 Q2327.38 147.51 2327.38 141.955 L2327.38 120.959 L2332.08 120.959 L2332.08 142.533 Q2332.08 149.292 2328.73 152.741 Q2325.39 156.191 2318.86 156.191 Q2312.31 156.191 2308.96 152.741 Q2305.62 149.292 2305.62 142.533 L2305.62 120.959 Z" fill="#000000" fill-rule="nonzero" fill-opacity="1" /><path clip-path="url(#clip240)" d="M2362.22 139.871 L2362.22 155.519 L2357.96 155.519 L2357.96 140.01 Q2357.96 136.33 2356.53 134.501 Q2355.09 132.672 2352.22 132.672 Q2348.77 132.672 2346.78 134.871 Q2344.79 137.07 2344.79 140.867 L2344.79 155.519 L2340.51 155.519 L2340.51 129.593 L2344.79 129.593 L2344.79 133.621 Q2346.32 131.283 2348.38 130.126 Q2350.46 128.968 2353.17 128.968 Q2357.64 128.968 2359.93 131.746 Q2362.22 134.501 2362.22 139.871 Z" fill="#000000" fill-rule="nonzero" fill-opacity="1" /><path clip-path="url(#clip240)" d="M2387.24 130.357 L2387.24 134.385 Q2385.44 133.459 2383.49 132.996 Q2381.55 132.533 2379.47 132.533 Q2376.29 132.533 2374.7 133.505 Q2373.12 134.478 2373.12 136.422 Q2373.12 137.904 2374.26 138.76 Q2375.39 139.593 2378.82 140.357 L2380.28 140.681 Q2384.81 141.654 2386.71 143.436 Q2388.63 145.195 2388.63 148.367 Q2388.63 151.978 2385.76 154.084 Q2382.91 156.191 2377.91 156.191 Q2375.83 156.191 2373.56 155.774 Q2371.32 155.38 2368.82 154.57 L2368.82 150.172 Q2371.18 151.399 2373.47 152.024 Q2375.76 152.626 2378.01 152.626 Q2381.02 152.626 2382.64 151.607 Q2384.26 150.566 2384.26 148.691 Q2384.26 146.954 2383.08 146.029 Q2381.92 145.103 2377.96 144.246 L2376.48 143.899 Q2372.52 143.066 2370.76 141.353 Q2369 139.617 2369 136.607 Q2369 132.95 2371.6 130.959 Q2374.19 128.968 2378.96 128.968 Q2381.32 128.968 2383.4 129.316 Q2385.48 129.663 2387.24 130.357 Z" fill="#000000" fill-rule="nonzero" fill-opacity="1" /><path clip-path="url(#clip240)" d="M2415.6 134.57 Q2417.2 131.7 2419.42 130.334 Q2421.64 128.968 2424.65 128.968 Q2428.7 128.968 2430.9 131.816 Q2433.1 134.64 2433.1 139.871 L2433.1 155.519 L2428.82 155.519 L2428.82 140.01 Q2428.82 136.283 2427.5 134.478 Q2426.18 132.672 2423.47 132.672 Q2420.16 132.672 2418.24 134.871 Q2416.32 137.07 2416.32 140.867 L2416.32 155.519 L2412.04 155.519 L2412.04 140.01 Q2412.04 136.26 2410.72 134.478 Q2409.4 132.672 2406.64 132.672 Q2403.38 132.672 2401.46 134.894 Q2399.54 137.093 2399.54 140.867 L2399.54 155.519 L2395.25 155.519 L2395.25 129.593 L2399.54 129.593 L2399.54 133.621 Q2400.99 131.237 2403.03 130.103 Q2405.07 128.968 2407.87 128.968 Q2410.69 128.968 2412.66 130.404 Q2414.65 131.839 2415.6 134.57 Z" fill="#000000" fill-rule="nonzero" fill-opacity="1" /><path clip-path="url(#clip240)" d="M2451.64 132.58 Q2448.22 132.58 2446.22 135.265 Q2444.23 137.927 2444.23 142.58 Q2444.23 147.232 2446.2 149.917 Q2448.19 152.579 2451.64 152.579 Q2455.04 152.579 2457.03 149.894 Q2459.03 147.209 2459.03 142.58 Q2459.03 137.973 2457.03 135.288 Q2455.04 132.58 2451.64 132.58 M2451.64 128.968 Q2457.2 128.968 2460.37 132.58 Q2463.54 136.191 2463.54 142.58 Q2463.54 148.945 2460.37 152.579 Q2457.2 156.191 2451.64 156.191 Q2446.06 156.191 2442.89 152.579 Q2439.74 148.945 2439.74 142.58 Q2439.74 136.191 2442.89 132.58 Q2446.06 128.968 2451.64 128.968 Z" fill="#000000" fill-rule="nonzero" fill-opacity="1" /><path clip-path="url(#clip240)" d="M2480.65 132.58 Q2477.22 132.58 2475.23 135.265 Q2473.24 137.927 2473.24 142.58 Q2473.24 147.232 2475.21 149.917 Q2477.2 152.579 2480.65 152.579 Q2484.05 152.579 2486.04 149.894 Q2488.03 147.209 2488.03 142.58 Q2488.03 137.973 2486.04 135.288 Q2484.05 132.58 2480.65 132.58 M2480.65 128.968 Q2486.2 128.968 2489.37 132.58 Q2492.54 136.191 2492.54 142.58 Q2492.54 148.945 2489.37 152.579 Q2486.2 156.191 2480.65 156.191 Q2475.07 156.191 2471.9 152.579 Q2468.75 148.945 2468.75 142.58 Q2468.75 136.191 2471.9 132.58 Q2475.07 128.968 2480.65 128.968 Z" fill="#000000" fill-rule="nonzero" fill-opacity="1" /><path clip-path="url(#clip240)" d="M2503.82 122.232 L2503.82 129.593 L2512.59 129.593 L2512.59 132.904 L2503.82 132.904 L2503.82 146.978 Q2503.82 150.149 2504.67 151.052 Q2505.55 151.954 2508.22 151.954 L2512.59 151.954 L2512.59 155.519 L2508.22 155.519 Q2503.28 155.519 2501.41 153.691 Q2499.53 151.839 2499.53 146.978 L2499.53 132.904 L2496.41 132.904 L2496.41 129.593 L2499.53 129.593 L2499.53 122.232 L2503.82 122.232 Z" fill="#000000" fill-rule="nonzero" fill-opacity="1" /><path clip-path="url(#clip240)" d="M2539.74 139.871 L2539.74 155.519 L2535.48 155.519 L2535.48 140.01 Q2535.48 136.33 2534.05 134.501 Q2532.61 132.672 2529.74 132.672 Q2526.29 132.672 2524.3 134.871 Q2522.31 137.07 2522.31 140.867 L2522.31 155.519 L2518.03 155.519 L2518.03 119.501 L2522.31 119.501 L2522.31 133.621 Q2523.84 131.283 2525.9 130.126 Q2527.98 128.968 2530.69 128.968 Q2535.16 128.968 2537.45 131.746 Q2539.74 134.501 2539.74 139.871 Z" fill="#000000" fill-rule="nonzero" fill-opacity="1" /><path clip-path="url(#clip240)" d="M2570.41 141.492 L2570.41 143.575 L2550.83 143.575 Q2551.11 147.973 2553.47 150.288 Q2555.85 152.579 2560.09 152.579 Q2562.54 152.579 2564.84 151.978 Q2567.15 151.376 2569.42 150.172 L2569.42 154.2 Q2567.13 155.172 2564.72 155.681 Q2562.31 156.191 2559.84 156.191 Q2553.63 156.191 2550 152.579 Q2546.39 148.968 2546.39 142.811 Q2546.39 136.445 2549.81 132.718 Q2553.26 128.968 2559.09 128.968 Q2564.33 128.968 2567.36 132.348 Q2570.41 135.705 2570.41 141.492 M2566.15 140.242 Q2566.11 136.746 2564.19 134.663 Q2562.29 132.58 2559.14 132.58 Q2555.58 132.58 2553.42 134.593 Q2551.29 136.607 2550.97 140.265 L2566.15 140.242 Z" fill="#000000" fill-rule="nonzero" fill-opacity="1" /><path clip-path="url(#clip240)" d="M2594.46 133.529 L2594.46 119.501 L2598.72 119.501 L2598.72 155.519 L2594.46 155.519 L2594.46 151.63 Q2593.12 153.945 2591.06 155.079 Q2589.02 156.191 2586.15 156.191 Q2581.46 156.191 2578.49 152.441 Q2575.55 148.691 2575.55 142.58 Q2575.55 136.468 2578.49 132.718 Q2581.46 128.968 2586.15 128.968 Q2589.02 128.968 2591.06 130.103 Q2593.12 131.214 2594.46 133.529 M2579.95 142.58 Q2579.95 147.279 2581.87 149.964 Q2583.82 152.626 2587.2 152.626 Q2590.58 152.626 2592.52 149.964 Q2594.46 147.279 2594.46 142.58 Q2594.46 137.88 2592.52 135.218 Q2590.58 132.533 2587.2 132.533 Q2583.82 132.533 2581.87 135.218 Q2579.95 137.88 2579.95 142.58 Z" fill="#000000" fill-rule="nonzero" fill-opacity="1" /><path clip-path="url(#clip240)" d="M2626.69 151.63 L2626.69 165.38 L2622.4 165.38 L2622.4 129.593 L2626.69 129.593 L2626.69 133.529 Q2628.03 131.214 2630.07 130.103 Q2632.13 128.968 2634.97 128.968 Q2639.7 128.968 2642.64 132.718 Q2645.6 136.468 2645.6 142.58 Q2645.6 148.691 2642.64 152.441 Q2639.7 156.191 2634.97 156.191 Q2632.13 156.191 2630.07 155.079 Q2628.03 153.945 2626.69 151.63 M2641.18 142.58 Q2641.18 137.88 2639.23 135.218 Q2637.31 132.533 2633.93 132.533 Q2630.55 132.533 2628.61 135.218 Q2626.69 137.88 2626.69 142.58 Q2626.69 147.279 2628.61 149.964 Q2630.55 152.626 2633.93 152.626 Q2637.31 152.626 2639.23 149.964 Q2641.18 147.279 2641.18 142.58 Z" fill="#000000" fill-rule="nonzero" fill-opacity="1" /><path clip-path="url(#clip240)" d="M2662.71 132.58 Q2659.28 132.58 2657.29 135.265 Q2655.3 137.927 2655.3 142.58 Q2655.3 147.232 2657.27 149.917 Q2659.26 152.579 2662.71 152.579 Q2666.11 152.579 2668.1 149.894 Q2670.09 147.209 2670.09 142.58 Q2670.09 137.973 2668.1 135.288 Q2666.11 132.58 2662.71 132.58 M2662.71 128.968 Q2668.26 128.968 2671.43 132.58 Q2674.6 136.191 2674.6 142.58 Q2674.6 148.945 2671.43 152.579 Q2668.26 156.191 2662.71 156.191 Q2657.13 156.191 2653.96 152.579 Q2650.81 148.945 2650.81 142.58 Q2650.81 136.191 2653.96 132.58 Q2657.13 128.968 2662.71 128.968 Z" fill="#000000" fill-rule="nonzero" fill-opacity="1" /><path clip-path="url(#clip240)" d="M2698.19 130.357 L2698.19 134.385 Q2696.39 133.459 2694.44 132.996 Q2692.5 132.533 2690.41 132.533 Q2687.24 132.533 2685.64 133.505 Q2684.07 134.478 2684.07 136.422 Q2684.07 137.904 2685.2 138.76 Q2686.34 139.593 2689.77 140.357 L2691.22 140.681 Q2695.76 141.654 2697.66 143.436 Q2699.58 145.195 2699.58 148.367 Q2699.58 151.978 2696.71 154.084 Q2693.86 156.191 2688.86 156.191 Q2686.78 156.191 2684.51 155.774 Q2682.27 155.38 2679.77 154.57 L2679.77 150.172 Q2682.13 151.399 2684.42 152.024 Q2686.71 152.626 2688.95 152.626 Q2691.96 152.626 2693.58 151.607 Q2695.2 150.566 2695.2 148.691 Q2695.2 146.954 2694.02 146.029 Q2692.87 145.103 2688.91 144.246 L2687.43 143.899 Q2683.47 143.066 2681.71 141.353 Q2679.95 139.617 2679.95 136.607 Q2679.95 132.95 2682.54 130.959 Q2685.14 128.968 2689.9 128.968 Q2692.27 128.968 2694.35 129.316 Q2696.43 129.663 2698.19 130.357 Z" fill="#000000" fill-rule="nonzero" fill-opacity="1" /><path clip-path="url(#clip240)" d="M2710.58 122.232 L2710.58 129.593 L2719.35 129.593 L2719.35 132.904 L2710.58 132.904 L2710.58 146.978 Q2710.58 150.149 2711.43 151.052 Q2712.31 151.954 2714.97 151.954 L2719.35 151.954 L2719.35 155.519 L2714.97 155.519 Q2710.04 155.519 2708.17 153.691 Q2706.29 151.839 2706.29 146.978 L2706.29 132.904 L2703.17 132.904 L2703.17 129.593 L2706.29 129.593 L2706.29 122.232 L2710.58 122.232 Z" fill="#000000" fill-rule="nonzero" fill-opacity="1" /><path clip-path="url(#clip240)" d="M2747.13 141.492 L2747.13 143.575 L2727.54 143.575 Q2727.82 147.973 2730.18 150.288 Q2732.57 152.579 2736.8 152.579 Q2739.26 152.579 2741.55 151.978 Q2743.86 151.376 2746.13 150.172 L2746.13 154.2 Q2743.84 155.172 2741.43 155.681 Q2739.02 156.191 2736.55 156.191 Q2730.34 156.191 2726.71 152.579 Q2723.1 148.968 2723.1 142.811 Q2723.1 136.445 2726.52 132.718 Q2729.97 128.968 2735.81 128.968 Q2741.04 128.968 2744.07 132.348 Q2747.13 135.705 2747.13 141.492 M2742.87 140.242 Q2742.82 136.746 2740.9 134.663 Q2739 132.58 2735.85 132.58 Q2732.29 132.58 2730.14 134.593 Q2728.01 136.607 2727.68 140.265 L2742.87 140.242 Z" fill="#000000" fill-rule="nonzero" fill-opacity="1" /><path clip-path="url(#clip240)" d="M2769.14 133.575 Q2768.42 133.158 2767.57 132.973 Q2766.73 132.765 2765.71 132.765 Q2762.1 132.765 2760.16 135.126 Q2758.24 137.464 2758.24 141.862 L2758.24 155.519 L2753.95 155.519 L2753.95 129.593 L2758.24 129.593 L2758.24 133.621 Q2759.58 131.26 2761.73 130.126 Q2763.89 128.968 2766.96 128.968 Q2767.4 128.968 2767.94 129.038 Q2768.47 129.084 2769.12 129.2 L2769.14 133.575 Z" fill="#000000" fill-rule="nonzero" fill-opacity="1" /><path clip-path="url(#clip240)" d="M2773.61 129.593 L2777.87 129.593 L2777.87 155.519 L2773.61 155.519 L2773.61 129.593 M2773.61 119.501 L2777.87 119.501 L2777.87 124.894 L2773.61 124.894 L2773.61 119.501 Z" fill="#000000" fill-rule="nonzero" fill-opacity="1" /><path clip-path="url(#clip240)" d="M2796.82 132.58 Q2793.4 132.58 2791.41 135.265 Q2789.42 137.927 2789.42 142.58 Q2789.42 147.232 2791.38 149.917 Q2793.38 152.579 2796.82 152.579 Q2800.23 152.579 2802.22 149.894 Q2804.21 147.209 2804.21 142.58 Q2804.21 137.973 2802.22 135.288 Q2800.23 132.58 2796.82 132.58 M2796.82 128.968 Q2802.38 128.968 2805.55 132.58 Q2808.72 136.191 2808.72 142.58 Q2808.72 148.945 2805.55 152.579 Q2802.38 156.191 2796.82 156.191 Q2791.25 156.191 2788.07 152.579 Q2784.93 148.945 2784.93 142.58 Q2784.93 136.191 2788.07 132.58 Q2791.25 128.968 2796.82 128.968 Z" fill="#000000" fill-rule="nonzero" fill-opacity="1" /><path clip-path="url(#clip240)" d="M2830.81 133.575 Q2830.09 133.158 2829.23 132.973 Q2828.4 132.765 2827.38 132.765 Q2823.77 132.765 2821.82 135.126 Q2819.9 137.464 2819.9 141.862 L2819.9 155.519 L2815.62 155.519 L2815.62 129.593 L2819.9 129.593 L2819.9 133.621 Q2821.25 131.26 2823.4 130.126 Q2825.55 128.968 2828.63 128.968 Q2829.07 128.968 2829.6 129.038 Q2830.13 129.084 2830.78 129.2 L2830.81 133.575 Z" fill="#000000" fill-rule="nonzero" fill-opacity="1" /><polyline clip-path="url(#clip240)" style="stroke:#e26f46; stroke-linecap:round; stroke-linejoin:round; stroke-width:4; stroke-opacity:1; fill:none" points="2079.25,190.079 2273.28,190.079 "/>
<path clip-path="url(#clip240)" d="M2305.62 172.799 L2327.48 172.799 L2327.48 176.734 L2310.3 176.734 L2310.3 186.966 L2326.76 186.966 L2326.76 190.901 L2310.3 190.901 L2310.3 203.424 L2327.89 203.424 L2327.89 207.359 L2305.62 207.359 L2305.62 172.799 Z" fill="#000000" fill-rule="nonzero" fill-opacity="1" /><path clip-path="url(#clip240)" d="M2339.51 203.47 L2339.51 217.22 L2335.23 217.22 L2335.23 181.433 L2339.51 181.433 L2339.51 185.369 Q2340.85 183.054 2342.89 181.943 Q2344.95 180.808 2347.8 180.808 Q2352.52 180.808 2355.46 184.558 Q2358.42 188.308 2358.42 194.42 Q2358.42 200.531 2355.46 204.281 Q2352.52 208.031 2347.8 208.031 Q2344.95 208.031 2342.89 206.919 Q2340.85 205.785 2339.51 203.47 M2354 194.42 Q2354 189.72 2352.06 187.058 Q2350.14 184.373 2346.76 184.373 Q2343.38 184.373 2341.43 187.058 Q2339.51 189.72 2339.51 194.42 Q2339.51 199.119 2341.43 201.804 Q2343.38 204.466 2346.76 204.466 Q2350.14 204.466 2352.06 201.804 Q2354 199.119 2354 194.42 Z" fill="#000000" fill-rule="nonzero" fill-opacity="1" /><path clip-path="url(#clip240)" d="M2365.48 181.433 L2369.74 181.433 L2369.74 207.359 L2365.48 207.359 L2365.48 181.433 M2365.48 171.341 L2369.74 171.341 L2369.74 176.734 L2365.48 176.734 L2365.48 171.341 Z" fill="#000000" fill-rule="nonzero" fill-opacity="1" /><path clip-path="url(#clip240)" d="M2378.84 172.799 L2400.69 172.799 L2400.69 176.734 L2383.52 176.734 L2383.52 186.966 L2399.98 186.966 L2399.98 190.901 L2383.52 190.901 L2383.52 203.424 L2401.11 203.424 L2401.11 207.359 L2378.84 207.359 L2378.84 172.799 Z" fill="#000000" fill-rule="nonzero" fill-opacity="1" /><path clip-path="url(#clip240)" d="M2425.14 182.197 L2425.14 186.225 Q2423.33 185.299 2421.39 184.836 Q2419.44 184.373 2417.36 184.373 Q2414.19 184.373 2412.59 185.345 Q2411.02 186.318 2411.02 188.262 Q2411.02 189.744 2412.15 190.6 Q2413.29 191.433 2416.71 192.197 L2418.17 192.521 Q2422.71 193.494 2424.6 195.276 Q2426.53 197.035 2426.53 200.207 Q2426.53 203.818 2423.66 205.924 Q2420.81 208.031 2415.81 208.031 Q2413.72 208.031 2411.46 207.614 Q2409.21 207.22 2406.71 206.41 L2406.71 202.012 Q2409.07 203.239 2411.36 203.864 Q2413.66 204.466 2415.9 204.466 Q2418.91 204.466 2420.53 203.447 Q2422.15 202.406 2422.15 200.531 Q2422.15 198.794 2420.97 197.869 Q2419.81 196.943 2415.85 196.086 L2414.37 195.739 Q2410.41 194.906 2408.66 193.193 Q2406.9 191.457 2406.9 188.447 Q2406.9 184.79 2409.49 182.799 Q2412.08 180.808 2416.85 180.808 Q2419.21 180.808 2421.29 181.156 Q2423.38 181.503 2425.14 182.197 Z" fill="#000000" fill-rule="nonzero" fill-opacity="1" /><path clip-path="url(#clip240)" d="M2437.52 174.072 L2437.52 181.433 L2446.29 181.433 L2446.29 184.744 L2437.52 184.744 L2437.52 198.818 Q2437.52 201.989 2438.38 202.892 Q2439.26 203.794 2441.92 203.794 L2446.29 203.794 L2446.29 207.359 L2441.92 207.359 Q2436.99 207.359 2435.11 205.531 Q2433.24 203.679 2433.24 198.818 L2433.24 184.744 L2430.11 184.744 L2430.11 181.433 L2433.24 181.433 L2433.24 174.072 L2437.52 174.072 Z" fill="#000000" fill-rule="nonzero" fill-opacity="1" /><path clip-path="url(#clip240)" d="M2451.9 181.433 L2456.16 181.433 L2456.16 207.359 L2451.9 207.359 L2451.9 181.433 M2451.9 171.341 L2456.16 171.341 L2456.16 176.734 L2451.9 176.734 L2451.9 171.341 Z" fill="#000000" fill-rule="nonzero" fill-opacity="1" /><path clip-path="url(#clip240)" d="M2485.25 186.41 Q2486.85 183.54 2489.07 182.174 Q2491.29 180.808 2494.3 180.808 Q2498.35 180.808 2500.55 183.656 Q2502.75 186.48 2502.75 191.711 L2502.75 207.359 L2498.47 207.359 L2498.47 191.85 Q2498.47 188.123 2497.15 186.318 Q2495.83 184.512 2493.12 184.512 Q2489.81 184.512 2487.89 186.711 Q2485.97 188.91 2485.97 192.707 L2485.97 207.359 L2481.69 207.359 L2481.69 191.85 Q2481.69 188.1 2480.37 186.318 Q2479.05 184.512 2476.29 184.512 Q2473.03 184.512 2471.11 186.734 Q2469.19 188.933 2469.19 192.707 L2469.19 207.359 L2464.91 207.359 L2464.91 181.433 L2469.19 181.433 L2469.19 185.461 Q2470.65 183.077 2472.68 181.943 Q2474.72 180.808 2477.52 180.808 Q2480.34 180.808 2482.31 182.244 Q2484.3 183.679 2485.25 186.41 Z" fill="#000000" fill-rule="nonzero" fill-opacity="1" /><path clip-path="url(#clip240)" d="M2536.55 171.387 Q2533.45 176.711 2531.94 181.92 Q2530.44 187.128 2530.44 192.475 Q2530.44 197.822 2531.94 203.077 Q2533.47 208.308 2536.55 213.609 L2532.84 213.609 Q2529.37 208.169 2527.64 202.915 Q2525.92 197.66 2525.92 192.475 Q2525.92 187.313 2527.64 182.082 Q2529.35 176.85 2532.84 171.387 L2536.55 171.387 Z" fill="#000000" fill-rule="nonzero" fill-opacity="1" /><path clip-path="url(#clip240)" d="M2561.34 182.197 L2561.34 186.225 Q2559.53 185.299 2557.59 184.836 Q2555.65 184.373 2553.56 184.373 Q2550.39 184.373 2548.79 185.345 Q2547.22 186.318 2547.22 188.262 Q2547.22 189.744 2548.35 190.6 Q2549.49 191.433 2552.91 192.197 L2554.37 192.521 Q2558.91 193.494 2560.81 195.276 Q2562.73 197.035 2562.73 200.207 Q2562.73 203.818 2559.86 205.924 Q2557.01 208.031 2552.01 208.031 Q2549.93 208.031 2547.66 207.614 Q2545.41 207.22 2542.91 206.41 L2542.91 202.012 Q2545.28 203.239 2547.57 203.864 Q2549.86 204.466 2552.1 204.466 Q2555.11 204.466 2556.73 203.447 Q2558.35 202.406 2558.35 200.531 Q2558.35 198.794 2557.17 197.869 Q2556.02 196.943 2552.06 196.086 L2550.58 195.739 Q2546.62 194.906 2544.86 193.193 Q2543.1 191.457 2543.1 188.447 Q2543.1 184.79 2545.69 182.799 Q2548.28 180.808 2553.05 180.808 Q2555.41 180.808 2557.5 181.156 Q2559.58 181.503 2561.34 182.197 Z" fill="#000000" fill-rule="nonzero" fill-opacity="1" /><path clip-path="url(#clip240)" d="M2589.7 186.41 Q2591.29 183.54 2593.52 182.174 Q2595.74 180.808 2598.75 180.808 Q2602.8 180.808 2605 183.656 Q2607.2 186.48 2607.2 191.711 L2607.2 207.359 L2602.91 207.359 L2602.91 191.85 Q2602.91 188.123 2601.59 186.318 Q2600.27 184.512 2597.57 184.512 Q2594.26 184.512 2592.34 186.711 Q2590.41 188.91 2590.41 192.707 L2590.41 207.359 L2586.13 207.359 L2586.13 191.85 Q2586.13 188.1 2584.81 186.318 Q2583.49 184.512 2580.74 184.512 Q2577.47 184.512 2575.55 186.734 Q2573.63 188.933 2573.63 192.707 L2573.63 207.359 L2569.35 207.359 L2569.35 181.433 L2573.63 181.433 L2573.63 185.461 Q2575.09 183.077 2577.13 181.943 Q2579.16 180.808 2581.96 180.808 Q2584.79 180.808 2586.76 182.244 Q2588.75 183.679 2589.7 186.41 Z" fill="#000000" fill-rule="nonzero" fill-opacity="1" /><path clip-path="url(#clip240)" d="M2625.74 184.42 Q2622.31 184.42 2620.32 187.105 Q2618.33 189.767 2618.33 194.42 Q2618.33 199.072 2620.3 201.757 Q2622.29 204.419 2625.74 204.419 Q2629.14 204.419 2631.13 201.734 Q2633.12 199.049 2633.12 194.42 Q2633.12 189.813 2631.13 187.128 Q2629.14 184.42 2625.74 184.42 M2625.74 180.808 Q2631.29 180.808 2634.46 184.42 Q2637.64 188.031 2637.64 194.42 Q2637.64 200.785 2634.46 204.419 Q2631.29 208.031 2625.74 208.031 Q2620.16 208.031 2616.99 204.419 Q2613.84 200.785 2613.84 194.42 Q2613.84 188.031 2616.99 184.42 Q2620.16 180.808 2625.74 180.808 Z" fill="#000000" fill-rule="nonzero" fill-opacity="1" /><path clip-path="url(#clip240)" d="M2654.74 184.42 Q2651.32 184.42 2649.33 187.105 Q2647.33 189.767 2647.33 194.42 Q2647.33 199.072 2649.3 201.757 Q2651.29 204.419 2654.74 204.419 Q2658.14 204.419 2660.14 201.734 Q2662.13 199.049 2662.13 194.42 Q2662.13 189.813 2660.14 187.128 Q2658.14 184.42 2654.74 184.42 M2654.74 180.808 Q2660.3 180.808 2663.47 184.42 Q2666.64 188.031 2666.64 194.42 Q2666.64 200.785 2663.47 204.419 Q2660.3 208.031 2654.74 208.031 Q2649.16 208.031 2645.99 204.419 Q2642.84 200.785 2642.84 194.42 Q2642.84 188.031 2645.99 184.42 Q2649.16 180.808 2654.74 180.808 Z" fill="#000000" fill-rule="nonzero" fill-opacity="1" /><path clip-path="url(#clip240)" d="M2677.91 174.072 L2677.91 181.433 L2686.69 181.433 L2686.69 184.744 L2677.91 184.744 L2677.91 198.818 Q2677.91 201.989 2678.77 202.892 Q2679.65 203.794 2682.31 203.794 L2686.69 203.794 L2686.69 207.359 L2682.31 207.359 Q2677.38 207.359 2675.51 205.531 Q2673.63 203.679 2673.63 198.818 L2673.63 184.744 L2670.51 184.744 L2670.51 181.433 L2673.63 181.433 L2673.63 174.072 L2677.91 174.072 Z" fill="#000000" fill-rule="nonzero" fill-opacity="1" /><path clip-path="url(#clip240)" d="M2713.84 191.711 L2713.84 207.359 L2709.58 207.359 L2709.58 191.85 Q2709.58 188.17 2708.14 186.341 Q2706.71 184.512 2703.84 184.512 Q2700.39 184.512 2698.4 186.711 Q2696.41 188.91 2696.41 192.707 L2696.41 207.359 L2692.13 207.359 L2692.13 171.341 L2696.41 171.341 L2696.41 185.461 Q2697.94 183.123 2700 181.966 Q2702.08 180.808 2704.79 180.808 Q2709.26 180.808 2711.55 183.586 Q2713.84 186.341 2713.84 191.711 Z" fill="#000000" fill-rule="nonzero" fill-opacity="1" /><path clip-path="url(#clip240)" d="M2744.51 193.332 L2744.51 195.415 L2724.93 195.415 Q2725.2 199.813 2727.57 202.128 Q2729.95 204.419 2734.19 204.419 Q2736.64 204.419 2738.93 203.818 Q2741.25 203.216 2743.51 202.012 L2743.51 206.04 Q2741.22 207.012 2738.82 207.521 Q2736.41 208.031 2733.93 208.031 Q2727.73 208.031 2724.09 204.419 Q2720.48 200.808 2720.48 194.651 Q2720.48 188.285 2723.91 184.558 Q2727.36 180.808 2733.19 180.808 Q2738.42 180.808 2741.45 184.188 Q2744.51 187.545 2744.51 193.332 M2740.25 192.082 Q2740.2 188.586 2738.28 186.503 Q2736.39 184.42 2733.24 184.42 Q2729.67 184.42 2727.52 186.433 Q2725.39 188.447 2725.07 192.105 L2740.25 192.082 Z" fill="#000000" fill-rule="nonzero" fill-opacity="1" /><path clip-path="url(#clip240)" d="M2768.56 185.369 L2768.56 171.341 L2772.82 171.341 L2772.82 207.359 L2768.56 207.359 L2768.56 203.47 Q2767.22 205.785 2765.16 206.919 Q2763.12 208.031 2760.25 208.031 Q2755.55 208.031 2752.59 204.281 Q2749.65 200.531 2749.65 194.42 Q2749.65 188.308 2752.59 184.558 Q2755.55 180.808 2760.25 180.808 Q2763.12 180.808 2765.16 181.943 Q2767.22 183.054 2768.56 185.369 M2754.05 194.42 Q2754.05 199.119 2755.97 201.804 Q2757.91 204.466 2761.29 204.466 Q2764.67 204.466 2766.62 201.804 Q2768.56 199.119 2768.56 194.42 Q2768.56 189.72 2766.62 187.058 Q2764.67 184.373 2761.29 184.373 Q2757.91 184.373 2755.97 187.058 Q2754.05 189.72 2754.05 194.42 Z" fill="#000000" fill-rule="nonzero" fill-opacity="1" /><path clip-path="url(#clip240)" d="M2780.92 171.387 L2784.63 171.387 Q2788.1 176.85 2789.81 182.082 Q2791.55 187.313 2791.55 192.475 Q2791.55 197.66 2789.81 202.915 Q2788.1 208.169 2784.63 213.609 L2780.92 213.609 Q2784 208.308 2785.51 203.077 Q2787.03 197.822 2787.03 192.475 Q2787.03 187.128 2785.51 181.92 Q2784 176.711 2780.92 171.387 Z" fill="#000000" fill-rule="nonzero" fill-opacity="1" /><path clip-path="url(#clip240)" d="M2819.28 203.47 L2819.28 217.22 L2815 217.22 L2815 181.433 L2819.28 181.433 L2819.28 185.369 Q2820.62 183.054 2822.66 181.943 Q2824.72 180.808 2827.57 180.808 Q2832.29 180.808 2835.23 184.558 Q2838.19 188.308 2838.19 194.42 Q2838.19 200.531 2835.23 204.281 Q2832.29 208.031 2827.57 208.031 Q2824.72 208.031 2822.66 206.919 Q2820.62 205.785 2819.28 203.47 M2833.77 194.42 Q2833.77 189.72 2831.82 187.058 Q2829.9 184.373 2826.52 184.373 Q2823.14 184.373 2821.2 187.058 Q2819.28 189.72 2819.28 194.42 Q2819.28 199.119 2821.2 201.804 Q2823.14 204.466 2826.52 204.466 Q2829.9 204.466 2831.82 201.804 Q2833.77 199.119 2833.77 194.42 Z" fill="#000000" fill-rule="nonzero" fill-opacity="1" /><path clip-path="url(#clip240)" d="M2855.3 184.42 Q2851.87 184.42 2849.88 187.105 Q2847.89 189.767 2847.89 194.42 Q2847.89 199.072 2849.86 201.757 Q2851.85 204.419 2855.3 204.419 Q2858.7 204.419 2860.69 201.734 Q2862.68 199.049 2862.68 194.42 Q2862.68 189.813 2860.69 187.128 Q2858.7 184.42 2855.3 184.42 M2855.3 180.808 Q2860.85 180.808 2864.02 184.42 Q2867.19 188.031 2867.19 194.42 Q2867.19 200.785 2864.02 204.419 Q2860.85 208.031 2855.3 208.031 Q2849.72 208.031 2846.55 204.419 Q2843.4 200.785 2843.4 194.42 Q2843.4 188.031 2846.55 184.42 Q2849.72 180.808 2855.3 180.808 Z" fill="#000000" fill-rule="nonzero" fill-opacity="1" /><path clip-path="url(#clip240)" d="M2890.78 182.197 L2890.78 186.225 Q2888.98 185.299 2887.03 184.836 Q2885.09 184.373 2883 184.373 Q2879.83 184.373 2878.24 185.345 Q2876.66 186.318 2876.66 188.262 Q2876.66 189.744 2877.8 190.6 Q2878.93 191.433 2882.36 192.197 L2883.82 192.521 Q2888.35 193.494 2890.25 195.276 Q2892.17 197.035 2892.17 200.207 Q2892.17 203.818 2889.3 205.924 Q2886.45 208.031 2881.45 208.031 Q2879.37 208.031 2877.1 207.614 Q2874.86 207.22 2872.36 206.41 L2872.36 202.012 Q2874.72 203.239 2877.01 203.864 Q2879.3 204.466 2881.55 204.466 Q2884.56 204.466 2886.18 203.447 Q2887.8 202.406 2887.8 200.531 Q2887.8 198.794 2886.62 197.869 Q2885.46 196.943 2881.5 196.086 L2880.02 195.739 Q2876.06 194.906 2874.3 193.193 Q2872.54 191.457 2872.54 188.447 Q2872.54 184.79 2875.13 182.799 Q2877.73 180.808 2882.5 180.808 Q2884.86 180.808 2886.94 181.156 Q2889.02 181.503 2890.78 182.197 Z" fill="#000000" fill-rule="nonzero" fill-opacity="1" /><path clip-path="url(#clip240)" d="M2903.17 174.072 L2903.17 181.433 L2911.94 181.433 L2911.94 184.744 L2903.17 184.744 L2903.17 198.818 Q2903.17 201.989 2904.02 202.892 Q2904.9 203.794 2907.56 203.794 L2911.94 203.794 L2911.94 207.359 L2907.56 207.359 Q2902.63 207.359 2900.76 205.531 Q2898.88 203.679 2898.88 198.818 L2898.88 184.744 L2895.76 184.744 L2895.76 181.433 L2898.88 181.433 L2898.88 174.072 L2903.17 174.072 Z" fill="#000000" fill-rule="nonzero" fill-opacity="1" /><path clip-path="url(#clip240)" d="M2939.72 193.332 L2939.72 195.415 L2920.13 195.415 Q2920.41 199.813 2922.77 202.128 Q2925.16 204.419 2929.39 204.419 Q2931.85 204.419 2934.14 203.818 Q2936.45 203.216 2938.72 202.012 L2938.72 206.04 Q2936.43 207.012 2934.02 207.521 Q2931.62 208.031 2929.14 208.031 Q2922.94 208.031 2919.3 204.419 Q2915.69 200.808 2915.69 194.651 Q2915.69 188.285 2919.12 184.558 Q2922.56 180.808 2928.4 180.808 Q2933.63 180.808 2936.66 184.188 Q2939.72 187.545 2939.72 193.332 M2935.46 192.082 Q2935.41 188.586 2933.49 186.503 Q2931.59 184.42 2928.44 184.42 Q2924.88 184.42 2922.73 186.433 Q2920.6 188.447 2920.27 192.105 L2935.46 192.082 Z" fill="#000000" fill-rule="nonzero" fill-opacity="1" /><path clip-path="url(#clip240)" d="M2961.73 185.415 Q2961.01 184.998 2960.16 184.813 Q2959.32 184.605 2958.31 184.605 Q2954.69 184.605 2952.75 186.966 Q2950.83 189.304 2950.83 193.702 L2950.83 207.359 L2946.55 207.359 L2946.55 181.433 L2950.83 181.433 L2950.83 185.461 Q2952.17 183.1 2954.32 181.966 Q2956.48 180.808 2959.56 180.808 Q2960 180.808 2960.53 180.878 Q2961.06 180.924 2961.71 181.04 L2961.73 185.415 Z" fill="#000000" fill-rule="nonzero" fill-opacity="1" /><path clip-path="url(#clip240)" d="M2966.2 181.433 L2970.46 181.433 L2970.46 207.359 L2966.2 207.359 L2966.2 181.433 M2966.2 171.341 L2970.46 171.341 L2970.46 176.734 L2966.2 176.734 L2966.2 171.341 Z" fill="#000000" fill-rule="nonzero" fill-opacity="1" /><path clip-path="url(#clip240)" d="M2989.42 184.42 Q2985.99 184.42 2984 187.105 Q2982.01 189.767 2982.01 194.42 Q2982.01 199.072 2983.98 201.757 Q2985.97 204.419 2989.42 204.419 Q2992.82 204.419 2994.81 201.734 Q2996.8 199.049 2996.8 194.42 Q2996.8 189.813 2994.81 187.128 Q2992.82 184.42 2989.42 184.42 M2989.42 180.808 Q2994.97 180.808 2998.14 184.42 Q3001.31 188.031 3001.31 194.42 Q3001.31 200.785 2998.14 204.419 Q2994.97 208.031 2989.42 208.031 Q2983.84 208.031 2980.67 204.419 Q2977.52 200.785 2977.52 194.42 Q2977.52 188.031 2980.67 184.42 Q2983.84 180.808 2989.42 180.808 Z" fill="#000000" fill-rule="nonzero" fill-opacity="1" /><path clip-path="url(#clip240)" d="M3023.4 185.415 Q3022.68 184.998 3021.82 184.813 Q3020.99 184.605 3019.97 184.605 Q3016.36 184.605 3014.42 186.966 Q3012.49 189.304 3012.49 193.702 L3012.49 207.359 L3008.21 207.359 L3008.21 181.433 L3012.49 181.433 L3012.49 185.461 Q3013.84 183.1 3015.99 181.966 Q3018.14 180.808 3021.22 180.808 Q3021.66 180.808 3022.19 180.878 Q3022.73 180.924 3023.37 181.04 L3023.4 185.415 Z" fill="#000000" fill-rule="nonzero" fill-opacity="1" /><polyline clip-path="url(#clip240)" style="stroke:#000000; stroke-linecap:round; stroke-linejoin:round; stroke-width:4; stroke-opacity:1; fill:none" points="2079.25,241.919 2273.28,241.919 "/>
<path clip-path="url(#clip240)" d="M2305.62 224.639 L2334.86 224.639 L2334.86 228.574 L2322.59 228.574 L2322.59 259.199 L2317.89 259.199 L2317.89 228.574 L2305.62 228.574 L2305.62 224.639 Z" fill="#000000" fill-rule="nonzero" fill-opacity="1" /><path clip-path="url(#clip240)" d="M2347.24 237.255 Q2346.53 236.838 2345.67 236.653 Q2344.84 236.445 2343.82 236.445 Q2340.21 236.445 2338.26 238.806 Q2336.34 241.144 2336.34 245.542 L2336.34 259.199 L2332.06 259.199 L2332.06 233.273 L2336.34 233.273 L2336.34 237.301 Q2337.68 234.94 2339.84 233.806 Q2341.99 232.648 2345.07 232.648 Q2345.51 232.648 2346.04 232.718 Q2346.57 232.764 2347.22 232.88 L2347.24 237.255 Z" fill="#000000" fill-rule="nonzero" fill-opacity="1" /><path clip-path="url(#clip240)" d="M2351.27 248.968 L2351.27 233.273 L2355.53 233.273 L2355.53 248.806 Q2355.53 252.486 2356.97 254.338 Q2358.4 256.167 2361.27 256.167 Q2364.72 256.167 2366.71 253.968 Q2368.73 251.769 2368.73 247.972 L2368.73 233.273 L2372.98 233.273 L2372.98 259.199 L2368.73 259.199 L2368.73 255.218 Q2367.17 257.579 2365.11 258.736 Q2363.08 259.871 2360.37 259.871 Q2355.9 259.871 2353.59 257.093 Q2351.27 254.315 2351.27 248.968 M2361.99 232.648 L2361.99 232.648 Z" fill="#000000" fill-rule="nonzero" fill-opacity="1" /><path clip-path="url(#clip240)" d="M2403.93 245.172 L2403.93 247.255 L2384.35 247.255 Q2384.63 251.653 2386.99 253.968 Q2389.37 256.259 2393.61 256.259 Q2396.06 256.259 2398.35 255.658 Q2400.67 255.056 2402.94 253.852 L2402.94 257.88 Q2400.65 258.852 2398.24 259.361 Q2395.83 259.871 2393.35 259.871 Q2387.15 259.871 2383.52 256.259 Q2379.91 252.648 2379.91 246.491 Q2379.91 240.125 2383.33 236.398 Q2386.78 232.648 2392.61 232.648 Q2397.85 232.648 2400.88 236.028 Q2403.93 239.385 2403.93 245.172 M2399.67 243.922 Q2399.63 240.426 2397.71 238.343 Q2395.81 236.26 2392.66 236.26 Q2389.1 236.26 2386.94 238.273 Q2384.81 240.287 2384.49 243.945 L2399.67 243.922 Z" fill="#000000" fill-rule="nonzero" fill-opacity="1" /><path clip-path="url(#clip240)" d="M2442.57 242.996 Q2444.07 243.505 2445.48 245.172 Q2446.92 246.838 2448.35 249.755 L2453.1 259.199 L2448.08 259.199 L2443.66 250.334 Q2441.94 246.861 2440.32 245.727 Q2438.72 244.593 2435.95 244.593 L2430.85 244.593 L2430.85 259.199 L2426.18 259.199 L2426.18 224.639 L2436.73 224.639 Q2442.66 224.639 2445.58 227.116 Q2448.49 229.593 2448.49 234.593 Q2448.49 237.857 2446.97 240.01 Q2445.46 242.162 2442.57 242.996 M2430.85 228.482 L2430.85 240.75 L2436.73 240.75 Q2440.11 240.75 2441.83 239.199 Q2443.56 237.625 2443.56 234.593 Q2443.56 231.561 2441.83 230.033 Q2440.11 228.482 2436.73 228.482 L2430.85 228.482 Z" fill="#000000" fill-rule="nonzero" fill-opacity="1" /><path clip-path="url(#clip240)" d="M2463.15 225.912 L2463.15 233.273 L2471.92 233.273 L2471.92 236.584 L2463.15 236.584 L2463.15 250.658 Q2463.15 253.829 2464 254.732 Q2464.88 255.634 2467.54 255.634 L2471.92 255.634 L2471.92 259.199 L2467.54 259.199 Q2462.61 259.199 2460.74 257.371 Q2458.86 255.519 2458.86 250.658 L2458.86 236.584 L2455.74 236.584 L2455.74 233.273 L2458.86 233.273 L2458.86 225.912 L2463.15 225.912 Z" fill="#000000" fill-rule="nonzero" fill-opacity="1" /></svg>
