<?xml version="1.0" encoding="utf-8"?>
<svg xmlns="http://www.w3.org/2000/svg" xmlns:xlink="http://www.w3.org/1999/xlink" width="800" height="300" viewBox="0 0 3200 1200">
<defs>
  <clipPath id="clip070">
    <rect x="0" y="0" width="3200" height="1200"/>
  </clipPath>
</defs>
<path clip-path="url(#clip070)" d="M0 1200 L3200 1200 L3200 0 L0 0  Z" fill="#ffffff" fill-rule="evenodd" fill-opacity="1"/>
<defs>
  <clipPath id="clip071">
    <rect x="640" y="0" width="2241" height="1200"/>
  </clipPath>
</defs>
<path clip-path="url(#clip070)" d="M252.832 1031.59 L3121.26 1031.59 L3121.26 78.7402 L252.832 78.7402  Z" fill="#ffffff" fill-rule="evenodd" fill-opacity="1"/>
<defs>
  <clipPath id="clip072">
    <rect x="252" y="78" width="2869" height="954"/>
  </clipPath>
</defs>
<polyline clip-path="url(#clip072)" style="stroke:#000000; stroke-linecap:round; stroke-linejoin:round; stroke-width:2; stroke-opacity:0.1; fill:none" points="395.252,1031.59 395.252,78.7402 "/>
<polyline clip-path="url(#clip072)" style="stroke:#000000; stroke-linecap:round; stroke-linejoin:round; stroke-width:2; stroke-opacity:0.1; fill:none" points="1034.75,1031.59 1034.75,78.7402 "/>
<polyline clip-path="url(#clip072)" style="stroke:#000000; stroke-linecap:round; stroke-linejoin:round; stroke-width:2; stroke-opacity:0.1; fill:none" points="1674.26,1031.59 1674.26,78.7402 "/>
<polyline clip-path="url(#clip072)" style="stroke:#000000; stroke-linecap:round; stroke-linejoin:round; stroke-width:2; stroke-opacity:0.1; fill:none" points="2313.76,1031.59 2313.76,78.7402 "/>
<polyline clip-path="url(#clip072)" style="stroke:#000000; stroke-linecap:round; stroke-linejoin:round; stroke-width:2; stroke-opacity:0.1; fill:none" points="2953.26,1031.59 2953.26,78.7402 "/>
<polyline clip-path="url(#clip070)" style="stroke:#000000; stroke-linecap:round; stroke-linejoin:round; stroke-width:4; stroke-opacity:1; fill:none" points="252.832,1031.59 3121.26,1031.59 "/>
<polyline clip-path="url(#clip070)" style="stroke:#000000; stroke-linecap:round; stroke-linejoin:round; stroke-width:4; stroke-opacity:1; fill:none" points="395.252,1031.59 395.252,1012.7 "/>
<polyline clip-path="url(#clip070)" style="stroke:#000000; stroke-linecap:round; stroke-linejoin:round; stroke-width:4; stroke-opacity:1; fill:none" points="1034.75,1031.59 1034.75,1012.7 "/>
<polyline clip-path="url(#clip070)" style="stroke:#000000; stroke-linecap:round; stroke-linejoin:round; stroke-width:4; stroke-opacity:1; fill:none" points="1674.26,1031.59 1674.26,1012.7 "/>
<polyline clip-path="url(#clip070)" style="stroke:#000000; stroke-linecap:round; stroke-linejoin:round; stroke-width:4; stroke-opacity:1; fill:none" points="2313.76,1031.59 2313.76,1012.7 "/>
<polyline clip-path="url(#clip070)" style="stroke:#000000; stroke-linecap:round; stroke-linejoin:round; stroke-width:4; stroke-opacity:1; fill:none" points="2953.26,1031.59 2953.26,1012.7 "/>
<path clip-path="url(#clip070)" d="M395.252 1068.91 Q391.641 1068.91 389.812 1072.48 Q388.007 1076.02 388.007 1083.15 Q388.007 1090.25 389.812 1093.82 Q391.641 1097.36 395.252 1097.36 Q398.886 1097.36 400.692 1093.82 Q402.521 1090.25 402.521 1083.15 Q402.521 1076.02 400.692 1072.48 Q398.886 1068.91 395.252 1068.91 M395.252 1065.21 Q401.062 1065.21 404.118 1069.82 Q407.197 1074.4 407.197 1083.15 Q407.197 1091.88 404.118 1096.48 Q401.062 1101.07 395.252 1101.07 Q389.442 1101.07 386.363 1096.48 Q383.308 1091.88 383.308 1083.15 Q383.308 1074.4 386.363 1069.82 Q389.442 1065.21 395.252 1065.21 Z" fill="#000000" fill-rule="nonzero" fill-opacity="1" /><path clip-path="url(#clip070)" d="M1014.02 1096.46 L1030.34 1096.46 L1030.34 1100.39 L1008.4 1100.39 L1008.4 1096.46 Q1011.06 1093.7 1015.65 1089.07 Q1020.25 1084.42 1021.43 1083.08 Q1023.68 1080.56 1024.56 1078.82 Q1025.46 1077.06 1025.46 1075.37 Q1025.46 1072.62 1023.52 1070.88 Q1021.59 1069.14 1018.49 1069.14 Q1016.29 1069.14 1013.84 1069.91 Q1011.41 1070.67 1008.63 1072.22 L1008.63 1067.5 Q1011.46 1066.37 1013.91 1065.79 Q1016.36 1065.21 1018.4 1065.21 Q1023.77 1065.21 1026.96 1067.89 Q1030.16 1070.58 1030.16 1075.07 Q1030.16 1077.2 1029.35 1079.12 Q1028.56 1081.02 1026.46 1083.61 Q1025.88 1084.28 1022.77 1087.5 Q1019.67 1090.69 1014.02 1096.46 Z" fill="#000000" fill-rule="nonzero" fill-opacity="1" /><path clip-path="url(#clip070)" d="M1040.21 1065.83 L1058.56 1065.83 L1058.56 1069.77 L1044.49 1069.77 L1044.49 1078.24 Q1045.51 1077.89 1046.52 1077.73 Q1047.54 1077.55 1048.56 1077.55 Q1054.35 1077.55 1057.73 1080.72 Q1061.11 1083.89 1061.11 1089.31 Q1061.11 1094.88 1057.64 1097.99 Q1054.16 1101.07 1047.84 1101.07 Q1045.67 1101.07 1043.4 1100.69 Q1041.15 1100.32 1038.75 1099.58 L1038.75 1094.88 Q1040.83 1096.02 1043.05 1096.57 Q1045.27 1097.13 1047.75 1097.13 Q1051.76 1097.13 1054.09 1095.02 Q1056.43 1092.92 1056.43 1089.31 Q1056.43 1085.69 1054.09 1083.59 Q1051.76 1081.48 1047.75 1081.48 Q1045.88 1081.48 1044 1081.9 Q1042.15 1082.32 1040.21 1083.19 L1040.21 1065.83 Z" fill="#000000" fill-rule="nonzero" fill-opacity="1" /><path clip-path="url(#clip070)" d="M1648.95 1065.83 L1667.31 1065.83 L1667.31 1069.77 L1653.24 1069.77 L1653.24 1078.24 Q1654.26 1077.89 1655.27 1077.73 Q1656.29 1077.55 1657.31 1077.55 Q1663.1 1077.55 1666.48 1080.72 Q1669.86 1083.89 1669.86 1089.31 Q1669.86 1094.88 1666.39 1097.99 Q1662.91 1101.07 1656.59 1101.07 Q1654.42 1101.07 1652.15 1100.69 Q1649.9 1100.32 1647.5 1099.58 L1647.5 1094.88 Q1649.58 1096.02 1651.8 1096.57 Q1654.02 1097.13 1656.5 1097.13 Q1660.51 1097.13 1662.84 1095.02 Q1665.18 1092.92 1665.18 1089.31 Q1665.18 1085.69 1662.84 1083.59 Q1660.51 1081.48 1656.5 1081.48 Q1654.63 1081.48 1652.75 1081.9 Q1650.9 1082.32 1648.95 1083.19 L1648.95 1065.83 Z" fill="#000000" fill-rule="nonzero" fill-opacity="1" /><path clip-path="url(#clip070)" d="M1689.07 1068.91 Q1685.46 1068.91 1683.63 1072.48 Q1681.83 1076.02 1681.83 1083.15 Q1681.83 1090.25 1683.63 1093.82 Q1685.46 1097.36 1689.07 1097.36 Q1692.7 1097.36 1694.51 1093.82 Q1696.34 1090.25 1696.34 1083.15 Q1696.34 1076.02 1694.51 1072.48 Q1692.7 1068.91 1689.07 1068.91 M1689.07 1065.21 Q1694.88 1065.21 1697.94 1069.82 Q1701.01 1074.4 1701.01 1083.15 Q1701.01 1091.88 1697.94 1096.48 Q1694.88 1101.07 1689.07 1101.07 Q1683.26 1101.07 1680.18 1096.48 Q1677.13 1091.88 1677.13 1083.15 Q1677.13 1074.4 1680.18 1069.82 Q1683.26 1065.21 1689.07 1065.21 Z" fill="#000000" fill-rule="nonzero" fill-opacity="1" /><path clip-path="url(#clip070)" d="M2287.61 1065.83 L2309.83 1065.83 L2309.83 1067.82 L2297.29 1100.39 L2292.4 1100.39 L2304.21 1069.77 L2287.61 1069.77 L2287.61 1065.83 Z" fill="#000000" fill-rule="nonzero" fill-opacity="1" /><path clip-path="url(#clip070)" d="M2319 1065.83 L2337.36 1065.83 L2337.36 1069.77 L2323.28 1069.77 L2323.28 1078.24 Q2324.3 1077.89 2325.32 1077.73 Q2326.34 1077.55 2327.36 1077.55 Q2333.14 1077.55 2336.52 1080.72 Q2339.9 1083.89 2339.9 1089.31 Q2339.9 1094.88 2336.43 1097.99 Q2332.96 1101.07 2326.64 1101.07 Q2324.46 1101.07 2322.19 1100.69 Q2319.95 1100.32 2317.54 1099.58 L2317.54 1094.88 Q2319.63 1096.02 2321.85 1096.57 Q2324.07 1097.13 2326.55 1097.13 Q2330.55 1097.13 2332.89 1095.02 Q2335.23 1092.92 2335.23 1089.31 Q2335.23 1085.69 2332.89 1083.59 Q2330.55 1081.48 2326.55 1081.48 Q2324.67 1081.48 2322.8 1081.9 Q2320.94 1082.32 2319 1083.19 L2319 1065.83 Z" fill="#000000" fill-rule="nonzero" fill-opacity="1" /><path clip-path="url(#clip070)" d="M2912.87 1096.46 L2920.5 1096.46 L2920.5 1070.09 L2912.19 1071.76 L2912.19 1067.5 L2920.46 1065.83 L2925.13 1065.83 L2925.13 1096.46 L2932.77 1096.46 L2932.77 1100.39 L2912.87 1100.39 L2912.87 1096.46 Z" fill="#000000" fill-rule="nonzero" fill-opacity="1" /><path clip-path="url(#clip070)" d="M2952.22 1068.91 Q2948.61 1068.91 2946.78 1072.48 Q2944.97 1076.02 2944.97 1083.15 Q2944.97 1090.25 2946.78 1093.82 Q2948.61 1097.36 2952.22 1097.36 Q2955.85 1097.36 2957.66 1093.82 Q2959.49 1090.25 2959.49 1083.15 Q2959.49 1076.02 2957.66 1072.48 Q2955.85 1068.91 2952.22 1068.91 M2952.22 1065.21 Q2958.03 1065.21 2961.08 1069.82 Q2964.16 1074.4 2964.16 1083.15 Q2964.16 1091.88 2961.08 1096.48 Q2958.03 1101.07 2952.22 1101.07 Q2946.41 1101.07 2943.33 1096.48 Q2940.27 1091.88 2940.27 1083.15 Q2940.27 1074.4 2943.33 1069.82 Q2946.41 1065.21 2952.22 1065.21 Z" fill="#000000" fill-rule="nonzero" fill-opacity="1" /><path clip-path="url(#clip070)" d="M2982.38 1068.91 Q2978.77 1068.91 2976.94 1072.48 Q2975.13 1076.02 2975.13 1083.15 Q2975.13 1090.25 2976.94 1093.82 Q2978.77 1097.36 2982.38 1097.36 Q2986.01 1097.36 2987.82 1093.82 Q2989.65 1090.25 2989.65 1083.15 Q2989.65 1076.02 2987.82 1072.48 Q2986.01 1068.91 2982.38 1068.91 M2982.38 1065.21 Q2988.19 1065.21 2991.25 1069.82 Q2994.32 1074.4 2994.32 1083.15 Q2994.32 1091.88 2991.25 1096.48 Q2988.19 1101.07 2982.38 1101.07 Q2976.57 1101.07 2973.49 1096.48 Q2970.43 1091.88 2970.43 1083.15 Q2970.43 1074.4 2973.49 1069.82 Q2976.57 1065.21 2982.38 1065.21 Z" fill="#000000" fill-rule="nonzero" fill-opacity="1" /><path clip-path="url(#clip070)" d="M1497.27 1140.94 L1537.47 1140.94 L1537.47 1146.35 L1520.6 1146.35 L1520.6 1188.46 L1514.14 1188.46 L1514.14 1146.35 L1497.27 1146.35 L1497.27 1140.94 Z" fill="#000000" fill-rule="nonzero" fill-opacity="1" /><path clip-path="url(#clip070)" d="M1541.41 1152.81 L1547.27 1152.81 L1547.27 1188.46 L1541.41 1188.46 L1541.41 1152.81 M1541.41 1138.93 L1547.27 1138.93 L1547.27 1146.35 L1541.41 1146.35 L1541.41 1138.93 Z" fill="#000000" fill-rule="nonzero" fill-opacity="1" /><path clip-path="url(#clip070)" d="M1587.28 1159.65 Q1589.48 1155.71 1592.53 1153.83 Q1595.59 1151.95 1599.72 1151.95 Q1605.29 1151.95 1608.32 1155.87 Q1611.34 1159.75 1611.34 1166.94 L1611.34 1188.46 L1605.45 1188.46 L1605.45 1167.13 Q1605.45 1162.01 1603.64 1159.53 Q1601.82 1157.04 1598.1 1157.04 Q1593.55 1157.04 1590.91 1160.07 Q1588.27 1163.09 1588.27 1168.31 L1588.27 1188.46 L1582.38 1188.46 L1582.38 1167.13 Q1582.38 1161.98 1580.56 1159.53 Q1578.75 1157.04 1574.96 1157.04 Q1570.47 1157.04 1567.83 1160.1 Q1565.19 1163.12 1565.19 1168.31 L1565.19 1188.46 L1559.3 1188.46 L1559.3 1152.81 L1565.19 1152.81 L1565.19 1158.35 Q1567.2 1155.07 1570 1153.51 Q1572.8 1151.95 1576.65 1151.95 Q1580.53 1151.95 1583.24 1153.92 Q1585.97 1155.9 1587.28 1159.65 Z" fill="#000000" fill-rule="nonzero" fill-opacity="1" /><path clip-path="url(#clip070)" d="M1653.51 1169.17 L1653.51 1172.03 L1626.59 1172.03 Q1626.97 1178.08 1630.22 1181.26 Q1633.49 1184.42 1639.32 1184.42 Q1642.69 1184.42 1645.84 1183.59 Q1649.03 1182.76 1652.15 1181.11 L1652.15 1186.64 Q1648.99 1187.98 1645.68 1188.68 Q1642.37 1189.38 1638.97 1189.38 Q1630.44 1189.38 1625.44 1184.42 Q1620.48 1179.45 1620.48 1170.98 Q1620.48 1162.23 1625.19 1157.11 Q1629.93 1151.95 1637.95 1151.95 Q1645.14 1151.95 1649.31 1156.6 Q1653.51 1161.21 1653.51 1169.17 M1647.66 1167.45 Q1647.59 1162.64 1644.95 1159.78 Q1642.34 1156.92 1638.01 1156.92 Q1633.11 1156.92 1630.15 1159.68 Q1627.22 1162.45 1626.78 1167.48 L1647.66 1167.45 Z" fill="#000000" fill-rule="nonzero" fill-opacity="1" /><path clip-path="url(#clip070)" d="M1697.92 1139 Q1693.65 1146.32 1691.58 1153.48 Q1689.51 1160.64 1689.51 1167.99 Q1689.51 1175.34 1691.58 1182.57 Q1693.68 1189.76 1697.92 1197.05 L1692.82 1197.05 Q1688.05 1189.57 1685.66 1182.35 Q1683.31 1175.12 1683.31 1167.99 Q1683.31 1160.89 1685.66 1153.7 Q1688.02 1146.51 1692.82 1139 L1697.92 1139 Z" fill="#000000" fill-rule="nonzero" fill-opacity="1" /><path clip-path="url(#clip070)" d="M1732.74 1158.22 L1732.74 1138.93 L1738.59 1138.93 L1738.59 1188.46 L1732.74 1188.46 L1732.74 1183.11 Q1730.89 1186.29 1728.06 1187.85 Q1725.26 1189.38 1721.31 1189.38 Q1714.85 1189.38 1710.77 1184.22 Q1706.73 1179.07 1706.73 1170.67 Q1706.73 1162.26 1710.77 1157.11 Q1714.85 1151.95 1721.31 1151.95 Q1725.26 1151.95 1728.06 1153.51 Q1730.89 1155.04 1732.74 1158.22 M1712.78 1170.67 Q1712.78 1177.13 1715.42 1180.82 Q1718.09 1184.48 1722.74 1184.48 Q1727.39 1184.48 1730.06 1180.82 Q1732.74 1177.13 1732.74 1170.67 Q1732.74 1164.2 1730.06 1160.54 Q1727.39 1156.85 1722.74 1156.85 Q1718.09 1156.85 1715.42 1160.54 Q1712.78 1164.2 1712.78 1170.67 Z" fill="#000000" fill-rule="nonzero" fill-opacity="1" /><path clip-path="url(#clip070)" d="M1766.86 1170.54 Q1759.76 1170.54 1757.02 1172.16 Q1754.28 1173.78 1754.28 1177.7 Q1754.28 1180.82 1756.32 1182.66 Q1758.39 1184.48 1761.92 1184.48 Q1766.79 1184.48 1769.72 1181.04 Q1772.68 1177.57 1772.68 1171.84 L1772.68 1170.54 L1766.86 1170.54 M1778.54 1168.12 L1778.54 1188.46 L1772.68 1188.46 L1772.68 1183.05 Q1770.68 1186.29 1767.68 1187.85 Q1764.69 1189.38 1760.36 1189.38 Q1754.89 1189.38 1751.64 1186.33 Q1748.43 1183.24 1748.43 1178.08 Q1748.43 1172.07 1752.44 1169.01 Q1756.48 1165.96 1764.47 1165.96 L1772.68 1165.96 L1772.68 1165.38 Q1772.68 1161.34 1770.01 1159.14 Q1767.36 1156.92 1762.56 1156.92 Q1759.5 1156.92 1756.61 1157.65 Q1753.71 1158.38 1751.04 1159.84 L1751.04 1154.43 Q1754.25 1153.19 1757.28 1152.59 Q1760.3 1151.95 1763.16 1151.95 Q1770.9 1151.95 1774.72 1155.96 Q1778.54 1159.97 1778.54 1168.12 Z" fill="#000000" fill-rule="nonzero" fill-opacity="1" /><path clip-path="url(#clip070)" d="M1805.43 1191.77 Q1802.95 1198.13 1800.59 1200.08 Q1798.24 1202.02 1794.29 1202.02 L1789.61 1202.02 L1789.61 1197.12 L1793.05 1197.12 Q1795.47 1197.12 1796.81 1195.97 Q1798.14 1194.82 1799.77 1190.56 L1800.82 1187.88 L1786.4 1152.81 L1792.61 1152.81 L1803.74 1180.69 L1814.88 1152.81 L1821.09 1152.81 L1805.43 1191.77 Z" fill="#000000" fill-rule="nonzero" fill-opacity="1" /><path clip-path="url(#clip070)" d="M1851.9 1153.86 L1851.9 1159.4 Q1849.42 1158.13 1846.75 1157.49 Q1844.07 1156.85 1841.21 1156.85 Q1836.85 1156.85 1834.65 1158.19 Q1832.49 1159.53 1832.49 1162.2 Q1832.49 1164.24 1834.05 1165.41 Q1835.61 1166.56 1840.32 1167.61 L1842.32 1168.06 Q1848.56 1169.39 1851.17 1171.84 Q1853.81 1174.26 1853.81 1178.62 Q1853.81 1183.59 1849.86 1186.48 Q1845.95 1189.38 1839.07 1189.38 Q1836.21 1189.38 1833.09 1188.81 Q1830 1188.27 1826.57 1187.15 L1826.57 1181.11 Q1829.81 1182.79 1832.96 1183.65 Q1836.11 1184.48 1839.2 1184.48 Q1843.34 1184.48 1845.57 1183.08 Q1847.8 1181.65 1847.8 1179.07 Q1847.8 1176.68 1846.17 1175.41 Q1844.58 1174.13 1839.14 1172.96 L1837.1 1172.48 Q1831.66 1171.33 1829.24 1168.98 Q1826.82 1166.59 1826.82 1162.45 Q1826.82 1157.42 1830.39 1154.69 Q1833.95 1151.95 1840.51 1151.95 Q1843.75 1151.95 1846.62 1152.43 Q1849.48 1152.91 1851.9 1153.86 Z" fill="#000000" fill-rule="nonzero" fill-opacity="1" /><path clip-path="url(#clip070)" d="M1862.21 1139 L1867.31 1139 Q1872.08 1146.51 1874.44 1153.7 Q1876.82 1160.89 1876.82 1167.99 Q1876.82 1175.12 1874.44 1182.35 Q1872.08 1189.57 1867.31 1197.05 L1862.21 1197.05 Q1866.45 1189.76 1868.52 1182.57 Q1870.62 1175.34 1870.62 1167.99 Q1870.62 1160.64 1868.52 1153.48 Q1866.45 1146.32 1862.21 1139 Z" fill="#000000" fill-rule="nonzero" fill-opacity="1" /><polyline clip-path="url(#clip072)" style="stroke:#000000; stroke-linecap:round; stroke-linejoin:round; stroke-width:2; stroke-opacity:0.1; fill:none" points="252.832,1031.59 3121.26,1031.59 "/>
<polyline clip-path="url(#clip072)" style="stroke:#000000; stroke-linecap:round; stroke-linejoin:round; stroke-width:2; stroke-opacity:0.1; fill:none" points="252.832,820.785 3121.26,820.785 "/>
<polyline clip-path="url(#clip072)" style="stroke:#000000; stroke-linecap:round; stroke-linejoin:round; stroke-width:2; stroke-opacity:0.1; fill:none" points="252.832,609.977 3121.26,609.977 "/>
<polyline clip-path="url(#clip072)" style="stroke:#000000; stroke-linecap:round; stroke-linejoin:round; stroke-width:2; stroke-opacity:0.1; fill:none" points="252.832,399.169 3121.26,399.169 "/>
<polyline clip-path="url(#clip072)" style="stroke:#000000; stroke-linecap:round; stroke-linejoin:round; stroke-width:2; stroke-opacity:0.1; fill:none" points="252.832,188.36 3121.26,188.36 "/>
<polyline clip-path="url(#clip070)" style="stroke:#000000; stroke-linecap:round; stroke-linejoin:round; stroke-width:4; stroke-opacity:1; fill:none" points="252.832,1031.59 252.832,78.7402 "/>
<polyline clip-path="url(#clip070)" style="stroke:#000000; stroke-linecap:round; stroke-linejoin:round; stroke-width:4; stroke-opacity:1; fill:none" points="252.832,1031.59 271.729,1031.59 "/>
<polyline clip-path="url(#clip070)" style="stroke:#000000; stroke-linecap:round; stroke-linejoin:round; stroke-width:4; stroke-opacity:1; fill:none" points="252.832,820.785 271.729,820.785 "/>
<polyline clip-path="url(#clip070)" style="stroke:#000000; stroke-linecap:round; stroke-linejoin:round; stroke-width:4; stroke-opacity:1; fill:none" points="252.832,609.977 271.729,609.977 "/>
<polyline clip-path="url(#clip070)" style="stroke:#000000; stroke-linecap:round; stroke-linejoin:round; stroke-width:4; stroke-opacity:1; fill:none" points="252.832,399.169 271.729,399.169 "/>
<polyline clip-path="url(#clip070)" style="stroke:#000000; stroke-linecap:round; stroke-linejoin:round; stroke-width:4; stroke-opacity:1; fill:none" points="252.832,188.36 271.729,188.36 "/>
<path clip-path="url(#clip070)" d="M192.887 1017.39 Q189.276 1017.39 187.447 1020.96 Q185.642 1024.5 185.642 1031.63 Q185.642 1038.73 187.447 1042.3 Q189.276 1045.84 192.887 1045.84 Q196.521 1045.84 198.327 1042.3 Q200.156 1038.73 200.156 1031.63 Q200.156 1024.5 198.327 1020.96 Q196.521 1017.39 192.887 1017.39 M192.887 1013.69 Q198.697 1013.69 201.753 1018.3 Q204.832 1022.88 204.832 1031.63 Q204.832 1040.36 201.753 1044.96 Q198.697 1049.55 192.887 1049.55 Q187.077 1049.55 183.998 1044.96 Q180.943 1040.36 180.943 1031.63 Q180.943 1022.88 183.998 1018.3 Q187.077 1013.69 192.887 1013.69 Z" fill="#000000" fill-rule="nonzero" fill-opacity="1" /><path clip-path="url(#clip070)" d="M152.772 803.505 L171.128 803.505 L171.128 807.441 L157.054 807.441 L157.054 815.913 Q158.073 815.566 159.091 815.404 Q160.11 815.218 161.128 815.218 Q166.915 815.218 170.295 818.39 Q173.674 821.561 173.674 826.978 Q173.674 832.556 170.202 835.658 Q166.73 838.737 160.41 838.737 Q158.235 838.737 155.966 838.366 Q153.721 837.996 151.313 837.255 L151.313 832.556 Q153.397 833.69 155.619 834.246 Q157.841 834.802 160.318 834.802 Q164.322 834.802 166.66 832.695 Q168.998 830.589 168.998 826.978 Q168.998 823.366 166.66 821.26 Q164.322 819.154 160.318 819.154 Q158.443 819.154 156.568 819.57 Q154.716 819.987 152.772 820.866 L152.772 803.505 Z" fill="#000000" fill-rule="nonzero" fill-opacity="1" /><path clip-path="url(#clip070)" d="M192.887 806.584 Q189.276 806.584 187.447 810.149 Q185.642 813.691 185.642 820.82 Q185.642 827.927 187.447 831.491 Q189.276 835.033 192.887 835.033 Q196.521 835.033 198.327 831.491 Q200.156 827.927 200.156 820.82 Q200.156 813.691 198.327 810.149 Q196.521 806.584 192.887 806.584 M192.887 802.88 Q198.697 802.88 201.753 807.487 Q204.832 812.07 204.832 820.82 Q204.832 829.547 201.753 834.153 Q198.697 838.737 192.887 838.737 Q187.077 838.737 183.998 834.153 Q180.943 829.547 180.943 820.82 Q180.943 812.07 183.998 807.487 Q187.077 802.88 192.887 802.88 Z" fill="#000000" fill-rule="nonzero" fill-opacity="1" /><path clip-path="url(#clip070)" d="M123.374 623.322 L131.012 623.322 L131.012 596.956 L122.702 598.623 L122.702 594.364 L130.966 592.697 L135.642 592.697 L135.642 623.322 L143.281 623.322 L143.281 627.257 L123.374 627.257 L123.374 623.322 Z" fill="#000000" fill-rule="nonzero" fill-opacity="1" /><path clip-path="url(#clip070)" d="M162.725 595.776 Q159.114 595.776 157.285 599.341 Q155.48 602.882 155.48 610.012 Q155.48 617.118 157.285 620.683 Q159.114 624.225 162.725 624.225 Q166.359 624.225 168.165 620.683 Q169.994 617.118 169.994 610.012 Q169.994 602.882 168.165 599.341 Q166.359 595.776 162.725 595.776 M162.725 592.072 Q168.535 592.072 171.591 596.679 Q174.67 601.262 174.67 610.012 Q174.67 618.739 171.591 623.345 Q168.535 627.928 162.725 627.928 Q156.915 627.928 153.836 623.345 Q150.781 618.739 150.781 610.012 Q150.781 601.262 153.836 596.679 Q156.915 592.072 162.725 592.072 Z" fill="#000000" fill-rule="nonzero" fill-opacity="1" /><path clip-path="url(#clip070)" d="M192.887 595.776 Q189.276 595.776 187.447 599.341 Q185.642 602.882 185.642 610.012 Q185.642 617.118 187.447 620.683 Q189.276 624.225 192.887 624.225 Q196.521 624.225 198.327 620.683 Q200.156 617.118 200.156 610.012 Q200.156 602.882 198.327 599.341 Q196.521 595.776 192.887 595.776 M192.887 592.072 Q198.697 592.072 201.753 596.679 Q204.832 601.262 204.832 610.012 Q204.832 618.739 201.753 623.345 Q198.697 627.928 192.887 627.928 Q187.077 627.928 183.998 623.345 Q180.943 618.739 180.943 610.012 Q180.943 601.262 183.998 596.679 Q187.077 592.072 192.887 592.072 Z" fill="#000000" fill-rule="nonzero" fill-opacity="1" /><path clip-path="url(#clip070)" d="M123.374 412.514 L131.012 412.514 L131.012 386.148 L122.702 387.815 L122.702 383.555 L130.966 381.889 L135.642 381.889 L135.642 412.514 L143.281 412.514 L143.281 416.449 L123.374 416.449 L123.374 412.514 Z" fill="#000000" fill-rule="nonzero" fill-opacity="1" /><path clip-path="url(#clip070)" d="M152.772 381.889 L171.128 381.889 L171.128 385.824 L157.054 385.824 L157.054 394.296 Q158.073 393.949 159.091 393.787 Q160.11 393.602 161.128 393.602 Q166.915 393.602 170.295 396.773 Q173.674 399.944 173.674 405.361 Q173.674 410.94 170.202 414.041 Q166.73 417.12 160.41 417.12 Q158.235 417.12 155.966 416.75 Q153.721 416.379 151.313 415.639 L151.313 410.94 Q153.397 412.074 155.619 412.629 Q157.841 413.185 160.318 413.185 Q164.322 413.185 166.66 411.078 Q168.998 408.972 168.998 405.361 Q168.998 401.75 166.66 399.643 Q164.322 397.537 160.318 397.537 Q158.443 397.537 156.568 397.954 Q154.716 398.37 152.772 399.25 L152.772 381.889 Z" fill="#000000" fill-rule="nonzero" fill-opacity="1" /><path clip-path="url(#clip070)" d="M192.887 384.967 Q189.276 384.967 187.447 388.532 Q185.642 392.074 185.642 399.204 Q185.642 406.31 187.447 409.875 Q189.276 413.416 192.887 413.416 Q196.521 413.416 198.327 409.875 Q200.156 406.31 200.156 399.204 Q200.156 392.074 198.327 388.532 Q196.521 384.967 192.887 384.967 M192.887 381.264 Q198.697 381.264 201.753 385.87 Q204.832 390.454 204.832 399.204 Q204.832 407.93 201.753 412.537 Q198.697 417.12 192.887 417.12 Q187.077 417.12 183.998 412.537 Q180.943 407.93 180.943 399.204 Q180.943 390.454 183.998 385.87 Q187.077 381.264 192.887 381.264 Z" fill="#000000" fill-rule="nonzero" fill-opacity="1" /><path clip-path="url(#clip070)" d="M126.591 201.705 L142.911 201.705 L142.911 205.64 L120.966 205.64 L120.966 201.705 Q123.628 198.951 128.212 194.321 Q132.818 189.668 133.999 188.326 Q136.244 185.803 137.124 184.067 Q138.026 182.307 138.026 180.617 Q138.026 177.863 136.082 176.127 Q134.161 174.391 131.059 174.391 Q128.86 174.391 126.406 175.155 Q123.975 175.918 121.198 177.469 L121.198 172.747 Q124.022 171.613 126.475 171.034 Q128.929 170.455 130.966 170.455 Q136.337 170.455 139.531 173.141 Q142.725 175.826 142.725 180.317 Q142.725 182.446 141.915 184.367 Q141.128 186.266 139.022 188.858 Q138.443 189.529 135.341 192.747 Q132.239 195.941 126.591 201.705 Z" fill="#000000" fill-rule="nonzero" fill-opacity="1" /><path clip-path="url(#clip070)" d="M162.725 174.159 Q159.114 174.159 157.285 177.724 Q155.48 181.266 155.48 188.395 Q155.48 195.502 157.285 199.066 Q159.114 202.608 162.725 202.608 Q166.359 202.608 168.165 199.066 Q169.994 195.502 169.994 188.395 Q169.994 181.266 168.165 177.724 Q166.359 174.159 162.725 174.159 M162.725 170.455 Q168.535 170.455 171.591 175.062 Q174.67 179.645 174.67 188.395 Q174.67 197.122 171.591 201.728 Q168.535 206.312 162.725 206.312 Q156.915 206.312 153.836 201.728 Q150.781 197.122 150.781 188.395 Q150.781 179.645 153.836 175.062 Q156.915 170.455 162.725 170.455 Z" fill="#000000" fill-rule="nonzero" fill-opacity="1" /><path clip-path="url(#clip070)" d="M192.887 174.159 Q189.276 174.159 187.447 177.724 Q185.642 181.266 185.642 188.395 Q185.642 195.502 187.447 199.066 Q189.276 202.608 192.887 202.608 Q196.521 202.608 198.327 199.066 Q200.156 195.502 200.156 188.395 Q200.156 181.266 198.327 177.724 Q196.521 174.159 192.887 174.159 M192.887 170.455 Q198.697 170.455 201.753 175.062 Q204.832 179.645 204.832 188.395 Q204.832 197.122 201.753 201.728 Q198.697 206.312 192.887 206.312 Q187.077 206.312 183.998 201.728 Q180.943 197.122 180.943 188.395 Q180.943 179.645 183.998 175.062 Q187.077 170.455 192.887 170.455 Z" fill="#000000" fill-rule="nonzero" fill-opacity="1" /><path clip-path="url(#clip070)" d="M12.7498 787.802 L19.02 787.802 Q17.2695 791.462 16.4101 794.709 Q15.5507 797.955 15.5507 800.979 Q15.5507 806.23 17.5878 809.095 Q19.6248 811.928 23.3805 811.928 Q26.5316 811.928 28.1548 810.05 Q29.7463 808.14 30.7329 802.857 L31.5287 798.974 Q32.8973 791.78 36.3666 788.375 Q39.8041 784.937 45.5969 784.937 Q52.5037 784.937 56.0685 789.584 Q59.6332 794.199 59.6332 803.143 Q59.6332 806.517 58.8694 810.336 Q58.1055 814.124 56.6095 818.198 L49.9892 818.198 Q52.1854 814.283 53.2994 810.527 Q54.4134 806.772 54.4134 803.143 Q54.4134 797.637 52.249 794.645 Q50.0847 791.653 46.0743 791.653 Q42.5732 791.653 40.5998 793.817 Q38.6264 795.95 37.6397 800.851 L36.8758 804.766 Q35.4436 811.96 32.388 815.174 Q29.3325 818.389 23.8898 818.389 Q17.5878 818.389 13.9593 813.965 Q10.3309 809.509 10.3309 801.711 Q10.3309 798.369 10.9356 794.899 Q11.5403 791.43 12.7498 787.802 Z" fill="#000000" fill-rule="nonzero" fill-opacity="1" /><path clip-path="url(#clip070)" d="M23.0623 775.166 L23.0623 769.309 L58.7102 769.309 L58.7102 775.166 L23.0623 775.166 M9.18502 775.166 L9.18502 769.309 L16.6011 769.309 L16.6011 775.166 L9.18502 775.166 Z" fill="#000000" fill-rule="nonzero" fill-opacity="1" /><path clip-path="url(#clip070)" d="M29.9054 729.301 Q25.9587 727.105 24.0808 724.049 Q22.2029 720.994 22.2029 716.856 Q22.2029 711.286 26.1178 708.262 Q30.0009 705.239 37.1941 705.239 L58.7102 705.239 L58.7102 711.127 L37.3851 711.127 Q32.2607 711.127 29.7781 712.941 Q27.2955 714.755 27.2955 718.479 Q27.2955 723.031 30.3192 725.672 Q33.3429 728.314 38.5628 728.314 L58.7102 728.314 L58.7102 734.202 L37.3851 734.202 Q32.2289 734.202 29.7781 736.017 Q27.2955 737.831 27.2955 741.619 Q27.2955 746.106 30.351 748.748 Q33.3747 751.39 38.5628 751.39 L58.7102 751.39 L58.7102 757.278 L23.0623 757.278 L23.0623 751.39 L28.6004 751.39 Q25.3221 749.385 23.7625 746.584 Q22.2029 743.783 22.2029 739.932 Q22.2029 736.049 24.1763 733.343 Q26.1496 730.606 29.9054 729.301 Z" fill="#000000" fill-rule="nonzero" fill-opacity="1" /><path clip-path="url(#clip070)" d="M44.642 694.162 L23.0623 694.162 L23.0623 688.306 L44.4192 688.306 Q49.4799 688.306 52.0262 686.332 Q54.5407 684.359 54.5407 680.412 Q54.5407 675.67 51.517 672.933 Q48.4933 670.163 43.2734 670.163 L23.0623 670.163 L23.0623 664.307 L58.7102 664.307 L58.7102 670.163 L53.2357 670.163 Q56.4822 672.296 58.0736 675.129 Q59.6332 677.93 59.6332 681.654 Q59.6332 687.796 55.8138 690.979 Q51.9944 694.162 44.642 694.162 M22.2029 679.426 L22.2029 679.426 Z" fill="#000000" fill-rule="nonzero" fill-opacity="1" /><path clip-path="url(#clip070)" d="M9.18502 652.244 L9.18502 646.388 L58.7102 646.388 L58.7102 652.244 L9.18502 652.244 Z" fill="#000000" fill-rule="nonzero" fill-opacity="1" /><path clip-path="url(#clip070)" d="M40.7908 617.933 Q40.7908 625.031 42.414 627.768 Q44.0373 630.505 47.9522 630.505 Q51.0714 630.505 52.9174 628.468 Q54.7317 626.399 54.7317 622.866 Q54.7317 617.996 51.2942 615.068 Q47.8249 612.108 42.0957 612.108 L40.7908 612.108 L40.7908 617.933 M38.3718 606.252 L58.7102 606.252 L58.7102 612.108 L53.2994 612.108 Q56.5459 614.113 58.1055 617.105 Q59.6332 620.097 59.6332 624.426 Q59.6332 629.9 56.5777 633.147 Q53.4903 636.362 48.3341 636.362 Q42.3185 636.362 39.263 632.351 Q36.2074 628.309 36.2074 620.32 L36.2074 612.108 L35.6345 612.108 Q31.5923 612.108 29.3961 614.782 Q27.1681 617.424 27.1681 622.23 Q27.1681 625.285 27.9002 628.182 Q28.6323 631.078 30.0964 633.752 L24.6855 633.752 Q23.4442 630.537 22.8395 627.513 Q22.2029 624.49 22.2029 621.625 Q22.2029 613.891 26.2133 610.071 Q30.2237 606.252 38.3718 606.252 Z" fill="#000000" fill-rule="nonzero" fill-opacity="1" /><path clip-path="url(#clip070)" d="M12.9408 588.396 L23.0623 588.396 L23.0623 576.333 L27.6137 576.333 L27.6137 588.396 L46.9655 588.396 Q51.326 588.396 52.5673 587.218 Q53.8086 586.009 53.8086 582.349 L53.8086 576.333 L58.7102 576.333 L58.7102 582.349 Q58.7102 589.128 56.1958 591.706 Q53.6495 594.284 46.9655 594.284 L27.6137 594.284 L27.6137 598.581 L23.0623 598.581 L23.0623 594.284 L12.9408 594.284 L12.9408 588.396 Z" fill="#000000" fill-rule="nonzero" fill-opacity="1" /><path clip-path="url(#clip070)" d="M39.4221 538.139 L42.2867 538.139 L42.2867 565.066 Q48.3341 564.684 51.517 561.437 Q54.668 558.159 54.668 552.334 Q54.668 548.96 53.8405 545.809 Q53.0129 542.627 51.3578 539.507 L56.896 539.507 Q58.2328 542.658 58.933 545.969 Q59.6332 549.279 59.6332 552.684 Q59.6332 561.214 54.668 566.211 Q49.7027 571.177 41.2364 571.177 Q32.4835 571.177 27.3591 566.466 Q22.2029 561.724 22.2029 553.703 Q22.2029 546.51 26.8499 542.34 Q31.465 538.139 39.4221 538.139 M37.7034 543.995 Q32.8973 544.059 30.0327 546.701 Q27.1681 549.311 27.1681 553.639 Q27.1681 558.541 29.9372 561.501 Q32.7063 564.429 37.7352 564.875 L37.7034 543.995 Z" fill="#000000" fill-rule="nonzero" fill-opacity="1" /><path clip-path="url(#clip070)" d="M28.4731 505.069 L9.18502 505.069 L9.18502 499.212 L58.7102 499.212 L58.7102 505.069 L53.363 505.069 Q56.5459 506.915 58.1055 509.748 Q59.6332 512.549 59.6332 516.495 Q59.6332 522.956 54.477 527.031 Q49.3208 531.073 40.9181 531.073 Q32.5153 531.073 27.3591 527.031 Q22.2029 522.956 22.2029 516.495 Q22.2029 512.549 23.7625 509.748 Q25.2903 506.915 28.4731 505.069 M40.9181 525.025 Q47.3793 525.025 51.0714 522.384 Q54.7317 519.71 54.7317 515.063 Q54.7317 510.416 51.0714 507.742 Q47.3793 505.069 40.9181 505.069 Q34.4569 505.069 30.7966 507.742 Q27.1045 510.416 27.1045 515.063 Q27.1045 519.71 30.7966 522.384 Q34.4569 525.025 40.9181 525.025 Z" fill="#000000" fill-rule="nonzero" fill-opacity="1" /><path clip-path="url(#clip070)" d="M24.4309 440.775 L29.9054 440.775 Q28.5368 443.258 27.8684 445.772 Q27.1681 448.255 27.1681 450.801 Q27.1681 456.499 30.7966 459.65 Q34.3932 462.801 40.9181 462.801 Q47.4429 462.801 51.0714 459.65 Q54.668 456.499 54.668 450.801 Q54.668 448.255 53.9996 445.772 Q53.2994 443.258 51.9307 440.775 L57.3416 440.775 Q58.4874 443.226 59.0603 445.868 Q59.6332 448.478 59.6332 451.438 Q59.6332 459.49 54.5725 464.233 Q49.5118 468.975 40.9181 468.975 Q32.1971 468.975 27.2 464.201 Q22.2029 459.395 22.2029 451.056 Q22.2029 448.35 22.7758 445.772 Q23.3169 443.194 24.4309 440.775 Z" fill="#000000" fill-rule="nonzero" fill-opacity="1" /><path clip-path="url(#clip070)" d="M40.7908 414.389 Q40.7908 421.487 42.414 424.224 Q44.0373 426.962 47.9522 426.962 Q51.0714 426.962 52.9174 424.925 Q54.7317 422.856 54.7317 419.323 Q54.7317 414.453 51.2942 411.525 Q47.8249 408.565 42.0957 408.565 L40.7908 408.565 L40.7908 414.389 M38.3718 402.708 L58.7102 402.708 L58.7102 408.565 L53.2994 408.565 Q56.5459 410.57 58.1055 413.562 Q59.6332 416.554 59.6332 420.882 Q59.6332 426.357 56.5777 429.603 Q53.4903 432.818 48.3341 432.818 Q42.3185 432.818 39.263 428.808 Q36.2074 424.765 36.2074 416.777 L36.2074 408.565 L35.6345 408.565 Q31.5923 408.565 29.3961 411.238 Q27.1681 413.88 27.1681 418.686 Q27.1681 421.742 27.9002 424.638 Q28.6323 427.535 30.0964 430.208 L24.6855 430.208 Q23.4442 426.993 22.8395 423.97 Q22.2029 420.946 22.2029 418.081 Q22.2029 410.347 26.2133 406.528 Q30.2237 402.708 38.3718 402.708 Z" fill="#000000" fill-rule="nonzero" fill-opacity="1" /><path clip-path="url(#clip070)" d="M24.1126 367.92 L29.6508 367.92 Q28.3776 370.402 27.7411 373.076 Q27.1045 375.75 27.1045 378.614 Q27.1045 382.975 28.4413 385.171 Q29.7781 387.335 32.4517 387.335 Q34.4887 387.335 35.6664 385.776 Q36.8122 384.216 37.8625 379.505 L38.3081 377.5 Q39.6449 371.262 42.0957 368.652 Q44.5147 366.01 48.8752 366.01 Q53.8405 366.01 56.7369 369.957 Q59.6332 373.872 59.6332 380.747 Q59.6332 383.611 59.0603 386.73 Q58.5192 389.818 57.4053 393.255 L51.3578 393.255 Q53.0447 390.009 53.9041 386.858 Q54.7317 383.707 54.7317 380.619 Q54.7317 376.482 53.3312 374.254 Q51.8989 372.026 49.3208 372.026 Q46.9337 372.026 45.6605 373.649 Q44.3874 375.24 43.2097 380.683 L42.7323 382.72 Q41.5865 388.163 39.2312 390.582 Q36.844 393.001 32.7063 393.001 Q27.6774 393.001 24.9401 389.436 Q22.2029 385.871 22.2029 379.314 Q22.2029 376.068 22.6803 373.203 Q23.1577 370.339 24.1126 367.92 Z" fill="#000000" fill-rule="nonzero" fill-opacity="1" /><path clip-path="url(#clip070)" d="M39.4221 326.193 L42.2867 326.193 L42.2867 353.119 Q48.3341 352.737 51.517 349.491 Q54.668 346.213 54.668 340.388 Q54.668 337.014 53.8405 333.863 Q53.0129 330.68 51.3578 327.561 L56.896 327.561 Q58.2328 330.712 58.933 334.022 Q59.6332 337.332 59.6332 340.738 Q59.6332 349.268 54.668 354.265 Q49.7027 359.231 41.2364 359.231 Q32.4835 359.231 27.3591 354.52 Q22.2029 349.777 22.2029 341.757 Q22.2029 334.563 26.8499 330.394 Q31.465 326.193 39.4221 326.193 M37.7034 332.049 Q32.8973 332.113 30.0327 334.754 Q27.1681 337.364 27.1681 341.693 Q27.1681 346.595 29.9372 349.555 Q32.7063 352.483 37.7352 352.928 L37.7034 332.049 Z" fill="#000000" fill-rule="nonzero" fill-opacity="1" /><path clip-path="url(#clip070)" d="M24.1126 293.855 L29.6508 293.855 Q28.3776 296.337 27.7411 299.011 Q27.1045 301.685 27.1045 304.549 Q27.1045 308.91 28.4413 311.106 Q29.7781 313.27 32.4517 313.27 Q34.4887 313.27 35.6664 311.711 Q36.8122 310.151 37.8625 305.44 L38.3081 303.435 Q39.6449 297.197 42.0957 294.587 Q44.5147 291.945 48.8752 291.945 Q53.8405 291.945 56.7369 295.892 Q59.6332 299.807 59.6332 306.682 Q59.6332 309.546 59.0603 312.665 Q58.5192 315.753 57.4053 319.19 L51.3578 319.19 Q53.0447 315.944 53.9041 312.793 Q54.7317 309.642 54.7317 306.554 Q54.7317 302.417 53.3312 300.189 Q51.8989 297.961 49.3208 297.961 Q46.9337 297.961 45.6605 299.584 Q44.3874 301.175 43.2097 306.618 L42.7323 308.655 Q41.5865 314.098 39.2312 316.517 Q36.844 318.936 32.7063 318.936 Q27.6774 318.936 24.9401 315.371 Q22.2029 311.806 22.2029 305.249 Q22.2029 302.003 22.6803 299.138 Q23.1577 296.274 24.1126 293.855 Z" fill="#000000" fill-rule="nonzero" fill-opacity="1" /><path clip-path="url(#clip072)" d="M410.6 820.785 L410.6 1031.59 L431.064 1031.59 L431.064 820.785 L410.6 820.785 L410.6 820.785  Z" fill="#00008b" fill-rule="evenodd" fill-opacity="1"/>
<polyline clip-path="url(#clip072)" style="stroke:#000000; stroke-linecap:round; stroke-linejoin:round; stroke-width:4; stroke-opacity:1; fill:none" points="410.6,820.785 410.6,1031.59 431.064,1031.59 431.064,820.785 410.6,820.785 "/>
<path clip-path="url(#clip072)" d="M436.18 740.678 L436.18 1031.59 L456.644 1031.59 L456.644 740.678 L436.18 740.678 L436.18 740.678  Z" fill="#00008b" fill-rule="evenodd" fill-opacity="1"/>
<polyline clip-path="url(#clip072)" style="stroke:#000000; stroke-linecap:round; stroke-linejoin:round; stroke-width:4; stroke-opacity:1; fill:none" points="436.18,740.678 436.18,1031.59 456.644,1031.59 456.644,740.678 436.18,740.678 "/>
<path clip-path="url(#clip072)" d="M461.76 749.111 L461.76 1031.59 L482.224 1031.59 L482.224 749.111 L461.76 749.111 L461.76 749.111  Z" fill="#00008b" fill-rule="evenodd" fill-opacity="1"/>
<polyline clip-path="url(#clip072)" style="stroke:#000000; stroke-linecap:round; stroke-linejoin:round; stroke-width:4; stroke-opacity:1; fill:none" points="461.76,749.111 461.76,1031.59 482.224,1031.59 482.224,749.111 461.76,749.111 "/>
<path clip-path="url(#clip072)" d="M487.34 702.733 L487.34 1031.59 L507.804 1031.59 L507.804 702.733 L487.34 702.733 L487.34 702.733  Z" fill="#00008b" fill-rule="evenodd" fill-opacity="1"/>
<polyline clip-path="url(#clip072)" style="stroke:#000000; stroke-linecap:round; stroke-linejoin:round; stroke-width:4; stroke-opacity:1; fill:none" points="487.34,702.733 487.34,1031.59 507.804,1031.59 507.804,702.733 487.34,702.733 "/>
<path clip-path="url(#clip072)" d="M512.92 669.003 L512.92 1031.59 L533.385 1031.59 L533.385 669.003 L512.92 669.003 L512.92 669.003  Z" fill="#00008b" fill-rule="evenodd" fill-opacity="1"/>
<polyline clip-path="url(#clip072)" style="stroke:#000000; stroke-linecap:round; stroke-linejoin:round; stroke-width:4; stroke-opacity:1; fill:none" points="512.92,669.003 512.92,1031.59 533.385,1031.59 533.385,669.003 512.92,669.003 "/>
<path clip-path="url(#clip072)" d="M538.501 715.381 L538.501 1031.59 L558.965 1031.59 L558.965 715.381 L538.501 715.381 L538.501 715.381  Z" fill="#00008b" fill-rule="evenodd" fill-opacity="1"/>
<polyline clip-path="url(#clip072)" style="stroke:#000000; stroke-linecap:round; stroke-linejoin:round; stroke-width:4; stroke-opacity:1; fill:none" points="538.501,715.381 538.501,1031.59 558.965,1031.59 558.965,715.381 538.501,715.381 "/>
<path clip-path="url(#clip072)" d="M564.081 656.355 L564.081 1031.59 L584.545 1031.59 L584.545 656.355 L564.081 656.355 L564.081 656.355  Z" fill="#00008b" fill-rule="evenodd" fill-opacity="1"/>
<polyline clip-path="url(#clip072)" style="stroke:#000000; stroke-linecap:round; stroke-linejoin:round; stroke-width:4; stroke-opacity:1; fill:none" points="564.081,656.355 564.081,1031.59 584.545,1031.59 584.545,656.355 564.081,656.355 "/>
<path clip-path="url(#clip072)" d="M589.661 483.492 L589.661 1031.59 L610.125 1031.59 L610.125 483.492 L589.661 483.492 L589.661 483.492  Z" fill="#00008b" fill-rule="evenodd" fill-opacity="1"/>
<polyline clip-path="url(#clip072)" style="stroke:#000000; stroke-linecap:round; stroke-linejoin:round; stroke-width:4; stroke-opacity:1; fill:none" points="589.661,483.492 589.661,1031.59 610.125,1031.59 610.125,483.492 589.661,483.492 "/>
<path clip-path="url(#clip072)" d="M615.241 601.545 L615.241 1031.59 L635.705 1031.59 L635.705 601.545 L615.241 601.545 L615.241 601.545  Z" fill="#00008b" fill-rule="evenodd" fill-opacity="1"/>
<polyline clip-path="url(#clip072)" style="stroke:#000000; stroke-linecap:round; stroke-linejoin:round; stroke-width:4; stroke-opacity:1; fill:none" points="615.241,601.545 615.241,1031.59 635.705,1031.59 635.705,601.545 615.241,601.545 "/>
<path clip-path="url(#clip072)" d="M640.821 483.492 L640.821 1031.59 L661.285 1031.59 L661.285 483.492 L640.821 483.492 L640.821 483.492  Z" fill="#00008b" fill-rule="evenodd" fill-opacity="1"/>
<polyline clip-path="url(#clip072)" style="stroke:#000000; stroke-linecap:round; stroke-linejoin:round; stroke-width:4; stroke-opacity:1; fill:none" points="640.821,483.492 640.821,1031.59 661.285,1031.59 661.285,483.492 640.821,483.492 "/>
<path clip-path="url(#clip072)" d="M666.401 521.438 L666.401 1031.59 L686.865 1031.59 L686.865 521.438 L666.401 521.438 L666.401 521.438  Z" fill="#00008b" fill-rule="evenodd" fill-opacity="1"/>
<polyline clip-path="url(#clip072)" style="stroke:#000000; stroke-linecap:round; stroke-linejoin:round; stroke-width:4; stroke-opacity:1; fill:none" points="666.401,521.438 666.401,1031.59 686.865,1031.59 686.865,521.438 666.401,521.438 "/>
<path clip-path="url(#clip072)" d="M691.981 411.817 L691.981 1031.59 L712.445 1031.59 L712.445 411.817 L691.981 411.817 L691.981 411.817  Z" fill="#00008b" fill-rule="evenodd" fill-opacity="1"/>
<polyline clip-path="url(#clip072)" style="stroke:#000000; stroke-linecap:round; stroke-linejoin:round; stroke-width:4; stroke-opacity:1; fill:none" points="691.981,411.817 691.981,1031.59 712.445,1031.59 712.445,411.817 691.981,411.817 "/>
<path clip-path="url(#clip072)" d="M717.561 344.359 L717.561 1031.59 L738.025 1031.59 L738.025 344.359 L717.561 344.359 L717.561 344.359  Z" fill="#00008b" fill-rule="evenodd" fill-opacity="1"/>
<polyline clip-path="url(#clip072)" style="stroke:#000000; stroke-linecap:round; stroke-linejoin:round; stroke-width:4; stroke-opacity:1; fill:none" points="717.561,344.359 717.561,1031.59 738.025,1031.59 738.025,344.359 717.561,344.359 "/>
<path clip-path="url(#clip072)" d="M743.141 323.278 L743.141 1031.59 L763.605 1031.59 L763.605 323.278 L743.141 323.278 L743.141 323.278  Z" fill="#00008b" fill-rule="evenodd" fill-opacity="1"/>
<polyline clip-path="url(#clip072)" style="stroke:#000000; stroke-linecap:round; stroke-linejoin:round; stroke-width:4; stroke-opacity:1; fill:none" points="743.141,323.278 743.141,1031.59 763.605,1031.59 763.605,323.278 743.141,323.278 "/>
<path clip-path="url(#clip072)" d="M768.721 276.9 L768.721 1031.59 L789.185 1031.59 L789.185 276.9 L768.721 276.9 L768.721 276.9  Z" fill="#00008b" fill-rule="evenodd" fill-opacity="1"/>
<polyline clip-path="url(#clip072)" style="stroke:#000000; stroke-linecap:round; stroke-linejoin:round; stroke-width:4; stroke-opacity:1; fill:none" points="768.721,276.9 768.721,1031.59 789.185,1031.59 789.185,276.9 768.721,276.9 "/>
<path clip-path="url(#clip072)" d="M794.301 192.577 L794.301 1031.59 L814.765 1031.59 L814.765 192.577 L794.301 192.577 L794.301 192.577  Z" fill="#00008b" fill-rule="evenodd" fill-opacity="1"/>
<polyline clip-path="url(#clip072)" style="stroke:#000000; stroke-linecap:round; stroke-linejoin:round; stroke-width:4; stroke-opacity:1; fill:none" points="794.301,192.577 794.301,1031.59 814.765,1031.59 814.765,192.577 794.301,192.577 "/>
<path clip-path="url(#clip072)" d="M819.881 222.09 L819.881 1031.59 L840.345 1031.59 L840.345 222.09 L819.881 222.09 L819.881 222.09  Z" fill="#00008b" fill-rule="evenodd" fill-opacity="1"/>
<polyline clip-path="url(#clip072)" style="stroke:#000000; stroke-linecap:round; stroke-linejoin:round; stroke-width:4; stroke-opacity:1; fill:none" points="819.881,222.09 819.881,1031.59 840.345,1031.59 840.345,222.09 819.881,222.09 "/>
<path clip-path="url(#clip072)" d="M845.461 289.548 L845.461 1031.59 L865.925 1031.59 L865.925 289.548 L845.461 289.548 L845.461 289.548  Z" fill="#00008b" fill-rule="evenodd" fill-opacity="1"/>
<polyline clip-path="url(#clip072)" style="stroke:#000000; stroke-linecap:round; stroke-linejoin:round; stroke-width:4; stroke-opacity:1; fill:none" points="845.461,289.548 845.461,1031.59 865.925,1031.59 865.925,289.548 845.461,289.548 "/>
<path clip-path="url(#clip072)" d="M871.041 222.09 L871.041 1031.59 L891.505 1031.59 L891.505 222.09 L871.041 222.09 L871.041 222.09  Z" fill="#00008b" fill-rule="evenodd" fill-opacity="1"/>
<polyline clip-path="url(#clip072)" style="stroke:#000000; stroke-linecap:round; stroke-linejoin:round; stroke-width:4; stroke-opacity:1; fill:none" points="871.041,222.09 871.041,1031.59 891.505,1031.59 891.505,222.09 871.041,222.09 "/>
<path clip-path="url(#clip072)" d="M896.622 192.577 L896.622 1031.59 L917.086 1031.59 L917.086 192.577 L896.622 192.577 L896.622 192.577  Z" fill="#00008b" fill-rule="evenodd" fill-opacity="1"/>
<polyline clip-path="url(#clip072)" style="stroke:#000000; stroke-linecap:round; stroke-linejoin:round; stroke-width:4; stroke-opacity:1; fill:none" points="896.622,192.577 896.622,1031.59 917.086,1031.59 917.086,192.577 896.622,192.577 "/>
<path clip-path="url(#clip072)" d="M922.202 78.7402 L922.202 1031.59 L942.666 1031.59 L942.666 78.7402 L922.202 78.7402 L922.202 78.7402  Z" fill="#00008b" fill-rule="evenodd" fill-opacity="1"/>
<polyline clip-path="url(#clip072)" style="stroke:#000000; stroke-linecap:round; stroke-linejoin:round; stroke-width:4; stroke-opacity:1; fill:none" points="922.202,78.7402 922.202,1031.59 942.666,1031.59 942.666,78.7402 922.202,78.7402 "/>
<path clip-path="url(#clip072)" d="M947.782 238.954 L947.782 1031.59 L968.246 1031.59 L968.246 238.954 L947.782 238.954 L947.782 238.954  Z" fill="#00008b" fill-rule="evenodd" fill-opacity="1"/>
<polyline clip-path="url(#clip072)" style="stroke:#000000; stroke-linecap:round; stroke-linejoin:round; stroke-width:4; stroke-opacity:1; fill:none" points="947.782,238.954 947.782,1031.59 968.246,1031.59 968.246,238.954 947.782,238.954 "/>
<path clip-path="url(#clip072)" d="M973.362 302.197 L973.362 1031.59 L993.826 1031.59 L993.826 302.197 L973.362 302.197 L973.362 302.197  Z" fill="#00008b" fill-rule="evenodd" fill-opacity="1"/>
<polyline clip-path="url(#clip072)" style="stroke:#000000; stroke-linecap:round; stroke-linejoin:round; stroke-width:4; stroke-opacity:1; fill:none" points="973.362,302.197 973.362,1031.59 993.826,1031.59 993.826,302.197 973.362,302.197 "/>
<path clip-path="url(#clip072)" d="M998.942 285.332 L998.942 1031.59 L1019.41 1031.59 L1019.41 285.332 L998.942 285.332 L998.942 285.332  Z" fill="#00008b" fill-rule="evenodd" fill-opacity="1"/>
<polyline clip-path="url(#clip072)" style="stroke:#000000; stroke-linecap:round; stroke-linejoin:round; stroke-width:4; stroke-opacity:1; fill:none" points="998.942,285.332 998.942,1031.59 1019.41,1031.59 1019.41,285.332 998.942,285.332 "/>
<path clip-path="url(#clip072)" d="M1024.52 281.116 L1024.52 1031.59 L1044.99 1031.59 L1044.99 281.116 L1024.52 281.116 L1024.52 281.116  Z" fill="#00008b" fill-rule="evenodd" fill-opacity="1"/>
<polyline clip-path="url(#clip072)" style="stroke:#000000; stroke-linecap:round; stroke-linejoin:round; stroke-width:4; stroke-opacity:1; fill:none" points="1024.52,281.116 1024.52,1031.59 1044.99,1031.59 1044.99,281.116 1024.52,281.116 "/>
<path clip-path="url(#clip072)" d="M1050.1 306.413 L1050.1 1031.59 L1070.57 1031.59 L1070.57 306.413 L1050.1 306.413 L1050.1 306.413  Z" fill="#00008b" fill-rule="evenodd" fill-opacity="1"/>
<polyline clip-path="url(#clip072)" style="stroke:#000000; stroke-linecap:round; stroke-linejoin:round; stroke-width:4; stroke-opacity:1; fill:none" points="1050.1,306.413 1050.1,1031.59 1070.57,1031.59 1070.57,306.413 1050.1,306.413 "/>
<path clip-path="url(#clip072)" d="M1075.68 319.062 L1075.68 1031.59 L1096.15 1031.59 L1096.15 319.062 L1075.68 319.062 L1075.68 319.062  Z" fill="#00008b" fill-rule="evenodd" fill-opacity="1"/>
<polyline clip-path="url(#clip072)" style="stroke:#000000; stroke-linecap:round; stroke-linejoin:round; stroke-width:4; stroke-opacity:1; fill:none" points="1075.68,319.062 1075.68,1031.59 1096.15,1031.59 1096.15,319.062 1075.68,319.062 "/>
<path clip-path="url(#clip072)" d="M1101.26 416.033 L1101.26 1031.59 L1121.73 1031.59 L1121.73 416.033 L1101.26 416.033 L1101.26 416.033  Z" fill="#00008b" fill-rule="evenodd" fill-opacity="1"/>
<polyline clip-path="url(#clip072)" style="stroke:#000000; stroke-linecap:round; stroke-linejoin:round; stroke-width:4; stroke-opacity:1; fill:none" points="1101.26,416.033 1101.26,1031.59 1121.73,1031.59 1121.73,416.033 1101.26,416.033 "/>
<path clip-path="url(#clip072)" d="M1126.84 491.924 L1126.84 1031.59 L1147.31 1031.59 L1147.31 491.924 L1126.84 491.924 L1126.84 491.924  Z" fill="#00008b" fill-rule="evenodd" fill-opacity="1"/>
<polyline clip-path="url(#clip072)" style="stroke:#000000; stroke-linecap:round; stroke-linejoin:round; stroke-width:4; stroke-opacity:1; fill:none" points="1126.84,491.924 1126.84,1031.59 1147.31,1031.59 1147.31,491.924 1126.84,491.924 "/>
<path clip-path="url(#clip072)" d="M1152.42 550.951 L1152.42 1031.59 L1172.89 1031.59 L1172.89 550.951 L1152.42 550.951 L1152.42 550.951  Z" fill="#00008b" fill-rule="evenodd" fill-opacity="1"/>
<polyline clip-path="url(#clip072)" style="stroke:#000000; stroke-linecap:round; stroke-linejoin:round; stroke-width:4; stroke-opacity:1; fill:none" points="1152.42,550.951 1152.42,1031.59 1172.89,1031.59 1172.89,550.951 1152.42,550.951 "/>
<path clip-path="url(#clip072)" d="M1178 550.951 L1178 1031.59 L1198.47 1031.59 L1198.47 550.951 L1178 550.951 L1178 550.951  Z" fill="#00008b" fill-rule="evenodd" fill-opacity="1"/>
<polyline clip-path="url(#clip072)" style="stroke:#000000; stroke-linecap:round; stroke-linejoin:round; stroke-width:4; stroke-opacity:1; fill:none" points="1178,550.951 1178,1031.59 1198.47,1031.59 1198.47,550.951 1178,550.951 "/>
<path clip-path="url(#clip072)" d="M1203.58 626.842 L1203.58 1031.59 L1224.05 1031.59 L1224.05 626.842 L1203.58 626.842 L1203.58 626.842  Z" fill="#00008b" fill-rule="evenodd" fill-opacity="1"/>
<polyline clip-path="url(#clip072)" style="stroke:#000000; stroke-linecap:round; stroke-linejoin:round; stroke-width:4; stroke-opacity:1; fill:none" points="1203.58,626.842 1203.58,1031.59 1224.05,1031.59 1224.05,626.842 1203.58,626.842 "/>
<path clip-path="url(#clip072)" d="M1229.16 669.003 L1229.16 1031.59 L1249.63 1031.59 L1249.63 669.003 L1229.16 669.003 L1229.16 669.003  Z" fill="#00008b" fill-rule="evenodd" fill-opacity="1"/>
<polyline clip-path="url(#clip072)" style="stroke:#000000; stroke-linecap:round; stroke-linejoin:round; stroke-width:4; stroke-opacity:1; fill:none" points="1229.16,669.003 1229.16,1031.59 1249.63,1031.59 1249.63,669.003 1229.16,669.003 "/>
<path clip-path="url(#clip072)" d="M1254.74 647.923 L1254.74 1031.59 L1275.21 1031.59 L1275.21 647.923 L1254.74 647.923 L1254.74 647.923  Z" fill="#00008b" fill-rule="evenodd" fill-opacity="1"/>
<polyline clip-path="url(#clip072)" style="stroke:#000000; stroke-linecap:round; stroke-linejoin:round; stroke-width:4; stroke-opacity:1; fill:none" points="1254.74,647.923 1254.74,1031.59 1275.21,1031.59 1275.21,647.923 1254.74,647.923 "/>
<path clip-path="url(#clip072)" d="M1280.32 749.111 L1280.32 1031.59 L1300.79 1031.59 L1300.79 749.111 L1280.32 749.111 L1280.32 749.111  Z" fill="#00008b" fill-rule="evenodd" fill-opacity="1"/>
<polyline clip-path="url(#clip072)" style="stroke:#000000; stroke-linecap:round; stroke-linejoin:round; stroke-width:4; stroke-opacity:1; fill:none" points="1280.32,749.111 1280.32,1031.59 1300.79,1031.59 1300.79,749.111 1280.32,749.111 "/>
<path clip-path="url(#clip072)" d="M1305.9 791.272 L1305.9 1031.59 L1326.37 1031.59 L1326.37 791.272 L1305.9 791.272 L1305.9 791.272  Z" fill="#00008b" fill-rule="evenodd" fill-opacity="1"/>
<polyline clip-path="url(#clip072)" style="stroke:#000000; stroke-linecap:round; stroke-linejoin:round; stroke-width:4; stroke-opacity:1; fill:none" points="1305.9,791.272 1305.9,1031.59 1326.37,1031.59 1326.37,791.272 1305.9,791.272 "/>
<path clip-path="url(#clip072)" d="M1331.48 854.515 L1331.48 1031.59 L1351.95 1031.59 L1351.95 854.515 L1331.48 854.515 L1331.48 854.515  Z" fill="#00008b" fill-rule="evenodd" fill-opacity="1"/>
<polyline clip-path="url(#clip072)" style="stroke:#000000; stroke-linecap:round; stroke-linejoin:round; stroke-width:4; stroke-opacity:1; fill:none" points="1331.48,854.515 1331.48,1031.59 1351.95,1031.59 1351.95,854.515 1331.48,854.515 "/>
<path clip-path="url(#clip072)" d="M1357.06 774.408 L1357.06 1031.59 L1377.53 1031.59 L1377.53 774.408 L1357.06 774.408 L1357.06 774.408  Z" fill="#00008b" fill-rule="evenodd" fill-opacity="1"/>
<polyline clip-path="url(#clip072)" style="stroke:#000000; stroke-linecap:round; stroke-linejoin:round; stroke-width:4; stroke-opacity:1; fill:none" points="1357.06,774.408 1357.06,1031.59 1377.53,1031.59 1377.53,774.408 1357.06,774.408 "/>
<path clip-path="url(#clip072)" d="M1382.64 854.515 L1382.64 1031.59 L1403.11 1031.59 L1403.11 854.515 L1382.64 854.515 L1382.64 854.515  Z" fill="#00008b" fill-rule="evenodd" fill-opacity="1"/>
<polyline clip-path="url(#clip072)" style="stroke:#000000; stroke-linecap:round; stroke-linejoin:round; stroke-width:4; stroke-opacity:1; fill:none" points="1382.64,854.515 1382.64,1031.59 1403.11,1031.59 1403.11,854.515 1382.64,854.515 "/>
<path clip-path="url(#clip072)" d="M1408.22 858.731 L1408.22 1031.59 L1428.69 1031.59 L1428.69 858.731 L1408.22 858.731 L1408.22 858.731  Z" fill="#00008b" fill-rule="evenodd" fill-opacity="1"/>
<polyline clip-path="url(#clip072)" style="stroke:#000000; stroke-linecap:round; stroke-linejoin:round; stroke-width:4; stroke-opacity:1; fill:none" points="1408.22,858.731 1408.22,1031.59 1428.69,1031.59 1428.69,858.731 1408.22,858.731 "/>
<path clip-path="url(#clip072)" d="M1433.8 846.082 L1433.8 1031.59 L1454.27 1031.59 L1454.27 846.082 L1433.8 846.082 L1433.8 846.082  Z" fill="#00008b" fill-rule="evenodd" fill-opacity="1"/>
<polyline clip-path="url(#clip072)" style="stroke:#000000; stroke-linecap:round; stroke-linejoin:round; stroke-width:4; stroke-opacity:1; fill:none" points="1433.8,846.082 1433.8,1031.59 1454.27,1031.59 1454.27,846.082 1433.8,846.082 "/>
<path clip-path="url(#clip072)" d="M1459.38 829.218 L1459.38 1031.59 L1479.85 1031.59 L1479.85 829.218 L1459.38 829.218 L1459.38 829.218  Z" fill="#00008b" fill-rule="evenodd" fill-opacity="1"/>
<polyline clip-path="url(#clip072)" style="stroke:#000000; stroke-linecap:round; stroke-linejoin:round; stroke-width:4; stroke-opacity:1; fill:none" points="1459.38,829.218 1459.38,1031.59 1479.85,1031.59 1479.85,829.218 1459.38,829.218 "/>
<path clip-path="url(#clip072)" d="M1484.96 820.785 L1484.96 1031.59 L1505.43 1031.59 L1505.43 820.785 L1484.96 820.785 L1484.96 820.785  Z" fill="#00008b" fill-rule="evenodd" fill-opacity="1"/>
<polyline clip-path="url(#clip072)" style="stroke:#000000; stroke-linecap:round; stroke-linejoin:round; stroke-width:4; stroke-opacity:1; fill:none" points="1484.96,820.785 1484.96,1031.59 1505.43,1031.59 1505.43,820.785 1484.96,820.785 "/>
<path clip-path="url(#clip072)" d="M1510.54 888.244 L1510.54 1031.59 L1531.01 1031.59 L1531.01 888.244 L1510.54 888.244 L1510.54 888.244  Z" fill="#00008b" fill-rule="evenodd" fill-opacity="1"/>
<polyline clip-path="url(#clip072)" style="stroke:#000000; stroke-linecap:round; stroke-linejoin:round; stroke-width:4; stroke-opacity:1; fill:none" points="1510.54,888.244 1510.54,1031.59 1531.01,1031.59 1531.01,888.244 1510.54,888.244 "/>
<path clip-path="url(#clip072)" d="M1536.12 837.65 L1536.12 1031.59 L1556.59 1031.59 L1556.59 837.65 L1536.12 837.65 L1536.12 837.65  Z" fill="#00008b" fill-rule="evenodd" fill-opacity="1"/>
<polyline clip-path="url(#clip072)" style="stroke:#000000; stroke-linecap:round; stroke-linejoin:round; stroke-width:4; stroke-opacity:1; fill:none" points="1536.12,837.65 1536.12,1031.59 1556.59,1031.59 1556.59,837.65 1536.12,837.65 "/>
<path clip-path="url(#clip072)" d="M1561.7 871.379 L1561.7 1031.59 L1582.17 1031.59 L1582.17 871.379 L1561.7 871.379 L1561.7 871.379  Z" fill="#00008b" fill-rule="evenodd" fill-opacity="1"/>
<polyline clip-path="url(#clip072)" style="stroke:#000000; stroke-linecap:round; stroke-linejoin:round; stroke-width:4; stroke-opacity:1; fill:none" points="1561.7,871.379 1561.7,1031.59 1582.17,1031.59 1582.17,871.379 1561.7,871.379 "/>
<path clip-path="url(#clip072)" d="M1587.28 841.866 L1587.28 1031.59 L1607.75 1031.59 L1607.75 841.866 L1587.28 841.866 L1587.28 841.866  Z" fill="#00008b" fill-rule="evenodd" fill-opacity="1"/>
<polyline clip-path="url(#clip072)" style="stroke:#000000; stroke-linecap:round; stroke-linejoin:round; stroke-width:4; stroke-opacity:1; fill:none" points="1587.28,841.866 1587.28,1031.59 1607.75,1031.59 1607.75,841.866 1587.28,841.866 "/>
<path clip-path="url(#clip072)" d="M1612.86 871.379 L1612.86 1031.59 L1633.33 1031.59 L1633.33 871.379 L1612.86 871.379 L1612.86 871.379  Z" fill="#00008b" fill-rule="evenodd" fill-opacity="1"/>
<polyline clip-path="url(#clip072)" style="stroke:#000000; stroke-linecap:round; stroke-linejoin:round; stroke-width:4; stroke-opacity:1; fill:none" points="1612.86,871.379 1612.86,1031.59 1633.33,1031.59 1633.33,871.379 1612.86,871.379 "/>
<path clip-path="url(#clip072)" d="M1638.44 837.65 L1638.44 1031.59 L1658.91 1031.59 L1658.91 837.65 L1638.44 837.65 L1638.44 837.65  Z" fill="#00008b" fill-rule="evenodd" fill-opacity="1"/>
<polyline clip-path="url(#clip072)" style="stroke:#000000; stroke-linecap:round; stroke-linejoin:round; stroke-width:4; stroke-opacity:1; fill:none" points="1638.44,837.65 1638.44,1031.59 1658.91,1031.59 1658.91,837.65 1638.44,837.65 "/>
<path clip-path="url(#clip072)" d="M1664.02 862.947 L1664.02 1031.59 L1684.49 1031.59 L1684.49 862.947 L1664.02 862.947 L1664.02 862.947  Z" fill="#00008b" fill-rule="evenodd" fill-opacity="1"/>
<polyline clip-path="url(#clip072)" style="stroke:#000000; stroke-linecap:round; stroke-linejoin:round; stroke-width:4; stroke-opacity:1; fill:none" points="1664.02,862.947 1664.02,1031.59 1684.49,1031.59 1684.49,862.947 1664.02,862.947 "/>
<path clip-path="url(#clip072)" d="M1689.6 795.488 L1689.6 1031.59 L1710.07 1031.59 L1710.07 795.488 L1689.6 795.488 L1689.6 795.488  Z" fill="#00008b" fill-rule="evenodd" fill-opacity="1"/>
<polyline clip-path="url(#clip072)" style="stroke:#000000; stroke-linecap:round; stroke-linejoin:round; stroke-width:4; stroke-opacity:1; fill:none" points="1689.6,795.488 1689.6,1031.59 1710.07,1031.59 1710.07,795.488 1689.6,795.488 "/>
<path clip-path="url(#clip072)" d="M1715.18 854.515 L1715.18 1031.59 L1735.65 1031.59 L1735.65 854.515 L1715.18 854.515 L1715.18 854.515  Z" fill="#00008b" fill-rule="evenodd" fill-opacity="1"/>
<polyline clip-path="url(#clip072)" style="stroke:#000000; stroke-linecap:round; stroke-linejoin:round; stroke-width:4; stroke-opacity:1; fill:none" points="1715.18,854.515 1715.18,1031.59 1735.65,1031.59 1735.65,854.515 1715.18,854.515 "/>
<path clip-path="url(#clip072)" d="M1740.76 829.218 L1740.76 1031.59 L1761.23 1031.59 L1761.23 829.218 L1740.76 829.218 L1740.76 829.218  Z" fill="#00008b" fill-rule="evenodd" fill-opacity="1"/>
<polyline clip-path="url(#clip072)" style="stroke:#000000; stroke-linecap:round; stroke-linejoin:round; stroke-width:4; stroke-opacity:1; fill:none" points="1740.76,829.218 1740.76,1031.59 1761.23,1031.59 1761.23,829.218 1740.76,829.218 "/>
<path clip-path="url(#clip072)" d="M1766.34 782.84 L1766.34 1031.59 L1786.81 1031.59 L1786.81 782.84 L1766.34 782.84 L1766.34 782.84  Z" fill="#00008b" fill-rule="evenodd" fill-opacity="1"/>
<polyline clip-path="url(#clip072)" style="stroke:#000000; stroke-linecap:round; stroke-linejoin:round; stroke-width:4; stroke-opacity:1; fill:none" points="1766.34,782.84 1766.34,1031.59 1786.81,1031.59 1786.81,782.84 1766.34,782.84 "/>
<path clip-path="url(#clip072)" d="M1791.92 774.408 L1791.92 1031.59 L1812.39 1031.59 L1812.39 774.408 L1791.92 774.408 L1791.92 774.408  Z" fill="#00008b" fill-rule="evenodd" fill-opacity="1"/>
<polyline clip-path="url(#clip072)" style="stroke:#000000; stroke-linecap:round; stroke-linejoin:round; stroke-width:4; stroke-opacity:1; fill:none" points="1791.92,774.408 1791.92,1031.59 1812.39,1031.59 1812.39,774.408 1791.92,774.408 "/>
<path clip-path="url(#clip072)" d="M1817.5 736.462 L1817.5 1031.59 L1837.97 1031.59 L1837.97 736.462 L1817.5 736.462 L1817.5 736.462  Z" fill="#00008b" fill-rule="evenodd" fill-opacity="1"/>
<polyline clip-path="url(#clip072)" style="stroke:#000000; stroke-linecap:round; stroke-linejoin:round; stroke-width:4; stroke-opacity:1; fill:none" points="1817.5,736.462 1817.5,1031.59 1837.97,1031.59 1837.97,736.462 1817.5,736.462 "/>
<path clip-path="url(#clip072)" d="M1843.08 791.272 L1843.08 1031.59 L1863.55 1031.59 L1863.55 791.272 L1843.08 791.272 L1843.08 791.272  Z" fill="#00008b" fill-rule="evenodd" fill-opacity="1"/>
<polyline clip-path="url(#clip072)" style="stroke:#000000; stroke-linecap:round; stroke-linejoin:round; stroke-width:4; stroke-opacity:1; fill:none" points="1843.08,791.272 1843.08,1031.59 1863.55,1031.59 1863.55,791.272 1843.08,791.272 "/>
<path clip-path="url(#clip072)" d="M1868.66 778.624 L1868.66 1031.59 L1889.13 1031.59 L1889.13 778.624 L1868.66 778.624 L1868.66 778.624  Z" fill="#00008b" fill-rule="evenodd" fill-opacity="1"/>
<polyline clip-path="url(#clip072)" style="stroke:#000000; stroke-linecap:round; stroke-linejoin:round; stroke-width:4; stroke-opacity:1; fill:none" points="1868.66,778.624 1868.66,1031.59 1889.13,1031.59 1889.13,778.624 1868.66,778.624 "/>
<path clip-path="url(#clip072)" d="M1894.24 698.517 L1894.24 1031.59 L1914.71 1031.59 L1914.71 698.517 L1894.24 698.517 L1894.24 698.517  Z" fill="#00008b" fill-rule="evenodd" fill-opacity="1"/>
<polyline clip-path="url(#clip072)" style="stroke:#000000; stroke-linecap:round; stroke-linejoin:round; stroke-width:4; stroke-opacity:1; fill:none" points="1894.24,698.517 1894.24,1031.59 1914.71,1031.59 1914.71,698.517 1894.24,698.517 "/>
<path clip-path="url(#clip072)" d="M1919.82 694.3 L1919.82 1031.59 L1940.29 1031.59 L1940.29 694.3 L1919.82 694.3 L1919.82 694.3  Z" fill="#00008b" fill-rule="evenodd" fill-opacity="1"/>
<polyline clip-path="url(#clip072)" style="stroke:#000000; stroke-linecap:round; stroke-linejoin:round; stroke-width:4; stroke-opacity:1; fill:none" points="1919.82,694.3 1919.82,1031.59 1940.29,1031.59 1940.29,694.3 1919.82,694.3 "/>
<path clip-path="url(#clip072)" d="M1945.4 656.355 L1945.4 1031.59 L1965.87 1031.59 L1965.87 656.355 L1945.4 656.355 L1945.4 656.355  Z" fill="#00008b" fill-rule="evenodd" fill-opacity="1"/>
<polyline clip-path="url(#clip072)" style="stroke:#000000; stroke-linecap:round; stroke-linejoin:round; stroke-width:4; stroke-opacity:1; fill:none" points="1945.4,656.355 1945.4,1031.59 1965.87,1031.59 1965.87,656.355 1945.4,656.355 "/>
<path clip-path="url(#clip072)" d="M1970.98 660.571 L1970.98 1031.59 L1991.45 1031.59 L1991.45 660.571 L1970.98 660.571 L1970.98 660.571  Z" fill="#00008b" fill-rule="evenodd" fill-opacity="1"/>
<polyline clip-path="url(#clip072)" style="stroke:#000000; stroke-linecap:round; stroke-linejoin:round; stroke-width:4; stroke-opacity:1; fill:none" points="1970.98,660.571 1970.98,1031.59 1991.45,1031.59 1991.45,660.571 1970.98,660.571 "/>
<path clip-path="url(#clip072)" d="M1996.56 618.409 L1996.56 1031.59 L2017.03 1031.59 L2017.03 618.409 L1996.56 618.409 L1996.56 618.409  Z" fill="#00008b" fill-rule="evenodd" fill-opacity="1"/>
<polyline clip-path="url(#clip072)" style="stroke:#000000; stroke-linecap:round; stroke-linejoin:round; stroke-width:4; stroke-opacity:1; fill:none" points="1996.56,618.409 1996.56,1031.59 2017.03,1031.59 2017.03,618.409 1996.56,618.409 "/>
<path clip-path="url(#clip072)" d="M2022.14 483.492 L2022.14 1031.59 L2042.61 1031.59 L2042.61 483.492 L2022.14 483.492 L2022.14 483.492  Z" fill="#00008b" fill-rule="evenodd" fill-opacity="1"/>
<polyline clip-path="url(#clip072)" style="stroke:#000000; stroke-linecap:round; stroke-linejoin:round; stroke-width:4; stroke-opacity:1; fill:none" points="2022.14,483.492 2022.14,1031.59 2042.61,1031.59 2042.61,483.492 2022.14,483.492 "/>
<path clip-path="url(#clip072)" d="M2047.72 584.68 L2047.72 1031.59 L2068.19 1031.59 L2068.19 584.68 L2047.72 584.68 L2047.72 584.68  Z" fill="#00008b" fill-rule="evenodd" fill-opacity="1"/>
<polyline clip-path="url(#clip072)" style="stroke:#000000; stroke-linecap:round; stroke-linejoin:round; stroke-width:4; stroke-opacity:1; fill:none" points="2047.72,584.68 2047.72,1031.59 2068.19,1031.59 2068.19,584.68 2047.72,584.68 "/>
<path clip-path="url(#clip072)" d="M2073.3 525.654 L2073.3 1031.59 L2093.77 1031.59 L2093.77 525.654 L2073.3 525.654 L2073.3 525.654  Z" fill="#00008b" fill-rule="evenodd" fill-opacity="1"/>
<polyline clip-path="url(#clip072)" style="stroke:#000000; stroke-linecap:round; stroke-linejoin:round; stroke-width:4; stroke-opacity:1; fill:none" points="2073.3,525.654 2073.3,1031.59 2093.77,1031.59 2093.77,525.654 2073.3,525.654 "/>
<path clip-path="url(#clip072)" d="M2098.88 441.33 L2098.88 1031.59 L2119.35 1031.59 L2119.35 441.33 L2098.88 441.33 L2098.88 441.33  Z" fill="#00008b" fill-rule="evenodd" fill-opacity="1"/>
<polyline clip-path="url(#clip072)" style="stroke:#000000; stroke-linecap:round; stroke-linejoin:round; stroke-width:4; stroke-opacity:1; fill:none" points="2098.88,441.33 2098.88,1031.59 2119.35,1031.59 2119.35,441.33 2098.88,441.33 "/>
<path clip-path="url(#clip072)" d="M2124.46 513.005 L2124.46 1031.59 L2144.93 1031.59 L2144.93 513.005 L2124.46 513.005 L2124.46 513.005  Z" fill="#00008b" fill-rule="evenodd" fill-opacity="1"/>
<polyline clip-path="url(#clip072)" style="stroke:#000000; stroke-linecap:round; stroke-linejoin:round; stroke-width:4; stroke-opacity:1; fill:none" points="2124.46,513.005 2124.46,1031.59 2144.93,1031.59 2144.93,513.005 2124.46,513.005 "/>
<path clip-path="url(#clip072)" d="M2150.04 475.06 L2150.04 1031.59 L2170.51 1031.59 L2170.51 475.06 L2150.04 475.06 L2150.04 475.06  Z" fill="#00008b" fill-rule="evenodd" fill-opacity="1"/>
<polyline clip-path="url(#clip072)" style="stroke:#000000; stroke-linecap:round; stroke-linejoin:round; stroke-width:4; stroke-opacity:1; fill:none" points="2150.04,475.06 2150.04,1031.59 2170.51,1031.59 2170.51,475.06 2150.04,475.06 "/>
<path clip-path="url(#clip072)" d="M2175.63 369.656 L2175.63 1031.59 L2196.09 1031.59 L2196.09 369.656 L2175.63 369.656 L2175.63 369.656  Z" fill="#00008b" fill-rule="evenodd" fill-opacity="1"/>
<polyline clip-path="url(#clip072)" style="stroke:#000000; stroke-linecap:round; stroke-linejoin:round; stroke-width:4; stroke-opacity:1; fill:none" points="2175.63,369.656 2175.63,1031.59 2196.09,1031.59 2196.09,369.656 2175.63,369.656 "/>
<path clip-path="url(#clip072)" d="M2201.21 407.601 L2201.21 1031.59 L2221.67 1031.59 L2221.67 407.601 L2201.21 407.601 L2201.21 407.601  Z" fill="#00008b" fill-rule="evenodd" fill-opacity="1"/>
<polyline clip-path="url(#clip072)" style="stroke:#000000; stroke-linecap:round; stroke-linejoin:round; stroke-width:4; stroke-opacity:1; fill:none" points="2201.21,407.601 2201.21,1031.59 2221.67,1031.59 2221.67,407.601 2201.21,407.601 "/>
<path clip-path="url(#clip072)" d="M2226.79 420.25 L2226.79 1031.59 L2247.25 1031.59 L2247.25 420.25 L2226.79 420.25 L2226.79 420.25  Z" fill="#00008b" fill-rule="evenodd" fill-opacity="1"/>
<polyline clip-path="url(#clip072)" style="stroke:#000000; stroke-linecap:round; stroke-linejoin:round; stroke-width:4; stroke-opacity:1; fill:none" points="2226.79,420.25 2226.79,1031.59 2247.25,1031.59 2247.25,420.25 2226.79,420.25 "/>
<path clip-path="url(#clip072)" d="M2252.37 513.005 L2252.37 1031.59 L2272.83 1031.59 L2272.83 513.005 L2252.37 513.005 L2252.37 513.005  Z" fill="#00008b" fill-rule="evenodd" fill-opacity="1"/>
<polyline clip-path="url(#clip072)" style="stroke:#000000; stroke-linecap:round; stroke-linejoin:round; stroke-width:4; stroke-opacity:1; fill:none" points="2252.37,513.005 2252.37,1031.59 2272.83,1031.59 2272.83,513.005 2252.37,513.005 "/>
<path clip-path="url(#clip072)" d="M2277.95 420.25 L2277.95 1031.59 L2298.41 1031.59 L2298.41 420.25 L2277.95 420.25 L2277.95 420.25  Z" fill="#00008b" fill-rule="evenodd" fill-opacity="1"/>
<polyline clip-path="url(#clip072)" style="stroke:#000000; stroke-linecap:round; stroke-linejoin:round; stroke-width:4; stroke-opacity:1; fill:none" points="2277.95,420.25 2277.95,1031.59 2298.41,1031.59 2298.41,420.25 2277.95,420.25 "/>
<path clip-path="url(#clip072)" d="M2303.53 424.466 L2303.53 1031.59 L2323.99 1031.59 L2323.99 424.466 L2303.53 424.466 L2303.53 424.466  Z" fill="#00008b" fill-rule="evenodd" fill-opacity="1"/>
<polyline clip-path="url(#clip072)" style="stroke:#000000; stroke-linecap:round; stroke-linejoin:round; stroke-width:4; stroke-opacity:1; fill:none" points="2303.53,424.466 2303.53,1031.59 2323.99,1031.59 2323.99,424.466 2303.53,424.466 "/>
<path clip-path="url(#clip072)" d="M2329.11 504.573 L2329.11 1031.59 L2349.57 1031.59 L2349.57 504.573 L2329.11 504.573 L2329.11 504.573  Z" fill="#00008b" fill-rule="evenodd" fill-opacity="1"/>
<polyline clip-path="url(#clip072)" style="stroke:#000000; stroke-linecap:round; stroke-linejoin:round; stroke-width:4; stroke-opacity:1; fill:none" points="2329.11,504.573 2329.11,1031.59 2349.57,1031.59 2349.57,504.573 2329.11,504.573 "/>
<path clip-path="url(#clip072)" d="M2354.69 475.06 L2354.69 1031.59 L2375.15 1031.59 L2375.15 475.06 L2354.69 475.06 L2354.69 475.06  Z" fill="#00008b" fill-rule="evenodd" fill-opacity="1"/>
<polyline clip-path="url(#clip072)" style="stroke:#000000; stroke-linecap:round; stroke-linejoin:round; stroke-width:4; stroke-opacity:1; fill:none" points="2354.69,475.06 2354.69,1031.59 2375.15,1031.59 2375.15,475.06 2354.69,475.06 "/>
<path clip-path="url(#clip072)" d="M2380.27 453.979 L2380.27 1031.59 L2400.73 1031.59 L2400.73 453.979 L2380.27 453.979 L2380.27 453.979  Z" fill="#00008b" fill-rule="evenodd" fill-opacity="1"/>
<polyline clip-path="url(#clip072)" style="stroke:#000000; stroke-linecap:round; stroke-linejoin:round; stroke-width:4; stroke-opacity:1; fill:none" points="2380.27,453.979 2380.27,1031.59 2400.73,1031.59 2400.73,453.979 2380.27,453.979 "/>
<path clip-path="url(#clip072)" d="M2405.85 567.815 L2405.85 1031.59 L2426.31 1031.59 L2426.31 567.815 L2405.85 567.815 L2405.85 567.815  Z" fill="#00008b" fill-rule="evenodd" fill-opacity="1"/>
<polyline clip-path="url(#clip072)" style="stroke:#000000; stroke-linecap:round; stroke-linejoin:round; stroke-width:4; stroke-opacity:1; fill:none" points="2405.85,567.815 2405.85,1031.59 2426.31,1031.59 2426.31,567.815 2405.85,567.815 "/>
<path clip-path="url(#clip072)" d="M2431.43 685.868 L2431.43 1031.59 L2451.89 1031.59 L2451.89 685.868 L2431.43 685.868 L2431.43 685.868  Z" fill="#00008b" fill-rule="evenodd" fill-opacity="1"/>
<polyline clip-path="url(#clip072)" style="stroke:#000000; stroke-linecap:round; stroke-linejoin:round; stroke-width:4; stroke-opacity:1; fill:none" points="2431.43,685.868 2431.43,1031.59 2451.89,1031.59 2451.89,685.868 2431.43,685.868 "/>
<path clip-path="url(#clip072)" d="M2457.01 622.626 L2457.01 1031.59 L2477.47 1031.59 L2477.47 622.626 L2457.01 622.626 L2457.01 622.626  Z" fill="#00008b" fill-rule="evenodd" fill-opacity="1"/>
<polyline clip-path="url(#clip072)" style="stroke:#000000; stroke-linecap:round; stroke-linejoin:round; stroke-width:4; stroke-opacity:1; fill:none" points="2457.01,622.626 2457.01,1031.59 2477.47,1031.59 2477.47,622.626 2457.01,622.626 "/>
<path clip-path="url(#clip072)" d="M2482.59 732.246 L2482.59 1031.59 L2503.05 1031.59 L2503.05 732.246 L2482.59 732.246 L2482.59 732.246  Z" fill="#00008b" fill-rule="evenodd" fill-opacity="1"/>
<polyline clip-path="url(#clip072)" style="stroke:#000000; stroke-linecap:round; stroke-linejoin:round; stroke-width:4; stroke-opacity:1; fill:none" points="2482.59,732.246 2482.59,1031.59 2503.05,1031.59 2503.05,732.246 2482.59,732.246 "/>
<path clip-path="url(#clip072)" d="M2508.17 728.03 L2508.17 1031.59 L2528.63 1031.59 L2528.63 728.03 L2508.17 728.03 L2508.17 728.03  Z" fill="#00008b" fill-rule="evenodd" fill-opacity="1"/>
<polyline clip-path="url(#clip072)" style="stroke:#000000; stroke-linecap:round; stroke-linejoin:round; stroke-width:4; stroke-opacity:1; fill:none" points="2508.17,728.03 2508.17,1031.59 2528.63,1031.59 2528.63,728.03 2508.17,728.03 "/>
<path clip-path="url(#clip072)" d="M2533.75 829.218 L2533.75 1031.59 L2554.21 1031.59 L2554.21 829.218 L2533.75 829.218 L2533.75 829.218  Z" fill="#00008b" fill-rule="evenodd" fill-opacity="1"/>
<polyline clip-path="url(#clip072)" style="stroke:#000000; stroke-linecap:round; stroke-linejoin:round; stroke-width:4; stroke-opacity:1; fill:none" points="2533.75,829.218 2533.75,1031.59 2554.21,1031.59 2554.21,829.218 2533.75,829.218 "/>
<path clip-path="url(#clip072)" d="M2559.33 774.408 L2559.33 1031.59 L2579.79 1031.59 L2579.79 774.408 L2559.33 774.408 L2559.33 774.408  Z" fill="#00008b" fill-rule="evenodd" fill-opacity="1"/>
<polyline clip-path="url(#clip072)" style="stroke:#000000; stroke-linecap:round; stroke-linejoin:round; stroke-width:4; stroke-opacity:1; fill:none" points="2559.33,774.408 2559.33,1031.59 2579.79,1031.59 2579.79,774.408 2559.33,774.408 "/>
<path clip-path="url(#clip072)" d="M2584.91 820.785 L2584.91 1031.59 L2605.37 1031.59 L2605.37 820.785 L2584.91 820.785 L2584.91 820.785  Z" fill="#00008b" fill-rule="evenodd" fill-opacity="1"/>
<polyline clip-path="url(#clip072)" style="stroke:#000000; stroke-linecap:round; stroke-linejoin:round; stroke-width:4; stroke-opacity:1; fill:none" points="2584.91,820.785 2584.91,1031.59 2605.37,1031.59 2605.37,820.785 2584.91,820.785 "/>
<path clip-path="url(#clip072)" d="M2610.49 858.731 L2610.49 1031.59 L2630.95 1031.59 L2630.95 858.731 L2610.49 858.731 L2610.49 858.731  Z" fill="#00008b" fill-rule="evenodd" fill-opacity="1"/>
<polyline clip-path="url(#clip072)" style="stroke:#000000; stroke-linecap:round; stroke-linejoin:round; stroke-width:4; stroke-opacity:1; fill:none" points="2610.49,858.731 2610.49,1031.59 2630.95,1031.59 2630.95,858.731 2610.49,858.731 "/>
<path clip-path="url(#clip072)" d="M2636.07 850.299 L2636.07 1031.59 L2656.53 1031.59 L2656.53 850.299 L2636.07 850.299 L2636.07 850.299  Z" fill="#00008b" fill-rule="evenodd" fill-opacity="1"/>
<polyline clip-path="url(#clip072)" style="stroke:#000000; stroke-linecap:round; stroke-linejoin:round; stroke-width:4; stroke-opacity:1; fill:none" points="2636.07,850.299 2636.07,1031.59 2656.53,1031.59 2656.53,850.299 2636.07,850.299 "/>
<path clip-path="url(#clip072)" d="M2661.65 896.676 L2661.65 1031.59 L2682.11 1031.59 L2682.11 896.676 L2661.65 896.676 L2661.65 896.676  Z" fill="#00008b" fill-rule="evenodd" fill-opacity="1"/>
<polyline clip-path="url(#clip072)" style="stroke:#000000; stroke-linecap:round; stroke-linejoin:round; stroke-width:4; stroke-opacity:1; fill:none" points="2661.65,896.676 2661.65,1031.59 2682.11,1031.59 2682.11,896.676 2661.65,896.676 "/>
<path clip-path="url(#clip072)" d="M2687.23 892.46 L2687.23 1031.59 L2707.69 1031.59 L2707.69 892.46 L2687.23 892.46 L2687.23 892.46  Z" fill="#00008b" fill-rule="evenodd" fill-opacity="1"/>
<polyline clip-path="url(#clip072)" style="stroke:#000000; stroke-linecap:round; stroke-linejoin:round; stroke-width:4; stroke-opacity:1; fill:none" points="2687.23,892.46 2687.23,1031.59 2707.69,1031.59 2707.69,892.46 2687.23,892.46 "/>
<path clip-path="url(#clip072)" d="M2712.81 879.812 L2712.81 1031.59 L2733.27 1031.59 L2733.27 879.812 L2712.81 879.812 L2712.81 879.812  Z" fill="#00008b" fill-rule="evenodd" fill-opacity="1"/>
<polyline clip-path="url(#clip072)" style="stroke:#000000; stroke-linecap:round; stroke-linejoin:round; stroke-width:4; stroke-opacity:1; fill:none" points="2712.81,879.812 2712.81,1031.59 2733.27,1031.59 2733.27,879.812 2712.81,879.812 "/>
<path clip-path="url(#clip072)" d="M2738.39 862.947 L2738.39 1031.59 L2758.85 1031.59 L2758.85 862.947 L2738.39 862.947 L2738.39 862.947  Z" fill="#00008b" fill-rule="evenodd" fill-opacity="1"/>
<polyline clip-path="url(#clip072)" style="stroke:#000000; stroke-linecap:round; stroke-linejoin:round; stroke-width:4; stroke-opacity:1; fill:none" points="2738.39,862.947 2738.39,1031.59 2758.85,1031.59 2758.85,862.947 2738.39,862.947 "/>
<path clip-path="url(#clip072)" d="M2763.97 879.812 L2763.97 1031.59 L2784.43 1031.59 L2784.43 879.812 L2763.97 879.812 L2763.97 879.812  Z" fill="#00008b" fill-rule="evenodd" fill-opacity="1"/>
<polyline clip-path="url(#clip072)" style="stroke:#000000; stroke-linecap:round; stroke-linejoin:round; stroke-width:4; stroke-opacity:1; fill:none" points="2763.97,879.812 2763.97,1031.59 2784.43,1031.59 2784.43,879.812 2763.97,879.812 "/>
<path clip-path="url(#clip072)" d="M2789.55 833.434 L2789.55 1031.59 L2810.01 1031.59 L2810.01 833.434 L2789.55 833.434 L2789.55 833.434  Z" fill="#00008b" fill-rule="evenodd" fill-opacity="1"/>
<polyline clip-path="url(#clip072)" style="stroke:#000000; stroke-linecap:round; stroke-linejoin:round; stroke-width:4; stroke-opacity:1; fill:none" points="2789.55,833.434 2789.55,1031.59 2810.01,1031.59 2810.01,833.434 2789.55,833.434 "/>
<path clip-path="url(#clip072)" d="M2815.13 943.054 L2815.13 1031.59 L2835.59 1031.59 L2835.59 943.054 L2815.13 943.054 L2815.13 943.054  Z" fill="#00008b" fill-rule="evenodd" fill-opacity="1"/>
<polyline clip-path="url(#clip072)" style="stroke:#000000; stroke-linecap:round; stroke-linejoin:round; stroke-width:4; stroke-opacity:1; fill:none" points="2815.13,943.054 2815.13,1031.59 2835.59,1031.59 2835.59,943.054 2815.13,943.054 "/>
<path clip-path="url(#clip072)" d="M2840.71 888.244 L2840.71 1031.59 L2861.17 1031.59 L2861.17 888.244 L2840.71 888.244 L2840.71 888.244  Z" fill="#00008b" fill-rule="evenodd" fill-opacity="1"/>
<polyline clip-path="url(#clip072)" style="stroke:#000000; stroke-linecap:round; stroke-linejoin:round; stroke-width:4; stroke-opacity:1; fill:none" points="2840.71,888.244 2840.71,1031.59 2861.17,1031.59 2861.17,888.244 2840.71,888.244 "/>
<path clip-path="url(#clip072)" d="M2866.29 854.515 L2866.29 1031.59 L2886.75 1031.59 L2886.75 854.515 L2866.29 854.515 L2866.29 854.515  Z" fill="#00008b" fill-rule="evenodd" fill-opacity="1"/>
<polyline clip-path="url(#clip072)" style="stroke:#000000; stroke-linecap:round; stroke-linejoin:round; stroke-width:4; stroke-opacity:1; fill:none" points="2866.29,854.515 2866.29,1031.59 2886.75,1031.59 2886.75,854.515 2866.29,854.515 "/>
<path clip-path="url(#clip072)" d="M2891.87 917.757 L2891.87 1031.59 L2912.33 1031.59 L2912.33 917.757 L2891.87 917.757 L2891.87 917.757  Z" fill="#00008b" fill-rule="evenodd" fill-opacity="1"/>
<polyline clip-path="url(#clip072)" style="stroke:#000000; stroke-linecap:round; stroke-linejoin:round; stroke-width:4; stroke-opacity:1; fill:none" points="2891.87,917.757 2891.87,1031.59 2912.33,1031.59 2912.33,917.757 2891.87,917.757 "/>
<path clip-path="url(#clip072)" d="M2917.45 871.379 L2917.45 1031.59 L2937.91 1031.59 L2937.91 871.379 L2917.45 871.379 L2917.45 871.379  Z" fill="#00008b" fill-rule="evenodd" fill-opacity="1"/>
<polyline clip-path="url(#clip072)" style="stroke:#000000; stroke-linecap:round; stroke-linejoin:round; stroke-width:4; stroke-opacity:1; fill:none" points="2917.45,871.379 2917.45,1031.59 2937.91,1031.59 2937.91,871.379 2917.45,871.379 "/>
<path clip-path="url(#clip072)" d="M2943.03 875.596 L2943.03 1031.59 L2963.49 1031.59 L2963.49 875.596 L2943.03 875.596 L2943.03 875.596  Z" fill="#00008b" fill-rule="evenodd" fill-opacity="1"/>
<polyline clip-path="url(#clip072)" style="stroke:#000000; stroke-linecap:round; stroke-linejoin:round; stroke-width:4; stroke-opacity:1; fill:none" points="2943.03,875.596 2943.03,1031.59 2963.49,1031.59 2963.49,875.596 2943.03,875.596 "/>
<circle clip-path="url(#clip072)" style="fill:#00008b; stroke:none; fill-opacity:0" cx="420.832" cy="820.785" r="2"/>
<circle clip-path="url(#clip072)" style="fill:#00008b; stroke:none; fill-opacity:0" cx="446.412" cy="740.678" r="2"/>
<circle clip-path="url(#clip072)" style="fill:#00008b; stroke:none; fill-opacity:0" cx="471.992" cy="749.111" r="2"/>
<circle clip-path="url(#clip072)" style="fill:#00008b; stroke:none; fill-opacity:0" cx="497.572" cy="702.733" r="2"/>
<circle clip-path="url(#clip072)" style="fill:#00008b; stroke:none; fill-opacity:0" cx="523.152" cy="669.003" r="2"/>
<circle clip-path="url(#clip072)" style="fill:#00008b; stroke:none; fill-opacity:0" cx="548.733" cy="715.381" r="2"/>
<circle clip-path="url(#clip072)" style="fill:#00008b; stroke:none; fill-opacity:0" cx="574.313" cy="656.355" r="2"/>
<circle clip-path="url(#clip072)" style="fill:#00008b; stroke:none; fill-opacity:0" cx="599.893" cy="483.492" r="2"/>
<circle clip-path="url(#clip072)" style="fill:#00008b; stroke:none; fill-opacity:0" cx="625.473" cy="601.545" r="2"/>
<circle clip-path="url(#clip072)" style="fill:#00008b; stroke:none; fill-opacity:0" cx="651.053" cy="483.492" r="2"/>
<circle clip-path="url(#clip072)" style="fill:#00008b; stroke:none; fill-opacity:0" cx="676.633" cy="521.438" r="2"/>
<circle clip-path="url(#clip072)" style="fill:#00008b; stroke:none; fill-opacity:0" cx="702.213" cy="411.817" r="2"/>
<circle clip-path="url(#clip072)" style="fill:#00008b; stroke:none; fill-opacity:0" cx="727.793" cy="344.359" r="2"/>
<circle clip-path="url(#clip072)" style="fill:#00008b; stroke:none; fill-opacity:0" cx="753.373" cy="323.278" r="2"/>
<circle clip-path="url(#clip072)" style="fill:#00008b; stroke:none; fill-opacity:0" cx="778.953" cy="276.9" r="2"/>
<circle clip-path="url(#clip072)" style="fill:#00008b; stroke:none; fill-opacity:0" cx="804.533" cy="192.577" r="2"/>
<circle clip-path="url(#clip072)" style="fill:#00008b; stroke:none; fill-opacity:0" cx="830.113" cy="222.09" r="2"/>
<circle clip-path="url(#clip072)" style="fill:#00008b; stroke:none; fill-opacity:0" cx="855.693" cy="289.548" r="2"/>
<circle clip-path="url(#clip072)" style="fill:#00008b; stroke:none; fill-opacity:0" cx="881.273" cy="222.09" r="2"/>
<circle clip-path="url(#clip072)" style="fill:#00008b; stroke:none; fill-opacity:0" cx="906.854" cy="192.577" r="2"/>
<circle clip-path="url(#clip072)" style="fill:#00008b; stroke:none; fill-opacity:0" cx="932.434" cy="78.7402" r="2"/>
<circle clip-path="url(#clip072)" style="fill:#00008b; stroke:none; fill-opacity:0" cx="958.014" cy="238.954" r="2"/>
<circle clip-path="url(#clip072)" style="fill:#00008b; stroke:none; fill-opacity:0" cx="983.594" cy="302.197" r="2"/>
<circle clip-path="url(#clip072)" style="fill:#00008b; stroke:none; fill-opacity:0" cx="1009.17" cy="285.332" r="2"/>
<circle clip-path="url(#clip072)" style="fill:#00008b; stroke:none; fill-opacity:0" cx="1034.75" cy="281.116" r="2"/>
<circle clip-path="url(#clip072)" style="fill:#00008b; stroke:none; fill-opacity:0" cx="1060.33" cy="306.413" r="2"/>
<circle clip-path="url(#clip072)" style="fill:#00008b; stroke:none; fill-opacity:0" cx="1085.91" cy="319.062" r="2"/>
<circle clip-path="url(#clip072)" style="fill:#00008b; stroke:none; fill-opacity:0" cx="1111.49" cy="416.033" r="2"/>
<circle clip-path="url(#clip072)" style="fill:#00008b; stroke:none; fill-opacity:0" cx="1137.07" cy="491.924" r="2"/>
<circle clip-path="url(#clip072)" style="fill:#00008b; stroke:none; fill-opacity:0" cx="1162.65" cy="550.951" r="2"/>
<circle clip-path="url(#clip072)" style="fill:#00008b; stroke:none; fill-opacity:0" cx="1188.23" cy="550.951" r="2"/>
<circle clip-path="url(#clip072)" style="fill:#00008b; stroke:none; fill-opacity:0" cx="1213.81" cy="626.842" r="2"/>
<circle clip-path="url(#clip072)" style="fill:#00008b; stroke:none; fill-opacity:0" cx="1239.39" cy="669.003" r="2"/>
<circle clip-path="url(#clip072)" style="fill:#00008b; stroke:none; fill-opacity:0" cx="1264.97" cy="647.923" r="2"/>
<circle clip-path="url(#clip072)" style="fill:#00008b; stroke:none; fill-opacity:0" cx="1290.55" cy="749.111" r="2"/>
<circle clip-path="url(#clip072)" style="fill:#00008b; stroke:none; fill-opacity:0" cx="1316.13" cy="791.272" r="2"/>
<circle clip-path="url(#clip072)" style="fill:#00008b; stroke:none; fill-opacity:0" cx="1341.71" cy="854.515" r="2"/>
<circle clip-path="url(#clip072)" style="fill:#00008b; stroke:none; fill-opacity:0" cx="1367.29" cy="774.408" r="2"/>
<circle clip-path="url(#clip072)" style="fill:#00008b; stroke:none; fill-opacity:0" cx="1392.87" cy="854.515" r="2"/>
<circle clip-path="url(#clip072)" style="fill:#00008b; stroke:none; fill-opacity:0" cx="1418.45" cy="858.731" r="2"/>
<circle clip-path="url(#clip072)" style="fill:#00008b; stroke:none; fill-opacity:0" cx="1444.04" cy="846.082" r="2"/>
<circle clip-path="url(#clip072)" style="fill:#00008b; stroke:none; fill-opacity:0" cx="1469.62" cy="829.218" r="2"/>
<circle clip-path="url(#clip072)" style="fill:#00008b; stroke:none; fill-opacity:0" cx="1495.2" cy="820.785" r="2"/>
<circle clip-path="url(#clip072)" style="fill:#00008b; stroke:none; fill-opacity:0" cx="1520.78" cy="888.244" r="2"/>
<circle clip-path="url(#clip072)" style="fill:#00008b; stroke:none; fill-opacity:0" cx="1546.36" cy="837.65" r="2"/>
<circle clip-path="url(#clip072)" style="fill:#00008b; stroke:none; fill-opacity:0" cx="1571.94" cy="871.379" r="2"/>
<circle clip-path="url(#clip072)" style="fill:#00008b; stroke:none; fill-opacity:0" cx="1597.52" cy="841.866" r="2"/>
<circle clip-path="url(#clip072)" style="fill:#00008b; stroke:none; fill-opacity:0" cx="1623.1" cy="871.379" r="2"/>
<circle clip-path="url(#clip072)" style="fill:#00008b; stroke:none; fill-opacity:0" cx="1648.68" cy="837.65" r="2"/>
<circle clip-path="url(#clip072)" style="fill:#00008b; stroke:none; fill-opacity:0" cx="1674.26" cy="862.947" r="2"/>
<circle clip-path="url(#clip072)" style="fill:#00008b; stroke:none; fill-opacity:0" cx="1699.84" cy="795.488" r="2"/>
<circle clip-path="url(#clip072)" style="fill:#00008b; stroke:none; fill-opacity:0" cx="1725.42" cy="854.515" r="2"/>
<circle clip-path="url(#clip072)" style="fill:#00008b; stroke:none; fill-opacity:0" cx="1751" cy="829.218" r="2"/>
<circle clip-path="url(#clip072)" style="fill:#00008b; stroke:none; fill-opacity:0" cx="1776.58" cy="782.84" r="2"/>
<circle clip-path="url(#clip072)" style="fill:#00008b; stroke:none; fill-opacity:0" cx="1802.16" cy="774.408" r="2"/>
<circle clip-path="url(#clip072)" style="fill:#00008b; stroke:none; fill-opacity:0" cx="1827.74" cy="736.462" r="2"/>
<circle clip-path="url(#clip072)" style="fill:#00008b; stroke:none; fill-opacity:0" cx="1853.32" cy="791.272" r="2"/>
<circle clip-path="url(#clip072)" style="fill:#00008b; stroke:none; fill-opacity:0" cx="1878.9" cy="778.624" r="2"/>
<circle clip-path="url(#clip072)" style="fill:#00008b; stroke:none; fill-opacity:0" cx="1904.48" cy="698.517" r="2"/>
<circle clip-path="url(#clip072)" style="fill:#00008b; stroke:none; fill-opacity:0" cx="1930.06" cy="694.3" r="2"/>
<circle clip-path="url(#clip072)" style="fill:#00008b; stroke:none; fill-opacity:0" cx="1955.64" cy="656.355" r="2"/>
<circle clip-path="url(#clip072)" style="fill:#00008b; stroke:none; fill-opacity:0" cx="1981.22" cy="660.571" r="2"/>
<circle clip-path="url(#clip072)" style="fill:#00008b; stroke:none; fill-opacity:0" cx="2006.8" cy="618.409" r="2"/>
<circle clip-path="url(#clip072)" style="fill:#00008b; stroke:none; fill-opacity:0" cx="2032.38" cy="483.492" r="2"/>
<circle clip-path="url(#clip072)" style="fill:#00008b; stroke:none; fill-opacity:0" cx="2057.96" cy="584.68" r="2"/>
<circle clip-path="url(#clip072)" style="fill:#00008b; stroke:none; fill-opacity:0" cx="2083.54" cy="525.654" r="2"/>
<circle clip-path="url(#clip072)" style="fill:#00008b; stroke:none; fill-opacity:0" cx="2109.12" cy="441.33" r="2"/>
<circle clip-path="url(#clip072)" style="fill:#00008b; stroke:none; fill-opacity:0" cx="2134.7" cy="513.005" r="2"/>
<circle clip-path="url(#clip072)" style="fill:#00008b; stroke:none; fill-opacity:0" cx="2160.28" cy="475.06" r="2"/>
<circle clip-path="url(#clip072)" style="fill:#00008b; stroke:none; fill-opacity:0" cx="2185.86" cy="369.656" r="2"/>
<circle clip-path="url(#clip072)" style="fill:#00008b; stroke:none; fill-opacity:0" cx="2211.44" cy="407.601" r="2"/>
<circle clip-path="url(#clip072)" style="fill:#00008b; stroke:none; fill-opacity:0" cx="2237.02" cy="420.25" r="2"/>
<circle clip-path="url(#clip072)" style="fill:#00008b; stroke:none; fill-opacity:0" cx="2262.6" cy="513.005" r="2"/>
<circle clip-path="url(#clip072)" style="fill:#00008b; stroke:none; fill-opacity:0" cx="2288.18" cy="420.25" r="2"/>
<circle clip-path="url(#clip072)" style="fill:#00008b; stroke:none; fill-opacity:0" cx="2313.76" cy="424.466" r="2"/>
<circle clip-path="url(#clip072)" style="fill:#00008b; stroke:none; fill-opacity:0" cx="2339.34" cy="504.573" r="2"/>
<circle clip-path="url(#clip072)" style="fill:#00008b; stroke:none; fill-opacity:0" cx="2364.92" cy="475.06" r="2"/>
<circle clip-path="url(#clip072)" style="fill:#00008b; stroke:none; fill-opacity:0" cx="2390.5" cy="453.979" r="2"/>
<circle clip-path="url(#clip072)" style="fill:#00008b; stroke:none; fill-opacity:0" cx="2416.08" cy="567.815" r="2"/>
<circle clip-path="url(#clip072)" style="fill:#00008b; stroke:none; fill-opacity:0" cx="2441.66" cy="685.868" r="2"/>
<circle clip-path="url(#clip072)" style="fill:#00008b; stroke:none; fill-opacity:0" cx="2467.24" cy="622.626" r="2"/>
<circle clip-path="url(#clip072)" style="fill:#00008b; stroke:none; fill-opacity:0" cx="2492.82" cy="732.246" r="2"/>
<circle clip-path="url(#clip072)" style="fill:#00008b; stroke:none; fill-opacity:0" cx="2518.4" cy="728.03" r="2"/>
<circle clip-path="url(#clip072)" style="fill:#00008b; stroke:none; fill-opacity:0" cx="2543.98" cy="829.218" r="2"/>
<circle clip-path="url(#clip072)" style="fill:#00008b; stroke:none; fill-opacity:0" cx="2569.56" cy="774.408" r="2"/>
<circle clip-path="url(#clip072)" style="fill:#00008b; stroke:none; fill-opacity:0" cx="2595.14" cy="820.785" r="2"/>
<circle clip-path="url(#clip072)" style="fill:#00008b; stroke:none; fill-opacity:0" cx="2620.72" cy="858.731" r="2"/>
<circle clip-path="url(#clip072)" style="fill:#00008b; stroke:none; fill-opacity:0" cx="2646.3" cy="850.299" r="2"/>
<circle clip-path="url(#clip072)" style="fill:#00008b; stroke:none; fill-opacity:0" cx="2671.88" cy="896.676" r="2"/>
<circle clip-path="url(#clip072)" style="fill:#00008b; stroke:none; fill-opacity:0" cx="2697.46" cy="892.46" r="2"/>
<circle clip-path="url(#clip072)" style="fill:#00008b; stroke:none; fill-opacity:0" cx="2723.04" cy="879.812" r="2"/>
<circle clip-path="url(#clip072)" style="fill:#00008b; stroke:none; fill-opacity:0" cx="2748.62" cy="862.947" r="2"/>
<circle clip-path="url(#clip072)" style="fill:#00008b; stroke:none; fill-opacity:0" cx="2774.2" cy="879.812" r="2"/>
<circle clip-path="url(#clip072)" style="fill:#00008b; stroke:none; fill-opacity:0" cx="2799.78" cy="833.434" r="2"/>
<circle clip-path="url(#clip072)" style="fill:#00008b; stroke:none; fill-opacity:0" cx="2825.36" cy="943.054" r="2"/>
<circle clip-path="url(#clip072)" style="fill:#00008b; stroke:none; fill-opacity:0" cx="2850.94" cy="888.244" r="2"/>
<circle clip-path="url(#clip072)" style="fill:#00008b; stroke:none; fill-opacity:0" cx="2876.52" cy="854.515" r="2"/>
<circle clip-path="url(#clip072)" style="fill:#00008b; stroke:none; fill-opacity:0" cx="2902.1" cy="917.757" r="2"/>
<circle clip-path="url(#clip072)" style="fill:#00008b; stroke:none; fill-opacity:0" cx="2927.68" cy="871.379" r="2"/>
<circle clip-path="url(#clip072)" style="fill:#00008b; stroke:none; fill-opacity:0" cx="2953.26" cy="875.596" r="2"/>
</svg>
