<?xml version="1.0" encoding="utf-8"?>
<svg xmlns="http://www.w3.org/2000/svg" xmlns:xlink="http://www.w3.org/1999/xlink" width="800" height="300" viewBox="0 0 3200 1200">
<defs>
  <clipPath id="clip330">
    <rect x="0" y="0" width="3200" height="1200"/>
  </clipPath>
</defs>
<path clip-path="url(#clip330)" d="M0 1200 L3200 1200 L3200 0 L0 0  Z" fill="#ffffff" fill-rule="evenodd" fill-opacity="1"/>
<defs>
  <clipPath id="clip331">
    <rect x="640" y="0" width="2241" height="1200"/>
  </clipPath>
</defs>
<path clip-path="url(#clip330)" d="M251.095 1031.59 L3121.26 1031.59 L3121.26 78.7402 L251.095 78.7402  Z" fill="#ffffff" fill-rule="evenodd" fill-opacity="1"/>
<defs>
  <clipPath id="clip332">
    <rect x="251" y="78" width="2871" height="954"/>
  </clipPath>
</defs>
<polyline clip-path="url(#clip332)" style="stroke:#000000; stroke-linecap:round; stroke-linejoin:round; stroke-width:2; stroke-opacity:0.1; fill:none" points="393.602,1031.59 393.602,78.7402 "/>
<polyline clip-path="url(#clip332)" style="stroke:#000000; stroke-linecap:round; stroke-linejoin:round; stroke-width:2; stroke-opacity:0.1; fill:none" points="1033.49,1031.59 1033.49,78.7402 "/>
<polyline clip-path="url(#clip332)" style="stroke:#000000; stroke-linecap:round; stroke-linejoin:round; stroke-width:2; stroke-opacity:0.1; fill:none" points="1673.38,1031.59 1673.38,78.7402 "/>
<polyline clip-path="url(#clip332)" style="stroke:#000000; stroke-linecap:round; stroke-linejoin:round; stroke-width:2; stroke-opacity:0.1; fill:none" points="2313.27,1031.59 2313.27,78.7402 "/>
<polyline clip-path="url(#clip332)" style="stroke:#000000; stroke-linecap:round; stroke-linejoin:round; stroke-width:2; stroke-opacity:0.1; fill:none" points="2953.16,1031.59 2953.16,78.7402 "/>
<polyline clip-path="url(#clip330)" style="stroke:#000000; stroke-linecap:round; stroke-linejoin:round; stroke-width:4; stroke-opacity:1; fill:none" points="251.095,1031.59 3121.26,1031.59 "/>
<polyline clip-path="url(#clip330)" style="stroke:#000000; stroke-linecap:round; stroke-linejoin:round; stroke-width:4; stroke-opacity:1; fill:none" points="393.602,1031.59 393.602,1012.7 "/>
<polyline clip-path="url(#clip330)" style="stroke:#000000; stroke-linecap:round; stroke-linejoin:round; stroke-width:4; stroke-opacity:1; fill:none" points="1033.49,1031.59 1033.49,1012.7 "/>
<polyline clip-path="url(#clip330)" style="stroke:#000000; stroke-linecap:round; stroke-linejoin:round; stroke-width:4; stroke-opacity:1; fill:none" points="1673.38,1031.59 1673.38,1012.7 "/>
<polyline clip-path="url(#clip330)" style="stroke:#000000; stroke-linecap:round; stroke-linejoin:round; stroke-width:4; stroke-opacity:1; fill:none" points="2313.27,1031.59 2313.27,1012.7 "/>
<polyline clip-path="url(#clip330)" style="stroke:#000000; stroke-linecap:round; stroke-linejoin:round; stroke-width:4; stroke-opacity:1; fill:none" points="2953.16,1031.59 2953.16,1012.7 "/>
<path clip-path="url(#clip330)" d="M393.602 1068.91 Q389.991 1068.91 388.162 1072.48 Q386.357 1076.02 386.357 1083.15 Q386.357 1090.25 388.162 1093.82 Q389.991 1097.36 393.602 1097.36 Q397.236 1097.36 399.042 1093.82 Q400.871 1090.25 400.871 1083.15 Q400.871 1076.02 399.042 1072.48 Q397.236 1068.91 393.602 1068.91 M393.602 1065.21 Q399.412 1065.21 402.468 1069.82 Q405.547 1074.4 405.547 1083.15 Q405.547 1091.88 402.468 1096.48 Q399.412 1101.07 393.602 1101.07 Q387.792 1101.07 384.713 1096.48 Q381.658 1091.88 381.658 1083.15 Q381.658 1074.4 384.713 1069.82 Q387.792 1065.21 393.602 1065.21 Z" fill="#000000" fill-rule="nonzero" fill-opacity="1" /><path clip-path="url(#clip330)" d="M1012.76 1096.46 L1029.08 1096.46 L1029.08 1100.39 L1007.14 1100.39 L1007.14 1096.46 Q1009.8 1093.7 1014.38 1089.07 Q1018.99 1084.42 1020.17 1083.08 Q1022.41 1080.56 1023.29 1078.82 Q1024.2 1077.06 1024.2 1075.37 Q1024.2 1072.62 1022.25 1070.88 Q1020.33 1069.14 1017.23 1069.14 Q1015.03 1069.14 1012.58 1069.91 Q1010.15 1070.67 1007.37 1072.22 L1007.37 1067.5 Q1010.19 1066.37 1012.65 1065.79 Q1015.1 1065.21 1017.14 1065.21 Q1022.51 1065.21 1025.7 1067.89 Q1028.9 1070.58 1028.9 1075.07 Q1028.9 1077.2 1028.09 1079.12 Q1027.3 1081.02 1025.19 1083.61 Q1024.61 1084.28 1021.51 1087.5 Q1018.41 1090.69 1012.76 1096.46 Z" fill="#000000" fill-rule="nonzero" fill-opacity="1" /><path clip-path="url(#clip330)" d="M1038.94 1065.83 L1057.3 1065.83 L1057.3 1069.77 L1043.22 1069.77 L1043.22 1078.24 Q1044.24 1077.89 1045.26 1077.73 Q1046.28 1077.55 1047.3 1077.55 Q1053.09 1077.55 1056.47 1080.72 Q1059.85 1083.89 1059.85 1089.31 Q1059.85 1094.88 1056.37 1097.99 Q1052.9 1101.07 1046.58 1101.07 Q1044.41 1101.07 1042.14 1100.69 Q1039.89 1100.32 1037.48 1099.58 L1037.48 1094.88 Q1039.57 1096.02 1041.79 1096.57 Q1044.01 1097.13 1046.49 1097.13 Q1050.49 1097.13 1052.83 1095.02 Q1055.17 1092.92 1055.17 1089.31 Q1055.17 1085.69 1052.83 1083.59 Q1050.49 1081.48 1046.49 1081.48 Q1044.61 1081.48 1042.74 1081.9 Q1040.89 1082.32 1038.94 1083.19 L1038.94 1065.83 Z" fill="#000000" fill-rule="nonzero" fill-opacity="1" /><path clip-path="url(#clip330)" d="M1648.08 1065.83 L1666.44 1065.83 L1666.44 1069.77 L1652.36 1069.77 L1652.36 1078.24 Q1653.38 1077.89 1654.4 1077.73 Q1655.42 1077.55 1656.44 1077.55 Q1662.22 1077.55 1665.6 1080.72 Q1668.98 1083.89 1668.98 1089.31 Q1668.98 1094.88 1665.51 1097.99 Q1662.04 1101.07 1655.72 1101.07 Q1653.54 1101.07 1651.27 1100.69 Q1649.03 1100.32 1646.62 1099.58 L1646.62 1094.88 Q1648.7 1096.02 1650.93 1096.57 Q1653.15 1097.13 1655.63 1097.13 Q1659.63 1097.13 1661.97 1095.02 Q1664.31 1092.92 1664.31 1089.31 Q1664.31 1085.69 1661.97 1083.59 Q1659.63 1081.48 1655.63 1081.48 Q1653.75 1081.48 1651.88 1081.9 Q1650.02 1082.32 1648.08 1083.19 L1648.08 1065.83 Z" fill="#000000" fill-rule="nonzero" fill-opacity="1" /><path clip-path="url(#clip330)" d="M1688.19 1068.91 Q1684.58 1068.91 1682.75 1072.48 Q1680.95 1076.02 1680.95 1083.15 Q1680.95 1090.25 1682.75 1093.82 Q1684.58 1097.36 1688.19 1097.36 Q1691.83 1097.36 1693.63 1093.82 Q1695.46 1090.25 1695.46 1083.15 Q1695.46 1076.02 1693.63 1072.48 Q1691.83 1068.91 1688.19 1068.91 M1688.19 1065.21 Q1694 1065.21 1697.06 1069.82 Q1700.14 1074.4 1700.14 1083.15 Q1700.14 1091.88 1697.06 1096.48 Q1694 1101.07 1688.19 1101.07 Q1682.38 1101.07 1679.31 1096.48 Q1676.25 1091.88 1676.25 1083.15 Q1676.25 1074.4 1679.31 1069.82 Q1682.38 1065.21 1688.19 1065.21 Z" fill="#000000" fill-rule="nonzero" fill-opacity="1" /><path clip-path="url(#clip330)" d="M2287.12 1065.83 L2309.35 1065.83 L2309.35 1067.82 L2296.8 1100.39 L2291.91 1100.39 L2303.72 1069.77 L2287.12 1069.77 L2287.12 1065.83 Z" fill="#000000" fill-rule="nonzero" fill-opacity="1" /><path clip-path="url(#clip330)" d="M2318.51 1065.83 L2336.87 1065.83 L2336.87 1069.77 L2322.79 1069.77 L2322.79 1078.24 Q2323.81 1077.89 2324.83 1077.73 Q2325.85 1077.55 2326.87 1077.55 Q2332.66 1077.55 2336.03 1080.72 Q2339.41 1083.89 2339.41 1089.31 Q2339.41 1094.88 2335.94 1097.99 Q2332.47 1101.07 2326.15 1101.07 Q2323.97 1101.07 2321.71 1100.69 Q2319.46 1100.32 2317.05 1099.58 L2317.05 1094.88 Q2319.14 1096.02 2321.36 1096.57 Q2323.58 1097.13 2326.06 1097.13 Q2330.06 1097.13 2332.4 1095.02 Q2334.74 1092.92 2334.74 1089.31 Q2334.74 1085.69 2332.4 1083.59 Q2330.06 1081.48 2326.06 1081.48 Q2324.18 1081.48 2322.31 1081.9 Q2320.46 1082.32 2318.51 1083.19 L2318.51 1065.83 Z" fill="#000000" fill-rule="nonzero" fill-opacity="1" /><path clip-path="url(#clip330)" d="M2912.76 1096.46 L2920.4 1096.46 L2920.4 1070.09 L2912.09 1071.76 L2912.09 1067.5 L2920.36 1065.83 L2925.03 1065.83 L2925.03 1096.46 L2932.67 1096.46 L2932.67 1100.39 L2912.76 1100.39 L2912.76 1096.46 Z" fill="#000000" fill-rule="nonzero" fill-opacity="1" /><path clip-path="url(#clip330)" d="M2952.12 1068.91 Q2948.5 1068.91 2946.68 1072.48 Q2944.87 1076.02 2944.87 1083.15 Q2944.87 1090.25 2946.68 1093.82 Q2948.5 1097.36 2952.12 1097.36 Q2955.75 1097.36 2957.56 1093.82 Q2959.38 1090.25 2959.38 1083.15 Q2959.38 1076.02 2957.56 1072.48 Q2955.75 1068.91 2952.12 1068.91 M2952.12 1065.21 Q2957.93 1065.21 2960.98 1069.82 Q2964.06 1074.4 2964.06 1083.15 Q2964.06 1091.88 2960.98 1096.48 Q2957.93 1101.07 2952.12 1101.07 Q2946.31 1101.07 2943.23 1096.48 Q2940.17 1091.88 2940.17 1083.15 Q2940.17 1074.4 2943.23 1069.82 Q2946.31 1065.21 2952.12 1065.21 Z" fill="#000000" fill-rule="nonzero" fill-opacity="1" /><path clip-path="url(#clip330)" d="M2982.28 1068.91 Q2978.67 1068.91 2976.84 1072.48 Q2975.03 1076.02 2975.03 1083.15 Q2975.03 1090.25 2976.84 1093.82 Q2978.67 1097.36 2982.28 1097.36 Q2985.91 1097.36 2987.72 1093.82 Q2989.55 1090.25 2989.55 1083.15 Q2989.55 1076.02 2987.72 1072.48 Q2985.91 1068.91 2982.28 1068.91 M2982.28 1065.21 Q2988.09 1065.21 2991.14 1069.82 Q2994.22 1074.4 2994.22 1083.15 Q2994.22 1091.88 2991.14 1096.48 Q2988.09 1101.07 2982.28 1101.07 Q2976.47 1101.07 2973.39 1096.48 Q2970.33 1091.88 2970.33 1083.15 Q2970.33 1074.4 2973.39 1069.82 Q2976.47 1065.21 2982.28 1065.21 Z" fill="#000000" fill-rule="nonzero" fill-opacity="1" /><path clip-path="url(#clip330)" d="M1496.4 1140.94 L1536.6 1140.94 L1536.6 1146.35 L1519.73 1146.35 L1519.73 1188.46 L1513.27 1188.46 L1513.27 1146.35 L1496.4 1146.35 L1496.4 1140.94 Z" fill="#000000" fill-rule="nonzero" fill-opacity="1" /><path clip-path="url(#clip330)" d="M1540.55 1152.81 L1546.4 1152.81 L1546.4 1188.46 L1540.55 1188.46 L1540.55 1152.81 M1540.55 1138.93 L1546.4 1138.93 L1546.4 1146.35 L1540.55 1146.35 L1540.55 1138.93 Z" fill="#000000" fill-rule="nonzero" fill-opacity="1" /><path clip-path="url(#clip330)" d="M1586.41 1159.65 Q1588.61 1155.71 1591.66 1153.83 Q1594.72 1151.95 1598.86 1151.95 Q1604.43 1151.95 1607.45 1155.87 Q1610.47 1159.75 1610.47 1166.94 L1610.47 1188.46 L1604.59 1188.46 L1604.59 1167.13 Q1604.59 1162.01 1602.77 1159.53 Q1600.96 1157.04 1597.23 1157.04 Q1592.68 1157.04 1590.04 1160.07 Q1587.4 1163.09 1587.4 1168.31 L1587.4 1188.46 L1581.51 1188.46 L1581.51 1167.13 Q1581.51 1161.98 1579.7 1159.53 Q1577.88 1157.04 1574.09 1157.04 Q1569.61 1157.04 1566.96 1160.1 Q1564.32 1163.12 1564.32 1168.31 L1564.32 1188.46 L1558.43 1188.46 L1558.43 1152.81 L1564.32 1152.81 L1564.32 1158.35 Q1566.33 1155.07 1569.13 1153.51 Q1571.93 1151.95 1575.78 1151.95 Q1579.66 1151.95 1582.37 1153.92 Q1585.11 1155.9 1586.41 1159.65 Z" fill="#000000" fill-rule="nonzero" fill-opacity="1" /><path clip-path="url(#clip330)" d="M1652.65 1169.17 L1652.65 1172.03 L1625.72 1172.03 Q1626.1 1178.08 1629.35 1181.26 Q1632.63 1184.42 1638.45 1184.42 Q1641.82 1184.42 1644.98 1183.59 Q1648.16 1182.76 1651.28 1181.11 L1651.28 1186.64 Q1648.13 1187.98 1644.82 1188.68 Q1641.51 1189.38 1638.1 1189.38 Q1629.57 1189.38 1624.57 1184.42 Q1619.61 1179.45 1619.61 1170.98 Q1619.61 1162.23 1624.32 1157.11 Q1629.06 1151.95 1637.08 1151.95 Q1644.28 1151.95 1648.44 1156.6 Q1652.65 1161.21 1652.65 1169.17 M1646.79 1167.45 Q1646.73 1162.64 1644.08 1159.78 Q1641.47 1156.92 1637.15 1156.92 Q1632.24 1156.92 1629.28 1159.68 Q1626.36 1162.45 1625.91 1167.48 L1646.79 1167.45 Z" fill="#000000" fill-rule="nonzero" fill-opacity="1" /><path clip-path="url(#clip330)" d="M1697.05 1139 Q1692.78 1146.32 1690.71 1153.48 Q1688.64 1160.64 1688.64 1167.99 Q1688.64 1175.34 1690.71 1182.57 Q1692.81 1189.76 1697.05 1197.05 L1691.95 1197.05 Q1687.18 1189.57 1684.79 1182.35 Q1682.44 1175.12 1682.44 1167.99 Q1682.44 1160.89 1684.79 1153.7 Q1687.15 1146.51 1691.95 1139 L1697.05 1139 Z" fill="#000000" fill-rule="nonzero" fill-opacity="1" /><path clip-path="url(#clip330)" d="M1731.87 1158.22 L1731.87 1138.93 L1737.72 1138.93 L1737.72 1188.46 L1731.87 1188.46 L1731.87 1183.11 Q1730.02 1186.29 1727.19 1187.85 Q1724.39 1189.38 1720.44 1189.38 Q1713.98 1189.38 1709.91 1184.22 Q1705.86 1179.07 1705.86 1170.67 Q1705.86 1162.26 1709.91 1157.11 Q1713.98 1151.95 1720.44 1151.95 Q1724.39 1151.95 1727.19 1153.51 Q1730.02 1155.04 1731.87 1158.22 M1711.91 1170.67 Q1711.91 1177.13 1714.55 1180.82 Q1717.23 1184.48 1721.87 1184.48 Q1726.52 1184.48 1729.19 1180.82 Q1731.87 1177.13 1731.87 1170.67 Q1731.87 1164.2 1729.19 1160.54 Q1726.52 1156.85 1721.87 1156.85 Q1717.23 1156.85 1714.55 1160.54 Q1711.91 1164.2 1711.91 1170.67 Z" fill="#000000" fill-rule="nonzero" fill-opacity="1" /><path clip-path="url(#clip330)" d="M1765.99 1170.54 Q1758.89 1170.54 1756.15 1172.16 Q1753.42 1173.78 1753.42 1177.7 Q1753.42 1180.82 1755.45 1182.66 Q1757.52 1184.48 1761.05 1184.48 Q1765.92 1184.48 1768.85 1181.04 Q1771.81 1177.57 1771.81 1171.84 L1771.81 1170.54 L1765.99 1170.54 M1777.67 1168.12 L1777.67 1188.46 L1771.81 1188.46 L1771.81 1183.05 Q1769.81 1186.29 1766.82 1187.85 Q1763.82 1189.38 1759.49 1189.38 Q1754.02 1189.38 1750.77 1186.33 Q1747.56 1183.24 1747.56 1178.08 Q1747.56 1172.07 1751.57 1169.01 Q1755.61 1165.96 1763.6 1165.96 L1771.81 1165.96 L1771.81 1165.38 Q1771.81 1161.34 1769.14 1159.14 Q1766.5 1156.92 1761.69 1156.92 Q1758.64 1156.92 1755.74 1157.65 Q1752.84 1158.38 1750.17 1159.84 L1750.17 1154.43 Q1753.38 1153.19 1756.41 1152.59 Q1759.43 1151.95 1762.3 1151.95 Q1770.03 1151.95 1773.85 1155.96 Q1777.67 1159.97 1777.67 1168.12 Z" fill="#000000" fill-rule="nonzero" fill-opacity="1" /><path clip-path="url(#clip330)" d="M1804.56 1191.77 Q1802.08 1198.13 1799.73 1200.08 Q1797.37 1202.02 1793.42 1202.02 L1788.75 1202.02 L1788.75 1197.12 L1792.18 1197.12 Q1794.6 1197.12 1795.94 1195.97 Q1797.28 1194.82 1798.9 1190.56 L1799.95 1187.88 L1785.53 1152.81 L1791.74 1152.81 L1802.88 1180.69 L1814.02 1152.81 L1820.22 1152.81 L1804.56 1191.77 Z" fill="#000000" fill-rule="nonzero" fill-opacity="1" /><path clip-path="url(#clip330)" d="M1851.03 1153.86 L1851.03 1159.4 Q1848.55 1158.13 1845.88 1157.49 Q1843.2 1156.85 1840.34 1156.85 Q1835.98 1156.85 1833.78 1158.19 Q1831.62 1159.53 1831.62 1162.2 Q1831.62 1164.24 1833.18 1165.41 Q1834.74 1166.56 1839.45 1167.61 L1841.45 1168.06 Q1847.69 1169.39 1850.3 1171.84 Q1852.94 1174.26 1852.94 1178.62 Q1852.94 1183.59 1849 1186.48 Q1845.08 1189.38 1838.21 1189.38 Q1835.34 1189.38 1832.22 1188.81 Q1829.14 1188.27 1825.7 1187.15 L1825.7 1181.11 Q1828.94 1182.79 1832.1 1183.65 Q1835.25 1184.48 1838.33 1184.48 Q1842.47 1184.48 1844.7 1183.08 Q1846.93 1181.65 1846.93 1179.07 Q1846.93 1176.68 1845.3 1175.41 Q1843.71 1174.13 1838.27 1172.96 L1836.23 1172.48 Q1830.79 1171.33 1828.37 1168.98 Q1825.95 1166.59 1825.95 1162.45 Q1825.95 1157.42 1829.52 1154.69 Q1833.08 1151.95 1839.64 1151.95 Q1842.89 1151.95 1845.75 1152.43 Q1848.61 1152.91 1851.03 1153.86 Z" fill="#000000" fill-rule="nonzero" fill-opacity="1" /><path clip-path="url(#clip330)" d="M1861.35 1139 L1866.44 1139 Q1871.21 1146.51 1873.57 1153.7 Q1875.96 1160.89 1875.96 1167.99 Q1875.96 1175.12 1873.57 1182.35 Q1871.21 1189.57 1866.44 1197.05 L1861.35 1197.05 Q1865.58 1189.76 1867.65 1182.57 Q1869.75 1175.34 1869.75 1167.99 Q1869.75 1160.64 1867.65 1153.48 Q1865.58 1146.32 1861.35 1139 Z" fill="#000000" fill-rule="nonzero" fill-opacity="1" /><polyline clip-path="url(#clip332)" style="stroke:#000000; stroke-linecap:round; stroke-linejoin:round; stroke-width:2; stroke-opacity:0.1; fill:none" points="251.095,1031.59 3121.26,1031.59 "/>
<polyline clip-path="url(#clip332)" style="stroke:#000000; stroke-linecap:round; stroke-linejoin:round; stroke-width:2; stroke-opacity:0.1; fill:none" points="251.095,787.272 3121.26,787.272 "/>
<polyline clip-path="url(#clip332)" style="stroke:#000000; stroke-linecap:round; stroke-linejoin:round; stroke-width:2; stroke-opacity:0.1; fill:none" points="251.095,542.951 3121.26,542.951 "/>
<polyline clip-path="url(#clip332)" style="stroke:#000000; stroke-linecap:round; stroke-linejoin:round; stroke-width:2; stroke-opacity:0.1; fill:none" points="251.095,298.629 3121.26,298.629 "/>
<polyline clip-path="url(#clip330)" style="stroke:#000000; stroke-linecap:round; stroke-linejoin:round; stroke-width:4; stroke-opacity:1; fill:none" points="251.095,1031.59 251.095,78.7402 "/>
<polyline clip-path="url(#clip330)" style="stroke:#000000; stroke-linecap:round; stroke-linejoin:round; stroke-width:4; stroke-opacity:1; fill:none" points="251.095,1031.59 269.993,1031.59 "/>
<polyline clip-path="url(#clip330)" style="stroke:#000000; stroke-linecap:round; stroke-linejoin:round; stroke-width:4; stroke-opacity:1; fill:none" points="251.095,787.272 269.993,787.272 "/>
<polyline clip-path="url(#clip330)" style="stroke:#000000; stroke-linecap:round; stroke-linejoin:round; stroke-width:4; stroke-opacity:1; fill:none" points="251.095,542.951 269.993,542.951 "/>
<polyline clip-path="url(#clip330)" style="stroke:#000000; stroke-linecap:round; stroke-linejoin:round; stroke-width:4; stroke-opacity:1; fill:none" points="251.095,298.629 269.993,298.629 "/>
<path clip-path="url(#clip330)" d="M191.151 1017.39 Q187.54 1017.39 185.711 1020.96 Q183.906 1024.5 183.906 1031.63 Q183.906 1038.73 185.711 1042.3 Q187.54 1045.84 191.151 1045.84 Q194.785 1045.84 196.591 1042.3 Q198.42 1038.73 198.42 1031.63 Q198.42 1024.5 196.591 1020.96 Q194.785 1017.39 191.151 1017.39 M191.151 1013.69 Q196.961 1013.69 200.017 1018.3 Q203.095 1022.88 203.095 1031.63 Q203.095 1040.36 200.017 1044.96 Q196.961 1049.55 191.151 1049.55 Q185.341 1049.55 182.262 1044.96 Q179.207 1040.36 179.207 1031.63 Q179.207 1022.88 182.262 1018.3 Q185.341 1013.69 191.151 1013.69 Z" fill="#000000" fill-rule="nonzero" fill-opacity="1" /><path clip-path="url(#clip330)" d="M151.036 769.992 L169.392 769.992 L169.392 773.928 L155.318 773.928 L155.318 782.4 Q156.336 782.052 157.355 781.89 Q158.373 781.705 159.392 781.705 Q165.179 781.705 168.559 784.877 Q171.938 788.048 171.938 793.464 Q171.938 799.043 168.466 802.145 Q164.994 805.224 158.674 805.224 Q156.498 805.224 154.23 804.853 Q151.985 804.483 149.577 803.742 L149.577 799.043 Q151.661 800.177 153.883 800.733 Q156.105 801.288 158.582 801.288 Q162.586 801.288 164.924 799.182 Q167.262 797.076 167.262 793.464 Q167.262 789.853 164.924 787.747 Q162.586 785.64 158.582 785.64 Q156.707 785.64 154.832 786.057 Q152.98 786.474 151.036 787.353 L151.036 769.992 Z" fill="#000000" fill-rule="nonzero" fill-opacity="1" /><path clip-path="url(#clip330)" d="M191.151 773.071 Q187.54 773.071 185.711 776.636 Q183.906 780.177 183.906 787.307 Q183.906 794.414 185.711 797.978 Q187.54 801.52 191.151 801.52 Q194.785 801.52 196.591 797.978 Q198.42 794.414 198.42 787.307 Q198.42 780.177 196.591 776.636 Q194.785 773.071 191.151 773.071 M191.151 769.367 Q196.961 769.367 200.017 773.974 Q203.095 778.557 203.095 787.307 Q203.095 796.034 200.017 800.64 Q196.961 805.224 191.151 805.224 Q185.341 805.224 182.262 800.64 Q179.207 796.034 179.207 787.307 Q179.207 778.557 182.262 773.974 Q185.341 769.367 191.151 769.367 Z" fill="#000000" fill-rule="nonzero" fill-opacity="1" /><path clip-path="url(#clip330)" d="M121.638 556.296 L129.276 556.296 L129.276 529.93 L120.966 531.597 L120.966 527.338 L129.23 525.671 L133.906 525.671 L133.906 556.296 L141.545 556.296 L141.545 560.231 L121.638 560.231 L121.638 556.296 Z" fill="#000000" fill-rule="nonzero" fill-opacity="1" /><path clip-path="url(#clip330)" d="M160.989 528.75 Q157.378 528.75 155.549 532.314 Q153.744 535.856 153.744 542.986 Q153.744 550.092 155.549 553.657 Q157.378 557.199 160.989 557.199 Q164.623 557.199 166.429 553.657 Q168.258 550.092 168.258 542.986 Q168.258 535.856 166.429 532.314 Q164.623 528.75 160.989 528.75 M160.989 525.046 Q166.799 525.046 169.855 529.652 Q172.934 534.236 172.934 542.986 Q172.934 551.712 169.855 556.319 Q166.799 560.902 160.989 560.902 Q155.179 560.902 152.1 556.319 Q149.045 551.712 149.045 542.986 Q149.045 534.236 152.1 529.652 Q155.179 525.046 160.989 525.046 Z" fill="#000000" fill-rule="nonzero" fill-opacity="1" /><path clip-path="url(#clip330)" d="M191.151 528.75 Q187.54 528.75 185.711 532.314 Q183.906 535.856 183.906 542.986 Q183.906 550.092 185.711 553.657 Q187.54 557.199 191.151 557.199 Q194.785 557.199 196.591 553.657 Q198.42 550.092 198.42 542.986 Q198.42 535.856 196.591 532.314 Q194.785 528.75 191.151 528.75 M191.151 525.046 Q196.961 525.046 200.017 529.652 Q203.095 534.236 203.095 542.986 Q203.095 551.712 200.017 556.319 Q196.961 560.902 191.151 560.902 Q185.341 560.902 182.262 556.319 Q179.207 551.712 179.207 542.986 Q179.207 534.236 182.262 529.652 Q185.341 525.046 191.151 525.046 Z" fill="#000000" fill-rule="nonzero" fill-opacity="1" /><path clip-path="url(#clip330)" d="M121.638 311.974 L129.276 311.974 L129.276 285.609 L120.966 287.275 L120.966 283.016 L129.23 281.349 L133.906 281.349 L133.906 311.974 L141.545 311.974 L141.545 315.909 L121.638 315.909 L121.638 311.974 Z" fill="#000000" fill-rule="nonzero" fill-opacity="1" /><path clip-path="url(#clip330)" d="M151.036 281.349 L169.392 281.349 L169.392 285.285 L155.318 285.285 L155.318 293.757 Q156.336 293.41 157.355 293.248 Q158.373 293.062 159.392 293.062 Q165.179 293.062 168.559 296.234 Q171.938 299.405 171.938 304.822 Q171.938 310.4 168.466 313.502 Q164.994 316.581 158.674 316.581 Q156.498 316.581 154.23 316.21 Q151.985 315.84 149.577 315.099 L149.577 310.4 Q151.661 311.534 153.883 312.09 Q156.105 312.646 158.582 312.646 Q162.586 312.646 164.924 310.539 Q167.262 308.433 167.262 304.822 Q167.262 301.21 164.924 299.104 Q162.586 296.998 158.582 296.998 Q156.707 296.998 154.832 297.414 Q152.98 297.831 151.036 298.71 L151.036 281.349 Z" fill="#000000" fill-rule="nonzero" fill-opacity="1" /><path clip-path="url(#clip330)" d="M191.151 284.428 Q187.54 284.428 185.711 287.993 Q183.906 291.535 183.906 298.664 Q183.906 305.771 185.711 309.335 Q187.54 312.877 191.151 312.877 Q194.785 312.877 196.591 309.335 Q198.42 305.771 198.42 298.664 Q198.42 291.535 196.591 287.993 Q194.785 284.428 191.151 284.428 M191.151 280.724 Q196.961 280.724 200.017 285.331 Q203.095 289.914 203.095 298.664 Q203.095 307.391 200.017 311.997 Q196.961 316.581 191.151 316.581 Q185.341 316.581 182.262 311.997 Q179.207 307.391 179.207 298.664 Q179.207 289.914 182.262 285.331 Q185.341 280.724 191.151 280.724 Z" fill="#000000" fill-rule="nonzero" fill-opacity="1" /><path clip-path="url(#clip330)" d="M12.7498 787.802 L19.02 787.802 Q17.2695 791.462 16.4101 794.709 Q15.5507 797.955 15.5507 800.979 Q15.5507 806.23 17.5878 809.095 Q19.6248 811.928 23.3805 811.928 Q26.5316 811.928 28.1548 810.05 Q29.7463 808.14 30.7329 802.857 L31.5287 798.974 Q32.8973 791.78 36.3666 788.375 Q39.8041 784.937 45.5969 784.937 Q52.5037 784.937 56.0685 789.584 Q59.6332 794.199 59.6332 803.143 Q59.6332 806.517 58.8694 810.336 Q58.1055 814.124 56.6095 818.198 L49.9892 818.198 Q52.1854 814.283 53.2994 810.527 Q54.4134 806.772 54.4134 803.143 Q54.4134 797.637 52.249 794.645 Q50.0847 791.653 46.0743 791.653 Q42.5732 791.653 40.5998 793.817 Q38.6264 795.95 37.6397 800.851 L36.8758 804.766 Q35.4436 811.96 32.388 815.174 Q29.3325 818.389 23.8898 818.389 Q17.5878 818.389 13.9593 813.965 Q10.3309 809.509 10.3309 801.711 Q10.3309 798.369 10.9356 794.899 Q11.5403 791.43 12.7498 787.802 Z" fill="#000000" fill-rule="nonzero" fill-opacity="1" /><path clip-path="url(#clip330)" d="M23.0623 775.166 L23.0623 769.309 L58.7102 769.309 L58.7102 775.166 L23.0623 775.166 M9.18502 775.166 L9.18502 769.309 L16.6011 769.309 L16.6011 775.166 L9.18502 775.166 Z" fill="#000000" fill-rule="nonzero" fill-opacity="1" /><path clip-path="url(#clip330)" d="M29.9054 729.301 Q25.9587 727.105 24.0808 724.049 Q22.2029 720.994 22.2029 716.856 Q22.2029 711.286 26.1178 708.262 Q30.0009 705.239 37.1941 705.239 L58.7102 705.239 L58.7102 711.127 L37.3851 711.127 Q32.2607 711.127 29.7781 712.941 Q27.2955 714.755 27.2955 718.479 Q27.2955 723.031 30.3192 725.672 Q33.3429 728.314 38.5628 728.314 L58.7102 728.314 L58.7102 734.202 L37.3851 734.202 Q32.2289 734.202 29.7781 736.017 Q27.2955 737.831 27.2955 741.619 Q27.2955 746.106 30.351 748.748 Q33.3747 751.39 38.5628 751.39 L58.7102 751.39 L58.7102 757.278 L23.0623 757.278 L23.0623 751.39 L28.6004 751.39 Q25.3221 749.385 23.7625 746.584 Q22.2029 743.783 22.2029 739.932 Q22.2029 736.049 24.1763 733.343 Q26.1496 730.606 29.9054 729.301 Z" fill="#000000" fill-rule="nonzero" fill-opacity="1" /><path clip-path="url(#clip330)" d="M44.642 694.162 L23.0623 694.162 L23.0623 688.306 L44.4192 688.306 Q49.4799 688.306 52.0262 686.332 Q54.5407 684.359 54.5407 680.412 Q54.5407 675.67 51.517 672.933 Q48.4933 670.163 43.2734 670.163 L23.0623 670.163 L23.0623 664.307 L58.7102 664.307 L58.7102 670.163 L53.2357 670.163 Q56.4822 672.296 58.0736 675.129 Q59.6332 677.93 59.6332 681.654 Q59.6332 687.796 55.8138 690.979 Q51.9944 694.162 44.642 694.162 M22.2029 679.426 L22.2029 679.426 Z" fill="#000000" fill-rule="nonzero" fill-opacity="1" /><path clip-path="url(#clip330)" d="M9.18502 652.244 L9.18502 646.388 L58.7102 646.388 L58.7102 652.244 L9.18502 652.244 Z" fill="#000000" fill-rule="nonzero" fill-opacity="1" /><path clip-path="url(#clip330)" d="M40.7908 617.933 Q40.7908 625.031 42.414 627.768 Q44.0373 630.505 47.9522 630.505 Q51.0714 630.505 52.9174 628.468 Q54.7317 626.399 54.7317 622.866 Q54.7317 617.996 51.2942 615.068 Q47.8249 612.108 42.0957 612.108 L40.7908 612.108 L40.7908 617.933 M38.3718 606.252 L58.7102 606.252 L58.7102 612.108 L53.2994 612.108 Q56.5459 614.113 58.1055 617.105 Q59.6332 620.097 59.6332 624.426 Q59.6332 629.9 56.5777 633.147 Q53.4903 636.362 48.3341 636.362 Q42.3185 636.362 39.263 632.351 Q36.2074 628.309 36.2074 620.32 L36.2074 612.108 L35.6345 612.108 Q31.5923 612.108 29.3961 614.782 Q27.1681 617.424 27.1681 622.23 Q27.1681 625.285 27.9002 628.182 Q28.6323 631.078 30.0964 633.752 L24.6855 633.752 Q23.4442 630.537 22.8395 627.513 Q22.2029 624.49 22.2029 621.625 Q22.2029 613.891 26.2133 610.071 Q30.2237 606.252 38.3718 606.252 Z" fill="#000000" fill-rule="nonzero" fill-opacity="1" /><path clip-path="url(#clip330)" d="M12.9408 588.396 L23.0623 588.396 L23.0623 576.333 L27.6137 576.333 L27.6137 588.396 L46.9655 588.396 Q51.326 588.396 52.5673 587.218 Q53.8086 586.009 53.8086 582.349 L53.8086 576.333 L58.7102 576.333 L58.7102 582.349 Q58.7102 589.128 56.1958 591.706 Q53.6495 594.284 46.9655 594.284 L27.6137 594.284 L27.6137 598.581 L23.0623 598.581 L23.0623 594.284 L12.9408 594.284 L12.9408 588.396 Z" fill="#000000" fill-rule="nonzero" fill-opacity="1" /><path clip-path="url(#clip330)" d="M39.4221 538.139 L42.2867 538.139 L42.2867 565.066 Q48.3341 564.684 51.517 561.437 Q54.668 558.159 54.668 552.334 Q54.668 548.96 53.8405 545.809 Q53.0129 542.627 51.3578 539.507 L56.896 539.507 Q58.2328 542.658 58.933 545.969 Q59.6332 549.279 59.6332 552.684 Q59.6332 561.214 54.668 566.211 Q49.7027 571.177 41.2364 571.177 Q32.4835 571.177 27.3591 566.466 Q22.2029 561.724 22.2029 553.703 Q22.2029 546.51 26.8499 542.34 Q31.465 538.139 39.4221 538.139 M37.7034 543.995 Q32.8973 544.059 30.0327 546.701 Q27.1681 549.311 27.1681 553.639 Q27.1681 558.541 29.9372 561.501 Q32.7063 564.429 37.7352 564.875 L37.7034 543.995 Z" fill="#000000" fill-rule="nonzero" fill-opacity="1" /><path clip-path="url(#clip330)" d="M28.4731 505.069 L9.18502 505.069 L9.18502 499.212 L58.7102 499.212 L58.7102 505.069 L53.363 505.069 Q56.5459 506.915 58.1055 509.748 Q59.6332 512.549 59.6332 516.495 Q59.6332 522.956 54.477 527.031 Q49.3208 531.073 40.9181 531.073 Q32.5153 531.073 27.3591 527.031 Q22.2029 522.956 22.2029 516.495 Q22.2029 512.549 23.7625 509.748 Q25.2903 506.915 28.4731 505.069 M40.9181 525.025 Q47.3793 525.025 51.0714 522.384 Q54.7317 519.71 54.7317 515.063 Q54.7317 510.416 51.0714 507.742 Q47.3793 505.069 40.9181 505.069 Q34.4569 505.069 30.7966 507.742 Q27.1045 510.416 27.1045 515.063 Q27.1045 519.71 30.7966 522.384 Q34.4569 525.025 40.9181 525.025 Z" fill="#000000" fill-rule="nonzero" fill-opacity="1" /><path clip-path="url(#clip330)" d="M24.4309 440.775 L29.9054 440.775 Q28.5368 443.258 27.8684 445.772 Q27.1681 448.255 27.1681 450.801 Q27.1681 456.499 30.7966 459.65 Q34.3932 462.801 40.9181 462.801 Q47.4429 462.801 51.0714 459.65 Q54.668 456.499 54.668 450.801 Q54.668 448.255 53.9996 445.772 Q53.2994 443.258 51.9307 440.775 L57.3416 440.775 Q58.4874 443.226 59.0603 445.868 Q59.6332 448.478 59.6332 451.438 Q59.6332 459.49 54.5725 464.233 Q49.5118 468.975 40.9181 468.975 Q32.1971 468.975 27.2 464.201 Q22.2029 459.395 22.2029 451.056 Q22.2029 448.35 22.7758 445.772 Q23.3169 443.194 24.4309 440.775 Z" fill="#000000" fill-rule="nonzero" fill-opacity="1" /><path clip-path="url(#clip330)" d="M40.7908 414.389 Q40.7908 421.487 42.414 424.224 Q44.0373 426.962 47.9522 426.962 Q51.0714 426.962 52.9174 424.925 Q54.7317 422.856 54.7317 419.323 Q54.7317 414.453 51.2942 411.525 Q47.8249 408.565 42.0957 408.565 L40.7908 408.565 L40.7908 414.389 M38.3718 402.708 L58.7102 402.708 L58.7102 408.565 L53.2994 408.565 Q56.5459 410.57 58.1055 413.562 Q59.6332 416.554 59.6332 420.882 Q59.6332 426.357 56.5777 429.603 Q53.4903 432.818 48.3341 432.818 Q42.3185 432.818 39.263 428.808 Q36.2074 424.765 36.2074 416.777 L36.2074 408.565 L35.6345 408.565 Q31.5923 408.565 29.3961 411.238 Q27.1681 413.88 27.1681 418.686 Q27.1681 421.742 27.9002 424.638 Q28.6323 427.535 30.0964 430.208 L24.6855 430.208 Q23.4442 426.993 22.8395 423.97 Q22.2029 420.946 22.2029 418.081 Q22.2029 410.347 26.2133 406.528 Q30.2237 402.708 38.3718 402.708 Z" fill="#000000" fill-rule="nonzero" fill-opacity="1" /><path clip-path="url(#clip330)" d="M24.1126 367.92 L29.6508 367.92 Q28.3776 370.402 27.7411 373.076 Q27.1045 375.75 27.1045 378.614 Q27.1045 382.975 28.4413 385.171 Q29.7781 387.335 32.4517 387.335 Q34.4887 387.335 35.6664 385.776 Q36.8122 384.216 37.8625 379.505 L38.3081 377.5 Q39.6449 371.262 42.0957 368.652 Q44.5147 366.01 48.8752 366.01 Q53.8405 366.01 56.7369 369.957 Q59.6332 373.872 59.6332 380.747 Q59.6332 383.611 59.0603 386.73 Q58.5192 389.818 57.4053 393.255 L51.3578 393.255 Q53.0447 390.009 53.9041 386.858 Q54.7317 383.707 54.7317 380.619 Q54.7317 376.482 53.3312 374.254 Q51.8989 372.026 49.3208 372.026 Q46.9337 372.026 45.6605 373.649 Q44.3874 375.24 43.2097 380.683 L42.7323 382.72 Q41.5865 388.163 39.2312 390.582 Q36.844 393.001 32.7063 393.001 Q27.6774 393.001 24.9401 389.436 Q22.2029 385.871 22.2029 379.314 Q22.2029 376.068 22.6803 373.203 Q23.1577 370.339 24.1126 367.92 Z" fill="#000000" fill-rule="nonzero" fill-opacity="1" /><path clip-path="url(#clip330)" d="M39.4221 326.193 L42.2867 326.193 L42.2867 353.119 Q48.3341 352.737 51.517 349.491 Q54.668 346.213 54.668 340.388 Q54.668 337.014 53.8405 333.863 Q53.0129 330.68 51.3578 327.561 L56.896 327.561 Q58.2328 330.712 58.933 334.022 Q59.6332 337.332 59.6332 340.738 Q59.6332 349.268 54.668 354.265 Q49.7027 359.231 41.2364 359.231 Q32.4835 359.231 27.3591 354.52 Q22.2029 349.777 22.2029 341.757 Q22.2029 334.563 26.8499 330.394 Q31.465 326.193 39.4221 326.193 M37.7034 332.049 Q32.8973 332.113 30.0327 334.754 Q27.1681 337.364 27.1681 341.693 Q27.1681 346.595 29.9372 349.555 Q32.7063 352.483 37.7352 352.928 L37.7034 332.049 Z" fill="#000000" fill-rule="nonzero" fill-opacity="1" /><path clip-path="url(#clip330)" d="M24.1126 293.855 L29.6508 293.855 Q28.3776 296.337 27.7411 299.011 Q27.1045 301.685 27.1045 304.549 Q27.1045 308.91 28.4413 311.106 Q29.7781 313.27 32.4517 313.27 Q34.4887 313.27 35.6664 311.711 Q36.8122 310.151 37.8625 305.44 L38.3081 303.435 Q39.6449 297.197 42.0957 294.587 Q44.5147 291.945 48.8752 291.945 Q53.8405 291.945 56.7369 295.892 Q59.6332 299.807 59.6332 306.682 Q59.6332 309.546 59.0603 312.665 Q58.5192 315.753 57.4053 319.19 L51.3578 319.19 Q53.0447 315.944 53.9041 312.793 Q54.7317 309.642 54.7317 306.554 Q54.7317 302.417 53.3312 300.189 Q51.8989 297.961 49.3208 297.961 Q46.9337 297.961 45.6605 299.584 Q44.3874 301.175 43.2097 306.618 L42.7323 308.655 Q41.5865 314.098 39.2312 316.517 Q36.844 318.936 32.7063 318.936 Q27.6774 318.936 24.9401 315.371 Q22.2029 311.806 22.2029 305.249 Q22.2029 302.003 22.6803 299.138 Q23.1577 296.274 24.1126 293.855 Z" fill="#000000" fill-rule="nonzero" fill-opacity="1" /><path clip-path="url(#clip332)" d="M408.96 787.272 L408.96 1031.59 L429.436 1031.59 L429.436 787.272 L408.96 787.272 L408.96 787.272  Z" fill="#00008b" fill-rule="evenodd" fill-opacity="1"/>
<polyline clip-path="url(#clip332)" style="stroke:#000000; stroke-linecap:round; stroke-linejoin:round; stroke-width:4; stroke-opacity:1; fill:none" points="408.96,787.272 408.96,1031.59 429.436,1031.59 429.436,787.272 408.96,787.272 "/>
<path clip-path="url(#clip332)" d="M434.555 777.499 L434.555 1031.59 L455.032 1031.59 L455.032 777.499 L434.555 777.499 L434.555 777.499  Z" fill="#00008b" fill-rule="evenodd" fill-opacity="1"/>
<polyline clip-path="url(#clip332)" style="stroke:#000000; stroke-linecap:round; stroke-linejoin:round; stroke-width:4; stroke-opacity:1; fill:none" points="434.555,777.499 434.555,1031.59 455.032,1031.59 455.032,777.499 434.555,777.499 "/>
<path clip-path="url(#clip332)" d="M460.151 767.727 L460.151 1031.59 L480.627 1031.59 L480.627 767.727 L460.151 767.727 L460.151 767.727  Z" fill="#00008b" fill-rule="evenodd" fill-opacity="1"/>
<polyline clip-path="url(#clip332)" style="stroke:#000000; stroke-linecap:round; stroke-linejoin:round; stroke-width:4; stroke-opacity:1; fill:none" points="460.151,767.727 460.151,1031.59 480.627,1031.59 480.627,767.727 460.151,767.727 "/>
<path clip-path="url(#clip332)" d="M485.746 743.294 L485.746 1031.59 L506.223 1031.59 L506.223 743.294 L485.746 743.294 L485.746 743.294  Z" fill="#00008b" fill-rule="evenodd" fill-opacity="1"/>
<polyline clip-path="url(#clip332)" style="stroke:#000000; stroke-linecap:round; stroke-linejoin:round; stroke-width:4; stroke-opacity:1; fill:none" points="485.746,743.294 485.746,1031.59 506.223,1031.59 506.223,743.294 485.746,743.294 "/>
<path clip-path="url(#clip332)" d="M511.342 689.544 L511.342 1031.59 L531.818 1031.59 L531.818 689.544 L511.342 689.544 L511.342 689.544  Z" fill="#00008b" fill-rule="evenodd" fill-opacity="1"/>
<polyline clip-path="url(#clip332)" style="stroke:#000000; stroke-linecap:round; stroke-linejoin:round; stroke-width:4; stroke-opacity:1; fill:none" points="511.342,689.544 511.342,1031.59 531.818,1031.59 531.818,689.544 511.342,689.544 "/>
<path clip-path="url(#clip332)" d="M536.937 640.679 L536.937 1031.59 L557.414 1031.59 L557.414 640.679 L536.937 640.679 L536.937 640.679  Z" fill="#00008b" fill-rule="evenodd" fill-opacity="1"/>
<polyline clip-path="url(#clip332)" style="stroke:#000000; stroke-linecap:round; stroke-linejoin:round; stroke-width:4; stroke-opacity:1; fill:none" points="536.937,640.679 536.937,1031.59 557.414,1031.59 557.414,640.679 536.937,640.679 "/>
<path clip-path="url(#clip332)" d="M562.533 679.771 L562.533 1031.59 L583.009 1031.59 L583.009 679.771 L562.533 679.771 L562.533 679.771  Z" fill="#00008b" fill-rule="evenodd" fill-opacity="1"/>
<polyline clip-path="url(#clip332)" style="stroke:#000000; stroke-linecap:round; stroke-linejoin:round; stroke-width:4; stroke-opacity:1; fill:none" points="562.533,679.771 562.533,1031.59 583.009,1031.59 583.009,679.771 562.533,679.771 "/>
<path clip-path="url(#clip332)" d="M588.128 552.724 L588.128 1031.59 L608.605 1031.59 L608.605 552.724 L588.128 552.724 L588.128 552.724  Z" fill="#00008b" fill-rule="evenodd" fill-opacity="1"/>
<polyline clip-path="url(#clip332)" style="stroke:#000000; stroke-linecap:round; stroke-linejoin:round; stroke-width:4; stroke-opacity:1; fill:none" points="588.128,552.724 588.128,1031.59 608.605,1031.59 608.605,552.724 588.128,552.724 "/>
<path clip-path="url(#clip332)" d="M613.724 572.269 L613.724 1031.59 L634.2 1031.59 L634.2 572.269 L613.724 572.269 L613.724 572.269  Z" fill="#00008b" fill-rule="evenodd" fill-opacity="1"/>
<polyline clip-path="url(#clip332)" style="stroke:#000000; stroke-linecap:round; stroke-linejoin:round; stroke-width:4; stroke-opacity:1; fill:none" points="613.724,572.269 613.724,1031.59 634.2,1031.59 634.2,572.269 613.724,572.269 "/>
<path clip-path="url(#clip332)" d="M639.32 665.112 L639.32 1031.59 L659.796 1031.59 L659.796 665.112 L639.32 665.112 L639.32 665.112  Z" fill="#00008b" fill-rule="evenodd" fill-opacity="1"/>
<polyline clip-path="url(#clip332)" style="stroke:#000000; stroke-linecap:round; stroke-linejoin:round; stroke-width:4; stroke-opacity:1; fill:none" points="639.32,665.112 639.32,1031.59 659.796,1031.59 659.796,665.112 639.32,665.112 "/>
<path clip-path="url(#clip332)" d="M664.915 489.2 L664.915 1031.59 L685.392 1031.59 L685.392 489.2 L664.915 489.2 L664.915 489.2  Z" fill="#00008b" fill-rule="evenodd" fill-opacity="1"/>
<polyline clip-path="url(#clip332)" style="stroke:#000000; stroke-linecap:round; stroke-linejoin:round; stroke-width:4; stroke-opacity:1; fill:none" points="664.915,489.2 664.915,1031.59 685.392,1031.59 685.392,489.2 664.915,489.2 "/>
<path clip-path="url(#clip332)" d="M690.511 454.995 L690.511 1031.59 L710.987 1031.59 L710.987 454.995 L690.511 454.995 L690.511 454.995  Z" fill="#00008b" fill-rule="evenodd" fill-opacity="1"/>
<polyline clip-path="url(#clip332)" style="stroke:#000000; stroke-linecap:round; stroke-linejoin:round; stroke-width:4; stroke-opacity:1; fill:none" points="690.511,454.995 690.511,1031.59 710.987,1031.59 710.987,454.995 690.511,454.995 "/>
<path clip-path="url(#clip332)" d="M716.106 474.541 L716.106 1031.59 L736.583 1031.59 L736.583 474.541 L716.106 474.541 L716.106 474.541  Z" fill="#00008b" fill-rule="evenodd" fill-opacity="1"/>
<polyline clip-path="url(#clip332)" style="stroke:#000000; stroke-linecap:round; stroke-linejoin:round; stroke-width:4; stroke-opacity:1; fill:none" points="716.106,474.541 716.106,1031.59 736.583,1031.59 736.583,474.541 716.106,474.541 "/>
<path clip-path="url(#clip332)" d="M741.702 347.494 L741.702 1031.59 L762.178 1031.59 L762.178 347.494 L741.702 347.494 L741.702 347.494  Z" fill="#00008b" fill-rule="evenodd" fill-opacity="1"/>
<polyline clip-path="url(#clip332)" style="stroke:#000000; stroke-linecap:round; stroke-linejoin:round; stroke-width:4; stroke-opacity:1; fill:none" points="741.702,347.494 741.702,1031.59 762.178,1031.59 762.178,347.494 741.702,347.494 "/>
<path clip-path="url(#clip332)" d="M767.297 288.857 L767.297 1031.59 L787.774 1031.59 L787.774 288.857 L767.297 288.857 L767.297 288.857  Z" fill="#00008b" fill-rule="evenodd" fill-opacity="1"/>
<polyline clip-path="url(#clip332)" style="stroke:#000000; stroke-linecap:round; stroke-linejoin:round; stroke-width:4; stroke-opacity:1; fill:none" points="767.297,288.857 767.297,1031.59 787.774,1031.59 787.774,288.857 767.297,288.857 "/>
<path clip-path="url(#clip332)" d="M792.893 279.084 L792.893 1031.59 L813.369 1031.59 L813.369 279.084 L792.893 279.084 L792.893 279.084  Z" fill="#00008b" fill-rule="evenodd" fill-opacity="1"/>
<polyline clip-path="url(#clip332)" style="stroke:#000000; stroke-linecap:round; stroke-linejoin:round; stroke-width:4; stroke-opacity:1; fill:none" points="792.893,279.084 792.893,1031.59 813.369,1031.59 813.369,279.084 792.893,279.084 "/>
<path clip-path="url(#clip332)" d="M818.488 303.516 L818.488 1031.59 L838.965 1031.59 L838.965 303.516 L818.488 303.516 L818.488 303.516  Z" fill="#00008b" fill-rule="evenodd" fill-opacity="1"/>
<polyline clip-path="url(#clip332)" style="stroke:#000000; stroke-linecap:round; stroke-linejoin:round; stroke-width:4; stroke-opacity:1; fill:none" points="818.488,303.516 818.488,1031.59 838.965,1031.59 838.965,303.516 818.488,303.516 "/>
<path clip-path="url(#clip332)" d="M844.084 156.923 L844.084 1031.59 L864.56 1031.59 L864.56 156.923 L844.084 156.923 L844.084 156.923  Z" fill="#00008b" fill-rule="evenodd" fill-opacity="1"/>
<polyline clip-path="url(#clip332)" style="stroke:#000000; stroke-linecap:round; stroke-linejoin:round; stroke-width:4; stroke-opacity:1; fill:none" points="844.084,156.923 844.084,1031.59 864.56,1031.59 864.56,156.923 844.084,156.923 "/>
<path clip-path="url(#clip332)" d="M869.68 210.674 L869.68 1031.59 L890.156 1031.59 L890.156 210.674 L869.68 210.674 L869.68 210.674  Z" fill="#00008b" fill-rule="evenodd" fill-opacity="1"/>
<polyline clip-path="url(#clip332)" style="stroke:#000000; stroke-linecap:round; stroke-linejoin:round; stroke-width:4; stroke-opacity:1; fill:none" points="869.68,210.674 869.68,1031.59 890.156,1031.59 890.156,210.674 869.68,210.674 "/>
<path clip-path="url(#clip332)" d="M895.275 235.106 L895.275 1031.59 L915.751 1031.59 L915.751 235.106 L895.275 235.106 L895.275 235.106  Z" fill="#00008b" fill-rule="evenodd" fill-opacity="1"/>
<polyline clip-path="url(#clip332)" style="stroke:#000000; stroke-linecap:round; stroke-linejoin:round; stroke-width:4; stroke-opacity:1; fill:none" points="895.275,235.106 895.275,1031.59 915.751,1031.59 915.751,235.106 895.275,235.106 "/>
<path clip-path="url(#clip332)" d="M920.871 78.7402 L920.871 1031.59 L941.347 1031.59 L941.347 78.7402 L920.871 78.7402 L920.871 78.7402  Z" fill="#00008b" fill-rule="evenodd" fill-opacity="1"/>
<polyline clip-path="url(#clip332)" style="stroke:#000000; stroke-linecap:round; stroke-linejoin:round; stroke-width:4; stroke-opacity:1; fill:none" points="920.871,78.7402 920.871,1031.59 941.347,1031.59 941.347,78.7402 920.871,78.7402 "/>
<path clip-path="url(#clip332)" d="M946.466 122.718 L946.466 1031.59 L966.943 1031.59 L966.943 122.718 L946.466 122.718 L946.466 122.718  Z" fill="#00008b" fill-rule="evenodd" fill-opacity="1"/>
<polyline clip-path="url(#clip332)" style="stroke:#000000; stroke-linecap:round; stroke-linejoin:round; stroke-width:4; stroke-opacity:1; fill:none" points="946.466,122.718 946.466,1031.59 966.943,1031.59 966.943,122.718 946.466,122.718 "/>
<path clip-path="url(#clip332)" d="M972.062 230.219 L972.062 1031.59 L992.538 1031.59 L992.538 230.219 L972.062 230.219 L972.062 230.219  Z" fill="#00008b" fill-rule="evenodd" fill-opacity="1"/>
<polyline clip-path="url(#clip332)" style="stroke:#000000; stroke-linecap:round; stroke-linejoin:round; stroke-width:4; stroke-opacity:1; fill:none" points="972.062,230.219 972.062,1031.59 992.538,1031.59 992.538,230.219 972.062,230.219 "/>
<path clip-path="url(#clip332)" d="M997.657 220.447 L997.657 1031.59 L1018.13 1031.59 L1018.13 220.447 L997.657 220.447 L997.657 220.447  Z" fill="#00008b" fill-rule="evenodd" fill-opacity="1"/>
<polyline clip-path="url(#clip332)" style="stroke:#000000; stroke-linecap:round; stroke-linejoin:round; stroke-width:4; stroke-opacity:1; fill:none" points="997.657,220.447 997.657,1031.59 1018.13,1031.59 1018.13,220.447 997.657,220.447 "/>
<path clip-path="url(#clip332)" d="M1023.25 200.901 L1023.25 1031.59 L1043.73 1031.59 L1043.73 200.901 L1023.25 200.901 L1023.25 200.901  Z" fill="#00008b" fill-rule="evenodd" fill-opacity="1"/>
<polyline clip-path="url(#clip332)" style="stroke:#000000; stroke-linecap:round; stroke-linejoin:round; stroke-width:4; stroke-opacity:1; fill:none" points="1023.25,200.901 1023.25,1031.59 1043.73,1031.59 1043.73,200.901 1023.25,200.901 "/>
<path clip-path="url(#clip332)" d="M1048.85 254.652 L1048.85 1031.59 L1069.32 1031.59 L1069.32 254.652 L1048.85 254.652 L1048.85 254.652  Z" fill="#00008b" fill-rule="evenodd" fill-opacity="1"/>
<polyline clip-path="url(#clip332)" style="stroke:#000000; stroke-linecap:round; stroke-linejoin:round; stroke-width:4; stroke-opacity:1; fill:none" points="1048.85,254.652 1048.85,1031.59 1069.32,1031.59 1069.32,254.652 1048.85,254.652 "/>
<path clip-path="url(#clip332)" d="M1074.44 381.699 L1074.44 1031.59 L1094.92 1031.59 L1094.92 381.699 L1074.44 381.699 L1074.44 381.699  Z" fill="#00008b" fill-rule="evenodd" fill-opacity="1"/>
<polyline clip-path="url(#clip332)" style="stroke:#000000; stroke-linecap:round; stroke-linejoin:round; stroke-width:4; stroke-opacity:1; fill:none" points="1074.44,381.699 1074.44,1031.59 1094.92,1031.59 1094.92,381.699 1074.44,381.699 "/>
<path clip-path="url(#clip332)" d="M1100.04 332.834 L1100.04 1031.59 L1120.52 1031.59 L1120.52 332.834 L1100.04 332.834 L1100.04 332.834  Z" fill="#00008b" fill-rule="evenodd" fill-opacity="1"/>
<polyline clip-path="url(#clip332)" style="stroke:#000000; stroke-linecap:round; stroke-linejoin:round; stroke-width:4; stroke-opacity:1; fill:none" points="1100.04,332.834 1100.04,1031.59 1120.52,1031.59 1120.52,332.834 1100.04,332.834 "/>
<path clip-path="url(#clip332)" d="M1125.64 469.654 L1125.64 1031.59 L1146.11 1031.59 L1146.11 469.654 L1125.64 469.654 L1125.64 469.654  Z" fill="#00008b" fill-rule="evenodd" fill-opacity="1"/>
<polyline clip-path="url(#clip332)" style="stroke:#000000; stroke-linecap:round; stroke-linejoin:round; stroke-width:4; stroke-opacity:1; fill:none" points="1125.64,469.654 1125.64,1031.59 1146.11,1031.59 1146.11,469.654 1125.64,469.654 "/>
<path clip-path="url(#clip332)" d="M1151.23 489.2 L1151.23 1031.59 L1171.71 1031.59 L1171.71 489.2 L1151.23 489.2 L1151.23 489.2  Z" fill="#00008b" fill-rule="evenodd" fill-opacity="1"/>
<polyline clip-path="url(#clip332)" style="stroke:#000000; stroke-linecap:round; stroke-linejoin:round; stroke-width:4; stroke-opacity:1; fill:none" points="1151.23,489.2 1151.23,1031.59 1171.71,1031.59 1171.71,489.2 1151.23,489.2 "/>
<path clip-path="url(#clip332)" d="M1176.83 655.339 L1176.83 1031.59 L1197.3 1031.59 L1197.3 655.339 L1176.83 655.339 L1176.83 655.339  Z" fill="#00008b" fill-rule="evenodd" fill-opacity="1"/>
<polyline clip-path="url(#clip332)" style="stroke:#000000; stroke-linecap:round; stroke-linejoin:round; stroke-width:4; stroke-opacity:1; fill:none" points="1176.83,655.339 1176.83,1031.59 1197.3,1031.59 1197.3,655.339 1176.83,655.339 "/>
<path clip-path="url(#clip332)" d="M1202.42 601.588 L1202.42 1031.59 L1222.9 1031.59 L1222.9 601.588 L1202.42 601.588 L1202.42 601.588  Z" fill="#00008b" fill-rule="evenodd" fill-opacity="1"/>
<polyline clip-path="url(#clip332)" style="stroke:#000000; stroke-linecap:round; stroke-linejoin:round; stroke-width:4; stroke-opacity:1; fill:none" points="1202.42,601.588 1202.42,1031.59 1222.9,1031.59 1222.9,601.588 1202.42,601.588 "/>
<path clip-path="url(#clip332)" d="M1228.02 689.544 L1228.02 1031.59 L1248.49 1031.59 L1248.49 689.544 L1228.02 689.544 L1228.02 689.544  Z" fill="#00008b" fill-rule="evenodd" fill-opacity="1"/>
<polyline clip-path="url(#clip332)" style="stroke:#000000; stroke-linecap:round; stroke-linejoin:round; stroke-width:4; stroke-opacity:1; fill:none" points="1228.02,689.544 1228.02,1031.59 1248.49,1031.59 1248.49,689.544 1228.02,689.544 "/>
<path clip-path="url(#clip332)" d="M1253.61 718.862 L1253.61 1031.59 L1274.09 1031.59 L1274.09 718.862 L1253.61 718.862 L1253.61 718.862  Z" fill="#00008b" fill-rule="evenodd" fill-opacity="1"/>
<polyline clip-path="url(#clip332)" style="stroke:#000000; stroke-linecap:round; stroke-linejoin:round; stroke-width:4; stroke-opacity:1; fill:none" points="1253.61,718.862 1253.61,1031.59 1274.09,1031.59 1274.09,718.862 1253.61,718.862 "/>
<path clip-path="url(#clip332)" d="M1279.21 738.408 L1279.21 1031.59 L1299.68 1031.59 L1299.68 738.408 L1279.21 738.408 L1279.21 738.408  Z" fill="#00008b" fill-rule="evenodd" fill-opacity="1"/>
<polyline clip-path="url(#clip332)" style="stroke:#000000; stroke-linecap:round; stroke-linejoin:round; stroke-width:4; stroke-opacity:1; fill:none" points="1279.21,738.408 1279.21,1031.59 1299.68,1031.59 1299.68,738.408 1279.21,738.408 "/>
<path clip-path="url(#clip332)" d="M1304.8 718.862 L1304.8 1031.59 L1325.28 1031.59 L1325.28 718.862 L1304.8 718.862 L1304.8 718.862  Z" fill="#00008b" fill-rule="evenodd" fill-opacity="1"/>
<polyline clip-path="url(#clip332)" style="stroke:#000000; stroke-linecap:round; stroke-linejoin:round; stroke-width:4; stroke-opacity:1; fill:none" points="1304.8,718.862 1304.8,1031.59 1325.28,1031.59 1325.28,718.862 1304.8,718.862 "/>
<path clip-path="url(#clip332)" d="M1330.4 792.159 L1330.4 1031.59 L1350.88 1031.59 L1350.88 792.159 L1330.4 792.159 L1330.4 792.159  Z" fill="#00008b" fill-rule="evenodd" fill-opacity="1"/>
<polyline clip-path="url(#clip332)" style="stroke:#000000; stroke-linecap:round; stroke-linejoin:round; stroke-width:4; stroke-opacity:1; fill:none" points="1330.4,792.159 1330.4,1031.59 1350.88,1031.59 1350.88,792.159 1330.4,792.159 "/>
<path clip-path="url(#clip332)" d="M1356 845.909 L1356 1031.59 L1376.47 1031.59 L1376.47 845.909 L1356 845.909 L1356 845.909  Z" fill="#00008b" fill-rule="evenodd" fill-opacity="1"/>
<polyline clip-path="url(#clip332)" style="stroke:#000000; stroke-linecap:round; stroke-linejoin:round; stroke-width:4; stroke-opacity:1; fill:none" points="1356,845.909 1356,1031.59 1376.47,1031.59 1376.47,845.909 1356,845.909 "/>
<path clip-path="url(#clip332)" d="M1381.59 894.774 L1381.59 1031.59 L1402.07 1031.59 L1402.07 894.774 L1381.59 894.774 L1381.59 894.774  Z" fill="#00008b" fill-rule="evenodd" fill-opacity="1"/>
<polyline clip-path="url(#clip332)" style="stroke:#000000; stroke-linecap:round; stroke-linejoin:round; stroke-width:4; stroke-opacity:1; fill:none" points="1381.59,894.774 1381.59,1031.59 1402.07,1031.59 1402.07,894.774 1381.59,894.774 "/>
<path clip-path="url(#clip332)" d="M1407.19 855.682 L1407.19 1031.59 L1427.66 1031.59 L1427.66 855.682 L1407.19 855.682 L1407.19 855.682  Z" fill="#00008b" fill-rule="evenodd" fill-opacity="1"/>
<polyline clip-path="url(#clip332)" style="stroke:#000000; stroke-linecap:round; stroke-linejoin:round; stroke-width:4; stroke-opacity:1; fill:none" points="1407.19,855.682 1407.19,1031.59 1427.66,1031.59 1427.66,855.682 1407.19,855.682 "/>
<path clip-path="url(#clip332)" d="M1432.78 845.909 L1432.78 1031.59 L1453.26 1031.59 L1453.26 845.909 L1432.78 845.909 L1432.78 845.909  Z" fill="#00008b" fill-rule="evenodd" fill-opacity="1"/>
<polyline clip-path="url(#clip332)" style="stroke:#000000; stroke-linecap:round; stroke-linejoin:round; stroke-width:4; stroke-opacity:1; fill:none" points="1432.78,845.909 1432.78,1031.59 1453.26,1031.59 1453.26,845.909 1432.78,845.909 "/>
<path clip-path="url(#clip332)" d="M1458.38 860.569 L1458.38 1031.59 L1478.85 1031.59 L1478.85 860.569 L1458.38 860.569 L1458.38 860.569  Z" fill="#00008b" fill-rule="evenodd" fill-opacity="1"/>
<polyline clip-path="url(#clip332)" style="stroke:#000000; stroke-linecap:round; stroke-linejoin:round; stroke-width:4; stroke-opacity:1; fill:none" points="1458.38,860.569 1458.38,1031.59 1478.85,1031.59 1478.85,860.569 1458.38,860.569 "/>
<path clip-path="url(#clip332)" d="M1483.97 831.25 L1483.97 1031.59 L1504.45 1031.59 L1504.45 831.25 L1483.97 831.25 L1483.97 831.25  Z" fill="#00008b" fill-rule="evenodd" fill-opacity="1"/>
<polyline clip-path="url(#clip332)" style="stroke:#000000; stroke-linecap:round; stroke-linejoin:round; stroke-width:4; stroke-opacity:1; fill:none" points="1483.97,831.25 1483.97,1031.59 1504.45,1031.59 1504.45,831.25 1483.97,831.25 "/>
<path clip-path="url(#clip332)" d="M1509.57 831.25 L1509.57 1031.59 L1530.04 1031.59 L1530.04 831.25 L1509.57 831.25 L1509.57 831.25  Z" fill="#00008b" fill-rule="evenodd" fill-opacity="1"/>
<polyline clip-path="url(#clip332)" style="stroke:#000000; stroke-linecap:round; stroke-linejoin:round; stroke-width:4; stroke-opacity:1; fill:none" points="1509.57,831.25 1509.57,1031.59 1530.04,1031.59 1530.04,831.25 1509.57,831.25 "/>
<path clip-path="url(#clip332)" d="M1535.16 850.796 L1535.16 1031.59 L1555.64 1031.59 L1555.64 850.796 L1535.16 850.796 L1535.16 850.796  Z" fill="#00008b" fill-rule="evenodd" fill-opacity="1"/>
<polyline clip-path="url(#clip332)" style="stroke:#000000; stroke-linecap:round; stroke-linejoin:round; stroke-width:4; stroke-opacity:1; fill:none" points="1535.16,850.796 1535.16,1031.59 1555.64,1031.59 1555.64,850.796 1535.16,850.796 "/>
<path clip-path="url(#clip332)" d="M1560.76 831.25 L1560.76 1031.59 L1581.24 1031.59 L1581.24 831.25 L1560.76 831.25 L1560.76 831.25  Z" fill="#00008b" fill-rule="evenodd" fill-opacity="1"/>
<polyline clip-path="url(#clip332)" style="stroke:#000000; stroke-linecap:round; stroke-linejoin:round; stroke-width:4; stroke-opacity:1; fill:none" points="1560.76,831.25 1560.76,1031.59 1581.24,1031.59 1581.24,831.25 1560.76,831.25 "/>
<path clip-path="url(#clip332)" d="M1586.35 885.001 L1586.35 1031.59 L1606.83 1031.59 L1606.83 885.001 L1586.35 885.001 L1586.35 885.001  Z" fill="#00008b" fill-rule="evenodd" fill-opacity="1"/>
<polyline clip-path="url(#clip332)" style="stroke:#000000; stroke-linecap:round; stroke-linejoin:round; stroke-width:4; stroke-opacity:1; fill:none" points="1586.35,885.001 1586.35,1031.59 1606.83,1031.59 1606.83,885.001 1586.35,885.001 "/>
<path clip-path="url(#clip332)" d="M1611.95 826.364 L1611.95 1031.59 L1632.43 1031.59 L1632.43 826.364 L1611.95 826.364 L1611.95 826.364  Z" fill="#00008b" fill-rule="evenodd" fill-opacity="1"/>
<polyline clip-path="url(#clip332)" style="stroke:#000000; stroke-linecap:round; stroke-linejoin:round; stroke-width:4; stroke-opacity:1; fill:none" points="1611.95,826.364 1611.95,1031.59 1632.43,1031.59 1632.43,826.364 1611.95,826.364 "/>
<path clip-path="url(#clip332)" d="M1637.55 845.909 L1637.55 1031.59 L1658.02 1031.59 L1658.02 845.909 L1637.55 845.909 L1637.55 845.909  Z" fill="#00008b" fill-rule="evenodd" fill-opacity="1"/>
<polyline clip-path="url(#clip332)" style="stroke:#000000; stroke-linecap:round; stroke-linejoin:round; stroke-width:4; stroke-opacity:1; fill:none" points="1637.55,845.909 1637.55,1031.59 1658.02,1031.59 1658.02,845.909 1637.55,845.909 "/>
<path clip-path="url(#clip332)" d="M1663.14 831.25 L1663.14 1031.59 L1683.62 1031.59 L1683.62 831.25 L1663.14 831.25 L1663.14 831.25  Z" fill="#00008b" fill-rule="evenodd" fill-opacity="1"/>
<polyline clip-path="url(#clip332)" style="stroke:#000000; stroke-linecap:round; stroke-linejoin:round; stroke-width:4; stroke-opacity:1; fill:none" points="1663.14,831.25 1663.14,1031.59 1683.62,1031.59 1683.62,831.25 1663.14,831.25 "/>
<path clip-path="url(#clip332)" d="M1688.74 811.704 L1688.74 1031.59 L1709.21 1031.59 L1709.21 811.704 L1688.74 811.704 L1688.74 811.704  Z" fill="#00008b" fill-rule="evenodd" fill-opacity="1"/>
<polyline clip-path="url(#clip332)" style="stroke:#000000; stroke-linecap:round; stroke-linejoin:round; stroke-width:4; stroke-opacity:1; fill:none" points="1688.74,811.704 1688.74,1031.59 1709.21,1031.59 1709.21,811.704 1688.74,811.704 "/>
<path clip-path="url(#clip332)" d="M1714.33 806.818 L1714.33 1031.59 L1734.81 1031.59 L1734.81 806.818 L1714.33 806.818 L1714.33 806.818  Z" fill="#00008b" fill-rule="evenodd" fill-opacity="1"/>
<polyline clip-path="url(#clip332)" style="stroke:#000000; stroke-linecap:round; stroke-linejoin:round; stroke-width:4; stroke-opacity:1; fill:none" points="1714.33,806.818 1714.33,1031.59 1734.81,1031.59 1734.81,806.818 1714.33,806.818 "/>
<path clip-path="url(#clip332)" d="M1739.93 738.408 L1739.93 1031.59 L1760.4 1031.59 L1760.4 738.408 L1739.93 738.408 L1739.93 738.408  Z" fill="#00008b" fill-rule="evenodd" fill-opacity="1"/>
<polyline clip-path="url(#clip332)" style="stroke:#000000; stroke-linecap:round; stroke-linejoin:round; stroke-width:4; stroke-opacity:1; fill:none" points="1739.93,738.408 1739.93,1031.59 1760.4,1031.59 1760.4,738.408 1739.93,738.408 "/>
<path clip-path="url(#clip332)" d="M1765.52 704.203 L1765.52 1031.59 L1786 1031.59 L1786 704.203 L1765.52 704.203 L1765.52 704.203  Z" fill="#00008b" fill-rule="evenodd" fill-opacity="1"/>
<polyline clip-path="url(#clip332)" style="stroke:#000000; stroke-linecap:round; stroke-linejoin:round; stroke-width:4; stroke-opacity:1; fill:none" points="1765.52,704.203 1765.52,1031.59 1786,1031.59 1786,704.203 1765.52,704.203 "/>
<path clip-path="url(#clip332)" d="M1791.12 801.932 L1791.12 1031.59 L1811.6 1031.59 L1811.6 801.932 L1791.12 801.932 L1791.12 801.932  Z" fill="#00008b" fill-rule="evenodd" fill-opacity="1"/>
<polyline clip-path="url(#clip332)" style="stroke:#000000; stroke-linecap:round; stroke-linejoin:round; stroke-width:4; stroke-opacity:1; fill:none" points="1791.12,801.932 1791.12,1031.59 1811.6,1031.59 1811.6,801.932 1791.12,801.932 "/>
<path clip-path="url(#clip332)" d="M1816.71 694.43 L1816.71 1031.59 L1837.19 1031.59 L1837.19 694.43 L1816.71 694.43 L1816.71 694.43  Z" fill="#00008b" fill-rule="evenodd" fill-opacity="1"/>
<polyline clip-path="url(#clip332)" style="stroke:#000000; stroke-linecap:round; stroke-linejoin:round; stroke-width:4; stroke-opacity:1; fill:none" points="1816.71,694.43 1816.71,1031.59 1837.19,1031.59 1837.19,694.43 1816.71,694.43 "/>
<path clip-path="url(#clip332)" d="M1842.31 733.522 L1842.31 1031.59 L1862.79 1031.59 L1862.79 733.522 L1842.31 733.522 L1842.31 733.522  Z" fill="#00008b" fill-rule="evenodd" fill-opacity="1"/>
<polyline clip-path="url(#clip332)" style="stroke:#000000; stroke-linecap:round; stroke-linejoin:round; stroke-width:4; stroke-opacity:1; fill:none" points="1842.31,733.522 1842.31,1031.59 1862.79,1031.59 1862.79,733.522 1842.31,733.522 "/>
<path clip-path="url(#clip332)" d="M1867.91 699.317 L1867.91 1031.59 L1888.38 1031.59 L1888.38 699.317 L1867.91 699.317 L1867.91 699.317  Z" fill="#00008b" fill-rule="evenodd" fill-opacity="1"/>
<polyline clip-path="url(#clip332)" style="stroke:#000000; stroke-linecap:round; stroke-linejoin:round; stroke-width:4; stroke-opacity:1; fill:none" points="1867.91,699.317 1867.91,1031.59 1888.38,1031.59 1888.38,699.317 1867.91,699.317 "/>
<path clip-path="url(#clip332)" d="M1893.5 650.452 L1893.5 1031.59 L1913.98 1031.59 L1913.98 650.452 L1893.5 650.452 L1893.5 650.452  Z" fill="#00008b" fill-rule="evenodd" fill-opacity="1"/>
<polyline clip-path="url(#clip332)" style="stroke:#000000; stroke-linecap:round; stroke-linejoin:round; stroke-width:4; stroke-opacity:1; fill:none" points="1893.5,650.452 1893.5,1031.59 1913.98,1031.59 1913.98,650.452 1893.5,650.452 "/>
<path clip-path="url(#clip332)" d="M1919.1 640.679 L1919.1 1031.59 L1939.57 1031.59 L1939.57 640.679 L1919.1 640.679 L1919.1 640.679  Z" fill="#00008b" fill-rule="evenodd" fill-opacity="1"/>
<polyline clip-path="url(#clip332)" style="stroke:#000000; stroke-linecap:round; stroke-linejoin:round; stroke-width:4; stroke-opacity:1; fill:none" points="1919.1,640.679 1919.1,1031.59 1939.57,1031.59 1939.57,640.679 1919.1,640.679 "/>
<path clip-path="url(#clip332)" d="M1944.69 596.702 L1944.69 1031.59 L1965.17 1031.59 L1965.17 596.702 L1944.69 596.702 L1944.69 596.702  Z" fill="#00008b" fill-rule="evenodd" fill-opacity="1"/>
<polyline clip-path="url(#clip332)" style="stroke:#000000; stroke-linecap:round; stroke-linejoin:round; stroke-width:4; stroke-opacity:1; fill:none" points="1944.69,596.702 1944.69,1031.59 1965.17,1031.59 1965.17,596.702 1944.69,596.702 "/>
<path clip-path="url(#clip332)" d="M1970.29 660.225 L1970.29 1031.59 L1990.76 1031.59 L1990.76 660.225 L1970.29 660.225 L1970.29 660.225  Z" fill="#00008b" fill-rule="evenodd" fill-opacity="1"/>
<polyline clip-path="url(#clip332)" style="stroke:#000000; stroke-linecap:round; stroke-linejoin:round; stroke-width:4; stroke-opacity:1; fill:none" points="1970.29,660.225 1970.29,1031.59 1990.76,1031.59 1990.76,660.225 1970.29,660.225 "/>
<path clip-path="url(#clip332)" d="M1995.88 528.292 L1995.88 1031.59 L2016.36 1031.59 L2016.36 528.292 L1995.88 528.292 L1995.88 528.292  Z" fill="#00008b" fill-rule="evenodd" fill-opacity="1"/>
<polyline clip-path="url(#clip332)" style="stroke:#000000; stroke-linecap:round; stroke-linejoin:round; stroke-width:4; stroke-opacity:1; fill:none" points="1995.88,528.292 1995.88,1031.59 2016.36,1031.59 2016.36,528.292 1995.88,528.292 "/>
<path clip-path="url(#clip332)" d="M2021.48 616.247 L2021.48 1031.59 L2041.96 1031.59 L2041.96 616.247 L2021.48 616.247 L2021.48 616.247  Z" fill="#00008b" fill-rule="evenodd" fill-opacity="1"/>
<polyline clip-path="url(#clip332)" style="stroke:#000000; stroke-linecap:round; stroke-linejoin:round; stroke-width:4; stroke-opacity:1; fill:none" points="2021.48,616.247 2021.48,1031.59 2041.96,1031.59 2041.96,616.247 2021.48,616.247 "/>
<path clip-path="url(#clip332)" d="M2047.07 508.746 L2047.07 1031.59 L2067.55 1031.59 L2067.55 508.746 L2047.07 508.746 L2047.07 508.746  Z" fill="#00008b" fill-rule="evenodd" fill-opacity="1"/>
<polyline clip-path="url(#clip332)" style="stroke:#000000; stroke-linecap:round; stroke-linejoin:round; stroke-width:4; stroke-opacity:1; fill:none" points="2047.07,508.746 2047.07,1031.59 2067.55,1031.59 2067.55,508.746 2047.07,508.746 "/>
<path clip-path="url(#clip332)" d="M2072.67 469.654 L2072.67 1031.59 L2093.15 1031.59 L2093.15 469.654 L2072.67 469.654 L2072.67 469.654  Z" fill="#00008b" fill-rule="evenodd" fill-opacity="1"/>
<polyline clip-path="url(#clip332)" style="stroke:#000000; stroke-linecap:round; stroke-linejoin:round; stroke-width:4; stroke-opacity:1; fill:none" points="2072.67,469.654 2072.67,1031.59 2093.15,1031.59 2093.15,469.654 2072.67,469.654 "/>
<path clip-path="url(#clip332)" d="M2098.27 283.97 L2098.27 1031.59 L2118.74 1031.59 L2118.74 283.97 L2098.27 283.97 L2098.27 283.97  Z" fill="#00008b" fill-rule="evenodd" fill-opacity="1"/>
<polyline clip-path="url(#clip332)" style="stroke:#000000; stroke-linecap:round; stroke-linejoin:round; stroke-width:4; stroke-opacity:1; fill:none" points="2098.27,283.97 2098.27,1031.59 2118.74,1031.59 2118.74,283.97 2098.27,283.97 "/>
<path clip-path="url(#clip332)" d="M2123.86 406.131 L2123.86 1031.59 L2144.34 1031.59 L2144.34 406.131 L2123.86 406.131 L2123.86 406.131  Z" fill="#00008b" fill-rule="evenodd" fill-opacity="1"/>
<polyline clip-path="url(#clip332)" style="stroke:#000000; stroke-linecap:round; stroke-linejoin:round; stroke-width:4; stroke-opacity:1; fill:none" points="2123.86,406.131 2123.86,1031.59 2144.34,1031.59 2144.34,406.131 2123.86,406.131 "/>
<path clip-path="url(#clip332)" d="M2149.46 362.153 L2149.46 1031.59 L2169.93 1031.59 L2169.93 362.153 L2149.46 362.153 L2149.46 362.153  Z" fill="#00008b" fill-rule="evenodd" fill-opacity="1"/>
<polyline clip-path="url(#clip332)" style="stroke:#000000; stroke-linecap:round; stroke-linejoin:round; stroke-width:4; stroke-opacity:1; fill:none" points="2149.46,362.153 2149.46,1031.59 2169.93,1031.59 2169.93,362.153 2149.46,362.153 "/>
<path clip-path="url(#clip332)" d="M2175.05 332.834 L2175.05 1031.59 L2195.53 1031.59 L2195.53 332.834 L2175.05 332.834 L2175.05 332.834  Z" fill="#00008b" fill-rule="evenodd" fill-opacity="1"/>
<polyline clip-path="url(#clip332)" style="stroke:#000000; stroke-linecap:round; stroke-linejoin:round; stroke-width:4; stroke-opacity:1; fill:none" points="2175.05,332.834 2175.05,1031.59 2195.53,1031.59 2195.53,332.834 2175.05,332.834 "/>
<path clip-path="url(#clip332)" d="M2200.65 386.585 L2200.65 1031.59 L2221.12 1031.59 L2221.12 386.585 L2200.65 386.585 L2200.65 386.585  Z" fill="#00008b" fill-rule="evenodd" fill-opacity="1"/>
<polyline clip-path="url(#clip332)" style="stroke:#000000; stroke-linecap:round; stroke-linejoin:round; stroke-width:4; stroke-opacity:1; fill:none" points="2200.65,386.585 2200.65,1031.59 2221.12,1031.59 2221.12,386.585 2200.65,386.585 "/>
<path clip-path="url(#clip332)" d="M2226.24 279.084 L2226.24 1031.59 L2246.72 1031.59 L2246.72 279.084 L2226.24 279.084 L2226.24 279.084  Z" fill="#00008b" fill-rule="evenodd" fill-opacity="1"/>
<polyline clip-path="url(#clip332)" style="stroke:#000000; stroke-linecap:round; stroke-linejoin:round; stroke-width:4; stroke-opacity:1; fill:none" points="2226.24,279.084 2226.24,1031.59 2246.72,1031.59 2246.72,279.084 2226.24,279.084 "/>
<path clip-path="url(#clip332)" d="M2251.84 337.721 L2251.84 1031.59 L2272.32 1031.59 L2272.32 337.721 L2251.84 337.721 L2251.84 337.721  Z" fill="#00008b" fill-rule="evenodd" fill-opacity="1"/>
<polyline clip-path="url(#clip332)" style="stroke:#000000; stroke-linecap:round; stroke-linejoin:round; stroke-width:4; stroke-opacity:1; fill:none" points="2251.84,337.721 2251.84,1031.59 2272.32,1031.59 2272.32,337.721 2251.84,337.721 "/>
<path clip-path="url(#clip332)" d="M2277.43 352.38 L2277.43 1031.59 L2297.91 1031.59 L2297.91 352.38 L2277.43 352.38 L2277.43 352.38  Z" fill="#00008b" fill-rule="evenodd" fill-opacity="1"/>
<polyline clip-path="url(#clip332)" style="stroke:#000000; stroke-linecap:round; stroke-linejoin:round; stroke-width:4; stroke-opacity:1; fill:none" points="2277.43,352.38 2277.43,1031.59 2297.91,1031.59 2297.91,352.38 2277.43,352.38 "/>
<path clip-path="url(#clip332)" d="M2303.03 342.607 L2303.03 1031.59 L2323.51 1031.59 L2323.51 342.607 L2303.03 342.607 L2303.03 342.607  Z" fill="#00008b" fill-rule="evenodd" fill-opacity="1"/>
<polyline clip-path="url(#clip332)" style="stroke:#000000; stroke-linecap:round; stroke-linejoin:round; stroke-width:4; stroke-opacity:1; fill:none" points="2303.03,342.607 2303.03,1031.59 2323.51,1031.59 2323.51,342.607 2303.03,342.607 "/>
<path clip-path="url(#clip332)" d="M2328.63 406.131 L2328.63 1031.59 L2349.1 1031.59 L2349.1 406.131 L2328.63 406.131 L2328.63 406.131  Z" fill="#00008b" fill-rule="evenodd" fill-opacity="1"/>
<polyline clip-path="url(#clip332)" style="stroke:#000000; stroke-linecap:round; stroke-linejoin:round; stroke-width:4; stroke-opacity:1; fill:none" points="2328.63,406.131 2328.63,1031.59 2349.1,1031.59 2349.1,406.131 2328.63,406.131 "/>
<path clip-path="url(#clip332)" d="M2354.22 450.109 L2354.22 1031.59 L2374.7 1031.59 L2374.7 450.109 L2354.22 450.109 L2354.22 450.109  Z" fill="#00008b" fill-rule="evenodd" fill-opacity="1"/>
<polyline clip-path="url(#clip332)" style="stroke:#000000; stroke-linecap:round; stroke-linejoin:round; stroke-width:4; stroke-opacity:1; fill:none" points="2354.22,450.109 2354.22,1031.59 2374.7,1031.59 2374.7,450.109 2354.22,450.109 "/>
<path clip-path="url(#clip332)" d="M2379.82 464.768 L2379.82 1031.59 L2400.29 1031.59 L2400.29 464.768 L2379.82 464.768 L2379.82 464.768  Z" fill="#00008b" fill-rule="evenodd" fill-opacity="1"/>
<polyline clip-path="url(#clip332)" style="stroke:#000000; stroke-linecap:round; stroke-linejoin:round; stroke-width:4; stroke-opacity:1; fill:none" points="2379.82,464.768 2379.82,1031.59 2400.29,1031.59 2400.29,464.768 2379.82,464.768 "/>
<path clip-path="url(#clip332)" d="M2405.41 601.588 L2405.41 1031.59 L2425.89 1031.59 L2425.89 601.588 L2405.41 601.588 L2405.41 601.588  Z" fill="#00008b" fill-rule="evenodd" fill-opacity="1"/>
<polyline clip-path="url(#clip332)" style="stroke:#000000; stroke-linecap:round; stroke-linejoin:round; stroke-width:4; stroke-opacity:1; fill:none" points="2405.41,601.588 2405.41,1031.59 2425.89,1031.59 2425.89,601.588 2405.41,601.588 "/>
<path clip-path="url(#clip332)" d="M2431.01 606.474 L2431.01 1031.59 L2451.48 1031.59 L2451.48 606.474 L2431.01 606.474 L2431.01 606.474  Z" fill="#00008b" fill-rule="evenodd" fill-opacity="1"/>
<polyline clip-path="url(#clip332)" style="stroke:#000000; stroke-linecap:round; stroke-linejoin:round; stroke-width:4; stroke-opacity:1; fill:none" points="2431.01,606.474 2431.01,1031.59 2451.48,1031.59 2451.48,606.474 2431.01,606.474 "/>
<path clip-path="url(#clip332)" d="M2456.6 616.247 L2456.6 1031.59 L2477.08 1031.59 L2477.08 616.247 L2456.6 616.247 L2456.6 616.247  Z" fill="#00008b" fill-rule="evenodd" fill-opacity="1"/>
<polyline clip-path="url(#clip332)" style="stroke:#000000; stroke-linecap:round; stroke-linejoin:round; stroke-width:4; stroke-opacity:1; fill:none" points="2456.6,616.247 2456.6,1031.59 2477.08,1031.59 2477.08,616.247 2456.6,616.247 "/>
<path clip-path="url(#clip332)" d="M2482.2 709.089 L2482.2 1031.59 L2502.68 1031.59 L2502.68 709.089 L2482.2 709.089 L2482.2 709.089  Z" fill="#00008b" fill-rule="evenodd" fill-opacity="1"/>
<polyline clip-path="url(#clip332)" style="stroke:#000000; stroke-linecap:round; stroke-linejoin:round; stroke-width:4; stroke-opacity:1; fill:none" points="2482.2,709.089 2482.2,1031.59 2502.68,1031.59 2502.68,709.089 2482.2,709.089 "/>
<path clip-path="url(#clip332)" d="M2507.79 674.884 L2507.79 1031.59 L2528.27 1031.59 L2528.27 674.884 L2507.79 674.884 L2507.79 674.884  Z" fill="#00008b" fill-rule="evenodd" fill-opacity="1"/>
<polyline clip-path="url(#clip332)" style="stroke:#000000; stroke-linecap:round; stroke-linejoin:round; stroke-width:4; stroke-opacity:1; fill:none" points="2507.79,674.884 2507.79,1031.59 2528.27,1031.59 2528.27,674.884 2507.79,674.884 "/>
<path clip-path="url(#clip332)" d="M2533.39 806.818 L2533.39 1031.59 L2553.87 1031.59 L2553.87 806.818 L2533.39 806.818 L2533.39 806.818  Z" fill="#00008b" fill-rule="evenodd" fill-opacity="1"/>
<polyline clip-path="url(#clip332)" style="stroke:#000000; stroke-linecap:round; stroke-linejoin:round; stroke-width:4; stroke-opacity:1; fill:none" points="2533.39,806.818 2533.39,1031.59 2553.87,1031.59 2553.87,806.818 2533.39,806.818 "/>
<path clip-path="url(#clip332)" d="M2558.99 767.727 L2558.99 1031.59 L2579.46 1031.59 L2579.46 767.727 L2558.99 767.727 L2558.99 767.727  Z" fill="#00008b" fill-rule="evenodd" fill-opacity="1"/>
<polyline clip-path="url(#clip332)" style="stroke:#000000; stroke-linecap:round; stroke-linejoin:round; stroke-width:4; stroke-opacity:1; fill:none" points="2558.99,767.727 2558.99,1031.59 2579.46,1031.59 2579.46,767.727 2558.99,767.727 "/>
<path clip-path="url(#clip332)" d="M2584.58 821.477 L2584.58 1031.59 L2605.06 1031.59 L2605.06 821.477 L2584.58 821.477 L2584.58 821.477  Z" fill="#00008b" fill-rule="evenodd" fill-opacity="1"/>
<polyline clip-path="url(#clip332)" style="stroke:#000000; stroke-linecap:round; stroke-linejoin:round; stroke-width:4; stroke-opacity:1; fill:none" points="2584.58,821.477 2584.58,1031.59 2605.06,1031.59 2605.06,821.477 2584.58,821.477 "/>
<path clip-path="url(#clip332)" d="M2610.18 826.364 L2610.18 1031.59 L2630.65 1031.59 L2630.65 826.364 L2610.18 826.364 L2610.18 826.364  Z" fill="#00008b" fill-rule="evenodd" fill-opacity="1"/>
<polyline clip-path="url(#clip332)" style="stroke:#000000; stroke-linecap:round; stroke-linejoin:round; stroke-width:4; stroke-opacity:1; fill:none" points="2610.18,826.364 2610.18,1031.59 2630.65,1031.59 2630.65,826.364 2610.18,826.364 "/>
<path clip-path="url(#clip332)" d="M2635.77 865.455 L2635.77 1031.59 L2656.25 1031.59 L2656.25 865.455 L2635.77 865.455 L2635.77 865.455  Z" fill="#00008b" fill-rule="evenodd" fill-opacity="1"/>
<polyline clip-path="url(#clip332)" style="stroke:#000000; stroke-linecap:round; stroke-linejoin:round; stroke-width:4; stroke-opacity:1; fill:none" points="2635.77,865.455 2635.77,1031.59 2656.25,1031.59 2656.25,865.455 2635.77,865.455 "/>
<path clip-path="url(#clip332)" d="M2661.37 885.001 L2661.37 1031.59 L2681.84 1031.59 L2681.84 885.001 L2661.37 885.001 L2661.37 885.001  Z" fill="#00008b" fill-rule="evenodd" fill-opacity="1"/>
<polyline clip-path="url(#clip332)" style="stroke:#000000; stroke-linecap:round; stroke-linejoin:round; stroke-width:4; stroke-opacity:1; fill:none" points="2661.37,885.001 2661.37,1031.59 2681.84,1031.59 2681.84,885.001 2661.37,885.001 "/>
<path clip-path="url(#clip332)" d="M2686.96 875.228 L2686.96 1031.59 L2707.44 1031.59 L2707.44 875.228 L2686.96 875.228 L2686.96 875.228  Z" fill="#00008b" fill-rule="evenodd" fill-opacity="1"/>
<polyline clip-path="url(#clip332)" style="stroke:#000000; stroke-linecap:round; stroke-linejoin:round; stroke-width:4; stroke-opacity:1; fill:none" points="2686.96,875.228 2686.96,1031.59 2707.44,1031.59 2707.44,875.228 2686.96,875.228 "/>
<path clip-path="url(#clip332)" d="M2712.56 933.865 L2712.56 1031.59 L2733.04 1031.59 L2733.04 933.865 L2712.56 933.865 L2712.56 933.865  Z" fill="#00008b" fill-rule="evenodd" fill-opacity="1"/>
<polyline clip-path="url(#clip332)" style="stroke:#000000; stroke-linecap:round; stroke-linejoin:round; stroke-width:4; stroke-opacity:1; fill:none" points="2712.56,933.865 2712.56,1031.59 2733.04,1031.59 2733.04,933.865 2712.56,933.865 "/>
<path clip-path="url(#clip332)" d="M2738.15 870.342 L2738.15 1031.59 L2758.63 1031.59 L2758.63 870.342 L2738.15 870.342 L2738.15 870.342  Z" fill="#00008b" fill-rule="evenodd" fill-opacity="1"/>
<polyline clip-path="url(#clip332)" style="stroke:#000000; stroke-linecap:round; stroke-linejoin:round; stroke-width:4; stroke-opacity:1; fill:none" points="2738.15,870.342 2738.15,1031.59 2758.63,1031.59 2758.63,870.342 2738.15,870.342 "/>
<path clip-path="url(#clip332)" d="M2763.75 889.887 L2763.75 1031.59 L2784.23 1031.59 L2784.23 889.887 L2763.75 889.887 L2763.75 889.887  Z" fill="#00008b" fill-rule="evenodd" fill-opacity="1"/>
<polyline clip-path="url(#clip332)" style="stroke:#000000; stroke-linecap:round; stroke-linejoin:round; stroke-width:4; stroke-opacity:1; fill:none" points="2763.75,889.887 2763.75,1031.59 2784.23,1031.59 2784.23,889.887 2763.75,889.887 "/>
<path clip-path="url(#clip332)" d="M2789.35 875.228 L2789.35 1031.59 L2809.82 1031.59 L2809.82 875.228 L2789.35 875.228 L2789.35 875.228  Z" fill="#00008b" fill-rule="evenodd" fill-opacity="1"/>
<polyline clip-path="url(#clip332)" style="stroke:#000000; stroke-linecap:round; stroke-linejoin:round; stroke-width:4; stroke-opacity:1; fill:none" points="2789.35,875.228 2789.35,1031.59 2809.82,1031.59 2809.82,875.228 2789.35,875.228 "/>
<path clip-path="url(#clip332)" d="M2814.94 894.774 L2814.94 1031.59 L2835.42 1031.59 L2835.42 894.774 L2814.94 894.774 L2814.94 894.774  Z" fill="#00008b" fill-rule="evenodd" fill-opacity="1"/>
<polyline clip-path="url(#clip332)" style="stroke:#000000; stroke-linecap:round; stroke-linejoin:round; stroke-width:4; stroke-opacity:1; fill:none" points="2814.94,894.774 2814.94,1031.59 2835.42,1031.59 2835.42,894.774 2814.94,894.774 "/>
<path clip-path="url(#clip332)" d="M2840.54 899.66 L2840.54 1031.59 L2861.01 1031.59 L2861.01 899.66 L2840.54 899.66 L2840.54 899.66  Z" fill="#00008b" fill-rule="evenodd" fill-opacity="1"/>
<polyline clip-path="url(#clip332)" style="stroke:#000000; stroke-linecap:round; stroke-linejoin:round; stroke-width:4; stroke-opacity:1; fill:none" points="2840.54,899.66 2840.54,1031.59 2861.01,1031.59 2861.01,899.66 2840.54,899.66 "/>
<path clip-path="url(#clip332)" d="M2866.13 880.114 L2866.13 1031.59 L2886.61 1031.59 L2886.61 880.114 L2866.13 880.114 L2866.13 880.114  Z" fill="#00008b" fill-rule="evenodd" fill-opacity="1"/>
<polyline clip-path="url(#clip332)" style="stroke:#000000; stroke-linecap:round; stroke-linejoin:round; stroke-width:4; stroke-opacity:1; fill:none" points="2866.13,880.114 2866.13,1031.59 2886.61,1031.59 2886.61,880.114 2866.13,880.114 "/>
<path clip-path="url(#clip332)" d="M2891.73 831.25 L2891.73 1031.59 L2912.2 1031.59 L2912.2 831.25 L2891.73 831.25 L2891.73 831.25  Z" fill="#00008b" fill-rule="evenodd" fill-opacity="1"/>
<polyline clip-path="url(#clip332)" style="stroke:#000000; stroke-linecap:round; stroke-linejoin:round; stroke-width:4; stroke-opacity:1; fill:none" points="2891.73,831.25 2891.73,1031.59 2912.2,1031.59 2912.2,831.25 2891.73,831.25 "/>
<path clip-path="url(#clip332)" d="M2917.32 894.774 L2917.32 1031.59 L2937.8 1031.59 L2937.8 894.774 L2917.32 894.774 L2917.32 894.774  Z" fill="#00008b" fill-rule="evenodd" fill-opacity="1"/>
<polyline clip-path="url(#clip332)" style="stroke:#000000; stroke-linecap:round; stroke-linejoin:round; stroke-width:4; stroke-opacity:1; fill:none" points="2917.32,894.774 2917.32,1031.59 2937.8,1031.59 2937.8,894.774 2917.32,894.774 "/>
<path clip-path="url(#clip332)" d="M2942.92 924.092 L2942.92 1031.59 L2963.4 1031.59 L2963.4 924.092 L2942.92 924.092 L2942.92 924.092  Z" fill="#00008b" fill-rule="evenodd" fill-opacity="1"/>
<polyline clip-path="url(#clip332)" style="stroke:#000000; stroke-linecap:round; stroke-linejoin:round; stroke-width:4; stroke-opacity:1; fill:none" points="2942.92,924.092 2942.92,1031.59 2963.4,1031.59 2963.4,924.092 2942.92,924.092 "/>
<circle clip-path="url(#clip332)" style="fill:#00008b; stroke:none; fill-opacity:0" cx="419.198" cy="787.272" r="2"/>
<circle clip-path="url(#clip332)" style="fill:#00008b; stroke:none; fill-opacity:0" cx="444.793" cy="777.499" r="2"/>
<circle clip-path="url(#clip332)" style="fill:#00008b; stroke:none; fill-opacity:0" cx="470.389" cy="767.727" r="2"/>
<circle clip-path="url(#clip332)" style="fill:#00008b; stroke:none; fill-opacity:0" cx="495.984" cy="743.294" r="2"/>
<circle clip-path="url(#clip332)" style="fill:#00008b; stroke:none; fill-opacity:0" cx="521.58" cy="689.544" r="2"/>
<circle clip-path="url(#clip332)" style="fill:#00008b; stroke:none; fill-opacity:0" cx="547.176" cy="640.679" r="2"/>
<circle clip-path="url(#clip332)" style="fill:#00008b; stroke:none; fill-opacity:0" cx="572.771" cy="679.771" r="2"/>
<circle clip-path="url(#clip332)" style="fill:#00008b; stroke:none; fill-opacity:0" cx="598.367" cy="552.724" r="2"/>
<circle clip-path="url(#clip332)" style="fill:#00008b; stroke:none; fill-opacity:0" cx="623.962" cy="572.269" r="2"/>
<circle clip-path="url(#clip332)" style="fill:#00008b; stroke:none; fill-opacity:0" cx="649.558" cy="665.112" r="2"/>
<circle clip-path="url(#clip332)" style="fill:#00008b; stroke:none; fill-opacity:0" cx="675.153" cy="489.2" r="2"/>
<circle clip-path="url(#clip332)" style="fill:#00008b; stroke:none; fill-opacity:0" cx="700.749" cy="454.995" r="2"/>
<circle clip-path="url(#clip332)" style="fill:#00008b; stroke:none; fill-opacity:0" cx="726.344" cy="474.541" r="2"/>
<circle clip-path="url(#clip332)" style="fill:#00008b; stroke:none; fill-opacity:0" cx="751.94" cy="347.494" r="2"/>
<circle clip-path="url(#clip332)" style="fill:#00008b; stroke:none; fill-opacity:0" cx="777.536" cy="288.857" r="2"/>
<circle clip-path="url(#clip332)" style="fill:#00008b; stroke:none; fill-opacity:0" cx="803.131" cy="279.084" r="2"/>
<circle clip-path="url(#clip332)" style="fill:#00008b; stroke:none; fill-opacity:0" cx="828.727" cy="303.516" r="2"/>
<circle clip-path="url(#clip332)" style="fill:#00008b; stroke:none; fill-opacity:0" cx="854.322" cy="156.923" r="2"/>
<circle clip-path="url(#clip332)" style="fill:#00008b; stroke:none; fill-opacity:0" cx="879.918" cy="210.674" r="2"/>
<circle clip-path="url(#clip332)" style="fill:#00008b; stroke:none; fill-opacity:0" cx="905.513" cy="235.106" r="2"/>
<circle clip-path="url(#clip332)" style="fill:#00008b; stroke:none; fill-opacity:0" cx="956.704" cy="122.718" r="2"/>
<circle clip-path="url(#clip332)" style="fill:#00008b; stroke:none; fill-opacity:0" cx="982.3" cy="230.219" r="2"/>
<circle clip-path="url(#clip332)" style="fill:#00008b; stroke:none; fill-opacity:0" cx="1007.9" cy="220.447" r="2"/>
<circle clip-path="url(#clip332)" style="fill:#00008b; stroke:none; fill-opacity:0" cx="1033.49" cy="200.901" r="2"/>
<circle clip-path="url(#clip332)" style="fill:#00008b; stroke:none; fill-opacity:0" cx="1059.09" cy="254.652" r="2"/>
<circle clip-path="url(#clip332)" style="fill:#00008b; stroke:none; fill-opacity:0" cx="1084.68" cy="381.699" r="2"/>
<circle clip-path="url(#clip332)" style="fill:#00008b; stroke:none; fill-opacity:0" cx="1110.28" cy="332.834" r="2"/>
<circle clip-path="url(#clip332)" style="fill:#00008b; stroke:none; fill-opacity:0" cx="1135.87" cy="469.654" r="2"/>
<circle clip-path="url(#clip332)" style="fill:#00008b; stroke:none; fill-opacity:0" cx="1161.47" cy="489.2" r="2"/>
<circle clip-path="url(#clip332)" style="fill:#00008b; stroke:none; fill-opacity:0" cx="1187.06" cy="655.339" r="2"/>
<circle clip-path="url(#clip332)" style="fill:#00008b; stroke:none; fill-opacity:0" cx="1212.66" cy="601.588" r="2"/>
<circle clip-path="url(#clip332)" style="fill:#00008b; stroke:none; fill-opacity:0" cx="1238.26" cy="689.544" r="2"/>
<circle clip-path="url(#clip332)" style="fill:#00008b; stroke:none; fill-opacity:0" cx="1263.85" cy="718.862" r="2"/>
<circle clip-path="url(#clip332)" style="fill:#00008b; stroke:none; fill-opacity:0" cx="1289.45" cy="738.408" r="2"/>
<circle clip-path="url(#clip332)" style="fill:#00008b; stroke:none; fill-opacity:0" cx="1315.04" cy="718.862" r="2"/>
<circle clip-path="url(#clip332)" style="fill:#00008b; stroke:none; fill-opacity:0" cx="1340.64" cy="792.159" r="2"/>
<circle clip-path="url(#clip332)" style="fill:#00008b; stroke:none; fill-opacity:0" cx="1366.23" cy="845.909" r="2"/>
<circle clip-path="url(#clip332)" style="fill:#00008b; stroke:none; fill-opacity:0" cx="1391.83" cy="894.774" r="2"/>
<circle clip-path="url(#clip332)" style="fill:#00008b; stroke:none; fill-opacity:0" cx="1417.42" cy="855.682" r="2"/>
<circle clip-path="url(#clip332)" style="fill:#00008b; stroke:none; fill-opacity:0" cx="1443.02" cy="845.909" r="2"/>
<circle clip-path="url(#clip332)" style="fill:#00008b; stroke:none; fill-opacity:0" cx="1468.62" cy="860.569" r="2"/>
<circle clip-path="url(#clip332)" style="fill:#00008b; stroke:none; fill-opacity:0" cx="1494.21" cy="831.25" r="2"/>
<circle clip-path="url(#clip332)" style="fill:#00008b; stroke:none; fill-opacity:0" cx="1519.81" cy="831.25" r="2"/>
<circle clip-path="url(#clip332)" style="fill:#00008b; stroke:none; fill-opacity:0" cx="1545.4" cy="850.796" r="2"/>
<circle clip-path="url(#clip332)" style="fill:#00008b; stroke:none; fill-opacity:0" cx="1571" cy="831.25" r="2"/>
<circle clip-path="url(#clip332)" style="fill:#00008b; stroke:none; fill-opacity:0" cx="1596.59" cy="885.001" r="2"/>
<circle clip-path="url(#clip332)" style="fill:#00008b; stroke:none; fill-opacity:0" cx="1622.19" cy="826.364" r="2"/>
<circle clip-path="url(#clip332)" style="fill:#00008b; stroke:none; fill-opacity:0" cx="1647.78" cy="845.909" r="2"/>
<circle clip-path="url(#clip332)" style="fill:#00008b; stroke:none; fill-opacity:0" cx="1673.38" cy="831.25" r="2"/>
<circle clip-path="url(#clip332)" style="fill:#00008b; stroke:none; fill-opacity:0" cx="1698.98" cy="811.704" r="2"/>
<circle clip-path="url(#clip332)" style="fill:#00008b; stroke:none; fill-opacity:0" cx="1724.57" cy="806.818" r="2"/>
<circle clip-path="url(#clip332)" style="fill:#00008b; stroke:none; fill-opacity:0" cx="1750.17" cy="738.408" r="2"/>
<circle clip-path="url(#clip332)" style="fill:#00008b; stroke:none; fill-opacity:0" cx="1775.76" cy="704.203" r="2"/>
<circle clip-path="url(#clip332)" style="fill:#00008b; stroke:none; fill-opacity:0" cx="1801.36" cy="801.932" r="2"/>
<circle clip-path="url(#clip332)" style="fill:#00008b; stroke:none; fill-opacity:0" cx="1826.95" cy="694.43" r="2"/>
<circle clip-path="url(#clip332)" style="fill:#00008b; stroke:none; fill-opacity:0" cx="1852.55" cy="733.522" r="2"/>
<circle clip-path="url(#clip332)" style="fill:#00008b; stroke:none; fill-opacity:0" cx="1878.14" cy="699.317" r="2"/>
<circle clip-path="url(#clip332)" style="fill:#00008b; stroke:none; fill-opacity:0" cx="1903.74" cy="650.452" r="2"/>
<circle clip-path="url(#clip332)" style="fill:#00008b; stroke:none; fill-opacity:0" cx="1929.34" cy="640.679" r="2"/>
<circle clip-path="url(#clip332)" style="fill:#00008b; stroke:none; fill-opacity:0" cx="1954.93" cy="596.702" r="2"/>
<circle clip-path="url(#clip332)" style="fill:#00008b; stroke:none; fill-opacity:0" cx="1980.53" cy="660.225" r="2"/>
<circle clip-path="url(#clip332)" style="fill:#00008b; stroke:none; fill-opacity:0" cx="2006.12" cy="528.292" r="2"/>
<circle clip-path="url(#clip332)" style="fill:#00008b; stroke:none; fill-opacity:0" cx="2031.72" cy="616.247" r="2"/>
<circle clip-path="url(#clip332)" style="fill:#00008b; stroke:none; fill-opacity:0" cx="2057.31" cy="508.746" r="2"/>
<circle clip-path="url(#clip332)" style="fill:#00008b; stroke:none; fill-opacity:0" cx="2082.91" cy="469.654" r="2"/>
<circle clip-path="url(#clip332)" style="fill:#00008b; stroke:none; fill-opacity:0" cx="2108.5" cy="283.97" r="2"/>
<circle clip-path="url(#clip332)" style="fill:#00008b; stroke:none; fill-opacity:0" cx="2134.1" cy="406.131" r="2"/>
<circle clip-path="url(#clip332)" style="fill:#00008b; stroke:none; fill-opacity:0" cx="2159.7" cy="362.153" r="2"/>
<circle clip-path="url(#clip332)" style="fill:#00008b; stroke:none; fill-opacity:0" cx="2185.29" cy="332.834" r="2"/>
<circle clip-path="url(#clip332)" style="fill:#00008b; stroke:none; fill-opacity:0" cx="2210.89" cy="386.585" r="2"/>
<circle clip-path="url(#clip332)" style="fill:#00008b; stroke:none; fill-opacity:0" cx="2236.48" cy="279.084" r="2"/>
<circle clip-path="url(#clip332)" style="fill:#00008b; stroke:none; fill-opacity:0" cx="2262.08" cy="337.721" r="2"/>
<circle clip-path="url(#clip332)" style="fill:#00008b; stroke:none; fill-opacity:0" cx="2287.67" cy="352.38" r="2"/>
<circle clip-path="url(#clip332)" style="fill:#00008b; stroke:none; fill-opacity:0" cx="2313.27" cy="342.607" r="2"/>
<circle clip-path="url(#clip332)" style="fill:#00008b; stroke:none; fill-opacity:0" cx="2338.86" cy="406.131" r="2"/>
<circle clip-path="url(#clip332)" style="fill:#00008b; stroke:none; fill-opacity:0" cx="2364.46" cy="450.109" r="2"/>
<circle clip-path="url(#clip332)" style="fill:#00008b; stroke:none; fill-opacity:0" cx="2390.06" cy="464.768" r="2"/>
<circle clip-path="url(#clip332)" style="fill:#00008b; stroke:none; fill-opacity:0" cx="2415.65" cy="601.588" r="2"/>
<circle clip-path="url(#clip332)" style="fill:#00008b; stroke:none; fill-opacity:0" cx="2441.25" cy="606.474" r="2"/>
<circle clip-path="url(#clip332)" style="fill:#00008b; stroke:none; fill-opacity:0" cx="2466.84" cy="616.247" r="2"/>
<circle clip-path="url(#clip332)" style="fill:#00008b; stroke:none; fill-opacity:0" cx="2492.44" cy="709.089" r="2"/>
<circle clip-path="url(#clip332)" style="fill:#00008b; stroke:none; fill-opacity:0" cx="2518.03" cy="674.884" r="2"/>
<circle clip-path="url(#clip332)" style="fill:#00008b; stroke:none; fill-opacity:0" cx="2543.63" cy="806.818" r="2"/>
<circle clip-path="url(#clip332)" style="fill:#00008b; stroke:none; fill-opacity:0" cx="2569.22" cy="767.727" r="2"/>
<circle clip-path="url(#clip332)" style="fill:#00008b; stroke:none; fill-opacity:0" cx="2594.82" cy="821.477" r="2"/>
<circle clip-path="url(#clip332)" style="fill:#00008b; stroke:none; fill-opacity:0" cx="2620.42" cy="826.364" r="2"/>
<circle clip-path="url(#clip332)" style="fill:#00008b; stroke:none; fill-opacity:0" cx="2646.01" cy="865.455" r="2"/>
<circle clip-path="url(#clip332)" style="fill:#00008b; stroke:none; fill-opacity:0" cx="2671.61" cy="885.001" r="2"/>
<circle clip-path="url(#clip332)" style="fill:#00008b; stroke:none; fill-opacity:0" cx="2697.2" cy="875.228" r="2"/>
<circle clip-path="url(#clip332)" style="fill:#00008b; stroke:none; fill-opacity:0" cx="2722.8" cy="933.865" r="2"/>
<circle clip-path="url(#clip332)" style="fill:#00008b; stroke:none; fill-opacity:0" cx="2748.39" cy="870.342" r="2"/>
<circle clip-path="url(#clip332)" style="fill:#00008b; stroke:none; fill-opacity:0" cx="2773.99" cy="889.887" r="2"/>
<circle clip-path="url(#clip332)" style="fill:#00008b; stroke:none; fill-opacity:0" cx="2799.58" cy="875.228" r="2"/>
<circle clip-path="url(#clip332)" style="fill:#00008b; stroke:none; fill-opacity:0" cx="2825.18" cy="894.774" r="2"/>
<circle clip-path="url(#clip332)" style="fill:#00008b; stroke:none; fill-opacity:0" cx="2850.78" cy="899.66" r="2"/>
<circle clip-path="url(#clip332)" style="fill:#00008b; stroke:none; fill-opacity:0" cx="2876.37" cy="880.114" r="2"/>
<circle clip-path="url(#clip332)" style="fill:#00008b; stroke:none; fill-opacity:0" cx="2901.97" cy="831.25" r="2"/>
<circle clip-path="url(#clip332)" style="fill:#00008b; stroke:none; fill-opacity:0" cx="2927.56" cy="894.774" r="2"/>
<circle clip-path="url(#clip332)" style="fill:#00008b; stroke:none; fill-opacity:0" cx="2953.16" cy="924.092" r="2"/>
</svg>
