<?xml version="1.0" encoding="utf-8"?>
<svg xmlns="http://www.w3.org/2000/svg" xmlns:xlink="http://www.w3.org/1999/xlink" width="800" height="300" viewBox="0 0 3200 1200">
<defs>
  <clipPath id="clip630">
    <rect x="0" y="0" width="3200" height="1200"/>
  </clipPath>
</defs>
<path clip-path="url(#clip630)" d="M0 1200 L3200 1200 L3200 0 L0 0  Z" fill="#ffffff" fill-rule="evenodd" fill-opacity="1"/>
<defs>
  <clipPath id="clip631">
    <rect x="640" y="0" width="2241" height="1200"/>
  </clipPath>
</defs>
<path clip-path="url(#clip630)" d="M238.248 1031.59 L1491.18 1031.59 L1491.18 78.7402 L238.248 78.7402  Z" fill="#ffffff" fill-rule="evenodd" fill-opacity="1"/>
<defs>
  <clipPath id="clip632">
    <rect x="238" y="78" width="1254" height="954"/>
  </clipPath>
</defs>
<polyline clip-path="url(#clip632)" style="stroke:#000000; stroke-linecap:round; stroke-linejoin:round; stroke-width:2; stroke-opacity:0.1; fill:none" points="261.769,1031.59 261.769,78.7402 "/>
<polyline clip-path="url(#clip632)" style="stroke:#000000; stroke-linecap:round; stroke-linejoin:round; stroke-width:2; stroke-opacity:0.1; fill:none" points="560.256,1031.59 560.256,78.7402 "/>
<polyline clip-path="url(#clip632)" style="stroke:#000000; stroke-linecap:round; stroke-linejoin:round; stroke-width:2; stroke-opacity:0.1; fill:none" points="858.744,1031.59 858.744,78.7402 "/>
<polyline clip-path="url(#clip632)" style="stroke:#000000; stroke-linecap:round; stroke-linejoin:round; stroke-width:2; stroke-opacity:0.1; fill:none" points="1157.23,1031.59 1157.23,78.7402 "/>
<polyline clip-path="url(#clip632)" style="stroke:#000000; stroke-linecap:round; stroke-linejoin:round; stroke-width:2; stroke-opacity:0.1; fill:none" points="1455.72,1031.59 1455.72,78.7402 "/>
<polyline clip-path="url(#clip630)" style="stroke:#000000; stroke-linecap:round; stroke-linejoin:round; stroke-width:4; stroke-opacity:1; fill:none" points="238.248,1031.59 1491.18,1031.59 "/>
<polyline clip-path="url(#clip630)" style="stroke:#000000; stroke-linecap:round; stroke-linejoin:round; stroke-width:4; stroke-opacity:1; fill:none" points="261.769,1031.59 261.769,1012.7 "/>
<polyline clip-path="url(#clip630)" style="stroke:#000000; stroke-linecap:round; stroke-linejoin:round; stroke-width:4; stroke-opacity:1; fill:none" points="560.256,1031.59 560.256,1012.7 "/>
<polyline clip-path="url(#clip630)" style="stroke:#000000; stroke-linecap:round; stroke-linejoin:round; stroke-width:4; stroke-opacity:1; fill:none" points="858.744,1031.59 858.744,1012.7 "/>
<polyline clip-path="url(#clip630)" style="stroke:#000000; stroke-linecap:round; stroke-linejoin:round; stroke-width:4; stroke-opacity:1; fill:none" points="1157.23,1031.59 1157.23,1012.7 "/>
<polyline clip-path="url(#clip630)" style="stroke:#000000; stroke-linecap:round; stroke-linejoin:round; stroke-width:4; stroke-opacity:1; fill:none" points="1455.72,1031.59 1455.72,1012.7 "/>
<path clip-path="url(#clip630)" d="M261.769 1068.91 Q258.158 1068.91 256.329 1072.48 Q254.524 1076.02 254.524 1083.15 Q254.524 1090.25 256.329 1093.82 Q258.158 1097.36 261.769 1097.36 Q265.403 1097.36 267.209 1093.82 Q269.038 1090.25 269.038 1083.15 Q269.038 1076.02 267.209 1072.48 Q265.403 1068.91 261.769 1068.91 M261.769 1065.21 Q267.579 1065.21 270.635 1069.82 Q273.713 1074.4 273.713 1083.15 Q273.713 1091.88 270.635 1096.48 Q267.579 1101.07 261.769 1101.07 Q255.959 1101.07 252.88 1096.48 Q249.825 1091.88 249.825 1083.15 Q249.825 1074.4 252.88 1069.82 Q255.959 1065.21 261.769 1065.21 Z" fill="#000000" fill-rule="nonzero" fill-opacity="1" /><path clip-path="url(#clip630)" d="M539.527 1096.46 L555.847 1096.46 L555.847 1100.39 L533.902 1100.39 L533.902 1096.46 Q536.564 1093.7 541.148 1089.07 Q545.754 1084.42 546.935 1083.08 Q549.18 1080.56 550.06 1078.82 Q550.963 1077.06 550.963 1075.37 Q550.963 1072.62 549.018 1070.88 Q547.097 1069.14 543.995 1069.14 Q541.796 1069.14 539.342 1069.91 Q536.912 1070.67 534.134 1072.22 L534.134 1067.5 Q536.958 1066.37 539.412 1065.79 Q541.865 1065.21 543.902 1065.21 Q549.273 1065.21 552.467 1067.89 Q555.662 1070.58 555.662 1075.07 Q555.662 1077.2 554.851 1079.12 Q554.064 1081.02 551.958 1083.61 Q551.379 1084.28 548.277 1087.5 Q545.176 1090.69 539.527 1096.46 Z" fill="#000000" fill-rule="nonzero" fill-opacity="1" /><path clip-path="url(#clip630)" d="M565.708 1065.83 L584.064 1065.83 L584.064 1069.77 L569.99 1069.77 L569.99 1078.24 Q571.009 1077.89 572.027 1077.73 Q573.046 1077.55 574.064 1077.55 Q579.851 1077.55 583.231 1080.72 Q586.61 1083.89 586.61 1089.31 Q586.61 1094.88 583.138 1097.99 Q579.666 1101.07 573.347 1101.07 Q571.171 1101.07 568.902 1100.69 Q566.657 1100.32 564.25 1099.58 L564.25 1094.88 Q566.333 1096.02 568.555 1096.57 Q570.777 1097.13 573.254 1097.13 Q577.259 1097.13 579.597 1095.02 Q581.935 1092.92 581.935 1089.31 Q581.935 1085.69 579.597 1083.59 Q577.259 1081.48 573.254 1081.48 Q571.379 1081.48 569.504 1081.9 Q567.652 1082.32 565.708 1083.19 L565.708 1065.83 Z" fill="#000000" fill-rule="nonzero" fill-opacity="1" /><path clip-path="url(#clip630)" d="M833.443 1065.83 L851.799 1065.83 L851.799 1069.77 L837.725 1069.77 L837.725 1078.24 Q838.744 1077.89 839.762 1077.73 Q840.781 1077.55 841.8 1077.55 Q847.587 1077.55 850.966 1080.72 Q854.346 1083.89 854.346 1089.31 Q854.346 1094.88 850.874 1097.99 Q847.401 1101.07 841.082 1101.07 Q838.906 1101.07 836.638 1100.69 Q834.392 1100.32 831.985 1099.58 L831.985 1094.88 Q834.068 1096.02 836.29 1096.57 Q838.512 1097.13 840.989 1097.13 Q844.994 1097.13 847.332 1095.02 Q849.67 1092.92 849.67 1089.31 Q849.67 1085.69 847.332 1083.59 Q844.994 1081.48 840.989 1081.48 Q839.114 1081.48 837.239 1081.9 Q835.388 1082.32 833.443 1083.19 L833.443 1065.83 Z" fill="#000000" fill-rule="nonzero" fill-opacity="1" /><path clip-path="url(#clip630)" d="M873.559 1068.91 Q869.948 1068.91 868.119 1072.48 Q866.313 1076.02 866.313 1083.15 Q866.313 1090.25 868.119 1093.82 Q869.948 1097.36 873.559 1097.36 Q877.193 1097.36 878.998 1093.82 Q880.827 1090.25 880.827 1083.15 Q880.827 1076.02 878.998 1072.48 Q877.193 1068.91 873.559 1068.91 M873.559 1065.21 Q879.369 1065.21 882.424 1069.82 Q885.503 1074.4 885.503 1083.15 Q885.503 1091.88 882.424 1096.48 Q879.369 1101.07 873.559 1101.07 Q867.748 1101.07 864.67 1096.48 Q861.614 1091.88 861.614 1083.15 Q861.614 1074.4 864.67 1069.82 Q867.748 1065.21 873.559 1065.21 Z" fill="#000000" fill-rule="nonzero" fill-opacity="1" /><path clip-path="url(#clip630)" d="M1131.09 1065.83 L1153.31 1065.83 L1153.31 1067.82 L1140.76 1100.39 L1135.88 1100.39 L1147.68 1069.77 L1131.09 1069.77 L1131.09 1065.83 Z" fill="#000000" fill-rule="nonzero" fill-opacity="1" /><path clip-path="url(#clip630)" d="M1162.47 1065.83 L1180.83 1065.83 L1180.83 1069.77 L1166.76 1069.77 L1166.76 1078.24 Q1167.78 1077.89 1168.79 1077.73 Q1169.81 1077.55 1170.83 1077.55 Q1176.62 1077.55 1180 1080.72 Q1183.38 1083.89 1183.38 1089.31 Q1183.38 1094.88 1179.9 1097.99 Q1176.43 1101.07 1170.11 1101.07 Q1167.94 1101.07 1165.67 1100.69 Q1163.42 1100.32 1161.02 1099.58 L1161.02 1094.88 Q1163.1 1096.02 1165.32 1096.57 Q1167.54 1097.13 1170.02 1097.13 Q1174.03 1097.13 1176.36 1095.02 Q1178.7 1092.92 1178.7 1089.31 Q1178.7 1085.69 1176.36 1083.59 Q1174.03 1081.48 1170.02 1081.48 Q1168.15 1081.48 1166.27 1081.9 Q1164.42 1082.32 1162.47 1083.19 L1162.47 1065.83 Z" fill="#000000" fill-rule="nonzero" fill-opacity="1" /><path clip-path="url(#clip630)" d="M1415.33 1096.46 L1422.96 1096.46 L1422.96 1070.09 L1414.65 1071.76 L1414.65 1067.5 L1422.92 1065.83 L1427.59 1065.83 L1427.59 1096.46 L1435.23 1096.46 L1435.23 1100.39 L1415.33 1100.39 L1415.33 1096.46 Z" fill="#000000" fill-rule="nonzero" fill-opacity="1" /><path clip-path="url(#clip630)" d="M1454.68 1068.91 Q1451.07 1068.91 1449.24 1072.48 Q1447.43 1076.02 1447.43 1083.15 Q1447.43 1090.25 1449.24 1093.82 Q1451.07 1097.36 1454.68 1097.36 Q1458.31 1097.36 1460.12 1093.82 Q1461.95 1090.25 1461.95 1083.15 Q1461.95 1076.02 1460.12 1072.48 Q1458.31 1068.91 1454.68 1068.91 M1454.68 1065.21 Q1460.49 1065.21 1463.54 1069.82 Q1466.62 1074.4 1466.62 1083.15 Q1466.62 1091.88 1463.54 1096.48 Q1460.49 1101.07 1454.68 1101.07 Q1448.87 1101.07 1445.79 1096.48 Q1442.73 1091.88 1442.73 1083.15 Q1442.73 1074.4 1445.79 1069.82 Q1448.87 1065.21 1454.68 1065.21 Z" fill="#000000" fill-rule="nonzero" fill-opacity="1" /><path clip-path="url(#clip630)" d="M1484.84 1068.91 Q1481.23 1068.91 1479.4 1072.48 Q1477.59 1076.02 1477.59 1083.15 Q1477.59 1090.25 1479.4 1093.82 Q1481.23 1097.36 1484.84 1097.36 Q1488.47 1097.36 1490.28 1093.82 Q1492.11 1090.25 1492.11 1083.15 Q1492.11 1076.02 1490.28 1072.48 Q1488.47 1068.91 1484.84 1068.91 M1484.84 1065.21 Q1490.65 1065.21 1493.7 1069.82 Q1496.78 1074.4 1496.78 1083.15 Q1496.78 1091.88 1493.7 1096.48 Q1490.65 1101.07 1484.84 1101.07 Q1479.03 1101.07 1475.95 1096.48 Q1472.89 1091.88 1472.89 1083.15 Q1472.89 1074.4 1475.95 1069.82 Q1479.03 1065.21 1484.84 1065.21 Z" fill="#000000" fill-rule="nonzero" fill-opacity="1" /><path clip-path="url(#clip630)" d="M674.936 1140.94 L715.135 1140.94 L715.135 1146.35 L698.266 1146.35 L698.266 1188.46 L691.805 1188.46 L691.805 1146.35 L674.936 1146.35 L674.936 1140.94 Z" fill="#000000" fill-rule="nonzero" fill-opacity="1" /><path clip-path="url(#clip630)" d="M719.082 1152.81 L724.939 1152.81 L724.939 1188.46 L719.082 1188.46 L719.082 1152.81 M719.082 1138.93 L724.939 1138.93 L724.939 1146.35 L719.082 1146.35 L719.082 1138.93 Z" fill="#000000" fill-rule="nonzero" fill-opacity="1" /><path clip-path="url(#clip630)" d="M764.947 1159.65 Q767.143 1155.71 770.199 1153.83 Q773.254 1151.95 777.392 1151.95 Q782.962 1151.95 785.986 1155.87 Q789.009 1159.75 789.009 1166.94 L789.009 1188.46 L783.121 1188.46 L783.121 1167.13 Q783.121 1162.01 781.307 1159.53 Q779.493 1157.04 775.769 1157.04 Q771.217 1157.04 768.576 1160.07 Q765.934 1163.09 765.934 1168.31 L765.934 1188.46 L760.045 1188.46 L760.045 1167.13 Q760.045 1161.98 758.231 1159.53 Q756.417 1157.04 752.629 1157.04 Q748.142 1157.04 745.5 1160.1 Q742.858 1163.12 742.858 1168.31 L742.858 1188.46 L736.97 1188.46 L736.97 1152.81 L742.858 1152.81 L742.858 1158.35 Q744.863 1155.07 747.664 1153.51 Q750.465 1151.95 754.316 1151.95 Q758.199 1151.95 760.905 1153.92 Q763.642 1155.9 764.947 1159.65 Z" fill="#000000" fill-rule="nonzero" fill-opacity="1" /><path clip-path="url(#clip630)" d="M831.182 1169.17 L831.182 1172.03 L804.255 1172.03 Q804.637 1178.08 807.884 1181.26 Q811.162 1184.42 816.987 1184.42 Q820.361 1184.42 823.512 1183.59 Q826.694 1182.76 829.814 1181.11 L829.814 1186.64 Q826.663 1187.98 823.352 1188.68 Q820.042 1189.38 816.637 1189.38 Q808.107 1189.38 803.109 1184.42 Q798.144 1179.45 798.144 1170.98 Q798.144 1162.23 802.855 1157.11 Q807.597 1151.95 815.618 1151.95 Q822.811 1151.95 826.981 1156.6 Q831.182 1161.21 831.182 1169.17 M825.326 1167.45 Q825.262 1162.64 822.62 1159.78 Q820.01 1156.92 815.682 1156.92 Q810.78 1156.92 807.82 1159.68 Q804.892 1162.45 804.446 1167.48 L825.326 1167.45 Z" fill="#000000" fill-rule="nonzero" fill-opacity="1" /><path clip-path="url(#clip630)" d="M875.583 1139 Q871.318 1146.32 869.249 1153.48 Q867.18 1160.64 867.18 1167.99 Q867.18 1175.34 869.249 1182.57 Q871.35 1189.76 875.583 1197.05 L870.49 1197.05 Q865.716 1189.57 863.329 1182.35 Q860.974 1175.12 860.974 1167.99 Q860.974 1160.89 863.329 1153.7 Q865.684 1146.51 870.49 1139 L875.583 1139 Z" fill="#000000" fill-rule="nonzero" fill-opacity="1" /><path clip-path="url(#clip630)" d="M910.403 1158.22 L910.403 1138.93 L916.26 1138.93 L916.26 1188.46 L910.403 1188.46 L910.403 1183.11 Q908.557 1186.29 905.725 1187.85 Q902.924 1189.38 898.977 1189.38 Q892.516 1189.38 888.442 1184.22 Q884.4 1179.07 884.4 1170.67 Q884.4 1162.26 888.442 1157.11 Q892.516 1151.95 898.977 1151.95 Q902.924 1151.95 905.725 1153.51 Q908.557 1155.04 910.403 1158.22 M890.447 1170.67 Q890.447 1177.13 893.089 1180.82 Q895.762 1184.48 900.409 1184.48 Q905.056 1184.48 907.73 1180.82 Q910.403 1177.13 910.403 1170.67 Q910.403 1164.2 907.73 1160.54 Q905.056 1156.85 900.409 1156.85 Q895.762 1156.85 893.089 1160.54 Q890.447 1164.2 890.447 1170.67 Z" fill="#000000" fill-rule="nonzero" fill-opacity="1" /><path clip-path="url(#clip630)" d="M944.524 1170.54 Q937.426 1170.54 934.689 1172.16 Q931.951 1173.78 931.951 1177.7 Q931.951 1180.82 933.988 1182.66 Q936.057 1184.48 939.59 1184.48 Q944.46 1184.48 947.388 1181.04 Q950.348 1177.57 950.348 1171.84 L950.348 1170.54 L944.524 1170.54 M956.205 1168.12 L956.205 1188.46 L950.348 1188.46 L950.348 1183.05 Q948.343 1186.29 945.351 1187.85 Q942.359 1189.38 938.031 1189.38 Q932.556 1189.38 929.31 1186.33 Q926.095 1183.24 926.095 1178.08 Q926.095 1172.07 930.105 1169.01 Q934.148 1165.96 942.137 1165.96 L950.348 1165.96 L950.348 1165.38 Q950.348 1161.34 947.675 1159.14 Q945.033 1156.92 940.227 1156.92 Q937.171 1156.92 934.275 1157.65 Q931.378 1158.38 928.705 1159.84 L928.705 1154.43 Q931.92 1153.19 934.943 1152.59 Q937.967 1151.95 940.832 1151.95 Q948.566 1151.95 952.385 1155.96 Q956.205 1159.97 956.205 1168.12 Z" fill="#000000" fill-rule="nonzero" fill-opacity="1" /><path clip-path="url(#clip630)" d="M983.1 1191.77 Q980.617 1198.13 978.262 1200.08 Q975.907 1202.02 971.96 1202.02 L967.281 1202.02 L967.281 1197.12 L970.719 1197.12 Q973.138 1197.12 974.474 1195.97 Q975.811 1194.82 977.434 1190.56 L978.485 1187.88 L964.066 1152.81 L970.273 1152.81 L981.413 1180.69 L992.553 1152.81 L998.759 1152.81 L983.1 1191.77 Z" fill="#000000" fill-rule="nonzero" fill-opacity="1" /><path clip-path="url(#clip630)" d="M1029.57 1153.86 L1029.57 1159.4 Q1027.09 1158.13 1024.41 1157.49 Q1021.74 1156.85 1018.88 1156.85 Q1014.51 1156.85 1012.32 1158.19 Q1010.15 1159.53 1010.15 1162.2 Q1010.15 1164.24 1011.71 1165.41 Q1013.27 1166.56 1017.98 1167.61 L1019.99 1168.06 Q1026.23 1169.39 1028.84 1171.84 Q1031.48 1174.26 1031.48 1178.62 Q1031.48 1183.59 1027.53 1186.48 Q1023.62 1189.38 1016.74 1189.38 Q1013.88 1189.38 1010.76 1188.81 Q1007.67 1188.27 1004.23 1187.15 L1004.23 1181.11 Q1007.48 1182.79 1010.63 1183.65 Q1013.78 1184.48 1016.87 1184.48 Q1021.01 1184.48 1023.24 1183.08 Q1025.46 1181.65 1025.46 1179.07 Q1025.46 1176.68 1023.84 1175.41 Q1022.25 1174.13 1016.81 1172.96 L1014.77 1172.48 Q1009.33 1171.33 1006.91 1168.98 Q1004.49 1166.59 1004.49 1162.45 Q1004.49 1157.42 1008.05 1154.69 Q1011.62 1151.95 1018.17 1151.95 Q1021.42 1151.95 1024.29 1152.43 Q1027.15 1152.91 1029.57 1153.86 Z" fill="#000000" fill-rule="nonzero" fill-opacity="1" /><path clip-path="url(#clip630)" d="M1039.88 1139 L1044.97 1139 Q1049.75 1146.51 1052.1 1153.7 Q1054.49 1160.89 1054.49 1167.99 Q1054.49 1175.12 1052.1 1182.35 Q1049.75 1189.57 1044.97 1197.05 L1039.88 1197.05 Q1044.12 1189.76 1046.18 1182.57 Q1048.28 1175.34 1048.28 1167.99 Q1048.28 1160.64 1046.18 1153.48 Q1044.12 1146.32 1039.88 1139 Z" fill="#000000" fill-rule="nonzero" fill-opacity="1" /><polyline clip-path="url(#clip632)" style="stroke:#000000; stroke-linecap:round; stroke-linejoin:round; stroke-width:2; stroke-opacity:0.1; fill:none" points="238.248,915.445 1491.18,915.445 "/>
<polyline clip-path="url(#clip632)" style="stroke:#000000; stroke-linecap:round; stroke-linejoin:round; stroke-width:2; stroke-opacity:0.1; fill:none" points="238.248,735.306 1491.18,735.306 "/>
<polyline clip-path="url(#clip632)" style="stroke:#000000; stroke-linecap:round; stroke-linejoin:round; stroke-width:2; stroke-opacity:0.1; fill:none" points="238.248,555.167 1491.18,555.167 "/>
<polyline clip-path="url(#clip632)" style="stroke:#000000; stroke-linecap:round; stroke-linejoin:round; stroke-width:2; stroke-opacity:0.1; fill:none" points="238.248,375.028 1491.18,375.028 "/>
<polyline clip-path="url(#clip632)" style="stroke:#000000; stroke-linecap:round; stroke-linejoin:round; stroke-width:2; stroke-opacity:0.1; fill:none" points="238.248,194.889 1491.18,194.889 "/>
<polyline clip-path="url(#clip630)" style="stroke:#000000; stroke-linecap:round; stroke-linejoin:round; stroke-width:4; stroke-opacity:1; fill:none" points="238.248,1031.59 238.248,78.7402 "/>
<polyline clip-path="url(#clip630)" style="stroke:#000000; stroke-linecap:round; stroke-linejoin:round; stroke-width:4; stroke-opacity:1; fill:none" points="238.248,915.445 257.146,915.445 "/>
<polyline clip-path="url(#clip630)" style="stroke:#000000; stroke-linecap:round; stroke-linejoin:round; stroke-width:4; stroke-opacity:1; fill:none" points="238.248,735.306 257.146,735.306 "/>
<polyline clip-path="url(#clip630)" style="stroke:#000000; stroke-linecap:round; stroke-linejoin:round; stroke-width:4; stroke-opacity:1; fill:none" points="238.248,555.167 257.146,555.167 "/>
<polyline clip-path="url(#clip630)" style="stroke:#000000; stroke-linecap:round; stroke-linejoin:round; stroke-width:4; stroke-opacity:1; fill:none" points="238.248,375.028 257.146,375.028 "/>
<polyline clip-path="url(#clip630)" style="stroke:#000000; stroke-linecap:round; stroke-linejoin:round; stroke-width:4; stroke-opacity:1; fill:none" points="238.248,194.889 257.146,194.889 "/>
<path clip-path="url(#clip630)" d="M132.911 901.244 Q129.3 901.244 127.471 904.809 Q125.665 908.35 125.665 915.48 Q125.665 922.586 127.471 926.151 Q129.3 929.693 132.911 929.693 Q136.545 929.693 138.35 926.151 Q140.179 922.586 140.179 915.48 Q140.179 908.35 138.35 904.809 Q136.545 901.244 132.911 901.244 M132.911 897.54 Q138.721 897.54 141.776 902.147 Q144.855 906.73 144.855 915.48 Q144.855 924.207 141.776 928.813 Q138.721 933.397 132.911 933.397 Q127.1 933.397 124.022 928.813 Q120.966 924.207 120.966 915.48 Q120.966 906.73 124.022 902.147 Q127.1 897.54 132.911 897.54 Z" fill="#000000" fill-rule="nonzero" fill-opacity="1" /><path clip-path="url(#clip630)" d="M153.073 926.846 L157.957 926.846 L157.957 932.725 L153.073 932.725 L153.073 926.846 Z" fill="#000000" fill-rule="nonzero" fill-opacity="1" /><path clip-path="url(#clip630)" d="M178.721 913.582 Q175.572 913.582 173.721 915.735 Q171.892 917.887 171.892 921.637 Q171.892 925.364 173.721 927.54 Q175.572 929.693 178.721 929.693 Q181.869 929.693 183.697 927.54 Q185.549 925.364 185.549 921.637 Q185.549 917.887 183.697 915.735 Q181.869 913.582 178.721 913.582 M188.003 898.929 L188.003 903.188 Q186.244 902.355 184.438 901.915 Q182.656 901.475 180.896 901.475 Q176.267 901.475 173.813 904.6 Q171.383 907.725 171.035 914.045 Q172.401 912.031 174.461 910.966 Q176.521 909.878 178.998 909.878 Q184.207 909.878 187.216 913.049 Q190.248 916.198 190.248 921.637 Q190.248 926.961 187.1 930.179 Q183.952 933.397 178.721 933.397 Q172.725 933.397 169.554 928.813 Q166.383 924.207 166.383 915.48 Q166.383 907.286 170.272 902.425 Q174.16 897.54 180.711 897.54 Q182.471 897.54 184.253 897.888 Q186.058 898.235 188.003 898.929 Z" fill="#000000" fill-rule="nonzero" fill-opacity="1" /><path clip-path="url(#clip630)" d="M133.165 721.105 Q129.554 721.105 127.725 724.67 Q125.92 728.211 125.92 735.341 Q125.92 742.447 127.725 746.012 Q129.554 749.554 133.165 749.554 Q136.799 749.554 138.605 746.012 Q140.434 742.447 140.434 735.341 Q140.434 728.211 138.605 724.67 Q136.799 721.105 133.165 721.105 M133.165 717.401 Q138.975 717.401 142.031 722.008 Q145.11 726.591 145.11 735.341 Q145.11 744.068 142.031 748.674 Q138.975 753.257 133.165 753.257 Q127.355 753.257 124.276 748.674 Q121.221 744.068 121.221 735.341 Q121.221 726.591 124.276 722.008 Q127.355 717.401 133.165 717.401 Z" fill="#000000" fill-rule="nonzero" fill-opacity="1" /><path clip-path="url(#clip630)" d="M153.327 746.707 L158.211 746.707 L158.211 752.586 L153.327 752.586 L153.327 746.707 Z" fill="#000000" fill-rule="nonzero" fill-opacity="1" /><path clip-path="url(#clip630)" d="M178.396 736.174 Q175.063 736.174 173.142 737.957 Q171.244 739.739 171.244 742.864 Q171.244 745.989 173.142 747.771 Q175.063 749.554 178.396 749.554 Q181.73 749.554 183.651 747.771 Q185.572 745.966 185.572 742.864 Q185.572 739.739 183.651 737.957 Q181.753 736.174 178.396 736.174 M173.721 734.183 Q170.711 733.443 169.022 731.383 Q167.355 729.322 167.355 726.359 Q167.355 722.216 170.295 719.809 Q173.258 717.401 178.396 717.401 Q183.558 717.401 186.498 719.809 Q189.438 722.216 189.438 726.359 Q189.438 729.322 187.748 731.383 Q186.082 733.443 183.096 734.183 Q186.475 734.97 188.35 737.262 Q190.248 739.554 190.248 742.864 Q190.248 747.887 187.17 750.572 Q184.114 753.257 178.396 753.257 Q172.679 753.257 169.6 750.572 Q166.545 747.887 166.545 742.864 Q166.545 739.554 168.443 737.262 Q170.341 734.97 173.721 734.183 M172.008 726.799 Q172.008 729.484 173.674 730.989 Q175.364 732.494 178.396 732.494 Q181.406 732.494 183.096 730.989 Q184.808 729.484 184.808 726.799 Q184.808 724.114 183.096 722.609 Q181.406 721.105 178.396 721.105 Q175.364 721.105 173.674 722.609 Q172.008 724.114 172.008 726.799 Z" fill="#000000" fill-rule="nonzero" fill-opacity="1" /><path clip-path="url(#clip630)" d="M123.883 568.512 L131.522 568.512 L131.522 542.146 L123.212 543.813 L123.212 539.554 L131.475 537.887 L136.151 537.887 L136.151 568.512 L143.79 568.512 L143.79 572.447 L123.883 572.447 L123.883 568.512 Z" fill="#000000" fill-rule="nonzero" fill-opacity="1" /><path clip-path="url(#clip630)" d="M153.235 566.567 L158.119 566.567 L158.119 572.447 L153.235 572.447 L153.235 566.567 Z" fill="#000000" fill-rule="nonzero" fill-opacity="1" /><path clip-path="url(#clip630)" d="M178.304 540.966 Q174.693 540.966 172.864 544.53 Q171.059 548.072 171.059 555.202 Q171.059 562.308 172.864 565.873 Q174.693 569.415 178.304 569.415 Q181.938 569.415 183.744 565.873 Q185.572 562.308 185.572 555.202 Q185.572 548.072 183.744 544.53 Q181.938 540.966 178.304 540.966 M178.304 537.262 Q184.114 537.262 187.17 541.868 Q190.248 546.452 190.248 555.202 Q190.248 563.928 187.17 568.535 Q184.114 573.118 178.304 573.118 Q172.494 573.118 169.415 568.535 Q166.359 563.928 166.359 555.202 Q166.359 546.452 169.415 541.868 Q172.494 537.262 178.304 537.262 Z" fill="#000000" fill-rule="nonzero" fill-opacity="1" /><path clip-path="url(#clip630)" d="M125.48 388.373 L133.119 388.373 L133.119 362.007 L124.809 363.674 L124.809 359.414 L133.073 357.748 L137.749 357.748 L137.749 388.373 L145.387 388.373 L145.387 392.308 L125.48 392.308 L125.48 388.373 Z" fill="#000000" fill-rule="nonzero" fill-opacity="1" /><path clip-path="url(#clip630)" d="M154.832 386.428 L159.716 386.428 L159.716 392.308 L154.832 392.308 L154.832 386.428 Z" fill="#000000" fill-rule="nonzero" fill-opacity="1" /><path clip-path="url(#clip630)" d="M173.929 388.373 L190.248 388.373 L190.248 392.308 L168.304 392.308 L168.304 388.373 Q170.966 385.618 175.549 380.988 Q180.156 376.336 181.336 374.993 Q183.582 372.47 184.461 370.734 Q185.364 368.975 185.364 367.285 Q185.364 364.53 183.42 362.794 Q181.498 361.058 178.396 361.058 Q176.197 361.058 173.744 361.822 Q171.313 362.586 168.535 364.137 L168.535 359.414 Q171.359 358.28 173.813 357.702 Q176.267 357.123 178.304 357.123 Q183.674 357.123 186.869 359.808 Q190.063 362.493 190.063 366.984 Q190.063 369.113 189.253 371.035 Q188.466 372.933 186.359 375.525 Q185.781 376.197 182.679 379.414 Q179.577 382.609 173.929 388.373 Z" fill="#000000" fill-rule="nonzero" fill-opacity="1" /><path clip-path="url(#clip630)" d="M123.397 208.233 L131.036 208.233 L131.036 181.868 L122.725 183.535 L122.725 179.275 L130.989 177.609 L135.665 177.609 L135.665 208.233 L143.304 208.233 L143.304 212.169 L123.397 212.169 L123.397 208.233 Z" fill="#000000" fill-rule="nonzero" fill-opacity="1" /><path clip-path="url(#clip630)" d="M152.748 206.289 L157.633 206.289 L157.633 212.169 L152.748 212.169 L152.748 206.289 Z" fill="#000000" fill-rule="nonzero" fill-opacity="1" /><path clip-path="url(#clip630)" d="M180.665 181.683 L168.859 200.132 L180.665 200.132 L180.665 181.683 M179.438 177.609 L185.318 177.609 L185.318 200.132 L190.248 200.132 L190.248 204.021 L185.318 204.021 L185.318 212.169 L180.665 212.169 L180.665 204.021 L165.063 204.021 L165.063 199.507 L179.438 177.609 Z" fill="#000000" fill-rule="nonzero" fill-opacity="1" /><path clip-path="url(#clip630)" d="M36.4302 883.24 Q37.1305 881.171 39.4221 879.229 Q41.7138 877.256 45.7242 875.282 L58.7102 868.758 L58.7102 875.664 L46.5199 881.744 Q41.7456 884.099 40.186 886.327 Q38.6264 888.523 38.6264 892.343 L38.6264 899.345 L58.7102 899.345 L58.7102 905.774 L11.1902 905.774 L11.1902 891.26 Q11.1902 883.112 14.5959 879.102 Q18.0015 875.091 24.8765 875.091 Q29.3643 875.091 32.3244 877.192 Q35.2844 879.261 36.4302 883.24 M16.4738 899.345 L33.3429 899.345 L33.3429 891.26 Q33.3429 886.613 31.2104 884.258 Q29.046 881.871 24.8765 881.871 Q20.707 881.871 18.6063 884.258 Q16.4738 886.613 16.4738 891.26 L16.4738 899.345 Z" fill="#000000" fill-rule="nonzero" fill-opacity="1" /><path clip-path="url(#clip630)" d="M39.4221 833.173 L42.2867 833.173 L42.2867 860.1 Q48.3341 859.718 51.517 856.472 Q54.668 853.193 54.668 847.369 Q54.668 843.995 53.8405 840.844 Q53.0129 837.661 51.3578 834.542 L56.896 834.542 Q58.2328 837.693 58.933 841.003 Q59.6332 844.313 59.6332 847.719 Q59.6332 856.249 54.668 861.246 Q49.7027 866.211 41.2364 866.211 Q32.4835 866.211 27.3591 861.501 Q22.2029 856.758 22.2029 848.737 Q22.2029 841.544 26.8499 837.375 Q31.465 833.173 39.4221 833.173 M37.7034 839.03 Q32.8973 839.093 30.0327 841.735 Q27.1681 844.345 27.1681 848.674 Q27.1681 853.575 29.9372 856.535 Q32.7063 859.464 37.7352 859.909 L37.7034 839.03 Z" fill="#000000" fill-rule="nonzero" fill-opacity="1" /><path clip-path="url(#clip630)" d="M53.363 817.896 L72.2692 817.896 L72.2692 823.784 L23.0623 823.784 L23.0623 817.896 L28.4731 817.896 Q25.2903 816.05 23.7625 813.249 Q22.2029 810.416 22.2029 806.501 Q22.2029 800.008 27.3591 795.966 Q32.5153 791.892 40.9181 791.892 Q49.3208 791.892 54.477 795.966 Q59.6332 800.008 59.6332 806.501 Q59.6332 810.416 58.1055 813.249 Q56.5459 816.05 53.363 817.896 M40.9181 797.971 Q34.4569 797.971 30.7966 800.645 Q27.1045 803.286 27.1045 807.933 Q27.1045 812.58 30.7966 815.254 Q34.4569 817.896 40.9181 817.896 Q47.3793 817.896 51.0714 815.254 Q54.7317 812.58 54.7317 807.933 Q54.7317 803.286 51.0714 800.645 Q47.3793 797.971 40.9181 797.971 Z" fill="#000000" fill-rule="nonzero" fill-opacity="1" /><path clip-path="url(#clip630)" d="M28.5368 761.527 Q27.9639 762.514 27.7092 763.692 Q27.4228 764.837 27.4228 766.238 Q27.4228 771.203 30.6693 773.877 Q33.884 776.519 39.9314 776.519 L58.7102 776.519 L58.7102 782.407 L23.0623 782.407 L23.0623 776.519 L28.6004 776.519 Q25.3539 774.672 23.7943 771.712 Q22.2029 768.752 22.2029 764.519 Q22.2029 763.914 22.2984 763.182 Q22.362 762.45 22.5212 761.559 L28.5368 761.527 Z" fill="#000000" fill-rule="nonzero" fill-opacity="1" /><path clip-path="url(#clip630)" d="M27.1681 743.003 Q27.1681 747.714 30.8603 750.451 Q34.5205 753.188 40.9181 753.188 Q47.3156 753.188 51.0077 750.483 Q54.668 747.746 54.668 743.003 Q54.668 738.324 50.9759 735.587 Q47.2838 732.85 40.9181 732.85 Q34.5842 732.85 30.8921 735.587 Q27.1681 738.324 27.1681 743.003 M22.2029 743.003 Q22.2029 735.364 27.1681 731.004 Q32.1334 726.643 40.9181 726.643 Q49.6709 726.643 54.668 731.004 Q59.6332 735.364 59.6332 743.003 Q59.6332 750.674 54.668 755.034 Q49.6709 759.363 40.9181 759.363 Q32.1334 759.363 27.1681 755.034 Q22.2029 750.674 22.2029 743.003 Z" fill="#000000" fill-rule="nonzero" fill-opacity="1" /><path clip-path="url(#clip630)" d="M28.4731 693.478 L9.18502 693.478 L9.18502 687.621 L58.7102 687.621 L58.7102 693.478 L53.363 693.478 Q56.5459 695.324 58.1055 698.157 Q59.6332 700.958 59.6332 704.904 Q59.6332 711.365 54.477 715.44 Q49.3208 719.482 40.9181 719.482 Q32.5153 719.482 27.3591 715.44 Q22.2029 711.365 22.2029 704.904 Q22.2029 700.958 23.7625 698.157 Q25.2903 695.324 28.4731 693.478 M40.9181 713.434 Q47.3793 713.434 51.0714 710.793 Q54.7317 708.119 54.7317 703.472 Q54.7317 698.825 51.0714 696.151 Q47.3793 693.478 40.9181 693.478 Q34.4569 693.478 30.7966 696.151 Q27.1045 698.825 27.1045 703.472 Q27.1045 708.119 30.7966 710.793 Q34.4569 713.434 40.9181 713.434 Z" fill="#000000" fill-rule="nonzero" fill-opacity="1" /><path clip-path="url(#clip630)" d="M44.642 676.163 L23.0623 676.163 L23.0623 670.307 L44.4192 670.307 Q49.4799 670.307 52.0262 668.333 Q54.5407 666.36 54.5407 662.413 Q54.5407 657.671 51.517 654.934 Q48.4933 652.164 43.2734 652.164 L23.0623 652.164 L23.0623 646.308 L58.7102 646.308 L58.7102 652.164 L53.2357 652.164 Q56.4822 654.297 58.0736 657.13 Q59.6332 659.931 59.6332 663.655 Q59.6332 669.797 55.8138 672.98 Q51.9944 676.163 44.642 676.163 M22.2029 661.427 L22.2029 661.427 Z" fill="#000000" fill-rule="nonzero" fill-opacity="1" /><path clip-path="url(#clip630)" d="M24.4309 608.591 L29.9054 608.591 Q28.5368 611.074 27.8684 613.588 Q27.1681 616.071 27.1681 618.617 Q27.1681 624.314 30.7966 627.465 Q34.3932 630.617 40.9181 630.617 Q47.4429 630.617 51.0714 627.465 Q54.668 624.314 54.668 618.617 Q54.668 616.071 53.9996 613.588 Q53.2994 611.074 51.9307 608.591 L57.3416 608.591 Q58.4874 611.042 59.0603 613.684 Q59.6332 616.294 59.6332 619.254 Q59.6332 627.306 54.5725 632.049 Q49.5118 636.791 40.9181 636.791 Q32.1971 636.791 27.2 632.017 Q22.2029 627.211 22.2029 618.872 Q22.2029 616.166 22.7758 613.588 Q23.3169 611.01 24.4309 608.591 Z" fill="#000000" fill-rule="nonzero" fill-opacity="1" /><path clip-path="url(#clip630)" d="M12.9408 592.613 L23.0623 592.613 L23.0623 580.55 L27.6137 580.55 L27.6137 592.613 L46.9655 592.613 Q51.326 592.613 52.5673 591.436 Q53.8086 590.226 53.8086 586.566 L53.8086 580.55 L58.7102 580.55 L58.7102 586.566 Q58.7102 593.345 56.1958 595.923 Q53.6495 598.502 46.9655 598.502 L27.6137 598.502 L27.6137 602.798 L23.0623 602.798 L23.0623 598.502 L12.9408 598.502 L12.9408 592.613 Z" fill="#000000" fill-rule="nonzero" fill-opacity="1" /><path clip-path="url(#clip630)" d="M23.0623 572.848 L23.0623 566.991 L58.7102 566.991 L58.7102 572.848 L23.0623 572.848 M9.18502 572.848 L9.18502 566.991 L16.6011 566.991 L16.6011 572.848 L9.18502 572.848 Z" fill="#000000" fill-rule="nonzero" fill-opacity="1" /><path clip-path="url(#clip630)" d="M27.1681 540.924 Q27.1681 545.634 30.8603 548.372 Q34.5205 551.109 40.9181 551.109 Q47.3156 551.109 51.0077 548.403 Q54.668 545.666 54.668 540.924 Q54.668 536.245 50.9759 533.508 Q47.2838 530.77 40.9181 530.77 Q34.5842 530.77 30.8921 533.508 Q27.1681 536.245 27.1681 540.924 M22.2029 540.924 Q22.2029 533.285 27.1681 528.924 Q32.1334 524.564 40.9181 524.564 Q49.6709 524.564 54.668 528.924 Q59.6332 533.285 59.6332 540.924 Q59.6332 548.594 54.668 552.955 Q49.6709 557.284 40.9181 557.284 Q32.1334 557.284 27.1681 552.955 Q22.2029 548.594 22.2029 540.924 Z" fill="#000000" fill-rule="nonzero" fill-opacity="1" /><path clip-path="url(#clip630)" d="M37.1941 485.224 L58.7102 485.224 L58.7102 491.08 L37.3851 491.08 Q32.3244 491.08 29.8099 493.054 Q27.2955 495.027 27.2955 498.974 Q27.2955 503.716 30.3192 506.453 Q33.3429 509.191 38.5628 509.191 L58.7102 509.191 L58.7102 515.079 L23.0623 515.079 L23.0623 509.191 L28.6004 509.191 Q25.3857 507.09 23.7943 504.257 Q22.2029 501.393 22.2029 497.669 Q22.2029 491.526 26.0223 488.375 Q29.8099 485.224 37.1941 485.224 Z" fill="#000000" fill-rule="nonzero" fill-opacity="1" /><path clip-path="url(#clip630)" d="M37.1941 423.19 L58.7102 423.19 L58.7102 429.046 L37.3851 429.046 Q32.3244 429.046 29.8099 431.02 Q27.2955 432.993 27.2955 436.94 Q27.2955 441.682 30.3192 444.42 Q33.3429 447.157 38.5628 447.157 L58.7102 447.157 L58.7102 453.045 L23.0623 453.045 L23.0623 447.157 L28.6004 447.157 Q25.3857 445.056 23.7943 442.223 Q22.2029 439.359 22.2029 435.635 Q22.2029 429.492 26.0223 426.341 Q29.8099 423.19 37.1941 423.19 Z" fill="#000000" fill-rule="nonzero" fill-opacity="1" /><path clip-path="url(#clip630)" d="M44.642 412.114 L23.0623 412.114 L23.0623 406.257 L44.4192 406.257 Q49.4799 406.257 52.0262 404.284 Q54.5407 402.31 54.5407 398.364 Q54.5407 393.621 51.517 390.884 Q48.4933 388.115 43.2734 388.115 L23.0623 388.115 L23.0623 382.258 L58.7102 382.258 L58.7102 388.115 L53.2357 388.115 Q56.4822 390.247 58.0736 393.08 Q59.6332 395.881 59.6332 399.605 Q59.6332 405.748 55.8138 408.931 Q51.9944 412.114 44.642 412.114 M22.2029 397.377 L22.2029 397.377 Z" fill="#000000" fill-rule="nonzero" fill-opacity="1" /><path clip-path="url(#clip630)" d="M29.9054 342.441 Q25.9587 340.245 24.0808 337.189 Q22.2029 334.134 22.2029 329.996 Q22.2029 324.426 26.1178 321.402 Q30.0009 318.379 37.1941 318.379 L58.7102 318.379 L58.7102 324.267 L37.3851 324.267 Q32.2607 324.267 29.7781 326.081 Q27.2955 327.895 27.2955 331.619 Q27.2955 336.171 30.3192 338.813 Q33.3429 341.454 38.5628 341.454 L58.7102 341.454 L58.7102 347.343 L37.3851 347.343 Q32.2289 347.343 29.7781 349.157 Q27.2955 350.971 27.2955 354.759 Q27.2955 359.246 30.351 361.888 Q33.3747 364.53 38.5628 364.53 L58.7102 364.53 L58.7102 370.418 L23.0623 370.418 L23.0623 364.53 L28.6004 364.53 Q25.3221 362.525 23.7625 359.724 Q22.2029 356.923 22.2029 353.072 Q22.2029 349.189 24.1763 346.483 Q26.1496 343.746 29.9054 342.441 Z" fill="#000000" fill-rule="nonzero" fill-opacity="1" /><path clip-path="url(#clip630)" d="M40.9181 281.107 Q34.4569 281.107 30.7966 283.781 Q27.1045 286.423 27.1045 291.07 Q27.1045 295.717 30.7966 298.39 Q34.4569 301.032 40.9181 301.032 Q47.3793 301.032 51.0714 298.39 Q54.7317 295.717 54.7317 291.07 Q54.7317 286.423 51.0714 283.781 Q47.3793 281.107 40.9181 281.107 M28.4731 301.032 Q25.2903 299.186 23.7625 296.385 Q22.2029 293.552 22.2029 289.637 Q22.2029 283.144 27.3591 279.102 Q32.5153 275.028 40.9181 275.028 Q49.3208 275.028 54.477 279.102 Q59.6332 283.144 59.6332 289.637 Q59.6332 293.552 58.1055 296.385 Q56.5459 299.186 53.363 301.032 L58.7102 301.032 L58.7102 306.92 L9.18502 306.92 L9.18502 301.032 L28.4731 301.032 Z" fill="#000000" fill-rule="nonzero" fill-opacity="1" /><path clip-path="url(#clip630)" d="M39.4221 234.829 L42.2867 234.829 L42.2867 261.756 Q48.3341 261.374 51.517 258.127 Q54.668 254.849 54.668 249.024 Q54.668 245.65 53.8405 242.499 Q53.0129 239.317 51.3578 236.197 L56.896 236.197 Q58.2328 239.348 58.933 242.659 Q59.6332 245.969 59.6332 249.374 Q59.6332 257.904 54.668 262.901 Q49.7027 267.867 41.2364 267.867 Q32.4835 267.867 27.3591 263.156 Q22.2029 258.414 22.2029 250.393 Q22.2029 243.2 26.8499 239.03 Q31.465 234.829 39.4221 234.829 M37.7034 240.685 Q32.8973 240.749 30.0327 243.391 Q27.1681 246.001 27.1681 250.329 Q27.1681 255.231 29.9372 258.191 Q32.7063 261.119 37.7352 261.565 L37.7034 240.685 Z" fill="#000000" fill-rule="nonzero" fill-opacity="1" /><path clip-path="url(#clip630)" d="M28.5368 204.56 Q27.9639 205.546 27.7092 206.724 Q27.4228 207.87 27.4228 209.27 Q27.4228 214.236 30.6693 216.909 Q33.884 219.551 39.9314 219.551 L58.7102 219.551 L58.7102 225.439 L23.0623 225.439 L23.0623 219.551 L28.6004 219.551 Q25.3539 217.705 23.7943 214.745 Q22.2029 211.785 22.2029 207.552 Q22.2029 206.947 22.2984 206.215 Q22.362 205.483 22.5212 204.592 L28.5368 204.56 Z" fill="#000000" fill-rule="nonzero" fill-opacity="1" /><polyline clip-path="url(#clip632)" style="stroke:#006400; stroke-linecap:round; stroke-linejoin:round; stroke-width:12; stroke-opacity:1; fill:none" points="273.709,498.723 285.648,443.17 297.588,389.383 309.527,338.21 321.467,290.459 333.406,246.883 345.346,208.168 357.285,174.926 369.225,147.68 381.164,126.861 393.104,112.796 405.043,105.708 416.983,105.708 428.922,112.796 440.862,126.861 452.801,147.68 464.74,174.926 476.68,208.168 488.619,246.883 500.559,290.459 512.498,338.21 524.438,389.383 536.377,443.17 548.317,498.723 560.256,555.167 572.196,611.611 584.135,667.164 596.075,720.951 608.014,772.124 619.954,819.875 631.893,863.451 643.833,902.166 655.772,935.408 667.712,962.654 679.651,983.473 691.591,997.538 703.53,1004.63 715.47,1004.63 727.409,997.538 739.349,983.473 751.288,962.654 763.228,935.408 775.167,902.166 787.107,863.451 799.046,819.875 810.986,772.124 822.925,720.951 834.865,667.164 846.804,611.611 858.744,555.167 870.683,498.723 882.623,443.17 894.562,389.383 906.502,338.21 918.441,290.459 930.381,246.883 942.32,208.168 954.26,174.926 966.199,147.68 978.139,126.861 990.078,112.796 1002.02,105.708 1013.96,105.708 1025.9,112.796 1037.84,126.861 1049.78,147.68 1061.72,174.926 1073.65,208.168 1085.59,246.883 1097.53,290.459 1109.47,338.21 1121.41,389.383 1133.35,443.17 1145.29,498.723 1157.23,555.167 1169.17,611.611 1181.11,667.164 1193.05,720.951 1204.99,772.124 1216.93,819.875 1228.87,863.451 1240.81,902.166 1252.75,935.408 1264.69,962.654 1276.63,983.473 1288.57,997.538 1300.51,1004.63 1312.44,1004.63 1324.38,997.538 1336.32,983.473 1348.26,962.654 1360.2,935.408 1372.14,902.166 1384.08,863.451 1396.02,819.875 1407.96,772.124 1419.9,720.951 1431.84,667.164 1443.78,611.611 1455.72,555.167 "/>
<path clip-path="url(#clip630)" d="M1868.33 1031.59 L3121.26 1031.59 L3121.26 78.7402 L1868.33 78.7402  Z" fill="#ffffff" fill-rule="evenodd" fill-opacity="1"/>
<defs>
  <clipPath id="clip633">
    <rect x="1868" y="78" width="1254" height="954"/>
  </clipPath>
</defs>
<polyline clip-path="url(#clip633)" style="stroke:#000000; stroke-linecap:round; stroke-linejoin:round; stroke-width:2; stroke-opacity:0.1; fill:none" points="1905.08,1031.59 1905.08,78.7402 "/>
<polyline clip-path="url(#clip633)" style="stroke:#000000; stroke-linecap:round; stroke-linejoin:round; stroke-width:2; stroke-opacity:0.1; fill:none" points="2173.13,1031.59 2173.13,78.7402 "/>
<polyline clip-path="url(#clip633)" style="stroke:#000000; stroke-linecap:round; stroke-linejoin:round; stroke-width:2; stroke-opacity:0.1; fill:none" points="2441.18,1031.59 2441.18,78.7402 "/>
<polyline clip-path="url(#clip633)" style="stroke:#000000; stroke-linecap:round; stroke-linejoin:round; stroke-width:2; stroke-opacity:0.1; fill:none" points="2709.24,1031.59 2709.24,78.7402 "/>
<polyline clip-path="url(#clip633)" style="stroke:#000000; stroke-linecap:round; stroke-linejoin:round; stroke-width:2; stroke-opacity:0.1; fill:none" points="2977.29,1031.59 2977.29,78.7402 "/>
<polyline clip-path="url(#clip630)" style="stroke:#000000; stroke-linecap:round; stroke-linejoin:round; stroke-width:4; stroke-opacity:1; fill:none" points="1868.33,1031.59 3121.26,1031.59 "/>
<polyline clip-path="url(#clip630)" style="stroke:#000000; stroke-linecap:round; stroke-linejoin:round; stroke-width:4; stroke-opacity:1; fill:none" points="1905.08,1031.59 1905.08,1012.7 "/>
<polyline clip-path="url(#clip630)" style="stroke:#000000; stroke-linecap:round; stroke-linejoin:round; stroke-width:4; stroke-opacity:1; fill:none" points="2173.13,1031.59 2173.13,1012.7 "/>
<polyline clip-path="url(#clip630)" style="stroke:#000000; stroke-linecap:round; stroke-linejoin:round; stroke-width:4; stroke-opacity:1; fill:none" points="2441.18,1031.59 2441.18,1012.7 "/>
<polyline clip-path="url(#clip630)" style="stroke:#000000; stroke-linecap:round; stroke-linejoin:round; stroke-width:4; stroke-opacity:1; fill:none" points="2709.24,1031.59 2709.24,1012.7 "/>
<polyline clip-path="url(#clip630)" style="stroke:#000000; stroke-linecap:round; stroke-linejoin:round; stroke-width:4; stroke-opacity:1; fill:none" points="2977.29,1031.59 2977.29,1012.7 "/>
<path clip-path="url(#clip630)" d="M1905.08 1068.91 Q1901.46 1068.91 1899.64 1072.48 Q1897.83 1076.02 1897.83 1083.15 Q1897.83 1090.25 1899.64 1093.82 Q1901.46 1097.36 1905.08 1097.36 Q1908.71 1097.36 1910.52 1093.82 Q1912.34 1090.25 1912.34 1083.15 Q1912.34 1076.02 1910.52 1072.48 Q1908.71 1068.91 1905.08 1068.91 M1905.08 1065.21 Q1910.89 1065.21 1913.94 1069.82 Q1917.02 1074.4 1917.02 1083.15 Q1917.02 1091.88 1913.94 1096.48 Q1910.89 1101.07 1905.08 1101.07 Q1899.27 1101.07 1896.19 1096.48 Q1893.13 1091.88 1893.13 1083.15 Q1893.13 1074.4 1896.19 1069.82 Q1899.27 1065.21 1905.08 1065.21 Z" fill="#000000" fill-rule="nonzero" fill-opacity="1" /><path clip-path="url(#clip630)" d="M2163.41 1065.83 L2181.76 1065.83 L2181.76 1069.77 L2167.69 1069.77 L2167.69 1078.24 Q2168.71 1077.89 2169.73 1077.73 Q2170.75 1077.55 2171.76 1077.55 Q2177.55 1077.55 2180.93 1080.72 Q2184.31 1083.89 2184.31 1089.31 Q2184.31 1094.88 2180.84 1097.99 Q2177.37 1101.07 2171.05 1101.07 Q2168.87 1101.07 2166.6 1100.69 Q2164.36 1100.32 2161.95 1099.58 L2161.95 1094.88 Q2164.03 1096.02 2166.25 1096.57 Q2168.48 1097.13 2170.95 1097.13 Q2174.96 1097.13 2177.3 1095.02 Q2179.63 1092.92 2179.63 1089.31 Q2179.63 1085.69 2177.3 1083.59 Q2174.96 1081.48 2170.95 1081.48 Q2169.08 1081.48 2167.2 1081.9 Q2165.35 1082.32 2163.41 1083.19 L2163.41 1065.83 Z" fill="#000000" fill-rule="nonzero" fill-opacity="1" /><path clip-path="url(#clip630)" d="M2415.87 1096.46 L2423.51 1096.46 L2423.51 1070.09 L2415.2 1071.76 L2415.2 1067.5 L2423.46 1065.83 L2428.14 1065.83 L2428.14 1096.46 L2435.78 1096.46 L2435.78 1100.39 L2415.87 1100.39 L2415.87 1096.46 Z" fill="#000000" fill-rule="nonzero" fill-opacity="1" /><path clip-path="url(#clip630)" d="M2455.22 1068.91 Q2451.61 1068.91 2449.78 1072.48 Q2447.98 1076.02 2447.98 1083.15 Q2447.98 1090.25 2449.78 1093.82 Q2451.61 1097.36 2455.22 1097.36 Q2458.86 1097.36 2460.66 1093.82 Q2462.49 1090.25 2462.49 1083.15 Q2462.49 1076.02 2460.66 1072.48 Q2458.86 1068.91 2455.22 1068.91 M2455.22 1065.21 Q2461.03 1065.21 2464.09 1069.82 Q2467.17 1074.4 2467.17 1083.15 Q2467.17 1091.88 2464.09 1096.48 Q2461.03 1101.07 2455.22 1101.07 Q2449.41 1101.07 2446.33 1096.48 Q2443.28 1091.88 2443.28 1083.15 Q2443.28 1074.4 2446.33 1069.82 Q2449.41 1065.21 2455.22 1065.21 Z" fill="#000000" fill-rule="nonzero" fill-opacity="1" /><path clip-path="url(#clip630)" d="M2684.42 1096.46 L2692.06 1096.46 L2692.06 1070.09 L2683.75 1071.76 L2683.75 1067.5 L2692.02 1065.83 L2696.69 1065.83 L2696.69 1096.46 L2704.33 1096.46 L2704.33 1100.39 L2684.42 1100.39 L2684.42 1096.46 Z" fill="#000000" fill-rule="nonzero" fill-opacity="1" /><path clip-path="url(#clip630)" d="M2713.82 1065.83 L2732.18 1065.83 L2732.18 1069.77 L2718.1 1069.77 L2718.1 1078.24 Q2719.12 1077.89 2720.14 1077.73 Q2721.16 1077.55 2722.18 1077.55 Q2727.96 1077.55 2731.34 1080.72 Q2734.72 1083.89 2734.72 1089.31 Q2734.72 1094.88 2731.25 1097.99 Q2727.78 1101.07 2721.46 1101.07 Q2719.28 1101.07 2717.02 1100.69 Q2714.77 1100.32 2712.36 1099.58 L2712.36 1094.88 Q2714.45 1096.02 2716.67 1096.57 Q2718.89 1097.13 2721.37 1097.13 Q2725.37 1097.13 2727.71 1095.02 Q2730.05 1092.92 2730.05 1089.31 Q2730.05 1085.69 2727.71 1083.59 Q2725.37 1081.48 2721.37 1081.48 Q2719.49 1081.48 2717.62 1081.9 Q2715.77 1082.32 2713.82 1083.19 L2713.82 1065.83 Z" fill="#000000" fill-rule="nonzero" fill-opacity="1" /><path clip-path="url(#clip630)" d="M2956.06 1096.46 L2972.38 1096.46 L2972.38 1100.39 L2950.44 1100.39 L2950.44 1096.46 Q2953.1 1093.7 2957.68 1089.07 Q2962.29 1084.42 2963.47 1083.08 Q2965.72 1080.56 2966.6 1078.82 Q2967.5 1077.06 2967.5 1075.37 Q2967.5 1072.62 2965.56 1070.88 Q2963.63 1069.14 2960.53 1069.14 Q2958.33 1069.14 2955.88 1069.91 Q2953.45 1070.67 2950.67 1072.22 L2950.67 1067.5 Q2953.5 1066.37 2955.95 1065.79 Q2958.4 1065.21 2960.44 1065.21 Q2965.81 1065.21 2969 1067.89 Q2972.2 1070.58 2972.2 1075.07 Q2972.2 1077.2 2971.39 1079.12 Q2970.6 1081.02 2968.5 1083.61 Q2967.92 1084.28 2964.81 1087.5 Q2961.71 1090.69 2956.06 1096.46 Z" fill="#000000" fill-rule="nonzero" fill-opacity="1" /><path clip-path="url(#clip630)" d="M2992.2 1068.91 Q2988.59 1068.91 2986.76 1072.48 Q2984.95 1076.02 2984.95 1083.15 Q2984.95 1090.25 2986.76 1093.82 Q2988.59 1097.36 2992.2 1097.36 Q2995.83 1097.36 2997.64 1093.82 Q2999.47 1090.25 2999.47 1083.15 Q2999.47 1076.02 2997.64 1072.48 Q2995.83 1068.91 2992.2 1068.91 M2992.2 1065.21 Q2998.01 1065.21 3001.06 1069.82 Q3004.14 1074.4 3004.14 1083.15 Q3004.14 1091.88 3001.06 1096.48 Q2998.01 1101.07 2992.2 1101.07 Q2986.39 1101.07 2983.31 1096.48 Q2980.25 1091.88 2980.25 1083.15 Q2980.25 1074.4 2983.31 1069.82 Q2986.39 1065.21 2992.2 1065.21 Z" fill="#000000" fill-rule="nonzero" fill-opacity="1" /><path clip-path="url(#clip630)" d="M2441.04 1146.22 L2441.04 1183.17 L2448.8 1183.17 Q2458.64 1183.17 2463.19 1178.72 Q2467.77 1174.26 2467.77 1164.65 Q2467.77 1155.1 2463.19 1150.68 Q2458.64 1146.22 2448.8 1146.22 L2441.04 1146.22 M2434.61 1140.94 L2447.82 1140.94 Q2461.63 1140.94 2468.09 1146.7 Q2474.55 1152.43 2474.55 1164.65 Q2474.55 1176.94 2468.06 1182.7 Q2461.57 1188.46 2447.82 1188.46 L2434.61 1188.46 L2434.61 1140.94 Z" fill="#000000" fill-rule="nonzero" fill-opacity="1" /><path clip-path="url(#clip630)" d="M2500.75 1170.54 Q2493.65 1170.54 2490.91 1172.16 Q2488.17 1173.78 2488.17 1177.7 Q2488.17 1180.82 2490.21 1182.66 Q2492.28 1184.48 2495.81 1184.48 Q2500.68 1184.48 2503.61 1181.04 Q2506.57 1177.57 2506.57 1171.84 L2506.57 1170.54 L2500.75 1170.54 M2512.43 1168.12 L2512.43 1188.46 L2506.57 1188.46 L2506.57 1183.05 Q2504.57 1186.29 2501.57 1187.85 Q2498.58 1189.38 2494.25 1189.38 Q2488.78 1189.38 2485.53 1186.33 Q2482.32 1183.24 2482.32 1178.08 Q2482.32 1172.07 2486.33 1169.01 Q2490.37 1165.96 2498.36 1165.96 L2506.57 1165.96 L2506.57 1165.38 Q2506.57 1161.34 2503.9 1159.14 Q2501.26 1156.92 2496.45 1156.92 Q2493.39 1156.92 2490.5 1157.65 Q2487.6 1158.38 2484.93 1159.84 L2484.93 1154.43 Q2488.14 1153.19 2491.17 1152.59 Q2494.19 1151.95 2497.05 1151.95 Q2504.79 1151.95 2508.61 1155.96 Q2512.43 1159.97 2512.43 1168.12 Z" fill="#000000" fill-rule="nonzero" fill-opacity="1" /><path clip-path="url(#clip630)" d="M2539.32 1191.77 Q2536.84 1198.13 2534.48 1200.08 Q2532.13 1202.02 2528.18 1202.02 L2523.5 1202.02 L2523.5 1197.12 L2526.94 1197.12 Q2529.36 1197.12 2530.7 1195.97 Q2532.03 1194.82 2533.66 1190.56 L2534.71 1187.88 L2520.29 1152.81 L2526.5 1152.81 L2537.64 1180.69 L2548.78 1152.81 L2554.98 1152.81 L2539.32 1191.77 Z" fill="#000000" fill-rule="nonzero" fill-opacity="1" /><polyline clip-path="url(#clip633)" style="stroke:#000000; stroke-linecap:round; stroke-linejoin:round; stroke-width:2; stroke-opacity:0.1; fill:none" points="1868.33,1031.59 3121.26,1031.59 "/>
<polyline clip-path="url(#clip633)" style="stroke:#000000; stroke-linecap:round; stroke-linejoin:round; stroke-width:2; stroke-opacity:0.1; fill:none" points="1868.33,828.845 3121.26,828.845 "/>
<polyline clip-path="url(#clip633)" style="stroke:#000000; stroke-linecap:round; stroke-linejoin:round; stroke-width:2; stroke-opacity:0.1; fill:none" points="1868.33,626.096 3121.26,626.096 "/>
<polyline clip-path="url(#clip633)" style="stroke:#000000; stroke-linecap:round; stroke-linejoin:round; stroke-width:2; stroke-opacity:0.1; fill:none" points="1868.33,423.347 3121.26,423.347 "/>
<polyline clip-path="url(#clip633)" style="stroke:#000000; stroke-linecap:round; stroke-linejoin:round; stroke-width:2; stroke-opacity:0.1; fill:none" points="1868.33,220.597 3121.26,220.597 "/>
<polyline clip-path="url(#clip630)" style="stroke:#000000; stroke-linecap:round; stroke-linejoin:round; stroke-width:4; stroke-opacity:1; fill:none" points="1868.33,1031.59 1868.33,78.7402 "/>
<polyline clip-path="url(#clip630)" style="stroke:#000000; stroke-linecap:round; stroke-linejoin:round; stroke-width:4; stroke-opacity:1; fill:none" points="1868.33,1031.59 1887.23,1031.59 "/>
<polyline clip-path="url(#clip630)" style="stroke:#000000; stroke-linecap:round; stroke-linejoin:round; stroke-width:4; stroke-opacity:1; fill:none" points="1868.33,828.845 1887.23,828.845 "/>
<polyline clip-path="url(#clip630)" style="stroke:#000000; stroke-linecap:round; stroke-linejoin:round; stroke-width:4; stroke-opacity:1; fill:none" points="1868.33,626.096 1887.23,626.096 "/>
<polyline clip-path="url(#clip630)" style="stroke:#000000; stroke-linecap:round; stroke-linejoin:round; stroke-width:4; stroke-opacity:1; fill:none" points="1868.33,423.347 1887.23,423.347 "/>
<polyline clip-path="url(#clip630)" style="stroke:#000000; stroke-linecap:round; stroke-linejoin:round; stroke-width:4; stroke-opacity:1; fill:none" points="1868.33,220.597 1887.23,220.597 "/>
<path clip-path="url(#clip630)" d="M1702.83 1017.39 Q1699.22 1017.39 1697.39 1020.96 Q1695.58 1024.5 1695.58 1031.63 Q1695.58 1038.73 1697.39 1042.3 Q1699.22 1045.84 1702.83 1045.84 Q1706.46 1045.84 1708.27 1042.3 Q1710.1 1038.73 1710.1 1031.63 Q1710.1 1024.5 1708.27 1020.96 Q1706.46 1017.39 1702.83 1017.39 M1702.83 1013.69 Q1708.64 1013.69 1711.7 1018.3 Q1714.77 1022.88 1714.77 1031.63 Q1714.77 1040.36 1711.7 1044.96 Q1708.64 1049.55 1702.83 1049.55 Q1697.02 1049.55 1693.94 1044.96 Q1690.89 1040.36 1690.89 1031.63 Q1690.89 1022.88 1693.94 1018.3 Q1697.02 1013.69 1702.83 1013.69 Z" fill="#000000" fill-rule="nonzero" fill-opacity="1" /><path clip-path="url(#clip630)" d="M1722.99 1042.99 L1727.88 1042.99 L1727.88 1048.87 L1722.99 1048.87 L1722.99 1042.99 Z" fill="#000000" fill-rule="nonzero" fill-opacity="1" /><path clip-path="url(#clip630)" d="M1748.06 1017.39 Q1744.45 1017.39 1742.62 1020.96 Q1740.82 1024.5 1740.82 1031.63 Q1740.82 1038.73 1742.62 1042.3 Q1744.45 1045.84 1748.06 1045.84 Q1751.7 1045.84 1753.5 1042.3 Q1755.33 1038.73 1755.33 1031.63 Q1755.33 1024.5 1753.5 1020.96 Q1751.7 1017.39 1748.06 1017.39 M1748.06 1013.69 Q1753.87 1013.69 1756.93 1018.3 Q1760.01 1022.88 1760.01 1031.63 Q1760.01 1040.36 1756.93 1044.96 Q1753.87 1049.55 1748.06 1049.55 Q1742.25 1049.55 1739.17 1044.96 Q1736.12 1040.36 1736.12 1031.63 Q1736.12 1022.88 1739.17 1018.3 Q1742.25 1013.69 1748.06 1013.69 Z" fill="#000000" fill-rule="nonzero" fill-opacity="1" /><path clip-path="url(#clip630)" d="M1778.22 1017.39 Q1774.61 1017.39 1772.78 1020.96 Q1770.98 1024.5 1770.98 1031.63 Q1770.98 1038.73 1772.78 1042.3 Q1774.61 1045.84 1778.22 1045.84 Q1781.86 1045.84 1783.66 1042.3 Q1785.49 1038.73 1785.49 1031.63 Q1785.49 1024.5 1783.66 1020.96 Q1781.86 1017.39 1778.22 1017.39 M1778.22 1013.69 Q1784.03 1013.69 1787.09 1018.3 Q1790.17 1022.88 1790.17 1031.63 Q1790.17 1040.36 1787.09 1044.96 Q1784.03 1049.55 1778.22 1049.55 Q1772.41 1049.55 1769.33 1044.96 Q1766.28 1040.36 1766.28 1031.63 Q1766.28 1022.88 1769.33 1018.3 Q1772.41 1013.69 1778.22 1013.69 Z" fill="#000000" fill-rule="nonzero" fill-opacity="1" /><path clip-path="url(#clip630)" d="M1808.38 1017.39 Q1804.77 1017.39 1802.94 1020.96 Q1801.14 1024.5 1801.14 1031.63 Q1801.14 1038.73 1802.94 1042.3 Q1804.77 1045.84 1808.38 1045.84 Q1812.02 1045.84 1813.82 1042.3 Q1815.65 1038.73 1815.65 1031.63 Q1815.65 1024.5 1813.82 1020.96 Q1812.02 1017.39 1808.38 1017.39 M1808.38 1013.69 Q1814.19 1013.69 1817.25 1018.3 Q1820.33 1022.88 1820.33 1031.63 Q1820.33 1040.36 1817.25 1044.96 Q1814.19 1049.55 1808.38 1049.55 Q1802.57 1049.55 1799.5 1044.96 Q1796.44 1040.36 1796.44 1031.63 Q1796.44 1022.88 1799.5 1018.3 Q1802.57 1013.69 1808.38 1013.69 Z" fill="#000000" fill-rule="nonzero" fill-opacity="1" /><path clip-path="url(#clip630)" d="M1703.83 814.643 Q1700.21 814.643 1698.39 818.208 Q1696.58 821.75 1696.58 828.879 Q1696.58 835.986 1698.39 839.551 Q1700.21 843.092 1703.83 843.092 Q1707.46 843.092 1709.26 839.551 Q1711.09 835.986 1711.09 828.879 Q1711.09 821.75 1709.26 818.208 Q1707.46 814.643 1703.83 814.643 M1703.83 810.94 Q1709.64 810.94 1712.69 815.546 Q1715.77 820.129 1715.77 828.879 Q1715.77 837.606 1712.69 842.213 Q1709.64 846.796 1703.83 846.796 Q1698.01 846.796 1694.94 842.213 Q1691.88 837.606 1691.88 828.879 Q1691.88 820.129 1694.94 815.546 Q1698.01 810.94 1703.83 810.94 Z" fill="#000000" fill-rule="nonzero" fill-opacity="1" /><path clip-path="url(#clip630)" d="M1723.99 840.245 L1728.87 840.245 L1728.87 846.125 L1723.99 846.125 L1723.99 840.245 Z" fill="#000000" fill-rule="nonzero" fill-opacity="1" /><path clip-path="url(#clip630)" d="M1749.06 814.643 Q1745.45 814.643 1743.62 818.208 Q1741.81 821.75 1741.81 828.879 Q1741.81 835.986 1743.62 839.551 Q1745.45 843.092 1749.06 843.092 Q1752.69 843.092 1754.5 839.551 Q1756.32 835.986 1756.32 828.879 Q1756.32 821.75 1754.5 818.208 Q1752.69 814.643 1749.06 814.643 M1749.06 810.94 Q1754.87 810.94 1757.92 815.546 Q1761 820.129 1761 828.879 Q1761 837.606 1757.92 842.213 Q1754.87 846.796 1749.06 846.796 Q1743.25 846.796 1740.17 842.213 Q1737.11 837.606 1737.11 828.879 Q1737.11 820.129 1740.17 815.546 Q1743.25 810.94 1749.06 810.94 Z" fill="#000000" fill-rule="nonzero" fill-opacity="1" /><path clip-path="url(#clip630)" d="M1773.25 842.19 L1789.57 842.19 L1789.57 846.125 L1767.62 846.125 L1767.62 842.19 Q1770.28 839.435 1774.87 834.805 Q1779.47 830.153 1780.65 828.81 Q1782.9 826.287 1783.78 824.551 Q1784.68 822.791 1784.68 821.102 Q1784.68 818.347 1782.74 816.611 Q1780.82 814.875 1777.71 814.875 Q1775.51 814.875 1773.06 815.639 Q1770.63 816.403 1767.85 817.954 L1767.85 813.231 Q1770.68 812.097 1773.13 811.518 Q1775.58 810.94 1777.62 810.94 Q1782.99 810.94 1786.19 813.625 Q1789.38 816.31 1789.38 820.801 Q1789.38 822.93 1788.57 824.852 Q1787.78 826.75 1785.68 829.342 Q1785.1 830.014 1782 833.231 Q1778.89 836.426 1773.25 842.19 Z" fill="#000000" fill-rule="nonzero" fill-opacity="1" /><path clip-path="url(#clip630)" d="M1799.43 811.565 L1817.78 811.565 L1817.78 815.5 L1803.71 815.5 L1803.71 823.972 Q1804.73 823.625 1805.75 823.463 Q1806.76 823.278 1807.78 823.278 Q1813.57 823.278 1816.95 826.449 Q1820.33 829.62 1820.33 835.037 Q1820.33 840.615 1816.86 843.717 Q1813.38 846.796 1807.07 846.796 Q1804.89 846.796 1802.62 846.426 Q1800.38 846.055 1797.97 845.315 L1797.97 840.615 Q1800.05 841.75 1802.27 842.305 Q1804.5 842.861 1806.97 842.861 Q1810.98 842.861 1813.32 840.754 Q1815.65 838.648 1815.65 835.037 Q1815.65 831.426 1813.32 829.319 Q1810.98 827.213 1806.97 827.213 Q1805.1 827.213 1803.22 827.629 Q1801.37 828.046 1799.43 828.926 L1799.43 811.565 Z" fill="#000000" fill-rule="nonzero" fill-opacity="1" /><path clip-path="url(#clip630)" d="M1702.83 611.894 Q1699.22 611.894 1697.39 615.459 Q1695.58 619.001 1695.58 626.13 Q1695.58 633.237 1697.39 636.802 Q1699.22 640.343 1702.83 640.343 Q1706.46 640.343 1708.27 636.802 Q1710.1 633.237 1710.1 626.13 Q1710.1 619.001 1708.27 615.459 Q1706.46 611.894 1702.83 611.894 M1702.83 608.191 Q1708.64 608.191 1711.7 612.797 Q1714.77 617.38 1714.77 626.13 Q1714.77 634.857 1711.7 639.464 Q1708.64 644.047 1702.83 644.047 Q1697.02 644.047 1693.94 639.464 Q1690.89 634.857 1690.89 626.13 Q1690.89 617.38 1693.94 612.797 Q1697.02 608.191 1702.83 608.191 Z" fill="#000000" fill-rule="nonzero" fill-opacity="1" /><path clip-path="url(#clip630)" d="M1722.99 637.496 L1727.88 637.496 L1727.88 643.376 L1722.99 643.376 L1722.99 637.496 Z" fill="#000000" fill-rule="nonzero" fill-opacity="1" /><path clip-path="url(#clip630)" d="M1748.06 611.894 Q1744.45 611.894 1742.62 615.459 Q1740.82 619.001 1740.82 626.13 Q1740.82 633.237 1742.62 636.802 Q1744.45 640.343 1748.06 640.343 Q1751.7 640.343 1753.5 636.802 Q1755.33 633.237 1755.33 626.13 Q1755.33 619.001 1753.5 615.459 Q1751.7 611.894 1748.06 611.894 M1748.06 608.191 Q1753.87 608.191 1756.93 612.797 Q1760.01 617.38 1760.01 626.13 Q1760.01 634.857 1756.93 639.464 Q1753.87 644.047 1748.06 644.047 Q1742.25 644.047 1739.17 639.464 Q1736.12 634.857 1736.12 626.13 Q1736.12 617.38 1739.17 612.797 Q1742.25 608.191 1748.06 608.191 Z" fill="#000000" fill-rule="nonzero" fill-opacity="1" /><path clip-path="url(#clip630)" d="M1768.27 608.816 L1786.63 608.816 L1786.63 612.751 L1772.55 612.751 L1772.55 621.223 Q1773.57 620.876 1774.59 620.714 Q1775.61 620.529 1776.63 620.529 Q1782.41 620.529 1785.79 623.7 Q1789.17 626.871 1789.17 632.288 Q1789.17 637.866 1785.7 640.968 Q1782.23 644.047 1775.91 644.047 Q1773.73 644.047 1771.46 643.677 Q1769.22 643.306 1766.81 642.565 L1766.81 637.866 Q1768.89 639.001 1771.12 639.556 Q1773.34 640.112 1775.82 640.112 Q1779.82 640.112 1782.16 638.005 Q1784.5 635.899 1784.5 632.288 Q1784.5 628.677 1782.16 626.57 Q1779.82 624.464 1775.82 624.464 Q1773.94 624.464 1772.07 624.88 Q1770.21 625.297 1768.27 626.177 L1768.27 608.816 Z" fill="#000000" fill-rule="nonzero" fill-opacity="1" /><path clip-path="url(#clip630)" d="M1808.38 611.894 Q1804.77 611.894 1802.94 615.459 Q1801.14 619.001 1801.14 626.13 Q1801.14 633.237 1802.94 636.802 Q1804.77 640.343 1808.38 640.343 Q1812.02 640.343 1813.82 636.802 Q1815.65 633.237 1815.65 626.13 Q1815.65 619.001 1813.82 615.459 Q1812.02 611.894 1808.38 611.894 M1808.38 608.191 Q1814.19 608.191 1817.25 612.797 Q1820.33 617.38 1820.33 626.13 Q1820.33 634.857 1817.25 639.464 Q1814.19 644.047 1808.38 644.047 Q1802.57 644.047 1799.5 639.464 Q1796.44 634.857 1796.44 626.13 Q1796.44 617.38 1799.5 612.797 Q1802.57 608.191 1808.38 608.191 Z" fill="#000000" fill-rule="nonzero" fill-opacity="1" /><path clip-path="url(#clip630)" d="M1703.83 409.145 Q1700.21 409.145 1698.39 412.71 Q1696.58 416.252 1696.58 423.381 Q1696.58 430.488 1698.39 434.052 Q1700.21 437.594 1703.83 437.594 Q1707.46 437.594 1709.26 434.052 Q1711.09 430.488 1711.09 423.381 Q1711.09 416.252 1709.26 412.71 Q1707.46 409.145 1703.83 409.145 M1703.83 405.442 Q1709.64 405.442 1712.69 410.048 Q1715.77 414.631 1715.77 423.381 Q1715.77 432.108 1712.69 436.715 Q1709.64 441.298 1703.83 441.298 Q1698.01 441.298 1694.94 436.715 Q1691.88 432.108 1691.88 423.381 Q1691.88 414.631 1694.94 410.048 Q1698.01 405.442 1703.83 405.442 Z" fill="#000000" fill-rule="nonzero" fill-opacity="1" /><path clip-path="url(#clip630)" d="M1723.99 434.747 L1728.87 434.747 L1728.87 440.627 L1723.99 440.627 L1723.99 434.747 Z" fill="#000000" fill-rule="nonzero" fill-opacity="1" /><path clip-path="url(#clip630)" d="M1749.06 409.145 Q1745.45 409.145 1743.62 412.71 Q1741.81 416.252 1741.81 423.381 Q1741.81 430.488 1743.62 434.052 Q1745.45 437.594 1749.06 437.594 Q1752.69 437.594 1754.5 434.052 Q1756.32 430.488 1756.32 423.381 Q1756.32 416.252 1754.5 412.71 Q1752.69 409.145 1749.06 409.145 M1749.06 405.442 Q1754.87 405.442 1757.92 410.048 Q1761 414.631 1761 423.381 Q1761 432.108 1757.92 436.715 Q1754.87 441.298 1749.06 441.298 Q1743.25 441.298 1740.17 436.715 Q1737.11 432.108 1737.11 423.381 Q1737.11 414.631 1740.17 410.048 Q1743.25 405.442 1749.06 405.442 Z" fill="#000000" fill-rule="nonzero" fill-opacity="1" /><path clip-path="url(#clip630)" d="M1768.04 406.067 L1790.26 406.067 L1790.26 408.057 L1777.71 440.627 L1772.83 440.627 L1784.63 410.002 L1768.04 410.002 L1768.04 406.067 Z" fill="#000000" fill-rule="nonzero" fill-opacity="1" /><path clip-path="url(#clip630)" d="M1799.43 406.067 L1817.78 406.067 L1817.78 410.002 L1803.71 410.002 L1803.71 418.474 Q1804.73 418.127 1805.75 417.965 Q1806.76 417.779 1807.78 417.779 Q1813.57 417.779 1816.95 420.951 Q1820.33 424.122 1820.33 429.539 Q1820.33 435.117 1816.86 438.219 Q1813.38 441.298 1807.07 441.298 Q1804.89 441.298 1802.62 440.927 Q1800.38 440.557 1797.97 439.816 L1797.97 435.117 Q1800.05 436.252 1802.27 436.807 Q1804.5 437.363 1806.97 437.363 Q1810.98 437.363 1813.32 435.256 Q1815.65 433.15 1815.65 429.539 Q1815.65 425.928 1813.32 423.821 Q1810.98 421.715 1806.97 421.715 Q1805.1 421.715 1803.22 422.131 Q1801.37 422.548 1799.43 423.428 L1799.43 406.067 Z" fill="#000000" fill-rule="nonzero" fill-opacity="1" /><path clip-path="url(#clip630)" d="M1702.83 206.396 Q1699.22 206.396 1697.39 209.961 Q1695.58 213.503 1695.58 220.632 Q1695.58 227.739 1697.39 231.303 Q1699.22 234.845 1702.83 234.845 Q1706.46 234.845 1708.27 231.303 Q1710.1 227.739 1710.1 220.632 Q1710.1 213.503 1708.27 209.961 Q1706.46 206.396 1702.83 206.396 M1702.83 202.692 Q1708.64 202.692 1711.7 207.299 Q1714.77 211.882 1714.77 220.632 Q1714.77 229.359 1711.7 233.965 Q1708.64 238.549 1702.83 238.549 Q1697.02 238.549 1693.94 233.965 Q1690.89 229.359 1690.89 220.632 Q1690.89 211.882 1693.94 207.299 Q1697.02 202.692 1702.83 202.692 Z" fill="#000000" fill-rule="nonzero" fill-opacity="1" /><path clip-path="url(#clip630)" d="M1722.99 231.998 L1727.88 231.998 L1727.88 237.877 L1722.99 237.877 L1722.99 231.998 Z" fill="#000000" fill-rule="nonzero" fill-opacity="1" /><path clip-path="url(#clip630)" d="M1738.87 233.942 L1746.51 233.942 L1746.51 207.577 L1738.2 209.243 L1738.2 204.984 L1746.46 203.317 L1751.14 203.317 L1751.14 233.942 L1758.78 233.942 L1758.78 237.877 L1738.87 237.877 L1738.87 233.942 Z" fill="#000000" fill-rule="nonzero" fill-opacity="1" /><path clip-path="url(#clip630)" d="M1778.22 206.396 Q1774.61 206.396 1772.78 209.961 Q1770.98 213.503 1770.98 220.632 Q1770.98 227.739 1772.78 231.303 Q1774.61 234.845 1778.22 234.845 Q1781.86 234.845 1783.66 231.303 Q1785.49 227.739 1785.49 220.632 Q1785.49 213.503 1783.66 209.961 Q1781.86 206.396 1778.22 206.396 M1778.22 202.692 Q1784.03 202.692 1787.09 207.299 Q1790.17 211.882 1790.17 220.632 Q1790.17 229.359 1787.09 233.965 Q1784.03 238.549 1778.22 238.549 Q1772.41 238.549 1769.33 233.965 Q1766.28 229.359 1766.28 220.632 Q1766.28 211.882 1769.33 207.299 Q1772.41 202.692 1778.22 202.692 Z" fill="#000000" fill-rule="nonzero" fill-opacity="1" /><path clip-path="url(#clip630)" d="M1808.38 206.396 Q1804.77 206.396 1802.94 209.961 Q1801.14 213.503 1801.14 220.632 Q1801.14 227.739 1802.94 231.303 Q1804.77 234.845 1808.38 234.845 Q1812.02 234.845 1813.82 231.303 Q1815.65 227.739 1815.65 220.632 Q1815.65 213.503 1813.82 209.961 Q1812.02 206.396 1808.38 206.396 M1808.38 202.692 Q1814.19 202.692 1817.25 207.299 Q1820.33 211.882 1820.33 220.632 Q1820.33 229.359 1817.25 233.965 Q1814.19 238.549 1808.38 238.549 Q1802.57 238.549 1799.5 233.965 Q1796.44 229.359 1796.44 220.632 Q1796.44 211.882 1799.5 207.299 Q1802.57 202.692 1808.38 202.692 Z" fill="#000000" fill-rule="nonzero" fill-opacity="1" /><path clip-path="url(#clip630)" d="M1582.67 932.558 L1588.94 932.558 Q1587.19 936.218 1586.33 939.465 Q1585.47 942.711 1585.47 945.735 Q1585.47 950.987 1587.51 953.851 Q1589.54 956.684 1593.3 956.684 Q1596.45 956.684 1598.07 954.806 Q1599.67 952.896 1600.65 947.613 L1601.45 943.73 Q1602.82 936.536 1606.29 933.131 Q1609.72 929.693 1615.52 929.693 Q1622.42 929.693 1625.99 934.34 Q1629.55 938.955 1629.55 947.899 Q1629.55 951.273 1628.79 955.092 Q1628.02 958.88 1626.53 962.954 L1619.91 962.954 Q1622.1 959.039 1623.22 955.283 Q1624.33 951.528 1624.33 947.899 Q1624.33 942.393 1622.17 939.401 Q1620 936.409 1615.99 936.409 Q1612.49 936.409 1610.52 938.573 Q1608.55 940.706 1607.56 945.608 L1606.79 949.522 Q1605.36 956.716 1602.31 959.93 Q1599.25 963.145 1593.81 963.145 Q1587.51 963.145 1583.88 958.721 Q1580.25 954.265 1580.25 946.467 Q1580.25 943.125 1580.85 939.656 Q1581.46 936.186 1582.67 932.558 Z" fill="#000000" fill-rule="nonzero" fill-opacity="1" /><path clip-path="url(#clip630)" d="M1609.34 889.43 L1612.21 889.43 L1612.21 916.357 Q1618.25 915.975 1621.44 912.729 Q1624.59 909.45 1624.59 903.626 Q1624.59 900.252 1623.76 897.101 Q1622.93 893.918 1621.28 890.799 L1626.82 890.799 Q1628.15 893.95 1628.85 897.26 Q1629.55 900.57 1629.55 903.976 Q1629.55 912.506 1624.59 917.503 Q1619.62 922.468 1611.16 922.468 Q1602.4 922.468 1597.28 917.758 Q1592.12 913.015 1592.12 904.994 Q1592.12 897.801 1596.77 893.632 Q1601.38 889.43 1609.34 889.43 M1607.62 895.287 Q1602.82 895.35 1599.95 897.992 Q1597.09 900.602 1597.09 904.931 Q1597.09 909.832 1599.86 912.792 Q1602.63 915.721 1607.65 916.166 L1607.62 895.287 Z" fill="#000000" fill-rule="nonzero" fill-opacity="1" /><path clip-path="url(#clip630)" d="M1598.46 859.161 Q1597.88 860.148 1597.63 861.326 Q1597.34 862.471 1597.34 863.872 Q1597.34 868.837 1600.59 871.511 Q1603.8 874.153 1609.85 874.153 L1628.63 874.153 L1628.63 880.041 L1592.98 880.041 L1592.98 874.153 L1598.52 874.153 Q1595.27 872.306 1593.71 869.346 Q1592.12 866.386 1592.12 862.153 Q1592.12 861.548 1592.22 860.816 Q1592.28 860.084 1592.44 859.193 L1598.46 859.161 Z" fill="#000000" fill-rule="nonzero" fill-opacity="1" /><path clip-path="url(#clip630)" d="M1592.98 853.018 L1592.98 847.162 L1628.63 847.162 L1628.63 853.018 L1592.98 853.018 M1579.1 853.018 L1579.1 847.162 L1586.52 847.162 L1586.52 853.018 L1579.1 853.018 Z" fill="#000000" fill-rule="nonzero" fill-opacity="1" /><path clip-path="url(#clip630)" d="M1610.71 818.707 Q1610.71 825.805 1612.33 828.542 Q1613.96 831.279 1617.87 831.279 Q1620.99 831.279 1622.84 829.242 Q1624.65 827.174 1624.65 823.641 Q1624.65 818.771 1621.21 815.843 Q1617.74 812.883 1612.01 812.883 L1610.71 812.883 L1610.71 818.707 M1608.29 807.026 L1628.63 807.026 L1628.63 812.883 L1623.22 812.883 Q1626.47 814.888 1628.02 817.88 Q1629.55 820.872 1629.55 825.2 Q1629.55 830.675 1626.5 833.921 Q1623.41 837.136 1618.25 837.136 Q1612.24 837.136 1609.18 833.126 Q1606.13 829.083 1606.13 821.094 L1606.13 812.883 L1605.55 812.883 Q1601.51 812.883 1599.32 815.556 Q1597.09 818.198 1597.09 823.004 Q1597.09 826.06 1597.82 828.956 Q1598.55 831.852 1600.02 834.526 L1594.6 834.526 Q1593.36 831.311 1592.76 828.288 Q1592.12 825.264 1592.12 822.399 Q1592.12 814.665 1596.13 810.846 Q1600.14 807.026 1608.29 807.026 Z" fill="#000000" fill-rule="nonzero" fill-opacity="1" /><path clip-path="url(#clip630)" d="M1579.1 794.963 L1579.1 789.107 L1628.63 789.107 L1628.63 794.963 L1579.1 794.963 Z" fill="#000000" fill-rule="nonzero" fill-opacity="1" /><path clip-path="url(#clip630)" d="M1592.98 756.132 L1592.98 750.276 L1628.63 750.276 L1628.63 756.132 L1592.98 756.132 M1579.1 756.132 L1579.1 750.276 L1586.52 750.276 L1586.52 756.132 L1579.1 756.132 Z" fill="#000000" fill-rule="nonzero" fill-opacity="1" /><path clip-path="url(#clip630)" d="M1607.11 708.39 L1628.63 708.39 L1628.63 714.246 L1607.3 714.246 Q1602.24 714.246 1599.73 716.219 Q1597.21 718.193 1597.21 722.139 Q1597.21 726.882 1600.24 729.619 Q1603.26 732.356 1608.48 732.356 L1628.63 732.356 L1628.63 738.245 L1592.98 738.245 L1592.98 732.356 L1598.52 732.356 Q1595.3 730.256 1593.71 727.423 Q1592.12 724.558 1592.12 720.834 Q1592.12 714.692 1595.94 711.541 Q1599.73 708.39 1607.11 708.39 Z" fill="#000000" fill-rule="nonzero" fill-opacity="1" /><path clip-path="url(#clip630)" d="M1582.86 690.916 L1592.98 690.916 L1592.98 678.853 L1597.53 678.853 L1597.53 690.916 L1616.88 690.916 Q1621.25 690.916 1622.49 689.738 Q1623.73 688.529 1623.73 684.868 L1623.73 678.853 L1628.63 678.853 L1628.63 684.868 Q1628.63 691.648 1626.11 694.226 Q1623.57 696.804 1616.88 696.804 L1597.53 696.804 L1597.53 701.101 L1592.98 701.101 L1592.98 696.804 L1582.86 696.804 L1582.86 690.916 Z" fill="#000000" fill-rule="nonzero" fill-opacity="1" /><path clip-path="url(#clip630)" d="M1609.34 640.658 L1612.21 640.658 L1612.21 667.585 Q1618.25 667.203 1621.44 663.957 Q1624.59 660.679 1624.59 654.854 Q1624.59 651.48 1623.76 648.329 Q1622.93 645.146 1621.28 642.027 L1626.82 642.027 Q1628.15 645.178 1628.85 648.488 Q1629.55 651.798 1629.55 655.204 Q1629.55 663.734 1624.59 668.731 Q1619.62 673.696 1611.16 673.696 Q1602.4 673.696 1597.28 668.986 Q1592.12 664.243 1592.12 656.223 Q1592.12 649.029 1596.77 644.86 Q1601.38 640.658 1609.34 640.658 M1607.62 646.515 Q1602.82 646.579 1599.95 649.22 Q1597.09 651.83 1597.09 656.159 Q1597.09 661.06 1599.86 664.021 Q1602.63 666.949 1607.65 667.394 L1607.62 646.515 Z" fill="#000000" fill-rule="nonzero" fill-opacity="1" /><path clip-path="url(#clip630)" d="M1598.46 610.389 Q1597.88 611.376 1597.63 612.554 Q1597.34 613.7 1597.34 615.1 Q1597.34 620.065 1600.59 622.739 Q1603.8 625.381 1609.85 625.381 L1628.63 625.381 L1628.63 631.269 L1592.98 631.269 L1592.98 625.381 L1598.52 625.381 Q1595.27 623.535 1593.71 620.575 Q1592.12 617.615 1592.12 613.381 Q1592.12 612.777 1592.22 612.045 Q1592.28 611.313 1592.44 610.421 L1598.46 610.389 Z" fill="#000000" fill-rule="nonzero" fill-opacity="1" /><path clip-path="url(#clip630)" d="M1592.98 608.448 L1592.98 602.241 L1622.9 591.101 L1592.98 579.961 L1592.98 573.755 L1628.63 587.123 L1628.63 595.08 L1592.98 608.448 Z" fill="#000000" fill-rule="nonzero" fill-opacity="1" /><path clip-path="url(#clip630)" d="M1610.71 549.47 Q1610.71 556.567 1612.33 559.305 Q1613.96 562.042 1617.87 562.042 Q1620.99 562.042 1622.84 560.005 Q1624.65 557.936 1624.65 554.403 Q1624.65 549.533 1621.21 546.605 Q1617.74 543.645 1612.01 543.645 L1610.71 543.645 L1610.71 549.47 M1608.29 537.789 L1628.63 537.789 L1628.63 543.645 L1623.22 543.645 Q1626.47 545.65 1628.02 548.642 Q1629.55 551.634 1629.55 555.963 Q1629.55 561.437 1626.5 564.684 Q1623.41 567.898 1618.25 567.898 Q1612.24 567.898 1609.18 563.888 Q1606.13 559.846 1606.13 551.857 L1606.13 543.645 L1605.55 543.645 Q1601.51 543.645 1599.32 546.319 Q1597.09 548.96 1597.09 553.767 Q1597.09 556.822 1597.82 559.718 Q1598.55 562.615 1600.02 565.288 L1594.6 565.288 Q1593.36 562.074 1592.76 559.05 Q1592.12 556.026 1592.12 553.162 Q1592.12 545.427 1596.13 541.608 Q1600.14 537.789 1608.29 537.789 Z" fill="#000000" fill-rule="nonzero" fill-opacity="1" /><path clip-path="url(#clip630)" d="M1579.1 525.726 L1579.1 519.869 L1628.63 519.869 L1628.63 525.726 L1579.1 525.726 Z" fill="#000000" fill-rule="nonzero" fill-opacity="1" /><path clip-path="url(#clip630)" d="M1623.28 481.229 L1642.19 481.229 L1642.19 487.118 L1592.98 487.118 L1592.98 481.229 L1598.39 481.229 Q1595.21 479.383 1593.68 476.582 Q1592.12 473.75 1592.12 469.835 Q1592.12 463.342 1597.28 459.299 Q1602.43 455.225 1610.84 455.225 Q1619.24 455.225 1624.4 459.299 Q1629.55 463.342 1629.55 469.835 Q1629.55 473.75 1628.02 476.582 Q1626.47 479.383 1623.28 481.229 M1610.84 461.305 Q1604.38 461.305 1600.72 463.978 Q1597.02 466.62 1597.02 471.267 Q1597.02 475.914 1600.72 478.588 Q1604.38 481.229 1610.84 481.229 Q1617.3 481.229 1620.99 478.588 Q1624.65 475.914 1624.65 471.267 Q1624.65 466.62 1620.99 463.978 Q1617.3 461.305 1610.84 461.305 Z" fill="#000000" fill-rule="nonzero" fill-opacity="1" /><path clip-path="url(#clip630)" d="M1598.46 424.861 Q1597.88 425.848 1597.63 427.025 Q1597.34 428.171 1597.34 429.572 Q1597.34 434.537 1600.59 437.21 Q1603.8 439.852 1609.85 439.852 L1628.63 439.852 L1628.63 445.74 L1592.98 445.74 L1592.98 439.852 L1598.52 439.852 Q1595.27 438.006 1593.71 435.046 Q1592.12 432.086 1592.12 427.853 Q1592.12 427.248 1592.22 426.516 Q1592.28 425.784 1592.44 424.893 L1598.46 424.861 Z" fill="#000000" fill-rule="nonzero" fill-opacity="1" /><path clip-path="url(#clip630)" d="M1597.09 406.337 Q1597.09 411.047 1600.78 413.785 Q1604.44 416.522 1610.84 416.522 Q1617.23 416.522 1620.93 413.816 Q1624.59 411.079 1624.59 406.337 Q1624.59 401.658 1620.9 398.921 Q1617.2 396.183 1610.84 396.183 Q1604.5 396.183 1600.81 398.921 Q1597.09 401.658 1597.09 406.337 M1592.12 406.337 Q1592.12 398.698 1597.09 394.337 Q1602.05 389.977 1610.84 389.977 Q1619.59 389.977 1624.59 394.337 Q1629.55 398.698 1629.55 406.337 Q1629.55 414.007 1624.59 418.368 Q1619.59 422.697 1610.84 422.697 Q1602.05 422.697 1597.09 418.368 Q1592.12 414.007 1592.12 406.337 Z" fill="#000000" fill-rule="nonzero" fill-opacity="1" /><path clip-path="url(#clip630)" d="M1610.84 354.679 Q1604.38 354.679 1600.72 357.353 Q1597.02 359.994 1597.02 364.641 Q1597.02 369.288 1600.72 371.962 Q1604.38 374.604 1610.84 374.604 Q1617.3 374.604 1620.99 371.962 Q1624.65 369.288 1624.65 364.641 Q1624.65 359.994 1620.99 357.353 Q1617.3 354.679 1610.84 354.679 M1598.39 374.604 Q1595.21 372.758 1593.68 369.957 Q1592.12 367.124 1592.12 363.209 Q1592.12 356.716 1597.28 352.674 Q1602.43 348.6 1610.84 348.6 Q1619.24 348.6 1624.4 352.674 Q1629.55 356.716 1629.55 363.209 Q1629.55 367.124 1628.02 369.957 Q1626.47 372.758 1623.28 374.604 L1628.63 374.604 L1628.63 380.492 L1579.1 380.492 L1579.1 374.604 L1598.39 374.604 Z" fill="#000000" fill-rule="nonzero" fill-opacity="1" /><path clip-path="url(#clip630)" d="M1610.71 322.691 Q1610.71 329.789 1612.33 332.526 Q1613.96 335.264 1617.87 335.264 Q1620.99 335.264 1622.84 333.227 Q1624.65 331.158 1624.65 327.625 Q1624.65 322.755 1621.21 319.827 Q1617.74 316.867 1612.01 316.867 L1610.71 316.867 L1610.71 322.691 M1608.29 311.01 L1628.63 311.01 L1628.63 316.867 L1623.22 316.867 Q1626.47 318.872 1628.02 321.864 Q1629.55 324.856 1629.55 329.184 Q1629.55 334.659 1626.5 337.905 Q1623.41 341.12 1618.25 341.12 Q1612.24 341.12 1609.18 337.11 Q1606.13 333.067 1606.13 325.079 L1606.13 316.867 L1605.55 316.867 Q1601.51 316.867 1599.32 319.54 Q1597.09 322.182 1597.09 326.988 Q1597.09 330.044 1597.82 332.94 Q1598.55 335.837 1600.02 338.51 L1594.6 338.51 Q1593.36 335.295 1592.76 332.272 Q1592.12 329.248 1592.12 326.383 Q1592.12 318.649 1596.13 314.83 Q1600.14 311.01 1608.29 311.01 Z" fill="#000000" fill-rule="nonzero" fill-opacity="1" /><path clip-path="url(#clip630)" d="M1610.84 273.357 Q1604.38 273.357 1600.72 276.031 Q1597.02 278.673 1597.02 283.319 Q1597.02 287.966 1600.72 290.64 Q1604.38 293.282 1610.84 293.282 Q1617.3 293.282 1620.99 290.64 Q1624.65 287.966 1624.65 283.319 Q1624.65 278.673 1620.99 276.031 Q1617.3 273.357 1610.84 273.357 M1598.39 293.282 Q1595.21 291.436 1593.68 288.635 Q1592.12 285.802 1592.12 281.887 Q1592.12 275.394 1597.28 271.352 Q1602.43 267.278 1610.84 267.278 Q1619.24 267.278 1624.4 271.352 Q1629.55 275.394 1629.55 281.887 Q1629.55 285.802 1628.02 288.635 Q1626.47 291.436 1623.28 293.282 L1628.63 293.282 L1628.63 299.17 L1579.1 299.17 L1579.1 293.282 L1598.39 293.282 Z" fill="#000000" fill-rule="nonzero" fill-opacity="1" /><path clip-path="url(#clip630)" d="M1592.98 257.57 L1592.98 251.714 L1628.63 251.714 L1628.63 257.57 L1592.98 257.57 M1579.1 257.57 L1579.1 251.714 L1586.52 251.714 L1586.52 257.57 L1579.1 257.57 Z" fill="#000000" fill-rule="nonzero" fill-opacity="1" /><path clip-path="url(#clip630)" d="M1579.1 239.46 L1579.1 233.603 L1628.63 233.603 L1628.63 239.46 L1579.1 239.46 Z" fill="#000000" fill-rule="nonzero" fill-opacity="1" /><path clip-path="url(#clip630)" d="M1592.98 221.349 L1592.98 215.493 L1628.63 215.493 L1628.63 221.349 L1592.98 221.349 M1579.1 221.349 L1579.1 215.493 L1586.52 215.493 L1586.52 221.349 L1579.1 221.349 Z" fill="#000000" fill-rule="nonzero" fill-opacity="1" /><path clip-path="url(#clip630)" d="M1582.86 197.446 L1592.98 197.446 L1592.98 185.383 L1597.53 185.383 L1597.53 197.446 L1616.88 197.446 Q1621.25 197.446 1622.49 196.268 Q1623.73 195.059 1623.73 191.399 L1623.73 185.383 L1628.63 185.383 L1628.63 191.399 Q1628.63 198.178 1626.11 200.756 Q1623.57 203.334 1616.88 203.334 L1597.53 203.334 L1597.53 207.631 L1592.98 207.631 L1592.98 203.334 L1582.86 203.334 L1582.86 197.446 Z" fill="#000000" fill-rule="nonzero" fill-opacity="1" /><path clip-path="url(#clip630)" d="M1631.94 162.848 Q1638.31 165.331 1640.25 167.686 Q1642.19 170.042 1642.19 173.988 L1642.19 178.667 L1637.29 178.667 L1637.29 175.23 Q1637.29 172.811 1636.14 171.474 Q1635 170.137 1630.73 168.514 L1628.06 167.464 L1592.98 181.882 L1592.98 175.675 L1620.86 164.535 L1592.98 153.395 L1592.98 147.189 L1631.94 162.848 Z" fill="#000000" fill-rule="nonzero" fill-opacity="1" /><path clip-path="url(#clip633)" d="M1937.24 599.349 L1937.24 1031.59 L1980.13 1031.59 L1980.13 599.349 L1937.24 599.349 L1937.24 599.349  Z" fill="#ff8c00" fill-rule="evenodd" fill-opacity="1"/>
<polyline clip-path="url(#clip633)" style="stroke:#000000; stroke-linecap:round; stroke-linejoin:round; stroke-width:4; stroke-opacity:1; fill:none" points="1937.24,599.349 1937.24,1031.59 1980.13,1031.59 1980.13,599.349 1937.24,599.349 "/>
<path clip-path="url(#clip633)" d="M1990.85 261.349 L1990.85 1031.59 L2033.74 1031.59 L2033.74 261.349 L1990.85 261.349 L1990.85 261.349  Z" fill="#ff8c00" fill-rule="evenodd" fill-opacity="1"/>
<polyline clip-path="url(#clip633)" style="stroke:#000000; stroke-linecap:round; stroke-linejoin:round; stroke-width:4; stroke-opacity:1; fill:none" points="1990.85,261.349 1990.85,1031.59 2033.74,1031.59 2033.74,261.349 1990.85,261.349 "/>
<path clip-path="url(#clip633)" d="M2044.46 103.459 L2044.46 1031.59 L2087.35 1031.59 L2087.35 103.459 L2044.46 103.459 L2044.46 103.459  Z" fill="#ff8c00" fill-rule="evenodd" fill-opacity="1"/>
<polyline clip-path="url(#clip633)" style="stroke:#000000; stroke-linecap:round; stroke-linejoin:round; stroke-width:4; stroke-opacity:1; fill:none" points="2044.46,103.459 2044.46,1031.59 2087.35,1031.59 2087.35,103.459 2044.46,103.459 "/>
<path clip-path="url(#clip633)" d="M2098.07 78.7402 L2098.07 1031.59 L2140.96 1031.59 L2140.96 78.7402 L2098.07 78.7402 L2098.07 78.7402  Z" fill="#ff8c00" fill-rule="evenodd" fill-opacity="1"/>
<polyline clip-path="url(#clip633)" style="stroke:#000000; stroke-linecap:round; stroke-linejoin:round; stroke-width:4; stroke-opacity:1; fill:none" points="2098.07,78.7402 2098.07,1031.59 2140.96,1031.59 2140.96,78.7402 2098.07,78.7402 "/>
<path clip-path="url(#clip633)" d="M2151.69 135.565 L2151.69 1031.59 L2194.57 1031.59 L2194.57 135.565 L2151.69 135.565 L2151.69 135.565  Z" fill="#ff8c00" fill-rule="evenodd" fill-opacity="1"/>
<polyline clip-path="url(#clip633)" style="stroke:#000000; stroke-linecap:round; stroke-linejoin:round; stroke-width:4; stroke-opacity:1; fill:none" points="2151.69,135.565 2151.69,1031.59 2194.57,1031.59 2194.57,135.565 2151.69,135.565 "/>
<path clip-path="url(#clip633)" d="M2205.3 234.504 L2205.3 1031.59 L2248.18 1031.59 L2248.18 234.504 L2205.3 234.504 L2205.3 234.504  Z" fill="#ff8c00" fill-rule="evenodd" fill-opacity="1"/>
<polyline clip-path="url(#clip633)" style="stroke:#000000; stroke-linecap:round; stroke-linejoin:round; stroke-width:4; stroke-opacity:1; fill:none" points="2205.3,234.504 2205.3,1031.59 2248.18,1031.59 2248.18,234.504 2205.3,234.504 "/>
<path clip-path="url(#clip633)" d="M2258.91 349.172 L2258.91 1031.59 L2301.8 1031.59 L2301.8 349.172 L2258.91 349.172 L2258.91 349.172  Z" fill="#ff8c00" fill-rule="evenodd" fill-opacity="1"/>
<polyline clip-path="url(#clip633)" style="stroke:#000000; stroke-linecap:round; stroke-linejoin:round; stroke-width:4; stroke-opacity:1; fill:none" points="2258.91,349.172 2258.91,1031.59 2301.8,1031.59 2301.8,349.172 2258.91,349.172 "/>
<path clip-path="url(#clip633)" d="M2312.52 463.499 L2312.52 1031.59 L2355.41 1031.59 L2355.41 463.499 L2312.52 463.499 L2312.52 463.499  Z" fill="#ff8c00" fill-rule="evenodd" fill-opacity="1"/>
<polyline clip-path="url(#clip633)" style="stroke:#000000; stroke-linecap:round; stroke-linejoin:round; stroke-width:4; stroke-opacity:1; fill:none" points="2312.52,463.499 2312.52,1031.59 2355.41,1031.59 2355.41,463.499 2312.52,463.499 "/>
<path clip-path="url(#clip633)" d="M2366.13 568.695 L2366.13 1031.59 L2409.02 1031.59 L2409.02 568.695 L2366.13 568.695 L2366.13 568.695  Z" fill="#ff8c00" fill-rule="evenodd" fill-opacity="1"/>
<polyline clip-path="url(#clip633)" style="stroke:#000000; stroke-linecap:round; stroke-linejoin:round; stroke-width:4; stroke-opacity:1; fill:none" points="2366.13,568.695 2366.13,1031.59 2409.02,1031.59 2409.02,568.695 2366.13,568.695 "/>
<path clip-path="url(#clip633)" d="M2419.74 660.73 L2419.74 1031.59 L2462.63 1031.59 L2462.63 660.73 L2419.74 660.73 L2419.74 660.73  Z" fill="#ff8c00" fill-rule="evenodd" fill-opacity="1"/>
<polyline clip-path="url(#clip633)" style="stroke:#000000; stroke-linecap:round; stroke-linejoin:round; stroke-width:4; stroke-opacity:1; fill:none" points="2419.74,660.73 2419.74,1031.59 2462.63,1031.59 2462.63,660.73 2419.74,660.73 "/>
<path clip-path="url(#clip633)" d="M2473.35 738.5 L2473.35 1031.59 L2516.24 1031.59 L2516.24 738.5 L2473.35 738.5 L2473.35 738.5  Z" fill="#ff8c00" fill-rule="evenodd" fill-opacity="1"/>
<polyline clip-path="url(#clip633)" style="stroke:#000000; stroke-linecap:round; stroke-linejoin:round; stroke-width:4; stroke-opacity:1; fill:none" points="2473.35,738.5 2473.35,1031.59 2516.24,1031.59 2516.24,738.5 2473.35,738.5 "/>
<path clip-path="url(#clip633)" d="M2526.96 802.561 L2526.96 1031.59 L2569.85 1031.59 L2569.85 802.561 L2526.96 802.561 L2526.96 802.561  Z" fill="#ff8c00" fill-rule="evenodd" fill-opacity="1"/>
<polyline clip-path="url(#clip633)" style="stroke:#000000; stroke-linecap:round; stroke-linejoin:round; stroke-width:4; stroke-opacity:1; fill:none" points="2526.96,802.561 2526.96,1031.59 2569.85,1031.59 2569.85,802.561 2526.96,802.561 "/>
<path clip-path="url(#clip633)" d="M2580.57 854.308 L2580.57 1031.59 L2623.46 1031.59 L2623.46 854.308 L2580.57 854.308 L2580.57 854.308  Z" fill="#ff8c00" fill-rule="evenodd" fill-opacity="1"/>
<polyline clip-path="url(#clip633)" style="stroke:#000000; stroke-linecap:round; stroke-linejoin:round; stroke-width:4; stroke-opacity:1; fill:none" points="2580.57,854.308 2580.57,1031.59 2623.46,1031.59 2623.46,854.308 2580.57,854.308 "/>
<path clip-path="url(#clip633)" d="M2634.18 895.467 L2634.18 1031.59 L2677.07 1031.59 L2677.07 895.467 L2634.18 895.467 L2634.18 895.467  Z" fill="#ff8c00" fill-rule="evenodd" fill-opacity="1"/>
<polyline clip-path="url(#clip633)" style="stroke:#000000; stroke-linecap:round; stroke-linejoin:round; stroke-width:4; stroke-opacity:1; fill:none" points="2634.18,895.467 2634.18,1031.59 2677.07,1031.59 2677.07,895.467 2634.18,895.467 "/>
<path clip-path="url(#clip633)" d="M2687.79 927.795 L2687.79 1031.59 L2730.68 1031.59 L2730.68 927.795 L2687.79 927.795 L2687.79 927.795  Z" fill="#ff8c00" fill-rule="evenodd" fill-opacity="1"/>
<polyline clip-path="url(#clip633)" style="stroke:#000000; stroke-linecap:round; stroke-linejoin:round; stroke-width:4; stroke-opacity:1; fill:none" points="2687.79,927.795 2687.79,1031.59 2730.68,1031.59 2730.68,927.795 2687.79,927.795 "/>
<path clip-path="url(#clip633)" d="M2741.4 952.924 L2741.4 1031.59 L2784.29 1031.59 L2784.29 952.924 L2741.4 952.924 L2741.4 952.924  Z" fill="#ff8c00" fill-rule="evenodd" fill-opacity="1"/>
<polyline clip-path="url(#clip633)" style="stroke:#000000; stroke-linecap:round; stroke-linejoin:round; stroke-width:4; stroke-opacity:1; fill:none" points="2741.4,952.924 2741.4,1031.59 2784.29,1031.59 2784.29,952.924 2741.4,952.924 "/>
<path clip-path="url(#clip633)" d="M2795.01 972.286 L2795.01 1031.59 L2837.9 1031.59 L2837.9 972.286 L2795.01 972.286 L2795.01 972.286  Z" fill="#ff8c00" fill-rule="evenodd" fill-opacity="1"/>
<polyline clip-path="url(#clip633)" style="stroke:#000000; stroke-linecap:round; stroke-linejoin:round; stroke-width:4; stroke-opacity:1; fill:none" points="2795.01,972.286 2795.01,1031.59 2837.9,1031.59 2837.9,972.286 2795.01,972.286 "/>
<path clip-path="url(#clip633)" d="M2848.63 987.093 L2848.63 1031.59 L2891.51 1031.59 L2891.51 987.093 L2848.63 987.093 L2848.63 987.093  Z" fill="#ff8c00" fill-rule="evenodd" fill-opacity="1"/>
<polyline clip-path="url(#clip633)" style="stroke:#000000; stroke-linecap:round; stroke-linejoin:round; stroke-width:4; stroke-opacity:1; fill:none" points="2848.63,987.093 2848.63,1031.59 2891.51,1031.59 2891.51,987.093 2848.63,987.093 "/>
<path clip-path="url(#clip633)" d="M2902.24 998.343 L2902.24 1031.59 L2945.12 1031.59 L2945.12 998.343 L2902.24 998.343 L2902.24 998.343  Z" fill="#ff8c00" fill-rule="evenodd" fill-opacity="1"/>
<polyline clip-path="url(#clip633)" style="stroke:#000000; stroke-linecap:round; stroke-linejoin:round; stroke-width:4; stroke-opacity:1; fill:none" points="2902.24,998.343 2902.24,1031.59 2945.12,1031.59 2945.12,998.343 2902.24,998.343 "/>
<path clip-path="url(#clip633)" d="M2955.85 1006.84 L2955.85 1031.59 L2998.74 1031.59 L2998.74 1006.84 L2955.85 1006.84 L2955.85 1006.84  Z" fill="#ff8c00" fill-rule="evenodd" fill-opacity="1"/>
<polyline clip-path="url(#clip633)" style="stroke:#000000; stroke-linecap:round; stroke-linejoin:round; stroke-width:4; stroke-opacity:1; fill:none" points="2955.85,1006.84 2955.85,1031.59 2998.74,1031.59 2998.74,1006.84 2955.85,1006.84 "/>
<path clip-path="url(#clip633)" d="M3009.46 1013.23 L3009.46 1031.59 L3052.35 1031.59 L3052.35 1013.23 L3009.46 1013.23 L3009.46 1013.23  Z" fill="#ff8c00" fill-rule="evenodd" fill-opacity="1"/>
<polyline clip-path="url(#clip633)" style="stroke:#000000; stroke-linecap:round; stroke-linejoin:round; stroke-width:4; stroke-opacity:1; fill:none" points="3009.46,1013.23 3009.46,1031.59 3052.35,1031.59 3052.35,1013.23 3009.46,1013.23 "/>
<circle clip-path="url(#clip633)" style="fill:#ff8c00; stroke:none; fill-opacity:0" cx="1958.69" cy="599.349" r="2"/>
<circle clip-path="url(#clip633)" style="fill:#ff8c00; stroke:none; fill-opacity:0" cx="2012.3" cy="261.349" r="2"/>
<circle clip-path="url(#clip633)" style="fill:#ff8c00; stroke:none; fill-opacity:0" cx="2065.91" cy="103.459" r="2"/>
<circle clip-path="url(#clip633)" style="fill:#ff8c00; stroke:none; fill-opacity:0" cx="2119.52" cy="78.7402" r="2"/>
<circle clip-path="url(#clip633)" style="fill:#ff8c00; stroke:none; fill-opacity:0" cx="2173.13" cy="135.565" r="2"/>
<circle clip-path="url(#clip633)" style="fill:#ff8c00; stroke:none; fill-opacity:0" cx="2226.74" cy="234.504" r="2"/>
<circle clip-path="url(#clip633)" style="fill:#ff8c00; stroke:none; fill-opacity:0" cx="2280.35" cy="349.172" r="2"/>
<circle clip-path="url(#clip633)" style="fill:#ff8c00; stroke:none; fill-opacity:0" cx="2333.96" cy="463.499" r="2"/>
<circle clip-path="url(#clip633)" style="fill:#ff8c00; stroke:none; fill-opacity:0" cx="2387.57" cy="568.695" r="2"/>
<circle clip-path="url(#clip633)" style="fill:#ff8c00; stroke:none; fill-opacity:0" cx="2441.18" cy="660.73" r="2"/>
<circle clip-path="url(#clip633)" style="fill:#ff8c00; stroke:none; fill-opacity:0" cx="2494.79" cy="738.5" r="2"/>
<circle clip-path="url(#clip633)" style="fill:#ff8c00; stroke:none; fill-opacity:0" cx="2548.41" cy="802.561" r="2"/>
<circle clip-path="url(#clip633)" style="fill:#ff8c00; stroke:none; fill-opacity:0" cx="2602.02" cy="854.308" r="2"/>
<circle clip-path="url(#clip633)" style="fill:#ff8c00; stroke:none; fill-opacity:0" cx="2655.63" cy="895.467" r="2"/>
<circle clip-path="url(#clip633)" style="fill:#ff8c00; stroke:none; fill-opacity:0" cx="2709.24" cy="927.795" r="2"/>
<circle clip-path="url(#clip633)" style="fill:#ff8c00; stroke:none; fill-opacity:0" cx="2762.85" cy="952.924" r="2"/>
<circle clip-path="url(#clip633)" style="fill:#ff8c00; stroke:none; fill-opacity:0" cx="2816.46" cy="972.286" r="2"/>
<circle clip-path="url(#clip633)" style="fill:#ff8c00; stroke:none; fill-opacity:0" cx="2870.07" cy="987.093" r="2"/>
<circle clip-path="url(#clip633)" style="fill:#ff8c00; stroke:none; fill-opacity:0" cx="2923.68" cy="998.343" r="2"/>
<circle clip-path="url(#clip633)" style="fill:#ff8c00; stroke:none; fill-opacity:0" cx="2977.29" cy="1006.84" r="2"/>
<circle clip-path="url(#clip633)" style="fill:#ff8c00; stroke:none; fill-opacity:0" cx="3030.9" cy="1013.23" r="2"/>
</svg>
