<?xml version="1.0" encoding="utf-8"?>
<svg xmlns="http://www.w3.org/2000/svg" xmlns:xlink="http://www.w3.org/1999/xlink" width="600" height="400" viewBox="0 0 2400 1600">
<defs>
  <clipPath id="clip990">
    <rect x="0" y="0" width="2400" height="1600"/>
  </clipPath>
</defs>
<path clip-path="url(#clip990)" d="M0 1600 L2400 1600 L2400 8.88178e-14 L0 8.88178e-14  Z" fill="#ffffff" fill-rule="evenodd" fill-opacity="1"/>
<defs>
  <clipPath id="clip991">
    <rect x="480" y="0" width="1681" height="1600"/>
  </clipPath>
</defs>
<path clip-path="url(#clip990)" d="M281.524 1391.68 L2321.26 1391.68 L2321.26 78.7402 L281.524 78.7402  Z" fill="#ffffff" fill-rule="evenodd" fill-opacity="1"/>
<defs>
  <clipPath id="clip992">
    <rect x="281" y="78" width="2041" height="1314"/>
  </clipPath>
</defs>
<polyline clip-path="url(#clip992)" style="stroke:#000000; stroke-linecap:round; stroke-linejoin:round; stroke-width:2; stroke-opacity:0.1; fill:none" points="393.713,1391.68 393.713,78.7402 "/>
<polyline clip-path="url(#clip992)" style="stroke:#000000; stroke-linecap:round; stroke-linejoin:round; stroke-width:2; stroke-opacity:0.1; fill:none" points="847.553,1391.68 847.553,78.7402 "/>
<polyline clip-path="url(#clip992)" style="stroke:#000000; stroke-linecap:round; stroke-linejoin:round; stroke-width:2; stroke-opacity:0.1; fill:none" points="1301.39,1391.68 1301.39,78.7402 "/>
<polyline clip-path="url(#clip992)" style="stroke:#000000; stroke-linecap:round; stroke-linejoin:round; stroke-width:2; stroke-opacity:0.1; fill:none" points="1755.23,1391.68 1755.23,78.7402 "/>
<polyline clip-path="url(#clip992)" style="stroke:#000000; stroke-linecap:round; stroke-linejoin:round; stroke-width:2; stroke-opacity:0.1; fill:none" points="2209.07,1391.68 2209.07,78.7402 "/>
<polyline clip-path="url(#clip990)" style="stroke:#000000; stroke-linecap:round; stroke-linejoin:round; stroke-width:4; stroke-opacity:1; fill:none" points="281.524,1391.68 2321.26,1391.68 "/>
<polyline clip-path="url(#clip990)" style="stroke:#000000; stroke-linecap:round; stroke-linejoin:round; stroke-width:4; stroke-opacity:1; fill:none" points="393.713,1391.68 393.713,1372.79 "/>
<polyline clip-path="url(#clip990)" style="stroke:#000000; stroke-linecap:round; stroke-linejoin:round; stroke-width:4; stroke-opacity:1; fill:none" points="847.553,1391.68 847.553,1372.79 "/>
<polyline clip-path="url(#clip990)" style="stroke:#000000; stroke-linecap:round; stroke-linejoin:round; stroke-width:4; stroke-opacity:1; fill:none" points="1301.39,1391.68 1301.39,1372.79 "/>
<polyline clip-path="url(#clip990)" style="stroke:#000000; stroke-linecap:round; stroke-linejoin:round; stroke-width:4; stroke-opacity:1; fill:none" points="1755.23,1391.68 1755.23,1372.79 "/>
<polyline clip-path="url(#clip990)" style="stroke:#000000; stroke-linecap:round; stroke-linejoin:round; stroke-width:4; stroke-opacity:1; fill:none" points="2209.07,1391.68 2209.07,1372.79 "/>
<path clip-path="url(#clip990)" d="M356.017 1422.6 Q352.406 1422.6 350.577 1426.17 Q348.771 1429.71 348.771 1436.84 Q348.771 1443.94 350.577 1447.51 Q352.406 1451.05 356.017 1451.05 Q359.651 1451.05 361.457 1447.51 Q363.285 1443.94 363.285 1436.84 Q363.285 1429.71 361.457 1426.17 Q359.651 1422.6 356.017 1422.6 M356.017 1418.9 Q361.827 1418.9 364.882 1423.51 Q367.961 1428.09 367.961 1436.84 Q367.961 1445.57 364.882 1450.17 Q361.827 1454.76 356.017 1454.76 Q350.207 1454.76 347.128 1450.17 Q344.072 1445.57 344.072 1436.84 Q344.072 1428.09 347.128 1423.51 Q350.207 1418.9 356.017 1418.9 Z" fill="#000000" fill-rule="nonzero" fill-opacity="1" /><path clip-path="url(#clip990)" d="M376.179 1448.2 L381.063 1448.2 L381.063 1454.08 L376.179 1454.08 L376.179 1448.2 Z" fill="#000000" fill-rule="nonzero" fill-opacity="1" /><path clip-path="url(#clip990)" d="M401.248 1422.6 Q397.637 1422.6 395.808 1426.17 Q394.003 1429.71 394.003 1436.84 Q394.003 1443.94 395.808 1447.51 Q397.637 1451.05 401.248 1451.05 Q404.882 1451.05 406.688 1447.51 Q408.516 1443.94 408.516 1436.84 Q408.516 1429.71 406.688 1426.17 Q404.882 1422.6 401.248 1422.6 M401.248 1418.9 Q407.058 1418.9 410.114 1423.51 Q413.192 1428.09 413.192 1436.84 Q413.192 1445.57 410.114 1450.17 Q407.058 1454.76 401.248 1454.76 Q395.438 1454.76 392.359 1450.17 Q389.304 1445.57 389.304 1436.84 Q389.304 1428.09 392.359 1423.51 Q395.438 1418.9 401.248 1418.9 Z" fill="#000000" fill-rule="nonzero" fill-opacity="1" /><path clip-path="url(#clip990)" d="M431.41 1422.6 Q427.799 1422.6 425.97 1426.17 Q424.165 1429.71 424.165 1436.84 Q424.165 1443.94 425.97 1447.51 Q427.799 1451.05 431.41 1451.05 Q435.044 1451.05 436.85 1447.51 Q438.678 1443.94 438.678 1436.84 Q438.678 1429.71 436.85 1426.17 Q435.044 1422.6 431.41 1422.6 M431.41 1418.9 Q437.22 1418.9 440.276 1423.51 Q443.354 1428.09 443.354 1436.84 Q443.354 1445.57 440.276 1450.17 Q437.22 1454.76 431.41 1454.76 Q425.6 1454.76 422.521 1450.17 Q419.465 1445.57 419.465 1436.84 Q419.465 1428.09 422.521 1423.51 Q425.6 1418.9 431.41 1418.9 Z" fill="#000000" fill-rule="nonzero" fill-opacity="1" /><path clip-path="url(#clip990)" d="M810.354 1422.6 Q806.743 1422.6 804.914 1426.17 Q803.108 1429.71 803.108 1436.84 Q803.108 1443.94 804.914 1447.51 Q806.743 1451.05 810.354 1451.05 Q813.988 1451.05 815.794 1447.51 Q817.622 1443.94 817.622 1436.84 Q817.622 1429.71 815.794 1426.17 Q813.988 1422.6 810.354 1422.6 M810.354 1418.9 Q816.164 1418.9 819.219 1423.51 Q822.298 1428.09 822.298 1436.84 Q822.298 1445.57 819.219 1450.17 Q816.164 1454.76 810.354 1454.76 Q804.544 1454.76 801.465 1450.17 Q798.409 1445.57 798.409 1436.84 Q798.409 1428.09 801.465 1423.51 Q804.544 1418.9 810.354 1418.9 Z" fill="#000000" fill-rule="nonzero" fill-opacity="1" /><path clip-path="url(#clip990)" d="M830.516 1448.2 L835.4 1448.2 L835.4 1454.08 L830.516 1454.08 L830.516 1448.2 Z" fill="#000000" fill-rule="nonzero" fill-opacity="1" /><path clip-path="url(#clip990)" d="M849.613 1450.15 L865.932 1450.15 L865.932 1454.08 L843.988 1454.08 L843.988 1450.15 Q846.65 1447.39 851.233 1442.76 Q855.84 1438.11 857.02 1436.77 Q859.266 1434.25 860.145 1432.51 Q861.048 1430.75 861.048 1429.06 Q861.048 1426.31 859.104 1424.57 Q857.182 1422.83 854.08 1422.83 Q851.881 1422.83 849.428 1423.6 Q846.997 1424.36 844.219 1425.91 L844.219 1421.19 Q847.043 1420.06 849.497 1419.48 Q851.951 1418.9 853.988 1418.9 Q859.358 1418.9 862.553 1421.58 Q865.747 1424.27 865.747 1428.76 Q865.747 1430.89 864.937 1432.81 Q864.15 1434.71 862.043 1437.3 Q861.465 1437.97 858.363 1441.19 Q855.261 1444.38 849.613 1450.15 Z" fill="#000000" fill-rule="nonzero" fill-opacity="1" /><path clip-path="url(#clip990)" d="M875.793 1419.52 L894.15 1419.52 L894.15 1423.46 L880.076 1423.46 L880.076 1431.93 Q881.094 1431.58 882.113 1431.42 Q883.131 1431.24 884.15 1431.24 Q889.937 1431.24 893.316 1434.41 Q896.696 1437.58 896.696 1443 Q896.696 1448.57 893.224 1451.68 Q889.752 1454.76 883.432 1454.76 Q881.256 1454.76 878.988 1454.38 Q876.742 1454.01 874.335 1453.27 L874.335 1448.57 Q876.418 1449.71 878.64 1450.26 Q880.863 1450.82 883.34 1450.82 Q887.344 1450.82 889.682 1448.71 Q892.02 1446.61 892.02 1443 Q892.02 1439.38 889.682 1437.28 Q887.344 1435.17 883.34 1435.17 Q881.465 1435.17 879.59 1435.59 Q877.738 1436.01 875.793 1436.88 L875.793 1419.52 Z" fill="#000000" fill-rule="nonzero" fill-opacity="1" /><path clip-path="url(#clip990)" d="M1263.7 1422.6 Q1260.08 1422.6 1258.26 1426.17 Q1256.45 1429.71 1256.45 1436.84 Q1256.45 1443.94 1258.26 1447.51 Q1260.08 1451.05 1263.7 1451.05 Q1267.33 1451.05 1269.14 1447.51 Q1270.96 1443.94 1270.96 1436.84 Q1270.96 1429.71 1269.14 1426.17 Q1267.33 1422.6 1263.7 1422.6 M1263.7 1418.9 Q1269.51 1418.9 1272.56 1423.51 Q1275.64 1428.09 1275.64 1436.84 Q1275.64 1445.57 1272.56 1450.17 Q1269.51 1454.76 1263.7 1454.76 Q1257.89 1454.76 1254.81 1450.17 Q1251.75 1445.57 1251.75 1436.84 Q1251.75 1428.09 1254.81 1423.51 Q1257.89 1418.9 1263.7 1418.9 Z" fill="#000000" fill-rule="nonzero" fill-opacity="1" /><path clip-path="url(#clip990)" d="M1283.86 1448.2 L1288.74 1448.2 L1288.74 1454.08 L1283.86 1454.08 L1283.86 1448.2 Z" fill="#000000" fill-rule="nonzero" fill-opacity="1" /><path clip-path="url(#clip990)" d="M1298.97 1419.52 L1317.33 1419.52 L1317.33 1423.46 L1303.26 1423.46 L1303.26 1431.93 Q1304.27 1431.58 1305.29 1431.42 Q1306.31 1431.24 1307.33 1431.24 Q1313.12 1431.24 1316.5 1434.41 Q1319.88 1437.58 1319.88 1443 Q1319.88 1448.57 1316.4 1451.68 Q1312.93 1454.76 1306.61 1454.76 Q1304.44 1454.76 1302.17 1454.38 Q1299.92 1454.01 1297.51 1453.27 L1297.51 1448.57 Q1299.6 1449.71 1301.82 1450.26 Q1304.04 1450.82 1306.52 1450.82 Q1310.52 1450.82 1312.86 1448.71 Q1315.2 1446.61 1315.2 1443 Q1315.2 1439.38 1312.86 1437.28 Q1310.52 1435.17 1306.52 1435.17 Q1304.64 1435.17 1302.77 1435.59 Q1300.92 1436.01 1298.97 1436.88 L1298.97 1419.52 Z" fill="#000000" fill-rule="nonzero" fill-opacity="1" /><path clip-path="url(#clip990)" d="M1339.09 1422.6 Q1335.48 1422.6 1333.65 1426.17 Q1331.84 1429.71 1331.84 1436.84 Q1331.84 1443.94 1333.65 1447.51 Q1335.48 1451.05 1339.09 1451.05 Q1342.72 1451.05 1344.53 1447.51 Q1346.36 1443.94 1346.36 1436.84 Q1346.36 1429.71 1344.53 1426.17 Q1342.72 1422.6 1339.09 1422.6 M1339.09 1418.9 Q1344.9 1418.9 1347.95 1423.51 Q1351.03 1428.09 1351.03 1436.84 Q1351.03 1445.57 1347.95 1450.17 Q1344.9 1454.76 1339.09 1454.76 Q1333.28 1454.76 1330.2 1450.17 Q1327.14 1445.57 1327.14 1436.84 Q1327.14 1428.09 1330.2 1423.51 Q1333.28 1418.9 1339.09 1418.9 Z" fill="#000000" fill-rule="nonzero" fill-opacity="1" /><path clip-path="url(#clip990)" d="M1718.03 1422.6 Q1714.42 1422.6 1712.59 1426.17 Q1710.79 1429.71 1710.79 1436.84 Q1710.79 1443.94 1712.59 1447.51 Q1714.42 1451.05 1718.03 1451.05 Q1721.67 1451.05 1723.47 1447.51 Q1725.3 1443.94 1725.3 1436.84 Q1725.3 1429.71 1723.47 1426.17 Q1721.67 1422.6 1718.03 1422.6 M1718.03 1418.9 Q1723.84 1418.9 1726.9 1423.51 Q1729.98 1428.09 1729.98 1436.84 Q1729.98 1445.57 1726.9 1450.17 Q1723.84 1454.76 1718.03 1454.76 Q1712.22 1454.76 1709.14 1450.17 Q1706.09 1445.57 1706.09 1436.84 Q1706.09 1428.09 1709.14 1423.51 Q1712.22 1418.9 1718.03 1418.9 Z" fill="#000000" fill-rule="nonzero" fill-opacity="1" /><path clip-path="url(#clip990)" d="M1738.19 1448.2 L1743.08 1448.2 L1743.08 1454.08 L1738.19 1454.08 L1738.19 1448.2 Z" fill="#000000" fill-rule="nonzero" fill-opacity="1" /><path clip-path="url(#clip990)" d="M1752.08 1419.52 L1774.31 1419.52 L1774.31 1421.51 L1761.76 1454.08 L1756.87 1454.08 L1768.68 1423.46 L1752.08 1423.46 L1752.08 1419.52 Z" fill="#000000" fill-rule="nonzero" fill-opacity="1" /><path clip-path="url(#clip990)" d="M1783.47 1419.52 L1801.83 1419.52 L1801.83 1423.46 L1787.75 1423.46 L1787.75 1431.93 Q1788.77 1431.58 1789.79 1431.42 Q1790.81 1431.24 1791.83 1431.24 Q1797.62 1431.24 1801 1434.41 Q1804.37 1437.58 1804.37 1443 Q1804.37 1448.57 1800.9 1451.68 Q1797.43 1454.76 1791.11 1454.76 Q1788.93 1454.76 1786.67 1454.38 Q1784.42 1454.01 1782.01 1453.27 L1782.01 1448.57 Q1784.1 1449.71 1786.32 1450.26 Q1788.54 1450.82 1791.02 1450.82 Q1795.02 1450.82 1797.36 1448.71 Q1799.7 1446.61 1799.7 1443 Q1799.7 1439.38 1797.36 1437.28 Q1795.02 1435.17 1791.02 1435.17 Q1789.14 1435.17 1787.27 1435.59 Q1785.42 1436.01 1783.47 1436.88 L1783.47 1419.52 Z" fill="#000000" fill-rule="nonzero" fill-opacity="1" /><path clip-path="url(#clip990)" d="M2161.14 1450.15 L2168.78 1450.15 L2168.78 1423.78 L2160.47 1425.45 L2160.47 1421.19 L2168.74 1419.52 L2173.41 1419.52 L2173.41 1450.15 L2181.05 1450.15 L2181.05 1454.08 L2161.14 1454.08 L2161.14 1450.15 Z" fill="#000000" fill-rule="nonzero" fill-opacity="1" /><path clip-path="url(#clip990)" d="M2190.49 1448.2 L2195.38 1448.2 L2195.38 1454.08 L2190.49 1454.08 L2190.49 1448.2 Z" fill="#000000" fill-rule="nonzero" fill-opacity="1" /><path clip-path="url(#clip990)" d="M2215.56 1422.6 Q2211.95 1422.6 2210.12 1426.17 Q2208.32 1429.71 2208.32 1436.84 Q2208.32 1443.94 2210.12 1447.51 Q2211.95 1451.05 2215.56 1451.05 Q2219.2 1451.05 2221 1447.51 Q2222.83 1443.94 2222.83 1436.84 Q2222.83 1429.71 2221 1426.17 Q2219.2 1422.6 2215.56 1422.6 M2215.56 1418.9 Q2221.37 1418.9 2224.43 1423.51 Q2227.51 1428.09 2227.51 1436.84 Q2227.51 1445.57 2224.43 1450.17 Q2221.37 1454.76 2215.56 1454.76 Q2209.75 1454.76 2206.67 1450.17 Q2203.62 1445.57 2203.62 1436.84 Q2203.62 1428.09 2206.67 1423.51 Q2209.75 1418.9 2215.56 1418.9 Z" fill="#000000" fill-rule="nonzero" fill-opacity="1" /><path clip-path="url(#clip990)" d="M2245.73 1422.6 Q2242.11 1422.6 2240.29 1426.17 Q2238.48 1429.71 2238.48 1436.84 Q2238.48 1443.94 2240.29 1447.51 Q2242.11 1451.05 2245.73 1451.05 Q2249.36 1451.05 2251.17 1447.51 Q2252.99 1443.94 2252.99 1436.84 Q2252.99 1429.71 2251.17 1426.17 Q2249.36 1422.6 2245.73 1422.6 M2245.73 1418.9 Q2251.54 1418.9 2254.59 1423.51 Q2257.67 1428.09 2257.67 1436.84 Q2257.67 1445.57 2254.59 1450.17 Q2251.54 1454.76 2245.73 1454.76 Q2239.92 1454.76 2236.84 1450.17 Q2233.78 1445.57 2233.78 1436.84 Q2233.78 1428.09 2236.84 1423.51 Q2239.92 1418.9 2245.73 1418.9 Z" fill="#000000" fill-rule="nonzero" fill-opacity="1" /><path clip-path="url(#clip990)" d="M1288.31 1507.27 Q1290.25 1504.02 1295.06 1501.15 Q1296.94 1500.04 1302.73 1500.04 Q1309.22 1500.04 1313.26 1505.2 Q1317.34 1510.35 1317.34 1518.76 Q1317.34 1527.16 1313.26 1532.31 Q1309.22 1537.47 1302.73 1537.47 Q1298.81 1537.47 1295.98 1535.94 Q1293.18 1534.38 1291.33 1531.2 L1291.33 1550.11 L1285.45 1550.11 L1285.45 1519.07 Q1285.45 1511.72 1288.31 1507.27 M1311.26 1518.76 Q1311.26 1512.29 1308.59 1508.63 Q1305.94 1504.94 1301.3 1504.94 Q1296.65 1504.94 1293.98 1508.63 Q1291.33 1512.29 1291.33 1518.76 Q1291.33 1525.22 1293.98 1528.91 Q1296.65 1532.57 1301.3 1532.57 Q1305.94 1532.57 1308.59 1528.91 Q1311.26 1525.22 1311.26 1518.76 Z" fill="#000000" fill-rule="nonzero" fill-opacity="1" /><polyline clip-path="url(#clip992)" style="stroke:#000000; stroke-linecap:round; stroke-linejoin:round; stroke-width:2; stroke-opacity:0.1; fill:none" points="281.524,1391.68 2321.26,1391.68 "/>
<polyline clip-path="url(#clip992)" style="stroke:#000000; stroke-linecap:round; stroke-linejoin:round; stroke-width:2; stroke-opacity:0.1; fill:none" points="281.524,1188.39 2321.26,1188.39 "/>
<polyline clip-path="url(#clip992)" style="stroke:#000000; stroke-linecap:round; stroke-linejoin:round; stroke-width:2; stroke-opacity:0.1; fill:none" points="281.524,985.095 2321.26,985.095 "/>
<polyline clip-path="url(#clip992)" style="stroke:#000000; stroke-linecap:round; stroke-linejoin:round; stroke-width:2; stroke-opacity:0.1; fill:none" points="281.524,781.8 2321.26,781.8 "/>
<polyline clip-path="url(#clip992)" style="stroke:#000000; stroke-linecap:round; stroke-linejoin:round; stroke-width:2; stroke-opacity:0.1; fill:none" points="281.524,578.506 2321.26,578.506 "/>
<polyline clip-path="url(#clip992)" style="stroke:#000000; stroke-linecap:round; stroke-linejoin:round; stroke-width:2; stroke-opacity:0.1; fill:none" points="281.524,375.211 2321.26,375.211 "/>
<polyline clip-path="url(#clip992)" style="stroke:#000000; stroke-linecap:round; stroke-linejoin:round; stroke-width:2; stroke-opacity:0.1; fill:none" points="281.524,171.917 2321.26,171.917 "/>
<polyline clip-path="url(#clip990)" style="stroke:#000000; stroke-linecap:round; stroke-linejoin:round; stroke-width:4; stroke-opacity:1; fill:none" points="281.524,1391.68 281.524,78.7402 "/>
<polyline clip-path="url(#clip990)" style="stroke:#000000; stroke-linecap:round; stroke-linejoin:round; stroke-width:4; stroke-opacity:1; fill:none" points="281.524,1391.68 300.422,1391.68 "/>
<polyline clip-path="url(#clip990)" style="stroke:#000000; stroke-linecap:round; stroke-linejoin:round; stroke-width:4; stroke-opacity:1; fill:none" points="281.524,1188.39 300.422,1188.39 "/>
<polyline clip-path="url(#clip990)" style="stroke:#000000; stroke-linecap:round; stroke-linejoin:round; stroke-width:4; stroke-opacity:1; fill:none" points="281.524,985.095 300.422,985.095 "/>
<polyline clip-path="url(#clip990)" style="stroke:#000000; stroke-linecap:round; stroke-linejoin:round; stroke-width:4; stroke-opacity:1; fill:none" points="281.524,781.8 300.422,781.8 "/>
<polyline clip-path="url(#clip990)" style="stroke:#000000; stroke-linecap:round; stroke-linejoin:round; stroke-width:4; stroke-opacity:1; fill:none" points="281.524,578.506 300.422,578.506 "/>
<polyline clip-path="url(#clip990)" style="stroke:#000000; stroke-linecap:round; stroke-linejoin:round; stroke-width:4; stroke-opacity:1; fill:none" points="281.524,375.211 300.422,375.211 "/>
<polyline clip-path="url(#clip990)" style="stroke:#000000; stroke-linecap:round; stroke-linejoin:round; stroke-width:4; stroke-opacity:1; fill:none" points="281.524,171.917 300.422,171.917 "/>
<path clip-path="url(#clip990)" d="M158.187 1377.48 Q154.576 1377.48 152.747 1381.05 Q150.941 1384.59 150.941 1391.72 Q150.941 1398.82 152.747 1402.39 Q154.576 1405.93 158.187 1405.93 Q161.821 1405.93 163.626 1402.39 Q165.455 1398.82 165.455 1391.72 Q165.455 1384.59 163.626 1381.05 Q161.821 1377.48 158.187 1377.48 M158.187 1373.78 Q163.997 1373.78 167.052 1378.39 Q170.131 1382.97 170.131 1391.72 Q170.131 1400.45 167.052 1405.05 Q163.997 1409.64 158.187 1409.64 Q152.377 1409.64 149.298 1405.05 Q146.242 1400.45 146.242 1391.72 Q146.242 1382.97 149.298 1378.39 Q152.377 1373.78 158.187 1373.78 Z" fill="#000000" fill-rule="nonzero" fill-opacity="1" /><path clip-path="url(#clip990)" d="M178.349 1403.08 L183.233 1403.08 L183.233 1408.96 L178.349 1408.96 L178.349 1403.08 Z" fill="#000000" fill-rule="nonzero" fill-opacity="1" /><path clip-path="url(#clip990)" d="M203.418 1377.48 Q199.807 1377.48 197.978 1381.05 Q196.173 1384.59 196.173 1391.72 Q196.173 1398.82 197.978 1402.39 Q199.807 1405.93 203.418 1405.93 Q207.052 1405.93 208.858 1402.39 Q210.686 1398.82 210.686 1391.72 Q210.686 1384.59 208.858 1381.05 Q207.052 1377.48 203.418 1377.48 M203.418 1373.78 Q209.228 1373.78 212.284 1378.39 Q215.362 1382.97 215.362 1391.72 Q215.362 1400.45 212.284 1405.05 Q209.228 1409.64 203.418 1409.64 Q197.608 1409.64 194.529 1405.05 Q191.474 1400.45 191.474 1391.72 Q191.474 1382.97 194.529 1378.39 Q197.608 1373.78 203.418 1373.78 Z" fill="#000000" fill-rule="nonzero" fill-opacity="1" /><path clip-path="url(#clip990)" d="M233.58 1377.48 Q229.969 1377.48 228.14 1381.05 Q226.334 1384.59 226.334 1391.72 Q226.334 1398.82 228.14 1402.39 Q229.969 1405.93 233.58 1405.93 Q237.214 1405.93 239.02 1402.39 Q240.848 1398.82 240.848 1391.72 Q240.848 1384.59 239.02 1381.05 Q237.214 1377.48 233.58 1377.48 M233.58 1373.78 Q239.39 1373.78 242.446 1378.39 Q245.524 1382.97 245.524 1391.72 Q245.524 1400.45 242.446 1405.05 Q239.39 1409.64 233.58 1409.64 Q227.77 1409.64 224.691 1405.05 Q221.635 1400.45 221.635 1391.72 Q221.635 1382.97 224.691 1378.39 Q227.77 1373.78 233.58 1373.78 Z" fill="#000000" fill-rule="nonzero" fill-opacity="1" /><path clip-path="url(#clip990)" d="M159.414 1174.19 Q155.802 1174.19 153.974 1177.75 Q152.168 1181.29 152.168 1188.42 Q152.168 1195.53 153.974 1199.1 Q155.802 1202.64 159.414 1202.64 Q163.048 1202.64 164.853 1199.1 Q166.682 1195.53 166.682 1188.42 Q166.682 1181.29 164.853 1177.75 Q163.048 1174.19 159.414 1174.19 M159.414 1170.48 Q165.224 1170.48 168.279 1175.09 Q171.358 1179.67 171.358 1188.42 Q171.358 1197.15 168.279 1201.76 Q165.224 1206.34 159.414 1206.34 Q153.603 1206.34 150.525 1201.76 Q147.469 1197.15 147.469 1188.42 Q147.469 1179.67 150.525 1175.09 Q153.603 1170.48 159.414 1170.48 Z" fill="#000000" fill-rule="nonzero" fill-opacity="1" /><path clip-path="url(#clip990)" d="M179.575 1199.79 L184.46 1199.79 L184.46 1205.67 L179.575 1205.67 L179.575 1199.79 Z" fill="#000000" fill-rule="nonzero" fill-opacity="1" /><path clip-path="url(#clip990)" d="M204.645 1174.19 Q201.034 1174.19 199.205 1177.75 Q197.399 1181.29 197.399 1188.42 Q197.399 1195.53 199.205 1199.1 Q201.034 1202.64 204.645 1202.64 Q208.279 1202.64 210.085 1199.1 Q211.913 1195.53 211.913 1188.42 Q211.913 1181.29 210.085 1177.75 Q208.279 1174.19 204.645 1174.19 M204.645 1170.48 Q210.455 1170.48 213.51 1175.09 Q216.589 1179.67 216.589 1188.42 Q216.589 1197.15 213.51 1201.76 Q210.455 1206.34 204.645 1206.34 Q198.835 1206.34 195.756 1201.76 Q192.7 1197.15 192.7 1188.42 Q192.7 1179.67 195.756 1175.09 Q198.835 1170.48 204.645 1170.48 Z" fill="#000000" fill-rule="nonzero" fill-opacity="1" /><path clip-path="url(#clip990)" d="M225.617 1201.73 L233.256 1201.73 L233.256 1175.37 L224.946 1177.04 L224.946 1172.78 L233.209 1171.11 L237.885 1171.11 L237.885 1201.73 L245.524 1201.73 L245.524 1205.67 L225.617 1205.67 L225.617 1201.73 Z" fill="#000000" fill-rule="nonzero" fill-opacity="1" /><path clip-path="url(#clip990)" d="M159.784 970.893 Q156.173 970.893 154.344 974.458 Q152.539 978 152.539 985.13 Q152.539 992.236 154.344 995.801 Q156.173 999.342 159.784 999.342 Q163.418 999.342 165.224 995.801 Q167.052 992.236 167.052 985.13 Q167.052 978 165.224 974.458 Q163.418 970.893 159.784 970.893 M159.784 967.19 Q165.594 967.19 168.65 971.796 Q171.728 976.38 171.728 985.13 Q171.728 993.856 168.65 998.463 Q165.594 1003.05 159.784 1003.05 Q153.974 1003.05 150.895 998.463 Q147.84 993.856 147.84 985.13 Q147.84 976.38 150.895 971.796 Q153.974 967.19 159.784 967.19 Z" fill="#000000" fill-rule="nonzero" fill-opacity="1" /><path clip-path="url(#clip990)" d="M179.946 996.495 L184.83 996.495 L184.83 1002.37 L179.946 1002.37 L179.946 996.495 Z" fill="#000000" fill-rule="nonzero" fill-opacity="1" /><path clip-path="url(#clip990)" d="M205.015 970.893 Q201.404 970.893 199.575 974.458 Q197.77 978 197.77 985.13 Q197.77 992.236 199.575 995.801 Q201.404 999.342 205.015 999.342 Q208.649 999.342 210.455 995.801 Q212.284 992.236 212.284 985.13 Q212.284 978 210.455 974.458 Q208.649 970.893 205.015 970.893 M205.015 967.19 Q210.825 967.19 213.881 971.796 Q216.96 976.38 216.96 985.13 Q216.96 993.856 213.881 998.463 Q210.825 1003.05 205.015 1003.05 Q199.205 1003.05 196.126 998.463 Q193.071 993.856 193.071 985.13 Q193.071 976.38 196.126 971.796 Q199.205 967.19 205.015 967.19 Z" fill="#000000" fill-rule="nonzero" fill-opacity="1" /><path clip-path="url(#clip990)" d="M229.205 998.44 L245.524 998.44 L245.524 1002.37 L223.58 1002.37 L223.58 998.44 Q226.242 995.685 230.825 991.055 Q235.432 986.403 236.612 985.06 Q238.858 982.537 239.737 980.801 Q240.64 979.042 240.64 977.352 Q240.64 974.597 238.696 972.861 Q236.774 971.125 233.672 971.125 Q231.473 971.125 229.02 971.889 Q226.589 972.653 223.811 974.204 L223.811 969.481 Q226.635 968.347 229.089 967.768 Q231.543 967.19 233.58 967.19 Q238.95 967.19 242.145 969.875 Q245.339 972.56 245.339 977.051 Q245.339 979.18 244.529 981.102 Q243.742 983 241.635 985.592 Q241.057 986.264 237.955 989.481 Q234.853 992.676 229.205 998.44 Z" fill="#000000" fill-rule="nonzero" fill-opacity="1" /><path clip-path="url(#clip990)" d="M158.835 767.599 Q155.224 767.599 153.395 771.164 Q151.59 774.705 151.59 781.835 Q151.59 788.941 153.395 792.506 Q155.224 796.048 158.835 796.048 Q162.469 796.048 164.275 792.506 Q166.103 788.941 166.103 781.835 Q166.103 774.705 164.275 771.164 Q162.469 767.599 158.835 767.599 M158.835 763.895 Q164.645 763.895 167.701 768.502 Q170.779 773.085 170.779 781.835 Q170.779 790.562 167.701 795.168 Q164.645 799.752 158.835 799.752 Q153.025 799.752 149.946 795.168 Q146.89 790.562 146.89 781.835 Q146.89 773.085 149.946 768.502 Q153.025 763.895 158.835 763.895 Z" fill="#000000" fill-rule="nonzero" fill-opacity="1" /><path clip-path="url(#clip990)" d="M178.997 793.201 L183.881 793.201 L183.881 799.08 L178.997 799.08 L178.997 793.201 Z" fill="#000000" fill-rule="nonzero" fill-opacity="1" /><path clip-path="url(#clip990)" d="M204.066 767.599 Q200.455 767.599 198.626 771.164 Q196.821 774.705 196.821 781.835 Q196.821 788.941 198.626 792.506 Q200.455 796.048 204.066 796.048 Q207.7 796.048 209.506 792.506 Q211.335 788.941 211.335 781.835 Q211.335 774.705 209.506 771.164 Q207.7 767.599 204.066 767.599 M204.066 763.895 Q209.876 763.895 212.932 768.502 Q216.01 773.085 216.01 781.835 Q216.01 790.562 212.932 795.168 Q209.876 799.752 204.066 799.752 Q198.256 799.752 195.177 795.168 Q192.122 790.562 192.122 781.835 Q192.122 773.085 195.177 768.502 Q198.256 763.895 204.066 763.895 Z" fill="#000000" fill-rule="nonzero" fill-opacity="1" /><path clip-path="url(#clip990)" d="M238.395 780.446 Q241.751 781.164 243.626 783.432 Q245.524 785.701 245.524 789.034 Q245.524 794.15 242.006 796.951 Q238.487 799.752 232.006 799.752 Q229.83 799.752 227.515 799.312 Q225.223 798.895 222.77 798.039 L222.77 793.525 Q224.714 794.659 227.029 795.238 Q229.344 795.816 231.867 795.816 Q236.265 795.816 238.557 794.08 Q240.871 792.344 240.871 789.034 Q240.871 785.979 238.719 784.266 Q236.589 782.529 232.77 782.529 L228.742 782.529 L228.742 778.687 L232.955 778.687 Q236.404 778.687 238.233 777.321 Q240.061 775.932 240.061 773.34 Q240.061 770.678 238.163 769.266 Q236.288 767.83 232.77 767.83 Q230.848 767.83 228.649 768.247 Q226.45 768.664 223.811 769.543 L223.811 765.377 Q226.473 764.636 228.788 764.266 Q231.126 763.895 233.186 763.895 Q238.51 763.895 241.612 766.326 Q244.714 768.733 244.714 772.854 Q244.714 775.724 243.071 777.715 Q241.427 779.682 238.395 780.446 Z" fill="#000000" fill-rule="nonzero" fill-opacity="1" /><path clip-path="url(#clip990)" d="M157.701 564.304 Q154.09 564.304 152.261 567.869 Q150.455 571.411 150.455 578.541 Q150.455 585.647 152.261 589.212 Q154.09 592.753 157.701 592.753 Q161.335 592.753 163.14 589.212 Q164.969 585.647 164.969 578.541 Q164.969 571.411 163.14 567.869 Q161.335 564.304 157.701 564.304 M157.701 560.601 Q163.511 560.601 166.566 565.207 Q169.645 569.791 169.645 578.541 Q169.645 587.267 166.566 591.874 Q163.511 596.457 157.701 596.457 Q151.89 596.457 148.812 591.874 Q145.756 587.267 145.756 578.541 Q145.756 569.791 148.812 565.207 Q151.89 560.601 157.701 560.601 Z" fill="#000000" fill-rule="nonzero" fill-opacity="1" /><path clip-path="url(#clip990)" d="M177.863 589.906 L182.747 589.906 L182.747 595.786 L177.863 595.786 L177.863 589.906 Z" fill="#000000" fill-rule="nonzero" fill-opacity="1" /><path clip-path="url(#clip990)" d="M202.932 564.304 Q199.321 564.304 197.492 567.869 Q195.687 571.411 195.687 578.541 Q195.687 585.647 197.492 589.212 Q199.321 592.753 202.932 592.753 Q206.566 592.753 208.372 589.212 Q210.2 585.647 210.2 578.541 Q210.2 571.411 208.372 567.869 Q206.566 564.304 202.932 564.304 M202.932 560.601 Q208.742 560.601 211.798 565.207 Q214.876 569.791 214.876 578.541 Q214.876 587.267 211.798 591.874 Q208.742 596.457 202.932 596.457 Q197.122 596.457 194.043 591.874 Q190.987 587.267 190.987 578.541 Q190.987 569.791 194.043 565.207 Q197.122 560.601 202.932 560.601 Z" fill="#000000" fill-rule="nonzero" fill-opacity="1" /><path clip-path="url(#clip990)" d="M235.941 565.3 L224.135 583.749 L235.941 583.749 L235.941 565.3 M234.714 561.226 L240.594 561.226 L240.594 583.749 L245.524 583.749 L245.524 587.638 L240.594 587.638 L240.594 595.786 L235.941 595.786 L235.941 587.638 L220.339 587.638 L220.339 583.124 L234.714 561.226 Z" fill="#000000" fill-rule="nonzero" fill-opacity="1" /><path clip-path="url(#clip990)" d="M159.182 361.01 Q155.571 361.01 153.742 364.575 Q151.937 368.116 151.937 375.246 Q151.937 382.352 153.742 385.917 Q155.571 389.459 159.182 389.459 Q162.816 389.459 164.622 385.917 Q166.451 382.352 166.451 375.246 Q166.451 368.116 164.622 364.575 Q162.816 361.01 159.182 361.01 M159.182 357.306 Q164.992 357.306 168.048 361.913 Q171.126 366.496 171.126 375.246 Q171.126 383.973 168.048 388.579 Q164.992 393.163 159.182 393.163 Q153.372 393.163 150.293 388.579 Q147.238 383.973 147.238 375.246 Q147.238 366.496 150.293 361.913 Q153.372 357.306 159.182 357.306 Z" fill="#000000" fill-rule="nonzero" fill-opacity="1" /><path clip-path="url(#clip990)" d="M179.344 386.612 L184.228 386.612 L184.228 392.491 L179.344 392.491 L179.344 386.612 Z" fill="#000000" fill-rule="nonzero" fill-opacity="1" /><path clip-path="url(#clip990)" d="M204.413 361.01 Q200.802 361.01 198.974 364.575 Q197.168 368.116 197.168 375.246 Q197.168 382.352 198.974 385.917 Q200.802 389.459 204.413 389.459 Q208.048 389.459 209.853 385.917 Q211.682 382.352 211.682 375.246 Q211.682 368.116 209.853 364.575 Q208.048 361.01 204.413 361.01 M204.413 357.306 Q210.223 357.306 213.279 361.913 Q216.358 366.496 216.358 375.246 Q216.358 383.973 213.279 388.579 Q210.223 393.163 204.413 393.163 Q198.603 393.163 195.524 388.579 Q192.469 383.973 192.469 375.246 Q192.469 366.496 195.524 361.913 Q198.603 357.306 204.413 357.306 Z" fill="#000000" fill-rule="nonzero" fill-opacity="1" /><path clip-path="url(#clip990)" d="M224.622 357.931 L242.978 357.931 L242.978 361.866 L228.904 361.866 L228.904 370.339 Q229.922 369.991 230.941 369.829 Q231.959 369.644 232.978 369.644 Q238.765 369.644 242.145 372.815 Q245.524 375.987 245.524 381.403 Q245.524 386.982 242.052 390.084 Q238.58 393.163 232.26 393.163 Q230.084 393.163 227.816 392.792 Q225.571 392.422 223.163 391.681 L223.163 386.982 Q225.247 388.116 227.469 388.672 Q229.691 389.227 232.168 389.227 Q236.172 389.227 238.51 387.121 Q240.848 385.014 240.848 381.403 Q240.848 377.792 238.51 375.686 Q236.172 373.579 232.168 373.579 Q230.293 373.579 228.418 373.996 Q226.566 374.413 224.622 375.292 L224.622 357.931 Z" fill="#000000" fill-rule="nonzero" fill-opacity="1" /><path clip-path="url(#clip990)" d="M158.025 157.715 Q154.414 157.715 152.585 161.28 Q150.779 164.822 150.779 171.952 Q150.779 179.058 152.585 182.623 Q154.414 186.164 158.025 186.164 Q161.659 186.164 163.464 182.623 Q165.293 179.058 165.293 171.952 Q165.293 164.822 163.464 161.28 Q161.659 157.715 158.025 157.715 M158.025 154.012 Q163.835 154.012 166.89 158.618 Q169.969 163.202 169.969 171.952 Q169.969 180.678 166.89 185.285 Q163.835 189.868 158.025 189.868 Q152.215 189.868 149.136 185.285 Q146.08 180.678 146.08 171.952 Q146.08 163.202 149.136 158.618 Q152.215 154.012 158.025 154.012 Z" fill="#000000" fill-rule="nonzero" fill-opacity="1" /><path clip-path="url(#clip990)" d="M178.187 183.317 L183.071 183.317 L183.071 189.197 L178.187 189.197 L178.187 183.317 Z" fill="#000000" fill-rule="nonzero" fill-opacity="1" /><path clip-path="url(#clip990)" d="M203.256 157.715 Q199.645 157.715 197.816 161.28 Q196.011 164.822 196.011 171.952 Q196.011 179.058 197.816 182.623 Q199.645 186.164 203.256 186.164 Q206.89 186.164 208.696 182.623 Q210.524 179.058 210.524 171.952 Q210.524 164.822 208.696 161.28 Q206.89 157.715 203.256 157.715 M203.256 154.012 Q209.066 154.012 212.122 158.618 Q215.2 163.202 215.2 171.952 Q215.2 180.678 212.122 185.285 Q209.066 189.868 203.256 189.868 Q197.446 189.868 194.367 185.285 Q191.312 180.678 191.312 171.952 Q191.312 163.202 194.367 158.618 Q197.446 154.012 203.256 154.012 Z" fill="#000000" fill-rule="nonzero" fill-opacity="1" /><path clip-path="url(#clip990)" d="M233.996 170.053 Q230.848 170.053 228.997 172.206 Q227.168 174.359 227.168 178.109 Q227.168 181.836 228.997 184.012 Q230.848 186.164 233.996 186.164 Q237.145 186.164 238.973 184.012 Q240.825 181.836 240.825 178.109 Q240.825 174.359 238.973 172.206 Q237.145 170.053 233.996 170.053 M243.279 155.401 L243.279 159.66 Q241.52 158.827 239.714 158.387 Q237.932 157.947 236.172 157.947 Q231.543 157.947 229.089 161.072 Q226.659 164.197 226.311 170.516 Q227.677 168.502 229.737 167.438 Q231.797 166.35 234.274 166.35 Q239.483 166.35 242.492 169.521 Q245.524 172.669 245.524 178.109 Q245.524 183.433 242.376 186.651 Q239.228 189.868 233.996 189.868 Q228.001 189.868 224.83 185.285 Q221.659 180.678 221.659 171.952 Q221.659 163.757 225.547 158.896 Q229.436 154.012 235.987 154.012 Q237.746 154.012 239.529 154.359 Q241.334 154.706 243.279 155.401 Z" fill="#000000" fill-rule="nonzero" fill-opacity="1" /><path clip-path="url(#clip990)" d="M53.2638 1079.77 L71.1196 1079.77 L71.1196 1071.69 Q71.1196 1067.2 68.7961 1064.75 Q66.4726 1062.3 62.1757 1062.3 Q57.9107 1062.3 55.5872 1064.75 Q53.2638 1067.2 53.2638 1071.69 L53.2638 1079.77 M47.9802 1086.2 L47.9802 1071.69 Q47.9802 1063.7 51.6087 1059.62 Q55.2053 1055.52 62.1757 1055.52 Q69.2099 1055.52 72.8065 1059.62 Q76.4031 1063.7 76.4031 1071.69 L76.4031 1079.77 L95.5002 1079.77 L95.5002 1086.2 L47.9802 1086.2 Z" fill="#000000" fill-rule="nonzero" fill-opacity="1" /><path clip-path="url(#clip990)" d="M65.3268 1027.64 Q64.7539 1028.62 64.4992 1029.8 Q64.2128 1030.95 64.2128 1032.35 Q64.2128 1037.31 67.4593 1039.99 Q70.674 1042.63 76.7214 1042.63 L95.5002 1042.63 L95.5002 1048.52 L59.8523 1048.52 L59.8523 1042.63 L65.3904 1042.63 Q62.1439 1040.78 60.5843 1037.82 Q58.9929 1034.86 58.9929 1030.63 Q58.9929 1030.02 59.0884 1029.29 Q59.152 1028.56 59.3112 1027.67 L65.3268 1027.64 Z" fill="#000000" fill-rule="nonzero" fill-opacity="1" /><path clip-path="url(#clip990)" d="M63.9581 1009.11 Q63.9581 1013.82 67.6503 1016.56 Q71.3105 1019.3 77.7081 1019.3 Q84.1056 1019.3 87.7977 1016.59 Q91.458 1013.85 91.458 1009.11 Q91.458 1004.43 87.7659 1001.7 Q84.0738 998.959 77.7081 998.959 Q71.3742 998.959 67.6821 1001.7 Q63.9581 1004.43 63.9581 1009.11 M58.9929 1009.11 Q58.9929 1001.47 63.9581 997.113 Q68.9234 992.753 77.7081 992.753 Q86.4609 992.753 91.458 997.113 Q96.4232 1001.47 96.4232 1009.11 Q96.4232 1016.78 91.458 1021.14 Q86.4609 1025.47 77.7081 1025.47 Q68.9234 1025.47 63.9581 1021.14 Q58.9929 1016.78 58.9929 1009.11 Z" fill="#000000" fill-rule="nonzero" fill-opacity="1" /><path clip-path="url(#clip990)" d="M90.153 977.379 L109.059 977.379 L109.059 983.268 L59.8523 983.268 L59.8523 977.379 L65.2631 977.379 Q62.0803 975.533 60.5525 972.732 Q58.9929 969.9 58.9929 965.985 Q58.9929 959.492 64.1491 955.45 Q69.3053 951.375 77.7081 951.375 Q86.1108 951.375 91.267 955.45 Q96.4232 959.492 96.4232 965.985 Q96.4232 969.9 94.8955 972.732 Q93.3359 975.533 90.153 977.379 M77.7081 957.455 Q71.2469 957.455 67.5866 960.128 Q63.8945 962.77 63.8945 967.417 Q63.8945 972.064 67.5866 974.738 Q71.2469 977.379 77.7081 977.379 Q84.1693 977.379 87.8614 974.738 Q91.5217 972.064 91.5217 967.417 Q91.5217 962.77 87.8614 960.128 Q84.1693 957.455 77.7081 957.455 Z" fill="#000000" fill-rule="nonzero" fill-opacity="1" /><path clip-path="url(#clip990)" d="M63.9581 927.854 Q63.9581 932.565 67.6503 935.302 Q71.3105 938.039 77.7081 938.039 Q84.1056 938.039 87.7977 935.334 Q91.458 932.597 91.458 927.854 Q91.458 923.175 87.7659 920.438 Q84.0738 917.701 77.7081 917.701 Q71.3742 917.701 67.6821 920.438 Q63.9581 923.175 63.9581 927.854 M58.9929 927.854 Q58.9929 920.215 63.9581 915.855 Q68.9234 911.494 77.7081 911.494 Q86.4609 911.494 91.458 915.855 Q96.4232 920.215 96.4232 927.854 Q96.4232 935.525 91.458 939.885 Q86.4609 944.214 77.7081 944.214 Q68.9234 944.214 63.9581 939.885 Q58.9929 935.525 58.9929 927.854 Z" fill="#000000" fill-rule="nonzero" fill-opacity="1" /><path clip-path="url(#clip990)" d="M65.3268 881.13 Q64.7539 882.117 64.4992 883.294 Q64.2128 884.44 64.2128 885.841 Q64.2128 890.806 67.4593 893.479 Q70.674 896.121 76.7214 896.121 L95.5002 896.121 L95.5002 902.009 L59.8523 902.009 L59.8523 896.121 L65.3904 896.121 Q62.1439 894.275 60.5843 891.315 Q58.9929 888.355 58.9929 884.122 Q58.9929 883.517 59.0884 882.785 Q59.152 882.053 59.3112 881.162 L65.3268 881.13 Z" fill="#000000" fill-rule="nonzero" fill-opacity="1" /><path clip-path="url(#clip990)" d="M49.7308 869.194 L59.8523 869.194 L59.8523 857.131 L64.4037 857.131 L64.4037 869.194 L83.7555 869.194 Q88.116 869.194 89.3573 868.017 Q90.5986 866.807 90.5986 863.147 L90.5986 857.131 L95.5002 857.131 L95.5002 863.147 Q95.5002 869.926 92.9858 872.504 Q90.4395 875.082 83.7555 875.082 L64.4037 875.082 L64.4037 879.379 L59.8523 879.379 L59.8523 875.082 L49.7308 875.082 L49.7308 869.194 Z" fill="#000000" fill-rule="nonzero" fill-opacity="1" /><path clip-path="url(#clip990)" d="M59.8523 849.429 L59.8523 843.572 L95.5002 843.572 L95.5002 849.429 L59.8523 849.429 M45.975 849.429 L45.975 843.572 L53.3911 843.572 L53.3911 849.429 L45.975 849.429 Z" fill="#000000" fill-rule="nonzero" fill-opacity="1" /><path clip-path="url(#clip990)" d="M63.9581 817.505 Q63.9581 822.215 67.6503 824.953 Q71.3105 827.69 77.7081 827.69 Q84.1056 827.69 87.7977 824.984 Q91.458 822.247 91.458 817.505 Q91.458 812.826 87.7659 810.089 Q84.0738 807.351 77.7081 807.351 Q71.3742 807.351 67.6821 810.089 Q63.9581 812.826 63.9581 817.505 M58.9929 817.505 Q58.9929 809.866 63.9581 805.505 Q68.9234 801.145 77.7081 801.145 Q86.4609 801.145 91.458 805.505 Q96.4232 809.866 96.4232 817.505 Q96.4232 825.175 91.458 829.536 Q86.4609 833.865 77.7081 833.865 Q68.9234 833.865 63.9581 829.536 Q58.9929 825.175 58.9929 817.505 Z" fill="#000000" fill-rule="nonzero" fill-opacity="1" /><path clip-path="url(#clip990)" d="M73.9841 761.805 L95.5002 761.805 L95.5002 767.661 L74.1751 767.661 Q69.1144 767.661 66.5999 769.635 Q64.0855 771.608 64.0855 775.555 Q64.0855 780.297 67.1092 783.034 Q70.1329 785.772 75.3528 785.772 L95.5002 785.772 L95.5002 791.66 L59.8523 791.66 L59.8523 785.772 L65.3904 785.772 Q62.1757 783.671 60.5843 780.838 Q58.9929 777.974 58.9929 774.25 Q58.9929 768.107 62.8123 764.956 Q66.5999 761.805 73.9841 761.805 Z" fill="#000000" fill-rule="nonzero" fill-opacity="1" /><path clip-path="url(#clip990)" d="M63.9581 715.59 Q63.9581 720.3 67.6503 723.038 Q71.3105 725.775 77.7081 725.775 Q84.1056 725.775 87.7977 723.069 Q91.458 720.332 91.458 715.59 Q91.458 710.911 87.7659 708.174 Q84.0738 705.436 77.7081 705.436 Q71.3742 705.436 67.6821 708.174 Q63.9581 710.911 63.9581 715.59 M58.9929 715.59 Q58.9929 707.951 63.9581 703.59 Q68.9234 699.23 77.7081 699.23 Q86.4609 699.23 91.458 703.59 Q96.4232 707.951 96.4232 715.59 Q96.4232 723.26 91.458 727.621 Q86.4609 731.95 77.7081 731.95 Q68.9234 731.95 63.9581 727.621 Q58.9929 723.26 58.9929 715.59 Z" fill="#000000" fill-rule="nonzero" fill-opacity="1" /><path clip-path="url(#clip990)" d="M45.975 671.475 L50.8448 671.475 L50.8448 677.077 Q50.8448 680.228 52.1179 681.469 Q53.3911 682.679 56.7012 682.679 L59.8523 682.679 L59.8523 673.035 L64.4037 673.035 L64.4037 682.679 L95.5002 682.679 L95.5002 688.567 L64.4037 688.567 L64.4037 694.169 L59.8523 694.169 L59.8523 688.567 L57.3696 688.567 Q51.4177 688.567 48.7123 685.798 Q45.975 683.029 45.975 677.013 L45.975 671.475 Z" fill="#000000" fill-rule="nonzero" fill-opacity="1" /><path clip-path="url(#clip990)" d="M60.9026 623.128 L66.4408 623.128 Q65.1676 625.61 64.5311 628.284 Q63.8945 630.958 63.8945 633.822 Q63.8945 638.183 65.2313 640.379 Q66.5681 642.543 69.2417 642.543 Q71.2787 642.543 72.4564 640.984 Q73.6022 639.424 74.6525 634.713 L75.0981 632.708 Q76.4349 626.47 78.8857 623.86 Q81.3047 621.218 85.6652 621.218 Q90.6305 621.218 93.5269 625.165 Q96.4232 629.08 96.4232 635.955 Q96.4232 638.819 95.8503 641.938 Q95.3092 645.026 94.1953 648.463 L88.1478 648.463 Q89.8347 645.217 90.6941 642.066 Q91.5217 638.915 91.5217 635.827 Q91.5217 631.69 90.1212 629.462 Q88.6889 627.234 86.1108 627.234 Q83.7237 627.234 82.4505 628.857 Q81.1774 630.448 79.9997 635.891 L79.5223 637.928 Q78.3765 643.371 76.0212 645.79 Q73.634 648.209 69.4963 648.209 Q64.4674 648.209 61.7301 644.644 Q58.9929 641.079 58.9929 634.522 Q58.9929 631.276 59.4703 628.411 Q59.9477 625.547 60.9026 623.128 Z" fill="#000000" fill-rule="nonzero" fill-opacity="1" /><path clip-path="url(#clip990)" d="M77.5808 595.692 Q77.5808 602.789 79.204 605.527 Q80.8273 608.264 84.7422 608.264 Q87.8614 608.264 89.7074 606.227 Q91.5217 604.158 91.5217 600.625 Q91.5217 595.755 88.0842 592.827 Q84.6149 589.867 78.8857 589.867 L77.5808 589.867 L77.5808 595.692 M75.1618 584.011 L95.5002 584.011 L95.5002 589.867 L90.0894 589.867 Q93.3359 591.872 94.8955 594.864 Q96.4232 597.856 96.4232 602.185 Q96.4232 607.659 93.3677 610.906 Q90.2803 614.12 85.1241 614.12 Q79.1085 614.12 76.053 610.11 Q72.9974 606.068 72.9974 598.079 L72.9974 589.867 L72.4245 589.867 Q68.3823 589.867 66.1861 592.541 Q63.9581 595.182 63.9581 599.988 Q63.9581 603.044 64.6902 605.94 Q65.4223 608.837 66.8864 611.51 L61.4755 611.51 Q60.2342 608.296 59.6295 605.272 Q58.9929 602.248 58.9929 599.384 Q58.9929 591.649 63.0033 587.83 Q67.0137 584.011 75.1618 584.011 Z" fill="#000000" fill-rule="nonzero" fill-opacity="1" /><path clip-path="url(#clip990)" d="M66.6954 544.193 Q62.7487 541.997 60.8708 538.941 Q58.9929 535.886 58.9929 531.748 Q58.9929 526.178 62.9078 523.154 Q66.7909 520.131 73.9841 520.131 L95.5002 520.131 L95.5002 526.019 L74.1751 526.019 Q69.0507 526.019 66.5681 527.833 Q64.0855 529.647 64.0855 533.371 Q64.0855 537.923 67.1092 540.565 Q70.1329 543.206 75.3528 543.206 L95.5002 543.206 L95.5002 549.095 L74.1751 549.095 Q69.0189 549.095 66.5681 550.909 Q64.0855 552.723 64.0855 556.511 Q64.0855 560.998 67.141 563.64 Q70.1647 566.282 75.3528 566.282 L95.5002 566.282 L95.5002 572.17 L59.8523 572.17 L59.8523 566.282 L65.3904 566.282 Q62.1121 564.277 60.5525 561.476 Q58.9929 558.675 58.9929 554.824 Q58.9929 550.941 60.9663 548.235 Q62.9396 545.498 66.6954 544.193 Z" fill="#000000" fill-rule="nonzero" fill-opacity="1" /><path clip-path="url(#clip990)" d="M90.153 502.784 L109.059 502.784 L109.059 508.672 L59.8523 508.672 L59.8523 502.784 L65.2631 502.784 Q62.0803 500.938 60.5525 498.137 Q58.9929 495.304 58.9929 491.389 Q58.9929 484.896 64.1491 480.854 Q69.3053 476.78 77.7081 476.78 Q86.1108 476.78 91.267 480.854 Q96.4232 484.896 96.4232 491.389 Q96.4232 495.304 94.8955 498.137 Q93.3359 500.938 90.153 502.784 M77.7081 482.859 Q71.2469 482.859 67.5866 485.533 Q63.8945 488.175 63.8945 492.822 Q63.8945 497.469 67.5866 500.142 Q71.2469 502.784 77.7081 502.784 Q84.1693 502.784 87.8614 500.142 Q91.5217 497.469 91.5217 492.822 Q91.5217 488.175 87.8614 485.533 Q84.1693 482.859 77.7081 482.859 Z" fill="#000000" fill-rule="nonzero" fill-opacity="1" /><path clip-path="url(#clip990)" d="M45.975 467.072 L45.975 461.216 L95.5002 461.216 L95.5002 467.072 L45.975 467.072 Z" fill="#000000" fill-rule="nonzero" fill-opacity="1" /><path clip-path="url(#clip990)" d="M76.2121 418.47 L79.0767 418.47 L79.0767 445.397 Q85.1241 445.015 88.307 441.769 Q91.458 438.49 91.458 432.666 Q91.458 429.292 90.6305 426.141 Q89.8029 422.958 88.1478 419.839 L93.686 419.839 Q95.0228 422.99 95.723 426.3 Q96.4232 429.61 96.4232 433.016 Q96.4232 441.546 91.458 446.543 Q86.4927 451.508 78.0264 451.508 Q69.2735 451.508 64.1491 446.798 Q58.9929 442.055 58.9929 434.034 Q58.9929 426.841 63.6399 422.672 Q68.255 418.47 76.2121 418.47 M74.4934 424.327 Q69.6873 424.39 66.8227 427.032 Q63.9581 429.642 63.9581 433.971 Q63.9581 438.872 66.7272 441.832 Q69.4963 444.761 74.5252 445.206 L74.4934 424.327 Z" fill="#000000" fill-rule="nonzero" fill-opacity="1" /><path clip-path="url(#clip990)" d="M60.9026 386.133 L66.4408 386.133 Q65.1676 388.615 64.5311 391.289 Q63.8945 393.962 63.8945 396.827 Q63.8945 401.187 65.2313 403.384 Q66.5681 405.548 69.2417 405.548 Q71.2787 405.548 72.4564 403.988 Q73.6022 402.429 74.6525 397.718 L75.0981 395.713 Q76.4349 389.475 78.8857 386.865 Q81.3047 384.223 85.6652 384.223 Q90.6305 384.223 93.5269 388.17 Q96.4232 392.084 96.4232 398.959 Q96.4232 401.824 95.8503 404.943 Q95.3092 408.031 94.1953 411.468 L88.1478 411.468 Q89.8347 408.222 90.6941 405.071 Q91.5217 401.919 91.5217 398.832 Q91.5217 394.694 90.1212 392.466 Q88.6889 390.238 86.1108 390.238 Q83.7237 390.238 82.4505 391.862 Q81.1774 393.453 79.9997 398.896 L79.5223 400.933 Q78.3765 406.375 76.0212 408.794 Q73.634 411.213 69.4963 411.213 Q64.4674 411.213 61.7301 407.649 Q58.9929 404.084 58.9929 397.527 Q58.9929 394.281 59.4703 391.416 Q59.9477 388.551 60.9026 386.133 Z" fill="#000000" fill-rule="nonzero" fill-opacity="1" /><path clip-path="url(#clip992)" d="M393.713 1199.68 L393.713 1391.68 L430.02 1391.68 L430.02 1199.68 L393.713 1199.68 L393.713 1199.68  Z" fill="#ff8c00" fill-rule="evenodd" fill-opacity="1"/>
<polyline clip-path="url(#clip992)" style="stroke:#000000; stroke-linecap:round; stroke-linejoin:round; stroke-width:4; stroke-opacity:1; fill:none" points="393.713,1199.68 393.713,1391.68 430.02,1391.68 430.02,1199.68 393.713,1199.68 "/>
<path clip-path="url(#clip992)" d="M430.02 815.683 L430.02 1391.68 L466.328 1391.68 L466.328 815.683 L430.02 815.683 L430.02 815.683  Z" fill="#ff8c00" fill-rule="evenodd" fill-opacity="1"/>
<polyline clip-path="url(#clip992)" style="stroke:#000000; stroke-linecap:round; stroke-linejoin:round; stroke-width:4; stroke-opacity:1; fill:none" points="430.02,815.683 430.02,1391.68 466.328,1391.68 466.328,815.683 430.02,815.683 "/>
<path clip-path="url(#clip992)" d="M466.328 626.506 L466.328 1391.68 L502.635 1391.68 L502.635 626.506 L466.328 626.506 L466.328 626.506  Z" fill="#ff8c00" fill-rule="evenodd" fill-opacity="1"/>
<polyline clip-path="url(#clip992)" style="stroke:#000000; stroke-linecap:round; stroke-linejoin:round; stroke-width:4; stroke-opacity:1; fill:none" points="466.328,626.506 466.328,1391.68 502.635,1391.68 502.635,626.506 466.328,626.506 "/>
<path clip-path="url(#clip992)" d="M502.635 519.212 L502.635 1391.68 L538.942 1391.68 L538.942 519.212 L502.635 519.212 L502.635 519.212  Z" fill="#ff8c00" fill-rule="evenodd" fill-opacity="1"/>
<polyline clip-path="url(#clip992)" style="stroke:#000000; stroke-linecap:round; stroke-linejoin:round; stroke-width:4; stroke-opacity:1; fill:none" points="502.635,519.212 502.635,1391.68 538.942,1391.68 538.942,519.212 502.635,519.212 "/>
<path clip-path="url(#clip992)" d="M538.942 78.7402 L538.942 1391.68 L575.249 1391.68 L575.249 78.7402 L538.942 78.7402 L538.942 78.7402  Z" fill="#ff8c00" fill-rule="evenodd" fill-opacity="1"/>
<polyline clip-path="url(#clip992)" style="stroke:#000000; stroke-linecap:round; stroke-linejoin:round; stroke-width:4; stroke-opacity:1; fill:none" points="538.942,78.7402 538.942,1391.68 575.249,1391.68 575.249,78.7402 538.942,78.7402 "/>
<path clip-path="url(#clip992)" d="M575.249 493.8 L575.249 1391.68 L611.556 1391.68 L611.556 493.8 L575.249 493.8 L575.249 493.8  Z" fill="#ff8c00" fill-rule="evenodd" fill-opacity="1"/>
<polyline clip-path="url(#clip992)" style="stroke:#000000; stroke-linecap:round; stroke-linejoin:round; stroke-width:4; stroke-opacity:1; fill:none" points="575.249,493.8 575.249,1391.68 611.556,1391.68 611.556,493.8 575.249,493.8 "/>
<path clip-path="url(#clip992)" d="M611.556 242.505 L611.556 1391.68 L647.863 1391.68 L647.863 242.505 L611.556 242.505 L611.556 242.505  Z" fill="#ff8c00" fill-rule="evenodd" fill-opacity="1"/>
<polyline clip-path="url(#clip992)" style="stroke:#000000; stroke-linecap:round; stroke-linejoin:round; stroke-width:4; stroke-opacity:1; fill:none" points="611.556,242.505 611.556,1391.68 647.863,1391.68 647.863,242.505 611.556,242.505 "/>
<path clip-path="url(#clip992)" d="M647.863 595.447 L647.863 1391.68 L684.17 1391.68 L684.17 595.447 L647.863 595.447 L647.863 595.447  Z" fill="#ff8c00" fill-rule="evenodd" fill-opacity="1"/>
<polyline clip-path="url(#clip992)" style="stroke:#000000; stroke-linecap:round; stroke-linejoin:round; stroke-width:4; stroke-opacity:1; fill:none" points="647.863,595.447 647.863,1391.68 684.17,1391.68 684.17,595.447 647.863,595.447 "/>
<path clip-path="url(#clip992)" d="M684.17 620.859 L684.17 1391.68 L720.478 1391.68 L720.478 620.859 L684.17 620.859 L684.17 620.859  Z" fill="#ff8c00" fill-rule="evenodd" fill-opacity="1"/>
<polyline clip-path="url(#clip992)" style="stroke:#000000; stroke-linecap:round; stroke-linejoin:round; stroke-width:4; stroke-opacity:1; fill:none" points="684.17,620.859 684.17,1391.68 720.478,1391.68 720.478,620.859 684.17,620.859 "/>
<path clip-path="url(#clip992)" d="M720.478 894.742 L720.478 1391.68 L756.785 1391.68 L756.785 894.742 L720.478 894.742 L720.478 894.742  Z" fill="#ff8c00" fill-rule="evenodd" fill-opacity="1"/>
<polyline clip-path="url(#clip992)" style="stroke:#000000; stroke-linecap:round; stroke-linejoin:round; stroke-width:4; stroke-opacity:1; fill:none" points="720.478,894.742 720.478,1391.68 756.785,1391.68 756.785,894.742 720.478,894.742 "/>
<path clip-path="url(#clip992)" d="M756.785 499.447 L756.785 1391.68 L793.092 1391.68 L793.092 499.447 L756.785 499.447 L756.785 499.447  Z" fill="#ff8c00" fill-rule="evenodd" fill-opacity="1"/>
<polyline clip-path="url(#clip992)" style="stroke:#000000; stroke-linecap:round; stroke-linejoin:round; stroke-width:4; stroke-opacity:1; fill:none" points="756.785,499.447 756.785,1391.68 793.092,1391.68 793.092,499.447 756.785,499.447 "/>
<path clip-path="url(#clip992)" d="M793.092 762.036 L793.092 1391.68 L829.399 1391.68 L829.399 762.036 L793.092 762.036 L793.092 762.036  Z" fill="#ff8c00" fill-rule="evenodd" fill-opacity="1"/>
<polyline clip-path="url(#clip992)" style="stroke:#000000; stroke-linecap:round; stroke-linejoin:round; stroke-width:4; stroke-opacity:1; fill:none" points="793.092,762.036 793.092,1391.68 829.399,1391.68 829.399,762.036 793.092,762.036 "/>
<path clip-path="url(#clip992)" d="M829.399 533.329 L829.399 1391.68 L865.706 1391.68 L865.706 533.329 L829.399 533.329 L829.399 533.329  Z" fill="#ff8c00" fill-rule="evenodd" fill-opacity="1"/>
<polyline clip-path="url(#clip992)" style="stroke:#000000; stroke-linecap:round; stroke-linejoin:round; stroke-width:4; stroke-opacity:1; fill:none" points="829.399,533.329 829.399,1391.68 865.706,1391.68 865.706,533.329 829.399,533.329 "/>
<path clip-path="url(#clip992)" d="M865.706 601.094 L865.706 1391.68 L902.013 1391.68 L902.013 601.094 L865.706 601.094 L865.706 601.094  Z" fill="#ff8c00" fill-rule="evenodd" fill-opacity="1"/>
<polyline clip-path="url(#clip992)" style="stroke:#000000; stroke-linecap:round; stroke-linejoin:round; stroke-width:4; stroke-opacity:1; fill:none" points="865.706,601.094 865.706,1391.68 902.013,1391.68 902.013,601.094 865.706,601.094 "/>
<path clip-path="url(#clip992)" d="M902.013 623.682 L902.013 1391.68 L938.321 1391.68 L938.321 623.682 L902.013 623.682 L902.013 623.682  Z" fill="#ff8c00" fill-rule="evenodd" fill-opacity="1"/>
<polyline clip-path="url(#clip992)" style="stroke:#000000; stroke-linecap:round; stroke-linejoin:round; stroke-width:4; stroke-opacity:1; fill:none" points="902.013,623.682 902.013,1391.68 938.321,1391.68 938.321,623.682 902.013,623.682 "/>
<path clip-path="url(#clip992)" d="M938.321 832.624 L938.321 1391.68 L974.628 1391.68 L974.628 832.624 L938.321 832.624 L938.321 832.624  Z" fill="#ff8c00" fill-rule="evenodd" fill-opacity="1"/>
<polyline clip-path="url(#clip992)" style="stroke:#000000; stroke-linecap:round; stroke-linejoin:round; stroke-width:4; stroke-opacity:1; fill:none" points="938.321,832.624 938.321,1391.68 974.628,1391.68 974.628,832.624 938.321,832.624 "/>
<path clip-path="url(#clip992)" d="M974.628 948.389 L974.628 1391.68 L1010.93 1391.68 L1010.93 948.389 L974.628 948.389 L974.628 948.389  Z" fill="#ff8c00" fill-rule="evenodd" fill-opacity="1"/>
<polyline clip-path="url(#clip992)" style="stroke:#000000; stroke-linecap:round; stroke-linejoin:round; stroke-width:4; stroke-opacity:1; fill:none" points="974.628,948.389 974.628,1391.68 1010.93,1391.68 1010.93,948.389 974.628,948.389 "/>
<path clip-path="url(#clip992)" d="M1010.93 660.388 L1010.93 1391.68 L1047.24 1391.68 L1047.24 660.388 L1010.93 660.388 L1010.93 660.388  Z" fill="#ff8c00" fill-rule="evenodd" fill-opacity="1"/>
<polyline clip-path="url(#clip992)" style="stroke:#000000; stroke-linecap:round; stroke-linejoin:round; stroke-width:4; stroke-opacity:1; fill:none" points="1010.93,660.388 1010.93,1391.68 1047.24,1391.68 1047.24,660.388 1010.93,660.388 "/>
<path clip-path="url(#clip992)" d="M1047.24 906.036 L1047.24 1391.68 L1083.55 1391.68 L1083.55 906.036 L1047.24 906.036 L1047.24 906.036  Z" fill="#ff8c00" fill-rule="evenodd" fill-opacity="1"/>
<polyline clip-path="url(#clip992)" style="stroke:#000000; stroke-linecap:round; stroke-linejoin:round; stroke-width:4; stroke-opacity:1; fill:none" points="1047.24,906.036 1047.24,1391.68 1083.55,1391.68 1083.55,906.036 1047.24,906.036 "/>
<path clip-path="url(#clip992)" d="M1083.55 846.742 L1083.55 1391.68 L1119.86 1391.68 L1119.86 846.742 L1083.55 846.742 L1083.55 846.742  Z" fill="#ff8c00" fill-rule="evenodd" fill-opacity="1"/>
<polyline clip-path="url(#clip992)" style="stroke:#000000; stroke-linecap:round; stroke-linejoin:round; stroke-width:4; stroke-opacity:1; fill:none" points="1083.55,846.742 1083.55,1391.68 1119.86,1391.68 1119.86,846.742 1083.55,846.742 "/>
<path clip-path="url(#clip992)" d="M1119.86 922.977 L1119.86 1391.68 L1156.16 1391.68 L1156.16 922.977 L1119.86 922.977 L1119.86 922.977  Z" fill="#ff8c00" fill-rule="evenodd" fill-opacity="1"/>
<polyline clip-path="url(#clip992)" style="stroke:#000000; stroke-linecap:round; stroke-linejoin:round; stroke-width:4; stroke-opacity:1; fill:none" points="1119.86,922.977 1119.86,1391.68 1156.16,1391.68 1156.16,922.977 1119.86,922.977 "/>
<path clip-path="url(#clip992)" d="M1156.16 1092.39 L1156.16 1391.68 L1192.47 1391.68 L1192.47 1092.39 L1156.16 1092.39 L1156.16 1092.39  Z" fill="#ff8c00" fill-rule="evenodd" fill-opacity="1"/>
<polyline clip-path="url(#clip992)" style="stroke:#000000; stroke-linecap:round; stroke-linejoin:round; stroke-width:4; stroke-opacity:1; fill:none" points="1156.16,1092.39 1156.16,1391.68 1192.47,1391.68 1192.47,1092.39 1156.16,1092.39 "/>
<path clip-path="url(#clip992)" d="M1192.47 1081.09 L1192.47 1391.68 L1228.78 1391.68 L1228.78 1081.09 L1192.47 1081.09 L1192.47 1081.09  Z" fill="#ff8c00" fill-rule="evenodd" fill-opacity="1"/>
<polyline clip-path="url(#clip992)" style="stroke:#000000; stroke-linecap:round; stroke-linejoin:round; stroke-width:4; stroke-opacity:1; fill:none" points="1192.47,1081.09 1192.47,1391.68 1228.78,1391.68 1228.78,1081.09 1192.47,1081.09 "/>
<path clip-path="url(#clip992)" d="M1228.78 1151.68 L1228.78 1391.68 L1265.08 1391.68 L1265.08 1151.68 L1228.78 1151.68 L1228.78 1151.68  Z" fill="#ff8c00" fill-rule="evenodd" fill-opacity="1"/>
<polyline clip-path="url(#clip992)" style="stroke:#000000; stroke-linecap:round; stroke-linejoin:round; stroke-width:4; stroke-opacity:1; fill:none" points="1228.78,1151.68 1228.78,1391.68 1265.08,1391.68 1265.08,1151.68 1228.78,1151.68 "/>
<path clip-path="url(#clip992)" d="M1265.08 1047.21 L1265.08 1391.68 L1301.39 1391.68 L1301.39 1047.21 L1265.08 1047.21 L1265.08 1047.21  Z" fill="#ff8c00" fill-rule="evenodd" fill-opacity="1"/>
<polyline clip-path="url(#clip992)" style="stroke:#000000; stroke-linecap:round; stroke-linejoin:round; stroke-width:4; stroke-opacity:1; fill:none" points="1265.08,1047.21 1265.08,1391.68 1301.39,1391.68 1301.39,1047.21 1265.08,1047.21 "/>
<path clip-path="url(#clip992)" d="M1301.39 1143.21 L1301.39 1391.68 L1337.7 1391.68 L1337.7 1143.21 L1301.39 1143.21 L1301.39 1143.21  Z" fill="#ff8c00" fill-rule="evenodd" fill-opacity="1"/>
<polyline clip-path="url(#clip992)" style="stroke:#000000; stroke-linecap:round; stroke-linejoin:round; stroke-width:4; stroke-opacity:1; fill:none" points="1301.39,1143.21 1301.39,1391.68 1337.7,1391.68 1337.7,1143.21 1301.39,1143.21 "/>
<path clip-path="url(#clip992)" d="M1337.7 920.153 L1337.7 1391.68 L1374.01 1391.68 L1374.01 920.153 L1337.7 920.153 L1337.7 920.153  Z" fill="#ff8c00" fill-rule="evenodd" fill-opacity="1"/>
<polyline clip-path="url(#clip992)" style="stroke:#000000; stroke-linecap:round; stroke-linejoin:round; stroke-width:4; stroke-opacity:1; fill:none" points="1337.7,920.153 1337.7,1391.68 1374.01,1391.68 1374.01,920.153 1337.7,920.153 "/>
<path clip-path="url(#clip992)" d="M1374.01 993.565 L1374.01 1391.68 L1410.31 1391.68 L1410.31 993.565 L1374.01 993.565 L1374.01 993.565  Z" fill="#ff8c00" fill-rule="evenodd" fill-opacity="1"/>
<polyline clip-path="url(#clip992)" style="stroke:#000000; stroke-linecap:round; stroke-linejoin:round; stroke-width:4; stroke-opacity:1; fill:none" points="1374.01,993.565 1374.01,1391.68 1410.31,1391.68 1410.31,993.565 1374.01,993.565 "/>
<path clip-path="url(#clip992)" d="M1410.31 1151.68 L1410.31 1391.68 L1446.62 1391.68 L1446.62 1151.68 L1410.31 1151.68 L1410.31 1151.68  Z" fill="#ff8c00" fill-rule="evenodd" fill-opacity="1"/>
<polyline clip-path="url(#clip992)" style="stroke:#000000; stroke-linecap:round; stroke-linejoin:round; stroke-width:4; stroke-opacity:1; fill:none" points="1410.31,1151.68 1410.31,1391.68 1446.62,1391.68 1446.62,1151.68 1410.31,1151.68 "/>
<path clip-path="url(#clip992)" d="M1446.62 1143.21 L1446.62 1391.68 L1482.93 1391.68 L1482.93 1143.21 L1446.62 1143.21 L1446.62 1143.21  Z" fill="#ff8c00" fill-rule="evenodd" fill-opacity="1"/>
<polyline clip-path="url(#clip992)" style="stroke:#000000; stroke-linecap:round; stroke-linejoin:round; stroke-width:4; stroke-opacity:1; fill:none" points="1446.62,1143.21 1446.62,1391.68 1482.93,1391.68 1482.93,1143.21 1446.62,1143.21 "/>
<path clip-path="url(#clip992)" d="M1482.93 1075.45 L1482.93 1391.68 L1519.23 1391.68 L1519.23 1075.45 L1482.93 1075.45 L1482.93 1075.45  Z" fill="#ff8c00" fill-rule="evenodd" fill-opacity="1"/>
<polyline clip-path="url(#clip992)" style="stroke:#000000; stroke-linecap:round; stroke-linejoin:round; stroke-width:4; stroke-opacity:1; fill:none" points="1482.93,1075.45 1482.93,1391.68 1519.23,1391.68 1519.23,1075.45 1482.93,1075.45 "/>
<path clip-path="url(#clip992)" d="M1519.23 1160.15 L1519.23 1391.68 L1555.54 1391.68 L1555.54 1160.15 L1519.23 1160.15 L1519.23 1160.15  Z" fill="#ff8c00" fill-rule="evenodd" fill-opacity="1"/>
<polyline clip-path="url(#clip992)" style="stroke:#000000; stroke-linecap:round; stroke-linejoin:round; stroke-width:4; stroke-opacity:1; fill:none" points="1519.23,1160.15 1519.23,1391.68 1555.54,1391.68 1555.54,1160.15 1519.23,1160.15 "/>
<path clip-path="url(#clip992)" d="M1555.54 1205.33 L1555.54 1391.68 L1591.85 1391.68 L1591.85 1205.33 L1555.54 1205.33 L1555.54 1205.33  Z" fill="#ff8c00" fill-rule="evenodd" fill-opacity="1"/>
<polyline clip-path="url(#clip992)" style="stroke:#000000; stroke-linecap:round; stroke-linejoin:round; stroke-width:4; stroke-opacity:1; fill:none" points="1555.54,1205.33 1555.54,1391.68 1591.85,1391.68 1591.85,1205.33 1555.54,1205.33 "/>
<path clip-path="url(#clip992)" d="M1591.85 1239.21 L1591.85 1391.68 L1628.16 1391.68 L1628.16 1239.21 L1591.85 1239.21 L1591.85 1239.21  Z" fill="#ff8c00" fill-rule="evenodd" fill-opacity="1"/>
<polyline clip-path="url(#clip992)" style="stroke:#000000; stroke-linecap:round; stroke-linejoin:round; stroke-width:4; stroke-opacity:1; fill:none" points="1591.85,1239.21 1591.85,1391.68 1628.16,1391.68 1628.16,1239.21 1591.85,1239.21 "/>
<path clip-path="url(#clip992)" d="M1628.16 1267.45 L1628.16 1391.68 L1664.46 1391.68 L1664.46 1267.45 L1628.16 1267.45 L1628.16 1267.45  Z" fill="#ff8c00" fill-rule="evenodd" fill-opacity="1"/>
<polyline clip-path="url(#clip992)" style="stroke:#000000; stroke-linecap:round; stroke-linejoin:round; stroke-width:4; stroke-opacity:1; fill:none" points="1628.16,1267.45 1628.16,1391.68 1664.46,1391.68 1664.46,1267.45 1628.16,1267.45 "/>
<path clip-path="url(#clip992)" d="M1664.46 1208.15 L1664.46 1391.68 L1700.77 1391.68 L1700.77 1208.15 L1664.46 1208.15 L1664.46 1208.15  Z" fill="#ff8c00" fill-rule="evenodd" fill-opacity="1"/>
<polyline clip-path="url(#clip992)" style="stroke:#000000; stroke-linecap:round; stroke-linejoin:round; stroke-width:4; stroke-opacity:1; fill:none" points="1664.46,1208.15 1664.46,1391.68 1700.77,1391.68 1700.77,1208.15 1664.46,1208.15 "/>
<path clip-path="url(#clip992)" d="M1700.77 1227.92 L1700.77 1391.68 L1737.08 1391.68 L1737.08 1227.92 L1700.77 1227.92 L1700.77 1227.92  Z" fill="#ff8c00" fill-rule="evenodd" fill-opacity="1"/>
<polyline clip-path="url(#clip992)" style="stroke:#000000; stroke-linecap:round; stroke-linejoin:round; stroke-width:4; stroke-opacity:1; fill:none" points="1700.77,1227.92 1700.77,1391.68 1737.08,1391.68 1737.08,1227.92 1700.77,1227.92 "/>
<path clip-path="url(#clip992)" d="M1737.08 1225.1 L1737.08 1391.68 L1773.38 1391.68 L1773.38 1225.1 L1737.08 1225.1 L1737.08 1225.1  Z" fill="#ff8c00" fill-rule="evenodd" fill-opacity="1"/>
<polyline clip-path="url(#clip992)" style="stroke:#000000; stroke-linecap:round; stroke-linejoin:round; stroke-width:4; stroke-opacity:1; fill:none" points="1737.08,1225.1 1737.08,1391.68 1773.38,1391.68 1773.38,1225.1 1737.08,1225.1 "/>
<path clip-path="url(#clip992)" d="M1773.38 1275.92 L1773.38 1391.68 L1809.69 1391.68 L1809.69 1275.92 L1773.38 1275.92 L1773.38 1275.92  Z" fill="#ff8c00" fill-rule="evenodd" fill-opacity="1"/>
<polyline clip-path="url(#clip992)" style="stroke:#000000; stroke-linecap:round; stroke-linejoin:round; stroke-width:4; stroke-opacity:1; fill:none" points="1773.38,1275.92 1773.38,1391.68 1809.69,1391.68 1809.69,1275.92 1773.38,1275.92 "/>
<path clip-path="url(#clip992)" d="M1809.69 1278.74 L1809.69 1391.68 L1846 1391.68 L1846 1278.74 L1809.69 1278.74 L1809.69 1278.74  Z" fill="#ff8c00" fill-rule="evenodd" fill-opacity="1"/>
<polyline clip-path="url(#clip992)" style="stroke:#000000; stroke-linecap:round; stroke-linejoin:round; stroke-width:4; stroke-opacity:1; fill:none" points="1809.69,1278.74 1809.69,1391.68 1846,1391.68 1846,1278.74 1809.69,1278.74 "/>
<path clip-path="url(#clip992)" d="M1846 1258.98 L1846 1391.68 L1882.31 1391.68 L1882.31 1258.98 L1846 1258.98 L1846 1258.98  Z" fill="#ff8c00" fill-rule="evenodd" fill-opacity="1"/>
<polyline clip-path="url(#clip992)" style="stroke:#000000; stroke-linecap:round; stroke-linejoin:round; stroke-width:4; stroke-opacity:1; fill:none" points="1846,1258.98 1846,1391.68 1882.31,1391.68 1882.31,1258.98 1846,1258.98 "/>
<path clip-path="url(#clip992)" d="M1882.31 1352.15 L1882.31 1391.68 L1918.61 1391.68 L1918.61 1352.15 L1882.31 1352.15 L1882.31 1352.15  Z" fill="#ff8c00" fill-rule="evenodd" fill-opacity="1"/>
<polyline clip-path="url(#clip992)" style="stroke:#000000; stroke-linecap:round; stroke-linejoin:round; stroke-width:4; stroke-opacity:1; fill:none" points="1882.31,1352.15 1882.31,1391.68 1918.61,1391.68 1918.61,1352.15 1882.31,1352.15 "/>
<path clip-path="url(#clip992)" d="M1918.61 1292.86 L1918.61 1391.68 L1954.92 1391.68 L1954.92 1292.86 L1918.61 1292.86 L1918.61 1292.86  Z" fill="#ff8c00" fill-rule="evenodd" fill-opacity="1"/>
<polyline clip-path="url(#clip992)" style="stroke:#000000; stroke-linecap:round; stroke-linejoin:round; stroke-width:4; stroke-opacity:1; fill:none" points="1918.61,1292.86 1918.61,1391.68 1954.92,1391.68 1954.92,1292.86 1918.61,1292.86 "/>
<path clip-path="url(#clip992)" d="M1954.92 1346.51 L1954.92 1391.68 L1991.23 1391.68 L1991.23 1346.51 L1954.92 1346.51 L1954.92 1346.51  Z" fill="#ff8c00" fill-rule="evenodd" fill-opacity="1"/>
<polyline clip-path="url(#clip992)" style="stroke:#000000; stroke-linecap:round; stroke-linejoin:round; stroke-width:4; stroke-opacity:1; fill:none" points="1954.92,1346.51 1954.92,1391.68 1991.23,1391.68 1991.23,1346.51 1954.92,1346.51 "/>
<path clip-path="url(#clip992)" d="M1991.23 1371.92 L1991.23 1391.68 L2027.54 1391.68 L2027.54 1371.92 L1991.23 1371.92 L1991.23 1371.92  Z" fill="#ff8c00" fill-rule="evenodd" fill-opacity="1"/>
<polyline clip-path="url(#clip992)" style="stroke:#000000; stroke-linecap:round; stroke-linejoin:round; stroke-width:4; stroke-opacity:1; fill:none" points="1991.23,1371.92 1991.23,1391.68 2027.54,1391.68 2027.54,1371.92 1991.23,1371.92 "/>
<path clip-path="url(#clip992)" d="M2027.54 1312.62 L2027.54 1391.68 L2063.84 1391.68 L2063.84 1312.62 L2027.54 1312.62 L2027.54 1312.62  Z" fill="#ff8c00" fill-rule="evenodd" fill-opacity="1"/>
<polyline clip-path="url(#clip992)" style="stroke:#000000; stroke-linecap:round; stroke-linejoin:round; stroke-width:4; stroke-opacity:1; fill:none" points="2027.54,1312.62 2027.54,1391.68 2063.84,1391.68 2063.84,1312.62 2027.54,1312.62 "/>
<path clip-path="url(#clip992)" d="M2063.84 1287.21 L2063.84 1391.68 L2100.15 1391.68 L2100.15 1287.21 L2063.84 1287.21 L2063.84 1287.21  Z" fill="#ff8c00" fill-rule="evenodd" fill-opacity="1"/>
<polyline clip-path="url(#clip992)" style="stroke:#000000; stroke-linecap:round; stroke-linejoin:round; stroke-width:4; stroke-opacity:1; fill:none" points="2063.84,1287.21 2063.84,1391.68 2100.15,1391.68 2100.15,1287.21 2063.84,1287.21 "/>
<path clip-path="url(#clip992)" d="M2100.15 1242.04 L2100.15 1391.68 L2136.46 1391.68 L2136.46 1242.04 L2100.15 1242.04 L2100.15 1242.04  Z" fill="#ff8c00" fill-rule="evenodd" fill-opacity="1"/>
<polyline clip-path="url(#clip992)" style="stroke:#000000; stroke-linecap:round; stroke-linejoin:round; stroke-width:4; stroke-opacity:1; fill:none" points="2100.15,1242.04 2100.15,1391.68 2136.46,1391.68 2136.46,1242.04 2100.15,1242.04 "/>
<path clip-path="url(#clip992)" d="M2136.46 1323.92 L2136.46 1391.68 L2172.76 1391.68 L2172.76 1323.92 L2136.46 1323.92 L2136.46 1323.92  Z" fill="#ff8c00" fill-rule="evenodd" fill-opacity="1"/>
<polyline clip-path="url(#clip992)" style="stroke:#000000; stroke-linecap:round; stroke-linejoin:round; stroke-width:4; stroke-opacity:1; fill:none" points="2136.46,1323.92 2136.46,1391.68 2172.76,1391.68 2172.76,1323.92 2136.46,1323.92 "/>
<path clip-path="url(#clip992)" d="M2172.76 1354.98 L2172.76 1391.68 L2209.07 1391.68 L2209.07 1354.98 L2172.76 1354.98 L2172.76 1354.98  Z" fill="#ff8c00" fill-rule="evenodd" fill-opacity="1"/>
<polyline clip-path="url(#clip992)" style="stroke:#000000; stroke-linecap:round; stroke-linejoin:round; stroke-width:4; stroke-opacity:1; fill:none" points="2172.76,1354.98 2172.76,1391.68 2209.07,1391.68 2209.07,1354.98 2172.76,1354.98 "/>
<circle clip-path="url(#clip992)" style="fill:#ff8c00; stroke:none; fill-opacity:0" cx="411.867" cy="1199.68" r="2"/>
<circle clip-path="url(#clip992)" style="fill:#ff8c00; stroke:none; fill-opacity:0" cx="448.174" cy="815.683" r="2"/>
<circle clip-path="url(#clip992)" style="fill:#ff8c00; stroke:none; fill-opacity:0" cx="484.481" cy="626.506" r="2"/>
<circle clip-path="url(#clip992)" style="fill:#ff8c00; stroke:none; fill-opacity:0" cx="520.788" cy="519.212" r="2"/>
<circle clip-path="url(#clip992)" style="fill:#ff8c00; stroke:none; fill-opacity:0" cx="557.095" cy="78.7402" r="2"/>
<circle clip-path="url(#clip992)" style="fill:#ff8c00; stroke:none; fill-opacity:0" cx="593.403" cy="493.8" r="2"/>
<circle clip-path="url(#clip992)" style="fill:#ff8c00; stroke:none; fill-opacity:0" cx="629.71" cy="242.505" r="2"/>
<circle clip-path="url(#clip992)" style="fill:#ff8c00; stroke:none; fill-opacity:0" cx="666.017" cy="595.447" r="2"/>
<circle clip-path="url(#clip992)" style="fill:#ff8c00; stroke:none; fill-opacity:0" cx="702.324" cy="620.859" r="2"/>
<circle clip-path="url(#clip992)" style="fill:#ff8c00; stroke:none; fill-opacity:0" cx="738.631" cy="894.742" r="2"/>
<circle clip-path="url(#clip992)" style="fill:#ff8c00; stroke:none; fill-opacity:0" cx="774.938" cy="499.447" r="2"/>
<circle clip-path="url(#clip992)" style="fill:#ff8c00; stroke:none; fill-opacity:0" cx="811.246" cy="762.036" r="2"/>
<circle clip-path="url(#clip992)" style="fill:#ff8c00; stroke:none; fill-opacity:0" cx="847.553" cy="533.329" r="2"/>
<circle clip-path="url(#clip992)" style="fill:#ff8c00; stroke:none; fill-opacity:0" cx="883.86" cy="601.094" r="2"/>
<circle clip-path="url(#clip992)" style="fill:#ff8c00; stroke:none; fill-opacity:0" cx="920.167" cy="623.682" r="2"/>
<circle clip-path="url(#clip992)" style="fill:#ff8c00; stroke:none; fill-opacity:0" cx="956.474" cy="832.624" r="2"/>
<circle clip-path="url(#clip992)" style="fill:#ff8c00; stroke:none; fill-opacity:0" cx="992.781" cy="948.389" r="2"/>
<circle clip-path="url(#clip992)" style="fill:#ff8c00; stroke:none; fill-opacity:0" cx="1029.09" cy="660.388" r="2"/>
<circle clip-path="url(#clip992)" style="fill:#ff8c00; stroke:none; fill-opacity:0" cx="1065.4" cy="906.036" r="2"/>
<circle clip-path="url(#clip992)" style="fill:#ff8c00; stroke:none; fill-opacity:0" cx="1101.7" cy="846.742" r="2"/>
<circle clip-path="url(#clip992)" style="fill:#ff8c00; stroke:none; fill-opacity:0" cx="1138.01" cy="922.977" r="2"/>
<circle clip-path="url(#clip992)" style="fill:#ff8c00; stroke:none; fill-opacity:0" cx="1174.32" cy="1092.39" r="2"/>
<circle clip-path="url(#clip992)" style="fill:#ff8c00; stroke:none; fill-opacity:0" cx="1210.62" cy="1081.09" r="2"/>
<circle clip-path="url(#clip992)" style="fill:#ff8c00; stroke:none; fill-opacity:0" cx="1246.93" cy="1151.68" r="2"/>
<circle clip-path="url(#clip992)" style="fill:#ff8c00; stroke:none; fill-opacity:0" cx="1283.24" cy="1047.21" r="2"/>
<circle clip-path="url(#clip992)" style="fill:#ff8c00; stroke:none; fill-opacity:0" cx="1319.55" cy="1143.21" r="2"/>
<circle clip-path="url(#clip992)" style="fill:#ff8c00; stroke:none; fill-opacity:0" cx="1355.85" cy="920.153" r="2"/>
<circle clip-path="url(#clip992)" style="fill:#ff8c00; stroke:none; fill-opacity:0" cx="1392.16" cy="993.565" r="2"/>
<circle clip-path="url(#clip992)" style="fill:#ff8c00; stroke:none; fill-opacity:0" cx="1428.47" cy="1151.68" r="2"/>
<circle clip-path="url(#clip992)" style="fill:#ff8c00; stroke:none; fill-opacity:0" cx="1464.77" cy="1143.21" r="2"/>
<circle clip-path="url(#clip992)" style="fill:#ff8c00; stroke:none; fill-opacity:0" cx="1501.08" cy="1075.45" r="2"/>
<circle clip-path="url(#clip992)" style="fill:#ff8c00; stroke:none; fill-opacity:0" cx="1537.39" cy="1160.15" r="2"/>
<circle clip-path="url(#clip992)" style="fill:#ff8c00; stroke:none; fill-opacity:0" cx="1573.7" cy="1205.33" r="2"/>
<circle clip-path="url(#clip992)" style="fill:#ff8c00; stroke:none; fill-opacity:0" cx="1610" cy="1239.21" r="2"/>
<circle clip-path="url(#clip992)" style="fill:#ff8c00; stroke:none; fill-opacity:0" cx="1646.31" cy="1267.45" r="2"/>
<circle clip-path="url(#clip992)" style="fill:#ff8c00; stroke:none; fill-opacity:0" cx="1682.62" cy="1208.15" r="2"/>
<circle clip-path="url(#clip992)" style="fill:#ff8c00; stroke:none; fill-opacity:0" cx="1718.92" cy="1227.92" r="2"/>
<circle clip-path="url(#clip992)" style="fill:#ff8c00; stroke:none; fill-opacity:0" cx="1755.23" cy="1225.1" r="2"/>
<circle clip-path="url(#clip992)" style="fill:#ff8c00; stroke:none; fill-opacity:0" cx="1791.54" cy="1275.92" r="2"/>
<circle clip-path="url(#clip992)" style="fill:#ff8c00; stroke:none; fill-opacity:0" cx="1827.85" cy="1278.74" r="2"/>
<circle clip-path="url(#clip992)" style="fill:#ff8c00; stroke:none; fill-opacity:0" cx="1864.15" cy="1258.98" r="2"/>
<circle clip-path="url(#clip992)" style="fill:#ff8c00; stroke:none; fill-opacity:0" cx="1900.46" cy="1352.15" r="2"/>
<circle clip-path="url(#clip992)" style="fill:#ff8c00; stroke:none; fill-opacity:0" cx="1936.77" cy="1292.86" r="2"/>
<circle clip-path="url(#clip992)" style="fill:#ff8c00; stroke:none; fill-opacity:0" cx="1973.07" cy="1346.51" r="2"/>
<circle clip-path="url(#clip992)" style="fill:#ff8c00; stroke:none; fill-opacity:0" cx="2009.38" cy="1371.92" r="2"/>
<circle clip-path="url(#clip992)" style="fill:#ff8c00; stroke:none; fill-opacity:0" cx="2045.69" cy="1312.62" r="2"/>
<circle clip-path="url(#clip992)" style="fill:#ff8c00; stroke:none; fill-opacity:0" cx="2082" cy="1287.21" r="2"/>
<circle clip-path="url(#clip992)" style="fill:#ff8c00; stroke:none; fill-opacity:0" cx="2118.3" cy="1242.04" r="2"/>
<circle clip-path="url(#clip992)" style="fill:#ff8c00; stroke:none; fill-opacity:0" cx="2154.61" cy="1323.92" r="2"/>
<circle clip-path="url(#clip992)" style="fill:#ff8c00; stroke:none; fill-opacity:0" cx="2190.92" cy="1354.98" r="2"/>
</svg>
