<?xml version="1.0" encoding="utf-8"?>
<svg xmlns="http://www.w3.org/2000/svg" xmlns:xlink="http://www.w3.org/1999/xlink" width="600" height="400" viewBox="0 0 2400 1600">
<defs>
  <clipPath id="clip870">
    <rect x="0" y="0" width="2400" height="1600"/>
  </clipPath>
</defs>
<path clip-path="url(#clip870)" d="M0 1600 L2400 1600 L2400 8.88178e-14 L0 8.88178e-14  Z" fill="#ffffff" fill-rule="evenodd" fill-opacity="1"/>
<defs>
  <clipPath id="clip871">
    <rect x="480" y="0" width="1681" height="1600"/>
  </clipPath>
</defs>
<path clip-path="url(#clip870)" d="M281.524 1391.68 L2321.26 1391.68 L2321.26 78.7402 L281.524 78.7402  Z" fill="#ffffff" fill-rule="evenodd" fill-opacity="1"/>
<defs>
  <clipPath id="clip872">
    <rect x="281" y="78" width="2041" height="1314"/>
  </clipPath>
</defs>
<polyline clip-path="url(#clip872)" style="stroke:#000000; stroke-linecap:round; stroke-linejoin:round; stroke-width:2; stroke-opacity:0.1; fill:none" points="393.713,1391.68 393.713,78.7402 "/>
<polyline clip-path="url(#clip872)" style="stroke:#000000; stroke-linecap:round; stroke-linejoin:round; stroke-width:2; stroke-opacity:0.1; fill:none" points="847.553,1391.68 847.553,78.7402 "/>
<polyline clip-path="url(#clip872)" style="stroke:#000000; stroke-linecap:round; stroke-linejoin:round; stroke-width:2; stroke-opacity:0.1; fill:none" points="1301.39,1391.68 1301.39,78.7402 "/>
<polyline clip-path="url(#clip872)" style="stroke:#000000; stroke-linecap:round; stroke-linejoin:round; stroke-width:2; stroke-opacity:0.1; fill:none" points="1755.23,1391.68 1755.23,78.7402 "/>
<polyline clip-path="url(#clip872)" style="stroke:#000000; stroke-linecap:round; stroke-linejoin:round; stroke-width:2; stroke-opacity:0.1; fill:none" points="2209.07,1391.68 2209.07,78.7402 "/>
<polyline clip-path="url(#clip870)" style="stroke:#000000; stroke-linecap:round; stroke-linejoin:round; stroke-width:4; stroke-opacity:1; fill:none" points="281.524,1391.68 2321.26,1391.68 "/>
<polyline clip-path="url(#clip870)" style="stroke:#000000; stroke-linecap:round; stroke-linejoin:round; stroke-width:4; stroke-opacity:1; fill:none" points="393.713,1391.68 393.713,1372.79 "/>
<polyline clip-path="url(#clip870)" style="stroke:#000000; stroke-linecap:round; stroke-linejoin:round; stroke-width:4; stroke-opacity:1; fill:none" points="847.553,1391.68 847.553,1372.79 "/>
<polyline clip-path="url(#clip870)" style="stroke:#000000; stroke-linecap:round; stroke-linejoin:round; stroke-width:4; stroke-opacity:1; fill:none" points="1301.39,1391.68 1301.39,1372.79 "/>
<polyline clip-path="url(#clip870)" style="stroke:#000000; stroke-linecap:round; stroke-linejoin:round; stroke-width:4; stroke-opacity:1; fill:none" points="1755.23,1391.68 1755.23,1372.79 "/>
<polyline clip-path="url(#clip870)" style="stroke:#000000; stroke-linecap:round; stroke-linejoin:round; stroke-width:4; stroke-opacity:1; fill:none" points="2209.07,1391.68 2209.07,1372.79 "/>
<path clip-path="url(#clip870)" d="M356.017 1422.6 Q352.406 1422.6 350.577 1426.17 Q348.771 1429.71 348.771 1436.84 Q348.771 1443.94 350.577 1447.51 Q352.406 1451.05 356.017 1451.05 Q359.651 1451.05 361.457 1447.51 Q363.285 1443.94 363.285 1436.84 Q363.285 1429.71 361.457 1426.17 Q359.651 1422.6 356.017 1422.6 M356.017 1418.9 Q361.827 1418.9 364.882 1423.51 Q367.961 1428.09 367.961 1436.84 Q367.961 1445.57 364.882 1450.17 Q361.827 1454.76 356.017 1454.76 Q350.207 1454.76 347.128 1450.17 Q344.072 1445.57 344.072 1436.84 Q344.072 1428.09 347.128 1423.51 Q350.207 1418.9 356.017 1418.9 Z" fill="#000000" fill-rule="nonzero" fill-opacity="1" /><path clip-path="url(#clip870)" d="M376.179 1448.2 L381.063 1448.2 L381.063 1454.08 L376.179 1454.08 L376.179 1448.2 Z" fill="#000000" fill-rule="nonzero" fill-opacity="1" /><path clip-path="url(#clip870)" d="M401.248 1422.6 Q397.637 1422.6 395.808 1426.17 Q394.003 1429.71 394.003 1436.84 Q394.003 1443.94 395.808 1447.51 Q397.637 1451.05 401.248 1451.05 Q404.882 1451.05 406.688 1447.51 Q408.516 1443.94 408.516 1436.84 Q408.516 1429.71 406.688 1426.17 Q404.882 1422.6 401.248 1422.6 M401.248 1418.9 Q407.058 1418.9 410.114 1423.51 Q413.192 1428.09 413.192 1436.84 Q413.192 1445.57 410.114 1450.17 Q407.058 1454.76 401.248 1454.76 Q395.438 1454.76 392.359 1450.17 Q389.304 1445.57 389.304 1436.84 Q389.304 1428.09 392.359 1423.51 Q395.438 1418.9 401.248 1418.9 Z" fill="#000000" fill-rule="nonzero" fill-opacity="1" /><path clip-path="url(#clip870)" d="M431.41 1422.6 Q427.799 1422.6 425.97 1426.17 Q424.165 1429.71 424.165 1436.84 Q424.165 1443.94 425.97 1447.51 Q427.799 1451.05 431.41 1451.05 Q435.044 1451.05 436.85 1447.51 Q438.678 1443.94 438.678 1436.84 Q438.678 1429.71 436.85 1426.17 Q435.044 1422.6 431.41 1422.6 M431.41 1418.9 Q437.22 1418.9 440.276 1423.51 Q443.354 1428.09 443.354 1436.84 Q443.354 1445.57 440.276 1450.17 Q437.22 1454.76 431.41 1454.76 Q425.6 1454.76 422.521 1450.17 Q419.465 1445.57 419.465 1436.84 Q419.465 1428.09 422.521 1423.51 Q425.6 1418.9 431.41 1418.9 Z" fill="#000000" fill-rule="nonzero" fill-opacity="1" /><path clip-path="url(#clip870)" d="M810.354 1422.6 Q806.743 1422.6 804.914 1426.17 Q803.108 1429.71 803.108 1436.84 Q803.108 1443.94 804.914 1447.51 Q806.743 1451.05 810.354 1451.05 Q813.988 1451.05 815.794 1447.51 Q817.622 1443.94 817.622 1436.84 Q817.622 1429.71 815.794 1426.17 Q813.988 1422.6 810.354 1422.6 M810.354 1418.9 Q816.164 1418.9 819.219 1423.51 Q822.298 1428.09 822.298 1436.84 Q822.298 1445.57 819.219 1450.17 Q816.164 1454.76 810.354 1454.76 Q804.544 1454.76 801.465 1450.17 Q798.409 1445.57 798.409 1436.84 Q798.409 1428.09 801.465 1423.51 Q804.544 1418.9 810.354 1418.9 Z" fill="#000000" fill-rule="nonzero" fill-opacity="1" /><path clip-path="url(#clip870)" d="M830.516 1448.2 L835.4 1448.2 L835.4 1454.08 L830.516 1454.08 L830.516 1448.2 Z" fill="#000000" fill-rule="nonzero" fill-opacity="1" /><path clip-path="url(#clip870)" d="M849.613 1450.15 L865.932 1450.15 L865.932 1454.08 L843.988 1454.08 L843.988 1450.15 Q846.65 1447.39 851.233 1442.76 Q855.84 1438.11 857.02 1436.77 Q859.266 1434.25 860.145 1432.51 Q861.048 1430.75 861.048 1429.06 Q861.048 1426.31 859.104 1424.57 Q857.182 1422.83 854.08 1422.83 Q851.881 1422.83 849.428 1423.6 Q846.997 1424.36 844.219 1425.91 L844.219 1421.19 Q847.043 1420.06 849.497 1419.48 Q851.951 1418.9 853.988 1418.9 Q859.358 1418.9 862.553 1421.58 Q865.747 1424.27 865.747 1428.76 Q865.747 1430.89 864.937 1432.81 Q864.15 1434.71 862.043 1437.3 Q861.465 1437.97 858.363 1441.19 Q855.261 1444.38 849.613 1450.15 Z" fill="#000000" fill-rule="nonzero" fill-opacity="1" /><path clip-path="url(#clip870)" d="M875.793 1419.52 L894.15 1419.52 L894.15 1423.46 L880.076 1423.46 L880.076 1431.93 Q881.094 1431.58 882.113 1431.42 Q883.131 1431.24 884.15 1431.24 Q889.937 1431.24 893.316 1434.41 Q896.696 1437.58 896.696 1443 Q896.696 1448.57 893.224 1451.68 Q889.752 1454.76 883.432 1454.76 Q881.256 1454.76 878.988 1454.38 Q876.742 1454.01 874.335 1453.27 L874.335 1448.57 Q876.418 1449.71 878.64 1450.26 Q880.863 1450.82 883.34 1450.82 Q887.344 1450.82 889.682 1448.71 Q892.02 1446.61 892.02 1443 Q892.02 1439.38 889.682 1437.28 Q887.344 1435.17 883.34 1435.17 Q881.465 1435.17 879.59 1435.59 Q877.738 1436.01 875.793 1436.88 L875.793 1419.52 Z" fill="#000000" fill-rule="nonzero" fill-opacity="1" /><path clip-path="url(#clip870)" d="M1263.7 1422.6 Q1260.08 1422.6 1258.26 1426.17 Q1256.45 1429.71 1256.45 1436.84 Q1256.45 1443.94 1258.26 1447.51 Q1260.08 1451.05 1263.7 1451.05 Q1267.33 1451.05 1269.14 1447.51 Q1270.96 1443.94 1270.96 1436.84 Q1270.96 1429.71 1269.14 1426.17 Q1267.33 1422.6 1263.7 1422.6 M1263.7 1418.9 Q1269.51 1418.9 1272.56 1423.51 Q1275.64 1428.09 1275.64 1436.84 Q1275.64 1445.57 1272.56 1450.17 Q1269.51 1454.76 1263.7 1454.76 Q1257.89 1454.76 1254.81 1450.17 Q1251.75 1445.57 1251.75 1436.84 Q1251.75 1428.09 1254.81 1423.51 Q1257.89 1418.9 1263.7 1418.9 Z" fill="#000000" fill-rule="nonzero" fill-opacity="1" /><path clip-path="url(#clip870)" d="M1283.86 1448.2 L1288.74 1448.2 L1288.74 1454.08 L1283.86 1454.08 L1283.86 1448.2 Z" fill="#000000" fill-rule="nonzero" fill-opacity="1" /><path clip-path="url(#clip870)" d="M1298.97 1419.52 L1317.33 1419.52 L1317.33 1423.46 L1303.26 1423.46 L1303.26 1431.93 Q1304.27 1431.58 1305.29 1431.42 Q1306.31 1431.24 1307.33 1431.24 Q1313.12 1431.24 1316.5 1434.41 Q1319.88 1437.58 1319.88 1443 Q1319.88 1448.57 1316.4 1451.68 Q1312.93 1454.76 1306.61 1454.76 Q1304.44 1454.76 1302.17 1454.38 Q1299.92 1454.01 1297.51 1453.27 L1297.51 1448.57 Q1299.6 1449.71 1301.82 1450.26 Q1304.04 1450.82 1306.52 1450.82 Q1310.52 1450.82 1312.86 1448.71 Q1315.2 1446.61 1315.2 1443 Q1315.2 1439.38 1312.86 1437.28 Q1310.52 1435.17 1306.52 1435.17 Q1304.64 1435.17 1302.77 1435.59 Q1300.92 1436.01 1298.97 1436.88 L1298.97 1419.52 Z" fill="#000000" fill-rule="nonzero" fill-opacity="1" /><path clip-path="url(#clip870)" d="M1339.09 1422.6 Q1335.48 1422.6 1333.65 1426.17 Q1331.84 1429.71 1331.84 1436.84 Q1331.84 1443.94 1333.65 1447.51 Q1335.48 1451.05 1339.09 1451.05 Q1342.72 1451.05 1344.53 1447.51 Q1346.36 1443.94 1346.36 1436.84 Q1346.36 1429.71 1344.53 1426.17 Q1342.72 1422.6 1339.09 1422.6 M1339.09 1418.9 Q1344.9 1418.9 1347.95 1423.51 Q1351.03 1428.09 1351.03 1436.84 Q1351.03 1445.57 1347.95 1450.17 Q1344.9 1454.76 1339.09 1454.76 Q1333.28 1454.76 1330.2 1450.17 Q1327.14 1445.57 1327.14 1436.84 Q1327.14 1428.09 1330.2 1423.51 Q1333.28 1418.9 1339.09 1418.9 Z" fill="#000000" fill-rule="nonzero" fill-opacity="1" /><path clip-path="url(#clip870)" d="M1718.03 1422.6 Q1714.42 1422.6 1712.59 1426.17 Q1710.79 1429.71 1710.79 1436.84 Q1710.79 1443.94 1712.59 1447.51 Q1714.42 1451.05 1718.03 1451.05 Q1721.67 1451.05 1723.47 1447.51 Q1725.3 1443.94 1725.3 1436.84 Q1725.3 1429.71 1723.47 1426.17 Q1721.67 1422.6 1718.03 1422.6 M1718.03 1418.9 Q1723.84 1418.9 1726.9 1423.51 Q1729.98 1428.09 1729.98 1436.84 Q1729.98 1445.57 1726.9 1450.17 Q1723.84 1454.76 1718.03 1454.76 Q1712.22 1454.76 1709.14 1450.17 Q1706.09 1445.57 1706.09 1436.84 Q1706.09 1428.09 1709.14 1423.51 Q1712.22 1418.9 1718.03 1418.9 Z" fill="#000000" fill-rule="nonzero" fill-opacity="1" /><path clip-path="url(#clip870)" d="M1738.19 1448.2 L1743.08 1448.2 L1743.08 1454.08 L1738.19 1454.08 L1738.19 1448.2 Z" fill="#000000" fill-rule="nonzero" fill-opacity="1" /><path clip-path="url(#clip870)" d="M1752.08 1419.52 L1774.31 1419.52 L1774.31 1421.51 L1761.76 1454.08 L1756.87 1454.08 L1768.68 1423.46 L1752.08 1423.46 L1752.08 1419.52 Z" fill="#000000" fill-rule="nonzero" fill-opacity="1" /><path clip-path="url(#clip870)" d="M1783.47 1419.52 L1801.83 1419.52 L1801.83 1423.46 L1787.75 1423.46 L1787.75 1431.93 Q1788.77 1431.58 1789.79 1431.42 Q1790.81 1431.24 1791.83 1431.24 Q1797.62 1431.24 1801 1434.41 Q1804.37 1437.58 1804.37 1443 Q1804.37 1448.57 1800.9 1451.68 Q1797.43 1454.76 1791.11 1454.76 Q1788.93 1454.76 1786.67 1454.38 Q1784.42 1454.01 1782.01 1453.27 L1782.01 1448.57 Q1784.1 1449.71 1786.32 1450.26 Q1788.54 1450.82 1791.02 1450.82 Q1795.02 1450.82 1797.36 1448.71 Q1799.7 1446.61 1799.7 1443 Q1799.7 1439.38 1797.36 1437.28 Q1795.02 1435.17 1791.02 1435.17 Q1789.14 1435.17 1787.27 1435.59 Q1785.42 1436.01 1783.47 1436.88 L1783.47 1419.52 Z" fill="#000000" fill-rule="nonzero" fill-opacity="1" /><path clip-path="url(#clip870)" d="M2161.14 1450.15 L2168.78 1450.15 L2168.78 1423.78 L2160.47 1425.45 L2160.47 1421.19 L2168.74 1419.52 L2173.41 1419.52 L2173.41 1450.15 L2181.05 1450.15 L2181.05 1454.08 L2161.14 1454.08 L2161.14 1450.15 Z" fill="#000000" fill-rule="nonzero" fill-opacity="1" /><path clip-path="url(#clip870)" d="M2190.49 1448.2 L2195.38 1448.2 L2195.38 1454.08 L2190.49 1454.08 L2190.49 1448.2 Z" fill="#000000" fill-rule="nonzero" fill-opacity="1" /><path clip-path="url(#clip870)" d="M2215.56 1422.6 Q2211.95 1422.6 2210.12 1426.17 Q2208.32 1429.71 2208.32 1436.84 Q2208.32 1443.94 2210.12 1447.51 Q2211.95 1451.05 2215.56 1451.05 Q2219.2 1451.05 2221 1447.51 Q2222.83 1443.94 2222.83 1436.84 Q2222.83 1429.71 2221 1426.17 Q2219.2 1422.6 2215.56 1422.6 M2215.56 1418.9 Q2221.37 1418.9 2224.43 1423.51 Q2227.51 1428.09 2227.51 1436.84 Q2227.51 1445.57 2224.43 1450.17 Q2221.37 1454.76 2215.56 1454.76 Q2209.75 1454.76 2206.67 1450.17 Q2203.62 1445.57 2203.62 1436.84 Q2203.62 1428.09 2206.67 1423.51 Q2209.75 1418.9 2215.56 1418.9 Z" fill="#000000" fill-rule="nonzero" fill-opacity="1" /><path clip-path="url(#clip870)" d="M2245.73 1422.6 Q2242.11 1422.6 2240.29 1426.17 Q2238.48 1429.71 2238.48 1436.84 Q2238.48 1443.94 2240.29 1447.51 Q2242.11 1451.05 2245.73 1451.05 Q2249.36 1451.05 2251.17 1447.51 Q2252.99 1443.94 2252.99 1436.84 Q2252.99 1429.71 2251.17 1426.17 Q2249.36 1422.6 2245.73 1422.6 M2245.73 1418.9 Q2251.54 1418.9 2254.59 1423.51 Q2257.67 1428.09 2257.67 1436.84 Q2257.67 1445.57 2254.59 1450.17 Q2251.54 1454.76 2245.73 1454.76 Q2239.92 1454.76 2236.84 1450.17 Q2233.78 1445.57 2233.78 1436.84 Q2233.78 1428.09 2236.84 1423.51 Q2239.92 1418.9 2245.73 1418.9 Z" fill="#000000" fill-rule="nonzero" fill-opacity="1" /><path clip-path="url(#clip870)" d="M1288.31 1507.27 Q1290.25 1504.02 1295.06 1501.15 Q1296.94 1500.04 1302.73 1500.04 Q1309.22 1500.04 1313.26 1505.2 Q1317.34 1510.35 1317.34 1518.76 Q1317.34 1527.16 1313.26 1532.31 Q1309.22 1537.47 1302.73 1537.47 Q1298.81 1537.47 1295.98 1535.94 Q1293.18 1534.38 1291.33 1531.2 L1291.33 1550.11 L1285.45 1550.11 L1285.45 1519.07 Q1285.45 1511.72 1288.31 1507.27 M1311.26 1518.76 Q1311.26 1512.29 1308.59 1508.63 Q1305.94 1504.94 1301.3 1504.94 Q1296.65 1504.94 1293.98 1508.63 Q1291.33 1512.29 1291.33 1518.76 Q1291.33 1525.22 1293.98 1528.91 Q1296.65 1532.57 1301.3 1532.57 Q1305.94 1532.57 1308.59 1528.91 Q1311.26 1525.22 1311.26 1518.76 Z" fill="#000000" fill-rule="nonzero" fill-opacity="1" /><polyline clip-path="url(#clip872)" style="stroke:#000000; stroke-linecap:round; stroke-linejoin:round; stroke-width:2; stroke-opacity:0.1; fill:none" points="281.524,1391.68 2321.26,1391.68 "/>
<polyline clip-path="url(#clip872)" style="stroke:#000000; stroke-linecap:round; stroke-linejoin:round; stroke-width:2; stroke-opacity:0.1; fill:none" points="281.524,1129.1 2321.26,1129.1 "/>
<polyline clip-path="url(#clip872)" style="stroke:#000000; stroke-linecap:round; stroke-linejoin:round; stroke-width:2; stroke-opacity:0.1; fill:none" points="281.524,866.506 2321.26,866.506 "/>
<polyline clip-path="url(#clip872)" style="stroke:#000000; stroke-linecap:round; stroke-linejoin:round; stroke-width:2; stroke-opacity:0.1; fill:none" points="281.524,603.918 2321.26,603.918 "/>
<polyline clip-path="url(#clip872)" style="stroke:#000000; stroke-linecap:round; stroke-linejoin:round; stroke-width:2; stroke-opacity:0.1; fill:none" points="281.524,341.329 2321.26,341.329 "/>
<polyline clip-path="url(#clip870)" style="stroke:#000000; stroke-linecap:round; stroke-linejoin:round; stroke-width:4; stroke-opacity:1; fill:none" points="281.524,1391.68 281.524,78.7402 "/>
<polyline clip-path="url(#clip870)" style="stroke:#000000; stroke-linecap:round; stroke-linejoin:round; stroke-width:4; stroke-opacity:1; fill:none" points="281.524,1391.68 300.422,1391.68 "/>
<polyline clip-path="url(#clip870)" style="stroke:#000000; stroke-linecap:round; stroke-linejoin:round; stroke-width:4; stroke-opacity:1; fill:none" points="281.524,1129.1 300.422,1129.1 "/>
<polyline clip-path="url(#clip870)" style="stroke:#000000; stroke-linecap:round; stroke-linejoin:round; stroke-width:4; stroke-opacity:1; fill:none" points="281.524,866.506 300.422,866.506 "/>
<polyline clip-path="url(#clip870)" style="stroke:#000000; stroke-linecap:round; stroke-linejoin:round; stroke-width:4; stroke-opacity:1; fill:none" points="281.524,603.918 300.422,603.918 "/>
<polyline clip-path="url(#clip870)" style="stroke:#000000; stroke-linecap:round; stroke-linejoin:round; stroke-width:4; stroke-opacity:1; fill:none" points="281.524,341.329 300.422,341.329 "/>
<path clip-path="url(#clip870)" d="M158.187 1377.48 Q154.576 1377.48 152.747 1381.05 Q150.941 1384.59 150.941 1391.72 Q150.941 1398.82 152.747 1402.39 Q154.576 1405.93 158.187 1405.93 Q161.821 1405.93 163.626 1402.39 Q165.455 1398.82 165.455 1391.72 Q165.455 1384.59 163.626 1381.05 Q161.821 1377.48 158.187 1377.48 M158.187 1373.78 Q163.997 1373.78 167.052 1378.39 Q170.131 1382.97 170.131 1391.72 Q170.131 1400.45 167.052 1405.05 Q163.997 1409.64 158.187 1409.64 Q152.377 1409.64 149.298 1405.05 Q146.242 1400.45 146.242 1391.72 Q146.242 1382.97 149.298 1378.39 Q152.377 1373.78 158.187 1373.78 Z" fill="#000000" fill-rule="nonzero" fill-opacity="1" /><path clip-path="url(#clip870)" d="M178.349 1403.08 L183.233 1403.08 L183.233 1408.96 L178.349 1408.96 L178.349 1403.08 Z" fill="#000000" fill-rule="nonzero" fill-opacity="1" /><path clip-path="url(#clip870)" d="M203.418 1377.48 Q199.807 1377.48 197.978 1381.05 Q196.173 1384.59 196.173 1391.72 Q196.173 1398.82 197.978 1402.39 Q199.807 1405.93 203.418 1405.93 Q207.052 1405.93 208.858 1402.39 Q210.686 1398.82 210.686 1391.72 Q210.686 1384.59 208.858 1381.05 Q207.052 1377.48 203.418 1377.48 M203.418 1373.78 Q209.228 1373.78 212.284 1378.39 Q215.362 1382.97 215.362 1391.72 Q215.362 1400.45 212.284 1405.05 Q209.228 1409.64 203.418 1409.64 Q197.608 1409.64 194.529 1405.05 Q191.474 1400.45 191.474 1391.72 Q191.474 1382.97 194.529 1378.39 Q197.608 1373.78 203.418 1373.78 Z" fill="#000000" fill-rule="nonzero" fill-opacity="1" /><path clip-path="url(#clip870)" d="M233.58 1377.48 Q229.969 1377.48 228.14 1381.05 Q226.334 1384.59 226.334 1391.72 Q226.334 1398.82 228.14 1402.39 Q229.969 1405.93 233.58 1405.93 Q237.214 1405.93 239.02 1402.39 Q240.848 1398.82 240.848 1391.72 Q240.848 1384.59 239.02 1381.05 Q237.214 1377.48 233.58 1377.48 M233.58 1373.78 Q239.39 1373.78 242.446 1378.39 Q245.524 1382.97 245.524 1391.72 Q245.524 1400.45 242.446 1405.05 Q239.39 1409.64 233.58 1409.64 Q227.77 1409.64 224.691 1405.05 Q221.635 1400.45 221.635 1391.72 Q221.635 1382.97 224.691 1378.39 Q227.77 1373.78 233.58 1373.78 Z" fill="#000000" fill-rule="nonzero" fill-opacity="1" /><path clip-path="url(#clip870)" d="M159.414 1114.89 Q155.802 1114.89 153.974 1118.46 Q152.168 1122 152.168 1129.13 Q152.168 1136.24 153.974 1139.8 Q155.802 1143.34 159.414 1143.34 Q163.048 1143.34 164.853 1139.8 Q166.682 1136.24 166.682 1129.13 Q166.682 1122 164.853 1118.46 Q163.048 1114.89 159.414 1114.89 M159.414 1111.19 Q165.224 1111.19 168.279 1115.8 Q171.358 1120.38 171.358 1129.13 Q171.358 1137.86 168.279 1142.46 Q165.224 1147.05 159.414 1147.05 Q153.603 1147.05 150.525 1142.46 Q147.469 1137.86 147.469 1129.13 Q147.469 1120.38 150.525 1115.8 Q153.603 1111.19 159.414 1111.19 Z" fill="#000000" fill-rule="nonzero" fill-opacity="1" /><path clip-path="url(#clip870)" d="M179.575 1140.5 L184.46 1140.5 L184.46 1146.38 L179.575 1146.38 L179.575 1140.5 Z" fill="#000000" fill-rule="nonzero" fill-opacity="1" /><path clip-path="url(#clip870)" d="M204.645 1114.89 Q201.034 1114.89 199.205 1118.46 Q197.399 1122 197.399 1129.13 Q197.399 1136.24 199.205 1139.8 Q201.034 1143.34 204.645 1143.34 Q208.279 1143.34 210.085 1139.8 Q211.913 1136.24 211.913 1129.13 Q211.913 1122 210.085 1118.46 Q208.279 1114.89 204.645 1114.89 M204.645 1111.19 Q210.455 1111.19 213.51 1115.8 Q216.589 1120.38 216.589 1129.13 Q216.589 1137.86 213.51 1142.46 Q210.455 1147.05 204.645 1147.05 Q198.835 1147.05 195.756 1142.46 Q192.7 1137.86 192.7 1129.13 Q192.7 1120.38 195.756 1115.8 Q198.835 1111.19 204.645 1111.19 Z" fill="#000000" fill-rule="nonzero" fill-opacity="1" /><path clip-path="url(#clip870)" d="M225.617 1142.44 L233.256 1142.44 L233.256 1116.07 L224.946 1117.74 L224.946 1113.48 L233.209 1111.82 L237.885 1111.82 L237.885 1142.44 L245.524 1142.44 L245.524 1146.38 L225.617 1146.38 L225.617 1142.44 Z" fill="#000000" fill-rule="nonzero" fill-opacity="1" /><path clip-path="url(#clip870)" d="M159.784 852.305 Q156.173 852.305 154.344 855.87 Q152.539 859.411 152.539 866.541 Q152.539 873.647 154.344 877.212 Q156.173 880.754 159.784 880.754 Q163.418 880.754 165.224 877.212 Q167.052 873.647 167.052 866.541 Q167.052 859.411 165.224 855.87 Q163.418 852.305 159.784 852.305 M159.784 848.601 Q165.594 848.601 168.65 853.208 Q171.728 857.791 171.728 866.541 Q171.728 875.268 168.65 879.874 Q165.594 884.458 159.784 884.458 Q153.974 884.458 150.895 879.874 Q147.84 875.268 147.84 866.541 Q147.84 857.791 150.895 853.208 Q153.974 848.601 159.784 848.601 Z" fill="#000000" fill-rule="nonzero" fill-opacity="1" /><path clip-path="url(#clip870)" d="M179.946 877.907 L184.83 877.907 L184.83 883.786 L179.946 883.786 L179.946 877.907 Z" fill="#000000" fill-rule="nonzero" fill-opacity="1" /><path clip-path="url(#clip870)" d="M205.015 852.305 Q201.404 852.305 199.575 855.87 Q197.77 859.411 197.77 866.541 Q197.77 873.647 199.575 877.212 Q201.404 880.754 205.015 880.754 Q208.649 880.754 210.455 877.212 Q212.284 873.647 212.284 866.541 Q212.284 859.411 210.455 855.87 Q208.649 852.305 205.015 852.305 M205.015 848.601 Q210.825 848.601 213.881 853.208 Q216.96 857.791 216.96 866.541 Q216.96 875.268 213.881 879.874 Q210.825 884.458 205.015 884.458 Q199.205 884.458 196.126 879.874 Q193.071 875.268 193.071 866.541 Q193.071 857.791 196.126 853.208 Q199.205 848.601 205.015 848.601 Z" fill="#000000" fill-rule="nonzero" fill-opacity="1" /><path clip-path="url(#clip870)" d="M229.205 879.851 L245.524 879.851 L245.524 883.786 L223.58 883.786 L223.58 879.851 Q226.242 877.097 230.825 872.467 Q235.432 867.814 236.612 866.472 Q238.858 863.948 239.737 862.212 Q240.64 860.453 240.64 858.763 Q240.64 856.009 238.696 854.273 Q236.774 852.536 233.672 852.536 Q231.473 852.536 229.02 853.3 Q226.589 854.064 223.811 855.615 L223.811 850.893 Q226.635 849.759 229.089 849.18 Q231.543 848.601 233.58 848.601 Q238.95 848.601 242.145 851.287 Q245.339 853.972 245.339 858.462 Q245.339 860.592 244.529 862.513 Q243.742 864.411 241.635 867.004 Q241.057 867.675 237.955 870.893 Q234.853 874.087 229.205 879.851 Z" fill="#000000" fill-rule="nonzero" fill-opacity="1" /><path clip-path="url(#clip870)" d="M158.835 589.716 Q155.224 589.716 153.395 593.281 Q151.59 596.823 151.59 603.952 Q151.59 611.059 153.395 614.624 Q155.224 618.165 158.835 618.165 Q162.469 618.165 164.275 614.624 Q166.103 611.059 166.103 603.952 Q166.103 596.823 164.275 593.281 Q162.469 589.716 158.835 589.716 M158.835 586.013 Q164.645 586.013 167.701 590.619 Q170.779 595.202 170.779 603.952 Q170.779 612.679 167.701 617.286 Q164.645 621.869 158.835 621.869 Q153.025 621.869 149.946 617.286 Q146.89 612.679 146.89 603.952 Q146.89 595.202 149.946 590.619 Q153.025 586.013 158.835 586.013 Z" fill="#000000" fill-rule="nonzero" fill-opacity="1" /><path clip-path="url(#clip870)" d="M178.997 615.318 L183.881 615.318 L183.881 621.198 L178.997 621.198 L178.997 615.318 Z" fill="#000000" fill-rule="nonzero" fill-opacity="1" /><path clip-path="url(#clip870)" d="M204.066 589.716 Q200.455 589.716 198.626 593.281 Q196.821 596.823 196.821 603.952 Q196.821 611.059 198.626 614.624 Q200.455 618.165 204.066 618.165 Q207.7 618.165 209.506 614.624 Q211.335 611.059 211.335 603.952 Q211.335 596.823 209.506 593.281 Q207.7 589.716 204.066 589.716 M204.066 586.013 Q209.876 586.013 212.932 590.619 Q216.01 595.202 216.01 603.952 Q216.01 612.679 212.932 617.286 Q209.876 621.869 204.066 621.869 Q198.256 621.869 195.177 617.286 Q192.122 612.679 192.122 603.952 Q192.122 595.202 195.177 590.619 Q198.256 586.013 204.066 586.013 Z" fill="#000000" fill-rule="nonzero" fill-opacity="1" /><path clip-path="url(#clip870)" d="M238.395 602.563 Q241.751 603.281 243.626 605.55 Q245.524 607.818 245.524 611.151 Q245.524 616.267 242.006 619.068 Q238.487 621.869 232.006 621.869 Q229.83 621.869 227.515 621.429 Q225.223 621.012 222.77 620.156 L222.77 615.642 Q224.714 616.776 227.029 617.355 Q229.344 617.934 231.867 617.934 Q236.265 617.934 238.557 616.198 Q240.871 614.462 240.871 611.151 Q240.871 608.096 238.719 606.383 Q236.589 604.647 232.77 604.647 L228.742 604.647 L228.742 600.804 L232.955 600.804 Q236.404 600.804 238.233 599.438 Q240.061 598.05 240.061 595.457 Q240.061 592.795 238.163 591.383 Q236.288 589.948 232.77 589.948 Q230.848 589.948 228.649 590.364 Q226.45 590.781 223.811 591.661 L223.811 587.494 Q226.473 586.753 228.788 586.383 Q231.126 586.013 233.186 586.013 Q238.51 586.013 241.612 588.443 Q244.714 590.851 244.714 594.971 Q244.714 597.841 243.071 599.832 Q241.427 601.8 238.395 602.563 Z" fill="#000000" fill-rule="nonzero" fill-opacity="1" /><path clip-path="url(#clip870)" d="M157.701 327.128 Q154.09 327.128 152.261 330.692 Q150.455 334.234 150.455 341.364 Q150.455 348.47 152.261 352.035 Q154.09 355.576 157.701 355.576 Q161.335 355.576 163.14 352.035 Q164.969 348.47 164.969 341.364 Q164.969 334.234 163.14 330.692 Q161.335 327.128 157.701 327.128 M157.701 323.424 Q163.511 323.424 166.566 328.03 Q169.645 332.614 169.645 341.364 Q169.645 350.09 166.566 354.697 Q163.511 359.28 157.701 359.28 Q151.89 359.28 148.812 354.697 Q145.756 350.09 145.756 341.364 Q145.756 332.614 148.812 328.03 Q151.89 323.424 157.701 323.424 Z" fill="#000000" fill-rule="nonzero" fill-opacity="1" /><path clip-path="url(#clip870)" d="M177.863 352.729 L182.747 352.729 L182.747 358.609 L177.863 358.609 L177.863 352.729 Z" fill="#000000" fill-rule="nonzero" fill-opacity="1" /><path clip-path="url(#clip870)" d="M202.932 327.128 Q199.321 327.128 197.492 330.692 Q195.687 334.234 195.687 341.364 Q195.687 348.47 197.492 352.035 Q199.321 355.576 202.932 355.576 Q206.566 355.576 208.372 352.035 Q210.2 348.47 210.2 341.364 Q210.2 334.234 208.372 330.692 Q206.566 327.128 202.932 327.128 M202.932 323.424 Q208.742 323.424 211.798 328.03 Q214.876 332.614 214.876 341.364 Q214.876 350.09 211.798 354.697 Q208.742 359.28 202.932 359.28 Q197.122 359.28 194.043 354.697 Q190.987 350.09 190.987 341.364 Q190.987 332.614 194.043 328.03 Q197.122 323.424 202.932 323.424 Z" fill="#000000" fill-rule="nonzero" fill-opacity="1" /><path clip-path="url(#clip870)" d="M235.941 328.123 L224.135 346.572 L235.941 346.572 L235.941 328.123 M234.714 324.049 L240.594 324.049 L240.594 346.572 L245.524 346.572 L245.524 350.461 L240.594 350.461 L240.594 358.609 L235.941 358.609 L235.941 350.461 L220.339 350.461 L220.339 345.947 L234.714 324.049 Z" fill="#000000" fill-rule="nonzero" fill-opacity="1" /><path clip-path="url(#clip870)" d="M53.2638 1079.77 L71.1196 1079.77 L71.1196 1071.69 Q71.1196 1067.2 68.7961 1064.75 Q66.4726 1062.3 62.1757 1062.3 Q57.9107 1062.3 55.5872 1064.75 Q53.2638 1067.2 53.2638 1071.69 L53.2638 1079.77 M47.9802 1086.2 L47.9802 1071.69 Q47.9802 1063.7 51.6087 1059.62 Q55.2053 1055.52 62.1757 1055.52 Q69.2099 1055.52 72.8065 1059.62 Q76.4031 1063.7 76.4031 1071.69 L76.4031 1079.77 L95.5002 1079.77 L95.5002 1086.2 L47.9802 1086.2 Z" fill="#000000" fill-rule="nonzero" fill-opacity="1" /><path clip-path="url(#clip870)" d="M65.3268 1027.64 Q64.7539 1028.62 64.4992 1029.8 Q64.2128 1030.95 64.2128 1032.35 Q64.2128 1037.31 67.4593 1039.99 Q70.674 1042.63 76.7214 1042.63 L95.5002 1042.63 L95.5002 1048.52 L59.8523 1048.52 L59.8523 1042.63 L65.3904 1042.63 Q62.1439 1040.78 60.5843 1037.82 Q58.9929 1034.86 58.9929 1030.63 Q58.9929 1030.02 59.0884 1029.29 Q59.152 1028.56 59.3112 1027.67 L65.3268 1027.64 Z" fill="#000000" fill-rule="nonzero" fill-opacity="1" /><path clip-path="url(#clip870)" d="M63.9581 1009.11 Q63.9581 1013.82 67.6503 1016.56 Q71.3105 1019.3 77.7081 1019.3 Q84.1056 1019.3 87.7977 1016.59 Q91.458 1013.85 91.458 1009.11 Q91.458 1004.43 87.7659 1001.7 Q84.0738 998.959 77.7081 998.959 Q71.3742 998.959 67.6821 1001.7 Q63.9581 1004.43 63.9581 1009.11 M58.9929 1009.11 Q58.9929 1001.47 63.9581 997.113 Q68.9234 992.753 77.7081 992.753 Q86.4609 992.753 91.458 997.113 Q96.4232 1001.47 96.4232 1009.11 Q96.4232 1016.78 91.458 1021.14 Q86.4609 1025.47 77.7081 1025.47 Q68.9234 1025.47 63.9581 1021.14 Q58.9929 1016.78 58.9929 1009.11 Z" fill="#000000" fill-rule="nonzero" fill-opacity="1" /><path clip-path="url(#clip870)" d="M90.153 977.379 L109.059 977.379 L109.059 983.268 L59.8523 983.268 L59.8523 977.379 L65.2631 977.379 Q62.0803 975.533 60.5525 972.732 Q58.9929 969.9 58.9929 965.985 Q58.9929 959.492 64.1491 955.45 Q69.3053 951.375 77.7081 951.375 Q86.1108 951.375 91.267 955.45 Q96.4232 959.492 96.4232 965.985 Q96.4232 969.9 94.8955 972.732 Q93.3359 975.533 90.153 977.379 M77.7081 957.455 Q71.2469 957.455 67.5866 960.128 Q63.8945 962.77 63.8945 967.417 Q63.8945 972.064 67.5866 974.738 Q71.2469 977.379 77.7081 977.379 Q84.1693 977.379 87.8614 974.738 Q91.5217 972.064 91.5217 967.417 Q91.5217 962.77 87.8614 960.128 Q84.1693 957.455 77.7081 957.455 Z" fill="#000000" fill-rule="nonzero" fill-opacity="1" /><path clip-path="url(#clip870)" d="M63.9581 927.854 Q63.9581 932.565 67.6503 935.302 Q71.3105 938.039 77.7081 938.039 Q84.1056 938.039 87.7977 935.334 Q91.458 932.597 91.458 927.854 Q91.458 923.175 87.7659 920.438 Q84.0738 917.701 77.7081 917.701 Q71.3742 917.701 67.6821 920.438 Q63.9581 923.175 63.9581 927.854 M58.9929 927.854 Q58.9929 920.215 63.9581 915.855 Q68.9234 911.494 77.7081 911.494 Q86.4609 911.494 91.458 915.855 Q96.4232 920.215 96.4232 927.854 Q96.4232 935.525 91.458 939.885 Q86.4609 944.214 77.7081 944.214 Q68.9234 944.214 63.9581 939.885 Q58.9929 935.525 58.9929 927.854 Z" fill="#000000" fill-rule="nonzero" fill-opacity="1" /><path clip-path="url(#clip870)" d="M65.3268 881.13 Q64.7539 882.117 64.4992 883.294 Q64.2128 884.44 64.2128 885.841 Q64.2128 890.806 67.4593 893.479 Q70.674 896.121 76.7214 896.121 L95.5002 896.121 L95.5002 902.009 L59.8523 902.009 L59.8523 896.121 L65.3904 896.121 Q62.1439 894.275 60.5843 891.315 Q58.9929 888.355 58.9929 884.122 Q58.9929 883.517 59.0884 882.785 Q59.152 882.053 59.3112 881.162 L65.3268 881.13 Z" fill="#000000" fill-rule="nonzero" fill-opacity="1" /><path clip-path="url(#clip870)" d="M49.7308 869.194 L59.8523 869.194 L59.8523 857.131 L64.4037 857.131 L64.4037 869.194 L83.7555 869.194 Q88.116 869.194 89.3573 868.017 Q90.5986 866.807 90.5986 863.147 L90.5986 857.131 L95.5002 857.131 L95.5002 863.147 Q95.5002 869.926 92.9858 872.504 Q90.4395 875.082 83.7555 875.082 L64.4037 875.082 L64.4037 879.379 L59.8523 879.379 L59.8523 875.082 L49.7308 875.082 L49.7308 869.194 Z" fill="#000000" fill-rule="nonzero" fill-opacity="1" /><path clip-path="url(#clip870)" d="M59.8523 849.429 L59.8523 843.572 L95.5002 843.572 L95.5002 849.429 L59.8523 849.429 M45.975 849.429 L45.975 843.572 L53.3911 843.572 L53.3911 849.429 L45.975 849.429 Z" fill="#000000" fill-rule="nonzero" fill-opacity="1" /><path clip-path="url(#clip870)" d="M63.9581 817.505 Q63.9581 822.215 67.6503 824.953 Q71.3105 827.69 77.7081 827.69 Q84.1056 827.69 87.7977 824.984 Q91.458 822.247 91.458 817.505 Q91.458 812.826 87.7659 810.089 Q84.0738 807.351 77.7081 807.351 Q71.3742 807.351 67.6821 810.089 Q63.9581 812.826 63.9581 817.505 M58.9929 817.505 Q58.9929 809.866 63.9581 805.505 Q68.9234 801.145 77.7081 801.145 Q86.4609 801.145 91.458 805.505 Q96.4232 809.866 96.4232 817.505 Q96.4232 825.175 91.458 829.536 Q86.4609 833.865 77.7081 833.865 Q68.9234 833.865 63.9581 829.536 Q58.9929 825.175 58.9929 817.505 Z" fill="#000000" fill-rule="nonzero" fill-opacity="1" /><path clip-path="url(#clip870)" d="M73.9841 761.805 L95.5002 761.805 L95.5002 767.661 L74.1751 767.661 Q69.1144 767.661 66.5999 769.635 Q64.0855 771.608 64.0855 775.555 Q64.0855 780.297 67.1092 783.034 Q70.1329 785.772 75.3528 785.772 L95.5002 785.772 L95.5002 791.66 L59.8523 791.66 L59.8523 785.772 L65.3904 785.772 Q62.1757 783.671 60.5843 780.838 Q58.9929 777.974 58.9929 774.25 Q58.9929 768.107 62.8123 764.956 Q66.5999 761.805 73.9841 761.805 Z" fill="#000000" fill-rule="nonzero" fill-opacity="1" /><path clip-path="url(#clip870)" d="M63.9581 715.59 Q63.9581 720.3 67.6503 723.038 Q71.3105 725.775 77.7081 725.775 Q84.1056 725.775 87.7977 723.069 Q91.458 720.332 91.458 715.59 Q91.458 710.911 87.7659 708.174 Q84.0738 705.436 77.7081 705.436 Q71.3742 705.436 67.6821 708.174 Q63.9581 710.911 63.9581 715.59 M58.9929 715.59 Q58.9929 707.951 63.9581 703.59 Q68.9234 699.23 77.7081 699.23 Q86.4609 699.23 91.458 703.59 Q96.4232 707.951 96.4232 715.59 Q96.4232 723.26 91.458 727.621 Q86.4609 731.95 77.7081 731.95 Q68.9234 731.95 63.9581 727.621 Q58.9929 723.26 58.9929 715.59 Z" fill="#000000" fill-rule="nonzero" fill-opacity="1" /><path clip-path="url(#clip870)" d="M45.975 671.475 L50.8448 671.475 L50.8448 677.077 Q50.8448 680.228 52.1179 681.469 Q53.3911 682.679 56.7012 682.679 L59.8523 682.679 L59.8523 673.035 L64.4037 673.035 L64.4037 682.679 L95.5002 682.679 L95.5002 688.567 L64.4037 688.567 L64.4037 694.169 L59.8523 694.169 L59.8523 688.567 L57.3696 688.567 Q51.4177 688.567 48.7123 685.798 Q45.975 683.029 45.975 677.013 L45.975 671.475 Z" fill="#000000" fill-rule="nonzero" fill-opacity="1" /><path clip-path="url(#clip870)" d="M60.9026 623.128 L66.4408 623.128 Q65.1676 625.61 64.5311 628.284 Q63.8945 630.958 63.8945 633.822 Q63.8945 638.183 65.2313 640.379 Q66.5681 642.543 69.2417 642.543 Q71.2787 642.543 72.4564 640.984 Q73.6022 639.424 74.6525 634.713 L75.0981 632.708 Q76.4349 626.47 78.8857 623.86 Q81.3047 621.218 85.6652 621.218 Q90.6305 621.218 93.5269 625.165 Q96.4232 629.08 96.4232 635.955 Q96.4232 638.819 95.8503 641.938 Q95.3092 645.026 94.1953 648.463 L88.1478 648.463 Q89.8347 645.217 90.6941 642.066 Q91.5217 638.915 91.5217 635.827 Q91.5217 631.69 90.1212 629.462 Q88.6889 627.234 86.1108 627.234 Q83.7237 627.234 82.4505 628.857 Q81.1774 630.448 79.9997 635.891 L79.5223 637.928 Q78.3765 643.371 76.0212 645.79 Q73.634 648.209 69.4963 648.209 Q64.4674 648.209 61.7301 644.644 Q58.9929 641.079 58.9929 634.522 Q58.9929 631.276 59.4703 628.411 Q59.9477 625.547 60.9026 623.128 Z" fill="#000000" fill-rule="nonzero" fill-opacity="1" /><path clip-path="url(#clip870)" d="M77.5808 595.692 Q77.5808 602.789 79.204 605.527 Q80.8273 608.264 84.7422 608.264 Q87.8614 608.264 89.7074 606.227 Q91.5217 604.158 91.5217 600.625 Q91.5217 595.755 88.0842 592.827 Q84.6149 589.867 78.8857 589.867 L77.5808 589.867 L77.5808 595.692 M75.1618 584.011 L95.5002 584.011 L95.5002 589.867 L90.0894 589.867 Q93.3359 591.872 94.8955 594.864 Q96.4232 597.856 96.4232 602.185 Q96.4232 607.659 93.3677 610.906 Q90.2803 614.12 85.1241 614.12 Q79.1085 614.12 76.053 610.11 Q72.9974 606.068 72.9974 598.079 L72.9974 589.867 L72.4245 589.867 Q68.3823 589.867 66.1861 592.541 Q63.9581 595.182 63.9581 599.988 Q63.9581 603.044 64.6902 605.94 Q65.4223 608.837 66.8864 611.51 L61.4755 611.51 Q60.2342 608.296 59.6295 605.272 Q58.9929 602.248 58.9929 599.384 Q58.9929 591.649 63.0033 587.83 Q67.0137 584.011 75.1618 584.011 Z" fill="#000000" fill-rule="nonzero" fill-opacity="1" /><path clip-path="url(#clip870)" d="M66.6954 544.193 Q62.7487 541.997 60.8708 538.941 Q58.9929 535.886 58.9929 531.748 Q58.9929 526.178 62.9078 523.154 Q66.7909 520.131 73.9841 520.131 L95.5002 520.131 L95.5002 526.019 L74.1751 526.019 Q69.0507 526.019 66.5681 527.833 Q64.0855 529.647 64.0855 533.371 Q64.0855 537.923 67.1092 540.565 Q70.1329 543.206 75.3528 543.206 L95.5002 543.206 L95.5002 549.095 L74.1751 549.095 Q69.0189 549.095 66.5681 550.909 Q64.0855 552.723 64.0855 556.511 Q64.0855 560.998 67.141 563.64 Q70.1647 566.282 75.3528 566.282 L95.5002 566.282 L95.5002 572.17 L59.8523 572.17 L59.8523 566.282 L65.3904 566.282 Q62.1121 564.277 60.5525 561.476 Q58.9929 558.675 58.9929 554.824 Q58.9929 550.941 60.9663 548.235 Q62.9396 545.498 66.6954 544.193 Z" fill="#000000" fill-rule="nonzero" fill-opacity="1" /><path clip-path="url(#clip870)" d="M90.153 502.784 L109.059 502.784 L109.059 508.672 L59.8523 508.672 L59.8523 502.784 L65.2631 502.784 Q62.0803 500.938 60.5525 498.137 Q58.9929 495.304 58.9929 491.389 Q58.9929 484.896 64.1491 480.854 Q69.3053 476.78 77.7081 476.78 Q86.1108 476.78 91.267 480.854 Q96.4232 484.896 96.4232 491.389 Q96.4232 495.304 94.8955 498.137 Q93.3359 500.938 90.153 502.784 M77.7081 482.859 Q71.2469 482.859 67.5866 485.533 Q63.8945 488.175 63.8945 492.822 Q63.8945 497.469 67.5866 500.142 Q71.2469 502.784 77.7081 502.784 Q84.1693 502.784 87.8614 500.142 Q91.5217 497.469 91.5217 492.822 Q91.5217 488.175 87.8614 485.533 Q84.1693 482.859 77.7081 482.859 Z" fill="#000000" fill-rule="nonzero" fill-opacity="1" /><path clip-path="url(#clip870)" d="M45.975 467.072 L45.975 461.216 L95.5002 461.216 L95.5002 467.072 L45.975 467.072 Z" fill="#000000" fill-rule="nonzero" fill-opacity="1" /><path clip-path="url(#clip870)" d="M76.2121 418.47 L79.0767 418.47 L79.0767 445.397 Q85.1241 445.015 88.307 441.769 Q91.458 438.49 91.458 432.666 Q91.458 429.292 90.6305 426.141 Q89.8029 422.958 88.1478 419.839 L93.686 419.839 Q95.0228 422.99 95.723 426.3 Q96.4232 429.61 96.4232 433.016 Q96.4232 441.546 91.458 446.543 Q86.4927 451.508 78.0264 451.508 Q69.2735 451.508 64.1491 446.798 Q58.9929 442.055 58.9929 434.034 Q58.9929 426.841 63.6399 422.672 Q68.255 418.47 76.2121 418.47 M74.4934 424.327 Q69.6873 424.39 66.8227 427.032 Q63.9581 429.642 63.9581 433.971 Q63.9581 438.872 66.7272 441.832 Q69.4963 444.761 74.5252 445.206 L74.4934 424.327 Z" fill="#000000" fill-rule="nonzero" fill-opacity="1" /><path clip-path="url(#clip870)" d="M60.9026 386.133 L66.4408 386.133 Q65.1676 388.615 64.5311 391.289 Q63.8945 393.962 63.8945 396.827 Q63.8945 401.187 65.2313 403.384 Q66.5681 405.548 69.2417 405.548 Q71.2787 405.548 72.4564 403.988 Q73.6022 402.429 74.6525 397.718 L75.0981 395.713 Q76.4349 389.475 78.8857 386.865 Q81.3047 384.223 85.6652 384.223 Q90.6305 384.223 93.5269 388.17 Q96.4232 392.084 96.4232 398.959 Q96.4232 401.824 95.8503 404.943 Q95.3092 408.031 94.1953 411.468 L88.1478 411.468 Q89.8347 408.222 90.6941 405.071 Q91.5217 401.919 91.5217 398.832 Q91.5217 394.694 90.1212 392.466 Q88.6889 390.238 86.1108 390.238 Q83.7237 390.238 82.4505 391.862 Q81.1774 393.453 79.9997 398.896 L79.5223 400.933 Q78.3765 406.375 76.0212 408.794 Q73.634 411.213 69.4963 411.213 Q64.4674 411.213 61.7301 407.649 Q58.9929 404.084 58.9929 397.527 Q58.9929 394.281 59.4703 391.416 Q59.9477 388.551 60.9026 386.133 Z" fill="#000000" fill-rule="nonzero" fill-opacity="1" /><path clip-path="url(#clip872)" d="M393.713 905.744 L393.713 1391.68 L430.02 1391.68 L430.02 905.744 L393.713 905.744 L393.713 905.744  Z" fill="#ff8c00" fill-rule="evenodd" fill-opacity="1"/>
<polyline clip-path="url(#clip872)" style="stroke:#000000; stroke-linecap:round; stroke-linejoin:round; stroke-width:4; stroke-opacity:1; fill:none" points="393.713,905.744 393.713,1391.68 430.02,1391.68 430.02,905.744 393.713,905.744 "/>
<path clip-path="url(#clip872)" d="M430.02 368.493 L430.02 1391.68 L466.328 1391.68 L466.328 368.493 L430.02 368.493 L430.02 368.493  Z" fill="#ff8c00" fill-rule="evenodd" fill-opacity="1"/>
<polyline clip-path="url(#clip872)" style="stroke:#000000; stroke-linecap:round; stroke-linejoin:round; stroke-width:4; stroke-opacity:1; fill:none" points="430.02,368.493 430.02,1391.68 466.328,1391.68 466.328,368.493 430.02,368.493 "/>
<path clip-path="url(#clip872)" d="M466.328 359.438 L466.328 1391.68 L502.635 1391.68 L502.635 359.438 L466.328 359.438 L466.328 359.438  Z" fill="#ff8c00" fill-rule="evenodd" fill-opacity="1"/>
<polyline clip-path="url(#clip872)" style="stroke:#000000; stroke-linecap:round; stroke-linejoin:round; stroke-width:4; stroke-opacity:1; fill:none" points="466.328,359.438 466.328,1391.68 502.635,1391.68 502.635,359.438 466.328,359.438 "/>
<path clip-path="url(#clip872)" d="M502.635 664.283 L502.635 1391.68 L538.942 1391.68 L538.942 664.283 L502.635 664.283 L502.635 664.283  Z" fill="#ff8c00" fill-rule="evenodd" fill-opacity="1"/>
<polyline clip-path="url(#clip872)" style="stroke:#000000; stroke-linecap:round; stroke-linejoin:round; stroke-width:4; stroke-opacity:1; fill:none" points="502.635,664.283 502.635,1391.68 538.942,1391.68 538.942,664.283 502.635,664.283 "/>
<path clip-path="url(#clip872)" d="M538.942 404.712 L538.942 1391.68 L575.249 1391.68 L575.249 404.712 L538.942 404.712 L538.942 404.712  Z" fill="#ff8c00" fill-rule="evenodd" fill-opacity="1"/>
<polyline clip-path="url(#clip872)" style="stroke:#000000; stroke-linecap:round; stroke-linejoin:round; stroke-width:4; stroke-opacity:1; fill:none" points="538.942,404.712 538.942,1391.68 575.249,1391.68 575.249,404.712 538.942,404.712 "/>
<path clip-path="url(#clip872)" d="M575.249 148.16 L575.249 1391.68 L611.556 1391.68 L611.556 148.16 L575.249 148.16 L575.249 148.16  Z" fill="#ff8c00" fill-rule="evenodd" fill-opacity="1"/>
<polyline clip-path="url(#clip872)" style="stroke:#000000; stroke-linecap:round; stroke-linejoin:round; stroke-width:4; stroke-opacity:1; fill:none" points="575.249,148.16 575.249,1391.68 611.556,1391.68 611.556,148.16 575.249,148.16 "/>
<path clip-path="url(#clip872)" d="M611.556 232.671 L611.556 1391.68 L647.863 1391.68 L647.863 232.671 L611.556 232.671 L611.556 232.671  Z" fill="#ff8c00" fill-rule="evenodd" fill-opacity="1"/>
<polyline clip-path="url(#clip872)" style="stroke:#000000; stroke-linecap:round; stroke-linejoin:round; stroke-width:4; stroke-opacity:1; fill:none" points="611.556,232.671 611.556,1391.68 647.863,1391.68 647.863,232.671 611.556,232.671 "/>
<path clip-path="url(#clip872)" d="M647.863 78.7402 L647.863 1391.68 L684.17 1391.68 L684.17 78.7402 L647.863 78.7402 L647.863 78.7402  Z" fill="#ff8c00" fill-rule="evenodd" fill-opacity="1"/>
<polyline clip-path="url(#clip872)" style="stroke:#000000; stroke-linecap:round; stroke-linejoin:round; stroke-width:4; stroke-opacity:1; fill:none" points="647.863,78.7402 647.863,1391.68 684.17,1391.68 684.17,78.7402 647.863,78.7402 "/>
<path clip-path="url(#clip872)" d="M684.17 169.288 L684.17 1391.68 L720.478 1391.68 L720.478 169.288 L684.17 169.288 L684.17 169.288  Z" fill="#ff8c00" fill-rule="evenodd" fill-opacity="1"/>
<polyline clip-path="url(#clip872)" style="stroke:#000000; stroke-linecap:round; stroke-linejoin:round; stroke-width:4; stroke-opacity:1; fill:none" points="684.17,169.288 684.17,1391.68 720.478,1391.68 720.478,169.288 684.17,169.288 "/>
<path clip-path="url(#clip872)" d="M720.478 184.379 L720.478 1391.68 L756.785 1391.68 L756.785 184.379 L720.478 184.379 L720.478 184.379  Z" fill="#ff8c00" fill-rule="evenodd" fill-opacity="1"/>
<polyline clip-path="url(#clip872)" style="stroke:#000000; stroke-linecap:round; stroke-linejoin:round; stroke-width:4; stroke-opacity:1; fill:none" points="720.478,184.379 720.478,1391.68 756.785,1391.68 756.785,184.379 720.478,184.379 "/>
<path clip-path="url(#clip872)" d="M756.785 253.799 L756.785 1391.68 L793.092 1391.68 L793.092 253.799 L756.785 253.799 L756.785 253.799  Z" fill="#ff8c00" fill-rule="evenodd" fill-opacity="1"/>
<polyline clip-path="url(#clip872)" style="stroke:#000000; stroke-linecap:round; stroke-linejoin:round; stroke-width:4; stroke-opacity:1; fill:none" points="756.785,253.799 756.785,1391.68 793.092,1391.68 793.092,253.799 756.785,253.799 "/>
<path clip-path="url(#clip872)" d="M793.092 443.95 L793.092 1391.68 L829.399 1391.68 L829.399 443.95 L793.092 443.95 L793.092 443.95  Z" fill="#ff8c00" fill-rule="evenodd" fill-opacity="1"/>
<polyline clip-path="url(#clip872)" style="stroke:#000000; stroke-linecap:round; stroke-linejoin:round; stroke-width:4; stroke-opacity:1; fill:none" points="793.092,443.95 793.092,1391.68 829.399,1391.68 829.399,443.95 793.092,443.95 "/>
<path clip-path="url(#clip872)" d="M829.399 504.315 L829.399 1391.68 L865.706 1391.68 L865.706 504.315 L829.399 504.315 L829.399 504.315  Z" fill="#ff8c00" fill-rule="evenodd" fill-opacity="1"/>
<polyline clip-path="url(#clip872)" style="stroke:#000000; stroke-linecap:round; stroke-linejoin:round; stroke-width:4; stroke-opacity:1; fill:none" points="829.399,504.315 829.399,1391.68 865.706,1391.68 865.706,504.315 829.399,504.315 "/>
<path clip-path="url(#clip872)" d="M865.706 637.118 L865.706 1391.68 L902.013 1391.68 L902.013 637.118 L865.706 637.118 L865.706 637.118  Z" fill="#ff8c00" fill-rule="evenodd" fill-opacity="1"/>
<polyline clip-path="url(#clip872)" style="stroke:#000000; stroke-linecap:round; stroke-linejoin:round; stroke-width:4; stroke-opacity:1; fill:none" points="865.706,637.118 865.706,1391.68 902.013,1391.68 902.013,637.118 865.706,637.118 "/>
<path clip-path="url(#clip872)" d="M902.013 673.338 L902.013 1391.68 L938.321 1391.68 L938.321 673.338 L902.013 673.338 L902.013 673.338  Z" fill="#ff8c00" fill-rule="evenodd" fill-opacity="1"/>
<polyline clip-path="url(#clip872)" style="stroke:#000000; stroke-linecap:round; stroke-linejoin:round; stroke-width:4; stroke-opacity:1; fill:none" points="902.013,673.338 902.013,1391.68 938.321,1391.68 938.321,673.338 902.013,673.338 "/>
<path clip-path="url(#clip872)" d="M938.321 368.493 L938.321 1391.68 L974.628 1391.68 L974.628 368.493 L938.321 368.493 L938.321 368.493  Z" fill="#ff8c00" fill-rule="evenodd" fill-opacity="1"/>
<polyline clip-path="url(#clip872)" style="stroke:#000000; stroke-linecap:round; stroke-linejoin:round; stroke-width:4; stroke-opacity:1; fill:none" points="938.321,368.493 938.321,1391.68 974.628,1391.68 974.628,368.493 938.321,368.493 "/>
<path clip-path="url(#clip872)" d="M974.628 564.68 L974.628 1391.68 L1010.93 1391.68 L1010.93 564.68 L974.628 564.68 L974.628 564.68  Z" fill="#ff8c00" fill-rule="evenodd" fill-opacity="1"/>
<polyline clip-path="url(#clip872)" style="stroke:#000000; stroke-linecap:round; stroke-linejoin:round; stroke-width:4; stroke-opacity:1; fill:none" points="974.628,564.68 974.628,1391.68 1010.93,1391.68 1010.93,564.68 974.628,564.68 "/>
<path clip-path="url(#clip872)" d="M1010.93 715.593 L1010.93 1391.68 L1047.24 1391.68 L1047.24 715.593 L1010.93 715.593 L1010.93 715.593  Z" fill="#ff8c00" fill-rule="evenodd" fill-opacity="1"/>
<polyline clip-path="url(#clip872)" style="stroke:#000000; stroke-linecap:round; stroke-linejoin:round; stroke-width:4; stroke-opacity:1; fill:none" points="1010.93,715.593 1010.93,1391.68 1047.24,1391.68 1047.24,715.593 1010.93,715.593 "/>
<path clip-path="url(#clip872)" d="M1047.24 781.995 L1047.24 1391.68 L1083.55 1391.68 L1083.55 781.995 L1047.24 781.995 L1047.24 781.995  Z" fill="#ff8c00" fill-rule="evenodd" fill-opacity="1"/>
<polyline clip-path="url(#clip872)" style="stroke:#000000; stroke-linecap:round; stroke-linejoin:round; stroke-width:4; stroke-opacity:1; fill:none" points="1047.24,781.995 1047.24,1391.68 1083.55,1391.68 1083.55,781.995 1047.24,781.995 "/>
<path clip-path="url(#clip872)" d="M1083.55 588.826 L1083.55 1391.68 L1119.86 1391.68 L1119.86 588.826 L1083.55 588.826 L1083.55 588.826  Z" fill="#ff8c00" fill-rule="evenodd" fill-opacity="1"/>
<polyline clip-path="url(#clip872)" style="stroke:#000000; stroke-linecap:round; stroke-linejoin:round; stroke-width:4; stroke-opacity:1; fill:none" points="1083.55,588.826 1083.55,1391.68 1119.86,1391.68 1119.86,588.826 1083.55,588.826 "/>
<path clip-path="url(#clip872)" d="M1119.86 824.251 L1119.86 1391.68 L1156.16 1391.68 L1156.16 824.251 L1119.86 824.251 L1119.86 824.251  Z" fill="#ff8c00" fill-rule="evenodd" fill-opacity="1"/>
<polyline clip-path="url(#clip872)" style="stroke:#000000; stroke-linecap:round; stroke-linejoin:round; stroke-width:4; stroke-opacity:1; fill:none" points="1119.86,824.251 1119.86,1391.68 1156.16,1391.68 1156.16,824.251 1119.86,824.251 "/>
<path clip-path="url(#clip872)" d="M1156.16 821.232 L1156.16 1391.68 L1192.47 1391.68 L1192.47 821.232 L1156.16 821.232 L1156.16 821.232  Z" fill="#ff8c00" fill-rule="evenodd" fill-opacity="1"/>
<polyline clip-path="url(#clip872)" style="stroke:#000000; stroke-linecap:round; stroke-linejoin:round; stroke-width:4; stroke-opacity:1; fill:none" points="1156.16,821.232 1156.16,1391.68 1192.47,1391.68 1192.47,821.232 1156.16,821.232 "/>
<path clip-path="url(#clip872)" d="M1192.47 899.707 L1192.47 1391.68 L1228.78 1391.68 L1228.78 899.707 L1192.47 899.707 L1192.47 899.707  Z" fill="#ff8c00" fill-rule="evenodd" fill-opacity="1"/>
<polyline clip-path="url(#clip872)" style="stroke:#000000; stroke-linecap:round; stroke-linejoin:round; stroke-width:4; stroke-opacity:1; fill:none" points="1192.47,899.707 1192.47,1391.68 1228.78,1391.68 1228.78,899.707 1192.47,899.707 "/>
<path clip-path="url(#clip872)" d="M1228.78 1071.75 L1228.78 1391.68 L1265.08 1391.68 L1265.08 1071.75 L1228.78 1071.75 L1228.78 1071.75  Z" fill="#ff8c00" fill-rule="evenodd" fill-opacity="1"/>
<polyline clip-path="url(#clip872)" style="stroke:#000000; stroke-linecap:round; stroke-linejoin:round; stroke-width:4; stroke-opacity:1; fill:none" points="1228.78,1071.75 1228.78,1391.68 1265.08,1391.68 1265.08,1071.75 1228.78,1071.75 "/>
<path clip-path="url(#clip872)" d="M1265.08 969.127 L1265.08 1391.68 L1301.39 1391.68 L1301.39 969.127 L1265.08 969.127 L1265.08 969.127  Z" fill="#ff8c00" fill-rule="evenodd" fill-opacity="1"/>
<polyline clip-path="url(#clip872)" style="stroke:#000000; stroke-linecap:round; stroke-linejoin:round; stroke-width:4; stroke-opacity:1; fill:none" points="1265.08,969.127 1265.08,1391.68 1301.39,1391.68 1301.39,969.127 1265.08,969.127 "/>
<path clip-path="url(#clip872)" d="M1301.39 993.273 L1301.39 1391.68 L1337.7 1391.68 L1337.7 993.273 L1301.39 993.273 L1301.39 993.273  Z" fill="#ff8c00" fill-rule="evenodd" fill-opacity="1"/>
<polyline clip-path="url(#clip872)" style="stroke:#000000; stroke-linecap:round; stroke-linejoin:round; stroke-width:4; stroke-opacity:1; fill:none" points="1301.39,993.273 1301.39,1391.68 1337.7,1391.68 1337.7,993.273 1301.39,993.273 "/>
<path clip-path="url(#clip872)" d="M1337.7 1177.39 L1337.7 1391.68 L1374.01 1391.68 L1374.01 1177.39 L1337.7 1177.39 L1337.7 1177.39  Z" fill="#ff8c00" fill-rule="evenodd" fill-opacity="1"/>
<polyline clip-path="url(#clip872)" style="stroke:#000000; stroke-linecap:round; stroke-linejoin:round; stroke-width:4; stroke-opacity:1; fill:none" points="1337.7,1177.39 1337.7,1391.68 1374.01,1391.68 1374.01,1177.39 1337.7,1177.39 "/>
<path clip-path="url(#clip872)" d="M1374.01 1032.51 L1374.01 1391.68 L1410.31 1391.68 L1410.31 1032.51 L1374.01 1032.51 L1374.01 1032.51  Z" fill="#ff8c00" fill-rule="evenodd" fill-opacity="1"/>
<polyline clip-path="url(#clip872)" style="stroke:#000000; stroke-linecap:round; stroke-linejoin:round; stroke-width:4; stroke-opacity:1; fill:none" points="1374.01,1032.51 1374.01,1391.68 1410.31,1391.68 1410.31,1032.51 1374.01,1032.51 "/>
<path clip-path="url(#clip872)" d="M1410.31 1062.69 L1410.31 1391.68 L1446.62 1391.68 L1446.62 1062.69 L1410.31 1062.69 L1410.31 1062.69  Z" fill="#ff8c00" fill-rule="evenodd" fill-opacity="1"/>
<polyline clip-path="url(#clip872)" style="stroke:#000000; stroke-linecap:round; stroke-linejoin:round; stroke-width:4; stroke-opacity:1; fill:none" points="1410.31,1062.69 1410.31,1391.68 1446.62,1391.68 1446.62,1062.69 1410.31,1062.69 "/>
<path clip-path="url(#clip872)" d="M1446.62 960.072 L1446.62 1391.68 L1482.93 1391.68 L1482.93 960.072 L1446.62 960.072 L1446.62 960.072  Z" fill="#ff8c00" fill-rule="evenodd" fill-opacity="1"/>
<polyline clip-path="url(#clip872)" style="stroke:#000000; stroke-linecap:round; stroke-linejoin:round; stroke-width:4; stroke-opacity:1; fill:none" points="1446.62,960.072 1446.62,1391.68 1482.93,1391.68 1482.93,960.072 1446.62,960.072 "/>
<path clip-path="url(#clip872)" d="M1482.93 951.018 L1482.93 1391.68 L1519.23 1391.68 L1519.23 951.018 L1482.93 951.018 L1482.93 951.018  Z" fill="#ff8c00" fill-rule="evenodd" fill-opacity="1"/>
<polyline clip-path="url(#clip872)" style="stroke:#000000; stroke-linecap:round; stroke-linejoin:round; stroke-width:4; stroke-opacity:1; fill:none" points="1482.93,951.018 1482.93,1391.68 1519.23,1391.68 1519.23,951.018 1482.93,951.018 "/>
<path clip-path="url(#clip872)" d="M1519.23 1002.33 L1519.23 1391.68 L1555.54 1391.68 L1555.54 1002.33 L1519.23 1002.33 L1519.23 1002.33  Z" fill="#ff8c00" fill-rule="evenodd" fill-opacity="1"/>
<polyline clip-path="url(#clip872)" style="stroke:#000000; stroke-linecap:round; stroke-linejoin:round; stroke-width:4; stroke-opacity:1; fill:none" points="1519.23,1002.33 1519.23,1391.68 1555.54,1391.68 1555.54,1002.33 1519.23,1002.33 "/>
<path clip-path="url(#clip872)" d="M1555.54 1204.55 L1555.54 1391.68 L1591.85 1391.68 L1591.85 1204.55 L1555.54 1204.55 L1555.54 1204.55  Z" fill="#ff8c00" fill-rule="evenodd" fill-opacity="1"/>
<polyline clip-path="url(#clip872)" style="stroke:#000000; stroke-linecap:round; stroke-linejoin:round; stroke-width:4; stroke-opacity:1; fill:none" points="1555.54,1204.55 1555.54,1391.68 1591.85,1391.68 1591.85,1204.55 1555.54,1204.55 "/>
<path clip-path="url(#clip872)" d="M1591.85 1189.46 L1591.85 1391.68 L1628.16 1391.68 L1628.16 1189.46 L1591.85 1189.46 L1591.85 1189.46  Z" fill="#ff8c00" fill-rule="evenodd" fill-opacity="1"/>
<polyline clip-path="url(#clip872)" style="stroke:#000000; stroke-linecap:round; stroke-linejoin:round; stroke-width:4; stroke-opacity:1; fill:none" points="1591.85,1189.46 1591.85,1391.68 1628.16,1391.68 1628.16,1189.46 1591.85,1189.46 "/>
<path clip-path="url(#clip872)" d="M1628.16 1216.62 L1628.16 1391.68 L1664.46 1391.68 L1664.46 1216.62 L1628.16 1216.62 L1628.16 1216.62  Z" fill="#ff8c00" fill-rule="evenodd" fill-opacity="1"/>
<polyline clip-path="url(#clip872)" style="stroke:#000000; stroke-linecap:round; stroke-linejoin:round; stroke-width:4; stroke-opacity:1; fill:none" points="1628.16,1216.62 1628.16,1391.68 1664.46,1391.68 1664.46,1216.62 1628.16,1216.62 "/>
<path clip-path="url(#clip872)" d="M1664.46 1246.81 L1664.46 1391.68 L1700.77 1391.68 L1700.77 1246.81 L1664.46 1246.81 L1664.46 1246.81  Z" fill="#ff8c00" fill-rule="evenodd" fill-opacity="1"/>
<polyline clip-path="url(#clip872)" style="stroke:#000000; stroke-linecap:round; stroke-linejoin:round; stroke-width:4; stroke-opacity:1; fill:none" points="1664.46,1246.81 1664.46,1391.68 1700.77,1391.68 1700.77,1246.81 1664.46,1246.81 "/>
<path clip-path="url(#clip872)" d="M1700.77 1292.08 L1700.77 1391.68 L1737.08 1391.68 L1737.08 1292.08 L1700.77 1292.08 L1700.77 1292.08  Z" fill="#ff8c00" fill-rule="evenodd" fill-opacity="1"/>
<polyline clip-path="url(#clip872)" style="stroke:#000000; stroke-linecap:round; stroke-linejoin:round; stroke-width:4; stroke-opacity:1; fill:none" points="1700.77,1292.08 1700.77,1391.68 1737.08,1391.68 1737.08,1292.08 1700.77,1292.08 "/>
<path clip-path="url(#clip872)" d="M1737.08 1258.88 L1737.08 1391.68 L1773.38 1391.68 L1773.38 1258.88 L1737.08 1258.88 L1737.08 1258.88  Z" fill="#ff8c00" fill-rule="evenodd" fill-opacity="1"/>
<polyline clip-path="url(#clip872)" style="stroke:#000000; stroke-linecap:round; stroke-linejoin:round; stroke-width:4; stroke-opacity:1; fill:none" points="1737.08,1258.88 1737.08,1391.68 1773.38,1391.68 1773.38,1258.88 1737.08,1258.88 "/>
<path clip-path="url(#clip872)" d="M1773.38 1144.19 L1773.38 1391.68 L1809.69 1391.68 L1809.69 1144.19 L1773.38 1144.19 L1773.38 1144.19  Z" fill="#ff8c00" fill-rule="evenodd" fill-opacity="1"/>
<polyline clip-path="url(#clip872)" style="stroke:#000000; stroke-linecap:round; stroke-linejoin:round; stroke-width:4; stroke-opacity:1; fill:none" points="1773.38,1144.19 1773.38,1391.68 1809.69,1391.68 1809.69,1144.19 1773.38,1144.19 "/>
<path clip-path="url(#clip872)" d="M1809.69 1276.99 L1809.69 1391.68 L1846 1391.68 L1846 1276.99 L1809.69 1276.99 L1809.69 1276.99  Z" fill="#ff8c00" fill-rule="evenodd" fill-opacity="1"/>
<polyline clip-path="url(#clip872)" style="stroke:#000000; stroke-linecap:round; stroke-linejoin:round; stroke-width:4; stroke-opacity:1; fill:none" points="1809.69,1276.99 1809.69,1391.68 1846,1391.68 1846,1276.99 1809.69,1276.99 "/>
<path clip-path="url(#clip872)" d="M1846 1273.97 L1846 1391.68 L1882.31 1391.68 L1882.31 1273.97 L1846 1273.97 L1846 1273.97  Z" fill="#ff8c00" fill-rule="evenodd" fill-opacity="1"/>
<polyline clip-path="url(#clip872)" style="stroke:#000000; stroke-linecap:round; stroke-linejoin:round; stroke-width:4; stroke-opacity:1; fill:none" points="1846,1273.97 1846,1391.68 1882.31,1391.68 1882.31,1273.97 1846,1273.97 "/>
<path clip-path="url(#clip872)" d="M1882.31 1270.95 L1882.31 1391.68 L1918.61 1391.68 L1918.61 1270.95 L1882.31 1270.95 L1882.31 1270.95  Z" fill="#ff8c00" fill-rule="evenodd" fill-opacity="1"/>
<polyline clip-path="url(#clip872)" style="stroke:#000000; stroke-linecap:round; stroke-linejoin:round; stroke-width:4; stroke-opacity:1; fill:none" points="1882.31,1270.95 1882.31,1391.68 1918.61,1391.68 1918.61,1270.95 1882.31,1270.95 "/>
<path clip-path="url(#clip872)" d="M1918.61 1225.68 L1918.61 1391.68 L1954.92 1391.68 L1954.92 1225.68 L1918.61 1225.68 L1918.61 1225.68  Z" fill="#ff8c00" fill-rule="evenodd" fill-opacity="1"/>
<polyline clip-path="url(#clip872)" style="stroke:#000000; stroke-linecap:round; stroke-linejoin:round; stroke-width:4; stroke-opacity:1; fill:none" points="1918.61,1225.68 1918.61,1391.68 1954.92,1391.68 1954.92,1225.68 1918.61,1225.68 "/>
<path clip-path="url(#clip872)" d="M1954.92 1237.75 L1954.92 1391.68 L1991.23 1391.68 L1991.23 1237.75 L1954.92 1237.75 L1954.92 1237.75  Z" fill="#ff8c00" fill-rule="evenodd" fill-opacity="1"/>
<polyline clip-path="url(#clip872)" style="stroke:#000000; stroke-linecap:round; stroke-linejoin:round; stroke-width:4; stroke-opacity:1; fill:none" points="1954.92,1237.75 1954.92,1391.68 1991.23,1391.68 1991.23,1237.75 1954.92,1237.75 "/>
<path clip-path="url(#clip872)" d="M1991.23 1322.26 L1991.23 1391.68 L2027.54 1391.68 L2027.54 1322.26 L1991.23 1322.26 L1991.23 1322.26  Z" fill="#ff8c00" fill-rule="evenodd" fill-opacity="1"/>
<polyline clip-path="url(#clip872)" style="stroke:#000000; stroke-linecap:round; stroke-linejoin:round; stroke-width:4; stroke-opacity:1; fill:none" points="1991.23,1322.26 1991.23,1391.68 2027.54,1391.68 2027.54,1322.26 1991.23,1322.26 "/>
<path clip-path="url(#clip872)" d="M2027.54 1289.06 L2027.54 1391.68 L2063.84 1391.68 L2063.84 1289.06 L2027.54 1289.06 L2027.54 1289.06  Z" fill="#ff8c00" fill-rule="evenodd" fill-opacity="1"/>
<polyline clip-path="url(#clip872)" style="stroke:#000000; stroke-linecap:round; stroke-linejoin:round; stroke-width:4; stroke-opacity:1; fill:none" points="2027.54,1289.06 2027.54,1391.68 2063.84,1391.68 2063.84,1289.06 2027.54,1289.06 "/>
<path clip-path="url(#clip872)" d="M2063.84 1328.3 L2063.84 1391.68 L2100.15 1391.68 L2100.15 1328.3 L2063.84 1328.3 L2063.84 1328.3  Z" fill="#ff8c00" fill-rule="evenodd" fill-opacity="1"/>
<polyline clip-path="url(#clip872)" style="stroke:#000000; stroke-linecap:round; stroke-linejoin:round; stroke-width:4; stroke-opacity:1; fill:none" points="2063.84,1328.3 2063.84,1391.68 2100.15,1391.68 2100.15,1328.3 2063.84,1328.3 "/>
<path clip-path="url(#clip872)" d="M2100.15 1325.28 L2100.15 1391.68 L2136.46 1391.68 L2136.46 1325.28 L2100.15 1325.28 L2100.15 1325.28  Z" fill="#ff8c00" fill-rule="evenodd" fill-opacity="1"/>
<polyline clip-path="url(#clip872)" style="stroke:#000000; stroke-linecap:round; stroke-linejoin:round; stroke-width:4; stroke-opacity:1; fill:none" points="2100.15,1325.28 2100.15,1391.68 2136.46,1391.68 2136.46,1325.28 2100.15,1325.28 "/>
<path clip-path="url(#clip872)" d="M2136.46 1240.77 L2136.46 1391.68 L2172.76 1391.68 L2172.76 1240.77 L2136.46 1240.77 L2136.46 1240.77  Z" fill="#ff8c00" fill-rule="evenodd" fill-opacity="1"/>
<polyline clip-path="url(#clip872)" style="stroke:#000000; stroke-linecap:round; stroke-linejoin:round; stroke-width:4; stroke-opacity:1; fill:none" points="2136.46,1240.77 2136.46,1391.68 2172.76,1391.68 2172.76,1240.77 2136.46,1240.77 "/>
<path clip-path="url(#clip872)" d="M2172.76 1168.33 L2172.76 1391.68 L2209.07 1391.68 L2209.07 1168.33 L2172.76 1168.33 L2172.76 1168.33  Z" fill="#ff8c00" fill-rule="evenodd" fill-opacity="1"/>
<polyline clip-path="url(#clip872)" style="stroke:#000000; stroke-linecap:round; stroke-linejoin:round; stroke-width:4; stroke-opacity:1; fill:none" points="2172.76,1168.33 2172.76,1391.68 2209.07,1391.68 2209.07,1168.33 2172.76,1168.33 "/>
<circle clip-path="url(#clip872)" style="fill:#ff8c00; stroke:none; fill-opacity:0" cx="411.867" cy="905.744" r="2"/>
<circle clip-path="url(#clip872)" style="fill:#ff8c00; stroke:none; fill-opacity:0" cx="448.174" cy="368.493" r="2"/>
<circle clip-path="url(#clip872)" style="fill:#ff8c00; stroke:none; fill-opacity:0" cx="484.481" cy="359.438" r="2"/>
<circle clip-path="url(#clip872)" style="fill:#ff8c00; stroke:none; fill-opacity:0" cx="520.788" cy="664.283" r="2"/>
<circle clip-path="url(#clip872)" style="fill:#ff8c00; stroke:none; fill-opacity:0" cx="557.095" cy="404.712" r="2"/>
<circle clip-path="url(#clip872)" style="fill:#ff8c00; stroke:none; fill-opacity:0" cx="593.403" cy="148.16" r="2"/>
<circle clip-path="url(#clip872)" style="fill:#ff8c00; stroke:none; fill-opacity:0" cx="629.71" cy="232.671" r="2"/>
<circle clip-path="url(#clip872)" style="fill:#ff8c00; stroke:none; fill-opacity:0" cx="666.017" cy="78.7402" r="2"/>
<circle clip-path="url(#clip872)" style="fill:#ff8c00; stroke:none; fill-opacity:0" cx="702.324" cy="169.288" r="2"/>
<circle clip-path="url(#clip872)" style="fill:#ff8c00; stroke:none; fill-opacity:0" cx="738.631" cy="184.379" r="2"/>
<circle clip-path="url(#clip872)" style="fill:#ff8c00; stroke:none; fill-opacity:0" cx="774.938" cy="253.799" r="2"/>
<circle clip-path="url(#clip872)" style="fill:#ff8c00; stroke:none; fill-opacity:0" cx="811.246" cy="443.95" r="2"/>
<circle clip-path="url(#clip872)" style="fill:#ff8c00; stroke:none; fill-opacity:0" cx="847.553" cy="504.315" r="2"/>
<circle clip-path="url(#clip872)" style="fill:#ff8c00; stroke:none; fill-opacity:0" cx="883.86" cy="637.118" r="2"/>
<circle clip-path="url(#clip872)" style="fill:#ff8c00; stroke:none; fill-opacity:0" cx="920.167" cy="673.338" r="2"/>
<circle clip-path="url(#clip872)" style="fill:#ff8c00; stroke:none; fill-opacity:0" cx="956.474" cy="368.493" r="2"/>
<circle clip-path="url(#clip872)" style="fill:#ff8c00; stroke:none; fill-opacity:0" cx="992.781" cy="564.68" r="2"/>
<circle clip-path="url(#clip872)" style="fill:#ff8c00; stroke:none; fill-opacity:0" cx="1029.09" cy="715.593" r="2"/>
<circle clip-path="url(#clip872)" style="fill:#ff8c00; stroke:none; fill-opacity:0" cx="1065.4" cy="781.995" r="2"/>
<circle clip-path="url(#clip872)" style="fill:#ff8c00; stroke:none; fill-opacity:0" cx="1101.7" cy="588.826" r="2"/>
<circle clip-path="url(#clip872)" style="fill:#ff8c00; stroke:none; fill-opacity:0" cx="1138.01" cy="824.251" r="2"/>
<circle clip-path="url(#clip872)" style="fill:#ff8c00; stroke:none; fill-opacity:0" cx="1174.32" cy="821.232" r="2"/>
<circle clip-path="url(#clip872)" style="fill:#ff8c00; stroke:none; fill-opacity:0" cx="1210.62" cy="899.707" r="2"/>
<circle clip-path="url(#clip872)" style="fill:#ff8c00; stroke:none; fill-opacity:0" cx="1246.93" cy="1071.75" r="2"/>
<circle clip-path="url(#clip872)" style="fill:#ff8c00; stroke:none; fill-opacity:0" cx="1283.24" cy="969.127" r="2"/>
<circle clip-path="url(#clip872)" style="fill:#ff8c00; stroke:none; fill-opacity:0" cx="1319.55" cy="993.273" r="2"/>
<circle clip-path="url(#clip872)" style="fill:#ff8c00; stroke:none; fill-opacity:0" cx="1355.85" cy="1177.39" r="2"/>
<circle clip-path="url(#clip872)" style="fill:#ff8c00; stroke:none; fill-opacity:0" cx="1392.16" cy="1032.51" r="2"/>
<circle clip-path="url(#clip872)" style="fill:#ff8c00; stroke:none; fill-opacity:0" cx="1428.47" cy="1062.69" r="2"/>
<circle clip-path="url(#clip872)" style="fill:#ff8c00; stroke:none; fill-opacity:0" cx="1464.77" cy="960.072" r="2"/>
<circle clip-path="url(#clip872)" style="fill:#ff8c00; stroke:none; fill-opacity:0" cx="1501.08" cy="951.018" r="2"/>
<circle clip-path="url(#clip872)" style="fill:#ff8c00; stroke:none; fill-opacity:0" cx="1537.39" cy="1002.33" r="2"/>
<circle clip-path="url(#clip872)" style="fill:#ff8c00; stroke:none; fill-opacity:0" cx="1573.7" cy="1204.55" r="2"/>
<circle clip-path="url(#clip872)" style="fill:#ff8c00; stroke:none; fill-opacity:0" cx="1610" cy="1189.46" r="2"/>
<circle clip-path="url(#clip872)" style="fill:#ff8c00; stroke:none; fill-opacity:0" cx="1646.31" cy="1216.62" r="2"/>
<circle clip-path="url(#clip872)" style="fill:#ff8c00; stroke:none; fill-opacity:0" cx="1682.62" cy="1246.81" r="2"/>
<circle clip-path="url(#clip872)" style="fill:#ff8c00; stroke:none; fill-opacity:0" cx="1718.92" cy="1292.08" r="2"/>
<circle clip-path="url(#clip872)" style="fill:#ff8c00; stroke:none; fill-opacity:0" cx="1755.23" cy="1258.88" r="2"/>
<circle clip-path="url(#clip872)" style="fill:#ff8c00; stroke:none; fill-opacity:0" cx="1791.54" cy="1144.19" r="2"/>
<circle clip-path="url(#clip872)" style="fill:#ff8c00; stroke:none; fill-opacity:0" cx="1827.85" cy="1276.99" r="2"/>
<circle clip-path="url(#clip872)" style="fill:#ff8c00; stroke:none; fill-opacity:0" cx="1864.15" cy="1273.97" r="2"/>
<circle clip-path="url(#clip872)" style="fill:#ff8c00; stroke:none; fill-opacity:0" cx="1900.46" cy="1270.95" r="2"/>
<circle clip-path="url(#clip872)" style="fill:#ff8c00; stroke:none; fill-opacity:0" cx="1936.77" cy="1225.68" r="2"/>
<circle clip-path="url(#clip872)" style="fill:#ff8c00; stroke:none; fill-opacity:0" cx="1973.07" cy="1237.75" r="2"/>
<circle clip-path="url(#clip872)" style="fill:#ff8c00; stroke:none; fill-opacity:0" cx="2009.38" cy="1322.26" r="2"/>
<circle clip-path="url(#clip872)" style="fill:#ff8c00; stroke:none; fill-opacity:0" cx="2045.69" cy="1289.06" r="2"/>
<circle clip-path="url(#clip872)" style="fill:#ff8c00; stroke:none; fill-opacity:0" cx="2082" cy="1328.3" r="2"/>
<circle clip-path="url(#clip872)" style="fill:#ff8c00; stroke:none; fill-opacity:0" cx="2118.3" cy="1325.28" r="2"/>
<circle clip-path="url(#clip872)" style="fill:#ff8c00; stroke:none; fill-opacity:0" cx="2154.61" cy="1240.77" r="2"/>
<circle clip-path="url(#clip872)" style="fill:#ff8c00; stroke:none; fill-opacity:0" cx="2190.92" cy="1168.33" r="2"/>
</svg>
