<?xml version="1.0" encoding="utf-8"?>
<svg xmlns="http://www.w3.org/2000/svg" xmlns:xlink="http://www.w3.org/1999/xlink" width="600" height="400" viewBox="0 0 2400 1600">
<defs>
  <clipPath id="clip830">
    <rect x="0" y="0" width="2400" height="1600"/>
  </clipPath>
</defs>
<path clip-path="url(#clip830)" d="M0 1600 L2400 1600 L2400 8.88178e-14 L0 8.88178e-14  Z" fill="#ffffff" fill-rule="evenodd" fill-opacity="1"/>
<defs>
  <clipPath id="clip831">
    <rect x="480" y="0" width="1681" height="1600"/>
  </clipPath>
</defs>
<path clip-path="url(#clip830)" d="M311.2 1391.68 L2321.26 1391.68 L2321.26 78.7402 L311.2 78.7402  Z" fill="#ffffff" fill-rule="evenodd" fill-opacity="1"/>
<defs>
  <clipPath id="clip832">
    <rect x="311" y="78" width="2011" height="1314"/>
  </clipPath>
</defs>
<polyline clip-path="url(#clip832)" style="stroke:#000000; stroke-linecap:round; stroke-linejoin:round; stroke-width:2; stroke-opacity:0.1; fill:none" points="421.757,1391.68 421.757,78.7402 "/>
<polyline clip-path="url(#clip832)" style="stroke:#000000; stroke-linecap:round; stroke-linejoin:round; stroke-width:2; stroke-opacity:0.1; fill:none" points="828.336,1391.68 828.336,78.7402 "/>
<polyline clip-path="url(#clip832)" style="stroke:#000000; stroke-linecap:round; stroke-linejoin:round; stroke-width:2; stroke-opacity:0.1; fill:none" points="1234.91,1391.68 1234.91,78.7402 "/>
<polyline clip-path="url(#clip832)" style="stroke:#000000; stroke-linecap:round; stroke-linejoin:round; stroke-width:2; stroke-opacity:0.1; fill:none" points="1641.49,1391.68 1641.49,78.7402 "/>
<polyline clip-path="url(#clip832)" style="stroke:#000000; stroke-linecap:round; stroke-linejoin:round; stroke-width:2; stroke-opacity:0.1; fill:none" points="2048.07,1391.68 2048.07,78.7402 "/>
<polyline clip-path="url(#clip830)" style="stroke:#000000; stroke-linecap:round; stroke-linejoin:round; stroke-width:4; stroke-opacity:1; fill:none" points="311.2,1391.68 2321.26,1391.68 "/>
<polyline clip-path="url(#clip830)" style="stroke:#000000; stroke-linecap:round; stroke-linejoin:round; stroke-width:4; stroke-opacity:1; fill:none" points="421.757,1391.68 421.757,1372.79 "/>
<polyline clip-path="url(#clip830)" style="stroke:#000000; stroke-linecap:round; stroke-linejoin:round; stroke-width:4; stroke-opacity:1; fill:none" points="828.336,1391.68 828.336,1372.79 "/>
<polyline clip-path="url(#clip830)" style="stroke:#000000; stroke-linecap:round; stroke-linejoin:round; stroke-width:4; stroke-opacity:1; fill:none" points="1234.91,1391.68 1234.91,1372.79 "/>
<polyline clip-path="url(#clip830)" style="stroke:#000000; stroke-linecap:round; stroke-linejoin:round; stroke-width:4; stroke-opacity:1; fill:none" points="1641.49,1391.68 1641.49,1372.79 "/>
<polyline clip-path="url(#clip830)" style="stroke:#000000; stroke-linecap:round; stroke-linejoin:round; stroke-width:4; stroke-opacity:1; fill:none" points="2048.07,1391.68 2048.07,1372.79 "/>
<path clip-path="url(#clip830)" d="M384.06 1422.6 Q380.449 1422.6 378.62 1426.17 Q376.815 1429.71 376.815 1436.84 Q376.815 1443.94 378.62 1447.51 Q380.449 1451.05 384.06 1451.05 Q387.695 1451.05 389.5 1447.51 Q391.329 1443.94 391.329 1436.84 Q391.329 1429.71 389.5 1426.17 Q387.695 1422.6 384.06 1422.6 M384.06 1418.9 Q389.87 1418.9 392.926 1423.51 Q396.005 1428.09 396.005 1436.84 Q396.005 1445.57 392.926 1450.17 Q389.87 1454.76 384.06 1454.76 Q378.25 1454.76 375.171 1450.17 Q372.116 1445.57 372.116 1436.84 Q372.116 1428.09 375.171 1423.51 Q378.25 1418.9 384.06 1418.9 Z" fill="#000000" fill-rule="nonzero" fill-opacity="1" /><path clip-path="url(#clip830)" d="M404.222 1448.2 L409.106 1448.2 L409.106 1454.08 L404.222 1454.08 L404.222 1448.2 Z" fill="#000000" fill-rule="nonzero" fill-opacity="1" /><path clip-path="url(#clip830)" d="M429.292 1422.6 Q425.68 1422.6 423.852 1426.17 Q422.046 1429.71 422.046 1436.84 Q422.046 1443.94 423.852 1447.51 Q425.68 1451.05 429.292 1451.05 Q432.926 1451.05 434.731 1447.51 Q436.56 1443.94 436.56 1436.84 Q436.56 1429.71 434.731 1426.17 Q432.926 1422.6 429.292 1422.6 M429.292 1418.9 Q435.102 1418.9 438.157 1423.51 Q441.236 1428.09 441.236 1436.84 Q441.236 1445.57 438.157 1450.17 Q435.102 1454.76 429.292 1454.76 Q423.481 1454.76 420.403 1450.17 Q417.347 1445.57 417.347 1436.84 Q417.347 1428.09 420.403 1423.51 Q423.481 1418.9 429.292 1418.9 Z" fill="#000000" fill-rule="nonzero" fill-opacity="1" /><path clip-path="url(#clip830)" d="M459.453 1422.6 Q455.842 1422.6 454.014 1426.17 Q452.208 1429.71 452.208 1436.84 Q452.208 1443.94 454.014 1447.51 Q455.842 1451.05 459.453 1451.05 Q463.088 1451.05 464.893 1447.51 Q466.722 1443.94 466.722 1436.84 Q466.722 1429.71 464.893 1426.17 Q463.088 1422.6 459.453 1422.6 M459.453 1418.9 Q465.264 1418.9 468.319 1423.51 Q471.398 1428.09 471.398 1436.84 Q471.398 1445.57 468.319 1450.17 Q465.264 1454.76 459.453 1454.76 Q453.643 1454.76 450.565 1450.17 Q447.509 1445.57 447.509 1436.84 Q447.509 1428.09 450.565 1423.51 Q453.643 1418.9 459.453 1418.9 Z" fill="#000000" fill-rule="nonzero" fill-opacity="1" /><path clip-path="url(#clip830)" d="M791.438 1422.6 Q787.826 1422.6 785.998 1426.17 Q784.192 1429.71 784.192 1436.84 Q784.192 1443.94 785.998 1447.51 Q787.826 1451.05 791.438 1451.05 Q795.072 1451.05 796.877 1447.51 Q798.706 1443.94 798.706 1436.84 Q798.706 1429.71 796.877 1426.17 Q795.072 1422.6 791.438 1422.6 M791.438 1418.9 Q797.248 1418.9 800.303 1423.51 Q803.382 1428.09 803.382 1436.84 Q803.382 1445.57 800.303 1450.17 Q797.248 1454.76 791.438 1454.76 Q785.627 1454.76 782.549 1450.17 Q779.493 1445.57 779.493 1436.84 Q779.493 1428.09 782.549 1423.51 Q785.627 1418.9 791.438 1418.9 Z" fill="#000000" fill-rule="nonzero" fill-opacity="1" /><path clip-path="url(#clip830)" d="M811.599 1448.2 L816.484 1448.2 L816.484 1454.08 L811.599 1454.08 L811.599 1448.2 Z" fill="#000000" fill-rule="nonzero" fill-opacity="1" /><path clip-path="url(#clip830)" d="M836.669 1422.6 Q833.058 1422.6 831.229 1426.17 Q829.423 1429.71 829.423 1436.84 Q829.423 1443.94 831.229 1447.51 Q833.058 1451.05 836.669 1451.05 Q840.303 1451.05 842.109 1447.51 Q843.937 1443.94 843.937 1436.84 Q843.937 1429.71 842.109 1426.17 Q840.303 1422.6 836.669 1422.6 M836.669 1418.9 Q842.479 1418.9 845.534 1423.51 Q848.613 1428.09 848.613 1436.84 Q848.613 1445.57 845.534 1450.17 Q842.479 1454.76 836.669 1454.76 Q830.859 1454.76 827.78 1450.17 Q824.724 1445.57 824.724 1436.84 Q824.724 1428.09 827.78 1423.51 Q830.859 1418.9 836.669 1418.9 Z" fill="#000000" fill-rule="nonzero" fill-opacity="1" /><path clip-path="url(#clip830)" d="M860.858 1450.15 L877.178 1450.15 L877.178 1454.08 L855.234 1454.08 L855.234 1450.15 Q857.896 1447.39 862.479 1442.76 Q867.085 1438.11 868.266 1436.77 Q870.511 1434.25 871.391 1432.51 Q872.294 1430.75 872.294 1429.06 Q872.294 1426.31 870.349 1424.57 Q868.428 1422.83 865.326 1422.83 Q863.127 1422.83 860.673 1423.6 Q858.243 1424.36 855.465 1425.91 L855.465 1421.19 Q858.289 1420.06 860.743 1419.48 Q863.196 1418.9 865.233 1418.9 Q870.604 1418.9 873.798 1421.58 Q876.993 1424.27 876.993 1428.76 Q876.993 1430.89 876.182 1432.81 Q875.395 1434.71 873.289 1437.3 Q872.71 1437.97 869.608 1441.19 Q866.507 1444.38 860.858 1450.15 Z" fill="#000000" fill-rule="nonzero" fill-opacity="1" /><path clip-path="url(#clip830)" d="M1196.97 1422.6 Q1193.36 1422.6 1191.53 1426.17 Q1189.73 1429.71 1189.73 1436.84 Q1189.73 1443.94 1191.53 1447.51 Q1193.36 1451.05 1196.97 1451.05 Q1200.61 1451.05 1202.41 1447.51 Q1204.24 1443.94 1204.24 1436.84 Q1204.24 1429.71 1202.41 1426.17 Q1200.61 1422.6 1196.97 1422.6 M1196.97 1418.9 Q1202.78 1418.9 1205.84 1423.51 Q1208.92 1428.09 1208.92 1436.84 Q1208.92 1445.57 1205.84 1450.17 Q1202.78 1454.76 1196.97 1454.76 Q1191.16 1454.76 1188.09 1450.17 Q1185.03 1445.57 1185.03 1436.84 Q1185.03 1428.09 1188.09 1423.51 Q1191.16 1418.9 1196.97 1418.9 Z" fill="#000000" fill-rule="nonzero" fill-opacity="1" /><path clip-path="url(#clip830)" d="M1217.14 1448.2 L1222.02 1448.2 L1222.02 1454.08 L1217.14 1454.08 L1217.14 1448.2 Z" fill="#000000" fill-rule="nonzero" fill-opacity="1" /><path clip-path="url(#clip830)" d="M1242.21 1422.6 Q1238.59 1422.6 1236.77 1426.17 Q1234.96 1429.71 1234.96 1436.84 Q1234.96 1443.94 1236.77 1447.51 Q1238.59 1451.05 1242.21 1451.05 Q1245.84 1451.05 1247.65 1447.51 Q1249.47 1443.94 1249.47 1436.84 Q1249.47 1429.71 1247.65 1426.17 Q1245.84 1422.6 1242.21 1422.6 M1242.21 1418.9 Q1248.02 1418.9 1251.07 1423.51 Q1254.15 1428.09 1254.15 1436.84 Q1254.15 1445.57 1251.07 1450.17 Q1248.02 1454.76 1242.21 1454.76 Q1236.4 1454.76 1233.32 1450.17 Q1230.26 1445.57 1230.26 1436.84 Q1230.26 1428.09 1233.32 1423.51 Q1236.4 1418.9 1242.21 1418.9 Z" fill="#000000" fill-rule="nonzero" fill-opacity="1" /><path clip-path="url(#clip830)" d="M1275.21 1423.6 L1263.41 1442.05 L1275.21 1442.05 L1275.21 1423.6 M1273.99 1419.52 L1279.87 1419.52 L1279.87 1442.05 L1284.8 1442.05 L1284.8 1445.94 L1279.87 1445.94 L1279.87 1454.08 L1275.21 1454.08 L1275.21 1445.94 L1259.61 1445.94 L1259.61 1441.42 L1273.99 1419.52 Z" fill="#000000" fill-rule="nonzero" fill-opacity="1" /><path clip-path="url(#clip830)" d="M1603.72 1422.6 Q1600.1 1422.6 1598.28 1426.17 Q1596.47 1429.71 1596.47 1436.84 Q1596.47 1443.94 1598.28 1447.51 Q1600.1 1451.05 1603.72 1451.05 Q1607.35 1451.05 1609.16 1447.51 Q1610.98 1443.94 1610.98 1436.84 Q1610.98 1429.71 1609.16 1426.17 Q1607.35 1422.6 1603.72 1422.6 M1603.72 1418.9 Q1609.53 1418.9 1612.58 1423.51 Q1615.66 1428.09 1615.66 1436.84 Q1615.66 1445.57 1612.58 1450.17 Q1609.53 1454.76 1603.72 1454.76 Q1597.91 1454.76 1594.83 1450.17 Q1591.77 1445.57 1591.77 1436.84 Q1591.77 1428.09 1594.83 1423.51 Q1597.91 1418.9 1603.72 1418.9 Z" fill="#000000" fill-rule="nonzero" fill-opacity="1" /><path clip-path="url(#clip830)" d="M1623.88 1448.2 L1628.76 1448.2 L1628.76 1454.08 L1623.88 1454.08 L1623.88 1448.2 Z" fill="#000000" fill-rule="nonzero" fill-opacity="1" /><path clip-path="url(#clip830)" d="M1648.95 1422.6 Q1645.34 1422.6 1643.51 1426.17 Q1641.7 1429.71 1641.7 1436.84 Q1641.7 1443.94 1643.51 1447.51 Q1645.34 1451.05 1648.95 1451.05 Q1652.58 1451.05 1654.39 1447.51 Q1656.21 1443.94 1656.21 1436.84 Q1656.21 1429.71 1654.39 1426.17 Q1652.58 1422.6 1648.95 1422.6 M1648.95 1418.9 Q1654.76 1418.9 1657.81 1423.51 Q1660.89 1428.09 1660.89 1436.84 Q1660.89 1445.57 1657.81 1450.17 Q1654.76 1454.76 1648.95 1454.76 Q1643.14 1454.76 1640.06 1450.17 Q1637 1445.57 1637 1436.84 Q1637 1428.09 1640.06 1423.51 Q1643.14 1418.9 1648.95 1418.9 Z" fill="#000000" fill-rule="nonzero" fill-opacity="1" /><path clip-path="url(#clip830)" d="M1679.69 1434.94 Q1676.54 1434.94 1674.69 1437.09 Q1672.86 1439.25 1672.86 1443 Q1672.86 1446.72 1674.69 1448.9 Q1676.54 1451.05 1679.69 1451.05 Q1682.84 1451.05 1684.66 1448.9 Q1686.52 1446.72 1686.52 1443 Q1686.52 1439.25 1684.66 1437.09 Q1682.84 1434.94 1679.69 1434.94 M1688.97 1420.29 L1688.97 1424.55 Q1687.21 1423.71 1685.4 1423.27 Q1683.62 1422.83 1681.86 1422.83 Q1677.23 1422.83 1674.78 1425.96 Q1672.35 1429.08 1672 1435.4 Q1673.37 1433.39 1675.43 1432.32 Q1677.49 1431.24 1679.96 1431.24 Q1685.17 1431.24 1688.18 1434.41 Q1691.21 1437.56 1691.21 1443 Q1691.21 1448.32 1688.07 1451.54 Q1684.92 1454.76 1679.69 1454.76 Q1673.69 1454.76 1670.52 1450.17 Q1667.35 1445.57 1667.35 1436.84 Q1667.35 1428.64 1671.24 1423.78 Q1675.13 1418.9 1681.68 1418.9 Q1683.44 1418.9 1685.22 1419.25 Q1687.03 1419.59 1688.97 1420.29 Z" fill="#000000" fill-rule="nonzero" fill-opacity="1" /><path clip-path="url(#clip830)" d="M2010.42 1422.6 Q2006.81 1422.6 2004.98 1426.17 Q2003.18 1429.71 2003.18 1436.84 Q2003.18 1443.94 2004.98 1447.51 Q2006.81 1451.05 2010.42 1451.05 Q2014.06 1451.05 2015.86 1447.51 Q2017.69 1443.94 2017.69 1436.84 Q2017.69 1429.71 2015.86 1426.17 Q2014.06 1422.6 2010.42 1422.6 M2010.42 1418.9 Q2016.23 1418.9 2019.29 1423.51 Q2022.37 1428.09 2022.37 1436.84 Q2022.37 1445.57 2019.29 1450.17 Q2016.23 1454.76 2010.42 1454.76 Q2004.61 1454.76 2001.53 1450.17 Q1998.48 1445.57 1998.48 1436.84 Q1998.48 1428.09 2001.53 1423.51 Q2004.61 1418.9 2010.42 1418.9 Z" fill="#000000" fill-rule="nonzero" fill-opacity="1" /><path clip-path="url(#clip830)" d="M2030.58 1448.2 L2035.47 1448.2 L2035.47 1454.08 L2030.58 1454.08 L2030.58 1448.2 Z" fill="#000000" fill-rule="nonzero" fill-opacity="1" /><path clip-path="url(#clip830)" d="M2055.65 1422.6 Q2052.04 1422.6 2050.21 1426.17 Q2048.41 1429.71 2048.41 1436.84 Q2048.41 1443.94 2050.21 1447.51 Q2052.04 1451.05 2055.65 1451.05 Q2059.29 1451.05 2061.09 1447.51 Q2062.92 1443.94 2062.92 1436.84 Q2062.92 1429.71 2061.09 1426.17 Q2059.29 1422.6 2055.65 1422.6 M2055.65 1418.9 Q2061.46 1418.9 2064.52 1423.51 Q2067.6 1428.09 2067.6 1436.84 Q2067.6 1445.57 2064.52 1450.17 Q2061.46 1454.76 2055.65 1454.76 Q2049.84 1454.76 2046.76 1450.17 Q2043.71 1445.57 2043.71 1436.84 Q2043.71 1428.09 2046.76 1423.51 Q2049.84 1418.9 2055.65 1418.9 Z" fill="#000000" fill-rule="nonzero" fill-opacity="1" /><path clip-path="url(#clip830)" d="M2085.81 1437.67 Q2082.48 1437.67 2080.56 1439.45 Q2078.66 1441.24 2078.66 1444.36 Q2078.66 1447.49 2080.56 1449.27 Q2082.48 1451.05 2085.81 1451.05 Q2089.15 1451.05 2091.07 1449.27 Q2092.99 1447.46 2092.99 1444.36 Q2092.99 1441.24 2091.07 1439.45 Q2089.17 1437.67 2085.81 1437.67 M2081.14 1435.68 Q2078.13 1434.94 2076.44 1432.88 Q2074.77 1430.82 2074.77 1427.86 Q2074.77 1423.71 2077.71 1421.31 Q2080.68 1418.9 2085.81 1418.9 Q2090.98 1418.9 2093.92 1421.31 Q2096.86 1423.71 2096.86 1427.86 Q2096.86 1430.82 2095.17 1432.88 Q2093.5 1434.94 2090.51 1435.68 Q2093.89 1436.47 2095.77 1438.76 Q2097.67 1441.05 2097.67 1444.36 Q2097.67 1449.38 2094.59 1452.07 Q2091.53 1454.76 2085.81 1454.76 Q2080.1 1454.76 2077.02 1452.07 Q2073.96 1449.38 2073.96 1444.36 Q2073.96 1441.05 2075.86 1438.76 Q2077.76 1436.47 2081.14 1435.68 M2079.43 1428.3 Q2079.43 1430.98 2081.09 1432.49 Q2082.78 1433.99 2085.81 1433.99 Q2088.82 1433.99 2090.51 1432.49 Q2092.23 1430.98 2092.23 1428.3 Q2092.23 1425.61 2090.51 1424.11 Q2088.82 1422.6 2085.81 1422.6 Q2082.78 1422.6 2081.09 1424.11 Q2079.43 1425.61 2079.43 1428.3 Z" fill="#000000" fill-rule="nonzero" fill-opacity="1" /><path clip-path="url(#clip830)" d="M1319.14 1487.02 L1319.14 1500.17 Q1325.48 1500.17 1329.71 1505.04 Q1334.07 1510 1334.07 1518.76 Q1334.07 1527.51 1329.71 1532.47 Q1325.48 1537.34 1319.14 1537.34 L1319.14 1550.11 L1313.32 1550.11 L1313.32 1537.34 Q1306.98 1537.34 1302.72 1532.47 Q1298.39 1527.51 1298.39 1518.76 Q1298.39 1510 1302.72 1505.04 Q1306.98 1500.17 1313.32 1500.17 L1313.32 1487.02 L1319.14 1487.02 M1319.14 1532.12 Q1322.74 1532.12 1325.19 1528.85 Q1327.86 1525.18 1327.9 1518.76 Q1327.93 1512.39 1325.19 1508.67 Q1322.74 1505.39 1319.14 1505.39 L1319.14 1532.12 M1313.32 1532.12 L1313.32 1505.39 Q1309.72 1505.39 1307.3 1508.67 Q1304.53 1512.39 1304.56 1518.76 Q1304.6 1525.18 1307.3 1528.85 Q1309.72 1532.12 1313.32 1532.12 Z" fill="#000000" fill-rule="nonzero" fill-opacity="1" /><polyline clip-path="url(#clip832)" style="stroke:#000000; stroke-linecap:round; stroke-linejoin:round; stroke-width:2; stroke-opacity:0.1; fill:none" points="311.2,1391.68 2321.26,1391.68 "/>
<polyline clip-path="url(#clip832)" style="stroke:#000000; stroke-linecap:round; stroke-linejoin:round; stroke-width:2; stroke-opacity:0.1; fill:none" points="311.2,1124.74 2321.26,1124.74 "/>
<polyline clip-path="url(#clip832)" style="stroke:#000000; stroke-linecap:round; stroke-linejoin:round; stroke-width:2; stroke-opacity:0.1; fill:none" points="311.2,857.806 2321.26,857.806 "/>
<polyline clip-path="url(#clip832)" style="stroke:#000000; stroke-linecap:round; stroke-linejoin:round; stroke-width:2; stroke-opacity:0.1; fill:none" points="311.2,590.867 2321.26,590.867 "/>
<polyline clip-path="url(#clip832)" style="stroke:#000000; stroke-linecap:round; stroke-linejoin:round; stroke-width:2; stroke-opacity:0.1; fill:none" points="311.2,323.928 2321.26,323.928 "/>
<polyline clip-path="url(#clip830)" style="stroke:#000000; stroke-linecap:round; stroke-linejoin:round; stroke-width:4; stroke-opacity:1; fill:none" points="311.2,1391.68 311.2,78.7402 "/>
<polyline clip-path="url(#clip830)" style="stroke:#000000; stroke-linecap:round; stroke-linejoin:round; stroke-width:4; stroke-opacity:1; fill:none" points="311.2,1391.68 330.098,1391.68 "/>
<polyline clip-path="url(#clip830)" style="stroke:#000000; stroke-linecap:round; stroke-linejoin:round; stroke-width:4; stroke-opacity:1; fill:none" points="311.2,1124.74 330.098,1124.74 "/>
<polyline clip-path="url(#clip830)" style="stroke:#000000; stroke-linecap:round; stroke-linejoin:round; stroke-width:4; stroke-opacity:1; fill:none" points="311.2,857.806 330.098,857.806 "/>
<polyline clip-path="url(#clip830)" style="stroke:#000000; stroke-linecap:round; stroke-linejoin:round; stroke-width:4; stroke-opacity:1; fill:none" points="311.2,590.867 330.098,590.867 "/>
<polyline clip-path="url(#clip830)" style="stroke:#000000; stroke-linecap:round; stroke-linejoin:round; stroke-width:4; stroke-opacity:1; fill:none" points="311.2,323.928 330.098,323.928 "/>
<path clip-path="url(#clip830)" d="M157.701 1377.48 Q154.09 1377.48 152.261 1381.05 Q150.455 1384.59 150.455 1391.72 Q150.455 1398.82 152.261 1402.39 Q154.09 1405.93 157.701 1405.93 Q161.335 1405.93 163.14 1402.39 Q164.969 1398.82 164.969 1391.72 Q164.969 1384.59 163.14 1381.05 Q161.335 1377.48 157.701 1377.48 M157.701 1373.78 Q163.511 1373.78 166.566 1378.39 Q169.645 1382.97 169.645 1391.72 Q169.645 1400.45 166.566 1405.05 Q163.511 1409.64 157.701 1409.64 Q151.89 1409.64 148.812 1405.05 Q145.756 1400.45 145.756 1391.72 Q145.756 1382.97 148.812 1378.39 Q151.89 1373.78 157.701 1373.78 Z" fill="#000000" fill-rule="nonzero" fill-opacity="1" /><path clip-path="url(#clip830)" d="M177.863 1403.08 L182.747 1403.08 L182.747 1408.96 L177.863 1408.96 L177.863 1403.08 Z" fill="#000000" fill-rule="nonzero" fill-opacity="1" /><path clip-path="url(#clip830)" d="M202.932 1377.48 Q199.321 1377.48 197.492 1381.05 Q195.687 1384.59 195.687 1391.72 Q195.687 1398.82 197.492 1402.39 Q199.321 1405.93 202.932 1405.93 Q206.566 1405.93 208.372 1402.39 Q210.2 1398.82 210.2 1391.72 Q210.2 1384.59 208.372 1381.05 Q206.566 1377.48 202.932 1377.48 M202.932 1373.78 Q208.742 1373.78 211.798 1378.39 Q214.876 1382.97 214.876 1391.72 Q214.876 1400.45 211.798 1405.05 Q208.742 1409.64 202.932 1409.64 Q197.122 1409.64 194.043 1405.05 Q190.987 1400.45 190.987 1391.72 Q190.987 1382.97 194.043 1378.39 Q197.122 1373.78 202.932 1373.78 Z" fill="#000000" fill-rule="nonzero" fill-opacity="1" /><path clip-path="url(#clip830)" d="M233.094 1377.48 Q229.483 1377.48 227.654 1381.05 Q225.848 1384.59 225.848 1391.72 Q225.848 1398.82 227.654 1402.39 Q229.483 1405.93 233.094 1405.93 Q236.728 1405.93 238.534 1402.39 Q240.362 1398.82 240.362 1391.72 Q240.362 1384.59 238.534 1381.05 Q236.728 1377.48 233.094 1377.48 M233.094 1373.78 Q238.904 1373.78 241.959 1378.39 Q245.038 1382.97 245.038 1391.72 Q245.038 1400.45 241.959 1405.05 Q238.904 1409.64 233.094 1409.64 Q227.284 1409.64 224.205 1405.05 Q221.149 1400.45 221.149 1391.72 Q221.149 1382.97 224.205 1378.39 Q227.284 1373.78 233.094 1373.78 Z" fill="#000000" fill-rule="nonzero" fill-opacity="1" /><path clip-path="url(#clip830)" d="M263.256 1377.48 Q259.644 1377.48 257.816 1381.05 Q256.01 1384.59 256.01 1391.72 Q256.01 1398.82 257.816 1402.39 Q259.644 1405.93 263.256 1405.93 Q266.89 1405.93 268.695 1402.39 Q270.524 1398.82 270.524 1391.72 Q270.524 1384.59 268.695 1381.05 Q266.89 1377.48 263.256 1377.48 M263.256 1373.78 Q269.066 1373.78 272.121 1378.39 Q275.2 1382.97 275.2 1391.72 Q275.2 1400.45 272.121 1405.05 Q269.066 1409.64 263.256 1409.64 Q257.445 1409.64 254.367 1405.05 Q251.311 1400.45 251.311 1391.72 Q251.311 1382.97 254.367 1378.39 Q257.445 1373.78 263.256 1373.78 Z" fill="#000000" fill-rule="nonzero" fill-opacity="1" /><path clip-path="url(#clip830)" d="M158.696 1110.54 Q155.085 1110.54 153.256 1114.11 Q151.451 1117.65 151.451 1124.78 Q151.451 1131.89 153.256 1135.45 Q155.085 1138.99 158.696 1138.99 Q162.33 1138.99 164.136 1135.45 Q165.964 1131.89 165.964 1124.78 Q165.964 1117.65 164.136 1114.11 Q162.33 1110.54 158.696 1110.54 M158.696 1106.84 Q164.506 1106.84 167.562 1111.45 Q170.64 1116.03 170.64 1124.78 Q170.64 1133.51 167.562 1138.11 Q164.506 1142.7 158.696 1142.7 Q152.886 1142.7 149.807 1138.11 Q146.752 1133.51 146.752 1124.78 Q146.752 1116.03 149.807 1111.45 Q152.886 1106.84 158.696 1106.84 Z" fill="#000000" fill-rule="nonzero" fill-opacity="1" /><path clip-path="url(#clip830)" d="M178.858 1136.15 L183.742 1136.15 L183.742 1142.02 L178.858 1142.02 L178.858 1136.15 Z" fill="#000000" fill-rule="nonzero" fill-opacity="1" /><path clip-path="url(#clip830)" d="M203.927 1110.54 Q200.316 1110.54 198.487 1114.11 Q196.682 1117.65 196.682 1124.78 Q196.682 1131.89 198.487 1135.45 Q200.316 1138.99 203.927 1138.99 Q207.561 1138.99 209.367 1135.45 Q211.196 1131.89 211.196 1124.78 Q211.196 1117.65 209.367 1114.11 Q207.561 1110.54 203.927 1110.54 M203.927 1106.84 Q209.737 1106.84 212.793 1111.45 Q215.872 1116.03 215.872 1124.78 Q215.872 1133.51 212.793 1138.11 Q209.737 1142.7 203.927 1142.7 Q198.117 1142.7 195.038 1138.11 Q191.983 1133.51 191.983 1124.78 Q191.983 1116.03 195.038 1111.45 Q198.117 1106.84 203.927 1106.84 Z" fill="#000000" fill-rule="nonzero" fill-opacity="1" /><path clip-path="url(#clip830)" d="M228.117 1138.09 L244.436 1138.09 L244.436 1142.02 L222.492 1142.02 L222.492 1138.09 Q225.154 1135.34 229.737 1130.71 Q234.344 1126.05 235.524 1124.71 Q237.77 1122.19 238.649 1120.45 Q239.552 1118.69 239.552 1117 Q239.552 1114.25 237.608 1112.51 Q235.686 1110.78 232.584 1110.78 Q230.385 1110.78 227.932 1111.54 Q225.501 1112.3 222.723 1113.85 L222.723 1109.13 Q225.547 1108 228.001 1107.42 Q230.455 1106.84 232.492 1106.84 Q237.862 1106.84 241.057 1109.53 Q244.251 1112.21 244.251 1116.7 Q244.251 1118.83 243.441 1120.75 Q242.654 1122.65 240.547 1125.24 Q239.969 1125.91 236.867 1129.13 Q233.765 1132.33 228.117 1138.09 Z" fill="#000000" fill-rule="nonzero" fill-opacity="1" /><path clip-path="url(#clip830)" d="M254.297 1107.46 L272.654 1107.46 L272.654 1111.4 L258.58 1111.4 L258.58 1119.87 Q259.598 1119.53 260.617 1119.36 Q261.635 1119.18 262.654 1119.18 Q268.441 1119.18 271.82 1122.35 Q275.2 1125.52 275.2 1130.94 Q275.2 1136.52 271.728 1139.62 Q268.256 1142.7 261.936 1142.7 Q259.76 1142.7 257.492 1142.33 Q255.246 1141.96 252.839 1141.21 L252.839 1136.52 Q254.922 1137.65 257.145 1138.21 Q259.367 1138.76 261.844 1138.76 Q265.848 1138.76 268.186 1136.65 Q270.524 1134.55 270.524 1130.94 Q270.524 1127.33 268.186 1125.22 Q265.848 1123.11 261.844 1123.11 Q259.969 1123.11 258.094 1123.53 Q256.242 1123.95 254.297 1124.83 L254.297 1107.46 Z" fill="#000000" fill-rule="nonzero" fill-opacity="1" /><path clip-path="url(#clip830)" d="M157.701 843.605 Q154.09 843.605 152.261 847.17 Q150.455 850.711 150.455 857.841 Q150.455 864.947 152.261 868.512 Q154.09 872.054 157.701 872.054 Q161.335 872.054 163.14 868.512 Q164.969 864.947 164.969 857.841 Q164.969 850.711 163.14 847.17 Q161.335 843.605 157.701 843.605 M157.701 839.901 Q163.511 839.901 166.566 844.508 Q169.645 849.091 169.645 857.841 Q169.645 866.568 166.566 871.174 Q163.511 875.757 157.701 875.757 Q151.89 875.757 148.812 871.174 Q145.756 866.568 145.756 857.841 Q145.756 849.091 148.812 844.508 Q151.89 839.901 157.701 839.901 Z" fill="#000000" fill-rule="nonzero" fill-opacity="1" /><path clip-path="url(#clip830)" d="M177.863 869.207 L182.747 869.207 L182.747 875.086 L177.863 875.086 L177.863 869.207 Z" fill="#000000" fill-rule="nonzero" fill-opacity="1" /><path clip-path="url(#clip830)" d="M202.932 843.605 Q199.321 843.605 197.492 847.17 Q195.687 850.711 195.687 857.841 Q195.687 864.947 197.492 868.512 Q199.321 872.054 202.932 872.054 Q206.566 872.054 208.372 868.512 Q210.2 864.947 210.2 857.841 Q210.2 850.711 208.372 847.17 Q206.566 843.605 202.932 843.605 M202.932 839.901 Q208.742 839.901 211.798 844.508 Q214.876 849.091 214.876 857.841 Q214.876 866.568 211.798 871.174 Q208.742 875.757 202.932 875.757 Q197.122 875.757 194.043 871.174 Q190.987 866.568 190.987 857.841 Q190.987 849.091 194.043 844.508 Q197.122 839.901 202.932 839.901 Z" fill="#000000" fill-rule="nonzero" fill-opacity="1" /><path clip-path="url(#clip830)" d="M223.14 840.526 L241.496 840.526 L241.496 844.461 L227.422 844.461 L227.422 852.933 Q228.441 852.586 229.459 852.424 Q230.478 852.239 231.497 852.239 Q237.284 852.239 240.663 855.41 Q244.043 858.582 244.043 863.998 Q244.043 869.577 240.571 872.679 Q237.098 875.757 230.779 875.757 Q228.603 875.757 226.334 875.387 Q224.089 875.017 221.682 874.276 L221.682 869.577 Q223.765 870.711 225.987 871.267 Q228.209 871.822 230.686 871.822 Q234.691 871.822 237.029 869.716 Q239.367 867.609 239.367 863.998 Q239.367 860.387 237.029 858.281 Q234.691 856.174 230.686 856.174 Q228.811 856.174 226.936 856.591 Q225.084 857.007 223.14 857.887 L223.14 840.526 Z" fill="#000000" fill-rule="nonzero" fill-opacity="1" /><path clip-path="url(#clip830)" d="M263.256 843.605 Q259.644 843.605 257.816 847.17 Q256.01 850.711 256.01 857.841 Q256.01 864.947 257.816 868.512 Q259.644 872.054 263.256 872.054 Q266.89 872.054 268.695 868.512 Q270.524 864.947 270.524 857.841 Q270.524 850.711 268.695 847.17 Q266.89 843.605 263.256 843.605 M263.256 839.901 Q269.066 839.901 272.121 844.508 Q275.2 849.091 275.2 857.841 Q275.2 866.568 272.121 871.174 Q269.066 875.757 263.256 875.757 Q257.445 875.757 254.367 871.174 Q251.311 866.568 251.311 857.841 Q251.311 849.091 254.367 844.508 Q257.445 839.901 263.256 839.901 Z" fill="#000000" fill-rule="nonzero" fill-opacity="1" /><path clip-path="url(#clip830)" d="M158.696 576.666 Q155.085 576.666 153.256 580.231 Q151.451 583.772 151.451 590.902 Q151.451 598.008 153.256 601.573 Q155.085 605.115 158.696 605.115 Q162.33 605.115 164.136 601.573 Q165.964 598.008 165.964 590.902 Q165.964 583.772 164.136 580.231 Q162.33 576.666 158.696 576.666 M158.696 572.962 Q164.506 572.962 167.562 577.569 Q170.64 582.152 170.64 590.902 Q170.64 599.629 167.562 604.235 Q164.506 608.819 158.696 608.819 Q152.886 608.819 149.807 604.235 Q146.752 599.629 146.752 590.902 Q146.752 582.152 149.807 577.569 Q152.886 572.962 158.696 572.962 Z" fill="#000000" fill-rule="nonzero" fill-opacity="1" /><path clip-path="url(#clip830)" d="M178.858 602.268 L183.742 602.268 L183.742 608.147 L178.858 608.147 L178.858 602.268 Z" fill="#000000" fill-rule="nonzero" fill-opacity="1" /><path clip-path="url(#clip830)" d="M203.927 576.666 Q200.316 576.666 198.487 580.231 Q196.682 583.772 196.682 590.902 Q196.682 598.008 198.487 601.573 Q200.316 605.115 203.927 605.115 Q207.561 605.115 209.367 601.573 Q211.196 598.008 211.196 590.902 Q211.196 583.772 209.367 580.231 Q207.561 576.666 203.927 576.666 M203.927 572.962 Q209.737 572.962 212.793 577.569 Q215.872 582.152 215.872 590.902 Q215.872 599.629 212.793 604.235 Q209.737 608.819 203.927 608.819 Q198.117 608.819 195.038 604.235 Q191.983 599.629 191.983 590.902 Q191.983 582.152 195.038 577.569 Q198.117 572.962 203.927 572.962 Z" fill="#000000" fill-rule="nonzero" fill-opacity="1" /><path clip-path="url(#clip830)" d="M222.909 573.587 L245.131 573.587 L245.131 575.578 L232.584 608.147 L227.7 608.147 L239.506 577.522 L222.909 577.522 L222.909 573.587 Z" fill="#000000" fill-rule="nonzero" fill-opacity="1" /><path clip-path="url(#clip830)" d="M254.297 573.587 L272.654 573.587 L272.654 577.522 L258.58 577.522 L258.58 585.995 Q259.598 585.647 260.617 585.485 Q261.635 585.3 262.654 585.3 Q268.441 585.3 271.82 588.471 Q275.2 591.643 275.2 597.059 Q275.2 602.638 271.728 605.74 Q268.256 608.819 261.936 608.819 Q259.76 608.819 257.492 608.448 Q255.246 608.078 252.839 607.337 L252.839 602.638 Q254.922 603.772 257.145 604.328 Q259.367 604.883 261.844 604.883 Q265.848 604.883 268.186 602.777 Q270.524 600.67 270.524 597.059 Q270.524 593.448 268.186 591.342 Q265.848 589.235 261.844 589.235 Q259.969 589.235 258.094 589.652 Q256.242 590.069 254.297 590.948 L254.297 573.587 Z" fill="#000000" fill-rule="nonzero" fill-opacity="1" /><path clip-path="url(#clip830)" d="M157.701 309.727 Q154.09 309.727 152.261 313.292 Q150.455 316.834 150.455 323.963 Q150.455 331.07 152.261 334.634 Q154.09 338.176 157.701 338.176 Q161.335 338.176 163.14 334.634 Q164.969 331.07 164.969 323.963 Q164.969 316.834 163.14 313.292 Q161.335 309.727 157.701 309.727 M157.701 306.023 Q163.511 306.023 166.566 310.63 Q169.645 315.213 169.645 323.963 Q169.645 332.69 166.566 337.296 Q163.511 341.88 157.701 341.88 Q151.89 341.88 148.812 337.296 Q145.756 332.69 145.756 323.963 Q145.756 315.213 148.812 310.63 Q151.89 306.023 157.701 306.023 Z" fill="#000000" fill-rule="nonzero" fill-opacity="1" /><path clip-path="url(#clip830)" d="M177.863 335.329 L182.747 335.329 L182.747 341.208 L177.863 341.208 L177.863 335.329 Z" fill="#000000" fill-rule="nonzero" fill-opacity="1" /><path clip-path="url(#clip830)" d="M193.742 337.273 L201.381 337.273 L201.381 310.908 L193.071 312.574 L193.071 308.315 L201.335 306.648 L206.011 306.648 L206.011 337.273 L213.649 337.273 L213.649 341.208 L193.742 341.208 L193.742 337.273 Z" fill="#000000" fill-rule="nonzero" fill-opacity="1" /><path clip-path="url(#clip830)" d="M233.094 309.727 Q229.483 309.727 227.654 313.292 Q225.848 316.834 225.848 323.963 Q225.848 331.07 227.654 334.634 Q229.483 338.176 233.094 338.176 Q236.728 338.176 238.534 334.634 Q240.362 331.07 240.362 323.963 Q240.362 316.834 238.534 313.292 Q236.728 309.727 233.094 309.727 M233.094 306.023 Q238.904 306.023 241.959 310.63 Q245.038 315.213 245.038 323.963 Q245.038 332.69 241.959 337.296 Q238.904 341.88 233.094 341.88 Q227.284 341.88 224.205 337.296 Q221.149 332.69 221.149 323.963 Q221.149 315.213 224.205 310.63 Q227.284 306.023 233.094 306.023 Z" fill="#000000" fill-rule="nonzero" fill-opacity="1" /><path clip-path="url(#clip830)" d="M263.256 309.727 Q259.644 309.727 257.816 313.292 Q256.01 316.834 256.01 323.963 Q256.01 331.07 257.816 334.634 Q259.644 338.176 263.256 338.176 Q266.89 338.176 268.695 334.634 Q270.524 331.07 270.524 323.963 Q270.524 316.834 268.695 313.292 Q266.89 309.727 263.256 309.727 M263.256 306.023 Q269.066 306.023 272.121 310.63 Q275.2 315.213 275.2 323.963 Q275.2 332.69 272.121 337.296 Q269.066 341.88 263.256 341.88 Q257.445 341.88 254.367 337.296 Q251.311 332.69 251.311 323.963 Q251.311 315.213 254.367 310.63 Q257.445 306.023 263.256 306.023 Z" fill="#000000" fill-rule="nonzero" fill-opacity="1" /><path clip-path="url(#clip830)" d="M53.2638 1079.77 L71.1196 1079.77 L71.1196 1071.69 Q71.1196 1067.2 68.7961 1064.75 Q66.4726 1062.3 62.1757 1062.3 Q57.9107 1062.3 55.5872 1064.75 Q53.2638 1067.2 53.2638 1071.69 L53.2638 1079.77 M47.9802 1086.2 L47.9802 1071.69 Q47.9802 1063.7 51.6087 1059.62 Q55.2053 1055.52 62.1757 1055.52 Q69.2099 1055.52 72.8065 1059.62 Q76.4031 1063.7 76.4031 1071.69 L76.4031 1079.77 L95.5002 1079.77 L95.5002 1086.2 L47.9802 1086.2 Z" fill="#000000" fill-rule="nonzero" fill-opacity="1" /><path clip-path="url(#clip830)" d="M65.3268 1027.64 Q64.7539 1028.62 64.4992 1029.8 Q64.2128 1030.95 64.2128 1032.35 Q64.2128 1037.31 67.4593 1039.99 Q70.674 1042.63 76.7214 1042.63 L95.5002 1042.63 L95.5002 1048.52 L59.8523 1048.52 L59.8523 1042.63 L65.3904 1042.63 Q62.1439 1040.78 60.5843 1037.82 Q58.9929 1034.86 58.9929 1030.63 Q58.9929 1030.02 59.0884 1029.29 Q59.152 1028.56 59.3112 1027.67 L65.3268 1027.64 Z" fill="#000000" fill-rule="nonzero" fill-opacity="1" /><path clip-path="url(#clip830)" d="M63.9581 1009.11 Q63.9581 1013.82 67.6503 1016.56 Q71.3105 1019.3 77.7081 1019.3 Q84.1056 1019.3 87.7977 1016.59 Q91.458 1013.85 91.458 1009.11 Q91.458 1004.43 87.7659 1001.7 Q84.0738 998.959 77.7081 998.959 Q71.3742 998.959 67.6821 1001.7 Q63.9581 1004.43 63.9581 1009.11 M58.9929 1009.11 Q58.9929 1001.47 63.9581 997.113 Q68.9234 992.753 77.7081 992.753 Q86.4609 992.753 91.458 997.113 Q96.4232 1001.47 96.4232 1009.11 Q96.4232 1016.78 91.458 1021.14 Q86.4609 1025.47 77.7081 1025.47 Q68.9234 1025.47 63.9581 1021.14 Q58.9929 1016.78 58.9929 1009.11 Z" fill="#000000" fill-rule="nonzero" fill-opacity="1" /><path clip-path="url(#clip830)" d="M90.153 977.379 L109.059 977.379 L109.059 983.268 L59.8523 983.268 L59.8523 977.379 L65.2631 977.379 Q62.0803 975.533 60.5525 972.732 Q58.9929 969.9 58.9929 965.985 Q58.9929 959.492 64.1491 955.45 Q69.3053 951.375 77.7081 951.375 Q86.1108 951.375 91.267 955.45 Q96.4232 959.492 96.4232 965.985 Q96.4232 969.9 94.8955 972.732 Q93.3359 975.533 90.153 977.379 M77.7081 957.455 Q71.2469 957.455 67.5866 960.128 Q63.8945 962.77 63.8945 967.417 Q63.8945 972.064 67.5866 974.738 Q71.2469 977.379 77.7081 977.379 Q84.1693 977.379 87.8614 974.738 Q91.5217 972.064 91.5217 967.417 Q91.5217 962.77 87.8614 960.128 Q84.1693 957.455 77.7081 957.455 Z" fill="#000000" fill-rule="nonzero" fill-opacity="1" /><path clip-path="url(#clip830)" d="M63.9581 927.854 Q63.9581 932.565 67.6503 935.302 Q71.3105 938.039 77.7081 938.039 Q84.1056 938.039 87.7977 935.334 Q91.458 932.597 91.458 927.854 Q91.458 923.175 87.7659 920.438 Q84.0738 917.701 77.7081 917.701 Q71.3742 917.701 67.6821 920.438 Q63.9581 923.175 63.9581 927.854 M58.9929 927.854 Q58.9929 920.215 63.9581 915.855 Q68.9234 911.494 77.7081 911.494 Q86.4609 911.494 91.458 915.855 Q96.4232 920.215 96.4232 927.854 Q96.4232 935.525 91.458 939.885 Q86.4609 944.214 77.7081 944.214 Q68.9234 944.214 63.9581 939.885 Q58.9929 935.525 58.9929 927.854 Z" fill="#000000" fill-rule="nonzero" fill-opacity="1" /><path clip-path="url(#clip830)" d="M65.3268 881.13 Q64.7539 882.117 64.4992 883.294 Q64.2128 884.44 64.2128 885.841 Q64.2128 890.806 67.4593 893.479 Q70.674 896.121 76.7214 896.121 L95.5002 896.121 L95.5002 902.009 L59.8523 902.009 L59.8523 896.121 L65.3904 896.121 Q62.1439 894.275 60.5843 891.315 Q58.9929 888.355 58.9929 884.122 Q58.9929 883.517 59.0884 882.785 Q59.152 882.053 59.3112 881.162 L65.3268 881.13 Z" fill="#000000" fill-rule="nonzero" fill-opacity="1" /><path clip-path="url(#clip830)" d="M49.7308 869.194 L59.8523 869.194 L59.8523 857.131 L64.4037 857.131 L64.4037 869.194 L83.7555 869.194 Q88.116 869.194 89.3573 868.017 Q90.5986 866.807 90.5986 863.147 L90.5986 857.131 L95.5002 857.131 L95.5002 863.147 Q95.5002 869.926 92.9858 872.504 Q90.4395 875.082 83.7555 875.082 L64.4037 875.082 L64.4037 879.379 L59.8523 879.379 L59.8523 875.082 L49.7308 875.082 L49.7308 869.194 Z" fill="#000000" fill-rule="nonzero" fill-opacity="1" /><path clip-path="url(#clip830)" d="M59.8523 849.429 L59.8523 843.572 L95.5002 843.572 L95.5002 849.429 L59.8523 849.429 M45.975 849.429 L45.975 843.572 L53.3911 843.572 L53.3911 849.429 L45.975 849.429 Z" fill="#000000" fill-rule="nonzero" fill-opacity="1" /><path clip-path="url(#clip830)" d="M63.9581 817.505 Q63.9581 822.215 67.6503 824.953 Q71.3105 827.69 77.7081 827.69 Q84.1056 827.69 87.7977 824.984 Q91.458 822.247 91.458 817.505 Q91.458 812.826 87.7659 810.089 Q84.0738 807.351 77.7081 807.351 Q71.3742 807.351 67.6821 810.089 Q63.9581 812.826 63.9581 817.505 M58.9929 817.505 Q58.9929 809.866 63.9581 805.505 Q68.9234 801.145 77.7081 801.145 Q86.4609 801.145 91.458 805.505 Q96.4232 809.866 96.4232 817.505 Q96.4232 825.175 91.458 829.536 Q86.4609 833.865 77.7081 833.865 Q68.9234 833.865 63.9581 829.536 Q58.9929 825.175 58.9929 817.505 Z" fill="#000000" fill-rule="nonzero" fill-opacity="1" /><path clip-path="url(#clip830)" d="M73.9841 761.805 L95.5002 761.805 L95.5002 767.661 L74.1751 767.661 Q69.1144 767.661 66.5999 769.635 Q64.0855 771.608 64.0855 775.555 Q64.0855 780.297 67.1092 783.034 Q70.1329 785.772 75.3528 785.772 L95.5002 785.772 L95.5002 791.66 L59.8523 791.66 L59.8523 785.772 L65.3904 785.772 Q62.1757 783.671 60.5843 780.838 Q58.9929 777.974 58.9929 774.25 Q58.9929 768.107 62.8123 764.956 Q66.5999 761.805 73.9841 761.805 Z" fill="#000000" fill-rule="nonzero" fill-opacity="1" /><path clip-path="url(#clip830)" d="M63.9581 715.59 Q63.9581 720.3 67.6503 723.038 Q71.3105 725.775 77.7081 725.775 Q84.1056 725.775 87.7977 723.069 Q91.458 720.332 91.458 715.59 Q91.458 710.911 87.7659 708.174 Q84.0738 705.436 77.7081 705.436 Q71.3742 705.436 67.6821 708.174 Q63.9581 710.911 63.9581 715.59 M58.9929 715.59 Q58.9929 707.951 63.9581 703.59 Q68.9234 699.23 77.7081 699.23 Q86.4609 699.23 91.458 703.59 Q96.4232 707.951 96.4232 715.59 Q96.4232 723.26 91.458 727.621 Q86.4609 731.95 77.7081 731.95 Q68.9234 731.95 63.9581 727.621 Q58.9929 723.26 58.9929 715.59 Z" fill="#000000" fill-rule="nonzero" fill-opacity="1" /><path clip-path="url(#clip830)" d="M45.975 671.475 L50.8448 671.475 L50.8448 677.077 Q50.8448 680.228 52.1179 681.469 Q53.3911 682.679 56.7012 682.679 L59.8523 682.679 L59.8523 673.035 L64.4037 673.035 L64.4037 682.679 L95.5002 682.679 L95.5002 688.567 L64.4037 688.567 L64.4037 694.169 L59.8523 694.169 L59.8523 688.567 L57.3696 688.567 Q51.4177 688.567 48.7123 685.798 Q45.975 683.029 45.975 677.013 L45.975 671.475 Z" fill="#000000" fill-rule="nonzero" fill-opacity="1" /><path clip-path="url(#clip830)" d="M60.9026 623.128 L66.4408 623.128 Q65.1676 625.61 64.5311 628.284 Q63.8945 630.958 63.8945 633.822 Q63.8945 638.183 65.2313 640.379 Q66.5681 642.543 69.2417 642.543 Q71.2787 642.543 72.4564 640.984 Q73.6022 639.424 74.6525 634.713 L75.0981 632.708 Q76.4349 626.47 78.8857 623.86 Q81.3047 621.218 85.6652 621.218 Q90.6305 621.218 93.5269 625.165 Q96.4232 629.08 96.4232 635.955 Q96.4232 638.819 95.8503 641.938 Q95.3092 645.026 94.1953 648.463 L88.1478 648.463 Q89.8347 645.217 90.6941 642.066 Q91.5217 638.915 91.5217 635.827 Q91.5217 631.69 90.1212 629.462 Q88.6889 627.234 86.1108 627.234 Q83.7237 627.234 82.4505 628.857 Q81.1774 630.448 79.9997 635.891 L79.5223 637.928 Q78.3765 643.371 76.0212 645.79 Q73.634 648.209 69.4963 648.209 Q64.4674 648.209 61.7301 644.644 Q58.9929 641.079 58.9929 634.522 Q58.9929 631.276 59.4703 628.411 Q59.9477 625.547 60.9026 623.128 Z" fill="#000000" fill-rule="nonzero" fill-opacity="1" /><path clip-path="url(#clip830)" d="M77.5808 595.692 Q77.5808 602.789 79.204 605.527 Q80.8273 608.264 84.7422 608.264 Q87.8614 608.264 89.7074 606.227 Q91.5217 604.158 91.5217 600.625 Q91.5217 595.755 88.0842 592.827 Q84.6149 589.867 78.8857 589.867 L77.5808 589.867 L77.5808 595.692 M75.1618 584.011 L95.5002 584.011 L95.5002 589.867 L90.0894 589.867 Q93.3359 591.872 94.8955 594.864 Q96.4232 597.856 96.4232 602.185 Q96.4232 607.659 93.3677 610.906 Q90.2803 614.12 85.1241 614.12 Q79.1085 614.12 76.053 610.11 Q72.9974 606.068 72.9974 598.079 L72.9974 589.867 L72.4245 589.867 Q68.3823 589.867 66.1861 592.541 Q63.9581 595.182 63.9581 599.988 Q63.9581 603.044 64.6902 605.94 Q65.4223 608.837 66.8864 611.51 L61.4755 611.51 Q60.2342 608.296 59.6295 605.272 Q58.9929 602.248 58.9929 599.384 Q58.9929 591.649 63.0033 587.83 Q67.0137 584.011 75.1618 584.011 Z" fill="#000000" fill-rule="nonzero" fill-opacity="1" /><path clip-path="url(#clip830)" d="M66.6954 544.193 Q62.7487 541.997 60.8708 538.941 Q58.9929 535.886 58.9929 531.748 Q58.9929 526.178 62.9078 523.154 Q66.7909 520.131 73.9841 520.131 L95.5002 520.131 L95.5002 526.019 L74.1751 526.019 Q69.0507 526.019 66.5681 527.833 Q64.0855 529.647 64.0855 533.371 Q64.0855 537.923 67.1092 540.565 Q70.1329 543.206 75.3528 543.206 L95.5002 543.206 L95.5002 549.095 L74.1751 549.095 Q69.0189 549.095 66.5681 550.909 Q64.0855 552.723 64.0855 556.511 Q64.0855 560.998 67.141 563.64 Q70.1647 566.282 75.3528 566.282 L95.5002 566.282 L95.5002 572.17 L59.8523 572.17 L59.8523 566.282 L65.3904 566.282 Q62.1121 564.277 60.5525 561.476 Q58.9929 558.675 58.9929 554.824 Q58.9929 550.941 60.9663 548.235 Q62.9396 545.498 66.6954 544.193 Z" fill="#000000" fill-rule="nonzero" fill-opacity="1" /><path clip-path="url(#clip830)" d="M90.153 502.784 L109.059 502.784 L109.059 508.672 L59.8523 508.672 L59.8523 502.784 L65.2631 502.784 Q62.0803 500.938 60.5525 498.137 Q58.9929 495.304 58.9929 491.389 Q58.9929 484.896 64.1491 480.854 Q69.3053 476.78 77.7081 476.78 Q86.1108 476.78 91.267 480.854 Q96.4232 484.896 96.4232 491.389 Q96.4232 495.304 94.8955 498.137 Q93.3359 500.938 90.153 502.784 M77.7081 482.859 Q71.2469 482.859 67.5866 485.533 Q63.8945 488.175 63.8945 492.822 Q63.8945 497.469 67.5866 500.142 Q71.2469 502.784 77.7081 502.784 Q84.1693 502.784 87.8614 500.142 Q91.5217 497.469 91.5217 492.822 Q91.5217 488.175 87.8614 485.533 Q84.1693 482.859 77.7081 482.859 Z" fill="#000000" fill-rule="nonzero" fill-opacity="1" /><path clip-path="url(#clip830)" d="M45.975 467.072 L45.975 461.216 L95.5002 461.216 L95.5002 467.072 L45.975 467.072 Z" fill="#000000" fill-rule="nonzero" fill-opacity="1" /><path clip-path="url(#clip830)" d="M76.2121 418.47 L79.0767 418.47 L79.0767 445.397 Q85.1241 445.015 88.307 441.769 Q91.458 438.49 91.458 432.666 Q91.458 429.292 90.6305 426.141 Q89.8029 422.958 88.1478 419.839 L93.686 419.839 Q95.0228 422.99 95.723 426.3 Q96.4232 429.61 96.4232 433.016 Q96.4232 441.546 91.458 446.543 Q86.4927 451.508 78.0264 451.508 Q69.2735 451.508 64.1491 446.798 Q58.9929 442.055 58.9929 434.034 Q58.9929 426.841 63.6399 422.672 Q68.255 418.47 76.2121 418.47 M74.4934 424.327 Q69.6873 424.39 66.8227 427.032 Q63.9581 429.642 63.9581 433.971 Q63.9581 438.872 66.7272 441.832 Q69.4963 444.761 74.5252 445.206 L74.4934 424.327 Z" fill="#000000" fill-rule="nonzero" fill-opacity="1" /><path clip-path="url(#clip830)" d="M60.9026 386.133 L66.4408 386.133 Q65.1676 388.615 64.5311 391.289 Q63.8945 393.962 63.8945 396.827 Q63.8945 401.187 65.2313 403.384 Q66.5681 405.548 69.2417 405.548 Q71.2787 405.548 72.4564 403.988 Q73.6022 402.429 74.6525 397.718 L75.0981 395.713 Q76.4349 389.475 78.8857 386.865 Q81.3047 384.223 85.6652 384.223 Q90.6305 384.223 93.5269 388.17 Q96.4232 392.084 96.4232 398.959 Q96.4232 401.824 95.8503 404.943 Q95.3092 408.031 94.1953 411.468 L88.1478 411.468 Q89.8347 408.222 90.6941 405.071 Q91.5217 401.919 91.5217 398.832 Q91.5217 394.694 90.1212 392.466 Q88.6889 390.238 86.1108 390.238 Q83.7237 390.238 82.4505 391.862 Q81.1774 393.453 79.9997 398.896 L79.5223 400.933 Q78.3765 406.375 76.0212 408.794 Q73.634 411.213 69.4963 411.213 Q64.4674 411.213 61.7301 407.649 Q58.9929 404.084 58.9929 397.527 Q58.9929 394.281 59.4703 391.416 Q59.9477 388.551 60.9026 386.133 Z" fill="#000000" fill-rule="nonzero" fill-opacity="1" /><path clip-path="url(#clip832)" d="M421.757 78.7402 L421.757 1391.68 L462.415 1391.68 L462.415 78.7402 L421.757 78.7402 L421.757 78.7402  Z" fill="#ff8c00" fill-rule="evenodd" fill-opacity="1"/>
<polyline clip-path="url(#clip832)" style="stroke:#000000; stroke-linecap:round; stroke-linejoin:round; stroke-width:4; stroke-opacity:1; fill:none" points="421.757,78.7402 421.757,1391.68 462.415,1391.68 462.415,78.7402 421.757,78.7402 "/>
<path clip-path="url(#clip832)" d="M462.415 276.473 L462.415 1391.68 L503.073 1391.68 L503.073 276.473 L462.415 276.473 L462.415 276.473  Z" fill="#ff8c00" fill-rule="evenodd" fill-opacity="1"/>
<polyline clip-path="url(#clip832)" style="stroke:#000000; stroke-linecap:round; stroke-linejoin:round; stroke-width:4; stroke-opacity:1; fill:none" points="462.415,276.473 462.415,1391.68 503.073,1391.68 503.073,276.473 462.415,276.473 "/>
<path clip-path="url(#clip832)" d="M503.073 185.516 L503.073 1391.68 L543.73 1391.68 L543.73 185.516 L503.073 185.516 L503.073 185.516  Z" fill="#ff8c00" fill-rule="evenodd" fill-opacity="1"/>
<polyline clip-path="url(#clip832)" style="stroke:#000000; stroke-linecap:round; stroke-linejoin:round; stroke-width:4; stroke-opacity:1; fill:none" points="503.073,185.516 503.073,1391.68 543.73,1391.68 543.73,185.516 503.073,185.516 "/>
<path clip-path="url(#clip832)" d="M543.73 391.157 L543.73 1391.68 L584.388 1391.68 L584.388 391.157 L543.73 391.157 L543.73 391.157  Z" fill="#ff8c00" fill-rule="evenodd" fill-opacity="1"/>
<polyline clip-path="url(#clip832)" style="stroke:#000000; stroke-linecap:round; stroke-linejoin:round; stroke-width:4; stroke-opacity:1; fill:none" points="543.73,391.157 543.73,1391.68 584.388,1391.68 584.388,391.157 543.73,391.157 "/>
<path clip-path="url(#clip832)" d="M584.388 786.622 L584.388 1391.68 L625.046 1391.68 L625.046 786.622 L584.388 786.622 L584.388 786.622  Z" fill="#ff8c00" fill-rule="evenodd" fill-opacity="1"/>
<polyline clip-path="url(#clip832)" style="stroke:#000000; stroke-linecap:round; stroke-linejoin:round; stroke-width:4; stroke-opacity:1; fill:none" points="584.388,786.622 584.388,1391.68 625.046,1391.68 625.046,786.622 584.388,786.622 "/>
<path clip-path="url(#clip832)" d="M625.046 367.43 L625.046 1391.68 L665.704 1391.68 L665.704 367.43 L625.046 367.43 L625.046 367.43  Z" fill="#ff8c00" fill-rule="evenodd" fill-opacity="1"/>
<polyline clip-path="url(#clip832)" style="stroke:#000000; stroke-linecap:round; stroke-linejoin:round; stroke-width:4; stroke-opacity:1; fill:none" points="625.046,367.43 625.046,1391.68 665.704,1391.68 665.704,367.43 625.046,367.43 "/>
<path clip-path="url(#clip832)" d="M665.704 731.257 L665.704 1391.68 L706.362 1391.68 L706.362 731.257 L665.704 731.257 L665.704 731.257  Z" fill="#ff8c00" fill-rule="evenodd" fill-opacity="1"/>
<polyline clip-path="url(#clip832)" style="stroke:#000000; stroke-linecap:round; stroke-linejoin:round; stroke-width:4; stroke-opacity:1; fill:none" points="665.704,731.257 665.704,1391.68 706.362,1391.68 706.362,731.257 665.704,731.257 "/>
<path clip-path="url(#clip832)" d="M706.362 711.484 L706.362 1391.68 L747.02 1391.68 L747.02 711.484 L706.362 711.484 L706.362 711.484  Z" fill="#ff8c00" fill-rule="evenodd" fill-opacity="1"/>
<polyline clip-path="url(#clip832)" style="stroke:#000000; stroke-linecap:round; stroke-linejoin:round; stroke-width:4; stroke-opacity:1; fill:none" points="706.362,711.484 706.362,1391.68 747.02,1391.68 747.02,711.484 706.362,711.484 "/>
<path clip-path="url(#clip832)" d="M747.02 1051.58 L747.02 1391.68 L787.678 1391.68 L787.678 1051.58 L747.02 1051.58 L747.02 1051.58  Z" fill="#ff8c00" fill-rule="evenodd" fill-opacity="1"/>
<polyline clip-path="url(#clip832)" style="stroke:#000000; stroke-linecap:round; stroke-linejoin:round; stroke-width:4; stroke-opacity:1; fill:none" points="747.02,1051.58 747.02,1391.68 787.678,1391.68 787.678,1051.58 747.02,1051.58 "/>
<path clip-path="url(#clip832)" d="M787.678 747.076 L787.678 1391.68 L828.336 1391.68 L828.336 747.076 L787.678 747.076 L787.678 747.076  Z" fill="#ff8c00" fill-rule="evenodd" fill-opacity="1"/>
<polyline clip-path="url(#clip832)" style="stroke:#000000; stroke-linecap:round; stroke-linejoin:round; stroke-width:4; stroke-opacity:1; fill:none" points="787.678,747.076 787.678,1391.68 828.336,1391.68 828.336,747.076 787.678,747.076 "/>
<path clip-path="url(#clip832)" d="M828.336 1122.77 L828.336 1391.68 L868.993 1391.68 L868.993 1122.77 L828.336 1122.77 L828.336 1122.77  Z" fill="#ff8c00" fill-rule="evenodd" fill-opacity="1"/>
<polyline clip-path="url(#clip832)" style="stroke:#000000; stroke-linecap:round; stroke-linejoin:round; stroke-width:4; stroke-opacity:1; fill:none" points="828.336,1122.77 828.336,1391.68 868.993,1391.68 868.993,1122.77 828.336,1122.77 "/>
<path clip-path="url(#clip832)" d="M868.993 1091.13 L868.993 1391.68 L909.651 1391.68 L909.651 1091.13 L868.993 1091.13 L868.993 1091.13  Z" fill="#ff8c00" fill-rule="evenodd" fill-opacity="1"/>
<polyline clip-path="url(#clip832)" style="stroke:#000000; stroke-linecap:round; stroke-linejoin:round; stroke-width:4; stroke-opacity:1; fill:none" points="868.993,1091.13 868.993,1391.68 909.651,1391.68 909.651,1091.13 868.993,1091.13 "/>
<path clip-path="url(#clip832)" d="M909.651 1142.54 L909.651 1391.68 L950.309 1391.68 L950.309 1142.54 L909.651 1142.54 L909.651 1142.54  Z" fill="#ff8c00" fill-rule="evenodd" fill-opacity="1"/>
<polyline clip-path="url(#clip832)" style="stroke:#000000; stroke-linecap:round; stroke-linejoin:round; stroke-width:4; stroke-opacity:1; fill:none" points="909.651,1142.54 909.651,1391.68 950.309,1391.68 950.309,1142.54 909.651,1142.54 "/>
<path clip-path="url(#clip832)" d="M950.309 1186.04 L950.309 1391.68 L990.967 1391.68 L990.967 1186.04 L950.309 1186.04 L950.309 1186.04  Z" fill="#ff8c00" fill-rule="evenodd" fill-opacity="1"/>
<polyline clip-path="url(#clip832)" style="stroke:#000000; stroke-linecap:round; stroke-linejoin:round; stroke-width:4; stroke-opacity:1; fill:none" points="950.309,1186.04 950.309,1391.68 990.967,1391.68 990.967,1186.04 950.309,1186.04 "/>
<path clip-path="url(#clip832)" d="M990.967 1253.27 L990.967 1391.68 L1031.62 1391.68 L1031.62 1253.27 L990.967 1253.27 L990.967 1253.27  Z" fill="#ff8c00" fill-rule="evenodd" fill-opacity="1"/>
<polyline clip-path="url(#clip832)" style="stroke:#000000; stroke-linecap:round; stroke-linejoin:round; stroke-width:4; stroke-opacity:1; fill:none" points="990.967,1253.27 990.967,1391.68 1031.62,1391.68 1031.62,1253.27 990.967,1253.27 "/>
<path clip-path="url(#clip832)" d="M1031.62 1249.32 L1031.62 1391.68 L1072.28 1391.68 L1072.28 1249.32 L1031.62 1249.32 L1031.62 1249.32  Z" fill="#ff8c00" fill-rule="evenodd" fill-opacity="1"/>
<polyline clip-path="url(#clip832)" style="stroke:#000000; stroke-linecap:round; stroke-linejoin:round; stroke-width:4; stroke-opacity:1; fill:none" points="1031.62,1249.32 1031.62,1391.68 1072.28,1391.68 1072.28,1249.32 1031.62,1249.32 "/>
<path clip-path="url(#clip832)" d="M1072.28 1241.41 L1072.28 1391.68 L1112.94 1391.68 L1112.94 1241.41 L1072.28 1241.41 L1072.28 1241.41  Z" fill="#ff8c00" fill-rule="evenodd" fill-opacity="1"/>
<polyline clip-path="url(#clip832)" style="stroke:#000000; stroke-linecap:round; stroke-linejoin:round; stroke-width:4; stroke-opacity:1; fill:none" points="1072.28,1241.41 1072.28,1391.68 1112.94,1391.68 1112.94,1241.41 1072.28,1241.41 "/>
<path clip-path="url(#clip832)" d="M1112.94 1253.27 L1112.94 1391.68 L1153.6 1391.68 L1153.6 1253.27 L1112.94 1253.27 L1112.94 1253.27  Z" fill="#ff8c00" fill-rule="evenodd" fill-opacity="1"/>
<polyline clip-path="url(#clip832)" style="stroke:#000000; stroke-linecap:round; stroke-linejoin:round; stroke-width:4; stroke-opacity:1; fill:none" points="1112.94,1253.27 1112.94,1391.68 1153.6,1391.68 1153.6,1253.27 1112.94,1253.27 "/>
<path clip-path="url(#clip832)" d="M1153.6 1356.09 L1153.6 1391.68 L1194.26 1391.68 L1194.26 1356.09 L1153.6 1356.09 L1153.6 1356.09  Z" fill="#ff8c00" fill-rule="evenodd" fill-opacity="1"/>
<polyline clip-path="url(#clip832)" style="stroke:#000000; stroke-linecap:round; stroke-linejoin:round; stroke-width:4; stroke-opacity:1; fill:none" points="1153.6,1356.09 1153.6,1391.68 1194.26,1391.68 1194.26,1356.09 1153.6,1356.09 "/>
<path clip-path="url(#clip832)" d="M1194.26 1261.18 L1194.26 1391.68 L1234.91 1391.68 L1234.91 1261.18 L1194.26 1261.18 L1194.26 1261.18  Z" fill="#ff8c00" fill-rule="evenodd" fill-opacity="1"/>
<polyline clip-path="url(#clip832)" style="stroke:#000000; stroke-linecap:round; stroke-linejoin:round; stroke-width:4; stroke-opacity:1; fill:none" points="1194.26,1261.18 1194.26,1391.68 1234.91,1391.68 1234.91,1261.18 1194.26,1261.18 "/>
<path clip-path="url(#clip832)" d="M1234.91 1364 L1234.91 1391.68 L1275.57 1391.68 L1275.57 1364 L1234.91 1364 L1234.91 1364  Z" fill="#ff8c00" fill-rule="evenodd" fill-opacity="1"/>
<polyline clip-path="url(#clip832)" style="stroke:#000000; stroke-linecap:round; stroke-linejoin:round; stroke-width:4; stroke-opacity:1; fill:none" points="1234.91,1364 1234.91,1391.68 1275.57,1391.68 1275.57,1364 1234.91,1364 "/>
<path clip-path="url(#clip832)" d="M1275.57 1300.73 L1275.57 1391.68 L1316.23 1391.68 L1316.23 1300.73 L1275.57 1300.73 L1275.57 1300.73  Z" fill="#ff8c00" fill-rule="evenodd" fill-opacity="1"/>
<polyline clip-path="url(#clip832)" style="stroke:#000000; stroke-linecap:round; stroke-linejoin:round; stroke-width:4; stroke-opacity:1; fill:none" points="1275.57,1300.73 1275.57,1391.68 1316.23,1391.68 1316.23,1300.73 1275.57,1300.73 "/>
<path clip-path="url(#clip832)" d="M1316.23 1340.27 L1316.23 1391.68 L1356.89 1391.68 L1356.89 1340.27 L1316.23 1340.27 L1316.23 1340.27  Z" fill="#ff8c00" fill-rule="evenodd" fill-opacity="1"/>
<polyline clip-path="url(#clip832)" style="stroke:#000000; stroke-linecap:round; stroke-linejoin:round; stroke-width:4; stroke-opacity:1; fill:none" points="1316.23,1340.27 1316.23,1391.68 1356.89,1391.68 1356.89,1340.27 1316.23,1340.27 "/>
<path clip-path="url(#clip832)" d="M1356.89 1356.09 L1356.89 1391.68 L1397.55 1391.68 L1397.55 1356.09 L1356.89 1356.09 L1356.89 1356.09  Z" fill="#ff8c00" fill-rule="evenodd" fill-opacity="1"/>
<polyline clip-path="url(#clip832)" style="stroke:#000000; stroke-linecap:round; stroke-linejoin:round; stroke-width:4; stroke-opacity:1; fill:none" points="1356.89,1356.09 1356.89,1391.68 1397.55,1391.68 1397.55,1356.09 1356.89,1356.09 "/>
<path clip-path="url(#clip832)" d="M1397.55 1383.77 L1397.55 1391.68 L1438.2 1391.68 L1438.2 1383.77 L1397.55 1383.77 L1397.55 1383.77  Z" fill="#ff8c00" fill-rule="evenodd" fill-opacity="1"/>
<polyline clip-path="url(#clip832)" style="stroke:#000000; stroke-linecap:round; stroke-linejoin:round; stroke-width:4; stroke-opacity:1; fill:none" points="1397.55,1383.77 1397.55,1391.68 1438.2,1391.68 1438.2,1383.77 1397.55,1383.77 "/>
<path clip-path="url(#clip832)" d="M1438.2 1367.96 L1438.2 1391.68 L1478.86 1391.68 L1478.86 1367.96 L1438.2 1367.96 L1438.2 1367.96  Z" fill="#ff8c00" fill-rule="evenodd" fill-opacity="1"/>
<polyline clip-path="url(#clip832)" style="stroke:#000000; stroke-linecap:round; stroke-linejoin:round; stroke-width:4; stroke-opacity:1; fill:none" points="1438.2,1367.96 1438.2,1391.68 1478.86,1391.68 1478.86,1367.96 1438.2,1367.96 "/>
<path clip-path="url(#clip832)" d="M1478.86 1360.05 L1478.86 1391.68 L1519.52 1391.68 L1519.52 1360.05 L1478.86 1360.05 L1478.86 1360.05  Z" fill="#ff8c00" fill-rule="evenodd" fill-opacity="1"/>
<polyline clip-path="url(#clip832)" style="stroke:#000000; stroke-linecap:round; stroke-linejoin:round; stroke-width:4; stroke-opacity:1; fill:none" points="1478.86,1360.05 1478.86,1391.68 1519.52,1391.68 1519.52,1360.05 1478.86,1360.05 "/>
<path clip-path="url(#clip832)" d="M1519.52 1360.05 L1519.52 1391.68 L1560.18 1391.68 L1560.18 1360.05 L1519.52 1360.05 L1519.52 1360.05  Z" fill="#ff8c00" fill-rule="evenodd" fill-opacity="1"/>
<polyline clip-path="url(#clip832)" style="stroke:#000000; stroke-linecap:round; stroke-linejoin:round; stroke-width:4; stroke-opacity:1; fill:none" points="1519.52,1360.05 1519.52,1391.68 1560.18,1391.68 1560.18,1360.05 1519.52,1360.05 "/>
<path clip-path="url(#clip832)" d="M1560.18 1387.73 L1560.18 1391.68 L1600.83 1391.68 L1600.83 1387.73 L1560.18 1387.73 L1560.18 1387.73  Z" fill="#ff8c00" fill-rule="evenodd" fill-opacity="1"/>
<polyline clip-path="url(#clip832)" style="stroke:#000000; stroke-linecap:round; stroke-linejoin:round; stroke-width:4; stroke-opacity:1; fill:none" points="1560.18,1387.73 1560.18,1391.68 1600.83,1391.68 1600.83,1387.73 1560.18,1387.73 "/>
<path clip-path="url(#clip832)" d="M1600.83 1391.68 L1600.83 1391.68 L1641.49 1391.68 L1641.49 1391.68 L1600.83 1391.68 L1600.83 1391.68  Z" fill="#ff8c00" fill-rule="evenodd" fill-opacity="1"/>
<polyline clip-path="url(#clip832)" style="stroke:#000000; stroke-linecap:round; stroke-linejoin:round; stroke-width:4; stroke-opacity:1; fill:none" points="1600.83,1391.68 1600.83,1391.68 1641.49,1391.68 1600.83,1391.68 "/>
<path clip-path="url(#clip832)" d="M1641.49 1391.68 L1641.49 1391.68 L1682.15 1391.68 L1682.15 1391.68 L1641.49 1391.68 L1641.49 1391.68  Z" fill="#ff8c00" fill-rule="evenodd" fill-opacity="1"/>
<polyline clip-path="url(#clip832)" style="stroke:#000000; stroke-linecap:round; stroke-linejoin:round; stroke-width:4; stroke-opacity:1; fill:none" points="1641.49,1391.68 1641.49,1391.68 1682.15,1391.68 1641.49,1391.68 "/>
<path clip-path="url(#clip832)" d="M1682.15 1383.77 L1682.15 1391.68 L1722.81 1391.68 L1722.81 1383.77 L1682.15 1383.77 L1682.15 1383.77  Z" fill="#ff8c00" fill-rule="evenodd" fill-opacity="1"/>
<polyline clip-path="url(#clip832)" style="stroke:#000000; stroke-linecap:round; stroke-linejoin:round; stroke-width:4; stroke-opacity:1; fill:none" points="1682.15,1383.77 1682.15,1391.68 1722.81,1391.68 1722.81,1383.77 1682.15,1383.77 "/>
<path clip-path="url(#clip832)" d="M1722.81 1391.68 L1722.81 1391.68 L1763.47 1391.68 L1763.47 1391.68 L1722.81 1391.68 L1722.81 1391.68  Z" fill="#ff8c00" fill-rule="evenodd" fill-opacity="1"/>
<polyline clip-path="url(#clip832)" style="stroke:#000000; stroke-linecap:round; stroke-linejoin:round; stroke-width:4; stroke-opacity:1; fill:none" points="1722.81,1391.68 1722.81,1391.68 1763.47,1391.68 1722.81,1391.68 "/>
<path clip-path="url(#clip832)" d="M1763.47 1391.68 L1763.47 1391.68 L1804.12 1391.68 L1804.12 1391.68 L1763.47 1391.68 L1763.47 1391.68  Z" fill="#ff8c00" fill-rule="evenodd" fill-opacity="1"/>
<polyline clip-path="url(#clip832)" style="stroke:#000000; stroke-linecap:round; stroke-linejoin:round; stroke-width:4; stroke-opacity:1; fill:none" points="1763.47,1391.68 1763.47,1391.68 1804.12,1391.68 1763.47,1391.68 "/>
<path clip-path="url(#clip832)" d="M1804.12 1387.73 L1804.12 1391.68 L1844.78 1391.68 L1844.78 1387.73 L1804.12 1387.73 L1804.12 1387.73  Z" fill="#ff8c00" fill-rule="evenodd" fill-opacity="1"/>
<polyline clip-path="url(#clip832)" style="stroke:#000000; stroke-linecap:round; stroke-linejoin:round; stroke-width:4; stroke-opacity:1; fill:none" points="1804.12,1387.73 1804.12,1391.68 1844.78,1391.68 1844.78,1387.73 1804.12,1387.73 "/>
<path clip-path="url(#clip832)" d="M1844.78 1391.68 L1844.78 1391.68 L1885.44 1391.68 L1885.44 1391.68 L1844.78 1391.68 L1844.78 1391.68  Z" fill="#ff8c00" fill-rule="evenodd" fill-opacity="1"/>
<polyline clip-path="url(#clip832)" style="stroke:#000000; stroke-linecap:round; stroke-linejoin:round; stroke-width:4; stroke-opacity:1; fill:none" points="1844.78,1391.68 1844.78,1391.68 1885.44,1391.68 1844.78,1391.68 "/>
<path clip-path="url(#clip832)" d="M1885.44 1391.68 L1885.44 1391.68 L1926.1 1391.68 L1926.1 1391.68 L1885.44 1391.68 L1885.44 1391.68  Z" fill="#ff8c00" fill-rule="evenodd" fill-opacity="1"/>
<polyline clip-path="url(#clip832)" style="stroke:#000000; stroke-linecap:round; stroke-linejoin:round; stroke-width:4; stroke-opacity:1; fill:none" points="1885.44,1391.68 1885.44,1391.68 1926.1,1391.68 1885.44,1391.68 "/>
<path clip-path="url(#clip832)" d="M1926.1 1387.73 L1926.1 1391.68 L1966.76 1391.68 L1966.76 1387.73 L1926.1 1387.73 L1926.1 1387.73  Z" fill="#ff8c00" fill-rule="evenodd" fill-opacity="1"/>
<polyline clip-path="url(#clip832)" style="stroke:#000000; stroke-linecap:round; stroke-linejoin:round; stroke-width:4; stroke-opacity:1; fill:none" points="1926.1,1387.73 1926.1,1391.68 1966.76,1391.68 1966.76,1387.73 1926.1,1387.73 "/>
<path clip-path="url(#clip832)" d="M1966.76 1391.68 L1966.76 1391.68 L2007.41 1391.68 L2007.41 1391.68 L1966.76 1391.68 L1966.76 1391.68  Z" fill="#ff8c00" fill-rule="evenodd" fill-opacity="1"/>
<polyline clip-path="url(#clip832)" style="stroke:#000000; stroke-linecap:round; stroke-linejoin:round; stroke-width:4; stroke-opacity:1; fill:none" points="1966.76,1391.68 1966.76,1391.68 2007.41,1391.68 1966.76,1391.68 "/>
<path clip-path="url(#clip832)" d="M2007.41 1391.68 L2007.41 1391.68 L2048.07 1391.68 L2048.07 1391.68 L2007.41 1391.68 L2007.41 1391.68  Z" fill="#ff8c00" fill-rule="evenodd" fill-opacity="1"/>
<polyline clip-path="url(#clip832)" style="stroke:#000000; stroke-linecap:round; stroke-linejoin:round; stroke-width:4; stroke-opacity:1; fill:none" points="2007.41,1391.68 2007.41,1391.68 2048.07,1391.68 2007.41,1391.68 "/>
<path clip-path="url(#clip832)" d="M2048.07 1391.68 L2048.07 1391.68 L2088.73 1391.68 L2088.73 1391.68 L2048.07 1391.68 L2048.07 1391.68  Z" fill="#ff8c00" fill-rule="evenodd" fill-opacity="1"/>
<polyline clip-path="url(#clip832)" style="stroke:#000000; stroke-linecap:round; stroke-linejoin:round; stroke-width:4; stroke-opacity:1; fill:none" points="2048.07,1391.68 2048.07,1391.68 2088.73,1391.68 2048.07,1391.68 "/>
<path clip-path="url(#clip832)" d="M2088.73 1391.68 L2088.73 1391.68 L2129.39 1391.68 L2129.39 1391.68 L2088.73 1391.68 L2088.73 1391.68  Z" fill="#ff8c00" fill-rule="evenodd" fill-opacity="1"/>
<polyline clip-path="url(#clip832)" style="stroke:#000000; stroke-linecap:round; stroke-linejoin:round; stroke-width:4; stroke-opacity:1; fill:none" points="2088.73,1391.68 2088.73,1391.68 2129.39,1391.68 2088.73,1391.68 "/>
<path clip-path="url(#clip832)" d="M2129.39 1391.68 L2129.39 1391.68 L2170.05 1391.68 L2170.05 1391.68 L2129.39 1391.68 L2129.39 1391.68  Z" fill="#ff8c00" fill-rule="evenodd" fill-opacity="1"/>
<polyline clip-path="url(#clip832)" style="stroke:#000000; stroke-linecap:round; stroke-linejoin:round; stroke-width:4; stroke-opacity:1; fill:none" points="2129.39,1391.68 2129.39,1391.68 2170.05,1391.68 2129.39,1391.68 "/>
<path clip-path="url(#clip832)" d="M2170.05 1383.77 L2170.05 1391.68 L2210.7 1391.68 L2210.7 1383.77 L2170.05 1383.77 L2170.05 1383.77  Z" fill="#ff8c00" fill-rule="evenodd" fill-opacity="1"/>
<polyline clip-path="url(#clip832)" style="stroke:#000000; stroke-linecap:round; stroke-linejoin:round; stroke-width:4; stroke-opacity:1; fill:none" points="2170.05,1383.77 2170.05,1391.68 2210.7,1391.68 2210.7,1383.77 2170.05,1383.77 "/>
<circle clip-path="url(#clip832)" style="fill:#ff8c00; stroke:none; fill-opacity:0" cx="442.086" cy="78.7402" r="2"/>
<circle clip-path="url(#clip832)" style="fill:#ff8c00; stroke:none; fill-opacity:0" cx="482.744" cy="276.473" r="2"/>
<circle clip-path="url(#clip832)" style="fill:#ff8c00; stroke:none; fill-opacity:0" cx="523.402" cy="185.516" r="2"/>
<circle clip-path="url(#clip832)" style="fill:#ff8c00; stroke:none; fill-opacity:0" cx="564.059" cy="391.157" r="2"/>
<circle clip-path="url(#clip832)" style="fill:#ff8c00; stroke:none; fill-opacity:0" cx="604.717" cy="786.622" r="2"/>
<circle clip-path="url(#clip832)" style="fill:#ff8c00; stroke:none; fill-opacity:0" cx="645.375" cy="367.43" r="2"/>
<circle clip-path="url(#clip832)" style="fill:#ff8c00; stroke:none; fill-opacity:0" cx="686.033" cy="731.257" r="2"/>
<circle clip-path="url(#clip832)" style="fill:#ff8c00; stroke:none; fill-opacity:0" cx="726.691" cy="711.484" r="2"/>
<circle clip-path="url(#clip832)" style="fill:#ff8c00; stroke:none; fill-opacity:0" cx="767.349" cy="1051.58" r="2"/>
<circle clip-path="url(#clip832)" style="fill:#ff8c00; stroke:none; fill-opacity:0" cx="808.007" cy="747.076" r="2"/>
<circle clip-path="url(#clip832)" style="fill:#ff8c00; stroke:none; fill-opacity:0" cx="848.664" cy="1122.77" r="2"/>
<circle clip-path="url(#clip832)" style="fill:#ff8c00; stroke:none; fill-opacity:0" cx="889.322" cy="1091.13" r="2"/>
<circle clip-path="url(#clip832)" style="fill:#ff8c00; stroke:none; fill-opacity:0" cx="929.98" cy="1142.54" r="2"/>
<circle clip-path="url(#clip832)" style="fill:#ff8c00; stroke:none; fill-opacity:0" cx="970.638" cy="1186.04" r="2"/>
<circle clip-path="url(#clip832)" style="fill:#ff8c00; stroke:none; fill-opacity:0" cx="1011.3" cy="1253.27" r="2"/>
<circle clip-path="url(#clip832)" style="fill:#ff8c00; stroke:none; fill-opacity:0" cx="1051.95" cy="1249.32" r="2"/>
<circle clip-path="url(#clip832)" style="fill:#ff8c00; stroke:none; fill-opacity:0" cx="1092.61" cy="1241.41" r="2"/>
<circle clip-path="url(#clip832)" style="fill:#ff8c00; stroke:none; fill-opacity:0" cx="1133.27" cy="1253.27" r="2"/>
<circle clip-path="url(#clip832)" style="fill:#ff8c00; stroke:none; fill-opacity:0" cx="1173.93" cy="1356.09" r="2"/>
<circle clip-path="url(#clip832)" style="fill:#ff8c00; stroke:none; fill-opacity:0" cx="1214.59" cy="1261.18" r="2"/>
<circle clip-path="url(#clip832)" style="fill:#ff8c00; stroke:none; fill-opacity:0" cx="1255.24" cy="1364" r="2"/>
<circle clip-path="url(#clip832)" style="fill:#ff8c00; stroke:none; fill-opacity:0" cx="1295.9" cy="1300.73" r="2"/>
<circle clip-path="url(#clip832)" style="fill:#ff8c00; stroke:none; fill-opacity:0" cx="1336.56" cy="1340.27" r="2"/>
<circle clip-path="url(#clip832)" style="fill:#ff8c00; stroke:none; fill-opacity:0" cx="1377.22" cy="1356.09" r="2"/>
<circle clip-path="url(#clip832)" style="fill:#ff8c00; stroke:none; fill-opacity:0" cx="1417.87" cy="1383.77" r="2"/>
<circle clip-path="url(#clip832)" style="fill:#ff8c00; stroke:none; fill-opacity:0" cx="1458.53" cy="1367.96" r="2"/>
<circle clip-path="url(#clip832)" style="fill:#ff8c00; stroke:none; fill-opacity:0" cx="1499.19" cy="1360.05" r="2"/>
<circle clip-path="url(#clip832)" style="fill:#ff8c00; stroke:none; fill-opacity:0" cx="1539.85" cy="1360.05" r="2"/>
<circle clip-path="url(#clip832)" style="fill:#ff8c00; stroke:none; fill-opacity:0" cx="1580.51" cy="1387.73" r="2"/>
<circle clip-path="url(#clip832)" style="fill:#ff8c00; stroke:none; fill-opacity:0" cx="1621.16" cy="1391.68" r="2"/>
<circle clip-path="url(#clip832)" style="fill:#ff8c00; stroke:none; fill-opacity:0" cx="1661.82" cy="1391.68" r="2"/>
<circle clip-path="url(#clip832)" style="fill:#ff8c00; stroke:none; fill-opacity:0" cx="1702.48" cy="1383.77" r="2"/>
<circle clip-path="url(#clip832)" style="fill:#ff8c00; stroke:none; fill-opacity:0" cx="1743.14" cy="1391.68" r="2"/>
<circle clip-path="url(#clip832)" style="fill:#ff8c00; stroke:none; fill-opacity:0" cx="1783.8" cy="1391.68" r="2"/>
<circle clip-path="url(#clip832)" style="fill:#ff8c00; stroke:none; fill-opacity:0" cx="1824.45" cy="1387.73" r="2"/>
<circle clip-path="url(#clip832)" style="fill:#ff8c00; stroke:none; fill-opacity:0" cx="1865.11" cy="1391.68" r="2"/>
<circle clip-path="url(#clip832)" style="fill:#ff8c00; stroke:none; fill-opacity:0" cx="1905.77" cy="1391.68" r="2"/>
<circle clip-path="url(#clip832)" style="fill:#ff8c00; stroke:none; fill-opacity:0" cx="1946.43" cy="1387.73" r="2"/>
<circle clip-path="url(#clip832)" style="fill:#ff8c00; stroke:none; fill-opacity:0" cx="1987.08" cy="1391.68" r="2"/>
<circle clip-path="url(#clip832)" style="fill:#ff8c00; stroke:none; fill-opacity:0" cx="2027.74" cy="1391.68" r="2"/>
<circle clip-path="url(#clip832)" style="fill:#ff8c00; stroke:none; fill-opacity:0" cx="2068.4" cy="1391.68" r="2"/>
<circle clip-path="url(#clip832)" style="fill:#ff8c00; stroke:none; fill-opacity:0" cx="2109.06" cy="1391.68" r="2"/>
<circle clip-path="url(#clip832)" style="fill:#ff8c00; stroke:none; fill-opacity:0" cx="2149.72" cy="1391.68" r="2"/>
<circle clip-path="url(#clip832)" style="fill:#ff8c00; stroke:none; fill-opacity:0" cx="2190.37" cy="1383.77" r="2"/>
</svg>
