<?xml version="1.0" encoding="utf-8"?>
<svg xmlns="http://www.w3.org/2000/svg" xmlns:xlink="http://www.w3.org/1999/xlink" width="600" height="400" viewBox="0 0 2400 1600">
<defs>
  <clipPath id="clip910">
    <rect x="0" y="0" width="2400" height="1600"/>
  </clipPath>
</defs>
<path clip-path="url(#clip910)" d="M0 1600 L2400 1600 L2400 8.88178e-14 L0 8.88178e-14  Z" fill="#ffffff" fill-rule="evenodd" fill-opacity="1"/>
<defs>
  <clipPath id="clip911">
    <rect x="480" y="0" width="1681" height="1600"/>
  </clipPath>
</defs>
<path clip-path="url(#clip910)" d="M281.038 1391.68 L2321.26 1391.68 L2321.26 78.7402 L281.038 78.7402  Z" fill="#ffffff" fill-rule="evenodd" fill-opacity="1"/>
<defs>
  <clipPath id="clip912">
    <rect x="281" y="78" width="2041" height="1314"/>
  </clipPath>
</defs>
<polyline clip-path="url(#clip912)" style="stroke:#000000; stroke-linecap:round; stroke-linejoin:round; stroke-width:2; stroke-opacity:0.1; fill:none" points="393.254,1391.68 393.254,78.7402 "/>
<polyline clip-path="url(#clip912)" style="stroke:#000000; stroke-linecap:round; stroke-linejoin:round; stroke-width:2; stroke-opacity:0.1; fill:none" points="796.763,1391.68 796.763,78.7402 "/>
<polyline clip-path="url(#clip912)" style="stroke:#000000; stroke-linecap:round; stroke-linejoin:round; stroke-width:2; stroke-opacity:0.1; fill:none" points="1200.27,1391.68 1200.27,78.7402 "/>
<polyline clip-path="url(#clip912)" style="stroke:#000000; stroke-linecap:round; stroke-linejoin:round; stroke-width:2; stroke-opacity:0.1; fill:none" points="1603.78,1391.68 1603.78,78.7402 "/>
<polyline clip-path="url(#clip912)" style="stroke:#000000; stroke-linecap:round; stroke-linejoin:round; stroke-width:2; stroke-opacity:0.1; fill:none" points="2007.29,1391.68 2007.29,78.7402 "/>
<polyline clip-path="url(#clip910)" style="stroke:#000000; stroke-linecap:round; stroke-linejoin:round; stroke-width:4; stroke-opacity:1; fill:none" points="281.038,1391.68 2321.26,1391.68 "/>
<polyline clip-path="url(#clip910)" style="stroke:#000000; stroke-linecap:round; stroke-linejoin:round; stroke-width:4; stroke-opacity:1; fill:none" points="393.254,1391.68 393.254,1372.79 "/>
<polyline clip-path="url(#clip910)" style="stroke:#000000; stroke-linecap:round; stroke-linejoin:round; stroke-width:4; stroke-opacity:1; fill:none" points="796.763,1391.68 796.763,1372.79 "/>
<polyline clip-path="url(#clip910)" style="stroke:#000000; stroke-linecap:round; stroke-linejoin:round; stroke-width:4; stroke-opacity:1; fill:none" points="1200.27,1391.68 1200.27,1372.79 "/>
<polyline clip-path="url(#clip910)" style="stroke:#000000; stroke-linecap:round; stroke-linejoin:round; stroke-width:4; stroke-opacity:1; fill:none" points="1603.78,1391.68 1603.78,1372.79 "/>
<polyline clip-path="url(#clip910)" style="stroke:#000000; stroke-linecap:round; stroke-linejoin:round; stroke-width:4; stroke-opacity:1; fill:none" points="2007.29,1391.68 2007.29,1372.79 "/>
<path clip-path="url(#clip910)" d="M370.638 1422.6 Q367.027 1422.6 365.199 1426.17 Q363.393 1429.71 363.393 1436.84 Q363.393 1443.94 365.199 1447.51 Q367.027 1451.05 370.638 1451.05 Q374.273 1451.05 376.078 1447.51 Q377.907 1443.94 377.907 1436.84 Q377.907 1429.71 376.078 1426.17 Q374.273 1422.6 370.638 1422.6 M370.638 1418.9 Q376.448 1418.9 379.504 1423.51 Q382.583 1428.09 382.583 1436.84 Q382.583 1445.57 379.504 1450.17 Q376.448 1454.76 370.638 1454.76 Q364.828 1454.76 361.749 1450.17 Q358.694 1445.57 358.694 1436.84 Q358.694 1428.09 361.749 1423.51 Q364.828 1418.9 370.638 1418.9 Z" fill="#000000" fill-rule="nonzero" fill-opacity="1" /><path clip-path="url(#clip910)" d="M390.8 1448.2 L395.684 1448.2 L395.684 1454.08 L390.8 1454.08 L390.8 1448.2 Z" fill="#000000" fill-rule="nonzero" fill-opacity="1" /><path clip-path="url(#clip910)" d="M415.87 1422.6 Q412.258 1422.6 410.43 1426.17 Q408.624 1429.71 408.624 1436.84 Q408.624 1443.94 410.43 1447.51 Q412.258 1451.05 415.87 1451.05 Q419.504 1451.05 421.309 1447.51 Q423.138 1443.94 423.138 1436.84 Q423.138 1429.71 421.309 1426.17 Q419.504 1422.6 415.87 1422.6 M415.87 1418.9 Q421.68 1418.9 424.735 1423.51 Q427.814 1428.09 427.814 1436.84 Q427.814 1445.57 424.735 1450.17 Q421.68 1454.76 415.87 1454.76 Q410.059 1454.76 406.981 1450.17 Q403.925 1445.57 403.925 1436.84 Q403.925 1428.09 406.981 1423.51 Q410.059 1418.9 415.87 1418.9 Z" fill="#000000" fill-rule="nonzero" fill-opacity="1" /><path clip-path="url(#clip910)" d="M774.471 1422.6 Q770.86 1422.6 769.031 1426.17 Q767.226 1429.71 767.226 1436.84 Q767.226 1443.94 769.031 1447.51 Q770.86 1451.05 774.471 1451.05 Q778.106 1451.05 779.911 1447.51 Q781.74 1443.94 781.74 1436.84 Q781.74 1429.71 779.911 1426.17 Q778.106 1422.6 774.471 1422.6 M774.471 1418.9 Q780.281 1418.9 783.337 1423.51 Q786.416 1428.09 786.416 1436.84 Q786.416 1445.57 783.337 1450.17 Q780.281 1454.76 774.471 1454.76 Q768.661 1454.76 765.582 1450.17 Q762.527 1445.57 762.527 1436.84 Q762.527 1428.09 765.582 1423.51 Q768.661 1418.9 774.471 1418.9 Z" fill="#000000" fill-rule="nonzero" fill-opacity="1" /><path clip-path="url(#clip910)" d="M794.633 1448.2 L799.517 1448.2 L799.517 1454.08 L794.633 1454.08 L794.633 1448.2 Z" fill="#000000" fill-rule="nonzero" fill-opacity="1" /><path clip-path="url(#clip910)" d="M823.869 1435.45 Q827.226 1436.17 829.101 1438.44 Q830.999 1440.7 830.999 1444.04 Q830.999 1449.15 827.48 1451.95 Q823.962 1454.76 817.48 1454.76 Q815.304 1454.76 812.99 1454.32 Q810.698 1453.9 808.244 1453.04 L808.244 1448.53 Q810.189 1449.66 812.503 1450.24 Q814.818 1450.82 817.341 1450.82 Q821.74 1450.82 824.031 1449.08 Q826.346 1447.35 826.346 1444.04 Q826.346 1440.98 824.193 1439.27 Q822.064 1437.53 818.244 1437.53 L814.216 1437.53 L814.216 1433.69 L818.429 1433.69 Q821.878 1433.69 823.707 1432.32 Q825.536 1430.94 825.536 1428.34 Q825.536 1425.68 823.638 1424.27 Q821.763 1422.83 818.244 1422.83 Q816.323 1422.83 814.124 1423.25 Q811.925 1423.67 809.286 1424.55 L809.286 1420.38 Q811.948 1419.64 814.263 1419.27 Q816.601 1418.9 818.661 1418.9 Q823.985 1418.9 827.087 1421.33 Q830.189 1423.74 830.189 1427.86 Q830.189 1430.73 828.545 1432.72 Q826.902 1434.69 823.869 1435.45 Z" fill="#000000" fill-rule="nonzero" fill-opacity="1" /><path clip-path="url(#clip910)" d="M1177.58 1422.6 Q1173.96 1422.6 1172.14 1426.17 Q1170.33 1429.71 1170.33 1436.84 Q1170.33 1443.94 1172.14 1447.51 Q1173.96 1451.05 1177.58 1451.05 Q1181.21 1451.05 1183.01 1447.51 Q1184.84 1443.94 1184.84 1436.84 Q1184.84 1429.71 1183.01 1426.17 Q1181.21 1422.6 1177.58 1422.6 M1177.58 1418.9 Q1183.39 1418.9 1186.44 1423.51 Q1189.52 1428.09 1189.52 1436.84 Q1189.52 1445.57 1186.44 1450.17 Q1183.39 1454.76 1177.58 1454.76 Q1171.76 1454.76 1168.69 1450.17 Q1165.63 1445.57 1165.63 1436.84 Q1165.63 1428.09 1168.69 1423.51 Q1171.76 1418.9 1177.58 1418.9 Z" fill="#000000" fill-rule="nonzero" fill-opacity="1" /><path clip-path="url(#clip910)" d="M1197.74 1448.2 L1202.62 1448.2 L1202.62 1454.08 L1197.74 1454.08 L1197.74 1448.2 Z" fill="#000000" fill-rule="nonzero" fill-opacity="1" /><path clip-path="url(#clip910)" d="M1223.39 1434.94 Q1220.24 1434.94 1218.39 1437.09 Q1216.56 1439.25 1216.56 1443 Q1216.56 1446.72 1218.39 1448.9 Q1220.24 1451.05 1223.39 1451.05 Q1226.53 1451.05 1228.36 1448.9 Q1230.21 1446.72 1230.21 1443 Q1230.21 1439.25 1228.36 1437.09 Q1226.53 1434.94 1223.39 1434.94 M1232.67 1420.29 L1232.67 1424.55 Q1230.91 1423.71 1229.1 1423.27 Q1227.32 1422.83 1225.56 1422.83 Q1220.93 1422.83 1218.48 1425.96 Q1216.05 1429.08 1215.7 1435.4 Q1217.07 1433.39 1219.13 1432.32 Q1221.19 1431.24 1223.66 1431.24 Q1228.87 1431.24 1231.88 1434.41 Q1234.91 1437.56 1234.91 1443 Q1234.91 1448.32 1231.76 1451.54 Q1228.62 1454.76 1223.39 1454.76 Q1217.39 1454.76 1214.22 1450.17 Q1211.05 1445.57 1211.05 1436.84 Q1211.05 1428.64 1214.94 1423.78 Q1218.82 1418.9 1225.38 1418.9 Q1227.14 1418.9 1228.92 1419.25 Q1230.72 1419.59 1232.67 1420.29 Z" fill="#000000" fill-rule="nonzero" fill-opacity="1" /><path clip-path="url(#clip910)" d="M1581.26 1422.6 Q1577.65 1422.6 1575.82 1426.17 Q1574.01 1429.71 1574.01 1436.84 Q1574.01 1443.94 1575.82 1447.51 Q1577.65 1451.05 1581.26 1451.05 Q1584.89 1451.05 1586.7 1447.51 Q1588.53 1443.94 1588.53 1436.84 Q1588.53 1429.71 1586.7 1426.17 Q1584.89 1422.6 1581.26 1422.6 M1581.26 1418.9 Q1587.07 1418.9 1590.12 1423.51 Q1593.2 1428.09 1593.2 1436.84 Q1593.2 1445.57 1590.12 1450.17 Q1587.07 1454.76 1581.26 1454.76 Q1575.45 1454.76 1572.37 1450.17 Q1569.31 1445.57 1569.31 1436.84 Q1569.31 1428.09 1572.37 1423.51 Q1575.45 1418.9 1581.26 1418.9 Z" fill="#000000" fill-rule="nonzero" fill-opacity="1" /><path clip-path="url(#clip910)" d="M1601.42 1448.2 L1606.3 1448.2 L1606.3 1454.08 L1601.42 1454.08 L1601.42 1448.2 Z" fill="#000000" fill-rule="nonzero" fill-opacity="1" /><path clip-path="url(#clip910)" d="M1616.63 1453.37 L1616.63 1449.11 Q1618.39 1449.94 1620.19 1450.38 Q1622 1450.82 1623.73 1450.82 Q1628.36 1450.82 1630.79 1447.72 Q1633.25 1444.59 1633.6 1438.25 Q1632.25 1440.24 1630.19 1441.31 Q1628.13 1442.37 1625.63 1442.37 Q1620.45 1442.37 1617.41 1439.25 Q1614.41 1436.1 1614.41 1430.66 Q1614.41 1425.33 1617.55 1422.12 Q1620.7 1418.9 1625.93 1418.9 Q1631.93 1418.9 1635.08 1423.51 Q1638.25 1428.09 1638.25 1436.84 Q1638.25 1445.01 1634.36 1449.89 Q1630.49 1454.76 1623.94 1454.76 Q1622.18 1454.76 1620.38 1454.41 Q1618.57 1454.06 1616.63 1453.37 M1625.93 1438.71 Q1629.08 1438.71 1630.91 1436.56 Q1632.76 1434.41 1632.76 1430.66 Q1632.76 1426.93 1630.91 1424.78 Q1629.08 1422.6 1625.93 1422.6 Q1622.79 1422.6 1620.93 1424.78 Q1619.1 1426.93 1619.1 1430.66 Q1619.1 1434.41 1620.93 1436.56 Q1622.79 1438.71 1625.93 1438.71 Z" fill="#000000" fill-rule="nonzero" fill-opacity="1" /><path clip-path="url(#clip910)" d="M1975.24 1450.15 L1982.88 1450.15 L1982.88 1423.78 L1974.57 1425.45 L1974.57 1421.19 L1982.83 1419.52 L1987.51 1419.52 L1987.51 1450.15 L1995.15 1450.15 L1995.15 1454.08 L1975.24 1454.08 L1975.24 1450.15 Z" fill="#000000" fill-rule="nonzero" fill-opacity="1" /><path clip-path="url(#clip910)" d="M2004.59 1448.2 L2009.48 1448.2 L2009.48 1454.08 L2004.59 1454.08 L2004.59 1448.2 Z" fill="#000000" fill-rule="nonzero" fill-opacity="1" /><path clip-path="url(#clip910)" d="M2023.69 1450.15 L2040.01 1450.15 L2040.01 1454.08 L2018.06 1454.08 L2018.06 1450.15 Q2020.73 1447.39 2025.31 1442.76 Q2029.92 1438.11 2031.1 1436.77 Q2033.34 1434.25 2034.22 1432.51 Q2035.13 1430.75 2035.13 1429.06 Q2035.13 1426.31 2033.18 1424.57 Q2031.26 1422.83 2028.16 1422.83 Q2025.96 1422.83 2023.5 1423.6 Q2021.07 1424.36 2018.3 1425.91 L2018.3 1421.19 Q2021.12 1420.06 2023.57 1419.48 Q2026.03 1418.9 2028.06 1418.9 Q2033.44 1418.9 2036.63 1421.58 Q2039.82 1424.27 2039.82 1428.76 Q2039.82 1430.89 2039.01 1432.81 Q2038.23 1434.71 2036.12 1437.3 Q2035.54 1437.97 2032.44 1441.19 Q2029.34 1444.38 2023.69 1450.15 Z" fill="#000000" fill-rule="nonzero" fill-opacity="1" /><path clip-path="url(#clip910)" d="M1285.33 1487.02 L1291.22 1487.02 L1291.22 1516.27 L1308.69 1500.9 L1316.17 1500.9 L1297.27 1517.58 L1316.97 1536.55 L1309.33 1536.55 L1291.22 1519.14 L1291.22 1536.55 L1285.33 1536.55 L1285.33 1487.02 Z" fill="#000000" fill-rule="nonzero" fill-opacity="1" /><polyline clip-path="url(#clip912)" style="stroke:#000000; stroke-linecap:round; stroke-linejoin:round; stroke-width:2; stroke-opacity:0.1; fill:none" points="281.038,1391.68 2321.26,1391.68 "/>
<polyline clip-path="url(#clip912)" style="stroke:#000000; stroke-linecap:round; stroke-linejoin:round; stroke-width:2; stroke-opacity:0.1; fill:none" points="281.038,1130.26 2321.26,1130.26 "/>
<polyline clip-path="url(#clip912)" style="stroke:#000000; stroke-linecap:round; stroke-linejoin:round; stroke-width:2; stroke-opacity:0.1; fill:none" points="281.038,868.83 2321.26,868.83 "/>
<polyline clip-path="url(#clip912)" style="stroke:#000000; stroke-linecap:round; stroke-linejoin:round; stroke-width:2; stroke-opacity:0.1; fill:none" points="281.038,607.403 2321.26,607.403 "/>
<polyline clip-path="url(#clip912)" style="stroke:#000000; stroke-linecap:round; stroke-linejoin:round; stroke-width:2; stroke-opacity:0.1; fill:none" points="281.038,345.976 2321.26,345.976 "/>
<polyline clip-path="url(#clip912)" style="stroke:#000000; stroke-linecap:round; stroke-linejoin:round; stroke-width:2; stroke-opacity:0.1; fill:none" points="281.038,84.5496 2321.26,84.5496 "/>
<polyline clip-path="url(#clip910)" style="stroke:#000000; stroke-linecap:round; stroke-linejoin:round; stroke-width:4; stroke-opacity:1; fill:none" points="281.038,1391.68 281.038,78.7402 "/>
<polyline clip-path="url(#clip910)" style="stroke:#000000; stroke-linecap:round; stroke-linejoin:round; stroke-width:4; stroke-opacity:1; fill:none" points="281.038,1391.68 299.936,1391.68 "/>
<polyline clip-path="url(#clip910)" style="stroke:#000000; stroke-linecap:round; stroke-linejoin:round; stroke-width:4; stroke-opacity:1; fill:none" points="281.038,1130.26 299.936,1130.26 "/>
<polyline clip-path="url(#clip910)" style="stroke:#000000; stroke-linecap:round; stroke-linejoin:round; stroke-width:4; stroke-opacity:1; fill:none" points="281.038,868.83 299.936,868.83 "/>
<polyline clip-path="url(#clip910)" style="stroke:#000000; stroke-linecap:round; stroke-linejoin:round; stroke-width:4; stroke-opacity:1; fill:none" points="281.038,607.403 299.936,607.403 "/>
<polyline clip-path="url(#clip910)" style="stroke:#000000; stroke-linecap:round; stroke-linejoin:round; stroke-width:4; stroke-opacity:1; fill:none" points="281.038,345.976 299.936,345.976 "/>
<polyline clip-path="url(#clip910)" style="stroke:#000000; stroke-linecap:round; stroke-linejoin:round; stroke-width:4; stroke-opacity:1; fill:none" points="281.038,84.5496 299.936,84.5496 "/>
<path clip-path="url(#clip910)" d="M157.701 1377.48 Q154.09 1377.48 152.261 1381.05 Q150.455 1384.59 150.455 1391.72 Q150.455 1398.82 152.261 1402.39 Q154.09 1405.93 157.701 1405.93 Q161.335 1405.93 163.14 1402.39 Q164.969 1398.82 164.969 1391.72 Q164.969 1384.59 163.14 1381.05 Q161.335 1377.48 157.701 1377.48 M157.701 1373.78 Q163.511 1373.78 166.566 1378.39 Q169.645 1382.97 169.645 1391.72 Q169.645 1400.45 166.566 1405.05 Q163.511 1409.64 157.701 1409.64 Q151.89 1409.64 148.812 1405.05 Q145.756 1400.45 145.756 1391.72 Q145.756 1382.97 148.812 1378.39 Q151.89 1373.78 157.701 1373.78 Z" fill="#000000" fill-rule="nonzero" fill-opacity="1" /><path clip-path="url(#clip910)" d="M177.863 1403.08 L182.747 1403.08 L182.747 1408.96 L177.863 1408.96 L177.863 1403.08 Z" fill="#000000" fill-rule="nonzero" fill-opacity="1" /><path clip-path="url(#clip910)" d="M202.932 1377.48 Q199.321 1377.48 197.492 1381.05 Q195.687 1384.59 195.687 1391.72 Q195.687 1398.82 197.492 1402.39 Q199.321 1405.93 202.932 1405.93 Q206.566 1405.93 208.372 1402.39 Q210.2 1398.82 210.2 1391.72 Q210.2 1384.59 208.372 1381.05 Q206.566 1377.48 202.932 1377.48 M202.932 1373.78 Q208.742 1373.78 211.798 1378.39 Q214.876 1382.97 214.876 1391.72 Q214.876 1400.45 211.798 1405.05 Q208.742 1409.64 202.932 1409.64 Q197.122 1409.64 194.043 1405.05 Q190.987 1400.45 190.987 1391.72 Q190.987 1382.97 194.043 1378.39 Q197.122 1373.78 202.932 1373.78 Z" fill="#000000" fill-rule="nonzero" fill-opacity="1" /><path clip-path="url(#clip910)" d="M233.094 1377.48 Q229.483 1377.48 227.654 1381.05 Q225.848 1384.59 225.848 1391.72 Q225.848 1398.82 227.654 1402.39 Q229.483 1405.93 233.094 1405.93 Q236.728 1405.93 238.534 1402.39 Q240.362 1398.82 240.362 1391.72 Q240.362 1384.59 238.534 1381.05 Q236.728 1377.48 233.094 1377.48 M233.094 1373.78 Q238.904 1373.78 241.959 1378.39 Q245.038 1382.97 245.038 1391.72 Q245.038 1400.45 241.959 1405.05 Q238.904 1409.64 233.094 1409.64 Q227.284 1409.64 224.205 1405.05 Q221.149 1400.45 221.149 1391.72 Q221.149 1382.97 224.205 1378.39 Q227.284 1373.78 233.094 1373.78 Z" fill="#000000" fill-rule="nonzero" fill-opacity="1" /><path clip-path="url(#clip910)" d="M158.696 1116.06 Q155.085 1116.06 153.256 1119.62 Q151.451 1123.16 151.451 1130.29 Q151.451 1137.4 153.256 1140.96 Q155.085 1144.5 158.696 1144.5 Q162.33 1144.5 164.136 1140.96 Q165.964 1137.4 165.964 1130.29 Q165.964 1123.16 164.136 1119.62 Q162.33 1116.06 158.696 1116.06 M158.696 1112.35 Q164.506 1112.35 167.562 1116.96 Q170.64 1121.54 170.64 1130.29 Q170.64 1139.02 167.562 1143.62 Q164.506 1148.21 158.696 1148.21 Q152.886 1148.21 149.807 1143.62 Q146.752 1139.02 146.752 1130.29 Q146.752 1121.54 149.807 1116.96 Q152.886 1112.35 158.696 1112.35 Z" fill="#000000" fill-rule="nonzero" fill-opacity="1" /><path clip-path="url(#clip910)" d="M178.858 1141.66 L183.742 1141.66 L183.742 1147.54 L178.858 1147.54 L178.858 1141.66 Z" fill="#000000" fill-rule="nonzero" fill-opacity="1" /><path clip-path="url(#clip910)" d="M203.927 1116.06 Q200.316 1116.06 198.487 1119.62 Q196.682 1123.16 196.682 1130.29 Q196.682 1137.4 198.487 1140.96 Q200.316 1144.5 203.927 1144.5 Q207.561 1144.5 209.367 1140.96 Q211.196 1137.4 211.196 1130.29 Q211.196 1123.16 209.367 1119.62 Q207.561 1116.06 203.927 1116.06 M203.927 1112.35 Q209.737 1112.35 212.793 1116.96 Q215.872 1121.54 215.872 1130.29 Q215.872 1139.02 212.793 1143.62 Q209.737 1148.21 203.927 1148.21 Q198.117 1148.21 195.038 1143.62 Q191.983 1139.02 191.983 1130.29 Q191.983 1121.54 195.038 1116.96 Q198.117 1112.35 203.927 1112.35 Z" fill="#000000" fill-rule="nonzero" fill-opacity="1" /><path clip-path="url(#clip910)" d="M224.135 1112.98 L242.492 1112.98 L242.492 1116.91 L228.418 1116.91 L228.418 1125.38 Q229.436 1125.04 230.455 1124.88 Q231.473 1124.69 232.492 1124.69 Q238.279 1124.69 241.658 1127.86 Q245.038 1131.03 245.038 1136.45 Q245.038 1142.03 241.566 1145.13 Q238.094 1148.21 231.774 1148.21 Q229.598 1148.21 227.33 1147.84 Q225.084 1147.47 222.677 1146.73 L222.677 1142.03 Q224.76 1143.16 226.983 1143.72 Q229.205 1144.27 231.682 1144.27 Q235.686 1144.27 238.024 1142.17 Q240.362 1140.06 240.362 1136.45 Q240.362 1132.84 238.024 1130.73 Q235.686 1128.63 231.682 1128.63 Q229.807 1128.63 227.932 1129.04 Q226.08 1129.46 224.135 1130.34 L224.135 1112.98 Z" fill="#000000" fill-rule="nonzero" fill-opacity="1" /><path clip-path="url(#clip910)" d="M157.701 854.629 Q154.09 854.629 152.261 858.194 Q150.455 861.735 150.455 868.865 Q150.455 875.971 152.261 879.536 Q154.09 883.078 157.701 883.078 Q161.335 883.078 163.14 879.536 Q164.969 875.971 164.969 868.865 Q164.969 861.735 163.14 858.194 Q161.335 854.629 157.701 854.629 M157.701 850.925 Q163.511 850.925 166.566 855.532 Q169.645 860.115 169.645 868.865 Q169.645 877.592 166.566 882.198 Q163.511 886.781 157.701 886.781 Q151.89 886.781 148.812 882.198 Q145.756 877.592 145.756 868.865 Q145.756 860.115 148.812 855.532 Q151.89 850.925 157.701 850.925 Z" fill="#000000" fill-rule="nonzero" fill-opacity="1" /><path clip-path="url(#clip910)" d="M177.863 880.231 L182.747 880.231 L182.747 886.11 L177.863 886.11 L177.863 880.231 Z" fill="#000000" fill-rule="nonzero" fill-opacity="1" /><path clip-path="url(#clip910)" d="M193.742 882.175 L201.381 882.175 L201.381 855.809 L193.071 857.476 L193.071 853.217 L201.335 851.55 L206.011 851.55 L206.011 882.175 L213.649 882.175 L213.649 886.11 L193.742 886.11 L193.742 882.175 Z" fill="#000000" fill-rule="nonzero" fill-opacity="1" /><path clip-path="url(#clip910)" d="M233.094 854.629 Q229.483 854.629 227.654 858.194 Q225.848 861.735 225.848 868.865 Q225.848 875.971 227.654 879.536 Q229.483 883.078 233.094 883.078 Q236.728 883.078 238.534 879.536 Q240.362 875.971 240.362 868.865 Q240.362 861.735 238.534 858.194 Q236.728 854.629 233.094 854.629 M233.094 850.925 Q238.904 850.925 241.959 855.532 Q245.038 860.115 245.038 868.865 Q245.038 877.592 241.959 882.198 Q238.904 886.781 233.094 886.781 Q227.284 886.781 224.205 882.198 Q221.149 877.592 221.149 868.865 Q221.149 860.115 224.205 855.532 Q227.284 850.925 233.094 850.925 Z" fill="#000000" fill-rule="nonzero" fill-opacity="1" /><path clip-path="url(#clip910)" d="M158.696 593.202 Q155.085 593.202 153.256 596.767 Q151.451 600.308 151.451 607.438 Q151.451 614.544 153.256 618.109 Q155.085 621.651 158.696 621.651 Q162.33 621.651 164.136 618.109 Q165.964 614.544 165.964 607.438 Q165.964 600.308 164.136 596.767 Q162.33 593.202 158.696 593.202 M158.696 589.498 Q164.506 589.498 167.562 594.105 Q170.64 598.688 170.64 607.438 Q170.64 616.165 167.562 620.771 Q164.506 625.355 158.696 625.355 Q152.886 625.355 149.807 620.771 Q146.752 616.165 146.752 607.438 Q146.752 598.688 149.807 594.105 Q152.886 589.498 158.696 589.498 Z" fill="#000000" fill-rule="nonzero" fill-opacity="1" /><path clip-path="url(#clip910)" d="M178.858 618.804 L183.742 618.804 L183.742 624.683 L178.858 624.683 L178.858 618.804 Z" fill="#000000" fill-rule="nonzero" fill-opacity="1" /><path clip-path="url(#clip910)" d="M194.737 620.748 L202.376 620.748 L202.376 594.383 L194.066 596.049 L194.066 591.79 L202.33 590.123 L207.006 590.123 L207.006 620.748 L214.645 620.748 L214.645 624.683 L194.737 624.683 L194.737 620.748 Z" fill="#000000" fill-rule="nonzero" fill-opacity="1" /><path clip-path="url(#clip910)" d="M224.135 590.123 L242.492 590.123 L242.492 594.058 L228.418 594.058 L228.418 602.531 Q229.436 602.183 230.455 602.021 Q231.473 601.836 232.492 601.836 Q238.279 601.836 241.658 605.007 Q245.038 608.179 245.038 613.595 Q245.038 619.174 241.566 622.276 Q238.094 625.355 231.774 625.355 Q229.598 625.355 227.33 624.984 Q225.084 624.614 222.677 623.873 L222.677 619.174 Q224.76 620.308 226.983 620.864 Q229.205 621.419 231.682 621.419 Q235.686 621.419 238.024 619.313 Q240.362 617.206 240.362 613.595 Q240.362 609.984 238.024 607.878 Q235.686 605.771 231.682 605.771 Q229.807 605.771 227.932 606.188 Q226.08 606.605 224.135 607.484 L224.135 590.123 Z" fill="#000000" fill-rule="nonzero" fill-opacity="1" /><path clip-path="url(#clip910)" d="M157.701 331.775 Q154.09 331.775 152.261 335.34 Q150.455 338.882 150.455 346.011 Q150.455 353.118 152.261 356.682 Q154.09 360.224 157.701 360.224 Q161.335 360.224 163.14 356.682 Q164.969 353.118 164.969 346.011 Q164.969 338.882 163.14 335.34 Q161.335 331.775 157.701 331.775 M157.701 328.071 Q163.511 328.071 166.566 332.678 Q169.645 337.261 169.645 346.011 Q169.645 354.738 166.566 359.344 Q163.511 363.928 157.701 363.928 Q151.89 363.928 148.812 359.344 Q145.756 354.738 145.756 346.011 Q145.756 337.261 148.812 332.678 Q151.89 328.071 157.701 328.071 Z" fill="#000000" fill-rule="nonzero" fill-opacity="1" /><path clip-path="url(#clip910)" d="M177.863 357.377 L182.747 357.377 L182.747 363.256 L177.863 363.256 L177.863 357.377 Z" fill="#000000" fill-rule="nonzero" fill-opacity="1" /><path clip-path="url(#clip910)" d="M196.96 359.321 L213.279 359.321 L213.279 363.256 L191.335 363.256 L191.335 359.321 Q193.997 356.567 198.58 351.937 Q203.186 347.284 204.367 345.942 Q206.612 343.419 207.492 341.683 Q208.395 339.923 208.395 338.233 Q208.395 335.479 206.45 333.743 Q204.529 332.007 201.427 332.007 Q199.228 332.007 196.774 332.771 Q194.344 333.534 191.566 335.085 L191.566 330.363 Q194.39 329.229 196.844 328.65 Q199.298 328.071 201.335 328.071 Q206.705 328.071 209.899 330.757 Q213.094 333.442 213.094 337.933 Q213.094 340.062 212.284 341.983 Q211.497 343.882 209.39 346.474 Q208.811 347.145 205.71 350.363 Q202.608 353.557 196.96 359.321 Z" fill="#000000" fill-rule="nonzero" fill-opacity="1" /><path clip-path="url(#clip910)" d="M233.094 331.775 Q229.483 331.775 227.654 335.34 Q225.848 338.882 225.848 346.011 Q225.848 353.118 227.654 356.682 Q229.483 360.224 233.094 360.224 Q236.728 360.224 238.534 356.682 Q240.362 353.118 240.362 346.011 Q240.362 338.882 238.534 335.34 Q236.728 331.775 233.094 331.775 M233.094 328.071 Q238.904 328.071 241.959 332.678 Q245.038 337.261 245.038 346.011 Q245.038 354.738 241.959 359.344 Q238.904 363.928 233.094 363.928 Q227.284 363.928 224.205 359.344 Q221.149 354.738 221.149 346.011 Q221.149 337.261 224.205 332.678 Q227.284 328.071 233.094 328.071 Z" fill="#000000" fill-rule="nonzero" fill-opacity="1" /><path clip-path="url(#clip910)" d="M158.696 70.3483 Q155.085 70.3483 153.256 73.9131 Q151.451 77.4548 151.451 84.5844 Q151.451 91.6908 153.256 95.2556 Q155.085 98.7973 158.696 98.7973 Q162.33 98.7973 164.136 95.2556 Q165.964 91.6908 165.964 84.5844 Q165.964 77.4548 164.136 73.9131 Q162.33 70.3483 158.696 70.3483 M158.696 66.6446 Q164.506 66.6446 167.562 71.2511 Q170.64 75.8344 170.64 84.5844 Q170.64 93.3112 167.562 97.9176 Q164.506 102.501 158.696 102.501 Q152.886 102.501 149.807 97.9176 Q146.752 93.3112 146.752 84.5844 Q146.752 75.8344 149.807 71.2511 Q152.886 66.6446 158.696 66.6446 Z" fill="#000000" fill-rule="nonzero" fill-opacity="1" /><path clip-path="url(#clip910)" d="M178.858 95.95 L183.742 95.95 L183.742 101.83 L178.858 101.83 L178.858 95.95 Z" fill="#000000" fill-rule="nonzero" fill-opacity="1" /><path clip-path="url(#clip910)" d="M197.955 97.8945 L214.274 97.8945 L214.274 101.83 L192.33 101.83 L192.33 97.8945 Q194.992 95.1399 199.575 90.5103 Q204.182 85.8575 205.362 84.5149 Q207.608 81.9918 208.487 80.2557 Q209.39 78.4964 209.39 76.8066 Q209.39 74.052 207.446 72.3159 Q205.524 70.5798 202.423 70.5798 Q200.224 70.5798 197.77 71.3437 Q195.339 72.1076 192.562 73.6585 L192.562 68.9363 Q195.386 67.802 197.839 67.2233 Q200.293 66.6446 202.33 66.6446 Q207.7 66.6446 210.895 69.3298 Q214.089 72.015 214.089 76.5057 Q214.089 78.6353 213.279 80.5566 Q212.492 82.4547 210.386 85.0473 Q209.807 85.7186 206.705 88.9362 Q203.603 92.1306 197.955 97.8945 Z" fill="#000000" fill-rule="nonzero" fill-opacity="1" /><path clip-path="url(#clip910)" d="M224.135 67.2696 L242.492 67.2696 L242.492 71.2048 L228.418 71.2048 L228.418 79.677 Q229.436 79.3298 230.455 79.1677 Q231.473 78.9825 232.492 78.9825 Q238.279 78.9825 241.658 82.1538 Q245.038 85.3251 245.038 90.7417 Q245.038 96.3204 241.566 99.4222 Q238.094 102.501 231.774 102.501 Q229.598 102.501 227.33 102.131 Q225.084 101.76 222.677 101.019 L222.677 96.3204 Q224.76 97.4547 226.983 98.0102 Q229.205 98.5658 231.682 98.5658 Q235.686 98.5658 238.024 96.4593 Q240.362 94.3528 240.362 90.7417 Q240.362 87.1306 238.024 85.0242 Q235.686 82.9177 231.682 82.9177 Q229.807 82.9177 227.932 83.3344 Q226.08 83.751 224.135 84.6307 L224.135 67.2696 Z" fill="#000000" fill-rule="nonzero" fill-opacity="1" /><path clip-path="url(#clip910)" d="M53.2638 1079.77 L71.1196 1079.77 L71.1196 1071.69 Q71.1196 1067.2 68.7961 1064.75 Q66.4726 1062.3 62.1757 1062.3 Q57.9107 1062.3 55.5872 1064.75 Q53.2638 1067.2 53.2638 1071.69 L53.2638 1079.77 M47.9802 1086.2 L47.9802 1071.69 Q47.9802 1063.7 51.6087 1059.62 Q55.2053 1055.52 62.1757 1055.52 Q69.2099 1055.52 72.8065 1059.62 Q76.4031 1063.7 76.4031 1071.69 L76.4031 1079.77 L95.5002 1079.77 L95.5002 1086.2 L47.9802 1086.2 Z" fill="#000000" fill-rule="nonzero" fill-opacity="1" /><path clip-path="url(#clip910)" d="M65.3268 1027.64 Q64.7539 1028.62 64.4992 1029.8 Q64.2128 1030.95 64.2128 1032.35 Q64.2128 1037.31 67.4593 1039.99 Q70.674 1042.63 76.7214 1042.63 L95.5002 1042.63 L95.5002 1048.52 L59.8523 1048.52 L59.8523 1042.63 L65.3904 1042.63 Q62.1439 1040.78 60.5843 1037.82 Q58.9929 1034.86 58.9929 1030.63 Q58.9929 1030.02 59.0884 1029.29 Q59.152 1028.56 59.3112 1027.67 L65.3268 1027.64 Z" fill="#000000" fill-rule="nonzero" fill-opacity="1" /><path clip-path="url(#clip910)" d="M63.9581 1009.11 Q63.9581 1013.82 67.6503 1016.56 Q71.3105 1019.3 77.7081 1019.3 Q84.1056 1019.3 87.7977 1016.59 Q91.458 1013.85 91.458 1009.11 Q91.458 1004.43 87.7659 1001.7 Q84.0738 998.959 77.7081 998.959 Q71.3742 998.959 67.6821 1001.7 Q63.9581 1004.43 63.9581 1009.11 M58.9929 1009.11 Q58.9929 1001.47 63.9581 997.113 Q68.9234 992.753 77.7081 992.753 Q86.4609 992.753 91.458 997.113 Q96.4232 1001.47 96.4232 1009.11 Q96.4232 1016.78 91.458 1021.14 Q86.4609 1025.47 77.7081 1025.47 Q68.9234 1025.47 63.9581 1021.14 Q58.9929 1016.78 58.9929 1009.11 Z" fill="#000000" fill-rule="nonzero" fill-opacity="1" /><path clip-path="url(#clip910)" d="M90.153 977.379 L109.059 977.379 L109.059 983.268 L59.8523 983.268 L59.8523 977.379 L65.2631 977.379 Q62.0803 975.533 60.5525 972.732 Q58.9929 969.9 58.9929 965.985 Q58.9929 959.492 64.1491 955.45 Q69.3053 951.375 77.7081 951.375 Q86.1108 951.375 91.267 955.45 Q96.4232 959.492 96.4232 965.985 Q96.4232 969.9 94.8955 972.732 Q93.3359 975.533 90.153 977.379 M77.7081 957.455 Q71.2469 957.455 67.5866 960.128 Q63.8945 962.77 63.8945 967.417 Q63.8945 972.064 67.5866 974.738 Q71.2469 977.379 77.7081 977.379 Q84.1693 977.379 87.8614 974.738 Q91.5217 972.064 91.5217 967.417 Q91.5217 962.77 87.8614 960.128 Q84.1693 957.455 77.7081 957.455 Z" fill="#000000" fill-rule="nonzero" fill-opacity="1" /><path clip-path="url(#clip910)" d="M63.9581 927.854 Q63.9581 932.565 67.6503 935.302 Q71.3105 938.039 77.7081 938.039 Q84.1056 938.039 87.7977 935.334 Q91.458 932.597 91.458 927.854 Q91.458 923.175 87.7659 920.438 Q84.0738 917.701 77.7081 917.701 Q71.3742 917.701 67.6821 920.438 Q63.9581 923.175 63.9581 927.854 M58.9929 927.854 Q58.9929 920.215 63.9581 915.855 Q68.9234 911.494 77.7081 911.494 Q86.4609 911.494 91.458 915.855 Q96.4232 920.215 96.4232 927.854 Q96.4232 935.525 91.458 939.885 Q86.4609 944.214 77.7081 944.214 Q68.9234 944.214 63.9581 939.885 Q58.9929 935.525 58.9929 927.854 Z" fill="#000000" fill-rule="nonzero" fill-opacity="1" /><path clip-path="url(#clip910)" d="M65.3268 881.13 Q64.7539 882.117 64.4992 883.294 Q64.2128 884.44 64.2128 885.841 Q64.2128 890.806 67.4593 893.479 Q70.674 896.121 76.7214 896.121 L95.5002 896.121 L95.5002 902.009 L59.8523 902.009 L59.8523 896.121 L65.3904 896.121 Q62.1439 894.275 60.5843 891.315 Q58.9929 888.355 58.9929 884.122 Q58.9929 883.517 59.0884 882.785 Q59.152 882.053 59.3112 881.162 L65.3268 881.13 Z" fill="#000000" fill-rule="nonzero" fill-opacity="1" /><path clip-path="url(#clip910)" d="M49.7308 869.194 L59.8523 869.194 L59.8523 857.131 L64.4037 857.131 L64.4037 869.194 L83.7555 869.194 Q88.116 869.194 89.3573 868.017 Q90.5986 866.807 90.5986 863.147 L90.5986 857.131 L95.5002 857.131 L95.5002 863.147 Q95.5002 869.926 92.9858 872.504 Q90.4395 875.082 83.7555 875.082 L64.4037 875.082 L64.4037 879.379 L59.8523 879.379 L59.8523 875.082 L49.7308 875.082 L49.7308 869.194 Z" fill="#000000" fill-rule="nonzero" fill-opacity="1" /><path clip-path="url(#clip910)" d="M59.8523 849.429 L59.8523 843.572 L95.5002 843.572 L95.5002 849.429 L59.8523 849.429 M45.975 849.429 L45.975 843.572 L53.3911 843.572 L53.3911 849.429 L45.975 849.429 Z" fill="#000000" fill-rule="nonzero" fill-opacity="1" /><path clip-path="url(#clip910)" d="M63.9581 817.505 Q63.9581 822.215 67.6503 824.953 Q71.3105 827.69 77.7081 827.69 Q84.1056 827.69 87.7977 824.984 Q91.458 822.247 91.458 817.505 Q91.458 812.826 87.7659 810.089 Q84.0738 807.351 77.7081 807.351 Q71.3742 807.351 67.6821 810.089 Q63.9581 812.826 63.9581 817.505 M58.9929 817.505 Q58.9929 809.866 63.9581 805.505 Q68.9234 801.145 77.7081 801.145 Q86.4609 801.145 91.458 805.505 Q96.4232 809.866 96.4232 817.505 Q96.4232 825.175 91.458 829.536 Q86.4609 833.865 77.7081 833.865 Q68.9234 833.865 63.9581 829.536 Q58.9929 825.175 58.9929 817.505 Z" fill="#000000" fill-rule="nonzero" fill-opacity="1" /><path clip-path="url(#clip910)" d="M73.9841 761.805 L95.5002 761.805 L95.5002 767.661 L74.1751 767.661 Q69.1144 767.661 66.5999 769.635 Q64.0855 771.608 64.0855 775.555 Q64.0855 780.297 67.1092 783.034 Q70.1329 785.772 75.3528 785.772 L95.5002 785.772 L95.5002 791.66 L59.8523 791.66 L59.8523 785.772 L65.3904 785.772 Q62.1757 783.671 60.5843 780.838 Q58.9929 777.974 58.9929 774.25 Q58.9929 768.107 62.8123 764.956 Q66.5999 761.805 73.9841 761.805 Z" fill="#000000" fill-rule="nonzero" fill-opacity="1" /><path clip-path="url(#clip910)" d="M63.9581 715.59 Q63.9581 720.3 67.6503 723.038 Q71.3105 725.775 77.7081 725.775 Q84.1056 725.775 87.7977 723.069 Q91.458 720.332 91.458 715.59 Q91.458 710.911 87.7659 708.174 Q84.0738 705.436 77.7081 705.436 Q71.3742 705.436 67.6821 708.174 Q63.9581 710.911 63.9581 715.59 M58.9929 715.59 Q58.9929 707.951 63.9581 703.59 Q68.9234 699.23 77.7081 699.23 Q86.4609 699.23 91.458 703.59 Q96.4232 707.951 96.4232 715.59 Q96.4232 723.26 91.458 727.621 Q86.4609 731.95 77.7081 731.95 Q68.9234 731.95 63.9581 727.621 Q58.9929 723.26 58.9929 715.59 Z" fill="#000000" fill-rule="nonzero" fill-opacity="1" /><path clip-path="url(#clip910)" d="M45.975 671.475 L50.8448 671.475 L50.8448 677.077 Q50.8448 680.228 52.1179 681.469 Q53.3911 682.679 56.7012 682.679 L59.8523 682.679 L59.8523 673.035 L64.4037 673.035 L64.4037 682.679 L95.5002 682.679 L95.5002 688.567 L64.4037 688.567 L64.4037 694.169 L59.8523 694.169 L59.8523 688.567 L57.3696 688.567 Q51.4177 688.567 48.7123 685.798 Q45.975 683.029 45.975 677.013 L45.975 671.475 Z" fill="#000000" fill-rule="nonzero" fill-opacity="1" /><path clip-path="url(#clip910)" d="M60.9026 623.128 L66.4408 623.128 Q65.1676 625.61 64.5311 628.284 Q63.8945 630.958 63.8945 633.822 Q63.8945 638.183 65.2313 640.379 Q66.5681 642.543 69.2417 642.543 Q71.2787 642.543 72.4564 640.984 Q73.6022 639.424 74.6525 634.713 L75.0981 632.708 Q76.4349 626.47 78.8857 623.86 Q81.3047 621.218 85.6652 621.218 Q90.6305 621.218 93.5269 625.165 Q96.4232 629.08 96.4232 635.955 Q96.4232 638.819 95.8503 641.938 Q95.3092 645.026 94.1953 648.463 L88.1478 648.463 Q89.8347 645.217 90.6941 642.066 Q91.5217 638.915 91.5217 635.827 Q91.5217 631.69 90.1212 629.462 Q88.6889 627.234 86.1108 627.234 Q83.7237 627.234 82.4505 628.857 Q81.1774 630.448 79.9997 635.891 L79.5223 637.928 Q78.3765 643.371 76.0212 645.79 Q73.634 648.209 69.4963 648.209 Q64.4674 648.209 61.7301 644.644 Q58.9929 641.079 58.9929 634.522 Q58.9929 631.276 59.4703 628.411 Q59.9477 625.547 60.9026 623.128 Z" fill="#000000" fill-rule="nonzero" fill-opacity="1" /><path clip-path="url(#clip910)" d="M77.5808 595.692 Q77.5808 602.789 79.204 605.527 Q80.8273 608.264 84.7422 608.264 Q87.8614 608.264 89.7074 606.227 Q91.5217 604.158 91.5217 600.625 Q91.5217 595.755 88.0842 592.827 Q84.6149 589.867 78.8857 589.867 L77.5808 589.867 L77.5808 595.692 M75.1618 584.011 L95.5002 584.011 L95.5002 589.867 L90.0894 589.867 Q93.3359 591.872 94.8955 594.864 Q96.4232 597.856 96.4232 602.185 Q96.4232 607.659 93.3677 610.906 Q90.2803 614.12 85.1241 614.12 Q79.1085 614.12 76.053 610.11 Q72.9974 606.068 72.9974 598.079 L72.9974 589.867 L72.4245 589.867 Q68.3823 589.867 66.1861 592.541 Q63.9581 595.182 63.9581 599.988 Q63.9581 603.044 64.6902 605.94 Q65.4223 608.837 66.8864 611.51 L61.4755 611.51 Q60.2342 608.296 59.6295 605.272 Q58.9929 602.248 58.9929 599.384 Q58.9929 591.649 63.0033 587.83 Q67.0137 584.011 75.1618 584.011 Z" fill="#000000" fill-rule="nonzero" fill-opacity="1" /><path clip-path="url(#clip910)" d="M66.6954 544.193 Q62.7487 541.997 60.8708 538.941 Q58.9929 535.886 58.9929 531.748 Q58.9929 526.178 62.9078 523.154 Q66.7909 520.131 73.9841 520.131 L95.5002 520.131 L95.5002 526.019 L74.1751 526.019 Q69.0507 526.019 66.5681 527.833 Q64.0855 529.647 64.0855 533.371 Q64.0855 537.923 67.1092 540.565 Q70.1329 543.206 75.3528 543.206 L95.5002 543.206 L95.5002 549.095 L74.1751 549.095 Q69.0189 549.095 66.5681 550.909 Q64.0855 552.723 64.0855 556.511 Q64.0855 560.998 67.141 563.64 Q70.1647 566.282 75.3528 566.282 L95.5002 566.282 L95.5002 572.17 L59.8523 572.17 L59.8523 566.282 L65.3904 566.282 Q62.1121 564.277 60.5525 561.476 Q58.9929 558.675 58.9929 554.824 Q58.9929 550.941 60.9663 548.235 Q62.9396 545.498 66.6954 544.193 Z" fill="#000000" fill-rule="nonzero" fill-opacity="1" /><path clip-path="url(#clip910)" d="M90.153 502.784 L109.059 502.784 L109.059 508.672 L59.8523 508.672 L59.8523 502.784 L65.2631 502.784 Q62.0803 500.938 60.5525 498.137 Q58.9929 495.304 58.9929 491.389 Q58.9929 484.896 64.1491 480.854 Q69.3053 476.78 77.7081 476.78 Q86.1108 476.78 91.267 480.854 Q96.4232 484.896 96.4232 491.389 Q96.4232 495.304 94.8955 498.137 Q93.3359 500.938 90.153 502.784 M77.7081 482.859 Q71.2469 482.859 67.5866 485.533 Q63.8945 488.175 63.8945 492.822 Q63.8945 497.469 67.5866 500.142 Q71.2469 502.784 77.7081 502.784 Q84.1693 502.784 87.8614 500.142 Q91.5217 497.469 91.5217 492.822 Q91.5217 488.175 87.8614 485.533 Q84.1693 482.859 77.7081 482.859 Z" fill="#000000" fill-rule="nonzero" fill-opacity="1" /><path clip-path="url(#clip910)" d="M45.975 467.072 L45.975 461.216 L95.5002 461.216 L95.5002 467.072 L45.975 467.072 Z" fill="#000000" fill-rule="nonzero" fill-opacity="1" /><path clip-path="url(#clip910)" d="M76.2121 418.47 L79.0767 418.47 L79.0767 445.397 Q85.1241 445.015 88.307 441.769 Q91.458 438.49 91.458 432.666 Q91.458 429.292 90.6305 426.141 Q89.8029 422.958 88.1478 419.839 L93.686 419.839 Q95.0228 422.99 95.723 426.3 Q96.4232 429.61 96.4232 433.016 Q96.4232 441.546 91.458 446.543 Q86.4927 451.508 78.0264 451.508 Q69.2735 451.508 64.1491 446.798 Q58.9929 442.055 58.9929 434.034 Q58.9929 426.841 63.6399 422.672 Q68.255 418.47 76.2121 418.47 M74.4934 424.327 Q69.6873 424.39 66.8227 427.032 Q63.9581 429.642 63.9581 433.971 Q63.9581 438.872 66.7272 441.832 Q69.4963 444.761 74.5252 445.206 L74.4934 424.327 Z" fill="#000000" fill-rule="nonzero" fill-opacity="1" /><path clip-path="url(#clip910)" d="M60.9026 386.133 L66.4408 386.133 Q65.1676 388.615 64.5311 391.289 Q63.8945 393.962 63.8945 396.827 Q63.8945 401.187 65.2313 403.384 Q66.5681 405.548 69.2417 405.548 Q71.2787 405.548 72.4564 403.988 Q73.6022 402.429 74.6525 397.718 L75.0981 395.713 Q76.4349 389.475 78.8857 386.865 Q81.3047 384.223 85.6652 384.223 Q90.6305 384.223 93.5269 388.17 Q96.4232 392.084 96.4232 398.959 Q96.4232 401.824 95.8503 404.943 Q95.3092 408.031 94.1953 411.468 L88.1478 411.468 Q89.8347 408.222 90.6941 405.071 Q91.5217 401.919 91.5217 398.832 Q91.5217 394.694 90.1212 392.466 Q88.6889 390.238 86.1108 390.238 Q83.7237 390.238 82.4505 391.862 Q81.1774 393.453 79.9997 398.896 L79.5223 400.933 Q78.3765 406.375 76.0212 408.794 Q73.634 411.213 69.4963 411.213 Q64.4674 411.213 61.7301 407.649 Q58.9929 404.084 58.9929 397.527 Q58.9929 394.281 59.4703 391.416 Q59.9477 388.551 60.9026 386.133 Z" fill="#000000" fill-rule="nonzero" fill-opacity="1" /><path clip-path="url(#clip912)" d="M393.254 78.7402 L393.254 1391.68 L460.505 1391.68 L460.505 78.7402 L393.254 78.7402 L393.254 78.7402  Z" fill="#ff8c00" fill-rule="evenodd" fill-opacity="1"/>
<polyline clip-path="url(#clip912)" style="stroke:#000000; stroke-linecap:round; stroke-linejoin:round; stroke-width:4; stroke-opacity:1; fill:none" points="393.254,78.7402 393.254,1391.68 460.505,1391.68 460.505,78.7402 393.254,78.7402 "/>
<path clip-path="url(#clip912)" d="M460.505 421.5 L460.505 1391.68 L527.757 1391.68 L527.757 421.5 L460.505 421.5 L460.505 421.5  Z" fill="#ff8c00" fill-rule="evenodd" fill-opacity="1"/>
<polyline clip-path="url(#clip912)" style="stroke:#000000; stroke-linecap:round; stroke-linejoin:round; stroke-width:4; stroke-opacity:1; fill:none" points="460.505,421.5 460.505,1391.68 527.757,1391.68 527.757,421.5 460.505,421.5 "/>
<path clip-path="url(#clip912)" d="M527.757 738.117 L527.757 1391.68 L595.008 1391.68 L595.008 738.117 L527.757 738.117 L527.757 738.117  Z" fill="#ff8c00" fill-rule="evenodd" fill-opacity="1"/>
<polyline clip-path="url(#clip912)" style="stroke:#000000; stroke-linecap:round; stroke-linejoin:round; stroke-width:4; stroke-opacity:1; fill:none" points="527.757,738.117 527.757,1391.68 595.008,1391.68 595.008,738.117 527.757,738.117 "/>
<path clip-path="url(#clip912)" d="M595.008 836.878 L595.008 1391.68 L662.26 1391.68 L662.26 836.878 L595.008 836.878 L595.008 836.878  Z" fill="#ff8c00" fill-rule="evenodd" fill-opacity="1"/>
<polyline clip-path="url(#clip912)" style="stroke:#000000; stroke-linecap:round; stroke-linejoin:round; stroke-width:4; stroke-opacity:1; fill:none" points="595.008,836.878 595.008,1391.68 662.26,1391.68 662.26,836.878 595.008,836.878 "/>
<path clip-path="url(#clip912)" d="M662.26 935.639 L662.26 1391.68 L729.511 1391.68 L729.511 935.639 L662.26 935.639 L662.26 935.639  Z" fill="#ff8c00" fill-rule="evenodd" fill-opacity="1"/>
<polyline clip-path="url(#clip912)" style="stroke:#000000; stroke-linecap:round; stroke-linejoin:round; stroke-width:4; stroke-opacity:1; fill:none" points="662.26,935.639 662.26,1391.68 729.511,1391.68 729.511,935.639 662.26,935.639 "/>
<path clip-path="url(#clip912)" d="M729.511 1130.26 L729.511 1391.68 L796.763 1391.68 L796.763 1130.26 L729.511 1130.26 L729.511 1130.26  Z" fill="#ff8c00" fill-rule="evenodd" fill-opacity="1"/>
<polyline clip-path="url(#clip912)" style="stroke:#000000; stroke-linecap:round; stroke-linejoin:round; stroke-width:4; stroke-opacity:1; fill:none" points="729.511,1130.26 729.511,1391.68 796.763,1391.68 796.763,1130.26 729.511,1130.26 "/>
<path clip-path="url(#clip912)" d="M796.763 1156.4 L796.763 1391.68 L864.014 1391.68 L864.014 1156.4 L796.763 1156.4 L796.763 1156.4  Z" fill="#ff8c00" fill-rule="evenodd" fill-opacity="1"/>
<polyline clip-path="url(#clip912)" style="stroke:#000000; stroke-linecap:round; stroke-linejoin:round; stroke-width:4; stroke-opacity:1; fill:none" points="796.763,1156.4 796.763,1391.68 864.014,1391.68 864.014,1156.4 796.763,1156.4 "/>
<path clip-path="url(#clip912)" d="M864.014 1269.68 L864.014 1391.68 L931.266 1391.68 L931.266 1269.68 L864.014 1269.68 L864.014 1269.68  Z" fill="#ff8c00" fill-rule="evenodd" fill-opacity="1"/>
<polyline clip-path="url(#clip912)" style="stroke:#000000; stroke-linecap:round; stroke-linejoin:round; stroke-width:4; stroke-opacity:1; fill:none" points="864.014,1269.68 864.014,1391.68 931.266,1391.68 931.266,1269.68 864.014,1269.68 "/>
<path clip-path="url(#clip912)" d="M931.266 1191.26 L931.266 1391.68 L998.517 1391.68 L998.517 1191.26 L931.266 1191.26 L931.266 1191.26  Z" fill="#ff8c00" fill-rule="evenodd" fill-opacity="1"/>
<polyline clip-path="url(#clip912)" style="stroke:#000000; stroke-linecap:round; stroke-linejoin:round; stroke-width:4; stroke-opacity:1; fill:none" points="931.266,1191.26 931.266,1391.68 998.517,1391.68 998.517,1191.26 931.266,1191.26 "/>
<path clip-path="url(#clip912)" d="M998.517 1307.45 L998.517 1391.68 L1065.77 1391.68 L1065.77 1307.45 L998.517 1307.45 L998.517 1307.45  Z" fill="#ff8c00" fill-rule="evenodd" fill-opacity="1"/>
<polyline clip-path="url(#clip912)" style="stroke:#000000; stroke-linecap:round; stroke-linejoin:round; stroke-width:4; stroke-opacity:1; fill:none" points="998.517,1307.45 998.517,1391.68 1065.77,1391.68 1065.77,1307.45 998.517,1307.45 "/>
<path clip-path="url(#clip912)" d="M1065.77 1269.68 L1065.77 1391.68 L1133.02 1391.68 L1133.02 1269.68 L1065.77 1269.68 L1065.77 1269.68  Z" fill="#ff8c00" fill-rule="evenodd" fill-opacity="1"/>
<polyline clip-path="url(#clip912)" style="stroke:#000000; stroke-linecap:round; stroke-linejoin:round; stroke-width:4; stroke-opacity:1; fill:none" points="1065.77,1269.68 1065.77,1391.68 1133.02,1391.68 1133.02,1269.68 1065.77,1269.68 "/>
<path clip-path="url(#clip912)" d="M1133.02 1333.59 L1133.02 1391.68 L1200.27 1391.68 L1200.27 1333.59 L1133.02 1333.59 L1133.02 1333.59  Z" fill="#ff8c00" fill-rule="evenodd" fill-opacity="1"/>
<polyline clip-path="url(#clip912)" style="stroke:#000000; stroke-linecap:round; stroke-linejoin:round; stroke-width:4; stroke-opacity:1; fill:none" points="1133.02,1333.59 1133.02,1391.68 1200.27,1391.68 1200.27,1333.59 1133.02,1333.59 "/>
<path clip-path="url(#clip912)" d="M1200.27 1356.83 L1200.27 1391.68 L1267.52 1391.68 L1267.52 1356.83 L1200.27 1356.83 L1200.27 1356.83  Z" fill="#ff8c00" fill-rule="evenodd" fill-opacity="1"/>
<polyline clip-path="url(#clip912)" style="stroke:#000000; stroke-linecap:round; stroke-linejoin:round; stroke-width:4; stroke-opacity:1; fill:none" points="1200.27,1356.83 1200.27,1391.68 1267.52,1391.68 1267.52,1356.83 1200.27,1356.83 "/>
<path clip-path="url(#clip912)" d="M1267.52 1362.64 L1267.52 1391.68 L1334.77 1391.68 L1334.77 1362.64 L1267.52 1362.64 L1267.52 1362.64  Z" fill="#ff8c00" fill-rule="evenodd" fill-opacity="1"/>
<polyline clip-path="url(#clip912)" style="stroke:#000000; stroke-linecap:round; stroke-linejoin:round; stroke-width:4; stroke-opacity:1; fill:none" points="1267.52,1362.64 1267.52,1391.68 1334.77,1391.68 1334.77,1362.64 1267.52,1362.64 "/>
<path clip-path="url(#clip912)" d="M1334.77 1365.54 L1334.77 1391.68 L1402.03 1391.68 L1402.03 1365.54 L1334.77 1365.54 L1334.77 1365.54  Z" fill="#ff8c00" fill-rule="evenodd" fill-opacity="1"/>
<polyline clip-path="url(#clip912)" style="stroke:#000000; stroke-linecap:round; stroke-linejoin:round; stroke-width:4; stroke-opacity:1; fill:none" points="1334.77,1365.54 1334.77,1391.68 1402.03,1391.68 1402.03,1365.54 1334.77,1365.54 "/>
<path clip-path="url(#clip912)" d="M1402.03 1359.73 L1402.03 1391.68 L1469.28 1391.68 L1469.28 1359.73 L1402.03 1359.73 L1402.03 1359.73  Z" fill="#ff8c00" fill-rule="evenodd" fill-opacity="1"/>
<polyline clip-path="url(#clip912)" style="stroke:#000000; stroke-linecap:round; stroke-linejoin:round; stroke-width:4; stroke-opacity:1; fill:none" points="1402.03,1359.73 1402.03,1391.68 1469.28,1391.68 1469.28,1359.73 1402.03,1359.73 "/>
<path clip-path="url(#clip912)" d="M1469.28 1353.92 L1469.28 1391.68 L1536.53 1391.68 L1536.53 1353.92 L1469.28 1353.92 L1469.28 1353.92  Z" fill="#ff8c00" fill-rule="evenodd" fill-opacity="1"/>
<polyline clip-path="url(#clip912)" style="stroke:#000000; stroke-linecap:round; stroke-linejoin:round; stroke-width:4; stroke-opacity:1; fill:none" points="1469.28,1353.92 1469.28,1391.68 1536.53,1391.68 1536.53,1353.92 1469.28,1353.92 "/>
<path clip-path="url(#clip912)" d="M1536.53 1388.78 L1536.53 1391.68 L1603.78 1391.68 L1603.78 1388.78 L1536.53 1388.78 L1536.53 1388.78  Z" fill="#ff8c00" fill-rule="evenodd" fill-opacity="1"/>
<polyline clip-path="url(#clip912)" style="stroke:#000000; stroke-linecap:round; stroke-linejoin:round; stroke-width:4; stroke-opacity:1; fill:none" points="1536.53,1388.78 1536.53,1391.68 1603.78,1391.68 1603.78,1388.78 1536.53,1388.78 "/>
<path clip-path="url(#clip912)" d="M1603.78 1365.54 L1603.78 1391.68 L1671.03 1391.68 L1671.03 1365.54 L1603.78 1365.54 L1603.78 1365.54  Z" fill="#ff8c00" fill-rule="evenodd" fill-opacity="1"/>
<polyline clip-path="url(#clip912)" style="stroke:#000000; stroke-linecap:round; stroke-linejoin:round; stroke-width:4; stroke-opacity:1; fill:none" points="1603.78,1365.54 1603.78,1391.68 1671.03,1391.68 1671.03,1365.54 1603.78,1365.54 "/>
<path clip-path="url(#clip912)" d="M1671.03 1391.68 L1671.03 1391.68 L1738.28 1391.68 L1738.28 1391.68 L1671.03 1391.68 L1671.03 1391.68  Z" fill="#ff8c00" fill-rule="evenodd" fill-opacity="1"/>
<polyline clip-path="url(#clip912)" style="stroke:#000000; stroke-linecap:round; stroke-linejoin:round; stroke-width:4; stroke-opacity:1; fill:none" points="1671.03,1391.68 1671.03,1391.68 1738.28,1391.68 1671.03,1391.68 "/>
<path clip-path="url(#clip912)" d="M1738.28 1391.68 L1738.28 1391.68 L1805.54 1391.68 L1805.54 1391.68 L1738.28 1391.68 L1738.28 1391.68  Z" fill="#ff8c00" fill-rule="evenodd" fill-opacity="1"/>
<polyline clip-path="url(#clip912)" style="stroke:#000000; stroke-linecap:round; stroke-linejoin:round; stroke-width:4; stroke-opacity:1; fill:none" points="1738.28,1391.68 1738.28,1391.68 1805.54,1391.68 1738.28,1391.68 "/>
<path clip-path="url(#clip912)" d="M1805.54 1388.78 L1805.54 1391.68 L1872.79 1391.68 L1872.79 1388.78 L1805.54 1388.78 L1805.54 1388.78  Z" fill="#ff8c00" fill-rule="evenodd" fill-opacity="1"/>
<polyline clip-path="url(#clip912)" style="stroke:#000000; stroke-linecap:round; stroke-linejoin:round; stroke-width:4; stroke-opacity:1; fill:none" points="1805.54,1388.78 1805.54,1391.68 1872.79,1391.68 1872.79,1388.78 1805.54,1388.78 "/>
<path clip-path="url(#clip912)" d="M1872.79 1391.68 L1872.79 1391.68 L1940.04 1391.68 L1940.04 1391.68 L1872.79 1391.68 L1872.79 1391.68  Z" fill="#ff8c00" fill-rule="evenodd" fill-opacity="1"/>
<polyline clip-path="url(#clip912)" style="stroke:#000000; stroke-linecap:round; stroke-linejoin:round; stroke-width:4; stroke-opacity:1; fill:none" points="1872.79,1391.68 1872.79,1391.68 1940.04,1391.68 1872.79,1391.68 "/>
<path clip-path="url(#clip912)" d="M1940.04 1391.68 L1940.04 1391.68 L2007.29 1391.68 L2007.29 1391.68 L1940.04 1391.68 L1940.04 1391.68  Z" fill="#ff8c00" fill-rule="evenodd" fill-opacity="1"/>
<polyline clip-path="url(#clip912)" style="stroke:#000000; stroke-linecap:round; stroke-linejoin:round; stroke-width:4; stroke-opacity:1; fill:none" points="1940.04,1391.68 1940.04,1391.68 2007.29,1391.68 1940.04,1391.68 "/>
<path clip-path="url(#clip912)" d="M2007.29 1391.68 L2007.29 1391.68 L2074.54 1391.68 L2074.54 1391.68 L2007.29 1391.68 L2007.29 1391.68  Z" fill="#ff8c00" fill-rule="evenodd" fill-opacity="1"/>
<polyline clip-path="url(#clip912)" style="stroke:#000000; stroke-linecap:round; stroke-linejoin:round; stroke-width:4; stroke-opacity:1; fill:none" points="2007.29,1391.68 2007.29,1391.68 2074.54,1391.68 2007.29,1391.68 "/>
<path clip-path="url(#clip912)" d="M2074.54 1391.68 L2074.54 1391.68 L2141.79 1391.68 L2141.79 1391.68 L2074.54 1391.68 L2074.54 1391.68  Z" fill="#ff8c00" fill-rule="evenodd" fill-opacity="1"/>
<polyline clip-path="url(#clip912)" style="stroke:#000000; stroke-linecap:round; stroke-linejoin:round; stroke-width:4; stroke-opacity:1; fill:none" points="2074.54,1391.68 2074.54,1391.68 2141.79,1391.68 2074.54,1391.68 "/>
<path clip-path="url(#clip912)" d="M2141.79 1385.87 L2141.79 1391.68 L2209.04 1391.68 L2209.04 1385.87 L2141.79 1385.87 L2141.79 1385.87  Z" fill="#ff8c00" fill-rule="evenodd" fill-opacity="1"/>
<polyline clip-path="url(#clip912)" style="stroke:#000000; stroke-linecap:round; stroke-linejoin:round; stroke-width:4; stroke-opacity:1; fill:none" points="2141.79,1385.87 2141.79,1391.68 2209.04,1391.68 2209.04,1385.87 2141.79,1385.87 "/>
<circle clip-path="url(#clip912)" style="fill:#ff8c00; stroke:none; fill-opacity:0" cx="426.88" cy="78.7402" r="2"/>
<circle clip-path="url(#clip912)" style="fill:#ff8c00; stroke:none; fill-opacity:0" cx="494.131" cy="421.5" r="2"/>
<circle clip-path="url(#clip912)" style="fill:#ff8c00; stroke:none; fill-opacity:0" cx="561.383" cy="738.117" r="2"/>
<circle clip-path="url(#clip912)" style="fill:#ff8c00; stroke:none; fill-opacity:0" cx="628.634" cy="836.878" r="2"/>
<circle clip-path="url(#clip912)" style="fill:#ff8c00; stroke:none; fill-opacity:0" cx="695.886" cy="935.639" r="2"/>
<circle clip-path="url(#clip912)" style="fill:#ff8c00; stroke:none; fill-opacity:0" cx="763.137" cy="1130.26" r="2"/>
<circle clip-path="url(#clip912)" style="fill:#ff8c00; stroke:none; fill-opacity:0" cx="830.389" cy="1156.4" r="2"/>
<circle clip-path="url(#clip912)" style="fill:#ff8c00; stroke:none; fill-opacity:0" cx="897.64" cy="1269.68" r="2"/>
<circle clip-path="url(#clip912)" style="fill:#ff8c00; stroke:none; fill-opacity:0" cx="964.892" cy="1191.26" r="2"/>
<circle clip-path="url(#clip912)" style="fill:#ff8c00; stroke:none; fill-opacity:0" cx="1032.14" cy="1307.45" r="2"/>
<circle clip-path="url(#clip912)" style="fill:#ff8c00; stroke:none; fill-opacity:0" cx="1099.39" cy="1269.68" r="2"/>
<circle clip-path="url(#clip912)" style="fill:#ff8c00; stroke:none; fill-opacity:0" cx="1166.65" cy="1333.59" r="2"/>
<circle clip-path="url(#clip912)" style="fill:#ff8c00; stroke:none; fill-opacity:0" cx="1233.9" cy="1356.83" r="2"/>
<circle clip-path="url(#clip912)" style="fill:#ff8c00; stroke:none; fill-opacity:0" cx="1301.15" cy="1362.64" r="2"/>
<circle clip-path="url(#clip912)" style="fill:#ff8c00; stroke:none; fill-opacity:0" cx="1368.4" cy="1365.54" r="2"/>
<circle clip-path="url(#clip912)" style="fill:#ff8c00; stroke:none; fill-opacity:0" cx="1435.65" cy="1359.73" r="2"/>
<circle clip-path="url(#clip912)" style="fill:#ff8c00; stroke:none; fill-opacity:0" cx="1502.9" cy="1353.92" r="2"/>
<circle clip-path="url(#clip912)" style="fill:#ff8c00; stroke:none; fill-opacity:0" cx="1570.15" cy="1388.78" r="2"/>
<circle clip-path="url(#clip912)" style="fill:#ff8c00; stroke:none; fill-opacity:0" cx="1637.41" cy="1365.54" r="2"/>
<circle clip-path="url(#clip912)" style="fill:#ff8c00; stroke:none; fill-opacity:0" cx="1704.66" cy="1391.68" r="2"/>
<circle clip-path="url(#clip912)" style="fill:#ff8c00; stroke:none; fill-opacity:0" cx="1771.91" cy="1391.68" r="2"/>
<circle clip-path="url(#clip912)" style="fill:#ff8c00; stroke:none; fill-opacity:0" cx="1839.16" cy="1388.78" r="2"/>
<circle clip-path="url(#clip912)" style="fill:#ff8c00; stroke:none; fill-opacity:0" cx="1906.41" cy="1391.68" r="2"/>
<circle clip-path="url(#clip912)" style="fill:#ff8c00; stroke:none; fill-opacity:0" cx="1973.66" cy="1391.68" r="2"/>
<circle clip-path="url(#clip912)" style="fill:#ff8c00; stroke:none; fill-opacity:0" cx="2040.92" cy="1391.68" r="2"/>
<circle clip-path="url(#clip912)" style="fill:#ff8c00; stroke:none; fill-opacity:0" cx="2108.17" cy="1391.68" r="2"/>
<circle clip-path="url(#clip912)" style="fill:#ff8c00; stroke:none; fill-opacity:0" cx="2175.42" cy="1385.87" r="2"/>
</svg>
