<?xml version="1.0" encoding="utf-8"?>
<svg xmlns="http://www.w3.org/2000/svg" xmlns:xlink="http://www.w3.org/1999/xlink" width="800" height="300" viewBox="0 0 3200 1200">
<defs>
  <clipPath id="clip580">
    <rect x="0" y="0" width="3200" height="1200"/>
  </clipPath>
</defs>
<path clip-path="url(#clip580)" d="M0 1200 L3200 1200 L3200 0 L0 0  Z" fill="#ffffff" fill-rule="evenodd" fill-opacity="1"/>
<defs>
  <clipPath id="clip581">
    <rect x="640" y="0" width="2241" height="1200"/>
  </clipPath>
</defs>
<path clip-path="url(#clip580)" d="M298.41 1031.59 L1559.13 1031.59 L1559.13 128.508 L298.41 128.508  Z" fill="#ffffff" fill-rule="evenodd" fill-opacity="1"/>
<defs>
  <clipPath id="clip582">
    <rect x="298" y="128" width="1262" height="904"/>
  </clipPath>
</defs>
<polyline clip-path="url(#clip582)" style="stroke:#000000; stroke-linecap:round; stroke-linejoin:round; stroke-width:2; stroke-opacity:0.1; fill:none" points="322.077,1031.59 322.077,128.508 "/>
<polyline clip-path="url(#clip582)" style="stroke:#000000; stroke-linecap:round; stroke-linejoin:round; stroke-width:2; stroke-opacity:0.1; fill:none" points="622.42,1031.59 622.42,128.508 "/>
<polyline clip-path="url(#clip582)" style="stroke:#000000; stroke-linecap:round; stroke-linejoin:round; stroke-width:2; stroke-opacity:0.1; fill:none" points="922.763,1031.59 922.763,128.508 "/>
<polyline clip-path="url(#clip582)" style="stroke:#000000; stroke-linecap:round; stroke-linejoin:round; stroke-width:2; stroke-opacity:0.1; fill:none" points="1223.11,1031.59 1223.11,128.508 "/>
<polyline clip-path="url(#clip582)" style="stroke:#000000; stroke-linecap:round; stroke-linejoin:round; stroke-width:2; stroke-opacity:0.1; fill:none" points="1523.45,1031.59 1523.45,128.508 "/>
<polyline clip-path="url(#clip580)" style="stroke:#000000; stroke-linecap:round; stroke-linejoin:round; stroke-width:4; stroke-opacity:1; fill:none" points="298.41,1031.59 1559.13,1031.59 "/>
<polyline clip-path="url(#clip580)" style="stroke:#000000; stroke-linecap:round; stroke-linejoin:round; stroke-width:4; stroke-opacity:1; fill:none" points="322.077,1031.59 322.077,1012.7 "/>
<polyline clip-path="url(#clip580)" style="stroke:#000000; stroke-linecap:round; stroke-linejoin:round; stroke-width:4; stroke-opacity:1; fill:none" points="622.42,1031.59 622.42,1012.7 "/>
<polyline clip-path="url(#clip580)" style="stroke:#000000; stroke-linecap:round; stroke-linejoin:round; stroke-width:4; stroke-opacity:1; fill:none" points="922.763,1031.59 922.763,1012.7 "/>
<polyline clip-path="url(#clip580)" style="stroke:#000000; stroke-linecap:round; stroke-linejoin:round; stroke-width:4; stroke-opacity:1; fill:none" points="1223.11,1031.59 1223.11,1012.7 "/>
<polyline clip-path="url(#clip580)" style="stroke:#000000; stroke-linecap:round; stroke-linejoin:round; stroke-width:4; stroke-opacity:1; fill:none" points="1523.45,1031.59 1523.45,1012.7 "/>
<path clip-path="url(#clip580)" d="M322.077 1068.91 Q318.466 1068.91 316.637 1072.48 Q314.832 1076.02 314.832 1083.15 Q314.832 1090.25 316.637 1093.82 Q318.466 1097.36 322.077 1097.36 Q325.711 1097.36 327.517 1093.82 Q329.345 1090.25 329.345 1083.15 Q329.345 1076.02 327.517 1072.48 Q325.711 1068.91 322.077 1068.91 M322.077 1065.21 Q327.887 1065.21 330.943 1069.82 Q334.021 1074.4 334.021 1083.15 Q334.021 1091.88 330.943 1096.48 Q327.887 1101.07 322.077 1101.07 Q316.267 1101.07 313.188 1096.48 Q310.133 1091.88 310.133 1083.15 Q310.133 1074.4 313.188 1069.82 Q316.267 1065.21 322.077 1065.21 Z" fill="#000000" fill-rule="nonzero" fill-opacity="1" /><path clip-path="url(#clip580)" d="M601.691 1096.46 L618.01 1096.46 L618.01 1100.39 L596.066 1100.39 L596.066 1096.46 Q598.728 1093.7 603.311 1089.07 Q607.918 1084.42 609.098 1083.08 Q611.344 1080.56 612.223 1078.82 Q613.126 1077.06 613.126 1075.37 Q613.126 1072.62 611.182 1070.88 Q609.26 1069.14 606.159 1069.14 Q603.96 1069.14 601.506 1069.91 Q599.075 1070.67 596.298 1072.22 L596.298 1067.5 Q599.122 1066.37 601.575 1065.79 Q604.029 1065.21 606.066 1065.21 Q611.436 1065.21 614.631 1067.89 Q617.825 1070.58 617.825 1075.07 Q617.825 1077.2 617.015 1079.12 Q616.228 1081.02 614.122 1083.61 Q613.543 1084.28 610.441 1087.5 Q607.339 1090.69 601.691 1096.46 Z" fill="#000000" fill-rule="nonzero" fill-opacity="1" /><path clip-path="url(#clip580)" d="M627.871 1065.83 L646.228 1065.83 L646.228 1069.77 L632.154 1069.77 L632.154 1078.24 Q633.172 1077.89 634.191 1077.73 Q635.209 1077.55 636.228 1077.55 Q642.015 1077.55 645.394 1080.72 Q648.774 1083.89 648.774 1089.31 Q648.774 1094.88 645.302 1097.99 Q641.83 1101.07 635.51 1101.07 Q633.334 1101.07 631.066 1100.69 Q628.82 1100.32 626.413 1099.58 L626.413 1094.88 Q628.496 1096.02 630.719 1096.57 Q632.941 1097.13 635.418 1097.13 Q639.422 1097.13 641.76 1095.02 Q644.098 1092.92 644.098 1089.31 Q644.098 1085.69 641.76 1083.59 Q639.422 1081.48 635.418 1081.48 Q633.543 1081.48 631.668 1081.9 Q629.816 1082.32 627.871 1083.19 L627.871 1065.83 Z" fill="#000000" fill-rule="nonzero" fill-opacity="1" /><path clip-path="url(#clip580)" d="M897.462 1065.83 L915.819 1065.83 L915.819 1069.77 L901.745 1069.77 L901.745 1078.24 Q902.763 1077.89 903.782 1077.73 Q904.8 1077.55 905.819 1077.55 Q911.606 1077.55 914.985 1080.72 Q918.365 1083.89 918.365 1089.31 Q918.365 1094.88 914.893 1097.99 Q911.421 1101.07 905.101 1101.07 Q902.925 1101.07 900.657 1100.69 Q898.411 1100.32 896.004 1099.58 L896.004 1094.88 Q898.087 1096.02 900.31 1096.57 Q902.532 1097.13 905.009 1097.13 Q909.013 1097.13 911.351 1095.02 Q913.689 1092.92 913.689 1089.31 Q913.689 1085.69 911.351 1083.59 Q909.013 1081.48 905.009 1081.48 Q903.134 1081.48 901.259 1081.9 Q899.407 1082.32 897.462 1083.19 L897.462 1065.83 Z" fill="#000000" fill-rule="nonzero" fill-opacity="1" /><path clip-path="url(#clip580)" d="M937.578 1068.91 Q933.967 1068.91 932.138 1072.48 Q930.333 1076.02 930.333 1083.15 Q930.333 1090.25 932.138 1093.82 Q933.967 1097.36 937.578 1097.36 Q941.212 1097.36 943.018 1093.82 Q944.846 1090.25 944.846 1083.15 Q944.846 1076.02 943.018 1072.48 Q941.212 1068.91 937.578 1068.91 M937.578 1065.21 Q943.388 1065.21 946.444 1069.82 Q949.522 1074.4 949.522 1083.15 Q949.522 1091.88 946.444 1096.48 Q943.388 1101.07 937.578 1101.07 Q931.768 1101.07 928.689 1096.48 Q925.633 1091.88 925.633 1083.15 Q925.633 1074.4 928.689 1069.82 Q931.768 1065.21 937.578 1065.21 Z" fill="#000000" fill-rule="nonzero" fill-opacity="1" /><path clip-path="url(#clip580)" d="M1196.96 1065.83 L1219.18 1065.83 L1219.18 1067.82 L1206.64 1100.39 L1201.75 1100.39 L1213.56 1069.77 L1196.96 1069.77 L1196.96 1065.83 Z" fill="#000000" fill-rule="nonzero" fill-opacity="1" /><path clip-path="url(#clip580)" d="M1228.35 1065.83 L1246.71 1065.83 L1246.71 1069.77 L1232.63 1069.77 L1232.63 1078.24 Q1233.65 1077.89 1234.67 1077.73 Q1235.69 1077.55 1236.71 1077.55 Q1242.49 1077.55 1245.87 1080.72 Q1249.25 1083.89 1249.25 1089.31 Q1249.25 1094.88 1245.78 1097.99 Q1242.31 1101.07 1235.99 1101.07 Q1233.81 1101.07 1231.54 1100.69 Q1229.3 1100.32 1226.89 1099.58 L1226.89 1094.88 Q1228.97 1096.02 1231.2 1096.57 Q1233.42 1097.13 1235.9 1097.13 Q1239.9 1097.13 1242.24 1095.02 Q1244.58 1092.92 1244.58 1089.31 Q1244.58 1085.69 1242.24 1083.59 Q1239.9 1081.48 1235.9 1081.48 Q1234.02 1081.48 1232.15 1081.9 Q1230.29 1082.32 1228.35 1083.19 L1228.35 1065.83 Z" fill="#000000" fill-rule="nonzero" fill-opacity="1" /><path clip-path="url(#clip580)" d="M1483.06 1096.46 L1490.69 1096.46 L1490.69 1070.09 L1482.38 1071.76 L1482.38 1067.5 L1490.65 1065.83 L1495.32 1065.83 L1495.32 1096.46 L1502.96 1096.46 L1502.96 1100.39 L1483.06 1100.39 L1483.06 1096.46 Z" fill="#000000" fill-rule="nonzero" fill-opacity="1" /><path clip-path="url(#clip580)" d="M1522.41 1068.91 Q1518.8 1068.91 1516.97 1072.48 Q1515.16 1076.02 1515.16 1083.15 Q1515.16 1090.25 1516.97 1093.82 Q1518.8 1097.36 1522.41 1097.36 Q1526.04 1097.36 1527.85 1093.82 Q1529.68 1090.25 1529.68 1083.15 Q1529.68 1076.02 1527.85 1072.48 Q1526.04 1068.91 1522.41 1068.91 M1522.41 1065.21 Q1528.22 1065.21 1531.27 1069.82 Q1534.35 1074.4 1534.35 1083.15 Q1534.35 1091.88 1531.27 1096.48 Q1528.22 1101.07 1522.41 1101.07 Q1516.6 1101.07 1513.52 1096.48 Q1510.46 1091.88 1510.46 1083.15 Q1510.46 1074.4 1513.52 1069.82 Q1516.6 1065.21 1522.41 1065.21 Z" fill="#000000" fill-rule="nonzero" fill-opacity="1" /><path clip-path="url(#clip580)" d="M1552.57 1068.91 Q1548.96 1068.91 1547.13 1072.48 Q1545.32 1076.02 1545.32 1083.15 Q1545.32 1090.25 1547.13 1093.82 Q1548.96 1097.36 1552.57 1097.36 Q1556.2 1097.36 1558.01 1093.82 Q1559.84 1090.25 1559.84 1083.15 Q1559.84 1076.02 1558.01 1072.48 Q1556.2 1068.91 1552.57 1068.91 M1552.57 1065.21 Q1558.38 1065.21 1561.44 1069.82 Q1564.51 1074.4 1564.51 1083.15 Q1564.51 1091.88 1561.44 1096.48 Q1558.38 1101.07 1552.57 1101.07 Q1546.76 1101.07 1543.68 1096.48 Q1540.63 1091.88 1540.63 1083.15 Q1540.63 1074.4 1543.68 1069.82 Q1546.76 1065.21 1552.57 1065.21 Z" fill="#000000" fill-rule="nonzero" fill-opacity="1" /><path clip-path="url(#clip580)" d="M796.491 1140.94 L802.92 1140.94 L802.92 1188.46 L796.491 1188.46 L796.491 1140.94 Z" fill="#000000" fill-rule="nonzero" fill-opacity="1" /><path clip-path="url(#clip580)" d="M821.253 1142.69 L821.253 1152.81 L833.316 1152.81 L833.316 1157.36 L821.253 1157.36 L821.253 1176.71 Q821.253 1181.07 822.431 1182.31 Q823.64 1183.56 827.301 1183.56 L833.316 1183.56 L833.316 1188.46 L827.301 1188.46 Q820.521 1188.46 817.943 1185.94 Q815.365 1183.4 815.365 1176.71 L815.365 1157.36 L811.068 1157.36 L811.068 1152.81 L815.365 1152.81 L815.365 1142.69 L821.253 1142.69 Z" fill="#000000" fill-rule="nonzero" fill-opacity="1" /><path clip-path="url(#clip580)" d="M871.51 1169.17 L871.51 1172.03 L844.584 1172.03 Q844.965 1178.08 848.212 1181.26 Q851.49 1184.42 857.315 1184.42 Q860.689 1184.42 863.84 1183.59 Q867.023 1182.76 870.142 1181.11 L870.142 1186.64 Q866.991 1187.98 863.681 1188.68 Q860.37 1189.38 856.965 1189.38 Q848.435 1189.38 843.438 1184.42 Q838.472 1179.45 838.472 1170.98 Q838.472 1162.23 843.183 1157.11 Q847.926 1151.95 855.946 1151.95 Q863.14 1151.95 867.309 1156.6 Q871.51 1161.21 871.51 1169.17 M865.654 1167.45 Q865.59 1162.64 862.949 1159.78 Q860.339 1156.92 856.01 1156.92 Q851.108 1156.92 848.148 1159.68 Q845.22 1162.45 844.774 1167.48 L865.654 1167.45 Z" fill="#000000" fill-rule="nonzero" fill-opacity="1" /><path clip-path="url(#clip580)" d="M901.779 1158.28 Q900.793 1157.71 899.615 1157.46 Q898.469 1157.17 897.069 1157.17 Q892.104 1157.17 889.43 1160.42 Q886.788 1163.63 886.788 1169.68 L886.788 1188.46 L880.9 1188.46 L880.9 1152.81 L886.788 1152.81 L886.788 1158.35 Q888.634 1155.1 891.594 1153.54 Q894.554 1151.95 898.788 1151.95 Q899.392 1151.95 900.124 1152.05 Q900.856 1152.11 901.748 1152.27 L901.779 1158.28 Z" fill="#000000" fill-rule="nonzero" fill-opacity="1" /><path clip-path="url(#clip580)" d="M924.123 1170.54 Q917.025 1170.54 914.288 1172.16 Q911.551 1173.78 911.551 1177.7 Q911.551 1180.82 913.588 1182.66 Q915.657 1184.48 919.19 1184.48 Q924.059 1184.48 926.988 1181.04 Q929.948 1177.57 929.948 1171.84 L929.948 1170.54 L924.123 1170.54 M935.804 1168.12 L935.804 1188.46 L929.948 1188.46 L929.948 1183.05 Q927.942 1186.29 924.951 1187.85 Q921.959 1189.38 917.63 1189.38 Q912.155 1189.38 908.909 1186.33 Q905.694 1183.24 905.694 1178.08 Q905.694 1172.07 909.705 1169.01 Q913.747 1165.96 921.736 1165.96 L929.948 1165.96 L929.948 1165.38 Q929.948 1161.34 927.274 1159.14 Q924.632 1156.92 919.826 1156.92 Q916.771 1156.92 913.874 1157.65 Q910.978 1158.38 908.304 1159.84 L908.304 1154.43 Q911.519 1153.19 914.543 1152.59 Q917.566 1151.95 920.431 1151.95 Q928.165 1151.95 931.985 1155.96 Q935.804 1159.97 935.804 1168.12 Z" fill="#000000" fill-rule="nonzero" fill-opacity="1" /><path clip-path="url(#clip580)" d="M953.66 1142.69 L953.66 1152.81 L965.723 1152.81 L965.723 1157.36 L953.66 1157.36 L953.66 1176.71 Q953.66 1181.07 954.838 1182.31 Q956.047 1183.56 959.707 1183.56 L965.723 1183.56 L965.723 1188.46 L959.707 1188.46 Q952.928 1188.46 950.35 1185.94 Q947.772 1183.4 947.772 1176.71 L947.772 1157.36 L943.475 1157.36 L943.475 1152.81 L947.772 1152.81 L947.772 1142.69 L953.66 1142.69 Z" fill="#000000" fill-rule="nonzero" fill-opacity="1" /><path clip-path="url(#clip580)" d="M973.425 1152.81 L979.282 1152.81 L979.282 1188.46 L973.425 1188.46 L973.425 1152.81 M973.425 1138.93 L979.282 1138.93 L979.282 1146.35 L973.425 1146.35 L973.425 1138.93 Z" fill="#000000" fill-rule="nonzero" fill-opacity="1" /><path clip-path="url(#clip580)" d="M1005.35 1156.92 Q1000.64 1156.92 997.902 1160.61 Q995.164 1164.27 995.164 1170.67 Q995.164 1177.06 997.87 1180.76 Q1000.61 1184.42 1005.35 1184.42 Q1010.03 1184.42 1012.77 1180.72 Q1015.5 1177.03 1015.5 1170.67 Q1015.5 1164.33 1012.77 1160.64 Q1010.03 1156.92 1005.35 1156.92 M1005.35 1151.95 Q1012.99 1151.95 1017.35 1156.92 Q1021.71 1161.88 1021.71 1170.67 Q1021.71 1179.42 1017.35 1184.42 Q1012.99 1189.38 1005.35 1189.38 Q997.679 1189.38 993.318 1184.42 Q988.99 1179.42 988.99 1170.67 Q988.99 1161.88 993.318 1156.92 Q997.679 1151.95 1005.35 1151.95 Z" fill="#000000" fill-rule="nonzero" fill-opacity="1" /><path clip-path="url(#clip580)" d="M1061.05 1166.94 L1061.05 1188.46 L1055.19 1188.46 L1055.19 1167.13 Q1055.19 1162.07 1053.22 1159.56 Q1051.25 1157.04 1047.3 1157.04 Q1042.56 1157.04 1039.82 1160.07 Q1037.08 1163.09 1037.08 1168.31 L1037.08 1188.46 L1031.19 1188.46 L1031.19 1152.81 L1037.08 1152.81 L1037.08 1158.35 Q1039.18 1155.13 1042.02 1153.54 Q1044.88 1151.95 1048.6 1151.95 Q1054.75 1151.95 1057.9 1155.77 Q1061.05 1159.56 1061.05 1166.94 Z" fill="#000000" fill-rule="nonzero" fill-opacity="1" /><polyline clip-path="url(#clip582)" style="stroke:#000000; stroke-linecap:round; stroke-linejoin:round; stroke-width:2; stroke-opacity:0.1; fill:none" points="298.41,912.628 1559.13,912.628 "/>
<polyline clip-path="url(#clip582)" style="stroke:#000000; stroke-linecap:round; stroke-linejoin:round; stroke-width:2; stroke-opacity:0.1; fill:none" points="298.41,786.458 1559.13,786.458 "/>
<polyline clip-path="url(#clip582)" style="stroke:#000000; stroke-linecap:round; stroke-linejoin:round; stroke-width:2; stroke-opacity:0.1; fill:none" points="298.41,660.288 1559.13,660.288 "/>
<polyline clip-path="url(#clip582)" style="stroke:#000000; stroke-linecap:round; stroke-linejoin:round; stroke-width:2; stroke-opacity:0.1; fill:none" points="298.41,534.118 1559.13,534.118 "/>
<polyline clip-path="url(#clip582)" style="stroke:#000000; stroke-linecap:round; stroke-linejoin:round; stroke-width:2; stroke-opacity:0.1; fill:none" points="298.41,407.948 1559.13,407.948 "/>
<polyline clip-path="url(#clip582)" style="stroke:#000000; stroke-linecap:round; stroke-linejoin:round; stroke-width:2; stroke-opacity:0.1; fill:none" points="298.41,281.778 1559.13,281.778 "/>
<polyline clip-path="url(#clip582)" style="stroke:#000000; stroke-linecap:round; stroke-linejoin:round; stroke-width:2; stroke-opacity:0.1; fill:none" points="298.41,155.609 1559.13,155.609 "/>
<polyline clip-path="url(#clip580)" style="stroke:#000000; stroke-linecap:round; stroke-linejoin:round; stroke-width:4; stroke-opacity:1; fill:none" points="298.41,1031.59 298.41,128.508 "/>
<polyline clip-path="url(#clip580)" style="stroke:#000000; stroke-linecap:round; stroke-linejoin:round; stroke-width:4; stroke-opacity:1; fill:none" points="298.41,912.628 317.308,912.628 "/>
<polyline clip-path="url(#clip580)" style="stroke:#000000; stroke-linecap:round; stroke-linejoin:round; stroke-width:4; stroke-opacity:1; fill:none" points="298.41,786.458 317.308,786.458 "/>
<polyline clip-path="url(#clip580)" style="stroke:#000000; stroke-linecap:round; stroke-linejoin:round; stroke-width:4; stroke-opacity:1; fill:none" points="298.41,660.288 317.308,660.288 "/>
<polyline clip-path="url(#clip580)" style="stroke:#000000; stroke-linecap:round; stroke-linejoin:round; stroke-width:4; stroke-opacity:1; fill:none" points="298.41,534.118 317.308,534.118 "/>
<polyline clip-path="url(#clip580)" style="stroke:#000000; stroke-linecap:round; stroke-linejoin:round; stroke-width:4; stroke-opacity:1; fill:none" points="298.41,407.948 317.308,407.948 "/>
<polyline clip-path="url(#clip580)" style="stroke:#000000; stroke-linecap:round; stroke-linejoin:round; stroke-width:4; stroke-opacity:1; fill:none" points="298.41,281.778 317.308,281.778 "/>
<polyline clip-path="url(#clip580)" style="stroke:#000000; stroke-linecap:round; stroke-linejoin:round; stroke-width:4; stroke-opacity:1; fill:none" points="298.41,155.609 317.308,155.609 "/>
<path clip-path="url(#clip580)" d="M133.906 898.426 Q130.295 898.426 128.466 901.991 Q126.661 905.533 126.661 912.662 Q126.661 919.769 128.466 923.334 Q130.295 926.875 133.906 926.875 Q137.54 926.875 139.346 923.334 Q141.174 919.769 141.174 912.662 Q141.174 905.533 139.346 901.991 Q137.54 898.426 133.906 898.426 M133.906 894.723 Q139.716 894.723 142.772 899.329 Q145.85 903.912 145.85 912.662 Q145.85 921.389 142.772 925.996 Q139.716 930.579 133.906 930.579 Q128.096 930.579 125.017 925.996 Q121.962 921.389 121.962 912.662 Q121.962 903.912 125.017 899.329 Q128.096 894.723 133.906 894.723 Z" fill="#000000" fill-rule="nonzero" fill-opacity="1" /><path clip-path="url(#clip580)" d="M154.068 924.028 L158.952 924.028 L158.952 929.908 L154.068 929.908 L154.068 924.028 Z" fill="#000000" fill-rule="nonzero" fill-opacity="1" /><path clip-path="url(#clip580)" d="M179.137 898.426 Q175.526 898.426 173.697 901.991 Q171.892 905.533 171.892 912.662 Q171.892 919.769 173.697 923.334 Q175.526 926.875 179.137 926.875 Q182.771 926.875 184.577 923.334 Q186.406 919.769 186.406 912.662 Q186.406 905.533 184.577 901.991 Q182.771 898.426 179.137 898.426 M179.137 894.723 Q184.947 894.723 188.003 899.329 Q191.082 903.912 191.082 912.662 Q191.082 921.389 188.003 925.996 Q184.947 930.579 179.137 930.579 Q173.327 930.579 170.248 925.996 Q167.193 921.389 167.193 912.662 Q167.193 903.912 170.248 899.329 Q173.327 894.723 179.137 894.723 Z" fill="#000000" fill-rule="nonzero" fill-opacity="1" /><path clip-path="url(#clip580)" d="M198.119 895.348 L220.341 895.348 L220.341 897.338 L207.794 929.908 L202.91 929.908 L214.716 899.283 L198.119 899.283 L198.119 895.348 Z" fill="#000000" fill-rule="nonzero" fill-opacity="1" /><path clip-path="url(#clip580)" d="M229.507 895.348 L247.864 895.348 L247.864 899.283 L233.79 899.283 L233.79 907.755 Q234.808 907.408 235.827 907.246 Q236.845 907.061 237.864 907.061 Q243.651 907.061 247.03 910.232 Q250.41 913.403 250.41 918.82 Q250.41 924.398 246.938 927.5 Q243.466 930.579 237.146 930.579 Q234.97 930.579 232.702 930.209 Q230.456 929.838 228.049 929.097 L228.049 924.398 Q230.132 925.533 232.355 926.088 Q234.577 926.644 237.054 926.644 Q241.058 926.644 243.396 924.537 Q245.734 922.431 245.734 918.82 Q245.734 915.209 243.396 913.102 Q241.058 910.996 237.054 910.996 Q235.179 910.996 233.304 911.412 Q231.452 911.829 229.507 912.709 L229.507 895.348 Z" fill="#000000" fill-rule="nonzero" fill-opacity="1" /><path clip-path="url(#clip580)" d="M132.911 772.256 Q129.3 772.256 127.471 775.821 Q125.665 779.363 125.665 786.493 Q125.665 793.599 127.471 797.164 Q129.3 800.705 132.911 800.705 Q136.545 800.705 138.35 797.164 Q140.179 793.599 140.179 786.493 Q140.179 779.363 138.35 775.821 Q136.545 772.256 132.911 772.256 M132.911 768.553 Q138.721 768.553 141.776 773.159 Q144.855 777.743 144.855 786.493 Q144.855 795.219 141.776 799.826 Q138.721 804.409 132.911 804.409 Q127.1 804.409 124.022 799.826 Q120.966 795.219 120.966 786.493 Q120.966 777.743 124.022 773.159 Q127.1 768.553 132.911 768.553 Z" fill="#000000" fill-rule="nonzero" fill-opacity="1" /><path clip-path="url(#clip580)" d="M153.073 797.858 L157.957 797.858 L157.957 803.738 L153.073 803.738 L153.073 797.858 Z" fill="#000000" fill-rule="nonzero" fill-opacity="1" /><path clip-path="url(#clip580)" d="M168.952 799.803 L176.591 799.803 L176.591 773.437 L168.281 775.104 L168.281 770.844 L176.545 769.178 L181.221 769.178 L181.221 799.803 L188.859 799.803 L188.859 803.738 L168.952 803.738 L168.952 799.803 Z" fill="#000000" fill-rule="nonzero" fill-opacity="1" /><path clip-path="url(#clip580)" d="M208.304 772.256 Q204.693 772.256 202.864 775.821 Q201.058 779.363 201.058 786.493 Q201.058 793.599 202.864 797.164 Q204.693 800.705 208.304 800.705 Q211.938 800.705 213.744 797.164 Q215.572 793.599 215.572 786.493 Q215.572 779.363 213.744 775.821 Q211.938 772.256 208.304 772.256 M208.304 768.553 Q214.114 768.553 217.169 773.159 Q220.248 777.743 220.248 786.493 Q220.248 795.219 217.169 799.826 Q214.114 804.409 208.304 804.409 Q202.494 804.409 199.415 799.826 Q196.359 795.219 196.359 786.493 Q196.359 777.743 199.415 773.159 Q202.494 768.553 208.304 768.553 Z" fill="#000000" fill-rule="nonzero" fill-opacity="1" /><path clip-path="url(#clip580)" d="M238.466 772.256 Q234.854 772.256 233.026 775.821 Q231.22 779.363 231.22 786.493 Q231.22 793.599 233.026 797.164 Q234.854 800.705 238.466 800.705 Q242.1 800.705 243.905 797.164 Q245.734 793.599 245.734 786.493 Q245.734 779.363 243.905 775.821 Q242.1 772.256 238.466 772.256 M238.466 768.553 Q244.276 768.553 247.331 773.159 Q250.41 777.743 250.41 786.493 Q250.41 795.219 247.331 799.826 Q244.276 804.409 238.466 804.409 Q232.655 804.409 229.577 799.826 Q226.521 795.219 226.521 786.493 Q226.521 777.743 229.577 773.159 Q232.655 768.553 238.466 768.553 Z" fill="#000000" fill-rule="nonzero" fill-opacity="1" /><path clip-path="url(#clip580)" d="M133.906 646.087 Q130.295 646.087 128.466 649.651 Q126.661 653.193 126.661 660.323 Q126.661 667.429 128.466 670.994 Q130.295 674.536 133.906 674.536 Q137.54 674.536 139.346 670.994 Q141.174 667.429 141.174 660.323 Q141.174 653.193 139.346 649.651 Q137.54 646.087 133.906 646.087 M133.906 642.383 Q139.716 642.383 142.772 646.989 Q145.85 651.573 145.85 660.323 Q145.85 669.05 142.772 673.656 Q139.716 678.239 133.906 678.239 Q128.096 678.239 125.017 673.656 Q121.962 669.05 121.962 660.323 Q121.962 651.573 125.017 646.989 Q128.096 642.383 133.906 642.383 Z" fill="#000000" fill-rule="nonzero" fill-opacity="1" /><path clip-path="url(#clip580)" d="M154.068 671.688 L158.952 671.688 L158.952 677.568 L154.068 677.568 L154.068 671.688 Z" fill="#000000" fill-rule="nonzero" fill-opacity="1" /><path clip-path="url(#clip580)" d="M169.947 673.633 L177.586 673.633 L177.586 647.267 L169.276 648.934 L169.276 644.675 L177.54 643.008 L182.216 643.008 L182.216 673.633 L189.855 673.633 L189.855 677.568 L169.947 677.568 L169.947 673.633 Z" fill="#000000" fill-rule="nonzero" fill-opacity="1" /><path clip-path="url(#clip580)" d="M203.327 673.633 L219.646 673.633 L219.646 677.568 L197.702 677.568 L197.702 673.633 Q200.364 670.878 204.947 666.249 Q209.554 661.596 210.734 660.253 Q212.98 657.73 213.859 655.994 Q214.762 654.235 214.762 652.545 Q214.762 649.79 212.818 648.054 Q210.896 646.318 207.794 646.318 Q205.595 646.318 203.142 647.082 Q200.711 647.846 197.933 649.397 L197.933 644.675 Q200.757 643.54 203.211 642.962 Q205.665 642.383 207.702 642.383 Q213.072 642.383 216.267 645.068 Q219.461 647.753 219.461 652.244 Q219.461 654.374 218.651 656.295 Q217.864 658.193 215.757 660.786 Q215.179 661.457 212.077 664.675 Q208.975 667.869 203.327 673.633 Z" fill="#000000" fill-rule="nonzero" fill-opacity="1" /><path clip-path="url(#clip580)" d="M229.507 643.008 L247.864 643.008 L247.864 646.943 L233.79 646.943 L233.79 655.415 Q234.808 655.068 235.827 654.906 Q236.845 654.721 237.864 654.721 Q243.651 654.721 247.03 657.892 Q250.41 661.063 250.41 666.48 Q250.41 672.059 246.938 675.161 Q243.466 678.239 237.146 678.239 Q234.97 678.239 232.702 677.869 Q230.456 677.499 228.049 676.758 L228.049 672.059 Q230.132 673.193 232.355 673.749 Q234.577 674.304 237.054 674.304 Q241.058 674.304 243.396 672.198 Q245.734 670.091 245.734 666.48 Q245.734 662.869 243.396 660.763 Q241.058 658.656 237.054 658.656 Q235.179 658.656 233.304 659.073 Q231.452 659.489 229.507 660.369 L229.507 643.008 Z" fill="#000000" fill-rule="nonzero" fill-opacity="1" /><path clip-path="url(#clip580)" d="M132.911 519.917 Q129.3 519.917 127.471 523.482 Q125.665 527.023 125.665 534.153 Q125.665 541.259 127.471 544.824 Q129.3 548.366 132.911 548.366 Q136.545 548.366 138.35 544.824 Q140.179 541.259 140.179 534.153 Q140.179 527.023 138.35 523.482 Q136.545 519.917 132.911 519.917 M132.911 516.213 Q138.721 516.213 141.776 520.82 Q144.855 525.403 144.855 534.153 Q144.855 542.88 141.776 547.486 Q138.721 552.069 132.911 552.069 Q127.1 552.069 124.022 547.486 Q120.966 542.88 120.966 534.153 Q120.966 525.403 124.022 520.82 Q127.1 516.213 132.911 516.213 Z" fill="#000000" fill-rule="nonzero" fill-opacity="1" /><path clip-path="url(#clip580)" d="M153.073 545.519 L157.957 545.519 L157.957 551.398 L153.073 551.398 L153.073 545.519 Z" fill="#000000" fill-rule="nonzero" fill-opacity="1" /><path clip-path="url(#clip580)" d="M168.952 547.463 L176.591 547.463 L176.591 521.097 L168.281 522.764 L168.281 518.505 L176.545 516.838 L181.221 516.838 L181.221 547.463 L188.859 547.463 L188.859 551.398 L168.952 551.398 L168.952 547.463 Z" fill="#000000" fill-rule="nonzero" fill-opacity="1" /><path clip-path="url(#clip580)" d="M198.35 516.838 L216.706 516.838 L216.706 520.773 L202.632 520.773 L202.632 529.245 Q203.651 528.898 204.669 528.736 Q205.688 528.551 206.707 528.551 Q212.494 528.551 215.873 531.722 Q219.253 534.894 219.253 540.31 Q219.253 545.889 215.781 548.991 Q212.308 552.069 205.989 552.069 Q203.813 552.069 201.544 551.699 Q199.299 551.329 196.892 550.588 L196.892 545.889 Q198.975 547.023 201.197 547.579 Q203.419 548.134 205.896 548.134 Q209.901 548.134 212.239 546.028 Q214.577 543.921 214.577 540.31 Q214.577 536.699 212.239 534.593 Q209.901 532.486 205.896 532.486 Q204.021 532.486 202.146 532.903 Q200.294 533.32 198.35 534.199 L198.35 516.838 Z" fill="#000000" fill-rule="nonzero" fill-opacity="1" /><path clip-path="url(#clip580)" d="M238.466 519.917 Q234.854 519.917 233.026 523.482 Q231.22 527.023 231.22 534.153 Q231.22 541.259 233.026 544.824 Q234.854 548.366 238.466 548.366 Q242.1 548.366 243.905 544.824 Q245.734 541.259 245.734 534.153 Q245.734 527.023 243.905 523.482 Q242.1 519.917 238.466 519.917 M238.466 516.213 Q244.276 516.213 247.331 520.82 Q250.41 525.403 250.41 534.153 Q250.41 542.88 247.331 547.486 Q244.276 552.069 238.466 552.069 Q232.655 552.069 229.577 547.486 Q226.521 542.88 226.521 534.153 Q226.521 525.403 229.577 520.82 Q232.655 516.213 238.466 516.213 Z" fill="#000000" fill-rule="nonzero" fill-opacity="1" /><path clip-path="url(#clip580)" d="M133.906 393.747 Q130.295 393.747 128.466 397.312 Q126.661 400.853 126.661 407.983 Q126.661 415.089 128.466 418.654 Q130.295 422.196 133.906 422.196 Q137.54 422.196 139.346 418.654 Q141.174 415.089 141.174 407.983 Q141.174 400.853 139.346 397.312 Q137.54 393.747 133.906 393.747 M133.906 390.043 Q139.716 390.043 142.772 394.65 Q145.85 399.233 145.85 407.983 Q145.85 416.71 142.772 421.316 Q139.716 425.9 133.906 425.9 Q128.096 425.9 125.017 421.316 Q121.962 416.71 121.962 407.983 Q121.962 399.233 125.017 394.65 Q128.096 390.043 133.906 390.043 Z" fill="#000000" fill-rule="nonzero" fill-opacity="1" /><path clip-path="url(#clip580)" d="M154.068 419.349 L158.952 419.349 L158.952 425.228 L154.068 425.228 L154.068 419.349 Z" fill="#000000" fill-rule="nonzero" fill-opacity="1" /><path clip-path="url(#clip580)" d="M169.947 421.293 L177.586 421.293 L177.586 394.928 L169.276 396.594 L169.276 392.335 L177.54 390.668 L182.216 390.668 L182.216 421.293 L189.855 421.293 L189.855 425.228 L169.947 425.228 L169.947 421.293 Z" fill="#000000" fill-rule="nonzero" fill-opacity="1" /><path clip-path="url(#clip580)" d="M198.119 390.668 L220.341 390.668 L220.341 392.659 L207.794 425.228 L202.91 425.228 L214.716 394.603 L198.119 394.603 L198.119 390.668 Z" fill="#000000" fill-rule="nonzero" fill-opacity="1" /><path clip-path="url(#clip580)" d="M229.507 390.668 L247.864 390.668 L247.864 394.603 L233.79 394.603 L233.79 403.076 Q234.808 402.728 235.827 402.566 Q236.845 402.381 237.864 402.381 Q243.651 402.381 247.03 405.553 Q250.41 408.724 250.41 414.14 Q250.41 419.719 246.938 422.821 Q243.466 425.9 237.146 425.9 Q234.97 425.9 232.702 425.529 Q230.456 425.159 228.049 424.418 L228.049 419.719 Q230.132 420.853 232.355 421.409 Q234.577 421.964 237.054 421.964 Q241.058 421.964 243.396 419.858 Q245.734 417.752 245.734 414.14 Q245.734 410.529 243.396 408.423 Q241.058 406.316 237.054 406.316 Q235.179 406.316 233.304 406.733 Q231.452 407.15 229.507 408.029 L229.507 390.668 Z" fill="#000000" fill-rule="nonzero" fill-opacity="1" /><path clip-path="url(#clip580)" d="M132.911 267.577 Q129.3 267.577 127.471 271.142 Q125.665 274.684 125.665 281.813 Q125.665 288.92 127.471 292.484 Q129.3 296.026 132.911 296.026 Q136.545 296.026 138.35 292.484 Q140.179 288.92 140.179 281.813 Q140.179 274.684 138.35 271.142 Q136.545 267.577 132.911 267.577 M132.911 263.873 Q138.721 263.873 141.776 268.48 Q144.855 273.063 144.855 281.813 Q144.855 290.54 141.776 295.146 Q138.721 299.73 132.911 299.73 Q127.1 299.73 124.022 295.146 Q120.966 290.54 120.966 281.813 Q120.966 273.063 124.022 268.48 Q127.1 263.873 132.911 263.873 Z" fill="#000000" fill-rule="nonzero" fill-opacity="1" /><path clip-path="url(#clip580)" d="M153.073 293.179 L157.957 293.179 L157.957 299.058 L153.073 299.058 L153.073 293.179 Z" fill="#000000" fill-rule="nonzero" fill-opacity="1" /><path clip-path="url(#clip580)" d="M172.17 295.123 L188.489 295.123 L188.489 299.058 L166.545 299.058 L166.545 295.123 Q169.207 292.369 173.79 287.739 Q178.396 283.086 179.577 281.744 Q181.822 279.221 182.702 277.485 Q183.605 275.725 183.605 274.035 Q183.605 271.281 181.66 269.545 Q179.739 267.809 176.637 267.809 Q174.438 267.809 171.984 268.573 Q169.554 269.336 166.776 270.887 L166.776 266.165 Q169.6 265.031 172.054 264.452 Q174.508 263.873 176.545 263.873 Q181.915 263.873 185.109 266.559 Q188.304 269.244 188.304 273.735 Q188.304 275.864 187.494 277.785 Q186.707 279.684 184.6 282.276 Q184.021 282.947 180.92 286.165 Q177.818 289.359 172.17 295.123 Z" fill="#000000" fill-rule="nonzero" fill-opacity="1" /><path clip-path="url(#clip580)" d="M208.304 267.577 Q204.693 267.577 202.864 271.142 Q201.058 274.684 201.058 281.813 Q201.058 288.92 202.864 292.484 Q204.693 296.026 208.304 296.026 Q211.938 296.026 213.744 292.484 Q215.572 288.92 215.572 281.813 Q215.572 274.684 213.744 271.142 Q211.938 267.577 208.304 267.577 M208.304 263.873 Q214.114 263.873 217.169 268.48 Q220.248 273.063 220.248 281.813 Q220.248 290.54 217.169 295.146 Q214.114 299.73 208.304 299.73 Q202.494 299.73 199.415 295.146 Q196.359 290.54 196.359 281.813 Q196.359 273.063 199.415 268.48 Q202.494 263.873 208.304 263.873 Z" fill="#000000" fill-rule="nonzero" fill-opacity="1" /><path clip-path="url(#clip580)" d="M238.466 267.577 Q234.854 267.577 233.026 271.142 Q231.22 274.684 231.22 281.813 Q231.22 288.92 233.026 292.484 Q234.854 296.026 238.466 296.026 Q242.1 296.026 243.905 292.484 Q245.734 288.92 245.734 281.813 Q245.734 274.684 243.905 271.142 Q242.1 267.577 238.466 267.577 M238.466 263.873 Q244.276 263.873 247.331 268.48 Q250.41 273.063 250.41 281.813 Q250.41 290.54 247.331 295.146 Q244.276 299.73 238.466 299.73 Q232.655 299.73 229.577 295.146 Q226.521 290.54 226.521 281.813 Q226.521 273.063 229.577 268.48 Q232.655 263.873 238.466 263.873 Z" fill="#000000" fill-rule="nonzero" fill-opacity="1" /><path clip-path="url(#clip580)" d="M133.906 141.407 Q130.295 141.407 128.466 144.972 Q126.661 148.514 126.661 155.643 Q126.661 162.75 128.466 166.315 Q130.295 169.856 133.906 169.856 Q137.54 169.856 139.346 166.315 Q141.174 162.75 141.174 155.643 Q141.174 148.514 139.346 144.972 Q137.54 141.407 133.906 141.407 M133.906 137.704 Q139.716 137.704 142.772 142.31 Q145.85 146.893 145.85 155.643 Q145.85 164.37 142.772 168.977 Q139.716 173.56 133.906 173.56 Q128.096 173.56 125.017 168.977 Q121.962 164.37 121.962 155.643 Q121.962 146.893 125.017 142.31 Q128.096 137.704 133.906 137.704 Z" fill="#000000" fill-rule="nonzero" fill-opacity="1" /><path clip-path="url(#clip580)" d="M154.068 167.009 L158.952 167.009 L158.952 172.889 L154.068 172.889 L154.068 167.009 Z" fill="#000000" fill-rule="nonzero" fill-opacity="1" /><path clip-path="url(#clip580)" d="M173.165 168.954 L189.484 168.954 L189.484 172.889 L167.54 172.889 L167.54 168.954 Q170.202 166.199 174.785 161.569 Q179.392 156.917 180.572 155.574 Q182.818 153.051 183.697 151.315 Q184.6 149.555 184.6 147.866 Q184.6 145.111 182.656 143.375 Q180.734 141.639 177.633 141.639 Q175.434 141.639 172.98 142.403 Q170.549 143.167 167.772 144.718 L167.772 139.995 Q170.596 138.861 173.049 138.282 Q175.503 137.704 177.54 137.704 Q182.91 137.704 186.105 140.389 Q189.299 143.074 189.299 147.565 Q189.299 149.694 188.489 151.616 Q187.702 153.514 185.596 156.106 Q185.017 156.778 181.915 159.995 Q178.813 163.19 173.165 168.954 Z" fill="#000000" fill-rule="nonzero" fill-opacity="1" /><path clip-path="url(#clip580)" d="M203.327 168.954 L219.646 168.954 L219.646 172.889 L197.702 172.889 L197.702 168.954 Q200.364 166.199 204.947 161.569 Q209.554 156.917 210.734 155.574 Q212.98 153.051 213.859 151.315 Q214.762 149.555 214.762 147.866 Q214.762 145.111 212.818 143.375 Q210.896 141.639 207.794 141.639 Q205.595 141.639 203.142 142.403 Q200.711 143.167 197.933 144.718 L197.933 139.995 Q200.757 138.861 203.211 138.282 Q205.665 137.704 207.702 137.704 Q213.072 137.704 216.267 140.389 Q219.461 143.074 219.461 147.565 Q219.461 149.694 218.651 151.616 Q217.864 153.514 215.757 156.106 Q215.179 156.778 212.077 159.995 Q208.975 163.19 203.327 168.954 Z" fill="#000000" fill-rule="nonzero" fill-opacity="1" /><path clip-path="url(#clip580)" d="M229.507 138.329 L247.864 138.329 L247.864 142.264 L233.79 142.264 L233.79 150.736 Q234.808 150.389 235.827 150.227 Q236.845 150.042 237.864 150.042 Q243.651 150.042 247.03 153.213 Q250.41 156.384 250.41 161.801 Q250.41 167.379 246.938 170.481 Q243.466 173.56 237.146 173.56 Q234.97 173.56 232.702 173.19 Q230.456 172.819 228.049 172.078 L228.049 167.379 Q230.132 168.514 232.355 169.069 Q234.577 169.625 237.054 169.625 Q241.058 169.625 243.396 167.518 Q245.734 165.412 245.734 161.801 Q245.734 158.19 243.396 156.083 Q241.058 153.977 237.054 153.977 Q235.179 153.977 233.304 154.393 Q231.452 154.81 229.507 155.69 L229.507 138.329 Z" fill="#000000" fill-rule="nonzero" fill-opacity="1" /><path clip-path="url(#clip580)" d="M12.7498 767.171 L19.02 767.171 Q17.2695 770.831 16.4101 774.078 Q15.5507 777.324 15.5507 780.348 Q15.5507 785.6 17.5878 788.464 Q19.6248 791.297 23.3805 791.297 Q26.5316 791.297 28.1548 789.419 Q29.7463 787.509 30.7329 782.226 L31.5287 778.343 Q32.8973 771.149 36.3666 767.744 Q39.8041 764.306 45.5969 764.306 Q52.5037 764.306 56.0685 768.953 Q59.6332 773.568 59.6332 782.512 Q59.6332 785.886 58.8694 789.706 Q58.1055 793.493 56.6095 797.567 L49.9892 797.567 Q52.1854 793.652 53.2994 789.897 Q54.4134 786.141 54.4134 782.512 Q54.4134 777.006 52.249 774.014 Q50.0847 771.022 46.0743 771.022 Q42.5732 771.022 40.5998 773.187 Q38.6264 775.319 37.6397 780.221 L36.8758 784.136 Q35.4436 791.329 32.388 794.543 Q29.3325 797.758 23.8898 797.758 Q17.5878 797.758 13.9593 793.334 Q10.3309 788.878 10.3309 781.08 Q10.3309 777.738 10.9356 774.269 Q11.5403 770.799 12.7498 767.171 Z" fill="#000000" fill-rule="nonzero" fill-opacity="1" /><path clip-path="url(#clip580)" d="M40.7908 738.334 Q40.7908 745.432 42.414 748.169 Q44.0373 750.907 47.9522 750.907 Q51.0714 750.907 52.9174 748.87 Q54.7317 746.801 54.7317 743.268 Q54.7317 738.398 51.2942 735.47 Q47.8249 732.51 42.0957 732.51 L40.7908 732.51 L40.7908 738.334 M38.3718 726.653 L58.7102 726.653 L58.7102 732.51 L53.2994 732.51 Q56.5459 734.515 58.1055 737.507 Q59.6332 740.499 59.6332 744.827 Q59.6332 750.302 56.5777 753.548 Q53.4903 756.763 48.3341 756.763 Q42.3185 756.763 39.263 752.753 Q36.2074 748.71 36.2074 740.721 L36.2074 732.51 L35.6345 732.51 Q31.5923 732.51 29.3961 735.183 Q27.1681 737.825 27.1681 742.631 Q27.1681 745.687 27.9002 748.583 Q28.6323 751.479 30.0964 754.153 L24.6855 754.153 Q23.4442 750.938 22.8395 747.915 Q22.2029 744.891 22.2029 742.026 Q22.2029 734.292 26.2133 730.473 Q30.2237 726.653 38.3718 726.653 Z" fill="#000000" fill-rule="nonzero" fill-opacity="1" /><path clip-path="url(#clip580)" d="M29.9054 686.836 Q25.9587 684.64 24.0808 681.584 Q22.2029 678.528 22.2029 674.391 Q22.2029 668.821 26.1178 665.797 Q30.0009 662.773 37.1941 662.773 L58.7102 662.773 L58.7102 668.662 L37.3851 668.662 Q32.2607 668.662 29.7781 670.476 Q27.2955 672.29 27.2955 676.014 Q27.2955 680.565 30.3192 683.207 Q33.3429 685.849 38.5628 685.849 L58.7102 685.849 L58.7102 691.737 L37.3851 691.737 Q32.2289 691.737 29.7781 693.552 Q27.2955 695.366 27.2955 699.153 Q27.2955 703.641 30.351 706.283 Q33.3747 708.925 38.5628 708.925 L58.7102 708.925 L58.7102 714.813 L23.0623 714.813 L23.0623 708.925 L28.6004 708.925 Q25.3221 706.92 23.7625 704.119 Q22.2029 701.318 22.2029 697.466 Q22.2029 693.583 24.1763 690.878 Q26.1496 688.141 29.9054 686.836 Z" fill="#000000" fill-rule="nonzero" fill-opacity="1" /><path clip-path="url(#clip580)" d="M53.363 645.427 L72.2692 645.427 L72.2692 651.315 L23.0623 651.315 L23.0623 645.427 L28.4731 645.427 Q25.2903 643.581 23.7625 640.78 Q22.2029 637.947 22.2029 634.032 Q22.2029 627.539 27.3591 623.497 Q32.5153 619.423 40.9181 619.423 Q49.3208 619.423 54.477 623.497 Q59.6332 627.539 59.6332 634.032 Q59.6332 637.947 58.1055 640.78 Q56.5459 643.581 53.363 645.427 M40.9181 625.502 Q34.4569 625.502 30.7966 628.176 Q27.1045 630.817 27.1045 635.464 Q27.1045 640.111 30.7966 642.785 Q34.4569 645.427 40.9181 645.427 Q47.3793 645.427 51.0714 642.785 Q54.7317 640.111 54.7317 635.464 Q54.7317 630.817 51.0714 628.176 Q47.3793 625.502 40.9181 625.502 Z" fill="#000000" fill-rule="nonzero" fill-opacity="1" /><path clip-path="url(#clip580)" d="M9.18502 609.715 L9.18502 603.859 L58.7102 603.859 L58.7102 609.715 L9.18502 609.715 Z" fill="#000000" fill-rule="nonzero" fill-opacity="1" /><path clip-path="url(#clip580)" d="M39.4221 561.113 L42.2867 561.113 L42.2867 588.04 Q48.3341 587.658 51.517 584.411 Q54.668 581.133 54.668 575.309 Q54.668 571.935 53.8405 568.784 Q53.0129 565.601 51.3578 562.482 L56.896 562.482 Q58.2328 565.633 58.933 568.943 Q59.6332 572.253 59.6332 575.659 Q59.6332 584.189 54.668 589.186 Q49.7027 594.151 41.2364 594.151 Q32.4835 594.151 27.3591 589.44 Q22.2029 584.698 22.2029 576.677 Q22.2029 569.484 26.8499 565.314 Q31.465 561.113 39.4221 561.113 M37.7034 566.969 Q32.8973 567.033 30.0327 569.675 Q27.1681 572.285 27.1681 576.614 Q27.1681 581.515 29.9372 584.475 Q32.7063 587.403 37.7352 587.849 L37.7034 566.969 Z" fill="#000000" fill-rule="nonzero" fill-opacity="1" /><path clip-path="url(#clip580)" d="M23.0623 534.982 L23.0623 528.775 L52.9811 517.635 L23.0623 506.495 L23.0623 500.289 L58.7102 513.657 L58.7102 521.614 L23.0623 534.982 Z" fill="#000000" fill-rule="nonzero" fill-opacity="1" /><path clip-path="url(#clip580)" d="M40.7908 476.004 Q40.7908 483.101 42.414 485.839 Q44.0373 488.576 47.9522 488.576 Q51.0714 488.576 52.9174 486.539 Q54.7317 484.47 54.7317 480.937 Q54.7317 476.067 51.2942 473.139 Q47.8249 470.179 42.0957 470.179 L40.7908 470.179 L40.7908 476.004 M38.3718 464.322 L58.7102 464.322 L58.7102 470.179 L53.2994 470.179 Q56.5459 472.184 58.1055 475.176 Q59.6332 478.168 59.6332 482.497 Q59.6332 487.971 56.5777 491.218 Q53.4903 494.432 48.3341 494.432 Q42.3185 494.432 39.263 490.422 Q36.2074 486.38 36.2074 478.391 L36.2074 470.179 L35.6345 470.179 Q31.5923 470.179 29.3961 472.852 Q27.1681 475.494 27.1681 480.3 Q27.1681 483.356 27.9002 486.252 Q28.6323 489.149 30.0964 491.822 L24.6855 491.822 Q23.4442 488.608 22.8395 485.584 Q22.2029 482.56 22.2029 479.696 Q22.2029 471.961 26.2133 468.142 Q30.2237 464.322 38.3718 464.322 Z" fill="#000000" fill-rule="nonzero" fill-opacity="1" /><path clip-path="url(#clip580)" d="M9.18502 452.259 L9.18502 446.403 L58.7102 446.403 L58.7102 452.259 L9.18502 452.259 Z" fill="#000000" fill-rule="nonzero" fill-opacity="1" /><path clip-path="url(#clip580)" d="M44.642 434.754 L23.0623 434.754 L23.0623 428.897 L44.4192 428.897 Q49.4799 428.897 52.0262 426.924 Q54.5407 424.951 54.5407 421.004 Q54.5407 416.261 51.517 413.524 Q48.4933 410.755 43.2734 410.755 L23.0623 410.755 L23.0623 404.899 L58.7102 404.899 L58.7102 410.755 L53.2357 410.755 Q56.4822 412.888 58.0736 415.72 Q59.6332 418.521 59.6332 422.245 Q59.6332 428.388 55.8138 431.571 Q51.9944 434.754 44.642 434.754 M22.2029 420.017 L22.2029 420.017 Z" fill="#000000" fill-rule="nonzero" fill-opacity="1" /><path clip-path="url(#clip580)" d="M39.4221 362.344 L42.2867 362.344 L42.2867 389.271 Q48.3341 388.889 51.517 385.642 Q54.668 382.364 54.668 376.539 Q54.668 373.166 53.8405 370.014 Q53.0129 366.832 51.3578 363.712 L56.896 363.712 Q58.2328 366.863 58.933 370.174 Q59.6332 373.484 59.6332 376.889 Q59.6332 385.42 54.668 390.417 Q49.7027 395.382 41.2364 395.382 Q32.4835 395.382 27.3591 390.671 Q22.2029 385.929 22.2029 377.908 Q22.2029 370.715 26.8499 366.545 Q31.465 362.344 39.4221 362.344 M37.7034 368.2 Q32.8973 368.264 30.0327 370.906 Q27.1681 373.516 27.1681 377.844 Q27.1681 382.746 29.9372 385.706 Q32.7063 388.634 37.7352 389.08 L37.7034 368.2 Z" fill="#000000" fill-rule="nonzero" fill-opacity="1" /><path clip-path="url(#clip580)" d="M926.805 33.1202 Q920.648 33.1202 917.326 37.5762 Q913.842 42.2347 913.842 49.9314 Q913.842 58.0738 917.286 62.7728 Q920.769 67.4314 926.805 67.4314 Q932.76 67.4314 936.244 62.7323 Q939.728 58.0333 939.728 49.9314 Q939.728 42.5183 936.244 37.5762 Q933.044 33.1202 926.805 33.1202 M926.805 27.2059 L951.556 27.2059 L951.556 34.6595 L943.211 34.6595 Q947.627 40.9789 947.627 49.9314 Q947.627 61.0714 942.077 67.3908 Q936.527 73.7508 926.805 73.7508 Q917.043 73.7508 911.533 67.3908 Q905.984 61.0714 905.984 49.9314 Q905.984 38.7104 911.533 32.4315 Q916.111 27.2059 926.805 27.2059 Z" fill="#000000" fill-rule="nonzero" fill-opacity="1" /><polyline clip-path="url(#clip582)" style="stroke:#009af9; stroke-linecap:round; stroke-linejoin:round; stroke-width:4; stroke-opacity:1; fill:none" points="334.091,739.938 346.104,751.024 358.118,751.024 370.132,643.364 382.146,643.364 394.159,643.364 406.173,643.364 418.187,643.364 430.201,581.642 442.214,481.442 454.228,481.442 466.242,772.554 478.255,772.554 490.269,558.704 502.283,558.704 514.297,558.704 526.31,524.785 538.324,281.884 550.338,304.664 562.351,304.664 574.365,326.554 586.379,326.554 598.393,326.554 610.406,326.554 622.42,326.554 634.434,349.726 646.448,361.211 658.461,361.211 670.475,361.211 682.489,464.103 694.502,348.569 706.516,361.785 718.53,361.785 730.544,382.649 742.557,474.605 754.571,486.352 766.585,486.352 778.598,486.352 790.612,486.352 802.626,486.352 814.64,486.352 826.653,486.352 838.667,456.447 850.681,485.381 862.695,485.381 874.708,524.507 886.722,406.205 898.736,406.205 910.749,333.208 922.763,527.978 934.777,527.978 946.791,361.29 958.804,361.29 970.818,310.978 982.832,375.664 994.845,458.767 1006.86,330.231 1018.87,291.458 1030.89,431.446 1042.9,487.337 1054.91,487.337 1066.93,405.077 1078.94,415.527 1090.96,348.238 1102.97,315.29 1114.98,398.917 1127,398.917 1139.01,398.917 1151.02,398.917 1163.04,398.917 1175.05,315.419 1187.07,344.241 1199.08,399.902 1211.09,329.685 1223.11,286.184 1235.12,293.209 1247.13,466.871 1259.15,466.871 1271.16,354.846 1283.17,372.588 1295.19,372.588 1307.2,354.51 1319.22,374.552 1331.23,409.587 1343.24,423.351 1355.26,373.391 1367.27,373.391 1379.28,373.391 1391.3,340.224 1403.31,340.224 1415.33,383.224 1427.34,438.59 1439.35,462.058 1451.37,462.058 1463.38,426.935 1475.39,408.772 1487.41,455.265 1499.42,351.352 1511.44,392.356 1523.45,379.42 "/>
<polyline clip-path="url(#clip582)" style="stroke:#e26f46; stroke-linecap:round; stroke-linejoin:round; stroke-width:4; stroke-opacity:1; fill:none" points="334.091,154.067 346.104,414.885 358.118,414.885 370.132,414.885 382.146,414.885 394.159,414.885 406.173,448.453 418.187,397.628 430.201,397.628 442.214,466.561 454.228,499.817 466.242,499.817 478.255,423.701 490.269,423.701 502.283,423.701 514.297,411.281 526.31,288.385 538.324,288.385 550.338,348.304 562.351,332.986 574.365,289.793 586.379,289.793 598.393,289.793 610.406,321.112 622.42,514.07 634.434,514.07 646.448,514.07 658.461,465.659 670.475,465.659 682.489,369.705 694.502,369.705 706.516,369.705 718.53,369.705 730.544,295.168 742.557,360.913 754.571,360.913 766.585,360.913 778.598,360.913 790.612,360.913 802.626,452.423 814.64,452.423 826.653,452.423 838.667,452.423 850.681,454.804 862.695,396.865 874.708,396.865 886.722,396.865 898.736,396.865 910.749,396.865 922.763,460.205 934.777,302.613 946.791,302.613 958.804,302.613 970.818,302.613 982.832,540.133 994.845,566.675 1006.86,566.675 1018.87,566.675 1030.89,412.405 1042.9,494.626 1054.91,494.626 1066.93,494.626 1078.94,337.537 1090.96,294.8 1102.97,301.98 1114.98,301.98 1127,301.98 1139.01,290.844 1151.02,290.844 1163.04,432.773 1175.05,406.033 1187.07,281.933 1199.08,336.363 1211.09,530.086 1223.11,530.086 1235.12,592.794 1247.13,606.008 1259.15,671.56 1271.16,671.56 1283.17,502.689 1295.19,325.06 1307.2,325.06 1319.22,325.06 1331.23,351.665 1343.24,354.094 1355.26,354.094 1367.27,354.094 1379.28,422.028 1391.3,422.028 1403.31,439.257 1415.33,468.332 1427.34,452.976 1439.35,340.794 1451.37,488.633 1463.38,423.482 1475.39,423.482 1487.41,423.482 1499.42,350.695 1511.44,350.695 1523.45,350.695 "/>
<polyline clip-path="url(#clip582)" style="stroke:#3da44d; stroke-linecap:round; stroke-linejoin:round; stroke-width:4; stroke-opacity:1; fill:none" points="334.091,1006.03 346.104,911.663 358.118,911.663 370.132,831.077 382.146,671.7 394.159,627.533 406.173,564.03 418.187,564.03 430.201,564.03 442.214,339.218 454.228,460.828 466.242,460.828 478.255,361.382 490.269,361.382 502.283,398.819 514.297,453.965 526.31,453.965 538.324,453.965 550.338,453.965 562.351,453.965 574.365,483.823 586.379,534.224 598.393,478.971 610.406,496.401 622.42,369.374 634.434,369.374 646.448,478.361 658.461,496.714 670.475,496.714 682.489,496.714 694.502,496.714 706.516,496.714 718.53,334.162 730.544,334.162 742.557,438.252 754.571,438.252 766.585,475.494 778.598,475.494 790.612,472.643 802.626,472.643 814.64,472.643 826.653,472.643 838.667,472.643 850.681,472.643 862.695,472.643 874.708,326.172 886.722,360.142 898.736,299.503 910.749,322.102 922.763,361.922 934.777,361.922 946.791,361.922 958.804,361.922 970.818,361.922 982.832,367.907 994.845,368.346 1006.86,428.317 1018.87,424.202 1030.89,424.202 1042.9,424.202 1054.91,531.956 1066.93,483.486 1078.94,483.486 1090.96,442.72 1102.97,403.35 1114.98,403.35 1127,403.35 1139.01,403.35 1151.02,403.35 1163.04,403.35 1175.05,369.949 1187.07,345.251 1199.08,345.251 1211.09,362.165 1223.11,362.165 1235.12,503.942 1247.13,503.942 1259.15,392.083 1271.16,392.083 1283.17,322.505 1295.19,322.505 1307.2,322.505 1319.22,322.505 1331.23,322.505 1343.24,433.845 1355.26,294.123 1367.27,306.999 1379.28,306.999 1391.3,329.182 1403.31,329.182 1415.33,491.929 1427.34,598.1 1439.35,401.324 1451.37,367.008 1463.38,367.008 1475.39,367.008 1487.41,367.008 1499.42,485.705 1511.44,315.731 1523.45,396.234 "/>
<path clip-path="url(#clip580)" d="M1860.54 1031.59 L3121.26 1031.59 L3121.26 128.508 L1860.54 128.508  Z" fill="#ffffff" fill-rule="evenodd" fill-opacity="1"/>
<defs>
  <clipPath id="clip583">
    <rect x="1860" y="128" width="1262" height="904"/>
  </clipPath>
</defs>
<polyline clip-path="url(#clip583)" style="stroke:#000000; stroke-linecap:round; stroke-linejoin:round; stroke-width:2; stroke-opacity:0.1; fill:none" points="2021.41,1031.59 2021.41,128.508 "/>
<polyline clip-path="url(#clip583)" style="stroke:#000000; stroke-linecap:round; stroke-linejoin:round; stroke-width:2; stroke-opacity:0.1; fill:none" points="2199.06,1031.59 2199.06,128.508 "/>
<polyline clip-path="url(#clip583)" style="stroke:#000000; stroke-linecap:round; stroke-linejoin:round; stroke-width:2; stroke-opacity:0.1; fill:none" points="2376.71,1031.59 2376.71,128.508 "/>
<polyline clip-path="url(#clip583)" style="stroke:#000000; stroke-linecap:round; stroke-linejoin:round; stroke-width:2; stroke-opacity:0.1; fill:none" points="2554.36,1031.59 2554.36,128.508 "/>
<polyline clip-path="url(#clip583)" style="stroke:#000000; stroke-linecap:round; stroke-linejoin:round; stroke-width:2; stroke-opacity:0.1; fill:none" points="2732.01,1031.59 2732.01,128.508 "/>
<polyline clip-path="url(#clip583)" style="stroke:#000000; stroke-linecap:round; stroke-linejoin:round; stroke-width:2; stroke-opacity:0.1; fill:none" points="2909.66,1031.59 2909.66,128.508 "/>
<polyline clip-path="url(#clip583)" style="stroke:#000000; stroke-linecap:round; stroke-linejoin:round; stroke-width:2; stroke-opacity:0.1; fill:none" points="3087.31,1031.59 3087.31,128.508 "/>
<polyline clip-path="url(#clip580)" style="stroke:#000000; stroke-linecap:round; stroke-linejoin:round; stroke-width:4; stroke-opacity:1; fill:none" points="1860.54,1031.59 3121.26,1031.59 "/>
<polyline clip-path="url(#clip580)" style="stroke:#000000; stroke-linecap:round; stroke-linejoin:round; stroke-width:4; stroke-opacity:1; fill:none" points="2021.41,1031.59 2021.41,1012.7 "/>
<polyline clip-path="url(#clip580)" style="stroke:#000000; stroke-linecap:round; stroke-linejoin:round; stroke-width:4; stroke-opacity:1; fill:none" points="2199.06,1031.59 2199.06,1012.7 "/>
<polyline clip-path="url(#clip580)" style="stroke:#000000; stroke-linecap:round; stroke-linejoin:round; stroke-width:4; stroke-opacity:1; fill:none" points="2376.71,1031.59 2376.71,1012.7 "/>
<polyline clip-path="url(#clip580)" style="stroke:#000000; stroke-linecap:round; stroke-linejoin:round; stroke-width:4; stroke-opacity:1; fill:none" points="2554.36,1031.59 2554.36,1012.7 "/>
<polyline clip-path="url(#clip580)" style="stroke:#000000; stroke-linecap:round; stroke-linejoin:round; stroke-width:4; stroke-opacity:1; fill:none" points="2732.01,1031.59 2732.01,1012.7 "/>
<polyline clip-path="url(#clip580)" style="stroke:#000000; stroke-linecap:round; stroke-linejoin:round; stroke-width:4; stroke-opacity:1; fill:none" points="2909.66,1031.59 2909.66,1012.7 "/>
<polyline clip-path="url(#clip580)" style="stroke:#000000; stroke-linecap:round; stroke-linejoin:round; stroke-width:4; stroke-opacity:1; fill:none" points="3087.31,1031.59 3087.31,1012.7 "/>
<path clip-path="url(#clip580)" d="M1969.13 1068.91 Q1965.52 1068.91 1963.69 1072.48 Q1961.89 1076.02 1961.89 1083.15 Q1961.89 1090.25 1963.69 1093.82 Q1965.52 1097.36 1969.13 1097.36 Q1972.77 1097.36 1974.57 1093.82 Q1976.4 1090.25 1976.4 1083.15 Q1976.4 1076.02 1974.57 1072.48 Q1972.77 1068.91 1969.13 1068.91 M1969.13 1065.21 Q1974.94 1065.21 1978 1069.82 Q1981.08 1074.4 1981.08 1083.15 Q1981.08 1091.88 1978 1096.48 Q1974.94 1101.07 1969.13 1101.07 Q1963.32 1101.07 1960.24 1096.48 Q1957.19 1091.88 1957.19 1083.15 Q1957.19 1074.4 1960.24 1069.82 Q1963.32 1065.21 1969.13 1065.21 Z" fill="#000000" fill-rule="nonzero" fill-opacity="1" /><path clip-path="url(#clip580)" d="M1989.29 1094.51 L1994.18 1094.51 L1994.18 1100.39 L1989.29 1100.39 L1989.29 1094.51 Z" fill="#000000" fill-rule="nonzero" fill-opacity="1" /><path clip-path="url(#clip580)" d="M2014.36 1068.91 Q2010.75 1068.91 2008.92 1072.48 Q2007.12 1076.02 2007.12 1083.15 Q2007.12 1090.25 2008.92 1093.82 Q2010.75 1097.36 2014.36 1097.36 Q2018 1097.36 2019.8 1093.82 Q2021.63 1090.25 2021.63 1083.15 Q2021.63 1076.02 2019.8 1072.48 Q2018 1068.91 2014.36 1068.91 M2014.36 1065.21 Q2020.17 1065.21 2023.23 1069.82 Q2026.31 1074.4 2026.31 1083.15 Q2026.31 1091.88 2023.23 1096.48 Q2020.17 1101.07 2014.36 1101.07 Q2008.55 1101.07 2005.47 1096.48 Q2002.42 1091.88 2002.42 1083.15 Q2002.42 1074.4 2005.47 1069.82 Q2008.55 1065.21 2014.36 1065.21 Z" fill="#000000" fill-rule="nonzero" fill-opacity="1" /><path clip-path="url(#clip580)" d="M2033.35 1065.83 L2055.57 1065.83 L2055.57 1067.82 L2043.02 1100.39 L2038.14 1100.39 L2049.94 1069.77 L2033.35 1069.77 L2033.35 1065.83 Z" fill="#000000" fill-rule="nonzero" fill-opacity="1" /><path clip-path="url(#clip580)" d="M2064.73 1065.83 L2083.09 1065.83 L2083.09 1069.77 L2069.02 1069.77 L2069.02 1078.24 Q2070.03 1077.89 2071.05 1077.73 Q2072.07 1077.55 2073.09 1077.55 Q2078.88 1077.55 2082.26 1080.72 Q2085.64 1083.89 2085.64 1089.31 Q2085.64 1094.88 2082.16 1097.99 Q2078.69 1101.07 2072.37 1101.07 Q2070.2 1101.07 2067.93 1100.69 Q2065.68 1100.32 2063.28 1099.58 L2063.28 1094.88 Q2065.36 1096.02 2067.58 1096.57 Q2069.8 1097.13 2072.28 1097.13 Q2076.28 1097.13 2078.62 1095.02 Q2080.96 1092.92 2080.96 1089.31 Q2080.96 1085.69 2078.62 1083.59 Q2076.28 1081.48 2072.28 1081.48 Q2070.41 1081.48 2068.53 1081.9 Q2066.68 1082.32 2064.73 1083.19 L2064.73 1065.83 Z" fill="#000000" fill-rule="nonzero" fill-opacity="1" /><path clip-path="url(#clip580)" d="M2146.28 1068.91 Q2142.67 1068.91 2140.85 1072.48 Q2139.04 1076.02 2139.04 1083.15 Q2139.04 1090.25 2140.85 1093.82 Q2142.67 1097.36 2146.28 1097.36 Q2149.92 1097.36 2151.72 1093.82 Q2153.55 1090.25 2153.55 1083.15 Q2153.55 1076.02 2151.72 1072.48 Q2149.92 1068.91 2146.28 1068.91 M2146.28 1065.21 Q2152.09 1065.21 2155.15 1069.82 Q2158.23 1074.4 2158.23 1083.15 Q2158.23 1091.88 2155.15 1096.48 Q2152.09 1101.07 2146.28 1101.07 Q2140.47 1101.07 2137.4 1096.48 Q2134.34 1091.88 2134.34 1083.15 Q2134.34 1074.4 2137.4 1069.82 Q2140.47 1065.21 2146.28 1065.21 Z" fill="#000000" fill-rule="nonzero" fill-opacity="1" /><path clip-path="url(#clip580)" d="M2166.45 1094.51 L2171.33 1094.51 L2171.33 1100.39 L2166.45 1100.39 L2166.45 1094.51 Z" fill="#000000" fill-rule="nonzero" fill-opacity="1" /><path clip-path="url(#clip580)" d="M2182.33 1096.46 L2189.97 1096.46 L2189.97 1070.09 L2181.65 1071.76 L2181.65 1067.5 L2189.92 1065.83 L2194.59 1065.83 L2194.59 1096.46 L2202.23 1096.46 L2202.23 1100.39 L2182.33 1100.39 L2182.33 1096.46 Z" fill="#000000" fill-rule="nonzero" fill-opacity="1" /><path clip-path="url(#clip580)" d="M2221.68 1068.91 Q2218.07 1068.91 2216.24 1072.48 Q2214.43 1076.02 2214.43 1083.15 Q2214.43 1090.25 2216.24 1093.82 Q2218.07 1097.36 2221.68 1097.36 Q2225.31 1097.36 2227.12 1093.82 Q2228.95 1090.25 2228.95 1083.15 Q2228.95 1076.02 2227.12 1072.48 Q2225.31 1068.91 2221.68 1068.91 M2221.68 1065.21 Q2227.49 1065.21 2230.54 1069.82 Q2233.62 1074.4 2233.62 1083.15 Q2233.62 1091.88 2230.54 1096.48 Q2227.49 1101.07 2221.68 1101.07 Q2215.87 1101.07 2212.79 1096.48 Q2209.73 1091.88 2209.73 1083.15 Q2209.73 1074.4 2212.79 1069.82 Q2215.87 1065.21 2221.68 1065.21 Z" fill="#000000" fill-rule="nonzero" fill-opacity="1" /><path clip-path="url(#clip580)" d="M2251.84 1068.91 Q2248.23 1068.91 2246.4 1072.48 Q2244.59 1076.02 2244.59 1083.15 Q2244.59 1090.25 2246.4 1093.82 Q2248.23 1097.36 2251.84 1097.36 Q2255.47 1097.36 2257.28 1093.82 Q2259.11 1090.25 2259.11 1083.15 Q2259.11 1076.02 2257.28 1072.48 Q2255.47 1068.91 2251.84 1068.91 M2251.84 1065.21 Q2257.65 1065.21 2260.71 1069.82 Q2263.78 1074.4 2263.78 1083.15 Q2263.78 1091.88 2260.71 1096.48 Q2257.65 1101.07 2251.84 1101.07 Q2246.03 1101.07 2242.95 1096.48 Q2239.9 1091.88 2239.9 1083.15 Q2239.9 1074.4 2242.95 1069.82 Q2246.03 1065.21 2251.84 1065.21 Z" fill="#000000" fill-rule="nonzero" fill-opacity="1" /><path clip-path="url(#clip580)" d="M2324.43 1068.91 Q2320.82 1068.91 2318.99 1072.48 Q2317.19 1076.02 2317.19 1083.15 Q2317.19 1090.25 2318.99 1093.82 Q2320.82 1097.36 2324.43 1097.36 Q2328.07 1097.36 2329.87 1093.82 Q2331.7 1090.25 2331.7 1083.15 Q2331.7 1076.02 2329.87 1072.48 Q2328.07 1068.91 2324.43 1068.91 M2324.43 1065.21 Q2330.24 1065.21 2333.3 1069.82 Q2336.38 1074.4 2336.38 1083.15 Q2336.38 1091.88 2333.3 1096.48 Q2330.24 1101.07 2324.43 1101.07 Q2318.62 1101.07 2315.54 1096.48 Q2312.49 1091.88 2312.49 1083.15 Q2312.49 1074.4 2315.54 1069.82 Q2318.62 1065.21 2324.43 1065.21 Z" fill="#000000" fill-rule="nonzero" fill-opacity="1" /><path clip-path="url(#clip580)" d="M2344.59 1094.51 L2349.48 1094.51 L2349.48 1100.39 L2344.59 1100.39 L2344.59 1094.51 Z" fill="#000000" fill-rule="nonzero" fill-opacity="1" /><path clip-path="url(#clip580)" d="M2360.47 1096.46 L2368.11 1096.46 L2368.11 1070.09 L2359.8 1071.76 L2359.8 1067.5 L2368.07 1065.83 L2372.74 1065.83 L2372.74 1096.46 L2380.38 1096.46 L2380.38 1100.39 L2360.47 1100.39 L2360.47 1096.46 Z" fill="#000000" fill-rule="nonzero" fill-opacity="1" /><path clip-path="url(#clip580)" d="M2393.85 1096.46 L2410.17 1096.46 L2410.17 1100.39 L2388.23 1100.39 L2388.23 1096.46 Q2390.89 1093.7 2395.47 1089.07 Q2400.08 1084.42 2401.26 1083.08 Q2403.51 1080.56 2404.39 1078.82 Q2405.29 1077.06 2405.29 1075.37 Q2405.29 1072.62 2403.34 1070.88 Q2401.42 1069.14 2398.32 1069.14 Q2396.12 1069.14 2393.67 1069.91 Q2391.24 1070.67 2388.46 1072.22 L2388.46 1067.5 Q2391.28 1066.37 2393.74 1065.79 Q2396.19 1065.21 2398.23 1065.21 Q2403.6 1065.21 2406.79 1067.89 Q2409.99 1070.58 2409.99 1075.07 Q2409.99 1077.2 2409.18 1079.12 Q2408.39 1081.02 2406.28 1083.61 Q2405.71 1084.28 2402.6 1087.5 Q2399.5 1090.69 2393.85 1096.46 Z" fill="#000000" fill-rule="nonzero" fill-opacity="1" /><path clip-path="url(#clip580)" d="M2420.03 1065.83 L2438.39 1065.83 L2438.39 1069.77 L2424.32 1069.77 L2424.32 1078.24 Q2425.33 1077.89 2426.35 1077.73 Q2427.37 1077.55 2428.39 1077.55 Q2434.18 1077.55 2437.56 1080.72 Q2440.94 1083.89 2440.94 1089.31 Q2440.94 1094.88 2437.46 1097.99 Q2433.99 1101.07 2427.67 1101.07 Q2425.5 1101.07 2423.23 1100.69 Q2420.98 1100.32 2418.58 1099.58 L2418.58 1094.88 Q2420.66 1096.02 2422.88 1096.57 Q2425.1 1097.13 2427.58 1097.13 Q2431.58 1097.13 2433.92 1095.02 Q2436.26 1092.92 2436.26 1089.31 Q2436.26 1085.69 2433.92 1083.59 Q2431.58 1081.48 2427.58 1081.48 Q2425.7 1081.48 2423.83 1081.9 Q2421.98 1082.32 2420.03 1083.19 L2420.03 1065.83 Z" fill="#000000" fill-rule="nonzero" fill-opacity="1" /><path clip-path="url(#clip580)" d="M2501.58 1068.91 Q2497.97 1068.91 2496.14 1072.48 Q2494.34 1076.02 2494.34 1083.15 Q2494.34 1090.25 2496.14 1093.82 Q2497.97 1097.36 2501.58 1097.36 Q2505.22 1097.36 2507.02 1093.82 Q2508.85 1090.25 2508.85 1083.15 Q2508.85 1076.02 2507.02 1072.48 Q2505.22 1068.91 2501.58 1068.91 M2501.58 1065.21 Q2507.39 1065.21 2510.45 1069.82 Q2513.53 1074.4 2513.53 1083.15 Q2513.53 1091.88 2510.45 1096.48 Q2507.39 1101.07 2501.58 1101.07 Q2495.77 1101.07 2492.7 1096.48 Q2489.64 1091.88 2489.64 1083.15 Q2489.64 1074.4 2492.7 1069.82 Q2495.77 1065.21 2501.58 1065.21 Z" fill="#000000" fill-rule="nonzero" fill-opacity="1" /><path clip-path="url(#clip580)" d="M2521.75 1094.51 L2526.63 1094.51 L2526.63 1100.39 L2521.75 1100.39 L2521.75 1094.51 Z" fill="#000000" fill-rule="nonzero" fill-opacity="1" /><path clip-path="url(#clip580)" d="M2537.63 1096.46 L2545.26 1096.46 L2545.26 1070.09 L2536.95 1071.76 L2536.95 1067.5 L2545.22 1065.83 L2549.89 1065.83 L2549.89 1096.46 L2557.53 1096.46 L2557.53 1100.39 L2537.63 1100.39 L2537.63 1096.46 Z" fill="#000000" fill-rule="nonzero" fill-opacity="1" /><path clip-path="url(#clip580)" d="M2567.02 1065.83 L2585.38 1065.83 L2585.38 1069.77 L2571.31 1069.77 L2571.31 1078.24 Q2572.32 1077.89 2573.34 1077.73 Q2574.36 1077.55 2575.38 1077.55 Q2581.17 1077.55 2584.55 1080.72 Q2587.93 1083.89 2587.93 1089.31 Q2587.93 1094.88 2584.45 1097.99 Q2580.98 1101.07 2574.66 1101.07 Q2572.49 1101.07 2570.22 1100.69 Q2567.97 1100.32 2565.57 1099.58 L2565.57 1094.88 Q2567.65 1096.02 2569.87 1096.57 Q2572.09 1097.13 2574.57 1097.13 Q2578.57 1097.13 2580.91 1095.02 Q2583.25 1092.92 2583.25 1089.31 Q2583.25 1085.69 2580.91 1083.59 Q2578.57 1081.48 2574.57 1081.48 Q2572.7 1081.48 2570.82 1081.9 Q2568.97 1082.32 2567.02 1083.19 L2567.02 1065.83 Z" fill="#000000" fill-rule="nonzero" fill-opacity="1" /><path clip-path="url(#clip580)" d="M2607.14 1068.91 Q2603.53 1068.91 2601.7 1072.48 Q2599.89 1076.02 2599.89 1083.15 Q2599.89 1090.25 2601.7 1093.82 Q2603.53 1097.36 2607.14 1097.36 Q2610.77 1097.36 2612.58 1093.82 Q2614.41 1090.25 2614.41 1083.15 Q2614.41 1076.02 2612.58 1072.48 Q2610.77 1068.91 2607.14 1068.91 M2607.14 1065.21 Q2612.95 1065.21 2616.01 1069.82 Q2619.08 1074.4 2619.08 1083.15 Q2619.08 1091.88 2616.01 1096.48 Q2612.95 1101.07 2607.14 1101.07 Q2601.33 1101.07 2598.25 1096.48 Q2595.2 1091.88 2595.2 1083.15 Q2595.2 1074.4 2598.25 1069.82 Q2601.33 1065.21 2607.14 1065.21 Z" fill="#000000" fill-rule="nonzero" fill-opacity="1" /><path clip-path="url(#clip580)" d="M2679.73 1068.91 Q2676.12 1068.91 2674.29 1072.48 Q2672.49 1076.02 2672.49 1083.15 Q2672.49 1090.25 2674.29 1093.82 Q2676.12 1097.36 2679.73 1097.36 Q2683.37 1097.36 2685.17 1093.82 Q2687 1090.25 2687 1083.15 Q2687 1076.02 2685.17 1072.48 Q2683.37 1068.91 2679.73 1068.91 M2679.73 1065.21 Q2685.54 1065.21 2688.6 1069.82 Q2691.68 1074.4 2691.68 1083.15 Q2691.68 1091.88 2688.6 1096.48 Q2685.54 1101.07 2679.73 1101.07 Q2673.92 1101.07 2670.84 1096.48 Q2667.79 1091.88 2667.79 1083.15 Q2667.79 1074.4 2670.84 1069.82 Q2673.92 1065.21 2679.73 1065.21 Z" fill="#000000" fill-rule="nonzero" fill-opacity="1" /><path clip-path="url(#clip580)" d="M2699.89 1094.51 L2704.78 1094.51 L2704.78 1100.39 L2699.89 1100.39 L2699.89 1094.51 Z" fill="#000000" fill-rule="nonzero" fill-opacity="1" /><path clip-path="url(#clip580)" d="M2715.77 1096.46 L2723.41 1096.46 L2723.41 1070.09 L2715.1 1071.76 L2715.1 1067.5 L2723.37 1065.83 L2728.04 1065.83 L2728.04 1096.46 L2735.68 1096.46 L2735.68 1100.39 L2715.77 1100.39 L2715.77 1096.46 Z" fill="#000000" fill-rule="nonzero" fill-opacity="1" /><path clip-path="url(#clip580)" d="M2743.94 1065.83 L2766.17 1065.83 L2766.17 1067.82 L2753.62 1100.39 L2748.74 1100.39 L2760.54 1069.77 L2743.94 1069.77 L2743.94 1065.83 Z" fill="#000000" fill-rule="nonzero" fill-opacity="1" /><path clip-path="url(#clip580)" d="M2775.33 1065.83 L2793.69 1065.83 L2793.69 1069.77 L2779.62 1069.77 L2779.62 1078.24 Q2780.63 1077.89 2781.65 1077.73 Q2782.67 1077.55 2783.69 1077.55 Q2789.48 1077.55 2792.86 1080.72 Q2796.24 1083.89 2796.24 1089.31 Q2796.24 1094.88 2792.76 1097.99 Q2789.29 1101.07 2782.97 1101.07 Q2780.8 1101.07 2778.53 1100.69 Q2776.28 1100.32 2773.88 1099.58 L2773.88 1094.88 Q2775.96 1096.02 2778.18 1096.57 Q2780.4 1097.13 2782.88 1097.13 Q2786.88 1097.13 2789.22 1095.02 Q2791.56 1092.92 2791.56 1089.31 Q2791.56 1085.69 2789.22 1083.59 Q2786.88 1081.48 2782.88 1081.48 Q2781 1081.48 2779.13 1081.9 Q2777.28 1082.32 2775.33 1083.19 L2775.33 1065.83 Z" fill="#000000" fill-rule="nonzero" fill-opacity="1" /><path clip-path="url(#clip580)" d="M2856.88 1068.91 Q2853.27 1068.91 2851.44 1072.48 Q2849.64 1076.02 2849.64 1083.15 Q2849.64 1090.25 2851.44 1093.82 Q2853.27 1097.36 2856.88 1097.36 Q2860.52 1097.36 2862.32 1093.82 Q2864.15 1090.25 2864.15 1083.15 Q2864.15 1076.02 2862.32 1072.48 Q2860.52 1068.91 2856.88 1068.91 M2856.88 1065.21 Q2862.69 1065.21 2865.75 1069.82 Q2868.83 1074.4 2868.83 1083.15 Q2868.83 1091.88 2865.75 1096.48 Q2862.69 1101.07 2856.88 1101.07 Q2851.07 1101.07 2848 1096.48 Q2844.94 1091.88 2844.94 1083.15 Q2844.94 1074.4 2848 1069.82 Q2851.07 1065.21 2856.88 1065.21 Z" fill="#000000" fill-rule="nonzero" fill-opacity="1" /><path clip-path="url(#clip580)" d="M2877.05 1094.51 L2881.93 1094.51 L2881.93 1100.39 L2877.05 1100.39 L2877.05 1094.51 Z" fill="#000000" fill-rule="nonzero" fill-opacity="1" /><path clip-path="url(#clip580)" d="M2896.14 1096.46 L2912.46 1096.46 L2912.46 1100.39 L2890.52 1100.39 L2890.52 1096.46 Q2893.18 1093.7 2897.76 1089.07 Q2902.37 1084.42 2903.55 1083.08 Q2905.8 1080.56 2906.68 1078.82 Q2907.58 1077.06 2907.58 1075.37 Q2907.58 1072.62 2905.63 1070.88 Q2903.71 1069.14 2900.61 1069.14 Q2898.41 1069.14 2895.96 1069.91 Q2893.53 1070.67 2890.75 1072.22 L2890.75 1067.5 Q2893.57 1066.37 2896.03 1065.79 Q2898.48 1065.21 2900.52 1065.21 Q2905.89 1065.21 2909.08 1067.89 Q2912.28 1070.58 2912.28 1075.07 Q2912.28 1077.2 2911.47 1079.12 Q2910.68 1081.02 2908.57 1083.61 Q2908 1084.28 2904.89 1087.5 Q2901.79 1090.69 2896.14 1096.46 Z" fill="#000000" fill-rule="nonzero" fill-opacity="1" /><path clip-path="url(#clip580)" d="M2932.28 1068.91 Q2928.67 1068.91 2926.84 1072.48 Q2925.03 1076.02 2925.03 1083.15 Q2925.03 1090.25 2926.84 1093.82 Q2928.67 1097.36 2932.28 1097.36 Q2935.91 1097.36 2937.72 1093.82 Q2939.55 1090.25 2939.55 1083.15 Q2939.55 1076.02 2937.72 1072.48 Q2935.91 1068.91 2932.28 1068.91 M2932.28 1065.21 Q2938.09 1065.21 2941.14 1069.82 Q2944.22 1074.4 2944.22 1083.15 Q2944.22 1091.88 2941.14 1096.48 Q2938.09 1101.07 2932.28 1101.07 Q2926.47 1101.07 2923.39 1096.48 Q2920.33 1091.88 2920.33 1083.15 Q2920.33 1074.4 2923.39 1069.82 Q2926.47 1065.21 2932.28 1065.21 Z" fill="#000000" fill-rule="nonzero" fill-opacity="1" /><path clip-path="url(#clip580)" d="M2962.44 1068.91 Q2958.83 1068.91 2957 1072.48 Q2955.19 1076.02 2955.19 1083.15 Q2955.19 1090.25 2957 1093.82 Q2958.83 1097.36 2962.44 1097.36 Q2966.07 1097.36 2967.88 1093.82 Q2969.71 1090.25 2969.71 1083.15 Q2969.71 1076.02 2967.88 1072.48 Q2966.07 1068.91 2962.44 1068.91 M2962.44 1065.21 Q2968.25 1065.21 2971.31 1069.82 Q2974.38 1074.4 2974.38 1083.15 Q2974.38 1091.88 2971.31 1096.48 Q2968.25 1101.07 2962.44 1101.07 Q2956.63 1101.07 2953.55 1096.48 Q2950.5 1091.88 2950.5 1083.15 Q2950.5 1074.4 2953.55 1069.82 Q2956.63 1065.21 2962.44 1065.21 Z" fill="#000000" fill-rule="nonzero" fill-opacity="1" /><path clip-path="url(#clip580)" d="M3035.03 1068.91 Q3031.42 1068.91 3029.59 1072.48 Q3027.79 1076.02 3027.79 1083.15 Q3027.79 1090.25 3029.59 1093.82 Q3031.42 1097.36 3035.03 1097.36 Q3038.67 1097.36 3040.47 1093.82 Q3042.3 1090.25 3042.3 1083.15 Q3042.3 1076.02 3040.47 1072.48 Q3038.67 1068.91 3035.03 1068.91 M3035.03 1065.21 Q3040.84 1065.21 3043.9 1069.82 Q3046.98 1074.4 3046.98 1083.15 Q3046.98 1091.88 3043.9 1096.48 Q3040.84 1101.07 3035.03 1101.07 Q3029.22 1101.07 3026.14 1096.48 Q3023.09 1091.88 3023.09 1083.15 Q3023.09 1074.4 3026.14 1069.82 Q3029.22 1065.21 3035.03 1065.21 Z" fill="#000000" fill-rule="nonzero" fill-opacity="1" /><path clip-path="url(#clip580)" d="M3055.19 1094.51 L3060.08 1094.51 L3060.08 1100.39 L3055.19 1100.39 L3055.19 1094.51 Z" fill="#000000" fill-rule="nonzero" fill-opacity="1" /><path clip-path="url(#clip580)" d="M3074.29 1096.46 L3090.61 1096.46 L3090.61 1100.39 L3068.67 1100.39 L3068.67 1096.46 Q3071.33 1093.7 3075.91 1089.07 Q3080.52 1084.42 3081.7 1083.08 Q3083.94 1080.56 3084.82 1078.82 Q3085.73 1077.06 3085.73 1075.37 Q3085.73 1072.62 3083.78 1070.88 Q3081.86 1069.14 3078.76 1069.14 Q3076.56 1069.14 3074.11 1069.91 Q3071.68 1070.67 3068.9 1072.22 L3068.9 1067.5 Q3071.72 1066.37 3074.18 1065.79 Q3076.63 1065.21 3078.67 1065.21 Q3084.04 1065.21 3087.23 1067.89 Q3090.43 1070.58 3090.43 1075.07 Q3090.43 1077.2 3089.62 1079.12 Q3088.83 1081.02 3086.72 1083.61 Q3086.14 1084.28 3083.04 1087.5 Q3079.94 1090.69 3074.29 1096.46 Z" fill="#000000" fill-rule="nonzero" fill-opacity="1" /><path clip-path="url(#clip580)" d="M3104.45 1096.46 L3120.77 1096.46 L3120.77 1100.39 L3098.83 1100.39 L3098.83 1096.46 Q3101.49 1093.7 3106.07 1089.07 Q3110.68 1084.42 3111.86 1083.08 Q3114.11 1080.56 3114.99 1078.82 Q3115.89 1077.06 3115.89 1075.37 Q3115.89 1072.62 3113.94 1070.88 Q3112.02 1069.14 3108.92 1069.14 Q3106.72 1069.14 3104.27 1069.91 Q3101.84 1070.67 3099.06 1072.22 L3099.06 1067.5 Q3101.88 1066.37 3104.34 1065.79 Q3106.79 1065.21 3108.83 1065.21 Q3114.2 1065.21 3117.39 1067.89 Q3120.59 1070.58 3120.59 1075.07 Q3120.59 1077.2 3119.78 1079.12 Q3118.99 1081.02 3116.88 1083.61 Q3116.3 1084.28 3113.2 1087.5 Q3110.1 1090.69 3104.45 1096.46 Z" fill="#000000" fill-rule="nonzero" fill-opacity="1" /><path clip-path="url(#clip580)" d="M3130.63 1065.83 L3148.99 1065.83 L3148.99 1069.77 L3134.92 1069.77 L3134.92 1078.24 Q3135.93 1077.89 3136.95 1077.73 Q3137.97 1077.55 3138.99 1077.55 Q3144.78 1077.55 3148.16 1080.72 Q3151.54 1083.89 3151.54 1089.31 Q3151.54 1094.88 3148.06 1097.99 Q3144.59 1101.07 3138.27 1101.07 Q3136.1 1101.07 3133.83 1100.69 Q3131.58 1100.32 3129.17 1099.58 L3129.17 1094.88 Q3131.26 1096.02 3133.48 1096.57 Q3135.7 1097.13 3138.18 1097.13 Q3142.18 1097.13 3144.52 1095.02 Q3146.86 1092.92 3146.86 1089.31 Q3146.86 1085.69 3144.52 1083.59 Q3142.18 1081.48 3138.18 1081.48 Q3136.3 1081.48 3134.43 1081.9 Q3132.58 1082.32 3130.63 1083.19 L3130.63 1065.83 Z" fill="#000000" fill-rule="nonzero" fill-opacity="1" /><path clip-path="url(#clip580)" d="M2303.78 1142.5 L2303.78 1148.77 Q2300.12 1147.02 2296.87 1146.16 Q2293.63 1145.3 2290.6 1145.3 Q2285.35 1145.3 2282.49 1147.34 Q2279.65 1149.37 2279.65 1153.13 Q2279.65 1156.28 2281.53 1157.9 Q2283.44 1159.49 2288.72 1160.48 L2292.61 1161.28 Q2299.8 1162.64 2303.21 1166.11 Q2306.64 1169.55 2306.64 1175.34 Q2306.64 1182.25 2302 1185.82 Q2297.38 1189.38 2288.44 1189.38 Q2285.06 1189.38 2281.25 1188.62 Q2277.46 1187.85 2273.38 1186.36 L2273.38 1179.74 Q2277.3 1181.93 2281.05 1183.05 Q2284.81 1184.16 2288.44 1184.16 Q2293.94 1184.16 2296.94 1182 Q2299.93 1179.83 2299.93 1175.82 Q2299.93 1172.32 2297.76 1170.35 Q2295.63 1168.37 2290.73 1167.39 L2286.82 1166.62 Q2279.62 1165.19 2276.41 1162.14 Q2273.19 1159.08 2273.19 1153.64 Q2273.19 1147.34 2277.62 1143.71 Q2282.07 1140.08 2289.87 1140.08 Q2293.21 1140.08 2296.68 1140.68 Q2300.15 1141.29 2303.78 1142.5 Z" fill="#000000" fill-rule="nonzero" fill-opacity="1" /><path clip-path="url(#clip580)" d="M2332.62 1170.54 Q2325.52 1170.54 2322.78 1172.16 Q2320.04 1173.78 2320.04 1177.7 Q2320.04 1180.82 2322.08 1182.66 Q2324.15 1184.48 2327.68 1184.48 Q2332.55 1184.48 2335.48 1181.04 Q2338.44 1177.57 2338.44 1171.84 L2338.44 1170.54 L2332.62 1170.54 M2344.3 1168.12 L2344.3 1188.46 L2338.44 1188.46 L2338.44 1183.05 Q2336.44 1186.29 2333.44 1187.85 Q2330.45 1189.38 2326.12 1189.38 Q2320.65 1189.38 2317.4 1186.33 Q2314.19 1183.24 2314.19 1178.08 Q2314.19 1172.07 2318.2 1169.01 Q2322.24 1165.96 2330.23 1165.96 L2338.44 1165.96 L2338.44 1165.38 Q2338.44 1161.34 2335.77 1159.14 Q2333.13 1156.92 2328.32 1156.92 Q2325.26 1156.92 2322.37 1157.65 Q2319.47 1158.38 2316.8 1159.84 L2316.8 1154.43 Q2320.01 1153.19 2323.04 1152.59 Q2326.06 1151.95 2328.92 1151.95 Q2336.66 1151.95 2340.48 1155.96 Q2344.3 1159.97 2344.3 1168.12 Z" fill="#000000" fill-rule="nonzero" fill-opacity="1" /><path clip-path="url(#clip580)" d="M2384.12 1159.65 Q2386.31 1155.71 2389.37 1153.83 Q2392.42 1151.95 2396.56 1151.95 Q2402.13 1151.95 2405.15 1155.87 Q2408.18 1159.75 2408.18 1166.94 L2408.18 1188.46 L2402.29 1188.46 L2402.29 1167.13 Q2402.29 1162.01 2400.47 1159.53 Q2398.66 1157.04 2394.94 1157.04 Q2390.39 1157.04 2387.74 1160.07 Q2385.1 1163.09 2385.1 1168.31 L2385.1 1188.46 L2379.21 1188.46 L2379.21 1167.13 Q2379.21 1161.98 2377.4 1159.53 Q2375.59 1157.04 2371.8 1157.04 Q2367.31 1157.04 2364.67 1160.1 Q2362.03 1163.12 2362.03 1168.31 L2362.03 1188.46 L2356.14 1188.46 L2356.14 1152.81 L2362.03 1152.81 L2362.03 1158.35 Q2364.03 1155.07 2366.83 1153.51 Q2369.63 1151.95 2373.48 1151.95 Q2377.37 1151.95 2380.07 1153.92 Q2382.81 1155.9 2384.12 1159.65 Z" fill="#000000" fill-rule="nonzero" fill-opacity="1" /><path clip-path="url(#clip580)" d="M2425.52 1183.11 L2425.52 1202.02 L2419.64 1202.02 L2419.64 1152.81 L2425.52 1152.81 L2425.52 1158.22 Q2427.37 1155.04 2430.17 1153.51 Q2433 1151.95 2436.92 1151.95 Q2443.41 1151.95 2447.45 1157.11 Q2451.53 1162.26 2451.53 1170.67 Q2451.53 1179.07 2447.45 1184.22 Q2443.41 1189.38 2436.92 1189.38 Q2433 1189.38 2430.17 1187.85 Q2427.37 1186.29 2425.52 1183.11 M2445.45 1170.67 Q2445.45 1164.2 2442.78 1160.54 Q2440.13 1156.85 2435.49 1156.85 Q2430.84 1156.85 2428.17 1160.54 Q2425.52 1164.2 2425.52 1170.67 Q2425.52 1177.13 2428.17 1180.82 Q2430.84 1184.48 2435.49 1184.48 Q2440.13 1184.48 2442.78 1180.82 Q2445.45 1177.13 2445.45 1170.67 Z" fill="#000000" fill-rule="nonzero" fill-opacity="1" /><path clip-path="url(#clip580)" d="M2461.24 1138.93 L2467.09 1138.93 L2467.09 1188.46 L2461.24 1188.46 L2461.24 1138.93 Z" fill="#000000" fill-rule="nonzero" fill-opacity="1" /><path clip-path="url(#clip580)" d="M2509.84 1169.17 L2509.84 1172.03 L2482.91 1172.03 Q2483.29 1178.08 2486.54 1181.26 Q2489.82 1184.42 2495.64 1184.42 Q2499.02 1184.42 2502.17 1183.59 Q2505.35 1182.76 2508.47 1181.11 L2508.47 1186.64 Q2505.32 1187.98 2502.01 1188.68 Q2498.7 1189.38 2495.29 1189.38 Q2486.76 1189.38 2481.77 1184.42 Q2476.8 1179.45 2476.8 1170.98 Q2476.8 1162.23 2481.51 1157.11 Q2486.25 1151.95 2494.27 1151.95 Q2501.47 1151.95 2505.64 1156.6 Q2509.84 1161.21 2509.84 1169.17 M2503.98 1167.45 Q2503.92 1162.64 2501.28 1159.78 Q2498.67 1156.92 2494.34 1156.92 Q2489.44 1156.92 2486.48 1159.68 Q2483.55 1162.45 2483.1 1167.48 L2503.98 1167.45 Z" fill="#000000" fill-rule="nonzero" fill-opacity="1" /><path clip-path="url(#clip580)" d="M2535.97 1152.81 L2542.18 1152.81 L2553.32 1182.73 L2564.46 1152.81 L2570.66 1152.81 L2557.29 1188.46 L2549.34 1188.46 L2535.97 1152.81 Z" fill="#000000" fill-rule="nonzero" fill-opacity="1" /><path clip-path="url(#clip580)" d="M2594.95 1170.54 Q2587.85 1170.54 2585.11 1172.16 Q2582.38 1173.78 2582.38 1177.7 Q2582.38 1180.82 2584.41 1182.66 Q2586.48 1184.48 2590.01 1184.48 Q2594.88 1184.48 2597.81 1181.04 Q2600.77 1177.57 2600.77 1171.84 L2600.77 1170.54 L2594.95 1170.54 M2606.63 1168.12 L2606.63 1188.46 L2600.77 1188.46 L2600.77 1183.05 Q2598.77 1186.29 2595.77 1187.85 Q2592.78 1189.38 2588.45 1189.38 Q2582.98 1189.38 2579.73 1186.33 Q2576.52 1183.24 2576.52 1178.08 Q2576.52 1172.07 2580.53 1169.01 Q2584.57 1165.96 2592.56 1165.96 L2600.77 1165.96 L2600.77 1165.38 Q2600.77 1161.34 2598.1 1159.14 Q2595.46 1156.92 2590.65 1156.92 Q2587.59 1156.92 2584.7 1157.65 Q2581.8 1158.38 2579.13 1159.84 L2579.13 1154.43 Q2582.34 1153.19 2585.37 1152.59 Q2588.39 1151.95 2591.26 1151.95 Q2598.99 1151.95 2602.81 1155.96 Q2606.63 1159.97 2606.63 1168.12 Z" fill="#000000" fill-rule="nonzero" fill-opacity="1" /><path clip-path="url(#clip580)" d="M2618.69 1138.93 L2624.55 1138.93 L2624.55 1188.46 L2618.69 1188.46 L2618.69 1138.93 Z" fill="#000000" fill-rule="nonzero" fill-opacity="1" /><path clip-path="url(#clip580)" d="M2636.2 1174.39 L2636.2 1152.81 L2642.05 1152.81 L2642.05 1174.17 Q2642.05 1179.23 2644.03 1181.77 Q2646 1184.29 2649.95 1184.29 Q2654.69 1184.29 2657.43 1181.26 Q2660.2 1178.24 2660.2 1173.02 L2660.2 1152.81 L2666.05 1152.81 L2666.05 1188.46 L2660.2 1188.46 L2660.2 1182.98 Q2658.06 1186.23 2655.23 1187.82 Q2652.43 1189.38 2648.71 1189.38 Q2642.56 1189.38 2639.38 1185.56 Q2636.2 1181.74 2636.2 1174.39 M2650.93 1151.95 L2650.93 1151.95 Z" fill="#000000" fill-rule="nonzero" fill-opacity="1" /><path clip-path="url(#clip580)" d="M2708.61 1169.17 L2708.61 1172.03 L2681.68 1172.03 Q2682.06 1178.08 2685.31 1181.26 Q2688.59 1184.42 2694.41 1184.42 Q2697.79 1184.42 2700.94 1183.59 Q2704.12 1182.76 2707.24 1181.11 L2707.24 1186.64 Q2704.09 1187.98 2700.78 1188.68 Q2697.47 1189.38 2694.06 1189.38 Q2685.53 1189.38 2680.53 1184.42 Q2675.57 1179.45 2675.57 1170.98 Q2675.57 1162.23 2680.28 1157.11 Q2685.02 1151.95 2693.04 1151.95 Q2700.24 1151.95 2704.41 1156.6 Q2708.61 1161.21 2708.61 1169.17 M2702.75 1167.45 Q2702.69 1162.64 2700.05 1159.78 Q2697.44 1156.92 2693.11 1156.92 Q2688.2 1156.92 2685.24 1159.68 Q2682.32 1162.45 2681.87 1167.48 L2702.75 1167.45 Z" fill="#000000" fill-rule="nonzero" fill-opacity="1" /><polyline clip-path="url(#clip583)" style="stroke:#000000; stroke-linecap:round; stroke-linejoin:round; stroke-width:2; stroke-opacity:0.1; fill:none" points="1860.54,1008.1 3121.26,1008.1 "/>
<polyline clip-path="url(#clip583)" style="stroke:#000000; stroke-linecap:round; stroke-linejoin:round; stroke-width:2; stroke-opacity:0.1; fill:none" points="1860.54,817.492 3121.26,817.492 "/>
<polyline clip-path="url(#clip583)" style="stroke:#000000; stroke-linecap:round; stroke-linejoin:round; stroke-width:2; stroke-opacity:0.1; fill:none" points="1860.54,626.883 3121.26,626.883 "/>
<polyline clip-path="url(#clip583)" style="stroke:#000000; stroke-linecap:round; stroke-linejoin:round; stroke-width:2; stroke-opacity:0.1; fill:none" points="1860.54,436.274 3121.26,436.274 "/>
<polyline clip-path="url(#clip583)" style="stroke:#000000; stroke-linecap:round; stroke-linejoin:round; stroke-width:2; stroke-opacity:0.1; fill:none" points="1860.54,245.665 3121.26,245.665 "/>
<polyline clip-path="url(#clip580)" style="stroke:#000000; stroke-linecap:round; stroke-linejoin:round; stroke-width:4; stroke-opacity:1; fill:none" points="1860.54,1031.59 1860.54,128.508 "/>
<polyline clip-path="url(#clip580)" style="stroke:#000000; stroke-linecap:round; stroke-linejoin:round; stroke-width:4; stroke-opacity:1; fill:none" points="1860.54,1008.1 1879.44,1008.1 "/>
<polyline clip-path="url(#clip580)" style="stroke:#000000; stroke-linecap:round; stroke-linejoin:round; stroke-width:4; stroke-opacity:1; fill:none" points="1860.54,817.492 1879.44,817.492 "/>
<polyline clip-path="url(#clip580)" style="stroke:#000000; stroke-linecap:round; stroke-linejoin:round; stroke-width:4; stroke-opacity:1; fill:none" points="1860.54,626.883 1879.44,626.883 "/>
<polyline clip-path="url(#clip580)" style="stroke:#000000; stroke-linecap:round; stroke-linejoin:round; stroke-width:4; stroke-opacity:1; fill:none" points="1860.54,436.274 1879.44,436.274 "/>
<polyline clip-path="url(#clip580)" style="stroke:#000000; stroke-linecap:round; stroke-linejoin:round; stroke-width:4; stroke-opacity:1; fill:none" points="1860.54,245.665 1879.44,245.665 "/>
<path clip-path="url(#clip580)" d="M1800.6 993.9 Q1796.98 993.9 1795.16 997.465 Q1793.35 1001.01 1793.35 1008.14 Q1793.35 1015.24 1795.16 1018.81 Q1796.98 1022.35 1800.6 1022.35 Q1804.23 1022.35 1806.04 1018.81 Q1807.86 1015.24 1807.86 1008.14 Q1807.86 1001.01 1806.04 997.465 Q1804.23 993.9 1800.6 993.9 M1800.6 990.196 Q1806.41 990.196 1809.46 994.802 Q1812.54 999.386 1812.54 1008.14 Q1812.54 1016.86 1809.46 1021.47 Q1806.41 1026.05 1800.6 1026.05 Q1794.79 1026.05 1791.71 1021.47 Q1788.65 1016.86 1788.65 1008.14 Q1788.65 999.386 1791.71 994.802 Q1794.79 990.196 1800.6 990.196 Z" fill="#000000" fill-rule="nonzero" fill-opacity="1" /><path clip-path="url(#clip580)" d="M1791.64 800.212 L1809.99 800.212 L1809.99 804.147 L1795.92 804.147 L1795.92 812.619 Q1796.94 812.272 1797.96 812.11 Q1798.98 811.925 1799.99 811.925 Q1805.78 811.925 1809.16 815.096 Q1812.54 818.268 1812.54 823.684 Q1812.54 829.263 1809.07 832.365 Q1805.6 835.443 1799.28 835.443 Q1797.1 835.443 1794.83 835.073 Q1792.59 834.703 1790.18 833.962 L1790.18 829.263 Q1792.26 830.397 1794.48 830.953 Q1796.71 831.508 1799.18 831.508 Q1803.19 831.508 1805.53 829.402 Q1807.86 827.295 1807.86 823.684 Q1807.86 820.073 1805.53 817.967 Q1803.19 815.86 1799.18 815.86 Q1797.31 815.86 1795.43 816.277 Q1793.58 816.693 1791.64 817.573 L1791.64 800.212 Z" fill="#000000" fill-rule="nonzero" fill-opacity="1" /><path clip-path="url(#clip580)" d="M1761.24 640.228 L1768.88 640.228 L1768.88 613.862 L1760.57 615.529 L1760.57 611.27 L1768.84 609.603 L1773.51 609.603 L1773.51 640.228 L1781.15 640.228 L1781.15 644.163 L1761.24 644.163 L1761.24 640.228 Z" fill="#000000" fill-rule="nonzero" fill-opacity="1" /><path clip-path="url(#clip580)" d="M1800.6 612.682 Q1796.98 612.682 1795.16 616.247 Q1793.35 619.788 1793.35 626.918 Q1793.35 634.024 1795.16 637.589 Q1796.98 641.131 1800.6 641.131 Q1804.23 641.131 1806.04 637.589 Q1807.86 634.024 1807.86 626.918 Q1807.86 619.788 1806.04 616.247 Q1804.23 612.682 1800.6 612.682 M1800.6 608.978 Q1806.41 608.978 1809.46 613.585 Q1812.54 618.168 1812.54 626.918 Q1812.54 635.645 1809.46 640.251 Q1806.41 644.834 1800.6 644.834 Q1794.79 644.834 1791.71 640.251 Q1788.65 635.645 1788.65 626.918 Q1788.65 618.168 1791.71 613.585 Q1794.79 608.978 1800.6 608.978 Z" fill="#000000" fill-rule="nonzero" fill-opacity="1" /><path clip-path="url(#clip580)" d="M1762.24 449.619 L1769.88 449.619 L1769.88 423.253 L1761.57 424.92 L1761.57 420.661 L1769.83 418.994 L1774.51 418.994 L1774.51 449.619 L1782.15 449.619 L1782.15 453.554 L1762.24 453.554 L1762.24 449.619 Z" fill="#000000" fill-rule="nonzero" fill-opacity="1" /><path clip-path="url(#clip580)" d="M1791.64 418.994 L1809.99 418.994 L1809.99 422.929 L1795.92 422.929 L1795.92 431.401 Q1796.94 431.054 1797.96 430.892 Q1798.98 430.707 1799.99 430.707 Q1805.78 430.707 1809.16 433.878 Q1812.54 437.05 1812.54 442.466 Q1812.54 448.045 1809.07 451.147 Q1805.6 454.225 1799.28 454.225 Q1797.1 454.225 1794.83 453.855 Q1792.59 453.485 1790.18 452.744 L1790.18 448.045 Q1792.26 449.179 1794.48 449.735 Q1796.71 450.29 1799.18 450.29 Q1803.19 450.29 1805.53 448.184 Q1807.86 446.077 1807.86 442.466 Q1807.86 438.855 1805.53 436.749 Q1803.19 434.642 1799.18 434.642 Q1797.31 434.642 1795.43 435.059 Q1793.58 435.475 1791.64 436.355 L1791.64 418.994 Z" fill="#000000" fill-rule="nonzero" fill-opacity="1" /><path clip-path="url(#clip580)" d="M1764.46 259.01 L1780.78 259.01 L1780.78 262.945 L1758.84 262.945 L1758.84 259.01 Q1761.5 256.255 1766.08 251.626 Q1770.69 246.973 1771.87 245.63 Q1774.11 243.107 1774.99 241.371 Q1775.9 239.612 1775.9 237.922 Q1775.9 235.167 1773.95 233.431 Q1772.03 231.695 1768.93 231.695 Q1766.73 231.695 1764.28 232.459 Q1761.85 233.223 1759.07 234.774 L1759.07 230.052 Q1761.89 228.918 1764.35 228.339 Q1766.8 227.76 1768.84 227.76 Q1774.21 227.76 1777.4 230.445 Q1780.6 233.13 1780.6 237.621 Q1780.6 239.751 1779.79 241.672 Q1779 243.57 1776.89 246.163 Q1776.31 246.834 1773.21 250.052 Q1770.11 253.246 1764.46 259.01 Z" fill="#000000" fill-rule="nonzero" fill-opacity="1" /><path clip-path="url(#clip580)" d="M1800.6 231.464 Q1796.98 231.464 1795.16 235.029 Q1793.35 238.57 1793.35 245.7 Q1793.35 252.806 1795.16 256.371 Q1796.98 259.913 1800.6 259.913 Q1804.23 259.913 1806.04 256.371 Q1807.86 252.806 1807.86 245.7 Q1807.86 238.57 1806.04 235.029 Q1804.23 231.464 1800.6 231.464 M1800.6 227.76 Q1806.41 227.76 1809.46 232.367 Q1812.54 236.95 1812.54 245.7 Q1812.54 254.427 1809.46 259.033 Q1806.41 263.616 1800.6 263.616 Q1794.79 263.616 1791.71 259.033 Q1788.65 254.427 1788.65 245.7 Q1788.65 236.95 1791.71 232.367 Q1794.79 227.76 1800.6 227.76 Z" fill="#000000" fill-rule="nonzero" fill-opacity="1" /><path clip-path="url(#clip580)" d="M1654.34 693.361 L1691.3 693.361 L1691.3 685.594 Q1691.3 675.759 1686.84 671.208 Q1682.38 666.625 1672.77 666.625 Q1663.22 666.625 1658.8 671.208 Q1654.34 675.759 1654.34 685.594 L1654.34 693.361 M1649.06 699.79 L1649.06 686.581 Q1649.06 672.768 1654.82 666.306 Q1660.55 659.845 1672.77 659.845 Q1685.06 659.845 1690.82 666.338 Q1696.58 672.831 1696.58 686.581 L1696.58 699.79 L1649.06 699.79 Z" fill="#000000" fill-rule="nonzero" fill-opacity="1" /><path clip-path="url(#clip580)" d="M1677.29 619.359 L1680.16 619.359 L1680.16 646.286 Q1686.2 645.904 1689.39 642.658 Q1692.54 639.379 1692.54 633.555 Q1692.54 630.181 1691.71 627.03 Q1690.88 623.847 1689.23 620.728 L1694.77 620.728 Q1696.1 623.879 1696.8 627.189 Q1697.5 630.499 1697.5 633.905 Q1697.5 642.435 1692.54 647.432 Q1687.57 652.397 1679.11 652.397 Q1670.35 652.397 1665.23 647.687 Q1660.07 642.944 1660.07 634.923 Q1660.07 627.73 1664.72 623.561 Q1669.34 619.359 1677.29 619.359 M1675.57 625.216 Q1670.77 625.279 1667.9 627.921 Q1665.04 630.531 1665.04 634.86 Q1665.04 639.761 1667.81 642.721 Q1670.58 645.65 1675.61 646.095 L1675.57 625.216 Z" fill="#000000" fill-rule="nonzero" fill-opacity="1" /><path clip-path="url(#clip580)" d="M1675.06 580.115 L1696.58 580.115 L1696.58 585.971 L1675.26 585.971 Q1670.19 585.971 1667.68 587.944 Q1665.17 589.918 1665.17 593.865 Q1665.17 598.607 1668.19 601.344 Q1671.21 604.082 1676.43 604.082 L1696.58 604.082 L1696.58 609.97 L1660.93 609.97 L1660.93 604.082 L1666.47 604.082 Q1663.26 601.981 1661.66 599.148 Q1660.07 596.284 1660.07 592.56 Q1660.07 586.417 1663.89 583.266 Q1667.68 580.115 1675.06 580.115 Z" fill="#000000" fill-rule="nonzero" fill-opacity="1" /><path clip-path="url(#clip580)" d="M1661.98 545.708 L1667.52 545.708 Q1666.25 548.191 1665.61 550.864 Q1664.97 553.538 1664.97 556.402 Q1664.97 560.763 1666.31 562.959 Q1667.65 565.123 1670.32 565.123 Q1672.36 565.123 1673.54 563.564 Q1674.68 562.004 1675.73 557.294 L1676.18 555.288 Q1677.52 549.05 1679.97 546.44 Q1682.38 543.798 1686.75 543.798 Q1691.71 543.798 1694.61 547.745 Q1697.5 551.66 1697.5 558.535 Q1697.5 561.399 1696.93 564.519 Q1696.39 567.606 1695.28 571.044 L1689.23 571.044 Q1690.91 567.797 1691.77 564.646 Q1692.6 561.495 1692.6 558.408 Q1692.6 554.27 1691.2 552.042 Q1689.77 549.814 1687.19 549.814 Q1684.8 549.814 1683.53 551.437 Q1682.26 553.029 1681.08 558.471 L1680.6 560.508 Q1679.46 565.951 1677.1 568.37 Q1674.71 570.789 1670.58 570.789 Q1665.55 570.789 1662.81 567.224 Q1660.07 563.659 1660.07 557.103 Q1660.07 553.856 1660.55 550.992 Q1661.03 548.127 1661.98 545.708 Z" fill="#000000" fill-rule="nonzero" fill-opacity="1" /><path clip-path="url(#clip580)" d="M1660.93 534.473 L1660.93 528.616 L1696.58 528.616 L1696.58 534.473 L1660.93 534.473 M1647.06 534.473 L1647.06 528.616 L1654.47 528.616 L1654.47 534.473 L1647.06 534.473 Z" fill="#000000" fill-rule="nonzero" fill-opacity="1" /><path clip-path="url(#clip580)" d="M1650.81 510.569 L1660.93 510.569 L1660.93 498.506 L1665.48 498.506 L1665.48 510.569 L1684.84 510.569 Q1689.2 510.569 1690.44 509.392 Q1691.68 508.182 1691.68 504.522 L1691.68 498.506 L1696.58 498.506 L1696.58 504.522 Q1696.58 511.301 1694.07 513.879 Q1691.52 516.458 1684.84 516.458 L1665.48 516.458 L1665.48 520.754 L1660.93 520.754 L1660.93 516.458 L1650.81 516.458 L1650.81 510.569 Z" fill="#000000" fill-rule="nonzero" fill-opacity="1" /><path clip-path="url(#clip580)" d="M1699.89 475.972 Q1706.26 478.454 1708.2 480.81 Q1710.14 483.165 1710.14 487.112 L1710.14 491.79 L1705.24 491.79 L1705.24 488.353 Q1705.24 485.934 1704.09 484.597 Q1702.95 483.26 1698.68 481.637 L1696.01 480.587 L1660.93 495.005 L1660.93 488.799 L1688.81 477.659 L1660.93 466.519 L1660.93 460.312 L1699.89 475.972 Z" fill="#000000" fill-rule="nonzero" fill-opacity="1" /><path clip-path="url(#clip580)" d="M2488.94 33.1202 Q2482.78 33.1202 2479.46 37.5762 Q2475.97 42.2347 2475.97 49.9314 Q2475.97 58.0738 2479.42 62.7728 Q2482.9 67.4314 2488.94 67.4314 Q2494.89 67.4314 2498.37 62.7323 Q2501.86 58.0333 2501.86 49.9314 Q2501.86 42.5183 2498.37 37.5762 Q2495.17 33.1202 2488.94 33.1202 M2488.94 27.2059 L2513.69 27.2059 L2513.69 34.6595 L2505.34 34.6595 Q2509.76 40.9789 2509.76 49.9314 Q2509.76 61.0714 2504.21 67.3908 Q2498.66 73.7508 2488.94 73.7508 Q2479.17 73.7508 2473.66 67.3908 Q2468.11 61.0714 2468.11 49.9314 Q2468.11 38.7104 2473.66 32.4315 Q2478.24 27.2059 2488.94 27.2059 Z" fill="#000000" fill-rule="nonzero" fill-opacity="1" /><polyline clip-path="url(#clip583)" style="stroke:#009af9; stroke-linecap:round; stroke-linejoin:round; stroke-width:4; stroke-opacity:1; fill:none" points="2222.62,911.399 2228.08,908.534 2233.54,906.622 2239.01,905.708 2244.47,905.798 2249.93,906.865 2255.4,908.84 2260.86,911.623 2266.32,915.077 2271.79,919.039 2277.25,923.326 2282.71,927.737 2288.18,932.069 2293.64,936.116 2299.1,939.686 2304.57,942.604 2310.03,944.72 2315.49,945.918 2320.96,946.119 2326.42,945.286 2331.88,943.427 2337.35,940.595 2342.81,936.885 2348.27,932.433 2353.74,927.407 2359.2,922.003 2364.66,916.432 2370.13,910.912 2375.59,905.653 2381.05,900.848 2386.52,896.664 2391.98,893.226 2397.44,890.615 2402.91,888.863 2408.37,887.947 2413.83,887.795 2419.3,888.288 2424.76,889.271 2430.22,890.555 2435.69,891.938 2441.15,893.21 2446.61,894.166 2452.08,894.617 2457.54,894.397 2463,893.368 2468.47,891.428 2473.93,888.505 2479.39,884.556 2484.86,879.564 2490.32,873.529 2495.78,866.464 2501.25,858.382 2506.71,849.293 2512.17,839.199 2517.64,828.086 2523.1,815.928 2528.56,802.688 2534.03,788.318 2539.49,772.775 2544.95,756.024 2550.42,738.051 2555.88,718.877 2561.35,698.564 2566.81,677.23 2572.27,655.05 2577.74,632.26 2583.2,609.155 2588.66,586.08 2594.13,563.417 2599.59,541.568 2605.05,520.933 2610.52,501.885 2615.98,484.749 2621.44,469.777 2626.91,457.127 2632.37,446.853 2637.83,438.89 2643.3,433.059 2648.76,429.07 2654.22,426.537 2659.69,425 2665.15,423.947 2670.61,422.846 2676.08,421.173 2681.54,418.442 2687,414.231 2692.47,408.203 2697.93,400.124 2703.39,389.873 2708.86,377.441 2714.32,362.937 2719.78,346.569 2725.25,328.643 2730.71,309.537 2736.17,289.689 2741.64,269.578 2747.1,249.702 2752.56,230.564 2758.03,212.656 2763.49,196.444 2768.95,182.356 2774.42,170.774 2779.88,162.029 2785.34,156.39 2790.81,154.067 2796.27,155.205 2801.73,159.886 2807.2,168.129 2812.66,179.894 2818.12,195.083 2823.59,213.55 2829.05,235.097 2834.51,259.49 2839.98,286.459 2845.44,315.708 2850.9,346.919 2856.37,379.76 2861.83,413.892 2867.29,448.972 2872.76,484.661 2878.22,520.629 2883.68,556.554 2889.15,592.132 2894.61,627.079 2900.07,661.128 2905.54,694.041 "/>
<polyline clip-path="url(#clip583)" style="stroke:#e26f46; stroke-linecap:round; stroke-linejoin:round; stroke-width:4; stroke-opacity:1; fill:none" points="2364.74,954.138 2370.16,953.567 2375.58,953.35 2381,953.369 2386.42,953.479 2391.84,953.525 2397.26,953.346 2402.68,952.79 2408.1,951.719 2413.52,950.023 2418.94,947.62 2424.36,944.463 2429.78,940.538 2435.2,935.865 2440.62,930.49 2446.04,924.481 2451.46,917.921 2456.88,910.899 2462.3,903.503 2467.72,895.812 2473.14,887.89 2478.56,879.78 2483.98,871.502 2489.4,863.048 2494.82,854.385 2500.24,845.459 2505.66,836.192 2511.08,826.499 2516.5,816.287 2521.92,805.469 2527.34,793.971 2532.76,781.74 2538.18,768.755 2543.6,755.025 2549.02,740.597 2554.44,725.547 2559.86,709.981 2565.28,694.018 2570.7,677.786 2576.12,661.405 2581.54,644.973 2586.96,628.559 2592.38,612.193 2597.8,595.862 2603.22,579.511 2608.64,563.049 2614.06,546.359 2619.47,529.308 2624.89,511.767 2630.31,493.625 2635.73,474.803 2641.15,455.271 2646.57,435.056 2651.99,414.25 2657.41,393.016 2662.83,371.582 2668.25,350.24 2673.67,329.334 2679.09,309.244 2684.51,290.37 2689.93,273.107 2695.35,257.821 2700.77,244.823 2706.19,234.343 2711.61,226.512 2717.03,221.343 2722.45,218.729 2727.87,218.441 2733.29,220.145 2738.71,223.425 2744.13,227.817 2749.55,232.845 2754.97,238.06 2760.39,243.079 2765.81,247.609 2771.23,251.468 2776.65,254.593 2782.07,257.03 2787.49,258.916 2792.91,260.455 2798.33,261.887 2803.75,263.454 2809.17,265.38 2814.59,267.851 2820.01,271.008 2825.43,274.952 2830.85,279.76 2836.27,285.503 2841.69,292.269 2847.11,300.185 2852.53,309.431 2857.95,320.244 2863.37,332.907 2868.79,347.738 2874.21,365.053 2879.63,385.136 2885.05,408.195 2890.47,434.335 2895.89,463.523 2901.31,495.576 2906.73,530.155 2912.14,566.779 2917.56,604.847 2922.98,643.675 2928.4,682.536 2933.82,720.703 2939.24,757.493 2944.66,792.304 2950.08,824.64 2955.5,854.131 2960.92,880.54 2966.34,903.758 2971.76,923.793 2977.18,940.752 2982.6,954.822 2988.02,966.242 2993.44,975.286 2998.86,982.242 3004.28,987.394 3009.7,991.014 3015.12,993.354 3020.54,994.639 3025.96,995.072 3031.38,994.83 3036.8,994.073 3042.22,992.94 3047.64,991.561 3053.06,990.052 3058.48,988.52 3063.9,987.062 3069.32,985.763 3074.74,984.699 3080.16,983.929 3085.58,983.496 "/>
<polyline clip-path="url(#clip583)" style="stroke:#3da44d; stroke-linecap:round; stroke-linejoin:round; stroke-width:4; stroke-opacity:1; fill:none" points="1896.22,983.206 1903.05,983.543 1909.87,984.182 1916.7,984.982 1923.52,985.771 1930.35,986.367 1937.18,986.595 1944,986.302 1950.83,985.377 1957.65,983.767 1964.48,981.484 1971.3,978.606 1978.13,975.282 1984.96,971.715 1991.78,968.145 1998.61,964.831 2005.43,962.021 2012.26,959.927 2019.08,958.702 2025.91,958.423 2032.74,959.08 2039.56,960.582 2046.39,962.766 2053.21,965.414 2060.04,968.287 2066.86,971.145 2073.69,973.779 2080.52,976.033 2087.34,977.814 2094.17,979.101 2100.99,979.941 2107.82,980.434 2114.64,980.719 2121.47,980.949 2128.3,981.275 2135.12,981.823 2141.95,982.68 2148.77,983.893 2155.6,985.458 2162.42,987.335 2169.25,989.448 2176.08,991.703 2182.9,994.001 2189.73,996.243 2196.55,998.346 2203.38,1000.25 2210.2,1001.9 2217.03,1003.28 2223.86,1004.37 2230.68,1005.19 2237.51,1005.73 2244.33,1006.01 2251.16,1006.03 2257.98,1005.79 2264.81,1005.29 2271.64,1004.49 2278.46,1003.4 2285.29,1002 2292.11,1000.28 2298.94,998.248 2305.77,995.915 2312.59,993.32 2319.42,990.514 2326.24,987.56 2333.07,984.53 2339.89,981.495 2346.72,978.518 2353.55,975.649 2360.37,972.916 2367.2,970.323 2374.02,967.851 2380.85,965.461 2387.67,963.094 2394.5,960.683 2401.33,958.154 2408.15,955.433 2414.98,952.446 2421.8,949.126 2428.63,945.413 2435.45,941.254 2442.28,936.606 2449.11,931.439 2455.93,925.734 2462.76,919.484 2469.58,912.687 2476.41,905.336 2483.23,897.402 2490.06,888.812 2496.89,879.426 2503.71,869.015 2510.54,857.243 2517.36,843.667 2524.19,827.745 2531.01,808.873 2537.84,786.439 2544.67,759.89 2551.49,728.817 2558.32,693.038 2565.14,652.676 2571.97,608.208 2578.79,560.492 2585.62,510.747 2592.45,460.493 2599.27,411.453 2606.1,365.423 2612.92,324.123 2619.75,289.05 2626.58,261.34 2633.4,241.671 2640.23,230.203 2647.05,226.567 2653.88,229.909 2660.7,238.972 2667.53,252.209 2674.36,267.918 2681.18,284.372 2688.01,299.948 2694.83,313.223 2701.66,323.054 2708.48,328.623 2715.31,329.458 2722.14,325.432 2728.96,316.748 2735.79,303.909 2742.61,287.685 2749.44,269.063 2756.26,249.201 2763.09,229.362 2769.92,210.854 2776.74,194.951 2783.57,182.826 2790.39,175.487 2797.22,173.726 2804.04,178.09 2810.87,188.872 2817.7,206.12 2824.52,229.667 2831.35,259.16 2838.17,294.097 2845,333.855 2851.82,377.71 2858.65,424.852 2865.48,474.397 2872.3,525.404 2879.13,576.89 2885.95,627.869 "/>
</svg>
