<?xml version="1.0" encoding="utf-8"?>
<svg xmlns="http://www.w3.org/2000/svg" xmlns:xlink="http://www.w3.org/1999/xlink" width="672" height="480" viewBox="0 0 2688 1920">
<defs>
  <clipPath id="clip440">
    <rect x="0" y="0" width="2688" height="1920"/>
  </clipPath>
</defs>
<path clip-path="url(#clip440)" d="M0 1920 L2688 1920 L2688 -4.26326e-14 L0 -4.26326e-14  Z" fill="#ffffff" fill-rule="evenodd" fill-opacity="1"/>
<defs>
  <clipPath id="clip441">
    <rect x="537" y="0" width="1883" height="1883"/>
  </clipPath>
</defs>
<path clip-path="url(#clip440)" d="M211.909 1800.78 L2640.76 1800.78 L2640.76 47.2441 L211.909 47.2441  Z" fill="#ffffff" fill-rule="evenodd" fill-opacity="1"/>
<defs>
  <clipPath id="clip442">
    <rect x="211" y="47" width="2430" height="1755"/>
  </clipPath>
</defs>
<polyline clip-path="url(#clip442)" style="stroke:#000000; stroke-linecap:round; stroke-linejoin:round; stroke-width:2; stroke-opacity:0.1; fill:none" points="423.86,1800.78 423.86,47.2441 "/>
<polyline clip-path="url(#clip442)" style="stroke:#000000; stroke-linecap:round; stroke-linejoin:round; stroke-width:2; stroke-opacity:0.1; fill:none" points="1139.91,1800.78 1139.91,47.2441 "/>
<polyline clip-path="url(#clip442)" style="stroke:#000000; stroke-linecap:round; stroke-linejoin:round; stroke-width:2; stroke-opacity:0.1; fill:none" points="1855.96,1800.78 1855.96,47.2441 "/>
<polyline clip-path="url(#clip442)" style="stroke:#000000; stroke-linecap:round; stroke-linejoin:round; stroke-width:2; stroke-opacity:0.1; fill:none" points="2572.01,1800.78 2572.01,47.2441 "/>
<polyline clip-path="url(#clip440)" style="stroke:#000000; stroke-linecap:round; stroke-linejoin:round; stroke-width:4; stroke-opacity:1; fill:none" points="211.909,1800.78 2640.76,1800.78 "/>
<polyline clip-path="url(#clip440)" style="stroke:#000000; stroke-linecap:round; stroke-linejoin:round; stroke-width:4; stroke-opacity:1; fill:none" points="423.86,1800.78 423.86,1781.88 "/>
<polyline clip-path="url(#clip440)" style="stroke:#000000; stroke-linecap:round; stroke-linejoin:round; stroke-width:4; stroke-opacity:1; fill:none" points="1139.91,1800.78 1139.91,1781.88 "/>
<polyline clip-path="url(#clip440)" style="stroke:#000000; stroke-linecap:round; stroke-linejoin:round; stroke-width:4; stroke-opacity:1; fill:none" points="1855.96,1800.78 1855.96,1781.88 "/>
<polyline clip-path="url(#clip440)" style="stroke:#000000; stroke-linecap:round; stroke-linejoin:round; stroke-width:4; stroke-opacity:1; fill:none" points="2572.01,1800.78 2572.01,1781.88 "/>
<path clip-path="url(#clip440)" d="M401.858 1834 Q398.247 1834 396.418 1837.57 Q394.612 1841.11 394.612 1848.24 Q394.612 1855.34 396.418 1858.91 Q398.247 1862.45 401.858 1862.45 Q405.492 1862.45 407.297 1858.91 Q409.126 1855.34 409.126 1848.24 Q409.126 1841.11 407.297 1837.57 Q405.492 1834 401.858 1834 M401.858 1830.3 Q407.668 1830.3 410.723 1834.9 Q413.802 1839.49 413.802 1848.24 Q413.802 1856.96 410.723 1861.57 Q407.668 1866.15 401.858 1866.15 Q396.047 1866.15 392.969 1861.57 Q389.913 1856.96 389.913 1848.24 Q389.913 1839.49 392.969 1834.9 Q396.047 1830.3 401.858 1830.3 Z" fill="#000000" fill-rule="nonzero" fill-opacity="1" /><path clip-path="url(#clip440)" d="M422.02 1859.6 L426.904 1859.6 L426.904 1865.48 L422.02 1865.48 L422.02 1859.6 Z" fill="#000000" fill-rule="nonzero" fill-opacity="1" /><path clip-path="url(#clip440)" d="M437.899 1861.55 L445.538 1861.55 L445.538 1835.18 L437.228 1836.85 L437.228 1832.59 L445.492 1830.92 L450.168 1830.92 L450.168 1861.55 L457.806 1861.55 L457.806 1865.48 L437.899 1865.48 L437.899 1861.55 Z" fill="#000000" fill-rule="nonzero" fill-opacity="1" /><path clip-path="url(#clip440)" d="M1118.09 1834 Q1114.48 1834 1112.65 1837.57 Q1110.85 1841.11 1110.85 1848.24 Q1110.85 1855.34 1112.65 1858.91 Q1114.48 1862.45 1118.09 1862.45 Q1121.73 1862.45 1123.53 1858.91 Q1125.36 1855.34 1125.36 1848.24 Q1125.36 1841.11 1123.53 1837.57 Q1121.73 1834 1118.09 1834 M1118.09 1830.3 Q1123.9 1830.3 1126.96 1834.9 Q1130.04 1839.49 1130.04 1848.24 Q1130.04 1856.96 1126.96 1861.57 Q1123.9 1866.15 1118.09 1866.15 Q1112.28 1866.15 1109.21 1861.57 Q1106.15 1856.96 1106.15 1848.24 Q1106.15 1839.49 1109.21 1834.9 Q1112.28 1830.3 1118.09 1830.3 Z" fill="#000000" fill-rule="nonzero" fill-opacity="1" /><path clip-path="url(#clip440)" d="M1138.26 1859.6 L1143.14 1859.6 L1143.14 1865.48 L1138.26 1865.48 L1138.26 1859.6 Z" fill="#000000" fill-rule="nonzero" fill-opacity="1" /><path clip-path="url(#clip440)" d="M1157.35 1861.55 L1173.67 1861.55 L1173.67 1865.48 L1151.73 1865.48 L1151.73 1861.55 Q1154.39 1858.79 1158.97 1854.16 Q1163.58 1849.51 1164.76 1848.17 Q1167.01 1845.65 1167.89 1843.91 Q1168.79 1842.15 1168.79 1840.46 Q1168.79 1837.71 1166.84 1835.97 Q1164.92 1834.23 1161.82 1834.23 Q1159.62 1834.23 1157.17 1835 Q1154.74 1835.76 1151.96 1837.31 L1151.96 1832.59 Q1154.78 1831.46 1157.24 1830.88 Q1159.69 1830.3 1161.73 1830.3 Q1167.1 1830.3 1170.29 1832.98 Q1173.49 1835.67 1173.49 1840.16 Q1173.49 1842.29 1172.68 1844.21 Q1171.89 1846.11 1169.78 1848.7 Q1169.21 1849.37 1166.1 1852.59 Q1163 1855.78 1157.35 1861.55 Z" fill="#000000" fill-rule="nonzero" fill-opacity="1" /><path clip-path="url(#clip440)" d="M1833.67 1834 Q1830.06 1834 1828.23 1837.57 Q1826.43 1841.11 1826.43 1848.24 Q1826.43 1855.34 1828.23 1858.91 Q1830.06 1862.45 1833.67 1862.45 Q1837.31 1862.45 1839.11 1858.91 Q1840.94 1855.34 1840.94 1848.24 Q1840.94 1841.11 1839.11 1837.57 Q1837.31 1834 1833.67 1834 M1833.67 1830.3 Q1839.48 1830.3 1842.54 1834.9 Q1845.62 1839.49 1845.62 1848.24 Q1845.62 1856.96 1842.54 1861.57 Q1839.48 1866.15 1833.67 1866.15 Q1827.86 1866.15 1824.78 1861.57 Q1821.73 1856.96 1821.73 1848.24 Q1821.73 1839.49 1824.78 1834.9 Q1827.86 1830.3 1833.67 1830.3 Z" fill="#000000" fill-rule="nonzero" fill-opacity="1" /><path clip-path="url(#clip440)" d="M1853.83 1859.6 L1858.72 1859.6 L1858.72 1865.48 L1853.83 1865.48 L1853.83 1859.6 Z" fill="#000000" fill-rule="nonzero" fill-opacity="1" /><path clip-path="url(#clip440)" d="M1883.07 1846.85 Q1886.43 1847.57 1888.3 1849.84 Q1890.2 1852.1 1890.2 1855.44 Q1890.2 1860.55 1886.68 1863.35 Q1883.16 1866.15 1876.68 1866.15 Q1874.5 1866.15 1872.19 1865.71 Q1869.9 1865.3 1867.44 1864.44 L1867.44 1859.93 Q1869.39 1861.06 1871.7 1861.64 Q1874.02 1862.22 1876.54 1862.22 Q1880.94 1862.22 1883.23 1860.48 Q1885.55 1858.75 1885.55 1855.44 Q1885.55 1852.38 1883.39 1850.67 Q1881.26 1848.93 1877.44 1848.93 L1873.42 1848.93 L1873.42 1845.09 L1877.63 1845.09 Q1881.08 1845.09 1882.91 1843.72 Q1884.74 1842.34 1884.74 1839.74 Q1884.74 1837.08 1882.84 1835.67 Q1880.96 1834.23 1877.44 1834.23 Q1875.52 1834.23 1873.32 1834.65 Q1871.13 1835.07 1868.49 1835.95 L1868.49 1831.78 Q1871.15 1831.04 1873.46 1830.67 Q1875.8 1830.3 1877.86 1830.3 Q1883.19 1830.3 1886.29 1832.73 Q1889.39 1835.14 1889.39 1839.26 Q1889.39 1842.13 1887.75 1844.12 Q1886.1 1846.09 1883.07 1846.85 Z" fill="#000000" fill-rule="nonzero" fill-opacity="1" /><path clip-path="url(#clip440)" d="M2549.16 1834 Q2545.55 1834 2543.72 1837.57 Q2541.91 1841.11 2541.91 1848.24 Q2541.91 1855.34 2543.72 1858.91 Q2545.55 1862.45 2549.16 1862.45 Q2552.79 1862.45 2554.6 1858.91 Q2556.42 1855.34 2556.42 1848.24 Q2556.42 1841.11 2554.6 1837.57 Q2552.79 1834 2549.16 1834 M2549.16 1830.3 Q2554.97 1830.3 2558.02 1834.9 Q2561.1 1839.49 2561.1 1848.24 Q2561.1 1856.96 2558.02 1861.57 Q2554.97 1866.15 2549.16 1866.15 Q2543.35 1866.15 2540.27 1861.57 Q2537.21 1856.96 2537.21 1848.24 Q2537.21 1839.49 2540.27 1834.9 Q2543.35 1830.3 2549.16 1830.3 Z" fill="#000000" fill-rule="nonzero" fill-opacity="1" /><path clip-path="url(#clip440)" d="M2569.32 1859.6 L2574.2 1859.6 L2574.2 1865.48 L2569.32 1865.48 L2569.32 1859.6 Z" fill="#000000" fill-rule="nonzero" fill-opacity="1" /><path clip-path="url(#clip440)" d="M2597.23 1835 L2585.43 1853.45 L2597.23 1853.45 L2597.23 1835 M2596.01 1830.92 L2601.89 1830.92 L2601.89 1853.45 L2606.82 1853.45 L2606.82 1857.34 L2601.89 1857.34 L2601.89 1865.48 L2597.23 1865.48 L2597.23 1857.34 L2581.63 1857.34 L2581.63 1852.82 L2596.01 1830.92 Z" fill="#000000" fill-rule="nonzero" fill-opacity="1" /><polyline clip-path="url(#clip442)" style="stroke:#000000; stroke-linecap:round; stroke-linejoin:round; stroke-width:2; stroke-opacity:0.1; fill:none" points="211.909,1394.72 2640.76,1394.72 "/>
<polyline clip-path="url(#clip442)" style="stroke:#000000; stroke-linecap:round; stroke-linejoin:round; stroke-width:2; stroke-opacity:0.1; fill:none" points="211.909,980.005 2640.76,980.005 "/>
<polyline clip-path="url(#clip442)" style="stroke:#000000; stroke-linecap:round; stroke-linejoin:round; stroke-width:2; stroke-opacity:0.1; fill:none" points="211.909,565.289 2640.76,565.289 "/>
<polyline clip-path="url(#clip442)" style="stroke:#000000; stroke-linecap:round; stroke-linejoin:round; stroke-width:2; stroke-opacity:0.1; fill:none" points="211.909,150.573 2640.76,150.573 "/>
<polyline clip-path="url(#clip440)" style="stroke:#000000; stroke-linecap:round; stroke-linejoin:round; stroke-width:4; stroke-opacity:1; fill:none" points="211.909,1800.78 211.909,47.2441 "/>
<polyline clip-path="url(#clip440)" style="stroke:#000000; stroke-linecap:round; stroke-linejoin:round; stroke-width:4; stroke-opacity:1; fill:none" points="211.909,1394.72 230.806,1394.72 "/>
<polyline clip-path="url(#clip440)" style="stroke:#000000; stroke-linecap:round; stroke-linejoin:round; stroke-width:4; stroke-opacity:1; fill:none" points="211.909,980.005 230.806,980.005 "/>
<polyline clip-path="url(#clip440)" style="stroke:#000000; stroke-linecap:round; stroke-linejoin:round; stroke-width:4; stroke-opacity:1; fill:none" points="211.909,565.289 230.806,565.289 "/>
<polyline clip-path="url(#clip440)" style="stroke:#000000; stroke-linecap:round; stroke-linejoin:round; stroke-width:4; stroke-opacity:1; fill:none" points="211.909,150.573 230.806,150.573 "/>
<path clip-path="url(#clip440)" d="M50.5475 1395.17 L80.2233 1395.17 L80.2233 1399.11 L50.5475 1399.11 L50.5475 1395.17 Z" fill="#000000" fill-rule="nonzero" fill-opacity="1" /><path clip-path="url(#clip440)" d="M94.3436 1408.07 L110.663 1408.07 L110.663 1412 L88.7186 1412 L88.7186 1408.07 Q91.3806 1405.31 95.9639 1400.68 Q100.57 1396.03 101.751 1394.69 Q103.996 1392.16 104.876 1390.43 Q105.779 1388.67 105.779 1386.98 Q105.779 1384.22 103.834 1382.49 Q101.913 1380.75 98.8111 1380.75 Q96.6121 1380.75 94.1584 1381.52 Q91.7278 1382.28 88.9501 1383.83 L88.9501 1379.11 Q91.7741 1377.97 94.2278 1377.39 Q96.6815 1376.82 98.7185 1376.82 Q104.089 1376.82 107.283 1379.5 Q110.478 1382.19 110.478 1386.68 Q110.478 1388.81 109.668 1390.73 Q108.881 1392.63 106.774 1395.22 Q106.195 1395.89 103.094 1399.11 Q99.9917 1402.3 94.3436 1408.07 Z" fill="#000000" fill-rule="nonzero" fill-opacity="1" /><path clip-path="url(#clip440)" d="M124.505 1408.07 L140.825 1408.07 L140.825 1412 L118.88 1412 L118.88 1408.07 Q121.542 1405.31 126.126 1400.68 Q130.732 1396.03 131.913 1394.69 Q134.158 1392.16 135.038 1390.43 Q135.941 1388.67 135.941 1386.98 Q135.941 1384.22 133.996 1382.49 Q132.075 1380.75 128.973 1380.75 Q126.774 1380.75 124.32 1381.52 Q121.89 1382.28 119.112 1383.83 L119.112 1379.11 Q121.936 1377.97 124.39 1377.39 Q126.843 1376.82 128.88 1376.82 Q134.251 1376.82 137.445 1379.5 Q140.64 1382.19 140.64 1386.68 Q140.64 1388.81 139.829 1390.73 Q139.042 1392.63 136.936 1395.22 Q136.357 1395.89 133.255 1399.11 Q130.154 1402.3 124.505 1408.07 Z" fill="#000000" fill-rule="nonzero" fill-opacity="1" /><path clip-path="url(#clip440)" d="M150.686 1377.44 L169.042 1377.44 L169.042 1381.38 L154.968 1381.38 L154.968 1389.85 Q155.987 1389.5 157.005 1389.34 Q158.024 1389.15 159.042 1389.15 Q164.829 1389.15 168.209 1392.33 Q171.589 1395.5 171.589 1400.91 Q171.589 1406.49 168.116 1409.59 Q164.644 1412.67 158.325 1412.67 Q156.149 1412.67 153.88 1412.3 Q151.635 1411.93 149.228 1411.19 L149.228 1406.49 Q151.311 1407.63 153.533 1408.18 Q155.755 1408.74 158.232 1408.74 Q162.237 1408.74 164.575 1406.63 Q166.913 1404.52 166.913 1400.91 Q166.913 1397.3 164.575 1395.2 Q162.237 1393.09 158.232 1393.09 Q156.357 1393.09 154.482 1393.51 Q152.63 1393.92 150.686 1394.8 L150.686 1377.44 Z" fill="#000000" fill-rule="nonzero" fill-opacity="1" /><path clip-path="url(#clip440)" d="M49.5521 980.457 L79.2279 980.457 L79.2279 984.392 L49.5521 984.392 L49.5521 980.457 Z" fill="#000000" fill-rule="nonzero" fill-opacity="1" /><path clip-path="url(#clip440)" d="M93.3482 993.35 L109.668 993.35 L109.668 997.285 L87.7232 997.285 L87.7232 993.35 Q90.3852 990.595 94.9685 985.966 Q99.575 981.313 100.756 979.97 Q103.001 977.447 103.881 975.711 Q104.783 973.952 104.783 972.262 Q104.783 969.508 102.839 967.771 Q100.918 966.035 97.8158 966.035 Q95.6167 966.035 93.163 966.799 Q90.7325 967.563 87.9547 969.114 L87.9547 964.392 Q90.7788 963.258 93.2324 962.679 Q95.6861 962.1 97.7232 962.1 Q103.094 962.1 106.288 964.785 Q109.482 967.47 109.482 971.961 Q109.482 974.091 108.672 976.012 Q107.885 977.91 105.779 980.503 Q105.2 981.174 102.098 984.392 Q98.9963 987.586 93.3482 993.35 Z" fill="#000000" fill-rule="nonzero" fill-opacity="1" /><path clip-path="url(#clip440)" d="M123.51 993.35 L139.829 993.35 L139.829 997.285 L117.885 997.285 L117.885 993.35 Q120.547 990.595 125.13 985.966 Q129.737 981.313 130.917 979.97 Q133.163 977.447 134.042 975.711 Q134.945 973.952 134.945 972.262 Q134.945 969.508 133.001 967.771 Q131.079 966.035 127.978 966.035 Q125.779 966.035 123.325 966.799 Q120.894 967.563 118.117 969.114 L118.117 964.392 Q120.941 963.258 123.394 962.679 Q125.848 962.1 127.885 962.1 Q133.255 962.1 136.45 964.785 Q139.644 967.47 139.644 971.961 Q139.644 974.091 138.834 976.012 Q138.047 977.91 135.941 980.503 Q135.362 981.174 132.26 984.392 Q129.158 987.586 123.51 993.35 Z" fill="#000000" fill-rule="nonzero" fill-opacity="1" /><path clip-path="url(#clip440)" d="M159.644 965.804 Q156.033 965.804 154.204 969.369 Q152.399 972.91 152.399 980.04 Q152.399 987.146 154.204 990.711 Q156.033 994.253 159.644 994.253 Q163.278 994.253 165.084 990.711 Q166.913 987.146 166.913 980.04 Q166.913 972.91 165.084 969.369 Q163.278 965.804 159.644 965.804 M159.644 962.1 Q165.454 962.1 168.51 966.707 Q171.589 971.29 171.589 980.04 Q171.589 988.767 168.51 993.373 Q165.454 997.956 159.644 997.956 Q153.834 997.956 150.755 993.373 Q147.7 988.767 147.7 980.04 Q147.7 971.29 150.755 966.707 Q153.834 962.1 159.644 962.1 Z" fill="#000000" fill-rule="nonzero" fill-opacity="1" /><path clip-path="url(#clip440)" d="M50.5475 565.741 L80.2233 565.741 L80.2233 569.676 L50.5475 569.676 L50.5475 565.741 Z" fill="#000000" fill-rule="nonzero" fill-opacity="1" /><path clip-path="url(#clip440)" d="M94.3436 578.634 L110.663 578.634 L110.663 582.569 L88.7186 582.569 L88.7186 578.634 Q91.3806 575.88 95.9639 571.25 Q100.57 566.597 101.751 565.255 Q103.996 562.731 104.876 560.995 Q105.779 559.236 105.779 557.546 Q105.779 554.792 103.834 553.056 Q101.913 551.319 98.8111 551.319 Q96.6121 551.319 94.1584 552.083 Q91.7278 552.847 88.9501 554.398 L88.9501 549.676 Q91.7741 548.542 94.2278 547.963 Q96.6815 547.384 98.7185 547.384 Q104.089 547.384 107.283 550.069 Q110.478 552.755 110.478 557.245 Q110.478 559.375 109.668 561.296 Q108.881 563.194 106.774 565.787 Q106.195 566.458 103.094 569.676 Q99.9917 572.87 94.3436 578.634 Z" fill="#000000" fill-rule="nonzero" fill-opacity="1" /><path clip-path="url(#clip440)" d="M121.288 578.634 L128.927 578.634 L128.927 552.269 L120.617 553.935 L120.617 549.676 L128.88 548.009 L133.556 548.009 L133.556 578.634 L141.195 578.634 L141.195 582.569 L121.288 582.569 L121.288 578.634 Z" fill="#000000" fill-rule="nonzero" fill-opacity="1" /><path clip-path="url(#clip440)" d="M150.686 548.009 L169.042 548.009 L169.042 551.944 L154.968 551.944 L154.968 560.417 Q155.987 560.069 157.005 559.907 Q158.024 559.722 159.042 559.722 Q164.829 559.722 168.209 562.893 Q171.589 566.065 171.589 571.481 Q171.589 577.06 168.116 580.162 Q164.644 583.241 158.325 583.241 Q156.149 583.241 153.88 582.87 Q151.635 582.5 149.228 581.759 L149.228 577.06 Q151.311 578.194 153.533 578.75 Q155.755 579.305 158.232 579.305 Q162.237 579.305 164.575 577.199 Q166.913 575.092 166.913 571.481 Q166.913 567.87 164.575 565.764 Q162.237 563.657 158.232 563.657 Q156.357 563.657 154.482 564.074 Q152.63 564.491 150.686 565.37 L150.686 548.009 Z" fill="#000000" fill-rule="nonzero" fill-opacity="1" /><path clip-path="url(#clip440)" d="M49.5521 151.025 L79.2279 151.025 L79.2279 154.96 L49.5521 154.96 L49.5521 151.025 Z" fill="#000000" fill-rule="nonzero" fill-opacity="1" /><path clip-path="url(#clip440)" d="M93.3482 163.918 L109.668 163.918 L109.668 167.853 L87.7232 167.853 L87.7232 163.918 Q90.3852 161.164 94.9685 156.534 Q99.575 151.881 100.756 150.539 Q103.001 148.016 103.881 146.279 Q104.783 144.52 104.783 142.83 Q104.783 140.076 102.839 138.34 Q100.918 136.604 97.8158 136.604 Q95.6167 136.604 93.163 137.367 Q90.7325 138.131 87.9547 139.682 L87.9547 134.96 Q90.7788 133.826 93.2324 133.247 Q95.6861 132.668 97.7232 132.668 Q103.094 132.668 106.288 135.354 Q109.482 138.039 109.482 142.529 Q109.482 144.659 108.672 146.58 Q107.885 148.479 105.779 151.071 Q105.2 151.742 102.098 154.96 Q98.9963 158.154 93.3482 163.918 Z" fill="#000000" fill-rule="nonzero" fill-opacity="1" /><path clip-path="url(#clip440)" d="M120.292 163.918 L127.931 163.918 L127.931 137.553 L119.621 139.219 L119.621 134.96 L127.885 133.293 L132.561 133.293 L132.561 163.918 L140.2 163.918 L140.2 167.853 L120.292 167.853 L120.292 163.918 Z" fill="#000000" fill-rule="nonzero" fill-opacity="1" /><path clip-path="url(#clip440)" d="M159.644 136.372 Q156.033 136.372 154.204 139.937 Q152.399 143.479 152.399 150.608 Q152.399 157.715 154.204 161.279 Q156.033 164.821 159.644 164.821 Q163.278 164.821 165.084 161.279 Q166.913 157.715 166.913 150.608 Q166.913 143.479 165.084 139.937 Q163.278 136.372 159.644 136.372 M159.644 132.668 Q165.454 132.668 168.51 137.275 Q171.589 141.858 171.589 150.608 Q171.589 159.335 168.51 163.941 Q165.454 168.525 159.644 168.525 Q153.834 168.525 150.755 163.941 Q147.7 159.335 147.7 150.608 Q147.7 141.858 150.755 137.275 Q153.834 132.668 159.644 132.668 Z" fill="#000000" fill-rule="nonzero" fill-opacity="1" /><polyline clip-path="url(#clip442)" style="stroke:#009af9; stroke-linecap:round; stroke-linejoin:round; stroke-width:4; stroke-opacity:1; fill:none" points="280.649,1751.15 423.86,978.834 567.07,606.776 710.28,368.276 853.491,249.084 996.701,159.84 1139.91,121.202 1283.12,96.8724 1426.33,106.224 1569.54,116.215 1712.75,159.724 1855.96,178.645 1999.17,240.748 2142.38,286.09 2285.59,329.067 2428.8,384.769 2572.01,456.539 "/>
</svg>
